<svg xmlns="http://www.w3.org/2000/svg" width="110" height="110"><clipPath id="a"><path d="M13.333 5h83.334Q105 5 105 13.333v83.334Q105 105 96.667 105H13.333Q5 105 5 96.667V13.333Q5 5 13.333 5"/></clipPath><g clip-path="url(#a)"><path fill="#777" d="m36.608 36.608 22.066-8.77 20.937 11.98 3.495 25.757-17.66 19.077-26.312-4.957-14.863-21.537z"/><path fill="#606060" d="m35.315 33.356 22.066-8.77q.183-.073.372-.125.19-.051.384-.081.195-.03.391-.039.197-.008.393.006t.39.05.38.093q.189.057.37.135.18.078.35.175L81.35 36.78q.175.099.336.218t.309.255q.147.137.277.29t.243.318.204.345.164.365.121.382.077.394l3.494 25.757q.026.191.03.384.005.194-.011.386-.017.192-.054.382-.038.189-.096.373t-.136.36-.175.344-.212.322-.246.297L68.014 87.03q-.15.162-.319.304-.17.142-.356.262t-.385.215-.41.165-.428.111-.438.057-.441.002-.439-.054l-26.312-4.958q-.336-.063-.654-.19-.318-.128-.605-.315-.288-.187-.533-.426-.246-.238-.44-.52L21.39 60.146q-.14-.203-.25-.423t-.188-.454-.123-.476-.055-.488.014-.491q.024-.246.082-.485.059-.24.15-.468t.213-.442l12.338-21.55q.146-.256.333-.484t.41-.42.475-.347.526-.262m2.586 6.505-1.293-3.253 3.037 1.739-12.337 21.55-3.037-1.74 2.88-1.987 14.864 21.537-2.88 1.988.647-3.44 26.313 4.958-.649 3.439-2.568-2.377 17.66-19.078 2.568 2.378-3.469.47-3.494-25.757 3.468-.47-1.738 3.037-20.938-11.979 1.739-3.038 1.292 3.253z"/></g></svg>