<svg xmlns="http://www.w3.org/2000/svg" width="110" height="110"><clipPath id="a"><path d="M13.333 5h83.334Q105 5 105 13.333v83.334Q105 105 96.667 105H13.333Q5 105 5 96.667V13.333Q5 5 13.333 5"/></clipPath><g clip-path="url(#a)"><path fill="#D5C7A6" d="m31.901 31.901 31.554-8.455 23.099 23.1-8.455 31.553-31.554 8.455-23.099-23.1z"/><path fill="none" stroke="#D5C7A6" stroke-linejoin="round" stroke-width="7" d="m31.901 31.901 31.554-8.455 23.099 23.1-8.455 31.553-31.554 8.455-23.099-23.1z"/><path fill="#BFB295" d="m40.15 40.15 20.285-5.434 14.85 14.849-5.436 20.284-20.284 5.435-14.85-14.849z"/><path fill="none" stroke="#BFB295" stroke-linejoin="round" stroke-width="7" d="m40.15 40.15 20.285-5.434 14.85 14.849-5.436 20.284-20.284 5.435-14.85-14.849z"/><path fill="#A99E84" d="m48.4 48.4 9.016-2.415 6.6 6.6L61.6 61.6l-9.016 2.415-6.6-6.6z"/><path fill="none" stroke="#A99E84" stroke-linejoin="round" stroke-width="7" d="m48.4 48.4 9.016-2.415 6.6 6.6L61.6 61.6l-9.016 2.415-6.6-6.6z"/></g></svg>