<svg xmlns="http://www.w3.org/2000/svg" width="110" height="110"><clipPath id="a"><path d="M13.333 5h83.334Q105 5 105 13.333v83.334Q105 105 96.667 105H13.333Q5 105 5 96.667V13.333Q5 5 13.333 5"/></clipPath><g clip-path="url(#a)"><path fill="none" stroke="#4D2621" stroke-linecap="round" stroke-linejoin="round" stroke-width="5" d="M53.232 67.374 42.524 83.56l-.623 6.1m7.796-25.821L38.862 79.982l-.719 6.027m8.018-25.706-14.99 13.138-4.443 2.59m15.898-19.263-16.662 7.954-7.43-1.276m48.84-10.214L83.56 42.524l6.1-.623m-25.821 7.796 13.24-14.917 2.681-4.358M60.303 46.161l13.138-14.99 2.59-4.443M56.768 42.626l13.034-15.063 2.498-4.527"/><path fill="#4D2621" d="M35.201 60.657q-12.02-3.536-7.778-14.85l1.414 5.658 2.121-4.95q.707 9.192 7.071 11.313z"/><path fill="#4D2621" d="M34.919 61.616q-6.417-1.887-8.559-5.975-2.152-4.109.126-10.184.035-.093.087-.176.052-.084.12-.156.066-.072.146-.13.08-.057.17-.098.09-.04.186-.063.095-.022.194-.026.098-.003.196.013.097.016.189.05.114.043.214.112.1.068.181.159.08.09.138.198.056.107.086.225l1.414 5.657-.97.243-.92-.394 2.122-4.95q.039-.09.095-.172.055-.081.126-.15.07-.069.153-.122.083-.054.174-.09.091-.037.188-.055t.196-.017.194.021.187.06q.126.054.233.14.107.085.186.197.08.111.127.24.047.128.057.265.657 8.53 6.39 10.442.094.03.18.08.085.048.16.113.074.065.134.142.06.078.105.166.044.088.07.183t.033.194-.005.196-.044.19q-.075.225-.241.392l-2.829 2.828q-.095.095-.212.162t-.248.1-.265.03-.264-.04m.564-1.918-.282.959-.707-.707 2.828-2.829.707.707-.316.95q-6.994-2.332-7.752-12.187l.997-.076.92.394-2.122 4.95q-.045.106-.114.199t-.157.168-.19.128-.215.08q-.096.025-.194.03-.099.004-.196-.01-.098-.015-.19-.048-.093-.033-.177-.084-.085-.05-.158-.117-.073-.066-.131-.145-.06-.08-.101-.168-.042-.09-.066-.185l-1.414-5.657.97-.242.936.35q-1.964 5.239-.227 8.555 1.748 3.336 7.351 4.985m25.174-24.497q-3.536-12.02-14.85-7.778l5.658 1.414-4.95 2.121q9.192.707 11.313 7.071z"/><path fill="#4D2621" d="M61.616 34.919q-1.887-6.417-5.975-8.559-4.109-2.152-10.184.126-.093.035-.176.087-.084.052-.156.12-.072.066-.13.146-.057.08-.098.17-.04.09-.063.186-.022.095-.026.194-.003.098.013.196.016.097.05.189.043.114.112.214.068.1.159.181.09.08.198.138.107.056.225.086l5.657 1.414.243-.97-.394-.92-4.95 2.122q-.09.039-.172.095-.081.055-.15.126-.069.07-.122.153-.054.083-.09.174-.037.091-.055.188t-.017.196.021.194.06.187q.054.126.14.233.085.107.197.186.111.08.24.127.128.047.265.057 8.53.657 10.442 6.39.03.094.08.18.048.085.113.16.065.074.142.134.078.06.166.105.088.044.183.07t.194.033.196-.005.19-.044q.225-.075.392-.241l2.828-2.829q.095-.095.162-.212t.1-.248.03-.265-.04-.264m-1.918.564.959-.282-.707-.707-2.829 2.828.707.707.95-.316q-2.332-6.994-12.187-7.752l-.076.997.394.92 4.95-2.122q.106-.045.199-.114t.168-.157.128-.19.08-.215q.025-.096.03-.194.004-.099-.01-.196-.015-.098-.048-.19-.033-.093-.084-.177-.05-.085-.117-.158-.066-.073-.145-.131-.08-.06-.168-.101-.09-.042-.185-.066l-5.657-1.414-.242.97.35.936q5.239-1.964 8.555-.227 3.336 1.748 4.985 7.351"/><path fill="#DB6F4B" d="M42.272 42.272q.4-.4.813-.783.415-.383.842-.75.428-.366.87-.716.44-.349.893-.68.452-.33.915-.641.463-.312.936-.603t.954-.562.97-.52.983-.476q.494-.228.993-.433.5-.204 1.003-.386t1.009-.34 1.012-.293 1.014-.245q.506-.11 1.012-.197.506-.086 1.009-.147t1.003-.098.994-.048.984.001.97.051.955.1q.473.064.937.151t.917.2q.453.11.895.247.441.136.87.295.429.16.843.343.415.183.815.39.4.205.785.434.384.229.752.479t.718.522.681.565.644.605.605.644.565.681.522.718q.25.368.48.752.228.384.434.785.206.4.389.815t.343.843.295.87.248.895.199.917.15.937.1.955q.039.481.052.97t.001.984-.048.994T75.5 52.5t-.147 1.009-.197 1.012-.245 1.014q-.134.507-.293 1.012-.158.506-.34 1.009t-.386 1.003-.433.993q-.227.495-.476.983-.25.489-.52.97t-.562.954q-.291.473-.603.936-.311.463-.642.915-.33.453-.68.894-.349.44-.715.869-.367.427-.75.842-.384.414-.783.813-.4.4-.813.783-.415.383-.842.75-.428.366-.87.716-.44.349-.893.68-.452.33-.915.641-.463.312-.936.603t-.954.562q-.481.27-.97.52-.488.25-.983.476-.494.228-.993.433-.5.204-1.003.386t-1.009.34q-.505.159-1.012.293-.507.135-1.014.245-.506.11-1.012.197-.506.086-1.009.147t-1.003.098-.994.048-.984-.001-.97-.051-.955-.1q-.473-.064-.937-.151t-.917-.2q-.453-.11-.895-.247-.441-.136-.87-.295-.429-.16-.843-.343-.415-.183-.815-.39-.4-.205-.785-.434-.384-.229-.752-.479t-.718-.522-.681-.565-.644-.605-.605-.644-.565-.681-.522-.718q-.25-.368-.48-.752-.228-.384-.434-.785-.206-.4-.389-.815t-.343-.843-.295-.87-.248-.895-.199-.917-.15-.937-.1-.955q-.039-.481-.052-.97t-.001-.984.048-.994.098-1.003.147-1.009.197-1.012.245-1.014q.134-.507.293-1.012.158-.506.34-1.009t.386-1.003.433-.993q.227-.495.476-.983.25-.489.52-.97t.562-.954.603-.936.642-.915q.33-.453.68-.894.349-.44.715-.869.367-.427.75-.842.384-.414.783-.813"/><path fill="none" stroke="#B15A3D" stroke-linecap="round" stroke-linejoin="round" stroke-width="4" d="M42.272 42.272q.4-.4.813-.783.415-.383.842-.75.428-.366.87-.716.44-.349.893-.68.452-.33.915-.641.463-.312.936-.603t.954-.562.97-.52.983-.476q.494-.228.993-.433.5-.204 1.003-.386t1.009-.34 1.012-.293 1.014-.245q.506-.11 1.012-.197.506-.086 1.009-.147t1.003-.098.994-.048.984.001.97.051.955.1q.473.064.937.151t.917.2q.453.11.895.247.441.136.87.295.429.16.843.343.415.183.815.39.4.205.785.434.384.229.752.479t.718.522.681.565.644.605.605.644.565.681.522.718q.25.368.48.752.228.384.434.785.206.4.389.815t.343.843.295.87.248.895.199.917.15.937.1.955q.039.481.052.97t.001.984-.048.994T75.5 52.5t-.147 1.009-.197 1.012-.245 1.014q-.134.507-.293 1.012-.158.506-.34 1.009t-.386 1.003-.433.993q-.227.495-.476.983-.25.489-.52.97t-.562.954q-.291.473-.603.936-.311.463-.642.915-.33.453-.68.894-.349.44-.715.869-.367.427-.75.842-.384.414-.783.813-.4.4-.813.783-.415.383-.842.75-.428.366-.87.716-.44.349-.893.68-.452.33-.915.641-.463.312-.936.603t-.954.562q-.481.27-.97.52-.488.25-.983.476-.494.228-.993.433-.5.204-1.003.386t-1.009.34q-.505.159-1.012.293-.507.135-1.014.245-.506.11-1.012.197-.506.086-1.009.147t-1.003.098-.994.048-.984-.001-.97-.051-.955-.1q-.473-.064-.937-.151t-.917-.2q-.453-.11-.895-.247-.441-.136-.87-.295-.429-.16-.843-.343-.415-.183-.815-.39-.4-.205-.785-.434-.384-.229-.752-.479t-.718-.522-.681-.565-.644-.605-.605-.644-.565-.681-.522-.718q-.25-.368-.48-.752-.228-.384-.434-.785-.206-.4-.389-.815t-.343-.843-.295-.87-.248-.895-.199-.917-.15-.937-.1-.955q-.039-.481-.052-.97t-.001-.984.048-.994.098-1.003.147-1.009.197-1.012.245-1.014q.134-.507.293-1.012.158-.506.34-1.009t.386-1.003.433-.993q.227-.495.476-.983.25-.489.52-.97t.562-.954.603-.936.642-.915q.33-.453.68-.894.349-.44.715-.869.367-.427.75-.842.384-.414.783-.813"/><path fill="none" stroke="#B15A3D" stroke-linecap="round" stroke-linejoin="round" stroke-width="4" d="M67.728 56.414Q57.12 52.88 53.586 42.272m2.828 25.456Q52.88 57.12 42.272 53.586"/></g></svg>