<svg xmlns="http://www.w3.org/2000/svg" width="110" height="110"><clipPath id="a"><path d="M13.333 5h83.334Q105 5 105 13.333v83.334Q105 105 96.667 105H13.333Q5 105 5 96.667V13.333Q5 5 13.333 5"/></clipPath><g clip-path="url(#a)"><path fill="#CFC295" d="M37.322 37.322q1.741-1.74 3.789-3.109t4.322-2.31 4.69-1.423Q52.538 30 55 30t4.877.48 4.69 1.423 4.322 2.31 3.789 3.11q1.74 1.74 3.109 3.788t2.31 4.322 1.423 4.69Q80 52.538 80 55t-.48 4.877-1.423 4.69-2.31 4.322-3.11 3.789q-1.74 1.74-3.788 3.109t-4.322 2.31-4.69 1.423Q57.462 80 55 80t-4.877-.48-4.69-1.423-4.322-2.31-3.789-3.11q-1.74-1.74-3.109-3.788t-2.31-4.322q-.942-2.275-1.423-4.69Q30 57.462 30 55t.48-4.877 1.423-4.69 2.31-4.322 3.11-3.789"/><path fill="#FFF0B8" d="M40.858 40.858q1.393-1.393 3.03-2.487 1.638-1.095 3.458-1.849 1.82-.753 3.752-1.138T55 35t3.902.384q1.932.385 3.752 1.138 1.82.754 3.457 1.849 1.638 1.094 3.031 2.487t2.487 3.03 1.849 3.458 1.138 3.752T75 55t-.384 3.902-1.138 3.752-1.849 3.457-2.487 3.031-3.03 2.487q-1.638 1.095-3.458 1.849-1.82.753-3.752 1.138T55 75t-3.902-.384q-1.932-.385-3.752-1.138-1.82-.754-3.457-1.849-1.638-1.094-3.031-2.487t-2.487-3.03-1.849-3.458-1.138-3.752T35 55t.384-3.902 1.138-3.752 1.849-3.457 2.487-3.031"/></g></svg>