<?xml version="1.0" encoding="utf-8" ?>
<svg xmlns="http://www.w3.org/2000/svg" xmlns:xlink="http://www.w3.org/1999/xlink" width="110" height="110">
	<clipPath id="cl_3">
		<path d="M26.4286 19.2857L83.5714 19.2857L83.5714 76.4286L26.4286 76.4286L26.4286 19.2857ZM26.4286 19.2857L72.8571 47.8571Q72.8571 47.4188 72.8356 46.9809Q72.8141 46.5431 72.7712 46.1068Q72.7282 45.6706 72.6639 45.237Q72.5995 44.8033 72.514 44.3734Q72.4285 43.9434 72.322 43.5182Q72.2155 43.093 72.0882 42.6735Q71.961 42.254 71.8133 41.8412Q71.6656 41.4285 71.4978 41.0235Q71.3301 40.6185 71.1427 40.2222Q70.9552 39.8259 70.7486 39.4393Q70.5419 39.0527 70.3166 38.6767Q70.0912 38.3007 69.8477 37.9362Q69.6041 37.5718 69.343 37.2197Q69.0818 36.8676 68.8038 36.5287Q68.5257 36.1898 68.2313 35.865Q67.9369 35.5402 67.6269 35.2302Q67.3169 34.9203 66.9921 34.6259Q66.6673 34.3315 66.3284 34.0534Q65.9896 33.7753 65.6375 33.5141Q65.2854 33.253 64.9209 33.0095Q64.5564 32.7659 64.1804 32.5406Q63.8044 32.3152 63.4178 32.1085Q63.0312 31.9019 62.6349 31.7145Q62.2386 31.527 61.8336 31.3593Q61.4286 31.1915 61.0159 31.0439Q60.6031 30.8962 60.1837 30.7689Q59.7642 30.6417 59.3389 30.5352Q58.9137 30.4286 58.4838 30.3431Q58.0538 30.2576 57.6202 30.1933Q57.1866 30.129 56.7503 30.086Q56.314 30.043 55.8762 30.0215Q55.4384 30 55 30Q54.5616 30 54.1238 30.0215Q53.686 30.043 53.2497 30.086Q52.8134 30.129 52.3798 30.1933Q51.9462 30.2576 51.5162 30.3431Q51.0863 30.4286 50.6611 30.5352Q50.2358 30.6417 49.8163 30.7689Q49.3968 30.8962 48.9841 31.0439Q48.5714 31.1915 48.1664 31.3593Q47.7614 31.527 47.3651 31.7145Q46.9688 31.9019 46.5822 32.1085Q46.1956 32.3152 45.8196 32.5406Q45.4436 32.7659 45.0791 33.0095Q44.7146 33.253 44.3625 33.5141Q44.0104 33.7753 43.6715 34.0534Q43.3327 34.3315 43.0079 34.6259Q42.6831 34.9203 42.3731 35.2302Q42.0631 35.5402 41.7687 35.865Q41.4743 36.1898 41.1962 36.5287Q40.9181 36.8676 40.657 37.2197Q40.3959 37.5718 40.1523 37.9362Q39.9088 38.3007 39.6834 38.6767Q39.4581 39.0527 39.2514 39.4393Q39.0448 39.8259 38.8573 40.2222Q38.6699 40.6185 38.5021 41.0235Q38.3344 41.4285 38.1867 41.8412Q38.039 42.254 37.9118 42.6735Q37.7845 43.093 37.678 43.5182Q37.5715 43.9434 37.486 44.3734Q37.4005 44.8033 37.3361 45.237Q37.2718 45.6706 37.2288 46.1068Q37.1859 46.5431 37.1644 46.9809Q37.1429 47.4188 37.1429 47.8571Q37.1429 48.2955 37.1644 48.7334Q37.1859 49.1712 37.2288 49.6075Q37.2718 50.0437 37.3361 50.4773Q37.4005 50.9109 37.486 51.3409Q37.5715 51.7708 37.678 52.1961Q37.7845 52.6213 37.9118 53.0408Q38.039 53.4603 38.1867 53.873Q38.3344 54.2858 38.5021 54.6908Q38.6699 55.0958 38.8573 55.4921Q39.0448 55.8883 39.2514 56.2749Q39.458 56.6615 39.6834 57.0375Q39.9088 57.4135 40.1523 57.778Q40.3959 58.1425 40.657 58.4946Q40.9181 58.8467 41.1962 59.1856Q41.4743 59.5245 41.7687 59.8493Q42.0631 60.1741 42.3731 60.484Q42.6831 60.794 43.0079 61.0884Q43.3327 61.3828 43.6715 61.6609Q44.0104 61.939 44.3625 62.2001Q44.7146 62.4613 45.0791 62.7048Q45.4436 62.9484 45.8196 63.1737Q46.1956 63.3991 46.5822 63.6057Q46.9688 63.8124 47.3651 63.9998Q47.7614 64.1872 48.1664 64.355Q48.5714 64.5227 48.9841 64.6704Q49.3969 64.8181 49.8163 64.9454Q50.2358 65.0726 50.6611 65.1791Q51.0863 65.2856 51.5162 65.3712Q51.9462 65.4567 52.3798 65.521Q52.8134 65.5853 53.2497 65.6283Q53.686 65.6713 54.1238 65.6928Q54.5616 65.7143 55 65.7143Q55.4384 65.7143 55.8762 65.6928Q56.314 65.6713 56.7503 65.6283Q57.1866 65.5853 57.6202 65.521Q58.0538 65.4567 58.4837 65.3712Q58.9137 65.2856 59.3389 65.1791Q59.7642 65.0726 60.1837 64.9454Q60.6031 64.8181 61.0159 64.6704Q61.4286 64.5227 61.8336 64.355Q62.2386 64.1872 62.6349 63.9998Q63.0312 63.8124 63.4178 63.6057Q63.8044 63.3991 64.1804 63.1737Q64.5564 62.9484 64.9209 62.7048Q65.2854 62.4613 65.6375 62.2001Q65.9896 61.939 66.3284 61.6609Q66.6673 61.3828 66.9921 61.0884Q67.3169 60.794 67.6269 60.4841Q67.9369 60.1741 68.2313 59.8493Q68.5257 59.5245 68.8038 59.1856Q69.0818 58.8467 69.343 58.4946Q69.6041 58.1425 69.8477 57.778Q70.0912 57.4135 70.3166 57.0375Q70.5419 56.6615 70.7486 56.2749Q70.9552 55.8883 71.1427 55.4921Q71.3301 55.0958 71.4978 54.6908Q71.6656 54.2858 71.8133 53.873Q71.961 53.4603 72.0882 53.0408Q72.2155 52.6213 72.322 52.1961Q72.4285 51.7708 72.514 51.3409Q72.5995 50.9109 72.6639 50.4773Q72.7282 50.0437 72.7712 49.6075Q72.8141 49.1712 72.8356 48.7334Q72.8571 48.2955 72.8571 47.8571"/>
	</clipPath>
	<g clip-path="url(#cl_3)">
		<path fill="#111" transform="matrix(0.714286 0 0 0.714286 55 47.8571)" d="M24.7487 24.7487Q9.89949 23.8995 -1.5299e-06 35Q-9.8995 23.8995 -24.7487 24.7487Q-23.8995 9.89949 -35 -3.0598e-06Q-23.8995 -9.8995 -24.7487 -24.7487Q-9.8995 -23.8995 4.17371e-07 -35Q9.89949 -23.8995 24.7487 -24.7487Q23.8995 -9.89949 35 6.11959e-06Q23.8995 9.8995 24.7487 24.7487Z"/>
	</g>
	<path fill="none" stroke="black" stroke-width="2.3999999" stroke-linejoin="round" transform="translate(55 79.2857)" d="M-23.39 7.70832Q-26.769 7.70832 -28.5414 5.82844Q-30.309 3.94855 -30.309 0.491523Q-30.309 -1.23211 -29.7719 -2.57977Q-29.2299 -3.9323 -28.2924 -4.86004Q-27.35 -5.78777 -26.0512 -6.26629Q-24.7523 -6.74969 -23.2289 -6.74969Q-22.35 -6.74969 -21.6322 -6.61785Q-20.9096 -6.4909 -20.3725 -6.32Q-19.8305 -6.1491 -19.4691 -5.96844Q-19.1078 -5.78777 -18.9516 -5.69012L-19.85 -3.17059Q-20.4897 -3.51238 -21.3393 -3.75164Q-22.1889 -3.9909 -23.268 -3.9909Q-23.9906 -3.9909 -24.6791 -3.75164Q-25.3676 -3.51238 -25.8998 -2.98016Q-26.432 -2.44793 -26.7543 -1.60809Q-27.0717 -0.768242 -27.0717 0.428047Q-27.0717 1.38996 -26.8617 2.22004Q-26.6518 3.05012 -26.183 3.6507Q-25.7094 4.25129 -24.9525 4.60285Q-24.1908 4.94953 -23.1117 4.94953Q-22.4281 4.94953 -21.891 4.87141Q-21.349 4.7884 -20.9291 4.68098Q-20.5092 4.56867 -20.1918 4.43195Q-19.8695 4.29035 -19.6107 4.16828L-18.7514 6.66828Q-19.4106 7.06867 -20.6117 7.39094Q-21.808 7.70832 -23.39 7.70832ZM-7.96912 7.06867Q-8.73083 7.2884 -9.93201 7.47883Q-11.1283 7.66926 -12.4515 7.66926Q-13.7894 7.66926 -14.683 7.31281Q-15.5717 6.95148 -16.0941 6.30207Q-16.6117 5.64777 -16.8314 4.74934Q-17.0511 3.8509 -17.0511 2.7718L-17.0511 -3.08758L-14.0677 -3.08758L-14.0677 2.41047Q-14.0677 3.8509 -13.6918 4.49055Q-13.3109 5.1302 -12.2709 5.1302Q-11.9486 5.1302 -11.5922 5.1009Q-11.2308 5.0716 -10.9476 5.02766L-10.9476 -3.08758L-7.96912 -3.08758L-7.96912 7.06867ZM-5.27116 -5.70965L-2.28777 -6.18816L-2.28777 -3.08758L1.29134 -3.08758L1.29134 -0.611992L-2.28777 -0.611992L-2.28777 3.08918Q-2.28777 4.03156 -1.96062 4.59309Q-1.62859 5.14973 -0.627609 5.14973Q-0.149094 5.14973 0.358719 5.06184Q0.871414 4.96906 1.29134 4.80793L1.71126 7.13215Q1.16927 7.35187 0.510086 7.50812Q-0.149094 7.66926 -1.11101 7.66926Q-2.33171 7.66926 -3.13249 7.34211Q-3.92839 7.01008 -4.41179 6.41926Q-4.8903 5.82844 -5.08073 4.98859Q-5.27116 4.14875 -5.27116 3.12824L-5.27116 -5.70965ZM3.60883 -5.70965L6.59222 -6.18816L6.59222 -3.08758L10.1713 -3.08758L10.1713 -0.611992L6.59222 -0.611992L6.59222 3.08918Q6.59222 4.03156 6.91937 4.59309Q7.2514 5.14973 8.25238 5.14973Q8.7309 5.14973 9.23871 5.06184Q9.7514 4.96906 10.1713 4.80793L10.5912 7.13215Q10.0493 7.35187 9.39008 7.50812Q8.7309 7.66926 7.76898 7.66926Q6.54828 7.66926 5.7475 7.34211Q4.9516 7.01008 4.4682 6.41926Q3.98969 5.82844 3.79926 4.98859Q3.60883 4.14875 3.60883 3.12824L3.60883 -5.70965ZM12.0884 2.24934Q12.0884 0.847969 12.5181 -0.201836Q12.9478 -1.25164 13.646 -1.94988Q14.3492 -2.64813 15.2574 -3.00945Q16.1705 -3.37078 17.1324 -3.37078Q19.3687 -3.37078 20.6675 -1.99871Q21.9712 -0.631524 21.9712 2.02961Q21.9712 2.2884 21.9517 2.6009Q21.9322 2.90852 21.9078 3.14777L15.1499 3.14777Q15.2476 4.07062 16.0093 4.61262Q16.771 5.14973 18.0503 5.14973Q18.8707 5.14973 19.6568 5.00324Q20.4478 4.85187 20.9507 4.63215L21.3511 7.04914Q21.1119 7.17121 20.7115 7.29328Q20.3111 7.41047 19.8179 7.49836Q19.3296 7.59113 18.7681 7.64973Q18.2115 7.70832 17.6499 7.70832Q16.229 7.70832 15.1792 7.2884Q14.1294 6.86848 13.4361 6.14094Q12.7476 5.40852 12.4156 4.41242Q12.0884 3.41145 12.0884 2.24934ZM19.0904 1.11164Q19.0708 0.730781 18.9585 0.369453Q18.8511 0.00812483 18.6216 -0.270195Q18.3921 -0.548516 18.0406 -0.72918Q17.689 -0.909844 17.1714 -0.909844Q16.6685 -0.909844 16.3072 -0.738945Q15.9507 -0.568047 15.7115 -0.289727Q15.4722 -0.0114064 15.3404 0.359687Q15.2085 0.730781 15.1499 1.11164L19.0904 1.11164ZM30.6092 -0.45086Q30.2088 -0.548516 29.6669 -0.655938Q29.1297 -0.768242 28.5096 -0.768242Q28.2313 -0.768242 27.8407 -0.719414Q27.4501 -0.670586 27.2499 -0.611992L27.2499 7.43L24.2713 7.43L24.2713 -2.53094Q25.0721 -2.80926 26.161 -3.05828Q27.2499 -3.31219 28.5878 -3.31219Q28.8319 -3.31219 29.1688 -3.27801Q29.5106 -3.24871 29.8475 -3.19988Q30.1893 -3.15105 30.5262 -3.07781Q30.868 -3.00945 31.1122 -2.9118L30.6092 -0.45086Z"/>
	<path fill="white" transform="translate(55 79.2857)" d="M-23.39 7.70832Q-26.769 7.70832 -28.5414 5.82844Q-30.309 3.94855 -30.309 0.491523Q-30.309 -1.23211 -29.7719 -2.57977Q-29.2299 -3.9323 -28.2924 -4.86004Q-27.35 -5.78777 -26.0512 -6.26629Q-24.7523 -6.74969 -23.2289 -6.74969Q-22.35 -6.74969 -21.6322 -6.61785Q-20.9096 -6.4909 -20.3725 -6.32Q-19.8305 -6.1491 -19.4691 -5.96844Q-19.1078 -5.78777 -18.9516 -5.69012L-19.85 -3.17059Q-20.4897 -3.51238 -21.3393 -3.75164Q-22.1889 -3.9909 -23.268 -3.9909Q-23.9906 -3.9909 -24.6791 -3.75164Q-25.3676 -3.51238 -25.8998 -2.98016Q-26.432 -2.44793 -26.7543 -1.60809Q-27.0717 -0.768242 -27.0717 0.428047Q-27.0717 1.38996 -26.8617 2.22004Q-26.6518 3.05012 -26.183 3.6507Q-25.7094 4.25129 -24.9525 4.60285Q-24.1908 4.94953 -23.1117 4.94953Q-22.4281 4.94953 -21.891 4.87141Q-21.349 4.7884 -20.9291 4.68098Q-20.5092 4.56867 -20.1918 4.43195Q-19.8695 4.29035 -19.6107 4.16828L-18.7514 6.66828Q-19.4106 7.06867 -20.6117 7.39094Q-21.808 7.70832 -23.39 7.70832ZM-7.96912 7.06867Q-8.73083 7.2884 -9.93201 7.47883Q-11.1283 7.66926 -12.4515 7.66926Q-13.7894 7.66926 -14.683 7.31281Q-15.5717 6.95148 -16.0941 6.30207Q-16.6117 5.64777 -16.8314 4.74934Q-17.0511 3.8509 -17.0511 2.7718L-17.0511 -3.08758L-14.0677 -3.08758L-14.0677 2.41047Q-14.0677 3.8509 -13.6918 4.49055Q-13.3109 5.1302 -12.2709 5.1302Q-11.9486 5.1302 -11.5922 5.1009Q-11.2308 5.0716 -10.9476 5.02766L-10.9476 -3.08758L-7.96912 -3.08758L-7.96912 7.06867ZM-5.27116 -5.70965L-2.28777 -6.18816L-2.28777 -3.08758L1.29134 -3.08758L1.29134 -0.611992L-2.28777 -0.611992L-2.28777 3.08918Q-2.28777 4.03156 -1.96062 4.59309Q-1.62859 5.14973 -0.627609 5.14973Q-0.149094 5.14973 0.358719 5.06184Q0.871414 4.96906 1.29134 4.80793L1.71126 7.13215Q1.16927 7.35187 0.510086 7.50812Q-0.149094 7.66926 -1.11101 7.66926Q-2.33171 7.66926 -3.13249 7.34211Q-3.92839 7.01008 -4.41179 6.41926Q-4.8903 5.82844 -5.08073 4.98859Q-5.27116 4.14875 -5.27116 3.12824L-5.27116 -5.70965ZM3.60883 -5.70965L6.59222 -6.18816L6.59222 -3.08758L10.1713 -3.08758L10.1713 -0.611992L6.59222 -0.611992L6.59222 3.08918Q6.59222 4.03156 6.91937 4.59309Q7.2514 5.14973 8.25238 5.14973Q8.7309 5.14973 9.23871 5.06184Q9.7514 4.96906 10.1713 4.80793L10.5912 7.13215Q10.0493 7.35187 9.39008 7.50812Q8.7309 7.66926 7.76898 7.66926Q6.54828 7.66926 5.7475 7.34211Q4.9516 7.01008 4.4682 6.41926Q3.98969 5.82844 3.79926 4.98859Q3.60883 4.14875 3.60883 3.12824L3.60883 -5.70965ZM12.0884 2.24934Q12.0884 0.847969 12.5181 -0.201836Q12.9478 -1.25164 13.646 -1.94988Q14.3492 -2.64813 15.2574 -3.00945Q16.1705 -3.37078 17.1324 -3.37078Q19.3687 -3.37078 20.6675 -1.99871Q21.9712 -0.631524 21.9712 2.02961Q21.9712 2.2884 21.9517 2.6009Q21.9322 2.90852 21.9078 3.14777L15.1499 3.14777Q15.2476 4.07062 16.0093 4.61262Q16.771 5.14973 18.0503 5.14973Q18.8707 5.14973 19.6568 5.00324Q20.4478 4.85187 20.9507 4.63215L21.3511 7.04914Q21.1119 7.17121 20.7115 7.29328Q20.3111 7.41047 19.8179 7.49836Q19.3296 7.59113 18.7681 7.64973Q18.2115 7.70832 17.6499 7.70832Q16.229 7.70832 15.1792 7.2884Q14.1294 6.86848 13.4361 6.14094Q12.7476 5.40852 12.4156 4.41242Q12.0884 3.41145 12.0884 2.24934ZM19.0904 1.11164Q19.0708 0.730781 18.9585 0.369453Q18.8511 0.00812483 18.6216 -0.270195Q18.3921 -0.548516 18.0406 -0.72918Q17.689 -0.909844 17.1714 -0.909844Q16.6685 -0.909844 16.3072 -0.738945Q15.9507 -0.568047 15.7115 -0.289727Q15.4722 -0.0114064 15.3404 0.359687Q15.2085 0.730781 15.1499 1.11164L19.0904 1.11164ZM30.6092 -0.45086Q30.2088 -0.548516 29.6669 -0.655938Q29.1297 -0.768242 28.5096 -0.768242Q28.2313 -0.768242 27.8407 -0.719414Q27.4501 -0.670586 27.2499 -0.611992L27.2499 7.43L24.2713 7.43L24.2713 -2.53094Q25.0721 -2.80926 26.161 -3.05828Q27.2499 -3.31219 28.5878 -3.31219Q28.8319 -3.31219 29.1688 -3.27801Q29.5106 -3.24871 29.8475 -3.19988Q30.1893 -3.15105 30.5262 -3.07781Q30.868 -3.00945 31.1122 -2.9118L30.6092 -0.45086Z"/>
</svg>
