<?xml version="1.0" encoding="utf-8" ?>
<svg xmlns="http://www.w3.org/2000/svg" xmlns:xlink="http://www.w3.org/1999/xlink" width="110" height="110">
	<path fill="#288034" transform="matrix(0.77186 -1.2021 1.2021 0.77186 57.3156 44.2508)" d="M-2.40381 -0.686803Q0.112944 -9.49544 7.30104 -7.80606Q10.6025 -7.03015 16.3132 -2.53895Q16.8051 -2.15206 17.0349 -1.97338Q17.1318 -1.89798 17.2209 -1.81344Q17.31 -1.72889 17.3903 -1.63603Q17.4707 -1.54316 17.5416 -1.44286Q17.6125 -1.34257 17.6732 -1.2358Q17.7339 -1.12904 17.7839 -1.01684Q17.8338 -0.904643 17.8725 -0.788088Q17.9112 -0.671533 17.9384 -0.551744Q17.9655 -0.431956 17.9807 -0.310087Q17.9959 -0.188218 17.9991 -0.0654431Q18.0024 0.057332 17.9935 0.179831Q17.9847 0.30233 17.9639 0.423373Q17.9431 0.544416 17.9105 0.662838Q17.878 0.78126 17.834 0.895919Q17.7899 1.01058 17.7349 1.12037Q17.6799 1.23017 17.6143 1.33404Q17.5488 1.43791 17.4734 1.53485Q17.2815 1.78152 17.0349 1.97338Q16.8052 2.15199 16.3132 2.53896Q10.6024 7.03015 7.30104 7.80606Q0.112943 9.49544 -2.40381 0.686803Q-2.5 0.350137 -2.5 0Q-2.5 -0.350137 -2.40381 -0.686803ZM2.40381 0.686803L0 0L2.40381 -0.686803Q3.61065 3.53716 6.15709 2.93868Q8.38133 2.41593 13.2223 -1.39123Q13.7248 -1.78647 13.9651 -1.97338L15.5 0L13.9651 1.97338Q13.7248 1.78642 13.2223 1.39123Q8.38132 -2.41593 6.15709 -2.93868Q3.61066 -3.53716 2.40381 0.686803Z"/>
	<path fill="#319E40" transform="matrix(0.77186 -1.2021 1.2021 0.77186 57.3156 44.2508)" d="M0 0C3 -10.5 11 -3.5 15.5 0C11 3.5 3 10.5 0 0Z"/>
	<path fill="#288034" transform="matrix(0.65512 1.2695 -1.2695 0.65512 56.9654 51.6656)" d="M-2.40381 -0.686803Q0.112944 -9.49544 7.30104 -7.80606Q10.6025 -7.03015 16.3132 -2.53895Q16.8051 -2.15206 17.0349 -1.97338Q17.1318 -1.89798 17.2209 -1.81344Q17.31 -1.72889 17.3903 -1.63603Q17.4707 -1.54316 17.5416 -1.44286Q17.6125 -1.34257 17.6732 -1.2358Q17.7339 -1.12904 17.7839 -1.01684Q17.8338 -0.904643 17.8725 -0.788088Q17.9112 -0.671533 17.9384 -0.551744Q17.9655 -0.431956 17.9807 -0.310087Q17.9959 -0.188218 17.9991 -0.0654431Q18.0024 0.057332 17.9935 0.179831Q17.9847 0.30233 17.9639 0.423373Q17.9431 0.544416 17.9105 0.662838Q17.878 0.78126 17.834 0.895919Q17.7899 1.01058 17.7349 1.12037Q17.6799 1.23017 17.6143 1.33404Q17.5488 1.43791 17.4734 1.53485Q17.2815 1.78152 17.0349 1.97338Q16.8052 2.15199 16.3132 2.53896Q10.6024 7.03015 7.30104 7.80606Q0.112943 9.49544 -2.40381 0.686803Q-2.5 0.350137 -2.5 0Q-2.5 -0.350137 -2.40381 -0.686803ZM2.40381 0.686803L0 0L2.40381 -0.686803Q3.61065 3.53716 6.15709 2.93868Q8.38133 2.41593 13.2223 -1.39123Q13.7248 -1.78647 13.9651 -1.97338L15.5 0L13.9651 1.97338Q13.7248 1.78642 13.2223 1.39123Q8.38132 -2.41593 6.15709 -2.93868Q3.61066 -3.53716 2.40381 0.686803Z"/>
	<path fill="#319E40" transform="matrix(0.65512 1.2695 -1.2695 0.65512 56.9654 51.6656)" d="M0 0C3 -10.5 11 -3.5 15.5 0C11 3.5 3 10.5 0 0Z"/>
	<path fill="#288034" transform="matrix(-1.42698 -0.0674002 0.0674002 -1.42698 50.7191 47.6549)" d="M-2.40381 -0.686803Q0.112944 -9.49544 7.30104 -7.80606Q10.6025 -7.03015 16.3132 -2.53895Q16.8051 -2.15206 17.0349 -1.97338Q17.1318 -1.89798 17.2209 -1.81344Q17.31 -1.72889 17.3903 -1.63603Q17.4707 -1.54316 17.5416 -1.44286Q17.6125 -1.34257 17.6732 -1.2358Q17.7339 -1.12904 17.7839 -1.01684Q17.8338 -0.904643 17.8725 -0.788088Q17.9112 -0.671533 17.9384 -0.551744Q17.9655 -0.431956 17.9807 -0.310087Q17.9959 -0.188218 17.9991 -0.0654431Q18.0024 0.057332 17.9935 0.179831Q17.9847 0.30233 17.9639 0.423373Q17.9431 0.544416 17.9105 0.662838Q17.878 0.78126 17.834 0.895919Q17.7899 1.01058 17.7349 1.12037Q17.6799 1.23017 17.6143 1.33404Q17.5488 1.43791 17.4734 1.53485Q17.2815 1.78152 17.0349 1.97338Q16.8052 2.15199 16.3132 2.53896Q10.6024 7.03015 7.30104 7.80606Q0.112943 9.49544 -2.40381 0.686803Q-2.5 0.350137 -2.5 0Q-2.5 -0.350137 -2.40381 -0.686803ZM2.40381 0.686803L0 0L2.40381 -0.686803Q3.61065 3.53716 6.15709 2.93868Q8.38133 2.41593 13.2223 -1.39123Q13.7248 -1.78647 13.9651 -1.97338L15.5 0L13.9651 1.97338Q13.7248 1.78642 13.2223 1.39123Q8.38132 -2.41593 6.15709 -2.93868Q3.61066 -3.53716 2.40381 0.686803Z"/>
	<path fill="#319E40" transform="matrix(-1.42698 -0.0674002 0.0674002 -1.42698 50.7191 47.6549)" d="M0 0C3 -10.5 11 -3.5 15.5 0C11 3.5 3 10.5 0 0Z"/>
	<path fill="#288034" transform="matrix(0.77186 -1.2021 1.2021 0.77186 55 47.8571)" d="M2.89079 -1.37072Q7.94384 -3.61652 14.0126 -1.40969Q14.0819 -1.38451 14.1483 -1.35266Q14.2148 -1.32081 14.2778 -1.2826Q14.3408 -1.24439 14.3998 -1.20019Q14.4587 -1.15598 14.5131 -1.10621Q14.5674 -1.05645 14.6166 -1.00159Q14.6658 -0.946735 14.7094 -0.887321Q14.753 -0.827907 14.7906 -0.764506Q14.8281 -0.701105 14.8593 -0.634328Q14.8904 -0.567551 14.9149 -0.498041Q14.9394 -0.428532 14.9569 -0.356958Q14.9744 -0.285385 14.9849 -0.212438Q14.9953 -0.13949 14.9986 -0.0658709Q15.0018 0.00774828 14.9978 0.0813302Q14.9938 0.154912 14.9826 0.227748Q14.9714 0.300584 14.9531 0.371972Q14.9349 0.443361 14.9097 0.512615Q14.8845 0.581868 14.8527 0.64832Q14.8208 0.714772 14.7826 0.777782Q14.7444 0.840792 14.7002 0.899753Q14.656 0.958714 14.6062 1.01306Q14.5564 1.0674 14.5016 1.11661Q14.4467 1.16581 14.3873 1.20941Q14.3279 1.253 14.2645 1.29055Q14.2011 1.32811 14.1343 1.35927Q14.0676 1.39044 13.998 1.4149Q13.9285 1.43937 13.857 1.45691Q13.7854 1.47444 13.7124 1.48488Q13.6395 1.49532 13.5659 1.49855Q13.4923 1.50179 13.4187 1.49779Q13.3451 1.4938 13.2723 1.48261Q13.1994 1.47142 13.128 1.45315Q13.0566 1.43487 12.9874 1.40969Q8.05616 -0.383483 4.10921 1.37072Q4.04187 1.40065 3.97192 1.42383Q3.90197 1.44701 3.83009 1.46323Q3.7582 1.47945 3.68508 1.48854Q3.61195 1.49763 3.53828 1.49951Q3.46462 1.50139 3.39112 1.49604Q3.31763 1.49069 3.24501 1.47817Q3.17239 1.46564 3.10135 1.44606Q3.03031 1.42647 2.96153 1.40002Q2.89275 1.37357 2.8269 1.3405Q2.76104 1.30743 2.69875 1.26807Q2.63645 1.2287 2.57831 1.18342Q2.52018 1.13815 2.46676 1.08739Q2.41334 1.03663 2.36515 0.980874Q2.31696 0.925122 2.27447 0.864916Q2.23198 0.804709 2.1956 0.740628Q2.15921 0.676547 2.12928 0.609208Q2.09935 0.541869 2.07617 0.47192Q2.05299 0.401972 2.03677 0.330088Q2.02055 0.258204 2.01146 0.185077Q2.00237 0.11195 2.00049 0.0382838Q1.99861 -0.0353825 2.00396 -0.108878Q2.00931 -0.182374 2.02183 -0.254992Q2.03436 -0.32761 2.05394 -0.39865Q2.07353 -0.46969 2.09998 -0.538469Q2.12643 -0.607247 2.1595 -0.673102Q2.19257 -0.738956 2.23193 -0.801252Q2.2713 -0.863548 2.31658 -0.921686Q2.36185 -0.979824 2.41261 -1.03324Q2.46337 -1.08666 2.51913 -1.13485Q2.57488 -1.18304 2.63508 -1.22553Q2.69529 -1.26802 2.75937 -1.3044Q2.82345 -1.34079 2.89079 -1.37072ZM-0.25832 3.18886Q-0.839925 8.68783 -5.78548 12.8401Q-5.84192 12.8875 -5.90273 12.9291Q-5.96353 12.9708 -6.02813 13.0062Q-6.09273 13.0417 -6.16049 13.0706Q-6.22825 13.0996 -6.29852 13.1218Q-6.36879 13.144 -6.4409 13.1591Q-6.51301 13.1743 -6.58626 13.1824Q-6.65951 13.1904 -6.7332 13.1912Q-6.80688 13.1921 -6.88029 13.1857Q-6.95371 13.1793 -7.02614 13.1657Q-7.09857 13.1521 -7.16932 13.1315Q-7.24007 13.1109 -7.30847 13.0835Q-7.37686 13.0561 -7.44223 13.0221Q-7.50761 12.9881 -7.56933 12.9478Q-7.63106 12.9076 -7.68854 12.8614Q-7.74603 12.8153 -7.79871 12.7638Q-7.8514 12.7123 -7.89878 12.6559Q-7.94617 12.5994 -7.98779 12.5386Q-8.02942 12.4778 -8.06488 12.4132Q-8.10034 12.3486 -8.1293 12.2809Q-8.15826 12.2131 -8.18044 12.1428Q-8.20262 12.0725 -8.21781 12.0004Q-8.23299 11.9283 -8.24104 11.8551Q-8.24908 11.7818 -8.24991 11.7081Q-8.25073 11.6345 -8.24433 11.561Q-8.23793 11.4876 -8.22437 11.4152Q-8.2108 11.3428 -8.1902 11.272Q-8.1696 11.2013 -8.14216 11.1329Q-8.11473 11.0645 -8.08072 10.9991Q-8.04671 10.9337 -8.00646 10.872Q-7.96621 10.8103 -7.9201 10.7528Q-7.874 10.6953 -7.82248 10.6426Q-7.77096 10.5899 -7.71452 10.5426Q-3.69597 7.16858 -3.24168 2.87332Q-3.23393 2.80004 -3.21903 2.72787Q-3.20414 2.6557 -3.18224 2.58534Q-3.16034 2.51498 -3.13165 2.4471Q-3.10296 2.37923 -3.06776 2.31449Q-3.03255 2.24975 -2.99117 2.18878Q-2.94979 2.1278 -2.90263 2.07118Q-2.85548 2.01455 -2.803 1.96282Q-2.75052 1.91109 -2.69322 1.86475Q-2.63592 1.81841 -2.57435 1.77792Q-2.51279 1.73742 -2.44755 1.70315Q-2.38232 1.66888 -2.31403 1.64117Q-2.24575 1.61346 -2.17508 1.59258Q-2.10441 1.5717 -2.03204 1.55784Q-1.95966 1.54399 -1.88627 1.53729Q-1.81289 1.5306 -1.7392 1.53113Q-1.66551 1.53166 -1.59223 1.53941Q-1.51895 1.54716 -1.44678 1.56206Q-1.37461 1.57695 -1.30425 1.59885Q-1.23389 1.62075 -1.16601 1.64944Q-1.09814 1.67813 -1.0334 1.71333Q-0.968662 1.74854 -0.907687 1.78992Q-0.846712 1.8313 -0.790087 1.87845Q-0.733462 1.92561 -0.681731 1.97809Q-0.630001 2.03057 -0.583663 2.08787Q-0.537326 2.14517 -0.496828 2.20673Q-0.45633 2.2683 -0.422062 2.33354Q-0.387793 2.39877 -0.360084 2.46706Q-0.332375 2.53534 -0.311492 2.60601Q-0.290609 2.67668 -0.276754 2.74905Q-0.262898 2.82143 -0.256203 2.89481Q-0.249509 2.9682 -0.250039 3.04189Q-0.25057 3.11558 -0.25832 3.18886ZM-2.63247 -1.81814Q-7.10391 -5.07131 -8.22713 -11.4304Q-8.23995 -11.503 -8.24559 -11.5765Q-8.25124 -11.65 -8.24965 -11.7236Q-8.24807 -11.7973 -8.23927 -11.8705Q-8.23047 -11.9436 -8.21454 -12.0156Q-8.19861 -12.0875 -8.17571 -12.1576Q-8.1528 -12.2276 -8.12314 -12.2951Q-8.09349 -12.3625 -8.05736 -12.4267Q-8.02123 -12.491 -7.97898 -12.5513Q-7.93673 -12.6117 -7.88877 -12.6677Q-7.8408 -12.7236 -7.78759 -12.7746Q-7.73437 -12.8256 -7.67641 -12.8711Q-7.61846 -12.9166 -7.55632 -12.9562Q-7.49418 -12.9958 -7.42846 -13.0291Q-7.36274 -13.0625 -7.29407 -13.0892Q-7.2254 -13.1159 -7.15443 -13.1358Q-7.08347 -13.1557 -7.01091 -13.1685Q-6.93834 -13.1813 -6.86486 -13.1869Q-6.79139 -13.1926 -6.71772 -13.191Q-6.64404 -13.1894 -6.57088 -13.1806Q-6.49772 -13.1718 -6.42577 -13.1559Q-6.35382 -13.14 -6.28378 -13.1171Q-6.21374 -13.0941 -6.14628 -13.0645Q-6.07882 -13.0348 -6.0146 -12.9987Q-5.95037 -12.9626 -5.89 -12.9203Q-5.82962 -12.8781 -5.77368 -12.8301Q-5.71773 -12.7821 -5.66676 -12.7289Q-5.61578 -12.6757 -5.57027 -12.6178Q-5.52476 -12.5598 -5.48515 -12.4977Q-5.44554 -12.4355 -5.41221 -12.3698Q-5.37888 -12.3041 -5.35215 -12.2354Q-5.32542 -12.1667 -5.30555 -12.0958Q-5.28568 -12.0248 -5.27286 -11.9523Q-4.36019 -6.7851 -0.867527 -4.24404Q-0.807939 -4.20068 -0.752887 -4.1517Q-0.697835 -4.10271 -0.647849 -4.04857Q-0.597864 -3.99442 -0.553426 -3.93564Q-0.508988 -3.87686 -0.470526 -3.814Q-0.432065 -3.75114 -0.399949 -3.68482Q-0.367833 -3.61849 -0.342373 -3.54934Q-0.316913 -3.48019 -0.298353 -3.40888Q-0.279794 -3.33756 -0.268314 -3.26477Q-0.256834 -3.19198 -0.252544 -3.11841Q-0.248254 -3.04485 -0.251195 -2.97122Q-0.254136 -2.89759 -0.26428 -2.8246Q-0.274425 -2.75161 -0.291674 -2.67997Q-0.308924 -2.60832 -0.333113 -2.53872Q-0.357301 -2.46911 -0.388196 -2.40221Q-0.419091 -2.33531 -0.456395 -2.27176Q-0.493699 -2.20821 -0.537052 -2.14862Q-0.580405 -2.08903 -0.62939 -2.03398Q-0.678375 -1.97892 -0.73252 -1.92894Q-0.786665 -1.87895 -0.845449 -1.83452Q-0.904233 -1.79008 -0.967089 -1.75162Q-1.02995 -1.71315 -1.09627 -1.68104Q-1.16259 -1.64892 -1.23175 -1.62346Q-1.3009 -1.598 -1.37221 -1.57944Q-1.44353 -1.56088 -1.51632 -1.5494Q-1.58911 -1.53792 -1.66267 -1.53363Q-1.73624 -1.52934 -1.80987 -1.53228Q-1.8835 -1.53523 -1.95649 -1.54537Q-2.02948 -1.55551 -2.10112 -1.57276Q-2.17277 -1.59001 -2.24237 -1.6142Q-2.31198 -1.63839 -2.37888 -1.66929Q-2.44578 -1.70018 -2.50933 -1.73748Q-2.57288 -1.77479 -2.63247 -1.81814Z"/>
	<path fill="none" stroke="black" stroke-width="2.3999999" stroke-linejoin="round" transform="translate(55 79.2857)" d="M-16.9293 7.61066Q-18.0719 7.61066 -19.1998 7.53742Q-20.3277 7.46906 -21.5484 7.21027L-21.5484 -6.23211Q-20.5914 -6.40789 -19.4537 -6.49578Q-18.3111 -6.58855 -17.3297 -6.58855Q-16.0113 -6.58855 -14.9029 -6.39813Q-13.7896 -6.2077 -12.9888 -5.74871Q-12.1881 -5.28973 -11.7388 -4.53777Q-11.2896 -3.7907 -11.2896 -2.69207Q-11.2896 -1.03191 -12.8912 -0.0700002Q-11.5679 0.428047 -11.0894 1.2923Q-10.6109 2.15168 -10.6109 3.23078Q-10.6109 5.40852 -12.2027 6.51203Q-13.7896 7.61066 -16.9293 7.61066ZM-18.5113 1.38996L-18.5113 4.96906Q-18.1695 5.00812 -17.7691 5.03254Q-17.3687 5.05207 -16.8902 5.05207Q-15.4888 5.05207 -14.6295 4.65168Q-13.7701 4.25129 -13.7701 3.17219Q-13.7701 2.21027 -14.4928 1.80012Q-15.2105 1.38996 -16.5484 1.38996L-18.5113 1.38996ZM-18.5113 -0.987969L-16.9879 -0.987969Q-15.5523 -0.987969 -14.9322 -1.35906Q-14.3121 -1.73016 -14.3121 -2.55047Q-14.3121 -3.39031 -14.9517 -3.72723Q-15.5914 -4.06902 -16.8316 -4.06902Q-17.232 -4.06902 -17.691 -4.05926Q-18.15 -4.04949 -18.5113 -4.01043L-18.5113 -0.987969ZM-4.29007 5.34992Q-3.85062 5.34992 -3.45023 5.33039Q-3.04984 5.31086 -2.81058 5.2718L-2.81058 3.01105Q-2.99124 2.97199 -3.35257 2.93293Q-3.70901 2.88898 -4.01175 2.88898Q-4.43167 2.88898 -4.80276 2.9427Q-5.16898 2.99152 -5.45218 3.13312Q-5.7305 3.26984 -5.89163 3.5091Q-6.04788 3.74836 -6.04788 4.10969Q-6.04788 4.80793 -5.57913 5.08137Q-5.11038 5.34992 -4.29007 5.34992ZM-4.52933 -3.37078Q-3.21097 -3.37078 -2.33206 -3.06805Q-1.44827 -2.7702 -0.920929 -2.20867Q-0.388702 -1.65203 -0.168976 -0.85125Q0.0507507 -0.0504689 0.0507507 0.930976L0.0507507 7.13215Q-0.588898 7.26887 -1.73148 7.4593Q-2.86917 7.64973 -4.49026 7.64973Q-5.51077 7.64973 -6.34085 7.46906Q-7.17093 7.2884 -7.77151 6.87824Q-8.3721 6.46809 -8.69437 5.80891Q-9.01175 5.14973 -9.01175 4.18781Q-9.01175 3.26984 -8.64066 2.6302Q-8.26956 1.99055 -7.64944 1.60969Q-7.02933 1.22883 -6.22855 1.06281Q-5.42776 0.891914 -4.56839 0.891914Q-3.99222 0.891914 -3.543 0.940742Q-3.0889 0.98957 -2.81058 1.0677L-2.81058 0.789375Q-2.81058 0.0276561 -3.26956 -0.431328Q-3.72855 -0.890313 -4.87112 -0.890313Q-5.62796 -0.890313 -6.37015 -0.778008Q-7.11234 -0.670586 -7.64944 -0.470391L-8.0303 -2.86785Q-7.77151 -2.95086 -7.38089 -3.03875Q-6.99026 -3.13152 -6.53128 -3.19988Q-6.0723 -3.26824 -5.56448 -3.31707Q-5.05179 -3.37078 -4.52933 -3.37078ZM5.76894 5.29133Q6.58925 5.29133 6.92616 5.1302Q7.26796 4.96906 7.26796 4.51008Q7.26796 4.14875 6.82851 3.8802Q6.38905 3.61164 5.49062 3.26984Q4.79237 3.01105 4.22108 2.73273Q3.6498 2.44953 3.2494 2.05891Q2.84901 1.66828 2.62929 1.13117Q2.40956 0.58918 2.40956 -0.167656Q2.40956 -1.65203 3.50819 -2.51141Q4.61171 -3.37078 6.53065 -3.37078Q7.48769 -3.37078 8.36659 -3.19988Q9.25038 -3.02898 9.76796 -2.82879L9.25038 -0.509453Q8.72792 -0.690117 8.11757 -0.826836Q7.5121 -0.968438 6.75038 -0.968438Q5.34901 -0.968438 5.34901 -0.19207Q5.34901 -0.0114064 5.40761 0.130195Q5.47108 0.271797 5.65175 0.403633Q5.83241 0.530586 6.14003 0.681953Q6.44765 0.828437 6.93105 1.0091Q7.90761 1.37043 8.54726 1.72199Q9.19179 2.06867 9.558 2.47883Q9.92909 2.88898 10.0805 3.39191Q10.2318 3.88996 10.2318 4.54914Q10.2318 6.11164 9.05995 6.91242Q7.88808 7.70832 5.7494 7.70832Q4.34804 7.70832 3.41542 7.46906Q2.48769 7.2298 2.13124 7.06867L2.62929 4.65168Q3.39101 4.94953 4.1869 5.12043Q4.98769 5.29133 5.76894 5.29133ZM15.4299 7.43L12.4514 7.43L12.4514 -3.08758L15.4299 -3.08758L15.4299 7.43ZM15.7082 -6.12957Q15.7082 -5.30926 15.176 -4.84051Q14.6486 -4.37176 13.9308 -4.37176Q13.2082 -4.37176 12.676 -4.84051Q12.1486 -5.30926 12.1486 -6.12957Q12.1486 -6.94988 12.676 -7.41863Q13.2082 -7.89227 13.9308 -7.89227Q14.6486 -7.89227 15.176 -7.41863Q15.7082 -6.94988 15.7082 -6.12957ZM22.4306 7.6302Q21.1317 7.61066 20.3212 7.35187Q19.5107 7.0882 19.037 6.61945Q18.5683 6.1507 18.3974 5.48176Q18.2314 4.80793 18.2314 3.96809L18.2314 -7.60906L21.2099 -8.08758L21.2099 3.37238Q21.2099 3.76789 21.2685 4.09016Q21.3319 4.41242 21.498 4.63215Q21.6689 4.85187 21.9862 4.99348Q22.3085 5.1302 22.8505 5.16926L22.4306 7.6302Z"/>
	<path fill="white" transform="translate(55 79.2857)" d="M-16.9293 7.61066Q-18.0719 7.61066 -19.1998 7.53742Q-20.3277 7.46906 -21.5484 7.21027L-21.5484 -6.23211Q-20.5914 -6.40789 -19.4537 -6.49578Q-18.3111 -6.58855 -17.3297 -6.58855Q-16.0113 -6.58855 -14.9029 -6.39813Q-13.7896 -6.2077 -12.9888 -5.74871Q-12.1881 -5.28973 -11.7388 -4.53777Q-11.2896 -3.7907 -11.2896 -2.69207Q-11.2896 -1.03191 -12.8912 -0.0700002Q-11.5679 0.428047 -11.0894 1.2923Q-10.6109 2.15168 -10.6109 3.23078Q-10.6109 5.40852 -12.2027 6.51203Q-13.7896 7.61066 -16.9293 7.61066ZM-18.5113 1.38996L-18.5113 4.96906Q-18.1695 5.00812 -17.7691 5.03254Q-17.3687 5.05207 -16.8902 5.05207Q-15.4888 5.05207 -14.6295 4.65168Q-13.7701 4.25129 -13.7701 3.17219Q-13.7701 2.21027 -14.4928 1.80012Q-15.2105 1.38996 -16.5484 1.38996L-18.5113 1.38996ZM-18.5113 -0.987969L-16.9879 -0.987969Q-15.5523 -0.987969 -14.9322 -1.35906Q-14.3121 -1.73016 -14.3121 -2.55047Q-14.3121 -3.39031 -14.9517 -3.72723Q-15.5914 -4.06902 -16.8316 -4.06902Q-17.232 -4.06902 -17.691 -4.05926Q-18.15 -4.04949 -18.5113 -4.01043L-18.5113 -0.987969ZM-4.29007 5.34992Q-3.85062 5.34992 -3.45023 5.33039Q-3.04984 5.31086 -2.81058 5.2718L-2.81058 3.01105Q-2.99124 2.97199 -3.35257 2.93293Q-3.70901 2.88898 -4.01175 2.88898Q-4.43167 2.88898 -4.80276 2.9427Q-5.16898 2.99152 -5.45218 3.13312Q-5.7305 3.26984 -5.89163 3.5091Q-6.04788 3.74836 -6.04788 4.10969Q-6.04788 4.80793 -5.57913 5.08137Q-5.11038 5.34992 -4.29007 5.34992ZM-4.52933 -3.37078Q-3.21097 -3.37078 -2.33206 -3.06805Q-1.44827 -2.7702 -0.920929 -2.20867Q-0.388702 -1.65203 -0.168976 -0.85125Q0.0507507 -0.0504689 0.0507507 0.930976L0.0507507 7.13215Q-0.588898 7.26887 -1.73148 7.4593Q-2.86917 7.64973 -4.49026 7.64973Q-5.51077 7.64973 -6.34085 7.46906Q-7.17093 7.2884 -7.77151 6.87824Q-8.3721 6.46809 -8.69437 5.80891Q-9.01175 5.14973 -9.01175 4.18781Q-9.01175 3.26984 -8.64066 2.6302Q-8.26956 1.99055 -7.64944 1.60969Q-7.02933 1.22883 -6.22855 1.06281Q-5.42776 0.891914 -4.56839 0.891914Q-3.99222 0.891914 -3.543 0.940742Q-3.0889 0.98957 -2.81058 1.0677L-2.81058 0.789375Q-2.81058 0.0276561 -3.26956 -0.431328Q-3.72855 -0.890313 -4.87112 -0.890313Q-5.62796 -0.890313 -6.37015 -0.778008Q-7.11234 -0.670586 -7.64944 -0.470391L-8.0303 -2.86785Q-7.77151 -2.95086 -7.38089 -3.03875Q-6.99026 -3.13152 -6.53128 -3.19988Q-6.0723 -3.26824 -5.56448 -3.31707Q-5.05179 -3.37078 -4.52933 -3.37078ZM5.76894 5.29133Q6.58925 5.29133 6.92616 5.1302Q7.26796 4.96906 7.26796 4.51008Q7.26796 4.14875 6.82851 3.8802Q6.38905 3.61164 5.49062 3.26984Q4.79237 3.01105 4.22108 2.73273Q3.6498 2.44953 3.2494 2.05891Q2.84901 1.66828 2.62929 1.13117Q2.40956 0.58918 2.40956 -0.167656Q2.40956 -1.65203 3.50819 -2.51141Q4.61171 -3.37078 6.53065 -3.37078Q7.48769 -3.37078 8.36659 -3.19988Q9.25038 -3.02898 9.76796 -2.82879L9.25038 -0.509453Q8.72792 -0.690117 8.11757 -0.826836Q7.5121 -0.968438 6.75038 -0.968438Q5.34901 -0.968438 5.34901 -0.19207Q5.34901 -0.0114064 5.40761 0.130195Q5.47108 0.271797 5.65175 0.403633Q5.83241 0.530586 6.14003 0.681953Q6.44765 0.828437 6.93105 1.0091Q7.90761 1.37043 8.54726 1.72199Q9.19179 2.06867 9.558 2.47883Q9.92909 2.88898 10.0805 3.39191Q10.2318 3.88996 10.2318 4.54914Q10.2318 6.11164 9.05995 6.91242Q7.88808 7.70832 5.7494 7.70832Q4.34804 7.70832 3.41542 7.46906Q2.48769 7.2298 2.13124 7.06867L2.62929 4.65168Q3.39101 4.94953 4.1869 5.12043Q4.98769 5.29133 5.76894 5.29133ZM15.4299 7.43L12.4514 7.43L12.4514 -3.08758L15.4299 -3.08758L15.4299 7.43ZM15.7082 -6.12957Q15.7082 -5.30926 15.176 -4.84051Q14.6486 -4.37176 13.9308 -4.37176Q13.2082 -4.37176 12.676 -4.84051Q12.1486 -5.30926 12.1486 -6.12957Q12.1486 -6.94988 12.676 -7.41863Q13.2082 -7.89227 13.9308 -7.89227Q14.6486 -7.89227 15.176 -7.41863Q15.7082 -6.94988 15.7082 -6.12957ZM22.4306 7.6302Q21.1317 7.61066 20.3212 7.35187Q19.5107 7.0882 19.037 6.61945Q18.5683 6.1507 18.3974 5.48176Q18.2314 4.80793 18.2314 3.96809L18.2314 -7.60906L21.2099 -8.08758L21.2099 3.37238Q21.2099 3.76789 21.2685 4.09016Q21.3319 4.41242 21.498 4.63215Q21.6689 4.85187 21.9862 4.99348Q22.3085 5.1302 22.8505 5.16926L22.4306 7.6302Z"/>
</svg>
