<?xml version="1.0" encoding="utf-8" ?>
<svg xmlns="http://www.w3.org/2000/svg" xmlns:xlink="http://www.w3.org/1999/xlink" width="110" height="110">
	<path fill="#333" transform="matrix(0.77186 1.2021 -1.2021 0.77186 55 47.8571)" d="M-3 -7.5L12 -7.5L12 7.5L-3 7.5L-3 -7.5Z"/>
	<path fill="#292929" transform="matrix(0.77186 1.2021 -1.2021 0.77186 55 47.8571)" d="M-4.5 7.5L-4.5 -7.5Q-4.5 -7.57369 -4.49278 -7.64703Q-4.48555 -7.72036 -4.47118 -7.79263Q-4.4568 -7.86491 -4.43541 -7.93543Q-4.41402 -8.00594 -4.38582 -8.07402Q-4.35762 -8.14211 -4.32288 -8.20709Q-4.28814 -8.27208 -4.2472 -8.33335Q-4.20626 -8.39463 -4.15952 -8.45159Q-4.11277 -8.50855 -4.06066 -8.56066Q-4.00855 -8.61277 -3.95159 -8.65952Q-3.89463 -8.70626 -3.83335 -8.7472Q-3.77208 -8.78814 -3.70709 -8.82288Q-3.64211 -8.85762 -3.57402 -8.88582Q-3.50594 -8.91402 -3.43543 -8.93541Q-3.36491 -8.9568 -3.29264 -8.97118Q-3.22036 -8.98555 -3.14703 -8.99278Q-3.07369 -9 -3 -9L12 -9Q12.0737 -9 12.147 -8.99278Q12.2204 -8.98555 12.2926 -8.97118Q12.3649 -8.9568 12.4354 -8.93541Q12.5059 -8.91402 12.574 -8.88582Q12.6421 -8.85762 12.7071 -8.82288Q12.7721 -8.78814 12.8334 -8.7472Q12.8946 -8.70626 12.9516 -8.65952Q13.0086 -8.61277 13.0607 -8.56066Q13.1128 -8.50855 13.1595 -8.45159Q13.2063 -8.39463 13.2472 -8.33335Q13.2881 -8.27208 13.3229 -8.2071Q13.3576 -8.14211 13.3858 -8.07402Q13.414 -8.00594 13.4354 -7.93543Q13.4568 -7.86491 13.4712 -7.79263Q13.4856 -7.72036 13.4928 -7.64703Q13.5 -7.57369 13.5 -7.5L13.5 7.5Q13.5 7.57369 13.4928 7.64703Q13.4856 7.72036 13.4712 7.79263Q13.4568 7.86491 13.4354 7.93543Q13.414 8.00594 13.3858 8.07402Q13.3576 8.14211 13.3229 8.20709Q13.2881 8.27208 13.2472 8.33335Q13.2063 8.39463 13.1595 8.45159Q13.1128 8.50855 13.0607 8.56066Q13.0086 8.61277 12.9516 8.65952Q12.8946 8.70626 12.8334 8.7472Q12.7721 8.78814 12.7071 8.82288Q12.6421 8.85762 12.574 8.88582Q12.5059 8.91402 12.4354 8.93541Q12.3649 8.9568 12.2926 8.97118Q12.2204 8.98555 12.147 8.99278Q12.0737 9 12 9L-3 9Q-3.07369 9 -3.14703 8.99278Q-3.22036 8.98555 -3.29264 8.97118Q-3.36491 8.9568 -3.43543 8.93541Q-3.50594 8.91402 -3.57402 8.88582Q-3.64211 8.85762 -3.70709 8.82288Q-3.77208 8.78814 -3.83335 8.7472Q-3.89463 8.70626 -3.95159 8.65952Q-4.00855 8.61277 -4.06066 8.56066Q-4.11277 8.50855 -4.15952 8.45159Q-4.20626 8.39463 -4.2472 8.33335Q-4.28814 8.27208 -4.32288 8.2071Q-4.35762 8.14211 -4.38582 8.07402Q-4.41402 8.00594 -4.43541 7.93543Q-4.4568 7.86491 -4.47118 7.79263Q-4.48555 7.72036 -4.49278 7.64703Q-4.5 7.57369 -4.5 7.5ZM-1.5 -6L-1.5 6L10.5 6L10.5 -6L-1.5 -6Z"/>
	<path fill="#AAA" transform="matrix(0.77186 1.2021 -1.2021 0.77186 55 47.8571)" d="M-14.5 -2.5L-9.5 -2.5L-9.5 2.5L-14.5 2.5L-14.5 -2.5Z"/>
	<path fill="#AAA" transform="matrix(0.77186 1.2021 -1.2021 0.77186 55 47.8571)" d="M-16 2.5L-16 -2.5Q-16 -2.57369 -15.9928 -2.64703Q-15.9856 -2.72036 -15.9712 -2.79264Q-15.9568 -2.86491 -15.9354 -2.93543Q-15.914 -3.00594 -15.8858 -3.07402Q-15.8576 -3.14211 -15.8229 -3.2071Q-15.7881 -3.27208 -15.7472 -3.33336Q-15.7063 -3.39463 -15.6595 -3.45159Q-15.6128 -3.50855 -15.5607 -3.56066Q-15.5086 -3.61277 -15.4516 -3.65952Q-15.3946 -3.70626 -15.3334 -3.7472Q-15.2721 -3.78814 -15.2071 -3.82288Q-15.1421 -3.85762 -15.074 -3.88582Q-15.0059 -3.91402 -14.9354 -3.93541Q-14.8649 -3.9568 -14.7926 -3.97118Q-14.7204 -3.98555 -14.647 -3.99278Q-14.5737 -4 -14.5 -4L-9.5 -4Q-9.42631 -4 -9.35297 -3.99278Q-9.27964 -3.98555 -9.20736 -3.97118Q-9.13509 -3.9568 -9.06457 -3.93541Q-8.99405 -3.91402 -8.92597 -3.88582Q-8.85789 -3.85762 -8.7929 -3.82288Q-8.72791 -3.78814 -8.66664 -3.7472Q-8.60537 -3.70626 -8.54841 -3.65952Q-8.49145 -3.61277 -8.43934 -3.56066Q-8.38723 -3.50855 -8.34048 -3.45159Q-8.29374 -3.39463 -8.25279 -3.33336Q-8.21185 -3.27208 -8.17712 -3.2071Q-8.14238 -3.14211 -8.11418 -3.07402Q-8.08598 -3.00594 -8.06459 -2.93543Q-8.0432 -2.86491 -8.02882 -2.79264Q-8.01445 -2.72036 -8.00722 -2.64703Q-8 -2.57369 -8 -2.5L-8 2.5Q-8 2.57369 -8.00722 2.64703Q-8.01445 2.72036 -8.02882 2.79264Q-8.0432 2.86491 -8.06459 2.93543Q-8.08598 3.00594 -8.11418 3.07402Q-8.14238 3.14211 -8.17712 3.2071Q-8.21185 3.27208 -8.25279 3.33336Q-8.29374 3.39463 -8.34048 3.45159Q-8.38723 3.50855 -8.43934 3.56066Q-8.49145 3.61277 -8.54841 3.65952Q-8.60537 3.70626 -8.66664 3.7472Q-8.72791 3.78814 -8.7929 3.82288Q-8.85789 3.85762 -8.92597 3.88582Q-8.99405 3.91402 -9.06457 3.93541Q-9.13509 3.9568 -9.20736 3.97118Q-9.27964 3.98555 -9.35297 3.99278Q-9.42631 4 -9.5 4L-14.5 4Q-14.5737 4 -14.647 3.99278Q-14.7204 3.98555 -14.7926 3.97118Q-14.8649 3.9568 -14.9354 3.93541Q-15.0059 3.91402 -15.074 3.88582Q-15.1421 3.85762 -15.2071 3.82288Q-15.2721 3.78814 -15.3334 3.7472Q-15.3946 3.70626 -15.4516 3.65952Q-15.5086 3.61277 -15.5607 3.56066Q-15.6128 3.50855 -15.6595 3.45159Q-15.7063 3.39463 -15.7472 3.33336Q-15.7881 3.27208 -15.8229 3.2071Q-15.8576 3.14211 -15.8858 3.07402Q-15.914 3.00594 -15.9354 2.93543Q-15.9568 2.86491 -15.9712 2.79264Q-15.9856 2.72036 -15.9928 2.64703Q-16 2.57369 -16 2.5ZM-13 -1L-13 1L-11 1L-11 -1L-13 -1Z"/>
	<path fill="#C88A5A" transform="matrix(0.77186 1.2021 -1.2021 0.77186 55 47.8571)" d="M-12 -7.5L-3 -7.5L-3 7.5L-12 7.5L-12 -7.5Z"/>
	<path fill="#A27049" transform="matrix(0.77186 1.2021 -1.2021 0.77186 55 47.8571)" d="M-13.5 7.5L-13.5 -7.5Q-13.5 -7.57369 -13.4928 -7.64703Q-13.4856 -7.72036 -13.4712 -7.79263Q-13.4568 -7.86491 -13.4354 -7.93543Q-13.414 -8.00594 -13.3858 -8.07402Q-13.3576 -8.14211 -13.3229 -8.20709Q-13.2881 -8.27208 -13.2472 -8.33335Q-13.2063 -8.39463 -13.1595 -8.45159Q-13.1128 -8.50855 -13.0607 -8.56066Q-13.0086 -8.61277 -12.9516 -8.65952Q-12.8946 -8.70626 -12.8334 -8.7472Q-12.7721 -8.78814 -12.7071 -8.82288Q-12.6421 -8.85762 -12.574 -8.88582Q-12.5059 -8.91402 -12.4354 -8.93541Q-12.3649 -8.9568 -12.2926 -8.97118Q-12.2204 -8.98555 -12.147 -8.99278Q-12.0737 -9 -12 -9L-3 -9Q-2.92631 -9 -2.85297 -8.99278Q-2.77964 -8.98555 -2.70736 -8.97118Q-2.63509 -8.9568 -2.56457 -8.93541Q-2.49406 -8.91402 -2.42597 -8.88582Q-2.35789 -8.85762 -2.29291 -8.82288Q-2.22792 -8.78814 -2.16664 -8.7472Q-2.10537 -8.70626 -2.04841 -8.65952Q-1.99145 -8.61277 -1.93934 -8.56066Q-1.88723 -8.50855 -1.84048 -8.45159Q-1.79374 -8.39463 -1.7528 -8.33335Q-1.71186 -8.27208 -1.67712 -8.2071Q-1.64238 -8.14211 -1.61418 -8.07402Q-1.58598 -8.00594 -1.56459 -7.93543Q-1.5432 -7.86491 -1.52882 -7.79263Q-1.51445 -7.72036 -1.50722 -7.64703Q-1.5 -7.57369 -1.5 -7.5L-1.5 7.5Q-1.5 7.57369 -1.50722 7.64703Q-1.51445 7.72036 -1.52882 7.79263Q-1.5432 7.86491 -1.56459 7.93543Q-1.58598 8.00594 -1.61418 8.07402Q-1.64238 8.14211 -1.67712 8.20709Q-1.71186 8.27208 -1.7528 8.33335Q-1.79374 8.39463 -1.84048 8.45159Q-1.88723 8.50855 -1.93934 8.56066Q-1.99145 8.61277 -2.04841 8.65952Q-2.10537 8.70626 -2.16664 8.7472Q-2.22792 8.78814 -2.2929 8.82288Q-2.35789 8.85762 -2.42597 8.88582Q-2.49406 8.91402 -2.56457 8.93541Q-2.63509 8.9568 -2.70736 8.97118Q-2.77964 8.98555 -2.85297 8.99278Q-2.92631 9 -3 9L-12 9Q-12.0737 9 -12.147 8.99278Q-12.2204 8.98555 -12.2926 8.97118Q-12.3649 8.9568 -12.4354 8.93541Q-12.5059 8.91402 -12.574 8.88582Q-12.6421 8.85762 -12.7071 8.82288Q-12.7721 8.78814 -12.8334 8.7472Q-12.8946 8.70626 -12.9516 8.65952Q-13.0086 8.61277 -13.0607 8.56066Q-13.1128 8.50855 -13.1595 8.45159Q-13.2063 8.39463 -13.2472 8.33335Q-13.2881 8.27208 -13.3229 8.2071Q-13.3576 8.14211 -13.3858 8.07402Q-13.414 8.00594 -13.4354 7.93543Q-13.4568 7.86491 -13.4712 7.79263Q-13.4856 7.72036 -13.4928 7.64703Q-13.5 7.57369 -13.5 7.5ZM-10.5 -6L-10.5 6L-4.5 6L-4.5 -6L-10.5 -6Z"/>
	<path fill="none" stroke="black" stroke-width="2.3999999" stroke-linejoin="round" transform="translate(55 79.2857)" d="M-30.4393 7.61066Q-31.5818 7.61066 -32.7098 7.53742Q-33.8377 7.46906 -35.0584 7.21027L-35.0584 -6.23211Q-34.1014 -6.40789 -32.9637 -6.49578Q-31.8211 -6.58855 -30.8396 -6.58855Q-29.5213 -6.58855 -28.4129 -6.39813Q-27.2996 -6.2077 -26.4988 -5.74871Q-25.698 -5.28973 -25.2488 -4.53777Q-24.7996 -3.7907 -24.7996 -2.69207Q-24.7996 -1.03191 -26.4012 -0.0700002Q-25.0779 0.428047 -24.5994 1.2923Q-24.1209 2.15168 -24.1209 3.23078Q-24.1209 5.40852 -25.7127 6.51203Q-27.2996 7.61066 -30.4393 7.61066ZM-32.0213 1.38996L-32.0213 4.96906Q-31.6795 5.00812 -31.2791 5.03254Q-30.8787 5.05207 -30.4002 5.05207Q-28.9988 5.05207 -28.1395 4.65168Q-27.2801 4.25129 -27.2801 3.17219Q-27.2801 2.21027 -28.0027 1.80012Q-28.7205 1.38996 -30.0584 1.38996L-32.0213 1.38996ZM-32.0213 -0.987969L-30.4978 -0.987969Q-29.0623 -0.987969 -28.4422 -1.35906Q-27.8221 -1.73016 -27.8221 -2.55047Q-27.8221 -3.39031 -28.4617 -3.72723Q-29.1014 -4.06902 -30.3416 -4.06902Q-30.742 -4.06902 -31.201 -4.05926Q-31.66 -4.04949 -32.0213 -4.01043L-32.0213 -0.987969ZM-17.8 5.34992Q-17.3606 5.34992 -16.9602 5.33039Q-16.5598 5.31086 -16.3206 5.2718L-16.3206 3.01105Q-16.5012 2.97199 -16.8625 2.93293Q-17.219 2.88898 -17.5217 2.88898Q-17.9417 2.88898 -18.3127 2.9427Q-18.679 2.99152 -18.9622 3.13312Q-19.2405 3.26984 -19.4016 3.5091Q-19.5579 3.74836 -19.5579 4.10969Q-19.5579 4.80793 -19.0891 5.08137Q-18.6204 5.34992 -17.8 5.34992ZM-18.0393 -3.37078Q-16.7209 -3.37078 -15.842 -3.06805Q-14.9583 -2.7702 -14.4309 -2.20867Q-13.8987 -1.65203 -13.679 -0.85125Q-13.4592 -0.0504689 -13.4592 0.930976L-13.4592 7.13215Q-14.0989 7.26887 -15.2415 7.4593Q-16.3792 7.64973 -18.0002 7.64973Q-19.0208 7.64973 -19.8508 7.46906Q-20.6809 7.2884 -21.2815 6.87824Q-21.8821 6.46809 -22.2043 5.80891Q-22.5217 5.14973 -22.5217 4.18781Q-22.5217 3.26984 -22.1506 2.6302Q-21.7795 1.99055 -21.1594 1.60969Q-20.5393 1.22883 -19.7385 1.06281Q-18.9377 0.891914 -18.0784 0.891914Q-17.5022 0.891914 -17.053 0.940742Q-16.5989 0.98957 -16.3206 1.0677L-16.3206 0.789375Q-16.3206 0.0276561 -16.7795 -0.431328Q-17.2385 -0.890313 -18.3811 -0.890313Q-19.1379 -0.890313 -19.8801 -0.778008Q-20.6223 -0.670586 -21.1594 -0.470391L-21.5403 -2.86785Q-21.2815 -2.95086 -20.8909 -3.03875Q-20.5002 -3.13152 -20.0413 -3.19988Q-19.5823 -3.26824 -19.0745 -3.31707Q-18.5618 -3.37078 -18.0393 -3.37078ZM-10.8612 -5.70965L-7.87776 -6.18816L-7.87776 -3.08758L-4.29866 -3.08758L-4.29866 -0.611992L-7.87776 -0.611992L-7.87776 3.08918Q-7.87776 4.03156 -7.55061 4.59309Q-7.21858 5.14973 -6.21761 5.14973Q-5.73909 5.14973 -5.23128 5.06184Q-4.71858 4.96906 -4.29866 4.80793L-3.87874 7.13215Q-4.42073 7.35187 -5.07991 7.50812Q-5.73909 7.66926 -6.701 7.66926Q-7.92171 7.66926 -8.72249 7.34211Q-9.51839 7.01008 -10.0018 6.41926Q-10.4803 5.82844 -10.6707 4.98859Q-10.8612 4.14875 -10.8612 3.12824L-10.8612 -5.70965ZM-1.98117 -5.70965L1.00223 -6.18816L1.00223 -3.08758L4.58133 -3.08758L4.58133 -0.611992L1.00223 -0.611992L1.00223 3.08918Q1.00223 4.03156 1.32938 4.59309Q1.66141 5.14973 2.66238 5.14973Q3.1409 5.14973 3.64871 5.06184Q4.16141 4.96906 4.58133 4.80793L5.00125 7.13215Q4.45926 7.35187 3.80008 7.50812Q3.1409 7.66926 2.17899 7.66926Q0.958282 7.66926 0.157501 7.34211Q-0.638397 7.01008 -1.1218 6.41926Q-1.60031 5.82844 -1.79074 4.98859Q-1.98117 4.14875 -1.98117 3.12824L-1.98117 -5.70965ZM6.49843 2.24934Q6.49843 0.847969 6.92812 -0.201836Q7.3578 -1.25164 8.05605 -1.94988Q8.75917 -2.64813 9.66737 -3.00945Q10.5805 -3.37078 11.5424 -3.37078Q13.7787 -3.37078 15.0775 -1.99871Q16.3812 -0.631524 16.3812 2.02961Q16.3812 2.2884 16.3617 2.6009Q16.3422 2.90852 16.3178 3.14777L9.55995 3.14777Q9.65761 4.07062 10.4193 4.61262Q11.181 5.14973 12.4603 5.14973Q13.2807 5.14973 14.0668 5.00324Q14.8578 4.85187 15.3607 4.63215L15.7611 7.04914Q15.5219 7.17121 15.1215 7.29328Q14.7211 7.41047 14.2279 7.49836Q13.7396 7.59113 13.1781 7.64973Q12.6215 7.70832 12.06 7.70832Q10.6391 7.70832 9.58925 7.2884Q8.53944 6.86848 7.84608 6.14094Q7.15761 5.40852 6.82558 4.41242Q6.49843 3.41145 6.49843 2.24934ZM13.5004 1.11164Q13.4809 0.730781 13.3685 0.369453Q13.2611 0.00812483 13.0316 -0.270195Q12.8021 -0.548516 12.4506 -0.72918Q12.099 -0.909844 11.5814 -0.909844Q11.0785 -0.909844 10.7172 -0.738945Q10.3607 -0.568047 10.1215 -0.289727Q9.88222 -0.0114064 9.75038 0.359687Q9.61855 0.730781 9.55995 1.11164L13.5004 1.11164ZM25.0192 -0.45086Q24.6189 -0.548516 24.0769 -0.655938Q23.5397 -0.768242 22.9196 -0.768242Q22.6413 -0.768242 22.2507 -0.719414Q21.8601 -0.670586 21.6599 -0.611992L21.6599 7.43L18.6814 7.43L18.6814 -2.53094Q19.4821 -2.80926 20.571 -3.05828Q21.6599 -3.31219 22.9978 -3.31219Q23.2419 -3.31219 23.5788 -3.27801Q23.9206 -3.24871 24.2575 -3.19988Q24.5993 -3.15105 24.9362 -3.07781Q25.278 -3.00945 25.5222 -2.9118L25.0192 -0.45086ZM36.4622 -3.08758Q35.5588 -0.0504689 34.5774 2.61066Q33.6008 5.2718 32.4387 7.7718Q32.0188 8.67023 31.5989 9.30012Q31.179 9.93 30.676 10.3402Q30.178 10.7503 29.5481 10.9407Q28.9182 11.1312 28.0784 11.1312Q27.3801 11.1312 26.7893 10.9993Q26.1985 10.8724 25.8176 10.7113L26.3401 8.32844Q26.7991 8.48957 27.1604 8.54816Q27.5217 8.61164 27.9221 8.61164Q28.718 8.61164 29.1477 8.18195Q29.5823 7.75227 29.8801 6.99055Q28.8596 4.98859 27.8391 2.49836Q26.8186 0.00812483 25.9202 -3.08758L29.0793 -3.08758Q29.2795 -2.31121 29.5481 -1.39813Q29.8215 -0.489922 30.1194 0.442695Q30.4221 1.37043 30.7297 2.24934Q31.0422 3.12824 31.3206 3.8509Q31.5793 3.12824 31.8577 2.24934Q32.1409 1.37043 32.4094 0.442695Q32.678 -0.489922 32.927 -1.39813Q33.1809 -2.31121 33.3811 -3.08758L36.4622 -3.08758Z"/>
	<path fill="white" transform="translate(55 79.2857)" d="M-30.4393 7.61066Q-31.5818 7.61066 -32.7098 7.53742Q-33.8377 7.46906 -35.0584 7.21027L-35.0584 -6.23211Q-34.1014 -6.40789 -32.9637 -6.49578Q-31.8211 -6.58855 -30.8396 -6.58855Q-29.5213 -6.58855 -28.4129 -6.39813Q-27.2996 -6.2077 -26.4988 -5.74871Q-25.698 -5.28973 -25.2488 -4.53777Q-24.7996 -3.7907 -24.7996 -2.69207Q-24.7996 -1.03191 -26.4012 -0.0700002Q-25.0779 0.428047 -24.5994 1.2923Q-24.1209 2.15168 -24.1209 3.23078Q-24.1209 5.40852 -25.7127 6.51203Q-27.2996 7.61066 -30.4393 7.61066ZM-32.0213 1.38996L-32.0213 4.96906Q-31.6795 5.00812 -31.2791 5.03254Q-30.8787 5.05207 -30.4002 5.05207Q-28.9988 5.05207 -28.1395 4.65168Q-27.2801 4.25129 -27.2801 3.17219Q-27.2801 2.21027 -28.0027 1.80012Q-28.7205 1.38996 -30.0584 1.38996L-32.0213 1.38996ZM-32.0213 -0.987969L-30.4978 -0.987969Q-29.0623 -0.987969 -28.4422 -1.35906Q-27.8221 -1.73016 -27.8221 -2.55047Q-27.8221 -3.39031 -28.4617 -3.72723Q-29.1014 -4.06902 -30.3416 -4.06902Q-30.742 -4.06902 -31.201 -4.05926Q-31.66 -4.04949 -32.0213 -4.01043L-32.0213 -0.987969ZM-17.8 5.34992Q-17.3606 5.34992 -16.9602 5.33039Q-16.5598 5.31086 -16.3206 5.2718L-16.3206 3.01105Q-16.5012 2.97199 -16.8625 2.93293Q-17.219 2.88898 -17.5217 2.88898Q-17.9417 2.88898 -18.3127 2.9427Q-18.679 2.99152 -18.9622 3.13312Q-19.2405 3.26984 -19.4016 3.5091Q-19.5579 3.74836 -19.5579 4.10969Q-19.5579 4.80793 -19.0891 5.08137Q-18.6204 5.34992 -17.8 5.34992ZM-18.0393 -3.37078Q-16.7209 -3.37078 -15.842 -3.06805Q-14.9583 -2.7702 -14.4309 -2.20867Q-13.8987 -1.65203 -13.679 -0.85125Q-13.4592 -0.0504689 -13.4592 0.930976L-13.4592 7.13215Q-14.0989 7.26887 -15.2415 7.4593Q-16.3792 7.64973 -18.0002 7.64973Q-19.0208 7.64973 -19.8508 7.46906Q-20.6809 7.2884 -21.2815 6.87824Q-21.8821 6.46809 -22.2043 5.80891Q-22.5217 5.14973 -22.5217 4.18781Q-22.5217 3.26984 -22.1506 2.6302Q-21.7795 1.99055 -21.1594 1.60969Q-20.5393 1.22883 -19.7385 1.06281Q-18.9377 0.891914 -18.0784 0.891914Q-17.5022 0.891914 -17.053 0.940742Q-16.5989 0.98957 -16.3206 1.0677L-16.3206 0.789375Q-16.3206 0.0276561 -16.7795 -0.431328Q-17.2385 -0.890313 -18.3811 -0.890313Q-19.1379 -0.890313 -19.8801 -0.778008Q-20.6223 -0.670586 -21.1594 -0.470391L-21.5403 -2.86785Q-21.2815 -2.95086 -20.8909 -3.03875Q-20.5002 -3.13152 -20.0413 -3.19988Q-19.5823 -3.26824 -19.0745 -3.31707Q-18.5618 -3.37078 -18.0393 -3.37078ZM-10.8612 -5.70965L-7.87776 -6.18816L-7.87776 -3.08758L-4.29866 -3.08758L-4.29866 -0.611992L-7.87776 -0.611992L-7.87776 3.08918Q-7.87776 4.03156 -7.55061 4.59309Q-7.21858 5.14973 -6.21761 5.14973Q-5.73909 5.14973 -5.23128 5.06184Q-4.71858 4.96906 -4.29866 4.80793L-3.87874 7.13215Q-4.42073 7.35187 -5.07991 7.50812Q-5.73909 7.66926 -6.701 7.66926Q-7.92171 7.66926 -8.72249 7.34211Q-9.51839 7.01008 -10.0018 6.41926Q-10.4803 5.82844 -10.6707 4.98859Q-10.8612 4.14875 -10.8612 3.12824L-10.8612 -5.70965ZM-1.98117 -5.70965L1.00223 -6.18816L1.00223 -3.08758L4.58133 -3.08758L4.58133 -0.611992L1.00223 -0.611992L1.00223 3.08918Q1.00223 4.03156 1.32938 4.59309Q1.66141 5.14973 2.66238 5.14973Q3.1409 5.14973 3.64871 5.06184Q4.16141 4.96906 4.58133 4.80793L5.00125 7.13215Q4.45926 7.35187 3.80008 7.50812Q3.1409 7.66926 2.17899 7.66926Q0.958282 7.66926 0.157501 7.34211Q-0.638397 7.01008 -1.1218 6.41926Q-1.60031 5.82844 -1.79074 4.98859Q-1.98117 4.14875 -1.98117 3.12824L-1.98117 -5.70965ZM6.49843 2.24934Q6.49843 0.847969 6.92812 -0.201836Q7.3578 -1.25164 8.05605 -1.94988Q8.75917 -2.64813 9.66737 -3.00945Q10.5805 -3.37078 11.5424 -3.37078Q13.7787 -3.37078 15.0775 -1.99871Q16.3812 -0.631524 16.3812 2.02961Q16.3812 2.2884 16.3617 2.6009Q16.3422 2.90852 16.3178 3.14777L9.55995 3.14777Q9.65761 4.07062 10.4193 4.61262Q11.181 5.14973 12.4603 5.14973Q13.2807 5.14973 14.0668 5.00324Q14.8578 4.85187 15.3607 4.63215L15.7611 7.04914Q15.5219 7.17121 15.1215 7.29328Q14.7211 7.41047 14.2279 7.49836Q13.7396 7.59113 13.1781 7.64973Q12.6215 7.70832 12.06 7.70832Q10.6391 7.70832 9.58925 7.2884Q8.53944 6.86848 7.84608 6.14094Q7.15761 5.40852 6.82558 4.41242Q6.49843 3.41145 6.49843 2.24934ZM13.5004 1.11164Q13.4809 0.730781 13.3685 0.369453Q13.2611 0.00812483 13.0316 -0.270195Q12.8021 -0.548516 12.4506 -0.72918Q12.099 -0.909844 11.5814 -0.909844Q11.0785 -0.909844 10.7172 -0.738945Q10.3607 -0.568047 10.1215 -0.289727Q9.88222 -0.0114064 9.75038 0.359687Q9.61855 0.730781 9.55995 1.11164L13.5004 1.11164ZM25.0192 -0.45086Q24.6189 -0.548516 24.0769 -0.655938Q23.5397 -0.768242 22.9196 -0.768242Q22.6413 -0.768242 22.2507 -0.719414Q21.8601 -0.670586 21.6599 -0.611992L21.6599 7.43L18.6814 7.43L18.6814 -2.53094Q19.4821 -2.80926 20.571 -3.05828Q21.6599 -3.31219 22.9978 -3.31219Q23.2419 -3.31219 23.5788 -3.27801Q23.9206 -3.24871 24.2575 -3.19988Q24.5993 -3.15105 24.9362 -3.07781Q25.278 -3.00945 25.5222 -2.9118L25.0192 -0.45086ZM36.4622 -3.08758Q35.5588 -0.0504689 34.5774 2.61066Q33.6008 5.2718 32.4387 7.7718Q32.0188 8.67023 31.5989 9.30012Q31.179 9.93 30.676 10.3402Q30.178 10.7503 29.5481 10.9407Q28.9182 11.1312 28.0784 11.1312Q27.3801 11.1312 26.7893 10.9993Q26.1985 10.8724 25.8176 10.7113L26.3401 8.32844Q26.7991 8.48957 27.1604 8.54816Q27.5217 8.61164 27.9221 8.61164Q28.718 8.61164 29.1477 8.18195Q29.5823 7.75227 29.8801 6.99055Q28.8596 4.98859 27.8391 2.49836Q26.8186 0.00812483 25.9202 -3.08758L29.0793 -3.08758Q29.2795 -2.31121 29.5481 -1.39813Q29.8215 -0.489922 30.1194 0.442695Q30.4221 1.37043 30.7297 2.24934Q31.0422 3.12824 31.3206 3.8509Q31.5793 3.12824 31.8577 2.24934Q32.1409 1.37043 32.4094 0.442695Q32.678 -0.489922 32.927 -1.39813Q33.1809 -2.31121 33.3811 -3.08758L36.4622 -3.08758Z"/>
</svg>
