<?xml version="1.0" encoding="utf-8" ?>
<svg xmlns="http://www.w3.org/2000/svg" xmlns:xlink="http://www.w3.org/1999/xlink" width="110" height="110">
	<path fill="#FFE51C" transform="matrix(0.0948661 0 0 0.0948661 30.7143 23.5714)" d="M247 18.656C166.035 18.656 100.125 83.676 100.125 164.281C100.125 209.911 115.883 231.281 133.438 259.126C145.144 277.696 157.205 299.036 163.968 329.689L329.063 329.689C335.791 298.302 347.973 276.569 359.781 257.814C377.361 229.894 393.095 208.902 393.095 164.282C393.095 83.622 327.968 18.658 247.001 18.658L247 18.656Z"/>
	<path fill="#CFB917" transform="matrix(0.0948661 0 0 0.0948661 30.7143 23.5714)" d="M247 36.156Q220.679 36.156 196.653 46.2168Q173.43 55.9414 155.512 73.6784Q137.597 91.4134 127.782 114.395Q117.625 138.179 117.625 164.281Q117.625 189.482 125.249 208.934Q130.048 221.18 144.584 244.026Q147.007 247.834 148.242 249.793Q159.672 267.926 166.434 282.518Q176.068 303.305 181.057 325.919L163.968 329.689L163.968 312.189L329.063 312.189L329.063 329.689L311.952 326.021Q316.912 302.88 326.608 281.724Q333.457 266.779 344.972 248.49Q346.349 246.303 349.038 242.08Q363.405 219.516 368.126 207.546Q375.595 188.613 375.595 164.282Q375.595 138.108 365.535 114.315Q355.813 91.3209 338.055 73.6155Q320.288 55.9023 297.206 46.2023Q273.305 36.158 247.001 36.158Q246.386 36.158 245.773 36.1149Q245.16 36.0718 244.552 35.9858Q243.943 35.8997 243.342 35.7712Q242.741 35.6427 242.15 35.4724Q241.56 35.302 240.983 35.0907Q240.406 34.8793 239.845 34.628Q239.284 34.3767 238.742 34.0866Q238.2 33.7965 237.68 33.4692Q237.16 33.1418 236.664 32.7788Q236.168 32.4157 235.699 32.0188Q235.23 31.6219 234.789 31.193Q234.349 30.7641 233.94 30.3054Q233.531 29.8467 233.155 29.3604Q232.779 28.8741 232.438 28.3627Q232.098 27.8512 231.793 27.3171Q231.489 26.783 231.223 26.2289L231.222 26.2269L247 18.656L247 36.156ZM247 1.156Q247.615 1.156 248.228 1.19912Q248.841 1.24224 249.449 1.32826Q250.058 1.41428 250.659 1.54279Q251.26 1.67129 251.85 1.84164Q252.441 2.012 253.018 2.22336Q253.595 2.43472 254.156 2.68605Q254.717 2.93738 255.259 3.22744Q255.801 3.51749 256.321 3.84485Q256.841 4.17221 257.337 4.53525Q257.833 4.89829 258.302 5.29524Q258.771 5.69218 259.212 6.12106Q259.652 6.54994 260.061 7.00865Q260.47 7.46736 260.846 7.95364Q261.222 8.43991 261.563 8.95136Q261.903 9.46281 262.208 9.99691Q262.512 10.531 262.778 11.0851L262.779 11.0872L247.001 18.658L247.001 1.15804Q280.36 1.15804 310.766 13.9357Q340.155 26.2862 362.766 48.8296Q385.38 71.376 397.772 100.685Q410.595 131.013 410.595 164.282Q410.595 195.267 400.685 220.389Q394.731 235.482 378.561 260.878Q375.922 265.023 374.59 267.138Q364.31 283.467 358.426 296.305Q350.33 313.971 346.174 333.357Q346.096 333.72 346.003 334.08Q345.91 334.44 345.801 334.796Q345.693 335.152 345.569 335.502Q345.446 335.853 345.307 336.198Q345.169 336.543 345.016 336.882Q344.863 337.221 344.696 337.553Q344.529 337.886 344.348 338.21Q344.167 338.535 343.972 338.852Q343.778 339.169 343.57 339.477Q343.362 339.785 343.141 340.084Q342.92 340.383 342.687 340.673Q342.453 340.962 342.208 341.242Q341.962 341.521 341.705 341.79Q341.448 342.058 341.18 342.316Q340.911 342.573 340.632 342.819Q340.354 343.065 340.064 343.299Q339.775 343.532 339.476 343.754Q339.178 343.975 338.87 344.183Q338.562 344.392 338.245 344.587Q337.929 344.782 337.604 344.963Q337.279 345.145 336.947 345.312Q336.616 345.48 336.277 345.633Q335.938 345.786 335.593 345.925Q335.248 346.064 334.897 346.188Q334.547 346.312 334.191 346.421Q333.836 346.53 333.476 346.623Q333.116 346.717 332.753 346.796Q332.389 346.874 332.023 346.937Q331.656 347 331.288 347.047Q330.919 347.094 330.548 347.126Q330.178 347.157 329.806 347.173Q329.435 347.189 329.063 347.189L163.968 347.189Q163.598 347.189 163.228 347.173Q162.858 347.158 162.489 347.126Q162.12 347.095 161.753 347.048Q161.386 347.001 161.021 346.939Q160.656 346.877 160.294 346.799Q159.932 346.721 159.574 346.628Q159.216 346.535 158.861 346.427Q158.507 346.319 158.158 346.197Q157.809 346.074 157.465 345.936Q157.122 345.798 156.784 345.647Q156.447 345.495 156.116 345.328Q155.785 345.162 155.461 344.982Q155.138 344.802 154.822 344.609Q154.507 344.415 154.199 344.209Q153.892 344.002 153.594 343.783Q153.296 343.563 153.007 343.331Q152.719 343.1 152.44 342.856Q152.162 342.612 151.894 342.356Q151.626 342.101 151.369 341.835Q151.112 341.568 150.867 341.291Q150.621 341.014 150.388 340.726Q150.154 340.439 149.933 340.142Q149.712 339.845 149.504 339.539Q149.295 339.233 149.1 338.919Q148.905 338.604 148.723 338.282Q148.541 337.959 148.373 337.63Q148.205 337.3 148.051 336.963Q147.897 336.626 147.758 336.283Q147.618 335.94 147.494 335.592Q147.369 335.243 147.259 334.89Q147.149 334.536 147.054 334.179Q146.959 333.821 146.879 333.459Q142.71 314.565 134.679 297.235Q128.863 284.685 118.634 268.459Q117.439 266.562 115.054 262.814Q98.6984 237.107 92.662 221.705Q82.625 196.095 82.625 164.281Q82.625 131.018 95.5947 100.649Q108.102 71.3627 130.889 48.8049Q153.639 26.2839 183.134 13.9329Q213.647 1.156 247 1.156Z"/>
	<path fill="#FFF28D" transform="matrix(0.0948661 0 0 0.0948661 30.7143 23.5714)" d="M147.22 146.562L170.437 167L210 201.813L241.188 167.688L247.968 160.25L254.875 167.594L285.625 200.314L325.595 166.844L348.281 147.844L340.626 176.438L304.75 310.28L286.687 305.438L314.907 200.188L290.875 220.313L284.095 225.969L278.062 219.529L248.156 187.749L217.594 221.187L211.406 227.967L204.531 221.905L181.281 201.468L209.221 305.686L191.157 310.498L155.22 176.435L147.22 146.56L147.22 146.562Z"/>
	<path fill="#666" transform="matrix(0.0948661 0 0 0.0948661 30.7143 23.5714)" d="M169.813 348.375L169.813 448.156L323.406 448.156L323.406 348.375L169.813 348.375Z"/>
	<path fill="#535353" transform="matrix(0.0948661 0 0 0.0948661 30.7143 23.5714)" d="M152.313 348.375L152.313 448.156Q152.313 448.586 152.334 449.015Q152.355 449.444 152.397 449.871Q152.439 450.299 152.502 450.724Q152.565 451.149 152.649 451.57Q152.733 451.991 152.837 452.408Q152.942 452.825 153.067 453.236Q153.191 453.647 153.336 454.052Q153.481 454.456 153.645 454.853Q153.81 455.25 153.993 455.638Q154.177 456.027 154.379 456.405Q154.582 456.784 154.803 457.153Q155.024 457.521 155.262 457.878Q155.501 458.236 155.757 458.581Q156.013 458.926 156.285 459.258Q156.558 459.59 156.846 459.908Q157.135 460.227 157.439 460.53Q157.742 460.834 158.061 461.123Q158.379 461.411 158.711 461.684Q159.043 461.956 159.388 462.212Q159.733 462.468 160.091 462.707Q160.448 462.945 160.816 463.166Q161.185 463.387 161.564 463.59Q161.942 463.792 162.331 463.976Q162.719 464.159 163.116 464.324Q163.513 464.488 163.917 464.633Q164.322 464.778 164.733 464.902Q165.144 465.027 165.561 465.132Q165.978 465.236 166.399 465.32Q166.82 465.404 167.245 465.467Q167.67 465.53 168.098 465.572Q168.525 465.614 168.954 465.635Q169.383 465.656 169.813 465.656L323.406 465.656Q323.836 465.656 324.265 465.635Q324.694 465.614 325.121 465.572Q325.549 465.53 325.974 465.467Q326.399 465.404 326.82 465.32Q327.241 465.236 327.658 465.132Q328.075 465.027 328.486 464.902Q328.897 464.778 329.302 464.633Q329.706 464.488 330.103 464.324Q330.5 464.159 330.888 463.976Q331.277 463.792 331.655 463.59Q332.034 463.387 332.403 463.166Q332.771 462.945 333.128 462.707Q333.486 462.468 333.831 462.212Q334.176 461.956 334.508 461.684Q334.84 461.411 335.158 461.123Q335.477 460.834 335.78 460.53Q336.084 460.227 336.373 459.908Q336.661 459.59 336.934 459.258Q337.206 458.926 337.462 458.581Q337.718 458.236 337.957 457.878Q338.195 457.521 338.416 457.153Q338.637 456.784 338.84 456.405Q339.042 456.027 339.226 455.638Q339.409 455.25 339.574 454.853Q339.738 454.456 339.883 454.052Q340.028 453.647 340.152 453.236Q340.277 452.825 340.382 452.408Q340.486 451.991 340.57 451.57Q340.654 451.149 340.717 450.724Q340.78 450.299 340.822 449.871Q340.864 449.444 340.885 449.015Q340.906 448.586 340.906 448.156L340.906 348.375Q340.906 347.945 340.885 347.516Q340.864 347.087 340.822 346.66Q340.78 346.232 340.717 345.807Q340.654 345.382 340.57 344.961Q340.486 344.54 340.382 344.123Q340.277 343.706 340.152 343.295Q340.028 342.884 339.883 342.479Q339.738 342.075 339.574 341.678Q339.409 341.281 339.226 340.893Q339.042 340.504 338.84 340.126Q338.637 339.747 338.416 339.378Q338.195 339.01 337.957 338.652Q337.718 338.295 337.462 337.95Q337.206 337.605 336.934 337.273Q336.661 336.941 336.373 336.623Q336.084 336.304 335.78 336.001Q335.477 335.697 335.158 335.408Q334.84 335.12 334.508 334.847Q334.176 334.575 333.831 334.319Q333.486 334.063 333.128 333.824Q332.771 333.586 332.403 333.365Q332.034 333.144 331.655 332.941Q331.277 332.739 330.888 332.555Q330.5 332.372 330.103 332.207Q329.706 332.043 329.302 331.898Q328.897 331.753 328.486 331.629Q328.075 331.504 327.658 331.399Q327.241 331.295 326.82 331.211Q326.399 331.127 325.974 331.064Q325.549 331.001 325.121 330.959Q324.694 330.917 324.265 330.896Q323.836 330.875 323.406 330.875L169.813 330.875Q169.383 330.875 168.954 330.896Q168.525 330.917 168.098 330.959Q167.67 331.001 167.245 331.064Q166.82 331.127 166.399 331.211Q165.978 331.295 165.561 331.399Q165.144 331.504 164.733 331.629Q164.322 331.753 163.917 331.898Q163.513 332.043 163.116 332.207Q162.719 332.371 162.331 332.555Q161.942 332.739 161.564 332.941Q161.185 333.144 160.816 333.365Q160.448 333.586 160.09 333.824Q159.733 334.063 159.388 334.319Q159.043 334.575 158.711 334.847Q158.379 335.12 158.061 335.408Q157.742 335.697 157.439 336.001Q157.135 336.304 156.846 336.623Q156.558 336.941 156.285 337.273Q156.013 337.605 155.757 337.95Q155.501 338.295 155.262 338.652Q155.024 339.01 154.803 339.378Q154.582 339.747 154.379 340.126Q154.177 340.504 153.993 340.893Q153.81 341.281 153.645 341.678Q153.481 342.075 153.336 342.479Q153.191 342.884 153.067 343.295Q152.942 343.706 152.837 344.123Q152.733 344.54 152.649 344.961Q152.565 345.382 152.502 345.807Q152.439 346.232 152.397 346.66Q152.355 347.087 152.334 347.516Q152.313 347.945 152.313 348.375ZM187.313 365.875L305.906 365.875L305.906 430.656L187.313 430.656L187.313 365.875Z"/>
	<path fill="none" stroke="black" stroke-width="2.3999999" stroke-linejoin="round" transform="translate(55 79.2857)" d="M-15.5893 7.61066Q-16.7318 7.61066 -17.8598 7.53742Q-18.9877 7.46906 -20.2084 7.21027L-20.2084 -6.23211Q-19.2514 -6.40789 -18.1137 -6.49578Q-16.9711 -6.58855 -15.9897 -6.58855Q-14.6713 -6.58855 -13.5629 -6.39813Q-12.4496 -6.2077 -11.6488 -5.74871Q-10.8481 -5.28973 -10.3988 -4.53777Q-9.94962 -3.7907 -9.94962 -2.69207Q-9.94962 -1.03191 -11.5512 -0.0700002Q-10.2279 0.428047 -9.74943 1.2923Q-9.27091 2.15168 -9.27091 3.23078Q-9.27091 5.40852 -10.8627 6.51203Q-12.4496 7.61066 -15.5893 7.61066ZM-17.1713 1.38996L-17.1713 4.96906Q-16.8295 5.00812 -16.4291 5.03254Q-16.0287 5.05207 -15.5502 5.05207Q-14.1488 5.05207 -13.2895 4.65168Q-12.4301 4.25129 -12.4301 3.17219Q-12.4301 2.21027 -13.1527 1.80012Q-13.8705 1.38996 -15.2084 1.38996L-17.1713 1.38996ZM-17.1713 -0.987969L-15.6479 -0.987969Q-14.2123 -0.987969 -13.5922 -1.35906Q-12.9721 -1.73016 -12.9721 -2.55047Q-12.9721 -3.39031 -13.6117 -3.72723Q-14.2514 -4.06902 -15.4916 -4.06902Q-15.892 -4.06902 -16.351 -4.05926Q-16.81 -4.04949 -17.1713 -4.01043L-17.1713 -0.987969ZM2.01087 7.06867Q1.24915 7.2884 0.0479813 7.47883Q-1.14831 7.66926 -2.47155 7.66926Q-3.80944 7.66926 -4.703 7.31281Q-5.59167 6.95148 -6.11413 6.30207Q-6.63171 5.64777 -6.85143 4.74934Q-7.07116 3.8509 -7.07116 2.7718L-7.07116 -3.08758L-4.08776 -3.08758L-4.08776 2.41047Q-4.08776 3.8509 -3.71178 4.49055Q-3.33092 5.1302 -2.29089 5.1302Q-1.96862 5.1302 -1.61217 5.1009Q-1.25085 5.0716 -0.967644 5.02766L-0.967644 -3.08758L2.01087 -3.08758L2.01087 7.06867ZM9.01058 7.6302Q7.71175 7.61066 6.90121 7.35187Q6.09066 7.0882 5.61703 6.61945Q5.14828 6.1507 4.97738 5.48176Q4.81136 4.80793 4.81136 3.96809L4.81136 -7.60906L7.78988 -8.08758L7.78988 3.37238Q7.78988 3.76789 7.84847 4.09016Q7.91195 4.41242 8.07796 4.63215Q8.24886 4.85187 8.56625 4.99348Q8.88851 5.1302 9.4305 5.16926L9.01058 7.6302ZM17.8696 2.0882Q17.8696 -0.787774 15.7505 -0.787774Q15.2915 -0.787774 14.8374 -0.665703Q14.3882 -0.548516 14.1099 -0.367852L14.1099 5.05207Q14.3296 5.09113 14.6665 5.12043Q15.0083 5.14973 15.4087 5.14973Q16.6294 5.14973 17.2495 4.30988Q17.8696 3.47004 17.8696 2.0882ZM20.9116 2.17121Q20.9116 3.43098 20.5405 4.45148Q20.1694 5.47199 19.4663 6.19465Q18.7681 6.91242 17.7476 7.30305Q16.7319 7.68879 15.4282 7.68879Q14.8911 7.68879 14.3003 7.63996Q13.7095 7.59113 13.1382 7.50812Q12.5718 7.43 12.0493 7.32258Q11.5317 7.21027 11.1314 7.0882L11.1314 -7.60906L14.1099 -8.08758L14.1099 -2.84832Q14.6079 -3.06805 15.1499 -3.19012Q15.6919 -3.31219 16.312 -3.31219Q17.4302 -3.31219 18.2896 -2.92156Q19.1489 -2.53094 19.73 -1.80828Q20.311 -1.09051 20.6089 -0.0797658Q20.9116 0.930976 20.9116 2.17121Z"/>
	<path fill="white" transform="translate(55 79.2857)" d="M-15.5893 7.61066Q-16.7318 7.61066 -17.8598 7.53742Q-18.9877 7.46906 -20.2084 7.21027L-20.2084 -6.23211Q-19.2514 -6.40789 -18.1137 -6.49578Q-16.9711 -6.58855 -15.9897 -6.58855Q-14.6713 -6.58855 -13.5629 -6.39813Q-12.4496 -6.2077 -11.6488 -5.74871Q-10.8481 -5.28973 -10.3988 -4.53777Q-9.94962 -3.7907 -9.94962 -2.69207Q-9.94962 -1.03191 -11.5512 -0.0700002Q-10.2279 0.428047 -9.74943 1.2923Q-9.27091 2.15168 -9.27091 3.23078Q-9.27091 5.40852 -10.8627 6.51203Q-12.4496 7.61066 -15.5893 7.61066ZM-17.1713 1.38996L-17.1713 4.96906Q-16.8295 5.00812 -16.4291 5.03254Q-16.0287 5.05207 -15.5502 5.05207Q-14.1488 5.05207 -13.2895 4.65168Q-12.4301 4.25129 -12.4301 3.17219Q-12.4301 2.21027 -13.1527 1.80012Q-13.8705 1.38996 -15.2084 1.38996L-17.1713 1.38996ZM-17.1713 -0.987969L-15.6479 -0.987969Q-14.2123 -0.987969 -13.5922 -1.35906Q-12.9721 -1.73016 -12.9721 -2.55047Q-12.9721 -3.39031 -13.6117 -3.72723Q-14.2514 -4.06902 -15.4916 -4.06902Q-15.892 -4.06902 -16.351 -4.05926Q-16.81 -4.04949 -17.1713 -4.01043L-17.1713 -0.987969ZM2.01087 7.06867Q1.24915 7.2884 0.0479813 7.47883Q-1.14831 7.66926 -2.47155 7.66926Q-3.80944 7.66926 -4.703 7.31281Q-5.59167 6.95148 -6.11413 6.30207Q-6.63171 5.64777 -6.85143 4.74934Q-7.07116 3.8509 -7.07116 2.7718L-7.07116 -3.08758L-4.08776 -3.08758L-4.08776 2.41047Q-4.08776 3.8509 -3.71178 4.49055Q-3.33092 5.1302 -2.29089 5.1302Q-1.96862 5.1302 -1.61217 5.1009Q-1.25085 5.0716 -0.967644 5.02766L-0.967644 -3.08758L2.01087 -3.08758L2.01087 7.06867ZM9.01058 7.6302Q7.71175 7.61066 6.90121 7.35187Q6.09066 7.0882 5.61703 6.61945Q5.14828 6.1507 4.97738 5.48176Q4.81136 4.80793 4.81136 3.96809L4.81136 -7.60906L7.78988 -8.08758L7.78988 3.37238Q7.78988 3.76789 7.84847 4.09016Q7.91195 4.41242 8.07796 4.63215Q8.24886 4.85187 8.56625 4.99348Q8.88851 5.1302 9.4305 5.16926L9.01058 7.6302ZM17.8696 2.0882Q17.8696 -0.787774 15.7505 -0.787774Q15.2915 -0.787774 14.8374 -0.665703Q14.3882 -0.548516 14.1099 -0.367852L14.1099 5.05207Q14.3296 5.09113 14.6665 5.12043Q15.0083 5.14973 15.4087 5.14973Q16.6294 5.14973 17.2495 4.30988Q17.8696 3.47004 17.8696 2.0882ZM20.9116 2.17121Q20.9116 3.43098 20.5405 4.45148Q20.1694 5.47199 19.4663 6.19465Q18.7681 6.91242 17.7476 7.30305Q16.7319 7.68879 15.4282 7.68879Q14.8911 7.68879 14.3003 7.63996Q13.7095 7.59113 13.1382 7.50812Q12.5718 7.43 12.0493 7.32258Q11.5317 7.21027 11.1314 7.0882L11.1314 -7.60906L14.1099 -8.08758L14.1099 -2.84832Q14.6079 -3.06805 15.1499 -3.19012Q15.6919 -3.31219 16.312 -3.31219Q17.4302 -3.31219 18.2896 -2.92156Q19.1489 -2.53094 19.73 -1.80828Q20.311 -1.09051 20.6089 -0.0797658Q20.9116 0.930976 20.9116 2.17121Z"/>
</svg>
