<?xml version="1.0" encoding="utf-8" ?>
<svg xmlns="http://www.w3.org/2000/svg" xmlns:xlink="http://www.w3.org/1999/xlink" width="110" height="110">
	<path fill="#35B8C6" transform="matrix(1.42857 0 0 1.42857 55 47.8571)" d="M10.5 0Q10.5 0.25776 10.4874 0.515211Q10.4747 0.77266 10.4494 1.02918Q10.4242 1.2857 10.3864 1.54067Q10.3485 1.79564 10.2982 2.04845Q10.248 2.30126 10.1853 2.55129Q10.1227 2.80133 10.0479 3.04799Q9.97305 3.29465 9.88621 3.53734Q9.79938 3.78004 9.70073 4.01818Q9.60209 4.25632 9.49189 4.48933Q9.38168 4.72234 9.26017 4.94967Q9.13866 5.17699 9.00615 5.39808Q8.87363 5.61917 8.73043 5.83349Q8.58723 6.04781 8.43368 6.25484Q8.28013 6.46188 8.11661 6.66113Q7.95309 6.86038 7.77999 7.05137Q7.60688 7.24236 7.42462 7.42462Q7.24236 7.60688 7.05137 7.77999Q6.86038 7.95309 6.66113 8.11661Q6.46188 8.28013 6.25484 8.43368Q6.04781 8.58723 5.83349 8.73043Q5.61917 8.87363 5.39808 9.00615Q5.17699 9.13867 4.94967 9.26017Q4.72234 9.38168 4.48933 9.49189Q4.25632 9.60209 4.01818 9.70074Q3.78004 9.79938 3.53734 9.88621Q3.29465 9.97305 3.04799 10.0479Q2.80133 10.1227 2.55129 10.1853Q2.30126 10.248 2.04845 10.2982Q1.79564 10.3485 1.54067 10.3864Q1.2857 10.4242 1.02918 10.4494Q0.77266 10.4747 0.515211 10.4874Q0.25776 10.5 0 10.5Q-0.25776 10.5 -0.515211 10.4874Q-0.77266 10.4747 -1.02918 10.4494Q-1.2857 10.4242 -1.54067 10.3864Q-1.79564 10.3485 -2.04845 10.2982Q-2.30126 10.248 -2.55129 10.1853Q-2.80133 10.1227 -3.04799 10.0479Q-3.29465 9.97305 -3.53734 9.88621Q-3.78004 9.79938 -4.01818 9.70073Q-4.25632 9.60209 -4.48933 9.49189Q-4.72234 9.38168 -4.94967 9.26017Q-5.17699 9.13866 -5.39808 9.00615Q-5.61917 8.87363 -5.83349 8.73043Q-6.04781 8.58723 -6.25484 8.43368Q-6.46188 8.28013 -6.66113 8.11661Q-6.86038 7.95309 -7.05137 7.77999Q-7.24236 7.60688 -7.42462 7.42462Q-7.60688 7.24236 -7.77999 7.05137Q-7.95309 6.86038 -8.11661 6.66113Q-8.28013 6.46188 -8.43368 6.25484Q-8.58723 6.04781 -8.73043 5.83349Q-8.87363 5.61917 -9.00615 5.39808Q-9.13867 5.17699 -9.26017 4.94967Q-9.38168 4.72234 -9.49189 4.48933Q-9.60209 4.25632 -9.70074 4.01818Q-9.79938 3.78004 -9.88621 3.53734Q-9.97305 3.29465 -10.0479 3.04799Q-10.1227 2.80133 -10.1853 2.55129Q-10.248 2.30126 -10.2982 2.04845Q-10.3485 1.79564 -10.3864 1.54067Q-10.4242 1.2857 -10.4494 1.02918Q-10.4747 0.77266 -10.4874 0.515211Q-10.5 0.25776 -10.5 0Q-10.5 -0.25776 -10.4874 -0.515211Q-10.4747 -0.77266 -10.4494 -1.02918Q-10.4242 -1.2857 -10.3864 -1.54067Q-10.3485 -1.79564 -10.2982 -2.04845Q-10.248 -2.30126 -10.1853 -2.55129Q-10.1227 -2.80133 -10.0479 -3.04799Q-9.97305 -3.29465 -9.88621 -3.53734Q-9.79938 -3.78004 -9.70073 -4.01818Q-9.60209 -4.25632 -9.49189 -4.48933Q-9.38168 -4.72234 -9.26017 -4.94967Q-9.13866 -5.17699 -9.00615 -5.39808Q-8.87363 -5.61917 -8.73043 -5.83349Q-8.58723 -6.04781 -8.43368 -6.25484Q-8.28013 -6.46188 -8.11661 -6.66113Q-7.95309 -6.86038 -7.77999 -7.05137Q-7.60688 -7.24236 -7.42462 -7.42462Q-7.24236 -7.60688 -7.05137 -7.77999Q-6.86038 -7.95309 -6.66113 -8.11661Q-6.46188 -8.28013 -6.25484 -8.43368Q-6.04781 -8.58723 -5.83349 -8.73043Q-5.61917 -8.87363 -5.39808 -9.00615Q-5.17699 -9.13867 -4.94967 -9.26017Q-4.72234 -9.38168 -4.48933 -9.49189Q-4.25632 -9.60209 -4.01818 -9.70074Q-3.78004 -9.79938 -3.53734 -9.88621Q-3.29465 -9.97305 -3.04799 -10.0479Q-2.80133 -10.1227 -2.55129 -10.1853Q-2.30126 -10.248 -2.04845 -10.2982Q-1.79564 -10.3485 -1.54067 -10.3864Q-1.2857 -10.4242 -1.02918 -10.4494Q-0.77266 -10.4747 -0.515211 -10.4874Q-0.25776 -10.5 0 -10.5Q0.25776 -10.5 0.515211 -10.4874Q0.77266 -10.4747 1.02918 -10.4494Q1.2857 -10.4242 1.54067 -10.3864Q1.79564 -10.3485 2.04845 -10.2982Q2.30126 -10.248 2.55129 -10.1853Q2.80133 -10.1227 3.04799 -10.0479Q3.29465 -9.97305 3.53734 -9.88621Q3.78004 -9.79938 4.01818 -9.70073Q4.25632 -9.60209 4.48933 -9.49189Q4.72234 -9.38168 4.94967 -9.26017Q5.17699 -9.13866 5.39808 -9.00615Q5.61917 -8.87363 5.83349 -8.73043Q6.04781 -8.58723 6.25484 -8.43368Q6.46188 -8.28013 6.66113 -8.11661Q6.86038 -7.95309 7.05137 -7.77999Q7.24236 -7.60688 7.42462 -7.42462Q7.60688 -7.24236 7.77999 -7.05137Q7.95309 -6.86038 8.11661 -6.66113Q8.28013 -6.46188 8.43368 -6.25484Q8.58723 -6.04781 8.73043 -5.83349Q8.87363 -5.61917 9.00615 -5.39808Q9.13867 -5.17699 9.26017 -4.94967Q9.38168 -4.72234 9.49189 -4.48933Q9.60209 -4.25632 9.70074 -4.01818Q9.79938 -3.78004 9.88621 -3.53734Q9.97305 -3.29465 10.0479 -3.04799Q10.1227 -2.80133 10.1853 -2.55129Q10.248 -2.30126 10.2982 -2.04845Q10.3485 -1.79564 10.3864 -1.54067Q10.4242 -1.2857 10.4494 -1.02918Q10.4747 -0.77266 10.4874 -0.515211Q10.5 -0.25776 10.5 0"/>
	<path fill="#42E3F5" transform="matrix(1.42857 0 0 1.42857 55 47.8571)" d="M7.5 0Q7.5 0.184115 7.49097 0.368008Q7.48193 0.5519 7.46389 0.735129Q7.44584 0.918357 7.41882 1.10048Q7.39181 1.2826 7.35589 1.46318Q7.31997 1.64375 7.27523 1.82235Q7.2305 2.00095 7.17705 2.17713Q7.12361 2.35332 7.06158 2.52667Q6.99955 2.70003 6.9291 2.87013Q6.85864 3.04023 6.77992 3.20666Q6.7012 3.3731 6.61441 3.53548Q6.52762 3.69785 6.43296 3.85577Q6.33831 4.01369 6.23602 4.16678Q6.13373 4.31986 6.02406 4.46774Q5.91438 4.61563 5.79758 4.75795Q5.68078 4.90027 5.55713 5.03669Q5.43349 5.17311 5.3033 5.3033Q5.17311 5.43349 5.03669 5.55713Q4.90027 5.68078 4.75795 5.79758Q4.61563 5.91438 4.46774 6.02406Q4.31986 6.13373 4.16678 6.23602Q4.01369 6.33831 3.85577 6.43296Q3.69785 6.52762 3.53548 6.61441Q3.3731 6.7012 3.20666 6.77992Q3.04023 6.85864 2.87013 6.9291Q2.70003 6.99955 2.52667 7.06158Q2.35332 7.12361 2.17713 7.17705Q2.00095 7.2305 1.82235 7.27523Q1.64375 7.31997 1.46318 7.35589Q1.2826 7.39181 1.10048 7.41882Q0.918357 7.44584 0.735129 7.46389Q0.5519 7.48193 0.368008 7.49097Q0.184115 7.5 0 7.5Q-0.184115 7.5 -0.368008 7.49097Q-0.5519 7.48193 -0.735129 7.46389Q-0.918357 7.44584 -1.10048 7.41882Q-1.2826 7.39181 -1.46318 7.35589Q-1.64375 7.31997 -1.82235 7.27523Q-2.00095 7.2305 -2.17713 7.17705Q-2.35332 7.12361 -2.52667 7.06158Q-2.70003 6.99955 -2.87013 6.9291Q-3.04023 6.85864 -3.20666 6.77992Q-3.3731 6.7012 -3.53548 6.61441Q-3.69785 6.52762 -3.85577 6.43296Q-4.01369 6.33831 -4.16678 6.23602Q-4.31986 6.13373 -4.46774 6.02406Q-4.61563 5.91438 -4.75795 5.79758Q-4.90027 5.68078 -5.03669 5.55713Q-5.17311 5.43349 -5.3033 5.3033Q-5.43349 5.17311 -5.55713 5.03669Q-5.68078 4.90027 -5.79758 4.75795Q-5.91438 4.61563 -6.02406 4.46774Q-6.13373 4.31986 -6.23602 4.16678Q-6.33831 4.01369 -6.43296 3.85577Q-6.52762 3.69785 -6.61441 3.53548Q-6.7012 3.3731 -6.77992 3.20666Q-6.85864 3.04023 -6.9291 2.87013Q-6.99955 2.70003 -7.06158 2.52667Q-7.12361 2.35332 -7.17705 2.17713Q-7.2305 2.00095 -7.27523 1.82235Q-7.31997 1.64375 -7.35589 1.46318Q-7.39181 1.2826 -7.41882 1.10048Q-7.44584 0.918357 -7.46389 0.735129Q-7.48193 0.5519 -7.49097 0.368008Q-7.5 0.184115 -7.5 0Q-7.5 -0.184115 -7.49097 -0.368008Q-7.48193 -0.5519 -7.46389 -0.735129Q-7.44584 -0.918357 -7.41882 -1.10048Q-7.39181 -1.2826 -7.35589 -1.46318Q-7.31997 -1.64375 -7.27523 -1.82235Q-7.2305 -2.00095 -7.17705 -2.17713Q-7.12361 -2.35332 -7.06158 -2.52667Q-6.99955 -2.70003 -6.9291 -2.87013Q-6.85864 -3.04023 -6.77992 -3.20666Q-6.7012 -3.3731 -6.61441 -3.53548Q-6.52762 -3.69785 -6.43296 -3.85577Q-6.33831 -4.01369 -6.23602 -4.16678Q-6.13373 -4.31986 -6.02406 -4.46774Q-5.91438 -4.61563 -5.79758 -4.75795Q-5.68078 -4.90027 -5.55713 -5.03669Q-5.43349 -5.17311 -5.3033 -5.3033Q-5.17311 -5.43349 -5.03669 -5.55713Q-4.90027 -5.68078 -4.75795 -5.79758Q-4.61563 -5.91438 -4.46774 -6.02406Q-4.31986 -6.13373 -4.16678 -6.23602Q-4.01369 -6.33831 -3.85577 -6.43296Q-3.69785 -6.52762 -3.53548 -6.61441Q-3.3731 -6.7012 -3.20666 -6.77992Q-3.04023 -6.85864 -2.87013 -6.9291Q-2.70003 -6.99955 -2.52667 -7.06158Q-2.35332 -7.12361 -2.17713 -7.17705Q-2.00095 -7.2305 -1.82235 -7.27523Q-1.64375 -7.31997 -1.46318 -7.35589Q-1.2826 -7.39181 -1.10048 -7.41882Q-0.918357 -7.44584 -0.735129 -7.46389Q-0.5519 -7.48193 -0.368008 -7.49097Q-0.184115 -7.5 0 -7.5Q0.184115 -7.5 0.368008 -7.49097Q0.5519 -7.48193 0.735129 -7.46389Q0.918357 -7.44584 1.10048 -7.41882Q1.2826 -7.39181 1.46318 -7.35589Q1.64375 -7.31997 1.82235 -7.27523Q2.00095 -7.2305 2.17713 -7.17705Q2.35332 -7.12361 2.52667 -7.06158Q2.70003 -6.99955 2.87013 -6.9291Q3.04023 -6.85864 3.20666 -6.77992Q3.3731 -6.7012 3.53548 -6.61441Q3.69785 -6.52762 3.85577 -6.43296Q4.01369 -6.33831 4.16678 -6.23602Q4.31986 -6.13373 4.46774 -6.02406Q4.61563 -5.91438 4.75795 -5.79758Q4.90027 -5.68078 5.03669 -5.55713Q5.17311 -5.43349 5.3033 -5.3033Q5.43349 -5.17311 5.55713 -5.03669Q5.68078 -4.90027 5.79758 -4.75795Q5.91438 -4.61563 6.02406 -4.46774Q6.13373 -4.31986 6.23602 -4.16678Q6.33831 -4.01369 6.43296 -3.85577Q6.52762 -3.69785 6.61441 -3.53548Q6.7012 -3.3731 6.77992 -3.20666Q6.85864 -3.04023 6.9291 -2.87013Q6.99955 -2.70003 7.06158 -2.52667Q7.12361 -2.35332 7.17705 -2.17713Q7.2305 -2.00095 7.27523 -1.82235Q7.31997 -1.64375 7.35589 -1.46318Q7.39181 -1.2826 7.41882 -1.10048Q7.44584 -0.918357 7.46389 -0.735129Q7.48193 -0.5519 7.49097 -0.368008Q7.5 -0.184115 7.5 0"/>
	<path fill="none" stroke="black" stroke-width="2.3999999" stroke-linejoin="round" transform="translate(55 79.2857)" d="M-13.9412 0.491523Q-13.9412 1.51203 -13.6922 2.33234Q-13.4383 3.14777 -12.9696 3.73859Q-12.5008 4.32941 -11.8221 4.65168Q-11.1385 4.96906 -10.2596 4.96906Q-9.40022 4.96906 -8.71174 4.65168Q-8.01838 4.32941 -7.54963 3.73859Q-7.08088 3.14777 -6.83186 2.33234Q-6.57795 1.51203 -6.57795 0.491523Q-6.57795 -0.528985 -6.83186 -1.35906Q-7.08088 -2.18914 -7.54963 -2.77996Q-8.01838 -3.37078 -8.71174 -3.68816Q-9.40022 -4.01043 -10.2596 -4.01043Q-11.1385 -4.01043 -11.8221 -3.6784Q-12.5008 -3.35125 -12.9696 -2.76043Q-13.4383 -2.16961 -13.6922 -1.33953Q-13.9412 -0.509453 -13.9412 0.491523ZM-3.36018 0.491523Q-3.36018 2.26887 -3.8924 3.62141Q-4.41975 4.96906 -5.3426 5.88215Q-6.26057 6.79035 -7.5301 7.24934Q-8.79963 7.70832 -10.2596 7.70832Q-11.6805 7.70832 -12.9403 7.24934Q-14.2 6.79035 -15.1424 5.88215Q-16.0799 4.96906 -16.6219 3.62141Q-17.159 2.26887 -17.159 0.491523Q-17.159 -1.2907 -16.6024 -2.63836Q-16.0408 -3.9909 -15.0936 -4.90887Q-14.1414 -5.83172 -12.8914 -6.2907Q-11.6414 -6.74969 -10.2596 -6.74969Q-8.83869 -6.74969 -7.57893 -6.2907Q-6.31916 -5.83172 -5.38166 -4.90887Q-4.43928 -3.9909 -3.90217 -2.63836Q-3.36018 -1.2907 -3.36018 0.491523ZM5.37926 -0.45086Q4.97887 -0.548516 4.43688 -0.655938Q3.89977 -0.768242 3.27966 -0.768242Q3.00134 -0.768242 2.61071 -0.719414Q2.22009 -0.670586 2.01989 -0.611992L2.01989 7.43L-0.958626 7.43L-0.958626 -2.53094Q-0.157845 -2.80926 0.931023 -3.05828Q2.01989 -3.31219 3.35778 -3.31219Q3.60192 -3.31219 3.93884 -3.27801Q4.28063 -3.24871 4.61755 -3.19988Q4.95934 -3.15105 5.29626 -3.07781Q5.63805 -3.00945 5.88219 -2.9118L5.37926 -0.45086ZM14.2196 2.0882Q14.2196 -0.787774 12.1005 -0.787774Q11.6415 -0.787774 11.1874 -0.665703Q10.7382 -0.548516 10.4599 -0.367852L10.4599 5.05207Q10.6796 5.09113 11.0165 5.12043Q11.3583 5.14973 11.7587 5.14973Q12.9794 5.14973 13.5995 4.30988Q14.2196 3.47004 14.2196 2.0882ZM17.2616 2.17121Q17.2616 3.43098 16.8905 4.45148Q16.5194 5.47199 15.8163 6.19465Q15.1181 6.91242 14.0976 7.30305Q13.0819 7.68879 11.7782 7.68879Q11.2411 7.68879 10.6503 7.63996Q10.0595 7.59113 9.4882 7.50812Q8.92179 7.43 8.39933 7.32258Q7.88175 7.21027 7.48136 7.0882L7.48136 -7.60906L10.4599 -8.08758L10.4599 -2.84832Q10.9579 -3.06805 11.4999 -3.19012Q12.0419 -3.31219 12.662 -3.31219Q13.7802 -3.31219 14.6396 -2.92156Q15.4989 -2.53094 16.08 -1.80828Q16.661 -1.09051 16.9589 -0.0797658Q17.2616 0.930976 17.2616 2.17121Z"/>
	<path fill="white" transform="translate(55 79.2857)" d="M-13.9412 0.491523Q-13.9412 1.51203 -13.6922 2.33234Q-13.4383 3.14777 -12.9696 3.73859Q-12.5008 4.32941 -11.8221 4.65168Q-11.1385 4.96906 -10.2596 4.96906Q-9.40022 4.96906 -8.71174 4.65168Q-8.01838 4.32941 -7.54963 3.73859Q-7.08088 3.14777 -6.83186 2.33234Q-6.57795 1.51203 -6.57795 0.491523Q-6.57795 -0.528985 -6.83186 -1.35906Q-7.08088 -2.18914 -7.54963 -2.77996Q-8.01838 -3.37078 -8.71174 -3.68816Q-9.40022 -4.01043 -10.2596 -4.01043Q-11.1385 -4.01043 -11.8221 -3.6784Q-12.5008 -3.35125 -12.9696 -2.76043Q-13.4383 -2.16961 -13.6922 -1.33953Q-13.9412 -0.509453 -13.9412 0.491523ZM-3.36018 0.491523Q-3.36018 2.26887 -3.8924 3.62141Q-4.41975 4.96906 -5.3426 5.88215Q-6.26057 6.79035 -7.5301 7.24934Q-8.79963 7.70832 -10.2596 7.70832Q-11.6805 7.70832 -12.9403 7.24934Q-14.2 6.79035 -15.1424 5.88215Q-16.0799 4.96906 -16.6219 3.62141Q-17.159 2.26887 -17.159 0.491523Q-17.159 -1.2907 -16.6024 -2.63836Q-16.0408 -3.9909 -15.0936 -4.90887Q-14.1414 -5.83172 -12.8914 -6.2907Q-11.6414 -6.74969 -10.2596 -6.74969Q-8.83869 -6.74969 -7.57893 -6.2907Q-6.31916 -5.83172 -5.38166 -4.90887Q-4.43928 -3.9909 -3.90217 -2.63836Q-3.36018 -1.2907 -3.36018 0.491523ZM5.37926 -0.45086Q4.97887 -0.548516 4.43688 -0.655938Q3.89977 -0.768242 3.27966 -0.768242Q3.00134 -0.768242 2.61071 -0.719414Q2.22009 -0.670586 2.01989 -0.611992L2.01989 7.43L-0.958626 7.43L-0.958626 -2.53094Q-0.157845 -2.80926 0.931023 -3.05828Q2.01989 -3.31219 3.35778 -3.31219Q3.60192 -3.31219 3.93884 -3.27801Q4.28063 -3.24871 4.61755 -3.19988Q4.95934 -3.15105 5.29626 -3.07781Q5.63805 -3.00945 5.88219 -2.9118L5.37926 -0.45086ZM14.2196 2.0882Q14.2196 -0.787774 12.1005 -0.787774Q11.6415 -0.787774 11.1874 -0.665703Q10.7382 -0.548516 10.4599 -0.367852L10.4599 5.05207Q10.6796 5.09113 11.0165 5.12043Q11.3583 5.14973 11.7587 5.14973Q12.9794 5.14973 13.5995 4.30988Q14.2196 3.47004 14.2196 2.0882ZM17.2616 2.17121Q17.2616 3.43098 16.8905 4.45148Q16.5194 5.47199 15.8163 6.19465Q15.1181 6.91242 14.0976 7.30305Q13.0819 7.68879 11.7782 7.68879Q11.2411 7.68879 10.6503 7.63996Q10.0595 7.59113 9.4882 7.50812Q8.92179 7.43 8.39933 7.32258Q7.88175 7.21027 7.48136 7.0882L7.48136 -7.60906L10.4599 -8.08758L10.4599 -2.84832Q10.9579 -3.06805 11.4999 -3.19012Q12.0419 -3.31219 12.662 -3.31219Q13.7802 -3.31219 14.6396 -2.92156Q15.4989 -2.53094 16.08 -1.80828Q16.661 -1.09051 16.9589 -0.0797658Q17.2616 0.930976 17.2616 2.17121Z"/>
</svg>
