<svg xmlns="http://www.w3.org/2000/svg" width="110" height="110"><clipPath id="a"><path d="M13.333 5h83.334Q105 5 105 13.333v83.334Q105 105 96.667 105H13.333Q5 105 5 96.667V13.333Q5 5 13.333 5"/></clipPath><g clip-path="url(#a)"><path fill="#A82121" d="M85.917 55q0 .759-.037 1.517-.038.758-.112 1.513-.075.756-.186 1.506-.111.751-.26 1.496-.147.744-.332 1.48-.184.736-.405 1.463-.22.726-.476 1.44-.255.715-.546 1.416-.29.701-.615 1.388-.324.686-.682 1.355-.358.67-.748 1.32-.39.651-.812 1.282-.421.631-.873 1.241-.453.61-.934 1.196-.481.587-.991 1.15T76.86 76.86t-1.099 1.047-1.149.991-1.196.934-1.24.873q-.632.422-1.283.812t-1.32.748-1.355.682q-.687.325-1.388.615t-1.415.546-1.441.476-1.463.405-1.48.333-1.496.26q-.75.11-1.506.185-.755.074-1.513.112-.758.037-1.517.037t-1.517-.037-1.513-.112-1.506-.186-1.496-.26-1.48-.332-1.463-.405-1.44-.476-1.416-.546-1.388-.615-1.355-.682-1.32-.748-1.282-.812-1.241-.873-1.196-.934-1.15-.991-1.098-1.047-1.047-1.099-.991-1.149-.934-1.196-.873-1.24q-.422-.632-.812-1.283t-.748-1.32-.682-1.355q-.325-.687-.615-1.388t-.546-1.415-.476-1.441-.405-1.463-.333-1.48-.26-1.496q-.11-.75-.185-1.506-.074-.755-.112-1.513-.037-.758-.037-1.517t.037-1.517.112-1.513.186-1.506.26-1.496.332-1.48.405-1.463.476-1.44.546-1.416.615-1.388.682-1.355.748-1.32.812-1.282.873-1.241.934-1.196.991-1.15 1.047-1.098 1.099-1.047 1.149-.991 1.196-.934 1.24-.873q.632-.422 1.283-.812t1.32-.748 1.355-.682q.687-.325 1.388-.615t1.415-.546 1.441-.476 1.463-.405 1.48-.333 1.496-.26q.75-.11 1.506-.185.755-.074 1.513-.112.758-.037 1.517-.037t1.517.037 1.513.112 1.506.186 1.496.26 1.48.332 1.463.405 1.44.476 1.416.546 1.388.615 1.355.682 1.32.748 1.282.812 1.241.873 1.196.934 1.15.991 1.098 1.047 1.047 1.099.991 1.149.934 1.196.873 1.24q.422.632.812 1.283t.748 1.32.682 1.355q.325.687.615 1.388t.546 1.415.476 1.441.405 1.463.333 1.48.26 1.496q.11.75.185 1.506.074.755.112 1.513.037.758.037 1.517"/><path fill="#CF2929" d="M82.417 55q0 .673-.033 1.345-.033.673-.1 1.342-.065.67-.164 1.336t-.23 1.326-.295 1.313q-.163.653-.359 1.297t-.422 1.277-.484 1.256-.546 1.23-.605 1.202-.663 1.171-.72 1.137-.775 1.1-.828 1.06-.879 1.02-.927.975-.975.927-1.02.88q-.52.426-1.06.827t-1.1.775-1.137.72-1.17.663-1.203.605-1.23.546-1.256.484-1.277.422-1.297.36-1.313.294-1.326.23-1.336.165-1.342.099-1.345.033-1.345-.033q-.673-.033-1.342-.1-.67-.065-1.336-.164t-1.326-.23-1.313-.295q-.653-.163-1.297-.359t-1.277-.422-1.256-.484-1.23-.546-1.202-.605-1.171-.663-1.137-.72-1.1-.775-1.06-.828-1.02-.879-.975-.927-.927-.975-.88-1.02q-.426-.52-.827-1.06t-.775-1.1-.72-1.137-.663-1.17-.605-1.203-.546-1.23-.484-1.256-.422-1.277-.36-1.297-.294-1.313-.23-1.326-.165-1.336-.099-1.342T27.583 55t.033-1.345q.033-.673.1-1.342.065-.67.164-1.336t.23-1.326.295-1.313q.163-.653.359-1.297t.422-1.277.484-1.256.546-1.23.605-1.202.663-1.171.72-1.137.775-1.1.828-1.06.879-1.02.927-.975.975-.927 1.02-.88q.52-.426 1.06-.827t1.1-.775 1.137-.72 1.17-.663 1.203-.605 1.23-.546 1.256-.484 1.277-.422 1.297-.36 1.313-.294 1.326-.23 1.336-.165 1.342-.099T55 27.583t1.345.033q.673.033 1.342.1.67.065 1.336.164t1.326.23 1.313.295q.653.163 1.297.359t1.277.422 1.256.484 1.23.546 1.202.605 1.171.663 1.137.72 1.1.775 1.06.828 1.02.879.975.927.927.975.88 1.02q.426.52.827 1.06t.775 1.1.72 1.137.663 1.17.605 1.203.546 1.23.484 1.256.422 1.277.36 1.297.294 1.313.23 1.326.165 1.336.099 1.342.033 1.345"/><path fill="#111" d="M52.083 49.167q0 .344-.025.686t-.076.68-.125.666-.173.646-.22.621-.265.59-.307.551-.346.51-.382.46-.414.41-.442.353-.466.294-.485.231-.5.167-.51.101-.514.034-.514-.034-.51-.1q-.253-.068-.5-.168t-.485-.231-.466-.294-.441-.353-.414-.41-.382-.46-.346-.51-.307-.551-.265-.59-.22-.62-.174-.647q-.075-.33-.125-.667t-.075-.68q-.026-.341-.026-.685t.026-.686q.025-.343.075-.68t.125-.666.174-.647.22-.621q.122-.303.265-.59.143-.285.307-.551t.346-.509.382-.461.414-.41.441-.353.466-.293.485-.232.5-.167.51-.1.514-.034.515.033.51.101.5.167.484.232q.239.131.466.293t.442.353.414.41.382.461.346.509.307.552.264.589.22.62q.1.319.174.648.075.329.125.666t.076.68.025.686"/><clipPath id="b"><path d="M52.083 49.167q0 .172-.006.343t-.019.343q-.013.17-.032.34-.018.17-.044.34-.025.168-.056.334-.031.167-.069.332-.037.164-.08.326t-.093.32q-.05.16-.105.315t-.116.306q-.06.152-.127.3-.066.147-.137.29t-.149.28q-.077.139-.158.271-.082.133-.169.26-.086.128-.177.25-.091.12-.187.236t-.195.225-.203.211-.21.198-.219.184-.224.17-.23.154-.236.139-.24.123-.245.108-.248.092-.251.075-.254.059q-.128.025-.256.042t-.257.025-.258.009-.257-.009-.257-.025q-.129-.017-.256-.042-.128-.025-.254-.059t-.251-.075-.249-.092-.244-.108-.24-.123-.236-.14q-.117-.073-.23-.154-.114-.08-.225-.17-.11-.088-.217-.183-.108-.096-.211-.198-.104-.102-.203-.211-.1-.11-.195-.225-.096-.115-.187-.237t-.178-.248q-.086-.128-.168-.26-.082-.133-.158-.271-.077-.139-.149-.281t-.138-.29-.127-.3-.116-.306-.104-.315-.093-.32-.08-.326q-.038-.165-.07-.331-.03-.167-.056-.336-.025-.168-.044-.338t-.031-.341-.02-.343q-.006-.171-.006-.343t.007-.344.019-.343q.012-.17.031-.34.02-.17.044-.339.025-.169.057-.335.031-.167.068-.331.038-.165.081-.327.044-.161.093-.32.05-.159.104-.314.055-.156.116-.307.061-.152.127-.3.067-.146.138-.29.072-.142.148-.28.077-.138.159-.271t.168-.26.178-.25q.091-.12.187-.236.095-.115.195-.224.1-.11.203-.212t.21-.198.218-.183q.11-.089.224-.17.114-.08.23-.154.117-.074.236-.14.12-.065.24-.123.122-.058.245-.108.124-.05.249-.092t.251-.075.254-.059.256-.042.257-.025.257-.008.258.008.257.025.256.042q.127.026.254.06.126.033.251.074.125.042.248.092.124.05.245.108t.24.123.236.14.23.154.224.17.218.183.21.198q.104.103.204.212t.195.224.187.237.177.249.169.26.158.27.149.282.137.29q.067.147.127.299.061.151.116.307.055.155.105.314t.092.32.081.327.069.33.056.336.044.339q.02.17.032.34.013.172.019.343t.006.344"/></clipPath><g clip-path="url(#b)"><path fill="#EEE" d="M55.55 53.094q0 .223-.034.446-.032.222-.098.441-.065.22-.163.433-.097.214-.225.42-.128.207-.287.404t-.344.383-.399.36-.45.33-.496.3-.538.266-.574.23-.606.19-.63.15q-.321.066-.65.11-.329.043-.663.065-.333.022-.669.022-.335 0-.669-.022-.333-.022-.662-.066-.329-.043-.65-.108-.32-.065-.63-.15-.31-.086-.606-.192-.296-.105-.574-.23-.28-.123-.538-.265-.26-.142-.497-.3t-.45-.33q-.212-.174-.398-.36-.187-.185-.345-.383-.158-.197-.286-.403t-.226-.42-.163-.434-.098-.441q-.033-.223-.033-.446 0-.224.033-.446.033-.223.098-.442.066-.22.163-.433.098-.214.226-.42.128-.207.286-.404t.345-.383.399-.359.45-.33q.236-.159.496-.3.259-.142.538-.267.278-.124.574-.23.296-.105.606-.19t.63-.15.65-.109.662-.066.67-.021.668.021.663.066.65.108q.32.065.63.15.31.086.606.192.295.105.574.23.279.124.538.265.26.142.496.3.237.158.45.331t.4.359q.185.186.343.383t.287.403.225.42q.098.215.163.434.066.22.098.442.033.222.033.446"/></g><path fill="none" stroke="#111" stroke-linecap="round" stroke-linejoin="round" stroke-width=".5" d="M3 0q0 .147-.014.294t-.044.291-.071.286q-.043.14-.1.277-.056.136-.125.266-.07.13-.152.253-.081.122-.175.236t-.198.218-.218.198-.236.175-.253.152q-.13.07-.266.126t-.277.099-.286.071q-.144.03-.29.044Q.146 3 0 3t-.294-.014q-.147-.015-.291-.044-.145-.028-.286-.071t-.277-.1-.266-.125-.253-.152-.236-.175q-.114-.093-.218-.198-.105-.104-.198-.218t-.175-.236-.152-.253-.126-.266-.098-.277-.071-.286-.044-.29Q-3 .146-3 0t.014-.294q.015-.147.044-.291.028-.145.071-.286t.1-.277.125-.266.152-.253.175-.236q.093-.114.198-.218.104-.105.218-.198t.236-.175.253-.152.266-.126.277-.099.286-.071q.144-.03.29-.044Q-.146-3 0-3t.294.014q.147.015.291.044.145.028.286.071t.277.1.266.125.253.152.236.175q.114.093.218.198.105.104.198.218t.175.236.152.253.126.266.099.277.071.286q.03.144.044.29Q3-.146 3 0" transform="matrix(1.75 0 0 2.33333 46.833 49.167)"/><path fill="#111" d="M68.417 49.167q0 .344-.026.686t-.075.68-.125.666-.174.646-.22.621-.265.59-.307.551-.346.51-.382.46-.414.41-.441.353-.466.294-.485.231-.5.167-.51.101-.514.034-.515-.034-.51-.1q-.252-.068-.5-.168-.246-.1-.484-.231-.239-.132-.466-.294t-.442-.353-.414-.41q-.2-.217-.382-.46t-.346-.51q-.163-.265-.307-.551-.143-.286-.264-.59-.122-.303-.22-.62-.1-.318-.174-.647-.075-.33-.125-.667t-.076-.68q-.025-.341-.025-.685t.025-.686q.025-.343.076-.68t.125-.666.173-.647.22-.621q.122-.303.265-.59.144-.285.307-.551.164-.266.346-.509.183-.243.382-.461.2-.219.414-.41t.442-.353q.227-.162.466-.293.238-.132.485-.232t.5-.167.51-.1.514-.034.514.033.51.101.5.167.485.232.466.293.441.353.414.41.382.461.346.509.307.552.265.589.22.62q.099.319.174.648t.125.666.075.68q.026.342.026.686"/><clipPath id="c"><path d="M68.417 49.167q0 .172-.007.343-.006.172-.019.343-.012.17-.031.34-.02.17-.044.34-.025.168-.057.334-.031.167-.068.332-.038.164-.081.326t-.093.32q-.05.16-.104.315-.055.155-.116.306-.061.152-.127.3-.067.147-.138.29t-.148.28q-.077.139-.159.271-.082.133-.168.26-.087.128-.178.25-.091.12-.187.236-.095.116-.195.225t-.203.211-.21.198-.218.184q-.11.088-.225.17-.113.08-.23.154-.116.073-.235.139-.12.066-.24.123-.122.058-.245.108-.124.05-.249.092t-.251.075-.254.059-.256.042-.257.025-.257.009-.258-.009-.257-.025-.256-.042-.254-.059-.251-.075-.248-.092-.245-.108q-.121-.057-.24-.123-.12-.066-.236-.14-.116-.073-.23-.154-.114-.08-.224-.17-.11-.088-.218-.183-.107-.096-.21-.198-.104-.102-.204-.211-.1-.11-.195-.225-.096-.115-.187-.237-.09-.121-.177-.248-.087-.128-.169-.26-.081-.133-.158-.271-.077-.139-.149-.281-.071-.143-.137-.29-.067-.148-.127-.3-.061-.151-.116-.306-.055-.156-.105-.315-.049-.158-.092-.32-.044-.162-.081-.326-.038-.165-.069-.331-.031-.167-.056-.336-.026-.168-.044-.338-.02-.17-.032-.341t-.019-.343q-.006-.171-.006-.343t.006-.344.019-.343q.013-.17.032-.34.018-.17.044-.339t.056-.335.069-.331q.037-.165.08-.327.044-.161.093-.32.05-.159.105-.314.055-.156.116-.307.06-.152.127-.3.066-.146.137-.29.072-.142.149-.28t.158-.271.169-.26q.086-.128.177-.25.091-.12.187-.236t.195-.224q.1-.11.203-.212t.21-.198.219-.183q.11-.089.224-.17.114-.08.23-.154.117-.074.236-.14.119-.065.24-.123t.245-.108.248-.092q.125-.041.251-.075.127-.033.254-.059.128-.025.256-.042t.257-.025.258-.008.257.008.257.025.256.042.254.06q.126.033.251.074.125.042.249.092.123.05.244.108.122.058.24.123.12.066.236.14.117.073.23.154.114.081.225.17.11.088.217.183.108.096.211.198.104.103.203.212t.195.224.187.237.178.249.168.26.159.27q.076.139.148.282t.138.29.127.299.116.307.104.314q.05.159.093.32.043.162.08.327.038.164.07.33.03.167.056.336.025.169.044.339t.031.34.02.343.006.344"/></clipPath><g clip-path="url(#c)"><path fill="#EEE" d="M71.883 53.094q0 .223-.033.446-.033.222-.098.441-.066.22-.163.433-.097.214-.226.42-.128.207-.286.404t-.344.383q-.187.186-.4.36-.212.172-.45.33-.236.158-.496.3-.259.142-.537.266-.28.124-.575.23-.296.105-.605.19-.31.086-.631.15-.32.066-.65.11-.329.043-.662.065-.334.022-.67.022-.335 0-.668-.022-.334-.022-.663-.066-.329-.043-.65-.108-.32-.065-.63-.15-.31-.086-.606-.192-.295-.105-.574-.23-.279-.123-.538-.265-.26-.142-.496-.3-.237-.158-.45-.33-.213-.174-.399-.36-.186-.185-.344-.383-.158-.197-.287-.403t-.225-.42q-.098-.215-.163-.434-.066-.219-.098-.441-.033-.223-.033-.446 0-.224.033-.446.032-.223.098-.442.065-.22.163-.433.097-.214.225-.42.129-.207.287-.404t.344-.383.399-.359.45-.33.496-.3.538-.267.574-.23.606-.19.63-.15.65-.109.663-.066q.333-.021.669-.021.335 0 .669.021.333.022.662.066.33.044.65.108.32.065.63.15.31.086.606.192.296.105.575.23.278.124.537.265.26.142.497.3t.45.331q.212.173.399.359.186.186.344.383t.286.403.226.42.163.434.098.442.033.446"/></g><path fill="none" stroke="#111" stroke-linecap="round" stroke-linejoin="round" stroke-width=".5" d="M3 0q0 .147-.014.294t-.044.291-.071.286q-.043.14-.1.277-.056.136-.125.266-.07.13-.152.253-.081.122-.175.236t-.198.218-.218.198-.236.175-.253.152q-.13.07-.266.126t-.277.099-.286.071q-.144.03-.29.044Q.146 3 0 3t-.294-.014q-.147-.015-.291-.044-.145-.028-.286-.071t-.277-.1-.266-.125-.253-.152-.236-.175q-.114-.093-.218-.198-.105-.104-.198-.218t-.175-.236-.152-.253-.126-.266-.098-.277-.071-.286-.044-.29Q-3 .146-3 0t.014-.294q.015-.147.044-.291.028-.145.071-.286t.1-.277.125-.266.152-.253.175-.236q.093-.114.198-.218.104-.105.218-.198t.236-.175.253-.152.266-.126.277-.099.286-.071q.144-.03.29-.044Q-.146-3 0-3t.294.014q.147.015.291.044.145.028.286.071t.277.1.266.125.253.152.236.175q.114.093.218.198.105.104.198.218t.175.236.152.253.126.266.099.277.071.286q.03.144.044.29Q3-.146 3 0" transform="matrix(1.75 0 0 2.33333 63.167 49.167)"/><path fill="none" stroke="#111" stroke-linecap="round" stroke-linejoin="round" stroke-width="1.75" d="M48 66.667q7 5.833 14 0"/></g></svg>