<?xml version="1.0" encoding="utf-8" ?>
<svg xmlns="http://www.w3.org/2000/svg" xmlns:xlink="http://www.w3.org/1999/xlink" width="110" height="110">
	<path fill="none" stroke="#FA9CFF" stroke-width="3" stroke-linecap="round" stroke-linejoin="round" stroke-opacity="0.69803923" transform="matrix(1.42857 0 0 1.42857 55 47.8571)" d="M12 0Q12 0.294583 11.9855 0.588812Q11.9711 0.883041 11.9422 1.17621Q11.9133 1.46937 11.8701 1.76077Q11.8269 2.05216 11.7694 2.34108Q11.712 2.63001 11.6404 2.91576Q11.5688 3.20152 11.4833 3.48342Q11.3978 3.76531 11.2985 4.04268Q11.1993 4.32004 11.0866 4.5922Q10.9738 4.86436 10.8479 5.13066Q10.7219 5.39696 10.5831 5.65676Q10.4442 5.91656 10.2927 6.16923Q10.1413 6.4219 9.97763 6.66684Q9.81397 6.91178 9.63849 7.14839Q9.46301 7.385 9.27612 7.61272Q9.08924 7.84044 8.89141 8.05871Q8.69358 8.27698 8.48528 8.48528Q8.27698 8.69358 8.05871 8.89141Q7.84044 9.08924 7.61272 9.27612Q7.385 9.46301 7.14839 9.63849Q6.91178 9.81397 6.66684 9.97763Q6.4219 10.1413 6.16923 10.2927Q5.91656 10.4442 5.65676 10.5831Q5.39696 10.7219 5.13066 10.8479Q4.86436 10.9738 4.5922 11.0866Q4.32004 11.1993 4.04268 11.2985Q3.76531 11.3978 3.48342 11.4833Q3.20152 11.5688 2.91576 11.6404Q2.63001 11.712 2.34108 11.7694Q2.05216 11.8269 1.76077 11.8701Q1.46937 11.9133 1.17621 11.9422Q0.883041 11.9711 0.588812 11.9855Q0.294583 12 0 12Q-0.294583 12 -0.588812 11.9855Q-0.883041 11.9711 -1.17621 11.9422Q-1.46937 11.9133 -1.76077 11.8701Q-2.05216 11.8269 -2.34108 11.7694Q-2.63001 11.712 -2.91576 11.6404Q-3.20152 11.5688 -3.48342 11.4833Q-3.76531 11.3978 -4.04268 11.2985Q-4.32004 11.1993 -4.5922 11.0866Q-4.86436 10.9738 -5.13066 10.8479Q-5.39696 10.7219 -5.65676 10.5831Q-5.91656 10.4442 -6.16923 10.2927Q-6.4219 10.1413 -6.66684 9.97763Q-6.91178 9.81397 -7.14839 9.63849Q-7.385 9.46301 -7.61272 9.27612Q-7.84044 9.08924 -8.05871 8.89141Q-8.27698 8.69358 -8.48528 8.48528Q-8.69358 8.27698 -8.89141 8.05871Q-9.08924 7.84044 -9.27612 7.61272Q-9.46301 7.385 -9.63849 7.14839Q-9.81397 6.91178 -9.97763 6.66684Q-10.1413 6.4219 -10.2927 6.16923Q-10.4442 5.91656 -10.5831 5.65676Q-10.7219 5.39696 -10.8479 5.13066Q-10.9738 4.86436 -11.0866 4.5922Q-11.1993 4.32004 -11.2985 4.04268Q-11.3978 3.76531 -11.4833 3.48342Q-11.5688 3.20152 -11.6404 2.91576Q-11.712 2.63001 -11.7694 2.34108Q-11.8269 2.05216 -11.8701 1.76077Q-11.9133 1.46937 -11.9422 1.17621Q-11.9711 0.883041 -11.9855 0.588812Q-12 0.294583 -12 0Q-12 -0.294583 -11.9855 -0.588812Q-11.9711 -0.883041 -11.9422 -1.17621Q-11.9133 -1.46937 -11.8701 -1.76077Q-11.8269 -2.05216 -11.7694 -2.34108Q-11.712 -2.63001 -11.6404 -2.91576Q-11.5688 -3.20152 -11.4833 -3.48342Q-11.3978 -3.76531 -11.2985 -4.04268Q-11.1993 -4.32004 -11.0866 -4.5922Q-10.9738 -4.86436 -10.8479 -5.13066Q-10.7219 -5.39696 -10.5831 -5.65676Q-10.4442 -5.91656 -10.2927 -6.16923Q-10.1413 -6.4219 -9.97763 -6.66684Q-9.81397 -6.91178 -9.63849 -7.14839Q-9.46301 -7.385 -9.27612 -7.61272Q-9.08924 -7.84044 -8.89141 -8.05871Q-8.69358 -8.27698 -8.48528 -8.48528Q-8.27698 -8.69358 -8.05871 -8.89141Q-7.84044 -9.08924 -7.61272 -9.27612Q-7.385 -9.46301 -7.14839 -9.63849Q-6.91178 -9.81397 -6.66684 -9.97763Q-6.4219 -10.1413 -6.16923 -10.2927Q-5.91656 -10.4442 -5.65676 -10.5831Q-5.39696 -10.7219 -5.13066 -10.8479Q-4.86436 -10.9738 -4.5922 -11.0866Q-4.32004 -11.1993 -4.04268 -11.2985Q-3.76531 -11.3978 -3.48342 -11.4833Q-3.20152 -11.5688 -2.91576 -11.6404Q-2.63001 -11.712 -2.34108 -11.7694Q-2.05216 -11.8269 -1.76077 -11.8701Q-1.46937 -11.9133 -1.17621 -11.9422Q-0.883041 -11.9711 -0.588812 -11.9855Q-0.294583 -12 0 -12Q0.294583 -12 0.588812 -11.9855Q0.883041 -11.9711 1.17621 -11.9422Q1.46937 -11.9133 1.76077 -11.8701Q2.05216 -11.8269 2.34108 -11.7694Q2.63001 -11.712 2.91576 -11.6404Q3.20152 -11.5688 3.48342 -11.4833Q3.76531 -11.3978 4.04268 -11.2985Q4.32004 -11.1993 4.5922 -11.0866Q4.86436 -10.9738 5.13066 -10.8479Q5.39696 -10.7219 5.65676 -10.5831Q5.91656 -10.4442 6.16923 -10.2927Q6.4219 -10.1413 6.66684 -9.97763Q6.91178 -9.81397 7.14839 -9.63849Q7.385 -9.46301 7.61272 -9.27612Q7.84044 -9.08924 8.05871 -8.89141Q8.27698 -8.69358 8.48528 -8.48528Q8.69358 -8.27698 8.89141 -8.05871Q9.08924 -7.84044 9.27612 -7.61272Q9.46301 -7.385 9.63849 -7.14839Q9.81397 -6.91178 9.97763 -6.66684Q10.1413 -6.4219 10.2927 -6.16923Q10.4442 -5.91656 10.5831 -5.65676Q10.7219 -5.39696 10.8479 -5.13066Q10.9738 -4.86436 11.0866 -4.5922Q11.1993 -4.32004 11.2985 -4.04268Q11.3978 -3.76531 11.4833 -3.48342Q11.5688 -3.20152 11.6404 -2.91576Q11.712 -2.63001 11.7694 -2.34108Q11.8269 -2.05216 11.8701 -1.76077Q11.9133 -1.46937 11.9422 -1.17621Q11.9711 -0.883041 11.9855 -0.588812Q12 -0.294583 12 0"/>
	<path fill="#FA9CFF" fill-opacity="0.34901962" transform="matrix(1.42857 0 0 1.42857 55 47.8571)" d="M10.5 0Q10.5 0.25776 10.4874 0.515211Q10.4747 0.77266 10.4494 1.02918Q10.4242 1.2857 10.3864 1.54067Q10.3485 1.79564 10.2982 2.04845Q10.248 2.30126 10.1853 2.55129Q10.1227 2.80133 10.0479 3.04799Q9.97305 3.29465 9.88621 3.53734Q9.79938 3.78004 9.70073 4.01818Q9.60209 4.25632 9.49189 4.48933Q9.38168 4.72234 9.26017 4.94967Q9.13866 5.17699 9.00615 5.39808Q8.87363 5.61917 8.73043 5.83349Q8.58723 6.04781 8.43368 6.25484Q8.28013 6.46188 8.11661 6.66113Q7.95309 6.86038 7.77999 7.05137Q7.60688 7.24236 7.42462 7.42462Q7.24236 7.60688 7.05137 7.77999Q6.86038 7.95309 6.66113 8.11661Q6.46188 8.28013 6.25484 8.43368Q6.04781 8.58723 5.83349 8.73043Q5.61917 8.87363 5.39808 9.00615Q5.17699 9.13867 4.94967 9.26017Q4.72234 9.38168 4.48933 9.49189Q4.25632 9.60209 4.01818 9.70074Q3.78004 9.79938 3.53734 9.88621Q3.29465 9.97305 3.04799 10.0479Q2.80133 10.1227 2.55129 10.1853Q2.30126 10.248 2.04845 10.2982Q1.79564 10.3485 1.54067 10.3864Q1.2857 10.4242 1.02918 10.4494Q0.77266 10.4747 0.515211 10.4874Q0.25776 10.5 0 10.5Q-0.25776 10.5 -0.515211 10.4874Q-0.77266 10.4747 -1.02918 10.4494Q-1.2857 10.4242 -1.54067 10.3864Q-1.79564 10.3485 -2.04845 10.2982Q-2.30126 10.248 -2.55129 10.1853Q-2.80133 10.1227 -3.04799 10.0479Q-3.29465 9.97305 -3.53734 9.88621Q-3.78004 9.79938 -4.01818 9.70073Q-4.25632 9.60209 -4.48933 9.49189Q-4.72234 9.38168 -4.94967 9.26017Q-5.17699 9.13866 -5.39808 9.00615Q-5.61917 8.87363 -5.83349 8.73043Q-6.04781 8.58723 -6.25484 8.43368Q-6.46188 8.28013 -6.66113 8.11661Q-6.86038 7.95309 -7.05137 7.77999Q-7.24236 7.60688 -7.42462 7.42462Q-7.60688 7.24236 -7.77999 7.05137Q-7.95309 6.86038 -8.11661 6.66113Q-8.28013 6.46188 -8.43368 6.25484Q-8.58723 6.04781 -8.73043 5.83349Q-8.87363 5.61917 -9.00615 5.39808Q-9.13867 5.17699 -9.26017 4.94967Q-9.38168 4.72234 -9.49189 4.48933Q-9.60209 4.25632 -9.70074 4.01818Q-9.79938 3.78004 -9.88621 3.53734Q-9.97305 3.29465 -10.0479 3.04799Q-10.1227 2.80133 -10.1853 2.55129Q-10.248 2.30126 -10.2982 2.04845Q-10.3485 1.79564 -10.3864 1.54067Q-10.4242 1.2857 -10.4494 1.02918Q-10.4747 0.77266 -10.4874 0.515211Q-10.5 0.25776 -10.5 0Q-10.5 -0.25776 -10.4874 -0.515211Q-10.4747 -0.77266 -10.4494 -1.02918Q-10.4242 -1.2857 -10.3864 -1.54067Q-10.3485 -1.79564 -10.2982 -2.04845Q-10.248 -2.30126 -10.1853 -2.55129Q-10.1227 -2.80133 -10.0479 -3.04799Q-9.97305 -3.29465 -9.88621 -3.53734Q-9.79938 -3.78004 -9.70073 -4.01818Q-9.60209 -4.25632 -9.49189 -4.48933Q-9.38168 -4.72234 -9.26017 -4.94967Q-9.13866 -5.17699 -9.00615 -5.39808Q-8.87363 -5.61917 -8.73043 -5.83349Q-8.58723 -6.04781 -8.43368 -6.25484Q-8.28013 -6.46188 -8.11661 -6.66113Q-7.95309 -6.86038 -7.77999 -7.05137Q-7.60688 -7.24236 -7.42462 -7.42462Q-7.24236 -7.60688 -7.05137 -7.77999Q-6.86038 -7.95309 -6.66113 -8.11661Q-6.46188 -8.28013 -6.25484 -8.43368Q-6.04781 -8.58723 -5.83349 -8.73043Q-5.61917 -8.87363 -5.39808 -9.00615Q-5.17699 -9.13867 -4.94967 -9.26017Q-4.72234 -9.38168 -4.48933 -9.49189Q-4.25632 -9.60209 -4.01818 -9.70074Q-3.78004 -9.79938 -3.53734 -9.88621Q-3.29465 -9.97305 -3.04799 -10.0479Q-2.80133 -10.1227 -2.55129 -10.1853Q-2.30126 -10.248 -2.04845 -10.2982Q-1.79564 -10.3485 -1.54067 -10.3864Q-1.2857 -10.4242 -1.02918 -10.4494Q-0.77266 -10.4747 -0.515211 -10.4874Q-0.25776 -10.5 0 -10.5Q0.25776 -10.5 0.515211 -10.4874Q0.77266 -10.4747 1.02918 -10.4494Q1.2857 -10.4242 1.54067 -10.3864Q1.79564 -10.3485 2.04845 -10.2982Q2.30126 -10.248 2.55129 -10.1853Q2.80133 -10.1227 3.04799 -10.0479Q3.29465 -9.97305 3.53734 -9.88621Q3.78004 -9.79938 4.01818 -9.70073Q4.25632 -9.60209 4.48933 -9.49189Q4.72234 -9.38168 4.94967 -9.26017Q5.17699 -9.13866 5.39808 -9.00615Q5.61917 -8.87363 5.83349 -8.73043Q6.04781 -8.58723 6.25484 -8.43368Q6.46188 -8.28013 6.66113 -8.11661Q6.86038 -7.95309 7.05137 -7.77999Q7.24236 -7.60688 7.42462 -7.42462Q7.60688 -7.24236 7.77999 -7.05137Q7.95309 -6.86038 8.11661 -6.66113Q8.28013 -6.46188 8.43368 -6.25484Q8.58723 -6.04781 8.73043 -5.83349Q8.87363 -5.61917 9.00615 -5.39808Q9.13867 -5.17699 9.26017 -4.94967Q9.38168 -4.72234 9.49189 -4.48933Q9.60209 -4.25632 9.70074 -4.01818Q9.79938 -3.78004 9.88621 -3.53734Q9.97305 -3.29465 10.0479 -3.04799Q10.1227 -2.80133 10.1853 -2.55129Q10.248 -2.30126 10.2982 -2.04845Q10.3485 -1.79564 10.3864 -1.54067Q10.4242 -1.2857 10.4494 -1.02918Q10.4747 -0.77266 10.4874 -0.515211Q10.5 -0.25776 10.5 0"/>
	<path fill="#FA9CFF" fill-opacity="0.34901962" transform="matrix(1.42857 0 0 1.42857 55 47.8571)" d="M-2.5 -3.5Q-2.5 -3.35262 -2.51445 -3.20595Q-2.52889 -3.05928 -2.55764 -2.91473Q-2.5864 -2.77018 -2.62918 -2.62915Q-2.67196 -2.48811 -2.72836 -2.35195Q-2.78476 -2.21579 -2.85424 -2.08581Q-2.92371 -1.95583 -3.00559 -1.83329Q-3.08747 -1.71075 -3.18097 -1.59682Q-3.27447 -1.48289 -3.37868 -1.37868Q-3.48289 -1.27447 -3.59682 -1.18097Q-3.71075 -1.08747 -3.83329 -1.00559Q-3.95583 -0.923711 -4.08581 -0.854236Q-4.21579 -0.784761 -4.35195 -0.728361Q-4.48811 -0.671961 -4.62915 -0.629179Q-4.77018 -0.586397 -4.91473 -0.557644Q-5.05928 -0.528892 -5.20595 -0.514446Q-5.35262 -0.5 -5.5 -0.5Q-5.64738 -0.5 -5.79405 -0.514446Q-5.94072 -0.528892 -6.08527 -0.557644Q-6.22982 -0.586397 -6.37085 -0.629179Q-6.51189 -0.671961 -6.64805 -0.728361Q-6.78421 -0.784761 -6.91419 -0.854236Q-7.04417 -0.923711 -7.16671 -1.00559Q-7.28925 -1.08747 -7.40318 -1.18097Q-7.51711 -1.27447 -7.62132 -1.37868Q-7.72553 -1.48289 -7.81903 -1.59682Q-7.91253 -1.71075 -7.99441 -1.83329Q-8.07629 -1.95583 -8.14576 -2.08581Q-8.21524 -2.21579 -8.27164 -2.35195Q-8.32804 -2.48811 -8.37082 -2.62915Q-8.4136 -2.77018 -8.44236 -2.91473Q-8.47111 -3.05928 -8.48555 -3.20595Q-8.5 -3.35262 -8.5 -3.5Q-8.5 -3.64738 -8.48555 -3.79405Q-8.47111 -3.94072 -8.44236 -4.08527Q-8.4136 -4.22982 -8.37082 -4.37085Q-8.32804 -4.51189 -8.27164 -4.64805Q-8.21524 -4.78421 -8.14576 -4.91419Q-8.07629 -5.04417 -7.99441 -5.16671Q-7.91253 -5.28925 -7.81903 -5.40318Q-7.72553 -5.51711 -7.62132 -5.62132Q-7.51711 -5.72553 -7.40318 -5.81903Q-7.28925 -5.91253 -7.16671 -5.99441Q-7.04417 -6.07629 -6.91419 -6.14576Q-6.78421 -6.21524 -6.64805 -6.27164Q-6.51189 -6.32804 -6.37085 -6.37082Q-6.22982 -6.4136 -6.08527 -6.44236Q-5.94072 -6.47111 -5.79405 -6.48555Q-5.64738 -6.5 -5.5 -6.5Q-5.35262 -6.5 -5.20595 -6.48555Q-5.05928 -6.47111 -4.91473 -6.44236Q-4.77018 -6.4136 -4.62915 -6.37082Q-4.48811 -6.32804 -4.35195 -6.27164Q-4.21579 -6.21524 -4.08581 -6.14576Q-3.95583 -6.07629 -3.83329 -5.99441Q-3.71075 -5.91253 -3.59682 -5.81903Q-3.48289 -5.72553 -3.37868 -5.62132Q-3.27447 -5.51711 -3.18097 -5.40318Q-3.08747 -5.28925 -3.00559 -5.16671Q-2.92371 -5.04417 -2.85424 -4.91419Q-2.78476 -4.78421 -2.72836 -4.64805Q-2.67196 -4.51189 -2.62918 -4.37085Q-2.5864 -4.22982 -2.55764 -4.08527Q-2.52889 -3.94072 -2.51445 -3.79405Q-2.5 -3.64738 -2.5 -3.5"/>
	<path fill="#FA9CFF" fill-opacity="0.34901962" transform="matrix(1.42857 0 0 1.42857 55 47.8571)" d="M2 -10Q2 -9.90175 1.99037 -9.80397Q1.98074 -9.70619 1.96157 -9.60982Q1.9424 -9.51345 1.91388 -9.41943Q1.88536 -9.32541 1.84776 -9.23463Q1.81016 -9.14386 1.76384 -9.05721Q1.71753 -8.97055 1.66294 -8.88886Q1.60835 -8.80716 1.54602 -8.73121Q1.48369 -8.65526 1.41421 -8.58579Q1.34474 -8.51631 1.26879 -8.45398Q1.19284 -8.39165 1.11114 -8.33706Q1.02945 -8.28247 0.942793 -8.23616Q0.856141 -8.18984 0.765367 -8.15224Q0.674592 -8.11464 0.580569 -8.08612Q0.486546 -8.0576 0.390181 -8.03843Q0.293815 -8.01926 0.196034 -8.00963Q0.0982537 -8 0 -8Q-0.0982537 -8 -0.196034 -8.00963Q-0.293815 -8.01926 -0.390181 -8.03843Q-0.486546 -8.0576 -0.580569 -8.08612Q-0.674592 -8.11464 -0.765367 -8.15224Q-0.856141 -8.18984 -0.942793 -8.23616Q-1.02945 -8.28247 -1.11114 -8.33706Q-1.19284 -8.39165 -1.26879 -8.45398Q-1.34474 -8.51631 -1.41421 -8.58579Q-1.48369 -8.65526 -1.54602 -8.73121Q-1.60835 -8.80716 -1.66294 -8.88886Q-1.71753 -8.97055 -1.76384 -9.05721Q-1.81016 -9.14386 -1.84776 -9.23463Q-1.88536 -9.32541 -1.91388 -9.41943Q-1.9424 -9.51345 -1.96157 -9.60982Q-1.98074 -9.70619 -1.99037 -9.80397Q-2 -9.90175 -2 -10"/>
	<path fill="#FA9CFF" fill-opacity="0.34901962" transform="matrix(1.42857 0 0 1.42857 55 47.8571)" d="M4.5 -2.5Q4.5 -2.40175 4.49037 -2.30397Q4.48074 -2.20619 4.46157 -2.10982Q4.4424 -2.01345 4.41388 -1.91943Q4.38536 -1.82541 4.34776 -1.73463Q4.31016 -1.64386 4.26384 -1.55721Q4.21753 -1.47055 4.16294 -1.38886Q4.10835 -1.30716 4.04602 -1.23121Q3.98369 -1.15526 3.91421 -1.08579Q3.84474 -1.01631 3.76879 -0.953979Q3.69284 -0.891648 3.61114 -0.837061Q3.52945 -0.782474 3.44279 -0.736157Q3.35614 -0.689841 3.26537 -0.652241Q3.17459 -0.614641 3.08057 -0.586119Q2.98655 -0.557598 2.89018 -0.538429Q2.79381 -0.519261 2.69603 -0.509631Q2.59825 -0.5 2.5 -0.5Q2.40175 -0.5 2.30397 -0.509631Q2.20619 -0.519261 2.10982 -0.538429Q2.01345 -0.557598 1.91943 -0.586119Q1.82541 -0.614641 1.73463 -0.652241Q1.64386 -0.689841 1.55721 -0.736157Q1.47055 -0.782474 1.38886 -0.837061Q1.30716 -0.891648 1.23121 -0.953979Q1.15526 -1.01631 1.08579 -1.08579Q1.01631 -1.15526 0.953979 -1.23121Q0.891648 -1.30716 0.837061 -1.38886Q0.782474 -1.47055 0.736157 -1.55721Q0.689841 -1.64386 0.652241 -1.73463Q0.614641 -1.82541 0.586119 -1.91943Q0.557598 -2.01345 0.538429 -2.10982Q0.519261 -2.20619 0.509631 -2.30397Q0.5 -2.40175 0.5 -2.5Q0.5 -2.59825 0.509631 -2.69603Q0.519261 -2.79381 0.538429 -2.89018Q0.557598 -2.98655 0.586119 -3.08057Q0.614641 -3.17459 0.652241 -3.26537Q0.689841 -3.35614 0.736157 -3.44279Q0.782474 -3.52945 0.837061 -3.61114Q0.891648 -3.69284 0.953979 -3.76879Q1.01631 -3.84474 1.08579 -3.91421Q1.15526 -3.98369 1.23121 -4.04602Q1.30716 -4.10835 1.38886 -4.16294Q1.47055 -4.21753 1.55721 -4.26384Q1.64386 -4.31016 1.73463 -4.34776Q1.82541 -4.38536 1.91943 -4.41388Q2.01345 -4.4424 2.10982 -4.46157Q2.20619 -4.48074 2.30397 -4.49037Q2.40175 -4.5 2.5 -4.5Q2.59825 -4.5 2.69603 -4.49037Q2.79381 -4.48074 2.89018 -4.46157Q2.98655 -4.4424 3.08057 -4.41388Q3.17459 -4.38536 3.26537 -4.34776Q3.35614 -4.31016 3.44279 -4.26384Q3.52945 -4.21753 3.61114 -4.16294Q3.69284 -4.10835 3.76879 -4.04602Q3.84474 -3.98369 3.91421 -3.91421Q3.98369 -3.84474 4.04602 -3.76879Q4.10835 -3.69284 4.16294 -3.61114Q4.21753 -3.52945 4.26384 -3.44279Q4.31016 -3.35614 4.34776 -3.26537Q4.38536 -3.17459 4.41388 -3.08057Q4.4424 -2.98655 4.46157 -2.89018Q4.48074 -2.79381 4.49037 -2.69603Q4.5 -2.59825 4.5 -2.5"/>
	<path fill="#FA9CFF" fill-opacity="0.34901962" transform="matrix(1.42857 0 0 1.42857 55 47.8571)" d="M-6.5 3Q-6.5 3.07369 -6.50722 3.14703Q-6.51445 3.22036 -6.52882 3.29264Q-6.5432 3.36491 -6.56459 3.43543Q-6.58598 3.50594 -6.61418 3.57402Q-6.64238 3.64211 -6.67712 3.70709Q-6.71186 3.77208 -6.7528 3.83335Q-6.79374 3.89463 -6.84048 3.95159Q-6.88723 4.00855 -6.93934 4.06066Q-6.99145 4.11277 -7.04841 4.15952Q-7.10537 4.20626 -7.16664 4.2472Q-7.22792 4.28814 -7.2929 4.32288Q-7.35789 4.35762 -7.42597 4.38582Q-7.49406 4.41402 -7.56457 4.43541Q-7.63509 4.4568 -7.70736 4.47118Q-7.77964 4.48555 -7.85297 4.49278Q-7.92631 4.5 -8 4.5Q-8.07369 4.5 -8.14703 4.49278Q-8.22036 4.48555 -8.29263 4.47118Q-8.36491 4.4568 -8.43543 4.43541Q-8.50594 4.41402 -8.57402 4.38582Q-8.64211 4.35762 -8.70709 4.32288Q-8.77208 4.28814 -8.83335 4.2472Q-8.89463 4.20626 -8.95159 4.15952Q-9.00855 4.11277 -9.06066 4.06066Q-9.11277 4.00855 -9.15952 3.95159Q-9.20626 3.89463 -9.2472 3.83335Q-9.28814 3.77208 -9.32288 3.70709Q-9.35762 3.64211 -9.38582 3.57402Q-9.41402 3.50594 -9.43541 3.43543Q-9.4568 3.36491 -9.47118 3.29264Q-9.48555 3.22036 -9.49278 3.14703Q-9.5 3.07369 -9.5 3Q-9.5 2.92631 -9.49278 2.85297Q-9.48555 2.77964 -9.47118 2.70736Q-9.4568 2.63509 -9.43541 2.56457Q-9.41402 2.49406 -9.38582 2.42597Q-9.35762 2.35789 -9.32288 2.29291Q-9.28814 2.22792 -9.2472 2.16664Q-9.20626 2.10537 -9.15952 2.04841Q-9.11277 1.99145 -9.06066 1.93934Q-9.00855 1.88723 -8.95159 1.84048Q-8.89463 1.79374 -8.83335 1.7528Q-8.77208 1.71186 -8.7071 1.67712Q-8.64211 1.64238 -8.57402 1.61418Q-8.50594 1.58598 -8.43543 1.56459Q-8.36491 1.5432 -8.29263 1.52882Q-8.22036 1.51445 -8.14703 1.50722Q-8.07369 1.5 -8 1.5Q-7.92631 1.5 -7.85297 1.50722Q-7.77964 1.51445 -7.70736 1.52882Q-7.63509 1.5432 -7.56457 1.56459Q-7.49406 1.58598 -7.42597 1.61418Q-7.35789 1.64238 -7.2929 1.67712Q-7.22792 1.71186 -7.16664 1.7528Q-7.10537 1.79374 -7.04841 1.84048Q-6.99145 1.88723 -6.93934 1.93934Q-6.88723 1.99145 -6.84048 2.04841Q-6.79374 2.10537 -6.7528 2.16664Q-6.71186 2.22792 -6.67712 2.2929Q-6.64238 2.35789 -6.61418 2.42597Q-6.58598 2.49406 -6.56459 2.56457Q-6.5432 2.63509 -6.52882 2.70736Q-6.51445 2.77964 -6.50722 2.85297Q-6.5 2.92631 -6.5 3"/>
	<path fill="#FA9CFF" fill-opacity="0.34901962" transform="matrix(1.42857 0 0 1.42857 55 47.8571)" d="M6 6Q6 6.19651 5.98074 6.39207Q5.96148 6.58763 5.92314 6.78036Q5.8848 6.97309 5.82776 7.16114Q5.77072 7.34918 5.69552 7.53073Q5.62032 7.71228 5.52768 7.88559Q5.43505 8.05889 5.32588 8.22228Q5.2167 8.38567 5.09204 8.53757Q4.96738 8.68948 4.82843 8.82843Q4.68948 8.96738 4.53757 9.09204Q4.38567 9.21671 4.22228 9.32588Q4.05889 9.43505 3.88559 9.52769Q3.71228 9.62032 3.53073 9.69552Q3.34918 9.77072 3.16114 9.82776Q2.97309 9.8848 2.78036 9.92314Q2.58763 9.96148 2.39207 9.98074Q2.19651 10 2 10Q1.80349 10 1.60793 9.98074Q1.41237 9.96148 1.21964 9.92314Q1.02691 9.8848 0.838861 9.82776Q0.650815 9.77072 0.469266 9.69552Q0.287717 9.62032 0.114413 9.52769Q-0.058891 9.43505 -0.222281 9.32588Q-0.385671 9.21671 -0.537573 9.09204Q-0.689475 8.96738 -0.828427 8.82843Q-0.967379 8.68948 -1.09204 8.53757Q-1.2167 8.38567 -1.32588 8.22228Q-1.43505 8.05889 -1.52769 7.88559Q-1.62032 7.71228 -1.69552 7.53073Q-1.77072 7.34918 -1.82776 7.16114Q-1.8848 6.97309 -1.92314 6.78036Q-1.96148 6.58763 -1.98074 6.39207Q-2 6.19651 -2 6Q-2 5.80349 -1.98074 5.60793Q-1.96148 5.41237 -1.92314 5.21964Q-1.8848 5.02691 -1.82776 4.83886Q-1.77072 4.65082 -1.69552 4.46927Q-1.62032 4.28772 -1.52768 4.11441Q-1.43505 3.94111 -1.32588 3.77772Q-1.2167 3.61433 -1.09204 3.46243Q-0.967379 3.31052 -0.828427 3.17157Q-0.689475 3.03262 -0.537573 2.90796Q-0.385671 2.7833 -0.222281 2.67412Q-0.0588909 2.56495 0.114413 2.47231Q0.287717 2.37968 0.469266 2.30448Q0.650815 2.22928 0.838861 2.17224Q1.02691 2.1152 1.21964 2.07686Q1.41237 2.03852 1.60793 2.01926Q1.80349 2 2 2Q2.19651 2 2.39207 2.01926Q2.58763 2.03852 2.78036 2.07686Q2.97309 2.1152 3.16114 2.17224Q3.34918 2.22928 3.53073 2.30448Q3.71228 2.37968 3.88559 2.47231Q4.05889 2.56495 4.22228 2.67412Q4.38567 2.7833 4.53757 2.90796Q4.68948 3.03262 4.82843 3.17157Q4.96738 3.31052 5.09204 3.46243Q5.2167 3.61433 5.32588 3.77772Q5.43505 3.94111 5.52769 4.11441Q5.62032 4.28772 5.69552 4.46927Q5.77072 4.65082 5.82776 4.83886Q5.8848 5.02691 5.92314 5.21964Q5.96148 5.41237 5.98074 5.60793Q6 5.80349 6 6"/>
	<path fill="none" stroke="black" stroke-width="2.3999999" stroke-linejoin="round" transform="translate(55 79.2857)" d="M-13.7403 2.7718Q-13.7403 3.7923 -13.9698 4.69074Q-14.1993 5.58918 -14.7706 6.26301Q-15.3419 6.93195 -16.3135 7.32258Q-17.2803 7.70832 -18.7598 7.70832Q-20.1221 7.70832 -21.1036 7.38117Q-22.0801 7.04914 -22.7198 6.60969L-21.6797 4.18781Q-21.0987 4.52961 -20.4395 4.79328Q-19.7803 5.05207 -18.9991 5.05207Q-17.8614 5.05207 -17.3633 4.49055Q-16.8604 3.92902 -16.8604 2.61066L-16.8604 -6.4323L-13.7403 -6.4323L-13.7403 2.7718ZM-11.4416 2.24934Q-11.4416 0.847969 -11.0119 -0.201836Q-10.5822 -1.25164 -9.88393 -1.94988Q-9.18081 -2.64813 -8.27261 -3.00945Q-7.35952 -3.37078 -6.39761 -3.37078Q-4.16128 -3.37078 -2.86245 -1.99871Q-1.55874 -0.631524 -1.55874 2.02961Q-1.55874 2.2884 -1.57827 2.6009Q-1.5978 2.90852 -1.62222 3.14777L-8.38003 3.14777Q-8.28237 4.07062 -7.52065 4.61262Q-6.75893 5.14973 -5.47964 5.14973Q-4.65932 5.14973 -3.87319 5.00324Q-3.08218 4.85187 -2.57925 4.63215L-2.17886 7.04914Q-2.41811 7.17121 -2.8185 7.29328Q-3.21889 7.41047 -3.71206 7.49836Q-4.20034 7.59113 -4.76186 7.64973Q-5.3185 7.70832 -5.88003 7.70832Q-7.30093 7.70832 -8.35073 7.2884Q-9.40054 6.86848 -10.0939 6.14094Q-10.7824 5.40852 -11.1144 4.41242Q-11.4416 3.41145 -11.4416 2.24934ZM-4.4396 1.11164Q-4.45913 0.730781 -4.57143 0.369453Q-4.67886 0.00812483 -4.90835 -0.270195Q-5.13784 -0.548516 -5.4894 -0.72918Q-5.84097 -0.909844 -6.35854 -0.909844Q-6.86147 -0.909844 -7.2228 -0.738945Q-7.57925 -0.568047 -7.8185 -0.289727Q-8.05776 -0.0114064 -8.1896 0.359687Q-8.32143 0.730781 -8.38003 1.11164L-4.4396 1.11164ZM4.94059 7.6302Q3.64176 7.61066 2.83121 7.35187Q2.02067 7.0882 1.54704 6.61945Q1.07829 6.1507 0.907387 5.48176Q0.741371 4.80793 0.741371 3.96809L0.741371 -7.60906L3.71989 -8.08758L3.71989 3.37238Q3.71989 3.76789 3.77848 4.09016Q3.84196 4.41242 4.00797 4.63215Q4.17887 4.85187 4.49625 4.99348Q4.81852 5.1302 5.36051 5.16926L4.94059 7.6302ZM11.2606 7.6302Q9.96175 7.61066 9.15121 7.35187Q8.34066 7.0882 7.86703 6.61945Q7.39828 6.1507 7.22738 5.48176Q7.06136 4.80793 7.06136 3.96809L7.06136 -7.60906L10.0399 -8.08758L10.0399 3.37238Q10.0399 3.76789 10.0985 4.09016Q10.1619 4.41242 10.328 4.63215Q10.4989 4.85187 10.8162 4.99348Q11.1385 5.1302 11.6805 5.16926L11.2606 7.6302ZM22.7222 -3.08758Q21.8189 -0.0504689 20.8374 2.61066Q19.8608 5.2718 18.6987 7.7718Q18.2788 8.67023 17.8589 9.30012Q17.439 9.93 16.936 10.3402Q16.438 10.7503 15.8081 10.9407Q15.1782 11.1312 14.3384 11.1312Q13.6401 11.1312 13.0493 10.9993Q12.4585 10.8724 12.0776 10.7113L12.6001 8.32844Q13.0591 8.48957 13.4204 8.54816Q13.7817 8.61164 14.1821 8.61164Q14.978 8.61164 15.4077 8.18195Q15.8423 7.75227 16.1401 6.99055Q15.1196 4.98859 14.0991 2.49836Q13.0786 0.00812483 12.1802 -3.08758L15.3394 -3.08758Q15.5396 -2.31121 15.8081 -1.39813Q16.0816 -0.489922 16.3794 0.442695Q16.6821 1.37043 16.9898 2.24934Q17.3023 3.12824 17.5806 3.8509Q17.8394 3.12824 18.1177 2.24934Q18.4009 1.37043 18.6694 0.442695Q18.938 -0.489922 19.187 -1.39813Q19.4409 -2.31121 19.6411 -3.08758L22.7222 -3.08758Z"/>
	<path fill="white" transform="translate(55 79.2857)" d="M-13.7403 2.7718Q-13.7403 3.7923 -13.9698 4.69074Q-14.1993 5.58918 -14.7706 6.26301Q-15.3419 6.93195 -16.3135 7.32258Q-17.2803 7.70832 -18.7598 7.70832Q-20.1221 7.70832 -21.1036 7.38117Q-22.0801 7.04914 -22.7198 6.60969L-21.6797 4.18781Q-21.0987 4.52961 -20.4395 4.79328Q-19.7803 5.05207 -18.9991 5.05207Q-17.8614 5.05207 -17.3633 4.49055Q-16.8604 3.92902 -16.8604 2.61066L-16.8604 -6.4323L-13.7403 -6.4323L-13.7403 2.7718ZM-11.4416 2.24934Q-11.4416 0.847969 -11.0119 -0.201836Q-10.5822 -1.25164 -9.88393 -1.94988Q-9.18081 -2.64813 -8.27261 -3.00945Q-7.35952 -3.37078 -6.39761 -3.37078Q-4.16128 -3.37078 -2.86245 -1.99871Q-1.55874 -0.631524 -1.55874 2.02961Q-1.55874 2.2884 -1.57827 2.6009Q-1.5978 2.90852 -1.62222 3.14777L-8.38003 3.14777Q-8.28237 4.07062 -7.52065 4.61262Q-6.75893 5.14973 -5.47964 5.14973Q-4.65932 5.14973 -3.87319 5.00324Q-3.08218 4.85187 -2.57925 4.63215L-2.17886 7.04914Q-2.41811 7.17121 -2.8185 7.29328Q-3.21889 7.41047 -3.71206 7.49836Q-4.20034 7.59113 -4.76186 7.64973Q-5.3185 7.70832 -5.88003 7.70832Q-7.30093 7.70832 -8.35073 7.2884Q-9.40054 6.86848 -10.0939 6.14094Q-10.7824 5.40852 -11.1144 4.41242Q-11.4416 3.41145 -11.4416 2.24934ZM-4.4396 1.11164Q-4.45913 0.730781 -4.57143 0.369453Q-4.67886 0.00812483 -4.90835 -0.270195Q-5.13784 -0.548516 -5.4894 -0.72918Q-5.84097 -0.909844 -6.35854 -0.909844Q-6.86147 -0.909844 -7.2228 -0.738945Q-7.57925 -0.568047 -7.8185 -0.289727Q-8.05776 -0.0114064 -8.1896 0.359687Q-8.32143 0.730781 -8.38003 1.11164L-4.4396 1.11164ZM4.94059 7.6302Q3.64176 7.61066 2.83121 7.35187Q2.02067 7.0882 1.54704 6.61945Q1.07829 6.1507 0.907387 5.48176Q0.741371 4.80793 0.741371 3.96809L0.741371 -7.60906L3.71989 -8.08758L3.71989 3.37238Q3.71989 3.76789 3.77848 4.09016Q3.84196 4.41242 4.00797 4.63215Q4.17887 4.85187 4.49625 4.99348Q4.81852 5.1302 5.36051 5.16926L4.94059 7.6302ZM11.2606 7.6302Q9.96175 7.61066 9.15121 7.35187Q8.34066 7.0882 7.86703 6.61945Q7.39828 6.1507 7.22738 5.48176Q7.06136 4.80793 7.06136 3.96809L7.06136 -7.60906L10.0399 -8.08758L10.0399 3.37238Q10.0399 3.76789 10.0985 4.09016Q10.1619 4.41242 10.328 4.63215Q10.4989 4.85187 10.8162 4.99348Q11.1385 5.1302 11.6805 5.16926L11.2606 7.6302ZM22.7222 -3.08758Q21.8189 -0.0504689 20.8374 2.61066Q19.8608 5.2718 18.6987 7.7718Q18.2788 8.67023 17.8589 9.30012Q17.439 9.93 16.936 10.3402Q16.438 10.7503 15.8081 10.9407Q15.1782 11.1312 14.3384 11.1312Q13.6401 11.1312 13.0493 10.9993Q12.4585 10.8724 12.0776 10.7113L12.6001 8.32844Q13.0591 8.48957 13.4204 8.54816Q13.7817 8.61164 14.1821 8.61164Q14.978 8.61164 15.4077 8.18195Q15.8423 7.75227 16.1401 6.99055Q15.1196 4.98859 14.0991 2.49836Q13.0786 0.00812483 12.1802 -3.08758L15.3394 -3.08758Q15.5396 -2.31121 15.8081 -1.39813Q16.0816 -0.489922 16.3794 0.442695Q16.6821 1.37043 16.9898 2.24934Q17.3023 3.12824 17.5806 3.8509Q17.8394 3.12824 18.1177 2.24934Q18.4009 1.37043 18.6694 0.442695Q18.938 -0.489922 19.187 -1.39813Q19.4409 -2.31121 19.6411 -3.08758L22.7222 -3.08758Z"/>
</svg>
