<svg xmlns="http://www.w3.org/2000/svg" width="110" height="110"><path fill="#111" fill-rule="evenodd" d="M47.66 65.542q.042.127.103.246.062.12.142.228t.174.202q.096.094.204.173.11.078.229.139.12.06.247.101.128.042.26.062.133.021.267.021.084 0 .168-.008t.166-.025.163-.04.159-.057.152-.072.144-.087.135-.1.125-.113.113-.124.1-.136.087-.144.071-.152q.033-.078.057-.158.025-.081.041-.164.016-.082.025-.166Q51 65.084 51 65q0-17.731-16.361-38.767-.09-.116-.2-.215-.109-.1-.233-.179-.125-.08-.261-.136t-.28-.09q-.144-.032-.291-.04-.148-.007-.294.01-.147.018-.288.06-.141.043-.273.11-.075.037-.147.082-.07.045-.137.096t-.128.11q-.061.058-.116.121-.056.064-.104.133-.049.068-.09.142-.042.073-.077.15t-.06.157-.046.162-.03.165-.012.168.004.168.02.167.036.164.053.16.067.154q10.232 20.463 15.907 37.49"/><path fill="#cf0000" d="M33.286 23.857q-.169 0-.336.016-.168.017-.333.05t-.327.082q-.16.049-.316.113-.156.065-.305.144-.148.08-.288.173t-.27.2-.25.226q-.119.12-.226.25-.106.13-.2.27t-.173.288q-.08.149-.144.305-.064.155-.113.316-.05.162-.082.327-.033.165-.05.333-.016.167-.016.336 0 .168.017.336.016.167.049.333.033.165.082.326t.113.317.144.304.173.288.2.27.226.25q.12.12.25.226t.27.2q.14.094.288.173.149.08.305.144.155.065.316.114.162.048.327.081t.333.05q.167.016.336.016.168 0 .336-.016.167-.017.333-.05.165-.033.326-.081.161-.05.317-.114.155-.064.304-.144.148-.079.288-.173t.27-.2.25-.226.226-.25.2-.27.173-.288q.08-.149.144-.304.065-.156.114-.317.048-.161.081-.326.033-.166.05-.333.016-.168.016-.336 0-.169-.016-.336-.017-.168-.05-.333t-.081-.327q-.05-.16-.114-.316t-.144-.305q-.079-.148-.173-.288t-.2-.27-.226-.25-.25-.226-.27-.2-.288-.173q-.149-.08-.304-.144-.156-.064-.317-.113-.161-.05-.326-.082-.166-.033-.333-.05-.168-.016-.336-.016"/><path fill="red" d="M33.286 25q-.113 0-.224.01-.112.012-.222.034t-.218.054-.211.076q-.104.043-.203.096t-.192.115-.18.134-.167.15-.15.167-.134.18-.115.192q-.053.1-.096.203t-.076.211-.054.218-.033.222q-.011.111-.011.224 0 .112.01.224.012.111.034.222.022.11.054.217.033.108.076.211.043.104.096.203t.115.192.134.18.15.167.167.15.18.134.192.115q.1.053.203.096t.211.076.218.054.222.033q.111.011.224.011.112 0 .224-.01.111-.012.222-.034.11-.021.217-.054.108-.033.211-.076.104-.043.203-.096t.192-.115.18-.134q.087-.07.167-.15t.15-.166q.072-.087.134-.18.063-.094.115-.193t.096-.203q.043-.103.076-.21.033-.108.054-.218.022-.11.033-.222t.011-.224-.01-.224-.034-.222-.054-.218-.076-.211-.096-.203q-.052-.099-.115-.192-.062-.094-.133-.18-.072-.087-.151-.167-.08-.079-.166-.15-.087-.072-.18-.134-.094-.062-.193-.115t-.203-.096q-.103-.043-.21-.076-.108-.032-.218-.054t-.222-.033-.224-.011"/><path fill="#111" fill-rule="evenodd" d="M62.34 65.542q-.042.127-.103.246-.062.12-.142.228t-.174.202q-.096.094-.204.173-.11.078-.229.139-.12.06-.247.101-.128.042-.26.062-.133.021-.267.021-.084 0-.168-.008t-.166-.025-.163-.04-.159-.057-.152-.072-.144-.087-.135-.1-.125-.113-.113-.124-.1-.136-.087-.144-.071-.152q-.033-.078-.057-.158-.025-.081-.041-.164-.016-.082-.025-.166Q59 65.084 59 65q0-17.731 16.361-38.767.09-.116.2-.215.109-.1.233-.179.125-.08.261-.136t.28-.09q.144-.032.291-.04.148-.007.294.01.147.018.288.06.141.043.273.11.075.037.147.082.07.045.137.096t.128.11q.061.058.116.121.056.064.104.133.049.068.09.142.042.073.077.15t.06.157.046.162.03.165.012.168-.004.168-.02.167-.036.164-.053.16-.067.154Q68.016 48.515 62.34 65.542"/><path fill="#cf0000" d="M76.714 23.857q.169 0 .336.016.168.017.333.05t.327.082q.16.049.316.113.156.065.305.144.148.08.288.173t.27.2.25.226q.119.12.226.25.106.13.2.27t.173.288q.08.149.144.305.064.155.113.316.05.162.082.327.033.165.05.333.016.167.016.336 0 .168-.017.336-.016.167-.049.333-.033.165-.082.326t-.113.317-.144.304-.173.288-.2.27-.226.25q-.12.12-.25.226t-.27.2q-.14.094-.288.173-.149.08-.305.144-.155.065-.316.114-.162.048-.327.081t-.333.05q-.167.016-.336.016-.168 0-.336-.016-.167-.017-.333-.05-.165-.033-.326-.081-.161-.05-.317-.114-.155-.064-.304-.144-.148-.079-.288-.173t-.27-.2-.25-.226-.226-.25-.2-.27-.173-.288q-.08-.149-.144-.304-.065-.156-.114-.317-.048-.161-.081-.326-.033-.166-.05-.333-.016-.168-.016-.336 0-.169.016-.336.017-.168.05-.333t.081-.327q.05-.16.114-.316t.144-.305q.079-.148.173-.288t.2-.27.226-.25.25-.226.27-.2.288-.173q.149-.08.304-.144.156-.064.317-.113.161-.05.326-.082.166-.033.333-.05.168-.016.336-.016"/><path fill="red" d="M76.714 25q.113 0 .224.01.112.012.222.034t.218.054.211.076q.104.043.203.096t.192.115.18.134.167.15.15.167.134.18.115.192q.053.1.096.203t.076.211.054.218.033.222q.011.111.011.224 0 .112-.01.224-.012.111-.034.222-.022.11-.054.217-.033.108-.076.211-.043.104-.096.203t-.115.192-.134.18-.15.167-.167.15-.18.134-.192.115q-.1.053-.203.096t-.211.076-.218.054-.222.033q-.111.011-.224.011-.112 0-.224-.01-.111-.012-.222-.034-.11-.021-.217-.054-.108-.033-.211-.076-.104-.043-.203-.096t-.192-.115-.18-.134q-.087-.07-.167-.15t-.15-.166q-.072-.087-.134-.18-.063-.094-.115-.193t-.096-.203q-.043-.103-.076-.21-.033-.108-.054-.218-.022-.11-.033-.222t-.011-.224.01-.224.034-.222.054-.218.076-.211.096-.203q.052-.099.115-.192.062-.094.133-.18.072-.087.151-.167.08-.079.166-.15.087-.072.18-.134.094-.062.193-.115t.203-.096q.103-.043.21-.076.108-.032.218-.054t.222-.033.224-.011"/><path fill="none" stroke="#000" stroke-linejoin="round" stroke-width="1.886" d="M27.014 85.124q-.172-.564-.383-1.163-.212-.598-.419-1.193H21.97q-.203.595-.414 1.193t-.384 1.163h-2.547q.614-1.761 1.162-3.254.549-1.492 1.075-2.812.529-1.32 1.04-2.505.51-1.19 1.058-2.321h2.344q.533 1.132 1.051 2.32.518 1.186 1.044 2.506.53 1.32 1.078 2.812.552 1.493 1.162 3.254zm-2.939-8.422q-.076.234-.234.645l-.364.944-.449 1.178q-.242.64-.491 1.35h3.096q-.253-.71-.491-1.35-.234-.645-.445-1.178-.211-.537-.368-.944-.158-.41-.254-.645Zm6.815.438q.594-.173 1.538-.322t1.98-.15q1.055 0 1.753.276t1.105.779q.41.503.583 1.193t.173 1.539v4.669h-2.34v-4.386q0-1.131-.3-1.6-.3-.471-1.116-.471-.25 0-.534.023t-.502.053v6.38h-2.34zm9.168-2.34 2.344-.376v2.436h2.812v1.945h-2.812v2.908q0 .74.257 1.182.261.437 1.048.437.376 0 .775-.07.403-.072.732-.199l.33 1.827q-.425.172-.943.295-.518.127-1.274.127-.96 0-1.588-.257-.626-.261-1.006-.726-.376-.464-.525-1.124t-.15-1.461zm6.658 6.253q0-1.101.337-1.926.338-.825.887-1.373.552-.549 1.266-.833.717-.284 1.473-.284 1.757 0 2.778 1.078 1.024 1.075 1.024 3.165 0 .204-.015.45-.016.241-.035.429h-5.31q.077.725.676 1.15.598.423 1.603.423.645 0 1.262-.115.622-.12 1.017-.292l.315 1.9q-.188.095-.503.191-.315.092-.702.161-.384.073-.825.12-.437.045-.878.045-1.117 0-1.942-.33t-1.37-.901q-.54-.576-.801-1.358-.257-.787-.257-1.7Zm5.501-.894q-.015-.3-.103-.583-.085-.284-.265-.503-.18-.218-.456-.36-.277-.142-.683-.142-.396 0-.68.134-.28.134-.467.353-.188.219-.292.51t-.15.591zm4.065-3.02q.594-.172 1.538-.321t1.98-.15q1.055 0 1.753.276t1.105.779q.41.503.583 1.193t.173 1.539v4.669h-2.34v-4.386q0-1.131-.3-1.6-.3-.471-1.116-.471-.25 0-.533.023t-.503.053v6.38h-2.34zm9.249 0q.594-.172 1.538-.321t1.98-.15q1.055 0 1.753.276t1.105.779q.41.503.583 1.193t.173 1.539v4.669h-2.34v-4.386q0-1.131-.3-1.6-.299-.471-1.116-.471-.25 0-.533.023t-.503.053v6.38h-2.34zm12.406 6.35q.346 0 .66-.015t.503-.046v-1.776q-.142-.031-.426-.062-.28-.034-.518-.034-.33 0-.621.042-.288.038-.51.15-.22.107-.346.295-.123.188-.123.472 0 .548.369.763.368.211 1.013.211Zm-.187-6.852q1.035 0 1.726.238.694.234 1.109.675.418.438.59 1.067.173.629.173 1.4v4.873q-.502.107-1.4.257-.894.15-2.168.15-.802 0-1.454-.143-.652-.142-1.124-.464t-.725-.84q-.25-.518-.25-1.274 0-.721.292-1.224.292-.502.779-.802.487-.299 1.116-.43.63-.134 1.305-.134.453 0 .806.039.356.038.575.1v-.22q0-.598-.36-.958-.361-.36-1.26-.36-.594 0-1.177.087-.583.085-1.005.242l-.3-1.884q.204-.065.511-.134.307-.073.668-.126.36-.054.76-.093.402-.042.813-.042Zm5.319 4.416q0-1.101.337-1.926.338-.825.887-1.373.552-.549 1.266-.833.717-.284 1.473-.284 1.757 0 2.778 1.078 1.024 1.075 1.024 3.165 0 .204-.016.45-.015.241-.034.429h-5.31q.077.725.675 1.15.599.423 1.604.423.645 0 1.262-.115.622-.12 1.017-.292l.315 1.9q-.188.095-.503.191-.315.092-.702.161-.384.073-.825.12-.437.045-.878.045-1.117 0-1.942-.33t-1.37-.901q-.54-.576-.801-1.358-.257-.787-.257-1.7Zm5.501-.894q-.015-.3-.103-.583-.085-.284-.265-.503-.18-.218-.457-.36-.276-.142-.683-.142-.395 0-.678.134-.28.134-.469.353t-.291.51-.15.591z"/><path fill="#fff" d="M27.014 85.124q-.172-.564-.383-1.163-.212-.598-.419-1.193H21.97q-.203.595-.414 1.193t-.384 1.163h-2.547q.614-1.761 1.162-3.254.549-1.492 1.075-2.812.529-1.32 1.04-2.505.51-1.19 1.058-2.321h2.344q.533 1.132 1.051 2.32.518 1.186 1.044 2.506.53 1.32 1.078 2.812.552 1.493 1.162 3.254zm-2.939-8.422q-.076.234-.234.645l-.364.944-.449 1.178q-.242.64-.491 1.35h3.096q-.253-.71-.491-1.35-.234-.645-.445-1.178-.211-.537-.368-.944-.158-.41-.254-.645m6.815.438q.594-.173 1.538-.322t1.98-.15q1.055 0 1.753.276t1.105.779q.41.503.583 1.193t.173 1.539v4.669h-2.34v-4.386q0-1.131-.3-1.6-.3-.471-1.116-.471-.25 0-.534.023t-.502.053v6.38h-2.34zm9.168-2.34 2.344-.376v2.436h2.812v1.945h-2.812v2.908q0 .74.257 1.182.261.437 1.048.437.376 0 .775-.07.403-.072.732-.199l.33 1.827q-.425.172-.943.295-.518.127-1.274.127-.96 0-1.588-.257-.626-.261-1.006-.726-.376-.464-.525-1.124t-.15-1.461zm6.658 6.253q0-1.101.337-1.926.338-.825.887-1.373.552-.549 1.266-.833.717-.284 1.473-.284 1.757 0 2.778 1.078 1.024 1.075 1.024 3.165 0 .204-.015.45-.016.241-.035.429h-5.31q.077.725.676 1.15.598.423 1.603.423.645 0 1.262-.115.622-.12 1.017-.292l.315 1.9q-.188.095-.503.191-.315.092-.702.161-.384.073-.825.12-.437.045-.878.045-1.117 0-1.942-.33t-1.37-.901q-.54-.576-.801-1.358-.257-.787-.257-1.7m5.501-.894q-.015-.3-.103-.583-.085-.284-.265-.503-.18-.218-.456-.36-.277-.142-.683-.142-.396 0-.68.134-.28.134-.467.353-.188.219-.292.51t-.15.591zm4.065-3.02q.594-.172 1.538-.321t1.98-.15q1.055 0 1.753.276t1.105.779q.41.503.583 1.193t.173 1.539v4.669h-2.34v-4.386q0-1.131-.3-1.6-.3-.471-1.116-.471-.25 0-.533.023t-.503.053v6.38h-2.34zm9.249 0q.594-.172 1.538-.321t1.98-.15q1.055 0 1.753.276t1.105.779q.41.503.583 1.193t.173 1.539v4.669h-2.34v-4.386q0-1.131-.3-1.6-.299-.471-1.116-.471-.25 0-.533.023t-.503.053v6.38h-2.34zm12.406 6.35q.346 0 .66-.015t.503-.046v-1.776q-.142-.031-.426-.062-.28-.034-.518-.034-.33 0-.621.042-.288.038-.51.15-.22.107-.346.295-.123.188-.123.472 0 .548.369.763.368.211 1.013.211m-.187-6.852q1.035 0 1.726.238.694.234 1.109.675.418.438.59 1.067.173.629.173 1.4v4.873q-.502.107-1.4.257-.894.15-2.168.15-.802 0-1.454-.143-.652-.142-1.124-.464t-.725-.84q-.25-.518-.25-1.274 0-.721.292-1.224.292-.502.779-.802.487-.299 1.116-.43.63-.134 1.305-.134.453 0 .806.039.356.038.575.1v-.22q0-.598-.36-.958-.361-.36-1.26-.36-.594 0-1.177.087-.583.085-1.005.242l-.3-1.884q.204-.065.511-.134.307-.073.668-.126.36-.054.76-.093.402-.042.813-.042m5.319 4.416q0-1.101.337-1.926.338-.825.887-1.373.552-.549 1.266-.833.717-.284 1.473-.284 1.757 0 2.778 1.078 1.024 1.075 1.024 3.165 0 .204-.016.45-.015.241-.034.429h-5.31q.077.725.675 1.15.599.423 1.604.423.645 0 1.262-.115.622-.12 1.017-.292l.315 1.9q-.188.095-.503.191-.315.092-.702.161-.384.073-.825.12-.437.045-.878.045-1.117 0-1.942-.33t-1.37-.901q-.54-.576-.801-1.358-.257-.787-.257-1.7m5.501-.894q-.015-.3-.103-.583-.085-.284-.265-.503-.18-.218-.457-.36-.276-.142-.683-.142-.395 0-.678.134-.28.134-.469.353t-.291.51-.15.591z"/></svg>