<?xml version="1.0" encoding="utf-8" ?>
<svg xmlns="http://www.w3.org/2000/svg" xmlns:xlink="http://www.w3.org/1999/xlink" width="110" height="110">
	<path fill="#A9403E" transform="matrix(0.77186 -1.2021 1.2021 0.77186 43.4221 65.8887)" d="M0 -5Q60 0 0 5L0 -5Z"/>
	<path fill="#A9403E" transform="matrix(0.77186 -1.2021 1.2021 0.77186 43.4221 65.8887)" d="M0.415227 -9.98273Q15.6197 -8.71569 23.322 -7.43197Q27.459 -6.74247 29.7061 -5.99342Q35 -4.2288 35 0Q35 4.2288 29.7061 5.99342Q27.459 6.74248 23.322 7.43197Q15.6197 8.71569 0.415227 9.98273Q0.292908 9.99292 0.170236 9.9971Q0.0475644 10.0013 -0.0751648 9.99944Q-0.197894 9.99759 -0.320385 9.98972Q-0.442876 9.98186 -0.564833 9.96799Q-0.68679 9.95413 -0.807921 9.93429Q-0.929051 9.91446 -1.04906 9.88871Q-1.16907 9.86296 -1.28768 9.83134Q-1.40628 9.79973 -1.52319 9.76234Q-1.6401 9.72495 -1.75503 9.68186Q-1.86996 9.63878 -1.98264 9.59011Q-2.09532 9.54144 -2.20548 9.4873Q-2.31564 9.43316 -2.42301 9.37367Q-2.53037 9.31419 -2.63469 9.24952Q-2.73901 9.18484 -2.84003 9.11512Q-2.94105 9.0454 -3.03853 8.97081Q-3.13601 8.89622 -3.22971 8.81693Q-3.32341 8.73765 -3.41311 8.65386Q-3.50281 8.57007 -3.58828 8.48199Q-3.67376 8.3939 -3.75481 8.30172Q-3.83587 8.20955 -3.9123 8.1135Q-3.98873 8.01746 -4.06036 7.91779Q-4.13199 7.81811 -4.19864 7.71504Q-4.26529 7.61197 -4.3268 7.50575Q-4.38831 7.39953 -4.44454 7.29043Q-4.50077 7.18132 -4.55157 7.06958Q-4.60238 6.95785 -4.64764 6.84376Q-4.6929 6.72966 -4.73251 6.61349Q-4.77212 6.49731 -4.80598 6.37933Q-4.83984 6.26135 -4.86787 6.14185Q-4.8959 6.02235 -4.91804 5.90162Q-4.94017 5.78089 -4.95635 5.65922Q-4.97254 5.53755 -4.98273 5.41523Q-5 5.20797 -5 5L-5 -5Q-5 -5.12274 -4.99398 -5.24534Q-4.98796 -5.36793 -4.97592 -5.49009Q-4.96389 -5.61224 -4.94588 -5.73365Q-4.92787 -5.85507 -4.90393 -5.97545Q-4.87998 -6.09584 -4.85016 -6.2149Q-4.82033 -6.33397 -4.7847 -6.45142Q-4.74907 -6.56888 -4.70772 -6.68445Q-4.66637 -6.80002 -4.6194 -6.91342Q-4.57243 -7.02682 -4.51995 -7.13777Q-4.46747 -7.24873 -4.40961 -7.35698Q-4.35175 -7.46523 -4.28864 -7.57051Q-4.22554 -7.67579 -4.15735 -7.77785Q-4.08916 -7.87991 -4.01604 -7.9785Q-3.94292 -8.07708 -3.86505 -8.17197Q-3.78719 -8.26685 -3.70476 -8.35779Q-3.62233 -8.44874 -3.53553 -8.53553Q-3.44874 -8.62233 -3.35779 -8.70476Q-3.26685 -8.78719 -3.17197 -8.86505Q-3.07708 -8.94292 -2.9785 -9.01604Q-2.87991 -9.08916 -2.77785 -9.15735Q-2.67579 -9.22554 -2.57051 -9.28864Q-2.46523 -9.35175 -2.35698 -9.40961Q-2.24873 -9.46747 -2.13778 -9.51995Q-2.02682 -9.57243 -1.91342 -9.6194Q-1.80002 -9.66637 -1.68445 -9.70772Q-1.56888 -9.74907 -1.45142 -9.7847Q-1.33397 -9.82033 -1.2149 -9.85016Q-1.09584 -9.87998 -0.975452 -9.90393Q-0.855067 -9.92787 -0.733652 -9.94588Q-0.612238 -9.96389 -0.490086 -9.97592Q-0.367934 -9.98796 -0.245338 -9.99398Q-0.122743 -10 0 -10Q0.207973 -10 0.415227 -9.98273ZM-0.415227 -0.0172715L0 -5L5 -5L5 5L0 5L-0.415227 0.017271Q14.3804 -1.21569 21.678 -2.43197Q25.041 -2.99248 26.5439 -3.49342L26.7577 -3.53525Q25 -2.36342 25 0Q25 2.36342 26.7577 3.53525L26.5439 3.49342Q25.041 2.99248 21.678 2.43197Q14.3804 1.21569 -0.415227 -0.0172715Z"/>
	<path fill="#D14F4D" transform="matrix(0.77186 -1.2021 1.2021 0.77186 43.4221 65.8887)" d="M0 -5Q60 0 0 5L0 -5Z"/>
	<path fill="#D14F4D" transform="matrix(0.77186 -1.2021 1.2021 0.77186 43.4221 65.8887)" d="M0.207614 -7.49136Q15.3098 -6.23284 22.911 -4.96598Q32.5 -3.36782 32.5 0Q32.5 3.36782 22.911 4.96598Q15.3098 6.23284 0.207614 7.49136Q0.0852208 7.50156 -0.0375824 7.49972Q-0.160386 7.49787 -0.282417 7.484Q-0.404447 7.47012 -0.524531 7.44435Q-0.644614 7.41859 -0.761594 7.38117Q-0.878573 7.34376 -0.991322 7.29506Q-1.10407 7.24636 -1.2115 7.18684Q-1.31894 7.12732 -1.42002 7.05756Q-1.5211 6.9878 -1.61486 6.90847Q-1.70861 6.82913 -1.79414 6.74099Q-1.87967 6.65285 -1.95615 6.55675Q-2.03263 6.46065 -2.09932 6.35752Q-2.16601 6.25439 -2.22227 6.14521Q-2.27853 6.03604 -2.32382 5.92188Q-2.36911 5.80772 -2.40299 5.68967Q-2.43687 5.57161 -2.45902 5.45081Q-2.48116 5.33001 -2.49136 5.20761Q-2.5 5.10399 -2.5 5L-2.5 -5Q-2.5 -5.12282 -2.48796 -5.24504Q-2.47592 -5.36727 -2.45196 -5.48773Q-2.428 -5.60818 -2.39235 -5.72571Q-2.3567 -5.84324 -2.3097 -5.95671Q-2.2627 -6.07018 -2.2048 -6.17849Q-2.14691 -6.28681 -2.07867 -6.38892Q-2.01044 -6.49104 -1.93253 -6.58598Q-1.85461 -6.68092 -1.76777 -6.76777Q-1.68092 -6.85461 -1.58598 -6.93253Q-1.49104 -7.01044 -1.38893 -7.07867Q-1.28681 -7.14691 -1.17849 -7.2048Q-1.07018 -7.2627 -0.956709 -7.3097Q-0.84324 -7.3567 -0.725712 -7.39235Q-0.608183 -7.428 -0.487726 -7.45196Q-0.367269 -7.47592 -0.245043 -7.48796Q-0.122817 -7.5 0 -7.5Q0.103986 -7.5 0.207614 -7.49136ZM-0.207614 -2.50864L0 -5L2.5 -5L2.5 5L0 5L-0.207614 2.50864Q14.6902 1.26715 22.089 0.0340152Q25.6455 -0.558738 27.3344 -1.12171Q27.9543 -1.32834 28.1445 -1.45513Q27.5 -1.02546 27.5 0Q27.5 1.02546 28.1445 1.45513Q27.9543 1.32834 27.3344 1.12171Q25.6455 0.558738 22.089 -0.0340152Q14.6902 -1.26715 -0.207614 -2.50864Z"/>
	<path fill="#D4766C" transform="matrix(0.77186 -1.2021 1.2021 0.77186 43.4221 65.8887)" d="M27 0Q27 0.0982537 26.9904 0.196034Q26.9807 0.293815 26.9616 0.390181Q26.9424 0.486546 26.9139 0.580569Q26.8854 0.674592 26.8478 0.765367Q26.8102 0.856141 26.7638 0.942793Q26.7175 1.02945 26.6629 1.11114Q26.6084 1.19284 26.546 1.26879Q26.4837 1.34474 26.4142 1.41421Q26.3447 1.48369 26.2688 1.54602Q26.1928 1.60835 26.1111 1.66294Q26.0294 1.71753 25.9428 1.76384Q25.8561 1.81016 25.7654 1.84776Q25.6746 1.88536 25.5806 1.91388Q25.4865 1.9424 25.3902 1.96157Q25.2938 1.98074 25.196 1.99037Q25.0983 2 25 2Q24.9017 2 24.804 1.99037Q24.7062 1.98074 24.6098 1.96157Q24.5135 1.9424 24.4194 1.91388Q24.3254 1.88536 24.2346 1.84776Q24.1439 1.81016 24.0572 1.76384Q23.9706 1.71753 23.8889 1.66294Q23.8072 1.60835 23.7312 1.54602Q23.6553 1.48369 23.5858 1.41421Q23.5163 1.34474 23.454 1.26879Q23.3916 1.19284 23.3371 1.11114Q23.2825 1.02945 23.2362 0.942793Q23.1898 0.856141 23.1522 0.765367Q23.1146 0.674592 23.0861 0.580569Q23.0576 0.486546 23.0384 0.390181Q23.0193 0.293815 23.0096 0.196034Q23 0.0982537 23 0Q23 -0.0982537 23.0096 -0.196034Q23.0193 -0.293815 23.0384 -0.390181Q23.0576 -0.486546 23.0861 -0.580569Q23.1146 -0.674592 23.1522 -0.765367Q23.1898 -0.856141 23.2362 -0.942793Q23.2825 -1.02945 23.3371 -1.11114Q23.3916 -1.19284 23.454 -1.26879Q23.5163 -1.34474 23.5858 -1.41421Q23.6553 -1.48369 23.7312 -1.54602Q23.8072 -1.60835 23.8889 -1.66294Q23.9706 -1.71753 24.0572 -1.76384Q24.1439 -1.81016 24.2346 -1.84776Q24.3254 -1.88536 24.4194 -1.91388Q24.5135 -1.9424 24.6098 -1.96157Q24.7062 -1.98074 24.804 -1.99037Q24.9017 -2 25 -2Q25.0983 -2 25.196 -1.99037Q25.2938 -1.98074 25.3902 -1.96157Q25.4865 -1.9424 25.5806 -1.91388Q25.6746 -1.88536 25.7654 -1.84776Q25.8561 -1.81016 25.9428 -1.76384Q26.0294 -1.71753 26.1111 -1.66294Q26.1928 -1.60835 26.2688 -1.54602Q26.3447 -1.48369 26.4142 -1.41421Q26.4837 -1.34474 26.546 -1.26879Q26.6084 -1.19284 26.6629 -1.11114Q26.7175 -1.02945 26.7638 -0.942793Q26.8102 -0.856141 26.8478 -0.765367Q26.8854 -0.674592 26.9139 -0.580569Q26.9424 -0.486546 26.9616 -0.390181Q26.9807 -0.293815 26.9904 -0.196034Q27 -0.0982537 27 0"/>
	<path fill="#D4766C" transform="matrix(0.77186 -1.2021 1.2021 0.77186 43.4221 65.8887)" d="M21 0Q21 0.147381 20.9856 0.294051Q20.9711 0.440722 20.9424 0.585271Q20.9136 0.72982 20.8708 0.870854Q20.828 1.01189 20.7716 1.14805Q20.7152 1.28421 20.6458 1.41419Q20.5763 1.54417 20.4944 1.66671Q20.4125 1.78925 20.319 1.90318Q20.2255 2.01711 20.1213 2.12132Q20.0171 2.22553 19.9032 2.31903Q19.7893 2.41253 19.6667 2.49441Q19.5442 2.57629 19.4142 2.64576Q19.2842 2.71524 19.148 2.77164Q19.0119 2.82804 18.8709 2.87082Q18.7298 2.9136 18.5853 2.94236Q18.4407 2.97111 18.2941 2.98555Q18.1474 3 18 3Q17.8526 3 17.7059 2.98555Q17.5593 2.97111 17.4147 2.94236Q17.2702 2.9136 17.1291 2.87082Q16.9881 2.82804 16.8519 2.77164Q16.7158 2.71524 16.5858 2.64576Q16.4558 2.57629 16.3333 2.49441Q16.2107 2.41253 16.0968 2.31903Q15.9829 2.22553 15.8787 2.12132Q15.7745 2.01711 15.681 1.90318Q15.5875 1.78925 15.5056 1.66671Q15.4237 1.54417 15.3542 1.41419Q15.2848 1.28421 15.2284 1.14805Q15.172 1.01189 15.1292 0.870854Q15.0864 0.72982 15.0576 0.585271Q15.0289 0.440722 15.0144 0.294051Q15 0.147381 15 0Q15 -0.147381 15.0144 -0.294051Q15.0289 -0.440722 15.0576 -0.585271Q15.0864 -0.72982 15.1292 -0.870854Q15.172 -1.01189 15.2284 -1.14805Q15.2848 -1.28421 15.3542 -1.41419Q15.4237 -1.54417 15.5056 -1.66671Q15.5875 -1.78925 15.681 -1.90318Q15.7745 -2.01711 15.8787 -2.12132Q15.9829 -2.22553 16.0968 -2.31903Q16.2107 -2.41253 16.3333 -2.49441Q16.4558 -2.57629 16.5858 -2.64576Q16.7158 -2.71524 16.8519 -2.77164Q16.9881 -2.82804 17.1291 -2.87082Q17.2702 -2.9136 17.4147 -2.94236Q17.5593 -2.97111 17.7059 -2.98555Q17.8526 -3 18 -3Q18.1474 -3 18.2941 -2.98555Q18.4407 -2.97111 18.5853 -2.94236Q18.7298 -2.9136 18.8709 -2.87082Q19.0119 -2.82804 19.148 -2.77164Q19.2842 -2.71524 19.4142 -2.64576Q19.5442 -2.57629 19.6667 -2.49441Q19.7893 -2.41253 19.9032 -2.31903Q20.0171 -2.22553 20.1213 -2.12132Q20.2255 -2.01711 20.319 -1.90318Q20.4125 -1.78925 20.4944 -1.66671Q20.5763 -1.54417 20.6458 -1.41419Q20.7152 -1.28421 20.7716 -1.14805Q20.828 -1.01189 20.8708 -0.870854Q20.9136 -0.72982 20.9424 -0.585271Q20.9711 -0.440722 20.9856 -0.294051Q21 -0.147381 21 0"/>
	<path fill="#D4766C" transform="matrix(0.77186 -1.2021 1.2021 0.77186 43.4221 65.8887)" d="M13 0Q13 0.196507 12.9807 0.392069Q12.9615 0.58763 12.9231 0.780361Q12.8848 0.973093 12.8278 1.16114Q12.7707 1.34918 12.6955 1.53073Q12.6203 1.71228 12.5277 1.88559Q12.4351 2.05889 12.3259 2.22228Q12.2167 2.38567 12.092 2.53757Q11.9674 2.68948 11.8284 2.82843Q11.6895 2.96738 11.5376 3.09204Q11.3857 3.2167 11.2223 3.32588Q11.0589 3.43505 10.8856 3.52768Q10.7123 3.62032 10.5307 3.69552Q10.3492 3.77072 10.1611 3.82776Q9.97309 3.8848 9.78036 3.92314Q9.58763 3.96148 9.39207 3.98074Q9.19651 4 9 4Q8.80349 4 8.60793 3.98074Q8.41237 3.96148 8.21964 3.92314Q8.02691 3.8848 7.83886 3.82776Q7.65081 3.77072 7.46926 3.69552Q7.28772 3.62032 7.11441 3.52768Q6.94111 3.43505 6.77772 3.32588Q6.61433 3.2167 6.46243 3.09204Q6.31052 2.96738 6.17157 2.82843Q6.03262 2.68948 5.90796 2.53757Q5.7833 2.38567 5.67412 2.22228Q5.56495 2.05889 5.47231 1.88559Q5.37968 1.71228 5.30448 1.53073Q5.22928 1.34918 5.17224 1.16114Q5.1152 0.973093 5.07686 0.780361Q5.03852 0.58763 5.01926 0.392069Q5 0.196507 5 0Q5 -0.196507 5.01926 -0.392069Q5.03852 -0.58763 5.07686 -0.780361Q5.1152 -0.973093 5.17224 -1.16114Q5.22928 -1.34918 5.30448 -1.53073Q5.37968 -1.71228 5.47231 -1.88559Q5.56495 -2.05889 5.67412 -2.22228Q5.7833 -2.38567 5.90796 -2.53757Q6.03262 -2.68948 6.17157 -2.82843Q6.31052 -2.96738 6.46243 -3.09204Q6.61433 -3.2167 6.77772 -3.32588Q6.94111 -3.43505 7.11441 -3.52768Q7.28772 -3.62032 7.46927 -3.69552Q7.65082 -3.77072 7.83886 -3.82776Q8.02691 -3.8848 8.21964 -3.92314Q8.41237 -3.96148 8.60793 -3.98074Q8.80349 -4 9 -4Q9.19651 -4 9.39207 -3.98074Q9.58763 -3.96148 9.78036 -3.92314Q9.97309 -3.8848 10.1611 -3.82776Q10.3492 -3.77072 10.5307 -3.69552Q10.7123 -3.62032 10.8856 -3.52768Q11.0589 -3.43505 11.2223 -3.32588Q11.3857 -3.2167 11.5376 -3.09204Q11.6895 -2.96738 11.8284 -2.82843Q11.9674 -2.68948 12.092 -2.53757Q12.2167 -2.38567 12.3259 -2.22228Q12.4351 -2.05889 12.5277 -1.88559Q12.6203 -1.71228 12.6955 -1.53073Q12.7707 -1.34918 12.8278 -1.16114Q12.8848 -0.973093 12.9231 -0.780361Q12.9615 -0.58763 12.9807 -0.392069Q13 -0.196507 13 0"/>
	<path fill="none" stroke="black" stroke-width="2.3999999" stroke-linejoin="round" transform="translate(55 79.2857)" d="M-32.4791 5.05207Q-31.8199 5.05207 -31.3902 4.94465Q-30.9605 4.83234 -30.7018 4.64191Q-30.4381 4.45148 -30.3404 4.1927Q-30.2379 3.92902 -30.2379 3.61164Q-30.2379 2.92805 -30.8824 2.47883Q-31.5221 2.02961 -33.0797 1.51203Q-33.7584 1.26789 -34.442 0.960273Q-35.1207 0.647773 -35.6627 0.179023Q-36.1998 -0.289727 -36.5416 -0.958672Q-36.8785 -1.62762 -36.8785 -2.58953Q-36.8785 -3.55145 -36.5221 -4.31805Q-36.1607 -5.08953 -35.5016 -5.62664Q-34.8424 -6.16863 -33.9 -6.45672Q-32.9576 -6.74969 -31.7809 -6.74969Q-30.3795 -6.74969 -29.359 -6.44695Q-28.3385 -6.1491 -27.6793 -5.78777L-28.5777 -3.33172Q-29.1588 -3.62957 -29.8717 -3.85906Q-30.5797 -4.08855 -31.5807 -4.08855Q-32.6988 -4.08855 -33.192 -3.77605Q-33.6803 -3.46844 -33.6803 -2.82879Q-33.6803 -2.44793 -33.4996 -2.18914Q-33.3189 -1.93035 -32.9918 -1.72039Q-32.6598 -1.51043 -32.2301 -1.33953Q-31.8004 -1.16863 -31.2779 -0.987969Q-30.1988 -0.587578 -29.4029 -0.196953Q-28.6021 0.188789 -28.0699 0.71125Q-27.5377 1.22883 -27.2789 1.93195Q-27.0201 2.6302 -27.0201 3.63117Q-27.0201 5.56965 -28.3824 6.63898Q-29.7398 7.70832 -32.4791 7.70832Q-33.4019 7.70832 -34.1441 7.59602Q-34.8814 7.48859 -35.4527 7.33234Q-36.0191 7.17121 -36.4293 6.99055Q-36.8394 6.80988 -37.1178 6.64875L-36.2389 4.16828Q-35.6187 4.51008 -34.7105 4.78352Q-33.8023 5.05207 -32.4791 5.05207ZM-24.9211 -5.70965L-21.9377 -6.18816L-21.9377 -3.08758L-18.3586 -3.08758L-18.3586 -0.611992L-21.9377 -0.611992L-21.9377 3.08918Q-21.9377 4.03156 -21.6106 4.59309Q-21.2786 5.14973 -20.2776 5.14973Q-19.7991 5.14973 -19.2913 5.06184Q-18.7786 4.96906 -18.3586 4.80793L-17.9387 7.13215Q-18.4807 7.35187 -19.1399 7.50812Q-19.7991 7.66926 -20.761 7.66926Q-21.9817 7.66926 -22.7825 7.34211Q-23.5784 7.01008 -24.0618 6.41926Q-24.5403 5.82844 -24.7307 4.98859Q-24.9211 4.14875 -24.9211 3.12824L-24.9211 -5.70965ZM-11.9201 5.34992Q-11.4806 5.34992 -11.0802 5.33039Q-10.6798 5.31086 -10.4406 5.2718L-10.4406 3.01105Q-10.6212 2.97199 -10.9826 2.93293Q-11.339 2.88898 -11.6417 2.88898Q-12.0617 2.88898 -12.4328 2.9427Q-12.799 2.99152 -13.0822 3.13312Q-13.3605 3.26984 -13.5216 3.5091Q-13.6779 3.74836 -13.6779 4.10969Q-13.6779 4.80793 -13.2091 5.08137Q-12.7404 5.34992 -11.9201 5.34992ZM-12.1593 -3.37078Q-10.841 -3.37078 -9.96205 -3.06805Q-9.07826 -2.7702 -8.55092 -2.20867Q-8.01869 -1.65203 -7.79897 -0.85125Q-7.57924 -0.0504689 -7.57924 0.930976L-7.57924 7.13215Q-8.21889 7.26887 -9.36147 7.4593Q-10.4992 7.64973 -12.1203 7.64973Q-13.1408 7.64973 -13.9708 7.46906Q-14.8009 7.2884 -15.4015 6.87824Q-16.0021 6.46809 -16.3244 5.80891Q-16.6417 5.14973 -16.6417 4.18781Q-16.6417 3.26984 -16.2706 2.6302Q-15.8996 1.99055 -15.2794 1.60969Q-14.6593 1.22883 -13.8585 1.06281Q-13.0578 0.891914 -12.1984 0.891914Q-11.6222 0.891914 -11.173 0.940742Q-10.7189 0.98957 -10.4406 1.0677L-10.4406 0.789375Q-10.4406 0.0276561 -10.8996 -0.431328Q-11.3585 -0.890313 -12.5011 -0.890313Q-13.2579 -0.890313 -14.0001 -0.778008Q-14.7423 -0.670586 -15.2794 -0.470391L-15.6603 -2.86785Q-15.4015 -2.95086 -15.0109 -3.03875Q-14.6203 -3.13152 -14.1613 -3.19988Q-13.7023 -3.26824 -13.1945 -3.31707Q-12.6818 -3.37078 -12.1593 -3.37078ZM1.45926 -0.45086Q1.05887 -0.548516 0.516876 -0.655938Q-0.0202332 -0.768242 -0.64035 -0.768242Q-0.918671 -0.768242 -1.3093 -0.719414Q-1.69992 -0.670586 -1.90012 -0.611992L-1.90012 7.43L-4.87863 7.43L-4.87863 -2.53094Q-4.07785 -2.80926 -2.98898 -3.05828Q-1.90012 -3.31219 -0.562225 -3.31219Q-0.318085 -3.31219 0.0188293 -3.27801Q0.360626 -3.24871 0.69754 -3.19988Q1.03934 -3.15105 1.37625 -3.07781Q1.71805 -3.00945 1.96219 -2.9118L1.45926 -0.45086ZM8.1219 -8.08758Q8.96175 -8.08758 9.65999 -7.91668Q10.3582 -7.75066 10.7391 -7.58953L10.158 -5.2116Q9.75764 -5.39227 9.28889 -5.48016Q8.82014 -5.56805 8.41975 -5.56805Q7.87776 -5.56805 7.50667 -5.41668Q7.14046 -5.2702 6.9305 -5.00652Q6.72054 -4.74773 6.62776 -4.38641Q6.53987 -4.02996 6.53987 -3.61004L6.53987 -3.08758L10.2215 -3.08758L10.2215 -0.611992L6.53987 -0.611992L6.53987 7.43L3.56136 7.43L3.56136 -3.6491Q3.56136 -5.69012 4.70882 -6.88641Q5.86116 -8.08758 8.1219 -8.08758ZM14.9799 7.43L12.0013 7.43L12.0013 -3.08758L14.9799 -3.08758L14.9799 7.43ZM15.2582 -6.12957Q15.2582 -5.30926 14.726 -4.84051Q14.1986 -4.37176 13.4808 -4.37176Q12.7582 -4.37176 12.226 -4.84051Q11.6986 -5.30926 11.6986 -6.12957Q11.6986 -6.94988 12.226 -7.41863Q12.7582 -7.89227 13.4808 -7.89227Q14.1986 -7.89227 14.726 -7.41863Q15.2582 -6.94988 15.2582 -6.12957ZM20.7989 5.29133Q21.6192 5.29133 21.9561 5.1302Q22.2979 4.96906 22.2979 4.51008Q22.2979 4.14875 21.8585 3.8802Q21.419 3.61164 20.5206 3.26984Q19.8224 3.01105 19.2511 2.73273Q18.6798 2.44953 18.2794 2.05891Q17.879 1.66828 17.6593 1.13117Q17.4395 0.58918 17.4395 -0.167656Q17.4395 -1.65203 18.5382 -2.51141Q19.6417 -3.37078 21.5606 -3.37078Q22.5177 -3.37078 23.3966 -3.19988Q24.2804 -3.02898 24.7979 -2.82879L24.2804 -0.509453Q23.7579 -0.690117 23.1476 -0.826836Q22.5421 -0.968438 21.7804 -0.968438Q20.379 -0.968438 20.379 -0.19207Q20.379 -0.0114064 20.4376 0.130195Q20.5011 0.271797 20.6817 0.403633Q20.8624 0.530586 21.17 0.681953Q21.4776 0.828437 21.961 1.0091Q22.9376 1.37043 23.5772 1.72199Q24.2218 2.06867 24.588 2.47883Q24.9591 2.88898 25.1104 3.39191Q25.2618 3.88996 25.2618 4.54914Q25.2618 6.11164 24.0899 6.91242Q22.9181 7.70832 20.7794 7.70832Q19.378 7.70832 18.4454 7.46906Q17.5177 7.2298 17.1612 7.06867L17.6593 4.65168Q18.421 4.94953 19.2169 5.12043Q20.0177 5.29133 20.7989 5.29133ZM27.4813 7.43L27.4813 -7.60906L30.4599 -8.08758L30.4599 -3.04852Q30.7577 -3.15105 31.2265 -3.23895Q31.7001 -3.33172 32.1395 -3.33172Q33.4188 -3.33172 34.2684 -2.98016Q35.1181 -2.62859 35.6259 -1.98895Q36.1386 -1.3493 36.3485 -0.470391Q36.5585 0.408515 36.5585 1.48762L36.5585 7.43L33.58 7.43L33.58 1.84895Q33.58 0.408515 33.2089 -0.187188Q32.8378 -0.787774 31.8417 -0.787774Q31.4413 -0.787774 31.0897 -0.719414Q30.7382 -0.651055 30.4599 -0.568047L30.4599 7.43L27.4813 7.43Z"/>
	<path fill="white" transform="translate(55 79.2857)" d="M-32.4791 5.05207Q-31.8199 5.05207 -31.3902 4.94465Q-30.9605 4.83234 -30.7018 4.64191Q-30.4381 4.45148 -30.3404 4.1927Q-30.2379 3.92902 -30.2379 3.61164Q-30.2379 2.92805 -30.8824 2.47883Q-31.5221 2.02961 -33.0797 1.51203Q-33.7584 1.26789 -34.442 0.960273Q-35.1207 0.647773 -35.6627 0.179023Q-36.1998 -0.289727 -36.5416 -0.958672Q-36.8785 -1.62762 -36.8785 -2.58953Q-36.8785 -3.55145 -36.5221 -4.31805Q-36.1607 -5.08953 -35.5016 -5.62664Q-34.8424 -6.16863 -33.9 -6.45672Q-32.9576 -6.74969 -31.7809 -6.74969Q-30.3795 -6.74969 -29.359 -6.44695Q-28.3385 -6.1491 -27.6793 -5.78777L-28.5777 -3.33172Q-29.1588 -3.62957 -29.8717 -3.85906Q-30.5797 -4.08855 -31.5807 -4.08855Q-32.6988 -4.08855 -33.192 -3.77605Q-33.6803 -3.46844 -33.6803 -2.82879Q-33.6803 -2.44793 -33.4996 -2.18914Q-33.3189 -1.93035 -32.9918 -1.72039Q-32.6598 -1.51043 -32.2301 -1.33953Q-31.8004 -1.16863 -31.2779 -0.987969Q-30.1988 -0.587578 -29.4029 -0.196953Q-28.6021 0.188789 -28.0699 0.71125Q-27.5377 1.22883 -27.2789 1.93195Q-27.0201 2.6302 -27.0201 3.63117Q-27.0201 5.56965 -28.3824 6.63898Q-29.7398 7.70832 -32.4791 7.70832Q-33.4019 7.70832 -34.1441 7.59602Q-34.8814 7.48859 -35.4527 7.33234Q-36.0191 7.17121 -36.4293 6.99055Q-36.8394 6.80988 -37.1178 6.64875L-36.2389 4.16828Q-35.6187 4.51008 -34.7105 4.78352Q-33.8023 5.05207 -32.4791 5.05207ZM-24.9211 -5.70965L-21.9377 -6.18816L-21.9377 -3.08758L-18.3586 -3.08758L-18.3586 -0.611992L-21.9377 -0.611992L-21.9377 3.08918Q-21.9377 4.03156 -21.6106 4.59309Q-21.2786 5.14973 -20.2776 5.14973Q-19.7991 5.14973 -19.2913 5.06184Q-18.7786 4.96906 -18.3586 4.80793L-17.9387 7.13215Q-18.4807 7.35187 -19.1399 7.50812Q-19.7991 7.66926 -20.761 7.66926Q-21.9817 7.66926 -22.7825 7.34211Q-23.5784 7.01008 -24.0618 6.41926Q-24.5403 5.82844 -24.7307 4.98859Q-24.9211 4.14875 -24.9211 3.12824L-24.9211 -5.70965ZM-11.9201 5.34992Q-11.4806 5.34992 -11.0802 5.33039Q-10.6798 5.31086 -10.4406 5.2718L-10.4406 3.01105Q-10.6212 2.97199 -10.9826 2.93293Q-11.339 2.88898 -11.6417 2.88898Q-12.0617 2.88898 -12.4328 2.9427Q-12.799 2.99152 -13.0822 3.13312Q-13.3605 3.26984 -13.5216 3.5091Q-13.6779 3.74836 -13.6779 4.10969Q-13.6779 4.80793 -13.2091 5.08137Q-12.7404 5.34992 -11.9201 5.34992ZM-12.1593 -3.37078Q-10.841 -3.37078 -9.96205 -3.06805Q-9.07826 -2.7702 -8.55092 -2.20867Q-8.01869 -1.65203 -7.79897 -0.85125Q-7.57924 -0.0504689 -7.57924 0.930976L-7.57924 7.13215Q-8.21889 7.26887 -9.36147 7.4593Q-10.4992 7.64973 -12.1203 7.64973Q-13.1408 7.64973 -13.9708 7.46906Q-14.8009 7.2884 -15.4015 6.87824Q-16.0021 6.46809 -16.3244 5.80891Q-16.6417 5.14973 -16.6417 4.18781Q-16.6417 3.26984 -16.2706 2.6302Q-15.8996 1.99055 -15.2794 1.60969Q-14.6593 1.22883 -13.8585 1.06281Q-13.0578 0.891914 -12.1984 0.891914Q-11.6222 0.891914 -11.173 0.940742Q-10.7189 0.98957 -10.4406 1.0677L-10.4406 0.789375Q-10.4406 0.0276561 -10.8996 -0.431328Q-11.3585 -0.890313 -12.5011 -0.890313Q-13.2579 -0.890313 -14.0001 -0.778008Q-14.7423 -0.670586 -15.2794 -0.470391L-15.6603 -2.86785Q-15.4015 -2.95086 -15.0109 -3.03875Q-14.6203 -3.13152 -14.1613 -3.19988Q-13.7023 -3.26824 -13.1945 -3.31707Q-12.6818 -3.37078 -12.1593 -3.37078ZM1.45926 -0.45086Q1.05887 -0.548516 0.516876 -0.655938Q-0.0202332 -0.768242 -0.64035 -0.768242Q-0.918671 -0.768242 -1.3093 -0.719414Q-1.69992 -0.670586 -1.90012 -0.611992L-1.90012 7.43L-4.87863 7.43L-4.87863 -2.53094Q-4.07785 -2.80926 -2.98898 -3.05828Q-1.90012 -3.31219 -0.562225 -3.31219Q-0.318085 -3.31219 0.0188293 -3.27801Q0.360626 -3.24871 0.69754 -3.19988Q1.03934 -3.15105 1.37625 -3.07781Q1.71805 -3.00945 1.96219 -2.9118L1.45926 -0.45086ZM8.1219 -8.08758Q8.96175 -8.08758 9.65999 -7.91668Q10.3582 -7.75066 10.7391 -7.58953L10.158 -5.2116Q9.75764 -5.39227 9.28889 -5.48016Q8.82014 -5.56805 8.41975 -5.56805Q7.87776 -5.56805 7.50667 -5.41668Q7.14046 -5.2702 6.9305 -5.00652Q6.72054 -4.74773 6.62776 -4.38641Q6.53987 -4.02996 6.53987 -3.61004L6.53987 -3.08758L10.2215 -3.08758L10.2215 -0.611992L6.53987 -0.611992L6.53987 7.43L3.56136 7.43L3.56136 -3.6491Q3.56136 -5.69012 4.70882 -6.88641Q5.86116 -8.08758 8.1219 -8.08758ZM14.9799 7.43L12.0013 7.43L12.0013 -3.08758L14.9799 -3.08758L14.9799 7.43ZM15.2582 -6.12957Q15.2582 -5.30926 14.726 -4.84051Q14.1986 -4.37176 13.4808 -4.37176Q12.7582 -4.37176 12.226 -4.84051Q11.6986 -5.30926 11.6986 -6.12957Q11.6986 -6.94988 12.226 -7.41863Q12.7582 -7.89227 13.4808 -7.89227Q14.1986 -7.89227 14.726 -7.41863Q15.2582 -6.94988 15.2582 -6.12957ZM20.7989 5.29133Q21.6192 5.29133 21.9561 5.1302Q22.2979 4.96906 22.2979 4.51008Q22.2979 4.14875 21.8585 3.8802Q21.419 3.61164 20.5206 3.26984Q19.8224 3.01105 19.2511 2.73273Q18.6798 2.44953 18.2794 2.05891Q17.879 1.66828 17.6593 1.13117Q17.4395 0.58918 17.4395 -0.167656Q17.4395 -1.65203 18.5382 -2.51141Q19.6417 -3.37078 21.5606 -3.37078Q22.5177 -3.37078 23.3966 -3.19988Q24.2804 -3.02898 24.7979 -2.82879L24.2804 -0.509453Q23.7579 -0.690117 23.1476 -0.826836Q22.5421 -0.968438 21.7804 -0.968438Q20.379 -0.968438 20.379 -0.19207Q20.379 -0.0114064 20.4376 0.130195Q20.5011 0.271797 20.6817 0.403633Q20.8624 0.530586 21.17 0.681953Q21.4776 0.828437 21.961 1.0091Q22.9376 1.37043 23.5772 1.72199Q24.2218 2.06867 24.588 2.47883Q24.9591 2.88898 25.1104 3.39191Q25.2618 3.88996 25.2618 4.54914Q25.2618 6.11164 24.0899 6.91242Q22.9181 7.70832 20.7794 7.70832Q19.378 7.70832 18.4454 7.46906Q17.5177 7.2298 17.1612 7.06867L17.6593 4.65168Q18.421 4.94953 19.2169 5.12043Q20.0177 5.29133 20.7989 5.29133ZM27.4813 7.43L27.4813 -7.60906L30.4599 -8.08758L30.4599 -3.04852Q30.7577 -3.15105 31.2265 -3.23895Q31.7001 -3.33172 32.1395 -3.33172Q33.4188 -3.33172 34.2684 -2.98016Q35.1181 -2.62859 35.6259 -1.98895Q36.1386 -1.3493 36.3485 -0.470391Q36.5585 0.408515 36.5585 1.48762L36.5585 7.43L33.58 7.43L33.58 1.84895Q33.58 0.408515 33.2089 -0.187188Q32.8378 -0.787774 31.8417 -0.787774Q31.4413 -0.787774 31.0897 -0.719414Q30.7382 -0.651055 30.4599 -0.568047L30.4599 7.43L27.4813 7.43Z"/>
</svg>
