<?xml version="1.0" encoding="utf-8" ?>
<svg xmlns="http://www.w3.org/2000/svg" xmlns:xlink="http://www.w3.org/1999/xlink" width="110" height="110">
	<path fill="#333" transform="matrix(1.42857 0 0 1.42857 55 47.8571)" d="M16 0Q16 0.392778 15.9807 0.785083Q15.9615 1.17739 15.923 1.56827Q15.8845 1.95916 15.8268 2.34769Q15.7692 2.73621 15.6926 3.12144Q15.6159 3.50668 15.5205 3.88768Q15.4251 4.26869 15.311 4.64455Q15.197 5.02042 15.0647 5.39024Q14.9324 5.76005 14.7821 6.12293Q14.6318 6.48581 14.4638 6.84088Q14.2959 7.19595 14.1107 7.54235Q13.9256 7.88875 13.7237 8.22564Q13.5217 8.56254 13.3035 8.88912Q13.0853 9.21571 12.8513 9.53119Q12.6173 9.84667 12.3682 10.1503Q12.119 10.4539 11.8552 10.7449Q11.5914 11.036 11.3137 11.3137Q11.036 11.5914 10.7449 11.8552Q10.4539 12.119 10.1503 12.3682Q9.84667 12.6173 9.53119 12.8513Q9.21571 13.0853 8.88912 13.3035Q8.56254 13.5217 8.22564 13.7237Q7.88875 13.9256 7.54235 14.1107Q7.19595 14.2959 6.84088 14.4638Q6.48581 14.6318 6.12293 14.7821Q5.76005 14.9324 5.39024 15.0647Q5.02042 15.197 4.64455 15.311Q4.26869 15.4251 3.88768 15.5205Q3.50668 15.6159 3.12144 15.6926Q2.73621 15.7692 2.34769 15.8268Q1.95916 15.8845 1.56827 15.923Q1.17739 15.9615 0.785083 15.9807Q0.392778 16 0 16Q-0.392778 16 -0.785083 15.9807Q-1.17739 15.9615 -1.56827 15.923Q-1.95916 15.8845 -2.34769 15.8268Q-2.73621 15.7692 -3.12144 15.6926Q-3.50668 15.6159 -3.88768 15.5205Q-4.26869 15.4251 -4.64455 15.311Q-5.02042 15.197 -5.39024 15.0647Q-5.76005 14.9324 -6.12293 14.7821Q-6.48581 14.6318 -6.84088 14.4638Q-7.19595 14.2959 -7.54235 14.1107Q-7.88875 13.9256 -8.22564 13.7237Q-8.56254 13.5217 -8.88912 13.3035Q-9.21571 13.0853 -9.53119 12.8513Q-9.84667 12.6173 -10.1503 12.3682Q-10.4539 12.119 -10.7449 11.8552Q-11.036 11.5914 -11.3137 11.3137Q-11.5914 11.036 -11.8552 10.7449Q-12.119 10.4539 -12.3682 10.1503Q-12.6173 9.84667 -12.8513 9.53119Q-13.0853 9.21571 -13.3035 8.88912Q-13.5217 8.56254 -13.7237 8.22564Q-13.9256 7.88875 -14.1107 7.54235Q-14.2959 7.19595 -14.4638 6.84088Q-14.6318 6.48581 -14.7821 6.12293Q-14.9324 5.76005 -15.0647 5.39024Q-15.197 5.02042 -15.311 4.64455Q-15.4251 4.26869 -15.5205 3.88768Q-15.6159 3.50668 -15.6926 3.12144Q-15.7692 2.73621 -15.8268 2.34769Q-15.8845 1.95916 -15.923 1.56827Q-15.9615 1.17739 -15.9807 0.785083Q-16 0.392778 -16 0Q-16 -0.392778 -15.9807 -0.785083Q-15.9615 -1.17739 -15.923 -1.56827Q-15.8845 -1.95916 -15.8268 -2.34769Q-15.7692 -2.73621 -15.6926 -3.12144Q-15.6159 -3.50668 -15.5205 -3.88768Q-15.4251 -4.26869 -15.311 -4.64455Q-15.197 -5.02042 -15.0647 -5.39024Q-14.9324 -5.76005 -14.7821 -6.12293Q-14.6318 -6.48581 -14.4638 -6.84088Q-14.2959 -7.19595 -14.1107 -7.54235Q-13.9256 -7.88875 -13.7237 -8.22564Q-13.5217 -8.56254 -13.3035 -8.88912Q-13.0853 -9.21571 -12.8513 -9.53119Q-12.6173 -9.84667 -12.3682 -10.1503Q-12.119 -10.4539 -11.8552 -10.7449Q-11.5914 -11.036 -11.3137 -11.3137Q-11.036 -11.5914 -10.7449 -11.8552Q-10.4539 -12.119 -10.1503 -12.3682Q-9.84667 -12.6173 -9.53119 -12.8513Q-9.21571 -13.0853 -8.88912 -13.3035Q-8.56254 -13.5217 -8.22564 -13.7237Q-7.88875 -13.9256 -7.54235 -14.1107Q-7.19595 -14.2959 -6.84088 -14.4638Q-6.48581 -14.6318 -6.12293 -14.7821Q-5.76005 -14.9324 -5.39024 -15.0647Q-5.02042 -15.197 -4.64455 -15.311Q-4.26869 -15.4251 -3.88768 -15.5205Q-3.50668 -15.6159 -3.12144 -15.6926Q-2.73621 -15.7692 -2.34769 -15.8268Q-1.95916 -15.8845 -1.56827 -15.923Q-1.17739 -15.9615 -0.785083 -15.9807Q-0.392778 -16 0 -16Q0.392778 -16 0.785083 -15.9807Q1.17739 -15.9615 1.56827 -15.923Q1.95916 -15.8845 2.34769 -15.8268Q2.73621 -15.7692 3.12144 -15.6926Q3.50668 -15.6159 3.88768 -15.5205Q4.26869 -15.4251 4.64455 -15.311Q5.02042 -15.197 5.39024 -15.0647Q5.76005 -14.9324 6.12293 -14.7821Q6.48581 -14.6318 6.84088 -14.4638Q7.19595 -14.2959 7.54235 -14.1107Q7.88875 -13.9256 8.22564 -13.7237Q8.56254 -13.5217 8.88912 -13.3035Q9.21571 -13.0853 9.53119 -12.8513Q9.84667 -12.6173 10.1503 -12.3682Q10.4539 -12.119 10.7449 -11.8552Q11.036 -11.5914 11.3137 -11.3137Q11.5914 -11.036 11.8552 -10.7449Q12.119 -10.4539 12.3682 -10.1503Q12.6173 -9.84667 12.8513 -9.53119Q13.0853 -9.21571 13.3035 -8.88912Q13.5217 -8.56254 13.7237 -8.22564Q13.9256 -7.88875 14.1107 -7.54235Q14.2959 -7.19595 14.4638 -6.84088Q14.6318 -6.48581 14.7821 -6.12293Q14.9324 -5.76005 15.0647 -5.39024Q15.197 -5.02042 15.311 -4.64455Q15.4251 -4.26869 15.5205 -3.88768Q15.6159 -3.50668 15.6926 -3.12144Q15.7692 -2.73621 15.8268 -2.34769Q15.8845 -1.95916 15.923 -1.56827Q15.9615 -1.17739 15.9807 -0.785083Q16 -0.392778 16 0"/>
	<path fill="none" stroke="#292929" stroke-width="3" stroke-linejoin="round" transform="matrix(1.42857 0 0 1.42857 55 47.8571)" d="M16 0Q16 0.392778 15.9807 0.785083Q15.9615 1.17739 15.923 1.56827Q15.8845 1.95916 15.8268 2.34769Q15.7692 2.73621 15.6926 3.12144Q15.6159 3.50668 15.5205 3.88768Q15.4251 4.26869 15.311 4.64455Q15.197 5.02042 15.0647 5.39024Q14.9324 5.76005 14.7821 6.12293Q14.6318 6.48581 14.4638 6.84088Q14.2959 7.19595 14.1107 7.54235Q13.9256 7.88875 13.7237 8.22564Q13.5217 8.56254 13.3035 8.88912Q13.0853 9.21571 12.8513 9.53119Q12.6173 9.84667 12.3682 10.1503Q12.119 10.4539 11.8552 10.7449Q11.5914 11.036 11.3137 11.3137Q11.036 11.5914 10.7449 11.8552Q10.4539 12.119 10.1503 12.3682Q9.84667 12.6173 9.53119 12.8513Q9.21571 13.0853 8.88912 13.3035Q8.56254 13.5217 8.22564 13.7237Q7.88875 13.9256 7.54235 14.1107Q7.19595 14.2959 6.84088 14.4638Q6.48581 14.6318 6.12293 14.7821Q5.76005 14.9324 5.39024 15.0647Q5.02042 15.197 4.64455 15.311Q4.26869 15.4251 3.88768 15.5205Q3.50668 15.6159 3.12144 15.6926Q2.73621 15.7692 2.34769 15.8268Q1.95916 15.8845 1.56827 15.923Q1.17739 15.9615 0.785083 15.9807Q0.392778 16 0 16Q-0.392778 16 -0.785083 15.9807Q-1.17739 15.9615 -1.56827 15.923Q-1.95916 15.8845 -2.34769 15.8268Q-2.73621 15.7692 -3.12144 15.6926Q-3.50668 15.6159 -3.88768 15.5205Q-4.26869 15.4251 -4.64455 15.311Q-5.02042 15.197 -5.39024 15.0647Q-5.76005 14.9324 -6.12293 14.7821Q-6.48581 14.6318 -6.84088 14.4638Q-7.19595 14.2959 -7.54235 14.1107Q-7.88875 13.9256 -8.22564 13.7237Q-8.56254 13.5217 -8.88912 13.3035Q-9.21571 13.0853 -9.53119 12.8513Q-9.84667 12.6173 -10.1503 12.3682Q-10.4539 12.119 -10.7449 11.8552Q-11.036 11.5914 -11.3137 11.3137Q-11.5914 11.036 -11.8552 10.7449Q-12.119 10.4539 -12.3682 10.1503Q-12.6173 9.84667 -12.8513 9.53119Q-13.0853 9.21571 -13.3035 8.88912Q-13.5217 8.56254 -13.7237 8.22564Q-13.9256 7.88875 -14.1107 7.54235Q-14.2959 7.19595 -14.4638 6.84088Q-14.6318 6.48581 -14.7821 6.12293Q-14.9324 5.76005 -15.0647 5.39024Q-15.197 5.02042 -15.311 4.64455Q-15.4251 4.26869 -15.5205 3.88768Q-15.6159 3.50668 -15.6926 3.12144Q-15.7692 2.73621 -15.8268 2.34769Q-15.8845 1.95916 -15.923 1.56827Q-15.9615 1.17739 -15.9807 0.785083Q-16 0.392778 -16 0Q-16 -0.392778 -15.9807 -0.785083Q-15.9615 -1.17739 -15.923 -1.56827Q-15.8845 -1.95916 -15.8268 -2.34769Q-15.7692 -2.73621 -15.6926 -3.12144Q-15.6159 -3.50668 -15.5205 -3.88768Q-15.4251 -4.26869 -15.311 -4.64455Q-15.197 -5.02042 -15.0647 -5.39024Q-14.9324 -5.76005 -14.7821 -6.12293Q-14.6318 -6.48581 -14.4638 -6.84088Q-14.2959 -7.19595 -14.1107 -7.54235Q-13.9256 -7.88875 -13.7237 -8.22564Q-13.5217 -8.56254 -13.3035 -8.88912Q-13.0853 -9.21571 -12.8513 -9.53119Q-12.6173 -9.84667 -12.3682 -10.1503Q-12.119 -10.4539 -11.8552 -10.7449Q-11.5914 -11.036 -11.3137 -11.3137Q-11.036 -11.5914 -10.7449 -11.8552Q-10.4539 -12.119 -10.1503 -12.3682Q-9.84667 -12.6173 -9.53119 -12.8513Q-9.21571 -13.0853 -8.88912 -13.3035Q-8.56254 -13.5217 -8.22564 -13.7237Q-7.88875 -13.9256 -7.54235 -14.1107Q-7.19595 -14.2959 -6.84088 -14.4638Q-6.48581 -14.6318 -6.12293 -14.7821Q-5.76005 -14.9324 -5.39024 -15.0647Q-5.02042 -15.197 -4.64455 -15.311Q-4.26869 -15.4251 -3.88768 -15.5205Q-3.50668 -15.6159 -3.12144 -15.6926Q-2.73621 -15.7692 -2.34769 -15.8268Q-1.95916 -15.8845 -1.56827 -15.923Q-1.17739 -15.9615 -0.785083 -15.9807Q-0.392778 -16 0 -16Q0.392778 -16 0.785083 -15.9807Q1.17739 -15.9615 1.56827 -15.923Q1.95916 -15.8845 2.34769 -15.8268Q2.73621 -15.7692 3.12144 -15.6926Q3.50668 -15.6159 3.88768 -15.5205Q4.26869 -15.4251 4.64455 -15.311Q5.02042 -15.197 5.39024 -15.0647Q5.76005 -14.9324 6.12293 -14.7821Q6.48581 -14.6318 6.84088 -14.4638Q7.19595 -14.2959 7.54235 -14.1107Q7.88875 -13.9256 8.22564 -13.7237Q8.56254 -13.5217 8.88912 -13.3035Q9.21571 -13.0853 9.53119 -12.8513Q9.84667 -12.6173 10.1503 -12.3682Q10.4539 -12.119 10.7449 -11.8552Q11.036 -11.5914 11.3137 -11.3137Q11.5914 -11.036 11.8552 -10.7449Q12.119 -10.4539 12.3682 -10.1503Q12.6173 -9.84667 12.8513 -9.53119Q13.0853 -9.21571 13.3035 -8.88912Q13.5217 -8.56254 13.7237 -8.22564Q13.9256 -7.88875 14.1107 -7.54235Q14.2959 -7.19595 14.4638 -6.84088Q14.6318 -6.48581 14.7821 -6.12293Q14.9324 -5.76005 15.0647 -5.39024Q15.197 -5.02042 15.311 -4.64455Q15.4251 -4.26869 15.5205 -3.88768Q15.6159 -3.50668 15.6926 -3.12144Q15.7692 -2.73621 15.8268 -2.34769Q15.8845 -1.95916 15.923 -1.56827Q15.9615 -1.17739 15.9807 -0.785083Q16 -0.392778 16 0"/>
	<path fill="#CCC" transform="matrix(1.42857 0 0 1.42857 55 47.8571)" d="M10.6 -6Q10.6 -5.88708 10.5945 -5.77429Q10.5889 -5.6615 10.5778 -5.54912Q10.5668 -5.43674 10.5502 -5.32504Q10.5336 -5.21334 10.5116 -5.10258Q10.4896 -4.99183 10.4621 -4.88229Q10.4347 -4.77275 10.4019 -4.66469Q10.3691 -4.55663 10.3311 -4.45031Q10.2931 -4.34398 10.2498 -4.23966Q10.2066 -4.13533 10.1583 -4.03325Q10.1101 -3.93116 10.0568 -3.83158Q10.0036 -3.73199 9.94555 -3.63513Q9.8875 -3.53827 9.82476 -3.44438Q9.76202 -3.35048 9.69475 -3.25978Q9.62749 -3.16908 9.55585 -3.08179Q9.48421 -2.9945 9.40837 -2.91083Q9.33254 -2.82716 9.25269 -2.74731Q9.17284 -2.66746 9.08917 -2.59163Q9.0055 -2.51579 8.91821 -2.44415Q8.83092 -2.37251 8.74022 -2.30525Q8.64951 -2.23798 8.55562 -2.17524Q8.46173 -2.1125 8.36487 -2.05445Q8.26801 -1.99639 8.16842 -1.94316Q8.06883 -1.88993 7.96675 -1.84165Q7.86467 -1.79337 7.76034 -1.75015Q7.65601 -1.70694 7.54969 -1.6689Q7.44337 -1.63085 7.33531 -1.59807Q7.22725 -1.56529 7.11771 -1.53786Q7.00817 -1.51042 6.89741 -1.48839Q6.78666 -1.46636 6.67496 -1.44979Q6.56326 -1.43322 6.45088 -1.42215Q6.3385 -1.41108 6.22571 -1.40554Q6.11292 -1.4 6 -1.4Q5.88708 -1.4 5.77429 -1.40554Q5.6615 -1.41108 5.54912 -1.42215Q5.43674 -1.43322 5.32504 -1.44979Q5.21334 -1.46636 5.10258 -1.48839Q4.99183 -1.51042 4.88229 -1.53786Q4.77275 -1.56529 4.66469 -1.59807Q4.55663 -1.63085 4.45031 -1.6689Q4.34398 -1.70694 4.23966 -1.75015Q4.13533 -1.79337 4.03325 -1.84165Q3.93116 -1.88993 3.83157 -1.94316Q3.73198 -1.99639 3.63513 -2.05445Q3.53827 -2.1125 3.44438 -2.17524Q3.35048 -2.23798 3.25978 -2.30525Q3.16908 -2.37251 3.08179 -2.44415Q2.9945 -2.51579 2.91083 -2.59163Q2.82716 -2.66746 2.74731 -2.74731Q2.66746 -2.82716 2.59162 -2.91083Q2.51579 -2.9945 2.44415 -3.08179Q2.37251 -3.16908 2.30524 -3.25978Q2.23798 -3.35048 2.17524 -3.44438Q2.1125 -3.53827 2.05445 -3.63513Q1.99639 -3.73199 1.94316 -3.83158Q1.88993 -3.93116 1.84165 -4.03325Q1.79337 -4.13533 1.75015 -4.23966Q1.70694 -4.34398 1.6689 -4.45031Q1.63085 -4.55663 1.59807 -4.66469Q1.56529 -4.77275 1.53786 -4.88229Q1.51042 -4.99183 1.48839 -5.10258Q1.46636 -5.21334 1.44979 -5.32504Q1.43322 -5.43674 1.42215 -5.54912Q1.41108 -5.6615 1.40554 -5.77429Q1.4 -5.88708 1.4 -6Q1.4 -6.11292 1.40554 -6.22571Q1.41108 -6.3385 1.42215 -6.45088Q1.43322 -6.56326 1.44979 -6.67496Q1.46636 -6.78666 1.48839 -6.89742Q1.51042 -7.00817 1.53786 -7.11771Q1.56529 -7.22725 1.59807 -7.33531Q1.63085 -7.44337 1.6689 -7.54969Q1.70694 -7.65602 1.75015 -7.76034Q1.79337 -7.86467 1.84165 -7.96675Q1.88993 -8.06883 1.94316 -8.16842Q1.99639 -8.26801 2.05445 -8.36487Q2.1125 -8.46173 2.17524 -8.55562Q2.23798 -8.64952 2.30524 -8.74022Q2.37251 -8.83092 2.44415 -8.91821Q2.51579 -9.0055 2.59162 -9.08917Q2.66746 -9.17284 2.74731 -9.25269Q2.82716 -9.33254 2.91083 -9.40838Q2.9945 -9.48421 3.08179 -9.55585Q3.16908 -9.62749 3.25978 -9.69476Q3.35048 -9.76202 3.44438 -9.82476Q3.53827 -9.8875 3.63513 -9.94555Q3.73198 -10.0036 3.83157 -10.0568Q3.93116 -10.1101 4.03325 -10.1584Q4.13533 -10.2066 4.23966 -10.2498Q4.34398 -10.2931 4.45031 -10.3311Q4.55663 -10.3691 4.66469 -10.4019Q4.77275 -10.4347 4.88229 -10.4621Q4.99183 -10.4896 5.10258 -10.5116Q5.21334 -10.5336 5.32504 -10.5502Q5.43674 -10.5668 5.54912 -10.5779Q5.6615 -10.5889 5.77429 -10.5945Q5.88708 -10.6 6 -10.6Q6.11292 -10.6 6.22571 -10.5945Q6.3385 -10.5889 6.45088 -10.5779Q6.56326 -10.5668 6.67496 -10.5502Q6.78666 -10.5336 6.89741 -10.5116Q7.00817 -10.4896 7.11771 -10.4621Q7.22725 -10.4347 7.33531 -10.4019Q7.44337 -10.3691 7.54969 -10.3311Q7.65601 -10.2931 7.76034 -10.2498Q7.86467 -10.2066 7.96675 -10.1584Q8.06883 -10.1101 8.16842 -10.0568Q8.26801 -10.0036 8.36487 -9.94555Q8.46173 -9.8875 8.55562 -9.82476Q8.64951 -9.76202 8.74022 -9.69476Q8.83092 -9.62749 8.91821 -9.55585Q9.0055 -9.48421 9.08917 -9.40838Q9.17284 -9.33254 9.25269 -9.25269Q9.33254 -9.17284 9.40837 -9.08917Q9.48421 -9.0055 9.55585 -8.91821Q9.62749 -8.83092 9.69475 -8.74022Q9.76202 -8.64952 9.82476 -8.55562Q9.8875 -8.46173 9.94555 -8.36487Q10.0036 -8.26801 10.0568 -8.16842Q10.1101 -8.06883 10.1583 -7.96675Q10.2066 -7.86467 10.2498 -7.76034Q10.2931 -7.65602 10.3311 -7.54969Q10.3691 -7.44337 10.4019 -7.33531Q10.4347 -7.22725 10.4621 -7.11771Q10.4896 -7.00817 10.5116 -6.89742Q10.5336 -6.78666 10.5502 -6.67496Q10.5668 -6.56326 10.5778 -6.45088Q10.5889 -6.3385 10.5945 -6.22571Q10.6 -6.11292 10.6 -6"/>
	<path fill="none" stroke="black" stroke-width="2.3999999" stroke-linejoin="round" transform="translate(55 79.2857)" d="M-19.719 -6.4323L-16.5989 -6.4323L-16.5989 7.43L-19.719 7.43L-19.719 1.55109L-24.9583 1.55109L-24.9583 7.43L-28.0784 7.43L-28.0784 -6.4323L-24.9583 -6.4323L-24.9583 -1.12957L-19.719 -1.12957L-19.719 -6.4323ZM-14.1015 2.24934Q-14.1015 0.847969 -13.6719 -0.201836Q-13.2422 -1.25164 -12.5439 -1.94988Q-11.8408 -2.64813 -10.9326 -3.00945Q-10.0195 -3.37078 -9.05759 -3.37078Q-6.82127 -3.37078 -5.52244 -1.99871Q-4.21873 -0.631524 -4.21873 2.02961Q-4.21873 2.2884 -4.23826 2.6009Q-4.25779 2.90852 -4.2822 3.14777L-11.04 3.14777Q-10.9424 4.07062 -10.1806 4.61262Q-9.41892 5.14973 -8.13963 5.14973Q-7.31931 5.14973 -6.53318 5.00324Q-5.74216 4.85187 -5.23923 4.63215L-4.83884 7.04914Q-5.0781 7.17121 -5.47849 7.29328Q-5.87888 7.41047 -6.37205 7.49836Q-6.86033 7.59113 -7.42185 7.64973Q-7.97849 7.70832 -8.54002 7.70832Q-9.96091 7.70832 -11.0107 7.2884Q-12.0605 6.86848 -12.7539 6.14094Q-13.4424 5.40852 -13.7744 4.41242Q-14.1015 3.41145 -14.1015 2.24934ZM-7.09959 1.11164Q-7.11912 0.730781 -7.23142 0.369453Q-7.33884 0.00812483 -7.56834 -0.270195Q-7.79783 -0.548516 -8.14939 -0.72918Q-8.50095 -0.909844 -9.01853 -0.909844Q-9.52146 -0.909844 -9.88279 -0.738945Q-10.2392 -0.568047 -10.4785 -0.289727Q-10.7178 -0.0114064 -10.8496 0.359687Q-10.9814 0.730781 -11.04 1.11164L-7.09959 1.11164ZM2.09994 5.34992Q2.53939 5.34992 2.93978 5.33039Q3.34017 5.31086 3.57943 5.2718L3.57943 3.01105Q3.39877 2.97199 3.03744 2.93293Q2.68099 2.88898 2.37826 2.88898Q1.95834 2.88898 1.58724 2.9427Q1.22103 2.99152 0.937828 3.13312Q0.659508 3.26984 0.498375 3.5091Q0.342125 3.74836 0.342125 4.10969Q0.342125 4.80793 0.810875 5.08137Q1.27962 5.34992 2.09994 5.34992ZM1.86068 -3.37078Q3.17904 -3.37078 4.05795 -3.06805Q4.94173 -2.7702 5.46908 -2.20867Q6.0013 -1.65203 6.22103 -0.85125Q6.44076 -0.0504689 6.44076 0.930976L6.44076 7.13215Q5.80111 7.26887 4.65853 7.4593Q3.52084 7.64973 1.89974 7.64973Q0.879234 7.64973 0.0491562 7.46906Q-0.780922 7.2884 -1.38151 6.87824Q-1.98209 6.46809 -2.30436 5.80891Q-2.62174 5.14973 -2.62174 4.18781Q-2.62174 3.26984 -2.25065 2.6302Q-1.87955 1.99055 -1.25944 1.60969Q-0.63932 1.22883 0.161461 1.06281Q0.962242 0.891914 1.82162 0.891914Q2.39779 0.891914 2.84701 0.940742Q3.30111 0.98957 3.57943 1.0677L3.57943 0.789375Q3.57943 0.0276561 3.12045 -0.431328Q2.66146 -0.890313 1.51888 -0.890313Q0.762047 -0.890313 0.0198593 -0.778008Q-0.722328 -0.670586 -1.25944 -0.470391L-1.6403 -2.86785Q-1.38151 -2.95086 -0.990883 -3.03875Q-0.600258 -3.13152 -0.141273 -3.19988Q0.317711 -3.26824 0.825523 -3.31707Q1.33822 -3.37078 1.86068 -3.37078ZM11.9978 7.43Q10.9822 5.42805 9.9275 2.75227Q8.87769 0.0716014 7.94019 -3.08758L11.0994 -3.08758Q11.2996 -2.31121 11.5681 -1.39813Q11.8416 -0.489922 12.1296 0.442695Q12.4177 1.37043 12.7058 2.24934Q12.9988 3.12824 13.282 3.8509Q13.5408 3.12824 13.8386 2.24934Q14.1414 1.37043 14.4295 0.442695Q14.7224 -0.489922 14.991 -1.39813Q15.2595 -2.31121 15.4597 -3.08758L18.5408 -3.08758Q17.5984 0.0716014 16.5486 2.75227Q15.4988 5.42805 14.4783 7.43L11.9978 7.43ZM29.4822 -3.08758Q28.5788 -0.0504689 27.5974 2.61066Q26.6208 5.2718 25.4587 7.7718Q25.0388 8.67023 24.6189 9.30012Q24.199 9.93 23.696 10.3402Q23.198 10.7503 22.5681 10.9407Q21.9382 11.1312 21.0984 11.1312Q20.4001 11.1312 19.8093 10.9993Q19.2185 10.8724 18.8376 10.7113L19.3601 8.32844Q19.8191 8.48957 20.1804 8.54816Q20.5417 8.61164 20.9421 8.61164Q21.738 8.61164 22.1677 8.18195Q22.6023 7.75227 22.9001 6.99055Q21.8796 4.98859 20.8591 2.49836Q19.8386 0.00812483 18.9402 -3.08758L22.0994 -3.08758Q22.2996 -2.31121 22.5681 -1.39813Q22.8415 -0.489922 23.1394 0.442695Q23.4421 1.37043 23.7497 2.24934Q24.0622 3.12824 24.3406 3.8509Q24.5994 3.12824 24.8777 2.24934Q25.1609 1.37043 25.4294 0.442695Q25.698 -0.489922 25.947 -1.39813Q26.2009 -2.31121 26.4011 -3.08758L29.4822 -3.08758Z"/>
	<path fill="white" transform="translate(55 79.2857)" d="M-19.719 -6.4323L-16.5989 -6.4323L-16.5989 7.43L-19.719 7.43L-19.719 1.55109L-24.9583 1.55109L-24.9583 7.43L-28.0784 7.43L-28.0784 -6.4323L-24.9583 -6.4323L-24.9583 -1.12957L-19.719 -1.12957L-19.719 -6.4323ZM-14.1015 2.24934Q-14.1015 0.847969 -13.6719 -0.201836Q-13.2422 -1.25164 -12.5439 -1.94988Q-11.8408 -2.64813 -10.9326 -3.00945Q-10.0195 -3.37078 -9.05759 -3.37078Q-6.82127 -3.37078 -5.52244 -1.99871Q-4.21873 -0.631524 -4.21873 2.02961Q-4.21873 2.2884 -4.23826 2.6009Q-4.25779 2.90852 -4.2822 3.14777L-11.04 3.14777Q-10.9424 4.07062 -10.1806 4.61262Q-9.41892 5.14973 -8.13963 5.14973Q-7.31931 5.14973 -6.53318 5.00324Q-5.74216 4.85187 -5.23923 4.63215L-4.83884 7.04914Q-5.0781 7.17121 -5.47849 7.29328Q-5.87888 7.41047 -6.37205 7.49836Q-6.86033 7.59113 -7.42185 7.64973Q-7.97849 7.70832 -8.54002 7.70832Q-9.96091 7.70832 -11.0107 7.2884Q-12.0605 6.86848 -12.7539 6.14094Q-13.4424 5.40852 -13.7744 4.41242Q-14.1015 3.41145 -14.1015 2.24934ZM-7.09959 1.11164Q-7.11912 0.730781 -7.23142 0.369453Q-7.33884 0.00812483 -7.56834 -0.270195Q-7.79783 -0.548516 -8.14939 -0.72918Q-8.50095 -0.909844 -9.01853 -0.909844Q-9.52146 -0.909844 -9.88279 -0.738945Q-10.2392 -0.568047 -10.4785 -0.289727Q-10.7178 -0.0114064 -10.8496 0.359687Q-10.9814 0.730781 -11.04 1.11164L-7.09959 1.11164ZM2.09994 5.34992Q2.53939 5.34992 2.93978 5.33039Q3.34017 5.31086 3.57943 5.2718L3.57943 3.01105Q3.39877 2.97199 3.03744 2.93293Q2.68099 2.88898 2.37826 2.88898Q1.95834 2.88898 1.58724 2.9427Q1.22103 2.99152 0.937828 3.13312Q0.659508 3.26984 0.498375 3.5091Q0.342125 3.74836 0.342125 4.10969Q0.342125 4.80793 0.810875 5.08137Q1.27962 5.34992 2.09994 5.34992ZM1.86068 -3.37078Q3.17904 -3.37078 4.05795 -3.06805Q4.94173 -2.7702 5.46908 -2.20867Q6.0013 -1.65203 6.22103 -0.85125Q6.44076 -0.0504689 6.44076 0.930976L6.44076 7.13215Q5.80111 7.26887 4.65853 7.4593Q3.52084 7.64973 1.89974 7.64973Q0.879234 7.64973 0.0491562 7.46906Q-0.780922 7.2884 -1.38151 6.87824Q-1.98209 6.46809 -2.30436 5.80891Q-2.62174 5.14973 -2.62174 4.18781Q-2.62174 3.26984 -2.25065 2.6302Q-1.87955 1.99055 -1.25944 1.60969Q-0.63932 1.22883 0.161461 1.06281Q0.962242 0.891914 1.82162 0.891914Q2.39779 0.891914 2.84701 0.940742Q3.30111 0.98957 3.57943 1.0677L3.57943 0.789375Q3.57943 0.0276561 3.12045 -0.431328Q2.66146 -0.890313 1.51888 -0.890313Q0.762047 -0.890313 0.0198593 -0.778008Q-0.722328 -0.670586 -1.25944 -0.470391L-1.6403 -2.86785Q-1.38151 -2.95086 -0.990883 -3.03875Q-0.600258 -3.13152 -0.141273 -3.19988Q0.317711 -3.26824 0.825523 -3.31707Q1.33822 -3.37078 1.86068 -3.37078ZM11.9978 7.43Q10.9822 5.42805 9.9275 2.75227Q8.87769 0.0716014 7.94019 -3.08758L11.0994 -3.08758Q11.2996 -2.31121 11.5681 -1.39813Q11.8416 -0.489922 12.1296 0.442695Q12.4177 1.37043 12.7058 2.24934Q12.9988 3.12824 13.282 3.8509Q13.5408 3.12824 13.8386 2.24934Q14.1414 1.37043 14.4295 0.442695Q14.7224 -0.489922 14.991 -1.39813Q15.2595 -2.31121 15.4597 -3.08758L18.5408 -3.08758Q17.5984 0.0716014 16.5486 2.75227Q15.4988 5.42805 14.4783 7.43L11.9978 7.43ZM29.4822 -3.08758Q28.5788 -0.0504689 27.5974 2.61066Q26.6208 5.2718 25.4587 7.7718Q25.0388 8.67023 24.6189 9.30012Q24.199 9.93 23.696 10.3402Q23.198 10.7503 22.5681 10.9407Q21.9382 11.1312 21.0984 11.1312Q20.4001 11.1312 19.8093 10.9993Q19.2185 10.8724 18.8376 10.7113L19.3601 8.32844Q19.8191 8.48957 20.1804 8.54816Q20.5417 8.61164 20.9421 8.61164Q21.738 8.61164 22.1677 8.18195Q22.6023 7.75227 22.9001 6.99055Q21.8796 4.98859 20.8591 2.49836Q19.8386 0.00812483 18.9402 -3.08758L22.0994 -3.08758Q22.2996 -2.31121 22.5681 -1.39813Q22.8415 -0.489922 23.1394 0.442695Q23.4421 1.37043 23.7497 2.24934Q24.0622 3.12824 24.3406 3.8509Q24.5994 3.12824 24.8777 2.24934Q25.1609 1.37043 25.4294 0.442695Q25.698 -0.489922 25.947 -1.39813Q26.2009 -2.31121 26.4011 -3.08758L29.4822 -3.08758Z"/>
</svg>
