<?xml version="1.0" encoding="utf-8" ?>
<svg xmlns="http://www.w3.org/2000/svg" xmlns:xlink="http://www.w3.org/1999/xlink" width="110" height="110">
	<path fill="#CFCFCF" transform="matrix(0.77186 1.2021 -1.2021 0.77186 55 47.8571)" d="M-9.07152 -6.32119Q0 -2.69258 9.07152 -6.32119L10 -4L7.91987 -5.38675Q9.99573 -8.50054 13.005 -8.68292Q15.7943 -8.85197 17.6706 -6.60046Q19.5189 -4.38246 18.9034 -1.74443Q18.2088 1.2323 14.7906 2.37171L14 0L14.7906 -2.37171Q18.2088 -1.2323 18.9034 1.74443Q19.5189 4.38246 17.6706 6.60046Q15.7943 8.85197 13.005 8.68292Q9.99573 8.50054 7.91987 5.38675L10 4L9.07152 6.32119Q0 2.69258 -9.07152 6.32119L-10 4L-7.91987 5.38675Q-9.99573 8.50054 -13.005 8.68292Q-15.7943 8.85197 -17.6706 6.60046Q-19.5189 4.38246 -18.9034 1.74443Q-18.2088 -1.2323 -14.7906 -2.37171L-14 0L-14.7906 2.37171Q-18.2088 1.2323 -18.9034 -1.74443Q-19.5189 -4.38246 -17.6706 -6.60046Q-15.7943 -8.85197 -13.005 -8.68292Q-9.99573 -8.50054 -7.91987 -5.38675L-10 -4L-9.07152 -6.32119ZM-10.9285 -1.67881Q-11.2806 -1.81968 -11.5752 -2.05866Q-11.8697 -2.29765 -12.0801 -2.61325Q-12.778 -3.65999 -13.3075 -3.69208Q-13.5723 -3.70813 -13.8294 -3.39954Q-14.084 -3.09411 -14.0341 -2.88057Q-13.975 -2.62688 -13.2094 -2.37171Q-12.9333 -2.27966 -12.6857 -2.12663Q-12.4381 -1.97359 -12.2322 -1.76777Q-12.0264 -1.56194 -11.8734 -1.31433Q-11.7203 -1.06672 -11.6283 -0.790569Q-11.5895 -0.674055 -11.5622 -0.554295Q-11.535 -0.434534 -11.5196 -0.312681Q-11.5043 -0.190829 -11.5009 -0.0680572Q-11.4976 0.0547144 -11.5063 0.177223Q-11.515 0.299731 -11.5357 0.420796Q-11.5563 0.54186 -11.5888 0.660316Q-11.6212 0.778772 -11.6651 0.893477Q-11.709 1.00818 -11.7639 1.11803Q-11.8189 1.22789 -11.8843 1.33182Q-11.9497 1.43576 -12.025 1.53279Q-12.1003 1.62981 -12.1848 1.71899Q-12.2692 1.80816 -12.362 1.88863Q-12.4548 1.9691 -12.555 2.04009Q-12.6552 2.11108 -12.7619 2.1719Q-12.8686 2.23273 -12.9808 2.2828Q-13.0929 2.33287 -13.2094 2.37171Q-13.975 2.62688 -14.0341 2.88057Q-14.084 3.09411 -13.8294 3.39954Q-13.5723 3.70813 -13.3075 3.69208Q-12.7779 3.65999 -12.0801 2.61325Q-11.8697 2.29765 -11.5752 2.05866Q-11.2806 1.81968 -10.9285 1.67881Q0 -2.69258 10.9285 1.67881Q11.2806 1.81968 11.5752 2.05866Q11.8697 2.29765 12.0801 2.61325Q12.778 3.65999 13.3075 3.69208Q13.5723 3.70813 13.8294 3.39954Q14.084 3.09411 14.0341 2.88057Q13.975 2.62688 13.2094 2.37171Q12.9333 2.27966 12.6857 2.12663Q12.4381 1.97359 12.2322 1.76777Q12.0264 1.56194 11.8734 1.31433Q11.7203 1.06672 11.6283 0.790569Q11.5895 0.674055 11.5622 0.554295Q11.535 0.434534 11.5196 0.312681Q11.5043 0.190829 11.5009 0.0680572Q11.4976 -0.0547144 11.5063 -0.177223Q11.515 -0.299731 11.5357 -0.420796Q11.5563 -0.54186 11.5888 -0.660316Q11.6212 -0.778772 11.6651 -0.893477Q11.709 -1.00818 11.7639 -1.11803Q11.8189 -1.22789 11.8843 -1.33182Q11.9497 -1.43576 12.025 -1.53279Q12.1003 -1.62981 12.1848 -1.71899Q12.2692 -1.80816 12.362 -1.88863Q12.4548 -1.9691 12.555 -2.04009Q12.6552 -2.11108 12.7619 -2.1719Q12.8686 -2.23273 12.9808 -2.2828Q13.0929 -2.33287 13.2094 -2.37171Q13.975 -2.62688 14.0341 -2.88057Q14.084 -3.09411 13.8294 -3.39954Q13.5723 -3.70813 13.3075 -3.69208Q12.7779 -3.65999 12.0801 -2.61325Q11.8697 -2.29765 11.5752 -2.05866Q11.2806 -1.81968 10.9285 -1.67881Q0 2.69258 -10.9285 -1.67881Z"/>
	<path fill="white" transform="matrix(0.77186 1.2021 -1.2021 0.77186 55 47.8571)" d="M-10 -4Q0 0 10 -4C14 -10 20 -2 14 0C20 2 14 10 10 4Q0 0 -10 4C-14 10 -20 2 -14 0C-20 -2 -14 -10 -10 -4Z"/>
	<path fill="none" stroke="black" stroke-width="2.3999999" stroke-linejoin="round" transform="translate(55 79.2857)" d="M-18.2993 7.61066Q-19.4418 7.61066 -20.5698 7.53742Q-21.6977 7.46906 -22.9184 7.21027L-22.9184 -6.23211Q-21.9614 -6.40789 -20.8237 -6.49578Q-19.6811 -6.58855 -18.6997 -6.58855Q-17.3813 -6.58855 -16.2729 -6.39813Q-15.1596 -6.2077 -14.3588 -5.74871Q-13.5581 -5.28973 -13.1088 -4.53777Q-12.6596 -3.7907 -12.6596 -2.69207Q-12.6596 -1.03191 -14.2612 -0.0700002Q-12.9379 0.428047 -12.4594 1.2923Q-11.9809 2.15168 -11.9809 3.23078Q-11.9809 5.40852 -13.5727 6.51203Q-15.1596 7.61066 -18.2993 7.61066ZM-19.8813 1.38996L-19.8813 4.96906Q-19.5395 5.00812 -19.1391 5.03254Q-18.7387 5.05207 -18.2602 5.05207Q-16.8588 5.05207 -15.9995 4.65168Q-15.1401 4.25129 -15.1401 3.17219Q-15.1401 2.21027 -15.8627 1.80012Q-16.5805 1.38996 -17.9184 1.38996L-19.8813 1.38996ZM-19.8813 -0.987969L-18.3579 -0.987969Q-16.9223 -0.987969 -16.3022 -1.35906Q-15.6821 -1.73016 -15.6821 -2.55047Q-15.6821 -3.39031 -16.3217 -3.72723Q-16.9614 -4.06902 -18.2016 -4.06902Q-18.602 -4.06902 -19.061 -4.05926Q-19.52 -4.04949 -19.8813 -4.01043L-19.8813 -0.987969ZM0.160248 2.15168Q0.160248 3.39191 -0.20108 4.42219Q-0.562408 5.44758 -1.24112 6.18Q-1.91983 6.91242 -2.87198 7.31281Q-3.81924 7.70832 -5.00089 7.70832Q-6.15811 7.70832 -7.11026 7.31281Q-8.06241 6.91242 -8.74112 6.18Q-9.41983 5.44758 -9.80069 4.42219Q-10.1815 3.39191 -10.1815 2.15168Q-10.1815 0.911445 -9.79092 -0.109063Q-9.4003 -1.12957 -8.71182 -1.84734Q-8.01846 -2.57 -7.0712 -2.97039Q-6.11905 -3.37078 -5.00089 -3.37078Q-3.85831 -3.37078 -2.91104 -2.97039Q-1.95889 -2.57 -1.28018 -1.84734Q-0.601471 -1.12957 -0.220612 -0.109063Q0.160248 0.911445 0.160248 2.15168ZM-2.88174 2.15168Q-2.88174 0.769844 -3.4335 -0.021172Q-3.98038 -0.812188 -5.00089 -0.812188Q-6.02139 -0.812188 -6.58292 -0.021172Q-7.13956 0.769844 -7.13956 2.15168Q-7.13956 3.52863 -6.58292 4.33918Q-6.02139 5.14973 -5.00089 5.14973Q-3.98038 5.14973 -3.4335 4.33918Q-2.88174 3.52863 -2.88174 2.15168ZM2.46136 -2.73113Q3.2182 -2.95086 4.41937 -3.14129Q5.62054 -3.33172 6.9389 -3.33172Q8.28168 -3.33172 9.17035 -2.98016Q10.059 -2.62859 10.5766 -1.98895Q11.0991 -1.3493 11.3188 -0.470391Q11.5385 0.408515 11.5385 1.48762L11.5385 7.43L8.56 7.43L8.56 1.84895Q8.56 0.408515 8.17914 -0.187188Q7.79828 -0.787774 6.75824 -0.787774Q6.44086 -0.787774 6.07953 -0.758477Q5.7182 -0.72918 5.43988 -0.690117L5.43988 7.43L2.46136 7.43L2.46136 -2.73113ZM13.7384 2.24934Q13.7384 0.847969 14.1681 -0.201836Q14.5978 -1.25164 15.296 -1.94988Q15.9992 -2.64813 16.9074 -3.00945Q17.8204 -3.37078 18.7824 -3.37078Q21.0187 -3.37078 22.3175 -1.99871Q23.6212 -0.631524 23.6212 2.02961Q23.6212 2.2884 23.6017 2.6009Q23.5822 2.90852 23.5578 3.14777L16.7999 3.14777Q16.8976 4.07062 17.6593 4.61262Q18.421 5.14973 19.7003 5.14973Q20.5206 5.14973 21.3068 5.00324Q22.0978 4.85187 22.6007 4.63215L23.0011 7.04914Q22.7619 7.17121 22.3615 7.29328Q21.9611 7.41047 21.4679 7.49836Q20.9796 7.59113 20.4181 7.64973Q19.8615 7.70832 19.2999 7.70832Q17.879 7.70832 16.8292 7.2884Q15.7794 6.86848 15.0861 6.14094Q14.3976 5.40852 14.0656 4.41242Q13.7384 3.41145 13.7384 2.24934ZM20.7404 1.11164Q20.7208 0.730781 20.6085 0.369453Q20.5011 0.00812483 20.2716 -0.270195Q20.0421 -0.548516 19.6906 -0.72918Q19.339 -0.909844 18.8214 -0.909844Q18.3185 -0.909844 17.9572 -0.738945Q17.6007 -0.568047 17.3615 -0.289727Q17.1222 -0.0114064 16.9904 0.359687Q16.8585 0.730781 16.7999 1.11164L20.7404 1.11164Z"/>
	<path fill="white" transform="translate(55 79.2857)" d="M-18.2993 7.61066Q-19.4418 7.61066 -20.5698 7.53742Q-21.6977 7.46906 -22.9184 7.21027L-22.9184 -6.23211Q-21.9614 -6.40789 -20.8237 -6.49578Q-19.6811 -6.58855 -18.6997 -6.58855Q-17.3813 -6.58855 -16.2729 -6.39813Q-15.1596 -6.2077 -14.3588 -5.74871Q-13.5581 -5.28973 -13.1088 -4.53777Q-12.6596 -3.7907 -12.6596 -2.69207Q-12.6596 -1.03191 -14.2612 -0.0700002Q-12.9379 0.428047 -12.4594 1.2923Q-11.9809 2.15168 -11.9809 3.23078Q-11.9809 5.40852 -13.5727 6.51203Q-15.1596 7.61066 -18.2993 7.61066ZM-19.8813 1.38996L-19.8813 4.96906Q-19.5395 5.00812 -19.1391 5.03254Q-18.7387 5.05207 -18.2602 5.05207Q-16.8588 5.05207 -15.9995 4.65168Q-15.1401 4.25129 -15.1401 3.17219Q-15.1401 2.21027 -15.8627 1.80012Q-16.5805 1.38996 -17.9184 1.38996L-19.8813 1.38996ZM-19.8813 -0.987969L-18.3579 -0.987969Q-16.9223 -0.987969 -16.3022 -1.35906Q-15.6821 -1.73016 -15.6821 -2.55047Q-15.6821 -3.39031 -16.3217 -3.72723Q-16.9614 -4.06902 -18.2016 -4.06902Q-18.602 -4.06902 -19.061 -4.05926Q-19.52 -4.04949 -19.8813 -4.01043L-19.8813 -0.987969ZM0.160248 2.15168Q0.160248 3.39191 -0.20108 4.42219Q-0.562408 5.44758 -1.24112 6.18Q-1.91983 6.91242 -2.87198 7.31281Q-3.81924 7.70832 -5.00089 7.70832Q-6.15811 7.70832 -7.11026 7.31281Q-8.06241 6.91242 -8.74112 6.18Q-9.41983 5.44758 -9.80069 4.42219Q-10.1815 3.39191 -10.1815 2.15168Q-10.1815 0.911445 -9.79092 -0.109063Q-9.4003 -1.12957 -8.71182 -1.84734Q-8.01846 -2.57 -7.0712 -2.97039Q-6.11905 -3.37078 -5.00089 -3.37078Q-3.85831 -3.37078 -2.91104 -2.97039Q-1.95889 -2.57 -1.28018 -1.84734Q-0.601471 -1.12957 -0.220612 -0.109063Q0.160248 0.911445 0.160248 2.15168ZM-2.88174 2.15168Q-2.88174 0.769844 -3.4335 -0.021172Q-3.98038 -0.812188 -5.00089 -0.812188Q-6.02139 -0.812188 -6.58292 -0.021172Q-7.13956 0.769844 -7.13956 2.15168Q-7.13956 3.52863 -6.58292 4.33918Q-6.02139 5.14973 -5.00089 5.14973Q-3.98038 5.14973 -3.4335 4.33918Q-2.88174 3.52863 -2.88174 2.15168ZM2.46136 -2.73113Q3.2182 -2.95086 4.41937 -3.14129Q5.62054 -3.33172 6.9389 -3.33172Q8.28168 -3.33172 9.17035 -2.98016Q10.059 -2.62859 10.5766 -1.98895Q11.0991 -1.3493 11.3188 -0.470391Q11.5385 0.408515 11.5385 1.48762L11.5385 7.43L8.56 7.43L8.56 1.84895Q8.56 0.408515 8.17914 -0.187188Q7.79828 -0.787774 6.75824 -0.787774Q6.44086 -0.787774 6.07953 -0.758477Q5.7182 -0.72918 5.43988 -0.690117L5.43988 7.43L2.46136 7.43L2.46136 -2.73113ZM13.7384 2.24934Q13.7384 0.847969 14.1681 -0.201836Q14.5978 -1.25164 15.296 -1.94988Q15.9992 -2.64813 16.9074 -3.00945Q17.8204 -3.37078 18.7824 -3.37078Q21.0187 -3.37078 22.3175 -1.99871Q23.6212 -0.631524 23.6212 2.02961Q23.6212 2.2884 23.6017 2.6009Q23.5822 2.90852 23.5578 3.14777L16.7999 3.14777Q16.8976 4.07062 17.6593 4.61262Q18.421 5.14973 19.7003 5.14973Q20.5206 5.14973 21.3068 5.00324Q22.0978 4.85187 22.6007 4.63215L23.0011 7.04914Q22.7619 7.17121 22.3615 7.29328Q21.9611 7.41047 21.4679 7.49836Q20.9796 7.59113 20.4181 7.64973Q19.8615 7.70832 19.2999 7.70832Q17.879 7.70832 16.8292 7.2884Q15.7794 6.86848 15.0861 6.14094Q14.3976 5.40852 14.0656 4.41242Q13.7384 3.41145 13.7384 2.24934ZM20.7404 1.11164Q20.7208 0.730781 20.6085 0.369453Q20.5011 0.00812483 20.2716 -0.270195Q20.0421 -0.548516 19.6906 -0.72918Q19.339 -0.909844 18.8214 -0.909844Q18.3185 -0.909844 17.9572 -0.738945Q17.6007 -0.568047 17.3615 -0.289727Q17.1222 -0.0114064 16.9904 0.359687Q16.8585 0.730781 16.7999 1.11164L20.7404 1.11164Z"/>
</svg>
