<svg xmlns="http://www.w3.org/2000/svg" width="110" height="110"><path fill="#277e33" d="m41.973 59.297-6.393 4.105q-.107.069-.22.127-.114.057-.232.104t-.24.081q-.123.035-.248.057-.125.023-.252.033t-.254.008q-.127-.003-.253-.017t-.25-.042-.246-.066q-.12-.04-.237-.09-.117-.051-.228-.113-.11-.062-.215-.134t-.201-.155q-.097-.083-.185-.174-.089-.092-.168-.192-.078-.1-.147-.206-.069-.107-.127-.22-.057-.114-.104-.232t-.081-.24q-.035-.123-.057-.248-.023-.125-.033-.252t-.008-.254q.003-.127.017-.253t.042-.25.066-.246q.04-.12.09-.237.051-.117.113-.228.062-.11.134-.215t.155-.201q.083-.097.174-.185.092-.089.192-.167.1-.08.206-.148l6.394-4.105q.107-.069.22-.127t.231-.104.24-.081.248-.057.252-.033.254-.008.253.017.25.042.246.066.237.09.228.113.215.134q.105.073.202.155.096.083.185.174.088.092.167.192t.147.206.127.22q.058.114.104.232.047.118.081.24.035.123.058.248.022.125.032.252t.008.254-.017.253-.042.25-.066.246q-.04.12-.09.237t-.113.228-.134.215q-.073.105-.155.201-.083.097-.174.185-.092.089-.191.167-.1.08-.207.148"/><path fill="#277e33" fill-rule="evenodd" d="M38.618 58.376q1.55 6.99 3.558 9.925 3.338 4.884 8.048 5.086.125.006.25.002t.25-.017.247-.034.244-.052.24-.07.234-.087q.116-.048.228-.104t.219-.12q.107-.063.21-.135.103-.071.2-.15t.188-.164q.091-.086.176-.178t.162-.19q.078-.097.149-.2t.133-.212.118-.22q.076.118.162.23.085.111.18.216.094.104.197.2.102.097.213.184.11.088.227.166.116.079.24.147.122.069.25.127.128.059.26.106.133.048.269.085t.274.062q.138.026.278.04t.281.017.281-.006q.14-.008.28-.028t.276-.052q.138-.031.272-.073l.414-.13q3.218-1.007 4.995-2.301.129-.094.248-.2.12-.104.23-.22.108-.116.207-.241.098-.126.184-.26t.16-.275.134-.289.106-.3.079-.308.05-.315.02-.317q.003-.16-.008-.318-.012-.16-.038-.316-.027-.157-.067-.311t-.096-.304-.123-.294-.15-.28q.097.08.199.153.102.072.208.138.107.065.219.123.11.057.226.107.115.049.234.09.118.04.24.072.12.032.243.056.123.023.248.037.124.014.25.02.125.005.25 0 .125-.003.25-.016.124-.013.247-.035.124-.022.245-.053.122-.03.24-.07.12-.04.235-.088t.227-.104q2.587-1.303 5.3-4.91.098-.13.183-.268t.156-.283.13-.297.1-.307.072-.316q.028-.16.041-.32.014-.162.012-.324t-.02-.323-.048-.32-.08-.314-.107-.305-.136-.294q-.075-.143-.163-.28-.088-.135-.189-.262-.1-.127-.212-.245t-.234-.223q.501.043.994-.06.493-.102.936-.34 4.145-2.234 5.425-7.534.08-.33.094-.67t-.039-.675-.17-.655-.294-.61-.408-.539-.505-.45-.583-.343q-.308-.142-.639-.222-.091-.022-.184-.04.442-.17.82-.453.38-.283.67-.657 1.829-2.372 1.276-5.878-.385-2.441-1.72-4.52t-3.394-3.444q-2.959-1.963-5.877-1.285-.46.107-.875.334t-.753.557q.065-.258.09-.524t.008-.533-.074-.527q-.058-.26-.155-.51-.123-.316-.305-.603-.183-.286-.418-.532-.235-.245-.513-.44-.279-.195-.59-.332-.352-.155-.729-.228-5.352-1.043-9.11 1.798-.4.303-.699.709t-.468.88q-.045-.156-.105-.307-.06-.15-.134-.294-.074-.145-.16-.281-.088-.137-.187-.265-.1-.128-.21-.246-.112-.118-.233-.225t-.253-.202q-.13-.095-.27-.178t-.286-.152-.299-.124q-.152-.055-.309-.095-.157-.041-.317-.067-.16-.025-.321-.036-.162-.01-.324-.006t-.322.024-.32.055q-4.409.966-6.669 2.775-.098.079-.19.164t-.177.177q-.086.091-.164.19-.079.097-.15.2-.072.103-.135.21-.064.109-.12.221t-.103.228q-.047.116-.086.236t-.069.24-.05.246-.034.248-.015.25.003.25.02.25q.016.124.04.247t.057.244q-.09-.13-.193-.253-.103-.122-.216-.234t-.236-.213-.255-.19-.272-.167-.286-.14-.297-.114-.307-.086-.313-.057-.317-.028q-.16-.007-.319.001t-.317.03q-.157.024-.312.06-.155.038-.306.09-.151.05-.297.115-.145.065-.284.143-1.916 1.078-4.171 3.585l-.29.322q-.095.105-.18.216-.086.112-.162.23t-.143.243-.122.253q-.056.13-.101.262-.046.134-.08.27-.034.137-.057.275-.023.14-.035.28t-.012.28.011.281.034.28q.023.138.057.275.033.137.078.27t.1.263q.056.129.122.253.066.125.142.243-.294.008-.582.065t-.563.162-.527.255-.476.34q-.317.27-.56.607t-.4.722q-1.775 4.368 1.275 9.433 1.834 3.046 7.545 7.366m7.687 2.263q.873-2.345 3.021-3.29 2.365-1.04 4.293.136.414-1.562 1.66-2.755 1.426-1.364 2.978-1.628-.16-1.401.541-2.884 1.786-3.774 6.03-3.62-.182-.889-.069-1.941.546-5.102 8.054-6.396-.19-.767-.624-1.441-.432-.674-1.05-1.167-4.301 6.288-9.169 4.662-1.003-.335-1.735-.87-1.627 3.923-5.801 3.975-1.64.02-2.847-.707-.886 1.301-2.72 2.03-1.604.637-3.196.363.266 2.243-1.663 3.96-1.753 1.56-4.248 1.379 1.583 1.384 3.957 3.123l.043.032q.257.188.475.42t.39.5q.171.267.291.562t.184.606l.008.039q.595 2.891 1.197 4.912"/><path fill="#319e40" d="M45.024 66.354c1.8 2.633 3.548 3.509 5.348 3.586-1.648-3.535-1.695-8.536.343-9.432s3.337 3.217 5.657 9.078c1.674-.529 2.976-.88 4.417-1.93-2.438-3.812-5.322-8.328-3.123-10.434 2.2-2.105 5.04 1.612 8.3 6.024 1.458-.735 2.691-2.037 4.096-3.903-4.414-3.348-9.382-5.031-8.144-7.65 1.239-2.62 4.764-2.102 10.698 1.606 2.11-1.137 3.25-3.411 3.708-5.306-5.178-.077-8.392-.569-8.134-2.968s3.773-3.352 7.517-3.644c1.34-1.736.466-4.743-.614-6.425-1.08-1.683-3.452-3.729-5.587-3.233-1.824 3.283-4.153 6.084-6.442 5.32-2.289-.765-1.398-3.892.687-8.632-1.915-.374-4.457-.283-6.368 1.163.903 6.94-.095 10.36-2.992 10.396s-2.36-5.182-3.567-10.588c-2.282.5-3.979 1.08-5.253 2.1 2.655 4.8 4.852 8.93 2.023 10.054s-5.735-3.38-8.188-7.183c-1.555.874-2.416 1.912-3.593 3.214 4.364 4.55 7.564 7.442 5.9 8.922-1.662 1.48-6.19-.643-8.719-3.614-.678 1.67-.61 3.624 1.035 6.355 1.644 2.73 4.822 5.051 7.692 7.154.717 3.484 1.505 7.34 3.303 9.97"/><path fill="#277e33" d="M60.853 46.1q-9.126 3.354-14.352 9.19-.057.064-.12.121-.062.057-.13.108-.067.051-.14.095-.072.044-.148.081-.077.037-.157.066t-.161.05-.166.034-.169.018q-.084.004-.169 0-.085-.003-.168-.015-.084-.012-.167-.032-.082-.02-.162-.048t-.157-.064-.15-.079-.141-.093-.132-.107-.12-.119-.108-.13-.095-.14-.081-.15q-.037-.075-.066-.155t-.05-.162q-.02-.082-.034-.166-.013-.084-.018-.168-.004-.085 0-.17.003-.084.015-.168t.032-.166q.02-.083.048-.163t.064-.156.079-.15.093-.142.107-.131q5.8-6.478 15.733-10.128.08-.029.161-.05.083-.021.166-.035.084-.013.169-.018.084-.004.169-.001t.169.015.166.032q.082.02.162.048.08.027.157.063t.15.079.142.092.132.107.12.119q.058.062.109.13.051.067.095.14.044.072.081.148t.067.156.05.162.034.165.019.169.001.17-.015.168-.032.166-.048.162-.063.157-.079.15-.093.142-.106.132-.119.12-.13.11q-.067.05-.14.094-.072.045-.148.081t-.156.067"/><path fill="none" stroke="#000" stroke-linejoin="round" stroke-width="1.886" d="M23.18 74.232q.283.522.651 1.285.372.76.771 1.65.4.886.79 1.814.396.925.741 1.742.35-.817.74-1.742.392-.928.79-1.814.404-.89.772-1.65.372-.763.652-1.285h2.233q.157 1.085.292 2.432.134 1.343.234 2.797.103 1.45.188 2.912.088 1.461.15 2.75h-2.387q-.05-1.588-.127-3.456-.076-1.872-.234-3.771l-.629 1.461q-.345.802-.686 1.604-.338.798-.653 1.53l-.533 1.251h-1.711l-.537-1.25-.649-1.531q-.337-.802-.686-1.604-.346-.802-.626-1.461-.157 1.899-.237 3.77-.077 1.87-.127 3.458h-2.386q.061-1.29.145-2.751.089-1.462.188-2.912.104-1.454.238-2.797.134-1.347.292-2.432zm18.77 6.744q0 .975-.285 1.784-.284.806-.817 1.381-.533.576-1.281.89-.745.311-1.673.311-.91 0-1.657-.31-.748-.315-1.282-.89-.533-.576-.832-1.382-.3-.81-.3-1.784t.307-1.776.848-1.366q.545-.568 1.29-.882.748-.315 1.626-.315.898 0 1.642.315.748.314 1.281.882.534.564.833 1.366.3.802.3 1.776Zm-2.39 0q0-1.085-.434-1.707-.43-.621-1.232-.621t-1.243.621q-.437.622-.437 1.707 0 1.082.437 1.72.441.636 1.243.636t1.232-.637q.433-.637.433-1.719Zm4.19-3.836q.595-.173 1.539-.322t1.98-.15q1.055 0 1.753.276t1.105.779q.41.503.583 1.193t.173 1.539v4.669h-2.34v-4.386q0-1.131-.3-1.6-.3-.471-1.116-.471-.25 0-.534.023t-.502.053v6.38h-2.34zm11.62 6.303q.645 0 .91-.126.268-.127.268-.488 0-.284-.345-.495-.345-.21-1.051-.48-.549-.202-.998-.421-.448-.223-.763-.53t-.487-.729q-.173-.425-.173-1.02 0-1.166.863-1.842.867-.675 2.375-.675.752 0 1.443.135.694.134 1.1.291l-.406 1.822q-.41-.142-.89-.249-.476-.111-1.074-.111-1.101 0-1.101.61 0 .142.046.253.05.111.192.215.142.1.383.219.242.115.622.257.767.283 1.27.56.506.272.794.594.291.323.41.718.12.391.12.909 0 1.228-.922 1.857-.92.625-2.6.625-1.102 0-1.835-.188-.728-.188-1.009-.314l.392-1.9q.598.235 1.224.369.629.134 1.243.134Zm5.165-8.643 2.344-.376v2.436h2.812v1.945H62.88v2.908q0 .74.257 1.182.261.437 1.048.437.376 0 .775-.07.403-.072.732-.199l.33 1.827q-.425.172-.943.295-.518.127-1.274.127-.96 0-1.588-.257-.626-.261-1.006-.726-.376-.464-.525-1.124t-.15-1.461zm6.658 6.253q0-1.101.337-1.926.338-.825.887-1.373.552-.549 1.266-.833.717-.284 1.473-.284 1.757 0 2.777 1.078 1.025 1.075 1.025 3.165 0 .204-.016.45-.015.241-.034.429h-5.31q.077.725.675 1.15.599.423 1.604.423.645 0 1.262-.115.622-.12 1.017-.292l.315 1.9q-.188.095-.503.191-.314.092-.702.161-.384.073-.825.12-.437.045-.878.045-1.117 0-1.942-.33t-1.37-.901q-.54-.576-.801-1.358-.257-.787-.257-1.7Zm5.501-.894q-.015-.3-.103-.583-.085-.284-.265-.503-.18-.218-.456-.36-.277-.142-.683-.142-.396 0-.68.134-.28.134-.468.353-.187.219-.291.51t-.15.591zm9.044-1.228q-.314-.076-.74-.16-.422-.089-.91-.089-.218 0-.525.038-.307.039-.464.085v6.319h-2.34v-7.827q.629-.219 1.484-.414.856-.2 1.907-.2.192 0 .457.027.268.023.533.062.269.038.533.095.269.054.46.13zm4.805 4.558q.345 0 .66-.015.314-.015.502-.046v-1.776q-.142-.031-.426-.062-.28-.034-.517-.034-.33 0-.622.042-.288.038-.51.15-.219.107-.345.295-.123.188-.123.472 0 .548.368.763.368.211 1.013.211Zm-.188-6.852q1.036 0 1.726.238.695.234 1.109.675.418.438.59 1.067.173.629.173 1.4v4.873q-.502.107-1.4.257-.894.15-2.167.15-.802 0-1.454-.143-.653-.142-1.125-.464t-.725-.84q-.25-.518-.25-1.274 0-.721.293-1.224.291-.502.778-.802.488-.299 1.117-.43.629-.134 1.304-.134.453 0 .806.039.357.038.575.1v-.22q0-.598-.36-.958-.361-.36-1.259-.36-.594 0-1.177.087-.584.085-1.006.242l-.299-1.884q.203-.065.51-.134.307-.073.668-.126.36-.054.76-.093.402-.042.813-.042Z"/><path fill="#fff" d="M23.18 74.232q.283.522.651 1.285.372.76.771 1.65.4.886.79 1.814.396.925.741 1.742.35-.817.74-1.742.392-.928.79-1.814.404-.89.772-1.65.372-.763.652-1.285h2.233q.157 1.085.292 2.432.134 1.343.234 2.797.103 1.45.188 2.912.088 1.461.15 2.75h-2.387q-.05-1.588-.127-3.456-.076-1.872-.234-3.771l-.629 1.461q-.345.802-.686 1.604-.338.798-.653 1.53l-.533 1.251h-1.711l-.537-1.25-.649-1.531q-.337-.802-.686-1.604-.346-.802-.626-1.461-.157 1.899-.237 3.77-.077 1.87-.127 3.458h-2.386q.061-1.29.145-2.751.089-1.462.188-2.912.104-1.454.238-2.797.134-1.347.292-2.432zm18.77 6.744q0 .975-.285 1.784-.284.806-.817 1.381-.533.576-1.281.89-.745.311-1.673.311-.91 0-1.657-.31-.748-.315-1.282-.89-.533-.576-.832-1.382-.3-.81-.3-1.784t.307-1.776.848-1.366q.545-.568 1.29-.882.748-.315 1.626-.315.898 0 1.642.315.748.314 1.281.882.534.564.833 1.366.3.802.3 1.776m-2.39 0q0-1.085-.434-1.707-.43-.621-1.232-.621t-1.243.621q-.437.622-.437 1.707 0 1.082.437 1.72.441.636 1.243.636t1.232-.637q.433-.637.433-1.719m4.19-3.836q.595-.173 1.539-.322t1.98-.15q1.055 0 1.753.276t1.105.779q.41.503.583 1.193t.173 1.539v4.669h-2.34v-4.386q0-1.131-.3-1.6-.3-.471-1.116-.471-.25 0-.534.023t-.502.053v6.38h-2.34zm11.62 6.303q.645 0 .91-.126.268-.127.268-.488 0-.284-.345-.495-.345-.21-1.051-.48-.549-.202-.998-.421-.448-.223-.763-.53t-.487-.729q-.173-.425-.173-1.02 0-1.166.863-1.842.867-.675 2.375-.675.752 0 1.443.135.694.134 1.1.291l-.406 1.822q-.41-.142-.89-.249-.476-.111-1.074-.111-1.101 0-1.101.61 0 .142.046.253.05.111.192.215.142.1.383.219.242.115.622.257.767.283 1.27.56.506.272.794.594.291.323.41.718.12.391.12.909 0 1.228-.922 1.857-.92.625-2.6.625-1.102 0-1.835-.188-.728-.188-1.009-.314l.392-1.9q.598.235 1.224.369.629.134 1.243.134m5.165-8.643 2.344-.376v2.436h2.812v1.945H62.88v2.908q0 .74.257 1.182.261.437 1.048.437.376 0 .775-.07.403-.072.732-.199l.33 1.827q-.425.172-.943.295-.518.127-1.274.127-.96 0-1.588-.257-.626-.261-1.006-.726-.376-.464-.525-1.124t-.15-1.461zm6.658 6.253q0-1.101.337-1.926.338-.825.887-1.373.552-.549 1.266-.833.717-.284 1.473-.284 1.757 0 2.777 1.078 1.025 1.075 1.025 3.165 0 .204-.016.45-.015.241-.034.429h-5.31q.077.725.675 1.15.599.423 1.604.423.645 0 1.262-.115.622-.12 1.017-.292l.315 1.9q-.188.095-.503.191-.314.092-.702.161-.384.073-.825.12-.437.045-.878.045-1.117 0-1.942-.33t-1.37-.901q-.54-.576-.801-1.358-.257-.787-.257-1.7m5.501-.894q-.015-.3-.103-.583-.085-.284-.265-.503-.18-.218-.456-.36-.277-.142-.683-.142-.396 0-.68.134-.28.134-.468.353-.187.219-.291.51t-.15.591zm9.044-1.228q-.314-.076-.74-.16-.422-.089-.91-.089-.218 0-.525.038-.307.039-.464.085v6.319h-2.34v-7.827q.629-.219 1.484-.414.856-.2 1.907-.2.192 0 .457.027.268.023.533.062.269.038.533.095.269.054.46.13zm4.805 4.558q.345 0 .66-.015.314-.015.502-.046v-1.776q-.142-.031-.426-.062-.28-.034-.517-.034-.33 0-.622.042-.288.038-.51.15-.219.107-.345.295-.123.188-.123.472 0 .548.368.763.368.211 1.013.211m-.188-6.852q1.036 0 1.726.238.695.234 1.109.675.418.438.59 1.067.173.629.173 1.4v4.873q-.502.107-1.4.257-.894.15-2.167.15-.802 0-1.454-.143-.653-.142-1.125-.464t-.725-.84q-.25-.518-.25-1.274 0-.721.293-1.224.291-.502.778-.802.488-.299 1.117-.43.629-.134 1.304-.134.453 0 .806.039.357.038.575.1v-.22q0-.598-.36-.958-.361-.36-1.259-.36-.594 0-1.177.087-.584.085-1.006.242l-.299-1.884q.203-.065.51-.134.307-.073.668-.126.36-.054.76-.093.402-.042.813-.042"/></svg>