<?xml version="1.0" encoding="utf-8" ?>
<svg xmlns="http://www.w3.org/2000/svg" xmlns:xlink="http://www.w3.org/1999/xlink" width="110" height="110">
	<path fill="#4D2621" transform="matrix(1.42143 0.142619 -0.142619 1.42143 55 47.8571)" d="M-14 -4Q8 -16 18 6L8 0L12 10Q-2 -2 -14 4Q-12 0 -14 -4Z"/>
	<path fill="#3E1F1B" transform="matrix(1.42143 0.142619 -0.142619 1.42143 55 47.8571)" d="M-14.9577 -5.75579Q-3.21306 -12.162 5.59655 -9.40896Q14.4505 -6.6421 19.8207 5.17239Q19.8614 5.26184 19.8931 5.35484Q19.9248 5.44784 19.9472 5.5435Q19.9696 5.63916 19.9826 5.73656Q19.9955 5.83396 19.9988 5.93216Q20.0022 6.03035 19.9959 6.1284Q19.9896 6.22646 19.9737 6.32342Q19.9578 6.42038 19.9325 6.51531Q19.9072 6.61025 19.8727 6.70225Q19.8382 6.79424 19.7948 6.88242Q19.7515 6.97059 19.6997 7.05409Q19.6479 7.13759 19.5882 7.21561Q19.5285 7.29363 19.4614 7.36543Q19.3943 7.43722 19.3205 7.50209Q19.2467 7.56696 19.1669 7.62429Q19.0871 7.68162 19.0021 7.73085Q18.9171 7.78008 18.8276 7.82073Q18.6064 7.92126 18.3676 7.96592Q18.1288 8.01058 17.8863 7.99676Q17.6437 7.98295 17.4115 7.91146Q17.1793 7.83998 16.971 7.71499L6.97101 1.71499L8 0L9.85695 -0.742781L13.857 9.25722Q13.8934 9.34845 13.9208 9.44281Q13.9482 9.53717 13.9662 9.63376Q13.9842 9.73036 13.9926 9.82825Q14.001 9.92614 13.9999 10.0244Q13.9987 10.1226 13.9878 10.2203Q13.977 10.3179 13.9567 10.4141Q13.9363 10.5102 13.9067 10.6039Q13.877 10.6975 13.8383 10.7878Q13.7996 10.8781 13.7522 10.9642Q13.7048 11.0503 13.6493 11.1313Q13.5937 11.2124 13.5304 11.2875Q13.4672 11.3627 13.3969 11.4314Q13.3265 11.5 13.2498 11.5614Q13.1731 11.6228 13.0908 11.6764Q13.0084 11.7299 12.9212 11.7752Q12.834 11.8205 12.7428 11.857Q12.6162 11.9076 12.4839 11.9406Q12.3516 11.9736 12.216 11.9883Q12.0805 12.003 11.9442 11.9992Q11.8079 11.9954 11.6734 11.9731Q11.5388 11.9509 11.4086 11.9106Q11.2783 11.8702 11.1547 11.8126Q11.0312 11.755 10.9166 11.6811Q10.8019 11.6072 10.6984 11.5185Q-2.29332 0.382736 -13.1056 5.78885Q-13.1935 5.8328 -13.2852 5.86791Q-13.377 5.90302 -13.4717 5.92898Q-13.5665 5.95493 -13.6634 5.97147Q-13.7602 5.988 -13.8582 5.99497Q-13.9562 6.00193 -14.0544 5.99926Q-14.1527 5.99658 -14.2501 5.98429Q-14.3476 5.97201 -14.4434 5.95022Q-14.5392 5.92844 -14.6325 5.89737Q-14.7257 5.8663 -14.8154 5.82624Q-14.9051 5.78618 -14.9905 5.73752Q-15.0758 5.68886 -15.156 5.63207Q-15.2362 5.57528 -15.3104 5.51091Q-15.3846 5.44653 -15.4522 5.37519Q-15.5197 5.30385 -15.58 5.22623Q-15.6402 5.14861 -15.6926 5.06546Q-15.7449 4.98231 -15.7889 4.89443Q-15.893 4.68614 -15.9465 4.45951Q-16 4.23287 -16 4Q-16 3.76713 -15.9465 3.54049Q-15.893 3.31386 -15.7889 3.10557Q-14.2361 1.66893e-06 -15.7889 -3.10557Q-15.8318 -3.19145 -15.8663 -3.28105Q-15.9008 -3.37065 -15.9266 -3.46314Q-15.9524 -3.55564 -15.9692 -3.65017Q-15.986 -3.74471 -15.9936 -3.84042Q-16.0013 -3.93613 -15.9997 -4.03214Q-15.9982 -4.12814 -15.9875 -4.22356Q-15.9767 -4.31897 -15.9569 -4.41292Q-15.9371 -4.50687 -15.9084 -4.59849Q-15.8796 -4.69011 -15.8422 -4.77855Q-15.8049 -4.86699 -15.7592 -4.95145Q-15.7135 -5.03591 -15.66 -5.1156Q-15.6064 -5.19529 -15.5454 -5.26949Q-15.4845 -5.34368 -15.4167 -5.4117Q-15.349 -5.47971 -15.275 -5.54092Q-15.201 -5.60213 -15.1215 -5.65597Q-15.042 -5.70981 -14.9577 -5.75579ZM-13.0423 -2.24421L-14 -4L-12.2111 -4.89443Q-9.76393 0 -12.2111 4.89443L-14 4L-14.8944 2.21115Q-1.70667 -4.38274 13.3016 8.48149L12 10L10.143 10.7428L6.14305 0.742781Q6.05716 0.528067 6.02254 0.29942Q5.98792 0.0707722 6.00639 -0.159743Q6.02486 -0.390258 6.09545 -0.610475Q6.16604 -0.830693 6.28501 -1.02899Q6.33557 -1.11324 6.39413 -1.19213Q6.4527 -1.27103 6.51871 -1.3438Q6.58473 -1.41657 6.65756 -1.48252Q6.73039 -1.54847 6.80934 -1.60696Q6.88828 -1.66545 6.97258 -1.71593Q7.05688 -1.7664 7.14572 -1.80837Q7.23456 -1.85034 7.32708 -1.8834Q7.41961 -1.91645 7.51493 -1.94028Q7.61025 -1.96411 7.70745 -1.97849Q7.80464 -1.99286 7.90278 -1.99764Q8.00092 -2.00241 8.09905 -1.99755Q8.19718 -1.99268 8.29437 -1.97822Q8.39155 -1.96376 8.48685 -1.93984Q8.58215 -1.91592 8.67464 -1.88278Q8.76714 -1.84964 8.85594 -1.80759Q8.94474 -1.76554 9.02899 -1.71499L19.029 4.28501L18 6L16.1793 6.82761Q11.5495 -3.3579 4.40345 -5.59104Q-2.78694 -7.83804 -13.0423 -2.24421Z"/>
	<path fill="none" stroke="black" stroke-width="2.3999999" stroke-linejoin="round" transform="translate(55 79.2857)" d="M-15.0901 7.70832Q-18.469 7.70832 -20.2414 5.82844Q-22.009 3.94855 -22.009 0.491523Q-22.009 -1.23211 -21.4719 -2.57977Q-20.9299 -3.9323 -19.9924 -4.86004Q-19.05 -5.78777 -17.7512 -6.26629Q-16.4524 -6.74969 -14.9289 -6.74969Q-14.05 -6.74969 -13.3322 -6.61785Q-12.6096 -6.4909 -12.0725 -6.32Q-11.5305 -6.1491 -11.1692 -5.96844Q-10.8078 -5.78777 -10.6516 -5.69012L-11.55 -3.17059Q-12.1897 -3.51238 -13.0393 -3.75164Q-13.8889 -3.9909 -14.968 -3.9909Q-15.6906 -3.9909 -16.3791 -3.75164Q-17.0676 -3.51238 -17.5998 -2.98016Q-18.132 -2.44793 -18.4543 -1.60809Q-18.7717 -0.768242 -18.7717 0.428047Q-18.7717 1.38996 -18.5617 2.22004Q-18.3518 3.05012 -17.883 3.6507Q-17.4094 4.25129 -16.6526 4.60285Q-15.8908 4.94953 -14.8117 4.94953Q-14.1281 4.94953 -13.591 4.87141Q-13.049 4.7884 -12.6291 4.68098Q-12.2092 4.56867 -11.8918 4.43195Q-11.5695 4.29035 -11.3108 4.16828L-10.4514 6.66828Q-11.1106 7.06867 -12.3117 7.39094Q-13.508 7.70832 -15.0901 7.70832ZM-4.4494 7.6302Q-5.74823 7.61066 -6.55878 7.35187Q-7.36932 7.0882 -7.84296 6.61945Q-8.31171 6.1507 -8.4826 5.48176Q-8.64862 4.80793 -8.64862 3.96809L-8.64862 -7.60906L-5.6701 -8.08758L-5.6701 3.37238Q-5.6701 3.76789 -5.61151 4.09016Q-5.54803 4.41242 -5.38202 4.63215Q-5.21112 4.85187 -4.89374 4.99348Q-4.57147 5.1302 -4.02948 5.16926L-4.4494 7.6302ZM1.68993 5.34992Q2.12938 5.34992 2.52977 5.33039Q2.93016 5.31086 3.16942 5.2718L3.16942 3.01105Q2.98875 2.97199 2.62743 2.93293Q2.27098 2.88898 1.96825 2.88898Q1.54832 2.88898 1.17723 2.9427Q0.81102 2.99152 0.527817 3.13312Q0.249496 3.26984 0.0883636 3.5091Q-0.0678864 3.74836 -0.0678864 4.10969Q-0.0678864 4.80793 0.400864 5.08137Q0.869614 5.34992 1.68993 5.34992ZM1.45067 -3.37078Q2.76903 -3.37078 3.64793 -3.06805Q4.53172 -2.7702 5.05907 -2.20867Q5.59129 -1.65203 5.81102 -0.85125Q6.03075 -0.0504689 6.03075 0.930976L6.03075 7.13215Q5.3911 7.26887 4.24852 7.4593Q3.11082 7.64973 1.48973 7.64973Q0.469223 7.64973 -0.360855 7.46906Q-1.19093 7.2884 -1.79152 6.87824Q-2.39211 6.46809 -2.71437 5.80891Q-3.03175 5.14973 -3.03175 4.18781Q-3.03175 3.26984 -2.66066 2.6302Q-2.28957 1.99055 -1.66945 1.60969Q-1.04933 1.22883 -0.24855 1.06281Q0.552231 0.891914 1.41161 0.891914Q1.98778 0.891914 2.437 0.940742Q2.8911 0.98957 3.16942 1.0677L3.16942 0.789375Q3.16942 0.0276561 2.71043 -0.431328Q2.25145 -0.890313 1.10887 -0.890313Q0.352036 -0.890313 -0.390152 -0.778008Q-1.13234 -0.670586 -1.66945 -0.470391L-2.05031 -2.86785Q-1.79152 -2.95086 -1.40089 -3.03875Q-1.01027 -3.13152 -0.551285 -3.19988Q-0.0923004 -3.26824 0.415512 -3.31707Q0.928207 -3.37078 1.45067 -3.37078ZM15.1278 1.38996Q14.7323 2.90852 14.2782 4.41242Q13.829 5.91145 13.331 7.43L11.0116 7.43Q10.6503 6.59016 10.2304 5.43293Q9.81046 4.27082 9.36124 2.90363Q8.91202 1.53156 8.43839 0.00324202Q7.96964 -1.52996 7.53018 -3.08758L10.6698 -3.08758Q10.831 -2.3698 11.0214 -1.5202Q11.2118 -0.670586 11.4218 0.232734Q11.6317 1.13117 11.8612 2.03937Q12.0907 2.94758 12.33 3.7923Q12.5888 2.90852 12.8378 1.99055Q13.0917 1.0677 13.3212 0.179023Q13.5507 -0.709649 13.7607 -1.53973Q13.9706 -2.3698 14.1317 -3.08758L16.2899 -3.08758Q16.4511 -2.3698 16.6513 -1.53973Q16.8515 -0.709649 17.0712 0.179023Q17.2909 1.0677 17.5302 1.99055Q17.7694 2.90852 18.0282 3.7923Q18.2724 2.94758 18.5116 2.03937Q18.7509 1.13117 18.9608 0.232734Q19.1708 -0.670586 19.3612 -1.5202Q19.5517 -2.3698 19.7079 -3.08758L22.8085 -3.08758Q22.369 -1.52996 21.9003 0.00324202Q21.4315 1.53156 20.9774 2.90363Q20.5282 4.27082 20.0985 5.43293Q19.6689 6.59016 19.3075 7.43L16.9882 7.43Q16.4901 5.91145 16.0067 4.41242Q15.5282 2.90852 15.1278 1.38996Z"/>
	<path fill="white" transform="translate(55 79.2857)" d="M-15.0901 7.70832Q-18.469 7.70832 -20.2414 5.82844Q-22.009 3.94855 -22.009 0.491523Q-22.009 -1.23211 -21.4719 -2.57977Q-20.9299 -3.9323 -19.9924 -4.86004Q-19.05 -5.78777 -17.7512 -6.26629Q-16.4524 -6.74969 -14.9289 -6.74969Q-14.05 -6.74969 -13.3322 -6.61785Q-12.6096 -6.4909 -12.0725 -6.32Q-11.5305 -6.1491 -11.1692 -5.96844Q-10.8078 -5.78777 -10.6516 -5.69012L-11.55 -3.17059Q-12.1897 -3.51238 -13.0393 -3.75164Q-13.8889 -3.9909 -14.968 -3.9909Q-15.6906 -3.9909 -16.3791 -3.75164Q-17.0676 -3.51238 -17.5998 -2.98016Q-18.132 -2.44793 -18.4543 -1.60809Q-18.7717 -0.768242 -18.7717 0.428047Q-18.7717 1.38996 -18.5617 2.22004Q-18.3518 3.05012 -17.883 3.6507Q-17.4094 4.25129 -16.6526 4.60285Q-15.8908 4.94953 -14.8117 4.94953Q-14.1281 4.94953 -13.591 4.87141Q-13.049 4.7884 -12.6291 4.68098Q-12.2092 4.56867 -11.8918 4.43195Q-11.5695 4.29035 -11.3108 4.16828L-10.4514 6.66828Q-11.1106 7.06867 -12.3117 7.39094Q-13.508 7.70832 -15.0901 7.70832ZM-4.4494 7.6302Q-5.74823 7.61066 -6.55878 7.35187Q-7.36932 7.0882 -7.84296 6.61945Q-8.31171 6.1507 -8.4826 5.48176Q-8.64862 4.80793 -8.64862 3.96809L-8.64862 -7.60906L-5.6701 -8.08758L-5.6701 3.37238Q-5.6701 3.76789 -5.61151 4.09016Q-5.54803 4.41242 -5.38202 4.63215Q-5.21112 4.85187 -4.89374 4.99348Q-4.57147 5.1302 -4.02948 5.16926L-4.4494 7.6302ZM1.68993 5.34992Q2.12938 5.34992 2.52977 5.33039Q2.93016 5.31086 3.16942 5.2718L3.16942 3.01105Q2.98875 2.97199 2.62743 2.93293Q2.27098 2.88898 1.96825 2.88898Q1.54832 2.88898 1.17723 2.9427Q0.81102 2.99152 0.527817 3.13312Q0.249496 3.26984 0.0883636 3.5091Q-0.0678864 3.74836 -0.0678864 4.10969Q-0.0678864 4.80793 0.400864 5.08137Q0.869614 5.34992 1.68993 5.34992ZM1.45067 -3.37078Q2.76903 -3.37078 3.64793 -3.06805Q4.53172 -2.7702 5.05907 -2.20867Q5.59129 -1.65203 5.81102 -0.85125Q6.03075 -0.0504689 6.03075 0.930976L6.03075 7.13215Q5.3911 7.26887 4.24852 7.4593Q3.11082 7.64973 1.48973 7.64973Q0.469223 7.64973 -0.360855 7.46906Q-1.19093 7.2884 -1.79152 6.87824Q-2.39211 6.46809 -2.71437 5.80891Q-3.03175 5.14973 -3.03175 4.18781Q-3.03175 3.26984 -2.66066 2.6302Q-2.28957 1.99055 -1.66945 1.60969Q-1.04933 1.22883 -0.24855 1.06281Q0.552231 0.891914 1.41161 0.891914Q1.98778 0.891914 2.437 0.940742Q2.8911 0.98957 3.16942 1.0677L3.16942 0.789375Q3.16942 0.0276561 2.71043 -0.431328Q2.25145 -0.890313 1.10887 -0.890313Q0.352036 -0.890313 -0.390152 -0.778008Q-1.13234 -0.670586 -1.66945 -0.470391L-2.05031 -2.86785Q-1.79152 -2.95086 -1.40089 -3.03875Q-1.01027 -3.13152 -0.551285 -3.19988Q-0.0923004 -3.26824 0.415512 -3.31707Q0.928207 -3.37078 1.45067 -3.37078ZM15.1278 1.38996Q14.7323 2.90852 14.2782 4.41242Q13.829 5.91145 13.331 7.43L11.0116 7.43Q10.6503 6.59016 10.2304 5.43293Q9.81046 4.27082 9.36124 2.90363Q8.91202 1.53156 8.43839 0.00324202Q7.96964 -1.52996 7.53018 -3.08758L10.6698 -3.08758Q10.831 -2.3698 11.0214 -1.5202Q11.2118 -0.670586 11.4218 0.232734Q11.6317 1.13117 11.8612 2.03937Q12.0907 2.94758 12.33 3.7923Q12.5888 2.90852 12.8378 1.99055Q13.0917 1.0677 13.3212 0.179023Q13.5507 -0.709649 13.7607 -1.53973Q13.9706 -2.3698 14.1317 -3.08758L16.2899 -3.08758Q16.4511 -2.3698 16.6513 -1.53973Q16.8515 -0.709649 17.0712 0.179023Q17.2909 1.0677 17.5302 1.99055Q17.7694 2.90852 18.0282 3.7923Q18.2724 2.94758 18.5116 2.03937Q18.7509 1.13117 18.9608 0.232734Q19.1708 -0.670586 19.3612 -1.5202Q19.5517 -2.3698 19.7079 -3.08758L22.8085 -3.08758Q22.369 -1.52996 21.9003 0.00324202Q21.4315 1.53156 20.9774 2.90363Q20.5282 4.27082 20.0985 5.43293Q19.6689 6.59016 19.3075 7.43L16.9882 7.43Q16.4901 5.91145 16.0067 4.41242Q15.5282 2.90852 15.1278 1.38996Z"/>
</svg>
