<?xml version="1.0" encoding="utf-8" ?>
<svg xmlns="http://www.w3.org/2000/svg" xmlns:xlink="http://www.w3.org/1999/xlink" width="110" height="110">
	<path fill="#C7A138" transform="matrix(1.42857 0 0 1.42857 55 47.8571)" d="M0 -10Q2 -2 10 0Q2 2 0 10Q-2 2 -10 0Q-2 -2 0 -10Z"/>
	<path fill="#A1822D" transform="matrix(1.42857 0 0 1.42857 55 47.8571)" d="M1.45521 -10.3638Q3.23693 -3.23693 10.3638 -1.45521Q10.4353 -1.43734 10.5047 -1.41255Q10.5741 -1.38775 10.6407 -1.35628Q10.7073 -1.3248 10.7706 -1.28695Q10.8338 -1.24909 10.893 -1.20522Q10.9522 -1.16135 11.0068 -1.11189Q11.0615 -1.06243 11.111 -1.00785Q11.1605 -0.95327 11.2044 -0.894101Q11.2483 -0.834933 11.2862 -0.771744Q11.3242 -0.708555 11.3557 -0.641954Q11.3872 -0.575353 11.4121 -0.505982Q11.4369 -0.436611 11.4549 -0.365137Q11.4728 -0.293663 11.4837 -0.220776Q11.4945 -0.147888 11.4982 -0.0742881Q11.5018 -0.000688232 11.4982 0.0729149Q11.4946 0.146518 11.4839 0.219416Q11.4731 0.292313 11.4552 0.363803Q11.4306 0.462257 11.393 0.556497Q11.3553 0.650738 11.3053 0.739048Q11.2553 0.827359 11.1939 0.90813Q11.1324 0.988901 11.0607 1.06066Q10.9889 1.13242 10.9081 1.19386Q10.8274 1.2553 10.739 1.3053Q10.6507 1.3553 10.5565 1.39295Q10.4623 1.4306 10.3638 1.45521Q3.23693 3.23693 1.45521 10.3638Q1.43734 10.4353 1.41255 10.5047Q1.38775 10.5741 1.35628 10.6407Q1.3248 10.7073 1.28695 10.7706Q1.24909 10.8338 1.20522 10.893Q1.16135 10.9522 1.11189 11.0068Q1.06243 11.0615 1.00785 11.111Q0.95327 11.1605 0.894101 11.2044Q0.834933 11.2483 0.771744 11.2862Q0.708555 11.3242 0.641954 11.3557Q0.575353 11.3872 0.505982 11.4121Q0.436611 11.4369 0.365137 11.4549Q0.293663 11.4728 0.220776 11.4837Q0.147888 11.4945 0.0742881 11.4982Q0.000688232 11.5018 -0.0729149 11.4982Q-0.146518 11.4946 -0.219416 11.4839Q-0.292313 11.4731 -0.363803 11.4552Q-0.462257 11.4306 -0.556497 11.393Q-0.650738 11.3553 -0.739048 11.3053Q-0.827359 11.2553 -0.90813 11.1939Q-0.988901 11.1324 -1.06066 11.0607Q-1.13242 10.9889 -1.19386 10.9081Q-1.2553 10.8274 -1.3053 10.739Q-1.3553 10.6507 -1.39295 10.5565Q-1.4306 10.4623 -1.45521 10.3638Q-3.23693 3.23693 -10.3638 1.45521Q-10.4353 1.43734 -10.5047 1.41255Q-10.5741 1.38775 -10.6407 1.35628Q-10.7073 1.3248 -10.7706 1.28695Q-10.8338 1.24909 -10.893 1.20522Q-10.9522 1.16135 -11.0068 1.11189Q-11.0615 1.06243 -11.111 1.00785Q-11.1605 0.95327 -11.2044 0.894101Q-11.2483 0.834933 -11.2862 0.771744Q-11.3242 0.708555 -11.3557 0.641954Q-11.3872 0.575353 -11.4121 0.505982Q-11.4369 0.436611 -11.4549 0.365137Q-11.4728 0.293663 -11.4837 0.220776Q-11.4945 0.147888 -11.4982 0.0742881Q-11.5018 0.000688232 -11.4982 -0.0729149Q-11.4946 -0.146518 -11.4839 -0.219416Q-11.4731 -0.292313 -11.4552 -0.363803Q-11.4306 -0.462257 -11.393 -0.556497Q-11.3553 -0.650738 -11.3053 -0.739048Q-11.2553 -0.827359 -11.1939 -0.90813Q-11.1324 -0.988901 -11.0607 -1.06066Q-10.9889 -1.13242 -10.9081 -1.19386Q-10.8274 -1.2553 -10.739 -1.3053Q-10.6507 -1.3553 -10.5565 -1.39295Q-10.4623 -1.4306 -10.3638 -1.45521Q-3.23693 -3.23693 -1.45521 -10.3638Q-1.43734 -10.4353 -1.41255 -10.5047Q-1.38775 -10.5741 -1.35628 -10.6407Q-1.3248 -10.7073 -1.28695 -10.7706Q-1.24909 -10.8338 -1.20522 -10.893Q-1.16135 -10.9522 -1.11189 -11.0068Q-1.06243 -11.0615 -1.00785 -11.111Q-0.95327 -11.1605 -0.894101 -11.2044Q-0.834933 -11.2483 -0.771744 -11.2862Q-0.708555 -11.3242 -0.641954 -11.3557Q-0.575353 -11.3872 -0.505982 -11.4121Q-0.436611 -11.4369 -0.365137 -11.4549Q-0.293663 -11.4728 -0.220776 -11.4837Q-0.147888 -11.4945 -0.0742881 -11.4982Q-0.000688232 -11.5018 0.0729149 -11.4982Q0.146518 -11.4946 0.219416 -11.4839Q0.292313 -11.4731 0.363803 -11.4552Q0.462257 -11.4306 0.556497 -11.393Q0.650738 -11.3553 0.739048 -11.3053Q0.827359 -11.2553 0.90813 -11.1939Q0.988901 -11.1324 1.06066 -11.0607Q1.13242 -10.9889 1.19386 -10.9081Q1.2553 -10.8274 1.3053 -10.739Q1.3553 -10.6507 1.39295 -10.5565Q1.4306 -10.4623 1.45521 -10.3638L1.45521 -10.3638ZM-1.45521 -9.6362L0 -10L1.45521 -9.6362Q-0.763069 -0.763068 -9.6362 1.45521L-10 0L-9.6362 -1.45521Q-0.763068 0.763069 1.45521 9.6362L0 10L-1.45521 9.6362Q0.763069 0.763068 9.6362 -1.45521L10 0L9.6362 1.45521Q0.763068 -0.763069 -1.45521 -9.6362Z"/>
	<path fill="none" stroke="black" stroke-width="2.3999999" stroke-linejoin="round" transform="translate(55 79.2857)" d="M-17.9008 -6.58855Q-14.7807 -6.58855 -13.1205 -5.48016Q-11.4604 -4.37176 -11.4604 -2.02801Q-11.4604 -0.568047 -12.1293 0.340156Q-12.7983 1.24836 -14.058 1.77082Q-13.6381 2.2884 -13.1791 2.96223Q-12.7201 3.63117 -12.2709 4.36359Q-11.8217 5.09113 -11.4018 5.88215Q-10.9818 6.66828 -10.6205 7.43L-14.1215 7.43Q-14.5024 6.75129 -14.893 6.05305Q-15.2787 5.34992 -15.6889 4.69074Q-16.099 4.03156 -16.4994 3.44074Q-16.8998 2.84992 -17.3002 2.37141L-18.8383 2.37141L-18.8383 7.43L-21.9584 7.43L-21.9584 -6.23211Q-20.9379 -6.4323 -19.849 -6.51043Q-18.7602 -6.58855 -17.9008 -6.58855ZM-17.7201 -3.9323Q-18.0619 -3.9323 -18.3305 -3.90789Q-18.599 -3.88836 -18.8383 -3.86883L-18.8383 -0.109063L-17.9594 -0.109063Q-16.2016 -0.109063 -15.4399 -0.548516Q-14.6781 -0.987969 -14.6781 -2.05242Q-14.6781 -3.06805 -15.4496 -3.49773Q-16.2211 -3.9323 -17.7201 -3.9323ZM-9.32156 2.24934Q-9.32156 0.847969 -8.89187 -0.201836Q-8.46218 -1.25164 -7.76394 -1.94988Q-7.06081 -2.64813 -6.15261 -3.00945Q-5.23952 -3.37078 -4.27761 -3.37078Q-2.04128 -3.37078 -0.742455 -1.99871Q0.561256 -0.631524 0.561256 2.02961Q0.561256 2.2884 0.541725 2.6009Q0.522194 2.90852 0.49778 3.14777L-6.26003 3.14777Q-6.16238 4.07062 -5.40066 4.61262Q-4.63894 5.14973 -3.35964 5.14973Q-2.53933 5.14973 -1.7532 5.00324Q-0.962181 4.85187 -0.459251 4.63215L-0.0588608 7.04914Q-0.298119 7.17121 -0.698509 7.29328Q-1.0989 7.41047 -1.59206 7.49836Q-2.08035 7.59113 -2.64187 7.64973Q-3.19851 7.70832 -3.76003 7.70832Q-5.18093 7.70832 -6.23074 7.2884Q-7.28054 6.86848 -7.9739 6.14094Q-8.66238 5.40852 -8.99441 4.41242Q-9.32156 3.41145 -9.32156 2.24934ZM-2.3196 1.11164Q-2.33913 0.730781 -2.45144 0.369453Q-2.55886 0.00812483 -2.78835 -0.270195Q-3.01785 -0.548516 -3.36941 -0.72918Q-3.72097 -0.909844 -4.23855 -0.909844Q-4.74148 -0.909844 -5.10281 -0.738945Q-5.45925 -0.568047 -5.69851 -0.289727Q-5.93777 -0.0114064 -6.0696 0.359687Q-6.20144 0.730781 -6.26003 1.11164L-2.3196 1.11164ZM7.06059 7.6302Q5.76176 7.61066 4.95121 7.35187Q4.14066 7.0882 3.66703 6.61945Q3.19828 6.1507 3.02738 5.48176Q2.86137 4.80793 2.86137 3.96809L2.86137 -7.60906L5.83988 -8.08758L5.83988 3.37238Q5.83988 3.76789 5.89848 4.09016Q5.96195 4.41242 6.12797 4.63215Q6.29887 4.85187 6.61625 4.99348Q6.93851 5.1302 7.48051 5.16926L7.06059 7.6302ZM12.1599 7.43L9.18136 7.43L9.18136 -3.08758L12.1599 -3.08758L12.1599 7.43ZM12.4382 -6.12957Q12.4382 -5.30926 11.906 -4.84051Q11.3786 -4.37176 10.6609 -4.37176Q9.93819 -4.37176 9.40597 -4.84051Q8.87862 -5.30926 8.87862 -6.12957Q8.87862 -6.94988 9.40597 -7.41863Q9.93819 -7.89227 10.6609 -7.89227Q11.3786 -7.89227 11.906 -7.41863Q12.4382 -6.94988 12.4382 -6.12957ZM14.4584 2.17121Q14.4584 1.02863 14.8295 0.0227733Q15.2006 -0.987969 15.8989 -1.73992Q16.602 -2.49188 17.5981 -2.93133Q18.5991 -3.37078 19.8783 -3.37078Q20.7182 -3.37078 21.4164 -3.21941Q22.1196 -3.06805 22.7787 -2.78973L22.1586 -0.411797Q21.7387 -0.568047 21.2358 -0.690117Q20.7377 -0.812188 20.1176 -0.812188Q18.7992 -0.812188 18.1498 0.00812483Q17.5004 0.828437 17.5004 2.17121Q17.5004 3.59211 18.1108 4.37336Q18.7211 5.14973 20.2397 5.14973Q20.7817 5.14973 21.4018 5.05207Q22.0219 4.94953 22.5395 4.7298L22.9594 7.17121Q22.4418 7.39094 21.6606 7.54719Q20.8793 7.70832 19.9418 7.70832Q18.5014 7.70832 17.4614 7.27863Q16.4213 6.84895 15.7475 6.11164Q15.0785 5.36945 14.766 4.35871Q14.4584 3.34797 14.4584 2.17121Z"/>
	<path fill="white" transform="translate(55 79.2857)" d="M-17.9008 -6.58855Q-14.7807 -6.58855 -13.1205 -5.48016Q-11.4604 -4.37176 -11.4604 -2.02801Q-11.4604 -0.568047 -12.1293 0.340156Q-12.7983 1.24836 -14.058 1.77082Q-13.6381 2.2884 -13.1791 2.96223Q-12.7201 3.63117 -12.2709 4.36359Q-11.8217 5.09113 -11.4018 5.88215Q-10.9818 6.66828 -10.6205 7.43L-14.1215 7.43Q-14.5024 6.75129 -14.893 6.05305Q-15.2787 5.34992 -15.6889 4.69074Q-16.099 4.03156 -16.4994 3.44074Q-16.8998 2.84992 -17.3002 2.37141L-18.8383 2.37141L-18.8383 7.43L-21.9584 7.43L-21.9584 -6.23211Q-20.9379 -6.4323 -19.849 -6.51043Q-18.7602 -6.58855 -17.9008 -6.58855ZM-17.7201 -3.9323Q-18.0619 -3.9323 -18.3305 -3.90789Q-18.599 -3.88836 -18.8383 -3.86883L-18.8383 -0.109063L-17.9594 -0.109063Q-16.2016 -0.109063 -15.4399 -0.548516Q-14.6781 -0.987969 -14.6781 -2.05242Q-14.6781 -3.06805 -15.4496 -3.49773Q-16.2211 -3.9323 -17.7201 -3.9323ZM-9.32156 2.24934Q-9.32156 0.847969 -8.89187 -0.201836Q-8.46218 -1.25164 -7.76394 -1.94988Q-7.06081 -2.64813 -6.15261 -3.00945Q-5.23952 -3.37078 -4.27761 -3.37078Q-2.04128 -3.37078 -0.742455 -1.99871Q0.561256 -0.631524 0.561256 2.02961Q0.561256 2.2884 0.541725 2.6009Q0.522194 2.90852 0.49778 3.14777L-6.26003 3.14777Q-6.16238 4.07062 -5.40066 4.61262Q-4.63894 5.14973 -3.35964 5.14973Q-2.53933 5.14973 -1.7532 5.00324Q-0.962181 4.85187 -0.459251 4.63215L-0.0588608 7.04914Q-0.298119 7.17121 -0.698509 7.29328Q-1.0989 7.41047 -1.59206 7.49836Q-2.08035 7.59113 -2.64187 7.64973Q-3.19851 7.70832 -3.76003 7.70832Q-5.18093 7.70832 -6.23074 7.2884Q-7.28054 6.86848 -7.9739 6.14094Q-8.66238 5.40852 -8.99441 4.41242Q-9.32156 3.41145 -9.32156 2.24934ZM-2.3196 1.11164Q-2.33913 0.730781 -2.45144 0.369453Q-2.55886 0.00812483 -2.78835 -0.270195Q-3.01785 -0.548516 -3.36941 -0.72918Q-3.72097 -0.909844 -4.23855 -0.909844Q-4.74148 -0.909844 -5.10281 -0.738945Q-5.45925 -0.568047 -5.69851 -0.289727Q-5.93777 -0.0114064 -6.0696 0.359687Q-6.20144 0.730781 -6.26003 1.11164L-2.3196 1.11164ZM7.06059 7.6302Q5.76176 7.61066 4.95121 7.35187Q4.14066 7.0882 3.66703 6.61945Q3.19828 6.1507 3.02738 5.48176Q2.86137 4.80793 2.86137 3.96809L2.86137 -7.60906L5.83988 -8.08758L5.83988 3.37238Q5.83988 3.76789 5.89848 4.09016Q5.96195 4.41242 6.12797 4.63215Q6.29887 4.85187 6.61625 4.99348Q6.93851 5.1302 7.48051 5.16926L7.06059 7.6302ZM12.1599 7.43L9.18136 7.43L9.18136 -3.08758L12.1599 -3.08758L12.1599 7.43ZM12.4382 -6.12957Q12.4382 -5.30926 11.906 -4.84051Q11.3786 -4.37176 10.6609 -4.37176Q9.93819 -4.37176 9.40597 -4.84051Q8.87862 -5.30926 8.87862 -6.12957Q8.87862 -6.94988 9.40597 -7.41863Q9.93819 -7.89227 10.6609 -7.89227Q11.3786 -7.89227 11.906 -7.41863Q12.4382 -6.94988 12.4382 -6.12957ZM14.4584 2.17121Q14.4584 1.02863 14.8295 0.0227733Q15.2006 -0.987969 15.8989 -1.73992Q16.602 -2.49188 17.5981 -2.93133Q18.5991 -3.37078 19.8783 -3.37078Q20.7182 -3.37078 21.4164 -3.21941Q22.1196 -3.06805 22.7787 -2.78973L22.1586 -0.411797Q21.7387 -0.568047 21.2358 -0.690117Q20.7377 -0.812188 20.1176 -0.812188Q18.7992 -0.812188 18.1498 0.00812483Q17.5004 0.828437 17.5004 2.17121Q17.5004 3.59211 18.1108 4.37336Q18.7211 5.14973 20.2397 5.14973Q20.7817 5.14973 21.4018 5.05207Q22.0219 4.94953 22.5395 4.7298L22.9594 7.17121Q22.4418 7.39094 21.6606 7.54719Q20.8793 7.70832 19.9418 7.70832Q18.5014 7.70832 17.4614 7.27863Q16.4213 6.84895 15.7475 6.11164Q15.0785 5.36945 14.766 4.35871Q14.4584 3.34797 14.4584 2.17121Z"/>
</svg>
