<svg xmlns="http://www.w3.org/2000/svg" xmlns:xlink="http://www.w3.org/1999/xlink" width="110" height="110">
	<path fill-opacity="0.2" transform="matrix(0.714286 0 0 0.714286 55 47.8571)" d="M30 0Q30 0.736459 29.9639 1.47203Q29.9277 2.2076 29.8555 2.94051Q29.7834 3.67343 29.6753 4.40191Q29.5672 5.1304 29.4236 5.85271Q29.2799 6.57502 29.1009 7.2894Q28.922 8.00379 28.7082 8.70854Q28.4944 9.41329 28.2463 10.1067Q27.9982 10.8001 27.7164 11.4805Q27.4346 12.1609 27.1197 12.8267Q26.8048 13.4924 26.4576 14.1419Q26.1105 14.7914 25.7319 15.4231Q25.3532 16.0548 24.9441 16.6671Q24.5349 17.2794 24.0962 17.871Q23.6575 18.4625 23.1903 19.0318Q22.7231 19.6011 22.2285 20.1468Q21.734 20.6924 21.2132 21.2132Q20.6924 21.734 20.1468 22.2285Q19.6011 22.7231 19.0318 23.1903Q18.4625 23.6575 17.871 24.0962Q17.2794 24.5349 16.6671 24.9441Q16.0548 25.3532 15.4231 25.7319Q14.7914 26.1105 14.1419 26.4576Q13.4924 26.8048 12.8267 27.1197Q12.1609 27.4346 11.4805 27.7164Q10.8001 27.9982 10.1067 28.2463Q9.41329 28.4944 8.70854 28.7082Q8.00379 28.922 7.2894 29.1009Q6.57502 29.2799 5.85271 29.4236Q5.1304 29.5672 4.40191 29.6753Q3.67343 29.7834 2.94051 29.8555Q2.2076 29.9277 1.47203 29.9639Q0.736459 30 0 30Q-0.736459 30 -1.47203 29.9639Q-2.2076 29.9277 -2.94051 29.8555Q-3.67343 29.7834 -4.40191 29.6753Q-5.1304 29.5672 -5.85271 29.4236Q-6.57502 29.2799 -7.2894 29.1009Q-8.00379 28.922 -8.70854 28.7082Q-9.41329 28.4944 -10.1067 28.2463Q-10.8001 27.9982 -11.4805 27.7164Q-12.1609 27.4346 -12.8267 27.1197Q-13.4924 26.8048 -14.1419 26.4576Q-14.7914 26.1105 -15.4231 25.7319Q-16.0548 25.3532 -16.6671 24.9441Q-17.2794 24.5349 -17.871 24.0962Q-18.4625 23.6575 -19.0318 23.1903Q-19.6011 22.7231 -20.1468 22.2285Q-20.6924 21.734 -21.2132 21.2132Q-21.734 20.6924 -22.2285 20.1468Q-22.7231 19.6011 -23.1903 19.0318Q-23.6575 18.4625 -24.0962 17.871Q-24.5349 17.2794 -24.9441 16.6671Q-25.3532 16.0548 -25.7319 15.4231Q-26.1105 14.7914 -26.4576 14.1419Q-26.8048 13.4924 -27.1197 12.8267Q-27.4346 12.1609 -27.7164 11.4805Q-27.9982 10.8001 -28.2463 10.1067Q-28.4944 9.41329 -28.7082 8.70854Q-28.922 8.00379 -29.1009 7.2894Q-29.2799 6.57502 -29.4236 5.85271Q-29.5672 5.1304 -29.6753 4.40191Q-29.7834 3.67343 -29.8555 2.94051Q-29.9277 2.2076 -29.9639 1.47203Q-30 0.736459 -30 0Q-30 -0.736459 -29.9639 -1.47203Q-29.9277 -2.2076 -29.8555 -2.94051Q-29.7834 -3.67343 -29.6753 -4.40191Q-29.5672 -5.1304 -29.4236 -5.85271Q-29.2799 -6.57502 -29.1009 -7.2894Q-28.922 -8.00379 -28.7082 -8.70854Q-28.4944 -9.41329 -28.2463 -10.1067Q-27.9982 -10.8001 -27.7164 -11.4805Q-27.4346 -12.1609 -27.1197 -12.8267Q-26.8048 -13.4924 -26.4576 -14.1419Q-26.1105 -14.7914 -25.7319 -15.4231Q-25.3532 -16.0548 -24.9441 -16.6671Q-24.5349 -17.2794 -24.0962 -17.871Q-23.6575 -18.4625 -23.1903 -19.0318Q-22.7231 -19.6011 -22.2285 -20.1468Q-21.734 -20.6924 -21.2132 -21.2132Q-20.6924 -21.734 -20.1468 -22.2285Q-19.6011 -22.7231 -19.0318 -23.1903Q-18.4625 -23.6575 -17.871 -24.0962Q-17.2794 -24.5349 -16.6671 -24.9441Q-16.0548 -25.3532 -15.4231 -25.7319Q-14.7914 -26.1105 -14.1419 -26.4576Q-13.4924 -26.8048 -12.8267 -27.1197Q-12.1609 -27.4346 -11.4805 -27.7164Q-10.8001 -27.9982 -10.1067 -28.2463Q-9.41329 -28.4944 -8.70854 -28.7082Q-8.00379 -28.922 -7.2894 -29.1009Q-6.57502 -29.2799 -5.85271 -29.4236Q-5.1304 -29.5672 -4.40191 -29.6753Q-3.67343 -29.7834 -2.94051 -29.8555Q-2.2076 -29.9277 -1.47203 -29.9639Q-0.736459 -30 0 -30Q0.736459 -30 1.47203 -29.9639Q2.2076 -29.9277 2.94051 -29.8555Q3.67343 -29.7834 4.40191 -29.6753Q5.1304 -29.5672 5.85271 -29.4236Q6.57502 -29.2799 7.2894 -29.1009Q8.00379 -28.922 8.70854 -28.7082Q9.41329 -28.4944 10.1067 -28.2463Q10.8001 -27.9982 11.4805 -27.7164Q12.1609 -27.4346 12.8267 -27.1197Q13.4924 -26.8048 14.1419 -26.4576Q14.7914 -26.1105 15.4231 -25.7319Q16.0548 -25.3532 16.6671 -24.9441Q17.2794 -24.5349 17.871 -24.0962Q18.4625 -23.6575 19.0318 -23.1903Q19.6011 -22.7231 20.1468 -22.2285Q20.6924 -21.734 21.2132 -21.2132Q21.734 -20.6924 22.2285 -20.1468Q22.7231 -19.6011 23.1903 -19.0318Q23.6575 -18.4625 24.0962 -17.871Q24.5349 -17.2794 24.9441 -16.6671Q25.3532 -16.0548 25.7319 -15.4231Q26.1105 -14.7914 26.4576 -14.1419Q26.8048 -13.4924 27.1197 -12.8267Q27.4346 -12.1609 27.7164 -11.4805Q27.9982 -10.8001 28.2463 -10.1067Q28.4944 -9.41329 28.7082 -8.70854Q28.922 -8.00379 29.1009 -7.2894Q29.2799 -6.57502 29.4236 -5.85271Q29.5672 -5.1304 29.6753 -4.40191Q29.7834 -3.67343 29.8555 -2.94051Q29.9277 -2.2076 29.9639 -1.47203Q30 -0.736459 30 0"/>
	<path fill="#E5DAA1" transform="matrix(0.714286 0 0 0.714286 15.7143 8.57143)" d="M83.767 66.323L35.649 79.058C38.689 81.528 42.165 83.448 45.896 84.62L77.241 76.327C80.019 73.433 82.261 70.031 83.767 66.323ZM41.972 26.931C37.687 28.978 33.877 32.021 30.88 35.718L81.083 38.518Q80.1118 37.0081 78.9787 35.6155Q77.8456 34.223 76.5648 32.9651Q75.2839 31.7071 73.871 30.5994Q72.4582 29.4917 70.931 28.548L41.972 26.931Z"/>
	<path fill="#B7AE81" transform="matrix(0.714286 0 0 0.714286 15.7143 8.57143)" d="M83.8949 66.8064L35.7769 79.5414L35.649 79.058L35.9643 78.6699Q40.5916 82.4297 46.0458 84.143L45.896 84.62L45.7681 84.1366L77.1131 75.8436L77.241 76.327L76.8803 75.9807Q81.0831 71.6024 83.3037 66.1348L83.767 66.323L83.8949 66.8064ZM83.6391 65.8396Q83.8005 65.7969 83.9551 65.8597Q84.0008 65.8783 84.0419 65.9054Q84.083 65.9324 84.1181 65.967Q84.1532 66.0016 84.1808 66.0423Q84.2084 66.0831 84.2276 66.1285Q84.2468 66.1738 84.2567 66.2221Q84.2666 66.2703 84.267 66.3195Q84.2673 66.3688 84.258 66.4172Q84.2488 66.4655 84.2302 66.5111Q81.9374 72.1566 77.6017 76.6732Q77.5045 76.7745 77.3689 76.8104L46.0239 85.1034Q45.8841 85.1403 45.7462 85.097Q40.1095 83.3265 35.3337 79.4461Q35.2073 79.3434 35.1656 79.1859Q35.153 79.1383 35.15 79.0892Q35.1469 79.04 35.1535 78.9912Q35.16 78.9424 35.176 78.8958Q35.192 78.8492 35.2168 78.8067Q35.2415 78.7641 35.2741 78.7272Q35.3067 78.6902 35.3458 78.6604Q35.385 78.6305 35.4292 78.6089Q35.4735 78.5872 35.5211 78.5746L83.6391 65.8396ZM42.1875 27.3822Q35.8123 30.4277 31.2684 36.0329L30.88 35.718L30.9078 35.2188L81.1108 38.0188L81.083 38.518L80.6625 38.7885Q76.7775 32.7485 70.6682 28.9733L70.931 28.548L70.9031 29.0472L41.9441 27.4302L41.972 26.931L42.1875 27.3822ZM41.7565 26.4798Q41.872 26.4246 41.9999 26.4318L70.9589 28.0488Q71.0857 28.0559 71.1938 28.1227Q77.4958 32.017 81.5035 38.2475Q81.5913 38.3839 81.5822 38.5458Q81.5795 38.595 81.5672 38.6427Q81.5549 38.6904 81.5336 38.7348Q81.5122 38.7791 81.4826 38.8185Q81.453 38.8579 81.4163 38.8907Q81.3796 38.9235 81.3372 38.9486Q81.2948 38.9736 81.2483 38.9899Q81.2018 39.0062 81.1531 39.0131Q81.1043 39.02 81.0552 39.0172L30.8522 36.2172Q30.6907 36.2082 30.5651 36.1064Q30.5269 36.0754 30.4954 36.0375Q30.4639 35.9996 30.4405 35.9563Q30.417 35.9131 30.4024 35.866Q30.3878 35.819 30.3827 35.77Q30.3776 35.721 30.3821 35.672Q30.3867 35.6229 30.4007 35.5757Q30.4147 35.5285 30.4376 35.485Q30.4606 35.4414 30.4916 35.4031Q35.1776 29.6227 41.7565 26.4798Z"/>
	<path fill="#E5DAA1" transform="matrix(0.714286 0 0 0.714286 15.7143 8.57143)" d="M28.784 71.38Q30.3125 73.7606 32.2283 75.8422Q34.1441 77.9237 36.39 79.644L71.854 80.847Q74.1971 79.279 76.2362 77.332Q78.2753 75.3851 79.95 73.117L28.784 71.38ZM85.856 56.868L24.144 58.095Q24.4463 61.4125 25.511 64.569L84.781 63.392Q85.7068 60.194 85.856 56.868ZM68.85 27.38L33.068 33.276Q31.0858 35.2686 29.4812 37.5763Q27.8767 39.884 26.699 42.436L77.613 34.044Q75.7278 32.0104 73.5206 30.3318Q71.3134 28.6533 68.85 27.38Z"/>
	<path fill="#B7AE81" transform="matrix(0.714286 0 0 0.714286 15.7143 8.57143)" d="M29.2047 71.1099Q32.2376 75.8336 36.694 79.2471L36.39 79.644L36.407 79.1443L71.871 80.3473L71.854 80.847L71.5759 80.4315Q76.225 77.3203 79.5478 72.82L79.95 73.117L79.933 73.6167L28.767 71.8797L28.784 71.38L29.2047 71.1099ZM28.3633 71.6501Q28.279 71.5189 28.2843 71.363Q28.286 71.3138 28.2972 71.2659Q28.3084 71.2179 28.3288 71.1731Q28.3492 71.1283 28.3779 71.0883Q28.4067 71.0483 28.4426 71.0146Q28.4786 70.981 28.5205 70.9551Q28.5623 70.9291 28.6084 70.9118Q28.6545 70.8945 28.7031 70.8866Q28.7517 70.8786 28.801 70.8803L79.967 72.6173Q80.1221 72.6226 80.247 72.7148Q80.2866 72.744 80.3198 72.7804Q80.3529 72.8168 80.3783 72.859Q80.4037 72.9012 80.4204 72.9475Q80.4371 72.9939 80.4444 73.0426Q80.4518 73.0913 80.4494 73.1405Q80.4471 73.1897 80.4353 73.2375Q80.4234 73.2852 80.4025 73.3298Q80.3815 73.3744 80.3522 73.414Q76.926 78.0544 72.1321 81.2625Q71.9981 81.3522 71.8371 81.3467L36.373 80.1437Q36.2131 80.1383 36.086 80.0409Q31.4906 76.5211 28.3633 71.6501ZM85.8659 57.3679L24.1539 58.5949L24.144 58.095L24.6419 58.0496Q24.9389 61.3085 25.9848 64.4092L25.511 64.569L25.5011 64.0691L84.7711 62.8921L84.781 63.392L84.3007 63.253Q85.2101 60.112 85.3565 56.8456L85.856 56.868L85.8659 57.3679ZM85.8461 56.3681Q85.8622 56.3678 85.8784 56.3685Q85.9276 56.3707 85.9754 56.3825Q86.0232 56.3942 86.0678 56.4151Q86.1124 56.436 86.1521 56.4651Q86.1918 56.4943 86.225 56.5306Q86.2583 56.567 86.2838 56.6091Q86.3092 56.6512 86.326 56.6975Q86.3428 56.7438 86.3503 56.7925Q86.3577 56.8412 86.3555 56.8904Q86.2037 60.2757 85.2613 63.531Q85.239 63.6079 85.1939 63.6739Q85.1488 63.74 85.0854 63.7887Q85.0219 63.8374 84.9464 63.8638Q84.8709 63.8903 84.7909 63.8919L25.5209 65.0689Q25.4412 65.0705 25.3649 65.0472Q25.2887 65.0239 25.2234 64.978Q25.1582 64.9322 25.1104 64.8683Q25.0627 64.8044 25.0372 64.7288Q23.9537 61.5165 23.6461 58.1404Q23.6445 58.1227 23.6441 58.1049Q23.6431 58.0557 23.6518 58.0072Q23.6604 57.9587 23.6783 57.9129Q23.6963 57.867 23.7228 57.8255Q23.7494 57.784 23.7835 57.7485Q23.8176 57.713 23.858 57.6849Q23.8984 57.6567 23.9435 57.6369Q23.9886 57.6172 24.0367 57.6066Q24.0848 57.5961 24.1341 57.5951L85.8461 56.3681ZM68.9313 27.8733L33.1493 33.7693L33.068 33.276L33.4225 33.6286Q29.4896 37.5822 27.153 42.6455L26.699 42.436L26.6177 41.9427L77.5317 33.5507L77.613 34.044L77.2463 34.3839Q73.507 30.35 68.6204 27.8242L68.85 27.38L68.9313 27.8733ZM68.7687 26.8867Q68.9323 26.8597 69.0796 26.9358Q74.1215 29.542 77.9797 33.7041Q78.0819 33.8143 78.1063 33.9627Q78.1143 34.0113 78.1127 34.0605Q78.1111 34.1097 78.0999 34.1577Q78.0887 34.2056 78.0684 34.2505Q78.048 34.2953 78.0193 34.3353Q77.9906 34.3754 77.9547 34.409Q77.9187 34.4427 77.8769 34.4687Q77.8351 34.4947 77.789 34.512Q77.7429 34.5293 77.6943 34.5373L26.7803 42.9293Q26.6289 42.9543 26.4895 42.89Q26.4448 42.8694 26.4049 42.8404Q26.3651 42.8114 26.3317 42.7753Q26.2983 42.7391 26.2726 42.6971Q26.2469 42.6551 26.2298 42.6089Q26.2128 42.5627 26.2051 42.514Q26.1974 42.4654 26.1994 42.4162Q26.2013 42.367 26.2129 42.3191Q26.2244 42.2712 26.245 42.2265Q28.6558 37.0024 32.7135 32.9234Q32.8274 32.8089 32.9867 32.7827L68.7687 26.8867Z"/>
	<path fill="none" stroke="black" stroke-width="2.0571427" stroke-linejoin="round" transform="translate(55 79.2857)" d="M-30.2262 6.52343Q-31.2055 6.52343 -32.1723 6.46065Q-33.1391 6.40205 -34.1855 6.18023L-34.1855 -5.34181Q-33.3651 -5.49248 -32.39 -5.56781Q-31.4106 -5.64733 -30.5694 -5.64733Q-29.4394 -5.64733 -28.4893 -5.48411Q-27.5351 -5.32088 -26.8487 -4.92747Q-26.1623 -4.53405 -25.7773 -3.88952Q-25.3922 -3.24917 -25.3922 -2.30749Q-25.3922 -0.884498 -26.765 -0.0599999Q-25.6308 0.366898 -25.2206 1.10769Q-24.8105 1.8443 -24.8105 2.76924Q-24.8105 4.63587 -26.1749 5.58174Q-27.5351 6.52343 -30.2262 6.52343ZM-31.5822 1.1914L-31.5822 4.2592Q-31.2893 4.29268 -30.9461 4.3136Q-30.6029 4.33035 -30.1927 4.33035Q-28.9915 4.33035 -28.2549 3.98715Q-27.5183 3.64396 -27.5183 2.71902Q-27.5183 1.89452 -28.1377 1.54296Q-28.753 1.1914 -29.8997 1.1914L-31.5822 1.1914ZM-31.5822 -0.84683L-30.2764 -0.84683Q-29.046 -0.84683 -28.5144 -1.16491Q-27.9829 -1.48299 -27.9829 -2.18612Q-27.9829 -2.90598 -28.5312 -3.19477Q-29.0794 -3.48773 -30.1425 -3.48773Q-30.4857 -3.48773 -30.8791 -3.47936Q-31.2725 -3.47099 -31.5822 -3.43751L-31.5822 -0.84683ZM-19.3941 4.58565Q-19.0174 4.58565 -18.6742 4.56891Q-18.331 4.55217 -18.1259 4.51868L-18.1259 2.5809Q-18.2808 2.54742 -18.5905 2.51394Q-18.896 2.47627 -19.1555 2.47627Q-19.5154 2.47627 -19.8335 2.52231Q-20.1474 2.56416 -20.3902 2.68554Q-20.6287 2.80272 -20.7668 3.0078Q-20.9008 3.21288 -20.9008 3.52259Q-20.9008 4.12108 -20.499 4.35546Q-20.0972 4.58565 -19.3941 4.58565ZM-19.5991 -2.88924Q-18.4691 -2.88924 -17.7158 -2.62975Q-16.9582 -2.37445 -16.5062 -1.89315Q-16.05 -1.41603 -15.8617 -0.729643Q-15.6734 -0.0432587 -15.6734 0.79798L-15.6734 6.11327Q-16.2216 6.23046 -17.201 6.39368Q-18.1762 6.55691 -19.5657 6.55691Q-20.4404 6.55691 -21.1519 6.40205Q-21.8634 6.2472 -22.3782 5.89564Q-22.893 5.54407 -23.1692 4.97906Q-23.4412 4.41405 -23.4412 3.58955Q-23.4412 2.80272 -23.1231 2.25445Q-22.8051 1.70618 -22.2735 1.37973Q-21.742 1.05328 -21.0556 0.910982Q-20.3692 0.764498 -19.6326 0.764498Q-19.1388 0.764498 -18.7537 0.806351Q-18.3645 0.848203 -18.1259 0.915167L-18.1259 0.676607Q-18.1259 0.0237055 -18.5194 -0.36971Q-18.9128 -0.763125 -19.8921 -0.763125Q-20.5408 -0.763125 -21.177 -0.666864Q-21.8132 -0.574788 -22.2735 -0.403192L-22.6 -2.45816Q-22.3782 -2.52931 -22.0433 -2.60464Q-21.7085 -2.68416 -21.3151 -2.74276Q-20.9217 -2.80135 -20.4864 -2.8432Q-20.047 -2.88924 -19.5991 -2.88924ZM-13.3598 -2.34097Q-12.7111 -2.52931 -11.6815 -2.69253Q-10.6519 -2.85576 -9.5219 -2.85576Q-8.37095 -2.85576 -7.60923 -2.55442Q-6.84751 -2.25308 -6.40387 -1.70481Q-5.95605 -1.15654 -5.76771 -0.403192Q-5.57937 0.350156 -5.57937 1.2751L-5.57937 6.36857L-8.13239 6.36857L-8.13239 1.58481Q-8.13239 0.350156 -8.45884 -0.160446Q-8.78529 -0.675234 -9.67675 -0.675234Q-9.94879 -0.675234 -10.2585 -0.650123Q-10.5682 -0.625011 -10.8068 -0.591529L-10.8068 6.36857L-13.3598 6.36857L-13.3598 -2.34097ZM-1.08762 1.78989Q-1.08762 2.97432 -0.556094 3.69419Q-0.0245647 4.41405 1.02175 4.41405Q1.36494 4.41405 1.65373 4.38894Q1.9467 4.36383 2.13503 4.33035L2.13503 -0.315301Q1.89647 -0.470156 1.50724 -0.570602Q1.1222 -0.675234 0.728784 -0.675234Q-1.08762 -0.675234 -1.08762 1.78989ZM4.68805 6.0756Q4.34486 6.18023 3.89703 6.2765Q3.45339 6.36857 2.96372 6.43554Q2.47823 6.50669 1.97181 6.54854Q1.46539 6.59039 1.00501 6.59039Q-0.112455 6.59039 -0.987176 6.26813Q-1.85771 5.94167 -2.46039 5.33481Q-3.05888 4.72376 -3.37696 3.85741Q-3.69504 2.99106 -3.69504 1.91126Q-3.69504 0.814721 -3.423 -0.0683703Q-3.14677 -0.951462 -2.63199 -1.5667Q-2.1172 -2.18612 -1.37222 -2.51257Q-0.623058 -2.83902 0.335369 -2.83902Q0.866898 -2.83902 1.28542 -2.73439Q1.70814 -2.62975 2.13503 -2.44142L2.13503 -6.52205L4.68805 -6.93221L4.68805 6.0756ZM10.5334 4.58565Q10.9101 4.58565 11.2533 4.56891Q11.5965 4.55217 11.8016 4.51868L11.8016 2.5809Q11.6467 2.54742 11.337 2.51394Q11.0315 2.47627 10.772 2.47627Q10.4121 2.47627 10.094 2.52231Q9.7801 2.56416 9.53736 2.68554Q9.2988 2.80272 9.16068 3.0078Q9.02675 3.21288 9.02675 3.52259Q9.02675 4.12108 9.42854 4.35546Q9.83032 4.58565 10.5334 4.58565ZM10.3284 -2.88924Q11.4584 -2.88924 12.2117 -2.62975Q12.9693 -2.37445 13.4213 -1.89315Q13.8775 -1.41603 14.0658 -0.729643Q14.2542 -0.0432587 14.2542 0.79798L14.2542 6.11327Q13.7059 6.23046 12.7265 6.39368Q11.7514 6.55691 10.3619 6.55691Q9.48713 6.55691 8.77564 6.40205Q8.06414 6.2472 7.54935 5.89564Q7.03457 5.54407 6.75834 4.97906Q6.4863 4.41405 6.4863 3.58955Q6.4863 2.80272 6.80438 2.25445Q7.12246 1.70618 7.65399 1.37973Q8.18551 1.05328 8.8719 0.910982Q9.55828 0.764498 10.2949 0.764498Q10.7888 0.764498 11.1738 0.806351Q11.563 0.848203 11.8016 0.915167L11.8016 0.676607Q11.8016 0.0237055 11.4082 -0.36971Q11.0148 -0.763125 10.0354 -0.763125Q9.38669 -0.763125 8.75053 -0.666864Q8.11436 -0.574788 7.65399 -0.403192L7.32753 -2.45816Q7.54935 -2.52931 7.88417 -2.60464Q8.219 -2.68416 8.61241 -2.74276Q9.00583 -2.80135 9.44109 -2.8432Q9.88055 -2.88924 10.3284 -2.88924ZM18.7441 1.56807Q18.7441 3.71093 20.4768 3.71093Q20.8702 3.71093 21.2134 3.61048Q21.5566 3.50585 21.7951 3.36773L21.7951 -0.712902Q21.6068 -0.746384 21.3473 -0.771495Q21.092 -0.796607 20.7488 -0.796607Q19.736 -0.796607 19.2379 -0.126964Q18.7441 0.538493 18.7441 1.56807ZM24.3481 5.23855Q24.3481 7.44837 23.2265 8.5198Q22.1048 9.59123 19.7569 9.59123Q18.9324 9.59123 18.1079 9.44474Q17.2876 9.29826 16.5845 9.0597L17.0281 6.91684Q17.6308 7.1554 18.2879 7.29352Q18.9492 7.43163 19.7904 7.43163Q20.8869 7.43163 21.3389 6.95032Q21.7951 6.4732 21.7951 5.71567L21.7951 5.3934Q21.385 5.58174 20.9455 5.678Q20.5103 5.77008 19.9955 5.77008Q18.1247 5.77008 17.1286 4.66517Q16.1367 3.55607 16.1367 1.56807Q16.1367 0.576161 16.4464 -0.239966Q16.7561 -1.05609 17.3462 -1.63785Q17.9363 -2.2196 18.7943 -2.53768Q19.6523 -2.85576 20.7321 -2.85576Q21.1966 -2.85576 21.6821 -2.80972Q22.1718 -2.76787 22.6489 -2.69672Q23.1302 -2.62975 23.5655 -2.53349Q24.005 -2.44142 24.3481 -2.34097L24.3481 5.23855ZM26.3182 1.928Q26.3182 0.72683 26.6865 -0.173002Q27.0548 -1.07283 27.6533 -1.67133Q28.256 -2.26982 29.0344 -2.57953Q29.8171 -2.88924 30.6416 -2.88924Q32.5584 -2.88924 33.6717 -1.71318Q34.7892 -0.541306 34.7892 1.73967Q34.7892 1.96148 34.7724 2.22934Q34.7557 2.49301 34.7348 2.69809L28.9423 2.69809Q29.0261 3.48911 29.679 3.95367Q30.3319 4.41405 31.4284 4.41405Q32.1315 4.41405 32.8054 4.28849Q33.4834 4.15875 33.9144 3.97041L34.2576 6.04212Q34.0526 6.14675 33.7094 6.25138Q33.3662 6.35183 32.9435 6.42717Q32.5249 6.50669 32.0436 6.55691Q31.5665 6.60713 31.0852 6.60713Q29.8673 6.60713 28.9675 6.2472Q28.0676 5.88727 27.4733 5.26366Q26.8832 4.63587 26.5986 3.78208Q26.3182 2.9241 26.3182 1.928ZM32.3199 0.952835Q32.3031 0.626384 32.2069 0.316674Q32.1148 0.00696421 31.9181 -0.231596Q31.7214 -0.470156 31.42 -0.625011Q31.1187 -0.779866 30.675 -0.779866Q30.244 -0.779866 29.9343 -0.633382Q29.6287 -0.486897 29.4237 -0.248337Q29.2186 -0.00977659 29.1056 0.308304Q28.9926 0.626384 28.9423 0.952835L32.3199 0.952835Z"/>
	<path fill="white" transform="translate(55 79.2857)" d="M-30.2262 6.52343Q-31.2055 6.52343 -32.1723 6.46065Q-33.1391 6.40205 -34.1855 6.18023L-34.1855 -5.34181Q-33.3651 -5.49248 -32.39 -5.56781Q-31.4106 -5.64733 -30.5694 -5.64733Q-29.4394 -5.64733 -28.4893 -5.48411Q-27.5351 -5.32088 -26.8487 -4.92747Q-26.1623 -4.53405 -25.7773 -3.88952Q-25.3922 -3.24917 -25.3922 -2.30749Q-25.3922 -0.884498 -26.765 -0.0599999Q-25.6308 0.366898 -25.2206 1.10769Q-24.8105 1.8443 -24.8105 2.76924Q-24.8105 4.63587 -26.1749 5.58174Q-27.5351 6.52343 -30.2262 6.52343ZM-31.5822 1.1914L-31.5822 4.2592Q-31.2893 4.29268 -30.9461 4.3136Q-30.6029 4.33035 -30.1927 4.33035Q-28.9915 4.33035 -28.2549 3.98715Q-27.5183 3.64396 -27.5183 2.71902Q-27.5183 1.89452 -28.1377 1.54296Q-28.753 1.1914 -29.8997 1.1914L-31.5822 1.1914ZM-31.5822 -0.84683L-30.2764 -0.84683Q-29.046 -0.84683 -28.5144 -1.16491Q-27.9829 -1.48299 -27.9829 -2.18612Q-27.9829 -2.90598 -28.5312 -3.19477Q-29.0794 -3.48773 -30.1425 -3.48773Q-30.4857 -3.48773 -30.8791 -3.47936Q-31.2725 -3.47099 -31.5822 -3.43751L-31.5822 -0.84683ZM-19.3941 4.58565Q-19.0174 4.58565 -18.6742 4.56891Q-18.331 4.55217 -18.1259 4.51868L-18.1259 2.5809Q-18.2808 2.54742 -18.5905 2.51394Q-18.896 2.47627 -19.1555 2.47627Q-19.5154 2.47627 -19.8335 2.52231Q-20.1474 2.56416 -20.3902 2.68554Q-20.6287 2.80272 -20.7668 3.0078Q-20.9008 3.21288 -20.9008 3.52259Q-20.9008 4.12108 -20.499 4.35546Q-20.0972 4.58565 -19.3941 4.58565ZM-19.5991 -2.88924Q-18.4691 -2.88924 -17.7158 -2.62975Q-16.9582 -2.37445 -16.5062 -1.89315Q-16.05 -1.41603 -15.8617 -0.729643Q-15.6734 -0.0432587 -15.6734 0.79798L-15.6734 6.11327Q-16.2216 6.23046 -17.201 6.39368Q-18.1762 6.55691 -19.5657 6.55691Q-20.4404 6.55691 -21.1519 6.40205Q-21.8634 6.2472 -22.3782 5.89564Q-22.893 5.54407 -23.1692 4.97906Q-23.4412 4.41405 -23.4412 3.58955Q-23.4412 2.80272 -23.1231 2.25445Q-22.8051 1.70618 -22.2735 1.37973Q-21.742 1.05328 -21.0556 0.910982Q-20.3692 0.764498 -19.6326 0.764498Q-19.1388 0.764498 -18.7537 0.806351Q-18.3645 0.848203 -18.1259 0.915167L-18.1259 0.676607Q-18.1259 0.0237055 -18.5194 -0.36971Q-18.9128 -0.763125 -19.8921 -0.763125Q-20.5408 -0.763125 -21.177 -0.666864Q-21.8132 -0.574788 -22.2735 -0.403192L-22.6 -2.45816Q-22.3782 -2.52931 -22.0433 -2.60464Q-21.7085 -2.68416 -21.3151 -2.74276Q-20.9217 -2.80135 -20.4864 -2.8432Q-20.047 -2.88924 -19.5991 -2.88924ZM-13.3598 -2.34097Q-12.7111 -2.52931 -11.6815 -2.69253Q-10.6519 -2.85576 -9.5219 -2.85576Q-8.37095 -2.85576 -7.60923 -2.55442Q-6.84751 -2.25308 -6.40387 -1.70481Q-5.95605 -1.15654 -5.76771 -0.403192Q-5.57937 0.350156 -5.57937 1.2751L-5.57937 6.36857L-8.13239 6.36857L-8.13239 1.58481Q-8.13239 0.350156 -8.45884 -0.160446Q-8.78529 -0.675234 -9.67675 -0.675234Q-9.94879 -0.675234 -10.2585 -0.650123Q-10.5682 -0.625011 -10.8068 -0.591529L-10.8068 6.36857L-13.3598 6.36857L-13.3598 -2.34097ZM-1.08762 1.78989Q-1.08762 2.97432 -0.556094 3.69419Q-0.0245647 4.41405 1.02175 4.41405Q1.36494 4.41405 1.65373 4.38894Q1.9467 4.36383 2.13503 4.33035L2.13503 -0.315301Q1.89647 -0.470156 1.50724 -0.570602Q1.1222 -0.675234 0.728784 -0.675234Q-1.08762 -0.675234 -1.08762 1.78989ZM4.68805 6.0756Q4.34486 6.18023 3.89703 6.2765Q3.45339 6.36857 2.96372 6.43554Q2.47823 6.50669 1.97181 6.54854Q1.46539 6.59039 1.00501 6.59039Q-0.112455 6.59039 -0.987176 6.26813Q-1.85771 5.94167 -2.46039 5.33481Q-3.05888 4.72376 -3.37696 3.85741Q-3.69504 2.99106 -3.69504 1.91126Q-3.69504 0.814721 -3.423 -0.0683703Q-3.14677 -0.951462 -2.63199 -1.5667Q-2.1172 -2.18612 -1.37222 -2.51257Q-0.623058 -2.83902 0.335369 -2.83902Q0.866898 -2.83902 1.28542 -2.73439Q1.70814 -2.62975 2.13503 -2.44142L2.13503 -6.52205L4.68805 -6.93221L4.68805 6.0756ZM10.5334 4.58565Q10.9101 4.58565 11.2533 4.56891Q11.5965 4.55217 11.8016 4.51868L11.8016 2.5809Q11.6467 2.54742 11.337 2.51394Q11.0315 2.47627 10.772 2.47627Q10.4121 2.47627 10.094 2.52231Q9.7801 2.56416 9.53736 2.68554Q9.2988 2.80272 9.16068 3.0078Q9.02675 3.21288 9.02675 3.52259Q9.02675 4.12108 9.42854 4.35546Q9.83032 4.58565 10.5334 4.58565ZM10.3284 -2.88924Q11.4584 -2.88924 12.2117 -2.62975Q12.9693 -2.37445 13.4213 -1.89315Q13.8775 -1.41603 14.0658 -0.729643Q14.2542 -0.0432587 14.2542 0.79798L14.2542 6.11327Q13.7059 6.23046 12.7265 6.39368Q11.7514 6.55691 10.3619 6.55691Q9.48713 6.55691 8.77564 6.40205Q8.06414 6.2472 7.54935 5.89564Q7.03457 5.54407 6.75834 4.97906Q6.4863 4.41405 6.4863 3.58955Q6.4863 2.80272 6.80438 2.25445Q7.12246 1.70618 7.65399 1.37973Q8.18551 1.05328 8.8719 0.910982Q9.55828 0.764498 10.2949 0.764498Q10.7888 0.764498 11.1738 0.806351Q11.563 0.848203 11.8016 0.915167L11.8016 0.676607Q11.8016 0.0237055 11.4082 -0.36971Q11.0148 -0.763125 10.0354 -0.763125Q9.38669 -0.763125 8.75053 -0.666864Q8.11436 -0.574788 7.65399 -0.403192L7.32753 -2.45816Q7.54935 -2.52931 7.88417 -2.60464Q8.219 -2.68416 8.61241 -2.74276Q9.00583 -2.80135 9.44109 -2.8432Q9.88055 -2.88924 10.3284 -2.88924ZM18.7441 1.56807Q18.7441 3.71093 20.4768 3.71093Q20.8702 3.71093 21.2134 3.61048Q21.5566 3.50585 21.7951 3.36773L21.7951 -0.712902Q21.6068 -0.746384 21.3473 -0.771495Q21.092 -0.796607 20.7488 -0.796607Q19.736 -0.796607 19.2379 -0.126964Q18.7441 0.538493 18.7441 1.56807ZM24.3481 5.23855Q24.3481 7.44837 23.2265 8.5198Q22.1048 9.59123 19.7569 9.59123Q18.9324 9.59123 18.1079 9.44474Q17.2876 9.29826 16.5845 9.0597L17.0281 6.91684Q17.6308 7.1554 18.2879 7.29352Q18.9492 7.43163 19.7904 7.43163Q20.8869 7.43163 21.3389 6.95032Q21.7951 6.4732 21.7951 5.71567L21.7951 5.3934Q21.385 5.58174 20.9455 5.678Q20.5103 5.77008 19.9955 5.77008Q18.1247 5.77008 17.1286 4.66517Q16.1367 3.55607 16.1367 1.56807Q16.1367 0.576161 16.4464 -0.239966Q16.7561 -1.05609 17.3462 -1.63785Q17.9363 -2.2196 18.7943 -2.53768Q19.6523 -2.85576 20.7321 -2.85576Q21.1966 -2.85576 21.6821 -2.80972Q22.1718 -2.76787 22.6489 -2.69672Q23.1302 -2.62975 23.5655 -2.53349Q24.005 -2.44142 24.3481 -2.34097L24.3481 5.23855ZM26.3182 1.928Q26.3182 0.72683 26.6865 -0.173002Q27.0548 -1.07283 27.6533 -1.67133Q28.256 -2.26982 29.0344 -2.57953Q29.8171 -2.88924 30.6416 -2.88924Q32.5584 -2.88924 33.6717 -1.71318Q34.7892 -0.541306 34.7892 1.73967Q34.7892 1.96148 34.7724 2.22934Q34.7557 2.49301 34.7348 2.69809L28.9423 2.69809Q29.0261 3.48911 29.679 3.95367Q30.3319 4.41405 31.4284 4.41405Q32.1315 4.41405 32.8054 4.28849Q33.4834 4.15875 33.9144 3.97041L34.2576 6.04212Q34.0526 6.14675 33.7094 6.25138Q33.3662 6.35183 32.9435 6.42717Q32.5249 6.50669 32.0436 6.55691Q31.5665 6.60713 31.0852 6.60713Q29.8673 6.60713 28.9675 6.2472Q28.0676 5.88727 27.4733 5.26366Q26.8832 4.63587 26.5986 3.78208Q26.3182 2.9241 26.3182 1.928ZM32.3199 0.952835Q32.3031 0.626384 32.2069 0.316674Q32.1148 0.00696421 31.9181 -0.231596Q31.7214 -0.470156 31.42 -0.625011Q31.1187 -0.779866 30.675 -0.779866Q30.244 -0.779866 29.9343 -0.633382Q29.6287 -0.486897 29.4237 -0.248337Q29.2186 -0.00977659 29.1056 0.308304Q28.9926 0.626384 28.9423 0.952835L32.3199 0.952835Z"/>
</svg>