<?xml version="1.0" encoding="utf-8" ?>
<svg xmlns="http://www.w3.org/2000/svg" xmlns:xlink="http://www.w3.org/1999/xlink" width="110" height="110">
	<path fill="#35B8C6" transform="matrix(1.42857 0 0 1.42857 67.1429 47.8571)" d="M8.5 0Q8.5 0.208663 8.48976 0.417075Q8.47952 0.625487 8.45907 0.833146Q8.43862 1.0408 8.408 1.24721Q8.37738 1.45361 8.33667 1.65827Q8.29597 1.86292 8.24527 2.06533Q8.19456 2.26774 8.13399 2.46742Q8.07342 2.6671 8.00312 2.86356Q7.93283 3.06003 7.85298 3.25281Q7.77312 3.44559 7.68391 3.63422Q7.59469 3.82285 7.49633 4.00687Q7.39797 4.1909 7.29069 4.36987Q7.18342 4.54885 7.06749 4.72235Q6.95156 4.89584 6.82726 5.06344Q6.70296 5.23104 6.57059 5.39234Q6.43821 5.55364 6.29808 5.70825Q6.15795 5.86286 6.01041 6.01041Q5.86286 6.15795 5.70825 6.29808Q5.55364 6.43821 5.39234 6.57059Q5.23104 6.70296 5.06344 6.82726Q4.89584 6.95156 4.72235 7.06749Q4.54885 7.18342 4.36987 7.29069Q4.1909 7.39797 4.00687 7.49633Q3.82285 7.59469 3.63422 7.68391Q3.44559 7.77312 3.25281 7.85298Q3.06003 7.93283 2.86356 8.00312Q2.6671 8.07342 2.46742 8.13399Q2.26774 8.19456 2.06533 8.24527Q1.86292 8.29597 1.65827 8.33667Q1.45361 8.37738 1.24721 8.408Q1.0408 8.43862 0.833146 8.45907Q0.625487 8.47952 0.417075 8.48976Q0.208663 8.5 0 8.5Q-0.208663 8.5 -0.417075 8.48976Q-0.625487 8.47952 -0.833146 8.45907Q-1.0408 8.43862 -1.24721 8.408Q-1.45361 8.37738 -1.65827 8.33667Q-1.86292 8.29597 -2.06533 8.24527Q-2.26774 8.19456 -2.46742 8.13399Q-2.6671 8.07342 -2.86356 8.00312Q-3.06003 7.93283 -3.25281 7.85298Q-3.44559 7.77312 -3.63422 7.68391Q-3.82285 7.59469 -4.00687 7.49633Q-4.1909 7.39797 -4.36987 7.29069Q-4.54885 7.18342 -4.72235 7.06749Q-4.89584 6.95156 -5.06344 6.82726Q-5.23104 6.70296 -5.39234 6.57059Q-5.55364 6.43821 -5.70825 6.29808Q-5.86286 6.15795 -6.01041 6.01041Q-6.15795 5.86286 -6.29808 5.70825Q-6.43821 5.55364 -6.57059 5.39234Q-6.70296 5.23104 -6.82726 5.06344Q-6.95156 4.89584 -7.06749 4.72235Q-7.18342 4.54885 -7.29069 4.36987Q-7.39797 4.1909 -7.49633 4.00687Q-7.59469 3.82285 -7.68391 3.63422Q-7.77312 3.44559 -7.85298 3.25281Q-7.93283 3.06003 -8.00312 2.86356Q-8.07342 2.6671 -8.13399 2.46742Q-8.19456 2.26774 -8.24527 2.06533Q-8.29597 1.86292 -8.33667 1.65827Q-8.37738 1.45361 -8.408 1.24721Q-8.43862 1.0408 -8.45907 0.833146Q-8.47952 0.625487 -8.48976 0.417075Q-8.5 0.208663 -8.5 0Q-8.5 -0.208663 -8.48976 -0.417075Q-8.47952 -0.625487 -8.45907 -0.833146Q-8.43862 -1.0408 -8.408 -1.24721Q-8.37738 -1.45361 -8.33667 -1.65827Q-8.29597 -1.86292 -8.24527 -2.06533Q-8.19456 -2.26774 -8.13399 -2.46742Q-8.07342 -2.6671 -8.00312 -2.86356Q-7.93283 -3.06003 -7.85298 -3.25281Q-7.77312 -3.44559 -7.68391 -3.63422Q-7.59469 -3.82285 -7.49633 -4.00687Q-7.39797 -4.1909 -7.29069 -4.36987Q-7.18342 -4.54885 -7.06749 -4.72235Q-6.95156 -4.89584 -6.82726 -5.06344Q-6.70296 -5.23104 -6.57059 -5.39234Q-6.43821 -5.55364 -6.29808 -5.70825Q-6.15795 -5.86286 -6.01041 -6.01041Q-5.86286 -6.15795 -5.70825 -6.29808Q-5.55364 -6.43821 -5.39234 -6.57059Q-5.23104 -6.70296 -5.06344 -6.82726Q-4.89584 -6.95156 -4.72235 -7.06749Q-4.54885 -7.18342 -4.36987 -7.29069Q-4.1909 -7.39797 -4.00687 -7.49633Q-3.82285 -7.59469 -3.63422 -7.68391Q-3.44559 -7.77312 -3.25281 -7.85298Q-3.06003 -7.93283 -2.86356 -8.00312Q-2.6671 -8.07342 -2.46742 -8.13399Q-2.26774 -8.19456 -2.06533 -8.24527Q-1.86292 -8.29597 -1.65827 -8.33667Q-1.45361 -8.37738 -1.24721 -8.408Q-1.0408 -8.43862 -0.833146 -8.45907Q-0.625487 -8.47952 -0.417075 -8.48976Q-0.208663 -8.5 0 -8.5Q0.208663 -8.5 0.417075 -8.48976Q0.625487 -8.47952 0.833146 -8.45907Q1.0408 -8.43862 1.24721 -8.408Q1.45361 -8.37738 1.65827 -8.33667Q1.86292 -8.29597 2.06533 -8.24527Q2.26774 -8.19456 2.46742 -8.13399Q2.6671 -8.07342 2.86356 -8.00312Q3.06003 -7.93283 3.25281 -7.85298Q3.44559 -7.77312 3.63422 -7.68391Q3.82285 -7.59469 4.00687 -7.49633Q4.1909 -7.39797 4.36987 -7.29069Q4.54885 -7.18342 4.72235 -7.06749Q4.89584 -6.95156 5.06344 -6.82726Q5.23104 -6.70296 5.39234 -6.57059Q5.55364 -6.43821 5.70825 -6.29808Q5.86286 -6.15795 6.01041 -6.01041Q6.15795 -5.86286 6.29808 -5.70825Q6.43821 -5.55364 6.57059 -5.39234Q6.70296 -5.23104 6.82726 -5.06344Q6.95156 -4.89584 7.06749 -4.72235Q7.18342 -4.54885 7.29069 -4.36987Q7.39797 -4.1909 7.49633 -4.00687Q7.59469 -3.82285 7.68391 -3.63422Q7.77312 -3.44559 7.85298 -3.25281Q7.93283 -3.06003 8.00312 -2.86356Q8.07342 -2.6671 8.13399 -2.46742Q8.19456 -2.26774 8.24527 -2.06533Q8.29597 -1.86292 8.33667 -1.65827Q8.37738 -1.45361 8.408 -1.24721Q8.43862 -1.0408 8.45907 -0.833146Q8.47952 -0.625487 8.48976 -0.417075Q8.5 -0.208663 8.5 0"/>
	<path fill="#42E3F5" transform="matrix(1.42857 0 0 1.42857 67.1429 47.8571)" d="M5.5 0Q5.5 0.135017 5.49337 0.269872Q5.48675 0.404727 5.47352 0.539094Q5.46028 0.673461 5.44047 0.807017Q5.42066 0.940574 5.39432 1.073Q5.36798 1.20542 5.33517 1.33639Q5.30237 1.46736 5.26317 1.59657Q5.22398 1.72577 5.17849 1.85289Q5.13301 1.98002 5.08134 2.10476Q5.02967 2.2295 4.97194 2.35155Q4.91421 2.47361 4.85057 2.59268Q4.78692 2.71176 4.71751 2.82756Q4.64809 2.94337 4.57308 3.05564Q4.49807 3.1679 4.41764 3.27635Q4.33721 3.38479 4.25156 3.48916Q4.1659 3.59353 4.07523 3.69357Q3.98456 3.79362 3.88909 3.88909Q3.79362 3.98456 3.69357 4.07523Q3.59353 4.1659 3.48916 4.25156Q3.38479 4.33721 3.27635 4.41764Q3.1679 4.49807 3.05564 4.57308Q2.94337 4.64809 2.82756 4.71751Q2.71176 4.78692 2.59268 4.85057Q2.47361 4.91421 2.35155 4.97194Q2.2295 5.02967 2.10476 5.08134Q1.98002 5.13301 1.85289 5.17849Q1.72577 5.22398 1.59657 5.26317Q1.46736 5.30237 1.33639 5.33517Q1.20542 5.36798 1.073 5.39432Q0.940574 5.42066 0.807017 5.44047Q0.673461 5.46028 0.539094 5.47352Q0.404727 5.48675 0.269872 5.49338Q0.135017 5.5 0 5.5Q-0.135017 5.5 -0.269872 5.49337Q-0.404727 5.48675 -0.539094 5.47352Q-0.673461 5.46028 -0.807017 5.44047Q-0.940574 5.42066 -1.073 5.39432Q-1.20542 5.36798 -1.33639 5.33517Q-1.46736 5.30237 -1.59657 5.26317Q-1.72577 5.22398 -1.85289 5.17849Q-1.98002 5.13301 -2.10476 5.08134Q-2.2295 5.02967 -2.35155 4.97194Q-2.47361 4.91421 -2.59268 4.85057Q-2.71176 4.78692 -2.82756 4.71751Q-2.94337 4.64809 -3.05564 4.57308Q-3.1679 4.49807 -3.27635 4.41764Q-3.38479 4.33721 -3.48916 4.25156Q-3.59353 4.1659 -3.69357 4.07523Q-3.79362 3.98456 -3.88909 3.88909Q-3.98456 3.79362 -4.07523 3.69357Q-4.1659 3.59353 -4.25156 3.48916Q-4.33721 3.38479 -4.41764 3.27635Q-4.49807 3.1679 -4.57308 3.05564Q-4.64809 2.94337 -4.71751 2.82756Q-4.78692 2.71176 -4.85057 2.59268Q-4.91421 2.47361 -4.97194 2.35155Q-5.02967 2.2295 -5.08134 2.10476Q-5.13301 1.98002 -5.17849 1.85289Q-5.22398 1.72577 -5.26317 1.59657Q-5.30237 1.46736 -5.33517 1.33639Q-5.36798 1.20542 -5.39432 1.073Q-5.42066 0.940574 -5.44047 0.807017Q-5.46028 0.673461 -5.47352 0.539094Q-5.48675 0.404727 -5.49338 0.269872Q-5.5 0.135017 -5.5 0Q-5.5 -0.135017 -5.49337 -0.269872Q-5.48675 -0.404727 -5.47352 -0.539094Q-5.46028 -0.673461 -5.44047 -0.807017Q-5.42066 -0.940574 -5.39432 -1.073Q-5.36798 -1.20542 -5.33517 -1.33639Q-5.30237 -1.46736 -5.26317 -1.59657Q-5.22398 -1.72577 -5.17849 -1.85289Q-5.13301 -1.98002 -5.08134 -2.10476Q-5.02967 -2.2295 -4.97194 -2.35155Q-4.91421 -2.47361 -4.85057 -2.59268Q-4.78692 -2.71176 -4.71751 -2.82756Q-4.64809 -2.94337 -4.57308 -3.05564Q-4.49807 -3.1679 -4.41764 -3.27635Q-4.33721 -3.38479 -4.25156 -3.48916Q-4.1659 -3.59353 -4.07523 -3.69357Q-3.98456 -3.79362 -3.88909 -3.88909Q-3.79362 -3.98456 -3.69357 -4.07523Q-3.59353 -4.1659 -3.48916 -4.25156Q-3.38479 -4.33721 -3.27635 -4.41764Q-3.1679 -4.49807 -3.05564 -4.57308Q-2.94337 -4.64809 -2.82756 -4.71751Q-2.71176 -4.78692 -2.59268 -4.85057Q-2.47361 -4.91421 -2.35155 -4.97194Q-2.2295 -5.02967 -2.10476 -5.08134Q-1.98002 -5.13301 -1.85289 -5.17849Q-1.72577 -5.22398 -1.59657 -5.26317Q-1.46736 -5.30237 -1.33639 -5.33517Q-1.20542 -5.36798 -1.073 -5.39432Q-0.940574 -5.42066 -0.807017 -5.44047Q-0.673461 -5.46028 -0.539094 -5.47352Q-0.404727 -5.48675 -0.269872 -5.49338Q-0.135017 -5.5 0 -5.5Q0.135017 -5.5 0.269872 -5.49337Q0.404727 -5.48675 0.539094 -5.47352Q0.673461 -5.46028 0.807017 -5.44047Q0.940574 -5.42066 1.073 -5.39432Q1.20542 -5.36798 1.33639 -5.33517Q1.46736 -5.30237 1.59657 -5.26317Q1.72577 -5.22398 1.85289 -5.17849Q1.98002 -5.13301 2.10476 -5.08134Q2.2295 -5.02967 2.35155 -4.97194Q2.47361 -4.91421 2.59268 -4.85057Q2.71176 -4.78692 2.82756 -4.71751Q2.94337 -4.64809 3.05564 -4.57308Q3.1679 -4.49807 3.27635 -4.41764Q3.38479 -4.33721 3.48916 -4.25156Q3.59353 -4.1659 3.69357 -4.07523Q3.79362 -3.98456 3.88909 -3.88909Q3.98456 -3.79362 4.07523 -3.69357Q4.1659 -3.59353 4.25156 -3.48916Q4.33721 -3.38479 4.41764 -3.27635Q4.49807 -3.1679 4.57308 -3.05564Q4.64809 -2.94337 4.71751 -2.82756Q4.78692 -2.71176 4.85057 -2.59268Q4.91421 -2.47361 4.97194 -2.35155Q5.02967 -2.2295 5.08134 -2.10476Q5.13301 -1.98002 5.17849 -1.85289Q5.22398 -1.72577 5.26317 -1.59657Q5.30237 -1.46736 5.33517 -1.33639Q5.36798 -1.20542 5.39432 -1.073Q5.42066 -0.940574 5.44047 -0.807017Q5.46028 -0.673461 5.47352 -0.539094Q5.48675 -0.404727 5.49338 -0.269872Q5.5 -0.135017 5.5 0"/>
	<path fill="#35B8C6" transform="matrix(0 1.42857 -1.42857 0 55 60)" d="M8.5 0Q8.5 0.208663 8.48976 0.417075Q8.47952 0.625487 8.45907 0.833146Q8.43862 1.0408 8.408 1.24721Q8.37738 1.45361 8.33667 1.65827Q8.29597 1.86292 8.24527 2.06533Q8.19456 2.26774 8.13399 2.46742Q8.07342 2.6671 8.00312 2.86356Q7.93283 3.06003 7.85298 3.25281Q7.77312 3.44559 7.68391 3.63422Q7.59469 3.82285 7.49633 4.00687Q7.39797 4.1909 7.29069 4.36987Q7.18342 4.54885 7.06749 4.72235Q6.95156 4.89584 6.82726 5.06344Q6.70296 5.23104 6.57059 5.39234Q6.43821 5.55364 6.29808 5.70825Q6.15795 5.86286 6.01041 6.01041Q5.86286 6.15795 5.70825 6.29808Q5.55364 6.43821 5.39234 6.57059Q5.23104 6.70296 5.06344 6.82726Q4.89584 6.95156 4.72235 7.06749Q4.54885 7.18342 4.36987 7.29069Q4.1909 7.39797 4.00687 7.49633Q3.82285 7.59469 3.63422 7.68391Q3.44559 7.77312 3.25281 7.85298Q3.06003 7.93283 2.86356 8.00312Q2.6671 8.07342 2.46742 8.13399Q2.26774 8.19456 2.06533 8.24527Q1.86292 8.29597 1.65827 8.33667Q1.45361 8.37738 1.24721 8.408Q1.0408 8.43862 0.833146 8.45907Q0.625487 8.47952 0.417075 8.48976Q0.208663 8.5 0 8.5Q-0.208663 8.5 -0.417075 8.48976Q-0.625487 8.47952 -0.833146 8.45907Q-1.0408 8.43862 -1.24721 8.408Q-1.45361 8.37738 -1.65827 8.33667Q-1.86292 8.29597 -2.06533 8.24527Q-2.26774 8.19456 -2.46742 8.13399Q-2.6671 8.07342 -2.86356 8.00312Q-3.06003 7.93283 -3.25281 7.85298Q-3.44559 7.77312 -3.63422 7.68391Q-3.82285 7.59469 -4.00687 7.49633Q-4.1909 7.39797 -4.36987 7.29069Q-4.54885 7.18342 -4.72235 7.06749Q-4.89584 6.95156 -5.06344 6.82726Q-5.23104 6.70296 -5.39234 6.57059Q-5.55364 6.43821 -5.70825 6.29808Q-5.86286 6.15795 -6.01041 6.01041Q-6.15795 5.86286 -6.29808 5.70825Q-6.43821 5.55364 -6.57059 5.39234Q-6.70296 5.23104 -6.82726 5.06344Q-6.95156 4.89584 -7.06749 4.72235Q-7.18342 4.54885 -7.29069 4.36987Q-7.39797 4.1909 -7.49633 4.00687Q-7.59469 3.82285 -7.68391 3.63422Q-7.77312 3.44559 -7.85298 3.25281Q-7.93283 3.06003 -8.00312 2.86356Q-8.07342 2.6671 -8.13399 2.46742Q-8.19456 2.26774 -8.24527 2.06533Q-8.29597 1.86292 -8.33667 1.65827Q-8.37738 1.45361 -8.408 1.24721Q-8.43862 1.0408 -8.45907 0.833146Q-8.47952 0.625487 -8.48976 0.417075Q-8.5 0.208663 -8.5 0Q-8.5 -0.208663 -8.48976 -0.417075Q-8.47952 -0.625487 -8.45907 -0.833146Q-8.43862 -1.0408 -8.408 -1.24721Q-8.37738 -1.45361 -8.33667 -1.65827Q-8.29597 -1.86292 -8.24527 -2.06533Q-8.19456 -2.26774 -8.13399 -2.46742Q-8.07342 -2.6671 -8.00312 -2.86356Q-7.93283 -3.06003 -7.85298 -3.25281Q-7.77312 -3.44559 -7.68391 -3.63422Q-7.59469 -3.82285 -7.49633 -4.00687Q-7.39797 -4.1909 -7.29069 -4.36987Q-7.18342 -4.54885 -7.06749 -4.72235Q-6.95156 -4.89584 -6.82726 -5.06344Q-6.70296 -5.23104 -6.57059 -5.39234Q-6.43821 -5.55364 -6.29808 -5.70825Q-6.15795 -5.86286 -6.01041 -6.01041Q-5.86286 -6.15795 -5.70825 -6.29808Q-5.55364 -6.43821 -5.39234 -6.57059Q-5.23104 -6.70296 -5.06344 -6.82726Q-4.89584 -6.95156 -4.72235 -7.06749Q-4.54885 -7.18342 -4.36987 -7.29069Q-4.1909 -7.39797 -4.00687 -7.49633Q-3.82285 -7.59469 -3.63422 -7.68391Q-3.44559 -7.77312 -3.25281 -7.85298Q-3.06003 -7.93283 -2.86356 -8.00312Q-2.6671 -8.07342 -2.46742 -8.13399Q-2.26774 -8.19456 -2.06533 -8.24527Q-1.86292 -8.29597 -1.65827 -8.33667Q-1.45361 -8.37738 -1.24721 -8.408Q-1.0408 -8.43862 -0.833146 -8.45907Q-0.625487 -8.47952 -0.417075 -8.48976Q-0.208663 -8.5 0 -8.5Q0.208663 -8.5 0.417075 -8.48976Q0.625487 -8.47952 0.833146 -8.45907Q1.0408 -8.43862 1.24721 -8.408Q1.45361 -8.37738 1.65827 -8.33667Q1.86292 -8.29597 2.06533 -8.24527Q2.26774 -8.19456 2.46742 -8.13399Q2.6671 -8.07342 2.86356 -8.00312Q3.06003 -7.93283 3.25281 -7.85298Q3.44559 -7.77312 3.63422 -7.68391Q3.82285 -7.59469 4.00687 -7.49633Q4.1909 -7.39797 4.36987 -7.29069Q4.54885 -7.18342 4.72235 -7.06749Q4.89584 -6.95156 5.06344 -6.82726Q5.23104 -6.70296 5.39234 -6.57059Q5.55364 -6.43821 5.70825 -6.29808Q5.86286 -6.15795 6.01041 -6.01041Q6.15795 -5.86286 6.29808 -5.70825Q6.43821 -5.55364 6.57059 -5.39234Q6.70296 -5.23104 6.82726 -5.06344Q6.95156 -4.89584 7.06749 -4.72235Q7.18342 -4.54885 7.29069 -4.36987Q7.39797 -4.1909 7.49633 -4.00687Q7.59469 -3.82285 7.68391 -3.63422Q7.77312 -3.44559 7.85298 -3.25281Q7.93283 -3.06003 8.00312 -2.86356Q8.07342 -2.6671 8.13399 -2.46742Q8.19456 -2.26774 8.24527 -2.06533Q8.29597 -1.86292 8.33667 -1.65827Q8.37738 -1.45361 8.408 -1.24721Q8.43862 -1.0408 8.45907 -0.833146Q8.47952 -0.625487 8.48976 -0.417075Q8.5 -0.208663 8.5 0"/>
	<path fill="#42E3F5" transform="matrix(0 1.42857 -1.42857 0 55 60)" d="M5.5 0Q5.5 0.135017 5.49337 0.269872Q5.48675 0.404727 5.47352 0.539094Q5.46028 0.673461 5.44047 0.807017Q5.42066 0.940574 5.39432 1.073Q5.36798 1.20542 5.33517 1.33639Q5.30237 1.46736 5.26317 1.59657Q5.22398 1.72577 5.17849 1.85289Q5.13301 1.98002 5.08134 2.10476Q5.02967 2.2295 4.97194 2.35155Q4.91421 2.47361 4.85057 2.59268Q4.78692 2.71176 4.71751 2.82756Q4.64809 2.94337 4.57308 3.05564Q4.49807 3.1679 4.41764 3.27635Q4.33721 3.38479 4.25156 3.48916Q4.1659 3.59353 4.07523 3.69357Q3.98456 3.79362 3.88909 3.88909Q3.79362 3.98456 3.69357 4.07523Q3.59353 4.1659 3.48916 4.25156Q3.38479 4.33721 3.27635 4.41764Q3.1679 4.49807 3.05564 4.57308Q2.94337 4.64809 2.82756 4.71751Q2.71176 4.78692 2.59268 4.85057Q2.47361 4.91421 2.35155 4.97194Q2.2295 5.02967 2.10476 5.08134Q1.98002 5.13301 1.85289 5.17849Q1.72577 5.22398 1.59657 5.26317Q1.46736 5.30237 1.33639 5.33517Q1.20542 5.36798 1.073 5.39432Q0.940574 5.42066 0.807017 5.44047Q0.673461 5.46028 0.539094 5.47352Q0.404727 5.48675 0.269872 5.49338Q0.135017 5.5 0 5.5Q-0.135017 5.5 -0.269872 5.49337Q-0.404727 5.48675 -0.539094 5.47352Q-0.673461 5.46028 -0.807017 5.44047Q-0.940574 5.42066 -1.073 5.39432Q-1.20542 5.36798 -1.33639 5.33517Q-1.46736 5.30237 -1.59657 5.26317Q-1.72577 5.22398 -1.85289 5.17849Q-1.98002 5.13301 -2.10476 5.08134Q-2.2295 5.02967 -2.35155 4.97194Q-2.47361 4.91421 -2.59268 4.85057Q-2.71176 4.78692 -2.82756 4.71751Q-2.94337 4.64809 -3.05564 4.57308Q-3.1679 4.49807 -3.27635 4.41764Q-3.38479 4.33721 -3.48916 4.25156Q-3.59353 4.1659 -3.69357 4.07523Q-3.79362 3.98456 -3.88909 3.88909Q-3.98456 3.79362 -4.07523 3.69357Q-4.1659 3.59353 -4.25156 3.48916Q-4.33721 3.38479 -4.41764 3.27635Q-4.49807 3.1679 -4.57308 3.05564Q-4.64809 2.94337 -4.71751 2.82756Q-4.78692 2.71176 -4.85057 2.59268Q-4.91421 2.47361 -4.97194 2.35155Q-5.02967 2.2295 -5.08134 2.10476Q-5.13301 1.98002 -5.17849 1.85289Q-5.22398 1.72577 -5.26317 1.59657Q-5.30237 1.46736 -5.33517 1.33639Q-5.36798 1.20542 -5.39432 1.073Q-5.42066 0.940574 -5.44047 0.807017Q-5.46028 0.673461 -5.47352 0.539094Q-5.48675 0.404727 -5.49338 0.269872Q-5.5 0.135017 -5.5 0Q-5.5 -0.135017 -5.49337 -0.269872Q-5.48675 -0.404727 -5.47352 -0.539094Q-5.46028 -0.673461 -5.44047 -0.807017Q-5.42066 -0.940574 -5.39432 -1.073Q-5.36798 -1.20542 -5.33517 -1.33639Q-5.30237 -1.46736 -5.26317 -1.59657Q-5.22398 -1.72577 -5.17849 -1.85289Q-5.13301 -1.98002 -5.08134 -2.10476Q-5.02967 -2.2295 -4.97194 -2.35155Q-4.91421 -2.47361 -4.85057 -2.59268Q-4.78692 -2.71176 -4.71751 -2.82756Q-4.64809 -2.94337 -4.57308 -3.05564Q-4.49807 -3.1679 -4.41764 -3.27635Q-4.33721 -3.38479 -4.25156 -3.48916Q-4.1659 -3.59353 -4.07523 -3.69357Q-3.98456 -3.79362 -3.88909 -3.88909Q-3.79362 -3.98456 -3.69357 -4.07523Q-3.59353 -4.1659 -3.48916 -4.25156Q-3.38479 -4.33721 -3.27635 -4.41764Q-3.1679 -4.49807 -3.05564 -4.57308Q-2.94337 -4.64809 -2.82756 -4.71751Q-2.71176 -4.78692 -2.59268 -4.85057Q-2.47361 -4.91421 -2.35155 -4.97194Q-2.2295 -5.02967 -2.10476 -5.08134Q-1.98002 -5.13301 -1.85289 -5.17849Q-1.72577 -5.22398 -1.59657 -5.26317Q-1.46736 -5.30237 -1.33639 -5.33517Q-1.20542 -5.36798 -1.073 -5.39432Q-0.940574 -5.42066 -0.807017 -5.44047Q-0.673461 -5.46028 -0.539094 -5.47352Q-0.404727 -5.48675 -0.269872 -5.49338Q-0.135017 -5.5 0 -5.5Q0.135017 -5.5 0.269872 -5.49337Q0.404727 -5.48675 0.539094 -5.47352Q0.673461 -5.46028 0.807017 -5.44047Q0.940574 -5.42066 1.073 -5.39432Q1.20542 -5.36798 1.33639 -5.33517Q1.46736 -5.30237 1.59657 -5.26317Q1.72577 -5.22398 1.85289 -5.17849Q1.98002 -5.13301 2.10476 -5.08134Q2.2295 -5.02967 2.35155 -4.97194Q2.47361 -4.91421 2.59268 -4.85057Q2.71176 -4.78692 2.82756 -4.71751Q2.94337 -4.64809 3.05564 -4.57308Q3.1679 -4.49807 3.27635 -4.41764Q3.38479 -4.33721 3.48916 -4.25156Q3.59353 -4.1659 3.69357 -4.07523Q3.79362 -3.98456 3.88909 -3.88909Q3.98456 -3.79362 4.07523 -3.69357Q4.1659 -3.59353 4.25156 -3.48916Q4.33721 -3.38479 4.41764 -3.27635Q4.49807 -3.1679 4.57308 -3.05564Q4.64809 -2.94337 4.71751 -2.82756Q4.78692 -2.71176 4.85057 -2.59268Q4.91421 -2.47361 4.97194 -2.35155Q5.02967 -2.2295 5.08134 -2.10476Q5.13301 -1.98002 5.17849 -1.85289Q5.22398 -1.72577 5.26317 -1.59657Q5.30237 -1.46736 5.33517 -1.33639Q5.36798 -1.20542 5.39432 -1.073Q5.42066 -0.940574 5.44047 -0.807017Q5.46028 -0.673461 5.47352 -0.539094Q5.48675 -0.404727 5.49338 -0.269872Q5.5 -0.135017 5.5 0"/>
	<path fill="#35B8C6" transform="matrix(-1.42857 0 0 -1.42857 42.8571 47.8571)" d="M8.5 0Q8.5 0.208663 8.48976 0.417075Q8.47952 0.625487 8.45907 0.833146Q8.43862 1.0408 8.408 1.24721Q8.37738 1.45361 8.33667 1.65827Q8.29597 1.86292 8.24527 2.06533Q8.19456 2.26774 8.13399 2.46742Q8.07342 2.6671 8.00312 2.86356Q7.93283 3.06003 7.85298 3.25281Q7.77312 3.44559 7.68391 3.63422Q7.59469 3.82285 7.49633 4.00687Q7.39797 4.1909 7.29069 4.36987Q7.18342 4.54885 7.06749 4.72235Q6.95156 4.89584 6.82726 5.06344Q6.70296 5.23104 6.57059 5.39234Q6.43821 5.55364 6.29808 5.70825Q6.15795 5.86286 6.01041 6.01041Q5.86286 6.15795 5.70825 6.29808Q5.55364 6.43821 5.39234 6.57059Q5.23104 6.70296 5.06344 6.82726Q4.89584 6.95156 4.72235 7.06749Q4.54885 7.18342 4.36987 7.29069Q4.1909 7.39797 4.00687 7.49633Q3.82285 7.59469 3.63422 7.68391Q3.44559 7.77312 3.25281 7.85298Q3.06003 7.93283 2.86356 8.00312Q2.6671 8.07342 2.46742 8.13399Q2.26774 8.19456 2.06533 8.24527Q1.86292 8.29597 1.65827 8.33667Q1.45361 8.37738 1.24721 8.408Q1.0408 8.43862 0.833146 8.45907Q0.625487 8.47952 0.417075 8.48976Q0.208663 8.5 0 8.5Q-0.208663 8.5 -0.417075 8.48976Q-0.625487 8.47952 -0.833146 8.45907Q-1.0408 8.43862 -1.24721 8.408Q-1.45361 8.37738 -1.65827 8.33667Q-1.86292 8.29597 -2.06533 8.24527Q-2.26774 8.19456 -2.46742 8.13399Q-2.6671 8.07342 -2.86356 8.00312Q-3.06003 7.93283 -3.25281 7.85298Q-3.44559 7.77312 -3.63422 7.68391Q-3.82285 7.59469 -4.00687 7.49633Q-4.1909 7.39797 -4.36987 7.29069Q-4.54885 7.18342 -4.72235 7.06749Q-4.89584 6.95156 -5.06344 6.82726Q-5.23104 6.70296 -5.39234 6.57059Q-5.55364 6.43821 -5.70825 6.29808Q-5.86286 6.15795 -6.01041 6.01041Q-6.15795 5.86286 -6.29808 5.70825Q-6.43821 5.55364 -6.57059 5.39234Q-6.70296 5.23104 -6.82726 5.06344Q-6.95156 4.89584 -7.06749 4.72235Q-7.18342 4.54885 -7.29069 4.36987Q-7.39797 4.1909 -7.49633 4.00687Q-7.59469 3.82285 -7.68391 3.63422Q-7.77312 3.44559 -7.85298 3.25281Q-7.93283 3.06003 -8.00312 2.86356Q-8.07342 2.6671 -8.13399 2.46742Q-8.19456 2.26774 -8.24527 2.06533Q-8.29597 1.86292 -8.33667 1.65827Q-8.37738 1.45361 -8.408 1.24721Q-8.43862 1.0408 -8.45907 0.833146Q-8.47952 0.625487 -8.48976 0.417075Q-8.5 0.208663 -8.5 0Q-8.5 -0.208663 -8.48976 -0.417075Q-8.47952 -0.625487 -8.45907 -0.833146Q-8.43862 -1.0408 -8.408 -1.24721Q-8.37738 -1.45361 -8.33667 -1.65827Q-8.29597 -1.86292 -8.24527 -2.06533Q-8.19456 -2.26774 -8.13399 -2.46742Q-8.07342 -2.6671 -8.00312 -2.86356Q-7.93283 -3.06003 -7.85298 -3.25281Q-7.77312 -3.44559 -7.68391 -3.63422Q-7.59469 -3.82285 -7.49633 -4.00687Q-7.39797 -4.1909 -7.29069 -4.36987Q-7.18342 -4.54885 -7.06749 -4.72235Q-6.95156 -4.89584 -6.82726 -5.06344Q-6.70296 -5.23104 -6.57059 -5.39234Q-6.43821 -5.55364 -6.29808 -5.70825Q-6.15795 -5.86286 -6.01041 -6.01041Q-5.86286 -6.15795 -5.70825 -6.29808Q-5.55364 -6.43821 -5.39234 -6.57059Q-5.23104 -6.70296 -5.06344 -6.82726Q-4.89584 -6.95156 -4.72235 -7.06749Q-4.54885 -7.18342 -4.36987 -7.29069Q-4.1909 -7.39797 -4.00687 -7.49633Q-3.82285 -7.59469 -3.63422 -7.68391Q-3.44559 -7.77312 -3.25281 -7.85298Q-3.06003 -7.93283 -2.86356 -8.00312Q-2.6671 -8.07342 -2.46742 -8.13399Q-2.26774 -8.19456 -2.06533 -8.24527Q-1.86292 -8.29597 -1.65827 -8.33667Q-1.45361 -8.37738 -1.24721 -8.408Q-1.0408 -8.43862 -0.833146 -8.45907Q-0.625487 -8.47952 -0.417075 -8.48976Q-0.208663 -8.5 0 -8.5Q0.208663 -8.5 0.417075 -8.48976Q0.625487 -8.47952 0.833146 -8.45907Q1.0408 -8.43862 1.24721 -8.408Q1.45361 -8.37738 1.65827 -8.33667Q1.86292 -8.29597 2.06533 -8.24527Q2.26774 -8.19456 2.46742 -8.13399Q2.6671 -8.07342 2.86356 -8.00312Q3.06003 -7.93283 3.25281 -7.85298Q3.44559 -7.77312 3.63422 -7.68391Q3.82285 -7.59469 4.00687 -7.49633Q4.1909 -7.39797 4.36987 -7.29069Q4.54885 -7.18342 4.72235 -7.06749Q4.89584 -6.95156 5.06344 -6.82726Q5.23104 -6.70296 5.39234 -6.57059Q5.55364 -6.43821 5.70825 -6.29808Q5.86286 -6.15795 6.01041 -6.01041Q6.15795 -5.86286 6.29808 -5.70825Q6.43821 -5.55364 6.57059 -5.39234Q6.70296 -5.23104 6.82726 -5.06344Q6.95156 -4.89584 7.06749 -4.72235Q7.18342 -4.54885 7.29069 -4.36987Q7.39797 -4.1909 7.49633 -4.00687Q7.59469 -3.82285 7.68391 -3.63422Q7.77312 -3.44559 7.85298 -3.25281Q7.93283 -3.06003 8.00312 -2.86356Q8.07342 -2.6671 8.13399 -2.46742Q8.19456 -2.26774 8.24527 -2.06533Q8.29597 -1.86292 8.33667 -1.65827Q8.37738 -1.45361 8.408 -1.24721Q8.43862 -1.0408 8.45907 -0.833146Q8.47952 -0.625487 8.48976 -0.417075Q8.5 -0.208663 8.5 0"/>
	<path fill="#42E3F5" transform="matrix(-1.42857 0 0 -1.42857 42.8571 47.8571)" d="M5.5 0Q5.5 0.135017 5.49337 0.269872Q5.48675 0.404727 5.47352 0.539094Q5.46028 0.673461 5.44047 0.807017Q5.42066 0.940574 5.39432 1.073Q5.36798 1.20542 5.33517 1.33639Q5.30237 1.46736 5.26317 1.59657Q5.22398 1.72577 5.17849 1.85289Q5.13301 1.98002 5.08134 2.10476Q5.02967 2.2295 4.97194 2.35155Q4.91421 2.47361 4.85057 2.59268Q4.78692 2.71176 4.71751 2.82756Q4.64809 2.94337 4.57308 3.05564Q4.49807 3.1679 4.41764 3.27635Q4.33721 3.38479 4.25156 3.48916Q4.1659 3.59353 4.07523 3.69357Q3.98456 3.79362 3.88909 3.88909Q3.79362 3.98456 3.69357 4.07523Q3.59353 4.1659 3.48916 4.25156Q3.38479 4.33721 3.27635 4.41764Q3.1679 4.49807 3.05564 4.57308Q2.94337 4.64809 2.82756 4.71751Q2.71176 4.78692 2.59268 4.85057Q2.47361 4.91421 2.35155 4.97194Q2.2295 5.02967 2.10476 5.08134Q1.98002 5.13301 1.85289 5.17849Q1.72577 5.22398 1.59657 5.26317Q1.46736 5.30237 1.33639 5.33517Q1.20542 5.36798 1.073 5.39432Q0.940574 5.42066 0.807017 5.44047Q0.673461 5.46028 0.539094 5.47352Q0.404727 5.48675 0.269872 5.49338Q0.135017 5.5 0 5.5Q-0.135017 5.5 -0.269872 5.49337Q-0.404727 5.48675 -0.539094 5.47352Q-0.673461 5.46028 -0.807017 5.44047Q-0.940574 5.42066 -1.073 5.39432Q-1.20542 5.36798 -1.33639 5.33517Q-1.46736 5.30237 -1.59657 5.26317Q-1.72577 5.22398 -1.85289 5.17849Q-1.98002 5.13301 -2.10476 5.08134Q-2.2295 5.02967 -2.35155 4.97194Q-2.47361 4.91421 -2.59268 4.85057Q-2.71176 4.78692 -2.82756 4.71751Q-2.94337 4.64809 -3.05564 4.57308Q-3.1679 4.49807 -3.27635 4.41764Q-3.38479 4.33721 -3.48916 4.25156Q-3.59353 4.1659 -3.69357 4.07523Q-3.79362 3.98456 -3.88909 3.88909Q-3.98456 3.79362 -4.07523 3.69357Q-4.1659 3.59353 -4.25156 3.48916Q-4.33721 3.38479 -4.41764 3.27635Q-4.49807 3.1679 -4.57308 3.05564Q-4.64809 2.94337 -4.71751 2.82756Q-4.78692 2.71176 -4.85057 2.59268Q-4.91421 2.47361 -4.97194 2.35155Q-5.02967 2.2295 -5.08134 2.10476Q-5.13301 1.98002 -5.17849 1.85289Q-5.22398 1.72577 -5.26317 1.59657Q-5.30237 1.46736 -5.33517 1.33639Q-5.36798 1.20542 -5.39432 1.073Q-5.42066 0.940574 -5.44047 0.807017Q-5.46028 0.673461 -5.47352 0.539094Q-5.48675 0.404727 -5.49338 0.269872Q-5.5 0.135017 -5.5 0Q-5.5 -0.135017 -5.49337 -0.269872Q-5.48675 -0.404727 -5.47352 -0.539094Q-5.46028 -0.673461 -5.44047 -0.807017Q-5.42066 -0.940574 -5.39432 -1.073Q-5.36798 -1.20542 -5.33517 -1.33639Q-5.30237 -1.46736 -5.26317 -1.59657Q-5.22398 -1.72577 -5.17849 -1.85289Q-5.13301 -1.98002 -5.08134 -2.10476Q-5.02967 -2.2295 -4.97194 -2.35155Q-4.91421 -2.47361 -4.85057 -2.59268Q-4.78692 -2.71176 -4.71751 -2.82756Q-4.64809 -2.94337 -4.57308 -3.05564Q-4.49807 -3.1679 -4.41764 -3.27635Q-4.33721 -3.38479 -4.25156 -3.48916Q-4.1659 -3.59353 -4.07523 -3.69357Q-3.98456 -3.79362 -3.88909 -3.88909Q-3.79362 -3.98456 -3.69357 -4.07523Q-3.59353 -4.1659 -3.48916 -4.25156Q-3.38479 -4.33721 -3.27635 -4.41764Q-3.1679 -4.49807 -3.05564 -4.57308Q-2.94337 -4.64809 -2.82756 -4.71751Q-2.71176 -4.78692 -2.59268 -4.85057Q-2.47361 -4.91421 -2.35155 -4.97194Q-2.2295 -5.02967 -2.10476 -5.08134Q-1.98002 -5.13301 -1.85289 -5.17849Q-1.72577 -5.22398 -1.59657 -5.26317Q-1.46736 -5.30237 -1.33639 -5.33517Q-1.20542 -5.36798 -1.073 -5.39432Q-0.940574 -5.42066 -0.807017 -5.44047Q-0.673461 -5.46028 -0.539094 -5.47352Q-0.404727 -5.48675 -0.269872 -5.49338Q-0.135017 -5.5 0 -5.5Q0.135017 -5.5 0.269872 -5.49337Q0.404727 -5.48675 0.539094 -5.47352Q0.673461 -5.46028 0.807017 -5.44047Q0.940574 -5.42066 1.073 -5.39432Q1.20542 -5.36798 1.33639 -5.33517Q1.46736 -5.30237 1.59657 -5.26317Q1.72577 -5.22398 1.85289 -5.17849Q1.98002 -5.13301 2.10476 -5.08134Q2.2295 -5.02967 2.35155 -4.97194Q2.47361 -4.91421 2.59268 -4.85057Q2.71176 -4.78692 2.82756 -4.71751Q2.94337 -4.64809 3.05564 -4.57308Q3.1679 -4.49807 3.27635 -4.41764Q3.38479 -4.33721 3.48916 -4.25156Q3.59353 -4.1659 3.69357 -4.07523Q3.79362 -3.98456 3.88909 -3.88909Q3.98456 -3.79362 4.07523 -3.69357Q4.1659 -3.59353 4.25156 -3.48916Q4.33721 -3.38479 4.41764 -3.27635Q4.49807 -3.1679 4.57308 -3.05564Q4.64809 -2.94337 4.71751 -2.82756Q4.78692 -2.71176 4.85057 -2.59268Q4.91421 -2.47361 4.97194 -2.35155Q5.02967 -2.2295 5.08134 -2.10476Q5.13301 -1.98002 5.17849 -1.85289Q5.22398 -1.72577 5.26317 -1.59657Q5.30237 -1.46736 5.33517 -1.33639Q5.36798 -1.20542 5.39432 -1.073Q5.42066 -0.940574 5.44047 -0.807017Q5.46028 -0.673461 5.47352 -0.539094Q5.48675 -0.404727 5.49338 -0.269872Q5.5 -0.135017 5.5 0"/>
	<path fill="#35B8C6" transform="matrix(0 -1.42857 1.42857 0 55 35.7143)" d="M8.5 0Q8.5 0.208663 8.48976 0.417075Q8.47952 0.625487 8.45907 0.833146Q8.43862 1.0408 8.408 1.24721Q8.37738 1.45361 8.33667 1.65827Q8.29597 1.86292 8.24527 2.06533Q8.19456 2.26774 8.13399 2.46742Q8.07342 2.6671 8.00312 2.86356Q7.93283 3.06003 7.85298 3.25281Q7.77312 3.44559 7.68391 3.63422Q7.59469 3.82285 7.49633 4.00687Q7.39797 4.1909 7.29069 4.36987Q7.18342 4.54885 7.06749 4.72235Q6.95156 4.89584 6.82726 5.06344Q6.70296 5.23104 6.57059 5.39234Q6.43821 5.55364 6.29808 5.70825Q6.15795 5.86286 6.01041 6.01041Q5.86286 6.15795 5.70825 6.29808Q5.55364 6.43821 5.39234 6.57059Q5.23104 6.70296 5.06344 6.82726Q4.89584 6.95156 4.72235 7.06749Q4.54885 7.18342 4.36987 7.29069Q4.1909 7.39797 4.00687 7.49633Q3.82285 7.59469 3.63422 7.68391Q3.44559 7.77312 3.25281 7.85298Q3.06003 7.93283 2.86356 8.00312Q2.6671 8.07342 2.46742 8.13399Q2.26774 8.19456 2.06533 8.24527Q1.86292 8.29597 1.65827 8.33667Q1.45361 8.37738 1.24721 8.408Q1.0408 8.43862 0.833146 8.45907Q0.625487 8.47952 0.417075 8.48976Q0.208663 8.5 0 8.5Q-0.208663 8.5 -0.417075 8.48976Q-0.625487 8.47952 -0.833146 8.45907Q-1.0408 8.43862 -1.24721 8.408Q-1.45361 8.37738 -1.65827 8.33667Q-1.86292 8.29597 -2.06533 8.24527Q-2.26774 8.19456 -2.46742 8.13399Q-2.6671 8.07342 -2.86356 8.00312Q-3.06003 7.93283 -3.25281 7.85298Q-3.44559 7.77312 -3.63422 7.68391Q-3.82285 7.59469 -4.00687 7.49633Q-4.1909 7.39797 -4.36987 7.29069Q-4.54885 7.18342 -4.72235 7.06749Q-4.89584 6.95156 -5.06344 6.82726Q-5.23104 6.70296 -5.39234 6.57059Q-5.55364 6.43821 -5.70825 6.29808Q-5.86286 6.15795 -6.01041 6.01041Q-6.15795 5.86286 -6.29808 5.70825Q-6.43821 5.55364 -6.57059 5.39234Q-6.70296 5.23104 -6.82726 5.06344Q-6.95156 4.89584 -7.06749 4.72235Q-7.18342 4.54885 -7.29069 4.36987Q-7.39797 4.1909 -7.49633 4.00687Q-7.59469 3.82285 -7.68391 3.63422Q-7.77312 3.44559 -7.85298 3.25281Q-7.93283 3.06003 -8.00312 2.86356Q-8.07342 2.6671 -8.13399 2.46742Q-8.19456 2.26774 -8.24527 2.06533Q-8.29597 1.86292 -8.33667 1.65827Q-8.37738 1.45361 -8.408 1.24721Q-8.43862 1.0408 -8.45907 0.833146Q-8.47952 0.625487 -8.48976 0.417075Q-8.5 0.208663 -8.5 0Q-8.5 -0.208663 -8.48976 -0.417075Q-8.47952 -0.625487 -8.45907 -0.833146Q-8.43862 -1.0408 -8.408 -1.24721Q-8.37738 -1.45361 -8.33667 -1.65827Q-8.29597 -1.86292 -8.24527 -2.06533Q-8.19456 -2.26774 -8.13399 -2.46742Q-8.07342 -2.6671 -8.00312 -2.86356Q-7.93283 -3.06003 -7.85298 -3.25281Q-7.77312 -3.44559 -7.68391 -3.63422Q-7.59469 -3.82285 -7.49633 -4.00687Q-7.39797 -4.1909 -7.29069 -4.36987Q-7.18342 -4.54885 -7.06749 -4.72235Q-6.95156 -4.89584 -6.82726 -5.06344Q-6.70296 -5.23104 -6.57059 -5.39234Q-6.43821 -5.55364 -6.29808 -5.70825Q-6.15795 -5.86286 -6.01041 -6.01041Q-5.86286 -6.15795 -5.70825 -6.29808Q-5.55364 -6.43821 -5.39234 -6.57059Q-5.23104 -6.70296 -5.06344 -6.82726Q-4.89584 -6.95156 -4.72235 -7.06749Q-4.54885 -7.18342 -4.36987 -7.29069Q-4.1909 -7.39797 -4.00687 -7.49633Q-3.82285 -7.59469 -3.63422 -7.68391Q-3.44559 -7.77312 -3.25281 -7.85298Q-3.06003 -7.93283 -2.86356 -8.00312Q-2.6671 -8.07342 -2.46742 -8.13399Q-2.26774 -8.19456 -2.06533 -8.24527Q-1.86292 -8.29597 -1.65827 -8.33667Q-1.45361 -8.37738 -1.24721 -8.408Q-1.0408 -8.43862 -0.833146 -8.45907Q-0.625487 -8.47952 -0.417075 -8.48976Q-0.208663 -8.5 0 -8.5Q0.208663 -8.5 0.417075 -8.48976Q0.625487 -8.47952 0.833146 -8.45907Q1.0408 -8.43862 1.24721 -8.408Q1.45361 -8.37738 1.65827 -8.33667Q1.86292 -8.29597 2.06533 -8.24527Q2.26774 -8.19456 2.46742 -8.13399Q2.6671 -8.07342 2.86356 -8.00312Q3.06003 -7.93283 3.25281 -7.85298Q3.44559 -7.77312 3.63422 -7.68391Q3.82285 -7.59469 4.00687 -7.49633Q4.1909 -7.39797 4.36987 -7.29069Q4.54885 -7.18342 4.72235 -7.06749Q4.89584 -6.95156 5.06344 -6.82726Q5.23104 -6.70296 5.39234 -6.57059Q5.55364 -6.43821 5.70825 -6.29808Q5.86286 -6.15795 6.01041 -6.01041Q6.15795 -5.86286 6.29808 -5.70825Q6.43821 -5.55364 6.57059 -5.39234Q6.70296 -5.23104 6.82726 -5.06344Q6.95156 -4.89584 7.06749 -4.72235Q7.18342 -4.54885 7.29069 -4.36987Q7.39797 -4.1909 7.49633 -4.00687Q7.59469 -3.82285 7.68391 -3.63422Q7.77312 -3.44559 7.85298 -3.25281Q7.93283 -3.06003 8.00312 -2.86356Q8.07342 -2.6671 8.13399 -2.46742Q8.19456 -2.26774 8.24527 -2.06533Q8.29597 -1.86292 8.33667 -1.65827Q8.37738 -1.45361 8.408 -1.24721Q8.43862 -1.0408 8.45907 -0.833146Q8.47952 -0.625487 8.48976 -0.417075Q8.5 -0.208663 8.5 0"/>
	<path fill="#42E3F5" transform="matrix(0 -1.42857 1.42857 0 55 35.7143)" d="M5.5 0Q5.5 0.135017 5.49337 0.269872Q5.48675 0.404727 5.47352 0.539094Q5.46028 0.673461 5.44047 0.807017Q5.42066 0.940574 5.39432 1.073Q5.36798 1.20542 5.33517 1.33639Q5.30237 1.46736 5.26317 1.59657Q5.22398 1.72577 5.17849 1.85289Q5.13301 1.98002 5.08134 2.10476Q5.02967 2.2295 4.97194 2.35155Q4.91421 2.47361 4.85057 2.59268Q4.78692 2.71176 4.71751 2.82756Q4.64809 2.94337 4.57308 3.05564Q4.49807 3.1679 4.41764 3.27635Q4.33721 3.38479 4.25156 3.48916Q4.1659 3.59353 4.07523 3.69357Q3.98456 3.79362 3.88909 3.88909Q3.79362 3.98456 3.69357 4.07523Q3.59353 4.1659 3.48916 4.25156Q3.38479 4.33721 3.27635 4.41764Q3.1679 4.49807 3.05564 4.57308Q2.94337 4.64809 2.82756 4.71751Q2.71176 4.78692 2.59268 4.85057Q2.47361 4.91421 2.35155 4.97194Q2.2295 5.02967 2.10476 5.08134Q1.98002 5.13301 1.85289 5.17849Q1.72577 5.22398 1.59657 5.26317Q1.46736 5.30237 1.33639 5.33517Q1.20542 5.36798 1.073 5.39432Q0.940574 5.42066 0.807017 5.44047Q0.673461 5.46028 0.539094 5.47352Q0.404727 5.48675 0.269872 5.49338Q0.135017 5.5 0 5.5Q-0.135017 5.5 -0.269872 5.49337Q-0.404727 5.48675 -0.539094 5.47352Q-0.673461 5.46028 -0.807017 5.44047Q-0.940574 5.42066 -1.073 5.39432Q-1.20542 5.36798 -1.33639 5.33517Q-1.46736 5.30237 -1.59657 5.26317Q-1.72577 5.22398 -1.85289 5.17849Q-1.98002 5.13301 -2.10476 5.08134Q-2.2295 5.02967 -2.35155 4.97194Q-2.47361 4.91421 -2.59268 4.85057Q-2.71176 4.78692 -2.82756 4.71751Q-2.94337 4.64809 -3.05564 4.57308Q-3.1679 4.49807 -3.27635 4.41764Q-3.38479 4.33721 -3.48916 4.25156Q-3.59353 4.1659 -3.69357 4.07523Q-3.79362 3.98456 -3.88909 3.88909Q-3.98456 3.79362 -4.07523 3.69357Q-4.1659 3.59353 -4.25156 3.48916Q-4.33721 3.38479 -4.41764 3.27635Q-4.49807 3.1679 -4.57308 3.05564Q-4.64809 2.94337 -4.71751 2.82756Q-4.78692 2.71176 -4.85057 2.59268Q-4.91421 2.47361 -4.97194 2.35155Q-5.02967 2.2295 -5.08134 2.10476Q-5.13301 1.98002 -5.17849 1.85289Q-5.22398 1.72577 -5.26317 1.59657Q-5.30237 1.46736 -5.33517 1.33639Q-5.36798 1.20542 -5.39432 1.073Q-5.42066 0.940574 -5.44047 0.807017Q-5.46028 0.673461 -5.47352 0.539094Q-5.48675 0.404727 -5.49338 0.269872Q-5.5 0.135017 -5.5 0Q-5.5 -0.135017 -5.49337 -0.269872Q-5.48675 -0.404727 -5.47352 -0.539094Q-5.46028 -0.673461 -5.44047 -0.807017Q-5.42066 -0.940574 -5.39432 -1.073Q-5.36798 -1.20542 -5.33517 -1.33639Q-5.30237 -1.46736 -5.26317 -1.59657Q-5.22398 -1.72577 -5.17849 -1.85289Q-5.13301 -1.98002 -5.08134 -2.10476Q-5.02967 -2.2295 -4.97194 -2.35155Q-4.91421 -2.47361 -4.85057 -2.59268Q-4.78692 -2.71176 -4.71751 -2.82756Q-4.64809 -2.94337 -4.57308 -3.05564Q-4.49807 -3.1679 -4.41764 -3.27635Q-4.33721 -3.38479 -4.25156 -3.48916Q-4.1659 -3.59353 -4.07523 -3.69357Q-3.98456 -3.79362 -3.88909 -3.88909Q-3.79362 -3.98456 -3.69357 -4.07523Q-3.59353 -4.1659 -3.48916 -4.25156Q-3.38479 -4.33721 -3.27635 -4.41764Q-3.1679 -4.49807 -3.05564 -4.57308Q-2.94337 -4.64809 -2.82756 -4.71751Q-2.71176 -4.78692 -2.59268 -4.85057Q-2.47361 -4.91421 -2.35155 -4.97194Q-2.2295 -5.02967 -2.10476 -5.08134Q-1.98002 -5.13301 -1.85289 -5.17849Q-1.72577 -5.22398 -1.59657 -5.26317Q-1.46736 -5.30237 -1.33639 -5.33517Q-1.20542 -5.36798 -1.073 -5.39432Q-0.940574 -5.42066 -0.807017 -5.44047Q-0.673461 -5.46028 -0.539094 -5.47352Q-0.404727 -5.48675 -0.269872 -5.49338Q-0.135017 -5.5 0 -5.5Q0.135017 -5.5 0.269872 -5.49337Q0.404727 -5.48675 0.539094 -5.47352Q0.673461 -5.46028 0.807017 -5.44047Q0.940574 -5.42066 1.073 -5.39432Q1.20542 -5.36798 1.33639 -5.33517Q1.46736 -5.30237 1.59657 -5.26317Q1.72577 -5.22398 1.85289 -5.17849Q1.98002 -5.13301 2.10476 -5.08134Q2.2295 -5.02967 2.35155 -4.97194Q2.47361 -4.91421 2.59268 -4.85057Q2.71176 -4.78692 2.82756 -4.71751Q2.94337 -4.64809 3.05564 -4.57308Q3.1679 -4.49807 3.27635 -4.41764Q3.38479 -4.33721 3.48916 -4.25156Q3.59353 -4.1659 3.69357 -4.07523Q3.79362 -3.98456 3.88909 -3.88909Q3.98456 -3.79362 4.07523 -3.69357Q4.1659 -3.59353 4.25156 -3.48916Q4.33721 -3.38479 4.41764 -3.27635Q4.49807 -3.1679 4.57308 -3.05564Q4.64809 -2.94337 4.71751 -2.82756Q4.78692 -2.71176 4.85057 -2.59268Q4.91421 -2.47361 4.97194 -2.35155Q5.02967 -2.2295 5.08134 -2.10476Q5.13301 -1.98002 5.17849 -1.85289Q5.22398 -1.72577 5.26317 -1.59657Q5.30237 -1.46736 5.33517 -1.33639Q5.36798 -1.20542 5.39432 -1.073Q5.42066 -0.940574 5.44047 -0.807017Q5.46028 -0.673461 5.47352 -0.539094Q5.48675 -0.404727 5.49338 -0.269872Q5.5 -0.135017 5.5 0"/>
	<path fill="none" stroke="black" stroke-width="1.5428571" stroke-linejoin="round" transform="translate(55 79.2857)" d="M-31.6491 4.89257Q-32.3836 4.89257 -33.1087 4.84549Q-33.8338 4.80154 -34.6185 4.63518L-34.6185 -4.00636Q-34.0033 -4.11936 -33.2719 -4.17586Q-32.5374 -4.2355 -31.9065 -4.2355Q-31.059 -4.2355 -30.3464 -4.11308Q-29.6307 -3.99066 -29.116 -3.6956Q-28.6012 -3.40054 -28.3124 -2.91714Q-28.0236 -2.43688 -28.0236 -1.73062Q-28.0236 -0.663373 -29.0532 -0.0450001Q-28.2025 0.275173 -27.8949 0.830767Q-27.5873 1.38322 -27.5873 2.07693Q-27.5873 3.4769 -28.6106 4.18631Q-29.6307 4.89257 -31.6491 4.89257ZM-32.6661 0.893546L-32.6661 3.1944Q-32.4464 3.21951 -32.189 3.2352Q-31.9316 3.24776 -31.624 3.24776Q-30.7231 3.24776 -30.1706 2.99037Q-29.6182 2.73297 -29.6182 2.03926Q-29.6182 1.42089 -30.0828 1.15722Q-30.5442 0.893546 -31.4042 0.893546L-32.6661 0.893546ZM-32.6661 -0.635123L-31.6868 -0.635123Q-30.7639 -0.635123 -30.3653 -0.873683Q-29.9666 -1.11224 -29.9666 -1.63959Q-29.9666 -2.17949 -30.3778 -2.39607Q-30.789 -2.6158 -31.5863 -2.6158Q-31.8437 -2.6158 -32.1388 -2.60952Q-32.4338 -2.60325 -32.6661 -2.57813L-32.6661 -0.635123ZM-23.4167 4.90513Q-24.2516 4.89257 -24.7727 4.7262Q-25.2938 4.5567 -25.5982 4.25536Q-25.8996 3.95402 -26.0094 3.52399Q-26.1162 3.09081 -26.1162 2.55091L-26.1162 -4.89154L-24.2014 -5.19916L-24.2014 2.16796Q-24.2014 2.42222 -24.1637 2.62939Q-24.1229 2.83656 -24.0162 2.97781Q-23.9063 3.11906 -23.7023 3.21009Q-23.4951 3.29798 -23.1467 3.32309L-23.4167 4.90513ZM-16.285 4.54415Q-16.7746 4.6854 -17.5468 4.80782Q-18.3159 4.93024 -19.1665 4.93024Q-20.0266 4.93024 -20.601 4.70109Q-21.1723 4.46881 -21.5082 4.05133Q-21.8409 3.63071 -21.9822 3.05314Q-22.1234 2.47558 -22.1234 1.78187L-22.1234 -1.98487L-20.2055 -1.98487L-20.2055 1.54959Q-20.2055 2.47558 -19.9638 2.88678Q-19.719 3.29798 -19.0504 3.29798Q-18.8432 3.29798 -18.6141 3.27915Q-18.3818 3.26031 -18.1997 3.23206L-18.1997 -1.98487L-16.285 -1.98487L-16.285 4.54415ZM-14.8158 1.446Q-14.8158 0.545123 -14.5396 -0.129752Q-14.2633 -0.804626 -13.8145 -1.2535Q-13.3624 -1.70237 -12.7786 -1.93465Q-12.1916 -2.16693 -11.5732 -2.16693Q-10.1356 -2.16693 -9.30065 -1.28489Q-8.46255 -0.40598 -8.46255 1.30475Q-8.46255 1.47111 -8.4751 1.67201Q-8.48766 1.86976 -8.50335 2.02357L-12.8477 2.02357Q-12.7849 2.61683 -12.2952 2.96525Q-11.8055 3.31054 -10.9831 3.31054Q-10.4558 3.31054 -9.95041 3.21637Q-9.4419 3.11906 -9.11859 2.97781L-8.86119 4.53159Q-9.015 4.61006 -9.27239 4.68854Q-9.52979 4.76387 -9.84682 4.82037Q-10.1607 4.88001 -10.5217 4.91768Q-10.8795 4.95535 -11.2405 4.95535Q-12.154 4.95535 -12.8288 4.6854Q-13.5037 4.41545 -13.9494 3.94775Q-14.392 3.4769 -14.6055 2.83656Q-14.8158 2.19307 -14.8158 1.446ZM-10.3145 0.714626Q-10.3271 0.469788 -10.3993 0.237505Q-10.4683 0.0052228 -10.6159 -0.173697Q-10.7634 -0.352617 -10.9894 -0.468759Q-11.2154 -0.5849 -11.5481 -0.5849Q-11.8714 -0.5849 -12.1037 -0.475037Q-12.3329 -0.365173 -12.4867 -0.186253Q-12.6405 -0.0073328 -12.7252 0.231227Q-12.81 0.469788 -12.8477 0.714626L-10.3145 0.714626ZM-2.65991 1.34242Q-2.65991 -0.506426 -4.02221 -0.506426Q-4.31728 -0.506426 -4.6092 -0.427952Q-4.89798 -0.352617 -5.0769 -0.236476L-5.0769 3.24776Q-4.93565 3.27287 -4.71906 3.2917Q-4.49933 3.31054 -4.24194 3.31054Q-3.4572 3.31054 -3.05856 2.77064Q-2.65991 2.23074 -2.65991 1.34242ZM-0.704343 1.39578Q-0.704343 2.20563 -0.942903 2.86167Q-1.18146 3.51771 -1.63347 3.98227Q-2.08234 4.4437 -2.73838 4.69482Q-3.39128 4.94279 -4.22938 4.94279Q-4.57467 4.94279 -4.95448 4.9114Q-5.3343 4.88001 -5.70155 4.82665Q-6.06567 4.77643 -6.40154 4.70737Q-6.73427 4.63518 -6.99166 4.5567L-6.99166 -4.89154L-5.0769 -5.19916L-5.0769 -1.83106Q-4.75673 -1.97232 -4.4083 -2.05079Q-4.05988 -2.12926 -3.66123 -2.12926Q-2.94241 -2.12926 -2.38996 -1.87815Q-1.8375 -1.62703 -1.46397 -1.16247Q-1.09043 -0.701041 -0.898958 -0.0512781Q-0.704343 0.598485 -0.704343 1.39578ZM0.442717 1.446Q0.442717 0.545123 0.718945 -0.129752Q0.995173 -0.804626 1.44404 -1.2535Q1.89605 -1.70237 2.4799 -1.93465Q3.06688 -2.16693 3.68525 -2.16693Q5.12289 -2.16693 5.95785 -1.28489Q6.79595 -0.40598 6.79595 1.30475Q6.79595 1.47111 6.7834 1.67201Q6.77084 1.86976 6.75515 2.02357L2.41084 2.02357Q2.47362 2.61683 2.96329 2.96525Q3.45297 3.31054 4.27538 3.31054Q4.80272 3.31054 5.30809 3.21637Q5.8166 3.11906 6.13991 2.97781L6.39731 4.53159Q6.2435 4.61006 5.9861 4.68854Q5.72871 4.76387 5.41168 4.82037Q5.09778 4.88001 4.7368 4.91768Q4.37896 4.95535 4.01798 4.95535Q3.10455 4.95535 2.42967 4.6854Q1.7548 4.41545 1.30907 3.94775Q0.866476 3.4769 0.653027 2.83656Q0.442717 2.19307 0.442717 1.446ZM4.94397 0.714626Q4.93142 0.469788 4.85922 0.237505Q4.79016 0.0052228 4.64263 -0.173697Q4.4951 -0.352617 4.2691 -0.468759Q4.04309 -0.5849 3.71037 -0.5849Q3.38705 -0.5849 3.15477 -0.475037Q2.92563 -0.365173 2.77182 -0.186253Q2.61801 -0.0073328 2.53326 0.231227Q2.44851 0.469788 2.41084 0.714626L4.94397 0.714626ZM12.3412 -0.289838Q12.0838 -0.352617 11.7354 -0.421674Q11.3901 -0.49387 10.9914 -0.49387Q10.8125 -0.49387 10.5614 -0.462481Q10.3103 -0.431091 10.1816 -0.393424L10.1816 4.77643L8.26684 4.77643L8.26684 -1.62703Q8.78163 -1.80595 9.48161 -1.96604Q10.1816 -2.12926 11.0417 -2.12926Q11.1986 -2.12926 11.4152 -2.10729Q11.6349 -2.08846 11.8515 -2.05707Q12.0712 -2.02568 12.2878 -1.97859Q12.5076 -1.93465 12.6645 -1.87187L12.3412 -0.289838ZM17.7613 -0.289838Q17.5039 -0.352617 17.1555 -0.421674Q16.8102 -0.49387 16.4116 -0.49387Q16.2326 -0.49387 15.9815 -0.462481Q15.7304 -0.431091 15.6017 -0.393424L15.6017 4.77643L13.6869 4.77643L13.6869 -1.62703Q14.2017 -1.80595 14.9017 -1.96604Q15.6017 -2.12926 16.4618 -2.12926Q16.6187 -2.12926 16.8353 -2.10729Q17.055 -2.08846 17.2716 -2.05707Q17.4914 -2.02568 17.7079 -1.97859Q17.9277 -1.93465 18.0846 -1.87187L17.7613 -0.289838ZM21.0218 4.77643L19.107 4.77643L19.107 -1.98487L21.0218 -1.98487L21.0218 4.77643ZM21.2007 -3.94044Q21.2007 -3.41309 20.8586 -3.11175Q20.5196 -2.81042 20.0581 -2.81042Q19.5936 -2.81042 19.2514 -3.11175Q18.9124 -3.41309 18.9124 -3.94044Q18.9124 -4.46778 19.2514 -4.76912Q19.5936 -5.0736 20.0581 -5.0736Q20.5196 -5.0736 20.8586 -4.76912Q21.2007 -4.46778 21.2007 -3.94044ZM22.4956 1.446Q22.4956 0.545123 22.7718 -0.129752Q23.0481 -0.804626 23.4969 -1.2535Q23.9489 -1.70237 24.5328 -1.93465Q25.1198 -2.16693 25.7381 -2.16693Q27.1758 -2.16693 28.0107 -1.28489Q28.8488 -0.40598 28.8488 1.30475Q28.8488 1.47111 28.8363 1.67201Q28.8237 1.86976 28.808 2.02357L24.4637 2.02357Q24.5265 2.61683 25.0162 2.96525Q25.5059 3.31054 26.3283 3.31054Q26.8556 3.31054 27.361 3.21637Q27.8695 3.11906 28.1928 2.97781L28.4502 4.53159Q28.2964 4.61006 28.039 4.68854Q27.7816 4.76387 27.4646 4.82037Q27.1507 4.88001 26.7897 4.91768Q26.4318 4.95535 26.0709 4.95535Q25.1574 4.95535 24.4826 4.6854Q23.8077 4.41545 23.362 3.94775Q22.9194 3.4769 22.7059 2.83656Q22.4956 2.19307 22.4956 1.446ZM26.9969 0.714626Q26.9843 0.469788 26.9121 0.237505Q26.8431 0.0052228 26.6955 -0.173697Q26.548 -0.352617 26.322 -0.468759Q26.096 -0.5849 25.7633 -0.5849Q25.4399 -0.5849 25.2077 -0.475037Q24.9785 -0.365173 24.8247 -0.186253Q24.6709 -0.0073328 24.5861 0.231227Q24.5014 0.469788 24.4637 0.714626L26.9969 0.714626ZM32.2596 3.40157Q32.7869 3.40157 33.0035 3.29798Q33.2233 3.1944 33.2233 2.89934Q33.2233 2.66705 32.9408 2.49441Q32.6582 2.32177 32.0807 2.10204Q31.6318 1.93568 31.2645 1.75676Q30.8973 1.5747 30.6399 1.32358Q30.3825 1.07247 30.2413 0.727182Q30.1 0.378758 30.1 -0.107779Q30.1 -1.06202 30.8063 -1.61448Q31.5157 -2.16693 32.7493 -2.16693Q33.3645 -2.16693 33.9295 -2.05707Q34.4977 -1.9472 34.8304 -1.81851L34.4977 -0.327506Q34.1618 -0.443647 33.7694 -0.531538Q33.3802 -0.622567 32.8905 -0.622567Q31.9896 -0.622567 31.9896 -0.123474Q31.9896 -0.0073328 32.0273 0.0836968Q32.0681 0.174726 32.1843 0.259478Q32.3004 0.341091 32.4982 0.438398Q32.6959 0.532567 33.0067 0.648708Q33.6345 0.88099 34.0457 1.10699Q34.46 1.32986 34.6954 1.59353Q34.934 1.8572 35.0313 2.18052Q35.1286 2.50069 35.1286 2.92445Q35.1286 3.92891 34.3752 4.4437Q33.6219 4.95535 32.247 4.95535Q31.3462 4.95535 30.7466 4.80154Q30.1502 4.64773 29.9211 4.54415L30.2413 2.99037Q30.7309 3.18184 31.2426 3.2917Q31.7574 3.40157 32.2596 3.40157Z"/>
	<path fill="white" transform="translate(55 79.2857)" d="M-31.6491 4.89257Q-32.3836 4.89257 -33.1087 4.84549Q-33.8338 4.80154 -34.6185 4.63518L-34.6185 -4.00636Q-34.0033 -4.11936 -33.2719 -4.17586Q-32.5374 -4.2355 -31.9065 -4.2355Q-31.059 -4.2355 -30.3464 -4.11308Q-29.6307 -3.99066 -29.116 -3.6956Q-28.6012 -3.40054 -28.3124 -2.91714Q-28.0236 -2.43688 -28.0236 -1.73062Q-28.0236 -0.663373 -29.0532 -0.0450001Q-28.2025 0.275173 -27.8949 0.830767Q-27.5873 1.38322 -27.5873 2.07693Q-27.5873 3.4769 -28.6106 4.18631Q-29.6307 4.89257 -31.6491 4.89257ZM-32.6661 0.893546L-32.6661 3.1944Q-32.4464 3.21951 -32.189 3.2352Q-31.9316 3.24776 -31.624 3.24776Q-30.7231 3.24776 -30.1706 2.99037Q-29.6182 2.73297 -29.6182 2.03926Q-29.6182 1.42089 -30.0828 1.15722Q-30.5442 0.893546 -31.4042 0.893546L-32.6661 0.893546ZM-32.6661 -0.635123L-31.6868 -0.635123Q-30.7639 -0.635123 -30.3653 -0.873683Q-29.9666 -1.11224 -29.9666 -1.63959Q-29.9666 -2.17949 -30.3778 -2.39607Q-30.789 -2.6158 -31.5863 -2.6158Q-31.8437 -2.6158 -32.1388 -2.60952Q-32.4338 -2.60325 -32.6661 -2.57813L-32.6661 -0.635123ZM-23.4167 4.90513Q-24.2516 4.89257 -24.7727 4.7262Q-25.2938 4.5567 -25.5982 4.25536Q-25.8996 3.95402 -26.0094 3.52399Q-26.1162 3.09081 -26.1162 2.55091L-26.1162 -4.89154L-24.2014 -5.19916L-24.2014 2.16796Q-24.2014 2.42222 -24.1637 2.62939Q-24.1229 2.83656 -24.0162 2.97781Q-23.9063 3.11906 -23.7023 3.21009Q-23.4951 3.29798 -23.1467 3.32309L-23.4167 4.90513ZM-16.285 4.54415Q-16.7746 4.6854 -17.5468 4.80782Q-18.3159 4.93024 -19.1665 4.93024Q-20.0266 4.93024 -20.601 4.70109Q-21.1723 4.46881 -21.5082 4.05133Q-21.8409 3.63071 -21.9822 3.05314Q-22.1234 2.47558 -22.1234 1.78187L-22.1234 -1.98487L-20.2055 -1.98487L-20.2055 1.54959Q-20.2055 2.47558 -19.9638 2.88678Q-19.719 3.29798 -19.0504 3.29798Q-18.8432 3.29798 -18.6141 3.27915Q-18.3818 3.26031 -18.1997 3.23206L-18.1997 -1.98487L-16.285 -1.98487L-16.285 4.54415ZM-14.8158 1.446Q-14.8158 0.545123 -14.5396 -0.129752Q-14.2633 -0.804626 -13.8145 -1.2535Q-13.3624 -1.70237 -12.7786 -1.93465Q-12.1916 -2.16693 -11.5732 -2.16693Q-10.1356 -2.16693 -9.30065 -1.28489Q-8.46255 -0.40598 -8.46255 1.30475Q-8.46255 1.47111 -8.4751 1.67201Q-8.48766 1.86976 -8.50335 2.02357L-12.8477 2.02357Q-12.7849 2.61683 -12.2952 2.96525Q-11.8055 3.31054 -10.9831 3.31054Q-10.4558 3.31054 -9.95041 3.21637Q-9.4419 3.11906 -9.11859 2.97781L-8.86119 4.53159Q-9.015 4.61006 -9.27239 4.68854Q-9.52979 4.76387 -9.84682 4.82037Q-10.1607 4.88001 -10.5217 4.91768Q-10.8795 4.95535 -11.2405 4.95535Q-12.154 4.95535 -12.8288 4.6854Q-13.5037 4.41545 -13.9494 3.94775Q-14.392 3.4769 -14.6055 2.83656Q-14.8158 2.19307 -14.8158 1.446ZM-10.3145 0.714626Q-10.3271 0.469788 -10.3993 0.237505Q-10.4683 0.0052228 -10.6159 -0.173697Q-10.7634 -0.352617 -10.9894 -0.468759Q-11.2154 -0.5849 -11.5481 -0.5849Q-11.8714 -0.5849 -12.1037 -0.475037Q-12.3329 -0.365173 -12.4867 -0.186253Q-12.6405 -0.0073328 -12.7252 0.231227Q-12.81 0.469788 -12.8477 0.714626L-10.3145 0.714626ZM-2.65991 1.34242Q-2.65991 -0.506426 -4.02221 -0.506426Q-4.31728 -0.506426 -4.6092 -0.427952Q-4.89798 -0.352617 -5.0769 -0.236476L-5.0769 3.24776Q-4.93565 3.27287 -4.71906 3.2917Q-4.49933 3.31054 -4.24194 3.31054Q-3.4572 3.31054 -3.05856 2.77064Q-2.65991 2.23074 -2.65991 1.34242ZM-0.704343 1.39578Q-0.704343 2.20563 -0.942903 2.86167Q-1.18146 3.51771 -1.63347 3.98227Q-2.08234 4.4437 -2.73838 4.69482Q-3.39128 4.94279 -4.22938 4.94279Q-4.57467 4.94279 -4.95448 4.9114Q-5.3343 4.88001 -5.70155 4.82665Q-6.06567 4.77643 -6.40154 4.70737Q-6.73427 4.63518 -6.99166 4.5567L-6.99166 -4.89154L-5.0769 -5.19916L-5.0769 -1.83106Q-4.75673 -1.97232 -4.4083 -2.05079Q-4.05988 -2.12926 -3.66123 -2.12926Q-2.94241 -2.12926 -2.38996 -1.87815Q-1.8375 -1.62703 -1.46397 -1.16247Q-1.09043 -0.701041 -0.898958 -0.0512781Q-0.704343 0.598485 -0.704343 1.39578ZM0.442717 1.446Q0.442717 0.545123 0.718945 -0.129752Q0.995173 -0.804626 1.44404 -1.2535Q1.89605 -1.70237 2.4799 -1.93465Q3.06688 -2.16693 3.68525 -2.16693Q5.12289 -2.16693 5.95785 -1.28489Q6.79595 -0.40598 6.79595 1.30475Q6.79595 1.47111 6.7834 1.67201Q6.77084 1.86976 6.75515 2.02357L2.41084 2.02357Q2.47362 2.61683 2.96329 2.96525Q3.45297 3.31054 4.27538 3.31054Q4.80272 3.31054 5.30809 3.21637Q5.8166 3.11906 6.13991 2.97781L6.39731 4.53159Q6.2435 4.61006 5.9861 4.68854Q5.72871 4.76387 5.41168 4.82037Q5.09778 4.88001 4.7368 4.91768Q4.37896 4.95535 4.01798 4.95535Q3.10455 4.95535 2.42967 4.6854Q1.7548 4.41545 1.30907 3.94775Q0.866476 3.4769 0.653027 2.83656Q0.442717 2.19307 0.442717 1.446ZM4.94397 0.714626Q4.93142 0.469788 4.85922 0.237505Q4.79016 0.0052228 4.64263 -0.173697Q4.4951 -0.352617 4.2691 -0.468759Q4.04309 -0.5849 3.71037 -0.5849Q3.38705 -0.5849 3.15477 -0.475037Q2.92563 -0.365173 2.77182 -0.186253Q2.61801 -0.0073328 2.53326 0.231227Q2.44851 0.469788 2.41084 0.714626L4.94397 0.714626ZM12.3412 -0.289838Q12.0838 -0.352617 11.7354 -0.421674Q11.3901 -0.49387 10.9914 -0.49387Q10.8125 -0.49387 10.5614 -0.462481Q10.3103 -0.431091 10.1816 -0.393424L10.1816 4.77643L8.26684 4.77643L8.26684 -1.62703Q8.78163 -1.80595 9.48161 -1.96604Q10.1816 -2.12926 11.0417 -2.12926Q11.1986 -2.12926 11.4152 -2.10729Q11.6349 -2.08846 11.8515 -2.05707Q12.0712 -2.02568 12.2878 -1.97859Q12.5076 -1.93465 12.6645 -1.87187L12.3412 -0.289838ZM17.7613 -0.289838Q17.5039 -0.352617 17.1555 -0.421674Q16.8102 -0.49387 16.4116 -0.49387Q16.2326 -0.49387 15.9815 -0.462481Q15.7304 -0.431091 15.6017 -0.393424L15.6017 4.77643L13.6869 4.77643L13.6869 -1.62703Q14.2017 -1.80595 14.9017 -1.96604Q15.6017 -2.12926 16.4618 -2.12926Q16.6187 -2.12926 16.8353 -2.10729Q17.055 -2.08846 17.2716 -2.05707Q17.4914 -2.02568 17.7079 -1.97859Q17.9277 -1.93465 18.0846 -1.87187L17.7613 -0.289838ZM21.0218 4.77643L19.107 4.77643L19.107 -1.98487L21.0218 -1.98487L21.0218 4.77643ZM21.2007 -3.94044Q21.2007 -3.41309 20.8586 -3.11175Q20.5196 -2.81042 20.0581 -2.81042Q19.5936 -2.81042 19.2514 -3.11175Q18.9124 -3.41309 18.9124 -3.94044Q18.9124 -4.46778 19.2514 -4.76912Q19.5936 -5.0736 20.0581 -5.0736Q20.5196 -5.0736 20.8586 -4.76912Q21.2007 -4.46778 21.2007 -3.94044ZM22.4956 1.446Q22.4956 0.545123 22.7718 -0.129752Q23.0481 -0.804626 23.4969 -1.2535Q23.9489 -1.70237 24.5328 -1.93465Q25.1198 -2.16693 25.7381 -2.16693Q27.1758 -2.16693 28.0107 -1.28489Q28.8488 -0.40598 28.8488 1.30475Q28.8488 1.47111 28.8363 1.67201Q28.8237 1.86976 28.808 2.02357L24.4637 2.02357Q24.5265 2.61683 25.0162 2.96525Q25.5059 3.31054 26.3283 3.31054Q26.8556 3.31054 27.361 3.21637Q27.8695 3.11906 28.1928 2.97781L28.4502 4.53159Q28.2964 4.61006 28.039 4.68854Q27.7816 4.76387 27.4646 4.82037Q27.1507 4.88001 26.7897 4.91768Q26.4318 4.95535 26.0709 4.95535Q25.1574 4.95535 24.4826 4.6854Q23.8077 4.41545 23.362 3.94775Q22.9194 3.4769 22.7059 2.83656Q22.4956 2.19307 22.4956 1.446ZM26.9969 0.714626Q26.9843 0.469788 26.9121 0.237505Q26.8431 0.0052228 26.6955 -0.173697Q26.548 -0.352617 26.322 -0.468759Q26.096 -0.5849 25.7633 -0.5849Q25.4399 -0.5849 25.2077 -0.475037Q24.9785 -0.365173 24.8247 -0.186253Q24.6709 -0.0073328 24.5861 0.231227Q24.5014 0.469788 24.4637 0.714626L26.9969 0.714626ZM32.2596 3.40157Q32.7869 3.40157 33.0035 3.29798Q33.2233 3.1944 33.2233 2.89934Q33.2233 2.66705 32.9408 2.49441Q32.6582 2.32177 32.0807 2.10204Q31.6318 1.93568 31.2645 1.75676Q30.8973 1.5747 30.6399 1.32358Q30.3825 1.07247 30.2413 0.727182Q30.1 0.378758 30.1 -0.107779Q30.1 -1.06202 30.8063 -1.61448Q31.5157 -2.16693 32.7493 -2.16693Q33.3645 -2.16693 33.9295 -2.05707Q34.4977 -1.9472 34.8304 -1.81851L34.4977 -0.327506Q34.1618 -0.443647 33.7694 -0.531538Q33.3802 -0.622567 32.8905 -0.622567Q31.9896 -0.622567 31.9896 -0.123474Q31.9896 -0.0073328 32.0273 0.0836968Q32.0681 0.174726 32.1843 0.259478Q32.3004 0.341091 32.4982 0.438398Q32.6959 0.532567 33.0067 0.648708Q33.6345 0.88099 34.0457 1.10699Q34.46 1.32986 34.6954 1.59353Q34.934 1.8572 35.0313 2.18052Q35.1286 2.50069 35.1286 2.92445Q35.1286 3.92891 34.3752 4.4437Q33.6219 4.95535 32.247 4.95535Q31.3462 4.95535 30.7466 4.80154Q30.1502 4.64773 29.9211 4.54415L30.2413 2.99037Q30.7309 3.18184 31.2426 3.2917Q31.7574 3.40157 32.2596 3.40157Z"/>
</svg>
