<?xml version="1.0" encoding="utf-8" ?>
<svg xmlns="http://www.w3.org/2000/svg" xmlns:xlink="http://www.w3.org/1999/xlink" width="110" height="110">
	<path fill="#AD1717" transform="matrix(-1.42857 0 0 -1.42857 55 47.8571)" d="M4.63526 3.36771L15 0L4.63526 -3.36771L4.63526 -14.2658L-1.77051 -5.44907L-12.1353 -8.81678L-5.72949 -5.91791e-07L-12.1353 8.81678L-1.77051 5.44907L4.63525 14.2658L4.63526 3.36771Z" fill-rule="evenodd"/>
	<path fill="#8C1313" transform="matrix(-1.42857 0 0 -1.42857 55 47.8571)" d="M15.309 0.951057L-11.8262 9.76783Q-11.9199 9.79827 -12.0177 9.80985Q-12.1155 9.82142 -12.2137 9.81369Q-12.3119 9.80597 -12.4067 9.77923Q-12.5015 9.7525 -12.5892 9.70778Q-12.677 9.66307 -12.7543 9.60209Q-12.8317 9.54112 -12.8957 9.46623Q-12.9596 9.39133 -13.0078 9.3054Q-13.0559 9.21947 -13.0863 9.1258Q-13.1229 9.01323 -13.1322 8.89524Q-13.1415 8.77724 -13.1229 8.66034Q-13.1044 8.54344 -13.0591 8.43409Q-13.0138 8.32475 -12.9443 8.22899L3.82624 -14.8536Q3.88413 -14.9333 3.95646 -15.0002Q4.02878 -15.067 4.11276 -15.1185Q4.19674 -15.1699 4.28914 -15.204Q4.38154 -15.2381 4.47882 -15.2535Q4.5761 -15.2689 4.67452 -15.2651Q4.77293 -15.2612 4.8687 -15.2382Q4.96447 -15.2152 5.05392 -15.174Q5.14336 -15.1328 5.22304 -15.0749Q5.3188 -15.0053 5.39566 -14.9153Q5.47253 -14.8253 5.52626 -14.7198Q5.58 -14.6144 5.60763 -14.4993Q5.63526 -14.3842 5.63526 -14.2658L5.63525 14.2658Q5.63525 14.3643 5.61604 14.4609Q5.59682 14.5575 5.55913 14.6485Q5.52144 14.7395 5.46672 14.8214Q5.412 14.9033 5.34236 14.973Q5.27272 15.0426 5.19082 15.0973Q5.10893 15.152 5.01794 15.1897Q4.92694 15.2274 4.83034 15.2466Q4.73375 15.2658 4.63525 15.2658Q4.5169 15.2658 4.40181 15.2382Q4.28672 15.2106 4.18126 15.1569Q4.07581 15.1031 3.98581 15.0263Q3.89581 14.9494 3.82624 14.8536L-12.9443 -8.229Q-13.0022 -8.30868 -13.0434 -8.39812Q-13.0846 -8.48756 -13.1076 -8.58333Q-13.1306 -8.6791 -13.1345 -8.77752Q-13.1383 -8.87593 -13.1229 -8.97321Q-13.1075 -9.07049 -13.0734 -9.1629Q-13.0394 -9.2553 -12.9879 -9.33928Q-12.9364 -9.42326 -12.8696 -9.49558Q-12.8027 -9.56791 -12.723 -9.6258Q-12.6273 -9.69537 -12.5179 -9.74066Q-12.4086 -9.78595 -12.2917 -9.80447Q-12.1748 -9.82298 -12.0568 -9.8137Q-11.9388 -9.80441 -11.8262 -9.76784L15.309 -0.951056Q15.4027 -0.920621 15.4886 -0.872496Q15.5746 -0.824371 15.6494 -0.760406Q15.7243 -0.696441 15.7853 -0.619094Q15.8463 -0.541747 15.891 -0.45399Q15.9357 -0.366234 15.9625 -0.27144Q15.9892 -0.176647 15.9969 -0.078459Q16.0046 0.0197288 15.9931 0.117537Q15.9815 0.215346 15.9511 0.309017Q15.9145 0.421582 15.8526 0.522499Q15.7908 0.623415 15.7071 0.707107Q15.6234 0.790798 15.5225 0.85264Q15.4216 0.914482 15.309 0.951056L15.309 0.951057ZM14.691 -0.951057L15 0L14.691 0.951056L-12.4443 -7.86572L-12.1353 -8.81678L-11.3262 -9.40456L5.44427 13.6781L4.63525 14.2658L3.63525 14.2658L3.63526 -14.2658L4.63526 -14.2658L5.44427 -13.6781L-11.3262 9.40456L-12.1353 8.81678L-12.4443 7.86572L14.691 -0.951057Z"/>
	<path fill="none" stroke="black" stroke-width="2.3999999" stroke-linejoin="round" transform="translate(55 79.2857)" d="M-19.2317 -6.4323Q-18.8703 -5.76824 -18.4016 -4.79656Q-17.9279 -3.82977 -17.4201 -2.69695Q-16.9123 -1.56902 -16.4143 -0.387383Q-15.9113 0.789375 -15.4719 1.82941Q-15.0275 0.789375 -14.5295 -0.387383Q-14.0315 -1.56902 -13.5236 -2.69695Q-13.0109 -3.82977 -12.5422 -4.79656Q-12.0686 -5.76824 -11.7121 -6.4323L-8.87032 -6.4323Q-8.67013 -5.05047 -8.49923 -3.3366Q-8.32833 -1.62762 -8.20138 0.222969Q-8.06954 2.06867 -7.96212 3.92902Q-7.84982 5.78937 -7.77169 7.43L-10.8088 7.43Q-10.8723 5.40852 -10.9699 3.03059Q-11.0676 0.647773 -11.2678 -1.76922Q-11.6291 -0.929375 -12.0686 0.0911326Q-12.508 1.11164 -12.9426 2.13215Q-13.3723 3.14777 -13.7727 4.08039Q-14.1682 5.00812 -14.4514 5.67219L-16.6291 5.67219Q-16.9123 5.00812 -17.3127 4.08039Q-17.7082 3.14777 -18.1379 2.13215Q-18.5676 1.11164 -19.0119 0.0911326Q-19.4514 -0.929375 -19.8078 -1.76922Q-20.008 0.647773 -20.1106 3.03059Q-20.2082 5.40852 -20.2717 7.43L-23.3088 7.43Q-23.2307 5.78937 -23.1233 3.92902Q-23.0109 2.06867 -22.884 0.222969Q-22.7522 -1.62762 -22.5813 -3.3366Q-22.4104 -5.05047 -22.2102 -6.4323L-19.2317 -6.4323ZM-1.15006 5.34992Q-0.710609 5.34992 -0.310219 5.33039Q0.0901718 5.31086 0.32943 5.2718L0.32943 3.01105Q0.148766 2.97199 -0.212563 2.93293Q-0.569008 2.88898 -0.871742 2.88898Q-1.29166 2.88898 -1.66276 2.9427Q-2.02897 2.99152 -2.31217 3.13312Q-2.59049 3.26984 -2.75163 3.5091Q-2.90788 3.74836 -2.90788 4.10969Q-2.90788 4.80793 -2.43913 5.08137Q-1.97038 5.34992 -1.15006 5.34992ZM-1.38932 -3.37078Q-0.070961 -3.37078 0.807945 -3.06805Q1.69173 -2.7702 2.21908 -2.20867Q2.7513 -1.65203 2.97103 -0.85125Q3.19076 -0.0504689 3.19076 0.930976L3.19076 7.13215Q2.55111 7.26887 1.40853 7.4593Q0.270836 7.64973 -1.35026 7.64973Q-2.37077 7.64973 -3.20084 7.46906Q-4.03092 7.2884 -4.63151 6.87824Q-5.23209 6.46809 -5.55436 5.80891Q-5.87174 5.14973 -5.87174 4.18781Q-5.87174 3.26984 -5.50065 2.6302Q-5.12955 1.99055 -4.50944 1.60969Q-3.88932 1.22883 -3.08854 1.06281Q-2.28776 0.891914 -1.42838 0.891914Q-0.852211 0.891914 -0.402992 0.940742Q0.0511093 0.98957 0.32943 1.0677L0.32943 0.789375Q0.32943 0.0276561 -0.129555 -0.431328Q-0.588539 -0.890313 -1.73112 -0.890313Q-2.48795 -0.890313 -3.23014 -0.778008Q-3.97233 -0.670586 -4.50944 -0.470391L-4.8903 -2.86785Q-4.63151 -2.95086 -4.24088 -3.03875Q-3.85026 -3.13152 -3.39127 -3.19988Q-2.93229 -3.26824 -2.42448 -3.31707Q-1.91178 -3.37078 -1.38932 -3.37078ZM12.2293 -0.45086Q11.8289 -0.548516 11.2869 -0.655938Q10.7498 -0.768242 10.1296 -0.768242Q9.85133 -0.768242 9.4607 -0.719414Q9.07008 -0.670586 8.86988 -0.611992L8.86988 7.43L5.89137 7.43L5.89137 -2.53094Q6.69215 -2.80926 7.78101 -3.05828Q8.86988 -3.31219 10.2078 -3.31219Q10.4519 -3.31219 10.7888 -3.27801Q11.1306 -3.24871 11.4675 -3.19988Q11.8093 -3.15105 12.1462 -3.07781Q12.488 -3.00945 12.7322 -2.9118L12.2293 -0.45086ZM17.3099 0.71125Q17.7493 0.227851 18.2181 -0.289727Q18.6917 -0.812188 19.1312 -1.32Q19.5706 -1.82781 19.9612 -2.2868Q20.3519 -2.75066 20.6302 -3.08758L24.1702 -3.08758Q23.1106 -1.87176 22.0999 -0.758477Q21.0892 0.349922 19.888 1.53156Q20.4886 2.06867 21.1282 2.82062Q21.7679 3.5677 22.3685 4.36848Q22.969 5.16926 23.4671 5.97004Q23.97 6.77082 24.3118 7.43L20.889 7.43Q20.5716 6.91242 20.1614 6.28254Q19.7513 5.64777 19.2874 5.01789Q18.8284 4.38801 18.3157 3.81184Q17.8079 3.23078 17.3099 2.83039L17.3099 7.43L14.3314 7.43L14.3314 -7.60906L17.3099 -8.08758L17.3099 0.71125Z"/>
	<path fill="white" transform="translate(55 79.2857)" d="M-19.2317 -6.4323Q-18.8703 -5.76824 -18.4016 -4.79656Q-17.9279 -3.82977 -17.4201 -2.69695Q-16.9123 -1.56902 -16.4143 -0.387383Q-15.9113 0.789375 -15.4719 1.82941Q-15.0275 0.789375 -14.5295 -0.387383Q-14.0315 -1.56902 -13.5236 -2.69695Q-13.0109 -3.82977 -12.5422 -4.79656Q-12.0686 -5.76824 -11.7121 -6.4323L-8.87032 -6.4323Q-8.67013 -5.05047 -8.49923 -3.3366Q-8.32833 -1.62762 -8.20138 0.222969Q-8.06954 2.06867 -7.96212 3.92902Q-7.84982 5.78937 -7.77169 7.43L-10.8088 7.43Q-10.8723 5.40852 -10.9699 3.03059Q-11.0676 0.647773 -11.2678 -1.76922Q-11.6291 -0.929375 -12.0686 0.0911326Q-12.508 1.11164 -12.9426 2.13215Q-13.3723 3.14777 -13.7727 4.08039Q-14.1682 5.00812 -14.4514 5.67219L-16.6291 5.67219Q-16.9123 5.00812 -17.3127 4.08039Q-17.7082 3.14777 -18.1379 2.13215Q-18.5676 1.11164 -19.0119 0.0911326Q-19.4514 -0.929375 -19.8078 -1.76922Q-20.008 0.647773 -20.1106 3.03059Q-20.2082 5.40852 -20.2717 7.43L-23.3088 7.43Q-23.2307 5.78937 -23.1233 3.92902Q-23.0109 2.06867 -22.884 0.222969Q-22.7522 -1.62762 -22.5813 -3.3366Q-22.4104 -5.05047 -22.2102 -6.4323L-19.2317 -6.4323ZM-1.15006 5.34992Q-0.710609 5.34992 -0.310219 5.33039Q0.0901718 5.31086 0.32943 5.2718L0.32943 3.01105Q0.148766 2.97199 -0.212563 2.93293Q-0.569008 2.88898 -0.871742 2.88898Q-1.29166 2.88898 -1.66276 2.9427Q-2.02897 2.99152 -2.31217 3.13312Q-2.59049 3.26984 -2.75163 3.5091Q-2.90788 3.74836 -2.90788 4.10969Q-2.90788 4.80793 -2.43913 5.08137Q-1.97038 5.34992 -1.15006 5.34992ZM-1.38932 -3.37078Q-0.070961 -3.37078 0.807945 -3.06805Q1.69173 -2.7702 2.21908 -2.20867Q2.7513 -1.65203 2.97103 -0.85125Q3.19076 -0.0504689 3.19076 0.930976L3.19076 7.13215Q2.55111 7.26887 1.40853 7.4593Q0.270836 7.64973 -1.35026 7.64973Q-2.37077 7.64973 -3.20084 7.46906Q-4.03092 7.2884 -4.63151 6.87824Q-5.23209 6.46809 -5.55436 5.80891Q-5.87174 5.14973 -5.87174 4.18781Q-5.87174 3.26984 -5.50065 2.6302Q-5.12955 1.99055 -4.50944 1.60969Q-3.88932 1.22883 -3.08854 1.06281Q-2.28776 0.891914 -1.42838 0.891914Q-0.852211 0.891914 -0.402992 0.940742Q0.0511093 0.98957 0.32943 1.0677L0.32943 0.789375Q0.32943 0.0276561 -0.129555 -0.431328Q-0.588539 -0.890313 -1.73112 -0.890313Q-2.48795 -0.890313 -3.23014 -0.778008Q-3.97233 -0.670586 -4.50944 -0.470391L-4.8903 -2.86785Q-4.63151 -2.95086 -4.24088 -3.03875Q-3.85026 -3.13152 -3.39127 -3.19988Q-2.93229 -3.26824 -2.42448 -3.31707Q-1.91178 -3.37078 -1.38932 -3.37078ZM12.2293 -0.45086Q11.8289 -0.548516 11.2869 -0.655938Q10.7498 -0.768242 10.1296 -0.768242Q9.85133 -0.768242 9.4607 -0.719414Q9.07008 -0.670586 8.86988 -0.611992L8.86988 7.43L5.89137 7.43L5.89137 -2.53094Q6.69215 -2.80926 7.78101 -3.05828Q8.86988 -3.31219 10.2078 -3.31219Q10.4519 -3.31219 10.7888 -3.27801Q11.1306 -3.24871 11.4675 -3.19988Q11.8093 -3.15105 12.1462 -3.07781Q12.488 -3.00945 12.7322 -2.9118L12.2293 -0.45086ZM17.3099 0.71125Q17.7493 0.227851 18.2181 -0.289727Q18.6917 -0.812188 19.1312 -1.32Q19.5706 -1.82781 19.9612 -2.2868Q20.3519 -2.75066 20.6302 -3.08758L24.1702 -3.08758Q23.1106 -1.87176 22.0999 -0.758477Q21.0892 0.349922 19.888 1.53156Q20.4886 2.06867 21.1282 2.82062Q21.7679 3.5677 22.3685 4.36848Q22.969 5.16926 23.4671 5.97004Q23.97 6.77082 24.3118 7.43L20.889 7.43Q20.5716 6.91242 20.1614 6.28254Q19.7513 5.64777 19.2874 5.01789Q18.8284 4.38801 18.3157 3.81184Q17.8079 3.23078 17.3099 2.83039L17.3099 7.43L14.3314 7.43L14.3314 -7.60906L17.3099 -8.08758L17.3099 0.71125Z"/>
</svg>
