<?xml version="1.0" encoding="utf-8" ?>
<svg xmlns="http://www.w3.org/2000/svg" xmlns:xlink="http://www.w3.org/1999/xlink" width="110" height="110">
	<path fill="#381F3C" transform="matrix(1.42857 0 0 1.42857 55 47.8571)" d="M7.5 0Q7.5 0.184115 7.49097 0.368008Q7.48193 0.5519 7.46389 0.735129Q7.44584 0.918357 7.41882 1.10048Q7.39181 1.2826 7.35589 1.46318Q7.31997 1.64375 7.27523 1.82235Q7.2305 2.00095 7.17705 2.17713Q7.12361 2.35332 7.06158 2.52667Q6.99955 2.70003 6.9291 2.87013Q6.85864 3.04023 6.77992 3.20666Q6.7012 3.3731 6.61441 3.53548Q6.52762 3.69785 6.43296 3.85577Q6.33831 4.01369 6.23602 4.16678Q6.13373 4.31986 6.02406 4.46774Q5.91438 4.61563 5.79758 4.75795Q5.68078 4.90027 5.55713 5.03669Q5.43349 5.17311 5.3033 5.3033Q5.17311 5.43349 5.03669 5.55713Q4.90027 5.68078 4.75795 5.79758Q4.61563 5.91438 4.46774 6.02406Q4.31986 6.13373 4.16678 6.23602Q4.01369 6.33831 3.85577 6.43296Q3.69785 6.52762 3.53548 6.61441Q3.3731 6.7012 3.20666 6.77992Q3.04023 6.85864 2.87013 6.9291Q2.70003 6.99955 2.52667 7.06158Q2.35332 7.12361 2.17713 7.17705Q2.00095 7.2305 1.82235 7.27523Q1.64375 7.31997 1.46318 7.35589Q1.2826 7.39181 1.10048 7.41882Q0.918357 7.44584 0.735129 7.46389Q0.5519 7.48193 0.368008 7.49097Q0.184115 7.5 0 7.5Q-0.184115 7.5 -0.368008 7.49097Q-0.5519 7.48193 -0.735129 7.46389Q-0.918357 7.44584 -1.10048 7.41882Q-1.2826 7.39181 -1.46318 7.35589Q-1.64375 7.31997 -1.82235 7.27523Q-2.00095 7.2305 -2.17713 7.17705Q-2.35332 7.12361 -2.52667 7.06158Q-2.70003 6.99955 -2.87013 6.9291Q-3.04023 6.85864 -3.20666 6.77992Q-3.3731 6.7012 -3.53548 6.61441Q-3.69785 6.52762 -3.85577 6.43296Q-4.01369 6.33831 -4.16678 6.23602Q-4.31986 6.13373 -4.46774 6.02406Q-4.61563 5.91438 -4.75795 5.79758Q-4.90027 5.68078 -5.03669 5.55713Q-5.17311 5.43349 -5.3033 5.3033Q-5.43349 5.17311 -5.55713 5.03669Q-5.68078 4.90027 -5.79758 4.75795Q-5.91438 4.61563 -6.02406 4.46774Q-6.13373 4.31986 -6.23602 4.16678Q-6.33831 4.01369 -6.43296 3.85577Q-6.52762 3.69785 -6.61441 3.53548Q-6.7012 3.3731 -6.77992 3.20666Q-6.85864 3.04023 -6.9291 2.87013Q-6.99955 2.70003 -7.06158 2.52667Q-7.12361 2.35332 -7.17705 2.17713Q-7.2305 2.00095 -7.27523 1.82235Q-7.31997 1.64375 -7.35589 1.46318Q-7.39181 1.2826 -7.41882 1.10048Q-7.44584 0.918357 -7.46389 0.735129Q-7.48193 0.5519 -7.49097 0.368008Q-7.5 0.184115 -7.5 0Q-7.5 -0.184115 -7.49097 -0.368008Q-7.48193 -0.5519 -7.46389 -0.735129Q-7.44584 -0.918357 -7.41882 -1.10048Q-7.39181 -1.2826 -7.35589 -1.46318Q-7.31997 -1.64375 -7.27523 -1.82235Q-7.2305 -2.00095 -7.17705 -2.17713Q-7.12361 -2.35332 -7.06158 -2.52667Q-6.99955 -2.70003 -6.9291 -2.87013Q-6.85864 -3.04023 -6.77992 -3.20666Q-6.7012 -3.3731 -6.61441 -3.53548Q-6.52762 -3.69785 -6.43296 -3.85577Q-6.33831 -4.01369 -6.23602 -4.16678Q-6.13373 -4.31986 -6.02406 -4.46774Q-5.91438 -4.61563 -5.79758 -4.75795Q-5.68078 -4.90027 -5.55713 -5.03669Q-5.43349 -5.17311 -5.3033 -5.3033Q-5.17311 -5.43349 -5.03669 -5.55713Q-4.90027 -5.68078 -4.75795 -5.79758Q-4.61563 -5.91438 -4.46774 -6.02406Q-4.31986 -6.13373 -4.16678 -6.23602Q-4.01369 -6.33831 -3.85577 -6.43296Q-3.69785 -6.52762 -3.53548 -6.61441Q-3.3731 -6.7012 -3.20666 -6.77992Q-3.04023 -6.85864 -2.87013 -6.9291Q-2.70003 -6.99955 -2.52667 -7.06158Q-2.35332 -7.12361 -2.17713 -7.17705Q-2.00095 -7.2305 -1.82235 -7.27523Q-1.64375 -7.31997 -1.46318 -7.35589Q-1.2826 -7.39181 -1.10048 -7.41882Q-0.918357 -7.44584 -0.735129 -7.46389Q-0.5519 -7.48193 -0.368008 -7.49097Q-0.184115 -7.5 0 -7.5Q0.184115 -7.5 0.368008 -7.49097Q0.5519 -7.48193 0.735129 -7.46389Q0.918357 -7.44584 1.10048 -7.41882Q1.2826 -7.39181 1.46318 -7.35589Q1.64375 -7.31997 1.82235 -7.27523Q2.00095 -7.2305 2.17713 -7.17705Q2.35332 -7.12361 2.52667 -7.06158Q2.70003 -6.99955 2.87013 -6.9291Q3.04023 -6.85864 3.20666 -6.77992Q3.3731 -6.7012 3.53548 -6.61441Q3.69785 -6.52762 3.85577 -6.43296Q4.01369 -6.33831 4.16678 -6.23602Q4.31986 -6.13373 4.46774 -6.02406Q4.61563 -5.91438 4.75795 -5.79758Q4.90027 -5.68078 5.03669 -5.55713Q5.17311 -5.43349 5.3033 -5.3033Q5.43349 -5.17311 5.55713 -5.03669Q5.68078 -4.90027 5.79758 -4.75795Q5.91438 -4.61563 6.02406 -4.46774Q6.13373 -4.31986 6.23602 -4.16678Q6.33831 -4.01369 6.43296 -3.85577Q6.52762 -3.69785 6.61441 -3.53548Q6.7012 -3.3731 6.77992 -3.20666Q6.85864 -3.04023 6.9291 -2.87013Q6.99955 -2.70003 7.06158 -2.52667Q7.12361 -2.35332 7.17705 -2.17713Q7.2305 -2.00095 7.27523 -1.82235Q7.31997 -1.64375 7.35589 -1.46318Q7.39181 -1.2826 7.41882 -1.10048Q7.44584 -0.918357 7.46389 -0.735129Q7.48193 -0.5519 7.49097 -0.368008Q7.5 -0.184115 7.5 0"/>
	<path fill="#45264A" transform="matrix(1.42857 0 0 1.42857 55 47.8571)" d="M4.5 0Q4.5 0.110469 4.49458 0.220805Q4.48916 0.33114 4.47833 0.441077Q4.4675 0.551014 4.45129 0.660287Q4.43509 0.76956 4.41353 0.877906Q4.39198 0.986253 4.36514 1.09341Q4.3383 1.20057 4.30623 1.30628Q4.27416 1.41199 4.23695 1.516Q4.19973 1.62002 4.15746 1.72208Q4.11518 1.82414 4.06795 1.924Q4.02072 2.02386 3.96865 2.12129Q3.91657 2.21871 3.85978 2.31346Q3.80299 2.40821 3.74161 2.50007Q3.68024 2.59192 3.61443 2.68065Q3.54863 2.76938 3.47855 2.85477Q3.40847 2.94016 3.33428 3.02202Q3.26009 3.10387 3.18198 3.18198Q3.10387 3.26009 3.02202 3.33428Q2.94016 3.40847 2.85477 3.47855Q2.76938 3.54863 2.68065 3.61443Q2.59192 3.68024 2.50007 3.74161Q2.40821 3.80299 2.31346 3.85978Q2.21871 3.91657 2.12129 3.96865Q2.02386 4.02072 1.924 4.06795Q1.82414 4.11518 1.72208 4.15746Q1.62002 4.19973 1.516 4.23695Q1.41199 4.27416 1.30628 4.30623Q1.20057 4.3383 1.09341 4.36514Q0.986253 4.39198 0.877906 4.41353Q0.76956 4.43508 0.660287 4.45129Q0.551014 4.4675 0.441077 4.47833Q0.33114 4.48916 0.220805 4.49458Q0.110469 4.5 0 4.5Q-0.110469 4.5 -0.220805 4.49458Q-0.33114 4.48916 -0.441077 4.47833Q-0.551014 4.4675 -0.660287 4.45129Q-0.76956 4.43509 -0.877906 4.41353Q-0.986253 4.39198 -1.09341 4.36514Q-1.20057 4.3383 -1.30628 4.30623Q-1.41199 4.27416 -1.516 4.23695Q-1.62002 4.19973 -1.72208 4.15746Q-1.82414 4.11518 -1.924 4.06795Q-2.02386 4.02072 -2.12129 3.96865Q-2.21871 3.91657 -2.31346 3.85978Q-2.40821 3.80299 -2.50007 3.74161Q-2.59192 3.68024 -2.68065 3.61443Q-2.76938 3.54863 -2.85477 3.47855Q-2.94016 3.40847 -3.02202 3.33428Q-3.10387 3.26009 -3.18198 3.18198Q-3.26009 3.10387 -3.33428 3.02202Q-3.40847 2.94016 -3.47855 2.85477Q-3.54863 2.76938 -3.61443 2.68065Q-3.68024 2.59192 -3.74161 2.50007Q-3.80299 2.40821 -3.85978 2.31346Q-3.91657 2.21871 -3.96865 2.12129Q-4.02072 2.02386 -4.06795 1.924Q-4.11518 1.82414 -4.15746 1.72208Q-4.19973 1.62002 -4.23695 1.516Q-4.27416 1.41199 -4.30623 1.30628Q-4.3383 1.20057 -4.36514 1.09341Q-4.39198 0.986253 -4.41353 0.877906Q-4.43508 0.76956 -4.45129 0.660287Q-4.4675 0.551014 -4.47833 0.441077Q-4.48916 0.33114 -4.49458 0.220805Q-4.5 0.110469 -4.5 0Q-4.5 -0.110469 -4.49458 -0.220805Q-4.48916 -0.33114 -4.47833 -0.441077Q-4.4675 -0.551014 -4.45129 -0.660287Q-4.43509 -0.76956 -4.41353 -0.877906Q-4.39198 -0.986253 -4.36514 -1.09341Q-4.3383 -1.20057 -4.30623 -1.30628Q-4.27416 -1.41199 -4.23695 -1.516Q-4.19973 -1.62002 -4.15746 -1.72208Q-4.11518 -1.82414 -4.06795 -1.924Q-4.02072 -2.02386 -3.96865 -2.12129Q-3.91657 -2.21871 -3.85978 -2.31346Q-3.80299 -2.40821 -3.74161 -2.50007Q-3.68024 -2.59192 -3.61443 -2.68065Q-3.54863 -2.76938 -3.47855 -2.85477Q-3.40847 -2.94016 -3.33428 -3.02202Q-3.26009 -3.10387 -3.18198 -3.18198Q-3.10387 -3.26009 -3.02202 -3.33428Q-2.94016 -3.40847 -2.85477 -3.47855Q-2.76938 -3.54863 -2.68065 -3.61443Q-2.59192 -3.68024 -2.50007 -3.74161Q-2.40821 -3.80299 -2.31346 -3.85978Q-2.21871 -3.91657 -2.12129 -3.96865Q-2.02386 -4.02072 -1.924 -4.06795Q-1.82414 -4.11518 -1.72208 -4.15746Q-1.62002 -4.19973 -1.516 -4.23695Q-1.41199 -4.27416 -1.30628 -4.30623Q-1.20057 -4.3383 -1.09341 -4.36514Q-0.986253 -4.39198 -0.877906 -4.41353Q-0.76956 -4.43508 -0.660287 -4.45129Q-0.551014 -4.4675 -0.441077 -4.47833Q-0.33114 -4.48916 -0.220805 -4.49458Q-0.110469 -4.5 0 -4.5Q0.110469 -4.5 0.220805 -4.49458Q0.33114 -4.48916 0.441077 -4.47833Q0.551014 -4.4675 0.660287 -4.45129Q0.76956 -4.43509 0.877906 -4.41353Q0.986253 -4.39198 1.09341 -4.36514Q1.20057 -4.3383 1.30628 -4.30623Q1.41199 -4.27416 1.516 -4.23695Q1.62002 -4.19973 1.72208 -4.15746Q1.82414 -4.11518 1.924 -4.06795Q2.02386 -4.02072 2.12129 -3.96865Q2.21871 -3.91657 2.31346 -3.85978Q2.40821 -3.80299 2.50007 -3.74161Q2.59192 -3.68024 2.68065 -3.61443Q2.76938 -3.54863 2.85477 -3.47855Q2.94016 -3.40847 3.02202 -3.33428Q3.10387 -3.26009 3.18198 -3.18198Q3.26009 -3.10387 3.33428 -3.02202Q3.40847 -2.94016 3.47855 -2.85477Q3.54863 -2.76938 3.61443 -2.68065Q3.68024 -2.59192 3.74161 -2.50007Q3.80299 -2.40821 3.85978 -2.31346Q3.91657 -2.21871 3.96865 -2.12129Q4.02072 -2.02386 4.06795 -1.924Q4.11518 -1.82414 4.15746 -1.72208Q4.19973 -1.62002 4.23695 -1.516Q4.27416 -1.41199 4.30623 -1.30628Q4.3383 -1.20057 4.36514 -1.09341Q4.39198 -0.986253 4.41353 -0.877906Q4.43508 -0.76956 4.45129 -0.660287Q4.4675 -0.551014 4.47833 -0.441077Q4.48916 -0.33114 4.49458 -0.220805Q4.5 -0.110469 4.5 0"/>
	<path fill="none" stroke="black" stroke-width="2.3999999" stroke-linejoin="round" transform="translate(55 79.2857)" d="M-23.5683 -6.58855Q-20.4677 -6.58855 -18.8124 -5.49969Q-17.1522 -4.41082 -17.1522 -1.93035Q-17.1522 0.569648 -18.8319 1.68293Q-20.5116 2.79133 -23.6317 2.79133L-24.6083 2.79133L-24.6083 7.43L-27.7284 7.43L-27.7284 -6.23211Q-26.7079 -6.4323 -25.5702 -6.51043Q-24.4276 -6.58855 -23.5683 -6.58855ZM-23.3681 -3.9323Q-23.7099 -3.9323 -24.0419 -3.90789Q-24.369 -3.88836 -24.6083 -3.86883L-24.6083 0.130195L-23.6317 0.130195Q-22.0106 0.130195 -21.1903 -0.309258Q-20.37 -0.748711 -20.37 -1.94988Q-20.37 -2.53094 -20.58 -2.90691Q-20.7899 -3.28777 -21.1806 -3.51727Q-21.5712 -3.75164 -22.1327 -3.83953Q-22.6893 -3.9323 -23.3681 -3.9323ZM-8.71072 -0.45086Q-9.11111 -0.548516 -9.65311 -0.655938Q-10.1902 -0.768242 -10.8103 -0.768242Q-11.0887 -0.768242 -11.4793 -0.719414Q-11.8699 -0.670586 -12.0701 -0.611992L-12.0701 7.43L-15.0486 7.43L-15.0486 -2.53094Q-14.2478 -2.80926 -13.159 -3.05828Q-12.0701 -3.31219 -10.7322 -3.31219Q-10.4881 -3.31219 -10.1512 -3.27801Q-9.80936 -3.24871 -9.47244 -3.19988Q-9.13065 -3.15105 -8.79373 -3.07781Q-8.45193 -3.00945 -8.20779 -2.9118L-8.71072 -0.45086ZM-3.63011 7.43L-6.60863 7.43L-6.60863 -3.08758L-3.63011 -3.08758L-3.63011 7.43ZM-3.35179 -6.12957Q-3.35179 -5.30926 -3.88402 -4.84051Q-4.41136 -4.37176 -5.12914 -4.37176Q-5.85179 -4.37176 -6.38402 -4.84051Q-6.91136 -5.30926 -6.91136 -6.12957Q-6.91136 -6.94988 -6.38402 -7.41863Q-5.85179 -7.89227 -5.12914 -7.89227Q-4.41136 -7.89227 -3.88402 -7.41863Q-3.35179 -6.94988 -3.35179 -6.12957ZM2.02782 7.43Q1.01219 5.42805 -0.0424957 2.75227Q-1.0923 0.0716014 -2.0298 -3.08758L1.12938 -3.08758Q1.32957 -2.31121 1.59813 -1.39813Q1.87157 -0.489922 2.15965 0.442695Q2.44774 1.37043 2.73582 2.24934Q3.02879 3.12824 3.312 3.8509Q3.57079 3.12824 3.86864 2.24934Q4.17137 1.37043 4.45946 0.442695Q4.75243 -0.489922 5.02098 -1.39813Q5.28954 -2.31121 5.48973 -3.08758L8.57079 -3.08758Q7.6284 0.0716014 6.5786 2.75227Q5.52879 5.42805 4.50829 7.43L2.02782 7.43ZM9.66843 2.24934Q9.66843 0.847969 10.0981 -0.201836Q10.5278 -1.25164 11.226 -1.94988Q11.9292 -2.64813 12.8374 -3.00945Q13.7505 -3.37078 14.7124 -3.37078Q16.9487 -3.37078 18.2475 -1.99871Q19.5512 -0.631524 19.5512 2.02961Q19.5512 2.2884 19.5317 2.6009Q19.5122 2.90852 19.4878 3.14777L12.7299 3.14777Q12.8276 4.07062 13.5893 4.61262Q14.351 5.14973 15.6303 5.14973Q16.4507 5.14973 17.2368 5.00324Q18.0278 4.85187 18.5307 4.63215L18.9311 7.04914Q18.6919 7.17121 18.2915 7.29328Q17.8911 7.41047 17.3979 7.49836Q16.9096 7.59113 16.3481 7.64973Q15.7915 7.70832 15.2299 7.70832Q13.8091 7.70832 12.7592 7.2884Q11.7094 6.86848 11.0161 6.14094Q10.3276 5.40852 9.99557 4.41242Q9.66843 3.41145 9.66843 2.24934ZM16.6704 1.11164Q16.6508 0.730781 16.5385 0.369453Q16.4311 0.00812483 16.2016 -0.270195Q15.9721 -0.548516 15.6206 -0.72918Q15.269 -0.909844 14.7514 -0.909844Q14.2485 -0.909844 13.8872 -0.738945Q13.5307 -0.568047 13.2915 -0.289727Q13.0522 -0.0114064 12.9204 0.359687Q12.7885 0.730781 12.7299 1.11164L16.6704 1.11164ZM21.7488 -5.70965L24.7322 -6.18816L24.7322 -3.08758L28.3113 -3.08758L28.3113 -0.611992L24.7322 -0.611992L24.7322 3.08918Q24.7322 4.03156 25.0594 4.59309Q25.3914 5.14973 26.3924 5.14973Q26.8709 5.14973 27.3787 5.06184Q27.8914 4.96906 28.3113 4.80793L28.7312 7.13215Q28.1892 7.35187 27.5301 7.50812Q26.8709 7.66926 25.909 7.66926Q24.6883 7.66926 23.8875 7.34211Q23.0916 7.01008 22.6082 6.41926Q22.1297 5.82844 21.9392 4.98859Q21.7488 4.14875 21.7488 3.12824L21.7488 -5.70965Z"/>
	<path fill="white" transform="translate(55 79.2857)" d="M-23.5683 -6.58855Q-20.4677 -6.58855 -18.8124 -5.49969Q-17.1522 -4.41082 -17.1522 -1.93035Q-17.1522 0.569648 -18.8319 1.68293Q-20.5116 2.79133 -23.6317 2.79133L-24.6083 2.79133L-24.6083 7.43L-27.7284 7.43L-27.7284 -6.23211Q-26.7079 -6.4323 -25.5702 -6.51043Q-24.4276 -6.58855 -23.5683 -6.58855ZM-23.3681 -3.9323Q-23.7099 -3.9323 -24.0419 -3.90789Q-24.369 -3.88836 -24.6083 -3.86883L-24.6083 0.130195L-23.6317 0.130195Q-22.0106 0.130195 -21.1903 -0.309258Q-20.37 -0.748711 -20.37 -1.94988Q-20.37 -2.53094 -20.58 -2.90691Q-20.7899 -3.28777 -21.1806 -3.51727Q-21.5712 -3.75164 -22.1327 -3.83953Q-22.6893 -3.9323 -23.3681 -3.9323ZM-8.71072 -0.45086Q-9.11111 -0.548516 -9.65311 -0.655938Q-10.1902 -0.768242 -10.8103 -0.768242Q-11.0887 -0.768242 -11.4793 -0.719414Q-11.8699 -0.670586 -12.0701 -0.611992L-12.0701 7.43L-15.0486 7.43L-15.0486 -2.53094Q-14.2478 -2.80926 -13.159 -3.05828Q-12.0701 -3.31219 -10.7322 -3.31219Q-10.4881 -3.31219 -10.1512 -3.27801Q-9.80936 -3.24871 -9.47244 -3.19988Q-9.13065 -3.15105 -8.79373 -3.07781Q-8.45193 -3.00945 -8.20779 -2.9118L-8.71072 -0.45086ZM-3.63011 7.43L-6.60863 7.43L-6.60863 -3.08758L-3.63011 -3.08758L-3.63011 7.43ZM-3.35179 -6.12957Q-3.35179 -5.30926 -3.88402 -4.84051Q-4.41136 -4.37176 -5.12914 -4.37176Q-5.85179 -4.37176 -6.38402 -4.84051Q-6.91136 -5.30926 -6.91136 -6.12957Q-6.91136 -6.94988 -6.38402 -7.41863Q-5.85179 -7.89227 -5.12914 -7.89227Q-4.41136 -7.89227 -3.88402 -7.41863Q-3.35179 -6.94988 -3.35179 -6.12957ZM2.02782 7.43Q1.01219 5.42805 -0.0424957 2.75227Q-1.0923 0.0716014 -2.0298 -3.08758L1.12938 -3.08758Q1.32957 -2.31121 1.59813 -1.39813Q1.87157 -0.489922 2.15965 0.442695Q2.44774 1.37043 2.73582 2.24934Q3.02879 3.12824 3.312 3.8509Q3.57079 3.12824 3.86864 2.24934Q4.17137 1.37043 4.45946 0.442695Q4.75243 -0.489922 5.02098 -1.39813Q5.28954 -2.31121 5.48973 -3.08758L8.57079 -3.08758Q7.6284 0.0716014 6.5786 2.75227Q5.52879 5.42805 4.50829 7.43L2.02782 7.43ZM9.66843 2.24934Q9.66843 0.847969 10.0981 -0.201836Q10.5278 -1.25164 11.226 -1.94988Q11.9292 -2.64813 12.8374 -3.00945Q13.7505 -3.37078 14.7124 -3.37078Q16.9487 -3.37078 18.2475 -1.99871Q19.5512 -0.631524 19.5512 2.02961Q19.5512 2.2884 19.5317 2.6009Q19.5122 2.90852 19.4878 3.14777L12.7299 3.14777Q12.8276 4.07062 13.5893 4.61262Q14.351 5.14973 15.6303 5.14973Q16.4507 5.14973 17.2368 5.00324Q18.0278 4.85187 18.5307 4.63215L18.9311 7.04914Q18.6919 7.17121 18.2915 7.29328Q17.8911 7.41047 17.3979 7.49836Q16.9096 7.59113 16.3481 7.64973Q15.7915 7.70832 15.2299 7.70832Q13.8091 7.70832 12.7592 7.2884Q11.7094 6.86848 11.0161 6.14094Q10.3276 5.40852 9.99557 4.41242Q9.66843 3.41145 9.66843 2.24934ZM16.6704 1.11164Q16.6508 0.730781 16.5385 0.369453Q16.4311 0.00812483 16.2016 -0.270195Q15.9721 -0.548516 15.6206 -0.72918Q15.269 -0.909844 14.7514 -0.909844Q14.2485 -0.909844 13.8872 -0.738945Q13.5307 -0.568047 13.2915 -0.289727Q13.0522 -0.0114064 12.9204 0.359687Q12.7885 0.730781 12.7299 1.11164L16.6704 1.11164ZM21.7488 -5.70965L24.7322 -6.18816L24.7322 -3.08758L28.3113 -3.08758L28.3113 -0.611992L24.7322 -0.611992L24.7322 3.08918Q24.7322 4.03156 25.0594 4.59309Q25.3914 5.14973 26.3924 5.14973Q26.8709 5.14973 27.3787 5.06184Q27.8914 4.96906 28.3113 4.80793L28.7312 7.13215Q28.1892 7.35187 27.5301 7.50812Q26.8709 7.66926 25.909 7.66926Q24.6883 7.66926 23.8875 7.34211Q23.0916 7.01008 22.6082 6.41926Q22.1297 5.82844 21.9392 4.98859Q21.7488 4.14875 21.7488 3.12824L21.7488 -5.70965Z"/>
</svg>
