<?xml version="1.0" encoding="utf-8" ?>
<svg xmlns="http://www.w3.org/2000/svg" xmlns:xlink="http://www.w3.org/1999/xlink" width="110" height="110">
	<path fill="#63BF2E" transform="matrix(1.42143 0.142619 -0.142619 1.42143 55 47.8571)" d="M-7 -5L-1 -9L7 -6L9 3L2 9L-5 6L-8 2L-7 -5Z"/>
	<path fill="#509B25" transform="matrix(1.42143 0.142619 -0.142619 1.42143 55 47.8571)" d="M-7.83205 -6.24808L-1.83205 -10.2481Q-1.68365 -10.347 -1.51619 -10.4084Q-1.34873 -10.4698 -1.17155 -10.4902Q-0.994365 -10.5106 -0.817338 -10.4888Q-0.640312 -10.4671 -0.473315 -10.4045L7.52669 -7.40449Q7.70198 -7.33876 7.85574 -7.23195Q8.00951 -7.12514 8.1323 -6.98382Q8.25509 -6.8425 8.33938 -6.67533Q8.42367 -6.50815 8.46428 -6.3254L10.4643 2.6746Q10.4863 2.77367 10.4948 2.8748Q10.5032 2.97593 10.498 3.07728Q10.4928 3.17863 10.4739 3.27835Q10.4551 3.37807 10.423 3.47434Q10.3909 3.57062 10.3462 3.66169Q10.3014 3.75277 10.2448 3.83698Q10.1881 3.9212 10.1207 3.99702Q10.0532 4.07284 9.97619 4.13889L2.97619 10.1389Q2.8968 10.2069 2.80874 10.2633Q2.72067 10.3197 2.62564 10.3633Q2.53061 10.4069 2.43045 10.4369Q2.33028 10.4669 2.22693 10.4827Q2.12357 10.4986 2.01902 10.4999Q1.91446 10.5012 1.81074 10.488Q1.70701 10.4748 1.60612 10.4474Q1.50523 10.4199 1.40912 10.3787L-5.59088 7.37872Q-5.95942 7.22077 -6.2 6.9L-9.2 2.9Q-9.28864 2.78181 -9.35252 2.6486Q-9.4164 2.51539 -9.45307 2.37227Q-9.48974 2.22916 -9.49778 2.08164Q-9.50582 1.93412 -9.48492 1.78787L-8.48492 -5.21213Q-8.46255 -5.36879 -8.40797 -5.51733Q-8.35339 -5.66588 -8.26901 -5.79976Q-8.18464 -5.93364 -8.07418 -6.04697Q-7.96372 -6.16029 -7.83205 -6.24808ZM-6.16795 -3.75192L-7 -5L-5.51508 -4.78787L-6.51508 2.21213L-8 2L-6.8 1.1L-3.8 5.1L-5 6L-4.40912 4.62128L2.59088 7.62128L2 9L1.02381 7.86111L8.02381 1.86112L9 3L7.53572 3.3254L5.53572 -5.6746L7 -6L6.47331 -4.59551L-1.52669 -7.59551L-1 -9L-0.16795 -7.75192L-6.16795 -3.75192Z"/>
	<path fill="none" stroke="black" stroke-width="2.2285714" stroke-linejoin="round" transform="translate(55 79.2857)" d="M-30.7073 7.15773Q-32.0629 7.15773 -33.0468 6.77687Q-34.0307 6.39601 -34.6745 5.72044Q-35.3138 5.04033 -35.6222 4.10632Q-35.9259 3.16777 -35.9259 2.03426L-35.9259 -5.97285L-33.0287 -5.97285L-33.0287 1.79396Q-33.0287 2.57381 -32.8519 3.12243Q-32.675 3.66651 -32.3713 4.0111Q-32.0629 4.35569 -31.6277 4.50531Q-31.1924 4.6504 -30.671 4.6504Q-29.6146 4.6504 -28.9571 4.00203Q-28.2952 3.35367 -28.2952 1.79396L-28.2952 -5.97285L-25.3979 -5.97285L-25.3979 2.03426Q-25.3979 3.16777 -25.7153 4.11538Q-26.0281 5.05847 -26.681 5.73857Q-27.3294 6.41868 -28.3314 6.79047Q-29.3334 7.15773 -30.7073 7.15773ZM-16.917 -0.418655Q-17.2888 -0.509336 -17.7921 -0.609085Q-18.2908 -0.713368 -18.8667 -0.713368Q-19.1251 -0.713368 -19.4878 -0.668027Q-19.8505 -0.622687 -20.0364 -0.568279L-20.0364 6.89929L-22.8022 6.89929L-22.8022 -2.35016Q-22.0586 -2.6086 -21.0475 -2.83983Q-20.0364 -3.0756 -18.7941 -3.0756Q-18.5674 -3.0756 -18.2546 -3.04386Q-17.9372 -3.01666 -17.6243 -2.97132Q-17.307 -2.92598 -16.9941 -2.85797Q-16.6767 -2.79449 -16.45 -2.70381L-16.917 -0.418655ZM-11.2373 4.96778Q-10.8292 4.96778 -10.4574 4.94965Q-10.0856 4.93151 -9.86347 4.89524L-9.86347 2.79598Q-10.0312 2.75971 -10.3668 2.72343Q-10.6977 2.68263 -10.9788 2.68263Q-11.3688 2.68263 -11.7134 2.7325Q-12.0534 2.77784 -12.3164 2.90933Q-12.5748 3.03628 -12.7245 3.25845Q-12.8695 3.48062 -12.8695 3.81614Q-12.8695 4.46451 -12.4343 4.71841Q-11.999 4.96778 -11.2373 4.96778ZM-11.4595 -3.13001Q-10.2353 -3.13001 -9.41914 -2.8489Q-8.59848 -2.57232 -8.1088 -2.05091Q-7.61459 -1.53403 -7.41056 -0.790447Q-7.20653 -0.046864 -7.20653 0.864478L-7.20653 6.62271Q-7.80049 6.74966 -8.86145 6.92649Q-9.91788 7.10332 -11.4232 7.10332Q-12.3708 7.10332 -13.1416 6.93556Q-13.9124 6.7678 -14.4701 6.38694Q-15.0277 6.00608 -15.327 5.39398Q-15.6217 4.78189 -15.6217 3.88868Q-15.6217 3.03628 -15.2771 2.44232Q-14.9325 1.84836 -14.3567 1.49471Q-13.7809 1.14105 -13.0373 0.986897Q-12.2937 0.828206 -11.4957 0.828206Q-10.9607 0.828206 -10.5436 0.873546Q-10.1219 0.918886 -9.86347 0.991431L-9.86347 0.732991Q-9.86347 0.0256805 -10.2897 -0.400519Q-10.7159 -0.826719 -11.7768 -0.826719Q-12.4796 -0.826719 -13.1688 -0.722436Q-13.858 -0.622687 -14.3567 -0.436791L-14.7104 -2.663Q-14.4701 -2.74008 -14.1073 -2.8217Q-13.7446 -2.90784 -13.3184 -2.97132Q-12.8922 -3.0348 -12.4207 -3.08014Q-11.9446 -3.13001 -11.4595 -3.13001ZM-4.70371 -2.53605Q-4.00094 -2.74008 -2.88556 -2.91691Q-1.77019 -3.09374 -0.545998 -3.09374Q0.700863 -3.09374 1.52606 -2.76729Q2.35125 -2.44084 2.83186 -1.84688Q3.317 -1.25292 3.52104 -0.436791Q3.72507 0.379335 3.72507 1.38136L3.72507 6.89929L0.959304 6.89929L0.959304 1.71688Q0.959304 0.379335 0.605649 -0.173817Q0.251993 -0.731504 -0.713757 -0.731504Q-1.00847 -0.731504 -1.34399 -0.7043Q-1.67951 -0.677096 -1.93795 -0.640823L-1.93795 6.89929L-4.70371 6.89929L-4.70371 -2.53605ZM8.9954 6.89929L6.22964 6.89929L6.22964 -2.86704L8.9954 -2.86704L8.9954 6.89929ZM9.25384 -5.69174Q9.25384 -4.93003 8.75963 -4.49476Q8.26995 -4.05949 7.60345 -4.05949Q6.93241 -4.05949 6.4382 -4.49476Q5.94853 -4.93003 5.94853 -5.69174Q5.94853 -6.45346 6.4382 -6.88873Q6.93241 -7.32853 7.60345 -7.32853Q8.26995 -7.32853 8.75963 -6.88873Q9.25384 -6.45346 9.25384 -5.69174ZM19.9323 6.56377Q19.225 6.7678 18.1096 6.94463Q16.9988 7.12145 15.7701 7.12145Q14.5277 7.12145 13.698 6.79047Q12.8728 6.45495 12.3877 5.85192Q11.9071 5.24436 11.703 4.4101Q11.499 3.57583 11.499 2.57381L11.499 -2.86704L14.2693 -2.86704L14.2693 2.23829Q14.2693 3.57583 14.6184 4.16979Q14.9721 4.76375 15.9378 4.76375Q16.2371 4.76375 16.5681 4.73655Q16.9036 4.70934 17.1665 4.66854L17.1665 -2.86704L19.9323 -2.86704L19.9323 6.56377ZM27.8913 1.71688Q27.8913 0.379335 27.5467 -0.173817Q27.2067 -0.731504 26.3724 -0.731504Q26.1095 -0.731504 25.8283 -0.7043Q25.5518 -0.677096 25.2933 -0.640823L25.2933 6.89929L22.5276 6.89929L22.5276 -2.53605Q22.8812 -2.62673 23.3528 -2.72648Q23.8243 -2.83076 24.3548 -2.91238Q24.8853 -2.99852 25.443 -3.04386Q26.0006 -3.09374 26.5357 -3.09374Q27.5966 -3.09374 28.2541 -2.8217Q28.916 -2.55419 29.3422 -2.1824Q29.9362 -2.6086 30.707 -2.8489Q31.4778 -3.09374 32.1261 -3.09374Q33.2959 -3.09374 34.0486 -2.76729Q34.8012 -2.44084 35.2455 -1.84688Q35.6944 -1.25292 35.8622 -0.436791Q36.0299 0.379335 36.0299 1.38136L36.0299 6.89929L33.2596 6.89929L33.2596 1.71688Q33.2596 0.379335 32.9151 -0.173817Q32.575 -0.731504 31.7362 -0.731504Q31.514 -0.731504 31.115 -0.618153Q30.716 -0.509336 30.4576 -0.341577Q30.5846 0.0846229 30.6208 0.560697Q30.6616 1.03224 30.6616 1.56725L30.6616 6.89929L27.8913 6.89929L27.8913 1.71688Z"/>
	<path fill="white" transform="translate(55 79.2857)" d="M-30.7073 7.15773Q-32.0629 7.15773 -33.0468 6.77687Q-34.0307 6.39601 -34.6745 5.72044Q-35.3138 5.04033 -35.6222 4.10632Q-35.9259 3.16777 -35.9259 2.03426L-35.9259 -5.97285L-33.0287 -5.97285L-33.0287 1.79396Q-33.0287 2.57381 -32.8519 3.12243Q-32.675 3.66651 -32.3713 4.0111Q-32.0629 4.35569 -31.6277 4.50531Q-31.1924 4.6504 -30.671 4.6504Q-29.6146 4.6504 -28.9571 4.00203Q-28.2952 3.35367 -28.2952 1.79396L-28.2952 -5.97285L-25.3979 -5.97285L-25.3979 2.03426Q-25.3979 3.16777 -25.7153 4.11538Q-26.0281 5.05847 -26.681 5.73857Q-27.3294 6.41868 -28.3314 6.79047Q-29.3334 7.15773 -30.7073 7.15773ZM-16.917 -0.418655Q-17.2888 -0.509336 -17.7921 -0.609085Q-18.2908 -0.713368 -18.8667 -0.713368Q-19.1251 -0.713368 -19.4878 -0.668027Q-19.8505 -0.622687 -20.0364 -0.568279L-20.0364 6.89929L-22.8022 6.89929L-22.8022 -2.35016Q-22.0586 -2.6086 -21.0475 -2.83983Q-20.0364 -3.0756 -18.7941 -3.0756Q-18.5674 -3.0756 -18.2546 -3.04386Q-17.9372 -3.01666 -17.6243 -2.97132Q-17.307 -2.92598 -16.9941 -2.85797Q-16.6767 -2.79449 -16.45 -2.70381L-16.917 -0.418655ZM-11.2373 4.96778Q-10.8292 4.96778 -10.4574 4.94965Q-10.0856 4.93151 -9.86347 4.89524L-9.86347 2.79598Q-10.0312 2.75971 -10.3668 2.72343Q-10.6977 2.68263 -10.9788 2.68263Q-11.3688 2.68263 -11.7134 2.7325Q-12.0534 2.77784 -12.3164 2.90933Q-12.5748 3.03628 -12.7245 3.25845Q-12.8695 3.48062 -12.8695 3.81614Q-12.8695 4.46451 -12.4343 4.71841Q-11.999 4.96778 -11.2373 4.96778ZM-11.4595 -3.13001Q-10.2353 -3.13001 -9.41914 -2.8489Q-8.59848 -2.57232 -8.1088 -2.05091Q-7.61459 -1.53403 -7.41056 -0.790447Q-7.20653 -0.046864 -7.20653 0.864478L-7.20653 6.62271Q-7.80049 6.74966 -8.86145 6.92649Q-9.91788 7.10332 -11.4232 7.10332Q-12.3708 7.10332 -13.1416 6.93556Q-13.9124 6.7678 -14.4701 6.38694Q-15.0277 6.00608 -15.327 5.39398Q-15.6217 4.78189 -15.6217 3.88868Q-15.6217 3.03628 -15.2771 2.44232Q-14.9325 1.84836 -14.3567 1.49471Q-13.7809 1.14105 -13.0373 0.986897Q-12.2937 0.828206 -11.4957 0.828206Q-10.9607 0.828206 -10.5436 0.873546Q-10.1219 0.918886 -9.86347 0.991431L-9.86347 0.732991Q-9.86347 0.0256805 -10.2897 -0.400519Q-10.7159 -0.826719 -11.7768 -0.826719Q-12.4796 -0.826719 -13.1688 -0.722436Q-13.858 -0.622687 -14.3567 -0.436791L-14.7104 -2.663Q-14.4701 -2.74008 -14.1073 -2.8217Q-13.7446 -2.90784 -13.3184 -2.97132Q-12.8922 -3.0348 -12.4207 -3.08014Q-11.9446 -3.13001 -11.4595 -3.13001ZM-4.70371 -2.53605Q-4.00094 -2.74008 -2.88556 -2.91691Q-1.77019 -3.09374 -0.545998 -3.09374Q0.700863 -3.09374 1.52606 -2.76729Q2.35125 -2.44084 2.83186 -1.84688Q3.317 -1.25292 3.52104 -0.436791Q3.72507 0.379335 3.72507 1.38136L3.72507 6.89929L0.959304 6.89929L0.959304 1.71688Q0.959304 0.379335 0.605649 -0.173817Q0.251993 -0.731504 -0.713757 -0.731504Q-1.00847 -0.731504 -1.34399 -0.7043Q-1.67951 -0.677096 -1.93795 -0.640823L-1.93795 6.89929L-4.70371 6.89929L-4.70371 -2.53605ZM8.9954 6.89929L6.22964 6.89929L6.22964 -2.86704L8.9954 -2.86704L8.9954 6.89929ZM9.25384 -5.69174Q9.25384 -4.93003 8.75963 -4.49476Q8.26995 -4.05949 7.60345 -4.05949Q6.93241 -4.05949 6.4382 -4.49476Q5.94853 -4.93003 5.94853 -5.69174Q5.94853 -6.45346 6.4382 -6.88873Q6.93241 -7.32853 7.60345 -7.32853Q8.26995 -7.32853 8.75963 -6.88873Q9.25384 -6.45346 9.25384 -5.69174ZM19.9323 6.56377Q19.225 6.7678 18.1096 6.94463Q16.9988 7.12145 15.7701 7.12145Q14.5277 7.12145 13.698 6.79047Q12.8728 6.45495 12.3877 5.85192Q11.9071 5.24436 11.703 4.4101Q11.499 3.57583 11.499 2.57381L11.499 -2.86704L14.2693 -2.86704L14.2693 2.23829Q14.2693 3.57583 14.6184 4.16979Q14.9721 4.76375 15.9378 4.76375Q16.2371 4.76375 16.5681 4.73655Q16.9036 4.70934 17.1665 4.66854L17.1665 -2.86704L19.9323 -2.86704L19.9323 6.56377ZM27.8913 1.71688Q27.8913 0.379335 27.5467 -0.173817Q27.2067 -0.731504 26.3724 -0.731504Q26.1095 -0.731504 25.8283 -0.7043Q25.5518 -0.677096 25.2933 -0.640823L25.2933 6.89929L22.5276 6.89929L22.5276 -2.53605Q22.8812 -2.62673 23.3528 -2.72648Q23.8243 -2.83076 24.3548 -2.91238Q24.8853 -2.99852 25.443 -3.04386Q26.0006 -3.09374 26.5357 -3.09374Q27.5966 -3.09374 28.2541 -2.8217Q28.916 -2.55419 29.3422 -2.1824Q29.9362 -2.6086 30.707 -2.8489Q31.4778 -3.09374 32.1261 -3.09374Q33.2959 -3.09374 34.0486 -2.76729Q34.8012 -2.44084 35.2455 -1.84688Q35.6944 -1.25292 35.8622 -0.436791Q36.0299 0.379335 36.0299 1.38136L36.0299 6.89929L33.2596 6.89929L33.2596 1.71688Q33.2596 0.379335 32.9151 -0.173817Q32.575 -0.731504 31.7362 -0.731504Q31.514 -0.731504 31.115 -0.618153Q30.716 -0.509336 30.4576 -0.341577Q30.5846 0.0846229 30.6208 0.560697Q30.6616 1.03224 30.6616 1.56725L30.6616 6.89929L27.8913 6.89929L27.8913 1.71688Z"/>
</svg>
