<?xml version="1.0" encoding="utf-8" ?>
<svg xmlns="http://www.w3.org/2000/svg" xmlns:xlink="http://www.w3.org/1999/xlink" width="110" height="110">
	<path fill="#FFF0B8" transform="matrix(1.42857 0 0 1.42857 55 47.8571)" d="M11.05 0Q11.05 0.367002 11.0367 0.733562Q11.0234 1.10012 10.9968 1.46536Q10.9702 1.83059 10.9304 2.19362Q10.8906 2.55665 10.8377 2.9166Q10.7848 3.27655 10.7188 3.63255Q10.6529 3.98856 10.5742 4.33976Q10.4954 4.69095 10.4041 5.0365Q10.3127 5.38205 10.2089 5.72112Q10.1051 6.06018 9.98908 6.39195Q9.8731 6.72371 9.74523 7.04738Q9.61736 7.37105 9.4779 7.68584Q9.33844 8.00062 9.18774 8.30577Q9.03703 8.61093 8.87544 8.9057Q8.71385 9.20048 8.54177 9.48418Q8.36968 9.76788 8.18751 10.0398Q8.00534 10.3117 7.81353 10.5712Q7.62172 10.8308 7.42073 11.0772Q7.21973 11.3237 7.01005 11.5565Q6.80036 11.7893 6.58248 12.0079Q6.3646 12.2266 6.13905 12.4305Q5.9135 12.6344 5.68084 12.823Q5.44817 13.0117 5.20893 13.1847Q4.9697 13.3577 4.72448 13.5146Q4.47927 13.6716 4.22865 13.812Q3.97804 13.9524 3.72263 14.0761Q3.46723 14.1997 3.20765 14.3063Q2.94806 14.4128 2.68493 14.502Q2.4218 14.5911 2.15575 14.6627Q1.8897 14.7343 1.62137 14.7882Q1.35305 14.842 1.08309 14.878Q0.813133 14.914 0.542198 14.932Q0.271262 14.95 0 14.95Q-0.271262 14.95 -0.542198 14.932Q-0.813133 14.914 -1.08309 14.878Q-1.35305 14.842 -1.62137 14.7882Q-1.8897 14.7343 -2.15575 14.6627Q-2.4218 14.5911 -2.68493 14.502Q-2.94806 14.4128 -3.20765 14.3063Q-3.46723 14.1997 -3.72263 14.0761Q-3.97804 13.9524 -4.22865 13.812Q-4.47927 13.6716 -4.72448 13.5146Q-4.9697 13.3577 -5.20893 13.1847Q-5.44817 13.0117 -5.68084 12.823Q-5.9135 12.6344 -6.13905 12.4305Q-6.3646 12.2266 -6.58248 12.008Q-6.80036 11.7893 -7.01005 11.5565Q-7.21973 11.3237 -7.42073 11.0772Q-7.62172 10.8308 -7.81353 10.5712Q-8.00534 10.3117 -8.18751 10.0398Q-8.36968 9.76788 -8.54177 9.48418Q-8.71385 9.20048 -8.87544 8.9057Q-9.03703 8.61092 -9.18774 8.30577Q-9.33844 8.00062 -9.4779 7.68583Q-9.61736 7.37105 -9.74523 7.04738Q-9.8731 6.72371 -9.98908 6.39195Q-10.1051 6.06018 -10.2089 5.72112Q-10.3127 5.38205 -10.4041 5.0365Q-10.4954 4.69095 -10.5742 4.33976Q-10.6529 3.98856 -10.7188 3.63255Q-10.7848 3.27655 -10.8377 2.9166Q-10.8906 2.55665 -10.9304 2.19362Q-10.9702 1.83059 -10.9968 1.46536Q-11.0234 1.10012 -11.0367 0.733562Q-11.05 0.367002 -11.05 0Q-11.05 -0.367002 -11.0367 -0.733562Q-11.0234 -1.10012 -10.9968 -1.46536Q-10.9702 -1.83059 -10.9304 -2.19362Q-10.8906 -2.55665 -10.8377 -2.9166Q-10.7848 -3.27655 -10.7188 -3.63255Q-10.6529 -3.98856 -10.5742 -4.33976Q-10.4954 -4.69095 -10.4041 -5.0365Q-10.3127 -5.38205 -10.2089 -5.72112Q-10.1051 -6.06018 -9.98908 -6.39195Q-9.8731 -6.72371 -9.74523 -7.04738Q-9.61736 -7.37105 -9.4779 -7.68584Q-9.33844 -8.00062 -9.18774 -8.30577Q-9.03703 -8.61093 -8.87544 -8.9057Q-8.71385 -9.20048 -8.54177 -9.48418Q-8.36968 -9.76788 -8.18751 -10.0398Q-8.00534 -10.3117 -7.81353 -10.5712Q-7.62172 -10.8308 -7.42073 -11.0772Q-7.21973 -11.3237 -7.01005 -11.5565Q-6.80036 -11.7893 -6.58248 -12.0079Q-6.3646 -12.2266 -6.13905 -12.4305Q-5.9135 -12.6344 -5.68084 -12.823Q-5.44817 -13.0117 -5.20893 -13.1847Q-4.9697 -13.3577 -4.72448 -13.5146Q-4.47927 -13.6716 -4.22865 -13.812Q-3.97804 -13.9524 -3.72263 -14.0761Q-3.46723 -14.1997 -3.20765 -14.3063Q-2.94806 -14.4128 -2.68493 -14.502Q-2.4218 -14.5911 -2.15575 -14.6627Q-1.8897 -14.7343 -1.62137 -14.7882Q-1.35305 -14.842 -1.08309 -14.878Q-0.813133 -14.914 -0.542198 -14.932Q-0.271262 -14.95 0 -14.95Q0.271262 -14.95 0.542198 -14.932Q0.813133 -14.914 1.08309 -14.878Q1.35305 -14.842 1.62137 -14.7882Q1.8897 -14.7343 2.15575 -14.6627Q2.4218 -14.5911 2.68493 -14.502Q2.94806 -14.4128 3.20765 -14.3063Q3.46723 -14.1997 3.72263 -14.0761Q3.97804 -13.9524 4.22865 -13.812Q4.47927 -13.6716 4.72448 -13.5146Q4.9697 -13.3577 5.20893 -13.1847Q5.44817 -13.0117 5.68084 -12.823Q5.9135 -12.6344 6.13905 -12.4305Q6.3646 -12.2266 6.58248 -12.008Q6.80036 -11.7893 7.01005 -11.5565Q7.21973 -11.3237 7.42073 -11.0772Q7.62172 -10.8308 7.81353 -10.5712Q8.00534 -10.3117 8.18751 -10.0398Q8.36968 -9.76788 8.54177 -9.48418Q8.71385 -9.20048 8.87544 -8.9057Q9.03703 -8.61092 9.18774 -8.30577Q9.33844 -8.00062 9.4779 -7.68583Q9.61736 -7.37105 9.74523 -7.04738Q9.8731 -6.72371 9.98908 -6.39195Q10.1051 -6.06018 10.2089 -5.72112Q10.3127 -5.38205 10.4041 -5.0365Q10.4954 -4.69095 10.5742 -4.33976Q10.6529 -3.98856 10.7188 -3.63255Q10.7848 -3.27655 10.8377 -2.9166Q10.8906 -2.55665 10.9304 -2.19362Q10.9702 -1.83059 10.9968 -1.46536Q11.0234 -1.10012 11.0367 -0.733562Q11.05 -0.367002 11.05 0"/>
	<path fill="none" stroke="#CFC295" stroke-width="3" stroke-linejoin="round" transform="matrix(1.42857 0 0 1.42857 55 47.8571)" d="M11.05 0Q11.05 0.367002 11.0367 0.733562Q11.0234 1.10012 10.9968 1.46536Q10.9702 1.83059 10.9304 2.19362Q10.8906 2.55665 10.8377 2.9166Q10.7848 3.27655 10.7188 3.63255Q10.6529 3.98856 10.5742 4.33976Q10.4954 4.69095 10.4041 5.0365Q10.3127 5.38205 10.2089 5.72112Q10.1051 6.06018 9.98908 6.39195Q9.8731 6.72371 9.74523 7.04738Q9.61736 7.37105 9.4779 7.68584Q9.33844 8.00062 9.18774 8.30577Q9.03703 8.61093 8.87544 8.9057Q8.71385 9.20048 8.54177 9.48418Q8.36968 9.76788 8.18751 10.0398Q8.00534 10.3117 7.81353 10.5712Q7.62172 10.8308 7.42073 11.0772Q7.21973 11.3237 7.01005 11.5565Q6.80036 11.7893 6.58248 12.0079Q6.3646 12.2266 6.13905 12.4305Q5.9135 12.6344 5.68084 12.823Q5.44817 13.0117 5.20893 13.1847Q4.9697 13.3577 4.72448 13.5146Q4.47927 13.6716 4.22865 13.812Q3.97804 13.9524 3.72263 14.0761Q3.46723 14.1997 3.20765 14.3063Q2.94806 14.4128 2.68493 14.502Q2.4218 14.5911 2.15575 14.6627Q1.8897 14.7343 1.62137 14.7882Q1.35305 14.842 1.08309 14.878Q0.813133 14.914 0.542198 14.932Q0.271262 14.95 0 14.95Q-0.271262 14.95 -0.542198 14.932Q-0.813133 14.914 -1.08309 14.878Q-1.35305 14.842 -1.62137 14.7882Q-1.8897 14.7343 -2.15575 14.6627Q-2.4218 14.5911 -2.68493 14.502Q-2.94806 14.4128 -3.20765 14.3063Q-3.46723 14.1997 -3.72263 14.0761Q-3.97804 13.9524 -4.22865 13.812Q-4.47927 13.6716 -4.72448 13.5146Q-4.9697 13.3577 -5.20893 13.1847Q-5.44817 13.0117 -5.68084 12.823Q-5.9135 12.6344 -6.13905 12.4305Q-6.3646 12.2266 -6.58248 12.008Q-6.80036 11.7893 -7.01005 11.5565Q-7.21973 11.3237 -7.42073 11.0772Q-7.62172 10.8308 -7.81353 10.5712Q-8.00534 10.3117 -8.18751 10.0398Q-8.36968 9.76788 -8.54177 9.48418Q-8.71385 9.20048 -8.87544 8.9057Q-9.03703 8.61092 -9.18774 8.30577Q-9.33844 8.00062 -9.4779 7.68583Q-9.61736 7.37105 -9.74523 7.04738Q-9.8731 6.72371 -9.98908 6.39195Q-10.1051 6.06018 -10.2089 5.72112Q-10.3127 5.38205 -10.4041 5.0365Q-10.4954 4.69095 -10.5742 4.33976Q-10.6529 3.98856 -10.7188 3.63255Q-10.7848 3.27655 -10.8377 2.9166Q-10.8906 2.55665 -10.9304 2.19362Q-10.9702 1.83059 -10.9968 1.46536Q-11.0234 1.10012 -11.0367 0.733562Q-11.05 0.367002 -11.05 0Q-11.05 -0.367002 -11.0367 -0.733562Q-11.0234 -1.10012 -10.9968 -1.46536Q-10.9702 -1.83059 -10.9304 -2.19362Q-10.8906 -2.55665 -10.8377 -2.9166Q-10.7848 -3.27655 -10.7188 -3.63255Q-10.6529 -3.98856 -10.5742 -4.33976Q-10.4954 -4.69095 -10.4041 -5.0365Q-10.3127 -5.38205 -10.2089 -5.72112Q-10.1051 -6.06018 -9.98908 -6.39195Q-9.8731 -6.72371 -9.74523 -7.04738Q-9.61736 -7.37105 -9.4779 -7.68584Q-9.33844 -8.00062 -9.18774 -8.30577Q-9.03703 -8.61093 -8.87544 -8.9057Q-8.71385 -9.20048 -8.54177 -9.48418Q-8.36968 -9.76788 -8.18751 -10.0398Q-8.00534 -10.3117 -7.81353 -10.5712Q-7.62172 -10.8308 -7.42073 -11.0772Q-7.21973 -11.3237 -7.01005 -11.5565Q-6.80036 -11.7893 -6.58248 -12.0079Q-6.3646 -12.2266 -6.13905 -12.4305Q-5.9135 -12.6344 -5.68084 -12.823Q-5.44817 -13.0117 -5.20893 -13.1847Q-4.9697 -13.3577 -4.72448 -13.5146Q-4.47927 -13.6716 -4.22865 -13.812Q-3.97804 -13.9524 -3.72263 -14.0761Q-3.46723 -14.1997 -3.20765 -14.3063Q-2.94806 -14.4128 -2.68493 -14.502Q-2.4218 -14.5911 -2.15575 -14.6627Q-1.8897 -14.7343 -1.62137 -14.7882Q-1.35305 -14.842 -1.08309 -14.878Q-0.813133 -14.914 -0.542198 -14.932Q-0.271262 -14.95 0 -14.95Q0.271262 -14.95 0.542198 -14.932Q0.813133 -14.914 1.08309 -14.878Q1.35305 -14.842 1.62137 -14.7882Q1.8897 -14.7343 2.15575 -14.6627Q2.4218 -14.5911 2.68493 -14.502Q2.94806 -14.4128 3.20765 -14.3063Q3.46723 -14.1997 3.72263 -14.0761Q3.97804 -13.9524 4.22865 -13.812Q4.47927 -13.6716 4.72448 -13.5146Q4.9697 -13.3577 5.20893 -13.1847Q5.44817 -13.0117 5.68084 -12.823Q5.9135 -12.6344 6.13905 -12.4305Q6.3646 -12.2266 6.58248 -12.008Q6.80036 -11.7893 7.01005 -11.5565Q7.21973 -11.3237 7.42073 -11.0772Q7.62172 -10.8308 7.81353 -10.5712Q8.00534 -10.3117 8.18751 -10.0398Q8.36968 -9.76788 8.54177 -9.48418Q8.71385 -9.20048 8.87544 -8.9057Q9.03703 -8.61092 9.18774 -8.30577Q9.33844 -8.00062 9.4779 -7.68583Q9.61736 -7.37105 9.74523 -7.04738Q9.8731 -6.72371 9.98908 -6.39195Q10.1051 -6.06018 10.2089 -5.72112Q10.3127 -5.38205 10.4041 -5.0365Q10.4954 -4.69095 10.5742 -4.33976Q10.6529 -3.98856 10.7188 -3.63255Q10.7848 -3.27655 10.8377 -2.9166Q10.8906 -2.55665 10.9304 -2.19362Q10.9702 -1.83059 10.9968 -1.46536Q11.0234 -1.10012 11.0367 -0.733562Q11.05 -0.367002 11.05 0"/>
	<path fill="none" stroke="black" stroke-width="2.3999999" stroke-linejoin="round" transform="translate(55 79.2857)" d="M-16.3384 7.43L-16.3384 -6.4323L-6.97807 -6.4323L-6.97807 -3.81023L-13.2183 -3.81023L-13.2183 -1.09051L-7.6812 -1.09051L-7.6812 1.46809L-13.2183 1.46809L-13.2183 4.80793L-6.51909 4.80793L-6.51909 7.43L-16.3384 7.43ZM-1.87956 1.82941Q-1.87956 4.32941 0.141922 4.32941Q0.600906 4.32941 1.0013 4.21223Q1.40169 4.09016 1.68001 3.92902L1.68001 -0.831719Q1.46028 -0.870781 1.15755 -0.900078Q0.859695 -0.929375 0.459305 -0.929375Q-0.722336 -0.929375 -1.30339 -0.148125Q-1.87956 0.628242 -1.87956 1.82941ZM4.65852 6.11164Q4.65852 8.68977 3.34993 9.93977Q2.04134 11.1898 -0.697922 11.1898Q-1.65984 11.1898 -2.62175 11.0189Q-3.57878 10.848 -4.39909 10.5696L-3.88152 8.06965Q-3.17839 8.34797 -2.41179 8.5091Q-1.6403 8.67023 -0.658859 8.67023Q0.620438 8.67023 1.14778 8.10871Q1.68001 7.55207 1.68001 6.66828L1.68001 6.2923Q1.20149 6.51203 0.688797 6.62434Q0.180984 6.73176 -0.419601 6.73176Q-2.60222 6.73176 -3.76433 5.4427Q-4.92155 4.14875 -4.92155 1.82941Q-4.92155 0.672187 -4.56023 -0.279961Q-4.1989 -1.23211 -3.51042 -1.91082Q-2.82195 -2.58953 -1.82097 -2.96063Q-0.819992 -3.33172 0.439774 -3.33172Q0.981766 -3.33172 1.54817 -3.27801Q2.11946 -3.22918 2.6761 -3.14617Q3.23763 -3.06805 3.74544 -2.95574Q4.25813 -2.84832 4.65852 -2.73113L4.65852 6.11164ZM10.0004 1.82941Q10.0004 4.32941 12.0219 4.32941Q12.4809 4.32941 12.8813 4.21223Q13.2817 4.09016 13.56 3.92902L13.56 -0.831719Q13.3403 -0.870781 13.0375 -0.900078Q12.7397 -0.929375 12.3393 -0.929375Q11.1577 -0.929375 10.5766 -0.148125Q10.0004 0.628242 10.0004 1.82941ZM16.5385 6.11164Q16.5385 8.68977 15.2299 9.93977Q13.9213 11.1898 11.1821 11.1898Q10.2202 11.1898 9.25824 11.0189Q8.30121 10.848 7.4809 10.5696L7.99847 8.06965Q8.7016 8.34797 9.4682 8.5091Q10.2397 8.67023 11.2211 8.67023Q12.5004 8.67023 13.0278 8.10871Q13.56 7.55207 13.56 6.66828L13.56 6.2923Q13.0815 6.51203 12.5688 6.62434Q12.061 6.73176 11.4604 6.73176Q9.27777 6.73176 8.11566 5.4427Q6.95844 4.14875 6.95844 1.82941Q6.95844 0.672187 7.31976 -0.279961Q7.68109 -1.23211 8.36957 -1.91082Q9.05804 -2.58953 10.059 -2.96063Q11.06 -3.33172 12.3198 -3.33172Q12.8618 -3.33172 13.4282 -3.27801Q13.9995 -3.22918 14.5561 -3.14617Q15.1176 -3.06805 15.6254 -2.95574Q16.1381 -2.84832 16.5385 -2.73113L16.5385 6.11164Z"/>
	<path fill="white" transform="translate(55 79.2857)" d="M-16.3384 7.43L-16.3384 -6.4323L-6.97807 -6.4323L-6.97807 -3.81023L-13.2183 -3.81023L-13.2183 -1.09051L-7.6812 -1.09051L-7.6812 1.46809L-13.2183 1.46809L-13.2183 4.80793L-6.51909 4.80793L-6.51909 7.43L-16.3384 7.43ZM-1.87956 1.82941Q-1.87956 4.32941 0.141922 4.32941Q0.600906 4.32941 1.0013 4.21223Q1.40169 4.09016 1.68001 3.92902L1.68001 -0.831719Q1.46028 -0.870781 1.15755 -0.900078Q0.859695 -0.929375 0.459305 -0.929375Q-0.722336 -0.929375 -1.30339 -0.148125Q-1.87956 0.628242 -1.87956 1.82941ZM4.65852 6.11164Q4.65852 8.68977 3.34993 9.93977Q2.04134 11.1898 -0.697922 11.1898Q-1.65984 11.1898 -2.62175 11.0189Q-3.57878 10.848 -4.39909 10.5696L-3.88152 8.06965Q-3.17839 8.34797 -2.41179 8.5091Q-1.6403 8.67023 -0.658859 8.67023Q0.620438 8.67023 1.14778 8.10871Q1.68001 7.55207 1.68001 6.66828L1.68001 6.2923Q1.20149 6.51203 0.688797 6.62434Q0.180984 6.73176 -0.419601 6.73176Q-2.60222 6.73176 -3.76433 5.4427Q-4.92155 4.14875 -4.92155 1.82941Q-4.92155 0.672187 -4.56023 -0.279961Q-4.1989 -1.23211 -3.51042 -1.91082Q-2.82195 -2.58953 -1.82097 -2.96063Q-0.819992 -3.33172 0.439774 -3.33172Q0.981766 -3.33172 1.54817 -3.27801Q2.11946 -3.22918 2.6761 -3.14617Q3.23763 -3.06805 3.74544 -2.95574Q4.25813 -2.84832 4.65852 -2.73113L4.65852 6.11164ZM10.0004 1.82941Q10.0004 4.32941 12.0219 4.32941Q12.4809 4.32941 12.8813 4.21223Q13.2817 4.09016 13.56 3.92902L13.56 -0.831719Q13.3403 -0.870781 13.0375 -0.900078Q12.7397 -0.929375 12.3393 -0.929375Q11.1577 -0.929375 10.5766 -0.148125Q10.0004 0.628242 10.0004 1.82941ZM16.5385 6.11164Q16.5385 8.68977 15.2299 9.93977Q13.9213 11.1898 11.1821 11.1898Q10.2202 11.1898 9.25824 11.0189Q8.30121 10.848 7.4809 10.5696L7.99847 8.06965Q8.7016 8.34797 9.4682 8.5091Q10.2397 8.67023 11.2211 8.67023Q12.5004 8.67023 13.0278 8.10871Q13.56 7.55207 13.56 6.66828L13.56 6.2923Q13.0815 6.51203 12.5688 6.62434Q12.061 6.73176 11.4604 6.73176Q9.27777 6.73176 8.11566 5.4427Q6.95844 4.14875 6.95844 1.82941Q6.95844 0.672187 7.31976 -0.279961Q7.68109 -1.23211 8.36957 -1.91082Q9.05804 -2.58953 10.059 -2.96063Q11.06 -3.33172 12.3198 -3.33172Q12.8618 -3.33172 13.4282 -3.27801Q13.9995 -3.22918 14.5561 -3.14617Q15.1176 -3.06805 15.6254 -2.95574Q16.1381 -2.84832 16.5385 -2.73113L16.5385 6.11164Z"/>
</svg>
