<svg xmlns="http://www.w3.org/2000/svg" width="110" height="110"><path fill="#fff" d="m34.525 34.925 12.533-9.945q.176-.14.365-.262.189-.121.389-.224t.408-.185q.21-.083.425-.144.216-.062.437-.102.22-.04.445-.059.224-.018.448-.014.225.003.448.03.223.025.442.072.22.048.434.116.214.069.42.158.206.09.402.199t.38.237q.186.128.357.273t.327.307q.156.161.296.337l22.733 28.647q.14.176.261.365.122.189.225.389.102.2.185.408.082.209.144.425t.102.437q.04.22.058.445.019.223.015.448t-.03.448-.073.442q-.047.22-.116.434-.068.213-.158.42-.089.206-.198.402t-.237.38-.273.357q-.145.17-.307.327-.161.156-.337.296l-12.533 9.946q-.176.14-.365.26-.189.123-.389.225t-.408.185-.425.144q-.216.062-.437.102-.22.04-.445.059-.224.018-.448.014-.225-.003-.448-.029t-.442-.073-.434-.116-.42-.158q-.206-.09-.402-.199t-.38-.237q-.186-.127-.357-.273-.171-.145-.327-.306-.156-.162-.296-.338L33.786 41.348q-.14-.176-.261-.365-.122-.188-.225-.388-.102-.2-.185-.409-.082-.209-.144-.425t-.102-.437q-.04-.22-.058-.444t-.015-.449.03-.447.073-.443q.047-.22.116-.433.068-.214.158-.42.089-.206.198-.403.11-.196.237-.38.128-.185.273-.356.145-.172.307-.328.161-.156.337-.296"/><path fill="#cfcfcf" d="m33.46 33.583 12.533-9.946q2.04-1.619 4.626-1.321t4.205 2.337l22.733 28.648q1.618 2.04 1.32 4.626-.297 2.586-2.337 4.205l-12.533 9.945q-2.04 1.619-4.626 1.321t-4.205-2.337L32.443 42.414q-1.618-2.04-1.32-4.627.297-2.586 2.337-4.204m2.13 2.685q-2.237 1.776-.461 4.014L57.862 68.93q1.776 2.238 4.014.462l12.533-9.946q2.238-1.776.462-4.014L52.138 26.784q-1.776-2.238-4.014-.462z"/><path fill="#777" d="M61.153 44.58 50.41 53.103q-.048.039-.1.072-.052.034-.107.062t-.112.05-.117.04-.12.028-.123.017-.123.004-.123-.009-.122-.02-.119-.032q-.059-.018-.115-.043t-.111-.055-.105-.065q-.05-.035-.098-.075-.047-.04-.09-.084t-.081-.093-.072-.1-.062-.107-.05-.112-.04-.117-.028-.12-.016-.123-.004-.123.008-.123.02-.122.032-.12.043-.115.055-.11.065-.105.075-.098.084-.09.093-.081L59.59 42.61q.048-.039.1-.072t.107-.062.112-.05.117-.04.12-.028.123-.016.123-.004q.062 0 .123.008.061.007.122.02.06.013.119.032t.115.043.111.055.105.065.098.075.09.084.081.093.072.1.062.107.05.113.04.117.028.12.016.122.004.123q0 .062-.008.123-.007.062-.02.122t-.032.12q-.019.058-.043.115-.025.056-.055.11t-.065.105-.075.098-.084.09-.093.081M50.198 34.452q-.097.077-.2.143-.104.067-.214.124t-.225.102-.234.079-.24.056-.245.032-.246.008-.246-.016-.244-.04-.238-.064-.231-.087-.221-.11-.21-.13-.196-.15-.18-.168q-.086-.09-.162-.186-.077-.097-.144-.2t-.123-.214-.102-.225-.08-.234q-.033-.118-.056-.24-.022-.121-.032-.244-.01-.124-.008-.247.002-.124.016-.246.015-.123.04-.244.027-.12.064-.238t.087-.231.11-.221.13-.21q.07-.101.15-.196.08-.094.169-.18t.185-.162.2-.144q.105-.067.215-.123.11-.057.224-.102.115-.046.234-.08.119-.033.24-.055.122-.023.245-.033t.246-.008.247.016.243.04q.12.027.238.065.118.037.231.086.114.05.222.11t.21.13q.1.07.195.15.094.08.18.169t.163.185.143.2q.067.105.124.215t.102.224q.045.115.079.234t.056.24.032.245.008.247-.016.246-.04.243-.064.239-.087.23-.11.222-.13.21q-.07.1-.15.195-.08.094-.168.18-.09.086-.186.163M48.72 47.297q-.097.077-.201.144t-.214.123-.224.102-.234.079-.24.056-.245.032-.247.008-.246-.016-.243-.04-.239-.064-.23-.087-.222-.109-.21-.13-.195-.15-.18-.17-.163-.185-.144-.2-.123-.214-.102-.225-.08-.233q-.033-.12-.055-.24-.022-.122-.032-.245t-.008-.247.016-.246.04-.244q.026-.12.064-.238t.087-.23q.049-.114.109-.222t.13-.21q.07-.101.15-.195.08-.095.17-.18.088-.086.185-.163.096-.077.2-.144t.214-.123.225-.102.233-.08q.12-.033.24-.055.122-.022.245-.033.123-.01.247-.008.123.002.246.017.123.014.244.04.12.026.238.064.117.037.23.087.114.049.222.109t.21.13q.101.07.195.15.095.08.18.169.086.089.163.185.077.097.144.201t.123.214.102.224.08.234q.033.119.055.24.022.122.033.245.01.123.008.247-.002.123-.017.246-.014.123-.04.243-.026.121-.064.239-.037.117-.087.23-.049.114-.109.222t-.13.21q-.07.1-.15.195-.08.094-.169.18t-.185.163M63.667 58.779q-.097.077-.2.144t-.214.123-.225.102-.234.08q-.118.033-.24.055-.121.022-.245.032-.123.01-.246.008-.124-.002-.246-.016-.123-.014-.244-.04-.12-.026-.238-.064t-.231-.087-.221-.109-.21-.13-.196-.15-.18-.17-.162-.185-.144-.2-.123-.214-.102-.225q-.046-.114-.08-.233-.033-.119-.056-.24-.022-.122-.032-.245t-.008-.247.016-.246.04-.243.064-.239.087-.23.11-.222.13-.21q.07-.101.15-.195t.169-.18.185-.163.2-.144q.105-.067.214-.123.11-.056.225-.102t.234-.08.24-.055.245-.032.246-.008.247.016.243.04.238.064.231.087.222.109.21.13q.1.07.195.15.094.08.18.17.086.088.163.185.076.096.143.2t.124.214.101.225q.046.114.08.233t.056.24q.022.122.032.245t.008.247-.016.246-.04.243-.064.239-.087.23-.11.222-.13.21q-.07.101-.15.195t-.168.18q-.09.086-.186.163M64.406 52.356q-.096.077-.2.144t-.214.124-.225.101-.233.08q-.12.034-.24.056-.122.022-.245.032t-.247.008-.246-.016-.244-.04q-.12-.027-.238-.064t-.23-.087q-.114-.05-.222-.11t-.21-.13q-.101-.07-.195-.15-.095-.08-.18-.169-.086-.088-.163-.185t-.144-.2q-.067-.105-.123-.214-.057-.11-.102-.225t-.08-.234q-.033-.119-.055-.24-.022-.122-.033-.245-.01-.123-.008-.246.002-.124.017-.247.014-.122.04-.243.026-.12.064-.238.037-.118.087-.231t.109-.222.13-.21q.07-.1.15-.195.08-.094.169-.18t.185-.163.201-.143.214-.124.224-.101.234-.08.24-.056.245-.032.247-.008.246.016.243.04.239.064.23.087q.114.05.222.11t.21.13q.101.07.195.15t.18.169.163.185.144.2.123.214.102.225.08.234q.033.118.055.24t.032.245.008.246-.016.246q-.014.123-.04.244-.026.12-.064.238t-.087.231-.109.221-.13.21q-.07.102-.15.196t-.17.18-.185.162M57.244 58.04q-.096.077-.2.143-.104.067-.214.124t-.225.102q-.114.045-.233.079t-.24.056q-.122.022-.245.032t-.247.008-.246-.016-.243-.04-.239-.064-.23-.087-.222-.11-.21-.13q-.101-.07-.195-.15t-.18-.168q-.086-.09-.163-.186-.077-.097-.144-.2t-.123-.214-.102-.225-.08-.234q-.033-.118-.055-.24-.022-.121-.032-.244-.01-.124-.008-.247.002-.124.016-.246.014-.123.04-.244.026-.12.064-.238t.087-.231.109-.221.13-.21.15-.196.17-.18.185-.162.2-.144.214-.123.225-.102q.115-.046.233-.08.12-.033.24-.055.122-.023.245-.033t.247-.008.246.016.243.04q.121.027.239.065.117.037.23.086.114.05.222.11t.21.13q.101.07.195.15t.18.169.163.185.144.2q.067.105.123.215.057.11.102.224.045.115.08.234.033.119.055.24.022.122.032.245t.008.247-.016.246-.04.243q-.026.12-.064.239-.038.117-.087.23-.049.114-.109.222t-.13.21q-.07.1-.15.195-.08.094-.169.18t-.186.163M62.928 65.202q-.097.076-.2.143-.105.067-.215.124t-.224.101q-.115.046-.234.08t-.24.056-.245.032-.246.008-.247-.016-.243-.04-.238-.064-.231-.087q-.114-.05-.222-.11t-.21-.13q-.1-.07-.195-.15-.094-.08-.18-.169-.086-.088-.163-.185-.076-.097-.143-.2t-.124-.214-.102-.225q-.045-.115-.079-.234-.034-.118-.056-.24t-.032-.245-.008-.246.016-.246q.014-.123.04-.244.026-.12.064-.238t.087-.231.11-.221.13-.21q.07-.102.15-.196t.168-.18q.09-.086.186-.162.097-.077.2-.144t.214-.124.225-.101.234-.08q.118-.034.24-.056.121-.022.245-.032.123-.01.246-.008.124.002.246.016.123.014.244.04.12.027.238.064t.231.087.221.11.21.13q.101.07.196.15.094.08.18.169.086.088.162.185t.144.2q.067.105.123.214.057.11.102.225.046.115.08.234.033.119.056.24.022.122.032.245t.008.246-.016.247-.04.243q-.027.12-.064.238t-.087.231q-.05.114-.11.222t-.13.21q-.07.1-.15.195-.08.094-.169.18t-.185.163M70.09 59.518q-.097.077-.201.144t-.214.123-.224.102-.234.08q-.119.033-.24.055-.122.023-.245.033t-.247.008-.246-.016-.243-.04q-.121-.027-.239-.065-.117-.037-.23-.086-.114-.05-.222-.11t-.21-.13q-.1-.07-.195-.15-.094-.08-.18-.169t-.163-.185-.144-.2q-.066-.105-.123-.215t-.102-.224q-.045-.115-.079-.234t-.056-.24-.032-.245-.008-.247.016-.246.04-.243.064-.238.087-.231.109-.222.13-.21q.07-.1.15-.195.08-.094.17-.18.088-.086.185-.163t.2-.143.214-.124.225-.102.233-.079.24-.056q.122-.022.245-.032t.247-.008.246.016.244.04q.12.026.238.064t.23.087q.114.05.222.11t.21.13q.101.07.195.15.095.08.18.168.086.09.163.186.077.097.144.2t.123.214.102.225.08.234q.033.118.055.24.022.121.033.244.01.124.008.247-.002.124-.017.246-.014.123-.04.244-.026.12-.064.238-.037.118-.087.231t-.109.221-.13.21q-.07.101-.15.196-.08.094-.169.18t-.185.162"/><path fill="none" stroke="#000" stroke-linejoin="round" stroke-width="2.4" d="M22.812 84.177q.22.02.508.029t.688.01q2.344 0 3.472-1.177 1.128-1.182 1.128-3.262 0-2.182-1.08-3.3-1.079-1.124-3.418-1.124-.322 0-.663.015-.337.01-.635.049zm9.018-4.4q0 1.797-.561 3.14-.557 1.338-1.587 2.222-1.03.878-2.515 1.318-1.48.44-3.315.44-.84 0-1.963-.074-1.118-.068-2.197-.288v-13.5q1.079-.201 2.246-.27 1.172-.068 2.011-.068 1.783 0 3.233.4t2.49 1.26 1.597 2.202q.561 1.338.561 3.218Zm12.24 1.66q0 1.24-.361 2.27-.361 1.026-1.04 1.759t-1.631 1.133q-.947.395-2.129.395-1.157 0-2.11-.395-.951-.4-1.63-1.133t-1.06-1.758q-.38-1.03-.38-2.27t.39-2.261q.39-1.02 1.08-1.739.693-.722 1.64-1.123.952-.4 2.07-.4 1.143 0 2.09.4.952.4 1.63 1.123.68.718 1.06 1.739.381 1.02.381 2.26Zm-3.042 0q0-1.381-.551-2.172-.547-.791-1.568-.791t-1.582.79q-.556.792-.556 2.173 0 1.377.556 2.188.562.81 1.582.81t1.568-.81q.551-.81.551-2.188Zm11.12-.302q0-1.44-.371-2.036-.367-.601-1.265-.601-.283 0-.586.03-.298.029-.576.068v8.12H46.37V76.555q.381-.098.889-.206.508-.112 1.08-.2.57-.092 1.171-.141.6-.054 1.177-.054 1.142 0 1.85.293.713.288 1.172.688.64-.459 1.47-.717.83-.264 1.528-.264 1.26 0 2.07.352.811.351 1.29.99.483.64.664 1.52.18.878.18 1.957v5.943H57.93v-5.581q0-1.44-.371-2.036-.366-.601-1.27-.601-.239 0-.669.122-.43.117-.708.298.137.459.176.972.044.507.044 1.084v5.742h-2.983zm14.442 5.58H63.61V76.199h2.979zm.278-13.559q0 .82-.532 1.29-.527.468-1.245.468-.723 0-1.255-.469-.527-.469-.527-1.289t.527-1.289q.532-.474 1.255-.474.718 0 1.245.474.532.469.532 1.29Zm2.523 3.399q.757-.22 1.958-.41 1.201-.191 2.52-.191 1.343 0 2.231.352.889.351 1.407.99.522.64.742 1.52.22.878.22 1.957v5.943H75.49v-5.581q0-1.44-.38-2.036-.382-.601-1.422-.601-.317 0-.678.03t-.64.068v8.12H69.39zm21.62 4.882q0 1.24-.362 2.27-.361 1.026-1.04 1.759t-1.631 1.133q-.947.395-2.129.395-1.157 0-2.11-.395-.951-.4-1.63-1.133t-1.06-1.758q-.38-1.03-.38-2.27t.39-2.261q.39-1.02 1.08-1.739.693-.722 1.64-1.123.952-.4 2.07-.4 1.143 0 2.09.4.952.4 1.63 1.123.68.718 1.06 1.739.381 1.02.381 2.26Zm-3.043 0q0-1.381-.552-2.172-.546-.791-1.567-.791t-1.582.79q-.557.792-.557 2.173 0 1.377.557 2.188.562.81 1.582.81t1.567-.81q.552-.81.552-2.188Z"/><path fill="#fff" d="M22.812 84.177q.22.02.508.029t.688.01q2.344 0 3.472-1.177 1.128-1.182 1.128-3.262 0-2.182-1.08-3.3-1.079-1.124-3.418-1.124-.322 0-.663.015-.337.01-.635.049zm9.018-4.4q0 1.797-.561 3.14-.557 1.338-1.587 2.222-1.03.878-2.515 1.318-1.48.44-3.315.44-.84 0-1.963-.074-1.118-.068-2.197-.288v-13.5q1.079-.201 2.246-.27 1.172-.068 2.011-.068 1.783 0 3.233.4t2.49 1.26 1.597 2.202q.561 1.338.561 3.218m12.24 1.66q0 1.24-.361 2.27-.361 1.026-1.04 1.759t-1.631 1.133q-.947.395-2.129.395-1.157 0-2.11-.395-.951-.4-1.63-1.133t-1.06-1.758q-.38-1.03-.38-2.27t.39-2.261q.39-1.02 1.08-1.739.693-.722 1.64-1.123.952-.4 2.07-.4 1.143 0 2.09.4.952.4 1.63 1.123.68.718 1.06 1.739.381 1.02.381 2.26m-3.042 0q0-1.381-.551-2.172-.547-.791-1.568-.791t-1.582.79q-.556.792-.556 2.173 0 1.377.556 2.188.562.81 1.582.81t1.568-.81q.551-.81.551-2.188m11.12-.302q0-1.44-.371-2.036-.367-.601-1.265-.601-.283 0-.586.03-.298.029-.576.068v8.12H46.37V76.555q.381-.098.889-.206.508-.112 1.08-.2.57-.092 1.171-.141.6-.054 1.177-.054 1.142 0 1.85.293.713.288 1.172.688.64-.459 1.47-.717.83-.264 1.528-.264 1.26 0 2.07.352.811.351 1.29.99.483.64.664 1.52.18.878.18 1.957v5.943H57.93v-5.581q0-1.44-.371-2.036-.366-.601-1.27-.601-.239 0-.669.122-.43.117-.708.298.137.459.176.972.044.507.044 1.084v5.742h-2.983zm14.442 5.58H63.61V76.199h2.979zm.278-13.559q0 .82-.532 1.29-.527.468-1.245.468-.723 0-1.255-.469-.527-.469-.527-1.289t.527-1.289q.532-.474 1.255-.474.718 0 1.245.474.532.469.532 1.29m2.523 3.399q.757-.22 1.958-.41 1.201-.191 2.52-.191 1.343 0 2.231.352.889.351 1.407.99.522.64.742 1.52.22.878.22 1.957v5.943H75.49v-5.581q0-1.44-.38-2.036-.382-.601-1.422-.601-.317 0-.678.03t-.64.068v8.12H69.39zm21.62 4.882q0 1.24-.362 2.27-.361 1.026-1.04 1.759t-1.631 1.133q-.947.395-2.129.395-1.157 0-2.11-.395-.951-.4-1.63-1.133t-1.06-1.758q-.38-1.03-.38-2.27t.39-2.261q.39-1.02 1.08-1.739.693-.722 1.64-1.123.952-.4 2.07-.4 1.143 0 2.09.4.952.4 1.63 1.123.68.718 1.06 1.739.381 1.02.381 2.26m-3.043 0q0-1.381-.552-2.172-.546-.791-1.567-.791t-1.582.79q-.557.792-.557 2.173 0 1.377.557 2.188.562.81 1.582.81t1.567-.81q.552-.81.552-2.188"/></svg>