<svg xmlns="http://www.w3.org/2000/svg" width="110" height="110"><clipPath id="a"><path d="M13.333 5h83.334Q105 5 105 13.333v83.334Q105 105 96.667 105H13.333Q5 105 5 96.667V13.333Q5 5 13.333 5"/></clipPath><g clip-path="url(#a)"><path fill="#7C7C7C" d="m85.625 55-2.331 11.72-6.639 9.935-9.935 6.639L55 85.625l-11.72-2.331-9.935-6.639-6.639-9.935L24.375 55l2.331-11.72 6.639-9.935 9.935-6.639L55 24.375l11.72 2.331 9.935 6.639 6.639 9.935z"/><path fill="#999" d="m84.167 55-2.22 11.162-6.323 9.462-9.462 6.323L55 84.167l-11.162-2.22-9.462-6.323-6.323-9.462L25.833 55l2.22-11.162 6.323-9.462 9.462-6.323L55 25.833l11.162 2.22 9.462 6.323 6.323 9.462z"/><path fill="none" stroke="#7C7C7C" stroke-linecap="round" stroke-linejoin="round" stroke-width="3.5" d="m84.167 55-2.22 11.162-6.323 9.462-9.462 6.323L55 84.167l-11.162-2.22-9.462-6.323-6.323-9.462L25.833 55l2.22-11.162 6.323-9.462 9.462-6.323L55 25.833l11.162 2.22 9.462 6.323 6.323 9.462z"/><path fill="#111" d="M50.333 49.167q0 .344-.017.686-.016.342-.05.68-.033.337-.083.666t-.116.646-.147.621-.177.59-.204.551-.23.51-.255.46-.276.41-.295.353q-.151.162-.31.294-.16.131-.324.231t-.333.167-.34.101-.343.034-.343-.034q-.17-.034-.34-.1-.168-.068-.333-.168-.164-.1-.323-.231-.159-.132-.31-.294-.152-.162-.295-.353t-.276-.41q-.133-.217-.255-.46-.121-.244-.23-.51-.11-.265-.205-.551t-.176-.59-.147-.62q-.066-.318-.116-.647-.05-.33-.083-.667-.034-.337-.05-.68-.018-.341-.018-.685t.017-.686q.017-.343.05-.68.034-.337.084-.666.05-.33.116-.647.066-.318.147-.621t.176-.59q.096-.285.205-.551t.23-.509.255-.461.276-.41.294-.353.31-.293q.16-.132.324-.232.165-.1.333-.167.17-.067.34-.1.171-.034.343-.034t.343.033.34.101.333.167.324.232.31.293.295.353.276.41.254.461.23.509q.11.266.205.552.096.286.177.589t.147.62q.066.319.116.648t.083.666.05.68q.017.342.017.686"/><clipPath id="b"><path d="M50.333 49.167q0 .172-.004.343t-.013.343q-.008.17-.02.34t-.03.34-.038.334q-.02.167-.045.332-.025.164-.054.326-.03.162-.062.32-.033.16-.07.315-.036.155-.077.306-.04.152-.085.3-.044.147-.092.29-.047.143-.098.28-.052.139-.106.271-.055.133-.112.26-.058.128-.119.25-.06.12-.124.236t-.13.225-.136.211-.14.198-.145.184q-.074.088-.15.17-.076.08-.153.154-.078.073-.157.139-.08.066-.16.123-.081.058-.164.108-.082.05-.165.092-.084.042-.168.075-.084.034-.17.059-.084.025-.17.042-.085.017-.17.025-.087.009-.173.009t-.171-.009-.172-.025-.17-.042q-.085-.025-.17-.059-.084-.033-.167-.075t-.166-.092-.163-.108-.16-.123-.157-.14q-.078-.073-.154-.154-.075-.08-.149-.17-.074-.088-.145-.183-.072-.096-.14-.198-.07-.102-.136-.211-.066-.11-.13-.225t-.124-.237-.119-.248q-.058-.128-.112-.26-.055-.133-.106-.271-.051-.139-.099-.281-.047-.143-.092-.29-.044-.148-.084-.3-.04-.151-.078-.306-.036-.156-.07-.315-.032-.158-.061-.32t-.054-.326-.046-.331-.037-.336q-.017-.168-.03-.338t-.02-.341q-.01-.171-.013-.343-.005-.171-.005-.343t.005-.344.012-.343q.009-.17.021-.34t.03-.339q.016-.169.037-.335.021-.167.046-.331.025-.165.054-.327.029-.161.062-.32t.07-.314q.036-.156.077-.307.04-.152.084-.3.044-.146.092-.29.048-.142.1-.28.05-.138.105-.271t.112-.26q.058-.128.118-.25.061-.12.125-.236t.13-.224q.066-.11.135-.212.07-.102.14-.198.072-.095.146-.183.074-.089.15-.17.075-.08.153-.154t.157-.14.16-.123.163-.108.166-.092.168-.075.169-.059.17-.042.172-.025.171-.008.172.008.171.025.17.042.17.06q.084.033.168.074.083.042.165.092.083.05.163.108.081.058.16.123.08.066.158.14.077.073.153.154t.15.17.145.183.14.198q.07.103.136.212t.13.224.124.237.119.249.112.26.106.27q.05.139.098.282t.092.29q.045.147.085.299.04.151.077.307.037.155.07.314t.062.32.054.327.045.33.038.336.03.339.02.34.013.343.004.344"/></clipPath><g clip-path="url(#b)"><path fill="#EEE" d="M44.594 49.594h7v7h-7z"/></g><path fill="none" stroke="#111" stroke-linecap="round" stroke-linejoin="round" stroke-width=".5" d="M3 0q0 .147-.014.294t-.044.291-.071.286q-.043.14-.1.277-.056.136-.125.266-.07.13-.152.253-.081.122-.175.236t-.198.218-.218.198-.236.175-.253.152q-.13.07-.266.126t-.277.099-.286.071q-.144.03-.29.044Q.146 3 0 3t-.294-.014q-.147-.015-.291-.044-.145-.028-.286-.071t-.277-.1-.266-.125-.253-.152-.236-.175q-.114-.093-.218-.198-.105-.104-.198-.218t-.175-.236-.152-.253-.126-.266-.098-.277-.071-.286-.044-.29Q-3 .146-3 0t.014-.294q.015-.147.044-.291.028-.145.071-.286t.1-.277.125-.266.152-.253.175-.236q.093-.114.198-.218.104-.105.218-.198t.236-.175.253-.152.266-.126.277-.099.286-.071q.144-.03.29-.044Q-.146-3 0-3t.294.014q.147.015.291.044.145.028.286.071t.277.1.266.125.253.152.236.175q.114.093.218.198.105.104.198.218t.175.236.152.253.126.266.099.277.071.286q.03.144.044.29Q3-.146 3 0" transform="matrix(1.16667 0 0 2.33333 46.833 49.167)"/><path fill="#111" d="M66.667 49.167q0 .344-.017.686t-.05.68-.084.666-.116.646-.147.621q-.08.304-.176.59t-.205.551-.23.51-.255.46q-.133.219-.276.41t-.294.353-.31.294-.324.231-.333.167q-.17.067-.34.101-.171.034-.343.034t-.343-.034-.34-.1-.333-.168-.324-.231-.31-.294-.295-.353-.276-.41-.254-.46-.23-.51q-.11-.265-.205-.551-.096-.286-.177-.59-.081-.303-.147-.62-.066-.318-.116-.647-.05-.33-.083-.667-.034-.337-.05-.68-.017-.341-.017-.685t.017-.686q.016-.343.05-.68.033-.337.083-.666.05-.33.116-.647.066-.318.147-.621t.177-.59q.095-.285.204-.551.11-.266.23-.509.122-.243.255-.461t.276-.41.295-.353.31-.293.324-.232.333-.167.34-.1.343-.034.343.033.34.101.333.167q.164.1.323.232.159.131.31.293.152.162.295.353t.276.41.255.461.23.509.205.552.176.589.147.62q.066.319.116.648t.083.666q.034.337.05.68.018.342.018.686"/><clipPath id="c"><path d="M66.667 49.167q0 .172-.005.343-.004.172-.012.343-.009.17-.021.34t-.03.34q-.016.168-.037.334-.021.167-.046.332-.025.164-.054.326t-.062.32q-.033.16-.07.315-.036.155-.077.306-.04.152-.084.3-.044.147-.092.29t-.1.28q-.05.139-.105.271-.054.133-.112.26-.058.128-.119.25-.06.12-.124.236-.063.116-.13.225-.066.109-.135.211-.07.102-.14.198-.072.095-.146.184-.074.088-.15.17-.075.08-.153.154-.078.073-.157.139-.08.066-.16.123-.081.058-.163.108-.083.05-.166.092t-.167.075-.17.059-.17.042-.172.025-.171.009-.172-.009-.171-.025-.17-.042q-.086-.025-.17-.059t-.168-.075-.165-.092q-.083-.05-.164-.108-.08-.057-.16-.123t-.157-.14q-.078-.073-.153-.154-.076-.08-.15-.17-.073-.088-.145-.183-.071-.096-.14-.198t-.136-.211-.13-.225-.124-.237-.119-.248-.112-.26-.106-.271q-.05-.139-.098-.281t-.092-.29q-.045-.148-.085-.3-.04-.151-.077-.306-.037-.156-.07-.315-.033-.158-.062-.32t-.054-.326-.045-.331q-.021-.167-.038-.336-.017-.168-.03-.338t-.02-.341-.013-.343q-.004-.171-.004-.343t.004-.344.013-.343q.008-.17.02-.34t.03-.339.038-.335.045-.331.054-.327q.03-.161.062-.32.033-.159.07-.314.036-.156.077-.307.04-.152.085-.3.044-.146.092-.29.047-.142.098-.28t.106-.271.112-.26q.058-.128.119-.25.06-.12.124-.236t.13-.224q.067-.11.136-.212t.14-.198q.072-.095.145-.183.074-.089.15-.17.075-.08.153-.154t.157-.14.16-.123.164-.108q.082-.05.165-.092.084-.041.168-.075t.17-.059q.084-.025.17-.042.085-.017.17-.025.087-.008.173-.008t.171.008.172.025.17.042q.085.026.17.06.084.033.167.074.083.042.166.092.082.05.163.108.08.058.16.123.08.066.157.14.078.073.154.154.075.081.149.17.074.088.145.183.072.096.14.198.07.103.136.212.067.109.13.224.064.115.124.237.061.121.119.249.058.127.112.26.055.133.106.27.051.139.099.282.047.143.092.29.044.147.084.299.04.151.078.307.036.155.07.314.032.159.061.32.029.162.054.327.025.164.046.33.02.167.037.336t.03.339.02.34q.01.172.013.343.005.172.005.344"/></clipPath><g clip-path="url(#c)"><path fill="#EEE" d="M60.928 49.594h7v7h-7z"/></g><path fill="none" stroke="#111" stroke-linecap="round" stroke-linejoin="round" stroke-width=".5" d="M3 0q0 .147-.014.294t-.044.291-.071.286q-.043.14-.1.277-.056.136-.125.266-.07.13-.152.253-.081.122-.175.236t-.198.218-.218.198-.236.175-.253.152q-.13.07-.266.126t-.277.099-.286.071q-.144.03-.29.044Q.146 3 0 3t-.294-.014q-.147-.015-.291-.044-.145-.028-.286-.071t-.277-.1-.266-.125-.253-.152-.236-.175q-.114-.093-.218-.198-.105-.104-.198-.218t-.175-.236-.152-.253-.126-.266-.098-.277-.071-.286-.044-.29Q-3 .146-3 0t.014-.294q.015-.147.044-.291.028-.145.071-.286t.1-.277.125-.266.152-.253.175-.236q.093-.114.198-.218.104-.105.218-.198t.236-.175.253-.152.266-.126.277-.099.286-.071q.144-.03.29-.044Q-.146-3 0-3t.294.014q.147.015.291.044.145.028.286.071t.277.1.266.125.253.152.236.175q.114.093.218.198.105.104.198.218t.175.236.152.253.126.266.099.277.071.286q.03.144.044.29Q3-.146 3 0" transform="matrix(1.16667 0 0 2.33333 63.167 49.167)"/><path fill="none" stroke="#111" stroke-linecap="round" stroke-linejoin="round" stroke-width="1.75" d="M48 66.667q7 2.916 14 0"/></g></svg>