<?xml version="1.0" encoding="utf-8" ?>
<svg xmlns="http://www.w3.org/2000/svg" xmlns:xlink="http://www.w3.org/1999/xlink" width="110" height="110">
	<path fill="#CFCFCF" transform="matrix(0.77186 1.2021 -1.2021 0.77186 55 47.8571)" d="M14.5 0Q14.5 0.355955 14.4825 0.711481Q14.4651 1.06701 14.4302 1.42125Q14.3953 1.77549 14.3431 2.12759Q14.2908 2.47969 14.2214 2.82881Q14.1519 3.17792 14.0655 3.52321Q13.979 3.8685 13.8756 4.20913Q13.7723 4.54976 13.6524 4.8849Q13.5325 5.22005 13.3963 5.54891Q13.26 5.87777 13.1078 6.19955Q12.9557 6.52133 12.7879 6.83525Q12.6201 7.14918 12.4371 7.45449Q12.2541 7.7598 12.0563 8.05577Q11.8586 8.35173 11.6465 8.63764Q11.4345 8.92354 11.2087 9.1987Q10.9828 9.47386 10.7438 9.7376Q10.5047 10.0013 10.253 10.253Q10.0013 10.5047 9.7376 10.7438Q9.47386 10.9828 9.1987 11.2087Q8.92354 11.4345 8.63764 11.6465Q8.35173 11.8586 8.05577 12.0563Q7.7598 12.2541 7.45449 12.4371Q7.14918 12.6201 6.83525 12.7879Q6.52133 12.9557 6.19955 13.1078Q5.87777 13.26 5.54891 13.3963Q5.22005 13.5325 4.8849 13.6524Q4.54976 13.7723 4.20913 13.8756Q3.8685 13.979 3.52321 14.0655Q3.17792 14.1519 2.82881 14.2214Q2.47969 14.2908 2.12759 14.3431Q1.77549 14.3953 1.42125 14.4302Q1.06701 14.4651 0.711481 14.4825Q0.355955 14.5 0 14.5Q-0.355955 14.5 -0.711481 14.4825Q-1.06701 14.4651 -1.42125 14.4302Q-1.77549 14.3953 -2.12759 14.3431Q-2.47969 14.2908 -2.82881 14.2214Q-3.17792 14.1519 -3.52321 14.0655Q-3.8685 13.979 -4.20913 13.8756Q-4.54976 13.7723 -4.8849 13.6524Q-5.22005 13.5325 -5.54891 13.3963Q-5.87777 13.26 -6.19955 13.1078Q-6.52133 12.9557 -6.83525 12.7879Q-7.14918 12.6201 -7.45449 12.4371Q-7.7598 12.2541 -8.05577 12.0563Q-8.35173 11.8586 -8.63764 11.6465Q-8.92354 11.4345 -9.1987 11.2087Q-9.47386 10.9828 -9.7376 10.7438Q-10.0013 10.5047 -10.253 10.253Q-10.5047 10.0013 -10.7438 9.7376Q-10.9828 9.47386 -11.2087 9.1987Q-11.4345 8.92354 -11.6465 8.63764Q-11.8586 8.35173 -12.0563 8.05577Q-12.2541 7.7598 -12.4371 7.45449Q-12.6201 7.14918 -12.7879 6.83525Q-12.9557 6.52133 -13.1078 6.19955Q-13.26 5.87777 -13.3963 5.54891Q-13.5325 5.22005 -13.6524 4.8849Q-13.7723 4.54976 -13.8756 4.20913Q-13.979 3.8685 -14.0655 3.52321Q-14.1519 3.17792 -14.2214 2.82881Q-14.2908 2.47969 -14.3431 2.12759Q-14.3953 1.77549 -14.4302 1.42125Q-14.4651 1.06701 -14.4825 0.711481Q-14.5 0.355955 -14.5 0Q-14.5 -0.355955 -14.4825 -0.711481Q-14.4651 -1.06701 -14.4302 -1.42125Q-14.3953 -1.77549 -14.3431 -2.12759Q-14.2908 -2.47969 -14.2214 -2.82881Q-14.1519 -3.17792 -14.0655 -3.52321Q-13.979 -3.8685 -13.8756 -4.20913Q-13.7723 -4.54976 -13.6524 -4.8849Q-13.5325 -5.22005 -13.3963 -5.54891Q-13.26 -5.87777 -13.1078 -6.19955Q-12.9557 -6.52133 -12.7879 -6.83525Q-12.6201 -7.14918 -12.4371 -7.45449Q-12.2541 -7.7598 -12.0563 -8.05577Q-11.8586 -8.35173 -11.6465 -8.63764Q-11.4345 -8.92354 -11.2087 -9.1987Q-10.9828 -9.47386 -10.7438 -9.7376Q-10.5047 -10.0013 -10.253 -10.253Q-10.0013 -10.5047 -9.7376 -10.7438Q-9.47386 -10.9828 -9.1987 -11.2087Q-8.92354 -11.4345 -8.63764 -11.6465Q-8.35173 -11.8586 -8.05577 -12.0563Q-7.7598 -12.2541 -7.45449 -12.4371Q-7.14918 -12.6201 -6.83525 -12.7879Q-6.52133 -12.9557 -6.19955 -13.1078Q-5.87777 -13.26 -5.54891 -13.3963Q-5.22005 -13.5325 -4.8849 -13.6524Q-4.54976 -13.7723 -4.20913 -13.8756Q-3.8685 -13.979 -3.52321 -14.0655Q-3.17792 -14.1519 -2.82881 -14.2214Q-2.47969 -14.2908 -2.12759 -14.3431Q-1.77549 -14.3953 -1.42125 -14.4302Q-1.06701 -14.4651 -0.711481 -14.4825Q-0.355955 -14.5 0 -14.5Q0.355955 -14.5 0.711481 -14.4825Q1.06701 -14.4651 1.42125 -14.4302Q1.77549 -14.3953 2.12759 -14.3431Q2.47969 -14.2908 2.82881 -14.2214Q3.17792 -14.1519 3.52321 -14.0655Q3.8685 -13.979 4.20913 -13.8756Q4.54976 -13.7723 4.8849 -13.6524Q5.22005 -13.5325 5.54891 -13.3963Q5.87777 -13.26 6.19955 -13.1078Q6.52133 -12.9557 6.83525 -12.7879Q7.14918 -12.6201 7.45449 -12.4371Q7.7598 -12.2541 8.05577 -12.0563Q8.35173 -11.8586 8.63764 -11.6465Q8.92354 -11.4345 9.1987 -11.2087Q9.47386 -10.9828 9.7376 -10.7438Q10.0013 -10.5047 10.253 -10.253Q10.5047 -10.0013 10.7438 -9.7376Q10.9828 -9.47386 11.2087 -9.1987Q11.4345 -8.92354 11.6465 -8.63764Q11.8586 -8.35173 12.0563 -8.05577Q12.2541 -7.7598 12.4371 -7.45449Q12.6201 -7.14918 12.7879 -6.83525Q12.9557 -6.52133 13.1078 -6.19955Q13.26 -5.87777 13.3963 -5.54891Q13.5325 -5.22005 13.6524 -4.8849Q13.7723 -4.54976 13.8756 -4.20913Q13.979 -3.8685 14.0655 -3.52321Q14.1519 -3.17792 14.2214 -2.82881Q14.2908 -2.47969 14.3431 -2.12759Q14.3953 -1.77549 14.4302 -1.42125Q14.4651 -1.06701 14.4825 -0.711481Q14.5 -0.355955 14.5 0"/>
	<path fill="white" transform="matrix(0.77186 1.2021 -1.2021 0.77186 55 47.8571)" d="M11.5 0Q11.5 0.282309 11.4861 0.564278Q11.4723 0.846247 11.4446 1.1272Q11.417 1.40815 11.3755 1.6874Q11.3341 1.96665 11.279 2.24354Q11.224 2.52042 11.1554 2.79427Q11.0868 3.06812 11.0048 3.33827Q10.9229 3.60843 10.8278 3.87423Q10.7326 4.14004 10.6246 4.40086Q10.5166 4.66168 10.3959 4.91688Q10.2752 5.17209 10.1421 5.42106Q10.009 5.67004 9.86388 5.91218Q9.71874 6.15433 9.5619 6.38906Q9.40506 6.62379 9.23689 6.85054Q9.06871 7.07729 8.88962 7.29552Q8.71052 7.51375 8.52094 7.72293Q8.33135 7.9321 8.13173 8.13173Q7.9321 8.33135 7.72293 8.52094Q7.51375 8.71052 7.29552 8.88962Q7.07729 9.06871 6.85054 9.23689Q6.62379 9.40506 6.38906 9.5619Q6.15433 9.71874 5.91218 9.86388Q5.67004 10.009 5.42106 10.1421Q5.17209 10.2752 4.91688 10.3959Q4.66168 10.5166 4.40086 10.6246Q4.14004 10.7326 3.87423 10.8278Q3.60843 10.9229 3.33827 11.0048Q3.06812 11.0868 2.79427 11.1554Q2.52042 11.224 2.24354 11.279Q1.96665 11.3341 1.6874 11.3755Q1.40815 11.417 1.1272 11.4446Q0.846247 11.4723 0.564278 11.4861Q0.282309 11.5 0 11.5Q-0.282309 11.5 -0.564278 11.4861Q-0.846247 11.4723 -1.1272 11.4446Q-1.40815 11.417 -1.6874 11.3755Q-1.96665 11.3341 -2.24354 11.279Q-2.52042 11.224 -2.79427 11.1554Q-3.06812 11.0868 -3.33827 11.0048Q-3.60843 10.9229 -3.87423 10.8278Q-4.14004 10.7326 -4.40086 10.6246Q-4.66168 10.5166 -4.91688 10.3959Q-5.17209 10.2752 -5.42106 10.1421Q-5.67004 10.009 -5.91218 9.86388Q-6.15433 9.71874 -6.38906 9.5619Q-6.62379 9.40506 -6.85054 9.23689Q-7.07729 9.06871 -7.29552 8.88962Q-7.51375 8.71052 -7.72293 8.52094Q-7.9321 8.33135 -8.13173 8.13173Q-8.33135 7.9321 -8.52094 7.72293Q-8.71052 7.51375 -8.88962 7.29552Q-9.06871 7.07729 -9.23689 6.85054Q-9.40506 6.62379 -9.5619 6.38906Q-9.71874 6.15433 -9.86388 5.91218Q-10.009 5.67004 -10.1421 5.42106Q-10.2752 5.17209 -10.3959 4.91688Q-10.5166 4.66168 -10.6246 4.40086Q-10.7326 4.14004 -10.8278 3.87423Q-10.9229 3.60843 -11.0048 3.33827Q-11.0868 3.06812 -11.1554 2.79427Q-11.224 2.52042 -11.279 2.24354Q-11.3341 1.96665 -11.3755 1.6874Q-11.417 1.40815 -11.4446 1.1272Q-11.4723 0.846247 -11.4861 0.564278Q-11.5 0.282309 -11.5 0Q-11.5 -0.282309 -11.4861 -0.564278Q-11.4723 -0.846247 -11.4446 -1.1272Q-11.417 -1.40815 -11.3755 -1.6874Q-11.3341 -1.96665 -11.279 -2.24354Q-11.224 -2.52042 -11.1554 -2.79427Q-11.0868 -3.06812 -11.0048 -3.33827Q-10.9229 -3.60843 -10.8278 -3.87423Q-10.7326 -4.14004 -10.6246 -4.40086Q-10.5166 -4.66168 -10.3959 -4.91688Q-10.2752 -5.17209 -10.1421 -5.42106Q-10.009 -5.67004 -9.86388 -5.91218Q-9.71874 -6.15433 -9.5619 -6.38906Q-9.40506 -6.62379 -9.23689 -6.85054Q-9.06871 -7.07729 -8.88962 -7.29552Q-8.71052 -7.51375 -8.52094 -7.72293Q-8.33135 -7.9321 -8.13173 -8.13173Q-7.9321 -8.33135 -7.72293 -8.52094Q-7.51375 -8.71052 -7.29552 -8.88962Q-7.07729 -9.06871 -6.85054 -9.23689Q-6.62379 -9.40506 -6.38906 -9.5619Q-6.15433 -9.71874 -5.91218 -9.86388Q-5.67004 -10.009 -5.42106 -10.1421Q-5.17209 -10.2752 -4.91688 -10.3959Q-4.66168 -10.5166 -4.40086 -10.6246Q-4.14004 -10.7326 -3.87423 -10.8278Q-3.60843 -10.9229 -3.33827 -11.0048Q-3.06812 -11.0868 -2.79427 -11.1554Q-2.52042 -11.224 -2.24354 -11.279Q-1.96665 -11.3341 -1.6874 -11.3755Q-1.40815 -11.417 -1.1272 -11.4446Q-0.846247 -11.4723 -0.564278 -11.4861Q-0.282309 -11.5 0 -11.5Q0.282309 -11.5 0.564278 -11.4861Q0.846247 -11.4723 1.1272 -11.4446Q1.40815 -11.417 1.6874 -11.3755Q1.96665 -11.3341 2.24354 -11.279Q2.52042 -11.224 2.79427 -11.1554Q3.06812 -11.0868 3.33827 -11.0048Q3.60843 -10.9229 3.87423 -10.8278Q4.14004 -10.7326 4.40086 -10.6246Q4.66168 -10.5166 4.91688 -10.3959Q5.17209 -10.2752 5.42106 -10.1421Q5.67004 -10.009 5.91218 -9.86388Q6.15433 -9.71874 6.38906 -9.5619Q6.62379 -9.40506 6.85054 -9.23689Q7.07729 -9.06871 7.29552 -8.88962Q7.51375 -8.71052 7.72293 -8.52094Q7.9321 -8.33135 8.13173 -8.13173Q8.33135 -7.9321 8.52094 -7.72293Q8.71052 -7.51375 8.88962 -7.29552Q9.06871 -7.07729 9.23689 -6.85054Q9.40506 -6.62379 9.5619 -6.38906Q9.71874 -6.15433 9.86388 -5.91218Q10.009 -5.67004 10.1421 -5.42106Q10.2752 -5.17209 10.3959 -4.91688Q10.5166 -4.66168 10.6246 -4.40086Q10.7326 -4.14004 10.8278 -3.87423Q10.9229 -3.60843 11.0048 -3.33827Q11.0868 -3.06812 11.1554 -2.79427Q11.224 -2.52042 11.279 -2.24354Q11.3341 -1.96665 11.3755 -1.6874Q11.417 -1.40815 11.4446 -1.1272Q11.4723 -0.846247 11.4861 -0.564278Q11.5 -0.282309 11.5 0"/>
	<path fill="#4772D0" transform="matrix(0.77186 1.2021 -1.2021 0.77186 55 47.8571)" d="M13 3L13 -3L10 -3L10 3L13 3ZM3.90192 12.7583L9.09808 9.75833L7.59808 7.16025L2.40192 10.1603L3.90192 12.7583ZM-9.09808 9.75833L-3.90192 12.7583L-2.40192 10.1603L-7.59808 7.16025L-9.09808 9.75833ZM-13 -3L-13 3L-10 3L-10 -3L-13 -3ZM-3.90192 -12.7583L-9.09808 -9.75833L-7.59808 -7.16026L-2.40192 -10.1603L-3.90192 -12.7583ZM9.09807 -9.75833L3.90192 -12.7583L2.40192 -10.1603L7.59807 -7.16025L9.09807 -9.75833ZM8.5 1.2L8.5 -1.2L7.5 -1.2L7.5 1.2L8.5 1.2ZM6.76122 5.28923L7.96122 3.21077L7.09519 2.71077L5.89519 4.78923L6.76122 5.28923ZM3.21077 7.96122L5.28923 6.76122L4.78923 5.89519L2.71077 7.09519L3.21077 7.96122ZM-1.2 8.5L1.2 8.5L1.2 7.5L-1.2 7.5L-1.2 8.5ZM-5.28923 6.76122L-3.21077 7.96122L-2.71077 7.09519L-4.78923 5.89519L-5.28923 6.76122ZM-7.96122 3.21077L-6.76122 5.28923L-5.89519 4.78923L-7.09519 2.71077L-7.96122 3.21077ZM-8.5 -1.2L-8.5 1.2L-7.5 1.2L-7.5 -1.2L-8.5 -1.2ZM-6.76122 -5.28923L-7.96122 -3.21077L-7.09519 -2.71077L-5.89519 -4.78923L-6.76122 -5.28923ZM-3.21077 -7.96122L-5.28923 -6.76122L-4.78923 -5.89519L-2.71077 -7.09519L-3.21077 -7.96122ZM1.2 -8.5L-1.2 -8.5L-1.2 -7.5L1.2 -7.5L1.2 -8.5ZM5.28923 -6.76122L3.21077 -7.96122L2.71077 -7.09519L4.78923 -5.89519L5.28923 -6.76122ZM7.96122 -3.21077L6.76122 -5.28923L5.89519 -4.78923L7.09519 -2.71077L7.96122 -3.21077Z"/>
	<path fill="none" stroke="black" stroke-width="2.3999999" stroke-linejoin="round" transform="translate(55 79.2857)" d="M-13.3801 7.70832Q-16.759 7.70832 -18.5314 5.82844Q-20.299 3.94855 -20.299 0.491523Q-20.299 -1.23211 -19.7619 -2.57977Q-19.2199 -3.9323 -18.2824 -4.86004Q-17.34 -5.78777 -16.0412 -6.26629Q-14.7424 -6.74969 -13.2189 -6.74969Q-12.34 -6.74969 -11.6222 -6.61785Q-10.8996 -6.4909 -10.3625 -6.32Q-9.82049 -6.1491 -9.45916 -5.96844Q-9.09783 -5.78777 -8.94158 -5.69012L-9.84002 -3.17059Q-10.4797 -3.51238 -11.3293 -3.75164Q-12.1789 -3.9909 -13.258 -3.9909Q-13.9806 -3.9909 -14.6691 -3.75164Q-15.3576 -3.51238 -15.8898 -2.98016Q-16.4221 -2.44793 -16.7443 -1.60809Q-17.0617 -0.768242 -17.0617 0.428047Q-17.0617 1.38996 -16.8517 2.22004Q-16.6418 3.05012 -16.173 3.6507Q-15.6994 4.25129 -14.9426 4.60285Q-14.1808 4.94953 -13.1017 4.94953Q-12.4181 4.94953 -11.881 4.87141Q-11.339 4.7884 -10.9191 4.68098Q-10.4992 4.56867 -10.1818 4.43195Q-9.85955 4.29035 -9.60076 4.16828L-8.74139 6.66828Q-9.40057 7.06867 -10.6017 7.39094Q-11.798 7.70832 -13.3801 7.70832ZM-6.93862 7.43L-6.93862 -7.60906L-3.96011 -8.08758L-3.96011 -3.04852Q-3.66225 -3.15105 -3.1935 -3.23895Q-2.71987 -3.33172 -2.28042 -3.33172Q-1.00112 -3.33172 -0.151512 -2.98016Q0.698097 -2.62859 1.20591 -1.98895Q1.71861 -1.3493 1.92857 -0.470391Q2.13853 0.408515 2.13853 1.48762L2.13853 7.43L-0.839989 7.43L-0.839989 1.84895Q-0.839989 0.408515 -1.21108 -0.187188Q-1.58218 -0.787774 -2.57827 -0.787774Q-2.97866 -0.787774 -3.33022 -0.719414Q-3.68179 -0.651055 -3.96011 -0.568047L-3.96011 7.43L-6.93862 7.43ZM7.81988 7.43L4.84136 7.43L4.84136 -3.08758L7.81988 -3.08758L7.81988 7.43ZM8.0982 -6.12957Q8.0982 -5.30926 7.56597 -4.84051Q7.03863 -4.37176 6.32085 -4.37176Q5.5982 -4.37176 5.06597 -4.84051Q4.53863 -5.30926 4.53863 -6.12957Q4.53863 -6.94988 5.06597 -7.41863Q5.5982 -7.89227 6.32085 -7.89227Q7.03863 -7.89227 7.56597 -7.41863Q8.0982 -6.94988 8.0982 -6.12957ZM17.3596 2.24934Q17.3596 0.872383 16.7395 0.0423045Q16.1194 -0.787774 14.8987 -0.787774Q14.4983 -0.787774 14.1565 -0.758477Q13.8196 -0.72918 13.5999 -0.690117L13.5999 4.69074Q13.8782 4.87141 14.3274 4.99348Q14.7815 5.11066 15.2405 5.11066Q17.3596 5.11066 17.3596 2.24934ZM20.4016 2.17121Q20.4016 3.39191 20.0989 4.39289Q19.801 5.38898 19.22 6.11164Q18.6389 6.82941 17.7796 7.2298Q16.9202 7.6302 15.802 7.6302Q15.1819 7.6302 14.6399 7.50812Q14.0979 7.39094 13.5999 7.17121L13.5999 11.1312L10.6214 11.1312L10.6214 -2.73113Q11.0218 -2.84832 11.5393 -2.95574Q12.0618 -3.06805 12.6282 -3.14617Q13.1995 -3.22918 13.7903 -3.27801Q14.3811 -3.33172 14.9182 -3.33172Q16.2219 -3.33172 17.2376 -2.94109Q18.2581 -2.55047 18.9563 -1.83758Q19.6594 -1.12957 20.0305 -0.109063Q20.4016 0.911445 20.4016 2.17121Z"/>
	<path fill="white" transform="translate(55 79.2857)" d="M-13.3801 7.70832Q-16.759 7.70832 -18.5314 5.82844Q-20.299 3.94855 -20.299 0.491523Q-20.299 -1.23211 -19.7619 -2.57977Q-19.2199 -3.9323 -18.2824 -4.86004Q-17.34 -5.78777 -16.0412 -6.26629Q-14.7424 -6.74969 -13.2189 -6.74969Q-12.34 -6.74969 -11.6222 -6.61785Q-10.8996 -6.4909 -10.3625 -6.32Q-9.82049 -6.1491 -9.45916 -5.96844Q-9.09783 -5.78777 -8.94158 -5.69012L-9.84002 -3.17059Q-10.4797 -3.51238 -11.3293 -3.75164Q-12.1789 -3.9909 -13.258 -3.9909Q-13.9806 -3.9909 -14.6691 -3.75164Q-15.3576 -3.51238 -15.8898 -2.98016Q-16.4221 -2.44793 -16.7443 -1.60809Q-17.0617 -0.768242 -17.0617 0.428047Q-17.0617 1.38996 -16.8517 2.22004Q-16.6418 3.05012 -16.173 3.6507Q-15.6994 4.25129 -14.9426 4.60285Q-14.1808 4.94953 -13.1017 4.94953Q-12.4181 4.94953 -11.881 4.87141Q-11.339 4.7884 -10.9191 4.68098Q-10.4992 4.56867 -10.1818 4.43195Q-9.85955 4.29035 -9.60076 4.16828L-8.74139 6.66828Q-9.40057 7.06867 -10.6017 7.39094Q-11.798 7.70832 -13.3801 7.70832ZM-6.93862 7.43L-6.93862 -7.60906L-3.96011 -8.08758L-3.96011 -3.04852Q-3.66225 -3.15105 -3.1935 -3.23895Q-2.71987 -3.33172 -2.28042 -3.33172Q-1.00112 -3.33172 -0.151512 -2.98016Q0.698097 -2.62859 1.20591 -1.98895Q1.71861 -1.3493 1.92857 -0.470391Q2.13853 0.408515 2.13853 1.48762L2.13853 7.43L-0.839989 7.43L-0.839989 1.84895Q-0.839989 0.408515 -1.21108 -0.187188Q-1.58218 -0.787774 -2.57827 -0.787774Q-2.97866 -0.787774 -3.33022 -0.719414Q-3.68179 -0.651055 -3.96011 -0.568047L-3.96011 7.43L-6.93862 7.43ZM7.81988 7.43L4.84136 7.43L4.84136 -3.08758L7.81988 -3.08758L7.81988 7.43ZM8.0982 -6.12957Q8.0982 -5.30926 7.56597 -4.84051Q7.03863 -4.37176 6.32085 -4.37176Q5.5982 -4.37176 5.06597 -4.84051Q4.53863 -5.30926 4.53863 -6.12957Q4.53863 -6.94988 5.06597 -7.41863Q5.5982 -7.89227 6.32085 -7.89227Q7.03863 -7.89227 7.56597 -7.41863Q8.0982 -6.94988 8.0982 -6.12957ZM17.3596 2.24934Q17.3596 0.872383 16.7395 0.0423045Q16.1194 -0.787774 14.8987 -0.787774Q14.4983 -0.787774 14.1565 -0.758477Q13.8196 -0.72918 13.5999 -0.690117L13.5999 4.69074Q13.8782 4.87141 14.3274 4.99348Q14.7815 5.11066 15.2405 5.11066Q17.3596 5.11066 17.3596 2.24934ZM20.4016 2.17121Q20.4016 3.39191 20.0989 4.39289Q19.801 5.38898 19.22 6.11164Q18.6389 6.82941 17.7796 7.2298Q16.9202 7.6302 15.802 7.6302Q15.1819 7.6302 14.6399 7.50812Q14.0979 7.39094 13.5999 7.17121L13.5999 11.1312L10.6214 11.1312L10.6214 -2.73113Q11.0218 -2.84832 11.5393 -2.95574Q12.0618 -3.06805 12.6282 -3.14617Q13.1995 -3.22918 13.7903 -3.27801Q14.3811 -3.33172 14.9182 -3.33172Q16.2219 -3.33172 17.2376 -2.94109Q18.2581 -2.55047 18.9563 -1.83758Q19.6594 -1.12957 20.0305 -0.109063Q20.4016 0.911445 20.4016 2.17121Z"/>
</svg>
