<?xml version="1.0" encoding="utf-8" ?>
<svg xmlns="http://www.w3.org/2000/svg" xmlns:xlink="http://www.w3.org/1999/xlink" width="110" height="110">
	<path fill="#777" transform="matrix(1.42857 0 0 1.42857 55 47.8571)" d="M12.1381 0L3.84143 12.3775L-11.3115 7.91693L-11.4612 -7.83682L4.5383 -13.8916L12.1381 0Z"/>
	<path fill="#606060" transform="matrix(1.42857 0 0 1.42857 55 47.8571)" d="M13.3841 0.835186L5.08741 13.2126Q5.02116 13.3115 4.94015 13.3986Q4.85915 13.4858 4.76541 13.5591Q4.67168 13.6324 4.56756 13.69Q4.46344 13.7476 4.35155 13.788Q4.23965 13.8285 4.12277 13.8508Q4.0059 13.8731 3.88696 13.8768Q3.76803 13.8804 3.65001 13.8652Q3.532 13.85 3.41785 13.8164L-11.7351 9.35588Q-11.85 9.32206 -11.9581 9.27042Q-12.0662 9.21879 -12.1647 9.15066Q-12.2633 9.08252 -12.3497 8.99962Q-12.4362 8.91671 -12.5084 8.82113Q-12.5806 8.72556 -12.6367 8.61973Q-12.6928 8.51391 -12.7315 8.40052Q-12.7701 8.28712 -12.7902 8.16904Q-12.8103 8.05096 -12.8115 7.93118L-12.9611 -7.82258Q-12.9622 -7.93703 -12.9459 -8.05032Q-12.9296 -8.16361 -12.8963 -8.27312Q-12.863 -8.38263 -12.8135 -8.48582Q-12.764 -8.58901 -12.6994 -8.68349Q-12.6348 -8.77797 -12.5566 -8.86155Q-12.4784 -8.94514 -12.3884 -9.01589Q-12.2985 -9.08665 -12.1988 -9.14293Q-12.0991 -9.19921 -11.9921 -9.23972L4.00739 -15.2945Q4.13328 -15.3422 4.26565 -15.3666Q4.39801 -15.3911 4.53262 -15.3916Q4.66723 -15.3921 4.79977 -15.3687Q4.93232 -15.3452 5.05857 -15.2985Q5.18482 -15.2518 5.30075 -15.1834Q5.41667 -15.115 5.51856 -15.027Q5.62044 -14.939 5.70504 -14.8343Q5.78964 -14.7296 5.85424 -14.6115L13.454 -0.719924Q13.5032 -0.630044 13.5397 -0.534313Q13.5762 -0.438583 13.5993 -0.338779Q13.6225 -0.238976 13.6318 -0.136953Q13.6412 -0.03493 13.6366 0.0674173Q13.632 0.169765 13.6135 0.270535Q13.595 0.371306 13.563 0.468628Q13.531 0.565951 13.4861 0.658018Q13.4411 0.750085 13.3841 0.835185L13.3841 0.835186ZM10.8921 -0.835186L12.1381 0L10.8221 0.719924L3.22235 -13.1717L4.5383 -13.8916L5.06921 -12.4887L-10.9303 -6.43392L-11.4612 -7.83682L-9.96124 -7.85107L-9.81161 7.90269L-11.3115 7.91693L-10.888 6.47798L4.26501 10.9385L3.84143 12.3775L2.59545 11.5423L10.8921 -0.835186Z"/>
	<path fill="none" stroke="black" stroke-width="2.3999999" stroke-linejoin="round" transform="translate(55 79.2857)" d="M-17.8708 -6.58855Q-14.7507 -6.58855 -13.0905 -5.48016Q-11.4304 -4.37176 -11.4304 -2.02801Q-11.4304 -0.568047 -12.0993 0.340156Q-12.7682 1.24836 -14.028 1.77082Q-13.6081 2.2884 -13.1491 2.96223Q-12.6901 3.63117 -12.2409 4.36359Q-11.7917 5.09113 -11.3718 5.88215Q-10.9518 6.66828 -10.5905 7.43L-14.0915 7.43Q-14.4724 6.75129 -14.863 6.05305Q-15.2487 5.34992 -15.6589 4.69074Q-16.069 4.03156 -16.4694 3.44074Q-16.8698 2.84992 -17.2702 2.37141L-18.8083 2.37141L-18.8083 7.43L-21.9284 7.43L-21.9284 -6.23211Q-20.9079 -6.4323 -19.819 -6.51043Q-18.7302 -6.58855 -17.8708 -6.58855ZM-17.6901 -3.9323Q-18.0319 -3.9323 -18.3005 -3.90789Q-18.569 -3.88836 -18.8083 -3.86883L-18.8083 -0.109063L-17.9294 -0.109063Q-16.1716 -0.109063 -15.4099 -0.548516Q-14.6481 -0.987969 -14.6481 -2.05242Q-14.6481 -3.06805 -15.4196 -3.49773Q-16.1911 -3.9323 -17.6901 -3.9323ZM1.05025 2.15168Q1.05025 3.39191 0.688919 4.42219Q0.327591 5.44758 -0.35112 6.18Q-1.02983 6.91242 -1.98198 7.31281Q-2.92924 7.70832 -4.11089 7.70832Q-5.26811 7.70832 -6.22026 7.31281Q-7.17241 6.91242 -7.85112 6.18Q-8.52983 5.44758 -8.91069 4.42219Q-9.29155 3.39191 -9.29155 2.15168Q-9.29155 0.911445 -8.90092 -0.109063Q-8.5103 -1.12957 -7.82182 -1.84734Q-7.12846 -2.57 -6.1812 -2.97039Q-5.22905 -3.37078 -4.11089 -3.37078Q-2.96831 -3.37078 -2.02104 -2.97039Q-1.06889 -2.57 -0.390182 -1.84734Q0.288528 -1.12957 0.669388 -0.109063Q1.05025 0.911445 1.05025 2.15168ZM-1.99174 2.15168Q-1.99174 0.769844 -2.5435 -0.021172Q-3.09038 -0.812188 -4.11089 -0.812188Q-5.13139 -0.812188 -5.69292 -0.021172Q-6.24956 0.769844 -6.24956 2.15168Q-6.24956 3.52863 -5.69292 4.33918Q-5.13139 5.14973 -4.11089 5.14973Q-3.09038 5.14973 -2.5435 4.33918Q-1.99174 3.52863 -1.99174 2.15168ZM2.84843 2.17121Q2.84843 1.02863 3.21953 0.0227733Q3.59062 -0.987969 4.28886 -1.73992Q4.99199 -2.49188 5.98808 -2.93133Q6.98906 -3.37078 8.26836 -3.37078Q9.1082 -3.37078 9.80644 -3.21941Q10.5096 -3.06805 11.1687 -2.78973L10.5486 -0.411797Q10.1287 -0.568047 9.62578 -0.690117Q9.12773 -0.812188 8.50761 -0.812188Q7.18925 -0.812188 6.53984 0.00812483Q5.89043 0.828437 5.89043 2.17121Q5.89043 3.59211 6.50078 4.37336Q7.11113 5.14973 8.62968 5.14973Q9.17168 5.14973 9.79179 5.05207Q10.4119 4.94953 10.9295 4.7298L11.3494 7.17121Q10.8318 7.39094 10.0506 7.54719Q9.26933 7.70832 8.33183 7.70832Q6.8914 7.70832 5.85136 7.27863Q4.81133 6.84895 4.1375 6.11164Q3.46855 5.36945 3.15605 4.35871Q2.84843 3.34797 2.84843 2.17121ZM16.3299 0.71125Q16.7693 0.227851 17.2381 -0.289727Q17.7117 -0.812188 18.1512 -1.32Q18.5906 -1.82781 18.9812 -2.2868Q19.3719 -2.75066 19.6502 -3.08758L23.1902 -3.08758Q22.1306 -1.87176 21.1199 -0.758477Q20.1092 0.349922 18.908 1.53156Q19.5086 2.06867 20.1482 2.82062Q20.7879 3.5677 21.3885 4.36848Q21.989 5.16926 22.4871 5.97004Q22.99 6.77082 23.3318 7.43L19.909 7.43Q19.5916 6.91242 19.1814 6.28254Q18.7713 5.64777 18.3074 5.01789Q17.8484 4.38801 17.3357 3.81184Q16.8279 3.23078 16.3299 2.83039L16.3299 7.43L13.3513 7.43L13.3513 -7.60906L16.3299 -8.08758L16.3299 0.71125Z"/>
	<path fill="white" transform="translate(55 79.2857)" d="M-17.8708 -6.58855Q-14.7507 -6.58855 -13.0905 -5.48016Q-11.4304 -4.37176 -11.4304 -2.02801Q-11.4304 -0.568047 -12.0993 0.340156Q-12.7682 1.24836 -14.028 1.77082Q-13.6081 2.2884 -13.1491 2.96223Q-12.6901 3.63117 -12.2409 4.36359Q-11.7917 5.09113 -11.3718 5.88215Q-10.9518 6.66828 -10.5905 7.43L-14.0915 7.43Q-14.4724 6.75129 -14.863 6.05305Q-15.2487 5.34992 -15.6589 4.69074Q-16.069 4.03156 -16.4694 3.44074Q-16.8698 2.84992 -17.2702 2.37141L-18.8083 2.37141L-18.8083 7.43L-21.9284 7.43L-21.9284 -6.23211Q-20.9079 -6.4323 -19.819 -6.51043Q-18.7302 -6.58855 -17.8708 -6.58855ZM-17.6901 -3.9323Q-18.0319 -3.9323 -18.3005 -3.90789Q-18.569 -3.88836 -18.8083 -3.86883L-18.8083 -0.109063L-17.9294 -0.109063Q-16.1716 -0.109063 -15.4099 -0.548516Q-14.6481 -0.987969 -14.6481 -2.05242Q-14.6481 -3.06805 -15.4196 -3.49773Q-16.1911 -3.9323 -17.6901 -3.9323ZM1.05025 2.15168Q1.05025 3.39191 0.688919 4.42219Q0.327591 5.44758 -0.35112 6.18Q-1.02983 6.91242 -1.98198 7.31281Q-2.92924 7.70832 -4.11089 7.70832Q-5.26811 7.70832 -6.22026 7.31281Q-7.17241 6.91242 -7.85112 6.18Q-8.52983 5.44758 -8.91069 4.42219Q-9.29155 3.39191 -9.29155 2.15168Q-9.29155 0.911445 -8.90092 -0.109063Q-8.5103 -1.12957 -7.82182 -1.84734Q-7.12846 -2.57 -6.1812 -2.97039Q-5.22905 -3.37078 -4.11089 -3.37078Q-2.96831 -3.37078 -2.02104 -2.97039Q-1.06889 -2.57 -0.390182 -1.84734Q0.288528 -1.12957 0.669388 -0.109063Q1.05025 0.911445 1.05025 2.15168ZM-1.99174 2.15168Q-1.99174 0.769844 -2.5435 -0.021172Q-3.09038 -0.812188 -4.11089 -0.812188Q-5.13139 -0.812188 -5.69292 -0.021172Q-6.24956 0.769844 -6.24956 2.15168Q-6.24956 3.52863 -5.69292 4.33918Q-5.13139 5.14973 -4.11089 5.14973Q-3.09038 5.14973 -2.5435 4.33918Q-1.99174 3.52863 -1.99174 2.15168ZM2.84843 2.17121Q2.84843 1.02863 3.21953 0.0227733Q3.59062 -0.987969 4.28886 -1.73992Q4.99199 -2.49188 5.98808 -2.93133Q6.98906 -3.37078 8.26836 -3.37078Q9.1082 -3.37078 9.80644 -3.21941Q10.5096 -3.06805 11.1687 -2.78973L10.5486 -0.411797Q10.1287 -0.568047 9.62578 -0.690117Q9.12773 -0.812188 8.50761 -0.812188Q7.18925 -0.812188 6.53984 0.00812483Q5.89043 0.828437 5.89043 2.17121Q5.89043 3.59211 6.50078 4.37336Q7.11113 5.14973 8.62968 5.14973Q9.17168 5.14973 9.79179 5.05207Q10.4119 4.94953 10.9295 4.7298L11.3494 7.17121Q10.8318 7.39094 10.0506 7.54719Q9.26933 7.70832 8.33183 7.70832Q6.8914 7.70832 5.85136 7.27863Q4.81133 6.84895 4.1375 6.11164Q3.46855 5.36945 3.15605 4.35871Q2.84843 3.34797 2.84843 2.17121ZM16.3299 0.71125Q16.7693 0.227851 17.2381 -0.289727Q17.7117 -0.812188 18.1512 -1.32Q18.5906 -1.82781 18.9812 -2.2868Q19.3719 -2.75066 19.6502 -3.08758L23.1902 -3.08758Q22.1306 -1.87176 21.1199 -0.758477Q20.1092 0.349922 18.908 1.53156Q19.5086 2.06867 20.1482 2.82062Q20.7879 3.5677 21.3885 4.36848Q21.989 5.16926 22.4871 5.97004Q22.99 6.77082 23.3318 7.43L19.909 7.43Q19.5916 6.91242 19.1814 6.28254Q18.7713 5.64777 18.3074 5.01789Q17.8484 4.38801 17.3357 3.81184Q16.8279 3.23078 16.3299 2.83039L16.3299 7.43L13.3513 7.43L13.3513 -7.60906L16.3299 -8.08758L16.3299 0.71125Z"/>
</svg>
