<?xml version="1.0" encoding="utf-8" ?>
<svg xmlns="http://www.w3.org/2000/svg" xmlns:xlink="http://www.w3.org/1999/xlink" width="110" height="110">
	<path fill="white" fill-opacity="0.69803923" transform="matrix(0.77186 1.2021 -1.2021 0.77186 55 47.8571)" d="M3.05931 13.6635L14.7817 1.75369Q14.8215 1.7133 14.8594 1.67114Q14.9415 1.5798 15.0142 1.48085Q15.087 1.38189 15.1497 1.27629Q15.2124 1.17068 15.2644 1.05944Q15.3165 0.948194 15.3574 0.832384Q15.3983 0.716575 15.4276 0.597315Q15.4569 0.478055 15.4745 0.356493Q15.492 0.234931 15.4975 0.112237Q15.503 -0.010456 15.4965 -0.133099Q15.4899 -0.255742 15.4714 -0.377153Q15.4529 -0.498565 15.4225 -0.617576Q15.3922 -0.736586 15.3503 -0.85205Q15.3085 -0.967514 15.2555 -1.07832Q15.2025 -1.18912 15.1389 -1.2942Q15.0754 -1.39928 15.0018 -1.49762Q14.9282 -1.59596 14.8453 -1.68662Q14.7625 -1.77728 14.6711 -1.85938L5.06493 -10.4931Q4.87759 -10.6615 4.66041 -10.7891Q4.44324 -10.9167 4.20497 -10.9985Q3.9667 -11.0802 3.71691 -11.1128Q3.46713 -11.1453 3.21587 -11.1274L-10.6951 -10.1349Q-11.2165 -10.0977 -11.6793 -9.8547Q-11.7881 -9.79761 -11.8907 -9.73014Q-11.9933 -9.66266 -12.0888 -9.58546Q-12.1843 -9.50825 -12.2718 -9.42205Q-12.3593 -9.33585 -12.4379 -9.2415Q-12.5165 -9.14714 -12.5855 -9.04553Q-12.6545 -8.94392 -12.7132 -8.83604Q-12.7719 -8.72816 -12.8198 -8.61504Q-12.8676 -8.50192 -12.9041 -8.38466Q-12.9406 -8.2674 -12.9655 -8.14713Q-12.9903 -8.02685 -13.0033 -7.90472Q-13.0162 -7.78259 -13.0171 -7.65977Q-13.0181 -7.53696 -13.0069 -7.41465Q-12.9958 -7.29233 -12.9727 -7.1717Q-12.9497 -7.05107 -12.9149 -6.93328Q-12.8801 -6.81549 -12.834 -6.70168Q-12.7878 -6.58786 -12.7307 -6.47912L-6.4388 5.5054Q-6.35421 5.66655 -6.24716 5.81374L-0.744265 13.3803Q-0.623022 13.547 -0.476111 13.6916Q-0.38858 13.7777 -0.293026 13.8549Q-0.197472 13.9321 -0.0948158 13.9995Q0.00784081 14.0669 0.116612 14.1239Q0.225382 14.181 0.33922 14.2271Q0.453057 14.2732 0.570865 14.3079Q0.688673 14.3426 0.809316 14.3656Q0.92996 14.3886 1.05228 14.3997Q1.17459 14.4107 1.29741 14.4098Q1.42022 14.4088 1.54235 14.3958Q1.66447 14.3828 1.78474 14.3579Q1.905 14.333 2.02224 14.2964Q2.13948 14.2598 2.25258 14.2119Q2.36567 14.164 2.47352 14.1052Q2.58137 14.0465 2.68295 13.9774Q2.78452 13.9084 2.87884 13.8297Q2.97316 13.7511 3.05931 13.6635ZM11.1387 -1.67286L3.39379 -8.63374L-7.79558 -7.8354L-10.5172 -7.64121L-9.24889 -5.22535L-4.22531 4.34331L-0.212972 9.86032L1.27758 11.9099L3.05528 10.1037L11.2445 1.78356L13 0L11.1387 -1.67286Z" fill-rule="evenodd"/>
	<path fill="white" fill-opacity="0.48627451" transform="matrix(0.77186 1.2021 -1.2021 0.77186 55 47.8571)" d="M13 0L1.27758 11.9099L-4.22531 4.34331L-10.5172 -7.64121L3.39379 -8.63374L13 0Z"/>
	<path fill="none" stroke="black" stroke-width="2.3999999" stroke-linejoin="round" transform="translate(55 79.2857)" d="M-17.0506 -4.02996Q-19.2283 -4.02996 -20.2 -2.81902Q-21.1717 -1.60809 -21.1717 0.491523Q-21.1717 1.51203 -20.9324 2.34211Q-20.6883 3.17219 -20.2098 3.77277Q-19.7313 4.36848 -19.0135 4.70051Q-18.2908 5.02766 -17.3289 5.02766Q-16.8113 5.02766 -16.4403 5.00812Q-16.0692 4.98859 -15.7908 4.93L-15.7908 0.110664L-12.6707 0.110664L-12.6707 6.97102Q-13.2322 7.19074 -14.4725 7.43977Q-15.7078 7.68879 -17.5291 7.68879Q-19.0916 7.68879 -20.3612 7.21027Q-21.6307 6.73176 -22.5291 5.81379Q-23.4276 4.89094 -23.9207 3.55305Q-24.409 2.21027 -24.409 0.491523Q-24.409 -1.25164 -23.8719 -2.58953Q-23.3299 -3.9323 -22.3924 -4.86004Q-21.45 -5.78777 -20.1805 -6.26629Q-18.911 -6.74969 -17.4705 -6.74969Q-16.4891 -6.74969 -15.7029 -6.61785Q-14.9119 -6.4909 -14.3406 -6.32Q-13.7694 -6.1491 -13.4031 -5.96844Q-13.0321 -5.78777 -12.8709 -5.69012L-13.7694 -3.19012Q-14.409 -3.53191 -15.2391 -3.78094Q-16.0692 -4.02996 -17.0506 -4.02996ZM-5.7694 7.6302Q-7.06823 7.61066 -7.87878 7.35187Q-8.68932 7.0882 -9.16296 6.61945Q-9.63171 6.1507 -9.8026 5.48176Q-9.96862 4.80793 -9.96862 3.96809L-9.96862 -7.60906L-6.9901 -8.08758L-6.9901 3.37238Q-6.9901 3.76789 -6.93151 4.09016Q-6.86803 4.41242 -6.70202 4.63215Q-6.53112 4.85187 -6.21374 4.99348Q-5.89147 5.1302 -5.34948 5.16926L-5.7694 7.6302ZM0.369926 5.34992Q0.80938 5.34992 1.20977 5.33039Q1.61016 5.31086 1.84942 5.2718L1.84942 3.01105Q1.66875 2.97199 1.30743 2.93293Q0.950981 2.88898 0.648247 2.88898Q0.228325 2.88898 -0.142769 2.9427Q-0.50898 2.99152 -0.792183 3.13312Q-1.0705 3.26984 -1.23164 3.5091Q-1.38789 3.74836 -1.38789 4.10969Q-1.38789 4.80793 -0.919136 5.08137Q-0.450386 5.34992 0.369926 5.34992ZM0.130669 -3.37078Q1.44903 -3.37078 2.32793 -3.06805Q3.21172 -2.7702 3.73907 -2.20867Q4.27129 -1.65203 4.49102 -0.85125Q4.71075 -0.0504689 4.71075 0.930976L4.71075 7.13215Q4.0711 7.26887 2.92852 7.4593Q1.79082 7.64973 0.169731 7.64973Q-0.850777 7.64973 -1.68085 7.46906Q-2.51093 7.2884 -3.11152 6.87824Q-3.7121 6.46809 -4.03437 5.80891Q-4.35175 5.14973 -4.35175 4.18781Q-4.35175 3.26984 -3.98066 2.6302Q-3.60957 1.99055 -2.98945 1.60969Q-2.36933 1.22883 -1.56855 1.06281Q-0.767769 0.891914 0.0916061 0.891914Q0.667778 0.891914 1.117 0.940742Q1.5711 0.98957 1.84942 1.0677L1.84942 0.789375Q1.84942 0.0276561 1.39043 -0.431328Q0.93145 -0.890313 -0.211128 -0.890313Q-0.967964 -0.890313 -1.71015 -0.778008Q-2.45234 -0.670586 -2.98945 -0.470391L-3.37031 -2.86785Q-3.11152 -2.95086 -2.72089 -3.03875Q-2.33027 -3.13152 -1.87128 -3.19988Q-1.4123 -3.26824 -0.904488 -3.31707Q-0.391792 -3.37078 0.130669 -3.37078ZM10.4289 5.29133Q11.2492 5.29133 11.5862 5.1302Q11.928 4.96906 11.928 4.51008Q11.928 4.14875 11.4885 3.8802Q11.049 3.61164 10.1506 3.26984Q9.45237 3.01105 8.88108 2.73273Q8.30979 2.44953 7.9094 2.05891Q7.50901 1.66828 7.28928 1.13117Q7.06956 0.58918 7.06956 -0.167656Q7.06956 -1.65203 8.16819 -2.51141Q9.27171 -3.37078 11.1907 -3.37078Q12.1477 -3.37078 13.0266 -3.19988Q13.9104 -3.02898 14.428 -2.82879L13.9104 -0.509453Q13.3879 -0.690117 12.7776 -0.826836Q12.1721 -0.968438 11.4104 -0.968438Q10.009 -0.968438 10.009 -0.19207Q10.009 -0.0114064 10.0676 0.130195Q10.1311 0.271797 10.3117 0.403633Q10.4924 0.530586 10.8 0.681953Q11.1076 0.828437 11.591 1.0091Q12.5676 1.37043 13.2073 1.72199Q13.8518 2.06867 14.218 2.47883Q14.5891 2.88898 14.7405 3.39191Q14.8918 3.88996 14.8918 4.54914Q14.8918 6.11164 13.7199 6.91242Q12.5481 7.70832 10.4094 7.70832Q9.00803 7.70832 8.07542 7.46906Q7.14768 7.2298 6.79124 7.06867L7.28928 4.65168Q8.051 4.94953 8.8469 5.12043Q9.64768 5.29133 10.4289 5.29133ZM20.1289 5.29133Q20.9492 5.29133 21.2862 5.1302Q21.628 4.96906 21.628 4.51008Q21.628 4.14875 21.1885 3.8802Q20.749 3.61164 19.8506 3.26984Q19.1524 3.01105 18.5811 2.73273Q18.0098 2.44953 17.6094 2.05891Q17.209 1.66828 16.9893 1.13117Q16.7696 0.58918 16.7696 -0.167656Q16.7696 -1.65203 17.8682 -2.51141Q18.9717 -3.37078 20.8906 -3.37078Q21.8477 -3.37078 22.7266 -3.19988Q23.6104 -3.02898 24.128 -2.82879L23.6104 -0.509453Q23.0879 -0.690117 22.4776 -0.826836Q21.8721 -0.968438 21.1104 -0.968438Q19.709 -0.968438 19.709 -0.19207Q19.709 -0.0114064 19.7676 0.130195Q19.8311 0.271797 20.0117 0.403633Q20.1924 0.530586 20.5 0.681953Q20.8076 0.828437 21.291 1.0091Q22.2676 1.37043 22.9072 1.72199Q23.5518 2.06867 23.918 2.47883Q24.2891 2.88898 24.4405 3.39191Q24.5918 3.88996 24.5918 4.54914Q24.5918 6.11164 23.4199 6.91242Q22.2481 7.70832 20.1094 7.70832Q18.708 7.70832 17.7754 7.46906Q16.8477 7.2298 16.4912 7.06867L16.9893 4.65168Q17.751 4.94953 18.5469 5.12043Q19.3477 5.29133 20.1289 5.29133Z"/>
	<path fill="white" transform="translate(55 79.2857)" d="M-17.0506 -4.02996Q-19.2283 -4.02996 -20.2 -2.81902Q-21.1717 -1.60809 -21.1717 0.491523Q-21.1717 1.51203 -20.9324 2.34211Q-20.6883 3.17219 -20.2098 3.77277Q-19.7313 4.36848 -19.0135 4.70051Q-18.2908 5.02766 -17.3289 5.02766Q-16.8113 5.02766 -16.4403 5.00812Q-16.0692 4.98859 -15.7908 4.93L-15.7908 0.110664L-12.6707 0.110664L-12.6707 6.97102Q-13.2322 7.19074 -14.4725 7.43977Q-15.7078 7.68879 -17.5291 7.68879Q-19.0916 7.68879 -20.3612 7.21027Q-21.6307 6.73176 -22.5291 5.81379Q-23.4276 4.89094 -23.9207 3.55305Q-24.409 2.21027 -24.409 0.491523Q-24.409 -1.25164 -23.8719 -2.58953Q-23.3299 -3.9323 -22.3924 -4.86004Q-21.45 -5.78777 -20.1805 -6.26629Q-18.911 -6.74969 -17.4705 -6.74969Q-16.4891 -6.74969 -15.7029 -6.61785Q-14.9119 -6.4909 -14.3406 -6.32Q-13.7694 -6.1491 -13.4031 -5.96844Q-13.0321 -5.78777 -12.8709 -5.69012L-13.7694 -3.19012Q-14.409 -3.53191 -15.2391 -3.78094Q-16.0692 -4.02996 -17.0506 -4.02996ZM-5.7694 7.6302Q-7.06823 7.61066 -7.87878 7.35187Q-8.68932 7.0882 -9.16296 6.61945Q-9.63171 6.1507 -9.8026 5.48176Q-9.96862 4.80793 -9.96862 3.96809L-9.96862 -7.60906L-6.9901 -8.08758L-6.9901 3.37238Q-6.9901 3.76789 -6.93151 4.09016Q-6.86803 4.41242 -6.70202 4.63215Q-6.53112 4.85187 -6.21374 4.99348Q-5.89147 5.1302 -5.34948 5.16926L-5.7694 7.6302ZM0.369926 5.34992Q0.80938 5.34992 1.20977 5.33039Q1.61016 5.31086 1.84942 5.2718L1.84942 3.01105Q1.66875 2.97199 1.30743 2.93293Q0.950981 2.88898 0.648247 2.88898Q0.228325 2.88898 -0.142769 2.9427Q-0.50898 2.99152 -0.792183 3.13312Q-1.0705 3.26984 -1.23164 3.5091Q-1.38789 3.74836 -1.38789 4.10969Q-1.38789 4.80793 -0.919136 5.08137Q-0.450386 5.34992 0.369926 5.34992ZM0.130669 -3.37078Q1.44903 -3.37078 2.32793 -3.06805Q3.21172 -2.7702 3.73907 -2.20867Q4.27129 -1.65203 4.49102 -0.85125Q4.71075 -0.0504689 4.71075 0.930976L4.71075 7.13215Q4.0711 7.26887 2.92852 7.4593Q1.79082 7.64973 0.169731 7.64973Q-0.850777 7.64973 -1.68085 7.46906Q-2.51093 7.2884 -3.11152 6.87824Q-3.7121 6.46809 -4.03437 5.80891Q-4.35175 5.14973 -4.35175 4.18781Q-4.35175 3.26984 -3.98066 2.6302Q-3.60957 1.99055 -2.98945 1.60969Q-2.36933 1.22883 -1.56855 1.06281Q-0.767769 0.891914 0.0916061 0.891914Q0.667778 0.891914 1.117 0.940742Q1.5711 0.98957 1.84942 1.0677L1.84942 0.789375Q1.84942 0.0276561 1.39043 -0.431328Q0.93145 -0.890313 -0.211128 -0.890313Q-0.967964 -0.890313 -1.71015 -0.778008Q-2.45234 -0.670586 -2.98945 -0.470391L-3.37031 -2.86785Q-3.11152 -2.95086 -2.72089 -3.03875Q-2.33027 -3.13152 -1.87128 -3.19988Q-1.4123 -3.26824 -0.904488 -3.31707Q-0.391792 -3.37078 0.130669 -3.37078ZM10.4289 5.29133Q11.2492 5.29133 11.5862 5.1302Q11.928 4.96906 11.928 4.51008Q11.928 4.14875 11.4885 3.8802Q11.049 3.61164 10.1506 3.26984Q9.45237 3.01105 8.88108 2.73273Q8.30979 2.44953 7.9094 2.05891Q7.50901 1.66828 7.28928 1.13117Q7.06956 0.58918 7.06956 -0.167656Q7.06956 -1.65203 8.16819 -2.51141Q9.27171 -3.37078 11.1907 -3.37078Q12.1477 -3.37078 13.0266 -3.19988Q13.9104 -3.02898 14.428 -2.82879L13.9104 -0.509453Q13.3879 -0.690117 12.7776 -0.826836Q12.1721 -0.968438 11.4104 -0.968438Q10.009 -0.968438 10.009 -0.19207Q10.009 -0.0114064 10.0676 0.130195Q10.1311 0.271797 10.3117 0.403633Q10.4924 0.530586 10.8 0.681953Q11.1076 0.828437 11.591 1.0091Q12.5676 1.37043 13.2073 1.72199Q13.8518 2.06867 14.218 2.47883Q14.5891 2.88898 14.7405 3.39191Q14.8918 3.88996 14.8918 4.54914Q14.8918 6.11164 13.7199 6.91242Q12.5481 7.70832 10.4094 7.70832Q9.00803 7.70832 8.07542 7.46906Q7.14768 7.2298 6.79124 7.06867L7.28928 4.65168Q8.051 4.94953 8.8469 5.12043Q9.64768 5.29133 10.4289 5.29133ZM20.1289 5.29133Q20.9492 5.29133 21.2862 5.1302Q21.628 4.96906 21.628 4.51008Q21.628 4.14875 21.1885 3.8802Q20.749 3.61164 19.8506 3.26984Q19.1524 3.01105 18.5811 2.73273Q18.0098 2.44953 17.6094 2.05891Q17.209 1.66828 16.9893 1.13117Q16.7696 0.58918 16.7696 -0.167656Q16.7696 -1.65203 17.8682 -2.51141Q18.9717 -3.37078 20.8906 -3.37078Q21.8477 -3.37078 22.7266 -3.19988Q23.6104 -3.02898 24.128 -2.82879L23.6104 -0.509453Q23.0879 -0.690117 22.4776 -0.826836Q21.8721 -0.968438 21.1104 -0.968438Q19.709 -0.968438 19.709 -0.19207Q19.709 -0.0114064 19.7676 0.130195Q19.8311 0.271797 20.0117 0.403633Q20.1924 0.530586 20.5 0.681953Q20.8076 0.828437 21.291 1.0091Q22.2676 1.37043 22.9072 1.72199Q23.5518 2.06867 23.918 2.47883Q24.2891 2.88898 24.4405 3.39191Q24.5918 3.88996 24.5918 4.54914Q24.5918 6.11164 23.4199 6.91242Q22.2481 7.70832 20.1094 7.70832Q18.708 7.70832 17.7754 7.46906Q16.8477 7.2298 16.4912 7.06867L16.9893 4.65168Q17.751 4.94953 18.5469 5.12043Q19.3477 5.29133 20.1289 5.29133Z"/>
</svg>
