<?xml version="1.0" encoding="utf-8" ?>
<svg xmlns="http://www.w3.org/2000/svg" xmlns:xlink="http://www.w3.org/1999/xlink" width="110" height="110">
	<path fill="#FF94C9" transform="matrix(0.77186 -1.2021 1.2021 0.77186 55 47.8571)" d="M10 0L5 8.66025L-5 8.66025L-10 -8.74228e-07L-5 -8.66025L5 -8.66025L10 0Z"/>
	<path fill="#CF78A3" transform="matrix(0.77186 -1.2021 1.2021 0.77186 55 47.8571)" d="M11.299 0.75L6.29904 9.41025Q6.2003 9.58128 6.06066 9.72092Q5.92102 9.86055 5.75 9.95929Q5.57898 10.058 5.38823 10.1091Q5.19748 10.1603 5 10.1603L-5 10.1603Q-5.19748 10.1603 -5.38823 10.1091Q-5.57898 10.058 -5.75 9.95929Q-5.92102 9.86055 -6.06066 9.72091Q-6.2003 9.58128 -6.29904 9.41025L-11.299 0.749999Q-11.3978 0.578977 -11.4489 0.388228Q-11.5 0.197478 -11.5 -1.07288e-06Q-11.5 -0.19748 -11.4489 -0.38823Q-11.3978 -0.57898 -11.299 -0.750001L-6.29904 -9.41025Q-6.2003 -9.58128 -6.06066 -9.72092Q-5.92102 -9.86055 -5.75 -9.95929Q-5.57898 -10.058 -5.38823 -10.1091Q-5.19748 -10.1603 -5 -10.1603L5 -10.1603Q5.19748 -10.1603 5.38823 -10.1091Q5.57898 -10.058 5.75 -9.95929Q5.92102 -9.86055 6.06066 -9.72092Q6.2003 -9.58128 6.29904 -9.41025L11.299 -0.75Q11.3978 -0.578979 11.4489 -0.388229Q11.5 -0.197479 11.5 -1.04308e-07Q11.5 0.197479 11.4489 0.388229Q11.3978 0.578978 11.299 0.75ZM8.70096 -0.75L10 0L8.70096 0.75L3.70096 -7.91025L5 -8.66025L5 -7.16025L-5 -7.16025L-5 -8.66025L-3.70096 -7.91025L-8.70096 0.749999L-10 -8.74228e-07L-8.70096 -0.750001L-3.70096 7.91025L-5 8.66025L-5 7.16025L5 7.16025L5 8.66025L3.70096 7.91025L8.70096 -0.75Z"/>
	<path fill="#CF78A3" transform="matrix(0.77186 -1.2021 1.2021 0.77186 55 47.8571)" d="M4 0L1.23607 3.80423L-3.23607 2.35114L-3.23607 -2.35114L1.23607 -3.80423L4 0Z"/>
	<path fill="#CF78A3" transform="matrix(0.77186 -1.2021 1.2021 0.77186 55 47.8571)" d="M5.21353 0.881678L2.44959 4.6859Q2.3802 4.78141 2.29673 4.86489Q2.21325 4.94836 2.11775 5.01775Q2.02224 5.08714 1.91705 5.14074Q1.81187 5.19433 1.69959 5.23081Q1.58732 5.26729 1.47072 5.28576Q1.35412 5.30423 1.23607 5.30423Q1.11802 5.30423 1.00142 5.28576Q0.884817 5.26729 0.772542 5.23081L-3.69959 3.77773Q-3.81187 3.74125 -3.91705 3.68765Q-4.02224 3.63406 -4.11775 3.56467Q-4.21325 3.49528 -4.29673 3.4118Q-4.3802 3.32833 -4.44959 3.23282Q-4.51898 3.13731 -4.57258 3.03213Q-4.62617 2.92694 -4.66265 2.81467Q-4.69913 2.70239 -4.7176 2.58579Q-4.73607 2.46919 -4.73607 2.35114L-4.73607 -2.35114Q-4.73607 -2.46919 -4.7176 -2.58579Q-4.69913 -2.70239 -4.66265 -2.81467Q-4.62617 -2.92694 -4.57258 -3.03213Q-4.51898 -3.13731 -4.44959 -3.23282Q-4.3802 -3.32833 -4.29673 -3.4118Q-4.21325 -3.49528 -4.11775 -3.56467Q-4.02224 -3.63406 -3.91705 -3.68765Q-3.81187 -3.74125 -3.69959 -3.77773L0.772543 -5.23081Q0.884818 -5.26729 1.00142 -5.28576Q1.11802 -5.30423 1.23607 -5.30423Q1.35412 -5.30423 1.47072 -5.28576Q1.58732 -5.26729 1.69959 -5.23081Q1.81187 -5.19433 1.91705 -5.14074Q2.02224 -5.08714 2.11775 -5.01775Q2.21325 -4.94836 2.29673 -4.86489Q2.3802 -4.78141 2.44959 -4.6859L5.21353 -0.881678Q5.28292 -0.786171 5.33651 -0.680986Q5.39011 -0.5758 5.42659 -0.463525Q5.46307 -0.351251 5.48153 -0.234652Q5.5 -0.118052 5.5 1.19209e-07Q5.5 0.118053 5.48153 0.234652Q5.46307 0.351251 5.42659 0.463526Q5.3901 0.5758 5.33651 0.680986Q5.28292 0.786171 5.21353 0.881678L5.21353 0.881678ZM2.78647 -0.881678L4 0L2.78647 0.881678L0.022543 -2.92255L1.23607 -3.80423L1.69959 -2.37764L-2.77254 -0.924557L-3.23607 -2.35114L-1.73607 -2.35114L-1.73607 2.35114L-3.23607 2.35114L-2.77254 0.924556L1.69959 2.37764L1.23607 3.80423L0.0225424 2.92255L2.78647 -0.881678Z"/>
	<path fill="none" stroke="black" stroke-width="2.3999999" stroke-linejoin="round" transform="translate(55 79.2857)" d="M-24.2811 7.43Q-24.5008 6.71223 -24.7693 5.95051Q-25.0379 5.18879 -25.3016 4.43195L-30.702 4.43195Q-30.9607 5.18879 -31.2293 5.95051Q-31.4979 6.71223 -31.7176 7.43L-34.9598 7.43Q-34.1785 5.18879 -33.4803 3.28937Q-32.782 1.38996 -32.1131 -0.289727Q-31.4393 -1.96941 -30.7898 -3.4782Q-30.1404 -4.99188 -29.4422 -6.4323L-26.4588 -6.4323Q-25.7801 -4.99188 -25.1209 -3.4782Q-24.4617 -1.96941 -23.7928 -0.289727Q-23.1189 1.38996 -22.4207 3.28937Q-21.7176 5.18879 -20.9412 7.43L-24.2811 7.43ZM-28.0213 -3.28777Q-28.1189 -2.98992 -28.3191 -2.46746Q-28.5193 -1.94988 -28.783 -1.26629Q-29.0418 -0.587578 -29.3543 0.232734Q-29.6619 1.04816 -29.9793 1.95148L-26.0389 1.95148Q-26.3611 1.04816 -26.6639 0.232734Q-26.9617 -0.587578 -27.2303 -1.26629Q-27.4988 -1.94988 -27.699 -2.46746Q-27.8992 -2.98992 -28.0213 -3.28777ZM-13.5622 1.84895Q-13.5622 0.408515 -13.9333 -0.187188Q-14.2996 -0.787774 -15.198 -0.787774Q-15.4812 -0.787774 -15.7839 -0.758477Q-16.0818 -0.72918 -16.3601 -0.690117L-16.3601 7.43L-19.3386 7.43L-19.3386 -2.73113Q-18.9578 -2.82879 -18.4499 -2.93621Q-17.9421 -3.04852 -17.3708 -3.13641Q-16.7996 -3.22918 -16.199 -3.27801Q-15.5984 -3.33172 -15.0222 -3.33172Q-13.8796 -3.33172 -13.1716 -3.03875Q-12.4587 -2.75066 -11.9997 -2.35027Q-11.3601 -2.80926 -10.53 -3.06805Q-9.69994 -3.33172 -9.0017 -3.33172Q-7.74194 -3.33172 -6.93139 -2.98016Q-6.12084 -2.62859 -5.64233 -1.98895Q-5.15893 -1.3493 -4.97826 -0.470391Q-4.7976 0.408515 -4.7976 1.48762L-4.7976 7.43L-7.781 7.43L-7.781 1.84895Q-7.781 0.408515 -8.15209 -0.187188Q-8.5183 -0.787774 -9.42162 -0.787774Q-9.66088 -0.787774 -10.0906 -0.665703Q-10.5203 -0.548516 -10.7986 -0.367852Q-10.6619 0.0911326 -10.6228 0.603828Q-10.5788 1.11164 -10.5788 1.68781L-10.5788 7.43L-13.5622 7.43L-13.5622 1.84895ZM6.88087 7.06867Q6.11915 7.2884 4.91798 7.47883Q3.72169 7.66926 2.39845 7.66926Q1.06055 7.66926 0.167 7.31281Q-0.721672 6.95148 -1.24413 6.30207Q-1.76171 5.64777 -1.98144 4.74934Q-2.20116 3.8509 -2.20116 2.7718L-2.20116 -3.08758L0.782234 -3.08758L0.782234 2.41047Q0.782234 3.8509 1.15821 4.49055Q1.53907 5.1302 2.57911 5.1302Q2.90137 5.1302 3.25782 5.1009Q3.61915 5.0716 3.90235 5.02766L3.90235 -3.08758L6.88087 -3.08758L6.88087 7.06867ZM13.8806 7.6302Q12.5817 7.61066 11.7712 7.35187Q10.9607 7.0882 10.487 6.61945Q10.0183 6.1507 9.84737 5.48176Q9.68136 4.80793 9.68136 3.96809L9.68136 -7.60906L12.6599 -8.08758L12.6599 3.37238Q12.6599 3.76789 12.7185 4.09016Q12.7819 4.41242 12.948 4.63215Q13.1189 4.85187 13.4362 4.99348Q13.7585 5.1302 14.3005 5.16926L13.8806 7.6302ZM15.4984 2.24934Q15.4984 0.847969 15.9281 -0.201836Q16.3578 -1.25164 17.056 -1.94988Q17.7592 -2.64813 18.6674 -3.00945Q19.5805 -3.37078 20.5424 -3.37078Q22.7787 -3.37078 24.0775 -1.99871Q25.3812 -0.631524 25.3812 2.02961Q25.3812 2.2884 25.3617 2.6009Q25.3422 2.90852 25.3178 3.14777L18.5599 3.14777Q18.6576 4.07062 19.4193 4.61262Q20.181 5.14973 21.4603 5.14973Q22.2806 5.14973 23.0668 5.00324Q23.8578 4.85187 24.3607 4.63215L24.7611 7.04914Q24.5219 7.17121 24.1215 7.29328Q23.7211 7.41047 23.2279 7.49836Q22.7396 7.59113 22.1781 7.64973Q21.6215 7.70832 21.0599 7.70832Q19.639 7.70832 18.5892 7.2884Q17.5394 6.86848 16.8461 6.14094Q16.1576 5.40852 15.8256 4.41242Q15.4984 3.41145 15.4984 2.24934ZM22.5004 1.11164Q22.4808 0.730781 22.3685 0.369453Q22.2611 0.00812483 22.0316 -0.270195Q21.8021 -0.548516 21.4506 -0.72918Q21.099 -0.909844 20.5814 -0.909844Q20.0785 -0.909844 19.7172 -0.738945Q19.3607 -0.568047 19.1215 -0.289727Q18.8822 -0.0114064 18.7504 0.359687Q18.6185 0.730781 18.5599 1.11164L22.5004 1.11164ZM27.5788 -5.70965L30.5622 -6.18816L30.5622 -3.08758L34.1413 -3.08758L34.1413 -0.611992L30.5622 -0.611992L30.5622 3.08918Q30.5622 4.03156 30.8894 4.59309Q31.2214 5.14973 32.2224 5.14973Q32.7009 5.14973 33.2087 5.06184Q33.7214 4.96906 34.1413 4.80793L34.5612 7.13215Q34.0192 7.35187 33.3601 7.50812Q32.7009 7.66926 31.739 7.66926Q30.5183 7.66926 29.7175 7.34211Q28.9216 7.01008 28.4382 6.41926Q27.9597 5.82844 27.7692 4.98859Q27.5788 4.14875 27.5788 3.12824L27.5788 -5.70965Z"/>
	<path fill="white" transform="translate(55 79.2857)" d="M-24.2811 7.43Q-24.5008 6.71223 -24.7693 5.95051Q-25.0379 5.18879 -25.3016 4.43195L-30.702 4.43195Q-30.9607 5.18879 -31.2293 5.95051Q-31.4979 6.71223 -31.7176 7.43L-34.9598 7.43Q-34.1785 5.18879 -33.4803 3.28937Q-32.782 1.38996 -32.1131 -0.289727Q-31.4393 -1.96941 -30.7898 -3.4782Q-30.1404 -4.99188 -29.4422 -6.4323L-26.4588 -6.4323Q-25.7801 -4.99188 -25.1209 -3.4782Q-24.4617 -1.96941 -23.7928 -0.289727Q-23.1189 1.38996 -22.4207 3.28937Q-21.7176 5.18879 -20.9412 7.43L-24.2811 7.43ZM-28.0213 -3.28777Q-28.1189 -2.98992 -28.3191 -2.46746Q-28.5193 -1.94988 -28.783 -1.26629Q-29.0418 -0.587578 -29.3543 0.232734Q-29.6619 1.04816 -29.9793 1.95148L-26.0389 1.95148Q-26.3611 1.04816 -26.6639 0.232734Q-26.9617 -0.587578 -27.2303 -1.26629Q-27.4988 -1.94988 -27.699 -2.46746Q-27.8992 -2.98992 -28.0213 -3.28777ZM-13.5622 1.84895Q-13.5622 0.408515 -13.9333 -0.187188Q-14.2996 -0.787774 -15.198 -0.787774Q-15.4812 -0.787774 -15.7839 -0.758477Q-16.0818 -0.72918 -16.3601 -0.690117L-16.3601 7.43L-19.3386 7.43L-19.3386 -2.73113Q-18.9578 -2.82879 -18.4499 -2.93621Q-17.9421 -3.04852 -17.3708 -3.13641Q-16.7996 -3.22918 -16.199 -3.27801Q-15.5984 -3.33172 -15.0222 -3.33172Q-13.8796 -3.33172 -13.1716 -3.03875Q-12.4587 -2.75066 -11.9997 -2.35027Q-11.3601 -2.80926 -10.53 -3.06805Q-9.69994 -3.33172 -9.0017 -3.33172Q-7.74194 -3.33172 -6.93139 -2.98016Q-6.12084 -2.62859 -5.64233 -1.98895Q-5.15893 -1.3493 -4.97826 -0.470391Q-4.7976 0.408515 -4.7976 1.48762L-4.7976 7.43L-7.781 7.43L-7.781 1.84895Q-7.781 0.408515 -8.15209 -0.187188Q-8.5183 -0.787774 -9.42162 -0.787774Q-9.66088 -0.787774 -10.0906 -0.665703Q-10.5203 -0.548516 -10.7986 -0.367852Q-10.6619 0.0911326 -10.6228 0.603828Q-10.5788 1.11164 -10.5788 1.68781L-10.5788 7.43L-13.5622 7.43L-13.5622 1.84895ZM6.88087 7.06867Q6.11915 7.2884 4.91798 7.47883Q3.72169 7.66926 2.39845 7.66926Q1.06055 7.66926 0.167 7.31281Q-0.721672 6.95148 -1.24413 6.30207Q-1.76171 5.64777 -1.98144 4.74934Q-2.20116 3.8509 -2.20116 2.7718L-2.20116 -3.08758L0.782234 -3.08758L0.782234 2.41047Q0.782234 3.8509 1.15821 4.49055Q1.53907 5.1302 2.57911 5.1302Q2.90137 5.1302 3.25782 5.1009Q3.61915 5.0716 3.90235 5.02766L3.90235 -3.08758L6.88087 -3.08758L6.88087 7.06867ZM13.8806 7.6302Q12.5817 7.61066 11.7712 7.35187Q10.9607 7.0882 10.487 6.61945Q10.0183 6.1507 9.84737 5.48176Q9.68136 4.80793 9.68136 3.96809L9.68136 -7.60906L12.6599 -8.08758L12.6599 3.37238Q12.6599 3.76789 12.7185 4.09016Q12.7819 4.41242 12.948 4.63215Q13.1189 4.85187 13.4362 4.99348Q13.7585 5.1302 14.3005 5.16926L13.8806 7.6302ZM15.4984 2.24934Q15.4984 0.847969 15.9281 -0.201836Q16.3578 -1.25164 17.056 -1.94988Q17.7592 -2.64813 18.6674 -3.00945Q19.5805 -3.37078 20.5424 -3.37078Q22.7787 -3.37078 24.0775 -1.99871Q25.3812 -0.631524 25.3812 2.02961Q25.3812 2.2884 25.3617 2.6009Q25.3422 2.90852 25.3178 3.14777L18.5599 3.14777Q18.6576 4.07062 19.4193 4.61262Q20.181 5.14973 21.4603 5.14973Q22.2806 5.14973 23.0668 5.00324Q23.8578 4.85187 24.3607 4.63215L24.7611 7.04914Q24.5219 7.17121 24.1215 7.29328Q23.7211 7.41047 23.2279 7.49836Q22.7396 7.59113 22.1781 7.64973Q21.6215 7.70832 21.0599 7.70832Q19.639 7.70832 18.5892 7.2884Q17.5394 6.86848 16.8461 6.14094Q16.1576 5.40852 15.8256 4.41242Q15.4984 3.41145 15.4984 2.24934ZM22.5004 1.11164Q22.4808 0.730781 22.3685 0.369453Q22.2611 0.00812483 22.0316 -0.270195Q21.8021 -0.548516 21.4506 -0.72918Q21.099 -0.909844 20.5814 -0.909844Q20.0785 -0.909844 19.7172 -0.738945Q19.3607 -0.568047 19.1215 -0.289727Q18.8822 -0.0114064 18.7504 0.359687Q18.6185 0.730781 18.5599 1.11164L22.5004 1.11164ZM27.5788 -5.70965L30.5622 -6.18816L30.5622 -3.08758L34.1413 -3.08758L34.1413 -0.611992L30.5622 -0.611992L30.5622 3.08918Q30.5622 4.03156 30.8894 4.59309Q31.2214 5.14973 32.2224 5.14973Q32.7009 5.14973 33.2087 5.06184Q33.7214 4.96906 34.1413 4.80793L34.5612 7.13215Q34.0192 7.35187 33.3601 7.50812Q32.7009 7.66926 31.739 7.66926Q30.5183 7.66926 29.7175 7.34211Q28.9216 7.01008 28.4382 6.41926Q27.9597 5.82844 27.7692 4.98859Q27.5788 4.14875 27.5788 3.12824L27.5788 -5.70965Z"/>
</svg>
