<?xml version="1.0" encoding="utf-8" ?>
<svg xmlns="http://www.w3.org/2000/svg" xmlns:xlink="http://www.w3.org/1999/xlink" width="110" height="110">
	<path fill="#ffffff" transform="matrix(1.42857 0 0 1.42857 55 47.8571)" d="M12 0Q12 0.294583 11.9855 0.588812Q11.9711 0.883041 11.9422 1.17621Q11.9133 1.46937 11.8701 1.76077Q11.8269 2.05216 11.7694 2.34108Q11.712 2.63001 11.6404 2.91576Q11.5688 3.20152 11.4833 3.48342Q11.3978 3.76531 11.2985 4.04268Q11.1993 4.32004 11.0866 4.5922Q10.9738 4.86436 10.8479 5.13066Q10.7219 5.39696 10.5831 5.65676Q10.4442 5.91656 10.2927 6.16923Q10.1413 6.4219 9.97763 6.66684Q9.81397 6.91178 9.63849 7.14839Q9.46301 7.385 9.27612 7.61272Q9.08924 7.84044 8.89141 8.05871Q8.69358 8.27698 8.48528 8.48528Q8.27698 8.69358 8.05871 8.89141Q7.84044 9.08924 7.61272 9.27612Q7.385 9.46301 7.14839 9.63849Q6.91178 9.81397 6.66684 9.97763Q6.4219 10.1413 6.16923 10.2927Q5.91656 10.4442 5.65676 10.5831Q5.39696 10.7219 5.13066 10.8479Q4.86436 10.9738 4.5922 11.0866Q4.32004 11.1993 4.04268 11.2985Q3.76531 11.3978 3.48342 11.4833Q3.20152 11.5688 2.91576 11.6404Q2.63001 11.712 2.34108 11.7694Q2.05216 11.8269 1.76077 11.8701Q1.46937 11.9133 1.17621 11.9422Q0.883041 11.9711 0.588812 11.9855Q0.294583 12 0 12Q-0.294583 12 -0.588812 11.9855Q-0.883041 11.9711 -1.17621 11.9422Q-1.46937 11.9133 -1.76077 11.8701Q-2.05216 11.8269 -2.34108 11.7694Q-2.63001 11.712 -2.91576 11.6404Q-3.20152 11.5688 -3.48342 11.4833Q-3.76531 11.3978 -4.04268 11.2985Q-4.32004 11.1993 -4.5922 11.0866Q-4.86436 10.9738 -5.13066 10.8479Q-5.39696 10.7219 -5.65676 10.5831Q-5.91656 10.4442 -6.16923 10.2927Q-6.4219 10.1413 -6.66684 9.97763Q-6.91178 9.81397 -7.14839 9.63849Q-7.385 9.46301 -7.61272 9.27612Q-7.84044 9.08924 -8.05871 8.89141Q-8.27698 8.69358 -8.48528 8.48528Q-8.69358 8.27698 -8.89141 8.05871Q-9.08924 7.84044 -9.27612 7.61272Q-9.46301 7.385 -9.63849 7.14839Q-9.81397 6.91178 -9.97763 6.66684Q-10.1413 6.4219 -10.2927 6.16923Q-10.4442 5.91656 -10.5831 5.65676Q-10.7219 5.39696 -10.8479 5.13066Q-10.9738 4.86436 -11.0866 4.5922Q-11.1993 4.32004 -11.2985 4.04268Q-11.3978 3.76531 -11.4833 3.48342Q-11.5688 3.20152 -11.6404 2.91576Q-11.712 2.63001 -11.7694 2.34108Q-11.8269 2.05216 -11.8701 1.76077Q-11.9133 1.46937 -11.9422 1.17621Q-11.9711 0.883041 -11.9855 0.588812Q-12 0.294583 -12 0Q-12 -0.294583 -11.9855 -0.588812Q-11.9711 -0.883041 -11.9422 -1.17621Q-11.9133 -1.46937 -11.8701 -1.76077Q-11.8269 -2.05216 -11.7694 -2.34108Q-11.712 -2.63001 -11.6404 -2.91576Q-11.5688 -3.20152 -11.4833 -3.48342Q-11.3978 -3.76531 -11.2985 -4.04268Q-11.1993 -4.32004 -11.0866 -4.5922Q-10.9738 -4.86436 -10.8479 -5.13066Q-10.7219 -5.39696 -10.5831 -5.65676Q-10.4442 -5.91656 -10.2927 -6.16923Q-10.1413 -6.4219 -9.97763 -6.66684Q-9.81397 -6.91178 -9.63849 -7.14839Q-9.46301 -7.385 -9.27612 -7.61272Q-9.08924 -7.84044 -8.89141 -8.05871Q-8.69358 -8.27698 -8.48528 -8.48528Q-8.27698 -8.69358 -8.05871 -8.89141Q-7.84044 -9.08924 -7.61272 -9.27612Q-7.385 -9.46301 -7.14839 -9.63849Q-6.91178 -9.81397 -6.66684 -9.97763Q-6.4219 -10.1413 -6.16923 -10.2927Q-5.91656 -10.4442 -5.65676 -10.5831Q-5.39696 -10.7219 -5.13066 -10.8479Q-4.86436 -10.9738 -4.5922 -11.0866Q-4.32004 -11.1993 -4.04268 -11.2985Q-3.76531 -11.3978 -3.48342 -11.4833Q-3.20152 -11.5688 -2.91576 -11.6404Q-2.63001 -11.712 -2.34108 -11.7694Q-2.05216 -11.8269 -1.76077 -11.8701Q-1.46937 -11.9133 -1.17621 -11.9422Q-0.883041 -11.9711 -0.588812 -11.9855Q-0.294583 -12 0 -12Q0.294583 -12 0.588812 -11.9855Q0.883041 -11.9711 1.17621 -11.9422Q1.46937 -11.9133 1.76077 -11.8701Q2.05216 -11.8269 2.34108 -11.7694Q2.63001 -11.712 2.91576 -11.6404Q3.20152 -11.5688 3.48342 -11.4833Q3.76531 -11.3978 4.04268 -11.2985Q4.32004 -11.1993 4.5922 -11.0866Q4.86436 -10.9738 5.13066 -10.8479Q5.39696 -10.7219 5.65676 -10.5831Q5.91656 -10.4442 6.16923 -10.2927Q6.4219 -10.1413 6.66684 -9.97763Q6.91178 -9.81397 7.14839 -9.63849Q7.385 -9.46301 7.61272 -9.27612Q7.84044 -9.08924 8.05871 -8.89141Q8.27698 -8.69358 8.48528 -8.48528Q8.69358 -8.27698 8.89141 -8.05871Q9.08924 -7.84044 9.27612 -7.61272Q9.46301 -7.385 9.63849 -7.14839Q9.81397 -6.91178 9.97763 -6.66684Q10.1413 -6.4219 10.2927 -6.16923Q10.4442 -5.91656 10.5831 -5.65676Q10.7219 -5.39696 10.8479 -5.13066Q10.9738 -4.86436 11.0866 -4.5922Q11.1993 -4.32004 11.2985 -4.04268Q11.3978 -3.76531 11.4833 -3.48342Q11.5688 -3.20152 11.6404 -2.91576Q11.712 -2.63001 11.7694 -2.34108Q11.8269 -2.05216 11.8701 -1.76077Q11.9133 -1.46937 11.9422 -1.17621Q11.9711 -0.883041 11.9855 -0.588812Q12 -0.294583 12 0"/>
	<path fill="#333" transform="matrix(1.42857 0 0 1.42857 55 47.8571)" d="M0 -12Q0.294583 -12 0.588812 -11.9855Q0.883041 -11.9711 1.17621 -11.9422Q1.46937 -11.9133 1.76077 -11.8701Q2.05216 -11.8269 2.34108 -11.7694Q2.63001 -11.712 2.91576 -11.6404Q3.20152 -11.5688 3.48342 -11.4833Q3.76531 -11.3978 4.04268 -11.2985Q4.32004 -11.1993 4.5922 -11.0866Q4.86436 -10.9738 5.13066 -10.8479Q5.39696 -10.7219 5.65676 -10.5831Q5.91656 -10.4442 6.16923 -10.2927Q6.4219 -10.1413 6.66684 -9.97763Q6.91178 -9.81397 7.14839 -9.63849Q7.385 -9.46301 7.61272 -9.27612Q7.84044 -9.08924 8.05871 -8.89141Q8.27698 -8.69358 8.48528 -8.48528Q8.69358 -8.27698 8.89141 -8.05871Q9.08924 -7.84044 9.27612 -7.61272Q9.46301 -7.385 9.63849 -7.14839Q9.81397 -6.91178 9.97763 -6.66684Q10.1413 -6.4219 10.2927 -6.16923Q10.4442 -5.91656 10.5831 -5.65676Q10.7219 -5.39696 10.8479 -5.13066Q10.9738 -4.86436 11.0866 -4.5922Q11.1993 -4.32004 11.2985 -4.04268Q11.3978 -3.76531 11.4833 -3.48342Q11.5688 -3.20152 11.6404 -2.91576Q11.712 -2.63001 11.7694 -2.34108Q11.8269 -2.05216 11.8701 -1.76077Q11.9133 -1.46937 11.9422 -1.17621Q11.9711 -0.883041 11.9855 -0.588812Q12 -0.294583 12 0Q12 0.294583 11.9855 0.588812Q11.9711 0.883041 11.9422 1.17621Q11.9133 1.46937 11.8701 1.76077Q11.8269 2.05216 11.7694 2.34108Q11.712 2.63001 11.6404 2.91576Q11.5688 3.20152 11.4833 3.48342Q11.3978 3.76531 11.2985 4.04268Q11.1993 4.32004 11.0866 4.5922Q10.9738 4.86436 10.8479 5.13066Q10.7219 5.39696 10.5831 5.65676Q10.4442 5.91656 10.2927 6.16923Q10.1413 6.4219 9.97763 6.66684Q9.81397 6.91178 9.63849 7.14839Q9.46301 7.385 9.27612 7.61272Q9.08924 7.84044 8.89141 8.05871Q8.69358 8.27698 8.48528 8.48528Q8.27698 8.69358 8.05871 8.89141Q7.84044 9.08924 7.61272 9.27612Q7.385 9.46301 7.14839 9.63849Q6.91178 9.81397 6.66684 9.97763Q6.4219 10.1413 6.16923 10.2927Q5.91656 10.4442 5.65676 10.5831Q5.39696 10.7219 5.13066 10.8479Q4.86436 10.9738 4.5922 11.0866Q4.32004 11.1993 4.04268 11.2985Q3.76531 11.3978 3.48342 11.4833Q3.20152 11.5688 2.91576 11.6404Q2.63001 11.712 2.34108 11.7694Q2.05216 11.8269 1.76077 11.8701Q1.46937 11.9133 1.17621 11.9422Q0.883041 11.9711 0.588812 11.9855Q0.294583 12 0 12"/>
	<path fill="#333" transform="matrix(1.42857 0 0 1.42857 55 47.8571)" d="M6 6Q6 6.14729 5.99277 6.29441Q5.98555 6.44152 5.97111 6.5881Q5.95667 6.73469 5.93506 6.88038Q5.91345 7.02608 5.88471 7.17054Q5.85598 7.315 5.82019 7.45788Q5.7844 7.60076 5.74164 7.74171Q5.69888 7.88266 5.64926 8.02134Q5.59964 8.16002 5.54328 8.2961Q5.48691 8.43218 5.42394 8.56533Q5.36096 8.69848 5.29153 8.82838Q5.22209 8.95828 5.14637 9.08462Q5.07065 9.21095 4.98882 9.33342Q4.90699 9.45589 4.81924 9.57419Q4.7315 9.6925 4.63806 9.80636Q4.54462 9.92022 4.44571 10.0294Q4.34679 10.1385 4.24264 10.2426Q4.13849 10.3468 4.02935 10.4457Q3.92022 10.5446 3.80636 10.6381Q3.6925 10.7315 3.5742 10.8192Q3.45589 10.907 3.33342 10.9888Q3.21095 11.0706 3.08462 11.1464Q2.95828 11.2221 2.82838 11.2915Q2.69848 11.361 2.56533 11.4239Q2.43218 11.4869 2.2961 11.5433Q2.16002 11.5996 2.02134 11.6493Q1.88266 11.6989 1.74171 11.7416Q1.60076 11.7844 1.45788 11.8202Q1.315 11.856 1.17054 11.8847Q1.02608 11.9134 0.880383 11.9351Q0.734685 11.9567 0.588103 11.9711Q0.44152 11.9855 0.294406 11.9928Q0.147292 12 0 12Q-0.147292 12 -0.294406 11.9928Q-0.44152 11.9855 -0.588103 11.9711Q-0.734685 11.9567 -0.880383 11.9351Q-1.02608 11.9134 -1.17054 11.8847Q-1.315 11.856 -1.45788 11.8202Q-1.60076 11.7844 -1.74171 11.7416Q-1.88266 11.6989 -2.02134 11.6493Q-2.16002 11.5996 -2.2961 11.5433Q-2.43218 11.4869 -2.56533 11.4239Q-2.69848 11.361 -2.82838 11.2915Q-2.95828 11.2221 -3.08462 11.1464Q-3.21095 11.0706 -3.33342 10.9888Q-3.45589 10.907 -3.5742 10.8192Q-3.6925 10.7315 -3.80636 10.6381Q-3.92022 10.5446 -4.02935 10.4457Q-4.13849 10.3468 -4.24264 10.2426Q-4.34679 10.1385 -4.44571 10.0294Q-4.54462 9.92022 -4.63806 9.80636Q-4.7315 9.6925 -4.81924 9.5742Q-4.90699 9.45589 -4.98882 9.33342Q-5.07065 9.21095 -5.14637 9.08462Q-5.22209 8.95828 -5.29153 8.82838Q-5.36096 8.69848 -5.42394 8.56533Q-5.48691 8.43218 -5.54328 8.2961Q-5.59964 8.16002 -5.64926 8.02134Q-5.69888 7.88266 -5.74164 7.74171Q-5.7844 7.60076 -5.82019 7.45788Q-5.85598 7.315 -5.88471 7.17054Q-5.91345 7.02608 -5.93506 6.88038Q-5.95667 6.73469 -5.97111 6.5881Q-5.98555 6.44152 -5.99277 6.29441Q-6 6.14729 -6 6Q-6 5.85271 -5.99277 5.70559Q-5.98555 5.55848 -5.97111 5.4119Q-5.95667 5.26531 -5.93506 5.11962Q-5.91345 4.97392 -5.88471 4.82946Q-5.85598 4.685 -5.82019 4.54212Q-5.7844 4.39924 -5.74164 4.25829Q-5.69888 4.11734 -5.64926 3.97866Q-5.59964 3.83998 -5.54328 3.7039Q-5.48691 3.56782 -5.42394 3.43467Q-5.36096 3.30152 -5.29153 3.17162Q-5.22209 3.04172 -5.14637 2.91538Q-5.07065 2.78905 -4.98882 2.66658Q-4.90699 2.54411 -4.81924 2.4258Q-4.7315 2.3075 -4.63806 2.19364Q-4.54462 2.07978 -4.44571 1.97065Q-4.34679 1.86151 -4.24264 1.75736Q-4.13849 1.65321 -4.02935 1.55429Q-3.92022 1.45538 -3.80636 1.36194Q-3.6925 1.2685 -3.5742 1.18075Q-3.45589 1.09301 -3.33342 1.01118Q-3.21095 0.929351 -3.08462 0.853628Q-2.95828 0.777905 -2.82838 0.708472Q-2.69848 0.63904 -2.56533 0.576064Q-2.43218 0.513089 -2.2961 0.456723Q-2.16002 0.400357 -2.02134 0.350736Q-1.88266 0.301114 -1.74171 0.258358Q-1.60076 0.215601 -1.45788 0.179812Q-1.315 0.144023 -1.17054 0.115288Q-1.02608 0.0865531 -0.880383 0.0649409Q-0.734685 0.0433288 -0.588103 0.0288916Q-0.44152 0.0144545 -0.294406 0.00722726Q-0.147292 0 0 0Q0.147292 0 0.294406 0.00722726Q0.44152 0.0144545 0.588103 0.0288916Q0.734685 0.0433288 0.880383 0.0649409Q1.02608 0.0865531 1.17054 0.115288Q1.315 0.144023 1.45788 0.179812Q1.60076 0.215601 1.74171 0.258358Q1.88266 0.301114 2.02134 0.350736Q2.16002 0.400357 2.2961 0.456723Q2.43218 0.513089 2.56533 0.576064Q2.69848 0.63904 2.82838 0.708472Q2.95828 0.777905 3.08462 0.853628Q3.21095 0.929351 3.33342 1.01118Q3.45589 1.09301 3.5742 1.18075Q3.6925 1.2685 3.80636 1.36194Q3.92022 1.45538 4.02935 1.55429Q4.13849 1.65321 4.24264 1.75736Q4.34679 1.86151 4.44571 1.97065Q4.54462 2.07978 4.63806 2.19364Q4.7315 2.3075 4.81924 2.4258Q4.90699 2.54411 4.98882 2.66658Q5.07065 2.78905 5.14637 2.91538Q5.22209 3.04172 5.29153 3.17162Q5.36096 3.30152 5.42394 3.43467Q5.48691 3.56782 5.54328 3.7039Q5.59964 3.83998 5.64926 3.97866Q5.69888 4.11734 5.74164 4.25829Q5.7844 4.39924 5.82019 4.54212Q5.85598 4.685 5.88471 4.82946Q5.91345 4.97392 5.93506 5.11962Q5.95667 5.26531 5.97111 5.4119Q5.98555 5.55848 5.99277 5.70559Q6 5.85271 6 6"/>
	<path fill="#ffffff" transform="matrix(1.42857 0 0 1.42857 55 47.8571)" d="M6 -6Q6 -5.85271 5.99277 -5.70559Q5.98555 -5.55848 5.97111 -5.4119Q5.95667 -5.26531 5.93506 -5.11962Q5.91345 -4.97392 5.88471 -4.82946Q5.85598 -4.685 5.82019 -4.54212Q5.7844 -4.39924 5.74164 -4.25829Q5.69888 -4.11734 5.64926 -3.97866Q5.59964 -3.83998 5.54328 -3.7039Q5.48691 -3.56782 5.42394 -3.43467Q5.36096 -3.30152 5.29153 -3.17162Q5.22209 -3.04172 5.14637 -2.91538Q5.07065 -2.78905 4.98882 -2.66658Q4.90699 -2.54411 4.81924 -2.4258Q4.7315 -2.3075 4.63806 -2.19364Q4.54462 -2.07978 4.44571 -1.97065Q4.34679 -1.86151 4.24264 -1.75736Q4.13849 -1.65321 4.02935 -1.55429Q3.92022 -1.45538 3.80636 -1.36194Q3.6925 -1.2685 3.5742 -1.18075Q3.45589 -1.09301 3.33342 -1.01118Q3.21095 -0.929351 3.08462 -0.853628Q2.95828 -0.777905 2.82838 -0.708472Q2.69848 -0.63904 2.56533 -0.576064Q2.43218 -0.513089 2.2961 -0.456723Q2.16002 -0.400357 2.02134 -0.350736Q1.88266 -0.301114 1.74171 -0.258358Q1.60076 -0.215601 1.45788 -0.179812Q1.315 -0.144023 1.17054 -0.115288Q1.02608 -0.0865531 0.880383 -0.0649409Q0.734685 -0.0433288 0.588103 -0.0288916Q0.44152 -0.0144545 0.294406 -0.00722726Q0.147292 0 0 0Q-0.147292 0 -0.294406 -0.00722726Q-0.44152 -0.0144545 -0.588103 -0.0288916Q-0.734685 -0.0433288 -0.880383 -0.0649409Q-1.02608 -0.0865531 -1.17054 -0.115288Q-1.315 -0.144023 -1.45788 -0.179812Q-1.60076 -0.215601 -1.74171 -0.258358Q-1.88266 -0.301114 -2.02134 -0.350736Q-2.16002 -0.400357 -2.2961 -0.456723Q-2.43218 -0.513089 -2.56533 -0.576064Q-2.69848 -0.63904 -2.82838 -0.708472Q-2.95828 -0.777905 -3.08462 -0.853628Q-3.21095 -0.929351 -3.33342 -1.01118Q-3.45589 -1.09301 -3.5742 -1.18075Q-3.6925 -1.2685 -3.80636 -1.36194Q-3.92022 -1.45538 -4.02935 -1.55429Q-4.13849 -1.65321 -4.24264 -1.75736Q-4.34679 -1.86151 -4.44571 -1.97065Q-4.54462 -2.07978 -4.63806 -2.19364Q-4.7315 -2.3075 -4.81924 -2.4258Q-4.90699 -2.54411 -4.98882 -2.66658Q-5.07065 -2.78905 -5.14637 -2.91538Q-5.22209 -3.04172 -5.29153 -3.17162Q-5.36096 -3.30152 -5.42394 -3.43467Q-5.48691 -3.56782 -5.54328 -3.7039Q-5.59964 -3.83998 -5.64926 -3.97866Q-5.69888 -4.11734 -5.74164 -4.25829Q-5.7844 -4.39924 -5.82019 -4.54212Q-5.85598 -4.685 -5.88471 -4.82946Q-5.91345 -4.97392 -5.93506 -5.11962Q-5.95667 -5.26531 -5.97111 -5.4119Q-5.98555 -5.55848 -5.99277 -5.70559Q-6 -5.85271 -6 -6Q-6 -6.14729 -5.99277 -6.29441Q-5.98555 -6.44152 -5.97111 -6.5881Q-5.95667 -6.73469 -5.93506 -6.88038Q-5.91345 -7.02608 -5.88471 -7.17054Q-5.85598 -7.315 -5.82019 -7.45788Q-5.7844 -7.60076 -5.74164 -7.74171Q-5.69888 -7.88266 -5.64926 -8.02134Q-5.59964 -8.16002 -5.54328 -8.2961Q-5.48691 -8.43218 -5.42394 -8.56533Q-5.36096 -8.69848 -5.29153 -8.82838Q-5.22209 -8.95828 -5.14637 -9.08462Q-5.07065 -9.21095 -4.98882 -9.33342Q-4.90699 -9.45589 -4.81924 -9.57419Q-4.7315 -9.6925 -4.63806 -9.80636Q-4.54462 -9.92022 -4.44571 -10.0294Q-4.34679 -10.1385 -4.24264 -10.2426Q-4.13849 -10.3468 -4.02935 -10.4457Q-3.92022 -10.5446 -3.80636 -10.6381Q-3.6925 -10.7315 -3.5742 -10.8192Q-3.45589 -10.907 -3.33342 -10.9888Q-3.21095 -11.0706 -3.08462 -11.1464Q-2.95828 -11.2221 -2.82838 -11.2915Q-2.69848 -11.361 -2.56533 -11.4239Q-2.43218 -11.4869 -2.2961 -11.5433Q-2.16002 -11.5996 -2.02134 -11.6493Q-1.88266 -11.6989 -1.74171 -11.7416Q-1.60076 -11.7844 -1.45788 -11.8202Q-1.315 -11.856 -1.17054 -11.8847Q-1.02608 -11.9134 -0.880383 -11.9351Q-0.734685 -11.9567 -0.588103 -11.9711Q-0.44152 -11.9855 -0.294406 -11.9928Q-0.147292 -12 0 -12Q0.147292 -12 0.294406 -11.9928Q0.44152 -11.9855 0.588103 -11.9711Q0.734685 -11.9567 0.880383 -11.9351Q1.02608 -11.9134 1.17054 -11.8847Q1.315 -11.856 1.45788 -11.8202Q1.60076 -11.7844 1.74171 -11.7416Q1.88266 -11.6989 2.02134 -11.6493Q2.16002 -11.5996 2.2961 -11.5433Q2.43218 -11.4869 2.56533 -11.4239Q2.69848 -11.361 2.82838 -11.2915Q2.95828 -11.2221 3.08462 -11.1464Q3.21095 -11.0706 3.33342 -10.9888Q3.45589 -10.907 3.5742 -10.8192Q3.6925 -10.7315 3.80636 -10.6381Q3.92022 -10.5446 4.02935 -10.4457Q4.13849 -10.3468 4.24264 -10.2426Q4.34679 -10.1385 4.44571 -10.0294Q4.54462 -9.92022 4.63806 -9.80636Q4.7315 -9.6925 4.81924 -9.5742Q4.90699 -9.45589 4.98882 -9.33342Q5.07065 -9.21095 5.14637 -9.08462Q5.22209 -8.95828 5.29153 -8.82838Q5.36096 -8.69848 5.42394 -8.56533Q5.48691 -8.43218 5.54328 -8.2961Q5.59964 -8.16002 5.64926 -8.02134Q5.69888 -7.88266 5.74164 -7.74171Q5.7844 -7.60076 5.82019 -7.45788Q5.85598 -7.315 5.88471 -7.17054Q5.91345 -7.02608 5.93506 -6.88038Q5.95667 -6.73469 5.97111 -6.5881Q5.98555 -6.44152 5.99277 -6.29441Q6 -6.14729 6 -6"/>
	<path fill="none" stroke="#292929" stroke-width="3" stroke-linecap="round" stroke-linejoin="round" transform="matrix(1.42857 0 0 1.42857 55 47.8571)" d="M0 -12Q0.294583 -12 0.588812 -11.9855Q0.883041 -11.9711 1.17621 -11.9422Q1.46937 -11.9133 1.76077 -11.8701Q2.05216 -11.8269 2.34108 -11.7694Q2.63001 -11.712 2.91576 -11.6404Q3.20152 -11.5688 3.48342 -11.4833Q3.76531 -11.3978 4.04268 -11.2985Q4.32004 -11.1993 4.5922 -11.0866Q4.86436 -10.9738 5.13066 -10.8479Q5.39696 -10.7219 5.65676 -10.5831Q5.91656 -10.4442 6.16923 -10.2927Q6.4219 -10.1413 6.66684 -9.97763Q6.91178 -9.81397 7.14839 -9.63849Q7.385 -9.46301 7.61272 -9.27612Q7.84044 -9.08924 8.05871 -8.89141Q8.27698 -8.69358 8.48528 -8.48528Q8.69358 -8.27698 8.89141 -8.05871Q9.08924 -7.84044 9.27612 -7.61272Q9.46301 -7.385 9.63849 -7.14839Q9.81397 -6.91178 9.97763 -6.66684Q10.1413 -6.4219 10.2927 -6.16923Q10.4442 -5.91656 10.5831 -5.65676Q10.7219 -5.39696 10.8479 -5.13066Q10.9738 -4.86436 11.0866 -4.5922Q11.1993 -4.32004 11.2985 -4.04268Q11.3978 -3.76531 11.4833 -3.48342Q11.5688 -3.20152 11.6404 -2.91576Q11.712 -2.63001 11.7694 -2.34108Q11.8269 -2.05216 11.8701 -1.76077Q11.9133 -1.46937 11.9422 -1.17621Q11.9711 -0.883041 11.9855 -0.588812Q12 -0.294583 12 0"/>
	<path fill="none" stroke="#CFCFCF" stroke-width="3" stroke-linecap="round" stroke-linejoin="round" transform="matrix(1.42857 0 0 1.42857 55 47.8571)" d="M0 12Q-0.294583 12 -0.588812 11.9855Q-0.883041 11.9711 -1.17621 11.9422Q-1.46937 11.9133 -1.76077 11.8701Q-2.05216 11.8269 -2.34108 11.7694Q-2.63001 11.712 -2.91576 11.6404Q-3.20152 11.5688 -3.48342 11.4833Q-3.76531 11.3978 -4.04268 11.2985Q-4.32004 11.1993 -4.5922 11.0866Q-4.86436 10.9738 -5.13066 10.8479Q-5.39696 10.7219 -5.65676 10.5831Q-5.91656 10.4442 -6.16923 10.2927Q-6.4219 10.1413 -6.66684 9.97763Q-6.91178 9.81397 -7.14839 9.63849Q-7.385 9.46301 -7.61272 9.27612Q-7.84044 9.08924 -8.05871 8.89141Q-8.27698 8.69358 -8.48528 8.48528Q-8.69358 8.27698 -8.89141 8.05871Q-9.08924 7.84044 -9.27612 7.61272Q-9.46301 7.385 -9.63849 7.14839Q-9.81397 6.91178 -9.97763 6.66684Q-10.1413 6.4219 -10.2927 6.16923Q-10.4442 5.91656 -10.5831 5.65676Q-10.7219 5.39696 -10.8479 5.13066Q-10.9738 4.86436 -11.0866 4.5922Q-11.1993 4.32004 -11.2985 4.04268Q-11.3978 3.76531 -11.4833 3.48342Q-11.5688 3.20152 -11.6404 2.91576Q-11.712 2.63001 -11.7694 2.34108Q-11.8269 2.05216 -11.8701 1.76077Q-11.9133 1.46937 -11.9422 1.17621Q-11.9711 0.883041 -11.9855 0.588812Q-12 0.294583 -12 0Q-12 -0.294583 -11.9855 -0.588812Q-11.9711 -0.883041 -11.9422 -1.17621Q-11.9133 -1.46937 -11.8701 -1.76077Q-11.8269 -2.05216 -11.7694 -2.34108Q-11.712 -2.63001 -11.6404 -2.91576Q-11.5688 -3.20152 -11.4833 -3.48342Q-11.3978 -3.76531 -11.2985 -4.04268Q-11.1993 -4.32004 -11.0866 -4.5922Q-10.9738 -4.86436 -10.8479 -5.13066Q-10.7219 -5.39696 -10.5831 -5.65676Q-10.4442 -5.91656 -10.2927 -6.16923Q-10.1413 -6.4219 -9.97763 -6.66684Q-9.81397 -6.91178 -9.63849 -7.14839Q-9.46301 -7.385 -9.27612 -7.61272Q-9.08924 -7.84044 -8.89141 -8.05871Q-8.69358 -8.27698 -8.48528 -8.48528Q-8.27698 -8.69358 -8.05871 -8.89141Q-7.84044 -9.08924 -7.61272 -9.27612Q-7.385 -9.46301 -7.14839 -9.63849Q-6.91178 -9.81397 -6.66684 -9.97763Q-6.4219 -10.1413 -6.16923 -10.2927Q-5.91656 -10.4442 -5.65676 -10.5831Q-5.39696 -10.7219 -5.13066 -10.8479Q-4.86436 -10.9738 -4.5922 -11.0866Q-4.32004 -11.1993 -4.04268 -11.2985Q-3.76531 -11.3978 -3.48342 -11.4833Q-3.20152 -11.5688 -2.91576 -11.6404Q-2.63001 -11.712 -2.34108 -11.7694Q-2.05216 -11.8269 -1.76077 -11.8701Q-1.46937 -11.9133 -1.17621 -11.9422Q-0.883041 -11.9711 -0.588812 -11.9855Q-0.294583 -12 0 -12"/>
	<path fill="none" stroke="#292929" stroke-width="3" stroke-linecap="round" stroke-linejoin="round" transform="matrix(1.42857 0 0 1.42857 55 47.8571)" d="M12 0Q12 0.294583 11.9855 0.588812Q11.9711 0.883041 11.9422 1.17621Q11.9133 1.46937 11.8701 1.76077Q11.8269 2.05216 11.7694 2.34108Q11.712 2.63001 11.6404 2.91576Q11.5688 3.20152 11.4833 3.48342Q11.3978 3.76531 11.2985 4.04268Q11.1993 4.32004 11.0866 4.5922Q10.9738 4.86436 10.8479 5.13066Q10.7219 5.39696 10.5831 5.65676Q10.4442 5.91656 10.2927 6.16923Q10.1413 6.4219 9.97763 6.66684Q9.81397 6.91178 9.63849 7.14839Q9.46301 7.385 9.27612 7.61272Q9.08924 7.84044 8.89141 8.05871Q8.69358 8.27698 8.48528 8.48528Q8.27698 8.69358 8.05871 8.89141Q7.84044 9.08924 7.61272 9.27612Q7.385 9.46301 7.14839 9.63849Q6.91178 9.81397 6.66684 9.97763Q6.4219 10.1413 6.16923 10.2927Q5.91656 10.4442 5.65676 10.5831Q5.39696 10.7219 5.13066 10.8479Q4.86436 10.9738 4.5922 11.0866Q4.32004 11.1993 4.04268 11.2985Q3.76531 11.3978 3.48342 11.4833Q3.20152 11.5688 2.91576 11.6404Q2.63001 11.712 2.34108 11.7694Q2.05216 11.8269 1.76077 11.8701Q1.46937 11.9133 1.17621 11.9422Q0.883041 11.9711 0.588812 11.9855Q0.294583 12 0 12"/>
	<path fill="none" stroke="#292929" stroke-width="3" stroke-linecap="round" stroke-linejoin="round" transform="matrix(1.42857 0 0 1.42857 55 47.8571)" d="M0 12Q-0.147292 12 -0.294406 11.9928Q-0.44152 11.9855 -0.588103 11.9711Q-0.734685 11.9567 -0.880383 11.9351Q-1.02608 11.9134 -1.17054 11.8847Q-1.315 11.856 -1.45788 11.8202Q-1.60076 11.7844 -1.74171 11.7416Q-1.88266 11.6989 -2.02134 11.6493Q-2.16002 11.5996 -2.2961 11.5433Q-2.43218 11.4869 -2.56533 11.4239Q-2.69848 11.361 -2.82838 11.2915Q-2.95828 11.2221 -3.08462 11.1464Q-3.21095 11.0706 -3.33342 10.9888Q-3.45589 10.907 -3.5742 10.8192Q-3.6925 10.7315 -3.80636 10.6381Q-3.92022 10.5446 -4.02935 10.4457Q-4.13849 10.3468 -4.24264 10.2426Q-4.34679 10.1385 -4.44571 10.0294Q-4.54462 9.92022 -4.63806 9.80636Q-4.7315 9.6925 -4.81924 9.5742Q-4.90699 9.45589 -4.98882 9.33342Q-5.07065 9.21095 -5.14637 9.08462Q-5.22209 8.95828 -5.29153 8.82838Q-5.36096 8.69848 -5.42394 8.56533Q-5.48691 8.43218 -5.54328 8.2961Q-5.59964 8.16002 -5.64926 8.02134Q-5.69888 7.88266 -5.74164 7.74171Q-5.7844 7.60076 -5.82019 7.45788Q-5.85598 7.315 -5.88471 7.17054Q-5.91345 7.02608 -5.93506 6.88038Q-5.95667 6.73469 -5.97111 6.5881Q-5.98555 6.44152 -5.99277 6.29441Q-6 6.14729 -6 6Q-6 5.85271 -5.99277 5.70559Q-5.98555 5.55848 -5.97111 5.4119Q-5.95667 5.26531 -5.93506 5.11962Q-5.91345 4.97392 -5.88471 4.82946Q-5.85598 4.685 -5.82019 4.54212Q-5.7844 4.39924 -5.74164 4.25829Q-5.69888 4.11734 -5.64926 3.97866Q-5.59964 3.83998 -5.54328 3.7039Q-5.48691 3.56782 -5.42394 3.43467Q-5.36096 3.30152 -5.29153 3.17162Q-5.22209 3.04172 -5.14637 2.91538Q-5.07065 2.78905 -4.98882 2.66658Q-4.90699 2.54411 -4.81924 2.4258Q-4.7315 2.3075 -4.63806 2.19364Q-4.54462 2.07978 -4.44571 1.97065Q-4.34679 1.86151 -4.24264 1.75736Q-4.13849 1.65321 -4.02935 1.55429Q-3.92022 1.45538 -3.80636 1.36194Q-3.6925 1.2685 -3.5742 1.18075Q-3.45589 1.09301 -3.33342 1.01118Q-3.21095 0.929351 -3.08462 0.853628Q-2.95828 0.777905 -2.82838 0.708472Q-2.69848 0.63904 -2.56533 0.576064Q-2.43218 0.513089 -2.2961 0.456723Q-2.16002 0.400357 -2.02134 0.350736Q-1.88266 0.301114 -1.74171 0.258358Q-1.60076 0.215601 -1.45788 0.179812Q-1.315 0.144023 -1.17054 0.115288Q-1.02608 0.0865531 -0.880383 0.0649409Q-0.734685 0.0433288 -0.588103 0.0288916Q-0.44152 0.0144545 -0.294406 0.00722726Q-0.147292 0 0 0"/>
	<path fill="none" stroke="#CFCFCF" stroke-width="3" stroke-linecap="round" stroke-linejoin="round" transform="matrix(1.42857 0 0 1.42857 55 47.8571)" d="M0 -12Q0.147292 -12 0.294406 -11.9928Q0.44152 -11.9855 0.588103 -11.9711Q0.734685 -11.9567 0.880383 -11.9351Q1.02608 -11.9134 1.17054 -11.8847Q1.315 -11.856 1.45788 -11.8202Q1.60076 -11.7844 1.74171 -11.7416Q1.88266 -11.6989 2.02134 -11.6493Q2.16002 -11.5996 2.2961 -11.5433Q2.43218 -11.4869 2.56533 -11.4239Q2.69848 -11.361 2.82838 -11.2915Q2.95828 -11.2221 3.08462 -11.1464Q3.21095 -11.0706 3.33342 -10.9888Q3.45589 -10.907 3.5742 -10.8192Q3.6925 -10.7315 3.80636 -10.6381Q3.92022 -10.5446 4.02935 -10.4457Q4.13849 -10.3468 4.24264 -10.2426Q4.34679 -10.1385 4.44571 -10.0294Q4.54462 -9.92022 4.63806 -9.80636Q4.7315 -9.6925 4.81924 -9.5742Q4.90699 -9.45589 4.98882 -9.33342Q5.07065 -9.21095 5.14637 -9.08462Q5.22209 -8.95828 5.29153 -8.82838Q5.36096 -8.69848 5.42394 -8.56533Q5.48691 -8.43218 5.54328 -8.2961Q5.59964 -8.16002 5.64926 -8.02134Q5.69888 -7.88266 5.74164 -7.74171Q5.7844 -7.60076 5.82019 -7.45788Q5.85598 -7.315 5.88471 -7.17054Q5.91345 -7.02608 5.93506 -6.88038Q5.95667 -6.73469 5.97111 -6.5881Q5.98555 -6.44152 5.99277 -6.29441Q6 -6.14729 6 -6Q6 -5.85271 5.99277 -5.70559Q5.98555 -5.55848 5.97111 -5.4119Q5.95667 -5.26531 5.93506 -5.11962Q5.91345 -4.97392 5.88471 -4.82946Q5.85598 -4.685 5.82019 -4.54212Q5.7844 -4.39924 5.74164 -4.25829Q5.69888 -4.11734 5.64926 -3.97866Q5.59964 -3.83998 5.54328 -3.7039Q5.48691 -3.56782 5.42394 -3.43467Q5.36096 -3.30152 5.29153 -3.17162Q5.22209 -3.04172 5.14637 -2.91538Q5.07065 -2.78905 4.98882 -2.66658Q4.90699 -2.54411 4.81924 -2.4258Q4.7315 -2.3075 4.63806 -2.19364Q4.54462 -2.07978 4.44571 -1.97065Q4.34679 -1.86151 4.24264 -1.75736Q4.13849 -1.65321 4.02935 -1.55429Q3.92022 -1.45538 3.80636 -1.36194Q3.6925 -1.2685 3.5742 -1.18075Q3.45589 -1.09301 3.33342 -1.01118Q3.21095 -0.929351 3.08462 -0.853628Q2.95828 -0.777905 2.82838 -0.708472Q2.69848 -0.63904 2.56533 -0.576064Q2.43218 -0.513089 2.2961 -0.456723Q2.16002 -0.400357 2.02134 -0.350736Q1.88266 -0.301114 1.74171 -0.258358Q1.60076 -0.215601 1.45788 -0.179812Q1.315 -0.144023 1.17054 -0.115288Q1.02608 -0.0865531 0.880383 -0.0649409Q0.734685 -0.0433288 0.588103 -0.0288916Q0.44152 -0.0144545 0.294406 -0.00722726Q0.147292 0 0 0"/>
	<path fill="none" stroke="black" stroke-width="2.0571427" stroke-linejoin="round" transform="translate(55 79.2857)" d="M-30.0642 -0.625011Q-29.3443 -1.84292 -28.6956 -3.06084Q-28.0427 -4.27875 -27.4944 -5.5134L-24.5438 -5.5134Q-25.5232 -3.59237 -26.5695 -1.7927Q-27.6116 0.00696421 -28.7793 1.82756L-28.7793 6.36857L-31.4537 6.36857L-31.4537 1.86104Q-32.6172 0.044632 -33.6719 -1.77177Q-34.7266 -3.59237 -35.7059 -5.5134L-32.6005 -5.5134Q-32.0522 -4.27875 -31.4202 -3.06084Q-30.784 -1.84292 -30.0642 -0.625011ZM-20.7055 6.36857L-23.2585 6.36857L-23.2585 -2.6465L-20.7055 -2.6465L-20.7055 6.36857ZM-20.4669 -5.25392Q-20.4669 -4.55079 -20.9231 -4.14901Q-21.3751 -3.74722 -21.9904 -3.74722Q-22.6098 -3.74722 -23.066 -4.14901Q-23.518 -4.55079 -23.518 -5.25392Q-23.518 -5.95704 -23.066 -6.35883Q-22.6098 -6.7648 -21.9904 -6.7648Q-21.3751 -6.7648 -20.9231 -6.35883Q-20.4669 -5.95704 -20.4669 -5.25392ZM-18.3049 -2.34097Q-17.6561 -2.52931 -16.6266 -2.69253Q-15.597 -2.85576 -14.467 -2.85576Q-13.316 -2.85576 -12.5543 -2.55442Q-11.7926 -2.25308 -11.3489 -1.70481Q-10.9011 -1.15654 -10.7128 -0.403192Q-10.5244 0.350156 -10.5244 1.2751L-10.5244 6.36857L-13.0775 6.36857L-13.0775 1.58481Q-13.0775 0.350156 -13.4039 -0.160446Q-13.7304 -0.675234 -14.6218 -0.675234Q-14.8939 -0.675234 -15.2036 -0.650123Q-15.5133 -0.625011 -15.7518 -0.591529L-15.7518 6.36857L-18.3049 6.36857L-18.3049 -2.34097ZM0.428998 -0.625011Q1.14886 -1.84292 1.79758 -3.06084Q2.45048 -4.27875 2.99875 -5.5134L5.94937 -5.5134Q4.97001 -3.59237 3.9237 -1.7927Q2.88157 0.00696421 1.71388 1.82756L1.71388 6.36857L-0.96051 6.36857L-0.96051 1.86104Q-2.12401 0.044632 -3.1787 -1.77177Q-4.23339 -3.59237 -5.21274 -5.5134L-2.10727 -5.5134Q-1.559 -4.27875 -0.927028 -3.06084Q-0.290867 -1.84292 0.428998 -0.625011ZM10.6792 4.58565Q11.0558 4.58565 11.399 4.56891Q11.7422 4.55217 11.9473 4.51868L11.9473 2.5809Q11.7924 2.54742 11.4827 2.51394Q11.1772 2.47627 10.9177 2.47627Q10.5578 2.47627 10.2397 2.52231Q9.92581 2.56416 9.68306 2.68554Q9.4445 2.80272 9.30639 3.0078Q9.17246 3.21288 9.17246 3.52259Q9.17246 4.12108 9.57424 4.35546Q9.97603 4.58565 10.6792 4.58565ZM10.4741 -2.88924Q11.6041 -2.88924 12.3574 -2.62975Q13.115 -2.37445 13.567 -1.89315Q14.0232 -1.41603 14.2115 -0.729643Q14.3999 -0.0432587 14.3999 0.79798L14.3999 6.11327Q13.8516 6.23046 12.8722 6.39368Q11.8971 6.55691 10.5076 6.55691Q9.63284 6.55691 8.92134 6.40205Q8.20985 6.2472 7.69506 5.89564Q7.18027 5.54407 6.90404 4.97906Q6.632 4.41405 6.632 3.58955Q6.632 2.80272 6.95008 2.25445Q7.26816 1.70618 7.79969 1.37973Q8.33122 1.05328 9.0176 0.910982Q9.70399 0.764498 10.4406 0.764498Q10.9345 0.764498 11.3195 0.806351Q11.7087 0.848203 11.9473 0.915167L11.9473 0.676607Q11.9473 0.0237055 11.5539 -0.36971Q11.1605 -0.763125 10.1811 -0.763125Q9.53239 -0.763125 8.89623 -0.666864Q8.26007 -0.574788 7.79969 -0.403192L7.47324 -2.45816Q7.69506 -2.52931 8.02988 -2.60464Q8.3647 -2.68416 8.75812 -2.74276Q9.15153 -2.80135 9.5868 -2.8432Q10.0263 -2.88924 10.4741 -2.88924ZM16.7134 -2.34097Q17.3622 -2.52931 18.3917 -2.69253Q19.4213 -2.85576 20.5513 -2.85576Q21.7023 -2.85576 22.464 -2.55442Q23.2257 -2.25308 23.6694 -1.70481Q24.1172 -1.15654 24.3055 -0.403192Q24.4939 0.350156 24.4939 1.2751L24.4939 6.36857L21.9408 6.36857L21.9408 1.58481Q21.9408 0.350156 21.6144 -0.160446Q21.2879 -0.675234 20.3965 -0.675234Q20.1244 -0.675234 19.8147 -0.650123Q19.505 -0.625011 19.2665 -0.591529L19.2665 6.36857L16.7134 6.36857L16.7134 -2.34097ZM28.9856 1.56807Q28.9856 3.71093 30.7183 3.71093Q31.1117 3.71093 31.4549 3.61048Q31.7981 3.50585 32.0367 3.36773L32.0367 -0.712902Q31.8483 -0.746384 31.5888 -0.771495Q31.3335 -0.796607 30.9903 -0.796607Q29.9775 -0.796607 29.4795 -0.126964Q28.9856 0.538493 28.9856 1.56807ZM34.5897 5.23855Q34.5897 7.44837 33.468 8.5198Q32.3464 9.59123 29.9984 9.59123Q29.1739 9.59123 28.3494 9.44474Q27.5291 9.29826 26.826 9.0597L27.2696 6.91684Q27.8723 7.1554 28.5294 7.29352Q29.1907 7.43163 30.0319 7.43163Q31.1285 7.43163 31.5805 6.95032Q32.0367 6.4732 32.0367 5.71567L32.0367 5.3934Q31.6265 5.58174 31.1871 5.678Q30.7518 5.77008 30.237 5.77008Q28.3662 5.77008 27.3701 4.66517Q26.3782 3.55607 26.3782 1.56807Q26.3782 0.576161 26.6879 -0.239966Q26.9976 -1.05609 27.5877 -1.63785Q28.1778 -2.2196 29.0358 -2.53768Q29.8938 -2.85576 30.9736 -2.85576Q31.4382 -2.85576 31.9237 -2.80972Q32.4133 -2.76787 32.8905 -2.69672Q33.3718 -2.62975 33.807 -2.53349Q34.2465 -2.44142 34.5897 -2.34097L34.5897 5.23855Z"/>
	<path fill="#ffffff" transform="translate(55 79.2857)" d="M-30.0642 -0.625011Q-29.3443 -1.84292 -28.6956 -3.06084Q-28.0427 -4.27875 -27.4944 -5.5134L-24.5438 -5.5134Q-25.5232 -3.59237 -26.5695 -1.7927Q-27.6116 0.00696421 -28.7793 1.82756L-28.7793 6.36857L-31.4537 6.36857L-31.4537 1.86104Q-32.6172 0.044632 -33.6719 -1.77177Q-34.7266 -3.59237 -35.7059 -5.5134L-32.6005 -5.5134Q-32.0522 -4.27875 -31.4202 -3.06084Q-30.784 -1.84292 -30.0642 -0.625011ZM-20.7055 6.36857L-23.2585 6.36857L-23.2585 -2.6465L-20.7055 -2.6465L-20.7055 6.36857ZM-20.4669 -5.25392Q-20.4669 -4.55079 -20.9231 -4.14901Q-21.3751 -3.74722 -21.9904 -3.74722Q-22.6098 -3.74722 -23.066 -4.14901Q-23.518 -4.55079 -23.518 -5.25392Q-23.518 -5.95704 -23.066 -6.35883Q-22.6098 -6.7648 -21.9904 -6.7648Q-21.3751 -6.7648 -20.9231 -6.35883Q-20.4669 -5.95704 -20.4669 -5.25392ZM-18.3049 -2.34097Q-17.6561 -2.52931 -16.6266 -2.69253Q-15.597 -2.85576 -14.467 -2.85576Q-13.316 -2.85576 -12.5543 -2.55442Q-11.7926 -2.25308 -11.3489 -1.70481Q-10.9011 -1.15654 -10.7128 -0.403192Q-10.5244 0.350156 -10.5244 1.2751L-10.5244 6.36857L-13.0775 6.36857L-13.0775 1.58481Q-13.0775 0.350156 -13.4039 -0.160446Q-13.7304 -0.675234 -14.6218 -0.675234Q-14.8939 -0.675234 -15.2036 -0.650123Q-15.5133 -0.625011 -15.7518 -0.591529L-15.7518 6.36857L-18.3049 6.36857L-18.3049 -2.34097ZM0.428998 -0.625011Q1.14886 -1.84292 1.79758 -3.06084Q2.45048 -4.27875 2.99875 -5.5134L5.94937 -5.5134Q4.97001 -3.59237 3.9237 -1.7927Q2.88157 0.00696421 1.71388 1.82756L1.71388 6.36857L-0.96051 6.36857L-0.96051 1.86104Q-2.12401 0.044632 -3.1787 -1.77177Q-4.23339 -3.59237 -5.21274 -5.5134L-2.10727 -5.5134Q-1.559 -4.27875 -0.927028 -3.06084Q-0.290867 -1.84292 0.428998 -0.625011ZM10.6792 4.58565Q11.0558 4.58565 11.399 4.56891Q11.7422 4.55217 11.9473 4.51868L11.9473 2.5809Q11.7924 2.54742 11.4827 2.51394Q11.1772 2.47627 10.9177 2.47627Q10.5578 2.47627 10.2397 2.52231Q9.92581 2.56416 9.68306 2.68554Q9.4445 2.80272 9.30639 3.0078Q9.17246 3.21288 9.17246 3.52259Q9.17246 4.12108 9.57424 4.35546Q9.97603 4.58565 10.6792 4.58565ZM10.4741 -2.88924Q11.6041 -2.88924 12.3574 -2.62975Q13.115 -2.37445 13.567 -1.89315Q14.0232 -1.41603 14.2115 -0.729643Q14.3999 -0.0432587 14.3999 0.79798L14.3999 6.11327Q13.8516 6.23046 12.8722 6.39368Q11.8971 6.55691 10.5076 6.55691Q9.63284 6.55691 8.92134 6.40205Q8.20985 6.2472 7.69506 5.89564Q7.18027 5.54407 6.90404 4.97906Q6.632 4.41405 6.632 3.58955Q6.632 2.80272 6.95008 2.25445Q7.26816 1.70618 7.79969 1.37973Q8.33122 1.05328 9.0176 0.910982Q9.70399 0.764498 10.4406 0.764498Q10.9345 0.764498 11.3195 0.806351Q11.7087 0.848203 11.9473 0.915167L11.9473 0.676607Q11.9473 0.0237055 11.5539 -0.36971Q11.1605 -0.763125 10.1811 -0.763125Q9.53239 -0.763125 8.89623 -0.666864Q8.26007 -0.574788 7.79969 -0.403192L7.47324 -2.45816Q7.69506 -2.52931 8.02988 -2.60464Q8.3647 -2.68416 8.75812 -2.74276Q9.15153 -2.80135 9.5868 -2.8432Q10.0263 -2.88924 10.4741 -2.88924ZM16.7134 -2.34097Q17.3622 -2.52931 18.3917 -2.69253Q19.4213 -2.85576 20.5513 -2.85576Q21.7023 -2.85576 22.464 -2.55442Q23.2257 -2.25308 23.6694 -1.70481Q24.1172 -1.15654 24.3055 -0.403192Q24.4939 0.350156 24.4939 1.2751L24.4939 6.36857L21.9408 6.36857L21.9408 1.58481Q21.9408 0.350156 21.6144 -0.160446Q21.2879 -0.675234 20.3965 -0.675234Q20.1244 -0.675234 19.8147 -0.650123Q19.505 -0.625011 19.2665 -0.591529L19.2665 6.36857L16.7134 6.36857L16.7134 -2.34097ZM28.9856 1.56807Q28.9856 3.71093 30.7183 3.71093Q31.1117 3.71093 31.4549 3.61048Q31.7981 3.50585 32.0367 3.36773L32.0367 -0.712902Q31.8483 -0.746384 31.5888 -0.771495Q31.3335 -0.796607 30.9903 -0.796607Q29.9775 -0.796607 29.4795 -0.126964Q28.9856 0.538493 28.9856 1.56807ZM34.5897 5.23855Q34.5897 7.44837 33.468 8.5198Q32.3464 9.59123 29.9984 9.59123Q29.1739 9.59123 28.3494 9.44474Q27.5291 9.29826 26.826 9.0597L27.2696 6.91684Q27.8723 7.1554 28.5294 7.29352Q29.1907 7.43163 30.0319 7.43163Q31.1285 7.43163 31.5805 6.95032Q32.0367 6.4732 32.0367 5.71567L32.0367 5.3934Q31.6265 5.58174 31.1871 5.678Q30.7518 5.77008 30.237 5.77008Q28.3662 5.77008 27.3701 4.66517Q26.3782 3.55607 26.3782 1.56807Q26.3782 0.576161 26.6879 -0.239966Q26.9976 -1.05609 27.5877 -1.63785Q28.1778 -2.2196 29.0358 -2.53768Q29.8938 -2.85576 30.9736 -2.85576Q31.4382 -2.85576 31.9237 -2.80972Q32.4133 -2.76787 32.8905 -2.69672Q33.3718 -2.62975 33.807 -2.53349Q34.2465 -2.44142 34.5897 -2.34097L34.5897 5.23855Z"/>
</svg>
