<?xml version="1.0" encoding="utf-8" ?>
<svg xmlns="http://www.w3.org/2000/svg" xmlns:xlink="http://www.w3.org/1999/xlink" width="110" height="110">
	<path fill="#F7CF2F" transform="matrix(1.42857 0 0 1.42857 55 47.8571)" d="M11 0Q10.0026 5.775 5.5 9.52628Q-5.04867e-07 11.55 -5.5 9.52628Q-10.0026 5.775 -11 -9.61651e-07Q-10.0026 -5.775 -5.5 -9.52628Q1.37732e-07 -11.55 5.5 -9.52628Q10.0026 -5.775 11 1.9233e-06L11 0Z"/>
	<path fill="#C8A826" transform="matrix(1.42857 0 0 1.42857 55 47.8571)" d="M12.4781 0.255287Q11.3868 6.57416 6.46014 10.6787Q6.2611 10.8446 6.01797 10.934Q0 13.1483 -6.01797 10.934Q-6.2611 10.8446 -6.46014 10.6787Q-11.3868 6.57416 -12.4781 0.255286Q-12.5222 -9.61651e-07 -12.4781 -0.255288Q-11.3868 -6.57416 -6.46014 -10.6787Q-6.2611 -10.8445 -6.01797 -10.934Q0 -13.1483 6.01797 -10.934Q6.2611 -10.8446 6.46014 -10.6787Q11.3868 -6.57416 12.4781 -0.255285Q12.5222 1.98291e-06 12.4781 0.255289L12.4781 0.255287ZM9.52188 -0.255285L11 1.9233e-06L9.52188 0.255289Q8.61841 -4.97584 4.53986 -8.37384L5.5 -9.52628L4.98203 -8.11855Q2.86102e-06 -9.95168 -4.98203 -8.11855L-5.5 -9.52628L-4.53986 -8.37384Q-8.61841 -4.97584 -9.52188 0.255286L-11 -9.61651e-07L-9.52188 -0.255288Q-8.61841 4.97584 -4.53986 8.37384L-5.5 9.52628L-4.98203 8.11855Q-9.53674e-07 9.95168 4.98203 8.11855L5.5 9.52628L4.53986 8.37384Q8.61841 4.97584 9.52188 -0.255287L9.52188 -0.255285Z"/>
	<path fill="none" stroke="black" stroke-width="2.3999999" stroke-linejoin="round" transform="translate(55 79.2857)" d="M-20.649 -6.4323L-17.5289 -6.4323L-17.5289 7.43L-20.649 7.43L-20.649 1.55109L-25.8883 1.55109L-25.8883 7.43L-29.0084 7.43L-29.0084 -6.4323L-25.8883 -6.4323L-25.8883 -1.12957L-20.649 -1.12957L-20.649 -6.4323ZM-4.68974 2.15168Q-4.68974 3.39191 -5.05107 4.42219Q-5.4124 5.44758 -6.09111 6.18Q-6.76982 6.91242 -7.72197 7.31281Q-8.66924 7.70832 -9.85088 7.70832Q-11.0081 7.70832 -11.9603 7.31281Q-12.9124 6.91242 -13.5911 6.18Q-14.2698 5.44758 -14.6507 4.42219Q-15.0315 3.39191 -15.0315 2.15168Q-15.0315 0.911445 -14.6409 -0.109063Q-14.2503 -1.12957 -13.5618 -1.84734Q-12.8685 -2.57 -11.9212 -2.97039Q-10.969 -3.37078 -9.85088 -3.37078Q-8.7083 -3.37078 -7.76103 -2.97039Q-6.80888 -2.57 -6.13017 -1.84734Q-5.45146 -1.12957 -5.0706 -0.109063Q-4.68974 0.911445 -4.68974 2.15168ZM-7.73174 2.15168Q-7.73174 0.769844 -8.28349 -0.021172Q-8.83037 -0.812188 -9.85088 -0.812188Q-10.8714 -0.812188 -11.4329 -0.021172Q-11.9895 0.769844 -11.9895 2.15168Q-11.9895 3.52863 -11.4329 4.33918Q-10.8714 5.14973 -9.85088 5.14973Q-8.83037 5.14973 -8.28349 4.33918Q-7.73174 3.52863 -7.73174 2.15168ZM-2.38863 -2.73113Q-1.63179 -2.95086 -0.430618 -3.14129Q0.770554 -3.33172 2.08891 -3.33172Q3.43169 -3.33172 4.32036 -2.98016Q5.20903 -2.62859 5.72661 -1.98895Q6.24907 -1.3493 6.4688 -0.470391Q6.68852 0.408515 6.68852 1.48762L6.68852 7.43L3.71001 7.43L3.71001 1.84895Q3.71001 0.408515 3.32915 -0.187188Q2.94829 -0.787774 1.90825 -0.787774Q1.59087 -0.787774 1.22954 -0.758477Q0.86821 -0.72918 0.58989 -0.690117L0.58989 7.43L-2.38863 7.43L-2.38863 -2.73113ZM8.88843 2.24934Q8.88843 0.847969 9.31812 -0.201836Q9.7478 -1.25164 10.446 -1.94988Q11.1492 -2.64813 12.0574 -3.00945Q12.9705 -3.37078 13.9324 -3.37078Q16.1687 -3.37078 17.4675 -1.99871Q18.7712 -0.631524 18.7712 2.02961Q18.7712 2.2884 18.7517 2.6009Q18.7322 2.90852 18.7078 3.14777L11.95 3.14777Q12.0476 4.07062 12.8093 4.61262Q13.571 5.14973 14.8503 5.14973Q15.6707 5.14973 16.4568 5.00324Q17.2478 4.85187 17.7507 4.63215L18.1511 7.04914Q17.9119 7.17121 17.5115 7.29328Q17.1111 7.41047 16.6179 7.49836Q16.1296 7.59113 15.5681 7.64973Q15.0115 7.70832 14.45 7.70832Q13.0291 7.70832 11.9792 7.2884Q10.9294 6.86848 10.2361 6.14094Q9.54761 5.40852 9.21558 4.41242Q8.88843 3.41145 8.88843 2.24934ZM15.8904 1.11164Q15.8708 0.730781 15.7585 0.369453Q15.6511 0.00812483 15.4216 -0.270195Q15.1921 -0.548516 14.8406 -0.72918Q14.489 -0.909844 13.9714 -0.909844Q13.4685 -0.909844 13.1072 -0.738945Q12.7507 -0.568047 12.5115 -0.289727Q12.2722 -0.0114064 12.1404 0.359687Q12.0085 0.730781 11.95 1.11164L15.8904 1.11164ZM30.4122 -3.08758Q29.5089 -0.0504689 28.5274 2.61066Q27.5508 5.2718 26.3887 7.7718Q25.9688 8.67023 25.5489 9.30012Q25.129 9.93 24.626 10.3402Q24.128 10.7503 23.4981 10.9407Q22.8682 11.1312 22.0284 11.1312Q21.3301 11.1312 20.7393 10.9993Q20.1485 10.8724 19.7676 10.7113L20.2901 8.32844Q20.7491 8.48957 21.1104 8.54816Q21.4717 8.61164 21.8721 8.61164Q22.668 8.61164 23.0977 8.18195Q23.5323 7.75227 23.8301 6.99055Q22.8096 4.98859 21.7891 2.49836Q20.7686 0.00812483 19.8702 -3.08758L23.0294 -3.08758Q23.2296 -2.31121 23.4981 -1.39813Q23.7715 -0.489922 24.0694 0.442695Q24.3721 1.37043 24.6797 2.24934Q24.9922 3.12824 25.2706 3.8509Q25.5294 3.12824 25.8077 2.24934Q26.0909 1.37043 26.3594 0.442695Q26.628 -0.489922 26.877 -1.39813Q27.1309 -2.31121 27.3311 -3.08758L30.4122 -3.08758Z"/>
	<path fill="white" transform="translate(55 79.2857)" d="M-20.649 -6.4323L-17.5289 -6.4323L-17.5289 7.43L-20.649 7.43L-20.649 1.55109L-25.8883 1.55109L-25.8883 7.43L-29.0084 7.43L-29.0084 -6.4323L-25.8883 -6.4323L-25.8883 -1.12957L-20.649 -1.12957L-20.649 -6.4323ZM-4.68974 2.15168Q-4.68974 3.39191 -5.05107 4.42219Q-5.4124 5.44758 -6.09111 6.18Q-6.76982 6.91242 -7.72197 7.31281Q-8.66924 7.70832 -9.85088 7.70832Q-11.0081 7.70832 -11.9603 7.31281Q-12.9124 6.91242 -13.5911 6.18Q-14.2698 5.44758 -14.6507 4.42219Q-15.0315 3.39191 -15.0315 2.15168Q-15.0315 0.911445 -14.6409 -0.109063Q-14.2503 -1.12957 -13.5618 -1.84734Q-12.8685 -2.57 -11.9212 -2.97039Q-10.969 -3.37078 -9.85088 -3.37078Q-8.7083 -3.37078 -7.76103 -2.97039Q-6.80888 -2.57 -6.13017 -1.84734Q-5.45146 -1.12957 -5.0706 -0.109063Q-4.68974 0.911445 -4.68974 2.15168ZM-7.73174 2.15168Q-7.73174 0.769844 -8.28349 -0.021172Q-8.83037 -0.812188 -9.85088 -0.812188Q-10.8714 -0.812188 -11.4329 -0.021172Q-11.9895 0.769844 -11.9895 2.15168Q-11.9895 3.52863 -11.4329 4.33918Q-10.8714 5.14973 -9.85088 5.14973Q-8.83037 5.14973 -8.28349 4.33918Q-7.73174 3.52863 -7.73174 2.15168ZM-2.38863 -2.73113Q-1.63179 -2.95086 -0.430618 -3.14129Q0.770554 -3.33172 2.08891 -3.33172Q3.43169 -3.33172 4.32036 -2.98016Q5.20903 -2.62859 5.72661 -1.98895Q6.24907 -1.3493 6.4688 -0.470391Q6.68852 0.408515 6.68852 1.48762L6.68852 7.43L3.71001 7.43L3.71001 1.84895Q3.71001 0.408515 3.32915 -0.187188Q2.94829 -0.787774 1.90825 -0.787774Q1.59087 -0.787774 1.22954 -0.758477Q0.86821 -0.72918 0.58989 -0.690117L0.58989 7.43L-2.38863 7.43L-2.38863 -2.73113ZM8.88843 2.24934Q8.88843 0.847969 9.31812 -0.201836Q9.7478 -1.25164 10.446 -1.94988Q11.1492 -2.64813 12.0574 -3.00945Q12.9705 -3.37078 13.9324 -3.37078Q16.1687 -3.37078 17.4675 -1.99871Q18.7712 -0.631524 18.7712 2.02961Q18.7712 2.2884 18.7517 2.6009Q18.7322 2.90852 18.7078 3.14777L11.95 3.14777Q12.0476 4.07062 12.8093 4.61262Q13.571 5.14973 14.8503 5.14973Q15.6707 5.14973 16.4568 5.00324Q17.2478 4.85187 17.7507 4.63215L18.1511 7.04914Q17.9119 7.17121 17.5115 7.29328Q17.1111 7.41047 16.6179 7.49836Q16.1296 7.59113 15.5681 7.64973Q15.0115 7.70832 14.45 7.70832Q13.0291 7.70832 11.9792 7.2884Q10.9294 6.86848 10.2361 6.14094Q9.54761 5.40852 9.21558 4.41242Q8.88843 3.41145 8.88843 2.24934ZM15.8904 1.11164Q15.8708 0.730781 15.7585 0.369453Q15.6511 0.00812483 15.4216 -0.270195Q15.1921 -0.548516 14.8406 -0.72918Q14.489 -0.909844 13.9714 -0.909844Q13.4685 -0.909844 13.1072 -0.738945Q12.7507 -0.568047 12.5115 -0.289727Q12.2722 -0.0114064 12.1404 0.359687Q12.0085 0.730781 11.95 1.11164L15.8904 1.11164ZM30.4122 -3.08758Q29.5089 -0.0504689 28.5274 2.61066Q27.5508 5.2718 26.3887 7.7718Q25.9688 8.67023 25.5489 9.30012Q25.129 9.93 24.626 10.3402Q24.128 10.7503 23.4981 10.9407Q22.8682 11.1312 22.0284 11.1312Q21.3301 11.1312 20.7393 10.9993Q20.1485 10.8724 19.7676 10.7113L20.2901 8.32844Q20.7491 8.48957 21.1104 8.54816Q21.4717 8.61164 21.8721 8.61164Q22.668 8.61164 23.0977 8.18195Q23.5323 7.75227 23.8301 6.99055Q22.8096 4.98859 21.7891 2.49836Q20.7686 0.00812483 19.8702 -3.08758L23.0294 -3.08758Q23.2296 -2.31121 23.4981 -1.39813Q23.7715 -0.489922 24.0694 0.442695Q24.3721 1.37043 24.6797 2.24934Q24.9922 3.12824 25.2706 3.8509Q25.5294 3.12824 25.8077 2.24934Q26.0909 1.37043 26.3594 0.442695Q26.628 -0.489922 26.877 -1.39813Q27.1309 -2.31121 27.3311 -3.08758L30.4122 -3.08758Z"/>
</svg>
