<?xml version="1.0" encoding="utf-8" ?>
<svg xmlns="http://www.w3.org/2000/svg" xmlns:xlink="http://www.w3.org/1999/xlink" width="110" height="110">
	<path fill="#B86C32" transform="matrix(0.77186 -1.2021 1.2021 0.77186 55 47.8571)" d="M-18 10L-6 -4L6 -6L8 -14L12 -16L10 -12L12 -2L-2 4L-6 20L-11 14L-18 10Z"/>
	<path fill="#955728" transform="matrix(0.77186 -1.2021 1.2021 0.77186 55 47.8571)" d="M-19.1389 9.02381L-7.13889 -4.97619Q-6.96704 -5.17668 -6.73705 -5.30643Q-6.50707 -5.43618 -6.2466 -5.47959L5.7534 -7.47959L6 -6L4.54479 -6.3638L6.54479 -14.3638Q6.58415 -14.5212 6.65627 -14.6666Q6.72839 -14.812 6.82994 -14.9386Q6.93148 -15.0652 7.05775 -15.1671Q7.18403 -15.2691 7.32918 -15.3416L11.3292 -17.3416Q11.3951 -17.3746 11.4639 -17.4009Q11.5327 -17.4273 11.6038 -17.4467Q11.6749 -17.4662 11.7475 -17.4786Q11.8202 -17.491 11.8937 -17.4962Q11.9672 -17.5014 12.0408 -17.4994Q12.1145 -17.4974 12.1876 -17.4882Q12.2607 -17.479 12.3326 -17.4627Q12.4044 -17.4463 12.4743 -17.423Q12.5443 -17.3997 12.6115 -17.3697Q12.6788 -17.3396 12.7428 -17.3031Q12.8069 -17.2666 12.867 -17.2241Q12.9271 -17.1815 12.9828 -17.1332Q13.0385 -17.0849 13.0891 -17.0314Q13.1398 -16.9779 13.185 -16.9197Q13.2302 -16.8615 13.2694 -16.7991Q13.3087 -16.7367 13.3416 -16.6708Q13.4197 -16.5146 13.4599 -16.3446Q13.5 -16.1746 13.5 -16Q13.5 -15.8253 13.4599 -15.6554Q13.4197 -15.4854 13.3416 -15.3292L11.3416 -11.3292L10 -12L11.4709 -12.2942L13.4709 -2.29417Q13.496 -2.16854 13.4995 -2.04047Q13.5029 -1.9124 13.4846 -1.78559Q13.4663 -1.65879 13.4267 -1.53693Q13.3872 -1.41507 13.3275 -1.30168Q13.2679 -1.18829 13.1899 -1.08666Q13.1119 -0.985026 13.0177 -0.898097Q12.9236 -0.811168 12.8161 -0.74146Q12.7086 -0.671751 12.5909 -0.621282L-1.40912 5.37872L-2 4L-0.544786 4.3638L-4.54479 20.3638Q-4.56266 20.4353 -4.58745 20.5047Q-4.61225 20.5741 -4.64372 20.6407Q-4.6752 20.7073 -4.71305 20.7706Q-4.75091 20.8338 -4.79478 20.893Q-4.83865 20.9522 -4.88811 21.0068Q-4.93757 21.0615 -4.99215 21.111Q-5.04673 21.1605 -5.1059 21.2044Q-5.16507 21.2483 -5.22826 21.2862Q-5.29145 21.3242 -5.35805 21.3557Q-5.42465 21.3872 -5.49402 21.4121Q-5.56339 21.4369 -5.63486 21.4549Q-5.70634 21.4728 -5.77922 21.4837Q-5.85211 21.4945 -5.92571 21.4982Q-5.99931 21.5018 -6.07291 21.4982Q-6.14652 21.4946 -6.21942 21.4839Q-6.29231 21.4731 -6.3638 21.4552Q-6.59532 21.3973 -6.79744 21.2705Q-6.99956 21.1436 -7.15233 20.9603L-12.1523 14.9603L-11 14L-11.7442 15.3024L-18.7442 11.3024Q-18.8082 11.2658 -18.8683 11.2231Q-18.9284 11.1805 -18.984 11.1322Q-19.0396 11.0838 -19.0902 11.0303Q-19.1408 10.9767 -19.186 10.9184Q-19.2311 10.8602 -19.2703 10.7978Q-19.3095 10.7354 -19.3423 10.6694Q-19.3752 10.6035 -19.4015 10.5346Q-19.4278 10.4658 -19.4471 10.3947Q-19.4665 10.3236 -19.4789 10.2509Q-19.4912 10.1783 -19.4963 10.1048Q-19.5015 10.0313 -19.4994 9.9576Q-19.4973 9.88394 -19.488 9.81083Q-19.4787 9.73773 -19.4623 9.66589Q-19.4459 9.59405 -19.4225 9.52417Q-19.3992 9.45428 -19.369 9.38703Q-19.3389 9.31977 -19.3024 9.25579Q-19.2316 9.13204 -19.1389 9.02381ZM-16.8611 10.9762L-18 10L-17.2558 8.69764L-10.2558 12.6976Q-10.0209 12.8319 -9.84767 13.0397L-4.84767 19.0397L-6 20L-7.45521 19.6362L-3.45521 3.6362Q-3.41315 3.46793 -3.3338 3.31371Q-3.25444 3.15949 -3.14199 3.02744Q-3.02953 2.8954 -2.88992 2.7925Q-2.7503 2.6896 -2.59088 2.62128L11.4091 -3.37872L12 -2L10.5291 -1.70583L8.52913 -11.7058Q8.48007 -11.9511 8.51327 -12.1991Q8.54648 -12.4471 8.65836 -12.6708L10.6584 -16.6708L12 -16L12.6708 -14.6584L8.67082 -12.6584L8 -14L9.45521 -13.6362L7.45521 -5.6362Q7.42878 -5.53045 7.38733 -5.42963Q7.34588 -5.32882 7.29029 -5.23505Q7.2347 -5.14129 7.16614 -5.05654Q7.09758 -4.9718 7.01749 -4.89786Q6.9374 -4.82392 6.84746 -4.76234Q6.75752 -4.70075 6.65962 -4.65282Q6.56172 -4.60488 6.45792 -4.57161Q6.35412 -4.53833 6.2466 -4.52041L-5.7534 -2.52041L-6 -4L-4.86111 -3.02381L-16.8611 10.9762Z"/>
	<path fill="none" stroke="black" stroke-width="2.3999999" stroke-linejoin="round" transform="translate(55 79.2857)" d="M-17.5908 -6.58855Q-14.4707 -6.58855 -12.8105 -5.48016Q-11.1504 -4.37176 -11.1504 -2.02801Q-11.1504 -0.568047 -11.8193 0.340156Q-12.4883 1.24836 -13.748 1.77082Q-13.3281 2.2884 -12.8691 2.96223Q-12.4101 3.63117 -11.9609 4.36359Q-11.5117 5.09113 -11.0918 5.88215Q-10.6718 6.66828 -10.3105 7.43L-13.8115 7.43Q-14.1924 6.75129 -14.583 6.05305Q-14.9687 5.34992 -15.3789 4.69074Q-15.789 4.03156 -16.1894 3.44074Q-16.5898 2.84992 -16.9902 2.37141L-18.5283 2.37141L-18.5283 7.43L-21.6484 7.43L-21.6484 -6.23211Q-20.6279 -6.4323 -19.539 -6.51043Q-18.4502 -6.58855 -17.5908 -6.58855ZM-17.4101 -3.9323Q-17.7519 -3.9323 -18.0205 -3.90789Q-18.289 -3.88836 -18.5283 -3.86883L-18.5283 -0.109063L-17.6494 -0.109063Q-15.8916 -0.109063 -15.1299 -0.548516Q-14.3681 -0.987969 -14.3681 -2.05242Q-14.3681 -3.06805 -15.1396 -3.49773Q-15.9111 -3.9323 -17.4101 -3.9323ZM1.33025 2.15168Q1.33025 3.39191 0.968918 4.42219Q0.60759 5.44758 -0.0711212 6.18Q-0.749832 6.91242 -1.70198 7.31281Q-2.64925 7.70832 -3.83089 7.70832Q-4.98811 7.70832 -5.94026 7.31281Q-6.89241 6.91242 -7.57112 6.18Q-8.24983 5.44758 -8.63069 4.42219Q-9.01155 3.39191 -9.01155 2.15168Q-9.01155 0.911445 -8.62093 -0.109063Q-8.2303 -1.12957 -7.54182 -1.84734Q-6.84846 -2.57 -5.9012 -2.97039Q-4.94905 -3.37078 -3.83089 -3.37078Q-2.68831 -3.37078 -1.74104 -2.97039Q-0.788895 -2.57 -0.110184 -1.84734Q0.568527 -1.12957 0.949387 -0.109063Q1.33025 0.911445 1.33025 2.15168ZM-1.71175 2.15168Q-1.71175 0.769844 -2.2635 -0.021172Q-2.81038 -0.812188 -3.83089 -0.812188Q-4.85139 -0.812188 -5.41292 -0.021172Q-5.96956 0.769844 -5.96956 2.15168Q-5.96956 3.52863 -5.41292 4.33918Q-4.85139 5.14973 -3.83089 5.14973Q-2.81038 5.14973 -2.2635 4.33918Q-1.71175 3.52863 -1.71175 2.15168ZM13.4702 2.15168Q13.4702 3.39191 13.1089 4.42219Q12.7476 5.44758 12.0689 6.18Q11.3902 6.91242 10.438 7.31281Q9.49074 7.70832 8.3091 7.70832Q7.15187 7.70832 6.19972 7.31281Q5.24757 6.91242 4.56886 6.18Q3.89015 5.44758 3.50929 4.42219Q3.12843 3.39191 3.12843 2.15168Q3.12843 0.911445 3.51906 -0.109063Q3.90968 -1.12957 4.59816 -1.84734Q5.29152 -2.57 6.23878 -2.97039Q7.19093 -3.37078 8.3091 -3.37078Q9.45168 -3.37078 10.3989 -2.97039Q11.3511 -2.57 12.0298 -1.84734Q12.7085 -1.12957 13.0894 -0.109063Q13.4702 0.911445 13.4702 2.15168ZM10.4282 2.15168Q10.4282 0.769844 9.87648 -0.021172Q9.32961 -0.812188 8.3091 -0.812188Q7.28859 -0.812188 6.72707 -0.021172Q6.17043 0.769844 6.17043 2.15168Q6.17043 3.52863 6.72707 4.33918Q7.28859 5.14973 8.3091 5.14973Q9.32961 5.14973 9.87648 4.33918Q10.4282 3.52863 10.4282 2.15168ZM15.6688 -5.70965L18.6522 -6.18816L18.6522 -3.08758L22.2313 -3.08758L22.2313 -0.611992L18.6522 -0.611992L18.6522 3.08918Q18.6522 4.03156 18.9794 4.59309Q19.3114 5.14973 20.3124 5.14973Q20.7909 5.14973 21.2987 5.06184Q21.8114 4.96906 22.2313 4.80793L22.6512 7.13215Q22.1092 7.35187 21.4501 7.50812Q20.7909 7.66926 19.829 7.66926Q18.6083 7.66926 17.8075 7.34211Q17.0116 7.01008 16.5282 6.41926Q16.0497 5.82844 15.8592 4.98859Q15.6688 4.14875 15.6688 3.12824L15.6688 -5.70965Z"/>
	<path fill="white" transform="translate(55 79.2857)" d="M-17.5908 -6.58855Q-14.4707 -6.58855 -12.8105 -5.48016Q-11.1504 -4.37176 -11.1504 -2.02801Q-11.1504 -0.568047 -11.8193 0.340156Q-12.4883 1.24836 -13.748 1.77082Q-13.3281 2.2884 -12.8691 2.96223Q-12.4101 3.63117 -11.9609 4.36359Q-11.5117 5.09113 -11.0918 5.88215Q-10.6718 6.66828 -10.3105 7.43L-13.8115 7.43Q-14.1924 6.75129 -14.583 6.05305Q-14.9687 5.34992 -15.3789 4.69074Q-15.789 4.03156 -16.1894 3.44074Q-16.5898 2.84992 -16.9902 2.37141L-18.5283 2.37141L-18.5283 7.43L-21.6484 7.43L-21.6484 -6.23211Q-20.6279 -6.4323 -19.539 -6.51043Q-18.4502 -6.58855 -17.5908 -6.58855ZM-17.4101 -3.9323Q-17.7519 -3.9323 -18.0205 -3.90789Q-18.289 -3.88836 -18.5283 -3.86883L-18.5283 -0.109063L-17.6494 -0.109063Q-15.8916 -0.109063 -15.1299 -0.548516Q-14.3681 -0.987969 -14.3681 -2.05242Q-14.3681 -3.06805 -15.1396 -3.49773Q-15.9111 -3.9323 -17.4101 -3.9323ZM1.33025 2.15168Q1.33025 3.39191 0.968918 4.42219Q0.60759 5.44758 -0.0711212 6.18Q-0.749832 6.91242 -1.70198 7.31281Q-2.64925 7.70832 -3.83089 7.70832Q-4.98811 7.70832 -5.94026 7.31281Q-6.89241 6.91242 -7.57112 6.18Q-8.24983 5.44758 -8.63069 4.42219Q-9.01155 3.39191 -9.01155 2.15168Q-9.01155 0.911445 -8.62093 -0.109063Q-8.2303 -1.12957 -7.54182 -1.84734Q-6.84846 -2.57 -5.9012 -2.97039Q-4.94905 -3.37078 -3.83089 -3.37078Q-2.68831 -3.37078 -1.74104 -2.97039Q-0.788895 -2.57 -0.110184 -1.84734Q0.568527 -1.12957 0.949387 -0.109063Q1.33025 0.911445 1.33025 2.15168ZM-1.71175 2.15168Q-1.71175 0.769844 -2.2635 -0.021172Q-2.81038 -0.812188 -3.83089 -0.812188Q-4.85139 -0.812188 -5.41292 -0.021172Q-5.96956 0.769844 -5.96956 2.15168Q-5.96956 3.52863 -5.41292 4.33918Q-4.85139 5.14973 -3.83089 5.14973Q-2.81038 5.14973 -2.2635 4.33918Q-1.71175 3.52863 -1.71175 2.15168ZM13.4702 2.15168Q13.4702 3.39191 13.1089 4.42219Q12.7476 5.44758 12.0689 6.18Q11.3902 6.91242 10.438 7.31281Q9.49074 7.70832 8.3091 7.70832Q7.15187 7.70832 6.19972 7.31281Q5.24757 6.91242 4.56886 6.18Q3.89015 5.44758 3.50929 4.42219Q3.12843 3.39191 3.12843 2.15168Q3.12843 0.911445 3.51906 -0.109063Q3.90968 -1.12957 4.59816 -1.84734Q5.29152 -2.57 6.23878 -2.97039Q7.19093 -3.37078 8.3091 -3.37078Q9.45168 -3.37078 10.3989 -2.97039Q11.3511 -2.57 12.0298 -1.84734Q12.7085 -1.12957 13.0894 -0.109063Q13.4702 0.911445 13.4702 2.15168ZM10.4282 2.15168Q10.4282 0.769844 9.87648 -0.021172Q9.32961 -0.812188 8.3091 -0.812188Q7.28859 -0.812188 6.72707 -0.021172Q6.17043 0.769844 6.17043 2.15168Q6.17043 3.52863 6.72707 4.33918Q7.28859 5.14973 8.3091 5.14973Q9.32961 5.14973 9.87648 4.33918Q10.4282 3.52863 10.4282 2.15168ZM15.6688 -5.70965L18.6522 -6.18816L18.6522 -3.08758L22.2313 -3.08758L22.2313 -0.611992L18.6522 -0.611992L18.6522 3.08918Q18.6522 4.03156 18.9794 4.59309Q19.3114 5.14973 20.3124 5.14973Q20.7909 5.14973 21.2987 5.06184Q21.8114 4.96906 22.2313 4.80793L22.6512 7.13215Q22.1092 7.35187 21.4501 7.50812Q20.7909 7.66926 19.829 7.66926Q18.6083 7.66926 17.8075 7.34211Q17.0116 7.01008 16.5282 6.41926Q16.0497 5.82844 15.8592 4.98859Q15.6688 4.14875 15.6688 3.12824L15.6688 -5.70965Z"/>
</svg>
