<?xml version="1.0" encoding="utf-8" ?>
<svg xmlns="http://www.w3.org/2000/svg" xmlns:xlink="http://www.w3.org/1999/xlink" width="110" height="110">
	<path fill="#29F2E5" transform="matrix(1.42857 0 0 1.42857 55 47.8571)" d="M5 0L9.51057 3.09017L4.04508 2.93893L5.87785 8.09017L1.54508 4.75528L-4.37114e-07 10L-1.54509 4.75528L-5.87785 8.09017L-4.04509 2.93893L-9.51056 3.09017L-5 -4.37114e-07L-9.51057 -3.09017L-4.04508 -2.93893L-5.87785 -8.09017L-1.54509 -4.75528L1.19249e-07 -10L1.54509 -4.75528L5.87785 -8.09017L4.04508 -2.93893L9.51057 -3.09017L5 0Z"/>
	<path fill="#21C4B9" transform="matrix(1.42857 0 0 1.42857 55 47.8571)" d="M5.28259 -0.412483L11.1933 3.63693L4.03125 3.43874L4.04508 2.93893L4.51616 2.77132L6.91785 9.5216L1.24012 5.15151L1.54508 4.75528L2.02471 4.89658L-5.47056e-07 11.7693L-2.02471 4.89658L-1.54509 4.75528L-1.24012 5.15151L-6.91785 9.5216L-4.51616 2.77132L-4.04509 2.93893L-4.03125 3.43873L-11.1933 3.63693L-5.28259 -0.412484L-5 -4.37114e-07L-5.28259 0.412483L-11.1933 -3.63693L-4.03125 -3.43874L-4.04508 -2.93893L-4.51616 -2.77132L-6.91784 -9.5216L-1.24012 -5.15151L-1.54509 -4.75528L-2.02471 -4.89658L1.19249e-07 -11.7693L2.02471 -4.89658L1.54509 -4.75528L1.24012 -5.15151L6.91784 -9.5216L4.51616 -2.77132L4.04508 -2.93893L4.03125 -3.43874L11.1933 -3.63693L5.28259 0.412483L5 0L5.28259 -0.412483ZM4.11533 -3.19592e-08L9.22797 -3.50265L9.51057 -3.09017L9.5244 -2.59036L3.32937 -2.41893L5.40678 -8.25777L5.87785 -8.09017L6.18282 -7.69395L1.27171 -3.91391L-0.47962 -9.8587L1.19249e-07 -10L0.47962 -9.8587L-1.27171 -3.91391L-6.18282 -7.69395L-5.87785 -8.09017L-5.40678 -8.25777L-3.32937 -2.41893L-9.5244 -2.59036L-9.51057 -3.09017L-9.22797 -3.50265L-4.11533 -5.9691e-07L-9.22797 3.50265L-9.51056 3.09017L-9.5244 2.59036L-3.32937 2.41893L-5.40678 8.25777L-5.87785 8.09017L-6.18282 7.69395L-1.27171 3.91391L0.47962 9.8587L-4.37114e-07 10L-0.479621 9.8587L1.27171 3.91391L6.18282 7.69395L5.87785 8.09017L5.40678 8.25777L3.32937 2.41893L9.5244 2.59036L9.51057 3.09017L9.22797 3.50265L4.71741 0.412483L4.11533 -3.19592e-08Z"/>
	<path fill="none" stroke="black" stroke-width="1.8857143" stroke-linejoin="round" transform="translate(55 79.2857)" d="M-27.1139 3.73162L-27.1139 5.83786L-34.3879 5.83786L-34.3879 -5.05395L-31.9364 -5.05395L-31.9364 3.73162L-27.1139 3.73162ZM-23.364 5.83786L-25.7043 5.83786L-25.7043 -2.42595L-23.364 -2.42595L-23.364 5.83786ZM-23.1454 -4.81609Q-23.1454 -4.17156 -23.5635 -3.80326Q-23.9779 -3.43495 -24.5418 -3.43495Q-25.1096 -3.43495 -25.5278 -3.80326Q-25.9422 -4.17156 -25.9422 -4.81609Q-25.9422 -5.46062 -25.5278 -5.82893Q-25.1096 -6.20107 -24.5418 -6.20107Q-23.9779 -6.20107 -23.5635 -5.82893Q-23.1454 -5.46062 -23.1454 -4.81609ZM-19.1711 1.4374Q-19.1711 3.40168 -17.5828 3.40168Q-17.2222 3.40168 -16.9076 3.30961Q-16.593 3.21369 -16.3743 3.08709L-16.3743 -0.653494Q-16.5469 -0.684186 -16.7848 -0.707205Q-17.0188 -0.730224 -17.3334 -0.730224Q-18.2618 -0.730224 -18.7184 -0.116385Q-19.1711 0.493618 -19.1711 1.4374ZM-14.034 4.802Q-14.034 6.82767 -15.0622 7.80982Q-16.0904 8.79196 -18.2427 8.79196Q-18.9985 8.79196 -19.7542 8.65768Q-20.5062 8.5234 -21.1507 8.30472L-20.7441 6.34044Q-20.1916 6.55912 -19.5893 6.68572Q-18.9831 6.81233 -18.212 6.81233Q-17.2068 6.81233 -16.7925 6.37113Q-16.3743 5.93377 -16.3743 5.23936L-16.3743 4.94395Q-16.7503 5.1166 -17.1531 5.20483Q-17.5521 5.28924 -18.024 5.28924Q-19.7389 5.28924 -20.652 4.2764Q-21.5612 3.25973 -21.5612 1.4374Q-21.5612 0.528147 -21.2773 -0.21997Q-20.9934 -0.968086 -20.4525 -1.50136Q-19.9115 -2.03463 -19.1251 -2.32621Q-18.3386 -2.61778 -17.3488 -2.61778Q-16.9229 -2.61778 -16.4779 -2.57558Q-16.029 -2.53721 -15.5916 -2.47199Q-15.1505 -2.41061 -14.7515 -2.32237Q-14.3486 -2.23797 -14.034 -2.14589L-14.034 4.802ZM-11.8384 5.83786L-11.8384 -5.97855L-9.49812 -6.35453L-9.49812 -2.39526Q-9.26409 -2.47583 -8.89579 -2.54489Q-8.52365 -2.61778 -8.17836 -2.61778Q-7.1732 -2.61778 -6.50565 -2.34155Q-5.8381 -2.06532 -5.4391 -1.56274Q-5.03627 -1.06016 -4.8713 -0.369593Q-4.70633 0.320976 -4.70633 1.16884L-4.70633 5.83786L-7.0466 5.83786L-7.0466 1.45274Q-7.0466 0.320976 -7.33817 -0.147076Q-7.62974 -0.618965 -8.41239 -0.618965Q-8.72698 -0.618965 -9.00321 -0.565254Q-9.27944 -0.511543 -9.49812 -0.446323L-9.49812 5.83786L-11.8384 5.83786ZM-2.66975 -4.48615L-0.325655 -4.86213L-0.325655 -2.42595L2.4865 -2.42595L2.4865 -0.480852L-0.325655 -0.480852L-0.325655 2.42721Q-0.325655 3.16766 -0.06861 3.60885Q0.192272 4.04621 0.978753 4.04621Q1.35473 4.04621 1.75373 3.97716Q2.15656 3.90426 2.4865 3.77766L2.81643 5.60383Q2.39058 5.77647 1.87266 5.89924Q1.35473 6.02585 0.59894 6.02585Q-0.360184 6.02585 -0.989369 5.7688Q-1.61472 5.50792 -1.99453 5.0437Q-2.37051 4.57949 -2.52013 3.91961Q-2.66975 3.25973 -2.66975 2.4579L-2.66975 -4.48615ZM4.38304 -2.14589Q4.9777 -2.31853 5.92148 -2.46816Q6.86525 -2.61778 7.90111 -2.61778Q8.95614 -2.61778 9.65439 -2.34155Q10.3526 -2.06532 10.7593 -1.56274Q11.1698 -1.06016 11.3424 -0.369593Q11.5151 0.320976 11.5151 1.16884L11.5151 5.83786L9.17482 5.83786L9.17482 1.45274Q9.17482 0.320976 8.87558 -0.147076Q8.57633 -0.618965 7.75916 -0.618965Q7.50979 -0.618965 7.22588 -0.595946Q6.94198 -0.572927 6.7233 -0.542235L6.7233 5.83786L4.38304 5.83786L4.38304 -2.14589ZM15.9725 5.83786L13.6322 5.83786L13.6322 -2.42595L15.9725 -2.42595L15.9725 5.83786ZM16.1912 -4.81609Q16.1912 -4.17156 15.773 -3.80326Q15.3587 -3.43495 14.7947 -3.43495Q14.2269 -3.43495 13.8087 -3.80326Q13.3944 -4.17156 13.3944 -4.81609Q13.3944 -5.46062 13.8087 -5.82893Q14.2269 -6.20107 14.7947 -6.20107Q15.3587 -6.20107 15.773 -5.82893Q16.1912 -5.46062 16.1912 -4.81609ZM18.1705 -2.14589Q18.7651 -2.31853 19.7089 -2.46816Q20.6527 -2.61778 21.6885 -2.61778Q22.7436 -2.61778 23.4418 -2.34155Q24.14 -2.06532 24.5467 -1.56274Q24.9572 -1.06016 25.1299 -0.369593Q25.3025 0.320976 25.3025 1.16884L25.3025 5.83786L22.9622 5.83786L22.9622 1.45274Q22.9622 0.320976 22.663 -0.147076Q22.3637 -0.618965 21.5466 -0.618965Q21.2972 -0.618965 21.0133 -0.595946Q20.7294 -0.572927 20.5107 -0.542235L20.5107 5.83786L18.1705 5.83786L18.1705 -2.14589ZM29.4146 1.4374Q29.4146 3.40168 31.0029 3.40168Q31.3636 3.40168 31.6782 3.30961Q31.9928 3.21369 32.2114 3.08709L32.2114 -0.653494Q32.0388 -0.684186 31.8009 -0.707205Q31.5669 -0.730224 31.2523 -0.730224Q30.3239 -0.730224 29.8673 -0.116385Q29.4146 0.493618 29.4146 1.4374ZM34.5517 4.802Q34.5517 6.82767 33.5235 7.80982Q32.4953 8.79196 30.3431 8.79196Q29.5873 8.79196 28.8315 8.65768Q28.0795 8.5234 27.435 8.30472L27.8417 6.34044Q28.3941 6.55912 28.9964 6.68572Q29.6026 6.81233 30.3737 6.81233Q31.3789 6.81233 31.7933 6.37113Q32.2114 5.93377 32.2114 5.23936L32.2114 4.94395Q31.8355 5.1166 31.4326 5.20483Q31.0336 5.28924 30.5617 5.28924Q28.8468 5.28924 27.9337 4.2764Q27.0245 3.25973 27.0245 1.4374Q27.0245 0.528147 27.3084 -0.21997Q27.5923 -0.968086 28.1332 -1.50136Q28.6742 -2.03463 29.4607 -2.32621Q30.2471 -2.61778 31.237 -2.61778Q31.6628 -2.61778 32.1078 -2.57558Q32.5567 -2.53721 32.9941 -2.47199Q33.4353 -2.41061 33.8343 -2.32237Q34.2371 -2.23797 34.5517 -2.14589L34.5517 4.802Z"/>
	<path fill="white" transform="translate(55 79.2857)" d="M-27.1139 3.73162L-27.1139 5.83786L-34.3879 5.83786L-34.3879 -5.05395L-31.9364 -5.05395L-31.9364 3.73162L-27.1139 3.73162ZM-23.364 5.83786L-25.7043 5.83786L-25.7043 -2.42595L-23.364 -2.42595L-23.364 5.83786ZM-23.1454 -4.81609Q-23.1454 -4.17156 -23.5635 -3.80326Q-23.9779 -3.43495 -24.5418 -3.43495Q-25.1096 -3.43495 -25.5278 -3.80326Q-25.9422 -4.17156 -25.9422 -4.81609Q-25.9422 -5.46062 -25.5278 -5.82893Q-25.1096 -6.20107 -24.5418 -6.20107Q-23.9779 -6.20107 -23.5635 -5.82893Q-23.1454 -5.46062 -23.1454 -4.81609ZM-19.1711 1.4374Q-19.1711 3.40168 -17.5828 3.40168Q-17.2222 3.40168 -16.9076 3.30961Q-16.593 3.21369 -16.3743 3.08709L-16.3743 -0.653494Q-16.5469 -0.684186 -16.7848 -0.707205Q-17.0188 -0.730224 -17.3334 -0.730224Q-18.2618 -0.730224 -18.7184 -0.116385Q-19.1711 0.493618 -19.1711 1.4374ZM-14.034 4.802Q-14.034 6.82767 -15.0622 7.80982Q-16.0904 8.79196 -18.2427 8.79196Q-18.9985 8.79196 -19.7542 8.65768Q-20.5062 8.5234 -21.1507 8.30472L-20.7441 6.34044Q-20.1916 6.55912 -19.5893 6.68572Q-18.9831 6.81233 -18.212 6.81233Q-17.2068 6.81233 -16.7925 6.37113Q-16.3743 5.93377 -16.3743 5.23936L-16.3743 4.94395Q-16.7503 5.1166 -17.1531 5.20483Q-17.5521 5.28924 -18.024 5.28924Q-19.7389 5.28924 -20.652 4.2764Q-21.5612 3.25973 -21.5612 1.4374Q-21.5612 0.528147 -21.2773 -0.21997Q-20.9934 -0.968086 -20.4525 -1.50136Q-19.9115 -2.03463 -19.1251 -2.32621Q-18.3386 -2.61778 -17.3488 -2.61778Q-16.9229 -2.61778 -16.4779 -2.57558Q-16.029 -2.53721 -15.5916 -2.47199Q-15.1505 -2.41061 -14.7515 -2.32237Q-14.3486 -2.23797 -14.034 -2.14589L-14.034 4.802ZM-11.8384 5.83786L-11.8384 -5.97855L-9.49812 -6.35453L-9.49812 -2.39526Q-9.26409 -2.47583 -8.89579 -2.54489Q-8.52365 -2.61778 -8.17836 -2.61778Q-7.1732 -2.61778 -6.50565 -2.34155Q-5.8381 -2.06532 -5.4391 -1.56274Q-5.03627 -1.06016 -4.8713 -0.369593Q-4.70633 0.320976 -4.70633 1.16884L-4.70633 5.83786L-7.0466 5.83786L-7.0466 1.45274Q-7.0466 0.320976 -7.33817 -0.147076Q-7.62974 -0.618965 -8.41239 -0.618965Q-8.72698 -0.618965 -9.00321 -0.565254Q-9.27944 -0.511543 -9.49812 -0.446323L-9.49812 5.83786L-11.8384 5.83786ZM-2.66975 -4.48615L-0.325655 -4.86213L-0.325655 -2.42595L2.4865 -2.42595L2.4865 -0.480852L-0.325655 -0.480852L-0.325655 2.42721Q-0.325655 3.16766 -0.06861 3.60885Q0.192272 4.04621 0.978753 4.04621Q1.35473 4.04621 1.75373 3.97716Q2.15656 3.90426 2.4865 3.77766L2.81643 5.60383Q2.39058 5.77647 1.87266 5.89924Q1.35473 6.02585 0.59894 6.02585Q-0.360184 6.02585 -0.989369 5.7688Q-1.61472 5.50792 -1.99453 5.0437Q-2.37051 4.57949 -2.52013 3.91961Q-2.66975 3.25973 -2.66975 2.4579L-2.66975 -4.48615ZM4.38304 -2.14589Q4.9777 -2.31853 5.92148 -2.46816Q6.86525 -2.61778 7.90111 -2.61778Q8.95614 -2.61778 9.65439 -2.34155Q10.3526 -2.06532 10.7593 -1.56274Q11.1698 -1.06016 11.3424 -0.369593Q11.5151 0.320976 11.5151 1.16884L11.5151 5.83786L9.17482 5.83786L9.17482 1.45274Q9.17482 0.320976 8.87558 -0.147076Q8.57633 -0.618965 7.75916 -0.618965Q7.50979 -0.618965 7.22588 -0.595946Q6.94198 -0.572927 6.7233 -0.542235L6.7233 5.83786L4.38304 5.83786L4.38304 -2.14589ZM15.9725 5.83786L13.6322 5.83786L13.6322 -2.42595L15.9725 -2.42595L15.9725 5.83786ZM16.1912 -4.81609Q16.1912 -4.17156 15.773 -3.80326Q15.3587 -3.43495 14.7947 -3.43495Q14.2269 -3.43495 13.8087 -3.80326Q13.3944 -4.17156 13.3944 -4.81609Q13.3944 -5.46062 13.8087 -5.82893Q14.2269 -6.20107 14.7947 -6.20107Q15.3587 -6.20107 15.773 -5.82893Q16.1912 -5.46062 16.1912 -4.81609ZM18.1705 -2.14589Q18.7651 -2.31853 19.7089 -2.46816Q20.6527 -2.61778 21.6885 -2.61778Q22.7436 -2.61778 23.4418 -2.34155Q24.14 -2.06532 24.5467 -1.56274Q24.9572 -1.06016 25.1299 -0.369593Q25.3025 0.320976 25.3025 1.16884L25.3025 5.83786L22.9622 5.83786L22.9622 1.45274Q22.9622 0.320976 22.663 -0.147076Q22.3637 -0.618965 21.5466 -0.618965Q21.2972 -0.618965 21.0133 -0.595946Q20.7294 -0.572927 20.5107 -0.542235L20.5107 5.83786L18.1705 5.83786L18.1705 -2.14589ZM29.4146 1.4374Q29.4146 3.40168 31.0029 3.40168Q31.3636 3.40168 31.6782 3.30961Q31.9928 3.21369 32.2114 3.08709L32.2114 -0.653494Q32.0388 -0.684186 31.8009 -0.707205Q31.5669 -0.730224 31.2523 -0.730224Q30.3239 -0.730224 29.8673 -0.116385Q29.4146 0.493618 29.4146 1.4374ZM34.5517 4.802Q34.5517 6.82767 33.5235 7.80982Q32.4953 8.79196 30.3431 8.79196Q29.5873 8.79196 28.8315 8.65768Q28.0795 8.5234 27.435 8.30472L27.8417 6.34044Q28.3941 6.55912 28.9964 6.68572Q29.6026 6.81233 30.3737 6.81233Q31.3789 6.81233 31.7933 6.37113Q32.2114 5.93377 32.2114 5.23936L32.2114 4.94395Q31.8355 5.1166 31.4326 5.20483Q31.0336 5.28924 30.5617 5.28924Q28.8468 5.28924 27.9337 4.2764Q27.0245 3.25973 27.0245 1.4374Q27.0245 0.528147 27.3084 -0.21997Q27.5923 -0.968086 28.1332 -1.50136Q28.6742 -2.03463 29.4607 -2.32621Q30.2471 -2.61778 31.237 -2.61778Q31.6628 -2.61778 32.1078 -2.57558Q32.5567 -2.53721 32.9941 -2.47199Q33.4353 -2.41061 33.8343 -2.32237Q34.2371 -2.23797 34.5517 -2.14589L34.5517 4.802Z"/>
</svg>
