<?xml version="1.0" encoding="utf-8" ?>
<svg xmlns="http://www.w3.org/2000/svg" xmlns:xlink="http://www.w3.org/1999/xlink" width="110" height="110">
	<path fill="#709D45" transform="matrix(1.42857 0 0 1.42857 67.1429 47.8571)" d="M8.5 0Q8.5 0.208663 8.48976 0.417075Q8.47952 0.625487 8.45907 0.833146Q8.43862 1.0408 8.408 1.24721Q8.37738 1.45361 8.33667 1.65827Q8.29597 1.86292 8.24527 2.06533Q8.19456 2.26774 8.13399 2.46742Q8.07342 2.6671 8.00312 2.86356Q7.93283 3.06003 7.85298 3.25281Q7.77312 3.44559 7.68391 3.63422Q7.59469 3.82285 7.49633 4.00687Q7.39797 4.1909 7.29069 4.36987Q7.18342 4.54885 7.06749 4.72235Q6.95156 4.89584 6.82726 5.06344Q6.70296 5.23104 6.57059 5.39234Q6.43821 5.55364 6.29808 5.70825Q6.15795 5.86286 6.01041 6.01041Q5.86286 6.15795 5.70825 6.29808Q5.55364 6.43821 5.39234 6.57059Q5.23104 6.70296 5.06344 6.82726Q4.89584 6.95156 4.72235 7.06749Q4.54885 7.18342 4.36987 7.29069Q4.1909 7.39797 4.00687 7.49633Q3.82285 7.59469 3.63422 7.68391Q3.44559 7.77312 3.25281 7.85298Q3.06003 7.93283 2.86356 8.00312Q2.6671 8.07342 2.46742 8.13399Q2.26774 8.19456 2.06533 8.24527Q1.86292 8.29597 1.65827 8.33667Q1.45361 8.37738 1.24721 8.408Q1.0408 8.43862 0.833146 8.45907Q0.625487 8.47952 0.417075 8.48976Q0.208663 8.5 0 8.5Q-0.208663 8.5 -0.417075 8.48976Q-0.625487 8.47952 -0.833146 8.45907Q-1.0408 8.43862 -1.24721 8.408Q-1.45361 8.37738 -1.65827 8.33667Q-1.86292 8.29597 -2.06533 8.24527Q-2.26774 8.19456 -2.46742 8.13399Q-2.6671 8.07342 -2.86356 8.00312Q-3.06003 7.93283 -3.25281 7.85298Q-3.44559 7.77312 -3.63422 7.68391Q-3.82285 7.59469 -4.00687 7.49633Q-4.1909 7.39797 -4.36987 7.29069Q-4.54885 7.18342 -4.72235 7.06749Q-4.89584 6.95156 -5.06344 6.82726Q-5.23104 6.70296 -5.39234 6.57059Q-5.55364 6.43821 -5.70825 6.29808Q-5.86286 6.15795 -6.01041 6.01041Q-6.15795 5.86286 -6.29808 5.70825Q-6.43821 5.55364 -6.57059 5.39234Q-6.70296 5.23104 -6.82726 5.06344Q-6.95156 4.89584 -7.06749 4.72235Q-7.18342 4.54885 -7.29069 4.36987Q-7.39797 4.1909 -7.49633 4.00687Q-7.59469 3.82285 -7.68391 3.63422Q-7.77312 3.44559 -7.85298 3.25281Q-7.93283 3.06003 -8.00312 2.86356Q-8.07342 2.6671 -8.13399 2.46742Q-8.19456 2.26774 -8.24527 2.06533Q-8.29597 1.86292 -8.33667 1.65827Q-8.37738 1.45361 -8.408 1.24721Q-8.43862 1.0408 -8.45907 0.833146Q-8.47952 0.625487 -8.48976 0.417075Q-8.5 0.208663 -8.5 0Q-8.5 -0.208663 -8.48976 -0.417075Q-8.47952 -0.625487 -8.45907 -0.833146Q-8.43862 -1.0408 -8.408 -1.24721Q-8.37738 -1.45361 -8.33667 -1.65827Q-8.29597 -1.86292 -8.24527 -2.06533Q-8.19456 -2.26774 -8.13399 -2.46742Q-8.07342 -2.6671 -8.00312 -2.86356Q-7.93283 -3.06003 -7.85298 -3.25281Q-7.77312 -3.44559 -7.68391 -3.63422Q-7.59469 -3.82285 -7.49633 -4.00687Q-7.39797 -4.1909 -7.29069 -4.36987Q-7.18342 -4.54885 -7.06749 -4.72235Q-6.95156 -4.89584 -6.82726 -5.06344Q-6.70296 -5.23104 -6.57059 -5.39234Q-6.43821 -5.55364 -6.29808 -5.70825Q-6.15795 -5.86286 -6.01041 -6.01041Q-5.86286 -6.15795 -5.70825 -6.29808Q-5.55364 -6.43821 -5.39234 -6.57059Q-5.23104 -6.70296 -5.06344 -6.82726Q-4.89584 -6.95156 -4.72235 -7.06749Q-4.54885 -7.18342 -4.36987 -7.29069Q-4.1909 -7.39797 -4.00687 -7.49633Q-3.82285 -7.59469 -3.63422 -7.68391Q-3.44559 -7.77312 -3.25281 -7.85298Q-3.06003 -7.93283 -2.86356 -8.00312Q-2.6671 -8.07342 -2.46742 -8.13399Q-2.26774 -8.19456 -2.06533 -8.24527Q-1.86292 -8.29597 -1.65827 -8.33667Q-1.45361 -8.37738 -1.24721 -8.408Q-1.0408 -8.43862 -0.833146 -8.45907Q-0.625487 -8.47952 -0.417075 -8.48976Q-0.208663 -8.5 0 -8.5Q0.208663 -8.5 0.417075 -8.48976Q0.625487 -8.47952 0.833146 -8.45907Q1.0408 -8.43862 1.24721 -8.408Q1.45361 -8.37738 1.65827 -8.33667Q1.86292 -8.29597 2.06533 -8.24527Q2.26774 -8.19456 2.46742 -8.13399Q2.6671 -8.07342 2.86356 -8.00312Q3.06003 -7.93283 3.25281 -7.85298Q3.44559 -7.77312 3.63422 -7.68391Q3.82285 -7.59469 4.00687 -7.49633Q4.1909 -7.39797 4.36987 -7.29069Q4.54885 -7.18342 4.72235 -7.06749Q4.89584 -6.95156 5.06344 -6.82726Q5.23104 -6.70296 5.39234 -6.57059Q5.55364 -6.43821 5.70825 -6.29808Q5.86286 -6.15795 6.01041 -6.01041Q6.15795 -5.86286 6.29808 -5.70825Q6.43821 -5.55364 6.57059 -5.39234Q6.70296 -5.23104 6.82726 -5.06344Q6.95156 -4.89584 7.06749 -4.72235Q7.18342 -4.54885 7.29069 -4.36987Q7.39797 -4.1909 7.49633 -4.00687Q7.59469 -3.82285 7.68391 -3.63422Q7.77312 -3.44559 7.85298 -3.25281Q7.93283 -3.06003 8.00312 -2.86356Q8.07342 -2.6671 8.13399 -2.46742Q8.19456 -2.26774 8.24527 -2.06533Q8.29597 -1.86292 8.33667 -1.65827Q8.37738 -1.45361 8.408 -1.24721Q8.43862 -1.0408 8.45907 -0.833146Q8.47952 -0.625487 8.48976 -0.417075Q8.5 -0.208663 8.5 0"/>
	<path fill="#8AC255" transform="matrix(1.42857 0 0 1.42857 67.1429 47.8571)" d="M5.5 0Q5.5 0.135017 5.49337 0.269872Q5.48675 0.404727 5.47352 0.539094Q5.46028 0.673461 5.44047 0.807017Q5.42066 0.940574 5.39432 1.073Q5.36798 1.20542 5.33517 1.33639Q5.30237 1.46736 5.26317 1.59657Q5.22398 1.72577 5.17849 1.85289Q5.13301 1.98002 5.08134 2.10476Q5.02967 2.2295 4.97194 2.35155Q4.91421 2.47361 4.85057 2.59268Q4.78692 2.71176 4.71751 2.82756Q4.64809 2.94337 4.57308 3.05564Q4.49807 3.1679 4.41764 3.27635Q4.33721 3.38479 4.25156 3.48916Q4.1659 3.59353 4.07523 3.69357Q3.98456 3.79362 3.88909 3.88909Q3.79362 3.98456 3.69357 4.07523Q3.59353 4.1659 3.48916 4.25156Q3.38479 4.33721 3.27635 4.41764Q3.1679 4.49807 3.05564 4.57308Q2.94337 4.64809 2.82756 4.71751Q2.71176 4.78692 2.59268 4.85057Q2.47361 4.91421 2.35155 4.97194Q2.2295 5.02967 2.10476 5.08134Q1.98002 5.13301 1.85289 5.17849Q1.72577 5.22398 1.59657 5.26317Q1.46736 5.30237 1.33639 5.33517Q1.20542 5.36798 1.073 5.39432Q0.940574 5.42066 0.807017 5.44047Q0.673461 5.46028 0.539094 5.47352Q0.404727 5.48675 0.269872 5.49338Q0.135017 5.5 0 5.5Q-0.135017 5.5 -0.269872 5.49337Q-0.404727 5.48675 -0.539094 5.47352Q-0.673461 5.46028 -0.807017 5.44047Q-0.940574 5.42066 -1.073 5.39432Q-1.20542 5.36798 -1.33639 5.33517Q-1.46736 5.30237 -1.59657 5.26317Q-1.72577 5.22398 -1.85289 5.17849Q-1.98002 5.13301 -2.10476 5.08134Q-2.2295 5.02967 -2.35155 4.97194Q-2.47361 4.91421 -2.59268 4.85057Q-2.71176 4.78692 -2.82756 4.71751Q-2.94337 4.64809 -3.05564 4.57308Q-3.1679 4.49807 -3.27635 4.41764Q-3.38479 4.33721 -3.48916 4.25156Q-3.59353 4.1659 -3.69357 4.07523Q-3.79362 3.98456 -3.88909 3.88909Q-3.98456 3.79362 -4.07523 3.69357Q-4.1659 3.59353 -4.25156 3.48916Q-4.33721 3.38479 -4.41764 3.27635Q-4.49807 3.1679 -4.57308 3.05564Q-4.64809 2.94337 -4.71751 2.82756Q-4.78692 2.71176 -4.85057 2.59268Q-4.91421 2.47361 -4.97194 2.35155Q-5.02967 2.2295 -5.08134 2.10476Q-5.13301 1.98002 -5.17849 1.85289Q-5.22398 1.72577 -5.26317 1.59657Q-5.30237 1.46736 -5.33517 1.33639Q-5.36798 1.20542 -5.39432 1.073Q-5.42066 0.940574 -5.44047 0.807017Q-5.46028 0.673461 -5.47352 0.539094Q-5.48675 0.404727 -5.49338 0.269872Q-5.5 0.135017 -5.5 0Q-5.5 -0.135017 -5.49337 -0.269872Q-5.48675 -0.404727 -5.47352 -0.539094Q-5.46028 -0.673461 -5.44047 -0.807017Q-5.42066 -0.940574 -5.39432 -1.073Q-5.36798 -1.20542 -5.33517 -1.33639Q-5.30237 -1.46736 -5.26317 -1.59657Q-5.22398 -1.72577 -5.17849 -1.85289Q-5.13301 -1.98002 -5.08134 -2.10476Q-5.02967 -2.2295 -4.97194 -2.35155Q-4.91421 -2.47361 -4.85057 -2.59268Q-4.78692 -2.71176 -4.71751 -2.82756Q-4.64809 -2.94337 -4.57308 -3.05564Q-4.49807 -3.1679 -4.41764 -3.27635Q-4.33721 -3.38479 -4.25156 -3.48916Q-4.1659 -3.59353 -4.07523 -3.69357Q-3.98456 -3.79362 -3.88909 -3.88909Q-3.79362 -3.98456 -3.69357 -4.07523Q-3.59353 -4.1659 -3.48916 -4.25156Q-3.38479 -4.33721 -3.27635 -4.41764Q-3.1679 -4.49807 -3.05564 -4.57308Q-2.94337 -4.64809 -2.82756 -4.71751Q-2.71176 -4.78692 -2.59268 -4.85057Q-2.47361 -4.91421 -2.35155 -4.97194Q-2.2295 -5.02967 -2.10476 -5.08134Q-1.98002 -5.13301 -1.85289 -5.17849Q-1.72577 -5.22398 -1.59657 -5.26317Q-1.46736 -5.30237 -1.33639 -5.33517Q-1.20542 -5.36798 -1.073 -5.39432Q-0.940574 -5.42066 -0.807017 -5.44047Q-0.673461 -5.46028 -0.539094 -5.47352Q-0.404727 -5.48675 -0.269872 -5.49338Q-0.135017 -5.5 0 -5.5Q0.135017 -5.5 0.269872 -5.49337Q0.404727 -5.48675 0.539094 -5.47352Q0.673461 -5.46028 0.807017 -5.44047Q0.940574 -5.42066 1.073 -5.39432Q1.20542 -5.36798 1.33639 -5.33517Q1.46736 -5.30237 1.59657 -5.26317Q1.72577 -5.22398 1.85289 -5.17849Q1.98002 -5.13301 2.10476 -5.08134Q2.2295 -5.02967 2.35155 -4.97194Q2.47361 -4.91421 2.59268 -4.85057Q2.71176 -4.78692 2.82756 -4.71751Q2.94337 -4.64809 3.05564 -4.57308Q3.1679 -4.49807 3.27635 -4.41764Q3.38479 -4.33721 3.48916 -4.25156Q3.59353 -4.1659 3.69357 -4.07523Q3.79362 -3.98456 3.88909 -3.88909Q3.98456 -3.79362 4.07523 -3.69357Q4.1659 -3.59353 4.25156 -3.48916Q4.33721 -3.38479 4.41764 -3.27635Q4.49807 -3.1679 4.57308 -3.05564Q4.64809 -2.94337 4.71751 -2.82756Q4.78692 -2.71176 4.85057 -2.59268Q4.91421 -2.47361 4.97194 -2.35155Q5.02967 -2.2295 5.08134 -2.10476Q5.13301 -1.98002 5.17849 -1.85289Q5.22398 -1.72577 5.26317 -1.59657Q5.30237 -1.46736 5.33517 -1.33639Q5.36798 -1.20542 5.39432 -1.073Q5.42066 -0.940574 5.44047 -0.807017Q5.46028 -0.673461 5.47352 -0.539094Q5.48675 -0.404727 5.49338 -0.269872Q5.5 -0.135017 5.5 0"/>
	<path fill="#709D45" transform="matrix(0 1.42857 -1.42857 0 55 60)" d="M8.5 0Q8.5 0.208663 8.48976 0.417075Q8.47952 0.625487 8.45907 0.833146Q8.43862 1.0408 8.408 1.24721Q8.37738 1.45361 8.33667 1.65827Q8.29597 1.86292 8.24527 2.06533Q8.19456 2.26774 8.13399 2.46742Q8.07342 2.6671 8.00312 2.86356Q7.93283 3.06003 7.85298 3.25281Q7.77312 3.44559 7.68391 3.63422Q7.59469 3.82285 7.49633 4.00687Q7.39797 4.1909 7.29069 4.36987Q7.18342 4.54885 7.06749 4.72235Q6.95156 4.89584 6.82726 5.06344Q6.70296 5.23104 6.57059 5.39234Q6.43821 5.55364 6.29808 5.70825Q6.15795 5.86286 6.01041 6.01041Q5.86286 6.15795 5.70825 6.29808Q5.55364 6.43821 5.39234 6.57059Q5.23104 6.70296 5.06344 6.82726Q4.89584 6.95156 4.72235 7.06749Q4.54885 7.18342 4.36987 7.29069Q4.1909 7.39797 4.00687 7.49633Q3.82285 7.59469 3.63422 7.68391Q3.44559 7.77312 3.25281 7.85298Q3.06003 7.93283 2.86356 8.00312Q2.6671 8.07342 2.46742 8.13399Q2.26774 8.19456 2.06533 8.24527Q1.86292 8.29597 1.65827 8.33667Q1.45361 8.37738 1.24721 8.408Q1.0408 8.43862 0.833146 8.45907Q0.625487 8.47952 0.417075 8.48976Q0.208663 8.5 0 8.5Q-0.208663 8.5 -0.417075 8.48976Q-0.625487 8.47952 -0.833146 8.45907Q-1.0408 8.43862 -1.24721 8.408Q-1.45361 8.37738 -1.65827 8.33667Q-1.86292 8.29597 -2.06533 8.24527Q-2.26774 8.19456 -2.46742 8.13399Q-2.6671 8.07342 -2.86356 8.00312Q-3.06003 7.93283 -3.25281 7.85298Q-3.44559 7.77312 -3.63422 7.68391Q-3.82285 7.59469 -4.00687 7.49633Q-4.1909 7.39797 -4.36987 7.29069Q-4.54885 7.18342 -4.72235 7.06749Q-4.89584 6.95156 -5.06344 6.82726Q-5.23104 6.70296 -5.39234 6.57059Q-5.55364 6.43821 -5.70825 6.29808Q-5.86286 6.15795 -6.01041 6.01041Q-6.15795 5.86286 -6.29808 5.70825Q-6.43821 5.55364 -6.57059 5.39234Q-6.70296 5.23104 -6.82726 5.06344Q-6.95156 4.89584 -7.06749 4.72235Q-7.18342 4.54885 -7.29069 4.36987Q-7.39797 4.1909 -7.49633 4.00687Q-7.59469 3.82285 -7.68391 3.63422Q-7.77312 3.44559 -7.85298 3.25281Q-7.93283 3.06003 -8.00312 2.86356Q-8.07342 2.6671 -8.13399 2.46742Q-8.19456 2.26774 -8.24527 2.06533Q-8.29597 1.86292 -8.33667 1.65827Q-8.37738 1.45361 -8.408 1.24721Q-8.43862 1.0408 -8.45907 0.833146Q-8.47952 0.625487 -8.48976 0.417075Q-8.5 0.208663 -8.5 0Q-8.5 -0.208663 -8.48976 -0.417075Q-8.47952 -0.625487 -8.45907 -0.833146Q-8.43862 -1.0408 -8.408 -1.24721Q-8.37738 -1.45361 -8.33667 -1.65827Q-8.29597 -1.86292 -8.24527 -2.06533Q-8.19456 -2.26774 -8.13399 -2.46742Q-8.07342 -2.6671 -8.00312 -2.86356Q-7.93283 -3.06003 -7.85298 -3.25281Q-7.77312 -3.44559 -7.68391 -3.63422Q-7.59469 -3.82285 -7.49633 -4.00687Q-7.39797 -4.1909 -7.29069 -4.36987Q-7.18342 -4.54885 -7.06749 -4.72235Q-6.95156 -4.89584 -6.82726 -5.06344Q-6.70296 -5.23104 -6.57059 -5.39234Q-6.43821 -5.55364 -6.29808 -5.70825Q-6.15795 -5.86286 -6.01041 -6.01041Q-5.86286 -6.15795 -5.70825 -6.29808Q-5.55364 -6.43821 -5.39234 -6.57059Q-5.23104 -6.70296 -5.06344 -6.82726Q-4.89584 -6.95156 -4.72235 -7.06749Q-4.54885 -7.18342 -4.36987 -7.29069Q-4.1909 -7.39797 -4.00687 -7.49633Q-3.82285 -7.59469 -3.63422 -7.68391Q-3.44559 -7.77312 -3.25281 -7.85298Q-3.06003 -7.93283 -2.86356 -8.00312Q-2.6671 -8.07342 -2.46742 -8.13399Q-2.26774 -8.19456 -2.06533 -8.24527Q-1.86292 -8.29597 -1.65827 -8.33667Q-1.45361 -8.37738 -1.24721 -8.408Q-1.0408 -8.43862 -0.833146 -8.45907Q-0.625487 -8.47952 -0.417075 -8.48976Q-0.208663 -8.5 0 -8.5Q0.208663 -8.5 0.417075 -8.48976Q0.625487 -8.47952 0.833146 -8.45907Q1.0408 -8.43862 1.24721 -8.408Q1.45361 -8.37738 1.65827 -8.33667Q1.86292 -8.29597 2.06533 -8.24527Q2.26774 -8.19456 2.46742 -8.13399Q2.6671 -8.07342 2.86356 -8.00312Q3.06003 -7.93283 3.25281 -7.85298Q3.44559 -7.77312 3.63422 -7.68391Q3.82285 -7.59469 4.00687 -7.49633Q4.1909 -7.39797 4.36987 -7.29069Q4.54885 -7.18342 4.72235 -7.06749Q4.89584 -6.95156 5.06344 -6.82726Q5.23104 -6.70296 5.39234 -6.57059Q5.55364 -6.43821 5.70825 -6.29808Q5.86286 -6.15795 6.01041 -6.01041Q6.15795 -5.86286 6.29808 -5.70825Q6.43821 -5.55364 6.57059 -5.39234Q6.70296 -5.23104 6.82726 -5.06344Q6.95156 -4.89584 7.06749 -4.72235Q7.18342 -4.54885 7.29069 -4.36987Q7.39797 -4.1909 7.49633 -4.00687Q7.59469 -3.82285 7.68391 -3.63422Q7.77312 -3.44559 7.85298 -3.25281Q7.93283 -3.06003 8.00312 -2.86356Q8.07342 -2.6671 8.13399 -2.46742Q8.19456 -2.26774 8.24527 -2.06533Q8.29597 -1.86292 8.33667 -1.65827Q8.37738 -1.45361 8.408 -1.24721Q8.43862 -1.0408 8.45907 -0.833146Q8.47952 -0.625487 8.48976 -0.417075Q8.5 -0.208663 8.5 0"/>
	<path fill="#8AC255" transform="matrix(0 1.42857 -1.42857 0 55 60)" d="M5.5 0Q5.5 0.135017 5.49337 0.269872Q5.48675 0.404727 5.47352 0.539094Q5.46028 0.673461 5.44047 0.807017Q5.42066 0.940574 5.39432 1.073Q5.36798 1.20542 5.33517 1.33639Q5.30237 1.46736 5.26317 1.59657Q5.22398 1.72577 5.17849 1.85289Q5.13301 1.98002 5.08134 2.10476Q5.02967 2.2295 4.97194 2.35155Q4.91421 2.47361 4.85057 2.59268Q4.78692 2.71176 4.71751 2.82756Q4.64809 2.94337 4.57308 3.05564Q4.49807 3.1679 4.41764 3.27635Q4.33721 3.38479 4.25156 3.48916Q4.1659 3.59353 4.07523 3.69357Q3.98456 3.79362 3.88909 3.88909Q3.79362 3.98456 3.69357 4.07523Q3.59353 4.1659 3.48916 4.25156Q3.38479 4.33721 3.27635 4.41764Q3.1679 4.49807 3.05564 4.57308Q2.94337 4.64809 2.82756 4.71751Q2.71176 4.78692 2.59268 4.85057Q2.47361 4.91421 2.35155 4.97194Q2.2295 5.02967 2.10476 5.08134Q1.98002 5.13301 1.85289 5.17849Q1.72577 5.22398 1.59657 5.26317Q1.46736 5.30237 1.33639 5.33517Q1.20542 5.36798 1.073 5.39432Q0.940574 5.42066 0.807017 5.44047Q0.673461 5.46028 0.539094 5.47352Q0.404727 5.48675 0.269872 5.49338Q0.135017 5.5 0 5.5Q-0.135017 5.5 -0.269872 5.49337Q-0.404727 5.48675 -0.539094 5.47352Q-0.673461 5.46028 -0.807017 5.44047Q-0.940574 5.42066 -1.073 5.39432Q-1.20542 5.36798 -1.33639 5.33517Q-1.46736 5.30237 -1.59657 5.26317Q-1.72577 5.22398 -1.85289 5.17849Q-1.98002 5.13301 -2.10476 5.08134Q-2.2295 5.02967 -2.35155 4.97194Q-2.47361 4.91421 -2.59268 4.85057Q-2.71176 4.78692 -2.82756 4.71751Q-2.94337 4.64809 -3.05564 4.57308Q-3.1679 4.49807 -3.27635 4.41764Q-3.38479 4.33721 -3.48916 4.25156Q-3.59353 4.1659 -3.69357 4.07523Q-3.79362 3.98456 -3.88909 3.88909Q-3.98456 3.79362 -4.07523 3.69357Q-4.1659 3.59353 -4.25156 3.48916Q-4.33721 3.38479 -4.41764 3.27635Q-4.49807 3.1679 -4.57308 3.05564Q-4.64809 2.94337 -4.71751 2.82756Q-4.78692 2.71176 -4.85057 2.59268Q-4.91421 2.47361 -4.97194 2.35155Q-5.02967 2.2295 -5.08134 2.10476Q-5.13301 1.98002 -5.17849 1.85289Q-5.22398 1.72577 -5.26317 1.59657Q-5.30237 1.46736 -5.33517 1.33639Q-5.36798 1.20542 -5.39432 1.073Q-5.42066 0.940574 -5.44047 0.807017Q-5.46028 0.673461 -5.47352 0.539094Q-5.48675 0.404727 -5.49338 0.269872Q-5.5 0.135017 -5.5 0Q-5.5 -0.135017 -5.49337 -0.269872Q-5.48675 -0.404727 -5.47352 -0.539094Q-5.46028 -0.673461 -5.44047 -0.807017Q-5.42066 -0.940574 -5.39432 -1.073Q-5.36798 -1.20542 -5.33517 -1.33639Q-5.30237 -1.46736 -5.26317 -1.59657Q-5.22398 -1.72577 -5.17849 -1.85289Q-5.13301 -1.98002 -5.08134 -2.10476Q-5.02967 -2.2295 -4.97194 -2.35155Q-4.91421 -2.47361 -4.85057 -2.59268Q-4.78692 -2.71176 -4.71751 -2.82756Q-4.64809 -2.94337 -4.57308 -3.05564Q-4.49807 -3.1679 -4.41764 -3.27635Q-4.33721 -3.38479 -4.25156 -3.48916Q-4.1659 -3.59353 -4.07523 -3.69357Q-3.98456 -3.79362 -3.88909 -3.88909Q-3.79362 -3.98456 -3.69357 -4.07523Q-3.59353 -4.1659 -3.48916 -4.25156Q-3.38479 -4.33721 -3.27635 -4.41764Q-3.1679 -4.49807 -3.05564 -4.57308Q-2.94337 -4.64809 -2.82756 -4.71751Q-2.71176 -4.78692 -2.59268 -4.85057Q-2.47361 -4.91421 -2.35155 -4.97194Q-2.2295 -5.02967 -2.10476 -5.08134Q-1.98002 -5.13301 -1.85289 -5.17849Q-1.72577 -5.22398 -1.59657 -5.26317Q-1.46736 -5.30237 -1.33639 -5.33517Q-1.20542 -5.36798 -1.073 -5.39432Q-0.940574 -5.42066 -0.807017 -5.44047Q-0.673461 -5.46028 -0.539094 -5.47352Q-0.404727 -5.48675 -0.269872 -5.49338Q-0.135017 -5.5 0 -5.5Q0.135017 -5.5 0.269872 -5.49337Q0.404727 -5.48675 0.539094 -5.47352Q0.673461 -5.46028 0.807017 -5.44047Q0.940574 -5.42066 1.073 -5.39432Q1.20542 -5.36798 1.33639 -5.33517Q1.46736 -5.30237 1.59657 -5.26317Q1.72577 -5.22398 1.85289 -5.17849Q1.98002 -5.13301 2.10476 -5.08134Q2.2295 -5.02967 2.35155 -4.97194Q2.47361 -4.91421 2.59268 -4.85057Q2.71176 -4.78692 2.82756 -4.71751Q2.94337 -4.64809 3.05564 -4.57308Q3.1679 -4.49807 3.27635 -4.41764Q3.38479 -4.33721 3.48916 -4.25156Q3.59353 -4.1659 3.69357 -4.07523Q3.79362 -3.98456 3.88909 -3.88909Q3.98456 -3.79362 4.07523 -3.69357Q4.1659 -3.59353 4.25156 -3.48916Q4.33721 -3.38479 4.41764 -3.27635Q4.49807 -3.1679 4.57308 -3.05564Q4.64809 -2.94337 4.71751 -2.82756Q4.78692 -2.71176 4.85057 -2.59268Q4.91421 -2.47361 4.97194 -2.35155Q5.02967 -2.2295 5.08134 -2.10476Q5.13301 -1.98002 5.17849 -1.85289Q5.22398 -1.72577 5.26317 -1.59657Q5.30237 -1.46736 5.33517 -1.33639Q5.36798 -1.20542 5.39432 -1.073Q5.42066 -0.940574 5.44047 -0.807017Q5.46028 -0.673461 5.47352 -0.539094Q5.48675 -0.404727 5.49338 -0.269872Q5.5 -0.135017 5.5 0"/>
	<path fill="#709D45" transform="matrix(-1.42857 0 0 -1.42857 42.8571 47.8571)" d="M8.5 0Q8.5 0.208663 8.48976 0.417075Q8.47952 0.625487 8.45907 0.833146Q8.43862 1.0408 8.408 1.24721Q8.37738 1.45361 8.33667 1.65827Q8.29597 1.86292 8.24527 2.06533Q8.19456 2.26774 8.13399 2.46742Q8.07342 2.6671 8.00312 2.86356Q7.93283 3.06003 7.85298 3.25281Q7.77312 3.44559 7.68391 3.63422Q7.59469 3.82285 7.49633 4.00687Q7.39797 4.1909 7.29069 4.36987Q7.18342 4.54885 7.06749 4.72235Q6.95156 4.89584 6.82726 5.06344Q6.70296 5.23104 6.57059 5.39234Q6.43821 5.55364 6.29808 5.70825Q6.15795 5.86286 6.01041 6.01041Q5.86286 6.15795 5.70825 6.29808Q5.55364 6.43821 5.39234 6.57059Q5.23104 6.70296 5.06344 6.82726Q4.89584 6.95156 4.72235 7.06749Q4.54885 7.18342 4.36987 7.29069Q4.1909 7.39797 4.00687 7.49633Q3.82285 7.59469 3.63422 7.68391Q3.44559 7.77312 3.25281 7.85298Q3.06003 7.93283 2.86356 8.00312Q2.6671 8.07342 2.46742 8.13399Q2.26774 8.19456 2.06533 8.24527Q1.86292 8.29597 1.65827 8.33667Q1.45361 8.37738 1.24721 8.408Q1.0408 8.43862 0.833146 8.45907Q0.625487 8.47952 0.417075 8.48976Q0.208663 8.5 0 8.5Q-0.208663 8.5 -0.417075 8.48976Q-0.625487 8.47952 -0.833146 8.45907Q-1.0408 8.43862 -1.24721 8.408Q-1.45361 8.37738 -1.65827 8.33667Q-1.86292 8.29597 -2.06533 8.24527Q-2.26774 8.19456 -2.46742 8.13399Q-2.6671 8.07342 -2.86356 8.00312Q-3.06003 7.93283 -3.25281 7.85298Q-3.44559 7.77312 -3.63422 7.68391Q-3.82285 7.59469 -4.00687 7.49633Q-4.1909 7.39797 -4.36987 7.29069Q-4.54885 7.18342 -4.72235 7.06749Q-4.89584 6.95156 -5.06344 6.82726Q-5.23104 6.70296 -5.39234 6.57059Q-5.55364 6.43821 -5.70825 6.29808Q-5.86286 6.15795 -6.01041 6.01041Q-6.15795 5.86286 -6.29808 5.70825Q-6.43821 5.55364 -6.57059 5.39234Q-6.70296 5.23104 -6.82726 5.06344Q-6.95156 4.89584 -7.06749 4.72235Q-7.18342 4.54885 -7.29069 4.36987Q-7.39797 4.1909 -7.49633 4.00687Q-7.59469 3.82285 -7.68391 3.63422Q-7.77312 3.44559 -7.85298 3.25281Q-7.93283 3.06003 -8.00312 2.86356Q-8.07342 2.6671 -8.13399 2.46742Q-8.19456 2.26774 -8.24527 2.06533Q-8.29597 1.86292 -8.33667 1.65827Q-8.37738 1.45361 -8.408 1.24721Q-8.43862 1.0408 -8.45907 0.833146Q-8.47952 0.625487 -8.48976 0.417075Q-8.5 0.208663 -8.5 0Q-8.5 -0.208663 -8.48976 -0.417075Q-8.47952 -0.625487 -8.45907 -0.833146Q-8.43862 -1.0408 -8.408 -1.24721Q-8.37738 -1.45361 -8.33667 -1.65827Q-8.29597 -1.86292 -8.24527 -2.06533Q-8.19456 -2.26774 -8.13399 -2.46742Q-8.07342 -2.6671 -8.00312 -2.86356Q-7.93283 -3.06003 -7.85298 -3.25281Q-7.77312 -3.44559 -7.68391 -3.63422Q-7.59469 -3.82285 -7.49633 -4.00687Q-7.39797 -4.1909 -7.29069 -4.36987Q-7.18342 -4.54885 -7.06749 -4.72235Q-6.95156 -4.89584 -6.82726 -5.06344Q-6.70296 -5.23104 -6.57059 -5.39234Q-6.43821 -5.55364 -6.29808 -5.70825Q-6.15795 -5.86286 -6.01041 -6.01041Q-5.86286 -6.15795 -5.70825 -6.29808Q-5.55364 -6.43821 -5.39234 -6.57059Q-5.23104 -6.70296 -5.06344 -6.82726Q-4.89584 -6.95156 -4.72235 -7.06749Q-4.54885 -7.18342 -4.36987 -7.29069Q-4.1909 -7.39797 -4.00687 -7.49633Q-3.82285 -7.59469 -3.63422 -7.68391Q-3.44559 -7.77312 -3.25281 -7.85298Q-3.06003 -7.93283 -2.86356 -8.00312Q-2.6671 -8.07342 -2.46742 -8.13399Q-2.26774 -8.19456 -2.06533 -8.24527Q-1.86292 -8.29597 -1.65827 -8.33667Q-1.45361 -8.37738 -1.24721 -8.408Q-1.0408 -8.43862 -0.833146 -8.45907Q-0.625487 -8.47952 -0.417075 -8.48976Q-0.208663 -8.5 0 -8.5Q0.208663 -8.5 0.417075 -8.48976Q0.625487 -8.47952 0.833146 -8.45907Q1.0408 -8.43862 1.24721 -8.408Q1.45361 -8.37738 1.65827 -8.33667Q1.86292 -8.29597 2.06533 -8.24527Q2.26774 -8.19456 2.46742 -8.13399Q2.6671 -8.07342 2.86356 -8.00312Q3.06003 -7.93283 3.25281 -7.85298Q3.44559 -7.77312 3.63422 -7.68391Q3.82285 -7.59469 4.00687 -7.49633Q4.1909 -7.39797 4.36987 -7.29069Q4.54885 -7.18342 4.72235 -7.06749Q4.89584 -6.95156 5.06344 -6.82726Q5.23104 -6.70296 5.39234 -6.57059Q5.55364 -6.43821 5.70825 -6.29808Q5.86286 -6.15795 6.01041 -6.01041Q6.15795 -5.86286 6.29808 -5.70825Q6.43821 -5.55364 6.57059 -5.39234Q6.70296 -5.23104 6.82726 -5.06344Q6.95156 -4.89584 7.06749 -4.72235Q7.18342 -4.54885 7.29069 -4.36987Q7.39797 -4.1909 7.49633 -4.00687Q7.59469 -3.82285 7.68391 -3.63422Q7.77312 -3.44559 7.85298 -3.25281Q7.93283 -3.06003 8.00312 -2.86356Q8.07342 -2.6671 8.13399 -2.46742Q8.19456 -2.26774 8.24527 -2.06533Q8.29597 -1.86292 8.33667 -1.65827Q8.37738 -1.45361 8.408 -1.24721Q8.43862 -1.0408 8.45907 -0.833146Q8.47952 -0.625487 8.48976 -0.417075Q8.5 -0.208663 8.5 0"/>
	<path fill="#8AC255" transform="matrix(-1.42857 0 0 -1.42857 42.8571 47.8571)" d="M5.5 0Q5.5 0.135017 5.49337 0.269872Q5.48675 0.404727 5.47352 0.539094Q5.46028 0.673461 5.44047 0.807017Q5.42066 0.940574 5.39432 1.073Q5.36798 1.20542 5.33517 1.33639Q5.30237 1.46736 5.26317 1.59657Q5.22398 1.72577 5.17849 1.85289Q5.13301 1.98002 5.08134 2.10476Q5.02967 2.2295 4.97194 2.35155Q4.91421 2.47361 4.85057 2.59268Q4.78692 2.71176 4.71751 2.82756Q4.64809 2.94337 4.57308 3.05564Q4.49807 3.1679 4.41764 3.27635Q4.33721 3.38479 4.25156 3.48916Q4.1659 3.59353 4.07523 3.69357Q3.98456 3.79362 3.88909 3.88909Q3.79362 3.98456 3.69357 4.07523Q3.59353 4.1659 3.48916 4.25156Q3.38479 4.33721 3.27635 4.41764Q3.1679 4.49807 3.05564 4.57308Q2.94337 4.64809 2.82756 4.71751Q2.71176 4.78692 2.59268 4.85057Q2.47361 4.91421 2.35155 4.97194Q2.2295 5.02967 2.10476 5.08134Q1.98002 5.13301 1.85289 5.17849Q1.72577 5.22398 1.59657 5.26317Q1.46736 5.30237 1.33639 5.33517Q1.20542 5.36798 1.073 5.39432Q0.940574 5.42066 0.807017 5.44047Q0.673461 5.46028 0.539094 5.47352Q0.404727 5.48675 0.269872 5.49338Q0.135017 5.5 0 5.5Q-0.135017 5.5 -0.269872 5.49337Q-0.404727 5.48675 -0.539094 5.47352Q-0.673461 5.46028 -0.807017 5.44047Q-0.940574 5.42066 -1.073 5.39432Q-1.20542 5.36798 -1.33639 5.33517Q-1.46736 5.30237 -1.59657 5.26317Q-1.72577 5.22398 -1.85289 5.17849Q-1.98002 5.13301 -2.10476 5.08134Q-2.2295 5.02967 -2.35155 4.97194Q-2.47361 4.91421 -2.59268 4.85057Q-2.71176 4.78692 -2.82756 4.71751Q-2.94337 4.64809 -3.05564 4.57308Q-3.1679 4.49807 -3.27635 4.41764Q-3.38479 4.33721 -3.48916 4.25156Q-3.59353 4.1659 -3.69357 4.07523Q-3.79362 3.98456 -3.88909 3.88909Q-3.98456 3.79362 -4.07523 3.69357Q-4.1659 3.59353 -4.25156 3.48916Q-4.33721 3.38479 -4.41764 3.27635Q-4.49807 3.1679 -4.57308 3.05564Q-4.64809 2.94337 -4.71751 2.82756Q-4.78692 2.71176 -4.85057 2.59268Q-4.91421 2.47361 -4.97194 2.35155Q-5.02967 2.2295 -5.08134 2.10476Q-5.13301 1.98002 -5.17849 1.85289Q-5.22398 1.72577 -5.26317 1.59657Q-5.30237 1.46736 -5.33517 1.33639Q-5.36798 1.20542 -5.39432 1.073Q-5.42066 0.940574 -5.44047 0.807017Q-5.46028 0.673461 -5.47352 0.539094Q-5.48675 0.404727 -5.49338 0.269872Q-5.5 0.135017 -5.5 0Q-5.5 -0.135017 -5.49337 -0.269872Q-5.48675 -0.404727 -5.47352 -0.539094Q-5.46028 -0.673461 -5.44047 -0.807017Q-5.42066 -0.940574 -5.39432 -1.073Q-5.36798 -1.20542 -5.33517 -1.33639Q-5.30237 -1.46736 -5.26317 -1.59657Q-5.22398 -1.72577 -5.17849 -1.85289Q-5.13301 -1.98002 -5.08134 -2.10476Q-5.02967 -2.2295 -4.97194 -2.35155Q-4.91421 -2.47361 -4.85057 -2.59268Q-4.78692 -2.71176 -4.71751 -2.82756Q-4.64809 -2.94337 -4.57308 -3.05564Q-4.49807 -3.1679 -4.41764 -3.27635Q-4.33721 -3.38479 -4.25156 -3.48916Q-4.1659 -3.59353 -4.07523 -3.69357Q-3.98456 -3.79362 -3.88909 -3.88909Q-3.79362 -3.98456 -3.69357 -4.07523Q-3.59353 -4.1659 -3.48916 -4.25156Q-3.38479 -4.33721 -3.27635 -4.41764Q-3.1679 -4.49807 -3.05564 -4.57308Q-2.94337 -4.64809 -2.82756 -4.71751Q-2.71176 -4.78692 -2.59268 -4.85057Q-2.47361 -4.91421 -2.35155 -4.97194Q-2.2295 -5.02967 -2.10476 -5.08134Q-1.98002 -5.13301 -1.85289 -5.17849Q-1.72577 -5.22398 -1.59657 -5.26317Q-1.46736 -5.30237 -1.33639 -5.33517Q-1.20542 -5.36798 -1.073 -5.39432Q-0.940574 -5.42066 -0.807017 -5.44047Q-0.673461 -5.46028 -0.539094 -5.47352Q-0.404727 -5.48675 -0.269872 -5.49338Q-0.135017 -5.5 0 -5.5Q0.135017 -5.5 0.269872 -5.49337Q0.404727 -5.48675 0.539094 -5.47352Q0.673461 -5.46028 0.807017 -5.44047Q0.940574 -5.42066 1.073 -5.39432Q1.20542 -5.36798 1.33639 -5.33517Q1.46736 -5.30237 1.59657 -5.26317Q1.72577 -5.22398 1.85289 -5.17849Q1.98002 -5.13301 2.10476 -5.08134Q2.2295 -5.02967 2.35155 -4.97194Q2.47361 -4.91421 2.59268 -4.85057Q2.71176 -4.78692 2.82756 -4.71751Q2.94337 -4.64809 3.05564 -4.57308Q3.1679 -4.49807 3.27635 -4.41764Q3.38479 -4.33721 3.48916 -4.25156Q3.59353 -4.1659 3.69357 -4.07523Q3.79362 -3.98456 3.88909 -3.88909Q3.98456 -3.79362 4.07523 -3.69357Q4.1659 -3.59353 4.25156 -3.48916Q4.33721 -3.38479 4.41764 -3.27635Q4.49807 -3.1679 4.57308 -3.05564Q4.64809 -2.94337 4.71751 -2.82756Q4.78692 -2.71176 4.85057 -2.59268Q4.91421 -2.47361 4.97194 -2.35155Q5.02967 -2.2295 5.08134 -2.10476Q5.13301 -1.98002 5.17849 -1.85289Q5.22398 -1.72577 5.26317 -1.59657Q5.30237 -1.46736 5.33517 -1.33639Q5.36798 -1.20542 5.39432 -1.073Q5.42066 -0.940574 5.44047 -0.807017Q5.46028 -0.673461 5.47352 -0.539094Q5.48675 -0.404727 5.49338 -0.269872Q5.5 -0.135017 5.5 0"/>
	<path fill="#709D45" transform="matrix(0 -1.42857 1.42857 0 55 35.7143)" d="M8.5 0Q8.5 0.208663 8.48976 0.417075Q8.47952 0.625487 8.45907 0.833146Q8.43862 1.0408 8.408 1.24721Q8.37738 1.45361 8.33667 1.65827Q8.29597 1.86292 8.24527 2.06533Q8.19456 2.26774 8.13399 2.46742Q8.07342 2.6671 8.00312 2.86356Q7.93283 3.06003 7.85298 3.25281Q7.77312 3.44559 7.68391 3.63422Q7.59469 3.82285 7.49633 4.00687Q7.39797 4.1909 7.29069 4.36987Q7.18342 4.54885 7.06749 4.72235Q6.95156 4.89584 6.82726 5.06344Q6.70296 5.23104 6.57059 5.39234Q6.43821 5.55364 6.29808 5.70825Q6.15795 5.86286 6.01041 6.01041Q5.86286 6.15795 5.70825 6.29808Q5.55364 6.43821 5.39234 6.57059Q5.23104 6.70296 5.06344 6.82726Q4.89584 6.95156 4.72235 7.06749Q4.54885 7.18342 4.36987 7.29069Q4.1909 7.39797 4.00687 7.49633Q3.82285 7.59469 3.63422 7.68391Q3.44559 7.77312 3.25281 7.85298Q3.06003 7.93283 2.86356 8.00312Q2.6671 8.07342 2.46742 8.13399Q2.26774 8.19456 2.06533 8.24527Q1.86292 8.29597 1.65827 8.33667Q1.45361 8.37738 1.24721 8.408Q1.0408 8.43862 0.833146 8.45907Q0.625487 8.47952 0.417075 8.48976Q0.208663 8.5 0 8.5Q-0.208663 8.5 -0.417075 8.48976Q-0.625487 8.47952 -0.833146 8.45907Q-1.0408 8.43862 -1.24721 8.408Q-1.45361 8.37738 -1.65827 8.33667Q-1.86292 8.29597 -2.06533 8.24527Q-2.26774 8.19456 -2.46742 8.13399Q-2.6671 8.07342 -2.86356 8.00312Q-3.06003 7.93283 -3.25281 7.85298Q-3.44559 7.77312 -3.63422 7.68391Q-3.82285 7.59469 -4.00687 7.49633Q-4.1909 7.39797 -4.36987 7.29069Q-4.54885 7.18342 -4.72235 7.06749Q-4.89584 6.95156 -5.06344 6.82726Q-5.23104 6.70296 -5.39234 6.57059Q-5.55364 6.43821 -5.70825 6.29808Q-5.86286 6.15795 -6.01041 6.01041Q-6.15795 5.86286 -6.29808 5.70825Q-6.43821 5.55364 -6.57059 5.39234Q-6.70296 5.23104 -6.82726 5.06344Q-6.95156 4.89584 -7.06749 4.72235Q-7.18342 4.54885 -7.29069 4.36987Q-7.39797 4.1909 -7.49633 4.00687Q-7.59469 3.82285 -7.68391 3.63422Q-7.77312 3.44559 -7.85298 3.25281Q-7.93283 3.06003 -8.00312 2.86356Q-8.07342 2.6671 -8.13399 2.46742Q-8.19456 2.26774 -8.24527 2.06533Q-8.29597 1.86292 -8.33667 1.65827Q-8.37738 1.45361 -8.408 1.24721Q-8.43862 1.0408 -8.45907 0.833146Q-8.47952 0.625487 -8.48976 0.417075Q-8.5 0.208663 -8.5 0Q-8.5 -0.208663 -8.48976 -0.417075Q-8.47952 -0.625487 -8.45907 -0.833146Q-8.43862 -1.0408 -8.408 -1.24721Q-8.37738 -1.45361 -8.33667 -1.65827Q-8.29597 -1.86292 -8.24527 -2.06533Q-8.19456 -2.26774 -8.13399 -2.46742Q-8.07342 -2.6671 -8.00312 -2.86356Q-7.93283 -3.06003 -7.85298 -3.25281Q-7.77312 -3.44559 -7.68391 -3.63422Q-7.59469 -3.82285 -7.49633 -4.00687Q-7.39797 -4.1909 -7.29069 -4.36987Q-7.18342 -4.54885 -7.06749 -4.72235Q-6.95156 -4.89584 -6.82726 -5.06344Q-6.70296 -5.23104 -6.57059 -5.39234Q-6.43821 -5.55364 -6.29808 -5.70825Q-6.15795 -5.86286 -6.01041 -6.01041Q-5.86286 -6.15795 -5.70825 -6.29808Q-5.55364 -6.43821 -5.39234 -6.57059Q-5.23104 -6.70296 -5.06344 -6.82726Q-4.89584 -6.95156 -4.72235 -7.06749Q-4.54885 -7.18342 -4.36987 -7.29069Q-4.1909 -7.39797 -4.00687 -7.49633Q-3.82285 -7.59469 -3.63422 -7.68391Q-3.44559 -7.77312 -3.25281 -7.85298Q-3.06003 -7.93283 -2.86356 -8.00312Q-2.6671 -8.07342 -2.46742 -8.13399Q-2.26774 -8.19456 -2.06533 -8.24527Q-1.86292 -8.29597 -1.65827 -8.33667Q-1.45361 -8.37738 -1.24721 -8.408Q-1.0408 -8.43862 -0.833146 -8.45907Q-0.625487 -8.47952 -0.417075 -8.48976Q-0.208663 -8.5 0 -8.5Q0.208663 -8.5 0.417075 -8.48976Q0.625487 -8.47952 0.833146 -8.45907Q1.0408 -8.43862 1.24721 -8.408Q1.45361 -8.37738 1.65827 -8.33667Q1.86292 -8.29597 2.06533 -8.24527Q2.26774 -8.19456 2.46742 -8.13399Q2.6671 -8.07342 2.86356 -8.00312Q3.06003 -7.93283 3.25281 -7.85298Q3.44559 -7.77312 3.63422 -7.68391Q3.82285 -7.59469 4.00687 -7.49633Q4.1909 -7.39797 4.36987 -7.29069Q4.54885 -7.18342 4.72235 -7.06749Q4.89584 -6.95156 5.06344 -6.82726Q5.23104 -6.70296 5.39234 -6.57059Q5.55364 -6.43821 5.70825 -6.29808Q5.86286 -6.15795 6.01041 -6.01041Q6.15795 -5.86286 6.29808 -5.70825Q6.43821 -5.55364 6.57059 -5.39234Q6.70296 -5.23104 6.82726 -5.06344Q6.95156 -4.89584 7.06749 -4.72235Q7.18342 -4.54885 7.29069 -4.36987Q7.39797 -4.1909 7.49633 -4.00687Q7.59469 -3.82285 7.68391 -3.63422Q7.77312 -3.44559 7.85298 -3.25281Q7.93283 -3.06003 8.00312 -2.86356Q8.07342 -2.6671 8.13399 -2.46742Q8.19456 -2.26774 8.24527 -2.06533Q8.29597 -1.86292 8.33667 -1.65827Q8.37738 -1.45361 8.408 -1.24721Q8.43862 -1.0408 8.45907 -0.833146Q8.47952 -0.625487 8.48976 -0.417075Q8.5 -0.208663 8.5 0"/>
	<path fill="#8AC255" transform="matrix(0 -1.42857 1.42857 0 55 35.7143)" d="M5.5 0Q5.5 0.135017 5.49337 0.269872Q5.48675 0.404727 5.47352 0.539094Q5.46028 0.673461 5.44047 0.807017Q5.42066 0.940574 5.39432 1.073Q5.36798 1.20542 5.33517 1.33639Q5.30237 1.46736 5.26317 1.59657Q5.22398 1.72577 5.17849 1.85289Q5.13301 1.98002 5.08134 2.10476Q5.02967 2.2295 4.97194 2.35155Q4.91421 2.47361 4.85057 2.59268Q4.78692 2.71176 4.71751 2.82756Q4.64809 2.94337 4.57308 3.05564Q4.49807 3.1679 4.41764 3.27635Q4.33721 3.38479 4.25156 3.48916Q4.1659 3.59353 4.07523 3.69357Q3.98456 3.79362 3.88909 3.88909Q3.79362 3.98456 3.69357 4.07523Q3.59353 4.1659 3.48916 4.25156Q3.38479 4.33721 3.27635 4.41764Q3.1679 4.49807 3.05564 4.57308Q2.94337 4.64809 2.82756 4.71751Q2.71176 4.78692 2.59268 4.85057Q2.47361 4.91421 2.35155 4.97194Q2.2295 5.02967 2.10476 5.08134Q1.98002 5.13301 1.85289 5.17849Q1.72577 5.22398 1.59657 5.26317Q1.46736 5.30237 1.33639 5.33517Q1.20542 5.36798 1.073 5.39432Q0.940574 5.42066 0.807017 5.44047Q0.673461 5.46028 0.539094 5.47352Q0.404727 5.48675 0.269872 5.49338Q0.135017 5.5 0 5.5Q-0.135017 5.5 -0.269872 5.49337Q-0.404727 5.48675 -0.539094 5.47352Q-0.673461 5.46028 -0.807017 5.44047Q-0.940574 5.42066 -1.073 5.39432Q-1.20542 5.36798 -1.33639 5.33517Q-1.46736 5.30237 -1.59657 5.26317Q-1.72577 5.22398 -1.85289 5.17849Q-1.98002 5.13301 -2.10476 5.08134Q-2.2295 5.02967 -2.35155 4.97194Q-2.47361 4.91421 -2.59268 4.85057Q-2.71176 4.78692 -2.82756 4.71751Q-2.94337 4.64809 -3.05564 4.57308Q-3.1679 4.49807 -3.27635 4.41764Q-3.38479 4.33721 -3.48916 4.25156Q-3.59353 4.1659 -3.69357 4.07523Q-3.79362 3.98456 -3.88909 3.88909Q-3.98456 3.79362 -4.07523 3.69357Q-4.1659 3.59353 -4.25156 3.48916Q-4.33721 3.38479 -4.41764 3.27635Q-4.49807 3.1679 -4.57308 3.05564Q-4.64809 2.94337 -4.71751 2.82756Q-4.78692 2.71176 -4.85057 2.59268Q-4.91421 2.47361 -4.97194 2.35155Q-5.02967 2.2295 -5.08134 2.10476Q-5.13301 1.98002 -5.17849 1.85289Q-5.22398 1.72577 -5.26317 1.59657Q-5.30237 1.46736 -5.33517 1.33639Q-5.36798 1.20542 -5.39432 1.073Q-5.42066 0.940574 -5.44047 0.807017Q-5.46028 0.673461 -5.47352 0.539094Q-5.48675 0.404727 -5.49338 0.269872Q-5.5 0.135017 -5.5 0Q-5.5 -0.135017 -5.49337 -0.269872Q-5.48675 -0.404727 -5.47352 -0.539094Q-5.46028 -0.673461 -5.44047 -0.807017Q-5.42066 -0.940574 -5.39432 -1.073Q-5.36798 -1.20542 -5.33517 -1.33639Q-5.30237 -1.46736 -5.26317 -1.59657Q-5.22398 -1.72577 -5.17849 -1.85289Q-5.13301 -1.98002 -5.08134 -2.10476Q-5.02967 -2.2295 -4.97194 -2.35155Q-4.91421 -2.47361 -4.85057 -2.59268Q-4.78692 -2.71176 -4.71751 -2.82756Q-4.64809 -2.94337 -4.57308 -3.05564Q-4.49807 -3.1679 -4.41764 -3.27635Q-4.33721 -3.38479 -4.25156 -3.48916Q-4.1659 -3.59353 -4.07523 -3.69357Q-3.98456 -3.79362 -3.88909 -3.88909Q-3.79362 -3.98456 -3.69357 -4.07523Q-3.59353 -4.1659 -3.48916 -4.25156Q-3.38479 -4.33721 -3.27635 -4.41764Q-3.1679 -4.49807 -3.05564 -4.57308Q-2.94337 -4.64809 -2.82756 -4.71751Q-2.71176 -4.78692 -2.59268 -4.85057Q-2.47361 -4.91421 -2.35155 -4.97194Q-2.2295 -5.02967 -2.10476 -5.08134Q-1.98002 -5.13301 -1.85289 -5.17849Q-1.72577 -5.22398 -1.59657 -5.26317Q-1.46736 -5.30237 -1.33639 -5.33517Q-1.20542 -5.36798 -1.073 -5.39432Q-0.940574 -5.42066 -0.807017 -5.44047Q-0.673461 -5.46028 -0.539094 -5.47352Q-0.404727 -5.48675 -0.269872 -5.49338Q-0.135017 -5.5 0 -5.5Q0.135017 -5.5 0.269872 -5.49337Q0.404727 -5.48675 0.539094 -5.47352Q0.673461 -5.46028 0.807017 -5.44047Q0.940574 -5.42066 1.073 -5.39432Q1.20542 -5.36798 1.33639 -5.33517Q1.46736 -5.30237 1.59657 -5.26317Q1.72577 -5.22398 1.85289 -5.17849Q1.98002 -5.13301 2.10476 -5.08134Q2.2295 -5.02967 2.35155 -4.97194Q2.47361 -4.91421 2.59268 -4.85057Q2.71176 -4.78692 2.82756 -4.71751Q2.94337 -4.64809 3.05564 -4.57308Q3.1679 -4.49807 3.27635 -4.41764Q3.38479 -4.33721 3.48916 -4.25156Q3.59353 -4.1659 3.69357 -4.07523Q3.79362 -3.98456 3.88909 -3.88909Q3.98456 -3.79362 4.07523 -3.69357Q4.1659 -3.59353 4.25156 -3.48916Q4.33721 -3.38479 4.41764 -3.27635Q4.49807 -3.1679 4.57308 -3.05564Q4.64809 -2.94337 4.71751 -2.82756Q4.78692 -2.71176 4.85057 -2.59268Q4.91421 -2.47361 4.97194 -2.35155Q5.02967 -2.2295 5.08134 -2.10476Q5.13301 -1.98002 5.17849 -1.85289Q5.22398 -1.72577 5.26317 -1.59657Q5.30237 -1.46736 5.33517 -1.33639Q5.36798 -1.20542 5.39432 -1.073Q5.42066 -0.940574 5.44047 -0.807017Q5.46028 -0.673461 5.47352 -0.539094Q5.48675 -0.404727 5.49338 -0.269872Q5.5 -0.135017 5.5 0"/>
	<path fill="none" stroke="black" stroke-width="2.3999999" stroke-linejoin="round" transform="translate(55 79.2857)" d="M-16.8983 -6.58855Q-13.7977 -6.58855 -12.1424 -5.49969Q-10.4822 -4.41082 -10.4822 -1.93035Q-10.4822 0.569648 -12.1619 1.68293Q-13.8416 2.79133 -16.9617 2.79133L-17.9383 2.79133L-17.9383 7.43L-21.0584 7.43L-21.0584 -6.23211Q-20.0379 -6.4323 -18.9002 -6.51043Q-17.7576 -6.58855 -16.8983 -6.58855ZM-16.6981 -3.9323Q-17.0399 -3.9323 -17.3719 -3.90789Q-17.699 -3.88836 -17.9383 -3.86883L-17.9383 0.130195L-16.9617 0.130195Q-15.3406 0.130195 -14.5203 -0.309258Q-13.7 -0.748711 -13.7 -1.94988Q-13.7 -2.53094 -13.91 -2.90691Q-14.1199 -3.28777 -14.5106 -3.51727Q-14.9012 -3.75164 -15.4627 -3.83953Q-16.0194 -3.9323 -16.6981 -3.9323ZM-8.88155 2.24934Q-8.88155 0.847969 -8.45187 -0.201836Q-8.02218 -1.25164 -7.32394 -1.94988Q-6.62081 -2.64813 -5.71261 -3.00945Q-4.79952 -3.37078 -3.83761 -3.37078Q-1.60128 -3.37078 -0.302452 -1.99871Q1.00126 -0.631524 1.00126 2.02961Q1.00126 2.2884 0.981728 2.6009Q0.962196 2.90852 0.937782 3.14777L-5.82003 3.14777Q-5.72237 4.07062 -4.96066 4.61262Q-4.19894 5.14973 -2.91964 5.14973Q-2.09933 5.14973 -1.31319 5.00324Q-0.522179 4.85187 -0.019249 4.63215L0.381142 7.04914Q0.141884 7.17121 -0.258507 7.29328Q-0.658897 7.41047 -1.15206 7.49836Q-1.64034 7.59113 -2.20187 7.64973Q-2.75851 7.70832 -3.32003 7.70832Q-4.74093 7.70832 -5.79073 7.2884Q-6.84054 6.86848 -7.5339 6.14094Q-8.22237 5.40852 -8.55441 4.41242Q-8.88155 3.41145 -8.88155 2.24934ZM-1.8796 1.11164Q-1.89913 0.730781 -2.01144 0.369453Q-2.11886 0.00812483 -2.34835 -0.270195Q-2.57784 -0.548516 -2.92941 -0.72918Q-3.28097 -0.909844 -3.79855 -0.909844Q-4.30148 -0.909844 -4.6628 -0.738945Q-5.01925 -0.568047 -5.25851 -0.289727Q-5.49776 -0.0114064 -5.6296 0.359687Q-5.76144 0.730781 -5.82003 1.11164L-1.8796 1.11164ZM7.31992 5.34992Q7.75938 5.34992 8.15977 5.33039Q8.56016 5.31086 8.79942 5.2718L8.79942 3.01105Q8.61875 2.97199 8.25742 2.93293Q7.90098 2.88898 7.59824 2.88898Q7.17832 2.88898 6.80723 2.9427Q6.44102 2.99152 6.15781 3.13312Q5.87949 3.26984 5.71836 3.5091Q5.56211 3.74836 5.56211 4.10969Q5.56211 4.80793 6.03086 5.08137Q6.49961 5.34992 7.31992 5.34992ZM7.08067 -3.37078Q8.39902 -3.37078 9.27793 -3.06805Q10.1617 -2.7702 10.6891 -2.20867Q11.2213 -1.65203 11.441 -0.85125Q11.6607 -0.0504689 11.6607 0.930976L11.6607 7.13215Q11.0211 7.26887 9.87852 7.4593Q8.74082 7.64973 7.11973 7.64973Q6.09922 7.64973 5.26914 7.46906Q4.43906 7.2884 3.83848 6.87824Q3.23789 6.46809 2.91563 5.80891Q2.59824 5.14973 2.59824 4.18781Q2.59824 3.26984 2.96934 2.6302Q3.34043 1.99055 3.96055 1.60969Q4.58067 1.22883 5.38145 1.06281Q6.18223 0.891914 7.0416 0.891914Q7.61777 0.891914 8.06699 0.940742Q8.5211 0.98957 8.79942 1.0677L8.79942 0.789375Q8.79942 0.0276561 8.34043 -0.431328Q7.88145 -0.890313 6.73887 -0.890313Q5.98203 -0.890313 5.23985 -0.778008Q4.49766 -0.670586 3.96055 -0.470391L3.57969 -2.86785Q3.83848 -2.95086 4.2291 -3.03875Q4.61973 -3.13152 5.07871 -3.19988Q5.5377 -3.26824 6.04551 -3.31707Q6.5582 -3.37078 7.08067 -3.37078ZM17.3789 5.29133Q18.1992 5.29133 18.5362 5.1302Q18.878 4.96906 18.878 4.51008Q18.878 4.14875 18.4385 3.8802Q17.999 3.61164 17.1006 3.26984Q16.4024 3.01105 15.8311 2.73273Q15.2598 2.44953 14.8594 2.05891Q14.459 1.66828 14.2393 1.13117Q14.0196 0.58918 14.0196 -0.167656Q14.0196 -1.65203 15.1182 -2.51141Q16.2217 -3.37078 18.1406 -3.37078Q19.0977 -3.37078 19.9766 -3.19988Q20.8604 -3.02898 21.378 -2.82879L20.8604 -0.509453Q20.3379 -0.690117 19.7276 -0.826836Q19.1221 -0.968438 18.3604 -0.968438Q16.959 -0.968438 16.959 -0.19207Q16.959 -0.0114064 17.0176 0.130195Q17.0811 0.271797 17.2617 0.403633Q17.4424 0.530586 17.75 0.681953Q18.0576 0.828437 18.541 1.0091Q19.5176 1.37043 20.1572 1.72199Q20.8018 2.06867 21.168 2.47883Q21.5391 2.88898 21.6905 3.39191Q21.8418 3.88996 21.8418 4.54914Q21.8418 6.11164 20.6699 6.91242Q19.4981 7.70832 17.3594 7.70832Q15.958 7.70832 15.0254 7.46906Q14.0977 7.2298 13.7412 7.06867L14.2393 4.65168Q15.001 4.94953 15.7969 5.12043Q16.5977 5.29133 17.3789 5.29133Z"/>
	<path fill="white" transform="translate(55 79.2857)" d="M-16.8983 -6.58855Q-13.7977 -6.58855 -12.1424 -5.49969Q-10.4822 -4.41082 -10.4822 -1.93035Q-10.4822 0.569648 -12.1619 1.68293Q-13.8416 2.79133 -16.9617 2.79133L-17.9383 2.79133L-17.9383 7.43L-21.0584 7.43L-21.0584 -6.23211Q-20.0379 -6.4323 -18.9002 -6.51043Q-17.7576 -6.58855 -16.8983 -6.58855ZM-16.6981 -3.9323Q-17.0399 -3.9323 -17.3719 -3.90789Q-17.699 -3.88836 -17.9383 -3.86883L-17.9383 0.130195L-16.9617 0.130195Q-15.3406 0.130195 -14.5203 -0.309258Q-13.7 -0.748711 -13.7 -1.94988Q-13.7 -2.53094 -13.91 -2.90691Q-14.1199 -3.28777 -14.5106 -3.51727Q-14.9012 -3.75164 -15.4627 -3.83953Q-16.0194 -3.9323 -16.6981 -3.9323ZM-8.88155 2.24934Q-8.88155 0.847969 -8.45187 -0.201836Q-8.02218 -1.25164 -7.32394 -1.94988Q-6.62081 -2.64813 -5.71261 -3.00945Q-4.79952 -3.37078 -3.83761 -3.37078Q-1.60128 -3.37078 -0.302452 -1.99871Q1.00126 -0.631524 1.00126 2.02961Q1.00126 2.2884 0.981728 2.6009Q0.962196 2.90852 0.937782 3.14777L-5.82003 3.14777Q-5.72237 4.07062 -4.96066 4.61262Q-4.19894 5.14973 -2.91964 5.14973Q-2.09933 5.14973 -1.31319 5.00324Q-0.522179 4.85187 -0.019249 4.63215L0.381142 7.04914Q0.141884 7.17121 -0.258507 7.29328Q-0.658897 7.41047 -1.15206 7.49836Q-1.64034 7.59113 -2.20187 7.64973Q-2.75851 7.70832 -3.32003 7.70832Q-4.74093 7.70832 -5.79073 7.2884Q-6.84054 6.86848 -7.5339 6.14094Q-8.22237 5.40852 -8.55441 4.41242Q-8.88155 3.41145 -8.88155 2.24934ZM-1.8796 1.11164Q-1.89913 0.730781 -2.01144 0.369453Q-2.11886 0.00812483 -2.34835 -0.270195Q-2.57784 -0.548516 -2.92941 -0.72918Q-3.28097 -0.909844 -3.79855 -0.909844Q-4.30148 -0.909844 -4.6628 -0.738945Q-5.01925 -0.568047 -5.25851 -0.289727Q-5.49776 -0.0114064 -5.6296 0.359687Q-5.76144 0.730781 -5.82003 1.11164L-1.8796 1.11164ZM7.31992 5.34992Q7.75938 5.34992 8.15977 5.33039Q8.56016 5.31086 8.79942 5.2718L8.79942 3.01105Q8.61875 2.97199 8.25742 2.93293Q7.90098 2.88898 7.59824 2.88898Q7.17832 2.88898 6.80723 2.9427Q6.44102 2.99152 6.15781 3.13312Q5.87949 3.26984 5.71836 3.5091Q5.56211 3.74836 5.56211 4.10969Q5.56211 4.80793 6.03086 5.08137Q6.49961 5.34992 7.31992 5.34992ZM7.08067 -3.37078Q8.39902 -3.37078 9.27793 -3.06805Q10.1617 -2.7702 10.6891 -2.20867Q11.2213 -1.65203 11.441 -0.85125Q11.6607 -0.0504689 11.6607 0.930976L11.6607 7.13215Q11.0211 7.26887 9.87852 7.4593Q8.74082 7.64973 7.11973 7.64973Q6.09922 7.64973 5.26914 7.46906Q4.43906 7.2884 3.83848 6.87824Q3.23789 6.46809 2.91563 5.80891Q2.59824 5.14973 2.59824 4.18781Q2.59824 3.26984 2.96934 2.6302Q3.34043 1.99055 3.96055 1.60969Q4.58067 1.22883 5.38145 1.06281Q6.18223 0.891914 7.0416 0.891914Q7.61777 0.891914 8.06699 0.940742Q8.5211 0.98957 8.79942 1.0677L8.79942 0.789375Q8.79942 0.0276561 8.34043 -0.431328Q7.88145 -0.890313 6.73887 -0.890313Q5.98203 -0.890313 5.23985 -0.778008Q4.49766 -0.670586 3.96055 -0.470391L3.57969 -2.86785Q3.83848 -2.95086 4.2291 -3.03875Q4.61973 -3.13152 5.07871 -3.19988Q5.5377 -3.26824 6.04551 -3.31707Q6.5582 -3.37078 7.08067 -3.37078ZM17.3789 5.29133Q18.1992 5.29133 18.5362 5.1302Q18.878 4.96906 18.878 4.51008Q18.878 4.14875 18.4385 3.8802Q17.999 3.61164 17.1006 3.26984Q16.4024 3.01105 15.8311 2.73273Q15.2598 2.44953 14.8594 2.05891Q14.459 1.66828 14.2393 1.13117Q14.0196 0.58918 14.0196 -0.167656Q14.0196 -1.65203 15.1182 -2.51141Q16.2217 -3.37078 18.1406 -3.37078Q19.0977 -3.37078 19.9766 -3.19988Q20.8604 -3.02898 21.378 -2.82879L20.8604 -0.509453Q20.3379 -0.690117 19.7276 -0.826836Q19.1221 -0.968438 18.3604 -0.968438Q16.959 -0.968438 16.959 -0.19207Q16.959 -0.0114064 17.0176 0.130195Q17.0811 0.271797 17.2617 0.403633Q17.4424 0.530586 17.75 0.681953Q18.0576 0.828437 18.541 1.0091Q19.5176 1.37043 20.1572 1.72199Q20.8018 2.06867 21.168 2.47883Q21.5391 2.88898 21.6905 3.39191Q21.8418 3.88996 21.8418 4.54914Q21.8418 6.11164 20.6699 6.91242Q19.4981 7.70832 17.3594 7.70832Q15.958 7.70832 15.0254 7.46906Q14.0977 7.2298 13.7412 7.06867L14.2393 4.65168Q15.001 4.94953 15.7969 5.12043Q16.5977 5.29133 17.3789 5.29133Z"/>
</svg>
