<?xml version="1.0" encoding="utf-8" ?>
<svg xmlns="http://www.w3.org/2000/svg" xmlns:xlink="http://www.w3.org/1999/xlink" width="110" height="110">
	<path fill="#CFCCA9" transform="matrix(1.42857 0 0 1.42857 55 47.8571)" d="M17.5 0Q17.5 0.429601 17.4789 0.858684Q17.4578 1.28777 17.4157 1.7153Q17.3736 2.14283 17.3106 2.56778Q17.2476 2.99273 17.1637 3.41408Q17.0799 3.83543 16.9755 4.25215Q16.8712 4.66888 16.7465 5.07998Q16.6217 5.49108 16.477 5.89557Q16.3323 6.30006 16.1679 6.69696Q16.0035 7.09386 15.8198 7.48221Q15.6361 7.87057 15.4336 8.24944Q15.2311 8.62832 15.0102 8.9968Q14.7894 9.36528 14.5507 9.72248Q14.312 10.0797 14.0561 10.4247Q13.8002 10.7698 13.5277 11.1019Q13.2551 11.434 12.9666 11.7523Q12.6781 12.0706 12.3744 12.3744Q12.0706 12.6781 11.7523 12.9666Q11.434 13.2551 11.1019 13.5277Q10.7698 13.8002 10.4247 14.0561Q10.0797 14.312 9.72248 14.5507Q9.36528 14.7894 8.9968 15.0102Q8.62832 15.2311 8.24944 15.4336Q7.87057 15.6361 7.48221 15.8198Q7.09386 16.0035 6.69696 16.1679Q6.30006 16.3323 5.89557 16.477Q5.49108 16.6217 5.07998 16.7465Q4.66888 16.8712 4.25215 16.9755Q3.83543 17.0799 3.41408 17.1637Q2.99273 17.2476 2.56778 17.3106Q2.14283 17.3736 1.7153 17.4157Q1.28777 17.4578 0.858684 17.4789Q0.429601 17.5 0 17.5Q-0.429601 17.5 -0.858684 17.4789Q-1.28777 17.4578 -1.7153 17.4157Q-2.14283 17.3736 -2.56778 17.3106Q-2.99273 17.2476 -3.41408 17.1637Q-3.83543 17.0799 -4.25215 16.9755Q-4.66888 16.8712 -5.07998 16.7465Q-5.49108 16.6217 -5.89557 16.477Q-6.30006 16.3323 -6.69696 16.1679Q-7.09386 16.0035 -7.48221 15.8198Q-7.87057 15.6361 -8.24944 15.4336Q-8.62832 15.2311 -8.9968 15.0102Q-9.36528 14.7894 -9.72248 14.5507Q-10.0797 14.312 -10.4247 14.0561Q-10.7698 13.8002 -11.1019 13.5277Q-11.434 13.2551 -11.7523 12.9666Q-12.0706 12.6781 -12.3744 12.3744Q-12.6781 12.0706 -12.9666 11.7523Q-13.2551 11.434 -13.5277 11.1019Q-13.8002 10.7698 -14.0561 10.4247Q-14.312 10.0797 -14.5507 9.72248Q-14.7894 9.36528 -15.0102 8.9968Q-15.2311 8.62832 -15.4336 8.24944Q-15.6361 7.87057 -15.8198 7.48221Q-16.0035 7.09386 -16.1679 6.69696Q-16.3323 6.30006 -16.477 5.89557Q-16.6217 5.49108 -16.7465 5.07998Q-16.8712 4.66888 -16.9755 4.25215Q-17.0799 3.83543 -17.1637 3.41408Q-17.2476 2.99273 -17.3106 2.56778Q-17.3736 2.14283 -17.4157 1.7153Q-17.4578 1.28777 -17.4789 0.858684Q-17.5 0.429601 -17.5 0Q-17.5 -0.429601 -17.4789 -0.858684Q-17.4578 -1.28777 -17.4157 -1.7153Q-17.3736 -2.14283 -17.3106 -2.56778Q-17.2476 -2.99273 -17.1637 -3.41408Q-17.0799 -3.83543 -16.9755 -4.25215Q-16.8712 -4.66888 -16.7465 -5.07998Q-16.6217 -5.49108 -16.477 -5.89557Q-16.3323 -6.30006 -16.1679 -6.69696Q-16.0035 -7.09386 -15.8198 -7.48221Q-15.6361 -7.87057 -15.4336 -8.24944Q-15.2311 -8.62832 -15.0102 -8.9968Q-14.7894 -9.36528 -14.5507 -9.72248Q-14.312 -10.0797 -14.0561 -10.4247Q-13.8002 -10.7698 -13.5277 -11.1019Q-13.2551 -11.434 -12.9666 -11.7523Q-12.6781 -12.0706 -12.3744 -12.3744Q-12.0706 -12.6781 -11.7523 -12.9666Q-11.434 -13.2551 -11.1019 -13.5277Q-10.7698 -13.8002 -10.4247 -14.0561Q-10.0797 -14.312 -9.72248 -14.5507Q-9.36528 -14.7894 -8.9968 -15.0102Q-8.62832 -15.2311 -8.24944 -15.4336Q-7.87057 -15.6361 -7.48221 -15.8198Q-7.09386 -16.0035 -6.69696 -16.1679Q-6.30006 -16.3323 -5.89557 -16.477Q-5.49108 -16.6217 -5.07998 -16.7465Q-4.66888 -16.8712 -4.25215 -16.9755Q-3.83543 -17.0799 -3.41408 -17.1637Q-2.99273 -17.2476 -2.56778 -17.3106Q-2.14283 -17.3736 -1.7153 -17.4157Q-1.28777 -17.4578 -0.858684 -17.4789Q-0.429601 -17.5 0 -17.5Q0.429601 -17.5 0.858684 -17.4789Q1.28777 -17.4578 1.7153 -17.4157Q2.14283 -17.3736 2.56778 -17.3106Q2.99273 -17.2476 3.41408 -17.1637Q3.83543 -17.0799 4.25215 -16.9755Q4.66888 -16.8712 5.07998 -16.7465Q5.49108 -16.6217 5.89557 -16.477Q6.30006 -16.3323 6.69696 -16.1679Q7.09386 -16.0035 7.48221 -15.8198Q7.87057 -15.6361 8.24944 -15.4336Q8.62832 -15.2311 8.9968 -15.0102Q9.36528 -14.7894 9.72248 -14.5507Q10.0797 -14.312 10.4247 -14.0561Q10.7698 -13.8002 11.1019 -13.5277Q11.434 -13.2551 11.7523 -12.9666Q12.0706 -12.6781 12.3744 -12.3744Q12.6781 -12.0706 12.9666 -11.7523Q13.2551 -11.434 13.5277 -11.1019Q13.8002 -10.7698 14.0561 -10.4247Q14.312 -10.0797 14.5507 -9.72248Q14.7894 -9.36528 15.0102 -8.9968Q15.2311 -8.62832 15.4336 -8.24944Q15.6361 -7.87057 15.8198 -7.48221Q16.0035 -7.09386 16.1679 -6.69696Q16.3323 -6.30006 16.477 -5.89557Q16.6217 -5.49108 16.7465 -5.07998Q16.8712 -4.66888 16.9755 -4.25215Q17.0799 -3.83543 17.1637 -3.41408Q17.2476 -2.99273 17.3106 -2.56778Q17.3736 -2.14283 17.4157 -1.7153Q17.4578 -1.28777 17.4789 -0.858684Q17.5 -0.429601 17.5 0"/>
	<path fill="#FFFCD1" transform="matrix(1.42857 0 0 1.42857 55 47.8571)" d="M14.5 0Q14.5 0.355955 14.4825 0.711481Q14.4651 1.06701 14.4302 1.42125Q14.3953 1.77549 14.3431 2.12759Q14.2908 2.47969 14.2214 2.82881Q14.1519 3.17792 14.0655 3.52321Q13.979 3.8685 13.8756 4.20913Q13.7723 4.54976 13.6524 4.8849Q13.5325 5.22005 13.3963 5.54891Q13.26 5.87777 13.1078 6.19955Q12.9557 6.52133 12.7879 6.83525Q12.6201 7.14918 12.4371 7.45449Q12.2541 7.7598 12.0563 8.05577Q11.8586 8.35173 11.6465 8.63764Q11.4345 8.92354 11.2087 9.1987Q10.9828 9.47386 10.7438 9.7376Q10.5047 10.0013 10.253 10.253Q10.0013 10.5047 9.7376 10.7438Q9.47386 10.9828 9.1987 11.2087Q8.92354 11.4345 8.63764 11.6465Q8.35173 11.8586 8.05577 12.0563Q7.7598 12.2541 7.45449 12.4371Q7.14918 12.6201 6.83525 12.7879Q6.52133 12.9557 6.19955 13.1078Q5.87777 13.26 5.54891 13.3963Q5.22005 13.5325 4.8849 13.6524Q4.54976 13.7723 4.20913 13.8756Q3.8685 13.979 3.52321 14.0655Q3.17792 14.1519 2.82881 14.2214Q2.47969 14.2908 2.12759 14.3431Q1.77549 14.3953 1.42125 14.4302Q1.06701 14.4651 0.711481 14.4825Q0.355955 14.5 0 14.5Q-0.355955 14.5 -0.711481 14.4825Q-1.06701 14.4651 -1.42125 14.4302Q-1.77549 14.3953 -2.12759 14.3431Q-2.47969 14.2908 -2.82881 14.2214Q-3.17792 14.1519 -3.52321 14.0655Q-3.8685 13.979 -4.20913 13.8756Q-4.54976 13.7723 -4.8849 13.6524Q-5.22005 13.5325 -5.54891 13.3963Q-5.87777 13.26 -6.19955 13.1078Q-6.52133 12.9557 -6.83525 12.7879Q-7.14918 12.6201 -7.45449 12.4371Q-7.7598 12.2541 -8.05577 12.0563Q-8.35173 11.8586 -8.63764 11.6465Q-8.92354 11.4345 -9.1987 11.2087Q-9.47386 10.9828 -9.7376 10.7438Q-10.0013 10.5047 -10.253 10.253Q-10.5047 10.0013 -10.7438 9.7376Q-10.9828 9.47386 -11.2087 9.1987Q-11.4345 8.92354 -11.6465 8.63764Q-11.8586 8.35173 -12.0563 8.05577Q-12.2541 7.7598 -12.4371 7.45449Q-12.6201 7.14918 -12.7879 6.83525Q-12.9557 6.52133 -13.1078 6.19955Q-13.26 5.87777 -13.3963 5.54891Q-13.5325 5.22005 -13.6524 4.8849Q-13.7723 4.54976 -13.8756 4.20913Q-13.979 3.8685 -14.0655 3.52321Q-14.1519 3.17792 -14.2214 2.82881Q-14.2908 2.47969 -14.3431 2.12759Q-14.3953 1.77549 -14.4302 1.42125Q-14.4651 1.06701 -14.4825 0.711481Q-14.5 0.355955 -14.5 0Q-14.5 -0.355955 -14.4825 -0.711481Q-14.4651 -1.06701 -14.4302 -1.42125Q-14.3953 -1.77549 -14.3431 -2.12759Q-14.2908 -2.47969 -14.2214 -2.82881Q-14.1519 -3.17792 -14.0655 -3.52321Q-13.979 -3.8685 -13.8756 -4.20913Q-13.7723 -4.54976 -13.6524 -4.8849Q-13.5325 -5.22005 -13.3963 -5.54891Q-13.26 -5.87777 -13.1078 -6.19955Q-12.9557 -6.52133 -12.7879 -6.83525Q-12.6201 -7.14918 -12.4371 -7.45449Q-12.2541 -7.7598 -12.0563 -8.05577Q-11.8586 -8.35173 -11.6465 -8.63764Q-11.4345 -8.92354 -11.2087 -9.1987Q-10.9828 -9.47386 -10.7438 -9.7376Q-10.5047 -10.0013 -10.253 -10.253Q-10.0013 -10.5047 -9.7376 -10.7438Q-9.47386 -10.9828 -9.1987 -11.2087Q-8.92354 -11.4345 -8.63764 -11.6465Q-8.35173 -11.8586 -8.05577 -12.0563Q-7.7598 -12.2541 -7.45449 -12.4371Q-7.14918 -12.6201 -6.83525 -12.7879Q-6.52133 -12.9557 -6.19955 -13.1078Q-5.87777 -13.26 -5.54891 -13.3963Q-5.22005 -13.5325 -4.8849 -13.6524Q-4.54976 -13.7723 -4.20913 -13.8756Q-3.8685 -13.979 -3.52321 -14.0655Q-3.17792 -14.1519 -2.82881 -14.2214Q-2.47969 -14.2908 -2.12759 -14.3431Q-1.77549 -14.3953 -1.42125 -14.4302Q-1.06701 -14.4651 -0.711481 -14.4825Q-0.355955 -14.5 0 -14.5Q0.355955 -14.5 0.711481 -14.4825Q1.06701 -14.4651 1.42125 -14.4302Q1.77549 -14.3953 2.12759 -14.3431Q2.47969 -14.2908 2.82881 -14.2214Q3.17792 -14.1519 3.52321 -14.0655Q3.8685 -13.979 4.20913 -13.8756Q4.54976 -13.7723 4.8849 -13.6524Q5.22005 -13.5325 5.54891 -13.3963Q5.87777 -13.26 6.19955 -13.1078Q6.52133 -12.9557 6.83525 -12.7879Q7.14918 -12.6201 7.45449 -12.4371Q7.7598 -12.2541 8.05577 -12.0563Q8.35173 -11.8586 8.63764 -11.6465Q8.92354 -11.4345 9.1987 -11.2087Q9.47386 -10.9828 9.7376 -10.7438Q10.0013 -10.5047 10.253 -10.253Q10.5047 -10.0013 10.7438 -9.7376Q10.9828 -9.47386 11.2087 -9.1987Q11.4345 -8.92354 11.6465 -8.63764Q11.8586 -8.35173 12.0563 -8.05577Q12.2541 -7.7598 12.4371 -7.45449Q12.6201 -7.14918 12.7879 -6.83525Q12.9557 -6.52133 13.1078 -6.19955Q13.26 -5.87777 13.3963 -5.54891Q13.5325 -5.22005 13.6524 -4.8849Q13.7723 -4.54976 13.8756 -4.20913Q13.979 -3.8685 14.0655 -3.52321Q14.1519 -3.17792 14.2214 -2.82881Q14.2908 -2.47969 14.3431 -2.12759Q14.3953 -1.77549 14.4302 -1.42125Q14.4651 -1.06701 14.4825 -0.711481Q14.5 -0.355955 14.5 0"/>
	<path fill="white" transform="matrix(1.42857 0 0 1.42857 55 47.8571)" d="M9 -5Q9 -4.80349 8.98074 -4.60793Q8.96148 -4.41237 8.92314 -4.21964Q8.8848 -4.02691 8.82776 -3.83886Q8.77072 -3.65082 8.69552 -3.46927Q8.62032 -3.28772 8.52769 -3.11441Q8.43505 -2.94111 8.32588 -2.77772Q8.2167 -2.61433 8.09204 -2.46243Q7.96738 -2.31052 7.82843 -2.17157Q7.68948 -2.03262 7.53757 -1.90796Q7.38567 -1.7833 7.22228 -1.67412Q7.05889 -1.56495 6.88559 -1.47231Q6.71228 -1.37968 6.53073 -1.30448Q6.34918 -1.22928 6.16114 -1.17224Q5.97309 -1.1152 5.78036 -1.07686Q5.58763 -1.03852 5.39207 -1.01926Q5.19651 -1 5 -1Q4.80349 -1 4.60793 -1.01926Q4.41237 -1.03852 4.21964 -1.07686Q4.02691 -1.1152 3.83886 -1.17224Q3.65082 -1.22928 3.46927 -1.30448Q3.28772 -1.37968 3.11441 -1.47231Q2.94111 -1.56495 2.77772 -1.67412Q2.61433 -1.7833 2.46243 -1.90796Q2.31052 -2.03262 2.17157 -2.17157Q2.03262 -2.31052 1.90796 -2.46243Q1.7833 -2.61433 1.67412 -2.77772Q1.56495 -2.94111 1.47231 -3.11441Q1.37968 -3.28772 1.30448 -3.46927Q1.22928 -3.65082 1.17224 -3.83886Q1.1152 -4.02691 1.07686 -4.21964Q1.03852 -4.41237 1.01926 -4.60793Q1 -4.80349 1 -5Q1 -5.19651 1.01926 -5.39207Q1.03852 -5.58763 1.07686 -5.78036Q1.1152 -5.97309 1.17224 -6.16114Q1.22928 -6.34918 1.30448 -6.53073Q1.37968 -6.71228 1.47231 -6.88559Q1.56495 -7.05889 1.67412 -7.22228Q1.7833 -7.38567 1.90796 -7.53757Q2.03262 -7.68948 2.17157 -7.82843Q2.31052 -7.96738 2.46243 -8.09204Q2.61433 -8.21671 2.77772 -8.32588Q2.94111 -8.43505 3.11441 -8.52768Q3.28772 -8.62032 3.46927 -8.69552Q3.65082 -8.77072 3.83886 -8.82776Q4.02691 -8.8848 4.21964 -8.92314Q4.41237 -8.96148 4.60793 -8.98074Q4.80349 -9 5 -9Q5.19651 -9 5.39207 -8.98074Q5.58763 -8.96148 5.78036 -8.92314Q5.97309 -8.8848 6.16114 -8.82776Q6.34918 -8.77072 6.53073 -8.69552Q6.71228 -8.62032 6.88559 -8.52769Q7.05889 -8.43505 7.22228 -8.32588Q7.38567 -8.2167 7.53757 -8.09204Q7.68948 -7.96738 7.82843 -7.82843Q7.96738 -7.68948 8.09204 -7.53757Q8.21671 -7.38567 8.32588 -7.22228Q8.43505 -7.05889 8.52768 -6.88559Q8.62032 -6.71228 8.69552 -6.53073Q8.77072 -6.34918 8.82776 -6.16114Q8.8848 -5.97309 8.92314 -5.78036Q8.96148 -5.58763 8.98074 -5.39207Q9 -5.19651 9 -5"/>
	<path fill="none" stroke="black" stroke-width="2.3999999" stroke-linejoin="round" transform="translate(55 79.2857)" d="M-19.4283 -6.58855Q-16.3277 -6.58855 -14.6724 -5.49969Q-13.0122 -4.41082 -13.0122 -1.93035Q-13.0122 0.569648 -14.6919 1.68293Q-16.3716 2.79133 -19.4917 2.79133L-20.4683 2.79133L-20.4683 7.43L-23.5884 7.43L-23.5884 -6.23211Q-22.5679 -6.4323 -21.4302 -6.51043Q-20.2876 -6.58855 -19.4283 -6.58855ZM-19.2281 -3.9323Q-19.5699 -3.9323 -19.9019 -3.90789Q-20.229 -3.88836 -20.4683 -3.86883L-20.4683 0.130195L-19.4917 0.130195Q-17.8706 0.130195 -17.0503 -0.309258Q-16.23 -0.748711 -16.23 -1.94988Q-16.23 -2.53094 -16.44 -2.90691Q-16.6499 -3.28777 -17.0406 -3.51727Q-17.4312 -3.75164 -17.9927 -3.83953Q-18.5493 -3.9323 -19.2281 -3.9323ZM-11.4115 2.24934Q-11.4115 0.847969 -10.9819 -0.201836Q-10.5522 -1.25164 -9.85393 -1.94988Q-9.1508 -2.64813 -8.2426 -3.00945Q-7.32951 -3.37078 -6.3676 -3.37078Q-4.13127 -3.37078 -2.83244 -1.99871Q-1.52873 -0.631524 -1.52873 2.02961Q-1.52873 2.2884 -1.54826 2.6009Q-1.56779 2.90852 -1.59221 3.14777L-8.35002 3.14777Q-8.25237 4.07062 -7.49065 4.61262Q-6.72893 5.14973 -5.44963 5.14973Q-4.62932 5.14973 -3.84319 5.00324Q-3.05217 4.85187 -2.54924 4.63215L-2.14885 7.04914Q-2.38811 7.17121 -2.7885 7.29328Q-3.18889 7.41047 -3.68205 7.49836Q-4.17033 7.59113 -4.73186 7.64973Q-5.2885 7.70832 -5.85002 7.70832Q-7.27092 7.70832 -8.32072 7.2884Q-9.37053 6.86848 -10.0639 6.14094Q-10.7524 5.40852 -11.0844 4.41242Q-11.4115 3.41145 -11.4115 2.24934ZM-4.40959 1.11164Q-4.42912 0.730781 -4.54143 0.369453Q-4.64885 0.00812483 -4.87834 -0.270195Q-5.10783 -0.548516 -5.4594 -0.72918Q-5.81096 -0.909844 -6.32854 -0.909844Q-6.83147 -0.909844 -7.19279 -0.738945Q-7.54924 -0.568047 -7.7885 -0.289727Q-8.02776 -0.0114064 -8.15959 0.359687Q-8.29143 0.730781 -8.35002 1.11164L-4.40959 1.11164ZM4.78993 5.34992Q5.22939 5.34992 5.62978 5.33039Q6.03017 5.31086 6.26942 5.2718L6.26942 3.01105Q6.08876 2.97199 5.72743 2.93293Q5.37099 2.88898 5.06825 2.88898Q4.64833 2.88898 4.27724 2.9427Q3.91103 2.99152 3.62782 3.13312Q3.3495 3.26984 3.18837 3.5091Q3.03212 3.74836 3.03212 4.10969Q3.03212 4.80793 3.50087 5.08137Q3.96962 5.34992 4.78993 5.34992ZM4.55067 -3.37078Q5.86903 -3.37078 6.74794 -3.06805Q7.63173 -2.7702 8.15907 -2.20867Q8.6913 -1.65203 8.91103 -0.85125Q9.13075 -0.0504689 9.13075 0.930976L9.13075 7.13215Q8.4911 7.26887 7.34853 7.4593Q6.21083 7.64973 4.58974 7.64973Q3.56923 7.64973 2.73915 7.46906Q1.90907 7.2884 1.30849 6.87824Q0.707901 6.46809 0.385635 5.80891Q0.0682526 5.14973 0.0682526 4.18781Q0.0682526 3.26984 0.439346 2.6302Q0.81044 1.99055 1.43056 1.60969Q2.05067 1.22883 2.85146 1.06281Q3.65224 0.891914 4.51161 0.891914Q5.08778 0.891914 5.537 0.940742Q5.9911 0.98957 6.26942 1.0677L6.26942 0.789375Q6.26942 0.0276561 5.81044 -0.431328Q5.35146 -0.890313 4.20888 -0.890313Q3.45204 -0.890313 2.70985 -0.778008Q1.96767 -0.670586 1.43056 -0.470391L1.0497 -2.86785Q1.30849 -2.95086 1.69911 -3.03875Q2.08974 -3.13152 2.54872 -3.19988Q3.00771 -3.26824 3.51552 -3.31707Q4.02821 -3.37078 4.55067 -3.37078ZM18.1693 -0.45086Q17.7689 -0.548516 17.2269 -0.655938Q16.6898 -0.768242 16.0696 -0.768242Q15.7913 -0.768242 15.4007 -0.719414Q15.0101 -0.670586 14.8099 -0.611992L14.8099 7.43L11.8314 7.43L11.8314 -2.53094Q12.6321 -2.80926 13.721 -3.05828Q14.8099 -3.31219 16.1478 -3.31219Q16.3919 -3.31219 16.7288 -3.27801Q17.0706 -3.24871 17.4075 -3.19988Q17.7493 -3.15105 18.0862 -3.07781Q18.428 -3.00945 18.6722 -2.9118L18.1693 -0.45086ZM24.4706 7.6302Q23.1717 7.61066 22.3612 7.35187Q21.5506 7.0882 21.077 6.61945Q20.6083 6.1507 20.4374 5.48176Q20.2713 4.80793 20.2713 3.96809L20.2713 -7.60906L23.2499 -8.08758L23.2499 3.37238Q23.2499 3.76789 23.3085 4.09016Q23.3719 4.41242 23.5379 4.63215Q23.7088 4.85187 24.0262 4.99348Q24.3485 5.1302 24.8905 5.16926L24.4706 7.6302Z"/>
	<path fill="white" transform="translate(55 79.2857)" d="M-19.4283 -6.58855Q-16.3277 -6.58855 -14.6724 -5.49969Q-13.0122 -4.41082 -13.0122 -1.93035Q-13.0122 0.569648 -14.6919 1.68293Q-16.3716 2.79133 -19.4917 2.79133L-20.4683 2.79133L-20.4683 7.43L-23.5884 7.43L-23.5884 -6.23211Q-22.5679 -6.4323 -21.4302 -6.51043Q-20.2876 -6.58855 -19.4283 -6.58855ZM-19.2281 -3.9323Q-19.5699 -3.9323 -19.9019 -3.90789Q-20.229 -3.88836 -20.4683 -3.86883L-20.4683 0.130195L-19.4917 0.130195Q-17.8706 0.130195 -17.0503 -0.309258Q-16.23 -0.748711 -16.23 -1.94988Q-16.23 -2.53094 -16.44 -2.90691Q-16.6499 -3.28777 -17.0406 -3.51727Q-17.4312 -3.75164 -17.9927 -3.83953Q-18.5493 -3.9323 -19.2281 -3.9323ZM-11.4115 2.24934Q-11.4115 0.847969 -10.9819 -0.201836Q-10.5522 -1.25164 -9.85393 -1.94988Q-9.1508 -2.64813 -8.2426 -3.00945Q-7.32951 -3.37078 -6.3676 -3.37078Q-4.13127 -3.37078 -2.83244 -1.99871Q-1.52873 -0.631524 -1.52873 2.02961Q-1.52873 2.2884 -1.54826 2.6009Q-1.56779 2.90852 -1.59221 3.14777L-8.35002 3.14777Q-8.25237 4.07062 -7.49065 4.61262Q-6.72893 5.14973 -5.44963 5.14973Q-4.62932 5.14973 -3.84319 5.00324Q-3.05217 4.85187 -2.54924 4.63215L-2.14885 7.04914Q-2.38811 7.17121 -2.7885 7.29328Q-3.18889 7.41047 -3.68205 7.49836Q-4.17033 7.59113 -4.73186 7.64973Q-5.2885 7.70832 -5.85002 7.70832Q-7.27092 7.70832 -8.32072 7.2884Q-9.37053 6.86848 -10.0639 6.14094Q-10.7524 5.40852 -11.0844 4.41242Q-11.4115 3.41145 -11.4115 2.24934ZM-4.40959 1.11164Q-4.42912 0.730781 -4.54143 0.369453Q-4.64885 0.00812483 -4.87834 -0.270195Q-5.10783 -0.548516 -5.4594 -0.72918Q-5.81096 -0.909844 -6.32854 -0.909844Q-6.83147 -0.909844 -7.19279 -0.738945Q-7.54924 -0.568047 -7.7885 -0.289727Q-8.02776 -0.0114064 -8.15959 0.359687Q-8.29143 0.730781 -8.35002 1.11164L-4.40959 1.11164ZM4.78993 5.34992Q5.22939 5.34992 5.62978 5.33039Q6.03017 5.31086 6.26942 5.2718L6.26942 3.01105Q6.08876 2.97199 5.72743 2.93293Q5.37099 2.88898 5.06825 2.88898Q4.64833 2.88898 4.27724 2.9427Q3.91103 2.99152 3.62782 3.13312Q3.3495 3.26984 3.18837 3.5091Q3.03212 3.74836 3.03212 4.10969Q3.03212 4.80793 3.50087 5.08137Q3.96962 5.34992 4.78993 5.34992ZM4.55067 -3.37078Q5.86903 -3.37078 6.74794 -3.06805Q7.63173 -2.7702 8.15907 -2.20867Q8.6913 -1.65203 8.91103 -0.85125Q9.13075 -0.0504689 9.13075 0.930976L9.13075 7.13215Q8.4911 7.26887 7.34853 7.4593Q6.21083 7.64973 4.58974 7.64973Q3.56923 7.64973 2.73915 7.46906Q1.90907 7.2884 1.30849 6.87824Q0.707901 6.46809 0.385635 5.80891Q0.0682526 5.14973 0.0682526 4.18781Q0.0682526 3.26984 0.439346 2.6302Q0.81044 1.99055 1.43056 1.60969Q2.05067 1.22883 2.85146 1.06281Q3.65224 0.891914 4.51161 0.891914Q5.08778 0.891914 5.537 0.940742Q5.9911 0.98957 6.26942 1.0677L6.26942 0.789375Q6.26942 0.0276561 5.81044 -0.431328Q5.35146 -0.890313 4.20888 -0.890313Q3.45204 -0.890313 2.70985 -0.778008Q1.96767 -0.670586 1.43056 -0.470391L1.0497 -2.86785Q1.30849 -2.95086 1.69911 -3.03875Q2.08974 -3.13152 2.54872 -3.19988Q3.00771 -3.26824 3.51552 -3.31707Q4.02821 -3.37078 4.55067 -3.37078ZM18.1693 -0.45086Q17.7689 -0.548516 17.2269 -0.655938Q16.6898 -0.768242 16.0696 -0.768242Q15.7913 -0.768242 15.4007 -0.719414Q15.0101 -0.670586 14.8099 -0.611992L14.8099 7.43L11.8314 7.43L11.8314 -2.53094Q12.6321 -2.80926 13.721 -3.05828Q14.8099 -3.31219 16.1478 -3.31219Q16.3919 -3.31219 16.7288 -3.27801Q17.0706 -3.24871 17.4075 -3.19988Q17.7493 -3.15105 18.0862 -3.07781Q18.428 -3.00945 18.6722 -2.9118L18.1693 -0.45086ZM24.4706 7.6302Q23.1717 7.61066 22.3612 7.35187Q21.5506 7.0882 21.077 6.61945Q20.6083 6.1507 20.4374 5.48176Q20.2713 4.80793 20.2713 3.96809L20.2713 -7.60906L23.2499 -8.08758L23.2499 3.37238Q23.2499 3.76789 23.3085 4.09016Q23.3719 4.41242 23.5379 4.63215Q23.7088 4.85187 24.0262 4.99348Q24.3485 5.1302 24.8905 5.16926L24.4706 7.6302Z"/>
</svg>
