<?xml version="1.0" encoding="utf-8" ?>
<svg xmlns="http://www.w3.org/2000/svg" xmlns:xlink="http://www.w3.org/1999/xlink" width="110" height="110">
	<path fill="#888" transform="matrix(0.77186 1.2021 -1.2021 0.77186 55 47.8571)" d="M7.80306 0L-3.99572 7.24553L-4.49416 -7.49866L7.80306 0Z"/>
	<path fill="#6E6E6E" transform="matrix(0.77186 1.2021 -1.2021 0.77186 55 47.8571)" d="M8.58801 1.27822L-3.21077 8.52375Q-3.27357 8.56231 -3.33984 8.59454Q-3.40611 8.62676 -3.47523 8.65233Q-3.54434 8.6779 -3.61562 8.69657Q-3.68691 8.71524 -3.75968 8.72684Q-3.83245 8.73843 -3.90601 8.74284Q-3.97957 8.74725 -4.05321 8.74442Q-4.12684 8.7416 -4.19985 8.73157Q-4.27285 8.72155 -4.34452 8.70441Q-4.41619 8.68727 -4.48584 8.6632Q-4.55548 8.63912 -4.62243 8.60833Q-4.68938 8.57754 -4.75299 8.54034Q-4.8166 8.50314 -4.87626 8.45988Q-4.93592 8.41662 -4.99105 8.36772Q-5.04618 8.31883 -5.09625 8.26476Q-5.14632 8.2107 -5.19085 8.15198Q-5.23538 8.09327 -5.27395 8.03047Q-5.48147 7.69254 -5.49486 7.29621L-5.9933 -7.44798Q-5.99579 -7.52163 -5.99105 -7.59516Q-5.98631 -7.6687 -5.97438 -7.74142Q-5.96246 -7.81414 -5.94346 -7.88534Q-5.92447 -7.95654 -5.89858 -8.02553Q-5.8727 -8.09453 -5.84018 -8.16065Q-5.80765 -8.22678 -5.76881 -8.2894Q-5.72996 -8.35202 -5.68516 -8.41053Q-5.64037 -8.46904 -5.59005 -8.52287Q-5.53973 -8.57671 -5.48438 -8.62536Q-5.42903 -8.67401 -5.36918 -8.71699Q-5.30932 -8.75998 -5.24555 -8.79689Q-5.18177 -8.83381 -5.11468 -8.86429Q-5.04759 -8.89477 -4.97784 -8.91853Q-4.90808 -8.9423 -4.83633 -8.95911Q-4.76459 -8.97592 -4.69154 -8.98561Q-4.61849 -8.99531 -4.54484 -8.9978Q-4.3254 -9.00522 -4.11304 -8.94943Q-3.90068 -8.89364 -3.71322 -8.77933L8.584 -1.28068Q8.64691 -1.24231 8.70576 -1.19797Q8.76462 -1.15362 8.81884 -1.10372Q8.87306 -1.05381 8.92213 -0.998838Q8.9712 -0.943862 9.01464 -0.88434Q9.05809 -0.824819 9.09549 -0.761326Q9.13289 -0.697832 9.16389 -0.630979Q9.19489 -0.564126 9.21918 -0.494556Q9.24348 -0.424986 9.26084 -0.35337Q9.2782 -0.281753 9.28846 -0.20878Q9.29871 -0.135807 9.30177 -0.0621804Q9.30482 0.0114465 9.30065 0.0850183Q9.29647 0.15859 9.2851 0.231398Q9.27373 0.304206 9.25528 0.37555Q9.23684 0.446893 9.21148 0.516084Q9.18613 0.585276 9.15411 0.651649Q9.1221 0.718022 9.08374 0.780938Q8.89573 1.08925 8.58801 1.27822ZM7.01811 -1.27822L7.80306 0L7.02212 1.28068L-5.2751 -6.21798L-4.49416 -7.49866L-2.99502 -7.54934L-2.49658 7.19485L-3.99572 7.24553L-4.78067 5.9673L7.01811 -1.27822Z"/>
	<path fill="none" stroke="black" stroke-width="1.8857143" stroke-linejoin="round" transform="translate(55 79.2857)" d="M-35.0317 5.83786L-35.0317 -5.05395L-27.7424 -5.05395L-27.7424 -2.99376L-32.5802 -2.99376L-32.5802 -0.714878L-28.2757 -0.714878L-28.2757 1.34532L-32.5802 1.34532L-32.5802 5.83786L-35.0317 5.83786ZM-21.1956 -0.354247Q-21.5102 -0.430977 -21.9361 -0.51538Q-22.3581 -0.603619 -22.8453 -0.603619Q-23.064 -0.603619 -23.3709 -0.565254Q-23.6778 -0.526889 -23.8351 -0.480852L-23.8351 5.83786L-26.1754 5.83786L-26.1754 -1.98859Q-25.5462 -2.20727 -24.6907 -2.40294Q-23.8351 -2.60243 -22.7839 -2.60243Q-22.5921 -2.60243 -22.3274 -2.57558Q-22.0588 -2.55256 -21.7941 -2.51419Q-21.5256 -2.47583 -21.2608 -2.41828Q-20.9923 -2.36457 -20.8005 -2.28784L-21.1956 -0.354247ZM-16.3912 4.20351Q-16.0459 4.20351 -15.7313 4.18816Q-15.4167 4.17282 -15.2287 4.14213L-15.2287 2.36583Q-15.3707 2.33514 -15.6546 2.30444Q-15.9347 2.26992 -16.1725 2.26992Q-16.5025 2.26992 -16.794 2.31212Q-17.0818 2.35048 -17.3043 2.46174Q-17.523 2.56916 -17.6496 2.75715Q-17.7723 2.94514 -17.7723 3.22904Q-17.7723 3.77766 -17.404 3.9925Q-17.0357 4.20351 -16.3912 4.20351ZM-16.5792 -2.64847Q-15.5433 -2.64847 -14.8528 -2.41061Q-14.1584 -2.17658 -13.744 -1.73539Q-13.3258 -1.29803 -13.1532 -0.66884Q-12.9806 -0.0396543 -12.9806 0.731481L-12.9806 5.60383Q-13.4831 5.71125 -14.3809 5.86088Q-15.2748 6.0105 -16.5485 6.0105Q-17.3503 6.0105 -18.0025 5.86855Q-18.6547 5.7266 -19.1266 5.40433Q-19.5985 5.08207 -19.8517 4.56414Q-20.1011 4.04621 -20.1011 3.29042Q-20.1011 2.56916 -19.8095 2.06658Q-19.5179 1.564 -19.0307 1.26475Q-18.5435 0.965508 -17.9143 0.835066Q-17.2851 0.700789 -16.6099 0.700789Q-16.1572 0.700789 -15.8042 0.739154Q-15.4474 0.777519 -15.2287 0.838903L-15.2287 0.620223Q-15.2287 0.0217295 -15.5894 -0.338901Q-15.95 -0.699532 -16.8477 -0.699532Q-17.4424 -0.699532 -18.0255 -0.611292Q-18.6087 -0.526889 -19.0307 -0.369593L-19.33 -2.25331Q-19.1266 -2.31853 -18.8197 -2.38759Q-18.5128 -2.46048 -18.1522 -2.51419Q-17.7915 -2.5679 -17.3925 -2.60627Q-16.9897 -2.64847 -16.5792 -2.64847ZM-8.86979 1.4374Q-8.86979 3.40168 -7.28148 3.40168Q-6.92085 3.40168 -6.60626 3.30961Q-6.29167 3.21369 -6.07299 3.08709L-6.07299 -0.653494Q-6.24563 -0.684186 -6.48349 -0.707205Q-6.71752 -0.730224 -7.03211 -0.730224Q-7.96054 -0.730224 -8.41708 -0.116385Q-8.86979 0.493618 -8.86979 1.4374ZM-3.73272 4.802Q-3.73272 6.82767 -4.7609 7.80982Q-5.78909 8.79196 -7.94136 8.79196Q-8.69715 8.79196 -9.45294 8.65768Q-10.2049 8.5234 -10.8494 8.30472L-10.4428 6.34044Q-9.8903 6.55912 -9.28797 6.68572Q-8.6818 6.81233 -7.91067 6.81233Q-6.90551 6.81233 -6.49116 6.37113Q-6.07299 5.93377 -6.07299 5.23936L-6.07299 4.94395Q-6.44896 5.1166 -6.85179 5.20483Q-7.25079 5.28924 -7.72268 5.28924Q-9.43759 5.28924 -10.3507 4.2764Q-11.2599 3.25973 -11.2599 1.4374Q-11.2599 0.528147 -10.976 -0.21997Q-10.6921 -0.968086 -10.1512 -1.50136Q-9.61024 -2.03463 -8.82375 -2.32621Q-8.03727 -2.61778 -7.04746 -2.61778Q-6.6216 -2.61778 -6.17657 -2.57558Q-5.7277 -2.53721 -5.29034 -2.47199Q-4.84914 -2.41061 -4.45015 -2.32237Q-4.04732 -2.23797 -3.73272 -2.14589L-3.73272 4.802ZM3.0015 1.45274Q3.0015 0.320976 2.70993 -0.147076Q2.42219 -0.618965 1.71628 -0.618965Q1.49376 -0.618965 1.2559 -0.595946Q1.02187 -0.572927 0.803191 -0.542235L0.803191 5.83786L-1.53707 5.83786L-1.53707 -2.14589Q-1.23782 -2.22262 -0.838829 -2.30702Q-0.439833 -2.39526 0.00903654 -2.46432Q0.457906 -2.53721 0.929796 -2.57558Q1.40168 -2.61778 1.85439 -2.61778Q2.75213 -2.61778 3.30842 -2.38759Q3.86855 -2.16124 4.22918 -1.84664Q4.73176 -2.20727 5.38397 -2.41061Q6.03617 -2.61778 6.58479 -2.61778Q7.57461 -2.61778 8.21146 -2.34155Q8.84832 -2.06532 9.2243 -1.56274Q9.60411 -1.06016 9.74606 -0.369593Q9.88801 0.320976 9.88801 1.16884L9.88801 5.83786L7.54391 5.83786L7.54391 1.45274Q7.54391 0.320976 7.25234 -0.147076Q6.9646 -0.618965 6.25485 -0.618965Q6.06686 -0.618965 5.72925 -0.523053Q5.39164 -0.430977 5.17296 -0.289027Q5.28038 0.0716038 5.31107 0.474436Q5.3456 0.873432 5.3456 1.32614L5.3456 5.83786L3.0015 5.83786L3.0015 1.45274ZM11.6039 1.76733Q11.6039 0.666261 11.9415 -0.158586Q12.2792 -0.983432 12.8278 -1.53205Q13.3802 -2.08067 14.0938 -2.36457Q14.8112 -2.64847 15.567 -2.64847Q17.3241 -2.64847 18.3447 -1.57042Q19.369 -0.496197 19.369 1.59469Q19.369 1.79803 19.3537 2.04356Q19.3383 2.28526 19.3191 2.47325L14.0094 2.47325Q14.0861 3.19835 14.6846 3.6242Q15.2831 4.04621 16.2883 4.04621Q16.9328 4.04621 17.5505 3.93112Q18.172 3.81219 18.5672 3.63954L18.8818 5.53861Q18.6938 5.63452 18.3792 5.73043Q18.0646 5.82251 17.6771 5.89157Q17.2935 5.96446 16.8523 6.0105Q16.4149 6.05654 15.9737 6.05654Q14.8573 6.05654 14.0324 5.7266Q13.2076 5.39666 12.6628 4.82502Q12.1219 4.24955 11.861 3.4669Q11.6039 2.68042 11.6039 1.76733ZM17.1055 0.873432Q17.0901 0.574185 17.0019 0.290284Q16.9175 0.00638342 16.7372 -0.212297Q16.5568 -0.430977 16.2806 -0.572927Q16.0044 -0.714878 15.5977 -0.714878Q15.2026 -0.714878 14.9187 -0.5806Q14.6386 -0.446323 14.4506 -0.227643Q14.2626 -0.00896263 14.159 0.282611Q14.0555 0.574185 14.0094 0.873432L17.1055 0.873432ZM21.1698 -2.14589Q21.7644 -2.31853 22.7082 -2.46816Q23.652 -2.61778 24.6878 -2.61778Q25.7429 -2.61778 26.4411 -2.34155Q27.1393 -2.06532 27.546 -1.56274Q27.9565 -1.06016 28.1292 -0.369593Q28.3018 0.320976 28.3018 1.16884L28.3018 5.83786L25.9615 5.83786L25.9615 1.45274Q25.9615 0.320976 25.6623 -0.147076Q25.3631 -0.618965 24.5459 -0.618965Q24.2965 -0.618965 24.0126 -0.595946Q23.7287 -0.572927 23.51 -0.542235L23.51 5.83786L21.1698 5.83786L21.1698 -2.14589ZM30.3384 -4.48615L32.6825 -4.86213L32.6825 -2.42595L35.4946 -2.42595L35.4946 -0.480852L32.6825 -0.480852L32.6825 2.42721Q32.6825 3.16766 32.9395 3.60885Q33.2004 4.04621 33.9869 4.04621Q34.3629 4.04621 34.7619 3.97716Q35.1647 3.90426 35.4946 3.77766L35.8246 5.60383Q35.3987 5.77647 34.8808 5.89924Q34.3629 6.02585 33.6071 6.02585Q32.648 6.02585 32.0188 5.7688Q31.3934 5.50792 31.0136 5.0437Q30.6376 4.57949 30.488 3.91961Q30.3384 3.25973 30.3384 2.4579L30.3384 -4.48615Z"/>
	<path fill="white" transform="translate(55 79.2857)" d="M-35.0317 5.83786L-35.0317 -5.05395L-27.7424 -5.05395L-27.7424 -2.99376L-32.5802 -2.99376L-32.5802 -0.714878L-28.2757 -0.714878L-28.2757 1.34532L-32.5802 1.34532L-32.5802 5.83786L-35.0317 5.83786ZM-21.1956 -0.354247Q-21.5102 -0.430977 -21.9361 -0.51538Q-22.3581 -0.603619 -22.8453 -0.603619Q-23.064 -0.603619 -23.3709 -0.565254Q-23.6778 -0.526889 -23.8351 -0.480852L-23.8351 5.83786L-26.1754 5.83786L-26.1754 -1.98859Q-25.5462 -2.20727 -24.6907 -2.40294Q-23.8351 -2.60243 -22.7839 -2.60243Q-22.5921 -2.60243 -22.3274 -2.57558Q-22.0588 -2.55256 -21.7941 -2.51419Q-21.5256 -2.47583 -21.2608 -2.41828Q-20.9923 -2.36457 -20.8005 -2.28784L-21.1956 -0.354247ZM-16.3912 4.20351Q-16.0459 4.20351 -15.7313 4.18816Q-15.4167 4.17282 -15.2287 4.14213L-15.2287 2.36583Q-15.3707 2.33514 -15.6546 2.30444Q-15.9347 2.26992 -16.1725 2.26992Q-16.5025 2.26992 -16.794 2.31212Q-17.0818 2.35048 -17.3043 2.46174Q-17.523 2.56916 -17.6496 2.75715Q-17.7723 2.94514 -17.7723 3.22904Q-17.7723 3.77766 -17.404 3.9925Q-17.0357 4.20351 -16.3912 4.20351ZM-16.5792 -2.64847Q-15.5433 -2.64847 -14.8528 -2.41061Q-14.1584 -2.17658 -13.744 -1.73539Q-13.3258 -1.29803 -13.1532 -0.66884Q-12.9806 -0.0396543 -12.9806 0.731481L-12.9806 5.60383Q-13.4831 5.71125 -14.3809 5.86088Q-15.2748 6.0105 -16.5485 6.0105Q-17.3503 6.0105 -18.0025 5.86855Q-18.6547 5.7266 -19.1266 5.40433Q-19.5985 5.08207 -19.8517 4.56414Q-20.1011 4.04621 -20.1011 3.29042Q-20.1011 2.56916 -19.8095 2.06658Q-19.5179 1.564 -19.0307 1.26475Q-18.5435 0.965508 -17.9143 0.835066Q-17.2851 0.700789 -16.6099 0.700789Q-16.1572 0.700789 -15.8042 0.739154Q-15.4474 0.777519 -15.2287 0.838903L-15.2287 0.620223Q-15.2287 0.0217295 -15.5894 -0.338901Q-15.95 -0.699532 -16.8477 -0.699532Q-17.4424 -0.699532 -18.0255 -0.611292Q-18.6087 -0.526889 -19.0307 -0.369593L-19.33 -2.25331Q-19.1266 -2.31853 -18.8197 -2.38759Q-18.5128 -2.46048 -18.1522 -2.51419Q-17.7915 -2.5679 -17.3925 -2.60627Q-16.9897 -2.64847 -16.5792 -2.64847ZM-8.86979 1.4374Q-8.86979 3.40168 -7.28148 3.40168Q-6.92085 3.40168 -6.60626 3.30961Q-6.29167 3.21369 -6.07299 3.08709L-6.07299 -0.653494Q-6.24563 -0.684186 -6.48349 -0.707205Q-6.71752 -0.730224 -7.03211 -0.730224Q-7.96054 -0.730224 -8.41708 -0.116385Q-8.86979 0.493618 -8.86979 1.4374ZM-3.73272 4.802Q-3.73272 6.82767 -4.7609 7.80982Q-5.78909 8.79196 -7.94136 8.79196Q-8.69715 8.79196 -9.45294 8.65768Q-10.2049 8.5234 -10.8494 8.30472L-10.4428 6.34044Q-9.8903 6.55912 -9.28797 6.68572Q-8.6818 6.81233 -7.91067 6.81233Q-6.90551 6.81233 -6.49116 6.37113Q-6.07299 5.93377 -6.07299 5.23936L-6.07299 4.94395Q-6.44896 5.1166 -6.85179 5.20483Q-7.25079 5.28924 -7.72268 5.28924Q-9.43759 5.28924 -10.3507 4.2764Q-11.2599 3.25973 -11.2599 1.4374Q-11.2599 0.528147 -10.976 -0.21997Q-10.6921 -0.968086 -10.1512 -1.50136Q-9.61024 -2.03463 -8.82375 -2.32621Q-8.03727 -2.61778 -7.04746 -2.61778Q-6.6216 -2.61778 -6.17657 -2.57558Q-5.7277 -2.53721 -5.29034 -2.47199Q-4.84914 -2.41061 -4.45015 -2.32237Q-4.04732 -2.23797 -3.73272 -2.14589L-3.73272 4.802ZM3.0015 1.45274Q3.0015 0.320976 2.70993 -0.147076Q2.42219 -0.618965 1.71628 -0.618965Q1.49376 -0.618965 1.2559 -0.595946Q1.02187 -0.572927 0.803191 -0.542235L0.803191 5.83786L-1.53707 5.83786L-1.53707 -2.14589Q-1.23782 -2.22262 -0.838829 -2.30702Q-0.439833 -2.39526 0.00903654 -2.46432Q0.457906 -2.53721 0.929796 -2.57558Q1.40168 -2.61778 1.85439 -2.61778Q2.75213 -2.61778 3.30842 -2.38759Q3.86855 -2.16124 4.22918 -1.84664Q4.73176 -2.20727 5.38397 -2.41061Q6.03617 -2.61778 6.58479 -2.61778Q7.57461 -2.61778 8.21146 -2.34155Q8.84832 -2.06532 9.2243 -1.56274Q9.60411 -1.06016 9.74606 -0.369593Q9.88801 0.320976 9.88801 1.16884L9.88801 5.83786L7.54391 5.83786L7.54391 1.45274Q7.54391 0.320976 7.25234 -0.147076Q6.9646 -0.618965 6.25485 -0.618965Q6.06686 -0.618965 5.72925 -0.523053Q5.39164 -0.430977 5.17296 -0.289027Q5.28038 0.0716038 5.31107 0.474436Q5.3456 0.873432 5.3456 1.32614L5.3456 5.83786L3.0015 5.83786L3.0015 1.45274ZM11.6039 1.76733Q11.6039 0.666261 11.9415 -0.158586Q12.2792 -0.983432 12.8278 -1.53205Q13.3802 -2.08067 14.0938 -2.36457Q14.8112 -2.64847 15.567 -2.64847Q17.3241 -2.64847 18.3447 -1.57042Q19.369 -0.496197 19.369 1.59469Q19.369 1.79803 19.3537 2.04356Q19.3383 2.28526 19.3191 2.47325L14.0094 2.47325Q14.0861 3.19835 14.6846 3.6242Q15.2831 4.04621 16.2883 4.04621Q16.9328 4.04621 17.5505 3.93112Q18.172 3.81219 18.5672 3.63954L18.8818 5.53861Q18.6938 5.63452 18.3792 5.73043Q18.0646 5.82251 17.6771 5.89157Q17.2935 5.96446 16.8523 6.0105Q16.4149 6.05654 15.9737 6.05654Q14.8573 6.05654 14.0324 5.7266Q13.2076 5.39666 12.6628 4.82502Q12.1219 4.24955 11.861 3.4669Q11.6039 2.68042 11.6039 1.76733ZM17.1055 0.873432Q17.0901 0.574185 17.0019 0.290284Q16.9175 0.00638342 16.7372 -0.212297Q16.5568 -0.430977 16.2806 -0.572927Q16.0044 -0.714878 15.5977 -0.714878Q15.2026 -0.714878 14.9187 -0.5806Q14.6386 -0.446323 14.4506 -0.227643Q14.2626 -0.00896263 14.159 0.282611Q14.0555 0.574185 14.0094 0.873432L17.1055 0.873432ZM21.1698 -2.14589Q21.7644 -2.31853 22.7082 -2.46816Q23.652 -2.61778 24.6878 -2.61778Q25.7429 -2.61778 26.4411 -2.34155Q27.1393 -2.06532 27.546 -1.56274Q27.9565 -1.06016 28.1292 -0.369593Q28.3018 0.320976 28.3018 1.16884L28.3018 5.83786L25.9615 5.83786L25.9615 1.45274Q25.9615 0.320976 25.6623 -0.147076Q25.3631 -0.618965 24.5459 -0.618965Q24.2965 -0.618965 24.0126 -0.595946Q23.7287 -0.572927 23.51 -0.542235L23.51 5.83786L21.1698 5.83786L21.1698 -2.14589ZM30.3384 -4.48615L32.6825 -4.86213L32.6825 -2.42595L35.4946 -2.42595L35.4946 -0.480852L32.6825 -0.480852L32.6825 2.42721Q32.6825 3.16766 32.9395 3.60885Q33.2004 4.04621 33.9869 4.04621Q34.3629 4.04621 34.7619 3.97716Q35.1647 3.90426 35.4946 3.77766L35.8246 5.60383Q35.3987 5.77647 34.8808 5.89924Q34.3629 6.02585 33.6071 6.02585Q32.648 6.02585 32.0188 5.7688Q31.3934 5.50792 31.0136 5.0437Q30.6376 4.57949 30.488 3.91961Q30.3384 3.25973 30.3384 2.4579L30.3384 -4.48615Z"/>
</svg>
