<?xml version="1.0" encoding="utf-8" ?>
<svg xmlns="http://www.w3.org/2000/svg" xmlns:xlink="http://www.w3.org/1999/xlink" width="110" height="110">
	<path fill="#EB4C34" transform="matrix(0.617488 0.961681 -0.961681 0.617488 55 47.8571)" d="M-13 -7L-33 0L-13 7L-13 -7Z"/>
	<path fill="#EBE834" transform="matrix(0.617488 0.961681 -0.961681 0.617488 55 47.8571)" d="M-13 -2.1L-19 0L-13 2.1L-13 -2.1Z"/>
	<path fill="#7C7C7C" transform="matrix(0.617488 0.961681 -0.961681 0.617488 55 47.8571)" d="M9.96549 2.27592L-12.0345 -7.72408L-11 -10L-8.5 -10L-8.5 10L-11 10L-12.0345 7.72408L9.96549 -2.27592L11 0L9.96549 2.27592ZM12.0345 -2.27592Q12.2392 -2.18288 12.424 -2.05481Q12.6088 -1.92675 12.7678 -1.76777Q12.9267 -1.60878 13.0548 -1.42399Q13.1829 -1.23919 13.2759 -1.03451Q13.3267 -0.922699 13.3664 -0.806447Q13.406 -0.690196 13.434 -0.57062Q13.462 -0.451045 13.4782 -0.329298Q13.4944 -0.207551 13.4986 -0.0848048Q13.5027 0.0379416 13.4948 0.160505Q13.487 0.283069 13.4671 0.40427Q13.4472 0.52547 13.4156 0.644141Q13.3839 0.762811 13.3408 0.877808Q13.2977 0.992806 13.2435 1.10302Q13.1893 1.21324 13.1246 1.31761Q13.0599 1.42199 12.9852 1.51952Q12.9106 1.61704 12.8267 1.70678Q12.7429 1.79652 12.6506 1.87761Q12.5584 1.9587 12.4586 2.03036Q12.3589 2.10202 12.2526 2.16356Q12.1463 2.22509 12.0345 2.27592L-9.96549 12.2759Q-10.4585 12.5 -11 12.5Q-11.1228 12.5 -11.245 12.488Q-11.3673 12.4759 -11.4877 12.452Q-11.6082 12.428 -11.7257 12.3923Q-11.8432 12.3567 -11.9567 12.3097Q-12.0702 12.2627 -12.1785 12.2048Q-12.2868 12.1469 -12.3889 12.0787Q-12.491 12.0104 -12.586 11.9325Q-12.6809 11.8546 -12.7678 11.7678Q-12.8546 11.6809 -12.9325 11.586Q-13.0104 11.491 -13.0787 11.3889Q-13.1469 11.2868 -13.2048 11.1785Q-13.2627 11.0702 -13.3097 10.9567Q-13.3567 10.8432 -13.3924 10.7257Q-13.428 10.6082 -13.452 10.4877Q-13.4759 10.3673 -13.488 10.245Q-13.5 10.1228 -13.5 10L-13.5 -10Q-13.5 -10.5415 -13.2759 -11.0345Q-13.2251 -11.1463 -13.1636 -11.2526Q-13.102 -11.3589 -13.0304 -11.4586Q-12.9587 -11.5584 -12.8776 -11.6506Q-12.7965 -11.7429 -12.7068 -11.8267Q-12.617 -11.9106 -12.5195 -11.9852Q-12.422 -12.0599 -12.3176 -12.1246Q-12.2132 -12.1893 -12.103 -12.2435Q-11.9928 -12.2977 -11.8778 -12.3408Q-11.7628 -12.3839 -11.6441 -12.4156Q-11.5255 -12.4472 -11.4043 -12.4671Q-11.2831 -12.487 -11.1605 -12.4948Q-11.0379 -12.5027 -10.9152 -12.4986Q-10.7924 -12.4944 -10.6707 -12.4782Q-10.549 -12.462 -10.4294 -12.434Q-10.3098 -12.406 -10.1936 -12.3664Q-10.0773 -12.3267 -9.96549 -12.2759L12.0345 -2.27592Z"/>
	<path fill="#999" transform="matrix(0.617488 0.961681 -0.961681 0.617488 55 47.8571)" d="M11 0L-11 -10L-11 10L11 0Z"/>
	<path fill="#CF0000" transform="matrix(0.617488 0.961681 -0.961681 0.617488 55 47.8571)" d="M2 0Q2 0.0982537 1.99037 0.196034Q1.98074 0.293815 1.96157 0.390181Q1.9424 0.486546 1.91388 0.580569Q1.88536 0.674592 1.84776 0.765367Q1.81016 0.856141 1.76384 0.942793Q1.71753 1.02945 1.66294 1.11114Q1.60835 1.19284 1.54602 1.26879Q1.48369 1.34474 1.41421 1.41421Q1.34474 1.48369 1.26879 1.54602Q1.19284 1.60835 1.11114 1.66294Q1.02945 1.71753 0.942793 1.76384Q0.856141 1.81016 0.765367 1.84776Q0.674592 1.88536 0.580569 1.91388Q0.486546 1.9424 0.390181 1.96157Q0.293815 1.98074 0.196034 1.99037Q0.0982537 2 0 2Q-0.0982537 2 -0.196034 1.99037Q-0.293815 1.98074 -0.390181 1.96157Q-0.486546 1.9424 -0.580569 1.91388Q-0.674592 1.88536 -0.765367 1.84776Q-0.856141 1.81016 -0.942793 1.76384Q-1.02945 1.71753 -1.11114 1.66294Q-1.19284 1.60835 -1.26879 1.54602Q-1.34474 1.48369 -1.41421 1.41421Q-1.48369 1.34474 -1.54602 1.26879Q-1.60835 1.19284 -1.66294 1.11114Q-1.71753 1.02945 -1.76384 0.942793Q-1.81016 0.856141 -1.84776 0.765367Q-1.88536 0.674592 -1.91388 0.580569Q-1.9424 0.486546 -1.96157 0.390181Q-1.98074 0.293815 -1.99037 0.196034Q-2 0.0982537 -2 0Q-2 -0.0982537 -1.99037 -0.196034Q-1.98074 -0.293815 -1.96157 -0.390181Q-1.9424 -0.486546 -1.91388 -0.580569Q-1.88536 -0.674592 -1.84776 -0.765367Q-1.81016 -0.856141 -1.76384 -0.942793Q-1.71753 -1.02945 -1.66294 -1.11114Q-1.60835 -1.19284 -1.54602 -1.26879Q-1.48369 -1.34474 -1.41421 -1.41421Q-1.34474 -1.48369 -1.26879 -1.54602Q-1.19284 -1.60835 -1.11114 -1.66294Q-1.02945 -1.71753 -0.942793 -1.76384Q-0.856141 -1.81016 -0.765367 -1.84776Q-0.674592 -1.88536 -0.580569 -1.91388Q-0.486546 -1.9424 -0.390181 -1.96157Q-0.293815 -1.98074 -0.196034 -1.99037Q-0.0982537 -2 0 -2Q0.0982537 -2 0.196034 -1.99037Q0.293815 -1.98074 0.390181 -1.96157Q0.486546 -1.9424 0.580569 -1.91388Q0.674592 -1.88536 0.765367 -1.84776Q0.856141 -1.81016 0.942793 -1.76384Q1.02945 -1.71753 1.11114 -1.66294Q1.19284 -1.60835 1.26879 -1.54602Q1.34474 -1.48369 1.41421 -1.41421Q1.48369 -1.34474 1.54602 -1.26879Q1.60835 -1.19284 1.66294 -1.11114Q1.71753 -1.02945 1.76384 -0.942793Q1.81016 -0.856141 1.84776 -0.765367Q1.88536 -0.674592 1.91388 -0.580569Q1.9424 -0.486546 1.96157 -0.390181Q1.98074 -0.293815 1.99037 -0.196034Q2 -0.0982537 2 0"/>
	<path fill="red" transform="matrix(0.617488 0.961681 -0.961681 0.617488 55 47.8571)" d="M1.33333 0Q1.33333 0.0655025 1.32691 0.13069Q1.32049 0.195877 1.30771 0.26012Q1.29493 0.324364 1.27592 0.387046Q1.25691 0.449728 1.23184 0.510244Q1.20677 0.570761 1.1759 0.628529Q1.14502 0.686297 1.10863 0.74076Q1.07223 0.795224 1.03068 0.845858Q0.989126 0.896492 0.942809 0.942809Q0.896492 0.989126 0.845858 1.03068Q0.795224 1.07223 0.74076 1.10863Q0.686297 1.14502 0.628529 1.17589Q0.570761 1.20677 0.510244 1.23184Q0.449728 1.25691 0.387046 1.27592Q0.324364 1.29493 0.26012 1.30771Q0.195877 1.32049 0.13069 1.32691Q0.0655025 1.33333 0 1.33333Q-0.0655025 1.33333 -0.13069 1.32691Q-0.195877 1.32049 -0.26012 1.30771Q-0.324364 1.29493 -0.387046 1.27592Q-0.449728 1.25691 -0.510244 1.23184Q-0.570761 1.20677 -0.628529 1.1759Q-0.686297 1.14502 -0.74076 1.10863Q-0.795224 1.07223 -0.845858 1.03068Q-0.896492 0.989126 -0.942809 0.942809Q-0.989126 0.896492 -1.03068 0.845858Q-1.07223 0.795224 -1.10863 0.74076Q-1.14502 0.686297 -1.17589 0.628529Q-1.20677 0.570761 -1.23184 0.510244Q-1.25691 0.449728 -1.27592 0.387046Q-1.29493 0.324364 -1.30771 0.26012Q-1.32049 0.195877 -1.32691 0.13069Q-1.33333 0.0655025 -1.33333 0Q-1.33333 -0.0655025 -1.32691 -0.13069Q-1.32049 -0.195877 -1.30771 -0.26012Q-1.29493 -0.324364 -1.27592 -0.387046Q-1.25691 -0.449728 -1.23184 -0.510244Q-1.20677 -0.570761 -1.1759 -0.628529Q-1.14502 -0.686297 -1.10863 -0.74076Q-1.07223 -0.795224 -1.03068 -0.845858Q-0.989126 -0.896492 -0.942809 -0.942809Q-0.896492 -0.989126 -0.845858 -1.03068Q-0.795224 -1.07223 -0.74076 -1.10863Q-0.686297 -1.14502 -0.628529 -1.17589Q-0.570761 -1.20677 -0.510244 -1.23184Q-0.449728 -1.25691 -0.387046 -1.27592Q-0.324364 -1.29493 -0.26012 -1.30771Q-0.195877 -1.32049 -0.13069 -1.32691Q-0.0655025 -1.33333 0 -1.33333Q0.0655025 -1.33333 0.13069 -1.32691Q0.195877 -1.32049 0.26012 -1.30771Q0.324364 -1.29493 0.387046 -1.27592Q0.449728 -1.25691 0.510244 -1.23184Q0.570761 -1.20677 0.628529 -1.1759Q0.686297 -1.14502 0.74076 -1.10863Q0.795224 -1.07223 0.845858 -1.03068Q0.896492 -0.989126 0.942809 -0.942809Q0.989126 -0.896492 1.03068 -0.845858Q1.07223 -0.795224 1.10863 -0.74076Q1.14502 -0.686297 1.17589 -0.628529Q1.20677 -0.570761 1.23184 -0.510244Q1.25691 -0.449728 1.27592 -0.387046Q1.29493 -0.324364 1.30771 -0.26012Q1.32049 -0.195877 1.32691 -0.13069Q1.33333 -0.0655025 1.33333 0"/>
	<path fill="none" stroke="black" stroke-width="2.3999999" stroke-linejoin="round" transform="translate(55 79.2857)" d="M-28.1717 -6.4323Q-27.8103 -5.76824 -27.3416 -4.79656Q-26.868 -3.82977 -26.3601 -2.69695Q-25.8523 -1.56902 -25.3543 -0.387383Q-24.8513 0.789375 -24.4119 1.82941Q-23.9676 0.789375 -23.4695 -0.387383Q-22.9715 -1.56902 -22.4637 -2.69695Q-21.951 -3.82977 -21.4822 -4.79656Q-21.0086 -5.76824 -20.6521 -6.4323L-17.8103 -6.4323Q-17.6101 -5.05047 -17.4392 -3.3366Q-17.2683 -1.62762 -17.1414 0.222969Q-17.0096 2.06867 -16.9021 3.92902Q-16.7898 5.78937 -16.7117 7.43L-19.7488 7.43Q-19.8123 5.40852 -19.9099 3.03059Q-20.0076 0.647773 -20.2078 -1.76922Q-20.5691 -0.929375 -21.0086 0.0911326Q-21.448 1.11164 -21.8826 2.13215Q-22.3123 3.14777 -22.7127 4.08039Q-23.1082 5.00812 -23.3914 5.67219L-25.5691 5.67219Q-25.8523 5.00812 -26.2527 4.08039Q-26.6482 3.14777 -27.0779 2.13215Q-27.5076 1.11164 -27.9519 0.0911326Q-28.3914 -0.929375 -28.7478 -1.76922Q-28.948 0.647773 -29.0506 3.03059Q-29.1482 5.40852 -29.2117 7.43L-32.2488 7.43Q-32.1707 5.78937 -32.0633 3.92902Q-31.951 2.06867 -31.824 0.222969Q-31.6922 -1.62762 -31.5213 -3.3366Q-31.3504 -5.05047 -31.1502 -6.4323L-28.1717 -6.4323ZM-11.1301 7.43L-14.1086 7.43L-14.1086 -3.08758L-11.1301 -3.08758L-11.1301 7.43ZM-10.8518 -6.12957Q-10.8518 -5.30926 -11.384 -4.84051Q-11.9114 -4.37176 -12.6291 -4.37176Q-13.3518 -4.37176 -13.884 -4.84051Q-14.4114 -5.30926 -14.4114 -6.12957Q-14.4114 -6.94988 -13.884 -7.41863Q-13.3518 -7.89227 -12.6291 -7.89227Q-11.9114 -7.89227 -11.384 -7.41863Q-10.8518 -6.94988 -10.8518 -6.12957ZM-5.31105 5.29133Q-4.49074 5.29133 -4.15382 5.1302Q-3.81203 4.96906 -3.81203 4.51008Q-3.81203 4.14875 -4.25148 3.8802Q-4.69093 3.61164 -5.58937 3.26984Q-6.28761 3.01105 -6.8589 2.73273Q-7.43019 2.44953 -7.83058 2.05891Q-8.23097 1.66828 -8.4507 1.13117Q-8.67043 0.58918 -8.67043 -0.167656Q-8.67043 -1.65203 -7.57179 -2.51141Q-6.46828 -3.37078 -4.54933 -3.37078Q-3.5923 -3.37078 -2.71339 -3.19988Q-1.82961 -3.02898 -1.31203 -2.82879L-1.82961 -0.509453Q-2.35207 -0.690117 -2.96242 -0.826836Q-3.56789 -0.968438 -4.32961 -0.968438Q-5.73097 -0.968438 -5.73097 -0.19207Q-5.73097 -0.0114064 -5.67238 0.130195Q-5.6089 0.271797 -5.42824 0.403633Q-5.24757 0.530586 -4.93996 0.681953Q-4.63234 0.828437 -4.14894 1.0091Q-3.17238 1.37043 -2.53273 1.72199Q-1.8882 2.06867 -1.52199 2.47883Q-1.15089 2.88898 -0.999527 3.39191Q-0.84816 3.88996 -0.84816 4.54914Q-0.84816 6.11164 -2.02003 6.91242Q-3.19191 7.70832 -5.33058 7.70832Q-6.73195 7.70832 -7.66457 7.46906Q-8.5923 7.2298 -8.94875 7.06867L-8.4507 4.65168Q-7.68898 4.94953 -6.89308 5.12043Q-6.0923 5.29133 -5.31105 5.29133ZM4.38895 5.29133Q5.20926 5.29133 5.54617 5.1302Q5.88797 4.96906 5.88797 4.51008Q5.88797 4.14875 5.44852 3.8802Q5.00906 3.61164 4.11063 3.26984Q3.41238 3.01105 2.84109 2.73273Q2.26981 2.44953 1.86942 2.05891Q1.46902 1.66828 1.2493 1.13117Q1.02957 0.58918 1.02957 -0.167656Q1.02957 -1.65203 2.1282 -2.51141Q3.23172 -3.37078 5.15067 -3.37078Q6.1077 -3.37078 6.9866 -3.19988Q7.87039 -3.02898 8.38797 -2.82879L7.87039 -0.509453Q7.34793 -0.690117 6.73758 -0.826836Q6.13211 -0.968438 5.37039 -0.968438Q3.96902 -0.968438 3.96902 -0.19207Q3.96902 -0.0114064 4.02762 0.130195Q4.09109 0.271797 4.27176 0.403633Q4.45242 0.530586 4.76004 0.681953Q5.06766 0.828437 5.55106 1.0091Q6.52762 1.37043 7.16727 1.72199Q7.8118 2.06867 8.17801 2.47883Q8.5491 2.88898 8.70047 3.39191Q8.85184 3.88996 8.85184 4.54914Q8.85184 6.11164 7.67996 6.91242Q6.50809 7.70832 4.36942 7.70832Q2.96805 7.70832 2.03543 7.46906Q1.1077 7.2298 0.751251 7.06867L1.2493 4.65168Q2.01102 4.94953 2.80692 5.12043Q3.6077 5.29133 4.38895 5.29133ZM14.0499 7.43L11.0714 7.43L11.0714 -3.08758L14.0499 -3.08758L14.0499 7.43ZM14.3282 -6.12957Q14.3282 -5.30926 13.796 -4.84051Q13.2686 -4.37176 12.5509 -4.37176Q11.8282 -4.37176 11.296 -4.84051Q10.7686 -5.30926 10.7686 -6.12957Q10.7686 -6.94988 11.296 -7.41863Q11.8282 -7.89227 12.5509 -7.89227Q13.2686 -7.89227 13.796 -7.41863Q14.3282 -6.94988 14.3282 -6.12957ZM21.0506 7.6302Q19.7518 7.61066 18.9412 7.35187Q18.1307 7.0882 17.657 6.61945Q17.1883 6.1507 17.0174 5.48176Q16.8514 4.80793 16.8514 3.96809L16.8514 -7.60906L19.8299 -8.08758L19.8299 3.37238Q19.8299 3.76789 19.8885 4.09016Q19.952 4.41242 20.118 4.63215Q20.2889 4.85187 20.6062 4.99348Q20.9285 5.1302 21.4705 5.16926L21.0506 7.6302ZM22.6684 2.24934Q22.6684 0.847969 23.0981 -0.201836Q23.5278 -1.25164 24.226 -1.94988Q24.9292 -2.64813 25.8374 -3.00945Q26.7505 -3.37078 27.7124 -3.37078Q29.9487 -3.37078 31.2475 -1.99871Q32.5512 -0.631524 32.5512 2.02961Q32.5512 2.2884 32.5317 2.6009Q32.5122 2.90852 32.4878 3.14777L25.7299 3.14777Q25.8276 4.07062 26.5893 4.61262Q27.351 5.14973 28.6303 5.14973Q29.4507 5.14973 30.2368 5.00324Q31.0278 4.85187 31.5307 4.63215L31.9311 7.04914Q31.6919 7.17121 31.2915 7.29328Q30.8911 7.41047 30.3979 7.49836Q29.9096 7.59113 29.3481 7.64973Q28.7915 7.70832 28.2299 7.70832Q26.8091 7.70832 25.7592 7.2884Q24.7094 6.86848 24.0161 6.14094Q23.3276 5.40852 22.9956 4.41242Q22.6684 3.41145 22.6684 2.24934ZM29.6704 1.11164Q29.6508 0.730781 29.5385 0.369453Q29.4311 0.00812483 29.2016 -0.270195Q28.9721 -0.548516 28.6206 -0.72918Q28.269 -0.909844 27.7514 -0.909844Q27.2485 -0.909844 26.8872 -0.738945Q26.5307 -0.568047 26.2915 -0.289727Q26.0522 -0.0114064 25.9204 0.359687Q25.7885 0.730781 25.7299 1.11164L29.6704 1.11164Z"/>
	<path fill="white" transform="translate(55 79.2857)" d="M-28.1717 -6.4323Q-27.8103 -5.76824 -27.3416 -4.79656Q-26.868 -3.82977 -26.3601 -2.69695Q-25.8523 -1.56902 -25.3543 -0.387383Q-24.8513 0.789375 -24.4119 1.82941Q-23.9676 0.789375 -23.4695 -0.387383Q-22.9715 -1.56902 -22.4637 -2.69695Q-21.951 -3.82977 -21.4822 -4.79656Q-21.0086 -5.76824 -20.6521 -6.4323L-17.8103 -6.4323Q-17.6101 -5.05047 -17.4392 -3.3366Q-17.2683 -1.62762 -17.1414 0.222969Q-17.0096 2.06867 -16.9021 3.92902Q-16.7898 5.78937 -16.7117 7.43L-19.7488 7.43Q-19.8123 5.40852 -19.9099 3.03059Q-20.0076 0.647773 -20.2078 -1.76922Q-20.5691 -0.929375 -21.0086 0.0911326Q-21.448 1.11164 -21.8826 2.13215Q-22.3123 3.14777 -22.7127 4.08039Q-23.1082 5.00812 -23.3914 5.67219L-25.5691 5.67219Q-25.8523 5.00812 -26.2527 4.08039Q-26.6482 3.14777 -27.0779 2.13215Q-27.5076 1.11164 -27.9519 0.0911326Q-28.3914 -0.929375 -28.7478 -1.76922Q-28.948 0.647773 -29.0506 3.03059Q-29.1482 5.40852 -29.2117 7.43L-32.2488 7.43Q-32.1707 5.78937 -32.0633 3.92902Q-31.951 2.06867 -31.824 0.222969Q-31.6922 -1.62762 -31.5213 -3.3366Q-31.3504 -5.05047 -31.1502 -6.4323L-28.1717 -6.4323ZM-11.1301 7.43L-14.1086 7.43L-14.1086 -3.08758L-11.1301 -3.08758L-11.1301 7.43ZM-10.8518 -6.12957Q-10.8518 -5.30926 -11.384 -4.84051Q-11.9114 -4.37176 -12.6291 -4.37176Q-13.3518 -4.37176 -13.884 -4.84051Q-14.4114 -5.30926 -14.4114 -6.12957Q-14.4114 -6.94988 -13.884 -7.41863Q-13.3518 -7.89227 -12.6291 -7.89227Q-11.9114 -7.89227 -11.384 -7.41863Q-10.8518 -6.94988 -10.8518 -6.12957ZM-5.31105 5.29133Q-4.49074 5.29133 -4.15382 5.1302Q-3.81203 4.96906 -3.81203 4.51008Q-3.81203 4.14875 -4.25148 3.8802Q-4.69093 3.61164 -5.58937 3.26984Q-6.28761 3.01105 -6.8589 2.73273Q-7.43019 2.44953 -7.83058 2.05891Q-8.23097 1.66828 -8.4507 1.13117Q-8.67043 0.58918 -8.67043 -0.167656Q-8.67043 -1.65203 -7.57179 -2.51141Q-6.46828 -3.37078 -4.54933 -3.37078Q-3.5923 -3.37078 -2.71339 -3.19988Q-1.82961 -3.02898 -1.31203 -2.82879L-1.82961 -0.509453Q-2.35207 -0.690117 -2.96242 -0.826836Q-3.56789 -0.968438 -4.32961 -0.968438Q-5.73097 -0.968438 -5.73097 -0.19207Q-5.73097 -0.0114064 -5.67238 0.130195Q-5.6089 0.271797 -5.42824 0.403633Q-5.24757 0.530586 -4.93996 0.681953Q-4.63234 0.828437 -4.14894 1.0091Q-3.17238 1.37043 -2.53273 1.72199Q-1.8882 2.06867 -1.52199 2.47883Q-1.15089 2.88898 -0.999527 3.39191Q-0.84816 3.88996 -0.84816 4.54914Q-0.84816 6.11164 -2.02003 6.91242Q-3.19191 7.70832 -5.33058 7.70832Q-6.73195 7.70832 -7.66457 7.46906Q-8.5923 7.2298 -8.94875 7.06867L-8.4507 4.65168Q-7.68898 4.94953 -6.89308 5.12043Q-6.0923 5.29133 -5.31105 5.29133ZM4.38895 5.29133Q5.20926 5.29133 5.54617 5.1302Q5.88797 4.96906 5.88797 4.51008Q5.88797 4.14875 5.44852 3.8802Q5.00906 3.61164 4.11063 3.26984Q3.41238 3.01105 2.84109 2.73273Q2.26981 2.44953 1.86942 2.05891Q1.46902 1.66828 1.2493 1.13117Q1.02957 0.58918 1.02957 -0.167656Q1.02957 -1.65203 2.1282 -2.51141Q3.23172 -3.37078 5.15067 -3.37078Q6.1077 -3.37078 6.9866 -3.19988Q7.87039 -3.02898 8.38797 -2.82879L7.87039 -0.509453Q7.34793 -0.690117 6.73758 -0.826836Q6.13211 -0.968438 5.37039 -0.968438Q3.96902 -0.968438 3.96902 -0.19207Q3.96902 -0.0114064 4.02762 0.130195Q4.09109 0.271797 4.27176 0.403633Q4.45242 0.530586 4.76004 0.681953Q5.06766 0.828437 5.55106 1.0091Q6.52762 1.37043 7.16727 1.72199Q7.8118 2.06867 8.17801 2.47883Q8.5491 2.88898 8.70047 3.39191Q8.85184 3.88996 8.85184 4.54914Q8.85184 6.11164 7.67996 6.91242Q6.50809 7.70832 4.36942 7.70832Q2.96805 7.70832 2.03543 7.46906Q1.1077 7.2298 0.751251 7.06867L1.2493 4.65168Q2.01102 4.94953 2.80692 5.12043Q3.6077 5.29133 4.38895 5.29133ZM14.0499 7.43L11.0714 7.43L11.0714 -3.08758L14.0499 -3.08758L14.0499 7.43ZM14.3282 -6.12957Q14.3282 -5.30926 13.796 -4.84051Q13.2686 -4.37176 12.5509 -4.37176Q11.8282 -4.37176 11.296 -4.84051Q10.7686 -5.30926 10.7686 -6.12957Q10.7686 -6.94988 11.296 -7.41863Q11.8282 -7.89227 12.5509 -7.89227Q13.2686 -7.89227 13.796 -7.41863Q14.3282 -6.94988 14.3282 -6.12957ZM21.0506 7.6302Q19.7518 7.61066 18.9412 7.35187Q18.1307 7.0882 17.657 6.61945Q17.1883 6.1507 17.0174 5.48176Q16.8514 4.80793 16.8514 3.96809L16.8514 -7.60906L19.8299 -8.08758L19.8299 3.37238Q19.8299 3.76789 19.8885 4.09016Q19.952 4.41242 20.118 4.63215Q20.2889 4.85187 20.6062 4.99348Q20.9285 5.1302 21.4705 5.16926L21.0506 7.6302ZM22.6684 2.24934Q22.6684 0.847969 23.0981 -0.201836Q23.5278 -1.25164 24.226 -1.94988Q24.9292 -2.64813 25.8374 -3.00945Q26.7505 -3.37078 27.7124 -3.37078Q29.9487 -3.37078 31.2475 -1.99871Q32.5512 -0.631524 32.5512 2.02961Q32.5512 2.2884 32.5317 2.6009Q32.5122 2.90852 32.4878 3.14777L25.7299 3.14777Q25.8276 4.07062 26.5893 4.61262Q27.351 5.14973 28.6303 5.14973Q29.4507 5.14973 30.2368 5.00324Q31.0278 4.85187 31.5307 4.63215L31.9311 7.04914Q31.6919 7.17121 31.2915 7.29328Q30.8911 7.41047 30.3979 7.49836Q29.9096 7.59113 29.3481 7.64973Q28.7915 7.70832 28.2299 7.70832Q26.8091 7.70832 25.7592 7.2884Q24.7094 6.86848 24.0161 6.14094Q23.3276 5.40852 22.9956 4.41242Q22.6684 3.41145 22.6684 2.24934ZM29.6704 1.11164Q29.6508 0.730781 29.5385 0.369453Q29.4311 0.00812483 29.2016 -0.270195Q28.9721 -0.548516 28.6206 -0.72918Q28.269 -0.909844 27.7514 -0.909844Q27.2485 -0.909844 26.8872 -0.738945Q26.5307 -0.568047 26.2915 -0.289727Q26.0522 -0.0114064 25.9204 0.359687Q25.7885 0.730781 25.7299 1.11164L29.6704 1.11164Z"/>
</svg>
