<?xml version="1.0" encoding="utf-8" ?>
<svg xmlns="http://www.w3.org/2000/svg" xmlns:xlink="http://www.w3.org/1999/xlink" width="110" height="110">
	<path fill="#7D5B1F" transform="matrix(0.77186 -1.2021 1.2021 0.77186 55 47.8571)" d="M-12 -3L7 -3L7 3L-12 3L-12 -3Z"/>
	<path fill="#654A19" transform="matrix(0.77186 -1.2021 1.2021 0.77186 55 47.8571)" d="M-13 3L-13 -3Q-13 -3.09849 -12.9808 -3.19509Q-12.9616 -3.29169 -12.9239 -3.38268Q-12.8862 -3.47368 -12.8315 -3.55557Q-12.7767 -3.63746 -12.7071 -3.70711Q-12.6375 -3.77675 -12.5556 -3.83147Q-12.4737 -3.88619 -12.3827 -3.92388Q-12.2917 -3.96157 -12.1951 -3.98078Q-12.0985 -4 -12 -4L7 -4Q7.09849 -4 7.19509 -3.98078Q7.29169 -3.96157 7.38268 -3.92388Q7.47368 -3.88619 7.55557 -3.83147Q7.63746 -3.77675 7.70711 -3.70711Q7.77675 -3.63746 7.83147 -3.55557Q7.88619 -3.47368 7.92388 -3.38268Q7.96157 -3.29169 7.98078 -3.19509Q8 -3.09849 8 -3L8 3Q8 3.09849 7.98078 3.19509Q7.96157 3.29169 7.92388 3.38268Q7.88619 3.47368 7.83147 3.55557Q7.77675 3.63746 7.70711 3.70711Q7.63746 3.77675 7.55557 3.83147Q7.47368 3.88619 7.38268 3.92388Q7.29169 3.96157 7.19509 3.98078Q7.09849 4 7 4L-12 4Q-12.0985 4 -12.1951 3.98078Q-12.2917 3.96157 -12.3827 3.92388Q-12.4737 3.88619 -12.5556 3.83147Q-12.6375 3.77675 -12.7071 3.70711Q-12.7767 3.63746 -12.8315 3.55557Q-12.8862 3.47368 -12.9239 3.38268Q-12.9616 3.29169 -12.9808 3.19509Q-13 3.09849 -13 3ZM-11 -2L-11 2L6 2L6 -2L-11 -2Z"/>
	<path fill="#555" transform="matrix(0.77186 -1.2021 1.2021 0.77186 55 47.8571)" d="M12 -9Q12.2087 -9 12.4171 -8.98976Q12.6255 -8.97952 12.8331 -8.95907Q13.0408 -8.93862 13.2472 -8.908Q13.4536 -8.87738 13.6583 -8.83667Q13.8629 -8.79597 14.0653 -8.74527Q14.2677 -8.69456 14.4674 -8.63399Q14.6671 -8.57342 14.8636 -8.50312Q15.06 -8.43283 15.2528 -8.35298Q15.4456 -8.27312 15.6342 -8.18391Q15.8228 -8.09469 16.0069 -7.99633Q16.1909 -7.89797 16.3699 -7.79069Q16.5488 -7.68342 16.7223 -7.56749Q16.8958 -7.45156 17.0634 -7.32726Q17.231 -7.20296 17.3923 -7.07059Q17.5536 -6.93821 17.7083 -6.79808Q17.8629 -6.65795 18.0104 -6.51041Q18.158 -6.36286 18.2981 -6.20825Q18.4382 -6.05364 18.5706 -5.89234Q18.703 -5.73104 18.8273 -5.56344Q18.9516 -5.39584 19.0675 -5.22235Q19.1834 -5.04885 19.2907 -4.86987Q19.398 -4.6909 19.4963 -4.50687Q19.5947 -4.32285 19.6839 -4.13422Q19.7731 -3.94559 19.853 -3.75281Q19.9328 -3.56003 20.0031 -3.36356Q20.0734 -3.1671 20.134 -2.96742Q20.1946 -2.76774 20.2453 -2.56533Q20.296 -2.36292 20.3367 -2.15827Q20.3774 -1.95361 20.408 -1.74721Q20.4386 -1.5408 20.4591 -1.33315Q20.4795 -1.12549 20.4898 -0.917076Q20.5 -0.708664 20.5 -0.5Q20.5 -0.291337 20.4898 -0.0829251Q20.4795 0.125487 20.4591 0.333145Q20.4386 0.540804 20.408 0.747209Q20.3774 0.953614 20.3367 1.15827Q20.296 1.36292 20.2453 1.56533Q20.1946 1.76774 20.134 1.96742Q20.0734 2.1671 20.0031 2.36356Q19.9328 2.56003 19.853 2.75281Q19.7731 2.94559 19.6839 3.13422Q19.5947 3.32285 19.4963 3.50687Q19.398 3.6909 19.2907 3.86987Q19.1834 4.04885 19.0675 4.22235Q18.9516 4.39584 18.8273 4.56344Q18.703 4.73104 18.5706 4.89234Q18.4382 5.05364 18.2981 5.20825Q18.158 5.36286 18.0104 5.51041Q17.8629 5.65795 17.7083 5.79808Q17.5536 5.93821 17.3923 6.07059Q17.231 6.20296 17.0634 6.32726Q16.8958 6.45156 16.7223 6.56749Q16.5489 6.68342 16.3699 6.79069Q16.1909 6.89797 16.0069 6.99633Q15.8228 7.09469 15.6342 7.18391Q15.4456 7.27312 15.2528 7.35297Q15.06 7.43283 14.8636 7.50312Q14.6671 7.57342 14.4674 7.63399Q14.2677 7.69456 14.0653 7.74526Q13.8629 7.79597 13.6583 7.83667Q13.4536 7.87738 13.2472 7.908Q13.0408 7.93862 12.8331 7.95907Q12.6255 7.97952 12.4171 7.98976Q12.2087 8 12 8L7 8L7 -9L12 -9Z"/>
	<path fill="#454545" transform="matrix(0.77186 -1.2021 1.2021 0.77186 55 47.8571)" d="M12 -10Q15.935 -10 18.7175 -7.21751Q21.5 -4.43503 21.5 -0.5Q21.5 3.43503 18.7175 6.21751Q15.935 9 12 9L7 9Q6.90151 9 6.80491 8.98079Q6.70831 8.96157 6.61732 8.92388Q6.52632 8.88619 6.44443 8.83147Q6.36254 8.77675 6.29289 8.70711Q6.22325 8.63746 6.16853 8.55557Q6.11381 8.47368 6.07612 8.38268Q6.03843 8.29169 6.01921 8.19509Q6 8.09849 6 8L6 -9Q6 -9.09849 6.01921 -9.19509Q6.03843 -9.29169 6.07612 -9.38268Q6.11381 -9.47368 6.16853 -9.55557Q6.22325 -9.63746 6.29289 -9.70711Q6.36254 -9.77675 6.44443 -9.83147Q6.52632 -9.88619 6.61732 -9.92388Q6.70831 -9.96157 6.80491 -9.98079Q6.90151 -10 7 -10L12 -10ZM12 -8L7 -8L7 -9L8 -9L8 8L7 8L7 7L12 7Q15.1066 7 17.3033 4.8033Q19.5 2.6066 19.5 -0.5Q19.5 -3.6066 17.3033 -5.8033Q15.1066 -8 12 -8Z"/>
	<path fill="#555" transform="matrix(0.77186 -1.2021 1.2021 0.77186 55 47.8571)" d="M-12 -4L-12 4L-15 4L-15 -4L-12 -4Z"/>
	<path fill="#454545" transform="matrix(0.77186 -1.2021 1.2021 0.77186 55 47.8571)" d="M-16 4L-16 -4Q-16 -4.09849 -15.9808 -4.19509Q-15.9616 -4.29169 -15.9239 -4.38268Q-15.8862 -4.47368 -15.8315 -4.55557Q-15.7767 -4.63746 -15.7071 -4.70711Q-15.6375 -4.77675 -15.5556 -4.83147Q-15.4737 -4.88619 -15.3827 -4.92388Q-15.2917 -4.96157 -15.1951 -4.98079Q-15.0985 -5 -15 -5L-12 -5Q-11.9015 -5 -11.8049 -4.98079Q-11.7083 -4.96157 -11.6173 -4.92388Q-11.5263 -4.88619 -11.4444 -4.83147Q-11.3625 -4.77675 -11.2929 -4.70711Q-11.2232 -4.63746 -11.1685 -4.55557Q-11.1138 -4.47368 -11.0761 -4.38268Q-11.0384 -4.29169 -11.0192 -4.19509Q-11 -4.09849 -11 -4L-11 4Q-11 4.09849 -11.0192 4.19509Q-11.0384 4.29169 -11.0761 4.38268Q-11.1138 4.47368 -11.1685 4.55557Q-11.2232 4.63746 -11.2929 4.70711Q-11.3625 4.77675 -11.4444 4.83147Q-11.5263 4.88619 -11.6173 4.92388Q-11.7083 4.96157 -11.8049 4.98079Q-11.9015 5 -12 5L-15 5Q-15.0985 5 -15.1951 4.98079Q-15.2917 4.96157 -15.3827 4.92388Q-15.4737 4.88619 -15.5556 4.83147Q-15.6375 4.77675 -15.7071 4.70711Q-15.7767 4.63746 -15.8315 4.55557Q-15.8862 4.47368 -15.9239 4.38268Q-15.9616 4.29169 -15.9808 4.19509Q-16 4.09849 -16 4ZM-14 -3L-14 3L-13 3L-13 -3L-14 -3Z"/>
	<path fill="none" stroke="black" stroke-width="2.3999999" stroke-linejoin="round" transform="translate(55 79.2857)" d="M-26.8991 5.05207Q-26.2399 5.05207 -25.8102 4.94465Q-25.3805 4.83234 -25.1218 4.64191Q-24.8581 4.45148 -24.7604 4.1927Q-24.6579 3.92902 -24.6579 3.61164Q-24.6579 2.92805 -25.3024 2.47883Q-25.9421 2.02961 -27.4997 1.51203Q-28.1784 1.26789 -28.862 0.960273Q-29.5407 0.647773 -30.0827 0.179023Q-30.6198 -0.289727 -30.9616 -0.958672Q-31.2985 -1.62762 -31.2985 -2.58953Q-31.2985 -3.55145 -30.9421 -4.31805Q-30.5807 -5.08953 -29.9216 -5.62664Q-29.2624 -6.16863 -28.32 -6.45672Q-27.3776 -6.74969 -26.2009 -6.74969Q-24.7995 -6.74969 -23.779 -6.44695Q-22.7585 -6.1491 -22.0993 -5.78777L-22.9977 -3.33172Q-23.5788 -3.62957 -24.2917 -3.85906Q-24.9997 -4.08855 -26.0007 -4.08855Q-27.1188 -4.08855 -27.612 -3.77605Q-28.1003 -3.46844 -28.1003 -2.82879Q-28.1003 -2.44793 -27.9196 -2.18914Q-27.7389 -1.93035 -27.4118 -1.72039Q-27.0798 -1.51043 -26.6501 -1.33953Q-26.2204 -1.16863 -25.6979 -0.987969Q-24.6188 -0.587578 -23.8229 -0.196953Q-23.0221 0.188789 -22.4899 0.71125Q-21.9577 1.22883 -21.6989 1.93195Q-21.4401 2.6302 -21.4401 3.63117Q-21.4401 5.56965 -22.8024 6.63898Q-24.1598 7.70832 -26.8991 7.70832Q-27.822 7.70832 -28.5641 7.59602Q-29.3014 7.48859 -29.8727 7.33234Q-30.4391 7.17121 -30.8493 6.99055Q-31.2595 6.80988 -31.5378 6.64875L-30.6589 4.16828Q-30.0387 4.51008 -29.1305 4.78352Q-28.2223 5.05207 -26.8991 5.05207ZM-19.2386 7.43L-19.2386 -7.60906L-16.2601 -8.08758L-16.2601 -3.04852Q-15.9622 -3.15105 -15.4935 -3.23895Q-15.0199 -3.33172 -14.5804 -3.33172Q-13.3011 -3.33172 -12.4515 -2.98016Q-11.6019 -2.62859 -11.0941 -1.98895Q-10.5814 -1.3493 -10.3714 -0.470391Q-10.1615 0.408515 -10.1615 1.48762L-10.1615 7.43L-13.14 7.43L-13.14 1.84895Q-13.14 0.408515 -13.5111 -0.187188Q-13.8822 -0.787774 -14.8783 -0.787774Q-15.2786 -0.787774 -15.6302 -0.719414Q-15.9818 -0.651055 -16.2601 -0.568047L-16.2601 7.43L-19.2386 7.43ZM2.38024 2.15168Q2.38024 3.39191 2.01891 4.42219Q1.65759 5.44758 0.978874 6.18Q0.300163 6.91242 -0.651985 7.31281Q-1.59925 7.70832 -2.78089 7.70832Q-3.93812 7.70832 -4.89027 7.31281Q-5.84241 6.91242 -6.52113 6.18Q-7.19984 5.44758 -7.5807 4.42219Q-7.96156 3.39191 -7.96156 2.15168Q-7.96156 0.911445 -7.57093 -0.109063Q-7.18031 -1.12957 -6.49183 -1.84734Q-5.79847 -2.57 -4.8512 -2.97039Q-3.89906 -3.37078 -2.78089 -3.37078Q-1.63831 -3.37078 -0.691048 -2.97039Q0.261101 -2.57 0.939812 -1.84734Q1.61852 -1.12957 1.99938 -0.109063Q2.38024 0.911445 2.38024 2.15168ZM-0.661751 2.15168Q-0.661751 0.769844 -1.21351 -0.021172Q-1.76038 -0.812188 -2.78089 -0.812188Q-3.8014 -0.812188 -4.36292 -0.021172Q-4.91956 0.769844 -4.91956 2.15168Q-4.91956 3.52863 -4.36292 4.33918Q-3.8014 5.14973 -2.78089 5.14973Q-1.76038 5.14973 -1.21351 4.33918Q-0.661751 3.52863 -0.661751 2.15168ZM7.5378 7.43Q6.52218 5.42805 5.46749 2.75227Q4.41769 0.0716014 3.48019 -3.08758L6.63937 -3.08758Q6.83956 -2.31121 7.10812 -1.39813Q7.38155 -0.489922 7.66964 0.442695Q7.95773 1.37043 8.24581 2.24934Q8.53878 3.12824 8.82198 3.8509Q9.08077 3.12824 9.37862 2.24934Q9.68136 1.37043 9.96944 0.442695Q10.2624 -0.489922 10.531 -1.39813Q10.7995 -2.31121 10.9997 -3.08758L14.0808 -3.08758Q13.1384 0.0716014 12.0886 2.75227Q11.0388 5.42805 10.0183 7.43L7.5378 7.43ZM15.1784 2.24934Q15.1784 0.847969 15.6081 -0.201836Q16.0378 -1.25164 16.736 -1.94988Q17.4392 -2.64813 18.3474 -3.00945Q19.2604 -3.37078 20.2224 -3.37078Q22.4587 -3.37078 23.7575 -1.99871Q25.0612 -0.631524 25.0612 2.02961Q25.0612 2.2884 25.0417 2.6009Q25.0222 2.90852 24.9977 3.14777L18.2399 3.14777Q18.3376 4.07062 19.0993 4.61262Q19.861 5.14973 21.1403 5.14973Q21.9606 5.14973 22.7468 5.00324Q23.5378 4.85187 24.0407 4.63215L24.4411 7.04914Q24.2019 7.17121 23.8015 7.29328Q23.4011 7.41047 22.9079 7.49836Q22.4196 7.59113 21.8581 7.64973Q21.3015 7.70832 20.7399 7.70832Q19.319 7.70832 18.2692 7.2884Q17.2194 6.86848 16.5261 6.14094Q15.8376 5.40852 15.5056 4.41242Q15.1784 3.41145 15.1784 2.24934ZM22.1804 1.11164Q22.1608 0.730781 22.0485 0.369453Q21.9411 0.00812483 21.7116 -0.270195Q21.4821 -0.548516 21.1306 -0.72918Q20.779 -0.909844 20.2614 -0.909844Q19.7585 -0.909844 19.3972 -0.738945Q19.0407 -0.568047 18.8015 -0.289727Q18.5622 -0.0114064 18.4304 0.359687Q18.2985 0.730781 18.2399 1.11164L22.1804 1.11164ZM31.5606 7.6302Q30.2617 7.61066 29.4512 7.35187Q28.6406 7.0882 28.167 6.61945Q27.6982 6.1507 27.5274 5.48176Q27.3613 4.80793 27.3613 3.96809L27.3613 -7.60906L30.3399 -8.08758L30.3399 3.37238Q30.3399 3.76789 30.3984 4.09016Q30.4619 4.41242 30.6279 4.63215Q30.7988 4.85187 31.1162 4.99348Q31.4385 5.1302 31.9805 5.16926L31.5606 7.6302Z"/>
	<path fill="white" transform="translate(55 79.2857)" d="M-26.8991 5.05207Q-26.2399 5.05207 -25.8102 4.94465Q-25.3805 4.83234 -25.1218 4.64191Q-24.8581 4.45148 -24.7604 4.1927Q-24.6579 3.92902 -24.6579 3.61164Q-24.6579 2.92805 -25.3024 2.47883Q-25.9421 2.02961 -27.4997 1.51203Q-28.1784 1.26789 -28.862 0.960273Q-29.5407 0.647773 -30.0827 0.179023Q-30.6198 -0.289727 -30.9616 -0.958672Q-31.2985 -1.62762 -31.2985 -2.58953Q-31.2985 -3.55145 -30.9421 -4.31805Q-30.5807 -5.08953 -29.9216 -5.62664Q-29.2624 -6.16863 -28.32 -6.45672Q-27.3776 -6.74969 -26.2009 -6.74969Q-24.7995 -6.74969 -23.779 -6.44695Q-22.7585 -6.1491 -22.0993 -5.78777L-22.9977 -3.33172Q-23.5788 -3.62957 -24.2917 -3.85906Q-24.9997 -4.08855 -26.0007 -4.08855Q-27.1188 -4.08855 -27.612 -3.77605Q-28.1003 -3.46844 -28.1003 -2.82879Q-28.1003 -2.44793 -27.9196 -2.18914Q-27.7389 -1.93035 -27.4118 -1.72039Q-27.0798 -1.51043 -26.6501 -1.33953Q-26.2204 -1.16863 -25.6979 -0.987969Q-24.6188 -0.587578 -23.8229 -0.196953Q-23.0221 0.188789 -22.4899 0.71125Q-21.9577 1.22883 -21.6989 1.93195Q-21.4401 2.6302 -21.4401 3.63117Q-21.4401 5.56965 -22.8024 6.63898Q-24.1598 7.70832 -26.8991 7.70832Q-27.822 7.70832 -28.5641 7.59602Q-29.3014 7.48859 -29.8727 7.33234Q-30.4391 7.17121 -30.8493 6.99055Q-31.2595 6.80988 -31.5378 6.64875L-30.6589 4.16828Q-30.0387 4.51008 -29.1305 4.78352Q-28.2223 5.05207 -26.8991 5.05207ZM-19.2386 7.43L-19.2386 -7.60906L-16.2601 -8.08758L-16.2601 -3.04852Q-15.9622 -3.15105 -15.4935 -3.23895Q-15.0199 -3.33172 -14.5804 -3.33172Q-13.3011 -3.33172 -12.4515 -2.98016Q-11.6019 -2.62859 -11.0941 -1.98895Q-10.5814 -1.3493 -10.3714 -0.470391Q-10.1615 0.408515 -10.1615 1.48762L-10.1615 7.43L-13.14 7.43L-13.14 1.84895Q-13.14 0.408515 -13.5111 -0.187188Q-13.8822 -0.787774 -14.8783 -0.787774Q-15.2786 -0.787774 -15.6302 -0.719414Q-15.9818 -0.651055 -16.2601 -0.568047L-16.2601 7.43L-19.2386 7.43ZM2.38024 2.15168Q2.38024 3.39191 2.01891 4.42219Q1.65759 5.44758 0.978874 6.18Q0.300163 6.91242 -0.651985 7.31281Q-1.59925 7.70832 -2.78089 7.70832Q-3.93812 7.70832 -4.89027 7.31281Q-5.84241 6.91242 -6.52113 6.18Q-7.19984 5.44758 -7.5807 4.42219Q-7.96156 3.39191 -7.96156 2.15168Q-7.96156 0.911445 -7.57093 -0.109063Q-7.18031 -1.12957 -6.49183 -1.84734Q-5.79847 -2.57 -4.8512 -2.97039Q-3.89906 -3.37078 -2.78089 -3.37078Q-1.63831 -3.37078 -0.691048 -2.97039Q0.261101 -2.57 0.939812 -1.84734Q1.61852 -1.12957 1.99938 -0.109063Q2.38024 0.911445 2.38024 2.15168ZM-0.661751 2.15168Q-0.661751 0.769844 -1.21351 -0.021172Q-1.76038 -0.812188 -2.78089 -0.812188Q-3.8014 -0.812188 -4.36292 -0.021172Q-4.91956 0.769844 -4.91956 2.15168Q-4.91956 3.52863 -4.36292 4.33918Q-3.8014 5.14973 -2.78089 5.14973Q-1.76038 5.14973 -1.21351 4.33918Q-0.661751 3.52863 -0.661751 2.15168ZM7.5378 7.43Q6.52218 5.42805 5.46749 2.75227Q4.41769 0.0716014 3.48019 -3.08758L6.63937 -3.08758Q6.83956 -2.31121 7.10812 -1.39813Q7.38155 -0.489922 7.66964 0.442695Q7.95773 1.37043 8.24581 2.24934Q8.53878 3.12824 8.82198 3.8509Q9.08077 3.12824 9.37862 2.24934Q9.68136 1.37043 9.96944 0.442695Q10.2624 -0.489922 10.531 -1.39813Q10.7995 -2.31121 10.9997 -3.08758L14.0808 -3.08758Q13.1384 0.0716014 12.0886 2.75227Q11.0388 5.42805 10.0183 7.43L7.5378 7.43ZM15.1784 2.24934Q15.1784 0.847969 15.6081 -0.201836Q16.0378 -1.25164 16.736 -1.94988Q17.4392 -2.64813 18.3474 -3.00945Q19.2604 -3.37078 20.2224 -3.37078Q22.4587 -3.37078 23.7575 -1.99871Q25.0612 -0.631524 25.0612 2.02961Q25.0612 2.2884 25.0417 2.6009Q25.0222 2.90852 24.9977 3.14777L18.2399 3.14777Q18.3376 4.07062 19.0993 4.61262Q19.861 5.14973 21.1403 5.14973Q21.9606 5.14973 22.7468 5.00324Q23.5378 4.85187 24.0407 4.63215L24.4411 7.04914Q24.2019 7.17121 23.8015 7.29328Q23.4011 7.41047 22.9079 7.49836Q22.4196 7.59113 21.8581 7.64973Q21.3015 7.70832 20.7399 7.70832Q19.319 7.70832 18.2692 7.2884Q17.2194 6.86848 16.5261 6.14094Q15.8376 5.40852 15.5056 4.41242Q15.1784 3.41145 15.1784 2.24934ZM22.1804 1.11164Q22.1608 0.730781 22.0485 0.369453Q21.9411 0.00812483 21.7116 -0.270195Q21.4821 -0.548516 21.1306 -0.72918Q20.779 -0.909844 20.2614 -0.909844Q19.7585 -0.909844 19.3972 -0.738945Q19.0407 -0.568047 18.8015 -0.289727Q18.5622 -0.0114064 18.4304 0.359687Q18.2985 0.730781 18.2399 1.11164L22.1804 1.11164ZM31.5606 7.6302Q30.2617 7.61066 29.4512 7.35187Q28.6406 7.0882 28.167 6.61945Q27.6982 6.1507 27.5274 5.48176Q27.3613 4.80793 27.3613 3.96809L27.3613 -7.60906L30.3399 -8.08758L30.3399 3.37238Q30.3399 3.76789 30.3984 4.09016Q30.4619 4.41242 30.6279 4.63215Q30.7988 4.85187 31.1162 4.99348Q31.4385 5.1302 31.9805 5.16926L31.5606 7.6302Z"/>
</svg>
