<?xml version="1.0" encoding="utf-8" ?>
<svg xmlns="http://www.w3.org/2000/svg" xmlns:xlink="http://www.w3.org/1999/xlink" width="110" height="110">
	<path fill="#634002" transform="matrix(4.28571 0 0 4.28571 55 47.8571)" d="M0.59 -0.21C1.43 1.28 3.18 1.39 2.39 -1.05C2.48 -0.33 2.15 -2.9 2.24 -2.16C2.87 -5.18 0.33 -3.97 -0.39 -2.06C0.23 -2.71 -1.66 -0.79 -1.01 -1.42C-2.33 -0.87 -1.47 1.15 -0.19 0.45L-0.19 0.45C0.09 0.25 0.35 0.03 0.59 -0.21"/>
	<path fill="#503402" transform="matrix(4.28571 0 0 4.28571 55 47.8571)" d="M1.02555 -0.455547Q1.53582 0.449561 2.00054 0.353998Q2.04355 0.345154 2.07118 0.215746Q2.15188 -0.162215 1.91431 -0.895986L2.39 -1.05L2.88632 -1.11057L2.90202 -0.981897Q2.90799 -0.933014 2.9043 -0.883906Q2.90061 -0.834799 2.88742 -0.787354Q2.87422 -0.739909 2.85203 -0.69595Q2.82983 -0.651991 2.79948 -0.613207Q2.76913 -0.574423 2.7318 -0.542305Q2.69447 -0.510187 2.65159 -0.485969Q2.60871 -0.461751 2.56193 -0.446363Q2.51515 -0.430976 2.46627 -0.42501Q2.41767 -0.419079 2.36885 -0.422688Q2.32002 -0.426297 2.27282 -0.439309Q2.22562 -0.452321 2.18184 -0.474242Q2.13806 -0.496162 2.09937 -0.526159Q2.06067 -0.556155 2.02853 -0.593088Q1.99639 -0.630021 1.97202 -0.672487Q1.94766 -0.714952 1.93199 -0.761338Q1.91632 -0.807724 1.90995 -0.856268L1.81979 -1.54333L1.72867 -2.22949L2.22432 -2.29531L2.721 -2.35285L2.73668 -2.21755L2.24 -2.16L1.75054 -2.26211Q1.93344 -3.13886 1.76196 -3.43899Q1.71816 -3.51565 1.55406 -3.47407Q0.584818 -3.22848 0.0778615 -1.88363L-0.39 -2.06L-0.751804 -2.40511Q-0.654795 -2.50681 -0.652672 -2.50941Q-0.687371 -2.46689 -0.712337 -2.41592Q-0.763683 -2.31108 -0.763218 -2.19425Q-0.762393 -1.98716 -0.615354 -1.84131Q-0.466838 -1.694 -0.257681 -1.69635Q-0.106179 -1.69805 0.0184944 -1.7834Q0.0474348 -1.80321 0.0679529 -1.82231Q0.0600864 -1.81499 0.0343876 -1.78964Q-0.0894987 -1.66745 -0.354227 -1.39745Q-0.629983 -1.1162 -0.735213 -1.00384Q-0.756897 -0.980688 -0.760886 -0.976019Q-0.725592 -1.01733 -0.698668 -1.07244Q-0.589667 -1.29554 -0.7021 -1.51734Q-0.908207 -1.92392 -1.33176 -1.7561Q-1.39647 -1.73046 -1.45011 -1.68905L-1.35799 -1.77903L-1.01 -1.42L-0.817693 -0.958462Q-1.07378 -0.851758 -1.14426 -0.639665Q-1.21181 -0.436394 -1.11598 -0.214491Q-1.02459 -0.00287604 -0.852211 0.0686105Q-0.671623 0.143503 -0.429906 0.0113142L-0.19 0.45L-0.480619 0.0431332Q-0.0942924 -0.232814 0.236447 -0.563553Q0.271269 -0.598375 0.312215 -0.625735Q0.353161 -0.653094 0.398658 -0.67194Q0.444155 -0.690785 0.492455 -0.700393Q0.540754 -0.71 0.59 -0.71Q0.639246 -0.71 0.687545 -0.700393Q0.735844 -0.690785 0.781342 -0.67194Q0.826839 -0.653094 0.867785 -0.625735Q0.908731 -0.598375 0.943553 -0.563553Q0.978375 -0.528731 1.00573 -0.487785Q1.03309 -0.446839 1.05194 -0.401342Q1.07079 -0.355845 1.08039 -0.307545Q1.09 -0.259246 1.09 -0.21Q1.09 -0.160754 1.08039 -0.112455Q1.07079 -0.0641554 1.05194 -0.0186583Q1.03309 0.0268388 1.00573 0.0677851Q0.978375 0.108731 0.943553 0.143553Q0.554292 0.532814 0.100619 0.856867Q0.0762168 0.874297 0.0499061 0.888685Q-0.612154 1.25075 -1.23529 0.992327Q-1.78197 0.765611 -2.03402 0.181991Q-2.28102 -0.389936 -2.09324 -0.955023Q-1.87905 -1.59956 -1.20231 -1.88154Q-1.1328 -1.9105 -1.05785 -1.91771Q-0.982891 -1.92491 -0.909139 -1.90972Q-0.835387 -1.89453 -0.76938 -1.85829Q-0.703373 -1.82206 -0.650967 -1.76799Q-0.616693 -1.73262 -0.589976 -1.69126Q-0.56326 -1.64989 -0.545128 -1.6041Q-0.526995 -1.55832 -0.518144 -1.50987Q-0.509292 -1.46143 -0.510061 -1.41219Q-0.510831 -1.36295 -0.521191 -1.31481Q-0.531552 -1.26666 -0.551106 -1.22146Q-0.57066 -1.17627 -0.598656 -1.13575Q-0.626652 -1.09524 -0.662013 -1.06097Q-0.798024 -0.92914 -0.838995 -0.897509Q-0.896997 -0.852729 -0.963391 -0.826421Q-1.38777 -0.658271 -1.59405 -1.06519Q-1.70665 -1.28732 -1.59717 -1.51141Q-1.56835 -1.57039 -1.52116 -1.62562Q-1.50237 -1.64762 -1.4651 -1.68741Q-1.35204 -1.80813 -1.06827 -2.09755Q-0.797682 -2.37353 -0.667826 -2.50161Q-0.631809 -2.53713 -0.61333 -2.55433Q-0.579131 -2.58616 -0.546392 -2.60857Q-0.420753 -2.69458 -0.268926 -2.69629Q-0.0596873 -2.69864 0.0888687 -2.55129Q0.235949 -2.4054 0.236774 -2.19823Q0.23724 -2.08123 0.185731 -1.97606Q0.160107 -1.92374 0.122086 -1.87715Q0.0955088 -1.84459 -0.0281962 -1.71489Q-0.0790091 -1.66162 -0.14302 -1.62526Q-0.207031 -1.58889 -0.278807 -1.57252Q-0.350582 -1.55615 -0.424031 -1.56116Q-0.49748 -1.56617 -0.566367 -1.59214Q-0.612448 -1.60951 -0.654254 -1.63554Q-0.69606 -1.66156 -0.731985 -1.69524Q-0.76791 -1.72893 -0.796574 -1.76897Q-0.825238 -1.80902 -0.845539 -1.85388Q-0.86584 -1.89875 -0.876997 -1.94671Q-0.888155 -1.99468 -0.889741 -2.0439Q-0.891327 -2.09312 -0.88328 -2.1417Q-0.875233 -2.19029 -0.857862 -2.23637Q-0.166788 -4.06963 1.30844 -4.44343Q2.20935 -4.67171 2.63023 -3.93507Q2.98978 -3.30577 2.72946 -2.05789Q2.71338 -1.9808 2.67438 -1.91238Q2.63538 -1.84396 2.57723 -1.79085Q2.51909 -1.73773 2.44743 -1.70506Q2.37578 -1.67239 2.29755 -1.66332Q2.24863 -1.65765 2.19954 -1.66164Q2.15046 -1.66562 2.10309 -1.67911Q2.05573 -1.69259 2.01191 -1.71506Q1.96808 -1.73752 1.92949 -1.76811Q1.89089 -1.79869 1.859 -1.83621Q1.82711 -1.87374 1.80315 -1.91676Q1.77919 -1.95979 1.76409 -2.00666Q1.74899 -2.05354 1.74332 -2.10245L1.72765 -2.23776Q1.72204 -2.28616 1.72588 -2.33473Q1.72972 -2.3833 1.74286 -2.43021Q1.75601 -2.47712 1.77796 -2.52062Q1.79992 -2.56411 1.82985 -2.60255Q1.85979 -2.64098 1.89658 -2.67292Q1.93338 -2.70485 1.97565 -2.72908Q2.01791 -2.75331 2.06406 -2.76893Q2.11021 -2.78454 2.15851 -2.79096Q2.20732 -2.79744 2.25647 -2.79427Q2.30561 -2.79111 2.35319 -2.77841Q2.40078 -2.76572 2.44497 -2.74399Q2.48916 -2.72226 2.52826 -2.69232Q2.56736 -2.66239 2.59987 -2.6254Q2.63239 -2.58841 2.65706 -2.54579Q2.68173 -2.50317 2.69761 -2.45656Q2.71349 -2.40994 2.71997 -2.36112L2.81129 -1.67345L2.90145 -0.986388L2.4057 -0.921328L1.90938 -0.860759L1.89368 -0.989431Q1.88845 -1.03232 1.89065 -1.07547Q1.89285 -1.11861 1.90242 -1.16074Q1.91199 -1.20288 1.92864 -1.24274Q1.9453 -1.28261 1.96854 -1.31902Q1.99179 -1.35544 2.02094 -1.38733Q2.05009 -1.41922 2.08427 -1.44564Q2.11846 -1.47206 2.15667 -1.49222Q2.19488 -1.51238 2.23599 -1.52569Q2.28284 -1.54086 2.33175 -1.54659Q2.38066 -1.55233 2.42975 -1.54842Q2.47884 -1.5445 2.52622 -1.53109Q2.5736 -1.51767 2.61746 -1.49527Q2.66131 -1.47286 2.69995 -1.44234Q2.7386 -1.41181 2.77054 -1.37433Q2.80248 -1.33685 2.8265 -1.29386Q2.85052 -1.25086 2.86569 -1.20401Q3.18578 -0.215377 3.04913 0.424567Q2.88504 1.19304 2.20196 1.3335Q1.02287 1.57596 0.154447 0.0355469Q0.130262 -0.00735139 0.114912 -0.0541435Q0.0995613 -0.100936 0.0936344 -0.149823Q0.0877075 -0.198711 0.091432 -0.247816Q0.0951566 -0.29692 0.108389 -0.344355Q0.121622 -0.391789 0.143855 -0.435731Q0.166087 -0.479672 0.196465 -0.518432Q0.226843 -0.557192 0.264199 -0.58928Q0.301555 -0.621369 0.344453 -0.645553Q0.387351 -0.669738 0.434143 -0.685088Q0.480935 -0.700439 0.529823 -0.706365Q0.578711 -0.712292 0.627816 -0.708568Q0.67692 -0.704843 0.724355 -0.691611Q0.771789 -0.678378 0.815731 -0.656145Q0.859672 -0.633913 0.898432 -0.603535Q0.937192 -0.573157 0.96928 -0.535801Q1.00137 -0.498445 1.02555 -0.455547Z"/>
	<path fill="#634002" transform="matrix(4.28571 0 0 4.28571 55 47.8571)" d="M1.02 -0.82C1.57 -0.83 2.2 -1.04 2.74 -0.87C2.9 -0.8 3.06 -0.74 3.22 -0.67C3.68 -0.43 3.98 0.04 4.14 0.53C4.3 1.01 4.19 1.64 3.94 2.07C3.71 2.47 3.21 2.9 2.74 2.99C2.27 3.08 1.8 3.15 1.32 3.16C0.86 3.17 0.41 3.11 -0.0400002 3.04C-0.81 2.93 -1.52 2.66 -2.22 2.32C-2.68 2.09 -2.98 1.6 -3.14 1.12C-3.31 0.6 -3.18 0.04 -2.94 -0.43C-2.71 -0.86 -2.21 -1.22 -1.74 -1.35C-0.86 -1.61 0.16 -0.95 1.02 -0.82Z"/>
	<path fill="#503402" transform="matrix(4.28571 0 0 4.28571 55 47.8571)" d="M1.01091 -1.31992Q1.16868 -1.32279 1.53454 -1.37218Q2.4271 -1.4927 2.89014 -1.34692Q2.91578 -1.33885 2.94041 -1.32808Q3.01434 -1.29574 3.16819 -1.23323Q3.33434 -1.16574 3.42041 -1.12808Q3.4361 -1.12121 3.45128 -1.11329Q4.26865 -0.686843 4.6153 0.374799Q4.93914 1.34627 4.37225 2.32131Q3.81321 3.29358 2.83404 3.48108Q1.96979 3.64657 1.33041 3.65989Q0.770345 3.67207 -0.116854 3.53406Q-1.17645 3.38273 -2.43845 2.76975Q-3.25285 2.36259 -3.61434 1.27811Q-3.91072 0.37156 -3.3853 -0.657389Q-2.91065 -1.54498 -1.87329 -1.83191Q-1.1583 -2.04323 0.227198 -1.56416Q0.836839 -1.35337 1.09473 -1.31438L1.02 -0.82L1.01091 -1.31992ZM1.02909 -0.320083Q0.986945 -0.319316 0.945267 -0.325617Q0.596711 -0.378305 -0.0995909 -0.619068Q-1.18225 -0.993422 -1.60671 -0.868094Q-2.231 -0.695417 -2.4947 -0.202612Q-2.83103 0.45603 -2.66566 0.961886Q-2.43515 1.65341 -2.00155 1.87025Q-0.880218 2.41489 0.0368534 2.54594Q0.836846 2.67039 1.30959 2.66011Q1.8646 2.64855 2.64596 2.49892Q3.17484 2.39765 3.50775 1.81869Q3.84764 1.23407 3.6647 0.685201Q3.4446 0.0111428 2.98872 -0.226708L3.22 -0.67L3.01959 -0.211921Q2.94567 -0.244263 2.79181 -0.306767Q2.62567 -0.374263 2.53959 -0.411921L2.74 -0.87L2.58986 -0.393075Q2.33972 -0.471824 1.66834 -0.381176Q1.24493 -0.324007 1.02909 -0.320083Z"/>
	<path fill="#634002" transform="matrix(4.28571 0 0 4.28571 55 47.8571)" d="M2.12 1.43C2.61 0.87 3.44 0.62 4.19 0.79C5.26 1.03 5.84 2.24 5.59 3.25C5.03 5.49 2.45 5.5 0.61 5.41C-0.88 5.34 -2.62 5.3 -3.88 4.39L-3.88 4.39C-4.32 4.07 -4.63 3.72 -4.8 3.19C-4.97 2.68 -4.84 2.11 -4.6 1.65C-4.37 1.22 -3.87 0.86 -3.4 0.73C-2.95 0.61 -2.26 0.64 -1.86 0.93C-1.27 1.3 -1.07 1.32 0.67 1.41C1.15 1.43 1.64 1.45 2.12 1.43L2.12 1.43Z"/>
	<path fill="#503402" transform="matrix(4.28571 0 0 4.28571 55 47.8571)" d="M1.74371 1.10075Q2.74984 -0.049119 4.30053 0.30237Q5.30362 0.52736 5.82504 1.49384Q6.31499 2.40198 6.07535 3.37014Q5.38189 6.14401 0.585573 5.9094Q0.520791 5.90636 0.387298 5.90025Q-2.84777 5.75227 -4.17275 4.79534Q-5.00411 4.19072 -5.27611 3.34271Q-5.57669 2.44107 -5.04329 1.41872Q-4.57065 0.535022 -3.53329 0.248094Q-2.37485 -0.0608464 -1.56652 0.525195L-1.86 0.93L-1.59436 0.506405Q-1.09764 0.817902 0.695827 0.910667Q1.635 0.949774 2.09918 0.930433L2.12 1.43L1.74371 1.10075ZM2.49629 1.75925Q2.42866 1.83654 2.33604 1.88092Q2.24343 1.92529 2.14082 1.92957Q1.635 1.95064 0.644172 1.90933Q-1.4088 1.80314 -2.12564 1.3536Q-2.13988 1.34467 -2.15348 1.33481Q-2.57675 1.02794 -3.26671 1.21191Q-3.891 1.38458 -4.15671 1.88128Q-4.49382 2.52741 -4.32389 3.03729Q-4.15169 3.57416 -3.58725 3.98466Q-2.5041 4.76694 0.432996 4.9013Q0.566967 4.90743 0.634428 4.9106Q4.61084 5.1051 5.10465 3.12986Q5.25145 2.53676 4.94496 1.96866Q4.63997 1.40335 4.07947 1.27763Q3.10999 1.05788 2.49629 1.75925Z"/>
	<path fill="none" stroke="black" stroke-width="2.3999999" stroke-linejoin="round" transform="translate(55 79.2857)" d="M-12.8183 -6.58855Q-9.71767 -6.58855 -8.0624 -5.49969Q-6.40224 -4.41082 -6.40224 -1.93035Q-6.40224 0.569648 -8.08193 1.68293Q-9.76162 2.79133 -12.8817 2.79133L-13.8583 2.79133L-13.8583 7.43L-16.9784 7.43L-16.9784 -6.23211Q-15.9579 -6.4323 -14.8202 -6.51043Q-13.6776 -6.58855 -12.8183 -6.58855ZM-12.6181 -3.9323Q-12.9599 -3.9323 -13.2919 -3.90789Q-13.619 -3.88836 -13.8583 -3.86883L-13.8583 0.130195L-12.8817 0.130195Q-11.2606 0.130195 -10.4403 -0.309258Q-9.62002 -0.748711 -9.62002 -1.94988Q-9.62002 -2.53094 -9.82998 -2.90691Q-10.0399 -3.28777 -10.4306 -3.51727Q-10.8212 -3.75164 -11.3827 -3.83953Q-11.9394 -3.9323 -12.6181 -3.9323ZM5.54025 2.15168Q5.54025 3.39191 5.17892 4.42219Q4.81759 5.44758 4.13888 6.18Q3.46017 6.91242 2.50802 7.31281Q1.56075 7.70832 0.379112 7.70832Q-0.778114 7.70832 -1.73026 7.31281Q-2.68241 6.91242 -3.36112 6.18Q-4.03983 5.44758 -4.42069 4.42219Q-4.80155 3.39191 -4.80155 2.15168Q-4.80155 0.911445 -4.41093 -0.109063Q-4.0203 -1.12957 -3.33183 -1.84734Q-2.63847 -2.57 -1.6912 -2.97039Q-0.739052 -3.37078 0.379112 -3.37078Q1.52169 -3.37078 2.46896 -2.97039Q3.4211 -2.57 4.09982 -1.84734Q4.77853 -1.12957 5.15939 -0.109063Q5.54025 0.911445 5.54025 2.15168ZM2.49825 2.15168Q2.49825 0.769844 1.9465 -0.021172Q1.39962 -0.812188 0.379112 -0.812188Q-0.641396 -0.812188 -1.20292 -0.021172Q-1.75956 0.769844 -1.75956 2.15168Q-1.75956 3.52863 -1.20292 4.33918Q-0.641396 5.14973 0.379112 5.14973Q1.39962 5.14973 1.9465 4.33918Q2.49825 3.52863 2.49825 2.15168ZM17.6802 2.15168Q17.6802 3.39191 17.3189 4.42219Q16.9576 5.44758 16.2789 6.18Q15.6002 6.91242 14.648 7.31281Q13.7007 7.70832 12.5191 7.70832Q11.3619 7.70832 10.4097 7.31281Q9.45757 6.91242 8.77886 6.18Q8.10015 5.44758 7.71929 4.42219Q7.33843 3.39191 7.33843 2.15168Q7.33843 0.911445 7.72906 -0.109063Q8.11968 -1.12957 8.80816 -1.84734Q9.50152 -2.57 10.4488 -2.97039Q11.4009 -3.37078 12.5191 -3.37078Q13.6617 -3.37078 14.6089 -2.97039Q15.5611 -2.57 16.2398 -1.84734Q16.9185 -1.12957 17.2994 -0.109063Q17.6802 0.911445 17.6802 2.15168ZM14.6382 2.15168Q14.6382 0.769844 14.0865 -0.021172Q13.5396 -0.812188 12.5191 -0.812188Q11.4986 -0.812188 10.9371 -0.021172Q10.3804 0.769844 10.3804 2.15168Q10.3804 3.52863 10.9371 4.33918Q11.4986 5.14973 12.5191 5.14973Q13.5396 5.14973 14.0865 4.33918Q14.6382 3.52863 14.6382 2.15168Z"/>
	<path fill="white" transform="translate(55 79.2857)" d="M-12.8183 -6.58855Q-9.71767 -6.58855 -8.0624 -5.49969Q-6.40224 -4.41082 -6.40224 -1.93035Q-6.40224 0.569648 -8.08193 1.68293Q-9.76162 2.79133 -12.8817 2.79133L-13.8583 2.79133L-13.8583 7.43L-16.9784 7.43L-16.9784 -6.23211Q-15.9579 -6.4323 -14.8202 -6.51043Q-13.6776 -6.58855 -12.8183 -6.58855ZM-12.6181 -3.9323Q-12.9599 -3.9323 -13.2919 -3.90789Q-13.619 -3.88836 -13.8583 -3.86883L-13.8583 0.130195L-12.8817 0.130195Q-11.2606 0.130195 -10.4403 -0.309258Q-9.62002 -0.748711 -9.62002 -1.94988Q-9.62002 -2.53094 -9.82998 -2.90691Q-10.0399 -3.28777 -10.4306 -3.51727Q-10.8212 -3.75164 -11.3827 -3.83953Q-11.9394 -3.9323 -12.6181 -3.9323ZM5.54025 2.15168Q5.54025 3.39191 5.17892 4.42219Q4.81759 5.44758 4.13888 6.18Q3.46017 6.91242 2.50802 7.31281Q1.56075 7.70832 0.379112 7.70832Q-0.778114 7.70832 -1.73026 7.31281Q-2.68241 6.91242 -3.36112 6.18Q-4.03983 5.44758 -4.42069 4.42219Q-4.80155 3.39191 -4.80155 2.15168Q-4.80155 0.911445 -4.41093 -0.109063Q-4.0203 -1.12957 -3.33183 -1.84734Q-2.63847 -2.57 -1.6912 -2.97039Q-0.739052 -3.37078 0.379112 -3.37078Q1.52169 -3.37078 2.46896 -2.97039Q3.4211 -2.57 4.09982 -1.84734Q4.77853 -1.12957 5.15939 -0.109063Q5.54025 0.911445 5.54025 2.15168ZM2.49825 2.15168Q2.49825 0.769844 1.9465 -0.021172Q1.39962 -0.812188 0.379112 -0.812188Q-0.641396 -0.812188 -1.20292 -0.021172Q-1.75956 0.769844 -1.75956 2.15168Q-1.75956 3.52863 -1.20292 4.33918Q-0.641396 5.14973 0.379112 5.14973Q1.39962 5.14973 1.9465 4.33918Q2.49825 3.52863 2.49825 2.15168ZM17.6802 2.15168Q17.6802 3.39191 17.3189 4.42219Q16.9576 5.44758 16.2789 6.18Q15.6002 6.91242 14.648 7.31281Q13.7007 7.70832 12.5191 7.70832Q11.3619 7.70832 10.4097 7.31281Q9.45757 6.91242 8.77886 6.18Q8.10015 5.44758 7.71929 4.42219Q7.33843 3.39191 7.33843 2.15168Q7.33843 0.911445 7.72906 -0.109063Q8.11968 -1.12957 8.80816 -1.84734Q9.50152 -2.57 10.4488 -2.97039Q11.4009 -3.37078 12.5191 -3.37078Q13.6617 -3.37078 14.6089 -2.97039Q15.5611 -2.57 16.2398 -1.84734Q16.9185 -1.12957 17.2994 -0.109063Q17.6802 0.911445 17.6802 2.15168ZM14.6382 2.15168Q14.6382 0.769844 14.0865 -0.021172Q13.5396 -0.812188 12.5191 -0.812188Q11.4986 -0.812188 10.9371 -0.021172Q10.3804 0.769844 10.3804 2.15168Q10.3804 3.52863 10.9371 4.33918Q11.4986 5.14973 12.5191 5.14973Q13.5396 5.14973 14.0865 4.33918Q14.6382 3.52863 14.6382 2.15168Z"/>
</svg>
