<?xml version="1.0" encoding="utf-8" ?>
<svg xmlns="http://www.w3.org/2000/svg" xmlns:xlink="http://www.w3.org/1999/xlink" width="110" height="110">
	<path fill="#CE76DB" transform="matrix(0.0832872 0.00835659 -0.00835659 0.0832872 35.8178 24.3963)" d="M256 26C222.793 92.414 208.807 120.485 213.955 154.49C193.55 126.804 163.813 116.843 93.369 93.361C116.85 163.805 126.804 193.55 154.49 213.955C120.485 208.807 92.414 222.793 26 256C92.414 289.207 120.485 303.193 154.49 298.045C126.804 318.45 116.85 348.187 93.37 418.631C163.81 395.151 193.55 385.194 213.955 357.51C208.807 391.515 222.793 419.586 256 486C289.207 419.586 303.193 391.515 298.045 357.51C318.45 385.194 348.197 395.15 418.639 418.63C395.157 348.187 385.196 318.45 357.509 298.045C391.516 303.193 419.587 289.207 486 256C419.586 222.793 391.515 208.807 357.51 213.955C385.196 193.55 395.157 163.805 418.639 93.361C348.195 116.843 318.45 126.804 298.045 154.491C303.193 120.484 289.207 92.413 256 26Z"/>
	<path fill="#A760B1" transform="matrix(0.0832872 0.00835659 -0.00835659 0.0832872 35.8178 24.3963)" d="M273.889 34.9443Q246.055 90.6112 239.425 109.138Q230.916 132.912 233.73 151.496Q233.803 151.982 233.853 152.47Q233.902 152.959 233.928 153.449Q233.953 153.939 233.955 154.43Q233.956 154.921 233.934 155.412Q233.911 155.902 233.864 156.391Q233.818 156.88 233.747 157.366Q233.677 157.851 233.582 158.333Q233.488 158.815 233.37 159.292Q233.252 159.768 233.111 160.238Q232.97 160.709 232.806 161.172Q232.642 161.634 232.455 162.088Q232.269 162.543 232.06 162.987Q231.852 163.432 231.621 163.865Q231.391 164.299 231.14 164.721Q230.889 165.143 230.617 165.552Q230.346 165.961 230.055 166.356Q229.763 166.751 229.453 167.132Q229.143 167.512 228.814 167.877Q228.485 168.242 228.139 168.59Q227.793 168.938 227.43 169.269Q227.068 169.6 226.689 169.912Q226.31 170.225 225.917 170.518Q225.523 170.812 225.116 171.086Q224.709 171.36 224.288 171.614Q223.868 171.867 223.436 172.1Q223.003 172.333 222.56 172.544Q222.117 172.755 221.664 172.945Q221.211 173.134 220.749 173.301Q220.287 173.467 219.818 173.611Q219.348 173.755 218.873 173.876Q218.397 173.997 217.915 174.094Q217.434 174.191 216.949 174.265Q216.277 174.366 215.601 174.422Q214.924 174.478 214.245 174.488Q213.566 174.498 212.888 174.462Q212.21 174.425 211.536 174.343Q210.862 174.261 210.196 174.133Q209.529 174.006 208.872 173.833Q208.215 173.661 207.572 173.444Q206.928 173.227 206.301 172.968Q205.674 172.708 205.066 172.406Q204.458 172.104 203.871 171.762Q203.285 171.42 202.723 171.038Q202.161 170.657 201.627 170.238Q201.092 169.82 200.587 169.366Q200.082 168.912 199.609 168.425Q199.136 167.938 198.697 167.42Q198.258 166.902 197.855 166.356Q186.703 151.224 163.876 140.429Q146.085 132.015 87.0443 112.335L93.369 93.361L112.343 87.0365Q132.029 146.097 140.434 163.874Q151.227 186.705 166.356 197.855Q166.751 198.147 167.131 198.457Q167.512 198.767 167.877 199.096Q168.241 199.424 168.59 199.771Q168.938 200.117 169.269 200.479Q169.6 200.842 169.912 201.221Q170.225 201.599 170.518 201.993Q170.812 202.386 171.086 202.794Q171.36 203.201 171.614 203.622Q171.867 204.042 172.1 204.474Q172.333 204.907 172.544 205.35Q172.755 205.793 172.945 206.246Q173.134 206.699 173.301 207.161Q173.467 207.623 173.611 208.092Q173.755 208.561 173.876 209.037Q173.997 209.513 174.094 209.994Q174.191 210.476 174.265 210.961Q174.338 211.447 174.388 211.935Q174.437 212.423 174.463 212.914Q174.488 213.404 174.49 213.895Q174.491 214.386 174.469 214.876Q174.446 215.367 174.399 215.856Q174.353 216.344 174.282 216.83Q174.212 217.316 174.117 217.798Q174.023 218.28 173.905 218.756Q173.787 219.233 173.646 219.703Q173.505 220.174 173.341 220.636Q173.177 221.099 172.99 221.553Q172.804 222.007 172.595 222.452Q172.387 222.896 172.157 223.33Q171.926 223.764 171.675 224.186Q171.424 224.607 171.153 225.017Q170.881 225.426 170.59 225.821Q170.187 226.367 169.748 226.885Q169.309 227.403 168.836 227.89Q168.363 228.377 167.858 228.831Q167.353 229.285 166.818 229.703Q166.284 230.122 165.722 230.503Q165.16 230.885 164.574 231.227Q163.987 231.569 163.379 231.871Q162.771 232.173 162.144 232.433Q161.516 232.692 160.873 232.909Q160.23 233.126 159.573 233.298Q158.916 233.471 158.249 233.598Q157.583 233.726 156.909 233.808Q156.235 233.89 155.557 233.927Q154.879 233.963 154.2 233.953Q153.521 233.943 152.844 233.887Q152.168 233.831 151.496 233.73Q132.912 230.916 109.138 239.425Q90.6112 246.055 34.9443 273.889L26 256L34.9443 238.111Q90.611 265.945 109.138 272.575Q132.912 281.084 151.496 278.27Q151.982 278.197 152.47 278.147Q152.959 278.098 153.449 278.072Q153.939 278.047 154.43 278.045Q154.921 278.044 155.412 278.066Q155.902 278.089 156.391 278.135Q156.88 278.182 157.366 278.253Q157.851 278.323 158.333 278.418Q158.815 278.512 159.292 278.63Q159.768 278.748 160.238 278.889Q160.709 279.03 161.172 279.194Q161.634 279.358 162.088 279.545Q162.543 279.731 162.987 279.94Q163.432 280.148 163.865 280.378Q164.299 280.609 164.721 280.86Q165.143 281.111 165.552 281.382Q165.961 281.654 166.356 281.945Q166.751 282.237 167.132 282.547Q167.512 282.857 167.877 283.186Q168.242 283.515 168.59 283.861Q168.938 284.207 169.269 284.57Q169.6 284.932 169.912 285.311Q170.225 285.69 170.518 286.083Q170.812 286.477 171.086 286.884Q171.36 287.291 171.614 287.712Q171.867 288.132 172.1 288.564Q172.333 288.997 172.544 289.44Q172.755 289.883 172.945 290.336Q173.134 290.789 173.301 291.251Q173.467 291.713 173.611 292.182Q173.755 292.652 173.876 293.127Q173.997 293.603 174.094 294.085Q174.191 294.566 174.265 295.051Q174.366 295.723 174.422 296.399Q174.478 297.076 174.488 297.755Q174.498 298.434 174.462 299.112Q174.425 299.79 174.343 300.464Q174.261 301.138 174.133 301.804Q174.006 302.471 173.833 303.128Q173.661 303.785 173.444 304.428Q173.227 305.071 172.968 305.699Q172.708 306.326 172.406 306.934Q172.104 307.542 171.762 308.129Q171.42 308.715 171.038 309.277Q170.657 309.839 170.238 310.373Q169.82 310.908 169.366 311.413Q168.912 311.918 168.425 312.391Q167.938 312.864 167.42 313.303Q166.902 313.742 166.356 314.145Q151.226 325.295 140.434 348.122Q132.027 365.903 112.344 424.955L93.37 418.631L87.0455 399.657Q146.093 379.975 163.877 371.566Q186.705 360.772 197.856 345.644Q198.147 345.248 198.457 344.868Q198.768 344.488 199.096 344.123Q199.425 343.758 199.771 343.41Q200.117 343.062 200.48 342.731Q200.843 342.4 201.221 342.087Q201.6 341.775 201.993 341.481Q202.387 341.188 202.794 340.914Q203.202 340.64 203.622 340.386Q204.043 340.132 204.475 339.9Q204.907 339.667 205.35 339.456Q205.794 339.244 206.247 339.055Q206.7 338.866 207.161 338.699Q207.623 338.532 208.093 338.388Q208.562 338.245 209.038 338.124Q209.514 338.003 209.995 337.906Q210.476 337.809 210.962 337.735Q211.447 337.662 211.936 337.612Q212.424 337.563 212.914 337.537Q213.405 337.512 213.896 337.51Q214.387 337.509 214.877 337.531Q215.368 337.554 215.856 337.601Q216.345 337.647 216.831 337.718Q217.317 337.788 217.799 337.883Q218.281 337.977 218.757 338.095Q219.234 338.213 219.704 338.354Q220.174 338.495 220.637 338.659Q221.1 338.823 221.554 339.01Q222.008 339.196 222.453 339.405Q222.897 339.614 223.331 339.844Q223.764 340.074 224.186 340.325Q224.608 340.576 225.017 340.848Q225.426 341.119 225.821 341.411Q226.368 341.813 226.886 342.252Q227.404 342.691 227.891 343.164Q228.378 343.637 228.832 344.142Q229.285 344.647 229.704 345.182Q230.122 345.717 230.504 346.278Q230.885 346.84 231.227 347.427Q231.569 348.013 231.871 348.621Q232.173 349.229 232.433 349.857Q232.693 350.484 232.909 351.127Q233.126 351.771 233.298 352.427Q233.471 353.084 233.599 353.751Q233.726 354.418 233.808 355.092Q233.89 355.766 233.927 356.443Q233.963 357.121 233.953 357.8Q233.943 358.479 233.887 359.156Q233.831 359.832 233.73 360.504Q230.916 379.088 239.425 402.862Q246.055 421.389 273.889 477.056L256 486L238.111 477.056Q265.945 421.389 272.575 402.862Q281.084 379.088 278.27 360.504Q278.197 360.018 278.147 359.53Q278.098 359.041 278.072 358.551Q278.047 358.061 278.045 357.57Q278.044 357.079 278.066 356.588Q278.089 356.098 278.135 355.609Q278.182 355.12 278.253 354.634Q278.323 354.149 278.418 353.667Q278.512 353.185 278.63 352.708Q278.748 352.232 278.889 351.761Q279.03 351.291 279.194 350.828Q279.358 350.366 279.545 349.912Q279.731 349.457 279.94 349.013Q280.148 348.568 280.378 348.135Q280.609 347.701 280.86 347.279Q281.111 346.857 281.382 346.448Q281.654 346.039 281.945 345.644Q282.237 345.249 282.547 344.868Q282.857 344.488 283.186 344.123Q283.515 343.758 283.861 343.41Q284.207 343.062 284.57 342.731Q284.932 342.4 285.311 342.088Q285.69 341.775 286.083 341.482Q286.477 341.188 286.884 340.914Q287.291 340.64 287.712 340.386Q288.132 340.133 288.564 339.9Q288.997 339.667 289.44 339.456Q289.883 339.245 290.336 339.055Q290.789 338.866 291.251 338.699Q291.713 338.533 292.182 338.389Q292.652 338.245 293.127 338.124Q293.603 338.003 294.085 337.906Q294.566 337.809 295.051 337.735Q295.723 337.634 296.399 337.578Q297.076 337.522 297.755 337.512Q298.434 337.502 299.112 337.538Q299.789 337.575 300.463 337.657Q301.137 337.739 301.804 337.866Q302.471 337.994 303.128 338.167Q303.784 338.339 304.428 338.556Q305.071 338.773 305.698 339.032Q306.326 339.292 306.934 339.594Q307.542 339.896 308.128 340.238Q308.715 340.58 309.276 340.962Q309.838 341.343 310.373 341.761Q310.907 342.18 311.412 342.634Q311.917 343.087 312.391 343.574Q312.864 344.061 313.303 344.579Q313.742 345.097 314.144 345.644Q325.294 360.771 348.126 371.565Q365.906 379.971 424.963 399.656L418.639 418.63L399.665 424.955Q379.984 365.914 371.571 348.124Q360.776 325.297 345.643 314.145Q345.248 313.854 344.868 313.543Q344.487 313.233 344.123 312.904Q343.758 312.576 343.41 312.23Q343.061 311.884 342.73 311.521Q342.4 311.158 342.087 310.779Q341.774 310.401 341.481 310.007Q341.187 309.614 340.913 309.207Q340.639 308.799 340.385 308.379Q340.132 307.958 339.899 307.526Q339.666 307.094 339.455 306.651Q339.244 306.207 339.055 305.754Q338.865 305.301 338.698 304.84Q338.532 304.378 338.388 303.908Q338.244 303.439 338.123 302.963Q338.002 302.487 337.905 302.006Q337.808 301.525 337.734 301.039Q337.661 300.554 337.611 300.065Q337.562 299.577 337.536 299.087Q337.511 298.596 337.509 298.105Q337.508 297.614 337.53 297.124Q337.553 296.633 337.599 296.145Q337.646 295.656 337.717 295.17Q337.787 294.684 337.882 294.202Q337.976 293.72 338.094 293.244Q338.212 292.767 338.353 292.297Q338.494 291.827 338.658 291.364Q338.822 290.901 339.008 290.447Q339.195 289.993 339.403 289.548Q339.612 289.104 339.842 288.67Q340.072 288.237 340.323 287.815Q340.575 287.393 340.846 286.984Q341.118 286.575 341.409 286.18Q341.812 285.633 342.251 285.115Q342.69 284.597 343.163 284.11Q343.636 283.623 344.141 283.169Q344.646 282.715 345.18 282.297Q345.715 281.878 346.277 281.497Q346.839 281.116 347.425 280.773Q348.011 280.431 348.619 280.129Q349.228 279.827 349.855 279.568Q350.482 279.308 351.126 279.091Q351.769 278.874 352.426 278.702Q353.082 278.529 353.749 278.402Q354.416 278.274 355.09 278.192Q355.764 278.11 356.442 278.073Q357.12 278.037 357.799 278.047Q358.478 278.057 359.154 278.113Q359.831 278.169 360.502 278.27Q379.088 281.084 402.863 272.575Q421.39 265.945 477.056 238.112L486 256L477.056 273.889Q421.389 246.055 402.862 239.425Q379.088 230.916 360.504 233.73Q360.018 233.803 359.53 233.853Q359.041 233.902 358.551 233.928Q358.061 233.953 357.57 233.955Q357.079 233.956 356.588 233.934Q356.098 233.911 355.609 233.864Q355.12 233.818 354.634 233.747Q354.149 233.677 353.667 233.582Q353.185 233.488 352.708 233.37Q352.232 233.252 351.761 233.111Q351.291 232.97 350.828 232.806Q350.366 232.642 349.912 232.455Q349.457 232.269 349.013 232.06Q348.568 231.852 348.135 231.621Q347.701 231.391 347.279 231.14Q346.857 230.889 346.448 230.617Q346.039 230.346 345.644 230.055Q345.249 229.763 344.868 229.453Q344.488 229.143 344.123 228.814Q343.758 228.485 343.41 228.139Q343.062 227.793 342.731 227.43Q342.4 227.068 342.088 226.689Q341.775 226.31 341.482 225.917Q341.188 225.523 340.914 225.116Q340.64 224.709 340.386 224.288Q340.133 223.868 339.9 223.436Q339.667 223.003 339.456 222.56Q339.245 222.117 339.055 221.664Q338.866 221.211 338.699 220.749Q338.533 220.287 338.389 219.818Q338.245 219.348 338.124 218.873Q338.003 218.397 337.906 217.915Q337.809 217.434 337.735 216.949Q337.634 216.277 337.578 215.601Q337.522 214.924 337.512 214.245Q337.502 213.566 337.538 212.888Q337.575 212.21 337.657 211.536Q337.739 210.862 337.866 210.196Q337.994 209.529 338.167 208.872Q338.339 208.215 338.556 207.572Q338.773 206.928 339.032 206.301Q339.292 205.674 339.594 205.066Q339.896 204.458 340.238 203.871Q340.58 203.285 340.962 202.723Q341.343 202.161 341.762 201.627Q342.18 201.092 342.634 200.587Q343.088 200.082 343.575 199.609Q344.062 199.136 344.58 198.697Q345.098 198.258 345.644 197.855Q360.775 186.704 371.571 163.873Q379.982 146.084 399.665 87.0363L418.639 93.361L424.964 112.335Q365.916 132.018 348.127 140.43Q325.296 151.226 314.145 166.357Q313.854 166.752 313.543 167.132Q313.233 167.513 312.904 167.877Q312.576 168.242 312.23 168.59Q311.884 168.939 311.521 169.269Q311.158 169.6 310.779 169.913Q310.401 170.225 310.007 170.519Q309.614 170.813 309.207 171.087Q308.799 171.361 308.379 171.614Q307.958 171.868 307.526 172.101Q307.094 172.334 306.651 172.545Q306.207 172.756 305.754 172.945Q305.301 173.135 304.84 173.301Q304.378 173.468 303.908 173.612Q303.439 173.756 302.963 173.877Q302.487 173.998 302.006 174.095Q301.525 174.192 301.039 174.266Q300.554 174.339 300.065 174.389Q299.577 174.438 299.087 174.464Q298.596 174.489 298.105 174.491Q297.614 174.492 297.124 174.47Q296.633 174.447 296.145 174.4Q295.656 174.354 295.17 174.283Q294.684 174.213 294.202 174.118Q293.72 174.024 293.244 173.906Q292.767 173.788 292.297 173.647Q291.827 173.506 291.364 173.342Q290.901 173.178 290.447 172.992Q289.993 172.805 289.548 172.596Q289.104 172.388 288.67 172.158Q288.237 171.928 287.815 171.676Q287.393 171.425 286.984 171.154Q286.575 170.882 286.18 170.591Q285.633 170.188 285.115 169.749Q284.597 169.31 284.11 168.837Q283.623 168.364 283.169 167.859Q282.715 167.354 282.297 166.82Q281.878 166.285 281.497 165.723Q281.116 165.161 280.773 164.575Q280.431 163.989 280.129 163.38Q279.827 162.772 279.568 162.145Q279.308 161.518 279.091 160.874Q278.874 160.231 278.702 159.574Q278.529 158.918 278.402 158.251Q278.274 157.584 278.192 156.91Q278.11 156.236 278.073 155.558Q278.037 154.88 278.047 154.201Q278.057 153.522 278.113 152.845Q278.169 152.169 278.27 151.497Q281.084 132.912 272.575 109.137Q265.945 90.6102 238.112 34.9444L256 26L273.889 34.9443ZM238.111 17.0557Q238.471 16.3359 238.888 15.6473Q239.305 14.9587 239.775 14.3058Q240.246 13.6529 240.767 13.04Q241.289 12.427 241.858 11.8579Q242.427 11.2888 243.04 10.7673Q243.653 10.2458 244.306 9.77521Q244.959 9.30463 245.647 8.88803Q246.336 8.47143 247.056 8.11151Q247.495 7.89194 247.944 7.69418Q248.394 7.49642 248.852 7.32094Q249.311 7.14547 249.777 6.99271Q250.244 6.83995 250.717 6.71027Q251.191 6.58059 251.67 6.4743Q252.15 6.36801 252.634 6.28537Q253.117 6.20272 253.605 6.14393Q254.092 6.08513 254.582 6.05032Q255.072 6.01552 255.563 6.00478Q256.054 5.99405 256.544 6.00741Q257.035 6.02077 257.525 6.0582Q258.014 6.09563 258.501 6.15704Q258.988 6.21844 259.472 6.30367Q259.955 6.38891 260.434 6.49776Q260.913 6.60662 261.386 6.73883Q261.859 6.87105 262.324 7.0263Q262.79 7.18156 263.248 7.35948Q263.705 7.53741 264.154 7.73757Q264.602 7.93774 265.04 8.15966Q265.478 8.38158 265.904 8.62472Q266.331 8.86786 266.745 9.13164Q267.159 9.39542 267.56 9.6792Q267.961 9.96298 268.347 10.2661Q268.733 10.5692 269.104 10.8909Q269.475 11.2125 269.829 11.552Q270.184 11.8915 270.522 12.248Q270.859 12.6045 271.179 12.9771Q271.499 13.3498 271.8 13.7376Q272.101 14.1255 272.382 14.5277Q272.664 14.9298 272.926 15.3453Q273.187 15.7608 273.428 16.1887Q273.669 16.6165 273.888 17.0556Q302.796 74.8705 310.236 95.6587Q322.143 128.928 317.82 157.484L298.045 154.491L281.945 142.625Q299.08 119.376 331.028 104.269Q350.988 94.8302 412.314 74.3874Q413.078 74.1329 413.859 73.9405Q414.641 73.7482 415.435 73.6193Q416.23 73.4903 417.032 73.4257Q417.834 73.361 418.639 73.361Q419.444 73.361 420.246 73.4257Q421.048 73.4903 421.843 73.6193Q422.637 73.7482 423.419 73.9405Q424.2 74.1329 424.964 74.3874Q425.429 74.5426 425.887 74.7206Q426.345 74.8985 426.793 75.0987Q427.241 75.2989 427.679 75.5208Q428.117 75.7427 428.544 75.9858Q428.97 76.229 429.384 76.4928Q429.798 76.7566 430.199 77.0404Q430.6 77.3241 430.986 77.6272Q431.372 77.9303 431.743 78.252Q432.114 78.5737 432.469 78.9132Q432.823 79.2527 433.161 79.6092Q433.499 79.9657 433.818 80.3383Q434.138 80.711 434.439 81.0988Q434.74 81.4867 435.022 81.8889Q435.303 82.291 435.565 82.7066Q435.826 83.1221 436.067 83.5499Q436.308 83.9777 436.528 84.4169Q436.747 84.856 436.945 85.3054Q437.143 85.7548 437.318 86.2133Q437.494 86.6719 437.646 87.1385Q437.799 87.6051 437.929 88.0786Q438.058 88.5522 438.165 89.0315Q438.271 89.5108 438.354 89.9948Q438.436 90.4788 438.495 90.9662Q438.554 91.4536 438.589 91.9434Q438.623 92.4331 438.634 92.924Q438.645 93.4148 438.632 93.9056Q438.618 94.3964 438.581 94.886Q438.543 95.3755 438.482 95.8626Q438.42 96.3497 438.335 96.8333Q438.25 97.3168 438.141 97.7955Q438.032 98.2743 437.9 98.7471Q437.768 99.2199 437.613 99.6857Q417.17 161.012 407.731 180.972Q392.624 212.92 369.376 230.055L357.51 213.955L354.516 194.18Q383.071 189.857 416.341 201.764Q437.129 209.204 494.944 238.111Q495.664 238.471 496.353 238.888Q497.041 239.305 497.694 239.775Q498.347 240.246 498.96 240.767Q499.573 241.289 500.142 241.858Q500.711 242.427 501.233 243.04Q501.754 243.653 502.225 244.306Q502.695 244.959 503.112 245.647Q503.529 246.336 503.888 247.056Q504.108 247.495 504.306 247.944Q504.504 248.394 504.679 248.852Q504.855 249.311 505.007 249.777Q505.16 250.244 505.29 250.717Q505.419 251.191 505.526 251.67Q505.632 252.15 505.715 252.634Q505.797 253.117 505.856 253.605Q505.915 254.092 505.95 254.582Q505.984 255.072 505.995 255.563Q506.006 256.054 505.993 256.544Q505.979 257.035 505.942 257.525Q505.904 258.014 505.843 258.501Q505.781 258.988 505.696 259.472Q505.611 259.955 505.502 260.434Q505.393 260.913 505.261 261.386Q505.129 261.859 504.974 262.324Q504.818 262.79 504.64 263.248Q504.463 263.705 504.262 264.154Q504.062 264.602 503.84 265.04Q503.618 265.478 503.375 265.904Q503.132 266.331 502.868 266.745Q502.605 267.159 502.321 267.56Q502.037 267.961 501.734 268.347Q501.431 268.733 501.109 269.104Q500.787 269.475 500.448 269.829Q500.108 270.184 499.752 270.522Q499.395 270.859 499.023 271.179Q498.65 271.499 498.262 271.8Q497.874 272.101 497.472 272.382Q497.07 272.664 496.655 272.926Q496.239 273.187 495.811 273.428Q495.383 273.669 494.944 273.888Q437.129 302.796 416.341 310.236Q383.072 322.143 354.515 317.82L357.509 298.045L369.374 281.945Q392.624 299.08 407.731 331.023Q417.172 350.985 437.613 412.305Q437.867 413.069 438.059 413.85Q438.252 414.632 438.381 415.426Q438.51 416.221 438.574 417.023Q438.639 417.825 438.639 418.63Q438.639 419.435 438.574 420.237Q438.51 421.039 438.381 421.833Q438.252 422.628 438.06 423.409Q437.867 424.191 437.613 424.954Q437.457 425.42 437.28 425.878Q437.102 426.335 436.901 426.784Q436.701 427.232 436.479 427.67Q436.257 428.108 436.014 428.534Q435.771 428.961 435.507 429.375Q435.244 429.789 434.96 430.19Q434.676 430.59 434.373 430.977Q434.07 431.363 433.748 431.734Q433.426 432.105 433.087 432.459Q432.747 432.814 432.391 433.152Q432.034 433.489 431.662 433.809Q431.289 434.129 430.901 434.43Q430.513 434.731 430.111 435.012Q429.709 435.294 429.294 435.556Q428.878 435.817 428.45 436.058Q428.022 436.299 427.583 436.518Q427.144 436.738 426.695 436.936Q426.245 437.134 425.787 437.309Q425.328 437.484 424.862 437.637Q424.395 437.79 423.922 437.92Q423.448 438.049 422.969 438.156Q422.489 438.262 422.005 438.345Q421.521 438.427 421.034 438.486Q420.547 438.545 420.057 438.58Q419.567 438.614 419.076 438.625Q418.585 438.636 418.095 438.623Q417.604 438.609 417.114 438.572Q416.625 438.534 416.138 438.473Q415.651 438.412 415.167 438.326Q414.684 438.241 414.205 438.132Q413.726 438.023 413.253 437.891Q412.78 437.759 412.315 437.604Q350.98 417.16 331.03 407.728Q299.08 392.623 281.946 369.376L298.045 357.51L317.82 354.516Q322.143 383.071 310.236 416.341Q302.796 437.129 273.889 494.944Q273.529 495.664 273.112 496.353Q272.695 497.041 272.225 497.694Q271.754 498.347 271.233 498.96Q270.711 499.573 270.142 500.142Q269.573 500.711 268.96 501.233Q268.347 501.754 267.694 502.225Q267.041 502.695 266.353 503.112Q265.664 503.529 264.944 503.889Q264.505 504.108 264.056 504.306Q263.606 504.504 263.148 504.679Q262.689 504.855 262.223 505.007Q261.756 505.16 261.283 505.29Q260.809 505.419 260.33 505.526Q259.85 505.632 259.366 505.715Q258.882 505.797 258.395 505.856Q257.907 505.915 257.418 505.95Q256.928 505.984 256.437 505.995Q255.946 506.006 255.456 505.993Q254.965 505.979 254.475 505.942Q253.986 505.904 253.499 505.843Q253.011 505.781 252.528 505.696Q252.044 505.611 251.566 505.502Q251.087 505.393 250.614 505.261Q250.141 505.129 249.675 504.974Q249.21 504.818 248.752 504.64Q248.294 504.463 247.846 504.262Q247.398 504.062 246.96 503.84Q246.522 503.618 246.095 503.375Q245.669 503.132 245.255 502.868Q244.841 502.604 244.44 502.321Q244.039 502.037 243.653 501.734Q243.267 501.431 242.896 501.109Q242.525 500.787 242.17 500.448Q241.816 500.108 241.478 499.752Q241.141 499.395 240.821 499.023Q240.501 498.65 240.2 498.262Q239.899 497.874 239.617 497.472Q239.336 497.07 239.074 496.655Q238.813 496.239 238.572 495.811Q238.331 495.383 238.111 494.944Q209.204 437.129 201.764 416.341Q189.857 383.071 194.18 354.516L213.955 357.51L230.054 369.376Q212.92 392.623 180.975 407.728Q161.021 417.163 99.6946 437.605Q98.9311 437.859 98.1496 438.051Q97.3681 438.244 96.5737 438.373Q95.7793 438.502 94.9771 438.566Q94.175 438.631 93.3702 438.631Q92.5654 438.631 91.7632 438.566Q90.961 438.502 90.1666 438.373Q89.3722 438.244 88.5907 438.052Q87.8093 437.859 87.0458 437.605Q86.58 437.45 86.1224 437.272Q85.6648 437.094 85.2165 436.894Q84.7682 436.693 84.3302 436.471Q83.8922 436.25 83.4657 436.006Q83.0391 435.763 82.625 435.499Q82.211 435.236 81.8103 434.952Q81.4096 434.668 81.0234 434.365Q80.6371 434.062 80.2662 433.74Q79.8953 433.419 79.5406 433.079Q79.1859 432.74 78.8484 432.383Q78.5108 432.027 78.1911 431.654Q77.8714 431.281 77.5703 430.894Q77.2693 430.506 76.9877 430.104Q76.706 429.701 76.4445 429.286Q76.1829 428.87 75.942 428.443Q75.7012 428.015 75.4816 427.576Q75.262 427.136 75.0643 426.687Q74.8665 426.238 74.691 425.779Q74.5156 425.321 74.3628 424.854Q74.21 424.387 74.0803 423.914Q73.9507 423.44 73.8444 422.961Q73.7381 422.482 73.6554 421.998Q73.5728 421.514 73.514 421.026Q73.4552 420.539 73.4203 420.049Q73.3855 419.559 73.3748 419.068Q73.3641 418.578 73.3774 418.087Q73.3908 417.596 73.4282 417.107Q73.4656 416.617 73.527 416.13Q73.5884 415.643 73.6736 415.159Q73.7589 414.676 73.8677 414.197Q73.9766 413.718 74.1088 413.245Q74.241 412.773 74.3962 412.307Q94.8386 350.976 104.272 331.025Q119.376 299.08 142.624 281.945L154.49 298.045L157.484 317.82Q128.929 322.143 95.6592 310.236Q74.8711 302.796 17.0557 273.889Q16.3359 273.529 15.6473 273.112Q14.9587 272.695 14.3058 272.225Q13.6529 271.754 13.0399 271.233Q12.427 270.711 11.8579 270.142Q11.2888 269.573 10.7673 268.96Q10.2457 268.347 9.77516 267.694Q9.30457 267.041 8.88798 266.353Q8.47138 265.664 8.11146 264.944Q7.89189 264.505 7.69413 264.056Q7.49637 263.606 7.3209 263.148Q7.14543 262.689 6.99267 262.223Q6.83992 261.756 6.71024 261.283Q6.58056 260.809 6.47427 260.33Q6.36798 259.85 6.28535 259.366Q6.20271 258.882 6.14391 258.395Q6.08512 257.907 6.05031 257.418Q6.01551 256.928 6.00478 256.437Q5.99405 255.946 6.00741 255.456Q6.02078 254.965 6.05821 254.475Q6.09564 253.986 6.15705 253.499Q6.21845 253.011 6.30369 252.528Q6.38893 252.044 6.49778 251.566Q6.60664 251.087 6.73886 250.614Q6.87107 250.141 7.02633 249.675Q7.18159 249.21 7.35952 248.752Q7.53745 248.294 7.73761 247.846Q7.93778 247.398 8.1597 246.96Q8.38162 246.522 8.62477 246.095Q8.86791 245.669 9.13169 245.255Q9.39547 244.841 9.67926 244.44Q9.96304 244.039 10.2661 243.653Q10.5692 243.267 10.8909 242.896Q11.2126 242.525 11.5521 242.17Q11.8916 241.816 12.2481 241.478Q12.6046 241.141 12.9772 240.821Q13.3498 240.501 13.7377 240.2Q14.1256 239.899 14.5277 239.617Q14.9299 239.336 15.3454 239.074Q15.7609 238.813 16.1888 238.572Q16.6166 238.331 17.0557 238.111Q74.871 209.204 95.6592 201.764Q128.928 189.857 157.484 194.18L154.49 213.955L142.624 230.055Q119.376 212.921 104.271 180.971Q94.841 161.023 74.3953 99.6855Q74.1408 98.922 73.9485 98.1405Q73.7561 97.359 73.6272 96.5645Q73.4983 95.7701 73.4337 94.9679Q73.369 94.1657 73.369 93.3609Q73.369 92.5561 73.4337 91.7538Q73.4984 90.9516 73.6273 90.1572Q73.7562 89.3628 73.9485 88.5813Q74.1409 87.7998 74.3954 87.0363Q74.5506 86.5705 74.7286 86.1129Q74.9065 85.6553 75.1067 85.207Q75.3069 84.7587 75.5288 84.3207Q75.7507 83.8828 75.9938 83.4562Q76.237 83.0297 76.5008 82.6156Q76.7646 82.2015 77.0483 81.8009Q77.3321 81.4002 77.6352 81.014Q77.9383 80.6277 78.26 80.2568Q78.5817 79.8859 78.9212 79.5313Q79.2607 79.1766 79.6172 78.839Q79.9737 78.5014 80.3463 78.1817Q80.719 77.862 81.1068 77.561Q81.4947 77.26 81.8969 76.9784Q82.299 76.6967 82.7146 76.4352Q83.1301 76.1736 83.5579 75.9328Q83.9857 75.6919 84.4249 75.4724Q84.864 75.2528 85.3134 75.0551Q85.7628 74.8573 86.2213 74.6818Q86.6799 74.5064 87.1465 74.3536Q87.6131 74.2009 88.0866 74.0712Q88.5602 73.9415 89.0395 73.8352Q89.5188 73.729 90.0028 73.6463Q90.4868 73.5637 90.9742 73.5049Q91.4616 73.4461 91.9514 73.4113Q92.4411 73.3765 92.932 73.3658Q93.4228 73.355 93.9136 73.3684Q94.4044 73.3818 94.894 73.4192Q95.3835 73.4566 95.8706 73.5181Q96.3577 73.5795 96.8412 73.6647Q97.3248 73.75 97.8035 73.8588Q98.2823 73.9677 98.7551 74.0999Q99.2279 74.2321 99.6937 74.3874Q161.014 94.8281 180.977 104.269Q212.92 119.375 230.055 142.624L213.955 154.49L194.18 157.484Q189.857 128.929 201.764 95.6592Q209.204 74.8711 238.111 17.0557L238.111 17.0557Z"/>
	<path fill="#A760B1" transform="matrix(0.0832872 0.00835659 -0.00835659 0.0832872 35.8178 24.3963)" d="M296 256Q296 256.982 295.952 257.963Q295.904 258.943 295.807 259.921Q295.711 260.898 295.567 261.869Q295.423 262.841 295.231 263.804Q295.04 264.767 294.801 265.719Q294.563 266.672 294.278 267.611Q293.993 268.551 293.662 269.476Q293.331 270.4 292.955 271.307Q292.579 272.215 292.16 273.102Q291.74 273.99 291.277 274.856Q290.814 275.722 290.309 276.564Q289.804 277.406 289.259 278.223Q288.713 279.039 288.128 279.828Q287.543 280.617 286.92 281.376Q286.297 282.135 285.638 282.862Q284.979 283.59 284.284 284.284Q283.59 284.979 282.862 285.638Q282.135 286.297 281.376 286.92Q280.617 287.543 279.828 288.128Q279.039 288.713 278.223 289.259Q277.406 289.804 276.564 290.309Q275.722 290.814 274.856 291.277Q273.99 291.74 273.102 292.16Q272.215 292.579 271.307 292.955Q270.4 293.331 269.476 293.662Q268.551 293.993 267.611 294.278Q266.672 294.563 265.719 294.801Q264.767 295.04 263.804 295.231Q262.841 295.423 261.869 295.567Q260.898 295.711 259.921 295.807Q258.943 295.904 257.963 295.952Q256.982 296 256 296Q255.018 296 254.037 295.952Q253.057 295.904 252.079 295.807Q251.102 295.711 250.131 295.567Q249.159 295.423 248.196 295.231Q247.233 295.04 246.281 294.801Q245.328 294.563 244.389 294.278Q243.449 293.993 242.524 293.662Q241.6 293.331 240.693 292.955Q239.785 292.579 238.898 292.16Q238.01 291.74 237.144 291.277Q236.278 290.814 235.436 290.309Q234.594 289.804 233.777 289.259Q232.961 288.713 232.172 288.128Q231.383 287.543 230.624 286.92Q229.865 286.297 229.138 285.638Q228.41 284.979 227.716 284.284Q227.021 283.59 226.362 282.862Q225.702 282.135 225.08 281.376Q224.457 280.617 223.872 279.828Q223.287 279.039 222.741 278.223Q222.196 277.406 221.691 276.564Q221.186 275.722 220.723 274.856Q220.26 273.99 219.84 273.102Q219.421 272.215 219.045 271.307Q218.669 270.4 218.338 269.476Q218.007 268.551 217.722 267.611Q217.437 266.672 217.199 265.719Q216.96 264.767 216.769 263.804Q216.577 262.841 216.433 261.869Q216.289 260.898 216.193 259.921Q216.096 258.943 216.048 257.963Q216 256.982 216 256Q216 255.018 216.048 254.037Q216.096 253.057 216.193 252.079Q216.289 251.102 216.433 250.131Q216.577 249.159 216.769 248.196Q216.96 247.233 217.199 246.281Q217.437 245.328 217.722 244.389Q218.007 243.449 218.338 242.524Q218.669 241.6 219.045 240.693Q219.421 239.785 219.84 238.898Q220.26 238.01 220.723 237.144Q221.186 236.278 221.691 235.436Q222.196 234.594 222.741 233.777Q223.287 232.961 223.872 232.172Q224.457 231.383 225.08 230.624Q225.702 229.865 226.362 229.138Q227.021 228.41 227.716 227.716Q228.41 227.021 229.138 226.362Q229.865 225.702 230.624 225.08Q231.383 224.457 232.172 223.872Q232.961 223.287 233.777 222.741Q234.594 222.196 235.436 221.691Q236.278 221.186 237.144 220.723Q238.01 220.26 238.898 219.84Q239.785 219.421 240.693 219.045Q241.6 218.669 242.524 218.338Q243.449 218.007 244.389 217.722Q245.328 217.437 246.281 217.199Q247.233 216.96 248.196 216.769Q249.159 216.577 250.131 216.433Q251.102 216.289 252.079 216.193Q253.057 216.096 254.037 216.048Q255.018 216 256 216Q256.982 216 257.963 216.048Q258.943 216.096 259.921 216.193Q260.898 216.289 261.869 216.433Q262.841 216.577 263.804 216.769Q264.767 216.96 265.719 217.199Q266.672 217.437 267.611 217.722Q268.551 218.007 269.476 218.338Q270.4 218.669 271.307 219.045Q272.215 219.421 273.102 219.84Q273.99 220.26 274.856 220.723Q275.722 221.186 276.564 221.691Q277.406 222.196 278.223 222.741Q279.039 223.287 279.828 223.872Q280.617 224.457 281.376 225.08Q282.135 225.702 282.862 226.362Q283.59 227.021 284.284 227.716Q284.979 228.41 285.638 229.138Q286.297 229.865 286.92 230.624Q287.543 231.383 288.128 232.172Q288.713 232.961 289.259 233.777Q289.804 234.594 290.309 235.436Q290.814 236.278 291.277 237.144Q291.74 238.01 292.16 238.898Q292.579 239.785 292.955 240.693Q293.331 241.6 293.662 242.524Q293.993 243.449 294.278 244.389Q294.563 245.328 294.801 246.281Q295.04 247.233 295.231 248.196Q295.423 249.159 295.567 250.131Q295.711 251.102 295.807 252.079Q295.904 253.057 295.952 254.037Q296 255.018 296 256"/>
	<path fill="none" stroke="black" stroke-width="2.3999999" stroke-linejoin="round" transform="translate(55 79.2857)" d="M-16.0206 4.74934L-16.0206 7.43L-25.2784 7.43L-25.2784 -6.4323L-22.1583 -6.4323L-22.1583 4.74934L-16.0206 4.74934ZM-4.37975 2.15168Q-4.37975 3.39191 -4.74107 4.42219Q-5.1024 5.44758 -5.78111 6.18Q-6.45982 6.91242 -7.41197 7.31281Q-8.35924 7.70832 -9.54088 7.70832Q-10.6981 7.70832 -11.6503 7.31281Q-12.6024 6.91242 -13.2811 6.18Q-13.9598 5.44758 -14.3407 4.42219Q-14.7215 3.39191 -14.7215 2.15168Q-14.7215 0.911445 -14.3309 -0.109063Q-13.9403 -1.12957 -13.2518 -1.84734Q-12.5585 -2.57 -11.6112 -2.97039Q-10.659 -3.37078 -9.54088 -3.37078Q-8.3983 -3.37078 -7.45103 -2.97039Q-6.49889 -2.57 -5.82018 -1.84734Q-5.14146 -1.12957 -4.7606 -0.109063Q-4.37975 0.911445 -4.37975 2.15168ZM-7.42174 2.15168Q-7.42174 0.769844 -7.9735 -0.021172Q-8.52037 -0.812188 -9.54088 -0.812188Q-10.5614 -0.812188 -11.1229 -0.021172Q-11.6796 0.769844 -11.6796 2.15168Q-11.6796 3.52863 -11.1229 4.33918Q-10.5614 5.14973 -9.54088 5.14973Q-8.52037 5.14973 -7.9735 4.33918Q-7.42174 3.52863 -7.42174 2.15168ZM-2.18117 -5.70965L0.802231 -6.18816L0.802231 -3.08758L4.38133 -3.08758L4.38133 -0.611992L0.802231 -0.611992L0.802231 3.08918Q0.802231 4.03156 1.12938 4.59309Q1.46141 5.14973 2.46239 5.14973Q2.9409 5.14973 3.44872 5.06184Q3.96141 4.96906 4.38133 4.80793L4.80125 7.13215Q4.25926 7.35187 3.60008 7.50812Q2.9409 7.66926 1.97899 7.66926Q0.758286 7.66926 -0.0424957 7.34211Q-0.838394 7.01008 -1.32179 6.41926Q-1.80031 5.82844 -1.99074 4.98859Q-2.18117 4.14875 -2.18117 3.12824L-2.18117 -5.70965ZM15.7809 7.06867Q15.0191 7.2884 13.818 7.47883Q12.6217 7.66926 11.2984 7.66926Q9.96054 7.66926 9.06699 7.31281Q8.17831 6.95148 7.65585 6.30207Q7.13828 5.64777 6.91855 4.74934Q6.69882 3.8509 6.69882 2.7718L6.69882 -3.08758L9.68222 -3.08758L9.68222 2.41047Q9.68222 3.8509 10.0582 4.49055Q10.4391 5.1302 11.4791 5.1302Q11.8014 5.1302 12.1578 5.1009Q12.5191 5.0716 12.8023 5.02766L12.8023 -3.08758L15.7809 -3.08758L15.7809 7.06867ZM21.5989 5.29133Q22.4192 5.29133 22.7561 5.1302Q23.0979 4.96906 23.0979 4.51008Q23.0979 4.14875 22.6585 3.8802Q22.219 3.61164 21.3206 3.26984Q20.6224 3.01105 20.0511 2.73273Q19.4798 2.44953 19.0794 2.05891Q18.679 1.66828 18.4593 1.13117Q18.2395 0.58918 18.2395 -0.167656Q18.2395 -1.65203 19.3382 -2.51141Q20.4417 -3.37078 22.3606 -3.37078Q23.3177 -3.37078 24.1966 -3.19988Q25.0804 -3.02898 25.5979 -2.82879L25.0804 -0.509453Q24.5579 -0.690117 23.9476 -0.826836Q23.3421 -0.968438 22.5804 -0.968438Q21.179 -0.968438 21.179 -0.19207Q21.179 -0.0114064 21.2376 0.130195Q21.3011 0.271797 21.4817 0.403633Q21.6624 0.530586 21.97 0.681953Q22.2776 0.828437 22.761 1.0091Q23.7376 1.37043 24.3772 1.72199Q25.0218 2.06867 25.388 2.47883Q25.7591 2.88898 25.9104 3.39191Q26.0618 3.88996 26.0618 4.54914Q26.0618 6.11164 24.8899 6.91242Q23.7181 7.70832 21.5794 7.70832Q20.178 7.70832 19.2454 7.46906Q18.3177 7.2298 17.9612 7.06867L18.4593 4.65168Q19.221 4.94953 20.0169 5.12043Q20.8177 5.29133 21.5989 5.29133Z"/>
	<path fill="white" transform="translate(55 79.2857)" d="M-16.0206 4.74934L-16.0206 7.43L-25.2784 7.43L-25.2784 -6.4323L-22.1583 -6.4323L-22.1583 4.74934L-16.0206 4.74934ZM-4.37975 2.15168Q-4.37975 3.39191 -4.74107 4.42219Q-5.1024 5.44758 -5.78111 6.18Q-6.45982 6.91242 -7.41197 7.31281Q-8.35924 7.70832 -9.54088 7.70832Q-10.6981 7.70832 -11.6503 7.31281Q-12.6024 6.91242 -13.2811 6.18Q-13.9598 5.44758 -14.3407 4.42219Q-14.7215 3.39191 -14.7215 2.15168Q-14.7215 0.911445 -14.3309 -0.109063Q-13.9403 -1.12957 -13.2518 -1.84734Q-12.5585 -2.57 -11.6112 -2.97039Q-10.659 -3.37078 -9.54088 -3.37078Q-8.3983 -3.37078 -7.45103 -2.97039Q-6.49889 -2.57 -5.82018 -1.84734Q-5.14146 -1.12957 -4.7606 -0.109063Q-4.37975 0.911445 -4.37975 2.15168ZM-7.42174 2.15168Q-7.42174 0.769844 -7.9735 -0.021172Q-8.52037 -0.812188 -9.54088 -0.812188Q-10.5614 -0.812188 -11.1229 -0.021172Q-11.6796 0.769844 -11.6796 2.15168Q-11.6796 3.52863 -11.1229 4.33918Q-10.5614 5.14973 -9.54088 5.14973Q-8.52037 5.14973 -7.9735 4.33918Q-7.42174 3.52863 -7.42174 2.15168ZM-2.18117 -5.70965L0.802231 -6.18816L0.802231 -3.08758L4.38133 -3.08758L4.38133 -0.611992L0.802231 -0.611992L0.802231 3.08918Q0.802231 4.03156 1.12938 4.59309Q1.46141 5.14973 2.46239 5.14973Q2.9409 5.14973 3.44872 5.06184Q3.96141 4.96906 4.38133 4.80793L4.80125 7.13215Q4.25926 7.35187 3.60008 7.50812Q2.9409 7.66926 1.97899 7.66926Q0.758286 7.66926 -0.0424957 7.34211Q-0.838394 7.01008 -1.32179 6.41926Q-1.80031 5.82844 -1.99074 4.98859Q-2.18117 4.14875 -2.18117 3.12824L-2.18117 -5.70965ZM15.7809 7.06867Q15.0191 7.2884 13.818 7.47883Q12.6217 7.66926 11.2984 7.66926Q9.96054 7.66926 9.06699 7.31281Q8.17831 6.95148 7.65585 6.30207Q7.13828 5.64777 6.91855 4.74934Q6.69882 3.8509 6.69882 2.7718L6.69882 -3.08758L9.68222 -3.08758L9.68222 2.41047Q9.68222 3.8509 10.0582 4.49055Q10.4391 5.1302 11.4791 5.1302Q11.8014 5.1302 12.1578 5.1009Q12.5191 5.0716 12.8023 5.02766L12.8023 -3.08758L15.7809 -3.08758L15.7809 7.06867ZM21.5989 5.29133Q22.4192 5.29133 22.7561 5.1302Q23.0979 4.96906 23.0979 4.51008Q23.0979 4.14875 22.6585 3.8802Q22.219 3.61164 21.3206 3.26984Q20.6224 3.01105 20.0511 2.73273Q19.4798 2.44953 19.0794 2.05891Q18.679 1.66828 18.4593 1.13117Q18.2395 0.58918 18.2395 -0.167656Q18.2395 -1.65203 19.3382 -2.51141Q20.4417 -3.37078 22.3606 -3.37078Q23.3177 -3.37078 24.1966 -3.19988Q25.0804 -3.02898 25.5979 -2.82879L25.0804 -0.509453Q24.5579 -0.690117 23.9476 -0.826836Q23.3421 -0.968438 22.5804 -0.968438Q21.179 -0.968438 21.179 -0.19207Q21.179 -0.0114064 21.2376 0.130195Q21.3011 0.271797 21.4817 0.403633Q21.6624 0.530586 21.97 0.681953Q22.2776 0.828437 22.761 1.0091Q23.7376 1.37043 24.3772 1.72199Q25.0218 2.06867 25.388 2.47883Q25.7591 2.88898 25.9104 3.39191Q26.0618 3.88996 26.0618 4.54914Q26.0618 6.11164 24.8899 6.91242Q23.7181 7.70832 21.5794 7.70832Q20.178 7.70832 19.2454 7.46906Q18.3177 7.2298 17.9612 7.06867L18.4593 4.65168Q19.221 4.94953 20.0169 5.12043Q20.8177 5.29133 21.5989 5.29133Z"/>
</svg>
