<?xml version="1.0" encoding="utf-8" ?>
<svg xmlns="http://www.w3.org/2000/svg" xmlns:xlink="http://www.w3.org/1999/xlink" width="110" height="110">
	<path fill="#ED2D2D" transform="matrix(1.25369 -0.684894 0.684894 1.25369 20.1055 37.6188)" d="M22.494 5.344C21.807 5.344 21.142 5.41 20.503 5.521C19.684 5.417 17.763 5.29 16.912 5.29C8.439 5.29 1.026 8.467 1.026 19.588C1.026 28.624 8.075 35.949 18.002 35.949C27.929 35.949 35.976 28.624 35.976 19.588C35.975 8.339 26.59 5.344 22.494 5.344Z"/>
	<path fill="#C02424" transform="matrix(1.25369 -0.684894 0.684894 1.25369 20.1055 37.6188)" d="M22.494 6.844Q21.6513 6.844 20.7597 6.99887Q20.5376 7.03744 20.314 7.00905Q18.589 6.79 16.912 6.79Q2.526 6.79 2.526 19.588Q2.526 25.8313 6.84447 30.0888Q11.267 34.449 18.002 34.449Q24.8668 34.449 29.7019 30.0477Q34.476 25.702 34.476 19.588Q34.4754 12.9191 29.8677 9.44539Q26.417 6.844 22.494 6.844L22.494 6.844ZM22.494 3.844Q27.4211 3.844 31.6736 7.04986Q37.4753 11.4236 37.476 19.588Q37.476 27.028 31.7213 32.2663Q26.0277 37.449 18.002 37.449Q10.0369 37.449 4.73828 32.2252Q-0.473999 27.0864 -0.473999 19.588Q-0.473999 3.79 16.912 3.79Q18.7787 3.79 20.692 4.03295L20.503 5.521L20.2463 4.04313Q21.3926 3.844 22.494 3.844L22.494 3.844Z"/>
	<path fill="#39B54A" transform="matrix(1.25369 -0.684894 0.684894 1.25369 20.1055 37.6188)" d="M8.439 0.091C10.076 1.727 11.209 2.357 11.713 5.001C12.011 6.565 13.979 6.511 13.979 6.511C13.979 6.511 10.076 8.274 8.439 9.911C8.439 9.911 13.349 8.274 14.986 8.274C14.986 8.274 18.259 9.911 18.259 11.547C18.259 11.547 18.259 8.274 16.623 8.274C16.623 8.274 21.532 8.274 21.532 11.547C21.532 11.547 21.532 6.637 19.895 6.637C19.895 6.637 24.806 5.001 26.443 6.637C26.443 6.637 24.757 4.917 21.532 5.001C21.532 5.001 23.17 3.364 26.443 3.364C26.443 3.364 21.155 1.853 19.518 5.127C19.518 5.127 18.133 3.742 20.903 0.971999C20.903 0.971999 16.623 1.727 16.623 5.001C16.623 5.001 15.071 4.961 13.979 3.742C11.838 1.35 8.439 0.091 8.439 0.091Z"/>
	<path fill="#2E933C" transform="matrix(1.25369 -0.684894 0.684894 1.25369 20.1055 37.6188)" d="M9.14589 -0.616323Q9.41236 -0.350018 9.91123 0.121283Q12.2159 2.29856 12.6953 4.81375Q12.8341 5.54204 13.9516 5.51138Q14.05 5.50867 14.1471 5.52523Q14.2442 5.54179 14.3362 5.57697Q14.4282 5.61215 14.5116 5.6646Q14.5949 5.71706 14.6664 5.78476Q14.738 5.85247 14.7949 5.93283Q14.8519 6.01319 14.892 6.10312Q14.9322 6.19305 14.9541 6.28908Q14.9759 6.38512 14.9786 6.48357Q14.9806 6.55705 14.9719 6.63003Q14.9631 6.70301 14.9438 6.77393Q14.9245 6.84485 14.895 6.91218Q14.8655 6.97951 14.8265 7.0418Q14.7875 7.1041 14.7398 7.16002Q14.6921 7.21594 14.6367 7.26428Q14.5813 7.31262 14.5195 7.35235Q14.4576 7.39208 14.3907 7.42234Q10.654 9.11019 9.14611 10.6181L8.439 9.911L8.12271 8.96234Q13.1867 7.274 14.986 7.274Q15.2221 7.274 15.4333 7.37963Q19.259 9.29305 19.259 11.547L18.259 11.547L17.259 11.547Q17.259 10.8518 17.0843 10.153Q16.8647 9.274 16.623 9.274L16.623 8.274L16.623 7.274Q18.0125 7.274 19.3938 7.73445Q22.532 8.78064 22.532 11.547L21.532 11.547L20.532 11.547Q20.532 7.637 19.895 7.637Q19.7965 7.637 19.6999 7.61778Q19.6033 7.59857 19.5123 7.56088Q19.4213 7.52319 19.3394 7.46847Q19.2575 7.41375 19.1879 7.34411Q19.1182 7.27446 19.0635 7.19257Q19.0088 7.11068 18.9711 7.01968Q18.9334 6.92869 18.9142 6.83209Q18.895 6.73549 18.895 6.637Q18.895 6.55876 18.9072 6.48148Q18.9193 6.4042 18.9434 6.32974Q18.9674 6.25529 19.0027 6.18549Q19.0381 6.11568 19.0838 6.05221Q19.1296 5.98875 19.1846 5.93317Q19.2397 5.8776 19.3027 5.83126Q19.3658 5.78492 19.4352 5.74895Q19.5047 5.71299 19.5789 5.68826Q25.076 3.85703 27.1499 5.92968L26.443 6.637L25.7289 7.33701Q24.3477 5.928 21.558 6.00066Q21.4596 6.00322 21.3625 5.98653Q21.2654 5.96984 21.1735 5.93453Q21.0816 5.89922 20.9983 5.84665Q20.915 5.79408 20.8435 5.72628Q20.7721 5.65847 20.7153 5.57803Q20.6584 5.49759 20.6184 5.40761Q20.5784 5.31763 20.5566 5.22156Q20.5349 5.12549 20.5323 5.02704Q20.527 4.82134 20.6033 4.63024Q20.6796 4.43913 20.8251 4.29368Q22.756 2.364 26.443 2.364L26.443 3.364L26.1683 4.32552Q21.6783 3.04254 20.4124 5.57421Q20.3684 5.66231 20.308 5.74011Q20.2476 5.81792 20.1732 5.88245Q20.0988 5.94698 20.0132 5.99576Q19.9277 6.04454 19.8342 6.07568Q19.7408 6.10683 19.6431 6.11915Q19.5454 6.13146 19.4471 6.12448Q19.3489 6.1175 19.2539 6.09149Q19.1589 6.06547 19.0708 6.02143Q18.9256 5.94885 18.8109 5.83411Q18.1718 5.19496 18.1718 4.08825Q18.1718 2.28903 20.1959 0.264891L20.903 0.971999L21.0767 1.95679Q17.623 2.56604 17.623 5.001Q17.623 5.09949 17.6038 5.19609Q17.5846 5.29269 17.5469 5.38368Q17.5092 5.47468 17.4545 5.55657Q17.3997 5.63846 17.3301 5.70811Q17.2605 5.77775 17.1786 5.83247Q17.0967 5.88719 17.0057 5.92488Q16.9147 5.96257 16.8181 5.98178Q16.7215 6.001 16.623 6.001Q16.6101 6.001 16.5972 6.00067Q14.614 5.94955 13.2342 4.40924Q11.2591 2.20258 8.0915 1.02868L8.09166 1.02874L8.439 0.091L9.14589 -0.616323ZM7.73211 0.798323Q7.63059 0.696864 7.5617 0.570947Q7.49282 0.44503 7.46213 0.304821Q7.43144 0.164612 7.44142 0.0214314Q7.45141 -0.121749 7.50126 -0.256341Q7.53547 -0.3487 7.58704 -0.432611Q7.63861 -0.516521 7.70556 -0.588759Q7.77251 -0.660996 7.85227 -0.718783Q7.93203 -0.776571 8.02153 -0.817689Q8.11102 -0.858806 8.20682 -0.881674Q8.30262 -0.904541 8.40104 -0.908279Q8.49946 -0.912018 8.59672 -0.896483Q8.69398 -0.880949 8.78634 -0.846739L8.78651 -0.846677Q12.4188 0.499448 14.7238 3.07476Q15.528 3.97244 16.6488 4.00133L16.623 5.001L15.623 5.001Q15.623 0.887961 20.7293 -0.0127965Q20.848 -0.0337436 20.9683 -0.0258639Q21.0887 -0.0179841 21.2037 0.0182708Q21.3187 0.0545257 21.4218 0.117077Q21.5248 0.179629 21.6101 0.264892Q21.6798 0.334536 21.7345 0.416428Q21.7892 0.498321 21.8269 0.589315Q21.8646 0.680309 21.8838 0.776908Q21.903 0.873507 21.903 0.971998Q21.903 1.07049 21.8838 1.16709Q21.8646 1.26369 21.8269 1.35468Q21.7892 1.44568 21.7345 1.52757Q21.6798 1.60946 21.6101 1.6791Q20.1718 3.11746 20.1718 4.08825Q20.1718 4.36653 20.2251 4.41989L19.518 5.127L18.6236 4.67978Q20.6317 0.663459 26.7177 2.40248Q26.7956 2.42472 26.8688 2.4592Q26.9421 2.49367 27.0088 2.53948Q27.0756 2.58529 27.1341 2.64123Q27.1926 2.69718 27.2414 2.76181Q27.2901 2.82644 27.3278 2.89808Q27.3655 2.96971 27.3912 3.04647Q27.417 3.12324 27.43 3.20314Q27.443 3.28304 27.443 3.364Q27.443 3.46249 27.4238 3.55909Q27.4046 3.65569 27.3669 3.74668Q27.3292 3.83768 27.2745 3.91957Q27.2198 4.00146 27.1501 4.07111Q27.0805 4.14075 26.9986 4.19547Q26.9167 4.25019 26.8257 4.28788Q26.7347 4.32557 26.6381 4.34478Q26.5415 4.364 26.443 4.364Q23.584 4.364 22.2389 5.70832L21.532 5.001L21.506 4.00134Q25.1663 3.906 27.1571 5.93699Q27.2256 6.00686 27.2793 6.08868Q27.3329 6.1705 27.3697 6.26117Q27.4065 6.35184 27.425 6.44792Q27.4435 6.544 27.443 6.64184Q27.4425 6.73968 27.4231 6.83557Q27.4037 6.93147 27.366 7.02178Q27.3284 7.11209 27.2739 7.19338Q27.2195 7.27468 27.1503 7.34389Q27.0807 7.41355 26.9988 7.4683Q26.917 7.52304 26.826 7.56076Q26.735 7.59848 26.6384 7.61772Q26.5418 7.63697 26.4433 7.637Q26.3448 7.63703 26.2482 7.61784Q26.1516 7.59866 26.0606 7.561Q25.9696 7.52333 25.8877 7.46864Q25.8058 7.41395 25.7361 7.34432Q24.536 6.14497 20.2111 7.58574L19.895 6.637L19.895 5.637Q22.532 5.637 22.532 11.547Q22.532 11.6455 22.5128 11.7421Q22.4936 11.8387 22.4559 11.9297Q22.4182 12.0207 22.3635 12.1026Q22.3088 12.1845 22.2391 12.2541Q22.1695 12.3237 22.0876 12.3785Q22.0057 12.4332 21.9147 12.4709Q21.8237 12.5086 21.7271 12.5278Q21.6305 12.547 21.532 12.547Q21.4335 12.547 21.3369 12.5278Q21.2403 12.5086 21.1493 12.4709Q21.0583 12.4332 20.9764 12.3785Q20.8945 12.3237 20.8249 12.2541Q20.7553 12.1845 20.7005 12.1026Q20.6458 12.0207 20.6081 11.9297Q20.5704 11.8387 20.5512 11.7421Q20.532 11.6455 20.532 11.547Q20.532 10.2221 18.7612 9.6318Q17.688 9.274 16.623 9.274Q16.5245 9.274 16.4279 9.25478Q16.3313 9.23557 16.2403 9.19788Q16.1493 9.16019 16.0674 9.10547Q15.9855 9.05075 15.9159 8.98111Q15.8462 8.91146 15.7915 8.82957Q15.7368 8.74768 15.6991 8.65668Q15.6614 8.56569 15.6422 8.46909Q15.623 8.37249 15.623 8.274Q15.623 8.17551 15.6422 8.07891Q15.6614 7.98231 15.6991 7.89131Q15.7368 7.80032 15.7915 7.71843Q15.8462 7.63654 15.9159 7.56689Q15.9855 7.49725 16.0674 7.44253Q16.1493 7.38781 16.2403 7.35012Q16.3313 7.31243 16.4279 7.29321Q16.5245 7.274 16.623 7.274Q19.259 7.274 19.259 11.547Q19.259 11.6455 19.2398 11.7421Q19.2206 11.8387 19.1829 11.9297Q19.1452 12.0207 19.0905 12.1026Q19.0357 12.1845 18.9661 12.2541Q18.8965 12.3237 18.8146 12.3785Q18.7327 12.4332 18.6417 12.4709Q18.5507 12.5086 18.4541 12.5278Q18.3575 12.547 18.259 12.547Q18.1605 12.547 18.0639 12.5278Q17.9673 12.5086 17.8763 12.4709Q17.7853 12.4332 17.7034 12.3785Q17.6215 12.3237 17.5519 12.2541Q17.4823 12.1845 17.4275 12.1026Q17.3728 12.0207 17.3351 11.9297Q17.2974 11.8387 17.2782 11.7421Q17.259 11.6455 17.259 11.547Q17.259 10.5289 14.5387 9.16837L14.986 8.274L14.986 9.274Q13.5113 9.274 8.75529 10.8597Q8.62315 10.9037 8.484 10.91Q8.34484 10.9163 8.20928 10.8843Q8.07371 10.8523 7.95205 10.7844Q7.83039 10.7166 7.73189 10.6181Q7.66225 10.5485 7.60753 10.4666Q7.55281 10.3847 7.51512 10.2937Q7.47743 10.2027 7.45821 10.1061Q7.439 10.0095 7.439 9.911Q7.439 9.81251 7.45821 9.71591Q7.47743 9.61931 7.51512 9.52831Q7.55281 9.43732 7.60753 9.35543Q7.66225 9.27354 7.73189 9.20389Q9.49798 7.43781 13.5673 5.59966L13.979 6.511L14.0064 7.51062Q11.1879 7.58796 10.7307 5.18825Q10.3723 3.30829 8.53775 1.5751Q8.01847 1.0845 7.73211 0.798323L7.73211 0.798323Z"/>
	<path fill="none" stroke="black" stroke-width="2.3999999" stroke-linejoin="round" transform="translate(55 79.2857)" d="M-24.9901 -6.4323L-24.9901 -3.77117L-29.1698 -3.77117L-29.1698 7.43L-32.2899 7.43L-32.2899 -3.77117L-36.4696 -3.77117L-36.4696 -6.4323L-24.9901 -6.4323ZM-13.3497 2.15168Q-13.3497 3.39191 -13.7111 4.42219Q-14.0724 5.44758 -14.7511 6.18Q-15.4298 6.91242 -16.382 7.31281Q-17.3292 7.70832 -18.5109 7.70832Q-19.6681 7.70832 -20.6202 7.31281Q-21.5724 6.91242 -22.2511 6.18Q-22.9298 5.44758 -23.3107 4.42219Q-23.6915 3.39191 -23.6915 2.15168Q-23.6915 0.911445 -23.3009 -0.109063Q-22.9103 -1.12957 -22.2218 -1.84734Q-21.5285 -2.57 -20.5812 -2.97039Q-19.629 -3.37078 -18.5109 -3.37078Q-17.3683 -3.37078 -16.421 -2.97039Q-15.4689 -2.57 -14.7902 -1.84734Q-14.1115 -1.12957 -13.7306 -0.109063Q-13.3497 0.911445 -13.3497 2.15168ZM-16.3917 2.15168Q-16.3917 0.769844 -16.9435 -0.021172Q-17.4904 -0.812188 -18.5109 -0.812188Q-19.5314 -0.812188 -20.0929 -0.021172Q-20.6495 0.769844 -20.6495 2.15168Q-20.6495 3.52863 -20.0929 4.33918Q-19.5314 5.14973 -18.5109 5.14973Q-17.4904 5.14973 -16.9435 4.33918Q-16.3917 3.52863 -16.3917 2.15168ZM-5.27225 1.84895Q-5.27225 0.408515 -5.64335 -0.187188Q-6.00956 -0.787774 -6.908 -0.787774Q-7.1912 -0.787774 -7.49393 -0.758477Q-7.79179 -0.72918 -8.07011 -0.690117L-8.07011 7.43L-11.0486 7.43L-11.0486 -2.73113Q-10.6678 -2.82879 -10.16 -2.93621Q-9.65214 -3.04852 -9.08085 -3.13641Q-8.50956 -3.22918 -7.90897 -3.27801Q-7.30839 -3.33172 -6.73222 -3.33172Q-5.58964 -3.33172 -4.88163 -3.03875Q-4.16874 -2.75066 -3.70975 -2.35027Q-3.07011 -2.80926 -2.24003 -3.06805Q-1.40995 -3.33172 -0.711708 -3.33172Q0.548058 -3.33172 1.3586 -2.98016Q2.16915 -2.62859 2.64767 -1.98895Q3.13107 -1.3493 3.31173 -0.470391Q3.49239 0.408515 3.49239 1.48762L3.49239 7.43L0.508995 7.43L0.508995 1.84895Q0.508995 0.408515 0.137901 -0.187188Q-0.22831 -0.787774 -1.13163 -0.787774Q-1.37089 -0.787774 -1.80058 -0.665703Q-2.23026 -0.548516 -2.50858 -0.367852Q-2.37186 0.0911326 -2.3328 0.603828Q-2.28886 1.11164 -2.28886 1.68781L-2.28886 7.43L-5.27225 7.43L-5.27225 1.84895ZM10.2099 5.34992Q10.6494 5.34992 11.0498 5.33039Q11.4502 5.31086 11.6894 5.2718L11.6894 3.01105Q11.5088 2.97199 11.1474 2.93293Q10.791 2.88898 10.4882 2.88898Q10.0683 2.88898 9.69723 2.9427Q9.33102 2.99152 9.04781 3.13312Q8.76949 3.26984 8.60836 3.5091Q8.45211 3.74836 8.45211 4.10969Q8.45211 4.80793 8.92086 5.08137Q9.38961 5.34992 10.2099 5.34992ZM9.97066 -3.37078Q11.289 -3.37078 12.1679 -3.06805Q13.0517 -2.7702 13.5791 -2.20867Q14.1113 -1.65203 14.331 -0.85125Q14.5507 -0.0504689 14.5507 0.930976L14.5507 7.13215Q13.9111 7.26887 12.7685 7.4593Q11.6308 7.64973 10.0097 7.64973Q8.98922 7.64973 8.15914 7.46906Q7.32906 7.2884 6.72848 6.87824Q6.12789 6.46809 5.80563 5.80891Q5.48824 5.14973 5.48824 4.18781Q5.48824 3.26984 5.85934 2.6302Q6.23043 1.99055 6.85055 1.60969Q7.47066 1.22883 8.27145 1.06281Q9.07223 0.891914 9.9316 0.891914Q10.5078 0.891914 10.957 0.940742Q11.4111 0.98957 11.6894 1.0677L11.6894 0.789375Q11.6894 0.0276561 11.2304 -0.431328Q10.7714 -0.890313 9.62887 -0.890313Q8.87203 -0.890313 8.12984 -0.778008Q7.38766 -0.670586 6.85055 -0.470391L6.46969 -2.86785Q6.72848 -2.95086 7.1191 -3.03875Q7.50973 -3.13152 7.96871 -3.19988Q8.4277 -3.26824 8.93551 -3.31707Q9.4482 -3.37078 9.97066 -3.37078ZM17.1488 -5.70965L20.1322 -6.18816L20.1322 -3.08758L23.7113 -3.08758L23.7113 -0.611992L20.1322 -0.611992L20.1322 3.08918Q20.1322 4.03156 20.4594 4.59309Q20.7914 5.14973 21.7924 5.14973Q22.2709 5.14973 22.7787 5.06184Q23.2914 4.96906 23.7113 4.80793L24.1312 7.13215Q23.5892 7.35187 22.9301 7.50812Q22.2709 7.66926 21.309 7.66926Q20.0883 7.66926 19.2875 7.34211Q18.4916 7.01008 18.0082 6.41926Q17.5297 5.82844 17.3392 4.98859Q17.1488 4.14875 17.1488 3.12824L17.1488 -5.70965ZM35.9702 2.15168Q35.9702 3.39191 35.6089 4.42219Q35.2476 5.44758 34.5688 6.18Q33.8901 6.91242 32.938 7.31281Q31.9907 7.70832 30.8091 7.70832Q29.6518 7.70832 28.6997 7.31281Q27.7476 6.91242 27.0688 6.18Q26.3901 5.44758 26.0093 4.42219Q25.6284 3.39191 25.6284 2.15168Q25.6284 0.911445 26.019 -0.109063Q26.4097 -1.12957 27.0981 -1.84734Q27.7915 -2.57 28.7388 -2.97039Q29.6909 -3.37078 30.8091 -3.37078Q31.9517 -3.37078 32.8989 -2.97039Q33.8511 -2.57 34.5298 -1.84734Q35.2085 -1.12957 35.5893 -0.109063Q35.9702 0.911445 35.9702 2.15168ZM32.9282 2.15168Q32.9282 0.769844 32.3765 -0.021172Q31.8296 -0.812188 30.8091 -0.812188Q29.7886 -0.812188 29.227 -0.021172Q28.6704 0.769844 28.6704 2.15168Q28.6704 3.52863 29.227 4.33918Q29.7886 5.14973 30.8091 5.14973Q31.8296 5.14973 32.3765 4.33918Q32.9282 3.52863 32.9282 2.15168Z"/>
	<path fill="white" transform="translate(55 79.2857)" d="M-24.9901 -6.4323L-24.9901 -3.77117L-29.1698 -3.77117L-29.1698 7.43L-32.2899 7.43L-32.2899 -3.77117L-36.4696 -3.77117L-36.4696 -6.4323L-24.9901 -6.4323ZM-13.3497 2.15168Q-13.3497 3.39191 -13.7111 4.42219Q-14.0724 5.44758 -14.7511 6.18Q-15.4298 6.91242 -16.382 7.31281Q-17.3292 7.70832 -18.5109 7.70832Q-19.6681 7.70832 -20.6202 7.31281Q-21.5724 6.91242 -22.2511 6.18Q-22.9298 5.44758 -23.3107 4.42219Q-23.6915 3.39191 -23.6915 2.15168Q-23.6915 0.911445 -23.3009 -0.109063Q-22.9103 -1.12957 -22.2218 -1.84734Q-21.5285 -2.57 -20.5812 -2.97039Q-19.629 -3.37078 -18.5109 -3.37078Q-17.3683 -3.37078 -16.421 -2.97039Q-15.4689 -2.57 -14.7902 -1.84734Q-14.1115 -1.12957 -13.7306 -0.109063Q-13.3497 0.911445 -13.3497 2.15168ZM-16.3917 2.15168Q-16.3917 0.769844 -16.9435 -0.021172Q-17.4904 -0.812188 -18.5109 -0.812188Q-19.5314 -0.812188 -20.0929 -0.021172Q-20.6495 0.769844 -20.6495 2.15168Q-20.6495 3.52863 -20.0929 4.33918Q-19.5314 5.14973 -18.5109 5.14973Q-17.4904 5.14973 -16.9435 4.33918Q-16.3917 3.52863 -16.3917 2.15168ZM-5.27225 1.84895Q-5.27225 0.408515 -5.64335 -0.187188Q-6.00956 -0.787774 -6.908 -0.787774Q-7.1912 -0.787774 -7.49393 -0.758477Q-7.79179 -0.72918 -8.07011 -0.690117L-8.07011 7.43L-11.0486 7.43L-11.0486 -2.73113Q-10.6678 -2.82879 -10.16 -2.93621Q-9.65214 -3.04852 -9.08085 -3.13641Q-8.50956 -3.22918 -7.90897 -3.27801Q-7.30839 -3.33172 -6.73222 -3.33172Q-5.58964 -3.33172 -4.88163 -3.03875Q-4.16874 -2.75066 -3.70975 -2.35027Q-3.07011 -2.80926 -2.24003 -3.06805Q-1.40995 -3.33172 -0.711708 -3.33172Q0.548058 -3.33172 1.3586 -2.98016Q2.16915 -2.62859 2.64767 -1.98895Q3.13107 -1.3493 3.31173 -0.470391Q3.49239 0.408515 3.49239 1.48762L3.49239 7.43L0.508995 7.43L0.508995 1.84895Q0.508995 0.408515 0.137901 -0.187188Q-0.22831 -0.787774 -1.13163 -0.787774Q-1.37089 -0.787774 -1.80058 -0.665703Q-2.23026 -0.548516 -2.50858 -0.367852Q-2.37186 0.0911326 -2.3328 0.603828Q-2.28886 1.11164 -2.28886 1.68781L-2.28886 7.43L-5.27225 7.43L-5.27225 1.84895ZM10.2099 5.34992Q10.6494 5.34992 11.0498 5.33039Q11.4502 5.31086 11.6894 5.2718L11.6894 3.01105Q11.5088 2.97199 11.1474 2.93293Q10.791 2.88898 10.4882 2.88898Q10.0683 2.88898 9.69723 2.9427Q9.33102 2.99152 9.04781 3.13312Q8.76949 3.26984 8.60836 3.5091Q8.45211 3.74836 8.45211 4.10969Q8.45211 4.80793 8.92086 5.08137Q9.38961 5.34992 10.2099 5.34992ZM9.97066 -3.37078Q11.289 -3.37078 12.1679 -3.06805Q13.0517 -2.7702 13.5791 -2.20867Q14.1113 -1.65203 14.331 -0.85125Q14.5507 -0.0504689 14.5507 0.930976L14.5507 7.13215Q13.9111 7.26887 12.7685 7.4593Q11.6308 7.64973 10.0097 7.64973Q8.98922 7.64973 8.15914 7.46906Q7.32906 7.2884 6.72848 6.87824Q6.12789 6.46809 5.80563 5.80891Q5.48824 5.14973 5.48824 4.18781Q5.48824 3.26984 5.85934 2.6302Q6.23043 1.99055 6.85055 1.60969Q7.47066 1.22883 8.27145 1.06281Q9.07223 0.891914 9.9316 0.891914Q10.5078 0.891914 10.957 0.940742Q11.4111 0.98957 11.6894 1.0677L11.6894 0.789375Q11.6894 0.0276561 11.2304 -0.431328Q10.7714 -0.890313 9.62887 -0.890313Q8.87203 -0.890313 8.12984 -0.778008Q7.38766 -0.670586 6.85055 -0.470391L6.46969 -2.86785Q6.72848 -2.95086 7.1191 -3.03875Q7.50973 -3.13152 7.96871 -3.19988Q8.4277 -3.26824 8.93551 -3.31707Q9.4482 -3.37078 9.97066 -3.37078ZM17.1488 -5.70965L20.1322 -6.18816L20.1322 -3.08758L23.7113 -3.08758L23.7113 -0.611992L20.1322 -0.611992L20.1322 3.08918Q20.1322 4.03156 20.4594 4.59309Q20.7914 5.14973 21.7924 5.14973Q22.2709 5.14973 22.7787 5.06184Q23.2914 4.96906 23.7113 4.80793L24.1312 7.13215Q23.5892 7.35187 22.9301 7.50812Q22.2709 7.66926 21.309 7.66926Q20.0883 7.66926 19.2875 7.34211Q18.4916 7.01008 18.0082 6.41926Q17.5297 5.82844 17.3392 4.98859Q17.1488 4.14875 17.1488 3.12824L17.1488 -5.70965ZM35.9702 2.15168Q35.9702 3.39191 35.6089 4.42219Q35.2476 5.44758 34.5688 6.18Q33.8901 6.91242 32.938 7.31281Q31.9907 7.70832 30.8091 7.70832Q29.6518 7.70832 28.6997 7.31281Q27.7476 6.91242 27.0688 6.18Q26.3901 5.44758 26.0093 4.42219Q25.6284 3.39191 25.6284 2.15168Q25.6284 0.911445 26.019 -0.109063Q26.4097 -1.12957 27.0981 -1.84734Q27.7915 -2.57 28.7388 -2.97039Q29.6909 -3.37078 30.8091 -3.37078Q31.9517 -3.37078 32.8989 -2.97039Q33.8511 -2.57 34.5298 -1.84734Q35.2085 -1.12957 35.5893 -0.109063Q35.9702 0.911445 35.9702 2.15168ZM32.9282 2.15168Q32.9282 0.769844 32.3765 -0.021172Q31.8296 -0.812188 30.8091 -0.812188Q29.7886 -0.812188 29.227 -0.021172Q28.6704 0.769844 28.6704 2.15168Q28.6704 3.52863 29.227 4.33918Q29.7886 5.14973 30.8091 5.14973Q31.8296 5.14973 32.3765 4.33918Q32.9282 3.52863 32.9282 2.15168Z"/>
</svg>
