<?xml version="1.0" encoding="utf-8" ?>
<svg xmlns="http://www.w3.org/2000/svg" xmlns:xlink="http://www.w3.org/1999/xlink" width="110" height="110">
	<path fill="#F0BD48" transform="matrix(0.77186 1.2021 -1.2021 0.77186 69.2857 47.8571)" d="M12 0Q12 0.294583 11.9855 0.588812Q11.9711 0.883041 11.9422 1.17621Q11.9133 1.46937 11.8701 1.76077Q11.8269 2.05216 11.7694 2.34108Q11.712 2.63001 11.6404 2.91576Q11.5688 3.20152 11.4833 3.48342Q11.3978 3.76531 11.2985 4.04268Q11.1993 4.32004 11.0866 4.5922Q10.9738 4.86436 10.8479 5.13066Q10.7219 5.39696 10.5831 5.65676Q10.4442 5.91656 10.2927 6.16923Q10.1413 6.4219 9.97763 6.66684Q9.81397 6.91178 9.63849 7.14839Q9.46301 7.385 9.27612 7.61272Q9.08924 7.84044 8.89141 8.05871Q8.69358 8.27698 8.48528 8.48528Q8.27698 8.69358 8.05871 8.89141Q7.84044 9.08924 7.61272 9.27612Q7.385 9.46301 7.14839 9.63849Q6.91178 9.81397 6.66684 9.97763Q6.4219 10.1413 6.16923 10.2927Q5.91656 10.4442 5.65676 10.5831Q5.39696 10.7219 5.13066 10.8479Q4.86436 10.9738 4.5922 11.0866Q4.32004 11.1993 4.04268 11.2985Q3.76531 11.3978 3.48342 11.4833Q3.20152 11.5688 2.91576 11.6404Q2.63001 11.712 2.34108 11.7694Q2.05216 11.8269 1.76077 11.8701Q1.46937 11.9133 1.17621 11.9422Q0.883041 11.9711 0.588812 11.9855Q0.294583 12 0 12Q-0.294583 12 -0.588812 11.9855Q-0.883041 11.9711 -1.17621 11.9422Q-1.46937 11.9133 -1.76077 11.8701Q-2.05216 11.8269 -2.34108 11.7694Q-2.63001 11.712 -2.91576 11.6404Q-3.20152 11.5688 -3.48342 11.4833Q-3.76531 11.3978 -4.04268 11.2985Q-4.32004 11.1993 -4.5922 11.0866Q-4.86436 10.9738 -5.13066 10.8479Q-5.39696 10.7219 -5.65676 10.5831Q-5.91656 10.4442 -6.16923 10.2927Q-6.4219 10.1413 -6.66684 9.97763Q-6.91178 9.81397 -7.14839 9.63849Q-7.385 9.46301 -7.61272 9.27612Q-7.84044 9.08924 -8.05871 8.89141Q-8.27698 8.69358 -8.48528 8.48528Q-8.69358 8.27698 -8.89141 8.05871Q-9.08924 7.84044 -9.27612 7.61272Q-9.46301 7.385 -9.63849 7.14839Q-9.81397 6.91178 -9.97763 6.66684Q-10.1413 6.4219 -10.2927 6.16923Q-10.4442 5.91656 -10.5831 5.65676Q-10.7219 5.39696 -10.8479 5.13066Q-10.9738 4.86436 -11.0866 4.5922Q-11.1993 4.32004 -11.2985 4.04268Q-11.3978 3.76531 -11.4833 3.48342Q-11.5688 3.20152 -11.6404 2.91576Q-11.712 2.63001 -11.7694 2.34108Q-11.8269 2.05216 -11.8701 1.76077Q-11.9133 1.46937 -11.9422 1.17621Q-11.9711 0.883041 -11.9855 0.588812Q-12 0.294583 -12 0Q-12 -0.294583 -11.9855 -0.588812Q-11.9711 -0.883041 -11.9422 -1.17621Q-11.9133 -1.46937 -11.8701 -1.76077Q-11.8269 -2.05216 -11.7694 -2.34108Q-11.712 -2.63001 -11.6404 -2.91576Q-11.5688 -3.20152 -11.4833 -3.48342Q-11.3978 -3.76531 -11.2985 -4.04268Q-11.1993 -4.32004 -11.0866 -4.5922Q-10.9738 -4.86436 -10.8479 -5.13066Q-10.7219 -5.39696 -10.5831 -5.65676Q-10.4442 -5.91656 -10.2927 -6.16923Q-10.1413 -6.4219 -9.97763 -6.66684Q-9.81397 -6.91178 -9.63849 -7.14839Q-9.46301 -7.385 -9.27612 -7.61272Q-9.08924 -7.84044 -8.89141 -8.05871Q-8.69358 -8.27698 -8.48528 -8.48528Q-8.27698 -8.69358 -8.05871 -8.89141Q-7.84044 -9.08924 -7.61272 -9.27612Q-7.385 -9.46301 -7.14839 -9.63849Q-6.91178 -9.81397 -6.66684 -9.97763Q-6.4219 -10.1413 -6.16923 -10.2927Q-5.91656 -10.4442 -5.65676 -10.5831Q-5.39696 -10.7219 -5.13066 -10.8479Q-4.86436 -10.9738 -4.5922 -11.0866Q-4.32004 -11.1993 -4.04268 -11.2985Q-3.76531 -11.3978 -3.48342 -11.4833Q-3.20152 -11.5688 -2.91576 -11.6404Q-2.63001 -11.712 -2.34108 -11.7694Q-2.05216 -11.8269 -1.76077 -11.8701Q-1.46937 -11.9133 -1.17621 -11.9422Q-0.883041 -11.9711 -0.588812 -11.9855Q-0.294583 -12 0 -12Q0.294583 -12 0.588812 -11.9855Q0.883041 -11.9711 1.17621 -11.9422Q1.46937 -11.9133 1.76077 -11.8701Q2.05216 -11.8269 2.34108 -11.7694Q2.63001 -11.712 2.91576 -11.6404Q3.20152 -11.5688 3.48342 -11.4833Q3.76531 -11.3978 4.04268 -11.2985Q4.32004 -11.1993 4.5922 -11.0866Q4.86436 -10.9738 5.13066 -10.8479Q5.39696 -10.7219 5.65676 -10.5831Q5.91656 -10.4442 6.16923 -10.2927Q6.4219 -10.1413 6.66684 -9.97763Q6.91178 -9.81397 7.14839 -9.63849Q7.385 -9.46301 7.61272 -9.27612Q7.84044 -9.08924 8.05871 -8.89141Q8.27698 -8.69358 8.48528 -8.48528Q8.69358 -8.27698 8.89141 -8.05871Q9.08924 -7.84044 9.27612 -7.61272Q9.46301 -7.385 9.63849 -7.14839Q9.81397 -6.91178 9.97763 -6.66684Q10.1413 -6.4219 10.2927 -6.16923Q10.4442 -5.91656 10.5831 -5.65676Q10.7219 -5.39696 10.8479 -5.13066Q10.9738 -4.86436 11.0866 -4.5922Q11.1993 -4.32004 11.2985 -4.04268Q11.3978 -3.76531 11.4833 -3.48342Q11.5688 -3.20152 11.6404 -2.91576Q11.712 -2.63001 11.7694 -2.34108Q11.8269 -2.05216 11.8701 -1.76077Q11.9133 -1.46937 11.9422 -1.17621Q11.9711 -0.883041 11.9855 -0.588812Q12 -0.294583 12 0"/>
	<path fill="none" stroke="#C2993A" stroke-width="4" stroke-linecap="round" stroke-linejoin="round" transform="matrix(0.77186 1.2021 -1.2021 0.77186 69.2857 47.8571)" d="M12 0Q12 0.294583 11.9855 0.588812Q11.9711 0.883041 11.9422 1.17621Q11.9133 1.46937 11.8701 1.76077Q11.8269 2.05216 11.7694 2.34108Q11.712 2.63001 11.6404 2.91576Q11.5688 3.20152 11.4833 3.48342Q11.3978 3.76531 11.2985 4.04268Q11.1993 4.32004 11.0866 4.5922Q10.9738 4.86436 10.8479 5.13066Q10.7219 5.39696 10.5831 5.65676Q10.4442 5.91656 10.2927 6.16923Q10.1413 6.4219 9.97763 6.66684Q9.81397 6.91178 9.63849 7.14839Q9.46301 7.385 9.27612 7.61272Q9.08924 7.84044 8.89141 8.05871Q8.69358 8.27698 8.48528 8.48528Q8.27698 8.69358 8.05871 8.89141Q7.84044 9.08924 7.61272 9.27612Q7.385 9.46301 7.14839 9.63849Q6.91178 9.81397 6.66684 9.97763Q6.4219 10.1413 6.16923 10.2927Q5.91656 10.4442 5.65676 10.5831Q5.39696 10.7219 5.13066 10.8479Q4.86436 10.9738 4.5922 11.0866Q4.32004 11.1993 4.04268 11.2985Q3.76531 11.3978 3.48342 11.4833Q3.20152 11.5688 2.91576 11.6404Q2.63001 11.712 2.34108 11.7694Q2.05216 11.8269 1.76077 11.8701Q1.46937 11.9133 1.17621 11.9422Q0.883041 11.9711 0.588812 11.9855Q0.294583 12 0 12Q-0.294583 12 -0.588812 11.9855Q-0.883041 11.9711 -1.17621 11.9422Q-1.46937 11.9133 -1.76077 11.8701Q-2.05216 11.8269 -2.34108 11.7694Q-2.63001 11.712 -2.91576 11.6404Q-3.20152 11.5688 -3.48342 11.4833Q-3.76531 11.3978 -4.04268 11.2985Q-4.32004 11.1993 -4.5922 11.0866Q-4.86436 10.9738 -5.13066 10.8479Q-5.39696 10.7219 -5.65676 10.5831Q-5.91656 10.4442 -6.16923 10.2927Q-6.4219 10.1413 -6.66684 9.97763Q-6.91178 9.81397 -7.14839 9.63849Q-7.385 9.46301 -7.61272 9.27612Q-7.84044 9.08924 -8.05871 8.89141Q-8.27698 8.69358 -8.48528 8.48528Q-8.69358 8.27698 -8.89141 8.05871Q-9.08924 7.84044 -9.27612 7.61272Q-9.46301 7.385 -9.63849 7.14839Q-9.81397 6.91178 -9.97763 6.66684Q-10.1413 6.4219 -10.2927 6.16923Q-10.4442 5.91656 -10.5831 5.65676Q-10.7219 5.39696 -10.8479 5.13066Q-10.9738 4.86436 -11.0866 4.5922Q-11.1993 4.32004 -11.2985 4.04268Q-11.3978 3.76531 -11.4833 3.48342Q-11.5688 3.20152 -11.6404 2.91576Q-11.712 2.63001 -11.7694 2.34108Q-11.8269 2.05216 -11.8701 1.76077Q-11.9133 1.46937 -11.9422 1.17621Q-11.9711 0.883041 -11.9855 0.588812Q-12 0.294583 -12 0Q-12 -0.294583 -11.9855 -0.588812Q-11.9711 -0.883041 -11.9422 -1.17621Q-11.9133 -1.46937 -11.8701 -1.76077Q-11.8269 -2.05216 -11.7694 -2.34108Q-11.712 -2.63001 -11.6404 -2.91576Q-11.5688 -3.20152 -11.4833 -3.48342Q-11.3978 -3.76531 -11.2985 -4.04268Q-11.1993 -4.32004 -11.0866 -4.5922Q-10.9738 -4.86436 -10.8479 -5.13066Q-10.7219 -5.39696 -10.5831 -5.65676Q-10.4442 -5.91656 -10.2927 -6.16923Q-10.1413 -6.4219 -9.97763 -6.66684Q-9.81397 -6.91178 -9.63849 -7.14839Q-9.46301 -7.385 -9.27612 -7.61272Q-9.08924 -7.84044 -8.89141 -8.05871Q-8.69358 -8.27698 -8.48528 -8.48528Q-8.27698 -8.69358 -8.05871 -8.89141Q-7.84044 -9.08924 -7.61272 -9.27612Q-7.385 -9.46301 -7.14839 -9.63849Q-6.91178 -9.81397 -6.66684 -9.97763Q-6.4219 -10.1413 -6.16923 -10.2927Q-5.91656 -10.4442 -5.65676 -10.5831Q-5.39696 -10.7219 -5.13066 -10.8479Q-4.86436 -10.9738 -4.5922 -11.0866Q-4.32004 -11.1993 -4.04268 -11.2985Q-3.76531 -11.3978 -3.48342 -11.4833Q-3.20152 -11.5688 -2.91576 -11.6404Q-2.63001 -11.712 -2.34108 -11.7694Q-2.05216 -11.8269 -1.76077 -11.8701Q-1.46937 -11.9133 -1.17621 -11.9422Q-0.883041 -11.9711 -0.588812 -11.9855Q-0.294583 -12 0 -12Q0.294583 -12 0.588812 -11.9855Q0.883041 -11.9711 1.17621 -11.9422Q1.46937 -11.9133 1.76077 -11.8701Q2.05216 -11.8269 2.34108 -11.7694Q2.63001 -11.712 2.91576 -11.6404Q3.20152 -11.5688 3.48342 -11.4833Q3.76531 -11.3978 4.04268 -11.2985Q4.32004 -11.1993 4.5922 -11.0866Q4.86436 -10.9738 5.13066 -10.8479Q5.39696 -10.7219 5.65676 -10.5831Q5.91656 -10.4442 6.16923 -10.2927Q6.4219 -10.1413 6.66684 -9.97763Q6.91178 -9.81397 7.14839 -9.63849Q7.385 -9.46301 7.61272 -9.27612Q7.84044 -9.08924 8.05871 -8.89141Q8.27698 -8.69358 8.48528 -8.48528Q8.69358 -8.27698 8.89141 -8.05871Q9.08924 -7.84044 9.27612 -7.61272Q9.46301 -7.385 9.63849 -7.14839Q9.81397 -6.91178 9.97763 -6.66684Q10.1413 -6.4219 10.2927 -6.16923Q10.4442 -5.91656 10.5831 -5.65676Q10.7219 -5.39696 10.8479 -5.13066Q10.9738 -4.86436 11.0866 -4.5922Q11.1993 -4.32004 11.2985 -4.04268Q11.3978 -3.76531 11.4833 -3.48342Q11.5688 -3.20152 11.6404 -2.91576Q11.712 -2.63001 11.7694 -2.34108Q11.8269 -2.05216 11.8701 -1.76077Q11.9133 -1.46937 11.9422 -1.17621Q11.9711 -0.883041 11.9855 -0.588812Q12 -0.294583 12 0"/>
	<path fill="#39B54A" transform="matrix(-1.37651 0.382141 -0.382141 -1.37651 81.1295 50.4386)" d="M0 0C-3 -7.5 4.5 -9 7.5 -12C7.5 -7.5 6 1.5 0 0Z"/>
	<path fill="#2E933C" transform="matrix(-1.37651 0.382141 -0.382141 -1.37651 81.1295 50.4386)" d="M-1.39271 0.557086Q-3.16897 -3.88355 -1.00508 -7.10332Q0.190426 -8.88218 3.76615 -11.136Q5.7908 -12.4121 6.43934 -13.0607Q6.49145 -13.1128 6.54841 -13.1595Q6.60537 -13.2063 6.66664 -13.2472Q6.72792 -13.2881 6.7929 -13.3229Q6.85789 -13.3576 6.92597 -13.3858Q6.99406 -13.414 7.06457 -13.4354Q7.13509 -13.4568 7.20736 -13.4712Q7.27964 -13.4856 7.35297 -13.4928Q7.42631 -13.5 7.5 -13.5Q7.57369 -13.5 7.64703 -13.4928Q7.72036 -13.4856 7.79263 -13.4712Q7.86491 -13.4568 7.93543 -13.4354Q8.00594 -13.414 8.07402 -13.3858Q8.14211 -13.3576 8.20709 -13.3229Q8.27208 -13.2881 8.33335 -13.2472Q8.39463 -13.2063 8.45159 -13.1595Q8.50855 -13.1128 8.56066 -13.0607Q8.66513 -12.9562 8.7472 -12.8334Q8.82928 -12.7105 8.88582 -12.574Q8.94236 -12.4375 8.97118 -12.2926Q9 -12.1477 9 -12Q9 -6.94211 7.37872 -3.15912Q4.84325 2.75698 -0.363803 1.45521Q-0.536562 1.41202 -0.694406 1.32959Q-0.852251 1.24715 -0.986406 1.13005Q-1.12056 1.01294 -1.22357 0.867684Q-1.32658 0.722425 -1.39272 0.557086L-1.39271 0.557086ZM1.39271 -0.557086L0 0L0.363803 -1.45521Q3.09224 -0.773105 4.62128 -4.34088Q6 -7.55789 6 -12L7.5 -12L8.56066 -10.9393Q7.67462 -10.0533 5.36581 -8.59805Q2.3266 -6.68242 1.48485 -5.42992Q0.205201 -3.52587 1.39271 -0.557086Z"/>
	<path fill="#F0BD48" transform="matrix(-1.42698 0.0674 -0.0674 -1.42698 47.8571 60.2289)" d="M12 0Q12 0.294583 11.9855 0.588812Q11.9711 0.883041 11.9422 1.17621Q11.9133 1.46937 11.8701 1.76077Q11.8269 2.05216 11.7694 2.34108Q11.712 2.63001 11.6404 2.91576Q11.5688 3.20152 11.4833 3.48342Q11.3978 3.76531 11.2985 4.04268Q11.1993 4.32004 11.0866 4.5922Q10.9738 4.86436 10.8479 5.13066Q10.7219 5.39696 10.5831 5.65676Q10.4442 5.91656 10.2927 6.16923Q10.1413 6.4219 9.97763 6.66684Q9.81397 6.91178 9.63849 7.14839Q9.46301 7.385 9.27612 7.61272Q9.08924 7.84044 8.89141 8.05871Q8.69358 8.27698 8.48528 8.48528Q8.27698 8.69358 8.05871 8.89141Q7.84044 9.08924 7.61272 9.27612Q7.385 9.46301 7.14839 9.63849Q6.91178 9.81397 6.66684 9.97763Q6.4219 10.1413 6.16923 10.2927Q5.91656 10.4442 5.65676 10.5831Q5.39696 10.7219 5.13066 10.8479Q4.86436 10.9738 4.5922 11.0866Q4.32004 11.1993 4.04268 11.2985Q3.76531 11.3978 3.48342 11.4833Q3.20152 11.5688 2.91576 11.6404Q2.63001 11.712 2.34108 11.7694Q2.05216 11.8269 1.76077 11.8701Q1.46937 11.9133 1.17621 11.9422Q0.883041 11.9711 0.588812 11.9855Q0.294583 12 0 12Q-0.294583 12 -0.588812 11.9855Q-0.883041 11.9711 -1.17621 11.9422Q-1.46937 11.9133 -1.76077 11.8701Q-2.05216 11.8269 -2.34108 11.7694Q-2.63001 11.712 -2.91576 11.6404Q-3.20152 11.5688 -3.48342 11.4833Q-3.76531 11.3978 -4.04268 11.2985Q-4.32004 11.1993 -4.5922 11.0866Q-4.86436 10.9738 -5.13066 10.8479Q-5.39696 10.7219 -5.65676 10.5831Q-5.91656 10.4442 -6.16923 10.2927Q-6.4219 10.1413 -6.66684 9.97763Q-6.91178 9.81397 -7.14839 9.63849Q-7.385 9.46301 -7.61272 9.27612Q-7.84044 9.08924 -8.05871 8.89141Q-8.27698 8.69358 -8.48528 8.48528Q-8.69358 8.27698 -8.89141 8.05871Q-9.08924 7.84044 -9.27612 7.61272Q-9.46301 7.385 -9.63849 7.14839Q-9.81397 6.91178 -9.97763 6.66684Q-10.1413 6.4219 -10.2927 6.16923Q-10.4442 5.91656 -10.5831 5.65676Q-10.7219 5.39696 -10.8479 5.13066Q-10.9738 4.86436 -11.0866 4.5922Q-11.1993 4.32004 -11.2985 4.04268Q-11.3978 3.76531 -11.4833 3.48342Q-11.5688 3.20152 -11.6404 2.91576Q-11.712 2.63001 -11.7694 2.34108Q-11.8269 2.05216 -11.8701 1.76077Q-11.9133 1.46937 -11.9422 1.17621Q-11.9711 0.883041 -11.9855 0.588812Q-12 0.294583 -12 0Q-12 -0.294583 -11.9855 -0.588812Q-11.9711 -0.883041 -11.9422 -1.17621Q-11.9133 -1.46937 -11.8701 -1.76077Q-11.8269 -2.05216 -11.7694 -2.34108Q-11.712 -2.63001 -11.6404 -2.91576Q-11.5688 -3.20152 -11.4833 -3.48342Q-11.3978 -3.76531 -11.2985 -4.04268Q-11.1993 -4.32004 -11.0866 -4.5922Q-10.9738 -4.86436 -10.8479 -5.13066Q-10.7219 -5.39696 -10.5831 -5.65676Q-10.4442 -5.91656 -10.2927 -6.16923Q-10.1413 -6.4219 -9.97763 -6.66684Q-9.81397 -6.91178 -9.63849 -7.14839Q-9.46301 -7.385 -9.27612 -7.61272Q-9.08924 -7.84044 -8.89141 -8.05871Q-8.69358 -8.27698 -8.48528 -8.48528Q-8.27698 -8.69358 -8.05871 -8.89141Q-7.84044 -9.08924 -7.61272 -9.27612Q-7.385 -9.46301 -7.14839 -9.63849Q-6.91178 -9.81397 -6.66684 -9.97763Q-6.4219 -10.1413 -6.16923 -10.2927Q-5.91656 -10.4442 -5.65676 -10.5831Q-5.39696 -10.7219 -5.13066 -10.8479Q-4.86436 -10.9738 -4.5922 -11.0866Q-4.32004 -11.1993 -4.04268 -11.2985Q-3.76531 -11.3978 -3.48342 -11.4833Q-3.20152 -11.5688 -2.91576 -11.6404Q-2.63001 -11.712 -2.34108 -11.7694Q-2.05216 -11.8269 -1.76077 -11.8701Q-1.46937 -11.9133 -1.17621 -11.9422Q-0.883041 -11.9711 -0.588812 -11.9855Q-0.294583 -12 0 -12Q0.294583 -12 0.588812 -11.9855Q0.883041 -11.9711 1.17621 -11.9422Q1.46937 -11.9133 1.76077 -11.8701Q2.05216 -11.8269 2.34108 -11.7694Q2.63001 -11.712 2.91576 -11.6404Q3.20152 -11.5688 3.48342 -11.4833Q3.76531 -11.3978 4.04268 -11.2985Q4.32004 -11.1993 4.5922 -11.0866Q4.86436 -10.9738 5.13066 -10.8479Q5.39696 -10.7219 5.65676 -10.5831Q5.91656 -10.4442 6.16923 -10.2927Q6.4219 -10.1413 6.66684 -9.97763Q6.91178 -9.81397 7.14839 -9.63849Q7.385 -9.46301 7.61272 -9.27612Q7.84044 -9.08924 8.05871 -8.89141Q8.27698 -8.69358 8.48528 -8.48528Q8.69358 -8.27698 8.89141 -8.05871Q9.08924 -7.84044 9.27612 -7.61272Q9.46301 -7.385 9.63849 -7.14839Q9.81397 -6.91178 9.97763 -6.66684Q10.1413 -6.4219 10.2927 -6.16923Q10.4442 -5.91656 10.5831 -5.65676Q10.7219 -5.39696 10.8479 -5.13066Q10.9738 -4.86436 11.0866 -4.5922Q11.1993 -4.32004 11.2985 -4.04268Q11.3978 -3.76531 11.4833 -3.48342Q11.5688 -3.20152 11.6404 -2.91576Q11.712 -2.63001 11.7694 -2.34108Q11.8269 -2.05216 11.8701 -1.76077Q11.9133 -1.46937 11.9422 -1.17621Q11.9711 -0.883041 11.9855 -0.588812Q12 -0.294583 12 0"/>
	<path fill="none" stroke="#C2993A" stroke-width="4" stroke-linecap="round" stroke-linejoin="round" transform="matrix(-1.42698 0.0674 -0.0674 -1.42698 47.8571 60.2289)" d="M12 0Q12 0.294583 11.9855 0.588812Q11.9711 0.883041 11.9422 1.17621Q11.9133 1.46937 11.8701 1.76077Q11.8269 2.05216 11.7694 2.34108Q11.712 2.63001 11.6404 2.91576Q11.5688 3.20152 11.4833 3.48342Q11.3978 3.76531 11.2985 4.04268Q11.1993 4.32004 11.0866 4.5922Q10.9738 4.86436 10.8479 5.13066Q10.7219 5.39696 10.5831 5.65676Q10.4442 5.91656 10.2927 6.16923Q10.1413 6.4219 9.97763 6.66684Q9.81397 6.91178 9.63849 7.14839Q9.46301 7.385 9.27612 7.61272Q9.08924 7.84044 8.89141 8.05871Q8.69358 8.27698 8.48528 8.48528Q8.27698 8.69358 8.05871 8.89141Q7.84044 9.08924 7.61272 9.27612Q7.385 9.46301 7.14839 9.63849Q6.91178 9.81397 6.66684 9.97763Q6.4219 10.1413 6.16923 10.2927Q5.91656 10.4442 5.65676 10.5831Q5.39696 10.7219 5.13066 10.8479Q4.86436 10.9738 4.5922 11.0866Q4.32004 11.1993 4.04268 11.2985Q3.76531 11.3978 3.48342 11.4833Q3.20152 11.5688 2.91576 11.6404Q2.63001 11.712 2.34108 11.7694Q2.05216 11.8269 1.76077 11.8701Q1.46937 11.9133 1.17621 11.9422Q0.883041 11.9711 0.588812 11.9855Q0.294583 12 0 12Q-0.294583 12 -0.588812 11.9855Q-0.883041 11.9711 -1.17621 11.9422Q-1.46937 11.9133 -1.76077 11.8701Q-2.05216 11.8269 -2.34108 11.7694Q-2.63001 11.712 -2.91576 11.6404Q-3.20152 11.5688 -3.48342 11.4833Q-3.76531 11.3978 -4.04268 11.2985Q-4.32004 11.1993 -4.5922 11.0866Q-4.86436 10.9738 -5.13066 10.8479Q-5.39696 10.7219 -5.65676 10.5831Q-5.91656 10.4442 -6.16923 10.2927Q-6.4219 10.1413 -6.66684 9.97763Q-6.91178 9.81397 -7.14839 9.63849Q-7.385 9.46301 -7.61272 9.27612Q-7.84044 9.08924 -8.05871 8.89141Q-8.27698 8.69358 -8.48528 8.48528Q-8.69358 8.27698 -8.89141 8.05871Q-9.08924 7.84044 -9.27612 7.61272Q-9.46301 7.385 -9.63849 7.14839Q-9.81397 6.91178 -9.97763 6.66684Q-10.1413 6.4219 -10.2927 6.16923Q-10.4442 5.91656 -10.5831 5.65676Q-10.7219 5.39696 -10.8479 5.13066Q-10.9738 4.86436 -11.0866 4.5922Q-11.1993 4.32004 -11.2985 4.04268Q-11.3978 3.76531 -11.4833 3.48342Q-11.5688 3.20152 -11.6404 2.91576Q-11.712 2.63001 -11.7694 2.34108Q-11.8269 2.05216 -11.8701 1.76077Q-11.9133 1.46937 -11.9422 1.17621Q-11.9711 0.883041 -11.9855 0.588812Q-12 0.294583 -12 0Q-12 -0.294583 -11.9855 -0.588812Q-11.9711 -0.883041 -11.9422 -1.17621Q-11.9133 -1.46937 -11.8701 -1.76077Q-11.8269 -2.05216 -11.7694 -2.34108Q-11.712 -2.63001 -11.6404 -2.91576Q-11.5688 -3.20152 -11.4833 -3.48342Q-11.3978 -3.76531 -11.2985 -4.04268Q-11.1993 -4.32004 -11.0866 -4.5922Q-10.9738 -4.86436 -10.8479 -5.13066Q-10.7219 -5.39696 -10.5831 -5.65676Q-10.4442 -5.91656 -10.2927 -6.16923Q-10.1413 -6.4219 -9.97763 -6.66684Q-9.81397 -6.91178 -9.63849 -7.14839Q-9.46301 -7.385 -9.27612 -7.61272Q-9.08924 -7.84044 -8.89141 -8.05871Q-8.69358 -8.27698 -8.48528 -8.48528Q-8.27698 -8.69358 -8.05871 -8.89141Q-7.84044 -9.08924 -7.61272 -9.27612Q-7.385 -9.46301 -7.14839 -9.63849Q-6.91178 -9.81397 -6.66684 -9.97763Q-6.4219 -10.1413 -6.16923 -10.2927Q-5.91656 -10.4442 -5.65676 -10.5831Q-5.39696 -10.7219 -5.13066 -10.8479Q-4.86436 -10.9738 -4.5922 -11.0866Q-4.32004 -11.1993 -4.04268 -11.2985Q-3.76531 -11.3978 -3.48342 -11.4833Q-3.20152 -11.5688 -2.91576 -11.6404Q-2.63001 -11.712 -2.34108 -11.7694Q-2.05216 -11.8269 -1.76077 -11.8701Q-1.46937 -11.9133 -1.17621 -11.9422Q-0.883041 -11.9711 -0.588812 -11.9855Q-0.294583 -12 0 -12Q0.294583 -12 0.588812 -11.9855Q0.883041 -11.9711 1.17621 -11.9422Q1.46937 -11.9133 1.76077 -11.8701Q2.05216 -11.8269 2.34108 -11.7694Q2.63001 -11.712 2.91576 -11.6404Q3.20152 -11.5688 3.48342 -11.4833Q3.76531 -11.3978 4.04268 -11.2985Q4.32004 -11.1993 4.5922 -11.0866Q4.86436 -10.9738 5.13066 -10.8479Q5.39696 -10.7219 5.65676 -10.5831Q5.91656 -10.4442 6.16923 -10.2927Q6.4219 -10.1413 6.66684 -9.97763Q6.91178 -9.81397 7.14839 -9.63849Q7.385 -9.46301 7.61272 -9.27612Q7.84044 -9.08924 8.05871 -8.89141Q8.27698 -8.69358 8.48528 -8.48528Q8.69358 -8.27698 8.89141 -8.05871Q9.08924 -7.84044 9.27612 -7.61272Q9.46301 -7.385 9.63849 -7.14839Q9.81397 -6.91178 9.97763 -6.66684Q10.1413 -6.4219 10.2927 -6.16923Q10.4442 -5.91656 10.5831 -5.65676Q10.7219 -5.39696 10.8479 -5.13066Q10.9738 -4.86436 11.0866 -4.5922Q11.1993 -4.32004 11.2985 -4.04268Q11.3978 -3.76531 11.4833 -3.48342Q11.5688 -3.20152 11.6404 -2.91576Q11.712 -2.63001 11.7694 -2.34108Q11.8269 -2.05216 11.8701 -1.76077Q11.9133 -1.46937 11.9422 -1.17621Q11.9711 -0.883041 11.9855 -0.588812Q12 -0.294583 12 0"/>
	<path fill="#39B54A" transform="matrix(0.357312 -1.38316 1.38316 0.357312 39.6997 69.1952)" d="M0 0C-3 -7.5 4.5 -9 7.5 -12C7.5 -7.5 6 1.5 0 0Z"/>
	<path fill="#2E933C" transform="matrix(0.357312 -1.38316 1.38316 0.357312 39.6997 69.1952)" d="M-1.39271 0.557086Q-3.16897 -3.88355 -1.00508 -7.10332Q0.190426 -8.88218 3.76615 -11.136Q5.7908 -12.4121 6.43934 -13.0607Q6.49145 -13.1128 6.54841 -13.1595Q6.60537 -13.2063 6.66664 -13.2472Q6.72792 -13.2881 6.7929 -13.3229Q6.85789 -13.3576 6.92597 -13.3858Q6.99406 -13.414 7.06457 -13.4354Q7.13509 -13.4568 7.20736 -13.4712Q7.27964 -13.4856 7.35297 -13.4928Q7.42631 -13.5 7.5 -13.5Q7.57369 -13.5 7.64703 -13.4928Q7.72036 -13.4856 7.79263 -13.4712Q7.86491 -13.4568 7.93543 -13.4354Q8.00594 -13.414 8.07402 -13.3858Q8.14211 -13.3576 8.20709 -13.3229Q8.27208 -13.2881 8.33335 -13.2472Q8.39463 -13.2063 8.45159 -13.1595Q8.50855 -13.1128 8.56066 -13.0607Q8.66513 -12.9562 8.7472 -12.8334Q8.82928 -12.7105 8.88582 -12.574Q8.94236 -12.4375 8.97118 -12.2926Q9 -12.1477 9 -12Q9 -6.94211 7.37872 -3.15912Q4.84325 2.75698 -0.363803 1.45521Q-0.536562 1.41202 -0.694406 1.32959Q-0.852251 1.24715 -0.986406 1.13005Q-1.12056 1.01294 -1.22357 0.867684Q-1.32658 0.722425 -1.39272 0.557086L-1.39271 0.557086ZM1.39271 -0.557086L0 0L0.363803 -1.45521Q3.09224 -0.773105 4.62128 -4.34088Q6 -7.55789 6 -12L7.5 -12L8.56066 -10.9393Q7.67462 -10.0533 5.36581 -8.59805Q2.3266 -6.68242 1.48485 -5.42992Q0.205201 -3.52587 1.39271 -0.557086Z"/>
	<path fill="#F0BD48" transform="matrix(0.65512 -1.2695 1.2695 0.65512 47.8571 35.4854)" d="M12 0Q12 0.294583 11.9855 0.588812Q11.9711 0.883041 11.9422 1.17621Q11.9133 1.46937 11.8701 1.76077Q11.8269 2.05216 11.7694 2.34108Q11.712 2.63001 11.6404 2.91576Q11.5688 3.20152 11.4833 3.48342Q11.3978 3.76531 11.2985 4.04268Q11.1993 4.32004 11.0866 4.5922Q10.9738 4.86436 10.8479 5.13066Q10.7219 5.39696 10.5831 5.65676Q10.4442 5.91656 10.2927 6.16923Q10.1413 6.4219 9.97763 6.66684Q9.81397 6.91178 9.63849 7.14839Q9.46301 7.385 9.27612 7.61272Q9.08924 7.84044 8.89141 8.05871Q8.69358 8.27698 8.48528 8.48528Q8.27698 8.69358 8.05871 8.89141Q7.84044 9.08924 7.61272 9.27612Q7.385 9.46301 7.14839 9.63849Q6.91178 9.81397 6.66684 9.97763Q6.4219 10.1413 6.16923 10.2927Q5.91656 10.4442 5.65676 10.5831Q5.39696 10.7219 5.13066 10.8479Q4.86436 10.9738 4.5922 11.0866Q4.32004 11.1993 4.04268 11.2985Q3.76531 11.3978 3.48342 11.4833Q3.20152 11.5688 2.91576 11.6404Q2.63001 11.712 2.34108 11.7694Q2.05216 11.8269 1.76077 11.8701Q1.46937 11.9133 1.17621 11.9422Q0.883041 11.9711 0.588812 11.9855Q0.294583 12 0 12Q-0.294583 12 -0.588812 11.9855Q-0.883041 11.9711 -1.17621 11.9422Q-1.46937 11.9133 -1.76077 11.8701Q-2.05216 11.8269 -2.34108 11.7694Q-2.63001 11.712 -2.91576 11.6404Q-3.20152 11.5688 -3.48342 11.4833Q-3.76531 11.3978 -4.04268 11.2985Q-4.32004 11.1993 -4.5922 11.0866Q-4.86436 10.9738 -5.13066 10.8479Q-5.39696 10.7219 -5.65676 10.5831Q-5.91656 10.4442 -6.16923 10.2927Q-6.4219 10.1413 -6.66684 9.97763Q-6.91178 9.81397 -7.14839 9.63849Q-7.385 9.46301 -7.61272 9.27612Q-7.84044 9.08924 -8.05871 8.89141Q-8.27698 8.69358 -8.48528 8.48528Q-8.69358 8.27698 -8.89141 8.05871Q-9.08924 7.84044 -9.27612 7.61272Q-9.46301 7.385 -9.63849 7.14839Q-9.81397 6.91178 -9.97763 6.66684Q-10.1413 6.4219 -10.2927 6.16923Q-10.4442 5.91656 -10.5831 5.65676Q-10.7219 5.39696 -10.8479 5.13066Q-10.9738 4.86436 -11.0866 4.5922Q-11.1993 4.32004 -11.2985 4.04268Q-11.3978 3.76531 -11.4833 3.48342Q-11.5688 3.20152 -11.6404 2.91576Q-11.712 2.63001 -11.7694 2.34108Q-11.8269 2.05216 -11.8701 1.76077Q-11.9133 1.46937 -11.9422 1.17621Q-11.9711 0.883041 -11.9855 0.588812Q-12 0.294583 -12 0Q-12 -0.294583 -11.9855 -0.588812Q-11.9711 -0.883041 -11.9422 -1.17621Q-11.9133 -1.46937 -11.8701 -1.76077Q-11.8269 -2.05216 -11.7694 -2.34108Q-11.712 -2.63001 -11.6404 -2.91576Q-11.5688 -3.20152 -11.4833 -3.48342Q-11.3978 -3.76531 -11.2985 -4.04268Q-11.1993 -4.32004 -11.0866 -4.5922Q-10.9738 -4.86436 -10.8479 -5.13066Q-10.7219 -5.39696 -10.5831 -5.65676Q-10.4442 -5.91656 -10.2927 -6.16923Q-10.1413 -6.4219 -9.97763 -6.66684Q-9.81397 -6.91178 -9.63849 -7.14839Q-9.46301 -7.385 -9.27612 -7.61272Q-9.08924 -7.84044 -8.89141 -8.05871Q-8.69358 -8.27698 -8.48528 -8.48528Q-8.27698 -8.69358 -8.05871 -8.89141Q-7.84044 -9.08924 -7.61272 -9.27612Q-7.385 -9.46301 -7.14839 -9.63849Q-6.91178 -9.81397 -6.66684 -9.97763Q-6.4219 -10.1413 -6.16923 -10.2927Q-5.91656 -10.4442 -5.65676 -10.5831Q-5.39696 -10.7219 -5.13066 -10.8479Q-4.86436 -10.9738 -4.5922 -11.0866Q-4.32004 -11.1993 -4.04268 -11.2985Q-3.76531 -11.3978 -3.48342 -11.4833Q-3.20152 -11.5688 -2.91576 -11.6404Q-2.63001 -11.712 -2.34108 -11.7694Q-2.05216 -11.8269 -1.76077 -11.8701Q-1.46937 -11.9133 -1.17621 -11.9422Q-0.883041 -11.9711 -0.588812 -11.9855Q-0.294583 -12 0 -12Q0.294583 -12 0.588812 -11.9855Q0.883041 -11.9711 1.17621 -11.9422Q1.46937 -11.9133 1.76077 -11.8701Q2.05216 -11.8269 2.34108 -11.7694Q2.63001 -11.712 2.91576 -11.6404Q3.20152 -11.5688 3.48342 -11.4833Q3.76531 -11.3978 4.04268 -11.2985Q4.32004 -11.1993 4.5922 -11.0866Q4.86436 -10.9738 5.13066 -10.8479Q5.39696 -10.7219 5.65676 -10.5831Q5.91656 -10.4442 6.16923 -10.2927Q6.4219 -10.1413 6.66684 -9.97763Q6.91178 -9.81397 7.14839 -9.63849Q7.385 -9.46301 7.61272 -9.27612Q7.84044 -9.08924 8.05871 -8.89141Q8.27698 -8.69358 8.48528 -8.48528Q8.69358 -8.27698 8.89141 -8.05871Q9.08924 -7.84044 9.27612 -7.61272Q9.46301 -7.385 9.63849 -7.14839Q9.81397 -6.91178 9.97763 -6.66684Q10.1413 -6.4219 10.2927 -6.16923Q10.4442 -5.91656 10.5831 -5.65676Q10.7219 -5.39696 10.8479 -5.13066Q10.9738 -4.86436 11.0866 -4.5922Q11.1993 -4.32004 11.2985 -4.04268Q11.3978 -3.76531 11.4833 -3.48342Q11.5688 -3.20152 11.6404 -2.91576Q11.712 -2.63001 11.7694 -2.34108Q11.8269 -2.05216 11.8701 -1.76077Q11.9133 -1.46937 11.9422 -1.17621Q11.9711 -0.883041 11.9855 -0.588812Q12 -0.294583 12 0"/>
	<path fill="none" stroke="#C2993A" stroke-width="4" stroke-linecap="round" stroke-linejoin="round" transform="matrix(0.65512 -1.2695 1.2695 0.65512 47.8571 35.4854)" d="M12 0Q12 0.294583 11.9855 0.588812Q11.9711 0.883041 11.9422 1.17621Q11.9133 1.46937 11.8701 1.76077Q11.8269 2.05216 11.7694 2.34108Q11.712 2.63001 11.6404 2.91576Q11.5688 3.20152 11.4833 3.48342Q11.3978 3.76531 11.2985 4.04268Q11.1993 4.32004 11.0866 4.5922Q10.9738 4.86436 10.8479 5.13066Q10.7219 5.39696 10.5831 5.65676Q10.4442 5.91656 10.2927 6.16923Q10.1413 6.4219 9.97763 6.66684Q9.81397 6.91178 9.63849 7.14839Q9.46301 7.385 9.27612 7.61272Q9.08924 7.84044 8.89141 8.05871Q8.69358 8.27698 8.48528 8.48528Q8.27698 8.69358 8.05871 8.89141Q7.84044 9.08924 7.61272 9.27612Q7.385 9.46301 7.14839 9.63849Q6.91178 9.81397 6.66684 9.97763Q6.4219 10.1413 6.16923 10.2927Q5.91656 10.4442 5.65676 10.5831Q5.39696 10.7219 5.13066 10.8479Q4.86436 10.9738 4.5922 11.0866Q4.32004 11.1993 4.04268 11.2985Q3.76531 11.3978 3.48342 11.4833Q3.20152 11.5688 2.91576 11.6404Q2.63001 11.712 2.34108 11.7694Q2.05216 11.8269 1.76077 11.8701Q1.46937 11.9133 1.17621 11.9422Q0.883041 11.9711 0.588812 11.9855Q0.294583 12 0 12Q-0.294583 12 -0.588812 11.9855Q-0.883041 11.9711 -1.17621 11.9422Q-1.46937 11.9133 -1.76077 11.8701Q-2.05216 11.8269 -2.34108 11.7694Q-2.63001 11.712 -2.91576 11.6404Q-3.20152 11.5688 -3.48342 11.4833Q-3.76531 11.3978 -4.04268 11.2985Q-4.32004 11.1993 -4.5922 11.0866Q-4.86436 10.9738 -5.13066 10.8479Q-5.39696 10.7219 -5.65676 10.5831Q-5.91656 10.4442 -6.16923 10.2927Q-6.4219 10.1413 -6.66684 9.97763Q-6.91178 9.81397 -7.14839 9.63849Q-7.385 9.46301 -7.61272 9.27612Q-7.84044 9.08924 -8.05871 8.89141Q-8.27698 8.69358 -8.48528 8.48528Q-8.69358 8.27698 -8.89141 8.05871Q-9.08924 7.84044 -9.27612 7.61272Q-9.46301 7.385 -9.63849 7.14839Q-9.81397 6.91178 -9.97763 6.66684Q-10.1413 6.4219 -10.2927 6.16923Q-10.4442 5.91656 -10.5831 5.65676Q-10.7219 5.39696 -10.8479 5.13066Q-10.9738 4.86436 -11.0866 4.5922Q-11.1993 4.32004 -11.2985 4.04268Q-11.3978 3.76531 -11.4833 3.48342Q-11.5688 3.20152 -11.6404 2.91576Q-11.712 2.63001 -11.7694 2.34108Q-11.8269 2.05216 -11.8701 1.76077Q-11.9133 1.46937 -11.9422 1.17621Q-11.9711 0.883041 -11.9855 0.588812Q-12 0.294583 -12 0Q-12 -0.294583 -11.9855 -0.588812Q-11.9711 -0.883041 -11.9422 -1.17621Q-11.9133 -1.46937 -11.8701 -1.76077Q-11.8269 -2.05216 -11.7694 -2.34108Q-11.712 -2.63001 -11.6404 -2.91576Q-11.5688 -3.20152 -11.4833 -3.48342Q-11.3978 -3.76531 -11.2985 -4.04268Q-11.1993 -4.32004 -11.0866 -4.5922Q-10.9738 -4.86436 -10.8479 -5.13066Q-10.7219 -5.39696 -10.5831 -5.65676Q-10.4442 -5.91656 -10.2927 -6.16923Q-10.1413 -6.4219 -9.97763 -6.66684Q-9.81397 -6.91178 -9.63849 -7.14839Q-9.46301 -7.385 -9.27612 -7.61272Q-9.08924 -7.84044 -8.89141 -8.05871Q-8.69358 -8.27698 -8.48528 -8.48528Q-8.27698 -8.69358 -8.05871 -8.89141Q-7.84044 -9.08924 -7.61272 -9.27612Q-7.385 -9.46301 -7.14839 -9.63849Q-6.91178 -9.81397 -6.66684 -9.97763Q-6.4219 -10.1413 -6.16923 -10.2927Q-5.91656 -10.4442 -5.65676 -10.5831Q-5.39696 -10.7219 -5.13066 -10.8479Q-4.86436 -10.9738 -4.5922 -11.0866Q-4.32004 -11.1993 -4.04268 -11.2985Q-3.76531 -11.3978 -3.48342 -11.4833Q-3.20152 -11.5688 -2.91576 -11.6404Q-2.63001 -11.712 -2.34108 -11.7694Q-2.05216 -11.8269 -1.76077 -11.8701Q-1.46937 -11.9133 -1.17621 -11.9422Q-0.883041 -11.9711 -0.588812 -11.9855Q-0.294583 -12 0 -12Q0.294583 -12 0.588812 -11.9855Q0.883041 -11.9711 1.17621 -11.9422Q1.46937 -11.9133 1.76077 -11.8701Q2.05216 -11.8269 2.34108 -11.7694Q2.63001 -11.712 2.91576 -11.6404Q3.20152 -11.5688 3.48342 -11.4833Q3.76531 -11.3978 4.04268 -11.2985Q4.32004 -11.1993 4.5922 -11.0866Q4.86436 -10.9738 5.13066 -10.8479Q5.39696 -10.7219 5.65676 -10.5831Q5.91656 -10.4442 6.16923 -10.2927Q6.4219 -10.1413 6.66684 -9.97763Q6.91178 -9.81397 7.14839 -9.63849Q7.385 -9.46301 7.61272 -9.27612Q7.84044 -9.08924 8.05871 -8.89141Q8.27698 -8.69358 8.48528 -8.48528Q8.69358 -8.27698 8.89141 -8.05871Q9.08924 -7.84044 9.27612 -7.61272Q9.46301 -7.385 9.63849 -7.14839Q9.81397 -6.91178 9.97763 -6.66684Q10.1413 -6.4219 10.2927 -6.16923Q10.4442 -5.91656 10.5831 -5.65676Q10.7219 -5.39696 10.8479 -5.13066Q10.9738 -4.86436 11.0866 -4.5922Q11.1993 -4.32004 11.2985 -4.04268Q11.3978 -3.76531 11.4833 -3.48342Q11.5688 -3.20152 11.6404 -2.91576Q11.712 -2.63001 11.7694 -2.34108Q11.8269 -2.05216 11.8701 -1.76077Q11.9133 -1.46937 11.9422 -1.17621Q11.9711 -0.883041 11.9855 -0.588812Q12 -0.294583 12 0"/>
	<path fill="#39B54A" transform="matrix(1.0192 1.00102 -1.00102 1.0192 44.1709 23.9376)" d="M0 0C-3 -7.5 4.5 -9 7.5 -12C7.5 -7.5 6 1.5 0 0Z"/>
	<path fill="#2E933C" transform="matrix(1.0192 1.00102 -1.00102 1.0192 44.1709 23.9376)" d="M-1.39271 0.557086Q-3.16897 -3.88355 -1.00508 -7.10332Q0.190426 -8.88218 3.76615 -11.136Q5.7908 -12.4121 6.43934 -13.0607Q6.49145 -13.1128 6.54841 -13.1595Q6.60537 -13.2063 6.66664 -13.2472Q6.72792 -13.2881 6.7929 -13.3229Q6.85789 -13.3576 6.92597 -13.3858Q6.99406 -13.414 7.06457 -13.4354Q7.13509 -13.4568 7.20736 -13.4712Q7.27964 -13.4856 7.35297 -13.4928Q7.42631 -13.5 7.5 -13.5Q7.57369 -13.5 7.64703 -13.4928Q7.72036 -13.4856 7.79263 -13.4712Q7.86491 -13.4568 7.93543 -13.4354Q8.00594 -13.414 8.07402 -13.3858Q8.14211 -13.3576 8.20709 -13.3229Q8.27208 -13.2881 8.33335 -13.2472Q8.39463 -13.2063 8.45159 -13.1595Q8.50855 -13.1128 8.56066 -13.0607Q8.66513 -12.9562 8.7472 -12.8334Q8.82928 -12.7105 8.88582 -12.574Q8.94236 -12.4375 8.97118 -12.2926Q9 -12.1477 9 -12Q9 -6.94211 7.37872 -3.15912Q4.84325 2.75698 -0.363803 1.45521Q-0.536562 1.41202 -0.694406 1.32959Q-0.852251 1.24715 -0.986406 1.13005Q-1.12056 1.01294 -1.22357 0.867684Q-1.32658 0.722425 -1.39272 0.557086L-1.39271 0.557086ZM1.39271 -0.557086L0 0L0.363803 -1.45521Q3.09224 -0.773105 4.62128 -4.34088Q6 -7.55789 6 -12L7.5 -12L8.56066 -10.9393Q7.67462 -10.0533 5.36581 -8.59805Q2.3266 -6.68242 1.48485 -5.42992Q0.205201 -3.52587 1.39271 -0.557086Z"/>
	<path fill="none" stroke="black" stroke-width="2.3999999" stroke-linejoin="round" transform="translate(55 79.2857)" d="M-31.1012 0.491523Q-31.1012 1.51203 -30.8522 2.33234Q-30.5983 3.14777 -30.1295 3.73859Q-29.6608 4.32941 -28.9821 4.65168Q-28.2985 4.96906 -27.4196 4.96906Q-26.5602 4.96906 -25.8717 4.65168Q-25.1784 4.32941 -24.7096 3.73859Q-24.2409 3.14777 -23.9918 2.33234Q-23.7379 1.51203 -23.7379 0.491523Q-23.7379 -0.528985 -23.9918 -1.35906Q-24.2409 -2.18914 -24.7096 -2.77996Q-25.1784 -3.37078 -25.8717 -3.68816Q-26.5602 -4.01043 -27.4196 -4.01043Q-28.2985 -4.01043 -28.9821 -3.6784Q-29.6608 -3.35125 -30.1295 -2.76043Q-30.5983 -2.16961 -30.8522 -1.33953Q-31.1012 -0.509453 -31.1012 0.491523ZM-20.5202 0.491523Q-20.5202 2.26887 -21.0524 3.62141Q-21.5797 4.96906 -22.5026 5.88215Q-23.4205 6.79035 -24.6901 7.24934Q-25.9596 7.70832 -27.4196 7.70832Q-28.8405 7.70832 -30.1002 7.24934Q-31.36 6.79035 -32.3024 5.88215Q-33.2399 4.96906 -33.7819 3.62141Q-34.319 2.26887 -34.319 0.491523Q-34.319 -1.2907 -33.7623 -2.63836Q-33.2008 -3.9909 -32.2536 -4.90887Q-31.3014 -5.83172 -30.0514 -6.2907Q-28.8014 -6.74969 -27.4196 -6.74969Q-25.9987 -6.74969 -24.7389 -6.2907Q-23.4791 -5.83172 -22.5416 -4.90887Q-21.5993 -3.9909 -21.0621 -2.63836Q-20.5202 -1.2907 -20.5202 0.491523ZM-11.7807 -0.45086Q-12.1811 -0.548516 -12.7231 -0.655938Q-13.2602 -0.768242 -13.8803 -0.768242Q-14.1586 -0.768242 -14.5493 -0.719414Q-14.9399 -0.670586 -15.1401 -0.611992L-15.1401 7.43L-18.1186 7.43L-18.1186 -2.53094Q-17.3178 -2.80926 -16.229 -3.05828Q-15.1401 -3.31219 -13.8022 -3.31219Q-13.5581 -3.31219 -13.2211 -3.27801Q-12.8793 -3.24871 -12.5424 -3.19988Q-12.2006 -3.15105 -11.8637 -3.07781Q-11.5219 -3.00945 -11.2778 -2.9118L-11.7807 -0.45086ZM-5.66006 5.34992Q-5.22061 5.34992 -4.82022 5.33039Q-4.41983 5.31086 -4.18057 5.2718L-4.18057 3.01105Q-4.36124 2.97199 -4.72256 2.93293Q-5.07901 2.88898 -5.38174 2.88898Q-5.80167 2.88898 -6.17276 2.9427Q-6.53897 2.99152 -6.82217 3.13312Q-7.10049 3.26984 -7.26163 3.5091Q-7.41788 3.74836 -7.41788 4.10969Q-7.41788 4.80793 -6.94913 5.08137Q-6.48038 5.34992 -5.66006 5.34992ZM-5.89932 -3.37078Q-4.58096 -3.37078 -3.70206 -3.06805Q-2.81827 -2.7702 -2.29092 -2.20867Q-1.7587 -1.65203 -1.53897 -0.85125Q-1.31924 -0.0504689 -1.31924 0.930976L-1.31924 7.13215Q-1.95889 7.26887 -3.10147 7.4593Q-4.23917 7.64973 -5.86026 7.64973Q-6.88077 7.64973 -7.71085 7.46906Q-8.54092 7.2884 -9.14151 6.87824Q-9.7421 6.46809 -10.0644 5.80891Q-10.3817 5.14973 -10.3817 4.18781Q-10.3817 3.26984 -10.0107 2.6302Q-9.63956 1.99055 -9.01944 1.60969Q-8.39932 1.22883 -7.59854 1.06281Q-6.79776 0.891914 -5.93839 0.891914Q-5.36221 0.891914 -4.91299 0.940742Q-4.45889 0.98957 -4.18057 1.0677L-4.18057 0.789375Q-4.18057 0.0276561 -4.63956 -0.431328Q-5.09854 -0.890313 -6.24112 -0.890313Q-6.99796 -0.890313 -7.74014 -0.778008Q-8.48233 -0.670586 -9.01944 -0.470391L-9.4003 -2.86785Q-9.14151 -2.95086 -8.75089 -3.03875Q-8.36026 -3.13152 -7.90128 -3.19988Q-7.44229 -3.26824 -6.93448 -3.31707Q-6.42178 -3.37078 -5.89932 -3.37078ZM1.38136 -2.73113Q2.1382 -2.95086 3.33937 -3.14129Q4.54054 -3.33172 5.8589 -3.33172Q7.20168 -3.33172 8.09035 -2.98016Q8.97902 -2.62859 9.4966 -1.98895Q10.0191 -1.3493 10.2388 -0.470391Q10.4585 0.408515 10.4585 1.48762L10.4585 7.43L7.48 7.43L7.48 1.84895Q7.48 0.408515 7.09914 -0.187188Q6.71828 -0.787774 5.67824 -0.787774Q5.36086 -0.787774 4.99953 -0.758477Q4.6382 -0.72918 4.35988 -0.690117L4.35988 7.43L1.38136 7.43L1.38136 -2.73113ZM15.7004 1.82941Q15.7004 4.32941 17.7219 4.32941Q18.1809 4.32941 18.5813 4.21223Q18.9817 4.09016 19.26 3.92902L19.26 -0.831719Q19.0403 -0.870781 18.7375 -0.900078Q18.4397 -0.929375 18.0393 -0.929375Q16.8576 -0.929375 16.2766 -0.148125Q15.7004 0.628242 15.7004 1.82941ZM22.2385 6.11164Q22.2385 8.68977 20.9299 9.93977Q19.6213 11.1898 16.882 11.1898Q15.9201 11.1898 14.9582 11.0189Q14.0012 10.848 13.1809 10.5696L13.6985 8.06965Q14.4016 8.34797 15.1682 8.5091Q15.9397 8.67023 16.9211 8.67023Q18.2004 8.67023 18.7278 8.10871Q19.26 7.55207 19.26 6.66828L19.26 6.2923Q18.7815 6.51203 18.2688 6.62434Q17.761 6.73176 17.1604 6.73176Q14.9778 6.73176 13.8156 5.4427Q12.6584 4.14875 12.6584 1.82941Q12.6584 0.672187 13.0197 -0.279961Q13.3811 -1.23211 14.0695 -1.91082Q14.758 -2.58953 15.759 -2.96063Q16.76 -3.33172 18.0197 -3.33172Q18.5617 -3.33172 19.1281 -3.27801Q19.6994 -3.22918 20.2561 -3.14617Q20.8176 -3.06805 21.3254 -2.95574Q21.8381 -2.84832 22.2385 -2.73113L22.2385 6.11164ZM24.5384 2.24934Q24.5384 0.847969 24.9681 -0.201836Q25.3978 -1.25164 26.096 -1.94988Q26.7991 -2.64813 27.7074 -3.00945Q28.6204 -3.37078 29.5824 -3.37078Q31.8187 -3.37078 33.1175 -1.99871Q34.4212 -0.631524 34.4212 2.02961Q34.4212 2.2884 34.4017 2.6009Q34.3822 2.90852 34.3577 3.14777L27.5999 3.14777Q27.6976 4.07062 28.4593 4.61262Q29.221 5.14973 30.5003 5.14973Q31.3206 5.14973 32.1068 5.00324Q32.8978 4.85187 33.4007 4.63215L33.8011 7.04914Q33.5618 7.17121 33.1615 7.29328Q32.7611 7.41047 32.2679 7.49836Q31.7796 7.59113 31.2181 7.64973Q30.6615 7.70832 30.0999 7.70832Q28.679 7.70832 27.6292 7.2884Q26.5794 6.86848 25.8861 6.14094Q25.1976 5.40852 24.8656 4.41242Q24.5384 3.41145 24.5384 2.24934ZM31.5404 1.11164Q31.5208 0.730781 31.4085 0.369453Q31.3011 0.00812483 31.0716 -0.270195Q30.8421 -0.548516 30.4906 -0.72918Q30.139 -0.909844 29.6214 -0.909844Q29.1185 -0.909844 28.7572 -0.738945Q28.4007 -0.568047 28.1615 -0.289727Q27.9222 -0.0114064 27.7904 0.359687Q27.6585 0.730781 27.5999 1.11164L31.5404 1.11164Z"/>
	<path fill="white" transform="translate(55 79.2857)" d="M-31.1012 0.491523Q-31.1012 1.51203 -30.8522 2.33234Q-30.5983 3.14777 -30.1295 3.73859Q-29.6608 4.32941 -28.9821 4.65168Q-28.2985 4.96906 -27.4196 4.96906Q-26.5602 4.96906 -25.8717 4.65168Q-25.1784 4.32941 -24.7096 3.73859Q-24.2409 3.14777 -23.9918 2.33234Q-23.7379 1.51203 -23.7379 0.491523Q-23.7379 -0.528985 -23.9918 -1.35906Q-24.2409 -2.18914 -24.7096 -2.77996Q-25.1784 -3.37078 -25.8717 -3.68816Q-26.5602 -4.01043 -27.4196 -4.01043Q-28.2985 -4.01043 -28.9821 -3.6784Q-29.6608 -3.35125 -30.1295 -2.76043Q-30.5983 -2.16961 -30.8522 -1.33953Q-31.1012 -0.509453 -31.1012 0.491523ZM-20.5202 0.491523Q-20.5202 2.26887 -21.0524 3.62141Q-21.5797 4.96906 -22.5026 5.88215Q-23.4205 6.79035 -24.6901 7.24934Q-25.9596 7.70832 -27.4196 7.70832Q-28.8405 7.70832 -30.1002 7.24934Q-31.36 6.79035 -32.3024 5.88215Q-33.2399 4.96906 -33.7819 3.62141Q-34.319 2.26887 -34.319 0.491523Q-34.319 -1.2907 -33.7623 -2.63836Q-33.2008 -3.9909 -32.2536 -4.90887Q-31.3014 -5.83172 -30.0514 -6.2907Q-28.8014 -6.74969 -27.4196 -6.74969Q-25.9987 -6.74969 -24.7389 -6.2907Q-23.4791 -5.83172 -22.5416 -4.90887Q-21.5993 -3.9909 -21.0621 -2.63836Q-20.5202 -1.2907 -20.5202 0.491523ZM-11.7807 -0.45086Q-12.1811 -0.548516 -12.7231 -0.655938Q-13.2602 -0.768242 -13.8803 -0.768242Q-14.1586 -0.768242 -14.5493 -0.719414Q-14.9399 -0.670586 -15.1401 -0.611992L-15.1401 7.43L-18.1186 7.43L-18.1186 -2.53094Q-17.3178 -2.80926 -16.229 -3.05828Q-15.1401 -3.31219 -13.8022 -3.31219Q-13.5581 -3.31219 -13.2211 -3.27801Q-12.8793 -3.24871 -12.5424 -3.19988Q-12.2006 -3.15105 -11.8637 -3.07781Q-11.5219 -3.00945 -11.2778 -2.9118L-11.7807 -0.45086ZM-5.66006 5.34992Q-5.22061 5.34992 -4.82022 5.33039Q-4.41983 5.31086 -4.18057 5.2718L-4.18057 3.01105Q-4.36124 2.97199 -4.72256 2.93293Q-5.07901 2.88898 -5.38174 2.88898Q-5.80167 2.88898 -6.17276 2.9427Q-6.53897 2.99152 -6.82217 3.13312Q-7.10049 3.26984 -7.26163 3.5091Q-7.41788 3.74836 -7.41788 4.10969Q-7.41788 4.80793 -6.94913 5.08137Q-6.48038 5.34992 -5.66006 5.34992ZM-5.89932 -3.37078Q-4.58096 -3.37078 -3.70206 -3.06805Q-2.81827 -2.7702 -2.29092 -2.20867Q-1.7587 -1.65203 -1.53897 -0.85125Q-1.31924 -0.0504689 -1.31924 0.930976L-1.31924 7.13215Q-1.95889 7.26887 -3.10147 7.4593Q-4.23917 7.64973 -5.86026 7.64973Q-6.88077 7.64973 -7.71085 7.46906Q-8.54092 7.2884 -9.14151 6.87824Q-9.7421 6.46809 -10.0644 5.80891Q-10.3817 5.14973 -10.3817 4.18781Q-10.3817 3.26984 -10.0107 2.6302Q-9.63956 1.99055 -9.01944 1.60969Q-8.39932 1.22883 -7.59854 1.06281Q-6.79776 0.891914 -5.93839 0.891914Q-5.36221 0.891914 -4.91299 0.940742Q-4.45889 0.98957 -4.18057 1.0677L-4.18057 0.789375Q-4.18057 0.0276561 -4.63956 -0.431328Q-5.09854 -0.890313 -6.24112 -0.890313Q-6.99796 -0.890313 -7.74014 -0.778008Q-8.48233 -0.670586 -9.01944 -0.470391L-9.4003 -2.86785Q-9.14151 -2.95086 -8.75089 -3.03875Q-8.36026 -3.13152 -7.90128 -3.19988Q-7.44229 -3.26824 -6.93448 -3.31707Q-6.42178 -3.37078 -5.89932 -3.37078ZM1.38136 -2.73113Q2.1382 -2.95086 3.33937 -3.14129Q4.54054 -3.33172 5.8589 -3.33172Q7.20168 -3.33172 8.09035 -2.98016Q8.97902 -2.62859 9.4966 -1.98895Q10.0191 -1.3493 10.2388 -0.470391Q10.4585 0.408515 10.4585 1.48762L10.4585 7.43L7.48 7.43L7.48 1.84895Q7.48 0.408515 7.09914 -0.187188Q6.71828 -0.787774 5.67824 -0.787774Q5.36086 -0.787774 4.99953 -0.758477Q4.6382 -0.72918 4.35988 -0.690117L4.35988 7.43L1.38136 7.43L1.38136 -2.73113ZM15.7004 1.82941Q15.7004 4.32941 17.7219 4.32941Q18.1809 4.32941 18.5813 4.21223Q18.9817 4.09016 19.26 3.92902L19.26 -0.831719Q19.0403 -0.870781 18.7375 -0.900078Q18.4397 -0.929375 18.0393 -0.929375Q16.8576 -0.929375 16.2766 -0.148125Q15.7004 0.628242 15.7004 1.82941ZM22.2385 6.11164Q22.2385 8.68977 20.9299 9.93977Q19.6213 11.1898 16.882 11.1898Q15.9201 11.1898 14.9582 11.0189Q14.0012 10.848 13.1809 10.5696L13.6985 8.06965Q14.4016 8.34797 15.1682 8.5091Q15.9397 8.67023 16.9211 8.67023Q18.2004 8.67023 18.7278 8.10871Q19.26 7.55207 19.26 6.66828L19.26 6.2923Q18.7815 6.51203 18.2688 6.62434Q17.761 6.73176 17.1604 6.73176Q14.9778 6.73176 13.8156 5.4427Q12.6584 4.14875 12.6584 1.82941Q12.6584 0.672187 13.0197 -0.279961Q13.3811 -1.23211 14.0695 -1.91082Q14.758 -2.58953 15.759 -2.96063Q16.76 -3.33172 18.0197 -3.33172Q18.5617 -3.33172 19.1281 -3.27801Q19.6994 -3.22918 20.2561 -3.14617Q20.8176 -3.06805 21.3254 -2.95574Q21.8381 -2.84832 22.2385 -2.73113L22.2385 6.11164ZM24.5384 2.24934Q24.5384 0.847969 24.9681 -0.201836Q25.3978 -1.25164 26.096 -1.94988Q26.7991 -2.64813 27.7074 -3.00945Q28.6204 -3.37078 29.5824 -3.37078Q31.8187 -3.37078 33.1175 -1.99871Q34.4212 -0.631524 34.4212 2.02961Q34.4212 2.2884 34.4017 2.6009Q34.3822 2.90852 34.3577 3.14777L27.5999 3.14777Q27.6976 4.07062 28.4593 4.61262Q29.221 5.14973 30.5003 5.14973Q31.3206 5.14973 32.1068 5.00324Q32.8978 4.85187 33.4007 4.63215L33.8011 7.04914Q33.5618 7.17121 33.1615 7.29328Q32.7611 7.41047 32.2679 7.49836Q31.7796 7.59113 31.2181 7.64973Q30.6615 7.70832 30.0999 7.70832Q28.679 7.70832 27.6292 7.2884Q26.5794 6.86848 25.8861 6.14094Q25.1976 5.40852 24.8656 4.41242Q24.5384 3.41145 24.5384 2.24934ZM31.5404 1.11164Q31.5208 0.730781 31.4085 0.369453Q31.3011 0.00812483 31.0716 -0.270195Q30.8421 -0.548516 30.4906 -0.72918Q30.139 -0.909844 29.6214 -0.909844Q29.1185 -0.909844 28.7572 -0.738945Q28.4007 -0.568047 28.1615 -0.289727Q27.9222 -0.0114064 27.7904 0.359687Q27.6585 0.730781 27.5999 1.11164L31.5404 1.11164Z"/>
</svg>
