<svg xmlns="http://www.w3.org/2000/svg" xmlns:xlink="http://www.w3.org/1999/xlink" width="110" height="110">
	<path fill="#A88642" transform="matrix(0.16028 0.102915 -0.102915 0.16028 46.3952 8.37791)" d="M151.415 22.141Q149.942 22.141 148.471 22.2133Q147 22.2855 145.534 22.4299Q144.068 22.5743 142.611 22.7904Q141.154 23.0065 139.71 23.2939Q138.265 23.5812 136.836 23.9391Q135.407 24.297 133.998 24.7246Q132.588 25.1521 131.202 25.6484Q129.815 26.1446 128.454 26.7082Q127.093 27.2719 125.762 27.9016Q124.43 28.5314 123.131 29.2257Q121.832 29.9201 120.569 30.6773Q119.305 31.4345 118.081 32.2528Q116.856 33.0711 115.673 33.9486Q114.49 34.826 113.351 35.7604Q112.213 36.6948 111.121 37.6839Q110.03 38.6731 108.989 39.7146Q107.947 40.7561 106.958 41.8475Q105.969 42.9388 105.034 44.0774Q104.1 45.216 103.223 46.399Q102.345 47.5821 101.527 48.8068Q100.709 50.0315 99.9513 51.2948Q99.1941 52.5582 98.4997 53.8572Q97.8054 55.1562 97.1756 56.4877Q96.5459 57.8192 95.9822 59.18Q95.4186 60.5408 94.9223 61.9276Q94.4261 63.3144 93.9986 64.7239Q93.571 66.1334 93.2131 67.5622Q92.8552 68.991 92.5679 70.4356Q92.2805 71.8802 92.0644 73.3372Q91.8483 74.7942 91.7039 76.26Q91.5596 77.7258 91.4873 79.1969Q91.415 80.6681 91.415 82.141Q91.415 83.6139 91.4873 85.0851Q91.5596 86.5562 91.7039 88.022Q91.8483 89.4879 92.0644 90.9448Q92.2805 92.4018 92.5679 93.8464Q92.8552 95.291 93.2131 96.7198Q93.571 98.1486 93.9986 99.5581Q94.4261 100.968 94.9224 102.354Q95.4186 103.741 95.9822 105.102Q96.5459 106.463 97.1756 107.794Q97.8054 109.126 98.4997 110.425Q99.1941 111.724 99.9513 112.987Q100.709 114.251 101.527 115.475Q102.345 116.7 103.223 117.883Q104.1 119.066 105.034 120.205Q105.969 121.343 106.958 122.435Q107.947 123.526 108.989 124.567Q110.03 125.609 111.121 126.598Q112.213 127.587 113.351 128.522Q114.49 129.456 115.673 130.333Q116.856 131.211 118.081 132.029Q119.305 132.847 120.569 133.605Q121.832 134.362 123.131 135.056Q124.43 135.751 125.762 136.38Q127.093 137.01 128.454 137.574Q129.815 138.137 131.202 138.634Q132.588 139.13 133.998 139.557Q135.407 139.985 136.836 140.343Q138.265 140.701 139.71 140.988Q141.154 141.275 142.611 141.492Q144.068 141.708 145.534 141.852Q147 141.996 148.471 142.069Q149.942 142.141 151.415 142.141Q152.888 142.141 154.359 142.069Q155.83 141.996 157.296 141.852Q158.762 141.708 160.219 141.492Q161.676 141.275 163.12 140.988Q164.565 140.701 165.994 140.343Q167.423 139.985 168.832 139.557Q170.242 139.13 171.628 138.634Q173.015 138.137 174.376 137.574Q175.737 137.01 177.068 136.38Q178.4 135.751 179.699 135.056Q180.998 134.362 182.261 133.605Q183.525 132.847 184.749 132.029Q185.974 131.211 187.157 130.333Q188.34 129.456 189.479 128.522Q190.617 127.587 191.709 126.598Q192.8 125.609 193.841 124.567Q194.883 123.526 195.872 122.435Q196.861 121.343 197.796 120.205Q198.73 119.066 199.607 117.883Q200.485 116.7 201.303 115.475Q202.121 114.251 202.879 112.987Q203.636 111.724 204.33 110.425Q205.025 109.126 205.654 107.794Q206.284 106.463 206.848 105.102Q207.411 103.741 207.908 102.354Q208.404 100.968 208.831 99.5581Q209.259 98.1486 209.617 96.7198Q209.975 95.291 210.262 93.8464Q210.549 92.4018 210.766 90.9448Q210.982 89.4879 211.126 88.022Q211.27 86.5562 211.343 85.0851Q211.415 83.6139 211.415 82.141Q211.415 80.6681 211.343 79.197Q211.27 77.7258 211.126 76.26Q210.982 74.7942 210.766 73.3372Q210.549 71.8802 210.262 70.4356Q209.975 68.991 209.617 67.5622Q209.259 66.1334 208.831 64.7239Q208.404 63.3144 207.908 61.9276Q207.411 60.5408 206.848 59.18Q206.284 57.8192 205.654 56.4877Q205.025 55.1562 204.33 53.8572Q203.636 52.5582 202.879 51.2948Q202.121 50.0315 201.303 48.8068Q200.485 47.5821 199.607 46.399Q198.73 45.216 197.796 44.0774Q196.861 42.9388 195.872 41.8475Q194.883 40.7561 193.841 39.7146Q192.8 38.6731 191.709 37.6839Q190.617 36.6948 189.479 35.7604Q188.34 34.826 187.157 33.9486Q185.974 33.0711 184.749 32.2528Q183.525 31.4345 182.261 30.6773Q180.998 29.9201 179.699 29.2257Q178.4 28.5314 177.068 27.9016Q175.737 27.2719 174.376 26.7082Q173.015 26.1446 171.628 25.6484Q170.242 25.1522 168.832 24.7246Q167.423 24.297 165.994 23.9391Q164.565 23.5812 163.12 23.2939Q161.676 23.0065 160.219 22.7904Q158.762 22.5743 157.296 22.4299Q155.83 22.2856 154.359 22.2133Q152.888 22.141 151.415 22.141L151.415 22.141Z"/>
	<path fill="#886D35" transform="matrix(0.16028 0.102915 -0.102915 0.16028 46.3952 8.37791)" d="M151.415 32.141Q130.704 32.141 116.06 46.7857Q101.415 61.4303 101.415 82.141Q101.415 102.852 116.06 117.496Q130.704 132.141 151.415 132.141Q172.126 132.141 186.77 117.496Q201.415 102.852 201.415 82.141Q201.415 61.4303 186.77 46.7857Q172.126 32.141 151.415 32.141ZM151.415 12.141Q180.41 12.141 200.912 32.6435Q221.415 53.1461 221.415 82.141Q221.415 111.136 200.912 131.638Q180.41 152.141 151.415 152.141Q122.42 152.141 101.918 131.638Q81.415 111.136 81.415 82.141Q81.415 53.146 101.918 32.6435Q122.42 12.141 151.415 12.141L151.415 12.141Z"/>
	<path fill="#A88642" transform="matrix(0.16028 0.102915 -0.102915 0.16028 46.3952 8.37791)" d="M106.955 290.938C106.955 233.538 83.788 199.926 83.788 142.926C83.788 97.326 140.015 97.326 140.015 97.326L162.815 97.326C162.815 97.326 219.042 98.284 219.042 143.884C219.042 200.884 195.875 233.537 195.875 290.937L106.955 290.937L106.955 290.938Z"/>
	<path fill="#886D35" transform="matrix(0.16028 0.102915 -0.102915 0.16028 46.3952 8.37791)" d="M97.835 290.938Q97.835 272.585 94.3473 253.159Q92.2272 241.351 86.5042 218.917Q80.6439 195.946 78.4204 183.578Q74.668 162.707 74.668 142.926Q74.668 123.984 85.5283 110.772Q94.0278 100.432 108.474 94.5744Q124.18 88.206 140.015 88.206L140.015 88.206L162.815 88.206Q178.794 88.4769 194.478 95.1041Q208.877 101.188 217.341 111.629Q228.162 124.977 228.162 143.884Q228.162 163.671 224.408 184.399Q222.182 196.683 216.32 219.42Q210.599 241.607 208.481 253.32Q204.995 272.59 204.995 290.937Q204.995 291.161 204.984 291.385Q204.973 291.608 204.951 291.831Q204.929 292.054 204.896 292.275Q204.863 292.497 204.82 292.716Q204.776 292.936 204.722 293.153Q204.667 293.37 204.602 293.584Q204.537 293.799 204.462 294.009Q204.386 294.22 204.301 294.427Q204.215 294.634 204.119 294.836Q204.024 295.039 203.918 295.236Q203.813 295.434 203.697 295.626Q203.582 295.818 203.458 296.004Q203.334 296.19 203.2 296.37Q203.067 296.55 202.925 296.723Q202.783 296.896 202.632 297.062Q202.482 297.227 202.324 297.386Q202.165 297.544 202 297.694Q201.834 297.845 201.661 297.987Q201.488 298.129 201.308 298.262Q201.128 298.396 200.942 298.52Q200.756 298.644 200.564 298.759Q200.372 298.875 200.174 298.98Q199.977 299.086 199.774 299.181Q199.572 299.277 199.365 299.363Q199.158 299.448 198.947 299.524Q198.737 299.599 198.522 299.664Q198.308 299.729 198.091 299.784Q197.874 299.838 197.654 299.882Q197.435 299.925 197.213 299.958Q196.992 299.991 196.769 300.013Q196.546 300.035 196.322 300.046Q196.099 300.057 195.875 300.057L106.955 300.057L106.955 290.937L116.075 290.937L116.075 290.938L106.955 290.938L97.835 290.938ZM116.075 290.938Q116.075 291.162 116.064 291.385Q116.053 291.609 116.031 291.832Q116.009 292.055 115.976 292.276Q115.943 292.498 115.9 292.717Q115.856 292.937 115.802 293.154Q115.747 293.371 115.682 293.585Q115.617 293.8 115.542 294.01Q115.466 294.221 115.381 294.428Q115.295 294.635 115.199 294.837Q115.104 295.04 114.998 295.237Q114.893 295.435 114.777 295.627Q114.662 295.819 114.538 296.005Q114.414 296.191 114.28 296.371Q114.147 296.551 114.005 296.724Q113.863 296.897 113.712 297.063Q113.562 297.228 113.404 297.387Q113.246 297.545 113.08 297.695Q112.914 297.846 112.741 297.988Q112.568 298.13 112.388 298.263Q112.208 298.397 112.022 298.521Q111.836 298.645 111.644 298.76Q111.452 298.876 111.254 298.981Q111.057 299.087 110.854 299.182Q110.652 299.278 110.445 299.364Q110.238 299.449 110.027 299.525Q109.817 299.6 109.602 299.665Q109.388 299.73 109.171 299.785Q108.954 299.839 108.734 299.883Q108.515 299.926 108.293 299.959Q108.072 299.992 107.849 300.014Q107.626 300.036 107.402 300.047Q107.179 300.058 106.955 300.058Q106.731 300.058 106.508 300.047Q106.284 300.036 106.061 300.014Q105.838 299.992 105.617 299.959Q105.395 299.926 105.176 299.883Q104.956 299.839 104.739 299.785Q104.522 299.73 104.308 299.665Q104.093 299.6 103.883 299.525Q103.672 299.449 103.465 299.364Q103.258 299.278 103.056 299.182Q102.853 299.087 102.656 298.981Q102.458 298.876 102.266 298.76Q102.074 298.645 101.888 298.521Q101.702 298.397 101.522 298.263Q101.342 298.13 101.169 297.988Q100.996 297.846 100.83 297.695Q100.664 297.545 100.506 297.387Q100.348 297.228 100.198 297.063Q100.047 296.897 99.9051 296.724Q99.7631 296.551 99.6297 296.371Q99.4964 296.191 99.372 296.005Q99.2476 295.819 99.1325 295.627Q99.0174 295.435 98.9119 295.237Q98.8063 295.04 98.7106 294.837Q98.6149 294.635 98.5292 294.428Q98.4435 294.221 98.3681 294.01Q98.2927 293.8 98.2277 293.585Q98.1627 293.371 98.1083 293.154Q98.0539 292.937 98.0102 292.717Q97.9666 292.498 97.9337 292.276Q97.9008 292.055 97.8789 291.832Q97.857 291.609 97.846 291.385Q97.835 291.162 97.835 290.938L97.835 290.937Q97.835 290.713 97.846 290.49Q97.857 290.266 97.8789 290.043Q97.9008 289.82 97.9337 289.599Q97.9666 289.377 98.0102 289.158Q98.0539 288.938 98.1083 288.721Q98.1627 288.504 98.2277 288.29Q98.2927 288.075 98.3681 287.865Q98.4435 287.654 98.5292 287.447Q98.6149 287.24 98.7106 287.038Q98.8063 286.835 98.9119 286.638Q99.0174 286.44 99.1325 286.248Q99.2476 286.056 99.372 285.87Q99.4964 285.684 99.6297 285.504Q99.7631 285.324 99.9051 285.151Q100.047 284.978 100.198 284.812Q100.348 284.647 100.506 284.488Q100.664 284.33 100.83 284.18Q100.996 284.029 101.169 283.887Q101.342 283.745 101.522 283.612Q101.702 283.478 101.888 283.354Q102.074 283.23 102.266 283.115Q102.458 282.999 102.656 282.894Q102.853 282.788 103.056 282.693Q103.258 282.597 103.465 282.511Q103.672 282.426 103.883 282.35Q104.093 282.275 104.308 282.21Q104.522 282.145 104.739 282.09Q104.956 282.036 105.176 281.992Q105.395 281.949 105.617 281.916Q105.838 281.883 106.061 281.861Q106.284 281.839 106.508 281.828Q106.731 281.817 106.955 281.817L195.875 281.817L195.875 290.937L186.755 290.937Q186.755 270.953 190.532 250.074Q192.77 237.702 198.658 214.866Q204.353 192.775 206.46 181.148Q209.922 162.033 209.922 143.884Q209.922 121.431 187.379 111.906Q174.95 106.654 162.815 106.446L140.015 106.446L140.015 106.446Q127.737 106.446 115.329 111.478Q92.908 120.569 92.908 142.926Q92.908 161.081 96.3725 180.351Q98.4801 192.073 104.178 214.408Q110.064 237.48 112.3 249.936Q116.075 270.96 116.075 290.938Z"/>
	<path fill="#A88642" transform="matrix(0.16028 0.102915 -0.102915 0.16028 46.3952 8.37791)" d="M151.415 30.841Q150.156 30.8416 148.899 30.904Q147.641 30.9664 146.388 31.0903Q145.136 31.2143 143.89 31.3996Q142.645 31.5849 141.41 31.831Q140.176 32.0771 138.955 32.3835Q137.734 32.6899 136.529 33.0559Q135.324 33.4218 134.139 33.8464Q132.954 34.271 131.791 34.7532Q130.628 35.2354 129.49 35.774Q128.352 36.3127 127.242 36.9066Q126.132 37.5004 125.052 38.148Q123.973 38.7955 122.926 39.4953Q121.88 40.1951 120.869 40.9453Q119.858 41.6956 118.885 42.4945Q117.912 43.2934 116.979 44.1391Q116.047 44.9848 115.157 45.8753Q114.267 46.7657 113.421 47.6987Q112.576 48.6317 111.778 49.6051Q110.979 50.5784 110.229 51.5898Q109.48 52.6011 108.78 53.6481Q108.081 54.695 107.434 55.7749Q106.787 56.8549 106.194 57.9652Q105.6 59.0756 105.062 60.2138Q104.524 61.3519 104.043 62.5151Q103.561 63.6783 103.137 64.8637Q102.713 66.0491 102.348 67.2539Q101.982 68.4587 101.676 69.6799Q101.371 70.9012 101.125 72.1359Q100.88 73.3707 100.695 74.616Q100.51 75.8614 100.387 77.1143Q100.264 78.3672 100.202 79.6246Q100.14 80.882 100.14 82.141Q100.14 83.3999 100.202 84.6574Q100.264 85.9148 100.387 87.1677Q100.51 88.4206 100.695 89.6659Q100.88 90.9113 101.125 92.1461Q101.371 93.3808 101.676 94.6021Q101.982 95.8233 102.348 97.0281Q102.713 98.2329 103.137 99.4183Q103.561 100.604 104.043 101.767Q104.524 102.93 105.062 104.068Q105.6 105.206 106.194 106.317Q106.787 107.427 107.434 108.507Q108.081 109.587 108.78 110.634Q109.48 111.681 110.229 112.692Q110.979 113.704 111.778 114.677Q112.576 115.65 113.421 116.583Q114.267 117.516 115.157 118.407Q116.047 119.297 116.979 120.143Q117.912 120.989 118.885 121.787Q119.858 122.586 120.869 123.337Q121.88 124.087 122.926 124.787Q123.973 125.486 125.052 126.134Q126.132 126.782 127.242 127.375Q128.352 127.969 129.49 128.508Q130.628 129.047 131.791 129.529Q132.954 130.011 134.139 130.436Q135.324 130.86 136.529 131.226Q137.734 131.592 138.955 131.898Q140.176 132.205 141.41 132.451Q142.645 132.697 143.89 132.882Q145.136 133.068 146.388 133.192Q147.641 133.316 148.899 133.378Q150.156 133.44 151.415 133.441Q152.674 133.441 153.932 133.378Q155.189 133.316 156.442 133.192Q157.695 133.069 158.94 132.883Q160.186 132.698 161.421 132.452Q162.655 132.206 163.877 131.9Q165.098 131.594 166.303 131.228Q167.507 130.862 168.693 130.438Q169.878 130.013 171.041 129.531Q172.204 129.049 173.342 128.51Q174.48 127.972 175.591 127.378Q176.701 126.784 177.781 126.137Q178.861 125.489 179.907 124.789Q180.954 124.09 181.965 123.339Q182.976 122.589 183.949 121.79Q184.922 120.991 185.855 120.145Q186.788 119.3 187.678 118.409Q188.568 117.519 189.414 116.586Q190.259 115.653 191.058 114.679Q191.856 113.706 192.606 112.695Q193.356 111.683 194.055 110.636Q194.755 109.589 195.402 108.509Q196.049 107.429 196.642 106.319Q197.236 105.208 197.774 104.07Q198.312 102.932 198.794 101.769Q199.276 100.605 199.7 99.4198Q200.124 98.2343 200.489 97.0294Q200.855 95.8245 201.161 94.6032Q201.466 93.3818 201.712 92.1469Q201.958 90.9121 202.142 89.6666Q202.327 88.4212 202.45 87.1682Q202.574 85.9152 202.636 84.6576Q202.697 83.4001 202.697 82.141Q202.697 80.8819 202.636 79.6244Q202.574 78.3668 202.45 77.1138Q202.327 75.8608 202.142 74.6154Q201.958 73.3699 201.712 72.135Q201.466 70.9001 201.161 69.6788Q200.855 68.4574 200.489 67.2526Q200.124 66.0477 199.7 64.8622Q199.276 63.6767 198.794 62.5134Q198.312 61.3502 197.774 60.2119Q197.236 59.0737 196.642 57.9632Q196.049 56.8528 195.402 55.7727Q194.755 54.6927 194.055 53.6458Q193.356 52.5988 192.606 51.5874Q191.856 50.576 191.058 49.6026Q190.259 48.6292 189.414 47.6962Q188.568 46.7631 187.678 45.8727Q186.788 44.9822 185.855 44.1365Q184.923 43.2908 183.949 42.4919Q182.976 41.6929 181.965 40.9427Q180.954 40.1925 179.907 39.4928Q178.861 38.793 177.781 38.1455Q176.701 37.498 175.591 36.9042Q174.48 36.3104 173.342 35.7718Q172.204 35.2332 171.041 34.7511Q169.878 34.2689 168.693 33.8444Q167.507 33.42 166.303 33.0541Q165.098 32.6883 163.877 32.382Q162.655 32.0757 161.421 31.8297Q160.186 31.5837 158.94 31.3986Q157.695 31.2135 156.442 31.0896Q155.189 30.9658 153.932 30.9036Q152.674 30.8414 151.415 30.841L151.415 30.841Z"/>
	<path fill="#886D35" transform="matrix(0.16028 0.102915 -0.102915 0.16028 46.3952 8.37791)" d="M150 116.5Q149.669 116.5 149.338 116.516Q149.007 116.533 148.677 116.565Q148.347 116.597 148.019 116.646Q147.691 116.695 147.366 116.759Q147.041 116.824 146.72 116.905Q146.398 116.985 146.081 117.081Q145.764 117.178 145.452 117.289Q145.14 117.401 144.834 117.528Q144.528 117.654 144.228 117.796Q143.928 117.938 143.636 118.094Q143.344 118.25 143.06 118.421Q142.775 118.591 142.5 118.775Q142.224 118.959 141.958 119.157Q141.692 119.354 141.436 119.564Q141.18 119.775 140.934 119.997Q140.688 120.22 140.454 120.454Q140.22 120.688 139.997 120.934Q139.775 121.18 139.564 121.436Q139.354 121.692 139.157 121.958Q138.959 122.224 138.775 122.5Q138.591 122.775 138.421 123.06Q138.25 123.344 138.094 123.636Q137.938 123.928 137.796 124.228Q137.654 124.528 137.528 124.834Q137.401 125.14 137.289 125.452Q137.178 125.764 137.081 126.081Q136.985 126.398 136.905 126.72Q136.824 127.041 136.759 127.366Q136.695 127.691 136.646 128.019Q136.597 128.347 136.565 128.677Q136.533 129.007 136.516 129.338Q136.5 129.669 136.5 130Q136.5 130.331 136.516 130.662Q136.533 130.993 136.565 131.323Q136.597 131.653 136.646 131.981Q136.695 132.309 136.759 132.634Q136.824 132.959 136.905 133.28Q136.985 133.602 137.081 133.919Q137.178 134.236 137.289 134.548Q137.401 134.86 137.528 135.166Q137.654 135.472 137.796 135.772Q137.938 136.072 138.094 136.364Q138.25 136.656 138.421 136.94Q138.591 137.225 138.775 137.5Q138.959 137.776 139.157 138.042Q139.354 138.308 139.564 138.564Q139.775 138.82 139.997 139.066Q140.22 139.312 140.454 139.546Q140.688 139.78 140.934 140.003Q141.18 140.225 141.436 140.436Q141.692 140.646 141.958 140.843Q142.224 141.041 142.5 141.225Q142.775 141.409 143.06 141.579Q143.344 141.75 143.636 141.906Q143.928 142.062 144.228 142.204Q144.528 142.346 144.834 142.472Q145.14 142.599 145.452 142.711Q145.764 142.822 146.081 142.919Q146.398 143.015 146.72 143.095Q147.041 143.176 147.366 143.241Q147.691 143.305 148.019 143.354Q148.347 143.403 148.677 143.435Q149.007 143.467 149.338 143.484Q149.669 143.5 150 143.5Q150.331 143.5 150.662 143.484Q150.993 143.467 151.323 143.435Q151.653 143.403 151.981 143.354Q152.309 143.305 152.634 143.241Q152.959 143.176 153.28 143.095Q153.602 143.015 153.919 142.919Q154.236 142.822 154.548 142.711Q154.86 142.599 155.166 142.472Q155.472 142.346 155.772 142.204Q156.072 142.062 156.364 141.906Q156.656 141.75 156.94 141.579Q157.225 141.409 157.5 141.225Q157.776 141.041 158.042 140.843Q158.308 140.646 158.564 140.436Q158.82 140.225 159.066 140.003Q159.312 139.78 159.546 139.546Q159.78 139.312 160.003 139.066Q160.225 138.82 160.436 138.564Q160.646 138.308 160.843 138.042Q161.041 137.776 161.225 137.5Q161.409 137.225 161.579 136.94Q161.75 136.656 161.906 136.364Q162.062 136.072 162.204 135.772Q162.346 135.472 162.472 135.166Q162.599 134.86 162.711 134.548Q162.822 134.236 162.919 133.919Q163.015 133.602 163.095 133.28Q163.176 132.959 163.241 132.634Q163.305 132.309 163.354 131.981Q163.403 131.653 163.435 131.323Q163.467 130.993 163.484 130.662Q163.5 130.331 163.5 130Q163.5 129.669 163.484 129.338Q163.467 129.007 163.435 128.677Q163.403 128.347 163.354 128.019Q163.305 127.691 163.241 127.366Q163.176 127.041 163.095 126.72Q163.015 126.398 162.919 126.081Q162.822 125.764 162.711 125.452Q162.599 125.14 162.472 124.834Q162.346 124.528 162.204 124.228Q162.062 123.928 161.906 123.636Q161.75 123.344 161.579 123.06Q161.409 122.775 161.225 122.5Q161.041 122.224 160.843 121.958Q160.646 121.692 160.436 121.436Q160.225 121.18 160.003 120.934Q159.78 120.688 159.546 120.454Q159.312 120.22 159.066 119.997Q158.82 119.775 158.564 119.564Q158.308 119.354 158.042 119.157Q157.776 118.959 157.5 118.775Q157.225 118.591 156.94 118.421Q156.656 118.25 156.364 118.094Q156.072 117.938 155.772 117.796Q155.472 117.654 155.166 117.528Q154.86 117.401 154.548 117.289Q154.236 117.178 153.919 117.081Q153.602 116.985 153.28 116.905Q152.959 116.824 152.634 116.759Q152.309 116.695 151.981 116.646Q151.653 116.597 151.323 116.565Q150.993 116.533 150.662 116.516Q150.331 116.5 150 116.5ZM150 161.5Q149.669 161.5 149.338 161.516Q149.007 161.533 148.677 161.565Q148.347 161.598 148.019 161.646Q147.691 161.695 147.366 161.759Q147.041 161.824 146.72 161.905Q146.398 161.985 146.081 162.081Q145.764 162.178 145.452 162.289Q145.14 162.401 144.834 162.528Q144.528 162.654 144.228 162.796Q143.928 162.938 143.636 163.094Q143.344 163.25 143.06 163.421Q142.775 163.591 142.5 163.775Q142.224 163.959 141.958 164.157Q141.692 164.354 141.436 164.564Q141.18 164.775 140.934 164.997Q140.688 165.22 140.454 165.454Q140.22 165.688 139.997 165.934Q139.775 166.179 139.564 166.436Q139.354 166.692 139.157 166.958Q138.959 167.224 138.775 167.5Q138.591 167.775 138.421 168.06Q138.25 168.344 138.094 168.636Q137.938 168.928 137.796 169.228Q137.654 169.528 137.528 169.834Q137.401 170.14 137.289 170.452Q137.178 170.764 137.081 171.081Q136.985 171.398 136.905 171.72Q136.824 172.041 136.759 172.366Q136.695 172.691 136.646 173.019Q136.597 173.347 136.565 173.677Q136.533 174.007 136.516 174.338Q136.5 174.669 136.5 175Q136.5 175.331 136.516 175.662Q136.533 175.993 136.565 176.323Q136.597 176.653 136.646 176.981Q136.695 177.309 136.759 177.634Q136.824 177.959 136.905 178.28Q136.985 178.602 137.081 178.919Q137.178 179.236 137.289 179.548Q137.401 179.86 137.528 180.166Q137.654 180.472 137.796 180.772Q137.938 181.072 138.094 181.364Q138.25 181.656 138.421 181.94Q138.591 182.225 138.775 182.5Q138.959 182.776 139.157 183.042Q139.354 183.308 139.564 183.564Q139.775 183.82 139.997 184.066Q140.22 184.312 140.454 184.546Q140.688 184.78 140.934 185.003Q141.18 185.225 141.436 185.436Q141.692 185.646 141.958 185.843Q142.224 186.041 142.5 186.225Q142.775 186.409 143.06 186.579Q143.344 186.75 143.636 186.906Q143.928 187.062 144.228 187.204Q144.528 187.346 144.834 187.472Q145.14 187.599 145.452 187.711Q145.764 187.822 146.081 187.919Q146.398 188.015 146.72 188.095Q147.041 188.176 147.366 188.241Q147.691 188.305 148.019 188.354Q148.347 188.403 148.677 188.435Q149.007 188.467 149.338 188.484Q149.669 188.5 150 188.5Q150.331 188.5 150.662 188.484Q150.993 188.467 151.323 188.435Q151.653 188.403 151.981 188.354Q152.309 188.305 152.634 188.241Q152.959 188.176 153.28 188.095Q153.602 188.015 153.919 187.919Q154.236 187.822 154.548 187.711Q154.86 187.599 155.166 187.472Q155.472 187.346 155.772 187.204Q156.072 187.062 156.364 186.906Q156.656 186.75 156.94 186.579Q157.225 186.409 157.5 186.225Q157.776 186.041 158.042 185.843Q158.308 185.646 158.564 185.436Q158.82 185.225 159.066 185.003Q159.312 184.78 159.546 184.546Q159.78 184.312 160.003 184.066Q160.225 183.82 160.436 183.564Q160.646 183.308 160.843 183.042Q161.041 182.776 161.225 182.5Q161.409 182.225 161.579 181.94Q161.75 181.656 161.906 181.364Q162.062 181.072 162.204 180.772Q162.346 180.472 162.472 180.166Q162.599 179.86 162.711 179.548Q162.822 179.236 162.919 178.919Q163.015 178.602 163.095 178.28Q163.176 177.959 163.241 177.634Q163.305 177.309 163.354 176.981Q163.403 176.653 163.435 176.323Q163.467 175.993 163.484 175.662Q163.5 175.331 163.5 175Q163.5 174.669 163.484 174.338Q163.467 174.007 163.435 173.677Q163.403 173.347 163.354 173.019Q163.305 172.691 163.241 172.366Q163.176 172.041 163.095 171.72Q163.015 171.398 162.919 171.081Q162.822 170.764 162.711 170.452Q162.599 170.14 162.472 169.834Q162.346 169.528 162.204 169.228Q162.062 168.928 161.906 168.636Q161.75 168.344 161.579 168.06Q161.409 167.775 161.225 167.5Q161.041 167.224 160.843 166.958Q160.646 166.692 160.436 166.436Q160.225 166.179 160.003 165.934Q159.78 165.688 159.546 165.454Q159.312 165.22 159.066 164.997Q158.82 164.775 158.564 164.564Q158.308 164.354 158.042 164.157Q157.776 163.959 157.5 163.775Q157.225 163.591 156.94 163.421Q156.656 163.25 156.364 163.094Q156.072 162.938 155.772 162.796Q155.472 162.654 155.166 162.528Q154.86 162.401 154.548 162.289Q154.236 162.178 153.919 162.081Q153.602 161.985 153.28 161.905Q152.959 161.824 152.634 161.759Q152.309 161.695 151.981 161.646Q151.653 161.598 151.323 161.565Q150.993 161.533 150.662 161.516Q150.331 161.5 150 161.5ZM150 206.5Q149.669 206.5 149.338 206.516Q149.007 206.533 148.677 206.565Q148.347 206.598 148.019 206.646Q147.691 206.695 147.366 206.759Q147.041 206.824 146.72 206.905Q146.398 206.985 146.081 207.081Q145.764 207.178 145.452 207.289Q145.14 207.401 144.834 207.528Q144.528 207.654 144.228 207.796Q143.928 207.938 143.636 208.094Q143.344 208.25 143.06 208.421Q142.775 208.591 142.5 208.775Q142.224 208.959 141.958 209.157Q141.692 209.354 141.436 209.564Q141.18 209.775 140.934 209.997Q140.688 210.22 140.454 210.454Q140.22 210.688 139.997 210.934Q139.775 211.18 139.564 211.436Q139.354 211.692 139.157 211.958Q138.959 212.224 138.775 212.5Q138.591 212.775 138.421 213.06Q138.25 213.344 138.094 213.636Q137.938 213.928 137.796 214.228Q137.654 214.528 137.528 214.834Q137.401 215.14 137.289 215.452Q137.178 215.764 137.081 216.081Q136.985 216.398 136.905 216.72Q136.824 217.041 136.759 217.366Q136.695 217.691 136.646 218.019Q136.597 218.347 136.565 218.677Q136.533 219.007 136.516 219.338Q136.5 219.669 136.5 220Q136.5 220.331 136.516 220.662Q136.533 220.993 136.565 221.323Q136.597 221.653 136.646 221.981Q136.695 222.309 136.759 222.634Q136.824 222.959 136.905 223.28Q136.985 223.602 137.081 223.919Q137.178 224.236 137.289 224.548Q137.401 224.86 137.528 225.166Q137.654 225.472 137.796 225.772Q137.938 226.072 138.094 226.364Q138.25 226.656 138.421 226.94Q138.591 227.225 138.775 227.5Q138.959 227.776 139.157 228.042Q139.354 228.308 139.564 228.564Q139.775 228.82 139.997 229.066Q140.22 229.312 140.454 229.546Q140.688 229.78 140.934 230.003Q141.18 230.225 141.436 230.436Q141.692 230.646 141.958 230.843Q142.224 231.041 142.5 231.225Q142.775 231.409 143.06 231.579Q143.344 231.75 143.636 231.906Q143.928 232.062 144.228 232.204Q144.528 232.346 144.834 232.472Q145.14 232.599 145.452 232.711Q145.764 232.822 146.081 232.919Q146.398 233.015 146.72 233.095Q147.041 233.176 147.366 233.241Q147.691 233.305 148.019 233.354Q148.347 233.403 148.677 233.435Q149.007 233.467 149.338 233.484Q149.669 233.5 150 233.5Q150.331 233.5 150.662 233.484Q150.993 233.467 151.323 233.435Q151.653 233.403 151.981 233.354Q152.309 233.305 152.634 233.241Q152.959 233.176 153.28 233.095Q153.602 233.015 153.919 232.919Q154.236 232.822 154.548 232.711Q154.86 232.599 155.166 232.472Q155.472 232.346 155.772 232.204Q156.072 232.062 156.364 231.906Q156.656 231.75 156.94 231.579Q157.225 231.409 157.5 231.225Q157.776 231.041 158.042 230.843Q158.308 230.646 158.564 230.436Q158.82 230.225 159.066 230.003Q159.312 229.78 159.546 229.546Q159.78 229.312 160.003 229.066Q160.225 228.82 160.436 228.564Q160.646 228.308 160.843 228.042Q161.041 227.776 161.225 227.5Q161.409 227.225 161.579 226.94Q161.75 226.656 161.906 226.364Q162.062 226.072 162.204 225.772Q162.346 225.472 162.472 225.166Q162.599 224.86 162.711 224.548Q162.822 224.236 162.919 223.919Q163.015 223.602 163.095 223.28Q163.176 222.959 163.241 222.634Q163.305 222.309 163.354 221.981Q163.403 221.653 163.435 221.323Q163.467 220.993 163.484 220.662Q163.5 220.331 163.5 220Q163.5 219.669 163.484 219.338Q163.467 219.007 163.435 218.677Q163.403 218.347 163.354 218.019Q163.305 217.691 163.241 217.366Q163.176 217.041 163.095 216.72Q163.015 216.398 162.919 216.081Q162.822 215.764 162.711 215.452Q162.599 215.14 162.472 214.834Q162.346 214.528 162.204 214.228Q162.062 213.928 161.906 213.636Q161.75 213.344 161.579 213.06Q161.409 212.775 161.225 212.5Q161.041 212.224 160.843 211.958Q160.646 211.692 160.436 211.436Q160.225 211.18 160.003 210.934Q159.78 210.688 159.546 210.454Q159.312 210.22 159.066 209.997Q158.82 209.775 158.564 209.564Q158.308 209.354 158.042 209.157Q157.776 208.959 157.5 208.775Q157.225 208.591 156.94 208.421Q156.656 208.25 156.364 208.094Q156.072 207.938 155.772 207.796Q155.472 207.654 155.166 207.528Q154.86 207.401 154.548 207.289Q154.236 207.178 153.919 207.081Q153.602 206.985 153.28 206.905Q152.959 206.824 152.634 206.759Q152.309 206.695 151.981 206.646Q151.653 206.598 151.323 206.565Q150.993 206.533 150.662 206.516Q150.331 206.5 150 206.5Z"/>
	<path fill="#886D35" transform="matrix(0.16028 0.102915 -0.102915 0.16028 46.3952 8.37791)" d="M135.807 90C123.277 76.766 113.69 48.1 123.367 30L140.589 30C130.899 44.575 130.787 73.307 135.807 90ZM164.193 90C176.723 76.766 186.31 48.1 176.633 30L159.41 30C169.1 44.575 169.212 73.307 164.192 90L164.193 90Z"/>
	<path fill="#886D35" transform="matrix(0.16028 0.102915 -0.102915 0.16028 46.3952 8.37791)" d="M131.886 93.7127Q120.676 81.8727 116.019 63.1267Q110.789 42.0738 118.605 27.454Q118.691 27.2932 118.787 27.1386Q118.884 26.984 118.991 26.8363Q119.098 26.6886 119.214 26.5484Q119.331 26.4082 119.456 26.2762Q119.582 26.1442 119.716 26.0209Q119.851 25.8977 119.993 25.7838Q120.135 25.6699 120.285 25.5659Q120.435 25.4618 120.591 25.3681Q120.747 25.2744 120.91 25.1915Q121.072 25.1085 121.24 25.0367Q121.407 24.9649 121.579 24.9045Q121.751 24.8442 121.927 24.7956Q122.103 24.747 122.281 24.7103Q122.46 24.6736 122.64 24.6491Q122.821 24.6246 123.003 24.6123Q123.185 24.6 123.367 24.6L140.589 24.6Q140.722 24.6 140.854 24.6065Q140.986 24.613 141.118 24.626Q141.25 24.639 141.381 24.6584Q141.512 24.6779 141.642 24.7038Q141.772 24.7296 141.901 24.7618Q142.03 24.794 142.157 24.8325Q142.283 24.871 142.408 24.9157Q142.533 24.9603 142.655 25.011Q142.778 25.0618 142.898 25.1185Q143.018 25.1751 143.135 25.2376Q143.251 25.3001 143.365 25.3683Q143.479 25.4364 143.589 25.5101Q143.699 25.5837 143.806 25.6627Q143.912 25.7416 144.015 25.8257Q144.117 25.9098 144.215 25.9989Q144.314 26.0879 144.407 26.1816Q144.501 26.2754 144.59 26.3736Q144.679 26.4718 144.763 26.5743Q144.847 26.6767 144.926 26.7832Q145.005 26.8897 145.079 26.9999Q145.153 27.1101 145.221 27.2238Q145.289 27.3375 145.351 27.4545Q145.414 27.5714 145.471 27.6912Q145.527 27.811 145.578 27.9335Q145.629 28.056 145.673 28.1808Q145.718 28.3056 145.756 28.4325Q145.795 28.5593 145.827 28.6879Q145.859 28.8165 145.885 28.9465Q145.911 29.0765 145.931 29.2077Q145.95 29.3388 145.963 29.4707Q145.976 29.6026 145.982 29.735Q145.989 29.8674 145.989 30Q145.989 30.3968 145.931 30.7893Q145.873 31.1818 145.758 31.5616Q145.644 31.9414 145.475 32.3003Q145.306 32.6593 145.086 32.9897Q139.034 42.0928 138.074 59.5031Q137.175 75.7975 140.978 88.4449Q141.016 88.5718 141.048 88.7005Q141.08 88.8292 141.106 88.9592Q141.131 89.0893 141.15 89.2205Q141.17 89.3517 141.182 89.4836Q141.195 89.6156 141.201 89.748Q141.207 89.8804 141.207 90.013Q141.207 90.1455 141.2 90.2779Q141.193 90.4103 141.18 90.5422Q141.166 90.6741 141.147 90.8052Q141.127 90.9362 141.101 91.0662Q141.075 91.1962 141.042 91.3247Q141.009 91.4532 140.971 91.5799Q140.932 91.7067 140.887 91.8314Q140.842 91.9561 140.791 92.0785Q140.74 92.2008 140.683 92.3205Q140.626 92.4402 140.563 92.557Q140.5 92.6737 140.432 92.7873Q140.364 92.9008 140.29 93.0108Q140.216 93.1209 140.137 93.2272Q140.057 93.3335 139.973 93.4357Q139.889 93.538 139.799 93.636Q139.71 93.734 139.616 93.8275Q139.522 93.921 139.424 94.0098Q139.325 94.0986 139.223 94.1825Q139.12 94.2663 139.013 94.345Q138.907 94.4237 138.796 94.4971Q138.686 94.5705 138.572 94.6384Q138.458 94.7063 138.341 94.7685Q138.224 94.8307 138.104 94.8871Q137.984 94.9435 137.862 94.9939Q137.739 95.0443 137.614 95.0887Q137.489 95.133 137.362 95.1712Q137.184 95.2249 137.002 95.2662Q136.82 95.3075 136.635 95.3361Q136.451 95.3647 136.265 95.3805Q136.079 95.3963 135.893 95.3993Q135.706 95.4023 135.52 95.3924Q135.334 95.3825 135.149 95.3597Q134.964 95.337 134.781 95.3016Q134.597 95.2661 134.417 95.2181Q134.237 95.1701 134.061 95.1098Q133.884 95.0494 133.712 94.9771Q133.54 94.9047 133.374 94.8207Q133.207 94.7366 133.047 94.6413Q132.887 94.546 132.733 94.4398Q132.58 94.3336 132.434 94.2171Q132.289 94.1006 132.151 93.9744Q132.014 93.8481 131.886 93.7127ZM139.728 86.2873L135.807 90L130.636 91.5551Q126.287 77.0939 127.29 58.9084Q128.412 38.562 136.092 27.0103L140.589 30L140.589 35.4L123.367 35.4L123.367 30L128.129 32.546Q122.272 43.502 126.5 60.5228Q130.472 76.511 139.728 86.2873ZM160.272 86.2873Q169.528 76.511 173.5 60.5228Q177.728 43.5019 171.871 32.546L176.633 30L176.633 35.4L159.41 35.4L159.41 30L163.907 27.0103Q171.587 38.562 172.709 58.9084Q173.712 77.0939 169.363 91.5551L164.192 90L164.192 84.6L164.193 84.6L164.193 90L160.272 86.2873ZM168.114 93.7127Q167.926 93.912 167.718 94.0912Q167.51 94.2704 167.284 94.4275Q167.059 94.5847 166.819 94.7182Q166.58 94.8517 166.327 94.9603Q166.075 95.0688 165.813 95.1512Q165.552 95.2335 165.283 95.2889Q165.014 95.3443 164.741 95.3722Q164.468 95.4 164.193 95.4L164.192 95.4Q163.398 95.4 162.637 95.1712Q162.51 95.133 162.385 95.0887Q162.26 95.0443 162.138 94.9939Q162.015 94.9435 161.895 94.8871Q161.775 94.8307 161.658 94.7685Q161.541 94.7063 161.427 94.6384Q161.313 94.5705 161.203 94.4971Q161.092 94.4237 160.986 94.345Q160.879 94.2663 160.776 94.1825Q160.674 94.0986 160.575 94.0098Q160.477 93.921 160.383 93.8275Q160.289 93.734 160.2 93.636Q160.11 93.538 160.026 93.4357Q159.942 93.3335 159.862 93.2272Q159.783 93.1209 159.709 93.0109Q159.635 92.9008 159.567 92.7873Q159.499 92.6737 159.436 92.557Q159.373 92.4402 159.316 92.3205Q159.259 92.2008 159.208 92.0785Q159.157 91.9561 159.112 91.8314Q159.067 91.7067 159.028 91.5799Q158.99 91.4532 158.957 91.3247Q158.924 91.1962 158.898 91.0662Q158.872 90.9362 158.852 90.8052Q158.833 90.6741 158.819 90.5422Q158.806 90.4103 158.799 90.2779Q158.792 90.1455 158.792 90.013Q158.792 89.8804 158.798 89.748Q158.804 89.6156 158.817 89.4836Q158.829 89.3517 158.849 89.2205Q158.868 89.0893 158.893 88.9592Q158.919 88.8291 158.951 88.7005Q158.983 88.5718 159.021 88.4449Q162.824 75.7975 161.925 59.5031Q160.965 42.0928 154.913 32.9897Q154.693 32.6593 154.524 32.3003Q154.355 31.9414 154.241 31.5616Q154.126 31.1818 154.068 30.7893Q154.01 30.3968 154.01 30Q154.01 29.8674 154.017 29.735Q154.023 29.6026 154.036 29.4707Q154.049 29.3388 154.068 29.2077Q154.088 29.0765 154.114 28.9465Q154.14 28.8165 154.172 28.6879Q154.204 28.5593 154.243 28.4325Q154.281 28.3056 154.326 28.1808Q154.37 28.056 154.421 27.9335Q154.472 27.811 154.528 27.6912Q154.585 27.5714 154.648 27.4545Q154.71 27.3375 154.778 27.2238Q154.846 27.1101 154.92 26.9999Q154.994 26.8897 155.073 26.7832Q155.152 26.6767 155.236 26.5743Q155.32 26.4718 155.409 26.3736Q155.498 26.2754 155.592 26.1816Q155.685 26.0879 155.784 25.9989Q155.882 25.9098 155.984 25.8257Q156.087 25.7416 156.193 25.6627Q156.3 25.5837 156.41 25.5101Q156.52 25.4364 156.634 25.3683Q156.748 25.3001 156.864 25.2376Q156.981 25.1751 157.101 25.1185Q157.221 25.0618 157.344 25.011Q157.466 24.9603 157.591 24.9157Q157.716 24.871 157.842 24.8325Q157.969 24.794 158.098 24.7618Q158.227 24.7296 158.357 24.7038Q158.487 24.6779 158.618 24.6584Q158.749 24.639 158.881 24.626Q159.013 24.613 159.145 24.6065Q159.277 24.6 159.41 24.6L176.633 24.6Q176.815 24.6 176.997 24.6123Q177.179 24.6246 177.36 24.6491Q177.54 24.6736 177.719 24.7103Q177.897 24.747 178.073 24.7956Q178.249 24.8442 178.421 24.9045Q178.593 24.9649 178.76 25.0367Q178.928 25.1085 179.09 25.1915Q179.253 25.2744 179.409 25.3681Q179.565 25.4618 179.715 25.5659Q179.865 25.6699 180.007 25.7838Q180.149 25.8977 180.284 26.0209Q180.418 26.1442 180.544 26.2762Q180.669 26.4082 180.786 26.5484Q180.902 26.6886 181.009 26.8363Q181.116 26.984 181.213 27.1386Q181.309 27.2932 181.395 27.454Q189.211 42.0737 183.981 63.1267Q179.324 81.8727 168.114 93.7127Z"/>
	<path fill="none" stroke="black" stroke-width="2.3999999" stroke-linejoin="round" transform="translate(55 79.2857)" d="M-19.2301 -6.4323L-19.2301 -3.77117L-23.4098 -3.77117L-23.4098 7.43L-26.5299 7.43L-26.5299 -3.77117L-30.7096 -3.77117L-30.7096 -6.4323L-19.2301 -6.4323ZM-7.58975 2.15168Q-7.58975 3.39191 -7.95108 4.42219Q-8.31241 5.44758 -8.99112 6.18Q-9.66983 6.91242 -10.622 7.31281Q-11.5692 7.70832 -12.7509 7.70832Q-13.9081 7.70832 -14.8603 7.31281Q-15.8124 6.91242 -16.4911 6.18Q-17.1698 5.44758 -17.5507 4.42219Q-17.9315 3.39191 -17.9315 2.15168Q-17.9315 0.911445 -17.5409 -0.109063Q-17.1503 -1.12957 -16.4618 -1.84734Q-15.7685 -2.57 -14.8212 -2.97039Q-13.869 -3.37078 -12.7509 -3.37078Q-11.6083 -3.37078 -10.661 -2.97039Q-9.70889 -2.57 -9.03018 -1.84734Q-8.35147 -1.12957 -7.97061 -0.109063Q-7.58975 0.911445 -7.58975 2.15168ZM-10.6317 2.15168Q-10.6317 0.769844 -11.1835 -0.021172Q-11.7304 -0.812188 -12.7509 -0.812188Q-13.7714 -0.812188 -14.3329 -0.021172Q-14.8896 0.769844 -14.8896 2.15168Q-14.8896 3.52863 -14.3329 4.33918Q-13.7714 5.14973 -12.7509 5.14973Q-11.7304 5.14973 -11.1835 4.33918Q-10.6317 3.52863 -10.6317 2.15168ZM-5.39117 -5.70965L-2.40778 -6.18816L-2.40778 -3.08758L1.17133 -3.08758L1.17133 -0.611992L-2.40778 -0.611992L-2.40778 3.08918Q-2.40778 4.03156 -2.08063 4.59309Q-1.7486 5.14973 -0.74762 5.14973Q-0.269104 5.14973 0.238708 5.06184Q0.751404 4.96906 1.17133 4.80793L1.59125 7.13215Q1.04926 7.35187 0.390076 7.50812Q-0.269104 7.66926 -1.23102 7.66926Q-2.45172 7.66926 -3.2525 7.34211Q-4.0484 7.01008 -4.5318 6.41926Q-5.01031 5.82844 -5.20074 4.98859Q-5.39117 4.14875 -5.39117 3.12824L-5.39117 -5.70965ZM3.08842 2.24934Q3.08842 0.847969 3.51811 -0.201836Q3.9478 -1.25164 4.64604 -1.94988Q5.34917 -2.64813 6.25737 -3.00945Q7.17046 -3.37078 8.13237 -3.37078Q10.3687 -3.37078 11.6675 -1.99871Q12.9712 -0.631524 12.9712 2.02961Q12.9712 2.2884 12.9517 2.6009Q12.9322 2.90852 12.9078 3.14777L6.14995 3.14777Q6.2476 4.07062 7.00932 4.61262Q7.77104 5.14973 9.05034 5.14973Q9.87065 5.14973 10.6568 5.00324Q11.4478 4.85187 11.9507 4.63215L12.3511 7.04914Q12.1119 7.17121 11.7115 7.29328Q11.3111 7.41047 10.8179 7.49836Q10.3296 7.59113 9.76811 7.64973Q9.21147 7.70832 8.64995 7.70832Q7.22905 7.70832 6.17924 7.2884Q5.12944 6.86848 4.43608 6.14094Q3.7476 5.40852 3.41557 4.41242Q3.08842 3.41145 3.08842 2.24934ZM10.0904 1.11164Q10.0708 0.730781 9.95854 0.369453Q9.85112 0.00812483 9.62163 -0.270195Q9.39214 -0.548516 9.04057 -0.72918Q8.68901 -0.909844 8.17143 -0.909844Q7.6685 -0.909844 7.30717 -0.738945Q6.95073 -0.568047 6.71147 -0.289727Q6.47221 -0.0114064 6.34038 0.359687Q6.20854 0.730781 6.14995 1.11164L10.0904 1.11164ZM21.0477 1.84895Q21.0477 0.408515 20.6766 -0.187188Q20.3104 -0.787774 19.412 -0.787774Q19.1288 -0.787774 18.826 -0.758477Q18.5282 -0.72918 18.2499 -0.690117L18.2499 7.43L15.2713 7.43L15.2713 -2.73113Q15.6522 -2.82879 16.16 -2.93621Q16.6678 -3.04852 17.2391 -3.13641Q17.8104 -3.22918 18.411 -3.27801Q19.0116 -3.33172 19.5878 -3.33172Q20.7303 -3.33172 21.4383 -3.03875Q22.1512 -2.75066 22.6102 -2.35027Q23.2499 -2.80926 24.0799 -3.06805Q24.91 -3.33172 25.6083 -3.33172Q26.868 -3.33172 27.6786 -2.98016Q28.4891 -2.62859 28.9676 -1.98895Q29.451 -1.3493 29.6317 -0.470391Q29.8124 0.408515 29.8124 1.48762L29.8124 7.43L26.829 7.43L26.829 1.84895Q26.829 0.408515 26.4579 -0.187188Q26.0917 -0.787774 25.1883 -0.787774Q24.9491 -0.787774 24.5194 -0.665703Q24.0897 -0.548516 23.8114 -0.367852Q23.9481 0.0911326 23.9872 0.603828Q24.0311 1.11164 24.0311 1.68781L24.0311 7.43L21.0477 7.43L21.0477 1.84895Z"/>
	<path fill="white" transform="translate(55 79.2857)" d="M-19.2301 -6.4323L-19.2301 -3.77117L-23.4098 -3.77117L-23.4098 7.43L-26.5299 7.43L-26.5299 -3.77117L-30.7096 -3.77117L-30.7096 -6.4323L-19.2301 -6.4323ZM-7.58975 2.15168Q-7.58975 3.39191 -7.95108 4.42219Q-8.31241 5.44758 -8.99112 6.18Q-9.66983 6.91242 -10.622 7.31281Q-11.5692 7.70832 -12.7509 7.70832Q-13.9081 7.70832 -14.8603 7.31281Q-15.8124 6.91242 -16.4911 6.18Q-17.1698 5.44758 -17.5507 4.42219Q-17.9315 3.39191 -17.9315 2.15168Q-17.9315 0.911445 -17.5409 -0.109063Q-17.1503 -1.12957 -16.4618 -1.84734Q-15.7685 -2.57 -14.8212 -2.97039Q-13.869 -3.37078 -12.7509 -3.37078Q-11.6083 -3.37078 -10.661 -2.97039Q-9.70889 -2.57 -9.03018 -1.84734Q-8.35147 -1.12957 -7.97061 -0.109063Q-7.58975 0.911445 -7.58975 2.15168ZM-10.6317 2.15168Q-10.6317 0.769844 -11.1835 -0.021172Q-11.7304 -0.812188 -12.7509 -0.812188Q-13.7714 -0.812188 -14.3329 -0.021172Q-14.8896 0.769844 -14.8896 2.15168Q-14.8896 3.52863 -14.3329 4.33918Q-13.7714 5.14973 -12.7509 5.14973Q-11.7304 5.14973 -11.1835 4.33918Q-10.6317 3.52863 -10.6317 2.15168ZM-5.39117 -5.70965L-2.40778 -6.18816L-2.40778 -3.08758L1.17133 -3.08758L1.17133 -0.611992L-2.40778 -0.611992L-2.40778 3.08918Q-2.40778 4.03156 -2.08063 4.59309Q-1.7486 5.14973 -0.74762 5.14973Q-0.269104 5.14973 0.238708 5.06184Q0.751404 4.96906 1.17133 4.80793L1.59125 7.13215Q1.04926 7.35187 0.390076 7.50812Q-0.269104 7.66926 -1.23102 7.66926Q-2.45172 7.66926 -3.2525 7.34211Q-4.0484 7.01008 -4.5318 6.41926Q-5.01031 5.82844 -5.20074 4.98859Q-5.39117 4.14875 -5.39117 3.12824L-5.39117 -5.70965ZM3.08842 2.24934Q3.08842 0.847969 3.51811 -0.201836Q3.9478 -1.25164 4.64604 -1.94988Q5.34917 -2.64813 6.25737 -3.00945Q7.17046 -3.37078 8.13237 -3.37078Q10.3687 -3.37078 11.6675 -1.99871Q12.9712 -0.631524 12.9712 2.02961Q12.9712 2.2884 12.9517 2.6009Q12.9322 2.90852 12.9078 3.14777L6.14995 3.14777Q6.2476 4.07062 7.00932 4.61262Q7.77104 5.14973 9.05034 5.14973Q9.87065 5.14973 10.6568 5.00324Q11.4478 4.85187 11.9507 4.63215L12.3511 7.04914Q12.1119 7.17121 11.7115 7.29328Q11.3111 7.41047 10.8179 7.49836Q10.3296 7.59113 9.76811 7.64973Q9.21147 7.70832 8.64995 7.70832Q7.22905 7.70832 6.17924 7.2884Q5.12944 6.86848 4.43608 6.14094Q3.7476 5.40852 3.41557 4.41242Q3.08842 3.41145 3.08842 2.24934ZM10.0904 1.11164Q10.0708 0.730781 9.95854 0.369453Q9.85112 0.00812483 9.62163 -0.270195Q9.39214 -0.548516 9.04057 -0.72918Q8.68901 -0.909844 8.17143 -0.909844Q7.6685 -0.909844 7.30717 -0.738945Q6.95073 -0.568047 6.71147 -0.289727Q6.47221 -0.0114064 6.34038 0.359687Q6.20854 0.730781 6.14995 1.11164L10.0904 1.11164ZM21.0477 1.84895Q21.0477 0.408515 20.6766 -0.187188Q20.3104 -0.787774 19.412 -0.787774Q19.1288 -0.787774 18.826 -0.758477Q18.5282 -0.72918 18.2499 -0.690117L18.2499 7.43L15.2713 7.43L15.2713 -2.73113Q15.6522 -2.82879 16.16 -2.93621Q16.6678 -3.04852 17.2391 -3.13641Q17.8104 -3.22918 18.411 -3.27801Q19.0116 -3.33172 19.5878 -3.33172Q20.7303 -3.33172 21.4383 -3.03875Q22.1512 -2.75066 22.6102 -2.35027Q23.2499 -2.80926 24.0799 -3.06805Q24.91 -3.33172 25.6083 -3.33172Q26.868 -3.33172 27.6786 -2.98016Q28.4891 -2.62859 28.9676 -1.98895Q29.451 -1.3493 29.6317 -0.470391Q29.8124 0.408515 29.8124 1.48762L29.8124 7.43L26.829 7.43L26.829 1.84895Q26.829 0.408515 26.4579 -0.187188Q26.0917 -0.787774 25.1883 -0.787774Q24.9491 -0.787774 24.5194 -0.665703Q24.0897 -0.548516 23.8114 -0.367852Q23.9481 0.0911326 23.9872 0.603828Q24.0311 1.11164 24.0311 1.68781L24.0311 7.43L21.0477 7.43L21.0477 1.84895Z"/>
</svg>