<svg xmlns="http://www.w3.org/2000/svg" width="110" height="110"><path fill="#8a826e" d="M61.904 48.55q.287-2.859-1.533-5.085t-4.678-2.512-5.085 1.533-2.512 4.678q-.287 2.86 1.533 5.085t4.678 2.512q2.859.287 5.085-1.533t2.512-4.678m14.103-1.554-.6 5.987q-.033.323-.278.598t-.575.297l-5.065.254q-.659 1.405-1.298 2.35.809 1.442 2.512 4.01.237.351.202.702-.035.35-.305.596-.828.924-2.962 2.644t-2.727 1.66q-.324-.032-.677-.312l-3.43-3.286q-1.248.501-2.557.778-.799 3.625-1.285 4.938-.264.736-1.047.658l-5.987-.6q-.377-.039-.638-.296-.26-.258-.251-.611l-.258-5.038q-1.278-.565-2.327-1.242l-4.092 2.504q-.294.216-.699.175-.377-.038-.644-.364-3.09-3.415-3.995-4.977-.162-.289-.127-.64.033-.323.278-.598.461-.526 1.555-1.656t1.648-1.755q-.593-1.421-.838-2.78l-4.863-1.224q-.345-.09-.532-.394t-.152-.655l.6-5.988q.033-.323.278-.598t.548-.3l5.092-.251q.502-1.203 1.3-2.376-.924-1.645-2.512-4.011-.237-.35-.204-.674.027-.27.305-.596.798-.9 2.947-2.633 2.149-1.732 2.742-1.673.35.036.674.34l3.432 3.26q1.25-.502 2.558-.779.799-3.625 1.285-4.938.264-.736 1.047-.658l5.987.601q.377.038.637.296.26.257.252.61l.258 5.039q1.278.564 2.327 1.241l4.119-2.501q.267-.219.672-.178.35.035.647.337 3.157 3.559 3.99 5.031.167.235.129.613-.033.323-.278.598-.461.526-1.555 1.656t-1.648 1.755q.566 1.419.841 2.754l4.86 1.25q.345.09.532.394t.152.656"/><path fill="#706959" fill-rule="evenodd" d="m77.294 53.172.601-5.987q.1-.988-.423-1.838-.589-.957-1.677-1.238l-3.76-.968q-.108-.38-.235-.765.364-.385.833-.87 1.126-1.162 1.607-1.711.657-.735.75-1.673.103-1.021-.404-1.803-.96-1.655-4.183-5.289-.032-.036-.065-.07-.778-.792-1.812-.896-1.099-.11-1.931.496l-3.06 1.858q-.235-.13-.48-.255l-.196-3.854q-.005-1.115-.815-1.916-.737-.73-1.783-.836l-5.987-.6q-1.039-.105-1.852.406-.816.513-1.164 1.48-.445 1.205-1.1 4.04-.253.074-.504.154l-2.59-2.458q-.793-.748-1.785-.847-.93-.094-2.16.656-.792.483-1.963 1.427-2.272 1.832-3.2 2.88-.663.777-.75 1.636-.1 1.007.518 1.921 1.103 1.643 1.87 2.918-.164.286-.314.573l-3.955.196-.057.003q-1.06.085-1.812.927-.656.735-.75 1.673l-.601 5.987q-.1.988.423 1.838.589.958 1.686 1.241l3.736.94q.109.397.242.798-.361.383-.825.862-1.126 1.163-1.607 1.711-.657.736-.75 1.673-.096.946.372 1.78 1.002 1.728 4.204 5.27.756.895 1.888 1.008 1.078.108 1.93-.476l3.065-1.875q.233.128.475.252l.197 3.854q.005 1.115.814 1.917.738.73 1.784.835l5.987.6q1.039.105 1.852-.406.816-.513 1.163-1.48.446-1.205 1.1-4.04.251-.072.5-.152l2.58 2.473q.064.06.133.115.79.628 1.667.716.93.093 2.155-.653.789-.48 1.953-1.418 2.188-1.764 3.13-2.796.732-.713.834-1.733.104-1.034-.509-1.94-1.155-1.74-1.88-2.938.145-.257.29-.533l3.984-.2q1.103-.073 1.866-.927.656-.735.75-1.673m-3.252-5.596-4.052-1.043-.064-.017-.063-.02-.062-.022-.062-.024-.06-.026-.06-.029-.059-.03-.058-.033-.056-.034-.055-.037q-.028-.018-.054-.038l-.053-.04q-.026-.02-.05-.042l-.05-.044q-.025-.022-.049-.046l-.046-.047-.045-.048-.043-.05-.041-.052-.04-.053-.037-.055q-.019-.027-.036-.056l-.034-.057-.031-.058q-.016-.029-.03-.059l-.027-.06q-.014-.03-.026-.061l-.023-.062-.021-.063-.02-.063-.016-.064q-.008-.032-.014-.065-.241-1.17-.745-2.433l-.023-.061-.021-.062-.02-.063-.016-.063-.014-.064-.013-.064-.01-.065-.008-.065-.005-.065q-.003-.032-.004-.065v-.131q.001-.033.004-.065l.005-.066.008-.065.01-.064.012-.064.015-.064.017-.063.019-.063.02-.062.024-.061.025-.06.027-.06.03-.059.031-.057.034-.056.035-.055.037-.054.039-.053.04-.051.043-.05q.582-.658 1.706-1.818.663-.685 1.084-1.138-.842-1.234-2.931-3.62l-3.53 2.144-.057.033-.058.032-.06.03-.06.026-.062.025-.062.023-.063.021-.063.019-.065.016q-.032.008-.065.014-.032.007-.065.012l-.066.01-.066.007-.066.004-.066.003h-.066q-.034 0-.067-.002l-.066-.004-.066-.007-.066-.009-.065-.011q-.033-.006-.065-.014l-.064-.016q-.033-.008-.064-.018l-.063-.02q-.032-.01-.063-.023l-.061-.024-.061-.027-.06-.029-.059-.03-.057-.034-.056-.035q-.923-.596-2.064-1.1l-.06-.027q-.03-.014-.058-.03l-.058-.03-.056-.034-.055-.036-.054-.037-.052-.04-.051-.04q-.026-.02-.05-.043-.025-.021-.048-.044-.024-.022-.047-.046l-.045-.047-.043-.05q-.022-.024-.042-.05l-.04-.052q-.02-.026-.038-.053l-.036-.055q-.018-.027-.034-.055l-.033-.057-.03-.058-.028-.06-.027-.06-.024-.06q-.012-.03-.022-.062l-.02-.062q-.01-.031-.018-.063l-.015-.064-.014-.064-.011-.064-.009-.065-.007-.065-.004-.066-.216-4.23-4.503-.452q-.4 1.324-1 4.045l-.016.066-.018.065-.02.065-.023.064-.025.063-.027.062-.03.061-.031.06-.034.059-.036.058-.038.056-.04.055q-.02.027-.042.053-.021.027-.043.052l-.046.05-.047.049-.05.047q-.024.023-.05.045l-.052.043-.054.042-.055.04-.057.037-.058.035-.059.033-.06.032-.062.029q-.03.014-.062.026l-.063.025-.064.022-.065.02-.066.018-.066.015q-1.147.243-2.244.683-.031.013-.063.024l-.064.022-.065.02-.065.017-.066.015q-.033.007-.067.012-.033.006-.067.01-.033.005-.067.008l-.067.005-.068.003h-.068l-.067-.001-.068-.005q-.034-.002-.067-.006-.034-.004-.067-.01l-.067-.01-.066-.015-.066-.016-.065-.019-.064-.02-.064-.024-.062-.025q-.032-.013-.062-.028l-.061-.03-.06-.032q-.03-.016-.058-.034-.029-.017-.057-.036-.029-.018-.056-.038l-.055-.04-.053-.042-.051-.044-.05-.046-2.992-2.84q-.54.355-1.36 1.015-1.517 1.223-2.273 1.953 1.358 2.054 2.202 3.555l.031.058.03.059.026.06.026.06.022.062.021.063.019.063q.009.031.016.063t.014.065l.012.064.01.065.007.066.006.065.002.066.001.066-.002.066q-.001.033-.004.065l-.006.066-.008.065-.011.065-.013.064-.015.064-.018.064-.02.063-.021.062-.024.061-.026.06-.028.06-.03.058-.033.058-.034.056q-.017.028-.036.055-.69 1.014-1.118 2.039l-.027.06-.029.06-.03.06-.034.058-.035.057-.037.055-.04.054-.04.053q-.02.026-.043.052l-.044.05-.046.047-.048.047-.05.045-.05.043-.053.041-.054.04-.056.037-.056.035-.058.034-.059.031-.06.03-.06.026-.063.025-.063.023q-.031.011-.063.02l-.064.02-.065.015-.065.014-.066.011-.066.01-.067.006-.066.005-4.2.208-.447 4.449 4.045 1.017.065.018.065.02q.032.01.064.023l.064.024.062.027.061.03.06.03.06.034.058.036.056.037.055.04q.028.02.054.042.027.02.052.043l.051.045.049.047q.024.024.047.05l.046.05q.022.025.043.052.022.026.042.053l.04.055q.02.028.038.057l.036.058.033.059.032.06.03.061.026.062.025.064.023.064.02.065q.01.032.018.065l.016.066.013.067q.208 1.156.722 2.387l.024.062q.012.03.022.062l.02.063.018.064q.009.032.016.065l.013.065.011.065.01.066.006.066.004.066.002.066v.067l-.003.066-.006.066-.007.066-.01.066q-.005.033-.012.065-.006.033-.014.065l-.017.064-.018.064-.021.063-.024.062-.025.061-.027.06-.03.06-.031.058-.034.058-.036.056-.037.054-.04.054-.041.052-.043.05q-.582.658-1.706 1.818-.67.692-1.093 1.148.877 1.28 2.961 3.613l3.503-2.143q.028-.018.057-.034l.059-.032.06-.03.06-.027.061-.025.063-.023.063-.021.064-.02.064-.016.065-.014.066-.012.066-.01.066-.007.066-.005.067-.003h.066l.067.002.066.004.066.007.066.009.066.011q.033.006.065.014l.065.015.064.019.063.02q.032.01.063.022l.061.025.061.027.06.029.06.031.057.033.056.035q.923.596 2.064 1.1l.06.027q.03.014.058.03l.058.031.056.034.055.035.054.037.052.04.051.04q.026.021.05.043l.048.044.047.046q.023.023.045.048l.043.049.042.05.04.052q.02.026.038.053l.036.055.034.056.033.057.03.058q.015.029.028.059l.027.06.024.06.022.062.02.062.018.063.015.064.014.064.011.065.009.064.007.065.004.066.216 4.231 4.503.452q.4-1.325 1-4.045l.015-.066.019-.066.02-.065q.01-.032.023-.063l.025-.064.027-.062.03-.06.031-.06.034-.06.036-.057.038-.057.04-.054q.02-.028.042-.054l.043-.052.046-.05.047-.049q.024-.024.05-.047.024-.023.05-.045l.052-.043.054-.042.055-.039q.028-.02.057-.037l.058-.036.059-.033.06-.031.062-.03.062-.026.063-.025.064-.022.065-.02.066-.018.066-.015q1.147-.243 2.244-.683.031-.013.063-.024t.065-.022l.065-.02.065-.017.067-.015.066-.012.068-.01q.033-.005.067-.008l.068-.005.068-.003h.068l.068.002.067.004.068.007q.034.004.067.01l.067.011.067.014.065.017.066.018.064.021.064.024q.032.012.063.026l.062.028.06.03.06.032.059.034.057.037.056.038.055.041q.027.02.053.042l.051.045q.026.022.05.046l2.97 2.846q.539-.353 1.36-1.015 1.515-1.221 2.301-1.982-1.462-2.227-2.212-3.566l-.031-.058-.03-.059-.026-.06-.025-.06-.023-.062q-.011-.03-.02-.062l-.02-.063-.016-.064-.014-.064-.012-.064-.01-.065-.007-.065-.005-.066-.003-.065v-.066l.001-.065.004-.066.006-.065.009-.065.01-.065.013-.064.015-.064.018-.063q.009-.032.02-.063l.02-.062.025-.06q.012-.031.026-.061l.028-.06.03-.058.031-.057.034-.056.036-.055q.556-.82 1.151-2.09l.028-.057.03-.057.032-.056.034-.054.036-.053q.018-.027.038-.052l.039-.051.04-.05.043-.048.044-.046.046-.045.047-.044.05-.041.05-.04.05-.039.053-.037.054-.035.055-.033.056-.03.057-.03.058-.027.06-.026.06-.023.06-.021.06-.02.063-.016.062-.015.063-.013.063-.011.064-.009.064-.006.064-.004 4.202-.211zM54.814 28.17l.003-.01zm5.779 26.527q2.834-2.317 3.199-5.958t-1.952-6.474q-2.317-2.835-5.958-3.2t-6.475 1.952-3.199 5.958q-.365 3.64 1.952 6.475t5.958 3.2 6.475-1.953m-1.69-10.03q1.322 1.617 1.113 3.693-.208 2.077-1.825 3.4-1.618 1.322-3.694 1.113-2.077-.208-3.4-1.825t-1.113-3.694 1.825-3.4 3.694-1.113 3.4 1.825"/><path fill="none" stroke="#000" stroke-linejoin="round" stroke-width="2.4" d="M44.43 86.994q-3.379 0-5.151-1.88-1.768-1.88-1.768-5.337 0-1.723.537-3.071.542-1.353 1.48-2.28.942-.928 2.24-1.407 1.3-.483 2.823-.483.879 0 1.597.132.722.127 1.26.298.542.17.903.351t.517.279l-.898 2.52q-.64-.343-1.49-.582-.849-.24-1.928-.24-.723 0-1.411.24t-1.22.772-.855 1.372q-.318.84-.318 2.036 0 .962.21 1.792t.679 1.43q.474.601 1.23.953.762.346 1.841.346.684 0 1.221-.078.542-.083.962-.19.42-.113.737-.25.322-.14.581-.263l.86 2.5q-.66.4-1.86.723-1.197.317-2.78.317Zm16.28-5.557q0 1.24-.361 2.27-.361 1.026-1.04 1.759t-1.631 1.133q-.947.395-2.129.395-1.157 0-2.11-.395-.951-.4-1.63-1.133t-1.06-1.758q-.38-1.03-.38-2.27t.39-2.261q.39-1.02 1.08-1.739.693-.722 1.64-1.123.952-.4 2.07-.4 1.143 0 2.09.4.952.4 1.63 1.123.68.718 1.06 1.739.381 1.02.381 2.26Zm-3.042 0q0-1.381-.552-2.172-.546-.791-1.567-.791t-1.582.79q-.557.792-.557 2.173 0 1.377.557 2.188.562.81 1.582.81t1.567-.81q.552-.81.552-2.188Zm7.882-.322q0 2.5 2.022 2.5.459 0 .86-.117.4-.122.678-.283v-4.761q-.22-.04-.522-.068-.298-.03-.699-.03-1.181 0-1.762.782-.577.776-.577 1.977Zm6.538 4.282q0 2.578-1.308 3.828t-4.048 1.25q-.962 0-1.924-.17-.957-.171-1.777-.45l.517-2.5q.704.279 1.47.44.772.16 1.753.16 1.28 0 1.807-.56.532-.557.532-1.441v-.376q-.478.22-.991.332-.508.107-1.109.107-2.182 0-3.344-1.289-1.158-1.294-1.158-3.613 0-1.157.362-2.11.361-.951 1.05-1.63.688-.679 1.689-1.05t2.26-.371q.543 0 1.11.054.57.049 1.127.132.562.078 1.07.19.512.107.912.225z"/><path fill="#fff" d="M44.43 86.994q-3.379 0-5.151-1.88-1.768-1.88-1.768-5.337 0-1.723.537-3.071.542-1.353 1.48-2.28.942-.928 2.24-1.407 1.3-.483 2.823-.483.879 0 1.597.132.722.127 1.26.298.542.17.903.351t.517.279l-.898 2.52q-.64-.343-1.49-.582-.849-.24-1.928-.24-.723 0-1.411.24t-1.22.772-.855 1.372q-.318.84-.318 2.036 0 .962.21 1.792t.679 1.43q.474.601 1.23.953.762.346 1.841.346.684 0 1.221-.078.542-.083.962-.19.42-.113.737-.25.322-.14.581-.263l.86 2.5q-.66.4-1.86.723-1.197.317-2.78.317m16.28-5.557q0 1.24-.361 2.27-.361 1.026-1.04 1.759t-1.631 1.133q-.947.395-2.129.395-1.157 0-2.11-.395-.951-.4-1.63-1.133t-1.06-1.758q-.38-1.03-.38-2.27t.39-2.261q.39-1.02 1.08-1.739.693-.722 1.64-1.123.952-.4 2.07-.4 1.143 0 2.09.4.952.4 1.63 1.123.68.718 1.06 1.739.381 1.02.381 2.26m-3.042 0q0-1.381-.552-2.172-.546-.791-1.567-.791t-1.582.79q-.557.792-.557 2.173 0 1.377.557 2.188.562.81 1.582.81t1.567-.81q.552-.81.552-2.188m7.882-.322q0 2.5 2.022 2.5.459 0 .86-.117.4-.122.678-.283v-4.761q-.22-.04-.522-.068-.298-.03-.699-.03-1.181 0-1.762.782-.577.776-.577 1.977m6.538 4.282q0 2.578-1.308 3.828t-4.048 1.25q-.962 0-1.924-.17-.957-.171-1.777-.45l.517-2.5q.704.279 1.47.44.772.16 1.753.16 1.28 0 1.807-.56.532-.557.532-1.441v-.376q-.478.22-.991.332-.508.107-1.109.107-2.182 0-3.344-1.289-1.158-1.294-1.158-3.613 0-1.157.362-2.11.361-.951 1.05-1.63.688-.679 1.689-1.05t2.26-.371q.543 0 1.11.054.57.049 1.127.132.562.078 1.07.19.512.107.912.225z"/></svg>