<?xml version="1.0" encoding="utf-8" ?>
<svg xmlns="http://www.w3.org/2000/svg" xmlns:xlink="http://www.w3.org/1999/xlink" width="110" height="110">
	<path fill="#F7CF2F" transform="matrix(0.38593 0.601051 -0.601051 0.38593 55 47.8571)" d="M30 0L15 25.9808L-15 25.9808L-30 -2.62268e-06L-15 -25.9808L15 -25.9808L30 0Z"/>
	<path fill="#C8A826" transform="matrix(0.38593 0.601051 -0.601051 0.38593 55 47.8571)" d="M32.5981 1.5L17.5981 27.4808Q17.4998 27.6511 17.3801 27.807Q17.2604 27.963 17.1213 28.1021Q16.9823 28.2411 16.8263 28.3608Q16.6703 28.4805 16.5 28.5788Q16.3297 28.6772 16.1481 28.7524Q15.9664 28.8277 15.7765 28.8785Q15.5865 28.9294 15.3916 28.9551Q15.1966 28.9808 15 28.9808L-15 28.9808Q-15.1966 28.9808 -15.3916 28.9551Q-15.5865 28.9294 -15.7765 28.8785Q-15.9664 28.8277 -16.1481 28.7524Q-16.3297 28.6772 -16.5 28.5788Q-16.6703 28.4805 -16.8263 28.3608Q-16.9823 28.2411 -17.1213 28.1021Q-17.2604 27.963 -17.3801 27.807Q-17.4998 27.6511 -17.5981 27.4808L-32.5981 1.5Q-32.6964 1.32971 -32.7716 1.14805Q-32.8469 0.966385 -32.8978 0.776454Q-32.9487 0.586524 -32.9743 0.391576Q-33 0.196628 -33 -2.83122e-06Q-33 -0.196633 -32.9743 -0.391581Q-32.9487 -0.58653 -32.8978 -0.77646Q-32.8469 -0.96639 -32.7716 -1.14805Q-32.6964 -1.32972 -32.5981 -1.5L-17.5981 -27.4808Q-17.4998 -27.6511 -17.3801 -27.807Q-17.2604 -27.963 -17.1213 -28.1021Q-16.9823 -28.2411 -16.8263 -28.3608Q-16.6703 -28.4805 -16.5 -28.5788Q-16.3297 -28.6772 -16.148 -28.7524Q-15.9664 -28.8277 -15.7765 -28.8785Q-15.5865 -28.9294 -15.3916 -28.9551Q-15.1966 -28.9808 -15 -28.9808L15 -28.9808Q15.1966 -28.9808 15.3916 -28.9551Q15.5865 -28.9294 15.7765 -28.8785Q15.9664 -28.8277 16.148 -28.7524Q16.3297 -28.6772 16.5 -28.5788Q16.6703 -28.4805 16.8263 -28.3608Q16.9823 -28.2411 17.1213 -28.1021Q17.2604 -27.963 17.3801 -27.807Q17.4998 -27.6511 17.5981 -27.4808L32.5981 -1.5Q32.6964 -1.32971 32.7716 -1.14805Q32.8469 -0.966388 32.8978 -0.776457Q32.9487 -0.586527 32.9743 -0.391579Q33 -0.196631 33 -2.08616e-07Q33 0.19663 32.9743 0.391578Q32.9487 0.586527 32.8978 0.776457Q32.8469 0.966387 32.7716 1.14805Q32.6964 1.32971 32.5981 1.5ZM27.4019 -1.5L30 0L27.4019 1.5L12.4019 -24.4808L15 -25.9808L15 -22.9808L-15 -22.9808L-15 -25.9808L-12.4019 -24.4808L-27.4019 1.5L-30 -2.62268e-06L-27.4019 -1.5L-12.4019 24.4808L-15 25.9808L-15 22.9808L15 22.9808L15 25.9808L12.4019 24.4808L27.4019 -1.5Z"/>
	<path fill="none" stroke="black" stroke-width="2.3999999" stroke-linejoin="round" transform="translate(55 79.2857)" d="M-9.65154 -4.94793Q-9.41228 -4.12762 -9.12419 -3.09734Q-8.83122 -2.07195 -8.50407 -0.968438Q-8.17204 0.130195 -7.83025 1.23371Q-7.48845 2.33234 -7.17107 3.26984Q-6.91228 2.24934 -6.64372 1.05305Q-6.37029 -0.148125 -6.13103 -1.42742Q-5.89177 -2.7116 -5.66228 -3.98113Q-5.4279 -5.25066 -5.22771 -6.4323L-1.9904 -6.4323Q-2.68864 -2.95086 -3.60173 0.633125Q-4.50993 4.21223 -5.5695 7.43L-8.43083 7.43Q-9.12907 5.51105 -9.79314 3.40168Q-10.4523 1.2923 -11.092 -0.831719Q-11.7316 1.2923 -12.3713 3.40168Q-13.0109 5.51105 -13.7092 7.43L-16.5705 7.43Q-17.6301 4.21223 -18.5431 0.633125Q-19.4513 -2.95086 -20.1496 -6.4323L-16.7707 -6.4323Q-16.5705 -5.25066 -16.3312 -3.98113Q-16.092 -2.7116 -15.8332 -1.42742Q-15.5695 -0.148125 -15.3009 1.05305Q-15.0324 2.24934 -14.7492 3.26984Q-14.3879 2.2884 -14.0509 1.18977Q-13.7092 0.0911326 -13.3918 -1.0075Q-13.0695 -2.11102 -12.8009 -3.13152Q-12.5324 -4.15203 -12.3078 -4.94793L-9.65154 -4.94793ZM3.82993 5.34992Q4.26938 5.34992 4.66977 5.33039Q5.07016 5.31086 5.30942 5.2718L5.30942 3.01105Q5.12875 2.97199 4.76743 2.93293Q4.41098 2.88898 4.10825 2.88898Q3.68832 2.88898 3.31723 2.9427Q2.95102 2.99152 2.66782 3.13312Q2.3895 3.26984 2.22836 3.5091Q2.07211 3.74836 2.07211 4.10969Q2.07211 4.80793 2.54086 5.08137Q3.00961 5.34992 3.82993 5.34992ZM3.59067 -3.37078Q4.90903 -3.37078 5.78793 -3.06805Q6.67172 -2.7702 7.19907 -2.20867Q7.73129 -1.65203 7.95102 -0.85125Q8.17075 -0.0504689 8.17075 0.930976L8.17075 7.13215Q7.5311 7.26887 6.38852 7.4593Q5.25082 7.64973 3.62973 7.64973Q2.60922 7.64973 1.77914 7.46906Q0.949066 7.2884 0.34848 6.87824Q-0.252106 6.46809 -0.574371 5.80891Q-0.891754 5.14973 -0.891754 4.18781Q-0.891754 3.26984 -0.52066 2.6302Q-0.149567 1.99055 0.470551 1.60969Q1.09067 1.22883 1.89145 1.06281Q2.69223 0.891914 3.55161 0.891914Q4.12778 0.891914 4.577 0.940742Q5.0311 0.98957 5.30942 1.0677L5.30942 0.789375Q5.30942 0.0276561 4.85043 -0.431328Q4.39145 -0.890313 3.24887 -0.890313Q2.49203 -0.890313 1.74985 -0.778008Q1.00766 -0.670586 0.470551 -0.470391L0.0896912 -2.86785Q0.34848 -2.95086 0.739105 -3.03875Q1.12973 -3.13152 1.58871 -3.19988Q2.0477 -3.26824 2.55551 -3.31707Q3.06821 -3.37078 3.59067 -3.37078ZM15.051 0.110664L17.1311 -3.08758L20.2122 -3.08758L16.6087 1.97102Q17.8098 3.47004 18.7864 4.89094Q19.7678 6.31184 20.3489 7.43L17.1507 7.43Q16.9895 7.13215 16.7503 6.68293Q16.511 6.22883 16.2083 5.74055Q15.9104 5.25227 15.5784 4.76398Q15.2512 4.27082 14.929 3.87043Q14.6311 4.25129 14.3186 4.71027Q14.011 5.16926 13.7278 5.64289Q13.4495 6.11164 13.1809 6.57062Q12.9124 7.02961 12.7122 7.43L9.67018 7.43Q9.90944 6.93195 10.3294 6.25324Q10.7493 5.56965 11.2376 4.84211Q11.7307 4.10969 12.2678 3.38215Q12.8098 2.64973 13.3323 2.01008Q12.429 0.750312 11.5305 -0.53875Q10.6321 -1.82781 9.74831 -3.08758L12.971 -3.08758L15.051 0.110664Z"/>
	<path fill="white" transform="translate(55 79.2857)" d="M-9.65154 -4.94793Q-9.41228 -4.12762 -9.12419 -3.09734Q-8.83122 -2.07195 -8.50407 -0.968438Q-8.17204 0.130195 -7.83025 1.23371Q-7.48845 2.33234 -7.17107 3.26984Q-6.91228 2.24934 -6.64372 1.05305Q-6.37029 -0.148125 -6.13103 -1.42742Q-5.89177 -2.7116 -5.66228 -3.98113Q-5.4279 -5.25066 -5.22771 -6.4323L-1.9904 -6.4323Q-2.68864 -2.95086 -3.60173 0.633125Q-4.50993 4.21223 -5.5695 7.43L-8.43083 7.43Q-9.12907 5.51105 -9.79314 3.40168Q-10.4523 1.2923 -11.092 -0.831719Q-11.7316 1.2923 -12.3713 3.40168Q-13.0109 5.51105 -13.7092 7.43L-16.5705 7.43Q-17.6301 4.21223 -18.5431 0.633125Q-19.4513 -2.95086 -20.1496 -6.4323L-16.7707 -6.4323Q-16.5705 -5.25066 -16.3312 -3.98113Q-16.092 -2.7116 -15.8332 -1.42742Q-15.5695 -0.148125 -15.3009 1.05305Q-15.0324 2.24934 -14.7492 3.26984Q-14.3879 2.2884 -14.0509 1.18977Q-13.7092 0.0911326 -13.3918 -1.0075Q-13.0695 -2.11102 -12.8009 -3.13152Q-12.5324 -4.15203 -12.3078 -4.94793L-9.65154 -4.94793ZM3.82993 5.34992Q4.26938 5.34992 4.66977 5.33039Q5.07016 5.31086 5.30942 5.2718L5.30942 3.01105Q5.12875 2.97199 4.76743 2.93293Q4.41098 2.88898 4.10825 2.88898Q3.68832 2.88898 3.31723 2.9427Q2.95102 2.99152 2.66782 3.13312Q2.3895 3.26984 2.22836 3.5091Q2.07211 3.74836 2.07211 4.10969Q2.07211 4.80793 2.54086 5.08137Q3.00961 5.34992 3.82993 5.34992ZM3.59067 -3.37078Q4.90903 -3.37078 5.78793 -3.06805Q6.67172 -2.7702 7.19907 -2.20867Q7.73129 -1.65203 7.95102 -0.85125Q8.17075 -0.0504689 8.17075 0.930976L8.17075 7.13215Q7.5311 7.26887 6.38852 7.4593Q5.25082 7.64973 3.62973 7.64973Q2.60922 7.64973 1.77914 7.46906Q0.949066 7.2884 0.34848 6.87824Q-0.252106 6.46809 -0.574371 5.80891Q-0.891754 5.14973 -0.891754 4.18781Q-0.891754 3.26984 -0.52066 2.6302Q-0.149567 1.99055 0.470551 1.60969Q1.09067 1.22883 1.89145 1.06281Q2.69223 0.891914 3.55161 0.891914Q4.12778 0.891914 4.577 0.940742Q5.0311 0.98957 5.30942 1.0677L5.30942 0.789375Q5.30942 0.0276561 4.85043 -0.431328Q4.39145 -0.890313 3.24887 -0.890313Q2.49203 -0.890313 1.74985 -0.778008Q1.00766 -0.670586 0.470551 -0.470391L0.0896912 -2.86785Q0.34848 -2.95086 0.739105 -3.03875Q1.12973 -3.13152 1.58871 -3.19988Q2.0477 -3.26824 2.55551 -3.31707Q3.06821 -3.37078 3.59067 -3.37078ZM15.051 0.110664L17.1311 -3.08758L20.2122 -3.08758L16.6087 1.97102Q17.8098 3.47004 18.7864 4.89094Q19.7678 6.31184 20.3489 7.43L17.1507 7.43Q16.9895 7.13215 16.7503 6.68293Q16.511 6.22883 16.2083 5.74055Q15.9104 5.25227 15.5784 4.76398Q15.2512 4.27082 14.929 3.87043Q14.6311 4.25129 14.3186 4.71027Q14.011 5.16926 13.7278 5.64289Q13.4495 6.11164 13.1809 6.57062Q12.9124 7.02961 12.7122 7.43L9.67018 7.43Q9.90944 6.93195 10.3294 6.25324Q10.7493 5.56965 11.2376 4.84211Q11.7307 4.10969 12.2678 3.38215Q12.8098 2.64973 13.3323 2.01008Q12.429 0.750312 11.5305 -0.53875Q10.6321 -1.82781 9.74831 -3.08758L12.971 -3.08758L15.051 0.110664Z"/>
</svg>
