<?xml version="1.0" encoding="utf-8" ?>
<svg xmlns="http://www.w3.org/2000/svg" xmlns:xlink="http://www.w3.org/1999/xlink" width="110" height="110">
	<path fill="#CFCFCF" transform="matrix(1.42857 0 0 1.42857 55 47.8571)" d="M11.5 0Q11.5 0.282309 11.4861 0.564278Q11.4723 0.846247 11.4446 1.1272Q11.417 1.40815 11.3755 1.6874Q11.3341 1.96665 11.279 2.24354Q11.224 2.52042 11.1554 2.79427Q11.0868 3.06812 11.0048 3.33827Q10.9229 3.60843 10.8278 3.87423Q10.7326 4.14004 10.6246 4.40086Q10.5166 4.66168 10.3959 4.91688Q10.2752 5.17209 10.1421 5.42106Q10.009 5.67004 9.86388 5.91218Q9.71874 6.15433 9.5619 6.38906Q9.40506 6.62379 9.23689 6.85054Q9.06871 7.07729 8.88962 7.29552Q8.71052 7.51375 8.52094 7.72293Q8.33135 7.9321 8.13173 8.13173Q7.9321 8.33135 7.72293 8.52094Q7.51375 8.71052 7.29552 8.88962Q7.07729 9.06871 6.85054 9.23689Q6.62379 9.40506 6.38906 9.5619Q6.15433 9.71874 5.91218 9.86388Q5.67004 10.009 5.42106 10.1421Q5.17209 10.2752 4.91688 10.3959Q4.66168 10.5166 4.40086 10.6246Q4.14004 10.7326 3.87423 10.8278Q3.60843 10.9229 3.33827 11.0048Q3.06812 11.0868 2.79427 11.1554Q2.52042 11.224 2.24354 11.279Q1.96665 11.3341 1.6874 11.3755Q1.40815 11.417 1.1272 11.4446Q0.846247 11.4723 0.564278 11.4861Q0.282309 11.5 0 11.5Q-0.282309 11.5 -0.564278 11.4861Q-0.846247 11.4723 -1.1272 11.4446Q-1.40815 11.417 -1.6874 11.3755Q-1.96665 11.3341 -2.24354 11.279Q-2.52042 11.224 -2.79427 11.1554Q-3.06812 11.0868 -3.33827 11.0048Q-3.60843 10.9229 -3.87423 10.8278Q-4.14004 10.7326 -4.40086 10.6246Q-4.66168 10.5166 -4.91688 10.3959Q-5.17209 10.2752 -5.42106 10.1421Q-5.67004 10.009 -5.91218 9.86388Q-6.15433 9.71874 -6.38906 9.5619Q-6.62379 9.40506 -6.85054 9.23689Q-7.07729 9.06871 -7.29552 8.88962Q-7.51375 8.71052 -7.72293 8.52094Q-7.9321 8.33135 -8.13173 8.13173Q-8.33135 7.9321 -8.52094 7.72293Q-8.71052 7.51375 -8.88962 7.29552Q-9.06871 7.07729 -9.23689 6.85054Q-9.40506 6.62379 -9.5619 6.38906Q-9.71874 6.15433 -9.86388 5.91218Q-10.009 5.67004 -10.1421 5.42106Q-10.2752 5.17209 -10.3959 4.91688Q-10.5166 4.66168 -10.6246 4.40086Q-10.7326 4.14004 -10.8278 3.87423Q-10.9229 3.60843 -11.0048 3.33827Q-11.0868 3.06812 -11.1554 2.79427Q-11.224 2.52042 -11.279 2.24354Q-11.3341 1.96665 -11.3755 1.6874Q-11.417 1.40815 -11.4446 1.1272Q-11.4723 0.846247 -11.4861 0.564278Q-11.5 0.282309 -11.5 0Q-11.5 -0.282309 -11.4861 -0.564278Q-11.4723 -0.846247 -11.4446 -1.1272Q-11.417 -1.40815 -11.3755 -1.6874Q-11.3341 -1.96665 -11.279 -2.24354Q-11.224 -2.52042 -11.1554 -2.79427Q-11.0868 -3.06812 -11.0048 -3.33827Q-10.9229 -3.60843 -10.8278 -3.87423Q-10.7326 -4.14004 -10.6246 -4.40086Q-10.5166 -4.66168 -10.3959 -4.91688Q-10.2752 -5.17209 -10.1421 -5.42106Q-10.009 -5.67004 -9.86388 -5.91218Q-9.71874 -6.15433 -9.5619 -6.38906Q-9.40506 -6.62379 -9.23689 -6.85054Q-9.06871 -7.07729 -8.88962 -7.29552Q-8.71052 -7.51375 -8.52094 -7.72293Q-8.33135 -7.9321 -8.13173 -8.13173Q-7.9321 -8.33135 -7.72293 -8.52094Q-7.51375 -8.71052 -7.29552 -8.88962Q-7.07729 -9.06871 -6.85054 -9.23689Q-6.62379 -9.40506 -6.38906 -9.5619Q-6.15433 -9.71874 -5.91218 -9.86388Q-5.67004 -10.009 -5.42106 -10.1421Q-5.17209 -10.2752 -4.91688 -10.3959Q-4.66168 -10.5166 -4.40086 -10.6246Q-4.14004 -10.7326 -3.87423 -10.8278Q-3.60843 -10.9229 -3.33827 -11.0048Q-3.06812 -11.0868 -2.79427 -11.1554Q-2.52042 -11.224 -2.24354 -11.279Q-1.96665 -11.3341 -1.6874 -11.3755Q-1.40815 -11.417 -1.1272 -11.4446Q-0.846247 -11.4723 -0.564278 -11.4861Q-0.282309 -11.5 0 -11.5Q0.282309 -11.5 0.564278 -11.4861Q0.846247 -11.4723 1.1272 -11.4446Q1.40815 -11.417 1.6874 -11.3755Q1.96665 -11.3341 2.24354 -11.279Q2.52042 -11.224 2.79427 -11.1554Q3.06812 -11.0868 3.33827 -11.0048Q3.60843 -10.9229 3.87423 -10.8278Q4.14004 -10.7326 4.40086 -10.6246Q4.66168 -10.5166 4.91688 -10.3959Q5.17209 -10.2752 5.42106 -10.1421Q5.67004 -10.009 5.91218 -9.86388Q6.15433 -9.71874 6.38906 -9.5619Q6.62379 -9.40506 6.85054 -9.23689Q7.07729 -9.06871 7.29552 -8.88962Q7.51375 -8.71052 7.72293 -8.52094Q7.9321 -8.33135 8.13173 -8.13173Q8.33135 -7.9321 8.52094 -7.72293Q8.71052 -7.51375 8.88962 -7.29552Q9.06871 -7.07729 9.23689 -6.85054Q9.40506 -6.62379 9.5619 -6.38906Q9.71874 -6.15433 9.86388 -5.91218Q10.009 -5.67004 10.1421 -5.42106Q10.2752 -5.17209 10.3959 -4.91688Q10.5166 -4.66168 10.6246 -4.40086Q10.7326 -4.14004 10.8278 -3.87423Q10.9229 -3.60843 11.0048 -3.33827Q11.0868 -3.06812 11.1554 -2.79427Q11.224 -2.52042 11.279 -2.24354Q11.3341 -1.96665 11.3755 -1.6874Q11.417 -1.40815 11.4446 -1.1272Q11.4723 -0.846247 11.4861 -0.564278Q11.5 -0.282309 11.5 0"/>
	<path fill="white" transform="matrix(1.42857 0 0 1.42857 55 47.8571)" d="M8.5 0Q8.5 0.208663 8.48976 0.417075Q8.47952 0.625487 8.45907 0.833146Q8.43862 1.0408 8.408 1.24721Q8.37738 1.45361 8.33667 1.65827Q8.29597 1.86292 8.24527 2.06533Q8.19456 2.26774 8.13399 2.46742Q8.07342 2.6671 8.00312 2.86356Q7.93283 3.06003 7.85298 3.25281Q7.77312 3.44559 7.68391 3.63422Q7.59469 3.82285 7.49633 4.00687Q7.39797 4.1909 7.29069 4.36987Q7.18342 4.54885 7.06749 4.72235Q6.95156 4.89584 6.82726 5.06344Q6.70296 5.23104 6.57059 5.39234Q6.43821 5.55364 6.29808 5.70825Q6.15795 5.86286 6.01041 6.01041Q5.86286 6.15795 5.70825 6.29808Q5.55364 6.43821 5.39234 6.57059Q5.23104 6.70296 5.06344 6.82726Q4.89584 6.95156 4.72235 7.06749Q4.54885 7.18342 4.36987 7.29069Q4.1909 7.39797 4.00687 7.49633Q3.82285 7.59469 3.63422 7.68391Q3.44559 7.77312 3.25281 7.85298Q3.06003 7.93283 2.86356 8.00312Q2.6671 8.07342 2.46742 8.13399Q2.26774 8.19456 2.06533 8.24527Q1.86292 8.29597 1.65827 8.33667Q1.45361 8.37738 1.24721 8.408Q1.0408 8.43862 0.833146 8.45907Q0.625487 8.47952 0.417075 8.48976Q0.208663 8.5 0 8.5Q-0.208663 8.5 -0.417075 8.48976Q-0.625487 8.47952 -0.833146 8.45907Q-1.0408 8.43862 -1.24721 8.408Q-1.45361 8.37738 -1.65827 8.33667Q-1.86292 8.29597 -2.06533 8.24527Q-2.26774 8.19456 -2.46742 8.13399Q-2.6671 8.07342 -2.86356 8.00312Q-3.06003 7.93283 -3.25281 7.85298Q-3.44559 7.77312 -3.63422 7.68391Q-3.82285 7.59469 -4.00687 7.49633Q-4.1909 7.39797 -4.36987 7.29069Q-4.54885 7.18342 -4.72235 7.06749Q-4.89584 6.95156 -5.06344 6.82726Q-5.23104 6.70296 -5.39234 6.57059Q-5.55364 6.43821 -5.70825 6.29808Q-5.86286 6.15795 -6.01041 6.01041Q-6.15795 5.86286 -6.29808 5.70825Q-6.43821 5.55364 -6.57059 5.39234Q-6.70296 5.23104 -6.82726 5.06344Q-6.95156 4.89584 -7.06749 4.72235Q-7.18342 4.54885 -7.29069 4.36987Q-7.39797 4.1909 -7.49633 4.00687Q-7.59469 3.82285 -7.68391 3.63422Q-7.77312 3.44559 -7.85298 3.25281Q-7.93283 3.06003 -8.00312 2.86356Q-8.07342 2.6671 -8.13399 2.46742Q-8.19456 2.26774 -8.24527 2.06533Q-8.29597 1.86292 -8.33667 1.65827Q-8.37738 1.45361 -8.408 1.24721Q-8.43862 1.0408 -8.45907 0.833146Q-8.47952 0.625487 -8.48976 0.417075Q-8.5 0.208663 -8.5 0Q-8.5 -0.208663 -8.48976 -0.417075Q-8.47952 -0.625487 -8.45907 -0.833146Q-8.43862 -1.0408 -8.408 -1.24721Q-8.37738 -1.45361 -8.33667 -1.65827Q-8.29597 -1.86292 -8.24527 -2.06533Q-8.19456 -2.26774 -8.13399 -2.46742Q-8.07342 -2.6671 -8.00312 -2.86356Q-7.93283 -3.06003 -7.85298 -3.25281Q-7.77312 -3.44559 -7.68391 -3.63422Q-7.59469 -3.82285 -7.49633 -4.00687Q-7.39797 -4.1909 -7.29069 -4.36987Q-7.18342 -4.54885 -7.06749 -4.72235Q-6.95156 -4.89584 -6.82726 -5.06344Q-6.70296 -5.23104 -6.57059 -5.39234Q-6.43821 -5.55364 -6.29808 -5.70825Q-6.15795 -5.86286 -6.01041 -6.01041Q-5.86286 -6.15795 -5.70825 -6.29808Q-5.55364 -6.43821 -5.39234 -6.57059Q-5.23104 -6.70296 -5.06344 -6.82726Q-4.89584 -6.95156 -4.72235 -7.06749Q-4.54885 -7.18342 -4.36987 -7.29069Q-4.1909 -7.39797 -4.00687 -7.49633Q-3.82285 -7.59469 -3.63422 -7.68391Q-3.44559 -7.77312 -3.25281 -7.85298Q-3.06003 -7.93283 -2.86356 -8.00312Q-2.6671 -8.07342 -2.46742 -8.13399Q-2.26774 -8.19456 -2.06533 -8.24527Q-1.86292 -8.29597 -1.65827 -8.33667Q-1.45361 -8.37738 -1.24721 -8.408Q-1.0408 -8.43862 -0.833146 -8.45907Q-0.625487 -8.47952 -0.417075 -8.48976Q-0.208663 -8.5 0 -8.5Q0.208663 -8.5 0.417075 -8.48976Q0.625487 -8.47952 0.833146 -8.45907Q1.0408 -8.43862 1.24721 -8.408Q1.45361 -8.37738 1.65827 -8.33667Q1.86292 -8.29597 2.06533 -8.24527Q2.26774 -8.19456 2.46742 -8.13399Q2.6671 -8.07342 2.86356 -8.00312Q3.06003 -7.93283 3.25281 -7.85298Q3.44559 -7.77312 3.63422 -7.68391Q3.82285 -7.59469 4.00687 -7.49633Q4.1909 -7.39797 4.36987 -7.29069Q4.54885 -7.18342 4.72235 -7.06749Q4.89584 -6.95156 5.06344 -6.82726Q5.23104 -6.70296 5.39234 -6.57059Q5.55364 -6.43821 5.70825 -6.29808Q5.86286 -6.15795 6.01041 -6.01041Q6.15795 -5.86286 6.29808 -5.70825Q6.43821 -5.55364 6.57059 -5.39234Q6.70296 -5.23104 6.82726 -5.06344Q6.95156 -4.89584 7.06749 -4.72235Q7.18342 -4.54885 7.29069 -4.36987Q7.39797 -4.1909 7.49633 -4.00687Q7.59469 -3.82285 7.68391 -3.63422Q7.77312 -3.44559 7.85298 -3.25281Q7.93283 -3.06003 8.00312 -2.86356Q8.07342 -2.6671 8.13399 -2.46742Q8.19456 -2.26774 8.24527 -2.06533Q8.29597 -1.86292 8.33667 -1.65827Q8.37738 -1.45361 8.408 -1.24721Q8.43862 -1.0408 8.45907 -0.833146Q8.47952 -0.625487 8.48976 -0.417075Q8.5 -0.208663 8.5 0"/>
	<path fill="none" stroke="black" stroke-width="2.3999999" stroke-linejoin="round" transform="translate(55 79.2857)" d="M-18.7693 7.61066Q-19.9118 7.61066 -21.0398 7.53742Q-22.1677 7.46906 -23.3884 7.21027L-23.3884 -6.23211Q-22.4314 -6.40789 -21.2937 -6.49578Q-20.1511 -6.58855 -19.1697 -6.58855Q-17.8513 -6.58855 -16.7429 -6.39813Q-15.6296 -6.2077 -14.8288 -5.74871Q-14.0281 -5.28973 -13.5788 -4.53777Q-13.1296 -3.7907 -13.1296 -2.69207Q-13.1296 -1.03191 -14.7312 -0.0700002Q-13.4079 0.428047 -12.9294 1.2923Q-12.4509 2.15168 -12.4509 3.23078Q-12.4509 5.40852 -14.0427 6.51203Q-15.6296 7.61066 -18.7693 7.61066ZM-20.3513 1.38996L-20.3513 4.96906Q-20.0095 5.00812 -19.6091 5.03254Q-19.2087 5.05207 -18.7302 5.05207Q-17.3288 5.05207 -16.4695 4.65168Q-15.6101 4.25129 -15.6101 3.17219Q-15.6101 2.21027 -16.3327 1.80012Q-17.0505 1.38996 -18.3884 1.38996L-20.3513 1.38996ZM-20.3513 -0.987969L-18.8279 -0.987969Q-17.3923 -0.987969 -16.7722 -1.35906Q-16.1521 -1.73016 -16.1521 -2.55047Q-16.1521 -3.39031 -16.7917 -3.72723Q-17.4314 -4.06902 -18.6716 -4.06902Q-19.072 -4.06902 -19.531 -4.05926Q-19.99 -4.04949 -20.3513 -4.01043L-20.3513 -0.987969ZM-6.13007 5.34992Q-5.69061 5.34992 -5.29022 5.33039Q-4.88983 5.31086 -4.65057 5.2718L-4.65057 3.01105Q-4.83124 2.97199 -5.19257 2.93293Q-5.54901 2.88898 -5.85175 2.88898Q-6.27167 2.88898 -6.64276 2.9427Q-7.00897 2.99152 -7.29218 3.13312Q-7.5705 3.26984 -7.73163 3.5091Q-7.88788 3.74836 -7.88788 4.10969Q-7.88788 4.80793 -7.41913 5.08137Q-6.95038 5.34992 -6.13007 5.34992ZM-6.36932 -3.37078Q-5.05096 -3.37078 -4.17206 -3.06805Q-3.28827 -2.7702 -2.76093 -2.20867Q-2.2287 -1.65203 -2.00897 -0.85125Q-1.78925 -0.0504689 -1.78925 0.930976L-1.78925 7.13215Q-2.42889 7.26887 -3.57147 7.4593Q-4.70917 7.64973 -6.33026 7.64973Q-7.35077 7.64973 -8.18085 7.46906Q-9.01093 7.2884 -9.61151 6.87824Q-10.2121 6.46809 -10.5344 5.80891Q-10.8517 5.14973 -10.8517 4.18781Q-10.8517 3.26984 -10.4807 2.6302Q-10.1096 1.99055 -9.48944 1.60969Q-8.86932 1.22883 -8.06854 1.06281Q-7.26776 0.891914 -6.40839 0.891914Q-5.83221 0.891914 -5.383 0.940742Q-4.92889 0.98957 -4.65057 1.0677L-4.65057 0.789375Q-4.65057 0.0276561 -5.10956 -0.431328Q-5.56854 -0.890313 -6.71112 -0.890313Q-7.46796 -0.890313 -8.21014 -0.778008Q-8.95233 -0.670586 -9.48944 -0.470391L-9.8703 -2.86785Q-9.61151 -2.95086 -9.22089 -3.03875Q-8.83026 -3.13152 -8.37128 -3.19988Q-7.91229 -3.26824 -7.40448 -3.31707Q-6.89178 -3.37078 -6.36932 -3.37078ZM3.92894 5.29133Q4.74925 5.29133 5.08617 5.1302Q5.42796 4.96906 5.42796 4.51008Q5.42796 4.14875 4.98851 3.8802Q4.54906 3.61164 3.65062 3.26984Q2.95238 3.01105 2.38109 2.73273Q1.8098 2.44953 1.40941 2.05891Q1.00902 1.66828 0.789291 1.13117Q0.569565 0.58918 0.569565 -0.167656Q0.569565 -1.65203 1.6682 -2.51141Q2.77171 -3.37078 4.69066 -3.37078Q5.64769 -3.37078 6.5266 -3.19988Q7.41039 -3.02898 7.92796 -2.82879L7.41039 -0.509453Q6.88792 -0.690117 6.27757 -0.826836Q5.6721 -0.968438 4.91039 -0.968438Q3.50902 -0.968438 3.50902 -0.19207Q3.50902 -0.0114064 3.56761 0.130195Q3.63109 0.271797 3.81175 0.403633Q3.99242 0.530586 4.30003 0.681953Q4.60765 0.828437 5.09105 1.0091Q6.06761 1.37043 6.70726 1.72199Q7.35179 2.06867 7.718 2.47883Q8.0891 2.88898 8.24046 3.39191Q8.39183 3.88996 8.39183 4.54914Q8.39183 6.11164 7.21996 6.91242Q6.04808 7.70832 3.90941 7.70832Q2.50804 7.70832 1.57542 7.46906Q0.64769 7.2298 0.291245 7.06867L0.789291 4.65168Q1.55101 4.94953 2.34691 5.12043Q3.14769 5.29133 3.92894 5.29133ZM13.5899 7.43L10.6114 7.43L10.6114 -3.08758L13.5899 -3.08758L13.5899 7.43ZM13.8682 -6.12957Q13.8682 -5.30926 13.336 -4.84051Q12.8086 -4.37176 12.0909 -4.37176Q11.3682 -4.37176 10.836 -4.84051Q10.3086 -5.30926 10.3086 -6.12957Q10.3086 -6.94988 10.836 -7.41863Q11.3682 -7.89227 12.0909 -7.89227Q12.8086 -7.89227 13.336 -7.41863Q13.8682 -6.94988 13.8682 -6.12957ZM15.8884 2.17121Q15.8884 1.02863 16.2595 0.0227733Q16.6306 -0.987969 17.3289 -1.73992Q18.032 -2.49188 19.0281 -2.93133Q20.0291 -3.37078 21.3083 -3.37078Q22.1482 -3.37078 22.8464 -3.21941Q23.5496 -3.06805 24.2087 -2.78973L23.5886 -0.411797Q23.1687 -0.568047 22.6658 -0.690117Q22.1677 -0.812188 21.5476 -0.812188Q20.2292 -0.812188 19.5798 0.00812483Q18.9304 0.828437 18.9304 2.17121Q18.9304 3.59211 19.5408 4.37336Q20.1511 5.14973 21.6697 5.14973Q22.2117 5.14973 22.8318 5.05207Q23.4519 4.94953 23.9695 4.7298L24.3894 7.17121Q23.8718 7.39094 23.0906 7.54719Q22.3093 7.70832 21.3718 7.70832Q19.9314 7.70832 18.8914 7.27863Q17.8513 6.84895 17.1775 6.11164Q16.5085 5.36945 16.196 4.35871Q15.8884 3.34797 15.8884 2.17121Z"/>
	<path fill="white" transform="translate(55 79.2857)" d="M-18.7693 7.61066Q-19.9118 7.61066 -21.0398 7.53742Q-22.1677 7.46906 -23.3884 7.21027L-23.3884 -6.23211Q-22.4314 -6.40789 -21.2937 -6.49578Q-20.1511 -6.58855 -19.1697 -6.58855Q-17.8513 -6.58855 -16.7429 -6.39813Q-15.6296 -6.2077 -14.8288 -5.74871Q-14.0281 -5.28973 -13.5788 -4.53777Q-13.1296 -3.7907 -13.1296 -2.69207Q-13.1296 -1.03191 -14.7312 -0.0700002Q-13.4079 0.428047 -12.9294 1.2923Q-12.4509 2.15168 -12.4509 3.23078Q-12.4509 5.40852 -14.0427 6.51203Q-15.6296 7.61066 -18.7693 7.61066ZM-20.3513 1.38996L-20.3513 4.96906Q-20.0095 5.00812 -19.6091 5.03254Q-19.2087 5.05207 -18.7302 5.05207Q-17.3288 5.05207 -16.4695 4.65168Q-15.6101 4.25129 -15.6101 3.17219Q-15.6101 2.21027 -16.3327 1.80012Q-17.0505 1.38996 -18.3884 1.38996L-20.3513 1.38996ZM-20.3513 -0.987969L-18.8279 -0.987969Q-17.3923 -0.987969 -16.7722 -1.35906Q-16.1521 -1.73016 -16.1521 -2.55047Q-16.1521 -3.39031 -16.7917 -3.72723Q-17.4314 -4.06902 -18.6716 -4.06902Q-19.072 -4.06902 -19.531 -4.05926Q-19.99 -4.04949 -20.3513 -4.01043L-20.3513 -0.987969ZM-6.13007 5.34992Q-5.69061 5.34992 -5.29022 5.33039Q-4.88983 5.31086 -4.65057 5.2718L-4.65057 3.01105Q-4.83124 2.97199 -5.19257 2.93293Q-5.54901 2.88898 -5.85175 2.88898Q-6.27167 2.88898 -6.64276 2.9427Q-7.00897 2.99152 -7.29218 3.13312Q-7.5705 3.26984 -7.73163 3.5091Q-7.88788 3.74836 -7.88788 4.10969Q-7.88788 4.80793 -7.41913 5.08137Q-6.95038 5.34992 -6.13007 5.34992ZM-6.36932 -3.37078Q-5.05096 -3.37078 -4.17206 -3.06805Q-3.28827 -2.7702 -2.76093 -2.20867Q-2.2287 -1.65203 -2.00897 -0.85125Q-1.78925 -0.0504689 -1.78925 0.930976L-1.78925 7.13215Q-2.42889 7.26887 -3.57147 7.4593Q-4.70917 7.64973 -6.33026 7.64973Q-7.35077 7.64973 -8.18085 7.46906Q-9.01093 7.2884 -9.61151 6.87824Q-10.2121 6.46809 -10.5344 5.80891Q-10.8517 5.14973 -10.8517 4.18781Q-10.8517 3.26984 -10.4807 2.6302Q-10.1096 1.99055 -9.48944 1.60969Q-8.86932 1.22883 -8.06854 1.06281Q-7.26776 0.891914 -6.40839 0.891914Q-5.83221 0.891914 -5.383 0.940742Q-4.92889 0.98957 -4.65057 1.0677L-4.65057 0.789375Q-4.65057 0.0276561 -5.10956 -0.431328Q-5.56854 -0.890313 -6.71112 -0.890313Q-7.46796 -0.890313 -8.21014 -0.778008Q-8.95233 -0.670586 -9.48944 -0.470391L-9.8703 -2.86785Q-9.61151 -2.95086 -9.22089 -3.03875Q-8.83026 -3.13152 -8.37128 -3.19988Q-7.91229 -3.26824 -7.40448 -3.31707Q-6.89178 -3.37078 -6.36932 -3.37078ZM3.92894 5.29133Q4.74925 5.29133 5.08617 5.1302Q5.42796 4.96906 5.42796 4.51008Q5.42796 4.14875 4.98851 3.8802Q4.54906 3.61164 3.65062 3.26984Q2.95238 3.01105 2.38109 2.73273Q1.8098 2.44953 1.40941 2.05891Q1.00902 1.66828 0.789291 1.13117Q0.569565 0.58918 0.569565 -0.167656Q0.569565 -1.65203 1.6682 -2.51141Q2.77171 -3.37078 4.69066 -3.37078Q5.64769 -3.37078 6.5266 -3.19988Q7.41039 -3.02898 7.92796 -2.82879L7.41039 -0.509453Q6.88792 -0.690117 6.27757 -0.826836Q5.6721 -0.968438 4.91039 -0.968438Q3.50902 -0.968438 3.50902 -0.19207Q3.50902 -0.0114064 3.56761 0.130195Q3.63109 0.271797 3.81175 0.403633Q3.99242 0.530586 4.30003 0.681953Q4.60765 0.828437 5.09105 1.0091Q6.06761 1.37043 6.70726 1.72199Q7.35179 2.06867 7.718 2.47883Q8.0891 2.88898 8.24046 3.39191Q8.39183 3.88996 8.39183 4.54914Q8.39183 6.11164 7.21996 6.91242Q6.04808 7.70832 3.90941 7.70832Q2.50804 7.70832 1.57542 7.46906Q0.64769 7.2298 0.291245 7.06867L0.789291 4.65168Q1.55101 4.94953 2.34691 5.12043Q3.14769 5.29133 3.92894 5.29133ZM13.5899 7.43L10.6114 7.43L10.6114 -3.08758L13.5899 -3.08758L13.5899 7.43ZM13.8682 -6.12957Q13.8682 -5.30926 13.336 -4.84051Q12.8086 -4.37176 12.0909 -4.37176Q11.3682 -4.37176 10.836 -4.84051Q10.3086 -5.30926 10.3086 -6.12957Q10.3086 -6.94988 10.836 -7.41863Q11.3682 -7.89227 12.0909 -7.89227Q12.8086 -7.89227 13.336 -7.41863Q13.8682 -6.94988 13.8682 -6.12957ZM15.8884 2.17121Q15.8884 1.02863 16.2595 0.0227733Q16.6306 -0.987969 17.3289 -1.73992Q18.032 -2.49188 19.0281 -2.93133Q20.0291 -3.37078 21.3083 -3.37078Q22.1482 -3.37078 22.8464 -3.21941Q23.5496 -3.06805 24.2087 -2.78973L23.5886 -0.411797Q23.1687 -0.568047 22.6658 -0.690117Q22.1677 -0.812188 21.5476 -0.812188Q20.2292 -0.812188 19.5798 0.00812483Q18.9304 0.828437 18.9304 2.17121Q18.9304 3.59211 19.5408 4.37336Q20.1511 5.14973 21.6697 5.14973Q22.2117 5.14973 22.8318 5.05207Q23.4519 4.94953 23.9695 4.7298L24.3894 7.17121Q23.8718 7.39094 23.0906 7.54719Q22.3093 7.70832 21.3718 7.70832Q19.9314 7.70832 18.8914 7.27863Q17.8513 6.84895 17.1775 6.11164Q16.5085 5.36945 16.196 4.35871Q15.8884 3.34797 15.8884 2.17121Z"/>
</svg>
