<svg xmlns="http://www.w3.org/2000/svg" width="110" height="110"><path fill="red" fill-opacity=".298" d="M68.816 59.69 418.82 500.75q.107.136.201.28.094.146.174.3.079.153.143.313t.113.326.079.334q.032.17.048.342.015.171.013.343-.001.172-.02.343-.018.17-.053.338-.035.167-.086.331-.051.163-.118.32-.067.158-.15.308-.081.15-.178.29t-.206.27q-.11.13-.233.25-.122.118-.255.224-.134.106-.277.198t-.295.17-.311.138q-.158.063-.323.109-.164.046-.333.075-.168.03-.338.043-.172.012-.342.009-.172-.005-.342-.026t-.338-.058-.331-.091q-.164-.054-.322-.124-.157-.07-.307-.154-.151-.085-.292-.183-.142-.1-.273-.211-.132-.113-.252-.237t-.227-.26L63.385 64q-.108-.135-.202-.28t-.173-.3-.144-.313-.112-.326-.08-.335-.047-.34-.014-.344.02-.342.053-.339q.035-.167.087-.33.05-.164.118-.321t.149-.307q.082-.15.179-.29t.206-.271.232-.249.256-.225q.133-.105.276-.197t.296-.17.31-.14q.159-.061.323-.107.165-.046.333-.076t.34-.042q.17-.013.341-.009t.342.025.338.058q.167.038.33.092.164.054.322.123.158.07.308.154.15.085.292.184.141.099.273.21.131.113.251.237.12.125.228.26"/><path fill="red" fill-opacity=".698" d="m67.005 61.127 350.004 441.06q.072.09.126.193.052.102.085.213.032.111.042.225.01.115-.002.229t-.047.223q-.034.109-.089.21-.055.099-.128.186t-.163.158q-.09.07-.19.122-.102.052-.211.083-.11.03-.224.04-.115.007-.229-.006-.113-.014-.222-.05-.11-.036-.21-.092-.1-.057-.188-.132t-.16-.166L65.195 62.563q-.072-.09-.125-.193-.053-.102-.085-.213-.032-.11-.043-.225t.003-.229.046-.223.09-.209q.054-.1.127-.187t.163-.158q.09-.07.19-.122.102-.052.212-.083.11-.03.224-.039t.228.005.223.05.21.093q.1.056.188.131t.16.166"/><path fill="red" d="M70.854 67.836q-.13.103-.268.192-.139.09-.286.165t-.3.136q-.154.06-.313.106t-.321.075q-.163.03-.327.043-.165.014-.33.011t-.33-.022q-.163-.018-.325-.053-.161-.035-.318-.086-.158-.05-.31-.116-.15-.066-.295-.146t-.28-.174q-.136-.094-.262-.201t-.241-.226-.217-.248-.193-.268-.165-.286-.136-.3-.106-.313-.075-.321-.043-.327-.01-.33.021-.33q.019-.163.054-.325.035-.161.085-.318.05-.158.117-.31.065-.15.145-.295t.175-.28q.094-.136.2-.262t.226-.24.248-.219.268-.192q.14-.09.286-.165.147-.075.3-.136.154-.06.313-.106.159-.045.322-.075.162-.03.327-.043.164-.013.33-.01.165.002.329.021t.325.054.319.085q.157.05.309.116.151.066.296.146.144.08.28.175t.262.2.24.226.218.248.192.268.165.286.136.3q.06.154.106.313t.075.322q.03.162.043.327.014.164.011.33-.003.165-.022.329-.018.164-.053.325-.035.162-.086.319t-.116.309q-.066.151-.146.296-.08.144-.174.28t-.201.262-.226.24-.248.218"/><path fill="#646464" d="m37.32 33.62 7.832-6.216q.165-.13.342-.245t.365-.21.383-.174q.196-.077.398-.135t.41-.096.417-.054.42-.014.42.027q.209.025.414.069.206.044.407.109.2.064.393.148.194.084.378.186t.357.222.333.256.307.288.278.316l22.2 27.976q.13.165.245.342t.21.364.174.383q.077.196.135.398.058.203.095.41.038.207.055.417t.014.42-.028.42-.068.415-.109.406-.148.394-.186.377-.222.357-.256.334-.288.307-.316.277l-7.833 6.216q-.165.131-.342.245t-.365.21-.383.174-.398.135-.41.096-.417.055-.42.013-.42-.027-.414-.069-.407-.109-.393-.148q-.194-.084-.378-.186t-.357-.222-.333-.256-.307-.288q-.147-.15-.278-.316l-22.2-27.976q-.13-.165-.245-.342t-.21-.364-.174-.383q-.077-.196-.135-.398-.058-.203-.095-.41-.038-.207-.055-.417t-.014-.42.028-.42.068-.415.109-.406.148-.394.186-.377.222-.357.256-.334.288-.307.316-.277m9.803 3.162-1.119.888 16.873 21.262 1.119-.888z"/><path fill="#7c7c7c" d="m47.816 30.761 22.2 27.976-7.832 6.216-22.2-27.976z"/><path fill="none" stroke="#000" stroke-linejoin="round" stroke-width="2.4" d="M39.79 84.035v2.68h-9.258V72.854h3.12v11.182zm5.82.6q.44 0 .84-.019.4-.02.64-.058v-2.261q-.181-.04-.543-.078-.356-.044-.659-.044-.42 0-.79.053-.367.05-.65.19-.279.138-.44.377-.156.24-.156.6 0 .699.469.972.469.269 1.289.269Zm-.24-8.72q1.319 0 2.198.303.884.297 1.411.859.532.557.752 1.357.22.801.22 1.783v6.2q-.64.138-1.782.328-1.138.19-2.76.19-1.02 0-1.85-.18t-1.43-.591-.923-1.07q-.318-.659-.318-1.62 0-.918.371-1.558t.992-1.02 1.42-.547q.801-.171 1.66-.171.577 0 1.026.048.454.05.732.127v-.278q0-.762-.459-1.22-.459-.46-1.601-.46-.757 0-1.5.113-.741.107-1.278.307l-.381-2.397q.259-.083.65-.171.39-.093.849-.161.459-.069.966-.117.513-.054 1.036-.054Zm10.299 8.662q.82 0 1.157-.161.342-.161.342-.62 0-.362-.44-.63-.439-.269-1.337-.61-.699-.26-1.27-.538-.571-.283-.972-.673-.4-.391-.62-.928-.22-.542-.22-1.299 0-1.484 1.1-2.344 1.103-.86 3.022-.86.957 0 1.836.172.883.17 1.401.37l-.518 2.32q-.522-.18-1.132-.317-.606-.142-1.368-.142-1.401 0-1.401.777 0 .18.059.322.063.141.244.273.18.127.488.279.308.146.791.327.977.361 1.616.713.645.346 1.011.757.371.41.522.913.152.498.152 1.157 0 1.562-1.172 2.363-1.172.796-3.31.796-1.402 0-2.335-.24-.927-.239-1.284-.4l.498-2.417q.762.298 1.558.47.8.17 1.582.17Zm6.18-3.042q0-1.401.43-2.451.429-1.05 1.127-1.748.703-.698 1.611-1.06.913-.361 1.875-.361 2.237 0 3.535 1.372 1.304 1.367 1.304 4.028 0 .26-.02.572-.019.307-.043.546H64.91q.098.923.86 1.465.761.537 2.04.537.82 0 1.607-.146.79-.151 1.294-.371l.4 2.417q-.24.122-.64.244-.4.117-.893.205-.488.093-1.05.151-.556.059-1.118.059-1.42 0-2.47-.42t-1.744-1.147q-.688-.733-1.02-1.729-.328-1-.328-2.163Zm7.001-1.138q-.02-.38-.131-.742-.108-.361-.337-.64-.23-.278-.581-.458-.352-.181-.87-.181-.502 0-.864.17-.356.172-.595.45-.24.278-.372.65-.131.37-.19.751zm11.52-1.562q-.401-.098-.943-.205-.537-.113-1.157-.113-.279 0-.67.05-.39.048-.59.107v8.042H74.03v-9.961q.801-.279 1.89-.528 1.089-.253 2.427-.253.244 0 .58.034.343.029.68.078.341.049.678.122.342.068.586.166z"/><path fill="#fff" d="M39.79 84.035v2.68h-9.258V72.854h3.12v11.182zm5.82.6q.44 0 .84-.019.4-.02.64-.058v-2.261q-.181-.04-.543-.078-.356-.044-.659-.044-.42 0-.79.053-.367.05-.65.19-.279.138-.44.377-.156.24-.156.6 0 .699.469.972.469.269 1.289.269m-.24-8.72q1.319 0 2.198.303.884.297 1.411.859.532.557.752 1.357.22.801.22 1.783v6.2q-.64.138-1.782.328-1.138.19-2.76.19-1.02 0-1.85-.18t-1.43-.591-.923-1.07q-.318-.659-.318-1.62 0-.918.371-1.558t.992-1.02 1.42-.547q.801-.171 1.66-.171.577 0 1.026.048.454.05.732.127v-.278q0-.762-.459-1.22-.459-.46-1.601-.46-.757 0-1.5.113-.741.107-1.278.307l-.381-2.397q.259-.083.65-.171.39-.093.849-.161.459-.069.966-.117.513-.054 1.036-.054m10.299 8.662q.82 0 1.157-.161.342-.161.342-.62 0-.362-.44-.63-.439-.269-1.337-.61-.699-.26-1.27-.538-.571-.283-.972-.673-.4-.391-.62-.928-.22-.542-.22-1.299 0-1.484 1.1-2.344 1.103-.86 3.022-.86.957 0 1.836.172.883.17 1.401.37l-.518 2.32q-.522-.18-1.132-.317-.606-.142-1.368-.142-1.401 0-1.401.777 0 .18.059.322.063.141.244.273.18.127.488.279.308.146.791.327.977.361 1.616.713.645.346 1.011.757.371.41.522.913.152.498.152 1.157 0 1.562-1.172 2.363-1.172.796-3.31.796-1.402 0-2.335-.24-.927-.239-1.284-.4l.498-2.417q.762.298 1.558.47.8.17 1.582.17m6.18-3.042q0-1.401.43-2.451.429-1.05 1.127-1.748.703-.698 1.611-1.06.913-.361 1.875-.361 2.237 0 3.535 1.372 1.304 1.367 1.304 4.028 0 .26-.02.572-.019.307-.043.546H64.91q.098.923.86 1.465.761.537 2.04.537.82 0 1.607-.146.79-.151 1.294-.371l.4 2.417q-.24.122-.64.244-.4.117-.893.205-.488.093-1.05.151-.556.059-1.118.059-1.42 0-2.47-.42t-1.744-1.147q-.688-.733-1.02-1.729-.328-1-.328-2.163m7.001-1.138q-.02-.38-.131-.742-.108-.361-.337-.64-.23-.278-.581-.458-.352-.181-.87-.181-.502 0-.864.17-.356.172-.595.45-.24.278-.372.65-.131.37-.19.751zm11.52-1.562q-.401-.098-.943-.205-.537-.113-1.157-.113-.279 0-.67.05-.39.048-.59.107v8.042H74.03v-9.961q.801-.279 1.89-.528 1.089-.253 2.427-.253.244 0 .58.034.343.029.68.078.341.049.678.122.342.068.586.166z"/></svg>