<svg xmlns="http://www.w3.org/2000/svg" xmlns:xlink="http://www.w3.org/1999/xlink" width="110" height="110">
	<path fill="white" transform="matrix(0.77186 1.2021 -1.2021 0.77186 55 47.8571)" d="M10 0L-5 8.66025L-5 -8.66025L10 0Z"/>
	<path fill="#CFCFCF" transform="matrix(0.77186 1.2021 -1.2021 0.77186 55 47.8571)" d="M10.75 1.29904L-4.25 9.95929Q-4.31382 9.99614 -4.38094 10.0265Q-4.44806 10.057 -4.51784 10.0806Q-4.58762 10.1043 -4.65939 10.1211Q-4.73115 10.1378 -4.80421 10.1474Q-4.87727 10.157 -4.95092 10.1595Q-5.02457 10.1619 -5.0981 10.157Q-5.17164 10.1522 -5.24434 10.1402Q-5.31705 10.1282 -5.38823 10.1091Q-5.45941 10.0901 -5.52838 10.0641Q-5.59734 10.0382 -5.66343 10.0056Q-5.72952 9.97297 -5.7921 9.93406Q-5.85468 9.89514 -5.91314 9.85028Q-5.9716 9.80542 -6.02539 9.75505Q-6.07917 9.70468 -6.12776 9.64927Q-6.17635 9.59387 -6.21927 9.53397Q-6.26219 9.47407 -6.29904 9.41025Q-6.5 9.06218 -6.5 8.66025L-6.5 -8.66025Q-6.5 -8.73394 -6.49278 -8.80728Q-6.48555 -8.88062 -6.47118 -8.95289Q-6.4568 -9.02516 -6.43541 -9.09568Q-6.41402 -9.1662 -6.38582 -9.23428Q-6.35762 -9.30236 -6.32288 -9.36735Q-6.28814 -9.43234 -6.2472 -9.49361Q-6.20626 -9.55488 -6.15951 -9.61184Q-6.11277 -9.66881 -6.06066 -9.72091Q-6.00855 -9.77302 -5.95159 -9.81977Q-5.89463 -9.86652 -5.83335 -9.90746Q-5.77208 -9.9484 -5.70709 -9.98314Q-5.6421 -10.0179 -5.57402 -10.0461Q-5.50594 -10.0743 -5.43543 -10.0957Q-5.36491 -10.1171 -5.29263 -10.1314Q-5.22036 -10.1458 -5.14702 -10.153Q-5.07369 -10.1603 -5 -10.1603Q-4.59807 -10.1603 -4.25 -9.95929L10.75 -1.29904Q10.8138 -1.26219 10.8737 -1.21927Q10.9336 -1.17635 10.989 -1.12776Q11.0444 -1.07917 11.0948 -1.02539Q11.1452 -0.971604 11.19 -0.913142Q11.2349 -0.85468 11.2738 -0.792102Q11.3127 -0.729524 11.3453 -0.663433Q11.3779 -0.597342 11.4039 -0.528375Q11.4298 -0.459408 11.4489 -0.388228Q11.468 -0.317049 11.48 -0.244343Q11.492 -0.171637 11.4968 -0.0981045Q11.5016 -0.0245721 11.4992 0.0490788Q11.4968 0.12273 11.4872 0.195789Q11.4775 0.268849 11.4608 0.340615Q11.4441 0.41238 11.4204 0.482159Q11.3967 0.551939 11.3663 0.619061Q11.3359 0.686182 11.299 0.75Q11.0981 1.09808 10.75 1.29904L10.75 1.29904ZM9.25 -1.29904L10 0L9.25 1.29904L-5.75 -7.36122L-5 -8.66025L-3.5 -8.66025L-3.5 8.66025L-5 8.66025L-5.75 7.36122L9.25 -1.29904Z"/>
	<path fill="none" stroke="black" stroke-width="2.2285714" stroke-linejoin="round" transform="translate(55 79.2857)" d="M-25.7318 -5.97285L-25.7318 -3.5018L-29.613 -3.5018L-29.613 6.89929L-32.5102 6.89929L-32.5102 -3.5018L-36.3914 -3.5018L-36.3914 -5.97285L-25.7318 -5.97285ZM-18.1793 -0.418655Q-18.5511 -0.509336 -19.0543 -0.609085Q-19.5531 -0.713368 -20.1289 -0.713368Q-20.3874 -0.713368 -20.7501 -0.668027Q-21.1128 -0.622687 -21.2987 -0.568279L-21.2987 6.89929L-24.0645 6.89929L-24.0645 -2.35016Q-23.3209 -2.6086 -22.3098 -2.83983Q-21.2987 -3.0756 -20.0564 -3.0756Q-19.8297 -3.0756 -19.5168 -3.04386Q-19.1994 -3.01666 -18.8866 -2.97132Q-18.5692 -2.92598 -18.2564 -2.85797Q-17.939 -2.79449 -17.7123 -2.70381L-18.1793 -0.418655ZM-13.4653 6.89929L-16.2311 6.89929L-16.2311 -2.86704L-13.4653 -2.86704L-13.4653 6.89929ZM-13.2069 -5.69174Q-13.2069 -4.93003 -13.7011 -4.49476Q-14.1907 -4.05949 -14.8572 -4.05949Q-15.5283 -4.05949 -16.0225 -4.49476Q-16.5122 -4.93003 -16.5122 -5.69174Q-16.5122 -6.45346 -16.0225 -6.88873Q-15.5283 -7.32853 -14.8572 -7.32853Q-14.1907 -7.32853 -13.7011 -6.88873Q-13.2069 -6.45346 -13.2069 -5.69174ZM-7.13496 4.96778Q-6.7269 4.96778 -6.35511 4.94965Q-5.98332 4.93151 -5.76115 4.89524L-5.76115 2.79598Q-5.92891 2.75971 -6.26443 2.72343Q-6.59541 2.68263 -6.87652 2.68263Q-7.26645 2.68263 -7.61104 2.7325Q-7.95109 2.77784 -8.21406 2.90933Q-8.4725 3.03628 -8.62213 3.25845Q-8.76722 3.48062 -8.76722 3.81614Q-8.76722 4.46451 -8.33195 4.71841Q-7.89668 4.96778 -7.13496 4.96778ZM-7.35713 -3.13001Q-6.13294 -3.13001 -5.31681 -2.8489Q-4.49615 -2.57232 -4.00648 -2.05091Q-3.51227 -1.53403 -3.30823 -0.790447Q-3.1042 -0.046864 -3.1042 0.864478L-3.1042 6.62271Q-3.69816 6.74966 -4.75913 6.92649Q-5.81556 7.10332 -7.32086 7.10332Q-8.26847 7.10332 -9.03926 6.93556Q-9.81005 6.7678 -10.3677 6.38694Q-10.9254 6.00608 -11.2247 5.39398Q-11.5194 4.78189 -11.5194 3.88868Q-11.5194 3.03628 -11.1748 2.44232Q-10.8302 1.84836 -10.2544 1.49471Q-9.67856 1.14105 -8.93498 0.986897Q-8.19139 0.828206 -7.3934 0.828206Q-6.85839 0.828206 -6.44125 0.873546Q-6.01959 0.918886 -5.76115 0.991431L-5.76115 0.732991Q-5.76115 0.0256805 -6.18735 -0.400519Q-6.61355 -0.826719 -7.67451 -0.826719Q-8.37729 -0.826719 -9.06646 -0.722436Q-9.75564 -0.622687 -10.2544 -0.436791L-10.608 -2.663Q-10.3677 -2.74008 -10.005 -2.8217Q-9.64229 -2.90784 -9.21609 -2.97132Q-8.78989 -3.0348 -8.31835 -3.08014Q-7.84227 -3.13001 -7.35713 -3.13001ZM-0.601387 -2.53605Q0.101389 -2.74008 1.21676 -2.91691Q2.33214 -3.09374 3.55633 -3.09374Q4.80319 -3.09374 5.62838 -2.76729Q6.45358 -2.44084 6.93419 -1.84688Q7.41933 -1.25292 7.62336 -0.436791Q7.82739 0.379335 7.82739 1.38136L7.82739 6.89929L5.06163 6.89929L5.06163 1.71688Q5.06163 0.379335 4.70797 -0.173817Q4.35432 -0.731504 3.38857 -0.731504Q3.09386 -0.731504 2.75834 -0.7043Q2.42282 -0.677096 2.16438 -0.640823L2.16438 6.89929L-0.601387 6.89929L-0.601387 -2.53605ZM12.6897 1.69874Q12.6897 4.02017 14.5668 4.02017Q14.993 4.02017 15.3647 3.91135Q15.7365 3.798 15.995 3.64838L15.995 -0.772311Q15.7909 -0.808583 15.5098 -0.835787Q15.2333 -0.862991 14.8615 -0.862991Q13.7642 -0.862991 13.2247 -0.137545Q12.6897 0.583367 12.6897 1.69874ZM18.7607 5.67509Q18.7607 8.06907 17.5456 9.22978Q16.3305 10.3905 13.7869 10.3905Q12.8937 10.3905 12.0005 10.2318Q11.1118 10.0731 10.3501 9.81467L10.8307 7.49324Q11.4836 7.75168 12.1955 7.90131Q12.9118 8.05093 13.8232 8.05093Q15.0111 8.05093 15.5008 7.52952Q15.995 7.01264 15.995 6.19198L15.995 5.84285Q15.5506 6.04689 15.0746 6.15117Q14.603 6.25092 14.0453 6.25092Q12.0186 6.25092 10.9395 5.05393Q9.86496 3.85241 9.86496 1.69874Q9.86496 0.624174 10.2005 -0.259964Q10.536 -1.1441 11.1753 -1.77433Q11.8146 -2.40456 12.7441 -2.74915Q13.6735 -3.09374 14.8433 -3.09374Q15.3466 -3.09374 15.8726 -3.04386Q16.403 -2.99852 16.9199 -2.92145Q17.4413 -2.8489 17.9129 -2.74462Q18.389 -2.64487 18.7607 -2.53605L18.7607 5.67509ZM25.2574 7.08518Q24.0513 7.06704 23.2987 6.82674Q22.546 6.5819 22.1062 6.14663Q21.671 5.71137 21.5123 5.0902Q21.3581 4.46451 21.3581 3.68465L21.3581 -7.06556L24.1239 -7.50989L24.1239 3.1315Q24.1239 3.49876 24.1783 3.798Q24.2372 4.09725 24.3914 4.30128Q24.5501 4.50531 24.8448 4.6368Q25.144 4.76375 25.6473 4.80002L25.2574 7.08518ZM26.7569 2.08867Q26.7569 0.787399 27.1559 -0.187419Q27.5549 -1.16224 28.2032 -1.81061Q28.8561 -2.45897 29.6995 -2.79449Q30.5473 -3.13001 31.4405 -3.13001Q33.5171 -3.13001 34.7232 -1.85595Q35.9338 -0.586415 35.9338 1.88464Q35.9338 2.12494 35.9156 2.41512Q35.8975 2.70076 35.8748 2.92293L29.5997 2.92293Q29.6904 3.77987 30.3977 4.28314Q31.105 4.78189 32.2929 4.78189Q33.0547 4.78189 33.7846 4.64587Q34.5192 4.50531 34.9862 4.30128L35.358 6.54563Q35.1358 6.65898 34.764 6.77233Q34.3922 6.88115 33.9343 6.96276Q33.4809 7.04891 32.9594 7.10332Q32.4426 7.15773 31.9212 7.15773Q30.6017 7.15773 29.6269 6.7678Q28.6521 6.37787 28.0083 5.7023Q27.369 5.02219 27.0607 4.09725Q26.7569 3.16777 26.7569 2.08867ZM33.2587 1.03224Q33.2406 0.678582 33.1363 0.343063Q33.0365 0.00754452 32.8234 -0.250896Q32.6103 -0.509336 32.2839 -0.677096Q31.9574 -0.844855 31.4768 -0.844855Q31.0098 -0.844855 30.6743 -0.686164Q30.3433 -0.527472 30.1211 -0.269032Q29.899 -0.010592 29.7765 0.333995Q29.6541 0.678582 29.5997 1.03224L33.2587 1.03224Z"/>
	<path fill="white" transform="translate(55 79.2857)" d="M-25.7318 -5.97285L-25.7318 -3.5018L-29.613 -3.5018L-29.613 6.89929L-32.5102 6.89929L-32.5102 -3.5018L-36.3914 -3.5018L-36.3914 -5.97285L-25.7318 -5.97285ZM-18.1793 -0.418655Q-18.5511 -0.509336 -19.0543 -0.609085Q-19.5531 -0.713368 -20.1289 -0.713368Q-20.3874 -0.713368 -20.7501 -0.668027Q-21.1128 -0.622687 -21.2987 -0.568279L-21.2987 6.89929L-24.0645 6.89929L-24.0645 -2.35016Q-23.3209 -2.6086 -22.3098 -2.83983Q-21.2987 -3.0756 -20.0564 -3.0756Q-19.8297 -3.0756 -19.5168 -3.04386Q-19.1994 -3.01666 -18.8866 -2.97132Q-18.5692 -2.92598 -18.2564 -2.85797Q-17.939 -2.79449 -17.7123 -2.70381L-18.1793 -0.418655ZM-13.4653 6.89929L-16.2311 6.89929L-16.2311 -2.86704L-13.4653 -2.86704L-13.4653 6.89929ZM-13.2069 -5.69174Q-13.2069 -4.93003 -13.7011 -4.49476Q-14.1907 -4.05949 -14.8572 -4.05949Q-15.5283 -4.05949 -16.0225 -4.49476Q-16.5122 -4.93003 -16.5122 -5.69174Q-16.5122 -6.45346 -16.0225 -6.88873Q-15.5283 -7.32853 -14.8572 -7.32853Q-14.1907 -7.32853 -13.7011 -6.88873Q-13.2069 -6.45346 -13.2069 -5.69174ZM-7.13496 4.96778Q-6.7269 4.96778 -6.35511 4.94965Q-5.98332 4.93151 -5.76115 4.89524L-5.76115 2.79598Q-5.92891 2.75971 -6.26443 2.72343Q-6.59541 2.68263 -6.87652 2.68263Q-7.26645 2.68263 -7.61104 2.7325Q-7.95109 2.77784 -8.21406 2.90933Q-8.4725 3.03628 -8.62213 3.25845Q-8.76722 3.48062 -8.76722 3.81614Q-8.76722 4.46451 -8.33195 4.71841Q-7.89668 4.96778 -7.13496 4.96778ZM-7.35713 -3.13001Q-6.13294 -3.13001 -5.31681 -2.8489Q-4.49615 -2.57232 -4.00648 -2.05091Q-3.51227 -1.53403 -3.30823 -0.790447Q-3.1042 -0.046864 -3.1042 0.864478L-3.1042 6.62271Q-3.69816 6.74966 -4.75913 6.92649Q-5.81556 7.10332 -7.32086 7.10332Q-8.26847 7.10332 -9.03926 6.93556Q-9.81005 6.7678 -10.3677 6.38694Q-10.9254 6.00608 -11.2247 5.39398Q-11.5194 4.78189 -11.5194 3.88868Q-11.5194 3.03628 -11.1748 2.44232Q-10.8302 1.84836 -10.2544 1.49471Q-9.67856 1.14105 -8.93498 0.986897Q-8.19139 0.828206 -7.3934 0.828206Q-6.85839 0.828206 -6.44125 0.873546Q-6.01959 0.918886 -5.76115 0.991431L-5.76115 0.732991Q-5.76115 0.0256805 -6.18735 -0.400519Q-6.61355 -0.826719 -7.67451 -0.826719Q-8.37729 -0.826719 -9.06646 -0.722436Q-9.75564 -0.622687 -10.2544 -0.436791L-10.608 -2.663Q-10.3677 -2.74008 -10.005 -2.8217Q-9.64229 -2.90784 -9.21609 -2.97132Q-8.78989 -3.0348 -8.31835 -3.08014Q-7.84227 -3.13001 -7.35713 -3.13001ZM-0.601387 -2.53605Q0.101389 -2.74008 1.21676 -2.91691Q2.33214 -3.09374 3.55633 -3.09374Q4.80319 -3.09374 5.62838 -2.76729Q6.45358 -2.44084 6.93419 -1.84688Q7.41933 -1.25292 7.62336 -0.436791Q7.82739 0.379335 7.82739 1.38136L7.82739 6.89929L5.06163 6.89929L5.06163 1.71688Q5.06163 0.379335 4.70797 -0.173817Q4.35432 -0.731504 3.38857 -0.731504Q3.09386 -0.731504 2.75834 -0.7043Q2.42282 -0.677096 2.16438 -0.640823L2.16438 6.89929L-0.601387 6.89929L-0.601387 -2.53605ZM12.6897 1.69874Q12.6897 4.02017 14.5668 4.02017Q14.993 4.02017 15.3647 3.91135Q15.7365 3.798 15.995 3.64838L15.995 -0.772311Q15.7909 -0.808583 15.5098 -0.835787Q15.2333 -0.862991 14.8615 -0.862991Q13.7642 -0.862991 13.2247 -0.137545Q12.6897 0.583367 12.6897 1.69874ZM18.7607 5.67509Q18.7607 8.06907 17.5456 9.22978Q16.3305 10.3905 13.7869 10.3905Q12.8937 10.3905 12.0005 10.2318Q11.1118 10.0731 10.3501 9.81467L10.8307 7.49324Q11.4836 7.75168 12.1955 7.90131Q12.9118 8.05093 13.8232 8.05093Q15.0111 8.05093 15.5008 7.52952Q15.995 7.01264 15.995 6.19198L15.995 5.84285Q15.5506 6.04689 15.0746 6.15117Q14.603 6.25092 14.0453 6.25092Q12.0186 6.25092 10.9395 5.05393Q9.86496 3.85241 9.86496 1.69874Q9.86496 0.624174 10.2005 -0.259964Q10.536 -1.1441 11.1753 -1.77433Q11.8146 -2.40456 12.7441 -2.74915Q13.6735 -3.09374 14.8433 -3.09374Q15.3466 -3.09374 15.8726 -3.04386Q16.403 -2.99852 16.9199 -2.92145Q17.4413 -2.8489 17.9129 -2.74462Q18.389 -2.64487 18.7607 -2.53605L18.7607 5.67509ZM25.2574 7.08518Q24.0513 7.06704 23.2987 6.82674Q22.546 6.5819 22.1062 6.14663Q21.671 5.71137 21.5123 5.0902Q21.3581 4.46451 21.3581 3.68465L21.3581 -7.06556L24.1239 -7.50989L24.1239 3.1315Q24.1239 3.49876 24.1783 3.798Q24.2372 4.09725 24.3914 4.30128Q24.5501 4.50531 24.8448 4.6368Q25.144 4.76375 25.6473 4.80002L25.2574 7.08518ZM26.7569 2.08867Q26.7569 0.787399 27.1559 -0.187419Q27.5549 -1.16224 28.2032 -1.81061Q28.8561 -2.45897 29.6995 -2.79449Q30.5473 -3.13001 31.4405 -3.13001Q33.5171 -3.13001 34.7232 -1.85595Q35.9338 -0.586415 35.9338 1.88464Q35.9338 2.12494 35.9156 2.41512Q35.8975 2.70076 35.8748 2.92293L29.5997 2.92293Q29.6904 3.77987 30.3977 4.28314Q31.105 4.78189 32.2929 4.78189Q33.0547 4.78189 33.7846 4.64587Q34.5192 4.50531 34.9862 4.30128L35.358 6.54563Q35.1358 6.65898 34.764 6.77233Q34.3922 6.88115 33.9343 6.96276Q33.4809 7.04891 32.9594 7.10332Q32.4426 7.15773 31.9212 7.15773Q30.6017 7.15773 29.6269 6.7678Q28.6521 6.37787 28.0083 5.7023Q27.369 5.02219 27.0607 4.09725Q26.7569 3.16777 26.7569 2.08867ZM33.2587 1.03224Q33.2406 0.678582 33.1363 0.343063Q33.0365 0.00754452 32.8234 -0.250896Q32.6103 -0.509336 32.2839 -0.677096Q31.9574 -0.844855 31.4768 -0.844855Q31.0098 -0.844855 30.6743 -0.686164Q30.3433 -0.527472 30.1211 -0.269032Q29.899 -0.010592 29.7765 0.333995Q29.6541 0.678582 29.5997 1.03224L33.2587 1.03224Z"/>
</svg>