<?xml version="1.0" encoding="utf-8" ?>
<svg xmlns="http://www.w3.org/2000/svg" xmlns:xlink="http://www.w3.org/1999/xlink" width="110" height="110">
	<path fill="#CECFA3" transform="matrix(1.42857 0 0 1.42857 55 47.8571)" d="M8.5 0Q8.5 0.208663 8.48976 0.417075Q8.47952 0.625487 8.45907 0.833146Q8.43862 1.0408 8.408 1.24721Q8.37738 1.45361 8.33667 1.65827Q8.29597 1.86292 8.24527 2.06533Q8.19456 2.26774 8.13399 2.46742Q8.07342 2.6671 8.00312 2.86356Q7.93283 3.06003 7.85298 3.25281Q7.77312 3.44559 7.68391 3.63422Q7.59469 3.82285 7.49633 4.00687Q7.39797 4.1909 7.29069 4.36987Q7.18342 4.54885 7.06749 4.72235Q6.95156 4.89584 6.82726 5.06344Q6.70296 5.23104 6.57059 5.39234Q6.43821 5.55364 6.29808 5.70825Q6.15795 5.86286 6.01041 6.01041Q5.86286 6.15795 5.70825 6.29808Q5.55364 6.43821 5.39234 6.57059Q5.23104 6.70296 5.06344 6.82726Q4.89584 6.95156 4.72235 7.06749Q4.54885 7.18342 4.36987 7.29069Q4.1909 7.39797 4.00687 7.49633Q3.82285 7.59469 3.63422 7.68391Q3.44559 7.77312 3.25281 7.85298Q3.06003 7.93283 2.86356 8.00312Q2.6671 8.07342 2.46742 8.13399Q2.26774 8.19456 2.06533 8.24527Q1.86292 8.29597 1.65827 8.33667Q1.45361 8.37738 1.24721 8.408Q1.0408 8.43862 0.833146 8.45907Q0.625487 8.47952 0.417075 8.48976Q0.208663 8.5 0 8.5Q-0.208663 8.5 -0.417075 8.48976Q-0.625487 8.47952 -0.833146 8.45907Q-1.0408 8.43862 -1.24721 8.408Q-1.45361 8.37738 -1.65827 8.33667Q-1.86292 8.29597 -2.06533 8.24527Q-2.26774 8.19456 -2.46742 8.13399Q-2.6671 8.07342 -2.86356 8.00312Q-3.06003 7.93283 -3.25281 7.85298Q-3.44559 7.77312 -3.63422 7.68391Q-3.82285 7.59469 -4.00687 7.49633Q-4.1909 7.39797 -4.36987 7.29069Q-4.54885 7.18342 -4.72235 7.06749Q-4.89584 6.95156 -5.06344 6.82726Q-5.23104 6.70296 -5.39234 6.57059Q-5.55364 6.43821 -5.70825 6.29808Q-5.86286 6.15795 -6.01041 6.01041Q-6.15795 5.86286 -6.29808 5.70825Q-6.43821 5.55364 -6.57059 5.39234Q-6.70296 5.23104 -6.82726 5.06344Q-6.95156 4.89584 -7.06749 4.72235Q-7.18342 4.54885 -7.29069 4.36987Q-7.39797 4.1909 -7.49633 4.00687Q-7.59469 3.82285 -7.68391 3.63422Q-7.77312 3.44559 -7.85298 3.25281Q-7.93283 3.06003 -8.00312 2.86356Q-8.07342 2.6671 -8.13399 2.46742Q-8.19456 2.26774 -8.24527 2.06533Q-8.29597 1.86292 -8.33667 1.65827Q-8.37738 1.45361 -8.408 1.24721Q-8.43862 1.0408 -8.45907 0.833146Q-8.47952 0.625487 -8.48976 0.417075Q-8.5 0.208663 -8.5 0Q-8.5 -0.208663 -8.48976 -0.417075Q-8.47952 -0.625487 -8.45907 -0.833146Q-8.43862 -1.0408 -8.408 -1.24721Q-8.37738 -1.45361 -8.33667 -1.65827Q-8.29597 -1.86292 -8.24527 -2.06533Q-8.19456 -2.26774 -8.13399 -2.46742Q-8.07342 -2.6671 -8.00312 -2.86356Q-7.93283 -3.06003 -7.85298 -3.25281Q-7.77312 -3.44559 -7.68391 -3.63422Q-7.59469 -3.82285 -7.49633 -4.00687Q-7.39797 -4.1909 -7.29069 -4.36987Q-7.18342 -4.54885 -7.06749 -4.72235Q-6.95156 -4.89584 -6.82726 -5.06344Q-6.70296 -5.23104 -6.57059 -5.39234Q-6.43821 -5.55364 -6.29808 -5.70825Q-6.15795 -5.86286 -6.01041 -6.01041Q-5.86286 -6.15795 -5.70825 -6.29808Q-5.55364 -6.43821 -5.39234 -6.57059Q-5.23104 -6.70296 -5.06344 -6.82726Q-4.89584 -6.95156 -4.72235 -7.06749Q-4.54885 -7.18342 -4.36987 -7.29069Q-4.1909 -7.39797 -4.00687 -7.49633Q-3.82285 -7.59469 -3.63422 -7.68391Q-3.44559 -7.77312 -3.25281 -7.85298Q-3.06003 -7.93283 -2.86356 -8.00312Q-2.6671 -8.07342 -2.46742 -8.13399Q-2.26774 -8.19456 -2.06533 -8.24527Q-1.86292 -8.29597 -1.65827 -8.33667Q-1.45361 -8.37738 -1.24721 -8.408Q-1.0408 -8.43862 -0.833146 -8.45907Q-0.625487 -8.47952 -0.417075 -8.48976Q-0.208663 -8.5 0 -8.5Q0.208663 -8.5 0.417075 -8.48976Q0.625487 -8.47952 0.833146 -8.45907Q1.0408 -8.43862 1.24721 -8.408Q1.45361 -8.37738 1.65827 -8.33667Q1.86292 -8.29597 2.06533 -8.24527Q2.26774 -8.19456 2.46742 -8.13399Q2.6671 -8.07342 2.86356 -8.00312Q3.06003 -7.93283 3.25281 -7.85298Q3.44559 -7.77312 3.63422 -7.68391Q3.82285 -7.59469 4.00687 -7.49633Q4.1909 -7.39797 4.36987 -7.29069Q4.54885 -7.18342 4.72235 -7.06749Q4.89584 -6.95156 5.06344 -6.82726Q5.23104 -6.70296 5.39234 -6.57059Q5.55364 -6.43821 5.70825 -6.29808Q5.86286 -6.15795 6.01041 -6.01041Q6.15795 -5.86286 6.29808 -5.70825Q6.43821 -5.55364 6.57059 -5.39234Q6.70296 -5.23104 6.82726 -5.06344Q6.95156 -4.89584 7.06749 -4.72235Q7.18342 -4.54885 7.29069 -4.36987Q7.39797 -4.1909 7.49633 -4.00687Q7.59469 -3.82285 7.68391 -3.63422Q7.77312 -3.44559 7.85298 -3.25281Q7.93283 -3.06003 8.00312 -2.86356Q8.07342 -2.6671 8.13399 -2.46742Q8.19456 -2.26774 8.24527 -2.06533Q8.29597 -1.86292 8.33667 -1.65827Q8.37738 -1.45361 8.408 -1.24721Q8.43862 -1.0408 8.45907 -0.833146Q8.47952 -0.625487 8.48976 -0.417075Q8.5 -0.208663 8.5 0"/>
	<path fill="#FEFFC9" transform="matrix(1.42857 0 0 1.42857 55 47.8571)" d="M5.5 0Q5.5 0.135017 5.49337 0.269872Q5.48675 0.404727 5.47352 0.539094Q5.46028 0.673461 5.44047 0.807017Q5.42066 0.940574 5.39432 1.073Q5.36798 1.20542 5.33517 1.33639Q5.30237 1.46736 5.26317 1.59657Q5.22398 1.72577 5.17849 1.85289Q5.13301 1.98002 5.08134 2.10476Q5.02967 2.2295 4.97194 2.35155Q4.91421 2.47361 4.85057 2.59268Q4.78692 2.71176 4.71751 2.82756Q4.64809 2.94337 4.57308 3.05564Q4.49807 3.1679 4.41764 3.27635Q4.33721 3.38479 4.25156 3.48916Q4.1659 3.59353 4.07523 3.69357Q3.98456 3.79362 3.88909 3.88909Q3.79362 3.98456 3.69357 4.07523Q3.59353 4.1659 3.48916 4.25156Q3.38479 4.33721 3.27635 4.41764Q3.1679 4.49807 3.05564 4.57308Q2.94337 4.64809 2.82756 4.71751Q2.71176 4.78692 2.59268 4.85057Q2.47361 4.91421 2.35155 4.97194Q2.2295 5.02967 2.10476 5.08134Q1.98002 5.13301 1.85289 5.17849Q1.72577 5.22398 1.59657 5.26317Q1.46736 5.30237 1.33639 5.33517Q1.20542 5.36798 1.073 5.39432Q0.940574 5.42066 0.807017 5.44047Q0.673461 5.46028 0.539094 5.47352Q0.404727 5.48675 0.269872 5.49338Q0.135017 5.5 0 5.5Q-0.135017 5.5 -0.269872 5.49337Q-0.404727 5.48675 -0.539094 5.47352Q-0.673461 5.46028 -0.807017 5.44047Q-0.940574 5.42066 -1.073 5.39432Q-1.20542 5.36798 -1.33639 5.33517Q-1.46736 5.30237 -1.59657 5.26317Q-1.72577 5.22398 -1.85289 5.17849Q-1.98002 5.13301 -2.10476 5.08134Q-2.2295 5.02967 -2.35155 4.97194Q-2.47361 4.91421 -2.59268 4.85057Q-2.71176 4.78692 -2.82756 4.71751Q-2.94337 4.64809 -3.05564 4.57308Q-3.1679 4.49807 -3.27635 4.41764Q-3.38479 4.33721 -3.48916 4.25156Q-3.59353 4.1659 -3.69357 4.07523Q-3.79362 3.98456 -3.88909 3.88909Q-3.98456 3.79362 -4.07523 3.69357Q-4.1659 3.59353 -4.25156 3.48916Q-4.33721 3.38479 -4.41764 3.27635Q-4.49807 3.1679 -4.57308 3.05564Q-4.64809 2.94337 -4.71751 2.82756Q-4.78692 2.71176 -4.85057 2.59268Q-4.91421 2.47361 -4.97194 2.35155Q-5.02967 2.2295 -5.08134 2.10476Q-5.13301 1.98002 -5.17849 1.85289Q-5.22398 1.72577 -5.26317 1.59657Q-5.30237 1.46736 -5.33517 1.33639Q-5.36798 1.20542 -5.39432 1.073Q-5.42066 0.940574 -5.44047 0.807017Q-5.46028 0.673461 -5.47352 0.539094Q-5.48675 0.404727 -5.49338 0.269872Q-5.5 0.135017 -5.5 0Q-5.5 -0.135017 -5.49337 -0.269872Q-5.48675 -0.404727 -5.47352 -0.539094Q-5.46028 -0.673461 -5.44047 -0.807017Q-5.42066 -0.940574 -5.39432 -1.073Q-5.36798 -1.20542 -5.33517 -1.33639Q-5.30237 -1.46736 -5.26317 -1.59657Q-5.22398 -1.72577 -5.17849 -1.85289Q-5.13301 -1.98002 -5.08134 -2.10476Q-5.02967 -2.2295 -4.97194 -2.35155Q-4.91421 -2.47361 -4.85057 -2.59268Q-4.78692 -2.71176 -4.71751 -2.82756Q-4.64809 -2.94337 -4.57308 -3.05564Q-4.49807 -3.1679 -4.41764 -3.27635Q-4.33721 -3.38479 -4.25156 -3.48916Q-4.1659 -3.59353 -4.07523 -3.69357Q-3.98456 -3.79362 -3.88909 -3.88909Q-3.79362 -3.98456 -3.69357 -4.07523Q-3.59353 -4.1659 -3.48916 -4.25156Q-3.38479 -4.33721 -3.27635 -4.41764Q-3.1679 -4.49807 -3.05564 -4.57308Q-2.94337 -4.64809 -2.82756 -4.71751Q-2.71176 -4.78692 -2.59268 -4.85057Q-2.47361 -4.91421 -2.35155 -4.97194Q-2.2295 -5.02967 -2.10476 -5.08134Q-1.98002 -5.13301 -1.85289 -5.17849Q-1.72577 -5.22398 -1.59657 -5.26317Q-1.46736 -5.30237 -1.33639 -5.33517Q-1.20542 -5.36798 -1.073 -5.39432Q-0.940574 -5.42066 -0.807017 -5.44047Q-0.673461 -5.46028 -0.539094 -5.47352Q-0.404727 -5.48675 -0.269872 -5.49338Q-0.135017 -5.5 0 -5.5Q0.135017 -5.5 0.269872 -5.49337Q0.404727 -5.48675 0.539094 -5.47352Q0.673461 -5.46028 0.807017 -5.44047Q0.940574 -5.42066 1.073 -5.39432Q1.20542 -5.36798 1.33639 -5.33517Q1.46736 -5.30237 1.59657 -5.26317Q1.72577 -5.22398 1.85289 -5.17849Q1.98002 -5.13301 2.10476 -5.08134Q2.2295 -5.02967 2.35155 -4.97194Q2.47361 -4.91421 2.59268 -4.85057Q2.71176 -4.78692 2.82756 -4.71751Q2.94337 -4.64809 3.05564 -4.57308Q3.1679 -4.49807 3.27635 -4.41764Q3.38479 -4.33721 3.48916 -4.25156Q3.59353 -4.1659 3.69357 -4.07523Q3.79362 -3.98456 3.88909 -3.88909Q3.98456 -3.79362 4.07523 -3.69357Q4.1659 -3.59353 4.25156 -3.48916Q4.33721 -3.38479 4.41764 -3.27635Q4.49807 -3.1679 4.57308 -3.05564Q4.64809 -2.94337 4.71751 -2.82756Q4.78692 -2.71176 4.85057 -2.59268Q4.91421 -2.47361 4.97194 -2.35155Q5.02967 -2.2295 5.08134 -2.10476Q5.13301 -1.98002 5.17849 -1.85289Q5.22398 -1.72577 5.26317 -1.59657Q5.30237 -1.46736 5.33517 -1.33639Q5.36798 -1.20542 5.39432 -1.073Q5.42066 -0.940574 5.44047 -0.807017Q5.46028 -0.673461 5.47352 -0.539094Q5.48675 -0.404727 5.49338 -0.269872Q5.5 -0.135017 5.5 0"/>
	<path fill="none" stroke="black" stroke-width="2.3999999" stroke-linejoin="round" transform="translate(55 79.2857)" d="M-29.0184 7.43L-29.0184 -6.4323L-19.7411 -6.4323L-19.7411 -3.81023L-25.8983 -3.81023L-25.8983 -0.909844L-20.4198 -0.909844L-20.4198 1.71223L-25.8983 1.71223L-25.8983 7.43L-29.0184 7.43ZM-13.7201 5.34992Q-13.2806 5.34992 -12.8802 5.33039Q-12.4798 5.31086 -12.2406 5.2718L-12.2406 3.01105Q-12.4212 2.97199 -12.7826 2.93293Q-13.139 2.88898 -13.4417 2.88898Q-13.8617 2.88898 -14.2327 2.9427Q-14.599 2.99152 -14.8822 3.13312Q-15.1605 3.26984 -15.3216 3.5091Q-15.4779 3.74836 -15.4779 4.10969Q-15.4779 4.80793 -15.0091 5.08137Q-14.5404 5.34992 -13.7201 5.34992ZM-13.9593 -3.37078Q-12.641 -3.37078 -11.762 -3.06805Q-10.8783 -2.7702 -10.3509 -2.20867Q-9.81869 -1.65203 -9.59896 -0.85125Q-9.37923 -0.0504689 -9.37923 0.930976L-9.37923 7.13215Q-10.0189 7.26887 -11.1615 7.4593Q-12.2992 7.64973 -13.9202 7.64973Q-14.9408 7.64973 -15.7708 7.46906Q-16.6009 7.2884 -17.2015 6.87824Q-17.8021 6.46809 -18.1244 5.80891Q-18.4417 5.14973 -18.4417 4.18781Q-18.4417 3.26984 -18.0706 2.6302Q-17.6995 1.99055 -17.0794 1.60969Q-16.4593 1.22883 -15.6585 1.06281Q-14.8577 0.891914 -13.9984 0.891914Q-13.4222 0.891914 -12.973 0.940742Q-12.5189 0.98957 -12.2406 1.0677L-12.2406 0.789375Q-12.2406 0.0276561 -12.6995 -0.431328Q-13.1585 -0.890313 -14.3011 -0.890313Q-15.0579 -0.890313 -15.8001 -0.778008Q-16.5423 -0.670586 -17.0794 -0.470391L-17.4603 -2.86785Q-17.2015 -2.95086 -16.8109 -3.03875Q-16.4202 -3.13152 -15.9613 -3.19988Q-15.5023 -3.26824 -14.9945 -3.31707Q-14.4818 -3.37078 -13.9593 -3.37078ZM-3.66105 5.29133Q-2.84074 5.29133 -2.50382 5.1302Q-2.16203 4.96906 -2.16203 4.51008Q-2.16203 4.14875 -2.60148 3.8802Q-3.04093 3.61164 -3.93937 3.26984Q-4.63761 3.01105 -5.2089 2.73273Q-5.78019 2.44953 -6.18058 2.05891Q-6.58097 1.66828 -6.8007 1.13117Q-7.02042 0.58918 -7.02042 -0.167656Q-7.02042 -1.65203 -5.92179 -2.51141Q-4.81828 -3.37078 -2.89933 -3.37078Q-1.9423 -3.37078 -1.06339 -3.19988Q-0.179604 -3.02898 0.337975 -2.82879L-0.179604 -0.509453Q-0.702065 -0.690117 -1.31242 -0.826836Q-1.91788 -0.968438 -2.6796 -0.968438Q-4.08097 -0.968438 -4.08097 -0.19207Q-4.08097 -0.0114064 -4.02238 0.130195Q-3.9589 0.271797 -3.77824 0.403633Q-3.59757 0.530586 -3.28996 0.681953Q-2.98234 0.828437 -2.49894 1.0091Q-1.52238 1.37043 -0.882729 1.72199Q-0.238197 2.06867 0.128014 2.47883Q0.499107 2.88898 0.650475 3.39191Q0.801842 3.88996 0.801842 4.54914Q0.801842 6.11164 -0.370033 6.91242Q-1.54191 7.70832 -3.68058 7.70832Q-5.08195 7.70832 -6.01456 7.46906Q-6.9423 7.2298 -7.29874 7.06867L-6.8007 4.65168Q-6.03898 4.94953 -5.24308 5.12043Q-4.4423 5.29133 -3.66105 5.29133ZM2.91883 -5.70965L5.90223 -6.18816L5.90223 -3.08758L9.48133 -3.08758L9.48133 -0.611992L5.90223 -0.611992L5.90223 3.08918Q5.90223 4.03156 6.22938 4.59309Q6.56141 5.14973 7.56239 5.14973Q8.0409 5.14973 8.54871 5.06184Q9.06141 4.96906 9.48133 4.80793L9.90125 7.13215Q9.35926 7.35187 8.70008 7.50812Q8.0409 7.66926 7.07899 7.66926Q5.85828 7.66926 5.0575 7.34211Q4.2616 7.01008 3.77821 6.41926Q3.29969 5.82844 3.10926 4.98859Q2.91883 4.14875 2.91883 3.12824L2.91883 -5.70965ZM11.3984 2.24934Q11.3984 0.847969 11.8281 -0.201836Q12.2578 -1.25164 12.956 -1.94988Q13.6592 -2.64813 14.5674 -3.00945Q15.4805 -3.37078 16.4424 -3.37078Q18.6787 -3.37078 19.9775 -1.99871Q21.2812 -0.631524 21.2812 2.02961Q21.2812 2.2884 21.2617 2.6009Q21.2422 2.90852 21.2178 3.14777L14.46 3.14777Q14.5576 4.07062 15.3193 4.61262Q16.081 5.14973 17.3603 5.14973Q18.1807 5.14973 18.9668 5.00324Q19.7578 4.85187 20.2607 4.63215L20.6611 7.04914Q20.4219 7.17121 20.0215 7.29328Q19.6211 7.41047 19.1279 7.49836Q18.6396 7.59113 18.0781 7.64973Q17.5215 7.70832 16.96 7.70832Q15.5391 7.70832 14.4893 7.2884Q13.4394 6.86848 12.7461 6.14094Q12.0576 5.40852 11.7256 4.41242Q11.3984 3.41145 11.3984 2.24934ZM18.4004 1.11164Q18.3809 0.730781 18.2685 0.369453Q18.1611 0.00812483 17.9316 -0.270195Q17.7021 -0.548516 17.3506 -0.72918Q16.999 -0.909844 16.4814 -0.909844Q15.9785 -0.909844 15.6172 -0.738945Q15.2607 -0.568047 15.0215 -0.289727Q14.7822 -0.0114064 14.6504 0.359687Q14.5185 0.730781 14.46 1.11164L18.4004 1.11164ZM29.9192 -0.45086Q29.5189 -0.548516 28.9769 -0.655938Q28.4398 -0.768242 27.8196 -0.768242Q27.5413 -0.768242 27.1507 -0.719414Q26.7601 -0.670586 26.5599 -0.611992L26.5599 7.43L23.5814 7.43L23.5814 -2.53094Q24.3821 -2.80926 25.471 -3.05828Q26.5599 -3.31219 27.8978 -3.31219Q28.1419 -3.31219 28.4788 -3.27801Q28.8206 -3.24871 29.1575 -3.19988Q29.4993 -3.15105 29.8362 -3.07781Q30.178 -3.00945 30.4222 -2.9118L29.9192 -0.45086Z"/>
	<path fill="white" transform="translate(55 79.2857)" d="M-29.0184 7.43L-29.0184 -6.4323L-19.7411 -6.4323L-19.7411 -3.81023L-25.8983 -3.81023L-25.8983 -0.909844L-20.4198 -0.909844L-20.4198 1.71223L-25.8983 1.71223L-25.8983 7.43L-29.0184 7.43ZM-13.7201 5.34992Q-13.2806 5.34992 -12.8802 5.33039Q-12.4798 5.31086 -12.2406 5.2718L-12.2406 3.01105Q-12.4212 2.97199 -12.7826 2.93293Q-13.139 2.88898 -13.4417 2.88898Q-13.8617 2.88898 -14.2327 2.9427Q-14.599 2.99152 -14.8822 3.13312Q-15.1605 3.26984 -15.3216 3.5091Q-15.4779 3.74836 -15.4779 4.10969Q-15.4779 4.80793 -15.0091 5.08137Q-14.5404 5.34992 -13.7201 5.34992ZM-13.9593 -3.37078Q-12.641 -3.37078 -11.762 -3.06805Q-10.8783 -2.7702 -10.3509 -2.20867Q-9.81869 -1.65203 -9.59896 -0.85125Q-9.37923 -0.0504689 -9.37923 0.930976L-9.37923 7.13215Q-10.0189 7.26887 -11.1615 7.4593Q-12.2992 7.64973 -13.9202 7.64973Q-14.9408 7.64973 -15.7708 7.46906Q-16.6009 7.2884 -17.2015 6.87824Q-17.8021 6.46809 -18.1244 5.80891Q-18.4417 5.14973 -18.4417 4.18781Q-18.4417 3.26984 -18.0706 2.6302Q-17.6995 1.99055 -17.0794 1.60969Q-16.4593 1.22883 -15.6585 1.06281Q-14.8577 0.891914 -13.9984 0.891914Q-13.4222 0.891914 -12.973 0.940742Q-12.5189 0.98957 -12.2406 1.0677L-12.2406 0.789375Q-12.2406 0.0276561 -12.6995 -0.431328Q-13.1585 -0.890313 -14.3011 -0.890313Q-15.0579 -0.890313 -15.8001 -0.778008Q-16.5423 -0.670586 -17.0794 -0.470391L-17.4603 -2.86785Q-17.2015 -2.95086 -16.8109 -3.03875Q-16.4202 -3.13152 -15.9613 -3.19988Q-15.5023 -3.26824 -14.9945 -3.31707Q-14.4818 -3.37078 -13.9593 -3.37078ZM-3.66105 5.29133Q-2.84074 5.29133 -2.50382 5.1302Q-2.16203 4.96906 -2.16203 4.51008Q-2.16203 4.14875 -2.60148 3.8802Q-3.04093 3.61164 -3.93937 3.26984Q-4.63761 3.01105 -5.2089 2.73273Q-5.78019 2.44953 -6.18058 2.05891Q-6.58097 1.66828 -6.8007 1.13117Q-7.02042 0.58918 -7.02042 -0.167656Q-7.02042 -1.65203 -5.92179 -2.51141Q-4.81828 -3.37078 -2.89933 -3.37078Q-1.9423 -3.37078 -1.06339 -3.19988Q-0.179604 -3.02898 0.337975 -2.82879L-0.179604 -0.509453Q-0.702065 -0.690117 -1.31242 -0.826836Q-1.91788 -0.968438 -2.6796 -0.968438Q-4.08097 -0.968438 -4.08097 -0.19207Q-4.08097 -0.0114064 -4.02238 0.130195Q-3.9589 0.271797 -3.77824 0.403633Q-3.59757 0.530586 -3.28996 0.681953Q-2.98234 0.828437 -2.49894 1.0091Q-1.52238 1.37043 -0.882729 1.72199Q-0.238197 2.06867 0.128014 2.47883Q0.499107 2.88898 0.650475 3.39191Q0.801842 3.88996 0.801842 4.54914Q0.801842 6.11164 -0.370033 6.91242Q-1.54191 7.70832 -3.68058 7.70832Q-5.08195 7.70832 -6.01456 7.46906Q-6.9423 7.2298 -7.29874 7.06867L-6.8007 4.65168Q-6.03898 4.94953 -5.24308 5.12043Q-4.4423 5.29133 -3.66105 5.29133ZM2.91883 -5.70965L5.90223 -6.18816L5.90223 -3.08758L9.48133 -3.08758L9.48133 -0.611992L5.90223 -0.611992L5.90223 3.08918Q5.90223 4.03156 6.22938 4.59309Q6.56141 5.14973 7.56239 5.14973Q8.0409 5.14973 8.54871 5.06184Q9.06141 4.96906 9.48133 4.80793L9.90125 7.13215Q9.35926 7.35187 8.70008 7.50812Q8.0409 7.66926 7.07899 7.66926Q5.85828 7.66926 5.0575 7.34211Q4.2616 7.01008 3.77821 6.41926Q3.29969 5.82844 3.10926 4.98859Q2.91883 4.14875 2.91883 3.12824L2.91883 -5.70965ZM11.3984 2.24934Q11.3984 0.847969 11.8281 -0.201836Q12.2578 -1.25164 12.956 -1.94988Q13.6592 -2.64813 14.5674 -3.00945Q15.4805 -3.37078 16.4424 -3.37078Q18.6787 -3.37078 19.9775 -1.99871Q21.2812 -0.631524 21.2812 2.02961Q21.2812 2.2884 21.2617 2.6009Q21.2422 2.90852 21.2178 3.14777L14.46 3.14777Q14.5576 4.07062 15.3193 4.61262Q16.081 5.14973 17.3603 5.14973Q18.1807 5.14973 18.9668 5.00324Q19.7578 4.85187 20.2607 4.63215L20.6611 7.04914Q20.4219 7.17121 20.0215 7.29328Q19.6211 7.41047 19.1279 7.49836Q18.6396 7.59113 18.0781 7.64973Q17.5215 7.70832 16.96 7.70832Q15.5391 7.70832 14.4893 7.2884Q13.4394 6.86848 12.7461 6.14094Q12.0576 5.40852 11.7256 4.41242Q11.3984 3.41145 11.3984 2.24934ZM18.4004 1.11164Q18.3809 0.730781 18.2685 0.369453Q18.1611 0.00812483 17.9316 -0.270195Q17.7021 -0.548516 17.3506 -0.72918Q16.999 -0.909844 16.4814 -0.909844Q15.9785 -0.909844 15.6172 -0.738945Q15.2607 -0.568047 15.0215 -0.289727Q14.7822 -0.0114064 14.6504 0.359687Q14.5185 0.730781 14.46 1.11164L18.4004 1.11164ZM29.9192 -0.45086Q29.5189 -0.548516 28.9769 -0.655938Q28.4398 -0.768242 27.8196 -0.768242Q27.5413 -0.768242 27.1507 -0.719414Q26.7601 -0.670586 26.5599 -0.611992L26.5599 7.43L23.5814 7.43L23.5814 -2.53094Q24.3821 -2.80926 25.471 -3.05828Q26.5599 -3.31219 27.8978 -3.31219Q28.1419 -3.31219 28.4788 -3.27801Q28.8206 -3.24871 29.1575 -3.19988Q29.4993 -3.15105 29.8362 -3.07781Q30.178 -3.00945 30.4222 -2.9118L29.9192 -0.45086Z"/>
</svg>
