<?xml version="1.0" encoding="utf-8" ?>
<svg xmlns="http://www.w3.org/2000/svg" xmlns:xlink="http://www.w3.org/1999/xlink" width="110" height="110">
	<path fill="none" stroke="white" stroke-width="3" stroke-linejoin="round" stroke-opacity="0.69803923" transform="matrix(1.42857 0 0 1.42857 55 47.8571)" d="M12 0Q12 0.294583 11.9855 0.588812Q11.9711 0.883041 11.9422 1.17621Q11.9133 1.46937 11.8701 1.76077Q11.8269 2.05216 11.7694 2.34108Q11.712 2.63001 11.6404 2.91576Q11.5688 3.20152 11.4833 3.48342Q11.3978 3.76531 11.2985 4.04268Q11.1993 4.32004 11.0866 4.5922Q10.9738 4.86436 10.8479 5.13066Q10.7219 5.39696 10.5831 5.65676Q10.4442 5.91656 10.2927 6.16923Q10.1413 6.4219 9.97763 6.66684Q9.81397 6.91178 9.63849 7.14839Q9.46301 7.385 9.27612 7.61272Q9.08924 7.84044 8.89141 8.05871Q8.69358 8.27698 8.48528 8.48528Q8.27698 8.69358 8.05871 8.89141Q7.84044 9.08924 7.61272 9.27612Q7.385 9.46301 7.14839 9.63849Q6.91178 9.81397 6.66684 9.97763Q6.4219 10.1413 6.16923 10.2927Q5.91656 10.4442 5.65676 10.5831Q5.39696 10.7219 5.13066 10.8479Q4.86436 10.9738 4.5922 11.0866Q4.32004 11.1993 4.04268 11.2985Q3.76531 11.3978 3.48342 11.4833Q3.20152 11.5688 2.91576 11.6404Q2.63001 11.712 2.34108 11.7694Q2.05216 11.8269 1.76077 11.8701Q1.46937 11.9133 1.17621 11.9422Q0.883041 11.9711 0.588812 11.9855Q0.294583 12 0 12Q-0.294583 12 -0.588812 11.9855Q-0.883041 11.9711 -1.17621 11.9422Q-1.46937 11.9133 -1.76077 11.8701Q-2.05216 11.8269 -2.34108 11.7694Q-2.63001 11.712 -2.91576 11.6404Q-3.20152 11.5688 -3.48342 11.4833Q-3.76531 11.3978 -4.04268 11.2985Q-4.32004 11.1993 -4.5922 11.0866Q-4.86436 10.9738 -5.13066 10.8479Q-5.39696 10.7219 -5.65676 10.5831Q-5.91656 10.4442 -6.16923 10.2927Q-6.4219 10.1413 -6.66684 9.97763Q-6.91178 9.81397 -7.14839 9.63849Q-7.385 9.46301 -7.61272 9.27612Q-7.84044 9.08924 -8.05871 8.89141Q-8.27698 8.69358 -8.48528 8.48528Q-8.69358 8.27698 -8.89141 8.05871Q-9.08924 7.84044 -9.27612 7.61272Q-9.46301 7.385 -9.63849 7.14839Q-9.81397 6.91178 -9.97763 6.66684Q-10.1413 6.4219 -10.2927 6.16923Q-10.4442 5.91656 -10.5831 5.65676Q-10.7219 5.39696 -10.8479 5.13066Q-10.9738 4.86436 -11.0866 4.5922Q-11.1993 4.32004 -11.2985 4.04268Q-11.3978 3.76531 -11.4833 3.48342Q-11.5688 3.20152 -11.6404 2.91576Q-11.712 2.63001 -11.7694 2.34108Q-11.8269 2.05216 -11.8701 1.76077Q-11.9133 1.46937 -11.9422 1.17621Q-11.9711 0.883041 -11.9855 0.588812Q-12 0.294583 -12 0Q-12 -0.294583 -11.9855 -0.588812Q-11.9711 -0.883041 -11.9422 -1.17621Q-11.9133 -1.46937 -11.8701 -1.76077Q-11.8269 -2.05216 -11.7694 -2.34108Q-11.712 -2.63001 -11.6404 -2.91576Q-11.5688 -3.20152 -11.4833 -3.48342Q-11.3978 -3.76531 -11.2985 -4.04268Q-11.1993 -4.32004 -11.0866 -4.5922Q-10.9738 -4.86436 -10.8479 -5.13066Q-10.7219 -5.39696 -10.5831 -5.65676Q-10.4442 -5.91656 -10.2927 -6.16923Q-10.1413 -6.4219 -9.97763 -6.66684Q-9.81397 -6.91178 -9.63849 -7.14839Q-9.46301 -7.385 -9.27612 -7.61272Q-9.08924 -7.84044 -8.89141 -8.05871Q-8.69358 -8.27698 -8.48528 -8.48528Q-8.27698 -8.69358 -8.05871 -8.89141Q-7.84044 -9.08924 -7.61272 -9.27612Q-7.385 -9.46301 -7.14839 -9.63849Q-6.91178 -9.81397 -6.66684 -9.97763Q-6.4219 -10.1413 -6.16923 -10.2927Q-5.91656 -10.4442 -5.65676 -10.5831Q-5.39696 -10.7219 -5.13066 -10.8479Q-4.86436 -10.9738 -4.5922 -11.0866Q-4.32004 -11.1993 -4.04268 -11.2985Q-3.76531 -11.3978 -3.48342 -11.4833Q-3.20152 -11.5688 -2.91576 -11.6404Q-2.63001 -11.712 -2.34108 -11.7694Q-2.05216 -11.8269 -1.76077 -11.8701Q-1.46937 -11.9133 -1.17621 -11.9422Q-0.883041 -11.9711 -0.588812 -11.9855Q-0.294583 -12 0 -12Q0.294583 -12 0.588812 -11.9855Q0.883041 -11.9711 1.17621 -11.9422Q1.46937 -11.9133 1.76077 -11.8701Q2.05216 -11.8269 2.34108 -11.7694Q2.63001 -11.712 2.91576 -11.6404Q3.20152 -11.5688 3.48342 -11.4833Q3.76531 -11.3978 4.04268 -11.2985Q4.32004 -11.1993 4.5922 -11.0866Q4.86436 -10.9738 5.13066 -10.8479Q5.39696 -10.7219 5.65676 -10.5831Q5.91656 -10.4442 6.16923 -10.2927Q6.4219 -10.1413 6.66684 -9.97763Q6.91178 -9.81397 7.14839 -9.63849Q7.385 -9.46301 7.61272 -9.27612Q7.84044 -9.08924 8.05871 -8.89141Q8.27698 -8.69358 8.48528 -8.48528Q8.69358 -8.27698 8.89141 -8.05871Q9.08924 -7.84044 9.27612 -7.61272Q9.46301 -7.385 9.63849 -7.14839Q9.81397 -6.91178 9.97763 -6.66684Q10.1413 -6.4219 10.2927 -6.16923Q10.4442 -5.91656 10.5831 -5.65676Q10.7219 -5.39696 10.8479 -5.13066Q10.9738 -4.86436 11.0866 -4.5922Q11.1993 -4.32004 11.2985 -4.04268Q11.3978 -3.76531 11.4833 -3.48342Q11.5688 -3.20152 11.6404 -2.91576Q11.712 -2.63001 11.7694 -2.34108Q11.8269 -2.05216 11.8701 -1.76077Q11.9133 -1.46937 11.9422 -1.17621Q11.9711 -0.883041 11.9855 -0.588812Q12 -0.294583 12 0"/>
	<path fill="white" fill-opacity="0.34901962" transform="matrix(1.42857 0 0 1.42857 55 47.8571)" d="M10.5 0Q10.5 0.25776 10.4874 0.515211Q10.4747 0.77266 10.4494 1.02918Q10.4242 1.2857 10.3864 1.54067Q10.3485 1.79564 10.2982 2.04845Q10.248 2.30126 10.1853 2.55129Q10.1227 2.80133 10.0479 3.04799Q9.97305 3.29465 9.88621 3.53734Q9.79938 3.78004 9.70073 4.01818Q9.60209 4.25632 9.49189 4.48933Q9.38168 4.72234 9.26017 4.94967Q9.13866 5.17699 9.00615 5.39808Q8.87363 5.61917 8.73043 5.83349Q8.58723 6.04781 8.43368 6.25484Q8.28013 6.46188 8.11661 6.66113Q7.95309 6.86038 7.77999 7.05137Q7.60688 7.24236 7.42462 7.42462Q7.24236 7.60688 7.05137 7.77999Q6.86038 7.95309 6.66113 8.11661Q6.46188 8.28013 6.25484 8.43368Q6.04781 8.58723 5.83349 8.73043Q5.61917 8.87363 5.39808 9.00615Q5.17699 9.13867 4.94967 9.26017Q4.72234 9.38168 4.48933 9.49189Q4.25632 9.60209 4.01818 9.70074Q3.78004 9.79938 3.53734 9.88621Q3.29465 9.97305 3.04799 10.0479Q2.80133 10.1227 2.55129 10.1853Q2.30126 10.248 2.04845 10.2982Q1.79564 10.3485 1.54067 10.3864Q1.2857 10.4242 1.02918 10.4494Q0.77266 10.4747 0.515211 10.4874Q0.25776 10.5 0 10.5Q-0.25776 10.5 -0.515211 10.4874Q-0.77266 10.4747 -1.02918 10.4494Q-1.2857 10.4242 -1.54067 10.3864Q-1.79564 10.3485 -2.04845 10.2982Q-2.30126 10.248 -2.55129 10.1853Q-2.80133 10.1227 -3.04799 10.0479Q-3.29465 9.97305 -3.53734 9.88621Q-3.78004 9.79938 -4.01818 9.70073Q-4.25632 9.60209 -4.48933 9.49189Q-4.72234 9.38168 -4.94967 9.26017Q-5.17699 9.13866 -5.39808 9.00615Q-5.61917 8.87363 -5.83349 8.73043Q-6.04781 8.58723 -6.25484 8.43368Q-6.46188 8.28013 -6.66113 8.11661Q-6.86038 7.95309 -7.05137 7.77999Q-7.24236 7.60688 -7.42462 7.42462Q-7.60688 7.24236 -7.77999 7.05137Q-7.95309 6.86038 -8.11661 6.66113Q-8.28013 6.46188 -8.43368 6.25484Q-8.58723 6.04781 -8.73043 5.83349Q-8.87363 5.61917 -9.00615 5.39808Q-9.13867 5.17699 -9.26017 4.94967Q-9.38168 4.72234 -9.49189 4.48933Q-9.60209 4.25632 -9.70074 4.01818Q-9.79938 3.78004 -9.88621 3.53734Q-9.97305 3.29465 -10.0479 3.04799Q-10.1227 2.80133 -10.1853 2.55129Q-10.248 2.30126 -10.2982 2.04845Q-10.3485 1.79564 -10.3864 1.54067Q-10.4242 1.2857 -10.4494 1.02918Q-10.4747 0.77266 -10.4874 0.515211Q-10.5 0.25776 -10.5 0Q-10.5 -0.25776 -10.4874 -0.515211Q-10.4747 -0.77266 -10.4494 -1.02918Q-10.4242 -1.2857 -10.3864 -1.54067Q-10.3485 -1.79564 -10.2982 -2.04845Q-10.248 -2.30126 -10.1853 -2.55129Q-10.1227 -2.80133 -10.0479 -3.04799Q-9.97305 -3.29465 -9.88621 -3.53734Q-9.79938 -3.78004 -9.70073 -4.01818Q-9.60209 -4.25632 -9.49189 -4.48933Q-9.38168 -4.72234 -9.26017 -4.94967Q-9.13866 -5.17699 -9.00615 -5.39808Q-8.87363 -5.61917 -8.73043 -5.83349Q-8.58723 -6.04781 -8.43368 -6.25484Q-8.28013 -6.46188 -8.11661 -6.66113Q-7.95309 -6.86038 -7.77999 -7.05137Q-7.60688 -7.24236 -7.42462 -7.42462Q-7.24236 -7.60688 -7.05137 -7.77999Q-6.86038 -7.95309 -6.66113 -8.11661Q-6.46188 -8.28013 -6.25484 -8.43368Q-6.04781 -8.58723 -5.83349 -8.73043Q-5.61917 -8.87363 -5.39808 -9.00615Q-5.17699 -9.13867 -4.94967 -9.26017Q-4.72234 -9.38168 -4.48933 -9.49189Q-4.25632 -9.60209 -4.01818 -9.70074Q-3.78004 -9.79938 -3.53734 -9.88621Q-3.29465 -9.97305 -3.04799 -10.0479Q-2.80133 -10.1227 -2.55129 -10.1853Q-2.30126 -10.248 -2.04845 -10.2982Q-1.79564 -10.3485 -1.54067 -10.3864Q-1.2857 -10.4242 -1.02918 -10.4494Q-0.77266 -10.4747 -0.515211 -10.4874Q-0.25776 -10.5 0 -10.5Q0.25776 -10.5 0.515211 -10.4874Q0.77266 -10.4747 1.02918 -10.4494Q1.2857 -10.4242 1.54067 -10.3864Q1.79564 -10.3485 2.04845 -10.2982Q2.30126 -10.248 2.55129 -10.1853Q2.80133 -10.1227 3.04799 -10.0479Q3.29465 -9.97305 3.53734 -9.88621Q3.78004 -9.79938 4.01818 -9.70073Q4.25632 -9.60209 4.48933 -9.49189Q4.72234 -9.38168 4.94967 -9.26017Q5.17699 -9.13866 5.39808 -9.00615Q5.61917 -8.87363 5.83349 -8.73043Q6.04781 -8.58723 6.25484 -8.43368Q6.46188 -8.28013 6.66113 -8.11661Q6.86038 -7.95309 7.05137 -7.77999Q7.24236 -7.60688 7.42462 -7.42462Q7.60688 -7.24236 7.77999 -7.05137Q7.95309 -6.86038 8.11661 -6.66113Q8.28013 -6.46188 8.43368 -6.25484Q8.58723 -6.04781 8.73043 -5.83349Q8.87363 -5.61917 9.00615 -5.39808Q9.13867 -5.17699 9.26017 -4.94967Q9.38168 -4.72234 9.49189 -4.48933Q9.60209 -4.25632 9.70074 -4.01818Q9.79938 -3.78004 9.88621 -3.53734Q9.97305 -3.29465 10.0479 -3.04799Q10.1227 -2.80133 10.1853 -2.55129Q10.248 -2.30126 10.2982 -2.04845Q10.3485 -1.79564 10.3864 -1.54067Q10.4242 -1.2857 10.4494 -1.02918Q10.4747 -0.77266 10.4874 -0.515211Q10.5 -0.25776 10.5 0"/>
	<path fill="white" fill-opacity="0.34901962" transform="matrix(1.42857 0 0 1.42857 55 47.8571)" d="M7 -4Q7 -3.85262 6.98555 -3.70595Q6.97111 -3.55928 6.94236 -3.41473Q6.9136 -3.27018 6.87082 -3.12915Q6.82804 -2.98811 6.77164 -2.85195Q6.71524 -2.71579 6.64576 -2.58581Q6.57629 -2.45583 6.49441 -2.33329Q6.41253 -2.21075 6.31903 -2.09682Q6.22553 -1.98289 6.12132 -1.87868Q6.01711 -1.77447 5.90318 -1.68097Q5.78925 -1.58747 5.66671 -1.50559Q5.54417 -1.42371 5.41419 -1.35424Q5.28421 -1.28476 5.14805 -1.22836Q5.01189 -1.17196 4.87085 -1.12918Q4.72982 -1.0864 4.58527 -1.05764Q4.44072 -1.02889 4.29405 -1.01445Q4.14738 -1 4 -1Q3.85262 -1 3.70595 -1.01445Q3.55928 -1.02889 3.41473 -1.05764Q3.27018 -1.0864 3.12915 -1.12918Q2.98811 -1.17196 2.85195 -1.22836Q2.71579 -1.28476 2.58581 -1.35424Q2.45583 -1.42371 2.33329 -1.50559Q2.21075 -1.58747 2.09682 -1.68097Q1.98289 -1.77447 1.87868 -1.87868Q1.77447 -1.98289 1.68097 -2.09682Q1.58747 -2.21075 1.50559 -2.33329Q1.42371 -2.45583 1.35424 -2.58581Q1.28476 -2.71579 1.22836 -2.85195Q1.17196 -2.98811 1.12918 -3.12915Q1.0864 -3.27018 1.05764 -3.41473Q1.02889 -3.55928 1.01445 -3.70595Q1 -3.85262 1 -4Q1 -4.14738 1.01445 -4.29405Q1.02889 -4.44072 1.05764 -4.58527Q1.0864 -4.72982 1.12918 -4.87085Q1.17196 -5.01189 1.22836 -5.14805Q1.28476 -5.28421 1.35424 -5.41419Q1.42371 -5.54417 1.50559 -5.66671Q1.58747 -5.78925 1.68097 -5.90318Q1.77447 -6.01711 1.87868 -6.12132Q1.98289 -6.22553 2.09682 -6.31903Q2.21075 -6.41253 2.33329 -6.49441Q2.45583 -6.57629 2.58581 -6.64576Q2.71579 -6.71524 2.85195 -6.77164Q2.98811 -6.82804 3.12915 -6.87082Q3.27018 -6.9136 3.41473 -6.94236Q3.55928 -6.97111 3.70595 -6.98555Q3.85262 -7 4 -7Q4.14738 -7 4.29405 -6.98555Q4.44072 -6.97111 4.58527 -6.94236Q4.72982 -6.9136 4.87085 -6.87082Q5.01189 -6.82804 5.14805 -6.77164Q5.28421 -6.71524 5.41419 -6.64576Q5.54417 -6.57629 5.66671 -6.49441Q5.78925 -6.41253 5.90318 -6.31903Q6.01711 -6.22553 6.12132 -6.12132Q6.22553 -6.01711 6.31903 -5.90318Q6.41253 -5.78925 6.49441 -5.66671Q6.57629 -5.54417 6.64576 -5.41419Q6.71524 -5.28421 6.77164 -5.14805Q6.82804 -5.01189 6.87082 -4.87085Q6.9136 -4.72982 6.94236 -4.58527Q6.97111 -4.44072 6.98555 -4.29405Q7 -4.14738 7 -4"/>
	<path fill="none" stroke="black" stroke-width="2.3999999" stroke-linejoin="round" transform="translate(55 79.2857)" d="M-27.4693 7.61066Q-28.6118 7.61066 -29.7398 7.53742Q-30.8677 7.46906 -32.0884 7.21027L-32.0884 -6.23211Q-31.1314 -6.40789 -29.9937 -6.49578Q-28.8511 -6.58855 -27.8697 -6.58855Q-26.5513 -6.58855 -25.4429 -6.39813Q-24.3296 -6.2077 -23.5288 -5.74871Q-22.7281 -5.28973 -22.2788 -4.53777Q-21.8296 -3.7907 -21.8296 -2.69207Q-21.8296 -1.03191 -23.4312 -0.0700002Q-22.1079 0.428047 -21.6294 1.2923Q-21.1509 2.15168 -21.1509 3.23078Q-21.1509 5.40852 -22.7427 6.51203Q-24.3296 7.61066 -27.4693 7.61066ZM-29.0513 1.38996L-29.0513 4.96906Q-28.7095 5.00812 -28.3091 5.03254Q-27.9087 5.05207 -27.4302 5.05207Q-26.0288 5.05207 -25.1695 4.65168Q-24.3101 4.25129 -24.3101 3.17219Q-24.3101 2.21027 -25.0327 1.80012Q-25.7505 1.38996 -27.0884 1.38996L-29.0513 1.38996ZM-29.0513 -0.987969L-27.5279 -0.987969Q-26.0923 -0.987969 -25.4722 -1.35906Q-24.8521 -1.73016 -24.8521 -2.55047Q-24.8521 -3.39031 -25.4917 -3.72723Q-26.1314 -4.06902 -27.3716 -4.06902Q-27.772 -4.06902 -28.231 -4.05926Q-28.69 -4.04949 -29.0513 -4.01043L-29.0513 -0.987969ZM-9.86912 7.06867Q-10.6308 7.2884 -11.832 7.47883Q-13.0283 7.66926 -14.3515 7.66926Q-15.6894 7.66926 -16.583 7.31281Q-17.4717 6.95148 -17.9941 6.30207Q-18.5117 5.64777 -18.7314 4.74934Q-18.9511 3.8509 -18.9511 2.7718L-18.9511 -3.08758L-15.9678 -3.08758L-15.9678 2.41047Q-15.9678 3.8509 -15.5918 4.49055Q-15.2109 5.1302 -14.1709 5.1302Q-13.8486 5.1302 -13.4922 5.1009Q-13.1308 5.0716 -12.8476 5.02766L-12.8476 -3.08758L-9.86912 -3.08758L-9.86912 7.06867ZM-0.330345 2.0882Q-0.330345 -0.787774 -2.44949 -0.787774Q-2.90847 -0.787774 -3.36257 -0.665703Q-3.81179 -0.548516 -4.09011 -0.367852L-4.09011 5.05207Q-3.87038 5.09113 -3.53347 5.12043Q-3.19167 5.14973 -2.79128 5.14973Q-1.57058 5.14973 -0.950462 4.30988Q-0.330345 3.47004 -0.330345 2.0882ZM2.71165 2.17121Q2.71165 3.43098 2.34055 4.45148Q1.96946 5.47199 1.26633 6.19465Q0.568092 6.91242 -0.452415 7.30305Q-1.46804 7.68879 -2.77175 7.68879Q-3.30886 7.68879 -3.89968 7.63996Q-4.4905 7.59113 -5.06179 7.50812Q-5.6282 7.43 -6.15066 7.32258Q-6.66824 7.21027 -7.06863 7.0882L-7.06863 -7.60906L-4.09011 -8.08758L-4.09011 -2.84832Q-3.59206 -3.06805 -3.05007 -3.19012Q-2.50808 -3.31219 -1.88796 -3.31219Q-0.769798 -3.31219 0.0895767 -2.92156Q0.948952 -2.53094 1.53001 -1.80828Q2.11106 -1.09051 2.40891 -0.0797658Q2.71165 0.930976 2.71165 2.17121ZM11.7496 2.0882Q11.7496 -0.787774 9.6305 -0.787774Q9.17152 -0.787774 8.71741 -0.665703Q8.2682 -0.548516 7.98988 -0.367852L7.98988 5.05207Q8.2096 5.09113 8.54652 5.12043Q8.88831 5.14973 9.2887 5.14973Q10.5094 5.14973 11.1295 4.30988Q11.7496 3.47004 11.7496 2.0882ZM14.7916 2.17121Q14.7916 3.43098 14.4205 4.45148Q14.0494 5.47199 13.3463 6.19465Q12.6481 6.91242 11.6276 7.30305Q10.6119 7.68879 9.30824 7.68879Q8.77113 7.68879 8.18031 7.63996Q7.58949 7.59113 7.0182 7.50812Q6.45179 7.43 5.92933 7.32258Q5.41175 7.21027 5.01136 7.0882L5.01136 -7.60906L7.98988 -8.08758L7.98988 -2.84832Q8.48792 -3.06805 9.02991 -3.19012Q9.57191 -3.31219 10.192 -3.31219Q11.3102 -3.31219 12.1696 -2.92156Q13.0289 -2.53094 13.61 -1.80828Q14.191 -1.09051 14.4889 -0.0797658Q14.7916 0.930976 14.7916 2.17121ZM21.2906 7.6302Q19.9917 7.61066 19.1812 7.35187Q18.3706 7.0882 17.897 6.61945Q17.4283 6.1507 17.2574 5.48176Q17.0913 4.80793 17.0913 3.96809L17.0913 -7.60906L20.0699 -8.08758L20.0699 3.37238Q20.0699 3.76789 20.1285 4.09016Q20.1919 4.41242 20.3579 4.63215Q20.5288 4.85187 20.8462 4.99348Q21.1685 5.1302 21.7105 5.16926L21.2906 7.6302ZM22.9084 2.24934Q22.9084 0.847969 23.3381 -0.201836Q23.7678 -1.25164 24.466 -1.94988Q25.1692 -2.64813 26.0774 -3.00945Q26.9904 -3.37078 27.9524 -3.37078Q30.1887 -3.37078 31.4875 -1.99871Q32.7912 -0.631524 32.7912 2.02961Q32.7912 2.2884 32.7717 2.6009Q32.7522 2.90852 32.7277 3.14777L25.9699 3.14777Q26.0676 4.07062 26.8293 4.61262Q27.591 5.14973 28.8703 5.14973Q29.6906 5.14973 30.4768 5.00324Q31.2678 4.85187 31.7707 4.63215L32.1711 7.04914Q31.9318 7.17121 31.5315 7.29328Q31.1311 7.41047 30.6379 7.49836Q30.1496 7.59113 29.5881 7.64973Q29.0315 7.70832 28.4699 7.70832Q27.049 7.70832 25.9992 7.2884Q24.9494 6.86848 24.2561 6.14094Q23.5676 5.40852 23.2356 4.41242Q22.9084 3.41145 22.9084 2.24934ZM29.9104 1.11164Q29.8908 0.730781 29.7785 0.369453Q29.6711 0.00812483 29.4416 -0.270195Q29.2121 -0.548516 28.8606 -0.72918Q28.509 -0.909844 27.9914 -0.909844Q27.4885 -0.909844 27.1272 -0.738945Q26.7707 -0.568047 26.5315 -0.289727Q26.2922 -0.0114064 26.1604 0.359687Q26.0285 0.730781 25.9699 1.11164L29.9104 1.11164Z"/>
	<path fill="white" transform="translate(55 79.2857)" d="M-27.4693 7.61066Q-28.6118 7.61066 -29.7398 7.53742Q-30.8677 7.46906 -32.0884 7.21027L-32.0884 -6.23211Q-31.1314 -6.40789 -29.9937 -6.49578Q-28.8511 -6.58855 -27.8697 -6.58855Q-26.5513 -6.58855 -25.4429 -6.39813Q-24.3296 -6.2077 -23.5288 -5.74871Q-22.7281 -5.28973 -22.2788 -4.53777Q-21.8296 -3.7907 -21.8296 -2.69207Q-21.8296 -1.03191 -23.4312 -0.0700002Q-22.1079 0.428047 -21.6294 1.2923Q-21.1509 2.15168 -21.1509 3.23078Q-21.1509 5.40852 -22.7427 6.51203Q-24.3296 7.61066 -27.4693 7.61066ZM-29.0513 1.38996L-29.0513 4.96906Q-28.7095 5.00812 -28.3091 5.03254Q-27.9087 5.05207 -27.4302 5.05207Q-26.0288 5.05207 -25.1695 4.65168Q-24.3101 4.25129 -24.3101 3.17219Q-24.3101 2.21027 -25.0327 1.80012Q-25.7505 1.38996 -27.0884 1.38996L-29.0513 1.38996ZM-29.0513 -0.987969L-27.5279 -0.987969Q-26.0923 -0.987969 -25.4722 -1.35906Q-24.8521 -1.73016 -24.8521 -2.55047Q-24.8521 -3.39031 -25.4917 -3.72723Q-26.1314 -4.06902 -27.3716 -4.06902Q-27.772 -4.06902 -28.231 -4.05926Q-28.69 -4.04949 -29.0513 -4.01043L-29.0513 -0.987969ZM-9.86912 7.06867Q-10.6308 7.2884 -11.832 7.47883Q-13.0283 7.66926 -14.3515 7.66926Q-15.6894 7.66926 -16.583 7.31281Q-17.4717 6.95148 -17.9941 6.30207Q-18.5117 5.64777 -18.7314 4.74934Q-18.9511 3.8509 -18.9511 2.7718L-18.9511 -3.08758L-15.9678 -3.08758L-15.9678 2.41047Q-15.9678 3.8509 -15.5918 4.49055Q-15.2109 5.1302 -14.1709 5.1302Q-13.8486 5.1302 -13.4922 5.1009Q-13.1308 5.0716 -12.8476 5.02766L-12.8476 -3.08758L-9.86912 -3.08758L-9.86912 7.06867ZM-0.330345 2.0882Q-0.330345 -0.787774 -2.44949 -0.787774Q-2.90847 -0.787774 -3.36257 -0.665703Q-3.81179 -0.548516 -4.09011 -0.367852L-4.09011 5.05207Q-3.87038 5.09113 -3.53347 5.12043Q-3.19167 5.14973 -2.79128 5.14973Q-1.57058 5.14973 -0.950462 4.30988Q-0.330345 3.47004 -0.330345 2.0882ZM2.71165 2.17121Q2.71165 3.43098 2.34055 4.45148Q1.96946 5.47199 1.26633 6.19465Q0.568092 6.91242 -0.452415 7.30305Q-1.46804 7.68879 -2.77175 7.68879Q-3.30886 7.68879 -3.89968 7.63996Q-4.4905 7.59113 -5.06179 7.50812Q-5.6282 7.43 -6.15066 7.32258Q-6.66824 7.21027 -7.06863 7.0882L-7.06863 -7.60906L-4.09011 -8.08758L-4.09011 -2.84832Q-3.59206 -3.06805 -3.05007 -3.19012Q-2.50808 -3.31219 -1.88796 -3.31219Q-0.769798 -3.31219 0.0895767 -2.92156Q0.948952 -2.53094 1.53001 -1.80828Q2.11106 -1.09051 2.40891 -0.0797658Q2.71165 0.930976 2.71165 2.17121ZM11.7496 2.0882Q11.7496 -0.787774 9.6305 -0.787774Q9.17152 -0.787774 8.71741 -0.665703Q8.2682 -0.548516 7.98988 -0.367852L7.98988 5.05207Q8.2096 5.09113 8.54652 5.12043Q8.88831 5.14973 9.2887 5.14973Q10.5094 5.14973 11.1295 4.30988Q11.7496 3.47004 11.7496 2.0882ZM14.7916 2.17121Q14.7916 3.43098 14.4205 4.45148Q14.0494 5.47199 13.3463 6.19465Q12.6481 6.91242 11.6276 7.30305Q10.6119 7.68879 9.30824 7.68879Q8.77113 7.68879 8.18031 7.63996Q7.58949 7.59113 7.0182 7.50812Q6.45179 7.43 5.92933 7.32258Q5.41175 7.21027 5.01136 7.0882L5.01136 -7.60906L7.98988 -8.08758L7.98988 -2.84832Q8.48792 -3.06805 9.02991 -3.19012Q9.57191 -3.31219 10.192 -3.31219Q11.3102 -3.31219 12.1696 -2.92156Q13.0289 -2.53094 13.61 -1.80828Q14.191 -1.09051 14.4889 -0.0797658Q14.7916 0.930976 14.7916 2.17121ZM21.2906 7.6302Q19.9917 7.61066 19.1812 7.35187Q18.3706 7.0882 17.897 6.61945Q17.4283 6.1507 17.2574 5.48176Q17.0913 4.80793 17.0913 3.96809L17.0913 -7.60906L20.0699 -8.08758L20.0699 3.37238Q20.0699 3.76789 20.1285 4.09016Q20.1919 4.41242 20.3579 4.63215Q20.5288 4.85187 20.8462 4.99348Q21.1685 5.1302 21.7105 5.16926L21.2906 7.6302ZM22.9084 2.24934Q22.9084 0.847969 23.3381 -0.201836Q23.7678 -1.25164 24.466 -1.94988Q25.1692 -2.64813 26.0774 -3.00945Q26.9904 -3.37078 27.9524 -3.37078Q30.1887 -3.37078 31.4875 -1.99871Q32.7912 -0.631524 32.7912 2.02961Q32.7912 2.2884 32.7717 2.6009Q32.7522 2.90852 32.7277 3.14777L25.9699 3.14777Q26.0676 4.07062 26.8293 4.61262Q27.591 5.14973 28.8703 5.14973Q29.6906 5.14973 30.4768 5.00324Q31.2678 4.85187 31.7707 4.63215L32.1711 7.04914Q31.9318 7.17121 31.5315 7.29328Q31.1311 7.41047 30.6379 7.49836Q30.1496 7.59113 29.5881 7.64973Q29.0315 7.70832 28.4699 7.70832Q27.049 7.70832 25.9992 7.2884Q24.9494 6.86848 24.2561 6.14094Q23.5676 5.40852 23.2356 4.41242Q22.9084 3.41145 22.9084 2.24934ZM29.9104 1.11164Q29.8908 0.730781 29.7785 0.369453Q29.6711 0.00812483 29.4416 -0.270195Q29.2121 -0.548516 28.8606 -0.72918Q28.509 -0.909844 27.9914 -0.909844Q27.4885 -0.909844 27.1272 -0.738945Q26.7707 -0.568047 26.5315 -0.289727Q26.2922 -0.0114064 26.1604 0.359687Q26.0285 0.730781 25.9699 1.11164L29.9104 1.11164Z"/>
</svg>
