<?xml version="1.0" encoding="utf-8" ?>
<svg xmlns="http://www.w3.org/2000/svg" xmlns:xlink="http://www.w3.org/1999/xlink" width="110" height="110">
	<path fill="#CFBB50" transform="matrix(1.42857 0 0 1.42857 69.2857 47.8571)" d="M8.5 0Q8.5 0.208663 8.48976 0.417075Q8.47952 0.625487 8.45907 0.833146Q8.43862 1.0408 8.408 1.24721Q8.37738 1.45361 8.33667 1.65827Q8.29597 1.86292 8.24527 2.06533Q8.19456 2.26774 8.13399 2.46742Q8.07342 2.6671 8.00312 2.86356Q7.93283 3.06003 7.85298 3.25281Q7.77312 3.44559 7.68391 3.63422Q7.59469 3.82285 7.49633 4.00687Q7.39797 4.1909 7.29069 4.36987Q7.18342 4.54885 7.06749 4.72235Q6.95156 4.89584 6.82726 5.06344Q6.70296 5.23104 6.57059 5.39234Q6.43821 5.55364 6.29808 5.70825Q6.15795 5.86286 6.01041 6.01041Q5.86286 6.15795 5.70825 6.29808Q5.55364 6.43821 5.39234 6.57059Q5.23104 6.70296 5.06344 6.82726Q4.89584 6.95156 4.72235 7.06749Q4.54885 7.18342 4.36987 7.29069Q4.1909 7.39797 4.00687 7.49633Q3.82285 7.59469 3.63422 7.68391Q3.44559 7.77312 3.25281 7.85298Q3.06003 7.93283 2.86356 8.00312Q2.6671 8.07342 2.46742 8.13399Q2.26774 8.19456 2.06533 8.24527Q1.86292 8.29597 1.65827 8.33667Q1.45361 8.37738 1.24721 8.408Q1.0408 8.43862 0.833146 8.45907Q0.625487 8.47952 0.417075 8.48976Q0.208663 8.5 0 8.5Q-0.208663 8.5 -0.417075 8.48976Q-0.625487 8.47952 -0.833146 8.45907Q-1.0408 8.43862 -1.24721 8.408Q-1.45361 8.37738 -1.65827 8.33667Q-1.86292 8.29597 -2.06533 8.24527Q-2.26774 8.19456 -2.46742 8.13399Q-2.6671 8.07342 -2.86356 8.00312Q-3.06003 7.93283 -3.25281 7.85298Q-3.44559 7.77312 -3.63422 7.68391Q-3.82285 7.59469 -4.00687 7.49633Q-4.1909 7.39797 -4.36987 7.29069Q-4.54885 7.18342 -4.72235 7.06749Q-4.89584 6.95156 -5.06344 6.82726Q-5.23104 6.70296 -5.39234 6.57059Q-5.55364 6.43821 -5.70825 6.29808Q-5.86286 6.15795 -6.01041 6.01041Q-6.15795 5.86286 -6.29808 5.70825Q-6.43821 5.55364 -6.57059 5.39234Q-6.70296 5.23104 -6.82726 5.06344Q-6.95156 4.89584 -7.06749 4.72235Q-7.18342 4.54885 -7.29069 4.36987Q-7.39797 4.1909 -7.49633 4.00687Q-7.59469 3.82285 -7.68391 3.63422Q-7.77312 3.44559 -7.85298 3.25281Q-7.93283 3.06003 -8.00312 2.86356Q-8.07342 2.6671 -8.13399 2.46742Q-8.19456 2.26774 -8.24527 2.06533Q-8.29597 1.86292 -8.33667 1.65827Q-8.37738 1.45361 -8.408 1.24721Q-8.43862 1.0408 -8.45907 0.833146Q-8.47952 0.625487 -8.48976 0.417075Q-8.5 0.208663 -8.5 0Q-8.5 -0.208663 -8.48976 -0.417075Q-8.47952 -0.625487 -8.45907 -0.833146Q-8.43862 -1.0408 -8.408 -1.24721Q-8.37738 -1.45361 -8.33667 -1.65827Q-8.29597 -1.86292 -8.24527 -2.06533Q-8.19456 -2.26774 -8.13399 -2.46742Q-8.07342 -2.6671 -8.00312 -2.86356Q-7.93283 -3.06003 -7.85298 -3.25281Q-7.77312 -3.44559 -7.68391 -3.63422Q-7.59469 -3.82285 -7.49633 -4.00687Q-7.39797 -4.1909 -7.29069 -4.36987Q-7.18342 -4.54885 -7.06749 -4.72235Q-6.95156 -4.89584 -6.82726 -5.06344Q-6.70296 -5.23104 -6.57059 -5.39234Q-6.43821 -5.55364 -6.29808 -5.70825Q-6.15795 -5.86286 -6.01041 -6.01041Q-5.86286 -6.15795 -5.70825 -6.29808Q-5.55364 -6.43821 -5.39234 -6.57059Q-5.23104 -6.70296 -5.06344 -6.82726Q-4.89584 -6.95156 -4.72235 -7.06749Q-4.54885 -7.18342 -4.36987 -7.29069Q-4.1909 -7.39797 -4.00687 -7.49633Q-3.82285 -7.59469 -3.63422 -7.68391Q-3.44559 -7.77312 -3.25281 -7.85298Q-3.06003 -7.93283 -2.86356 -8.00312Q-2.6671 -8.07342 -2.46742 -8.13399Q-2.26774 -8.19456 -2.06533 -8.24527Q-1.86292 -8.29597 -1.65827 -8.33667Q-1.45361 -8.37738 -1.24721 -8.408Q-1.0408 -8.43862 -0.833146 -8.45907Q-0.625487 -8.47952 -0.417075 -8.48976Q-0.208663 -8.5 0 -8.5Q0.208663 -8.5 0.417075 -8.48976Q0.625487 -8.47952 0.833146 -8.45907Q1.0408 -8.43862 1.24721 -8.408Q1.45361 -8.37738 1.65827 -8.33667Q1.86292 -8.29597 2.06533 -8.24527Q2.26774 -8.19456 2.46742 -8.13399Q2.6671 -8.07342 2.86356 -8.00312Q3.06003 -7.93283 3.25281 -7.85298Q3.44559 -7.77312 3.63422 -7.68391Q3.82285 -7.59469 4.00687 -7.49633Q4.1909 -7.39797 4.36987 -7.29069Q4.54885 -7.18342 4.72235 -7.06749Q4.89584 -6.95156 5.06344 -6.82726Q5.23104 -6.70296 5.39234 -6.57059Q5.55364 -6.43821 5.70825 -6.29808Q5.86286 -6.15795 6.01041 -6.01041Q6.15795 -5.86286 6.29808 -5.70825Q6.43821 -5.55364 6.57059 -5.39234Q6.70296 -5.23104 6.82726 -5.06344Q6.95156 -4.89584 7.06749 -4.72235Q7.18342 -4.54885 7.29069 -4.36987Q7.39797 -4.1909 7.49633 -4.00687Q7.59469 -3.82285 7.68391 -3.63422Q7.77312 -3.44559 7.85298 -3.25281Q7.93283 -3.06003 8.00312 -2.86356Q8.07342 -2.6671 8.13399 -2.46742Q8.19456 -2.26774 8.24527 -2.06533Q8.29597 -1.86292 8.33667 -1.65827Q8.37738 -1.45361 8.408 -1.24721Q8.43862 -1.0408 8.45907 -0.833146Q8.47952 -0.625487 8.48976 -0.417075Q8.5 -0.208663 8.5 0"/>
	<path fill="#FFE763" transform="matrix(1.42857 0 0 1.42857 69.2857 47.8571)" d="M5.5 0Q5.5 0.135017 5.49337 0.269872Q5.48675 0.404727 5.47352 0.539094Q5.46028 0.673461 5.44047 0.807017Q5.42066 0.940574 5.39432 1.073Q5.36798 1.20542 5.33517 1.33639Q5.30237 1.46736 5.26317 1.59657Q5.22398 1.72577 5.17849 1.85289Q5.13301 1.98002 5.08134 2.10476Q5.02967 2.2295 4.97194 2.35155Q4.91421 2.47361 4.85057 2.59268Q4.78692 2.71176 4.71751 2.82756Q4.64809 2.94337 4.57308 3.05564Q4.49807 3.1679 4.41764 3.27635Q4.33721 3.38479 4.25156 3.48916Q4.1659 3.59353 4.07523 3.69357Q3.98456 3.79362 3.88909 3.88909Q3.79362 3.98456 3.69357 4.07523Q3.59353 4.1659 3.48916 4.25156Q3.38479 4.33721 3.27635 4.41764Q3.1679 4.49807 3.05564 4.57308Q2.94337 4.64809 2.82756 4.71751Q2.71176 4.78692 2.59268 4.85057Q2.47361 4.91421 2.35155 4.97194Q2.2295 5.02967 2.10476 5.08134Q1.98002 5.13301 1.85289 5.17849Q1.72577 5.22398 1.59657 5.26317Q1.46736 5.30237 1.33639 5.33517Q1.20542 5.36798 1.073 5.39432Q0.940574 5.42066 0.807017 5.44047Q0.673461 5.46028 0.539094 5.47352Q0.404727 5.48675 0.269872 5.49338Q0.135017 5.5 0 5.5Q-0.135017 5.5 -0.269872 5.49337Q-0.404727 5.48675 -0.539094 5.47352Q-0.673461 5.46028 -0.807017 5.44047Q-0.940574 5.42066 -1.073 5.39432Q-1.20542 5.36798 -1.33639 5.33517Q-1.46736 5.30237 -1.59657 5.26317Q-1.72577 5.22398 -1.85289 5.17849Q-1.98002 5.13301 -2.10476 5.08134Q-2.2295 5.02967 -2.35155 4.97194Q-2.47361 4.91421 -2.59268 4.85057Q-2.71176 4.78692 -2.82756 4.71751Q-2.94337 4.64809 -3.05564 4.57308Q-3.1679 4.49807 -3.27635 4.41764Q-3.38479 4.33721 -3.48916 4.25156Q-3.59353 4.1659 -3.69357 4.07523Q-3.79362 3.98456 -3.88909 3.88909Q-3.98456 3.79362 -4.07523 3.69357Q-4.1659 3.59353 -4.25156 3.48916Q-4.33721 3.38479 -4.41764 3.27635Q-4.49807 3.1679 -4.57308 3.05564Q-4.64809 2.94337 -4.71751 2.82756Q-4.78692 2.71176 -4.85057 2.59268Q-4.91421 2.47361 -4.97194 2.35155Q-5.02967 2.2295 -5.08134 2.10476Q-5.13301 1.98002 -5.17849 1.85289Q-5.22398 1.72577 -5.26317 1.59657Q-5.30237 1.46736 -5.33517 1.33639Q-5.36798 1.20542 -5.39432 1.073Q-5.42066 0.940574 -5.44047 0.807017Q-5.46028 0.673461 -5.47352 0.539094Q-5.48675 0.404727 -5.49338 0.269872Q-5.5 0.135017 -5.5 0Q-5.5 -0.135017 -5.49337 -0.269872Q-5.48675 -0.404727 -5.47352 -0.539094Q-5.46028 -0.673461 -5.44047 -0.807017Q-5.42066 -0.940574 -5.39432 -1.073Q-5.36798 -1.20542 -5.33517 -1.33639Q-5.30237 -1.46736 -5.26317 -1.59657Q-5.22398 -1.72577 -5.17849 -1.85289Q-5.13301 -1.98002 -5.08134 -2.10476Q-5.02967 -2.2295 -4.97194 -2.35155Q-4.91421 -2.47361 -4.85057 -2.59268Q-4.78692 -2.71176 -4.71751 -2.82756Q-4.64809 -2.94337 -4.57308 -3.05564Q-4.49807 -3.1679 -4.41764 -3.27635Q-4.33721 -3.38479 -4.25156 -3.48916Q-4.1659 -3.59353 -4.07523 -3.69357Q-3.98456 -3.79362 -3.88909 -3.88909Q-3.79362 -3.98456 -3.69357 -4.07523Q-3.59353 -4.1659 -3.48916 -4.25156Q-3.38479 -4.33721 -3.27635 -4.41764Q-3.1679 -4.49807 -3.05564 -4.57308Q-2.94337 -4.64809 -2.82756 -4.71751Q-2.71176 -4.78692 -2.59268 -4.85057Q-2.47361 -4.91421 -2.35155 -4.97194Q-2.2295 -5.02967 -2.10476 -5.08134Q-1.98002 -5.13301 -1.85289 -5.17849Q-1.72577 -5.22398 -1.59657 -5.26317Q-1.46736 -5.30237 -1.33639 -5.33517Q-1.20542 -5.36798 -1.073 -5.39432Q-0.940574 -5.42066 -0.807017 -5.44047Q-0.673461 -5.46028 -0.539094 -5.47352Q-0.404727 -5.48675 -0.269872 -5.49338Q-0.135017 -5.5 0 -5.5Q0.135017 -5.5 0.269872 -5.49337Q0.404727 -5.48675 0.539094 -5.47352Q0.673461 -5.46028 0.807017 -5.44047Q0.940574 -5.42066 1.073 -5.39432Q1.20542 -5.36798 1.33639 -5.33517Q1.46736 -5.30237 1.59657 -5.26317Q1.72577 -5.22398 1.85289 -5.17849Q1.98002 -5.13301 2.10476 -5.08134Q2.2295 -5.02967 2.35155 -4.97194Q2.47361 -4.91421 2.59268 -4.85057Q2.71176 -4.78692 2.82756 -4.71751Q2.94337 -4.64809 3.05564 -4.57308Q3.1679 -4.49807 3.27635 -4.41764Q3.38479 -4.33721 3.48916 -4.25156Q3.59353 -4.1659 3.69357 -4.07523Q3.79362 -3.98456 3.88909 -3.88909Q3.98456 -3.79362 4.07523 -3.69357Q4.1659 -3.59353 4.25156 -3.48916Q4.33721 -3.38479 4.41764 -3.27635Q4.49807 -3.1679 4.57308 -3.05564Q4.64809 -2.94337 4.71751 -2.82756Q4.78692 -2.71176 4.85057 -2.59268Q4.91421 -2.47361 4.97194 -2.35155Q5.02967 -2.2295 5.08134 -2.10476Q5.13301 -1.98002 5.17849 -1.85289Q5.22398 -1.72577 5.26317 -1.59657Q5.30237 -1.46736 5.33517 -1.33639Q5.36798 -1.20542 5.39432 -1.073Q5.42066 -0.940574 5.44047 -0.807017Q5.46028 -0.673461 5.47352 -0.539094Q5.48675 -0.404727 5.49338 -0.269872Q5.5 -0.135017 5.5 0"/>
	<path fill="#CFBB50" transform="matrix(-1.42857 0 0 -1.42857 40.7143 47.8571)" d="M8.5 0Q8.5 0.208663 8.48976 0.417075Q8.47952 0.625487 8.45907 0.833146Q8.43862 1.0408 8.408 1.24721Q8.37738 1.45361 8.33667 1.65827Q8.29597 1.86292 8.24527 2.06533Q8.19456 2.26774 8.13399 2.46742Q8.07342 2.6671 8.00312 2.86356Q7.93283 3.06003 7.85298 3.25281Q7.77312 3.44559 7.68391 3.63422Q7.59469 3.82285 7.49633 4.00687Q7.39797 4.1909 7.29069 4.36987Q7.18342 4.54885 7.06749 4.72235Q6.95156 4.89584 6.82726 5.06344Q6.70296 5.23104 6.57059 5.39234Q6.43821 5.55364 6.29808 5.70825Q6.15795 5.86286 6.01041 6.01041Q5.86286 6.15795 5.70825 6.29808Q5.55364 6.43821 5.39234 6.57059Q5.23104 6.70296 5.06344 6.82726Q4.89584 6.95156 4.72235 7.06749Q4.54885 7.18342 4.36987 7.29069Q4.1909 7.39797 4.00687 7.49633Q3.82285 7.59469 3.63422 7.68391Q3.44559 7.77312 3.25281 7.85298Q3.06003 7.93283 2.86356 8.00312Q2.6671 8.07342 2.46742 8.13399Q2.26774 8.19456 2.06533 8.24527Q1.86292 8.29597 1.65827 8.33667Q1.45361 8.37738 1.24721 8.408Q1.0408 8.43862 0.833146 8.45907Q0.625487 8.47952 0.417075 8.48976Q0.208663 8.5 0 8.5Q-0.208663 8.5 -0.417075 8.48976Q-0.625487 8.47952 -0.833146 8.45907Q-1.0408 8.43862 -1.24721 8.408Q-1.45361 8.37738 -1.65827 8.33667Q-1.86292 8.29597 -2.06533 8.24527Q-2.26774 8.19456 -2.46742 8.13399Q-2.6671 8.07342 -2.86356 8.00312Q-3.06003 7.93283 -3.25281 7.85298Q-3.44559 7.77312 -3.63422 7.68391Q-3.82285 7.59469 -4.00687 7.49633Q-4.1909 7.39797 -4.36987 7.29069Q-4.54885 7.18342 -4.72235 7.06749Q-4.89584 6.95156 -5.06344 6.82726Q-5.23104 6.70296 -5.39234 6.57059Q-5.55364 6.43821 -5.70825 6.29808Q-5.86286 6.15795 -6.01041 6.01041Q-6.15795 5.86286 -6.29808 5.70825Q-6.43821 5.55364 -6.57059 5.39234Q-6.70296 5.23104 -6.82726 5.06344Q-6.95156 4.89584 -7.06749 4.72235Q-7.18342 4.54885 -7.29069 4.36987Q-7.39797 4.1909 -7.49633 4.00687Q-7.59469 3.82285 -7.68391 3.63422Q-7.77312 3.44559 -7.85298 3.25281Q-7.93283 3.06003 -8.00312 2.86356Q-8.07342 2.6671 -8.13399 2.46742Q-8.19456 2.26774 -8.24527 2.06533Q-8.29597 1.86292 -8.33667 1.65827Q-8.37738 1.45361 -8.408 1.24721Q-8.43862 1.0408 -8.45907 0.833146Q-8.47952 0.625487 -8.48976 0.417075Q-8.5 0.208663 -8.5 0Q-8.5 -0.208663 -8.48976 -0.417075Q-8.47952 -0.625487 -8.45907 -0.833146Q-8.43862 -1.0408 -8.408 -1.24721Q-8.37738 -1.45361 -8.33667 -1.65827Q-8.29597 -1.86292 -8.24527 -2.06533Q-8.19456 -2.26774 -8.13399 -2.46742Q-8.07342 -2.6671 -8.00312 -2.86356Q-7.93283 -3.06003 -7.85298 -3.25281Q-7.77312 -3.44559 -7.68391 -3.63422Q-7.59469 -3.82285 -7.49633 -4.00687Q-7.39797 -4.1909 -7.29069 -4.36987Q-7.18342 -4.54885 -7.06749 -4.72235Q-6.95156 -4.89584 -6.82726 -5.06344Q-6.70296 -5.23104 -6.57059 -5.39234Q-6.43821 -5.55364 -6.29808 -5.70825Q-6.15795 -5.86286 -6.01041 -6.01041Q-5.86286 -6.15795 -5.70825 -6.29808Q-5.55364 -6.43821 -5.39234 -6.57059Q-5.23104 -6.70296 -5.06344 -6.82726Q-4.89584 -6.95156 -4.72235 -7.06749Q-4.54885 -7.18342 -4.36987 -7.29069Q-4.1909 -7.39797 -4.00687 -7.49633Q-3.82285 -7.59469 -3.63422 -7.68391Q-3.44559 -7.77312 -3.25281 -7.85298Q-3.06003 -7.93283 -2.86356 -8.00312Q-2.6671 -8.07342 -2.46742 -8.13399Q-2.26774 -8.19456 -2.06533 -8.24527Q-1.86292 -8.29597 -1.65827 -8.33667Q-1.45361 -8.37738 -1.24721 -8.408Q-1.0408 -8.43862 -0.833146 -8.45907Q-0.625487 -8.47952 -0.417075 -8.48976Q-0.208663 -8.5 0 -8.5Q0.208663 -8.5 0.417075 -8.48976Q0.625487 -8.47952 0.833146 -8.45907Q1.0408 -8.43862 1.24721 -8.408Q1.45361 -8.37738 1.65827 -8.33667Q1.86292 -8.29597 2.06533 -8.24527Q2.26774 -8.19456 2.46742 -8.13399Q2.6671 -8.07342 2.86356 -8.00312Q3.06003 -7.93283 3.25281 -7.85298Q3.44559 -7.77312 3.63422 -7.68391Q3.82285 -7.59469 4.00687 -7.49633Q4.1909 -7.39797 4.36987 -7.29069Q4.54885 -7.18342 4.72235 -7.06749Q4.89584 -6.95156 5.06344 -6.82726Q5.23104 -6.70296 5.39234 -6.57059Q5.55364 -6.43821 5.70825 -6.29808Q5.86286 -6.15795 6.01041 -6.01041Q6.15795 -5.86286 6.29808 -5.70825Q6.43821 -5.55364 6.57059 -5.39234Q6.70296 -5.23104 6.82726 -5.06344Q6.95156 -4.89584 7.06749 -4.72235Q7.18342 -4.54885 7.29069 -4.36987Q7.39797 -4.1909 7.49633 -4.00687Q7.59469 -3.82285 7.68391 -3.63422Q7.77312 -3.44559 7.85298 -3.25281Q7.93283 -3.06003 8.00312 -2.86356Q8.07342 -2.6671 8.13399 -2.46742Q8.19456 -2.26774 8.24527 -2.06533Q8.29597 -1.86292 8.33667 -1.65827Q8.37738 -1.45361 8.408 -1.24721Q8.43862 -1.0408 8.45907 -0.833146Q8.47952 -0.625487 8.48976 -0.417075Q8.5 -0.208663 8.5 0"/>
	<path fill="#FFE763" transform="matrix(-1.42857 0 0 -1.42857 40.7143 47.8571)" d="M5.5 0Q5.5 0.135017 5.49337 0.269872Q5.48675 0.404727 5.47352 0.539094Q5.46028 0.673461 5.44047 0.807017Q5.42066 0.940574 5.39432 1.073Q5.36798 1.20542 5.33517 1.33639Q5.30237 1.46736 5.26317 1.59657Q5.22398 1.72577 5.17849 1.85289Q5.13301 1.98002 5.08134 2.10476Q5.02967 2.2295 4.97194 2.35155Q4.91421 2.47361 4.85057 2.59268Q4.78692 2.71176 4.71751 2.82756Q4.64809 2.94337 4.57308 3.05564Q4.49807 3.1679 4.41764 3.27635Q4.33721 3.38479 4.25156 3.48916Q4.1659 3.59353 4.07523 3.69357Q3.98456 3.79362 3.88909 3.88909Q3.79362 3.98456 3.69357 4.07523Q3.59353 4.1659 3.48916 4.25156Q3.38479 4.33721 3.27635 4.41764Q3.1679 4.49807 3.05564 4.57308Q2.94337 4.64809 2.82756 4.71751Q2.71176 4.78692 2.59268 4.85057Q2.47361 4.91421 2.35155 4.97194Q2.2295 5.02967 2.10476 5.08134Q1.98002 5.13301 1.85289 5.17849Q1.72577 5.22398 1.59657 5.26317Q1.46736 5.30237 1.33639 5.33517Q1.20542 5.36798 1.073 5.39432Q0.940574 5.42066 0.807017 5.44047Q0.673461 5.46028 0.539094 5.47352Q0.404727 5.48675 0.269872 5.49338Q0.135017 5.5 0 5.5Q-0.135017 5.5 -0.269872 5.49337Q-0.404727 5.48675 -0.539094 5.47352Q-0.673461 5.46028 -0.807017 5.44047Q-0.940574 5.42066 -1.073 5.39432Q-1.20542 5.36798 -1.33639 5.33517Q-1.46736 5.30237 -1.59657 5.26317Q-1.72577 5.22398 -1.85289 5.17849Q-1.98002 5.13301 -2.10476 5.08134Q-2.2295 5.02967 -2.35155 4.97194Q-2.47361 4.91421 -2.59268 4.85057Q-2.71176 4.78692 -2.82756 4.71751Q-2.94337 4.64809 -3.05564 4.57308Q-3.1679 4.49807 -3.27635 4.41764Q-3.38479 4.33721 -3.48916 4.25156Q-3.59353 4.1659 -3.69357 4.07523Q-3.79362 3.98456 -3.88909 3.88909Q-3.98456 3.79362 -4.07523 3.69357Q-4.1659 3.59353 -4.25156 3.48916Q-4.33721 3.38479 -4.41764 3.27635Q-4.49807 3.1679 -4.57308 3.05564Q-4.64809 2.94337 -4.71751 2.82756Q-4.78692 2.71176 -4.85057 2.59268Q-4.91421 2.47361 -4.97194 2.35155Q-5.02967 2.2295 -5.08134 2.10476Q-5.13301 1.98002 -5.17849 1.85289Q-5.22398 1.72577 -5.26317 1.59657Q-5.30237 1.46736 -5.33517 1.33639Q-5.36798 1.20542 -5.39432 1.073Q-5.42066 0.940574 -5.44047 0.807017Q-5.46028 0.673461 -5.47352 0.539094Q-5.48675 0.404727 -5.49338 0.269872Q-5.5 0.135017 -5.5 0Q-5.5 -0.135017 -5.49337 -0.269872Q-5.48675 -0.404727 -5.47352 -0.539094Q-5.46028 -0.673461 -5.44047 -0.807017Q-5.42066 -0.940574 -5.39432 -1.073Q-5.36798 -1.20542 -5.33517 -1.33639Q-5.30237 -1.46736 -5.26317 -1.59657Q-5.22398 -1.72577 -5.17849 -1.85289Q-5.13301 -1.98002 -5.08134 -2.10476Q-5.02967 -2.2295 -4.97194 -2.35155Q-4.91421 -2.47361 -4.85057 -2.59268Q-4.78692 -2.71176 -4.71751 -2.82756Q-4.64809 -2.94337 -4.57308 -3.05564Q-4.49807 -3.1679 -4.41764 -3.27635Q-4.33721 -3.38479 -4.25156 -3.48916Q-4.1659 -3.59353 -4.07523 -3.69357Q-3.98456 -3.79362 -3.88909 -3.88909Q-3.79362 -3.98456 -3.69357 -4.07523Q-3.59353 -4.1659 -3.48916 -4.25156Q-3.38479 -4.33721 -3.27635 -4.41764Q-3.1679 -4.49807 -3.05564 -4.57308Q-2.94337 -4.64809 -2.82756 -4.71751Q-2.71176 -4.78692 -2.59268 -4.85057Q-2.47361 -4.91421 -2.35155 -4.97194Q-2.2295 -5.02967 -2.10476 -5.08134Q-1.98002 -5.13301 -1.85289 -5.17849Q-1.72577 -5.22398 -1.59657 -5.26317Q-1.46736 -5.30237 -1.33639 -5.33517Q-1.20542 -5.36798 -1.073 -5.39432Q-0.940574 -5.42066 -0.807017 -5.44047Q-0.673461 -5.46028 -0.539094 -5.47352Q-0.404727 -5.48675 -0.269872 -5.49338Q-0.135017 -5.5 0 -5.5Q0.135017 -5.5 0.269872 -5.49337Q0.404727 -5.48675 0.539094 -5.47352Q0.673461 -5.46028 0.807017 -5.44047Q0.940574 -5.42066 1.073 -5.39432Q1.20542 -5.36798 1.33639 -5.33517Q1.46736 -5.30237 1.59657 -5.26317Q1.72577 -5.22398 1.85289 -5.17849Q1.98002 -5.13301 2.10476 -5.08134Q2.2295 -5.02967 2.35155 -4.97194Q2.47361 -4.91421 2.59268 -4.85057Q2.71176 -4.78692 2.82756 -4.71751Q2.94337 -4.64809 3.05564 -4.57308Q3.1679 -4.49807 3.27635 -4.41764Q3.38479 -4.33721 3.48916 -4.25156Q3.59353 -4.1659 3.69357 -4.07523Q3.79362 -3.98456 3.88909 -3.88909Q3.98456 -3.79362 4.07523 -3.69357Q4.1659 -3.59353 4.25156 -3.48916Q4.33721 -3.38479 4.41764 -3.27635Q4.49807 -3.1679 4.57308 -3.05564Q4.64809 -2.94337 4.71751 -2.82756Q4.78692 -2.71176 4.85057 -2.59268Q4.91421 -2.47361 4.97194 -2.35155Q5.02967 -2.2295 5.08134 -2.10476Q5.13301 -1.98002 5.17849 -1.85289Q5.22398 -1.72577 5.26317 -1.59657Q5.30237 -1.46736 5.33517 -1.33639Q5.36798 -1.20542 5.39432 -1.073Q5.42066 -0.940574 5.44047 -0.807017Q5.46028 -0.673461 5.47352 -0.539094Q5.48675 -0.404727 5.49338 -0.269872Q5.5 -0.135017 5.5 0"/>
	<path fill="none" stroke="black" stroke-width="2.3999999" stroke-linejoin="round" transform="translate(55 79.2857)" d="M-24.7982 -6.58855Q-21.6977 -6.58855 -20.0424 -5.49969Q-18.3822 -4.41082 -18.3822 -1.93035Q-18.3822 0.569648 -20.0619 1.68293Q-21.7416 2.79133 -24.8617 2.79133L-25.8383 2.79133L-25.8383 7.43L-28.9584 7.43L-28.9584 -6.23211Q-27.9379 -6.4323 -26.8002 -6.51043Q-25.6576 -6.58855 -24.7982 -6.58855ZM-24.5981 -3.9323Q-24.9398 -3.9323 -25.2719 -3.90789Q-25.599 -3.88836 -25.8383 -3.86883L-25.8383 0.130195L-24.8617 0.130195Q-23.2406 0.130195 -22.4203 -0.309258Q-21.6 -0.748711 -21.6 -1.94988Q-21.6 -2.53094 -21.81 -2.90691Q-22.0199 -3.28777 -22.4106 -3.51727Q-22.8012 -3.75164 -23.3627 -3.83953Q-23.9193 -3.9323 -24.5981 -3.9323ZM-6.43974 2.15168Q-6.43974 3.39191 -6.80107 4.42219Q-7.1624 5.44758 -7.84111 6.18Q-8.51982 6.91242 -9.47197 7.31281Q-10.4192 7.70832 -11.6009 7.70832Q-12.7581 7.70832 -13.7103 7.31281Q-14.6624 6.91242 -15.3411 6.18Q-16.0198 5.44758 -16.4007 4.42219Q-16.7815 3.39191 -16.7815 2.15168Q-16.7815 0.911445 -16.3909 -0.109063Q-16.0003 -1.12957 -15.3118 -1.84734Q-14.6185 -2.57 -13.6712 -2.97039Q-12.719 -3.37078 -11.6009 -3.37078Q-10.4583 -3.37078 -9.51103 -2.97039Q-8.55888 -2.57 -7.88017 -1.84734Q-7.20146 -1.12957 -6.8206 -0.109063Q-6.43974 0.911445 -6.43974 2.15168ZM-9.48174 2.15168Q-9.48174 0.769844 -10.0335 -0.021172Q-10.5804 -0.812188 -11.6009 -0.812188Q-12.6214 -0.812188 -13.1829 -0.021172Q-13.7395 0.769844 -13.7395 2.15168Q-13.7395 3.52863 -13.1829 4.33918Q-12.6214 5.14973 -11.6009 5.14973Q-10.5804 5.14973 -10.0335 4.33918Q-9.48174 3.52863 -9.48174 2.15168ZM0.0605927 7.6302Q-1.23824 7.61066 -2.04878 7.35187Q-2.85933 7.0882 -3.33296 6.61945Q-3.80171 6.1507 -3.97261 5.48176Q-4.13863 4.80793 -4.13863 3.96809L-4.13863 -7.60906L-1.16011 -8.08758L-1.16011 3.37238Q-1.16011 3.76789 -1.10152 4.09016Q-1.03804 4.41242 -0.872025 4.63215Q-0.701126 4.85187 -0.383743 4.99348Q-0.0614777 5.1302 0.480515 5.16926L0.0605927 7.6302ZM6.38058 7.6302Q5.08176 7.61066 4.27121 7.35187Q3.46066 7.0882 2.98703 6.61945Q2.51828 6.1507 2.34738 5.48176Q2.18137 4.80793 2.18137 3.96809L2.18137 -7.60906L5.15988 -8.08758L5.15988 3.37238Q5.15988 3.76789 5.21848 4.09016Q5.28195 4.41242 5.44797 4.63215Q5.61887 4.85187 5.93625 4.99348Q6.25851 5.1302 6.80051 5.16926L6.38058 7.6302ZM7.99843 2.24934Q7.99843 0.847969 8.42812 -0.201836Q8.8578 -1.25164 9.55605 -1.94988Q10.2592 -2.64813 11.1674 -3.00945Q12.0805 -3.37078 13.0424 -3.37078Q15.2787 -3.37078 16.5775 -1.99871Q17.8812 -0.631524 17.8812 2.02961Q17.8812 2.2884 17.8617 2.6009Q17.8422 2.90852 17.8178 3.14777L11.06 3.14777Q11.1576 4.07062 11.9193 4.61262Q12.681 5.14973 13.9603 5.14973Q14.7807 5.14973 15.5668 5.00324Q16.3578 4.85187 16.8607 4.63215L17.2611 7.04914Q17.0219 7.17121 16.6215 7.29328Q16.2211 7.41047 15.7279 7.49836Q15.2396 7.59113 14.6781 7.64973Q14.1215 7.70832 13.56 7.70832Q12.1391 7.70832 11.0892 7.2884Q10.0394 6.86848 9.34608 6.14094Q8.65761 5.40852 8.32558 4.41242Q7.99843 3.41145 7.99843 2.24934ZM15.0004 1.11164Q14.9809 0.730781 14.8685 0.369453Q14.7611 0.00812483 14.5316 -0.270195Q14.3021 -0.548516 13.9506 -0.72918Q13.599 -0.909844 13.0814 -0.909844Q12.5785 -0.909844 12.2172 -0.738945Q11.8607 -0.568047 11.6215 -0.289727Q11.3822 -0.0114064 11.2504 0.359687Q11.1185 0.730781 11.06 1.11164L15.0004 1.11164ZM20.1814 -2.73113Q20.9382 -2.95086 22.1394 -3.14129Q23.3405 -3.33172 24.6589 -3.33172Q26.0017 -3.33172 26.8903 -2.98016Q27.779 -2.62859 28.2966 -1.98895Q28.819 -1.3493 29.0388 -0.470391Q29.2585 0.408515 29.2585 1.48762L29.2585 7.43L26.28 7.43L26.28 1.84895Q26.28 0.408515 25.8991 -0.187188Q25.5183 -0.787774 24.4782 -0.787774Q24.1608 -0.787774 23.7995 -0.758477Q23.4382 -0.72918 23.1599 -0.690117L23.1599 7.43L20.1814 7.43L20.1814 -2.73113Z"/>
	<path fill="white" transform="translate(55 79.2857)" d="M-24.7982 -6.58855Q-21.6977 -6.58855 -20.0424 -5.49969Q-18.3822 -4.41082 -18.3822 -1.93035Q-18.3822 0.569648 -20.0619 1.68293Q-21.7416 2.79133 -24.8617 2.79133L-25.8383 2.79133L-25.8383 7.43L-28.9584 7.43L-28.9584 -6.23211Q-27.9379 -6.4323 -26.8002 -6.51043Q-25.6576 -6.58855 -24.7982 -6.58855ZM-24.5981 -3.9323Q-24.9398 -3.9323 -25.2719 -3.90789Q-25.599 -3.88836 -25.8383 -3.86883L-25.8383 0.130195L-24.8617 0.130195Q-23.2406 0.130195 -22.4203 -0.309258Q-21.6 -0.748711 -21.6 -1.94988Q-21.6 -2.53094 -21.81 -2.90691Q-22.0199 -3.28777 -22.4106 -3.51727Q-22.8012 -3.75164 -23.3627 -3.83953Q-23.9193 -3.9323 -24.5981 -3.9323ZM-6.43974 2.15168Q-6.43974 3.39191 -6.80107 4.42219Q-7.1624 5.44758 -7.84111 6.18Q-8.51982 6.91242 -9.47197 7.31281Q-10.4192 7.70832 -11.6009 7.70832Q-12.7581 7.70832 -13.7103 7.31281Q-14.6624 6.91242 -15.3411 6.18Q-16.0198 5.44758 -16.4007 4.42219Q-16.7815 3.39191 -16.7815 2.15168Q-16.7815 0.911445 -16.3909 -0.109063Q-16.0003 -1.12957 -15.3118 -1.84734Q-14.6185 -2.57 -13.6712 -2.97039Q-12.719 -3.37078 -11.6009 -3.37078Q-10.4583 -3.37078 -9.51103 -2.97039Q-8.55888 -2.57 -7.88017 -1.84734Q-7.20146 -1.12957 -6.8206 -0.109063Q-6.43974 0.911445 -6.43974 2.15168ZM-9.48174 2.15168Q-9.48174 0.769844 -10.0335 -0.021172Q-10.5804 -0.812188 -11.6009 -0.812188Q-12.6214 -0.812188 -13.1829 -0.021172Q-13.7395 0.769844 -13.7395 2.15168Q-13.7395 3.52863 -13.1829 4.33918Q-12.6214 5.14973 -11.6009 5.14973Q-10.5804 5.14973 -10.0335 4.33918Q-9.48174 3.52863 -9.48174 2.15168ZM0.0605927 7.6302Q-1.23824 7.61066 -2.04878 7.35187Q-2.85933 7.0882 -3.33296 6.61945Q-3.80171 6.1507 -3.97261 5.48176Q-4.13863 4.80793 -4.13863 3.96809L-4.13863 -7.60906L-1.16011 -8.08758L-1.16011 3.37238Q-1.16011 3.76789 -1.10152 4.09016Q-1.03804 4.41242 -0.872025 4.63215Q-0.701126 4.85187 -0.383743 4.99348Q-0.0614777 5.1302 0.480515 5.16926L0.0605927 7.6302ZM6.38058 7.6302Q5.08176 7.61066 4.27121 7.35187Q3.46066 7.0882 2.98703 6.61945Q2.51828 6.1507 2.34738 5.48176Q2.18137 4.80793 2.18137 3.96809L2.18137 -7.60906L5.15988 -8.08758L5.15988 3.37238Q5.15988 3.76789 5.21848 4.09016Q5.28195 4.41242 5.44797 4.63215Q5.61887 4.85187 5.93625 4.99348Q6.25851 5.1302 6.80051 5.16926L6.38058 7.6302ZM7.99843 2.24934Q7.99843 0.847969 8.42812 -0.201836Q8.8578 -1.25164 9.55605 -1.94988Q10.2592 -2.64813 11.1674 -3.00945Q12.0805 -3.37078 13.0424 -3.37078Q15.2787 -3.37078 16.5775 -1.99871Q17.8812 -0.631524 17.8812 2.02961Q17.8812 2.2884 17.8617 2.6009Q17.8422 2.90852 17.8178 3.14777L11.06 3.14777Q11.1576 4.07062 11.9193 4.61262Q12.681 5.14973 13.9603 5.14973Q14.7807 5.14973 15.5668 5.00324Q16.3578 4.85187 16.8607 4.63215L17.2611 7.04914Q17.0219 7.17121 16.6215 7.29328Q16.2211 7.41047 15.7279 7.49836Q15.2396 7.59113 14.6781 7.64973Q14.1215 7.70832 13.56 7.70832Q12.1391 7.70832 11.0892 7.2884Q10.0394 6.86848 9.34608 6.14094Q8.65761 5.40852 8.32558 4.41242Q7.99843 3.41145 7.99843 2.24934ZM15.0004 1.11164Q14.9809 0.730781 14.8685 0.369453Q14.7611 0.00812483 14.5316 -0.270195Q14.3021 -0.548516 13.9506 -0.72918Q13.599 -0.909844 13.0814 -0.909844Q12.5785 -0.909844 12.2172 -0.738945Q11.8607 -0.568047 11.6215 -0.289727Q11.3822 -0.0114064 11.2504 0.359687Q11.1185 0.730781 11.06 1.11164L15.0004 1.11164ZM20.1814 -2.73113Q20.9382 -2.95086 22.1394 -3.14129Q23.3405 -3.33172 24.6589 -3.33172Q26.0017 -3.33172 26.8903 -2.98016Q27.779 -2.62859 28.2966 -1.98895Q28.819 -1.3493 29.0388 -0.470391Q29.2585 0.408515 29.2585 1.48762L29.2585 7.43L26.28 7.43L26.28 1.84895Q26.28 0.408515 25.8991 -0.187188Q25.5183 -0.787774 24.4782 -0.787774Q24.1608 -0.787774 23.7995 -0.758477Q23.4382 -0.72918 23.1599 -0.690117L23.1599 7.43L20.1814 7.43L20.1814 -2.73113Z"/>
</svg>
