<?xml version="1.0" encoding="utf-8" ?>
<svg xmlns="http://www.w3.org/2000/svg" xmlns:xlink="http://www.w3.org/1999/xlink" width="110" height="110">
	<path fill="#333" transform="matrix(0.77186 1.2021 -1.2021 0.77186 69.2857 47.8571)" d="M0 3.5L-16 3.5Q-16.1719 3.5 -16.3431 3.48315Q-16.5142 3.46629 -16.6828 3.43275Q-16.8515 3.3992 -17.016 3.34929Q-17.1805 3.29938 -17.3394 3.23358Q-17.4982 3.16778 -17.6499 3.08672Q-17.8015 3.00567 -17.9445 2.91014Q-18.0875 2.81462 -18.2204 2.70554Q-18.3533 2.59646 -18.4749 2.47487Q-18.5965 2.35329 -18.7055 2.22038Q-18.8146 2.08746 -18.9101 1.9445Q-19.0057 1.80153 -19.0867 1.64989Q-19.1678 1.49825 -19.2336 1.33939Q-19.2994 1.18054 -19.3493 1.016Q-19.3992 0.851456 -19.4327 0.682816Q-19.4663 0.514176 -19.4831 0.34306Q-19.5 0.171944 -19.5 0Q-19.5 -0.171944 -19.4831 -0.34306Q-19.4663 -0.514176 -19.4327 -0.682816Q-19.3992 -0.851456 -19.3493 -1.016Q-19.2994 -1.18054 -19.2336 -1.33939Q-19.1678 -1.49825 -19.0867 -1.64989Q-19.0057 -1.80153 -18.9101 -1.9445Q-18.8146 -2.08746 -18.7055 -2.22038Q-18.5965 -2.35329 -18.4749 -2.47487Q-18.3533 -2.59646 -18.2204 -2.70554Q-18.0875 -2.81462 -17.9445 -2.91014Q-17.8015 -3.00567 -17.6499 -3.08672Q-17.4982 -3.16778 -17.3394 -3.23358Q-17.1805 -3.29938 -17.016 -3.34929Q-16.8515 -3.3992 -16.6828 -3.43275Q-16.5142 -3.46629 -16.3431 -3.48315Q-16.1719 -3.5 -16 -3.5L0 -3.5Q0.171944 -3.5 0.34306 -3.48315Q0.514176 -3.46629 0.682816 -3.43275Q0.851456 -3.3992 1.016 -3.34929Q1.18054 -3.29938 1.33939 -3.23358Q1.49825 -3.16778 1.64989 -3.08672Q1.80153 -3.00567 1.9445 -2.91014Q2.08746 -2.81462 2.22038 -2.70554Q2.35329 -2.59646 2.47487 -2.47487Q2.59646 -2.35329 2.70554 -2.22038Q2.81462 -2.08746 2.91014 -1.9445Q3.00567 -1.80153 3.08672 -1.64989Q3.16778 -1.49825 3.23358 -1.33939Q3.29938 -1.18054 3.34929 -1.016Q3.3992 -0.851456 3.43275 -0.682816Q3.46629 -0.514176 3.48315 -0.34306Q3.5 -0.171944 3.5 0Q3.5 0.171944 3.48315 0.34306Q3.46629 0.514176 3.43275 0.682816Q3.3992 0.851456 3.34929 1.016Q3.29938 1.18054 3.23358 1.33939Q3.16778 1.49825 3.08672 1.64989Q3.00567 1.80153 2.91014 1.9445Q2.81462 2.08746 2.70554 2.22038Q2.59646 2.35329 2.47487 2.47487Q2.35329 2.59646 2.22038 2.70554Q2.08746 2.81462 1.9445 2.91014Q1.80153 3.00567 1.64989 3.08672Q1.49825 3.16778 1.33939 3.23358Q1.18054 3.29938 1.016 3.34929Q0.851456 3.3992 0.682816 3.43275Q0.514176 3.46629 0.34306 3.48315Q0.171944 3.5 0 3.5Z"/>
	<path fill="#CFCFCF" transform="matrix(0.77186 1.2021 -1.2021 0.77186 69.2857 47.8571)" d="M10.5 0Q10.5 0.25776 10.4874 0.515211Q10.4747 0.77266 10.4494 1.02918Q10.4242 1.2857 10.3864 1.54067Q10.3485 1.79564 10.2982 2.04845Q10.248 2.30126 10.1853 2.55129Q10.1227 2.80133 10.0479 3.04799Q9.97305 3.29465 9.88621 3.53734Q9.79938 3.78004 9.70073 4.01818Q9.60209 4.25632 9.49189 4.48933Q9.38168 4.72234 9.26017 4.94967Q9.13866 5.17699 9.00615 5.39808Q8.87363 5.61917 8.73043 5.83349Q8.58723 6.04781 8.43368 6.25484Q8.28013 6.46188 8.11661 6.66113Q7.95309 6.86038 7.77999 7.05137Q7.60688 7.24236 7.42462 7.42462Q7.24236 7.60688 7.05137 7.77999Q6.86038 7.95309 6.66113 8.11661Q6.46188 8.28013 6.25484 8.43368Q6.04781 8.58723 5.83349 8.73043Q5.61917 8.87363 5.39808 9.00615Q5.17699 9.13867 4.94967 9.26017Q4.72234 9.38168 4.48933 9.49189Q4.25632 9.60209 4.01818 9.70074Q3.78004 9.79938 3.53734 9.88621Q3.29465 9.97305 3.04799 10.0479Q2.80133 10.1227 2.55129 10.1853Q2.30126 10.248 2.04845 10.2982Q1.79564 10.3485 1.54067 10.3864Q1.2857 10.4242 1.02918 10.4494Q0.77266 10.4747 0.515211 10.4874Q0.25776 10.5 0 10.5Q-0.25776 10.5 -0.515211 10.4874Q-0.77266 10.4747 -1.02918 10.4494Q-1.2857 10.4242 -1.54067 10.3864Q-1.79564 10.3485 -2.04845 10.2982Q-2.30126 10.248 -2.55129 10.1853Q-2.80133 10.1227 -3.04799 10.0479Q-3.29465 9.97305 -3.53734 9.88621Q-3.78004 9.79938 -4.01818 9.70073Q-4.25632 9.60209 -4.48933 9.49189Q-4.72234 9.38168 -4.94967 9.26017Q-5.17699 9.13866 -5.39808 9.00615Q-5.61917 8.87363 -5.83349 8.73043Q-6.04781 8.58723 -6.25484 8.43368Q-6.46188 8.28013 -6.66113 8.11661Q-6.86038 7.95309 -7.05137 7.77999Q-7.24236 7.60688 -7.42462 7.42462Q-7.60688 7.24236 -7.77999 7.05137Q-7.95309 6.86038 -8.11661 6.66113Q-8.28013 6.46188 -8.43368 6.25484Q-8.58723 6.04781 -8.73043 5.83349Q-8.87363 5.61917 -9.00615 5.39808Q-9.13867 5.17699 -9.26017 4.94967Q-9.38168 4.72234 -9.49189 4.48933Q-9.60209 4.25632 -9.70074 4.01818Q-9.79938 3.78004 -9.88621 3.53734Q-9.97305 3.29465 -10.0479 3.04799Q-10.1227 2.80133 -10.1853 2.55129Q-10.248 2.30126 -10.2982 2.04845Q-10.3485 1.79564 -10.3864 1.54067Q-10.4242 1.2857 -10.4494 1.02918Q-10.4747 0.77266 -10.4874 0.515211Q-10.5 0.25776 -10.5 0Q-10.5 -0.25776 -10.4874 -0.515211Q-10.4747 -0.77266 -10.4494 -1.02918Q-10.4242 -1.2857 -10.3864 -1.54067Q-10.3485 -1.79564 -10.2982 -2.04845Q-10.248 -2.30126 -10.1853 -2.55129Q-10.1227 -2.80133 -10.0479 -3.04799Q-9.97305 -3.29465 -9.88621 -3.53734Q-9.79938 -3.78004 -9.70073 -4.01818Q-9.60209 -4.25632 -9.49189 -4.48933Q-9.38168 -4.72234 -9.26017 -4.94967Q-9.13866 -5.17699 -9.00615 -5.39808Q-8.87363 -5.61917 -8.73043 -5.83349Q-8.58723 -6.04781 -8.43368 -6.25484Q-8.28013 -6.46188 -8.11661 -6.66113Q-7.95309 -6.86038 -7.77999 -7.05137Q-7.60688 -7.24236 -7.42462 -7.42462Q-7.24236 -7.60688 -7.05137 -7.77999Q-6.86038 -7.95309 -6.66113 -8.11661Q-6.46188 -8.28013 -6.25484 -8.43368Q-6.04781 -8.58723 -5.83349 -8.73043Q-5.61917 -8.87363 -5.39808 -9.00615Q-5.17699 -9.13867 -4.94967 -9.26017Q-4.72234 -9.38168 -4.48933 -9.49189Q-4.25632 -9.60209 -4.01818 -9.70074Q-3.78004 -9.79938 -3.53734 -9.88621Q-3.29465 -9.97305 -3.04799 -10.0479Q-2.80133 -10.1227 -2.55129 -10.1853Q-2.30126 -10.248 -2.04845 -10.2982Q-1.79564 -10.3485 -1.54067 -10.3864Q-1.2857 -10.4242 -1.02918 -10.4494Q-0.77266 -10.4747 -0.515211 -10.4874Q-0.25776 -10.5 0 -10.5Q0.25776 -10.5 0.515211 -10.4874Q0.77266 -10.4747 1.02918 -10.4494Q1.2857 -10.4242 1.54067 -10.3864Q1.79564 -10.3485 2.04845 -10.2982Q2.30126 -10.248 2.55129 -10.1853Q2.80133 -10.1227 3.04799 -10.0479Q3.29465 -9.97305 3.53734 -9.88621Q3.78004 -9.79938 4.01818 -9.70073Q4.25632 -9.60209 4.48933 -9.49189Q4.72234 -9.38168 4.94967 -9.26017Q5.17699 -9.13866 5.39808 -9.00615Q5.61917 -8.87363 5.83349 -8.73043Q6.04781 -8.58723 6.25484 -8.43368Q6.46188 -8.28013 6.66113 -8.11661Q6.86038 -7.95309 7.05137 -7.77999Q7.24236 -7.60688 7.42462 -7.42462Q7.60688 -7.24236 7.77999 -7.05137Q7.95309 -6.86038 8.11661 -6.66113Q8.28013 -6.46188 8.43368 -6.25484Q8.58723 -6.04781 8.73043 -5.83349Q8.87363 -5.61917 9.00615 -5.39808Q9.13867 -5.17699 9.26017 -4.94967Q9.38168 -4.72234 9.49189 -4.48933Q9.60209 -4.25632 9.70074 -4.01818Q9.79938 -3.78004 9.88621 -3.53734Q9.97305 -3.29465 10.0479 -3.04799Q10.1227 -2.80133 10.1853 -2.55129Q10.248 -2.30126 10.2982 -2.04845Q10.3485 -1.79564 10.3864 -1.54067Q10.4242 -1.2857 10.4494 -1.02918Q10.4747 -0.77266 10.4874 -0.515211Q10.5 -0.25776 10.5 0"/>
	<path fill="white" transform="matrix(0.77186 1.2021 -1.2021 0.77186 69.2857 47.8571)" d="M7.5 0Q7.5 0.184115 7.49097 0.368008Q7.48193 0.5519 7.46389 0.735129Q7.44584 0.918357 7.41882 1.10048Q7.39181 1.2826 7.35589 1.46318Q7.31997 1.64375 7.27523 1.82235Q7.2305 2.00095 7.17705 2.17713Q7.12361 2.35332 7.06158 2.52667Q6.99955 2.70003 6.9291 2.87013Q6.85864 3.04023 6.77992 3.20666Q6.7012 3.3731 6.61441 3.53548Q6.52762 3.69785 6.43296 3.85577Q6.33831 4.01369 6.23602 4.16678Q6.13373 4.31986 6.02406 4.46774Q5.91438 4.61563 5.79758 4.75795Q5.68078 4.90027 5.55713 5.03669Q5.43349 5.17311 5.3033 5.3033Q5.17311 5.43349 5.03669 5.55713Q4.90027 5.68078 4.75795 5.79758Q4.61563 5.91438 4.46774 6.02406Q4.31986 6.13373 4.16678 6.23602Q4.01369 6.33831 3.85577 6.43296Q3.69785 6.52762 3.53548 6.61441Q3.3731 6.7012 3.20666 6.77992Q3.04023 6.85864 2.87013 6.9291Q2.70003 6.99955 2.52667 7.06158Q2.35332 7.12361 2.17713 7.17705Q2.00095 7.2305 1.82235 7.27523Q1.64375 7.31997 1.46318 7.35589Q1.2826 7.39181 1.10048 7.41882Q0.918357 7.44584 0.735129 7.46389Q0.5519 7.48193 0.368008 7.49097Q0.184115 7.5 0 7.5Q-0.184115 7.5 -0.368008 7.49097Q-0.5519 7.48193 -0.735129 7.46389Q-0.918357 7.44584 -1.10048 7.41882Q-1.2826 7.39181 -1.46318 7.35589Q-1.64375 7.31997 -1.82235 7.27523Q-2.00095 7.2305 -2.17713 7.17705Q-2.35332 7.12361 -2.52667 7.06158Q-2.70003 6.99955 -2.87013 6.9291Q-3.04023 6.85864 -3.20666 6.77992Q-3.3731 6.7012 -3.53548 6.61441Q-3.69785 6.52762 -3.85577 6.43296Q-4.01369 6.33831 -4.16678 6.23602Q-4.31986 6.13373 -4.46774 6.02406Q-4.61563 5.91438 -4.75795 5.79758Q-4.90027 5.68078 -5.03669 5.55713Q-5.17311 5.43349 -5.3033 5.3033Q-5.43349 5.17311 -5.55713 5.03669Q-5.68078 4.90027 -5.79758 4.75795Q-5.91438 4.61563 -6.02406 4.46774Q-6.13373 4.31986 -6.23602 4.16678Q-6.33831 4.01369 -6.43296 3.85577Q-6.52762 3.69785 -6.61441 3.53548Q-6.7012 3.3731 -6.77992 3.20666Q-6.85864 3.04023 -6.9291 2.87013Q-6.99955 2.70003 -7.06158 2.52667Q-7.12361 2.35332 -7.17705 2.17713Q-7.2305 2.00095 -7.27523 1.82235Q-7.31997 1.64375 -7.35589 1.46318Q-7.39181 1.2826 -7.41882 1.10048Q-7.44584 0.918357 -7.46389 0.735129Q-7.48193 0.5519 -7.49097 0.368008Q-7.5 0.184115 -7.5 0Q-7.5 -0.184115 -7.49097 -0.368008Q-7.48193 -0.5519 -7.46389 -0.735129Q-7.44584 -0.918357 -7.41882 -1.10048Q-7.39181 -1.2826 -7.35589 -1.46318Q-7.31997 -1.64375 -7.27523 -1.82235Q-7.2305 -2.00095 -7.17705 -2.17713Q-7.12361 -2.35332 -7.06158 -2.52667Q-6.99955 -2.70003 -6.9291 -2.87013Q-6.85864 -3.04023 -6.77992 -3.20666Q-6.7012 -3.3731 -6.61441 -3.53548Q-6.52762 -3.69785 -6.43296 -3.85577Q-6.33831 -4.01369 -6.23602 -4.16678Q-6.13373 -4.31986 -6.02406 -4.46774Q-5.91438 -4.61563 -5.79758 -4.75795Q-5.68078 -4.90027 -5.55713 -5.03669Q-5.43349 -5.17311 -5.3033 -5.3033Q-5.17311 -5.43349 -5.03669 -5.55713Q-4.90027 -5.68078 -4.75795 -5.79758Q-4.61563 -5.91438 -4.46774 -6.02406Q-4.31986 -6.13373 -4.16678 -6.23602Q-4.01369 -6.33831 -3.85577 -6.43296Q-3.69785 -6.52762 -3.53548 -6.61441Q-3.3731 -6.7012 -3.20666 -6.77992Q-3.04023 -6.85864 -2.87013 -6.9291Q-2.70003 -6.99955 -2.52667 -7.06158Q-2.35332 -7.12361 -2.17713 -7.17705Q-2.00095 -7.2305 -1.82235 -7.27523Q-1.64375 -7.31997 -1.46318 -7.35589Q-1.2826 -7.39181 -1.10048 -7.41882Q-0.918357 -7.44584 -0.735129 -7.46389Q-0.5519 -7.48193 -0.368008 -7.49097Q-0.184115 -7.5 0 -7.5Q0.184115 -7.5 0.368008 -7.49097Q0.5519 -7.48193 0.735129 -7.46389Q0.918357 -7.44584 1.10048 -7.41882Q1.2826 -7.39181 1.46318 -7.35589Q1.64375 -7.31997 1.82235 -7.27523Q2.00095 -7.2305 2.17713 -7.17705Q2.35332 -7.12361 2.52667 -7.06158Q2.70003 -6.99955 2.87013 -6.9291Q3.04023 -6.85864 3.20666 -6.77992Q3.3731 -6.7012 3.53548 -6.61441Q3.69785 -6.52762 3.85577 -6.43296Q4.01369 -6.33831 4.16678 -6.23602Q4.31986 -6.13373 4.46774 -6.02406Q4.61563 -5.91438 4.75795 -5.79758Q4.90027 -5.68078 5.03669 -5.55713Q5.17311 -5.43349 5.3033 -5.3033Q5.43349 -5.17311 5.55713 -5.03669Q5.68078 -4.90027 5.79758 -4.75795Q5.91438 -4.61563 6.02406 -4.46774Q6.13373 -4.31986 6.23602 -4.16678Q6.33831 -4.01369 6.43296 -3.85577Q6.52762 -3.69785 6.61441 -3.53548Q6.7012 -3.3731 6.77992 -3.20666Q6.85864 -3.04023 6.9291 -2.87013Q6.99955 -2.70003 7.06158 -2.52667Q7.12361 -2.35332 7.17705 -2.17713Q7.2305 -2.00095 7.27523 -1.82235Q7.31997 -1.64375 7.35589 -1.46318Q7.39181 -1.2826 7.41882 -1.10048Q7.44584 -0.918357 7.46389 -0.735129Q7.48193 -0.5519 7.49097 -0.368008Q7.5 -0.184115 7.5 0"/>
	<path fill="#333" transform="matrix(-0.77186 -1.2021 1.2021 -0.77186 40.7143 47.8571)" d="M0 3.5L-16 3.5Q-16.1719 3.5 -16.3431 3.48315Q-16.5142 3.46629 -16.6828 3.43275Q-16.8515 3.3992 -17.016 3.34929Q-17.1805 3.29938 -17.3394 3.23358Q-17.4982 3.16778 -17.6499 3.08672Q-17.8015 3.00567 -17.9445 2.91014Q-18.0875 2.81462 -18.2204 2.70554Q-18.3533 2.59646 -18.4749 2.47487Q-18.5965 2.35329 -18.7055 2.22038Q-18.8146 2.08746 -18.9101 1.9445Q-19.0057 1.80153 -19.0867 1.64989Q-19.1678 1.49825 -19.2336 1.33939Q-19.2994 1.18054 -19.3493 1.016Q-19.3992 0.851456 -19.4327 0.682816Q-19.4663 0.514176 -19.4831 0.34306Q-19.5 0.171944 -19.5 0Q-19.5 -0.171944 -19.4831 -0.34306Q-19.4663 -0.514176 -19.4327 -0.682816Q-19.3992 -0.851456 -19.3493 -1.016Q-19.2994 -1.18054 -19.2336 -1.33939Q-19.1678 -1.49825 -19.0867 -1.64989Q-19.0057 -1.80153 -18.9101 -1.9445Q-18.8146 -2.08746 -18.7055 -2.22038Q-18.5965 -2.35329 -18.4749 -2.47487Q-18.3533 -2.59646 -18.2204 -2.70554Q-18.0875 -2.81462 -17.9445 -2.91014Q-17.8015 -3.00567 -17.6499 -3.08672Q-17.4982 -3.16778 -17.3394 -3.23358Q-17.1805 -3.29938 -17.016 -3.34929Q-16.8515 -3.3992 -16.6828 -3.43275Q-16.5142 -3.46629 -16.3431 -3.48315Q-16.1719 -3.5 -16 -3.5L0 -3.5Q0.171944 -3.5 0.34306 -3.48315Q0.514176 -3.46629 0.682816 -3.43275Q0.851456 -3.3992 1.016 -3.34929Q1.18054 -3.29938 1.33939 -3.23358Q1.49825 -3.16778 1.64989 -3.08672Q1.80153 -3.00567 1.9445 -2.91014Q2.08746 -2.81462 2.22038 -2.70554Q2.35329 -2.59646 2.47487 -2.47487Q2.59646 -2.35329 2.70554 -2.22038Q2.81462 -2.08746 2.91014 -1.9445Q3.00567 -1.80153 3.08672 -1.64989Q3.16778 -1.49825 3.23358 -1.33939Q3.29938 -1.18054 3.34929 -1.016Q3.3992 -0.851456 3.43275 -0.682816Q3.46629 -0.514176 3.48315 -0.34306Q3.5 -0.171944 3.5 0Q3.5 0.171944 3.48315 0.34306Q3.46629 0.514176 3.43275 0.682816Q3.3992 0.851456 3.34929 1.016Q3.29938 1.18054 3.23358 1.33939Q3.16778 1.49825 3.08672 1.64989Q3.00567 1.80153 2.91014 1.9445Q2.81462 2.08746 2.70554 2.22038Q2.59646 2.35329 2.47487 2.47487Q2.35329 2.59646 2.22038 2.70554Q2.08746 2.81462 1.9445 2.91014Q1.80153 3.00567 1.64989 3.08672Q1.49825 3.16778 1.33939 3.23358Q1.18054 3.29938 1.016 3.34929Q0.851456 3.3992 0.682816 3.43275Q0.514176 3.46629 0.34306 3.48315Q0.171944 3.5 0 3.5Z"/>
	<path fill="#CFCFCF" transform="matrix(-0.77186 -1.2021 1.2021 -0.77186 40.7143 47.8571)" d="M10.5 0Q10.5 0.25776 10.4874 0.515211Q10.4747 0.77266 10.4494 1.02918Q10.4242 1.2857 10.3864 1.54067Q10.3485 1.79564 10.2982 2.04845Q10.248 2.30126 10.1853 2.55129Q10.1227 2.80133 10.0479 3.04799Q9.97305 3.29465 9.88621 3.53734Q9.79938 3.78004 9.70073 4.01818Q9.60209 4.25632 9.49189 4.48933Q9.38168 4.72234 9.26017 4.94967Q9.13866 5.17699 9.00615 5.39808Q8.87363 5.61917 8.73043 5.83349Q8.58723 6.04781 8.43368 6.25484Q8.28013 6.46188 8.11661 6.66113Q7.95309 6.86038 7.77999 7.05137Q7.60688 7.24236 7.42462 7.42462Q7.24236 7.60688 7.05137 7.77999Q6.86038 7.95309 6.66113 8.11661Q6.46188 8.28013 6.25484 8.43368Q6.04781 8.58723 5.83349 8.73043Q5.61917 8.87363 5.39808 9.00615Q5.17699 9.13867 4.94967 9.26017Q4.72234 9.38168 4.48933 9.49189Q4.25632 9.60209 4.01818 9.70074Q3.78004 9.79938 3.53734 9.88621Q3.29465 9.97305 3.04799 10.0479Q2.80133 10.1227 2.55129 10.1853Q2.30126 10.248 2.04845 10.2982Q1.79564 10.3485 1.54067 10.3864Q1.2857 10.4242 1.02918 10.4494Q0.77266 10.4747 0.515211 10.4874Q0.25776 10.5 0 10.5Q-0.25776 10.5 -0.515211 10.4874Q-0.77266 10.4747 -1.02918 10.4494Q-1.2857 10.4242 -1.54067 10.3864Q-1.79564 10.3485 -2.04845 10.2982Q-2.30126 10.248 -2.55129 10.1853Q-2.80133 10.1227 -3.04799 10.0479Q-3.29465 9.97305 -3.53734 9.88621Q-3.78004 9.79938 -4.01818 9.70073Q-4.25632 9.60209 -4.48933 9.49189Q-4.72234 9.38168 -4.94967 9.26017Q-5.17699 9.13866 -5.39808 9.00615Q-5.61917 8.87363 -5.83349 8.73043Q-6.04781 8.58723 -6.25484 8.43368Q-6.46188 8.28013 -6.66113 8.11661Q-6.86038 7.95309 -7.05137 7.77999Q-7.24236 7.60688 -7.42462 7.42462Q-7.60688 7.24236 -7.77999 7.05137Q-7.95309 6.86038 -8.11661 6.66113Q-8.28013 6.46188 -8.43368 6.25484Q-8.58723 6.04781 -8.73043 5.83349Q-8.87363 5.61917 -9.00615 5.39808Q-9.13867 5.17699 -9.26017 4.94967Q-9.38168 4.72234 -9.49189 4.48933Q-9.60209 4.25632 -9.70074 4.01818Q-9.79938 3.78004 -9.88621 3.53734Q-9.97305 3.29465 -10.0479 3.04799Q-10.1227 2.80133 -10.1853 2.55129Q-10.248 2.30126 -10.2982 2.04845Q-10.3485 1.79564 -10.3864 1.54067Q-10.4242 1.2857 -10.4494 1.02918Q-10.4747 0.77266 -10.4874 0.515211Q-10.5 0.25776 -10.5 0Q-10.5 -0.25776 -10.4874 -0.515211Q-10.4747 -0.77266 -10.4494 -1.02918Q-10.4242 -1.2857 -10.3864 -1.54067Q-10.3485 -1.79564 -10.2982 -2.04845Q-10.248 -2.30126 -10.1853 -2.55129Q-10.1227 -2.80133 -10.0479 -3.04799Q-9.97305 -3.29465 -9.88621 -3.53734Q-9.79938 -3.78004 -9.70073 -4.01818Q-9.60209 -4.25632 -9.49189 -4.48933Q-9.38168 -4.72234 -9.26017 -4.94967Q-9.13866 -5.17699 -9.00615 -5.39808Q-8.87363 -5.61917 -8.73043 -5.83349Q-8.58723 -6.04781 -8.43368 -6.25484Q-8.28013 -6.46188 -8.11661 -6.66113Q-7.95309 -6.86038 -7.77999 -7.05137Q-7.60688 -7.24236 -7.42462 -7.42462Q-7.24236 -7.60688 -7.05137 -7.77999Q-6.86038 -7.95309 -6.66113 -8.11661Q-6.46188 -8.28013 -6.25484 -8.43368Q-6.04781 -8.58723 -5.83349 -8.73043Q-5.61917 -8.87363 -5.39808 -9.00615Q-5.17699 -9.13867 -4.94967 -9.26017Q-4.72234 -9.38168 -4.48933 -9.49189Q-4.25632 -9.60209 -4.01818 -9.70074Q-3.78004 -9.79938 -3.53734 -9.88621Q-3.29465 -9.97305 -3.04799 -10.0479Q-2.80133 -10.1227 -2.55129 -10.1853Q-2.30126 -10.248 -2.04845 -10.2982Q-1.79564 -10.3485 -1.54067 -10.3864Q-1.2857 -10.4242 -1.02918 -10.4494Q-0.77266 -10.4747 -0.515211 -10.4874Q-0.25776 -10.5 0 -10.5Q0.25776 -10.5 0.515211 -10.4874Q0.77266 -10.4747 1.02918 -10.4494Q1.2857 -10.4242 1.54067 -10.3864Q1.79564 -10.3485 2.04845 -10.2982Q2.30126 -10.248 2.55129 -10.1853Q2.80133 -10.1227 3.04799 -10.0479Q3.29465 -9.97305 3.53734 -9.88621Q3.78004 -9.79938 4.01818 -9.70073Q4.25632 -9.60209 4.48933 -9.49189Q4.72234 -9.38168 4.94967 -9.26017Q5.17699 -9.13866 5.39808 -9.00615Q5.61917 -8.87363 5.83349 -8.73043Q6.04781 -8.58723 6.25484 -8.43368Q6.46188 -8.28013 6.66113 -8.11661Q6.86038 -7.95309 7.05137 -7.77999Q7.24236 -7.60688 7.42462 -7.42462Q7.60688 -7.24236 7.77999 -7.05137Q7.95309 -6.86038 8.11661 -6.66113Q8.28013 -6.46188 8.43368 -6.25484Q8.58723 -6.04781 8.73043 -5.83349Q8.87363 -5.61917 9.00615 -5.39808Q9.13867 -5.17699 9.26017 -4.94967Q9.38168 -4.72234 9.49189 -4.48933Q9.60209 -4.25632 9.70074 -4.01818Q9.79938 -3.78004 9.88621 -3.53734Q9.97305 -3.29465 10.0479 -3.04799Q10.1227 -2.80133 10.1853 -2.55129Q10.248 -2.30126 10.2982 -2.04845Q10.3485 -1.79564 10.3864 -1.54067Q10.4242 -1.2857 10.4494 -1.02918Q10.4747 -0.77266 10.4874 -0.515211Q10.5 -0.25776 10.5 0"/>
	<path fill="white" transform="matrix(-0.77186 -1.2021 1.2021 -0.77186 40.7143 47.8571)" d="M7.5 0Q7.5 0.184115 7.49097 0.368008Q7.48193 0.5519 7.46389 0.735129Q7.44584 0.918357 7.41882 1.10048Q7.39181 1.2826 7.35589 1.46318Q7.31997 1.64375 7.27523 1.82235Q7.2305 2.00095 7.17705 2.17713Q7.12361 2.35332 7.06158 2.52667Q6.99955 2.70003 6.9291 2.87013Q6.85864 3.04023 6.77992 3.20666Q6.7012 3.3731 6.61441 3.53548Q6.52762 3.69785 6.43296 3.85577Q6.33831 4.01369 6.23602 4.16678Q6.13373 4.31986 6.02406 4.46774Q5.91438 4.61563 5.79758 4.75795Q5.68078 4.90027 5.55713 5.03669Q5.43349 5.17311 5.3033 5.3033Q5.17311 5.43349 5.03669 5.55713Q4.90027 5.68078 4.75795 5.79758Q4.61563 5.91438 4.46774 6.02406Q4.31986 6.13373 4.16678 6.23602Q4.01369 6.33831 3.85577 6.43296Q3.69785 6.52762 3.53548 6.61441Q3.3731 6.7012 3.20666 6.77992Q3.04023 6.85864 2.87013 6.9291Q2.70003 6.99955 2.52667 7.06158Q2.35332 7.12361 2.17713 7.17705Q2.00095 7.2305 1.82235 7.27523Q1.64375 7.31997 1.46318 7.35589Q1.2826 7.39181 1.10048 7.41882Q0.918357 7.44584 0.735129 7.46389Q0.5519 7.48193 0.368008 7.49097Q0.184115 7.5 0 7.5Q-0.184115 7.5 -0.368008 7.49097Q-0.5519 7.48193 -0.735129 7.46389Q-0.918357 7.44584 -1.10048 7.41882Q-1.2826 7.39181 -1.46318 7.35589Q-1.64375 7.31997 -1.82235 7.27523Q-2.00095 7.2305 -2.17713 7.17705Q-2.35332 7.12361 -2.52667 7.06158Q-2.70003 6.99955 -2.87013 6.9291Q-3.04023 6.85864 -3.20666 6.77992Q-3.3731 6.7012 -3.53548 6.61441Q-3.69785 6.52762 -3.85577 6.43296Q-4.01369 6.33831 -4.16678 6.23602Q-4.31986 6.13373 -4.46774 6.02406Q-4.61563 5.91438 -4.75795 5.79758Q-4.90027 5.68078 -5.03669 5.55713Q-5.17311 5.43349 -5.3033 5.3033Q-5.43349 5.17311 -5.55713 5.03669Q-5.68078 4.90027 -5.79758 4.75795Q-5.91438 4.61563 -6.02406 4.46774Q-6.13373 4.31986 -6.23602 4.16678Q-6.33831 4.01369 -6.43296 3.85577Q-6.52762 3.69785 -6.61441 3.53548Q-6.7012 3.3731 -6.77992 3.20666Q-6.85864 3.04023 -6.9291 2.87013Q-6.99955 2.70003 -7.06158 2.52667Q-7.12361 2.35332 -7.17705 2.17713Q-7.2305 2.00095 -7.27523 1.82235Q-7.31997 1.64375 -7.35589 1.46318Q-7.39181 1.2826 -7.41882 1.10048Q-7.44584 0.918357 -7.46389 0.735129Q-7.48193 0.5519 -7.49097 0.368008Q-7.5 0.184115 -7.5 0Q-7.5 -0.184115 -7.49097 -0.368008Q-7.48193 -0.5519 -7.46389 -0.735129Q-7.44584 -0.918357 -7.41882 -1.10048Q-7.39181 -1.2826 -7.35589 -1.46318Q-7.31997 -1.64375 -7.27523 -1.82235Q-7.2305 -2.00095 -7.17705 -2.17713Q-7.12361 -2.35332 -7.06158 -2.52667Q-6.99955 -2.70003 -6.9291 -2.87013Q-6.85864 -3.04023 -6.77992 -3.20666Q-6.7012 -3.3731 -6.61441 -3.53548Q-6.52762 -3.69785 -6.43296 -3.85577Q-6.33831 -4.01369 -6.23602 -4.16678Q-6.13373 -4.31986 -6.02406 -4.46774Q-5.91438 -4.61563 -5.79758 -4.75795Q-5.68078 -4.90027 -5.55713 -5.03669Q-5.43349 -5.17311 -5.3033 -5.3033Q-5.17311 -5.43349 -5.03669 -5.55713Q-4.90027 -5.68078 -4.75795 -5.79758Q-4.61563 -5.91438 -4.46774 -6.02406Q-4.31986 -6.13373 -4.16678 -6.23602Q-4.01369 -6.33831 -3.85577 -6.43296Q-3.69785 -6.52762 -3.53548 -6.61441Q-3.3731 -6.7012 -3.20666 -6.77992Q-3.04023 -6.85864 -2.87013 -6.9291Q-2.70003 -6.99955 -2.52667 -7.06158Q-2.35332 -7.12361 -2.17713 -7.17705Q-2.00095 -7.2305 -1.82235 -7.27523Q-1.64375 -7.31997 -1.46318 -7.35589Q-1.2826 -7.39181 -1.10048 -7.41882Q-0.918357 -7.44584 -0.735129 -7.46389Q-0.5519 -7.48193 -0.368008 -7.49097Q-0.184115 -7.5 0 -7.5Q0.184115 -7.5 0.368008 -7.49097Q0.5519 -7.48193 0.735129 -7.46389Q0.918357 -7.44584 1.10048 -7.41882Q1.2826 -7.39181 1.46318 -7.35589Q1.64375 -7.31997 1.82235 -7.27523Q2.00095 -7.2305 2.17713 -7.17705Q2.35332 -7.12361 2.52667 -7.06158Q2.70003 -6.99955 2.87013 -6.9291Q3.04023 -6.85864 3.20666 -6.77992Q3.3731 -6.7012 3.53548 -6.61441Q3.69785 -6.52762 3.85577 -6.43296Q4.01369 -6.33831 4.16678 -6.23602Q4.31986 -6.13373 4.46774 -6.02406Q4.61563 -5.91438 4.75795 -5.79758Q4.90027 -5.68078 5.03669 -5.55713Q5.17311 -5.43349 5.3033 -5.3033Q5.43349 -5.17311 5.55713 -5.03669Q5.68078 -4.90027 5.79758 -4.75795Q5.91438 -4.61563 6.02406 -4.46774Q6.13373 -4.31986 6.23602 -4.16678Q6.33831 -4.01369 6.43296 -3.85577Q6.52762 -3.69785 6.61441 -3.53548Q6.7012 -3.3731 6.77992 -3.20666Q6.85864 -3.04023 6.9291 -2.87013Q6.99955 -2.70003 7.06158 -2.52667Q7.12361 -2.35332 7.17705 -2.17713Q7.2305 -2.00095 7.27523 -1.82235Q7.31997 -1.64375 7.35589 -1.46318Q7.39181 -1.2826 7.41882 -1.10048Q7.44584 -0.918357 7.46389 -0.735129Q7.48193 -0.5519 7.49097 -0.368008Q7.5 -0.184115 7.5 0"/>
	<path fill="none" stroke="black" stroke-width="1.8857143" stroke-linejoin="round" transform="translate(55 79.2857)" d="M-34.5117 3.84288Q-34.3391 3.85823 -34.1127 3.8659Q-33.8864 3.87357 -33.5718 3.87357Q-31.7303 3.87357 -30.844 2.94898Q-29.9578 2.02054 -29.9578 0.386197Q-29.9578 -1.32872 -30.8057 -2.20727Q-31.6535 -3.08967 -33.4912 -3.08967Q-33.7444 -3.08967 -34.013 -3.07816Q-34.2777 -3.07049 -34.5117 -3.03979L-34.5117 3.84288ZM-27.4257 0.386197Q-27.4257 1.79803 -27.8669 2.85306Q-28.3043 3.90426 -29.1138 4.59867Q-29.9233 5.28924 -31.0896 5.63452Q-32.252 5.97981 -33.6945 5.97981Q-34.3544 5.97981 -35.2368 5.92226Q-36.1154 5.86855 -36.9632 5.69591L-36.9632 -4.912Q-36.1154 -5.0693 -35.1984 -5.12301Q-34.2777 -5.17672 -33.6178 -5.17672Q-32.2175 -5.17672 -31.078 -4.86213Q-29.9386 -4.54754 -29.1214 -3.87231Q-28.3043 -3.19709 -27.8669 -2.14205Q-27.4257 -1.09085 -27.4257 0.386197ZM-22.3898 4.20351Q-22.0446 4.20351 -21.73 4.18816Q-21.4154 4.17282 -21.2274 4.14213L-21.2274 2.36583Q-21.3693 2.33514 -21.6532 2.30444Q-21.9333 2.26992 -22.1712 2.26992Q-22.5011 2.26992 -22.7927 2.31212Q-23.0804 2.35048 -23.3029 2.46174Q-23.5216 2.56916 -23.6482 2.75715Q-23.771 2.94514 -23.771 3.22904Q-23.771 3.77766 -23.4027 3.9925Q-23.0344 4.20351 -22.3898 4.20351ZM-22.5778 -2.64847Q-21.542 -2.64847 -20.8514 -2.41061Q-20.157 -2.17658 -19.7427 -1.73539Q-19.3245 -1.29803 -19.1518 -0.66884Q-18.9792 -0.0396543 -18.9792 0.731481L-18.9792 5.60383Q-19.4818 5.71125 -20.3795 5.86088Q-21.2734 6.0105 -22.5471 6.0105Q-23.349 6.0105 -24.0012 5.86855Q-24.6534 5.7266 -25.1253 5.40433Q-25.5971 5.08207 -25.8504 4.56414Q-26.0997 4.04621 -26.0997 3.29042Q-26.0997 2.56916 -25.8082 2.06658Q-25.5166 1.564 -25.0293 1.26475Q-24.5421 0.965508 -23.9129 0.835066Q-23.2837 0.700789 -22.6085 0.700789Q-22.1558 0.700789 -21.8029 0.739154Q-21.4461 0.777519 -21.2274 0.838903L-21.2274 0.620223Q-21.2274 0.0217295 -21.588 -0.338901Q-21.9486 -0.699532 -22.8464 -0.699532Q-23.441 -0.699532 -24.0242 -0.611292Q-24.6073 -0.526889 -25.0293 -0.369593L-25.3286 -2.25331Q-25.1253 -2.31853 -24.8183 -2.38759Q-24.5114 -2.46048 -24.1508 -2.51419Q-23.7902 -2.5679 -23.3912 -2.60627Q-22.9883 -2.64847 -22.5778 -2.64847ZM-16.8634 -2.14589Q-16.2687 -2.31853 -15.325 -2.46816Q-14.3812 -2.61778 -13.3453 -2.61778Q-12.2903 -2.61778 -11.5921 -2.34155Q-10.8938 -2.06532 -10.4871 -1.56274Q-10.0766 -1.06016 -9.904 -0.369593Q-9.73136 0.320976 -9.73136 1.16884L-9.73136 5.83786L-12.0716 5.83786L-12.0716 1.45274Q-12.0716 0.320976 -12.3709 -0.147076Q-12.6701 -0.618965 -13.4873 -0.618965Q-13.7367 -0.618965 -14.0206 -0.595946Q-14.3045 -0.572927 -14.5231 -0.542235L-14.5231 5.83786L-16.8634 5.83786L-16.8634 -2.14589ZM-5.61923 1.64073Q-5.61923 2.72646 -5.132 3.38634Q-4.64476 4.04621 -3.68564 4.04621Q-3.37105 4.04621 -3.10633 4.02319Q-2.83778 4.00018 -2.66513 3.96948L-2.66513 -0.289027Q-2.88381 -0.430977 -3.24061 -0.523053Q-3.59356 -0.618965 -3.9542 -0.618965Q-5.61923 -0.618965 -5.61923 1.64073ZM-0.32487 5.5693Q-0.639463 5.66521 -1.04997 5.75345Q-1.45664 5.83786 -1.90551 5.89924Q-2.35054 5.96446 -2.81476 6.00283Q-3.27897 6.04119 -3.70099 6.04119Q-4.72533 6.04119 -5.52716 5.74578Q-6.32515 5.44653 -6.8776 4.89024Q-7.42622 4.33011 -7.7178 3.53596Q-8.00937 2.7418 -8.00937 1.75199Q-8.00937 0.746827 -7.76 -0.0626736Q-7.50679 -0.872174 -7.0349 -1.43614Q-6.56301 -2.00394 -5.88012 -2.30319Q-5.19338 -2.60243 -4.31483 -2.60243Q-3.82759 -2.60243 -3.44394 -2.50652Q-3.05646 -2.41061 -2.66513 -2.23797L-2.66513 -5.97855L-0.32487 -6.35453L-0.32487 5.5693ZM1.47537 1.76733Q1.47537 0.666261 1.81298 -0.158586Q2.15059 -0.983432 2.69921 -1.53205Q3.25167 -2.08067 3.96526 -2.36457Q4.68268 -2.64847 5.43847 -2.64847Q7.19559 -2.64847 8.21609 -1.57042Q9.24044 -0.496197 9.24044 1.59469Q9.24044 1.79803 9.22509 2.04356Q9.20975 2.28526 9.19056 2.47325L3.88085 2.47325Q3.95758 3.19835 4.55608 3.6242Q5.15457 4.04621 6.15973 4.04621Q6.80426 4.04621 7.42194 3.93112Q8.04345 3.81219 8.43861 3.63954L8.7532 5.53861Q8.56521 5.63452 8.25062 5.73043Q7.93603 5.82251 7.54854 5.89157Q7.16489 5.96446 6.7237 6.0105Q6.28634 6.05654 5.84514 6.05654Q4.72872 6.05654 3.90387 5.7266Q3.07903 5.39666 2.53424 4.82502Q1.9933 4.24955 1.73242 3.4669Q1.47537 2.68042 1.47537 1.76733ZM6.9769 0.873432Q6.96156 0.574185 6.87332 0.290284Q6.78892 0.00638342 6.6086 -0.212297Q6.42829 -0.430977 6.15206 -0.572927Q5.87583 -0.714878 5.46916 -0.714878Q5.074 -0.714878 4.7901 -0.5806Q4.51004 -0.446323 4.32205 -0.227643Q4.13406 -0.00896263 4.03048 0.282611Q3.92689 0.574185 3.88085 0.873432L6.9769 0.873432ZM14.3406 5.99515Q13.3201 5.97981 12.6832 5.77647Q12.0464 5.5693 11.6742 5.201Q11.3059 4.8327 11.1716 4.3071Q11.0412 3.77766 11.0412 3.11778L11.0412 -5.97855L13.3815 -6.35453L13.3815 2.64973Q13.3815 2.96048 13.4275 3.21369Q13.4774 3.4669 13.6078 3.63954Q13.7421 3.81219 13.9915 3.92345Q14.2447 4.03087 14.6705 4.06156L14.3406 5.99515ZM18.3437 5.83786L16.0034 5.83786L16.0034 -2.42595L18.3437 -2.42595L18.3437 5.83786ZM18.5624 -4.81609Q18.5624 -4.17156 18.1442 -3.80326Q17.7298 -3.43495 17.1659 -3.43495Q16.5981 -3.43495 16.1799 -3.80326Q15.7656 -4.17156 15.7656 -4.81609Q15.7656 -5.46062 16.1799 -5.82893Q16.5981 -6.20107 17.1659 -6.20107Q17.7298 -6.20107 18.1442 -5.82893Q18.5624 -5.46062 18.5624 -4.81609ZM28.2722 1.69061Q28.2722 2.66507 27.9883 3.47458Q27.7044 4.28024 27.1711 4.85571Q26.6378 5.43119 25.8897 5.74578Q25.1454 6.05654 24.217 6.05654Q23.3078 6.05654 22.5596 5.74578Q21.8115 5.43119 21.2782 4.85571Q20.745 4.28024 20.4457 3.47458Q20.1465 2.66507 20.1465 1.69061Q20.1465 0.716135 20.4534 -0.0856924Q20.7603 -0.88752 21.3013 -1.45148Q21.8461 -2.01929 22.5903 -2.33388Q23.3384 -2.64847 24.217 -2.64847Q25.1147 -2.64847 25.859 -2.33388Q26.6071 -2.01929 27.1404 -1.45148Q27.6737 -0.88752 27.9729 -0.0856924Q28.2722 0.716135 28.2722 1.69061ZM25.882 1.69061Q25.882 0.604877 25.4485 -0.0166354Q25.0188 -0.638148 24.217 -0.638148Q23.4152 -0.638148 22.974 -0.0166354Q22.5366 0.604877 22.5366 1.69061Q22.5366 2.7725 22.974 3.40936Q23.4152 4.04621 24.217 4.04621Q25.0188 4.04621 25.4485 3.40936Q25.882 2.7725 25.882 1.69061ZM30.0735 -2.14589Q30.6681 -2.31853 31.6119 -2.46816Q32.5557 -2.61778 33.5916 -2.61778Q34.6466 -2.61778 35.3448 -2.34155Q36.0431 -2.06532 36.4497 -1.56274Q36.8602 -1.06016 37.0329 -0.369593Q37.2055 0.320976 37.2055 1.16884L37.2055 5.83786L34.8653 5.83786L34.8653 1.45274Q34.8653 0.320976 34.566 -0.147076Q34.2668 -0.618965 33.4496 -0.618965Q33.2002 -0.618965 32.9163 -0.595946Q32.6324 -0.572927 32.4137 -0.542235L32.4137 5.83786L30.0735 5.83786L30.0735 -2.14589Z"/>
	<path fill="white" transform="translate(55 79.2857)" d="M-34.5117 3.84288Q-34.3391 3.85823 -34.1127 3.8659Q-33.8864 3.87357 -33.5718 3.87357Q-31.7303 3.87357 -30.844 2.94898Q-29.9578 2.02054 -29.9578 0.386197Q-29.9578 -1.32872 -30.8057 -2.20727Q-31.6535 -3.08967 -33.4912 -3.08967Q-33.7444 -3.08967 -34.013 -3.07816Q-34.2777 -3.07049 -34.5117 -3.03979L-34.5117 3.84288ZM-27.4257 0.386197Q-27.4257 1.79803 -27.8669 2.85306Q-28.3043 3.90426 -29.1138 4.59867Q-29.9233 5.28924 -31.0896 5.63452Q-32.252 5.97981 -33.6945 5.97981Q-34.3544 5.97981 -35.2368 5.92226Q-36.1154 5.86855 -36.9632 5.69591L-36.9632 -4.912Q-36.1154 -5.0693 -35.1984 -5.12301Q-34.2777 -5.17672 -33.6178 -5.17672Q-32.2175 -5.17672 -31.078 -4.86213Q-29.9386 -4.54754 -29.1214 -3.87231Q-28.3043 -3.19709 -27.8669 -2.14205Q-27.4257 -1.09085 -27.4257 0.386197ZM-22.3898 4.20351Q-22.0446 4.20351 -21.73 4.18816Q-21.4154 4.17282 -21.2274 4.14213L-21.2274 2.36583Q-21.3693 2.33514 -21.6532 2.30444Q-21.9333 2.26992 -22.1712 2.26992Q-22.5011 2.26992 -22.7927 2.31212Q-23.0804 2.35048 -23.3029 2.46174Q-23.5216 2.56916 -23.6482 2.75715Q-23.771 2.94514 -23.771 3.22904Q-23.771 3.77766 -23.4027 3.9925Q-23.0344 4.20351 -22.3898 4.20351ZM-22.5778 -2.64847Q-21.542 -2.64847 -20.8514 -2.41061Q-20.157 -2.17658 -19.7427 -1.73539Q-19.3245 -1.29803 -19.1518 -0.66884Q-18.9792 -0.0396543 -18.9792 0.731481L-18.9792 5.60383Q-19.4818 5.71125 -20.3795 5.86088Q-21.2734 6.0105 -22.5471 6.0105Q-23.349 6.0105 -24.0012 5.86855Q-24.6534 5.7266 -25.1253 5.40433Q-25.5971 5.08207 -25.8504 4.56414Q-26.0997 4.04621 -26.0997 3.29042Q-26.0997 2.56916 -25.8082 2.06658Q-25.5166 1.564 -25.0293 1.26475Q-24.5421 0.965508 -23.9129 0.835066Q-23.2837 0.700789 -22.6085 0.700789Q-22.1558 0.700789 -21.8029 0.739154Q-21.4461 0.777519 -21.2274 0.838903L-21.2274 0.620223Q-21.2274 0.0217295 -21.588 -0.338901Q-21.9486 -0.699532 -22.8464 -0.699532Q-23.441 -0.699532 -24.0242 -0.611292Q-24.6073 -0.526889 -25.0293 -0.369593L-25.3286 -2.25331Q-25.1253 -2.31853 -24.8183 -2.38759Q-24.5114 -2.46048 -24.1508 -2.51419Q-23.7902 -2.5679 -23.3912 -2.60627Q-22.9883 -2.64847 -22.5778 -2.64847ZM-16.8634 -2.14589Q-16.2687 -2.31853 -15.325 -2.46816Q-14.3812 -2.61778 -13.3453 -2.61778Q-12.2903 -2.61778 -11.5921 -2.34155Q-10.8938 -2.06532 -10.4871 -1.56274Q-10.0766 -1.06016 -9.904 -0.369593Q-9.73136 0.320976 -9.73136 1.16884L-9.73136 5.83786L-12.0716 5.83786L-12.0716 1.45274Q-12.0716 0.320976 -12.3709 -0.147076Q-12.6701 -0.618965 -13.4873 -0.618965Q-13.7367 -0.618965 -14.0206 -0.595946Q-14.3045 -0.572927 -14.5231 -0.542235L-14.5231 5.83786L-16.8634 5.83786L-16.8634 -2.14589ZM-5.61923 1.64073Q-5.61923 2.72646 -5.132 3.38634Q-4.64476 4.04621 -3.68564 4.04621Q-3.37105 4.04621 -3.10633 4.02319Q-2.83778 4.00018 -2.66513 3.96948L-2.66513 -0.289027Q-2.88381 -0.430977 -3.24061 -0.523053Q-3.59356 -0.618965 -3.9542 -0.618965Q-5.61923 -0.618965 -5.61923 1.64073ZM-0.32487 5.5693Q-0.639463 5.66521 -1.04997 5.75345Q-1.45664 5.83786 -1.90551 5.89924Q-2.35054 5.96446 -2.81476 6.00283Q-3.27897 6.04119 -3.70099 6.04119Q-4.72533 6.04119 -5.52716 5.74578Q-6.32515 5.44653 -6.8776 4.89024Q-7.42622 4.33011 -7.7178 3.53596Q-8.00937 2.7418 -8.00937 1.75199Q-8.00937 0.746827 -7.76 -0.0626736Q-7.50679 -0.872174 -7.0349 -1.43614Q-6.56301 -2.00394 -5.88012 -2.30319Q-5.19338 -2.60243 -4.31483 -2.60243Q-3.82759 -2.60243 -3.44394 -2.50652Q-3.05646 -2.41061 -2.66513 -2.23797L-2.66513 -5.97855L-0.32487 -6.35453L-0.32487 5.5693ZM1.47537 1.76733Q1.47537 0.666261 1.81298 -0.158586Q2.15059 -0.983432 2.69921 -1.53205Q3.25167 -2.08067 3.96526 -2.36457Q4.68268 -2.64847 5.43847 -2.64847Q7.19559 -2.64847 8.21609 -1.57042Q9.24044 -0.496197 9.24044 1.59469Q9.24044 1.79803 9.22509 2.04356Q9.20975 2.28526 9.19056 2.47325L3.88085 2.47325Q3.95758 3.19835 4.55608 3.6242Q5.15457 4.04621 6.15973 4.04621Q6.80426 4.04621 7.42194 3.93112Q8.04345 3.81219 8.43861 3.63954L8.7532 5.53861Q8.56521 5.63452 8.25062 5.73043Q7.93603 5.82251 7.54854 5.89157Q7.16489 5.96446 6.7237 6.0105Q6.28634 6.05654 5.84514 6.05654Q4.72872 6.05654 3.90387 5.7266Q3.07903 5.39666 2.53424 4.82502Q1.9933 4.24955 1.73242 3.4669Q1.47537 2.68042 1.47537 1.76733ZM6.9769 0.873432Q6.96156 0.574185 6.87332 0.290284Q6.78892 0.00638342 6.6086 -0.212297Q6.42829 -0.430977 6.15206 -0.572927Q5.87583 -0.714878 5.46916 -0.714878Q5.074 -0.714878 4.7901 -0.5806Q4.51004 -0.446323 4.32205 -0.227643Q4.13406 -0.00896263 4.03048 0.282611Q3.92689 0.574185 3.88085 0.873432L6.9769 0.873432ZM14.3406 5.99515Q13.3201 5.97981 12.6832 5.77647Q12.0464 5.5693 11.6742 5.201Q11.3059 4.8327 11.1716 4.3071Q11.0412 3.77766 11.0412 3.11778L11.0412 -5.97855L13.3815 -6.35453L13.3815 2.64973Q13.3815 2.96048 13.4275 3.21369Q13.4774 3.4669 13.6078 3.63954Q13.7421 3.81219 13.9915 3.92345Q14.2447 4.03087 14.6705 4.06156L14.3406 5.99515ZM18.3437 5.83786L16.0034 5.83786L16.0034 -2.42595L18.3437 -2.42595L18.3437 5.83786ZM18.5624 -4.81609Q18.5624 -4.17156 18.1442 -3.80326Q17.7298 -3.43495 17.1659 -3.43495Q16.5981 -3.43495 16.1799 -3.80326Q15.7656 -4.17156 15.7656 -4.81609Q15.7656 -5.46062 16.1799 -5.82893Q16.5981 -6.20107 17.1659 -6.20107Q17.7298 -6.20107 18.1442 -5.82893Q18.5624 -5.46062 18.5624 -4.81609ZM28.2722 1.69061Q28.2722 2.66507 27.9883 3.47458Q27.7044 4.28024 27.1711 4.85571Q26.6378 5.43119 25.8897 5.74578Q25.1454 6.05654 24.217 6.05654Q23.3078 6.05654 22.5596 5.74578Q21.8115 5.43119 21.2782 4.85571Q20.745 4.28024 20.4457 3.47458Q20.1465 2.66507 20.1465 1.69061Q20.1465 0.716135 20.4534 -0.0856924Q20.7603 -0.88752 21.3013 -1.45148Q21.8461 -2.01929 22.5903 -2.33388Q23.3384 -2.64847 24.217 -2.64847Q25.1147 -2.64847 25.859 -2.33388Q26.6071 -2.01929 27.1404 -1.45148Q27.6737 -0.88752 27.9729 -0.0856924Q28.2722 0.716135 28.2722 1.69061ZM25.882 1.69061Q25.882 0.604877 25.4485 -0.0166354Q25.0188 -0.638148 24.217 -0.638148Q23.4152 -0.638148 22.974 -0.0166354Q22.5366 0.604877 22.5366 1.69061Q22.5366 2.7725 22.974 3.40936Q23.4152 4.04621 24.217 4.04621Q25.0188 4.04621 25.4485 3.40936Q25.882 2.7725 25.882 1.69061ZM30.0735 -2.14589Q30.6681 -2.31853 31.6119 -2.46816Q32.5557 -2.61778 33.5916 -2.61778Q34.6466 -2.61778 35.3448 -2.34155Q36.0431 -2.06532 36.4497 -1.56274Q36.8602 -1.06016 37.0329 -0.369593Q37.2055 0.320976 37.2055 1.16884L37.2055 5.83786L34.8653 5.83786L34.8653 1.45274Q34.8653 0.320976 34.566 -0.147076Q34.2668 -0.618965 33.4496 -0.618965Q33.2002 -0.618965 32.9163 -0.595946Q32.6324 -0.572927 32.4137 -0.542235L32.4137 5.83786L30.0735 5.83786L30.0735 -2.14589Z"/>
</svg>
