<?xml version="1.0" encoding="utf-8" ?>
<svg xmlns="http://www.w3.org/2000/svg" xmlns:xlink="http://www.w3.org/1999/xlink" width="110" height="110">
	<path fill="#FFF0B8" transform="matrix(1.42857 0 0 1.42857 55 47.8571)" d="M11.475 0Q11.475 0.381117 11.4612 0.761776Q11.4474 1.14243 11.4197 1.52172Q11.3921 1.901 11.3508 2.27799Q11.3095 2.65498 11.2545 3.02878Q11.1996 3.40257 11.1311 3.77227Q11.0627 4.14196 10.9809 4.50667Q10.8991 4.87138 10.8042 5.23021Q10.7093 5.58905 10.6015 5.94116Q10.4937 6.29327 10.3733 6.63779Q10.2528 6.98232 10.12 7.31843Q9.98726 7.65455 9.84244 7.98144Q9.69761 8.30834 9.54111 8.62523Q9.38461 8.94211 9.21681 9.24823Q9.049 9.55435 8.87029 9.84896Q8.69159 10.1436 8.50241 10.426Q8.31324 10.7083 8.11405 10.9778Q7.91486 11.2473 7.70614 11.5033Q7.49742 11.7592 7.27966 12.001Q7.06191 12.2428 6.83565 12.4698Q6.60939 12.6968 6.37517 12.9086Q6.14095 13.1203 5.89933 13.3162Q5.65771 13.5122 5.40928 13.6918Q5.16084 13.8715 4.90619 14.0344Q4.65154 14.1974 4.39129 14.3432Q4.13104 14.4891 3.86581 14.6175Q3.60058 14.7459 3.33102 14.8565Q3.06145 14.9671 2.7882 15.0597Q2.51494 15.1523 2.23866 15.2267Q1.96238 15.301 1.68373 15.357Q1.40509 15.4129 1.12475 15.4502Q0.844408 15.4876 0.563052 15.5063Q0.281695 15.525 0 15.525Q-0.281695 15.525 -0.563052 15.5063Q-0.844408 15.4876 -1.12475 15.4502Q-1.40509 15.4129 -1.68373 15.357Q-1.96238 15.301 -2.23866 15.2267Q-2.51494 15.1523 -2.7882 15.0597Q-3.06145 14.9671 -3.33102 14.8565Q-3.60058 14.7459 -3.86581 14.6175Q-4.13104 14.4891 -4.39129 14.3432Q-4.65154 14.1974 -4.90619 14.0344Q-5.16084 13.8715 -5.40928 13.6918Q-5.65771 13.5122 -5.89933 13.3162Q-6.14095 13.1203 -6.37517 12.9086Q-6.60939 12.6968 -6.83565 12.4698Q-7.06191 12.2428 -7.27966 12.001Q-7.49742 11.7592 -7.70614 11.5033Q-7.91486 11.2473 -8.11405 10.9778Q-8.31324 10.7083 -8.50241 10.426Q-8.69159 10.1436 -8.87029 9.84896Q-9.049 9.55435 -9.21681 9.24823Q-9.38461 8.94211 -9.54111 8.62523Q-9.69761 8.30834 -9.84243 7.98144Q-9.98726 7.65455 -10.12 7.31843Q-10.2528 6.98232 -10.3733 6.63779Q-10.4937 6.29327 -10.6015 5.94116Q-10.7093 5.58905 -10.8042 5.23021Q-10.8991 4.87138 -10.9809 4.50667Q-11.0627 4.14196 -11.1311 3.77227Q-11.1996 3.40257 -11.2545 3.02878Q-11.3095 2.65498 -11.3508 2.27799Q-11.3921 1.901 -11.4197 1.52172Q-11.4474 1.14243 -11.4612 0.761776Q-11.475 0.381117 -11.475 0Q-11.475 -0.381117 -11.4612 -0.761776Q-11.4474 -1.14243 -11.4197 -1.52172Q-11.3921 -1.901 -11.3508 -2.27799Q-11.3095 -2.65498 -11.2545 -3.02878Q-11.1996 -3.40257 -11.1311 -3.77227Q-11.0627 -4.14196 -10.9809 -4.50667Q-10.8991 -4.87138 -10.8042 -5.23021Q-10.7093 -5.58905 -10.6015 -5.94116Q-10.4937 -6.29327 -10.3733 -6.63779Q-10.2528 -6.98232 -10.12 -7.31843Q-9.98726 -7.65455 -9.84244 -7.98144Q-9.69761 -8.30834 -9.54111 -8.62523Q-9.38461 -8.94211 -9.21681 -9.24823Q-9.049 -9.55435 -8.87029 -9.84896Q-8.69159 -10.1436 -8.50241 -10.426Q-8.31324 -10.7083 -8.11405 -10.9778Q-7.91486 -11.2473 -7.70614 -11.5033Q-7.49742 -11.7592 -7.27966 -12.001Q-7.06191 -12.2428 -6.83565 -12.4698Q-6.60939 -12.6968 -6.37517 -12.9086Q-6.14095 -13.1203 -5.89933 -13.3162Q-5.65771 -13.5122 -5.40928 -13.6918Q-5.16084 -13.8715 -4.90619 -14.0344Q-4.65154 -14.1974 -4.39129 -14.3432Q-4.13104 -14.4891 -3.86581 -14.6175Q-3.60058 -14.7459 -3.33102 -14.8565Q-3.06145 -14.9671 -2.7882 -15.0597Q-2.51494 -15.1523 -2.23866 -15.2267Q-1.96238 -15.301 -1.68373 -15.357Q-1.40509 -15.4129 -1.12475 -15.4502Q-0.844408 -15.4876 -0.563052 -15.5063Q-0.281695 -15.525 0 -15.525Q0.281695 -15.525 0.563052 -15.5063Q0.844408 -15.4876 1.12475 -15.4502Q1.40509 -15.4129 1.68373 -15.357Q1.96238 -15.301 2.23866 -15.2267Q2.51494 -15.1523 2.7882 -15.0597Q3.06145 -14.9671 3.33102 -14.8565Q3.60058 -14.7459 3.86581 -14.6175Q4.13104 -14.4891 4.39129 -14.3432Q4.65154 -14.1974 4.90619 -14.0344Q5.16084 -13.8715 5.40928 -13.6918Q5.65771 -13.5122 5.89933 -13.3162Q6.14095 -13.1203 6.37517 -12.9086Q6.60939 -12.6968 6.83565 -12.4698Q7.06191 -12.2428 7.27966 -12.001Q7.49742 -11.7592 7.70614 -11.5033Q7.91486 -11.2473 8.11405 -10.9778Q8.31324 -10.7083 8.50241 -10.426Q8.69159 -10.1436 8.87029 -9.84896Q9.049 -9.55435 9.21681 -9.24823Q9.38461 -8.94211 9.54111 -8.62523Q9.69761 -8.30834 9.84243 -7.98144Q9.98726 -7.65455 10.12 -7.31843Q10.2528 -6.98232 10.3733 -6.63779Q10.4937 -6.29327 10.6015 -5.94116Q10.7093 -5.58905 10.8042 -5.23021Q10.8991 -4.87138 10.9809 -4.50667Q11.0627 -4.14196 11.1311 -3.77227Q11.1996 -3.40257 11.2545 -3.02878Q11.3095 -2.65498 11.3508 -2.27799Q11.3921 -1.901 11.4197 -1.52172Q11.4474 -1.14243 11.4612 -0.761776Q11.475 -0.381117 11.475 0"/>
	<path fill="none" stroke="#CFC295" stroke-width="3" stroke-linejoin="round" transform="matrix(1.42857 0 0 1.42857 55 47.8571)" d="M11.475 0Q11.475 0.381117 11.4612 0.761776Q11.4474 1.14243 11.4197 1.52172Q11.3921 1.901 11.3508 2.27799Q11.3095 2.65498 11.2545 3.02878Q11.1996 3.40257 11.1311 3.77227Q11.0627 4.14196 10.9809 4.50667Q10.8991 4.87138 10.8042 5.23021Q10.7093 5.58905 10.6015 5.94116Q10.4937 6.29327 10.3733 6.63779Q10.2528 6.98232 10.12 7.31843Q9.98726 7.65455 9.84244 7.98144Q9.69761 8.30834 9.54111 8.62523Q9.38461 8.94211 9.21681 9.24823Q9.049 9.55435 8.87029 9.84896Q8.69159 10.1436 8.50241 10.426Q8.31324 10.7083 8.11405 10.9778Q7.91486 11.2473 7.70614 11.5033Q7.49742 11.7592 7.27966 12.001Q7.06191 12.2428 6.83565 12.4698Q6.60939 12.6968 6.37517 12.9086Q6.14095 13.1203 5.89933 13.3162Q5.65771 13.5122 5.40928 13.6918Q5.16084 13.8715 4.90619 14.0344Q4.65154 14.1974 4.39129 14.3432Q4.13104 14.4891 3.86581 14.6175Q3.60058 14.7459 3.33102 14.8565Q3.06145 14.9671 2.7882 15.0597Q2.51494 15.1523 2.23866 15.2267Q1.96238 15.301 1.68373 15.357Q1.40509 15.4129 1.12475 15.4502Q0.844408 15.4876 0.563052 15.5063Q0.281695 15.525 0 15.525Q-0.281695 15.525 -0.563052 15.5063Q-0.844408 15.4876 -1.12475 15.4502Q-1.40509 15.4129 -1.68373 15.357Q-1.96238 15.301 -2.23866 15.2267Q-2.51494 15.1523 -2.7882 15.0597Q-3.06145 14.9671 -3.33102 14.8565Q-3.60058 14.7459 -3.86581 14.6175Q-4.13104 14.4891 -4.39129 14.3432Q-4.65154 14.1974 -4.90619 14.0344Q-5.16084 13.8715 -5.40928 13.6918Q-5.65771 13.5122 -5.89933 13.3162Q-6.14095 13.1203 -6.37517 12.9086Q-6.60939 12.6968 -6.83565 12.4698Q-7.06191 12.2428 -7.27966 12.001Q-7.49742 11.7592 -7.70614 11.5033Q-7.91486 11.2473 -8.11405 10.9778Q-8.31324 10.7083 -8.50241 10.426Q-8.69159 10.1436 -8.87029 9.84896Q-9.049 9.55435 -9.21681 9.24823Q-9.38461 8.94211 -9.54111 8.62523Q-9.69761 8.30834 -9.84243 7.98144Q-9.98726 7.65455 -10.12 7.31843Q-10.2528 6.98232 -10.3733 6.63779Q-10.4937 6.29327 -10.6015 5.94116Q-10.7093 5.58905 -10.8042 5.23021Q-10.8991 4.87138 -10.9809 4.50667Q-11.0627 4.14196 -11.1311 3.77227Q-11.1996 3.40257 -11.2545 3.02878Q-11.3095 2.65498 -11.3508 2.27799Q-11.3921 1.901 -11.4197 1.52172Q-11.4474 1.14243 -11.4612 0.761776Q-11.475 0.381117 -11.475 0Q-11.475 -0.381117 -11.4612 -0.761776Q-11.4474 -1.14243 -11.4197 -1.52172Q-11.3921 -1.901 -11.3508 -2.27799Q-11.3095 -2.65498 -11.2545 -3.02878Q-11.1996 -3.40257 -11.1311 -3.77227Q-11.0627 -4.14196 -10.9809 -4.50667Q-10.8991 -4.87138 -10.8042 -5.23021Q-10.7093 -5.58905 -10.6015 -5.94116Q-10.4937 -6.29327 -10.3733 -6.63779Q-10.2528 -6.98232 -10.12 -7.31843Q-9.98726 -7.65455 -9.84244 -7.98144Q-9.69761 -8.30834 -9.54111 -8.62523Q-9.38461 -8.94211 -9.21681 -9.24823Q-9.049 -9.55435 -8.87029 -9.84896Q-8.69159 -10.1436 -8.50241 -10.426Q-8.31324 -10.7083 -8.11405 -10.9778Q-7.91486 -11.2473 -7.70614 -11.5033Q-7.49742 -11.7592 -7.27966 -12.001Q-7.06191 -12.2428 -6.83565 -12.4698Q-6.60939 -12.6968 -6.37517 -12.9086Q-6.14095 -13.1203 -5.89933 -13.3162Q-5.65771 -13.5122 -5.40928 -13.6918Q-5.16084 -13.8715 -4.90619 -14.0344Q-4.65154 -14.1974 -4.39129 -14.3432Q-4.13104 -14.4891 -3.86581 -14.6175Q-3.60058 -14.7459 -3.33102 -14.8565Q-3.06145 -14.9671 -2.7882 -15.0597Q-2.51494 -15.1523 -2.23866 -15.2267Q-1.96238 -15.301 -1.68373 -15.357Q-1.40509 -15.4129 -1.12475 -15.4502Q-0.844408 -15.4876 -0.563052 -15.5063Q-0.281695 -15.525 0 -15.525Q0.281695 -15.525 0.563052 -15.5063Q0.844408 -15.4876 1.12475 -15.4502Q1.40509 -15.4129 1.68373 -15.357Q1.96238 -15.301 2.23866 -15.2267Q2.51494 -15.1523 2.7882 -15.0597Q3.06145 -14.9671 3.33102 -14.8565Q3.60058 -14.7459 3.86581 -14.6175Q4.13104 -14.4891 4.39129 -14.3432Q4.65154 -14.1974 4.90619 -14.0344Q5.16084 -13.8715 5.40928 -13.6918Q5.65771 -13.5122 5.89933 -13.3162Q6.14095 -13.1203 6.37517 -12.9086Q6.60939 -12.6968 6.83565 -12.4698Q7.06191 -12.2428 7.27966 -12.001Q7.49742 -11.7592 7.70614 -11.5033Q7.91486 -11.2473 8.11405 -10.9778Q8.31324 -10.7083 8.50241 -10.426Q8.69159 -10.1436 8.87029 -9.84896Q9.049 -9.55435 9.21681 -9.24823Q9.38461 -8.94211 9.54111 -8.62523Q9.69761 -8.30834 9.84243 -7.98144Q9.98726 -7.65455 10.12 -7.31843Q10.2528 -6.98232 10.3733 -6.63779Q10.4937 -6.29327 10.6015 -5.94116Q10.7093 -5.58905 10.8042 -5.23021Q10.8991 -4.87138 10.9809 -4.50667Q11.0627 -4.14196 11.1311 -3.77227Q11.1996 -3.40257 11.2545 -3.02878Q11.3095 -2.65498 11.3508 -2.27799Q11.3921 -1.901 11.4197 -1.52172Q11.4474 -1.14243 11.4612 -0.761776Q11.475 -0.381117 11.475 0"/>
	<path fill="none" stroke="black" stroke-width="2.3999999" stroke-linejoin="round" transform="translate(55 79.2857)" d="M-16.3384 7.43L-16.3384 -6.4323L-6.97807 -6.4323L-6.97807 -3.81023L-13.2183 -3.81023L-13.2183 -1.09051L-7.6812 -1.09051L-7.6812 1.46809L-13.2183 1.46809L-13.2183 4.80793L-6.51909 4.80793L-6.51909 7.43L-16.3384 7.43ZM-1.87956 1.82941Q-1.87956 4.32941 0.141922 4.32941Q0.600906 4.32941 1.0013 4.21223Q1.40169 4.09016 1.68001 3.92902L1.68001 -0.831719Q1.46028 -0.870781 1.15755 -0.900078Q0.859695 -0.929375 0.459305 -0.929375Q-0.722336 -0.929375 -1.30339 -0.148125Q-1.87956 0.628242 -1.87956 1.82941ZM4.65852 6.11164Q4.65852 8.68977 3.34993 9.93977Q2.04134 11.1898 -0.697922 11.1898Q-1.65984 11.1898 -2.62175 11.0189Q-3.57878 10.848 -4.39909 10.5696L-3.88152 8.06965Q-3.17839 8.34797 -2.41179 8.5091Q-1.6403 8.67023 -0.658859 8.67023Q0.620438 8.67023 1.14778 8.10871Q1.68001 7.55207 1.68001 6.66828L1.68001 6.2923Q1.20149 6.51203 0.688797 6.62434Q0.180984 6.73176 -0.419601 6.73176Q-2.60222 6.73176 -3.76433 5.4427Q-4.92155 4.14875 -4.92155 1.82941Q-4.92155 0.672187 -4.56023 -0.279961Q-4.1989 -1.23211 -3.51042 -1.91082Q-2.82195 -2.58953 -1.82097 -2.96063Q-0.819992 -3.33172 0.439774 -3.33172Q0.981766 -3.33172 1.54817 -3.27801Q2.11946 -3.22918 2.6761 -3.14617Q3.23763 -3.06805 3.74544 -2.95574Q4.25813 -2.84832 4.65852 -2.73113L4.65852 6.11164ZM10.0004 1.82941Q10.0004 4.32941 12.0219 4.32941Q12.4809 4.32941 12.8813 4.21223Q13.2817 4.09016 13.56 3.92902L13.56 -0.831719Q13.3403 -0.870781 13.0375 -0.900078Q12.7397 -0.929375 12.3393 -0.929375Q11.1577 -0.929375 10.5766 -0.148125Q10.0004 0.628242 10.0004 1.82941ZM16.5385 6.11164Q16.5385 8.68977 15.2299 9.93977Q13.9213 11.1898 11.1821 11.1898Q10.2202 11.1898 9.25824 11.0189Q8.30121 10.848 7.4809 10.5696L7.99847 8.06965Q8.7016 8.34797 9.4682 8.5091Q10.2397 8.67023 11.2211 8.67023Q12.5004 8.67023 13.0278 8.10871Q13.56 7.55207 13.56 6.66828L13.56 6.2923Q13.0815 6.51203 12.5688 6.62434Q12.061 6.73176 11.4604 6.73176Q9.27777 6.73176 8.11566 5.4427Q6.95844 4.14875 6.95844 1.82941Q6.95844 0.672187 7.31976 -0.279961Q7.68109 -1.23211 8.36957 -1.91082Q9.05804 -2.58953 10.059 -2.96063Q11.06 -3.33172 12.3198 -3.33172Q12.8618 -3.33172 13.4282 -3.27801Q13.9995 -3.22918 14.5561 -3.14617Q15.1176 -3.06805 15.6254 -2.95574Q16.1381 -2.84832 16.5385 -2.73113L16.5385 6.11164Z"/>
	<path fill="white" transform="translate(55 79.2857)" d="M-16.3384 7.43L-16.3384 -6.4323L-6.97807 -6.4323L-6.97807 -3.81023L-13.2183 -3.81023L-13.2183 -1.09051L-7.6812 -1.09051L-7.6812 1.46809L-13.2183 1.46809L-13.2183 4.80793L-6.51909 4.80793L-6.51909 7.43L-16.3384 7.43ZM-1.87956 1.82941Q-1.87956 4.32941 0.141922 4.32941Q0.600906 4.32941 1.0013 4.21223Q1.40169 4.09016 1.68001 3.92902L1.68001 -0.831719Q1.46028 -0.870781 1.15755 -0.900078Q0.859695 -0.929375 0.459305 -0.929375Q-0.722336 -0.929375 -1.30339 -0.148125Q-1.87956 0.628242 -1.87956 1.82941ZM4.65852 6.11164Q4.65852 8.68977 3.34993 9.93977Q2.04134 11.1898 -0.697922 11.1898Q-1.65984 11.1898 -2.62175 11.0189Q-3.57878 10.848 -4.39909 10.5696L-3.88152 8.06965Q-3.17839 8.34797 -2.41179 8.5091Q-1.6403 8.67023 -0.658859 8.67023Q0.620438 8.67023 1.14778 8.10871Q1.68001 7.55207 1.68001 6.66828L1.68001 6.2923Q1.20149 6.51203 0.688797 6.62434Q0.180984 6.73176 -0.419601 6.73176Q-2.60222 6.73176 -3.76433 5.4427Q-4.92155 4.14875 -4.92155 1.82941Q-4.92155 0.672187 -4.56023 -0.279961Q-4.1989 -1.23211 -3.51042 -1.91082Q-2.82195 -2.58953 -1.82097 -2.96063Q-0.819992 -3.33172 0.439774 -3.33172Q0.981766 -3.33172 1.54817 -3.27801Q2.11946 -3.22918 2.6761 -3.14617Q3.23763 -3.06805 3.74544 -2.95574Q4.25813 -2.84832 4.65852 -2.73113L4.65852 6.11164ZM10.0004 1.82941Q10.0004 4.32941 12.0219 4.32941Q12.4809 4.32941 12.8813 4.21223Q13.2817 4.09016 13.56 3.92902L13.56 -0.831719Q13.3403 -0.870781 13.0375 -0.900078Q12.7397 -0.929375 12.3393 -0.929375Q11.1577 -0.929375 10.5766 -0.148125Q10.0004 0.628242 10.0004 1.82941ZM16.5385 6.11164Q16.5385 8.68977 15.2299 9.93977Q13.9213 11.1898 11.1821 11.1898Q10.2202 11.1898 9.25824 11.0189Q8.30121 10.848 7.4809 10.5696L7.99847 8.06965Q8.7016 8.34797 9.4682 8.5091Q10.2397 8.67023 11.2211 8.67023Q12.5004 8.67023 13.0278 8.10871Q13.56 7.55207 13.56 6.66828L13.56 6.2923Q13.0815 6.51203 12.5688 6.62434Q12.061 6.73176 11.4604 6.73176Q9.27777 6.73176 8.11566 5.4427Q6.95844 4.14875 6.95844 1.82941Q6.95844 0.672187 7.31976 -0.279961Q7.68109 -1.23211 8.36957 -1.91082Q9.05804 -2.58953 10.059 -2.96063Q11.06 -3.33172 12.3198 -3.33172Q12.8618 -3.33172 13.4282 -3.27801Q13.9995 -3.22918 14.5561 -3.14617Q15.1176 -3.06805 15.6254 -2.95574Q16.1381 -2.84832 16.5385 -2.73113L16.5385 6.11164Z"/>
</svg>
