<?xml version="1.0" encoding="utf-8" ?>
<svg xmlns="http://www.w3.org/2000/svg" xmlns:xlink="http://www.w3.org/1999/xlink" width="110" height="110">
	<path fill="#FFF0B8" transform="matrix(1.42857 0 0 1.42857 55 47.8571)" d="M11.9 0Q11.9 0.395233 11.8857 0.789989Q11.8713 1.18475 11.8427 1.57808Q11.8141 1.97141 11.7712 2.36236Q11.7283 2.75332 11.6713 3.14095Q11.6144 3.52859 11.5434 3.91198Q11.4724 4.29537 11.3876 4.67358Q11.3028 5.0518 11.2044 5.42393Q11.106 5.79605 10.9942 6.1612Q10.8824 6.52635 10.7575 6.88364Q10.6326 7.24092 10.4949 7.58949Q10.3572 7.93805 10.207 8.27705Q10.0568 8.61606 9.89449 8.94468Q9.73219 9.2733 9.55817 9.59076Q9.38415 9.90821 9.19882 10.2137Q9.0135 10.5193 8.81732 10.8121Q8.62114 11.1049 8.41457 11.3844Q8.208 11.6639 7.99155 11.9293Q7.7751 12.1947 7.54928 12.4455Q7.32346 12.6962 7.08882 12.9316Q6.85418 13.1671 6.61128 13.3867Q6.36839 13.6062 6.11782 13.8094Q5.86725 14.0126 5.60962 14.1989Q5.35199 14.3852 5.0879 14.5542Q4.82382 14.7232 4.55393 14.8745Q4.28404 15.0257 4.00899 15.1589Q3.73394 15.292 3.45439 15.4067Q3.17484 15.5215 2.89146 15.6175Q2.60809 15.7135 2.32157 15.7906Q2.03506 15.8677 1.74609 15.9257Q1.45713 15.9837 1.1664 16.0225Q0.875682 16.0612 0.583905 16.0806Q0.292129 16.1 0 16.1Q-0.292129 16.1 -0.583905 16.0806Q-0.875682 16.0612 -1.1664 16.0225Q-1.45713 15.9837 -1.74609 15.9257Q-2.03506 15.8677 -2.32157 15.7906Q-2.60809 15.7135 -2.89146 15.6175Q-3.17484 15.5215 -3.45439 15.4067Q-3.73394 15.292 -4.00899 15.1589Q-4.28404 15.0257 -4.55393 14.8745Q-4.82382 14.7232 -5.0879 14.5542Q-5.35199 14.3852 -5.60962 14.1989Q-5.86726 14.0126 -6.11782 13.8094Q-6.36839 13.6062 -6.61129 13.3867Q-6.85418 13.1671 -7.08882 12.9316Q-7.32346 12.6962 -7.54928 12.4455Q-7.7751 12.1947 -7.99155 11.9293Q-8.208 11.6639 -8.41457 11.3844Q-8.62114 11.1049 -8.81732 10.8121Q-9.0135 10.5193 -9.19882 10.2137Q-9.38415 9.90821 -9.55817 9.59076Q-9.73219 9.2733 -9.89449 8.94468Q-10.0568 8.61606 -10.207 8.27705Q-10.3572 7.93805 -10.4949 7.58949Q-10.6326 7.24092 -10.7575 6.88364Q-10.8824 6.52635 -10.9942 6.1612Q-11.106 5.79605 -11.2044 5.42393Q-11.3028 5.0518 -11.3876 4.67358Q-11.4724 4.29537 -11.5434 3.91198Q-11.6144 3.52859 -11.6713 3.14095Q-11.7283 2.75332 -11.7712 2.36236Q-11.8141 1.97141 -11.8427 1.57808Q-11.8713 1.18475 -11.8857 0.789989Q-11.9 0.395233 -11.9 0Q-11.9 -0.395233 -11.8857 -0.789989Q-11.8713 -1.18475 -11.8427 -1.57808Q-11.8141 -1.97141 -11.7712 -2.36236Q-11.7283 -2.75332 -11.6713 -3.14095Q-11.6144 -3.52859 -11.5434 -3.91198Q-11.4724 -4.29537 -11.3876 -4.67358Q-11.3028 -5.0518 -11.2044 -5.42393Q-11.106 -5.79605 -10.9942 -6.1612Q-10.8824 -6.52635 -10.7575 -6.88364Q-10.6326 -7.24092 -10.4949 -7.58949Q-10.3572 -7.93805 -10.207 -8.27705Q-10.0568 -8.61606 -9.89449 -8.94468Q-9.73219 -9.2733 -9.55817 -9.59076Q-9.38415 -9.90821 -9.19882 -10.2137Q-9.0135 -10.5193 -8.81732 -10.8121Q-8.62114 -11.1049 -8.41457 -11.3844Q-8.208 -11.6639 -7.99155 -11.9293Q-7.7751 -12.1947 -7.54928 -12.4455Q-7.32346 -12.6962 -7.08882 -12.9316Q-6.85418 -13.1671 -6.61128 -13.3867Q-6.36839 -13.6062 -6.11782 -13.8094Q-5.86725 -14.0126 -5.60962 -14.1989Q-5.35199 -14.3852 -5.0879 -14.5542Q-4.82382 -14.7232 -4.55393 -14.8745Q-4.28404 -15.0257 -4.00899 -15.1589Q-3.73394 -15.292 -3.45439 -15.4067Q-3.17484 -15.5215 -2.89146 -15.6175Q-2.60809 -15.7135 -2.32157 -15.7906Q-2.03506 -15.8677 -1.74609 -15.9257Q-1.45713 -15.9837 -1.1664 -16.0225Q-0.875682 -16.0612 -0.583905 -16.0806Q-0.292129 -16.1 0 -16.1Q0.292129 -16.1 0.583905 -16.0806Q0.875682 -16.0612 1.1664 -16.0225Q1.45713 -15.9837 1.74609 -15.9257Q2.03506 -15.8677 2.32157 -15.7906Q2.60809 -15.7135 2.89146 -15.6175Q3.17484 -15.5215 3.45439 -15.4067Q3.73394 -15.292 4.00899 -15.1589Q4.28404 -15.0257 4.55393 -14.8745Q4.82382 -14.7232 5.0879 -14.5542Q5.35199 -14.3852 5.60962 -14.1989Q5.86726 -14.0126 6.11782 -13.8094Q6.36839 -13.6062 6.61129 -13.3867Q6.85418 -13.1671 7.08882 -12.9316Q7.32346 -12.6962 7.54928 -12.4455Q7.7751 -12.1947 7.99155 -11.9293Q8.208 -11.6639 8.41457 -11.3844Q8.62114 -11.1049 8.81732 -10.8121Q9.0135 -10.5193 9.19882 -10.2137Q9.38415 -9.90821 9.55817 -9.59076Q9.73219 -9.2733 9.89449 -8.94468Q10.0568 -8.61606 10.207 -8.27705Q10.3572 -7.93805 10.4949 -7.58949Q10.6326 -7.24092 10.7575 -6.88364Q10.8824 -6.52635 10.9942 -6.1612Q11.106 -5.79605 11.2044 -5.42393Q11.3028 -5.0518 11.3876 -4.67358Q11.4724 -4.29537 11.5434 -3.91198Q11.6144 -3.52859 11.6713 -3.14095Q11.7283 -2.75332 11.7712 -2.36236Q11.8141 -1.97141 11.8427 -1.57808Q11.8713 -1.18475 11.8857 -0.789989Q11.9 -0.395233 11.9 0"/>
	<path fill="none" stroke="#CFC295" stroke-width="3" stroke-linejoin="round" transform="matrix(1.42857 0 0 1.42857 55 47.8571)" d="M11.9 0Q11.9 0.395233 11.8857 0.789989Q11.8713 1.18475 11.8427 1.57808Q11.8141 1.97141 11.7712 2.36236Q11.7283 2.75332 11.6713 3.14095Q11.6144 3.52859 11.5434 3.91198Q11.4724 4.29537 11.3876 4.67358Q11.3028 5.0518 11.2044 5.42393Q11.106 5.79605 10.9942 6.1612Q10.8824 6.52635 10.7575 6.88364Q10.6326 7.24092 10.4949 7.58949Q10.3572 7.93805 10.207 8.27705Q10.0568 8.61606 9.89449 8.94468Q9.73219 9.2733 9.55817 9.59076Q9.38415 9.90821 9.19882 10.2137Q9.0135 10.5193 8.81732 10.8121Q8.62114 11.1049 8.41457 11.3844Q8.208 11.6639 7.99155 11.9293Q7.7751 12.1947 7.54928 12.4455Q7.32346 12.6962 7.08882 12.9316Q6.85418 13.1671 6.61128 13.3867Q6.36839 13.6062 6.11782 13.8094Q5.86725 14.0126 5.60962 14.1989Q5.35199 14.3852 5.0879 14.5542Q4.82382 14.7232 4.55393 14.8745Q4.28404 15.0257 4.00899 15.1589Q3.73394 15.292 3.45439 15.4067Q3.17484 15.5215 2.89146 15.6175Q2.60809 15.7135 2.32157 15.7906Q2.03506 15.8677 1.74609 15.9257Q1.45713 15.9837 1.1664 16.0225Q0.875682 16.0612 0.583905 16.0806Q0.292129 16.1 0 16.1Q-0.292129 16.1 -0.583905 16.0806Q-0.875682 16.0612 -1.1664 16.0225Q-1.45713 15.9837 -1.74609 15.9257Q-2.03506 15.8677 -2.32157 15.7906Q-2.60809 15.7135 -2.89146 15.6175Q-3.17484 15.5215 -3.45439 15.4067Q-3.73394 15.292 -4.00899 15.1589Q-4.28404 15.0257 -4.55393 14.8745Q-4.82382 14.7232 -5.0879 14.5542Q-5.35199 14.3852 -5.60962 14.1989Q-5.86726 14.0126 -6.11782 13.8094Q-6.36839 13.6062 -6.61129 13.3867Q-6.85418 13.1671 -7.08882 12.9316Q-7.32346 12.6962 -7.54928 12.4455Q-7.7751 12.1947 -7.99155 11.9293Q-8.208 11.6639 -8.41457 11.3844Q-8.62114 11.1049 -8.81732 10.8121Q-9.0135 10.5193 -9.19882 10.2137Q-9.38415 9.90821 -9.55817 9.59076Q-9.73219 9.2733 -9.89449 8.94468Q-10.0568 8.61606 -10.207 8.27705Q-10.3572 7.93805 -10.4949 7.58949Q-10.6326 7.24092 -10.7575 6.88364Q-10.8824 6.52635 -10.9942 6.1612Q-11.106 5.79605 -11.2044 5.42393Q-11.3028 5.0518 -11.3876 4.67358Q-11.4724 4.29537 -11.5434 3.91198Q-11.6144 3.52859 -11.6713 3.14095Q-11.7283 2.75332 -11.7712 2.36236Q-11.8141 1.97141 -11.8427 1.57808Q-11.8713 1.18475 -11.8857 0.789989Q-11.9 0.395233 -11.9 0Q-11.9 -0.395233 -11.8857 -0.789989Q-11.8713 -1.18475 -11.8427 -1.57808Q-11.8141 -1.97141 -11.7712 -2.36236Q-11.7283 -2.75332 -11.6713 -3.14095Q-11.6144 -3.52859 -11.5434 -3.91198Q-11.4724 -4.29537 -11.3876 -4.67358Q-11.3028 -5.0518 -11.2044 -5.42393Q-11.106 -5.79605 -10.9942 -6.1612Q-10.8824 -6.52635 -10.7575 -6.88364Q-10.6326 -7.24092 -10.4949 -7.58949Q-10.3572 -7.93805 -10.207 -8.27705Q-10.0568 -8.61606 -9.89449 -8.94468Q-9.73219 -9.2733 -9.55817 -9.59076Q-9.38415 -9.90821 -9.19882 -10.2137Q-9.0135 -10.5193 -8.81732 -10.8121Q-8.62114 -11.1049 -8.41457 -11.3844Q-8.208 -11.6639 -7.99155 -11.9293Q-7.7751 -12.1947 -7.54928 -12.4455Q-7.32346 -12.6962 -7.08882 -12.9316Q-6.85418 -13.1671 -6.61128 -13.3867Q-6.36839 -13.6062 -6.11782 -13.8094Q-5.86725 -14.0126 -5.60962 -14.1989Q-5.35199 -14.3852 -5.0879 -14.5542Q-4.82382 -14.7232 -4.55393 -14.8745Q-4.28404 -15.0257 -4.00899 -15.1589Q-3.73394 -15.292 -3.45439 -15.4067Q-3.17484 -15.5215 -2.89146 -15.6175Q-2.60809 -15.7135 -2.32157 -15.7906Q-2.03506 -15.8677 -1.74609 -15.9257Q-1.45713 -15.9837 -1.1664 -16.0225Q-0.875682 -16.0612 -0.583905 -16.0806Q-0.292129 -16.1 0 -16.1Q0.292129 -16.1 0.583905 -16.0806Q0.875682 -16.0612 1.1664 -16.0225Q1.45713 -15.9837 1.74609 -15.9257Q2.03506 -15.8677 2.32157 -15.7906Q2.60809 -15.7135 2.89146 -15.6175Q3.17484 -15.5215 3.45439 -15.4067Q3.73394 -15.292 4.00899 -15.1589Q4.28404 -15.0257 4.55393 -14.8745Q4.82382 -14.7232 5.0879 -14.5542Q5.35199 -14.3852 5.60962 -14.1989Q5.86726 -14.0126 6.11782 -13.8094Q6.36839 -13.6062 6.61129 -13.3867Q6.85418 -13.1671 7.08882 -12.9316Q7.32346 -12.6962 7.54928 -12.4455Q7.7751 -12.1947 7.99155 -11.9293Q8.208 -11.6639 8.41457 -11.3844Q8.62114 -11.1049 8.81732 -10.8121Q9.0135 -10.5193 9.19882 -10.2137Q9.38415 -9.90821 9.55817 -9.59076Q9.73219 -9.2733 9.89449 -8.94468Q10.0568 -8.61606 10.207 -8.27705Q10.3572 -7.93805 10.4949 -7.58949Q10.6326 -7.24092 10.7575 -6.88364Q10.8824 -6.52635 10.9942 -6.1612Q11.106 -5.79605 11.2044 -5.42393Q11.3028 -5.0518 11.3876 -4.67358Q11.4724 -4.29537 11.5434 -3.91198Q11.6144 -3.52859 11.6713 -3.14095Q11.7283 -2.75332 11.7712 -2.36236Q11.8141 -1.97141 11.8427 -1.57808Q11.8713 -1.18475 11.8857 -0.789989Q11.9 -0.395233 11.9 0"/>
	<path fill="none" stroke="black" stroke-width="2.3999999" stroke-linejoin="round" transform="translate(55 79.2857)" d="M-16.3384 7.43L-16.3384 -6.4323L-6.97807 -6.4323L-6.97807 -3.81023L-13.2183 -3.81023L-13.2183 -1.09051L-7.6812 -1.09051L-7.6812 1.46809L-13.2183 1.46809L-13.2183 4.80793L-6.51909 4.80793L-6.51909 7.43L-16.3384 7.43ZM-1.87956 1.82941Q-1.87956 4.32941 0.141922 4.32941Q0.600906 4.32941 1.0013 4.21223Q1.40169 4.09016 1.68001 3.92902L1.68001 -0.831719Q1.46028 -0.870781 1.15755 -0.900078Q0.859695 -0.929375 0.459305 -0.929375Q-0.722336 -0.929375 -1.30339 -0.148125Q-1.87956 0.628242 -1.87956 1.82941ZM4.65852 6.11164Q4.65852 8.68977 3.34993 9.93977Q2.04134 11.1898 -0.697922 11.1898Q-1.65984 11.1898 -2.62175 11.0189Q-3.57878 10.848 -4.39909 10.5696L-3.88152 8.06965Q-3.17839 8.34797 -2.41179 8.5091Q-1.6403 8.67023 -0.658859 8.67023Q0.620438 8.67023 1.14778 8.10871Q1.68001 7.55207 1.68001 6.66828L1.68001 6.2923Q1.20149 6.51203 0.688797 6.62434Q0.180984 6.73176 -0.419601 6.73176Q-2.60222 6.73176 -3.76433 5.4427Q-4.92155 4.14875 -4.92155 1.82941Q-4.92155 0.672187 -4.56023 -0.279961Q-4.1989 -1.23211 -3.51042 -1.91082Q-2.82195 -2.58953 -1.82097 -2.96063Q-0.819992 -3.33172 0.439774 -3.33172Q0.981766 -3.33172 1.54817 -3.27801Q2.11946 -3.22918 2.6761 -3.14617Q3.23763 -3.06805 3.74544 -2.95574Q4.25813 -2.84832 4.65852 -2.73113L4.65852 6.11164ZM10.0004 1.82941Q10.0004 4.32941 12.0219 4.32941Q12.4809 4.32941 12.8813 4.21223Q13.2817 4.09016 13.56 3.92902L13.56 -0.831719Q13.3403 -0.870781 13.0375 -0.900078Q12.7397 -0.929375 12.3393 -0.929375Q11.1577 -0.929375 10.5766 -0.148125Q10.0004 0.628242 10.0004 1.82941ZM16.5385 6.11164Q16.5385 8.68977 15.2299 9.93977Q13.9213 11.1898 11.1821 11.1898Q10.2202 11.1898 9.25824 11.0189Q8.30121 10.848 7.4809 10.5696L7.99847 8.06965Q8.7016 8.34797 9.4682 8.5091Q10.2397 8.67023 11.2211 8.67023Q12.5004 8.67023 13.0278 8.10871Q13.56 7.55207 13.56 6.66828L13.56 6.2923Q13.0815 6.51203 12.5688 6.62434Q12.061 6.73176 11.4604 6.73176Q9.27777 6.73176 8.11566 5.4427Q6.95844 4.14875 6.95844 1.82941Q6.95844 0.672187 7.31976 -0.279961Q7.68109 -1.23211 8.36957 -1.91082Q9.05804 -2.58953 10.059 -2.96063Q11.06 -3.33172 12.3198 -3.33172Q12.8618 -3.33172 13.4282 -3.27801Q13.9995 -3.22918 14.5561 -3.14617Q15.1176 -3.06805 15.6254 -2.95574Q16.1381 -2.84832 16.5385 -2.73113L16.5385 6.11164Z"/>
	<path fill="white" transform="translate(55 79.2857)" d="M-16.3384 7.43L-16.3384 -6.4323L-6.97807 -6.4323L-6.97807 -3.81023L-13.2183 -3.81023L-13.2183 -1.09051L-7.6812 -1.09051L-7.6812 1.46809L-13.2183 1.46809L-13.2183 4.80793L-6.51909 4.80793L-6.51909 7.43L-16.3384 7.43ZM-1.87956 1.82941Q-1.87956 4.32941 0.141922 4.32941Q0.600906 4.32941 1.0013 4.21223Q1.40169 4.09016 1.68001 3.92902L1.68001 -0.831719Q1.46028 -0.870781 1.15755 -0.900078Q0.859695 -0.929375 0.459305 -0.929375Q-0.722336 -0.929375 -1.30339 -0.148125Q-1.87956 0.628242 -1.87956 1.82941ZM4.65852 6.11164Q4.65852 8.68977 3.34993 9.93977Q2.04134 11.1898 -0.697922 11.1898Q-1.65984 11.1898 -2.62175 11.0189Q-3.57878 10.848 -4.39909 10.5696L-3.88152 8.06965Q-3.17839 8.34797 -2.41179 8.5091Q-1.6403 8.67023 -0.658859 8.67023Q0.620438 8.67023 1.14778 8.10871Q1.68001 7.55207 1.68001 6.66828L1.68001 6.2923Q1.20149 6.51203 0.688797 6.62434Q0.180984 6.73176 -0.419601 6.73176Q-2.60222 6.73176 -3.76433 5.4427Q-4.92155 4.14875 -4.92155 1.82941Q-4.92155 0.672187 -4.56023 -0.279961Q-4.1989 -1.23211 -3.51042 -1.91082Q-2.82195 -2.58953 -1.82097 -2.96063Q-0.819992 -3.33172 0.439774 -3.33172Q0.981766 -3.33172 1.54817 -3.27801Q2.11946 -3.22918 2.6761 -3.14617Q3.23763 -3.06805 3.74544 -2.95574Q4.25813 -2.84832 4.65852 -2.73113L4.65852 6.11164ZM10.0004 1.82941Q10.0004 4.32941 12.0219 4.32941Q12.4809 4.32941 12.8813 4.21223Q13.2817 4.09016 13.56 3.92902L13.56 -0.831719Q13.3403 -0.870781 13.0375 -0.900078Q12.7397 -0.929375 12.3393 -0.929375Q11.1577 -0.929375 10.5766 -0.148125Q10.0004 0.628242 10.0004 1.82941ZM16.5385 6.11164Q16.5385 8.68977 15.2299 9.93977Q13.9213 11.1898 11.1821 11.1898Q10.2202 11.1898 9.25824 11.0189Q8.30121 10.848 7.4809 10.5696L7.99847 8.06965Q8.7016 8.34797 9.4682 8.5091Q10.2397 8.67023 11.2211 8.67023Q12.5004 8.67023 13.0278 8.10871Q13.56 7.55207 13.56 6.66828L13.56 6.2923Q13.0815 6.51203 12.5688 6.62434Q12.061 6.73176 11.4604 6.73176Q9.27777 6.73176 8.11566 5.4427Q6.95844 4.14875 6.95844 1.82941Q6.95844 0.672187 7.31976 -0.279961Q7.68109 -1.23211 8.36957 -1.91082Q9.05804 -2.58953 10.059 -2.96063Q11.06 -3.33172 12.3198 -3.33172Q12.8618 -3.33172 13.4282 -3.27801Q13.9995 -3.22918 14.5561 -3.14617Q15.1176 -3.06805 15.6254 -2.95574Q16.1381 -2.84832 16.5385 -2.73113L16.5385 6.11164Z"/>
</svg>
