<?xml version="1.0" encoding="utf-8" ?>
<svg xmlns="http://www.w3.org/2000/svg" xmlns:xlink="http://www.w3.org/1999/xlink" width="110" height="110">
	<path fill="#FFF0B8" transform="matrix(1.42857 0 0 1.42857 55 47.8571)" d="M12.325 0Q12.325 0.409348 12.3102 0.818203Q12.2953 1.22706 12.2657 1.63444Q12.236 2.04181 12.1916 2.44673Q12.1472 2.85165 12.0882 3.25313Q12.0292 3.65461 11.9556 4.05169Q11.8821 4.44877 11.7943 4.8405Q11.7065 5.23222 11.6045 5.61764Q11.5026 6.00306 11.3868 6.38125Q11.271 6.75943 11.1417 7.12948Q11.0123 7.49953 10.8697 7.86054Q10.7271 8.22155 10.5715 8.57266Q10.416 8.92377 10.2479 9.26413Q10.0798 9.60449 9.89953 9.93328Q9.7193 10.2621 9.52735 10.5785Q9.33541 10.8949 9.13222 11.1982Q8.92903 11.5016 8.71509 11.791Q8.50115 12.0805 8.27696 12.3554Q8.05278 12.6303 7.8189 12.8899Q7.58501 13.1496 7.34199 13.3935Q7.09897 13.6373 6.8474 13.8648Q6.59583 14.0922 6.33632 14.3026Q6.0768 14.5131 5.80996 14.706Q5.54313 14.899 5.26962 15.074Q4.9961 15.249 4.71657 15.4057Q4.43704 15.5623 4.15217 15.7002Q3.86729 15.8382 3.57776 15.957Q3.28822 16.0758 2.99473 16.1753Q2.70124 16.2747 2.40449 16.3546Q2.10774 16.4345 1.80845 16.4945Q1.50917 16.5546 1.20806 16.5947Q0.906956 16.6348 0.604759 16.6549Q0.302562 16.675 0 16.675Q-0.302562 16.675 -0.604759 16.6549Q-0.906956 16.6348 -1.20806 16.5947Q-1.50917 16.5546 -1.80845 16.4945Q-2.10774 16.4345 -2.40449 16.3546Q-2.70124 16.2747 -2.99473 16.1753Q-3.28822 16.0758 -3.57776 15.957Q-3.86729 15.8382 -4.15217 15.7002Q-4.43704 15.5623 -4.71657 15.4057Q-4.9961 15.249 -5.26962 15.074Q-5.54313 14.899 -5.80996 14.706Q-6.0768 14.5131 -6.33632 14.3026Q-6.59583 14.0922 -6.8474 13.8648Q-7.09897 13.6373 -7.34199 13.3935Q-7.58501 13.1496 -7.8189 12.8899Q-8.05278 12.6303 -8.27696 12.3554Q-8.50115 12.0805 -8.71509 11.791Q-8.92903 11.5016 -9.13222 11.1982Q-9.33541 10.8949 -9.52735 10.5785Q-9.7193 10.2621 -9.89953 9.93328Q-10.0798 9.60449 -10.2479 9.26413Q-10.416 8.92377 -10.5715 8.57266Q-10.7271 8.22155 -10.8697 7.86054Q-11.0123 7.49953 -11.1417 7.12948Q-11.271 6.75943 -11.3868 6.38125Q-11.5026 6.00306 -11.6045 5.61764Q-11.7065 5.23222 -11.7943 4.8405Q-11.8821 4.44877 -11.9556 4.05169Q-12.0292 3.65461 -12.0882 3.25313Q-12.1472 2.85165 -12.1916 2.44673Q-12.236 2.04181 -12.2657 1.63444Q-12.2953 1.22706 -12.3102 0.818203Q-12.325 0.409348 -12.325 0Q-12.325 -0.409348 -12.3102 -0.818203Q-12.2953 -1.22706 -12.2657 -1.63444Q-12.236 -2.04181 -12.1916 -2.44673Q-12.1472 -2.85165 -12.0882 -3.25313Q-12.0292 -3.65461 -11.9556 -4.05169Q-11.8821 -4.44877 -11.7943 -4.8405Q-11.7065 -5.23222 -11.6045 -5.61764Q-11.5026 -6.00306 -11.3868 -6.38125Q-11.271 -6.75943 -11.1417 -7.12948Q-11.0123 -7.49953 -10.8697 -7.86054Q-10.7271 -8.22155 -10.5715 -8.57266Q-10.416 -8.92377 -10.2479 -9.26413Q-10.0798 -9.60449 -9.89953 -9.93328Q-9.7193 -10.2621 -9.52735 -10.5785Q-9.33541 -10.8949 -9.13222 -11.1982Q-8.92903 -11.5016 -8.71509 -11.791Q-8.50115 -12.0805 -8.27696 -12.3554Q-8.05278 -12.6303 -7.8189 -12.8899Q-7.58501 -13.1496 -7.34199 -13.3935Q-7.09897 -13.6373 -6.8474 -13.8648Q-6.59583 -14.0922 -6.33632 -14.3026Q-6.0768 -14.5131 -5.80996 -14.706Q-5.54313 -14.899 -5.26962 -15.074Q-4.9961 -15.249 -4.71657 -15.4057Q-4.43704 -15.5623 -4.15217 -15.7002Q-3.86729 -15.8382 -3.57776 -15.957Q-3.28822 -16.0758 -2.99473 -16.1753Q-2.70124 -16.2747 -2.40449 -16.3546Q-2.10774 -16.4345 -1.80845 -16.4945Q-1.50917 -16.5546 -1.20806 -16.5947Q-0.906956 -16.6348 -0.604759 -16.6549Q-0.302562 -16.675 0 -16.675Q0.302562 -16.675 0.604759 -16.6549Q0.906956 -16.6348 1.20806 -16.5947Q1.50917 -16.5546 1.80845 -16.4945Q2.10774 -16.4345 2.40449 -16.3546Q2.70124 -16.2747 2.99473 -16.1753Q3.28822 -16.0758 3.57776 -15.957Q3.86729 -15.8382 4.15217 -15.7002Q4.43704 -15.5623 4.71657 -15.4057Q4.9961 -15.249 5.26962 -15.074Q5.54313 -14.899 5.80996 -14.706Q6.0768 -14.5131 6.33632 -14.3026Q6.59583 -14.0922 6.8474 -13.8648Q7.09897 -13.6373 7.34199 -13.3935Q7.58501 -13.1496 7.8189 -12.8899Q8.05278 -12.6303 8.27696 -12.3554Q8.50115 -12.0805 8.71509 -11.791Q8.92903 -11.5016 9.13222 -11.1982Q9.33541 -10.8949 9.52735 -10.5785Q9.7193 -10.2621 9.89953 -9.93328Q10.0798 -9.60449 10.2479 -9.26413Q10.416 -8.92377 10.5715 -8.57266Q10.7271 -8.22155 10.8697 -7.86054Q11.0123 -7.49953 11.1417 -7.12948Q11.271 -6.75943 11.3868 -6.38125Q11.5026 -6.00306 11.6045 -5.61764Q11.7065 -5.23222 11.7943 -4.8405Q11.8821 -4.44877 11.9556 -4.05169Q12.0292 -3.65461 12.0882 -3.25313Q12.1472 -2.85165 12.1916 -2.44673Q12.236 -2.04181 12.2657 -1.63444Q12.2953 -1.22706 12.3102 -0.818203Q12.325 -0.409348 12.325 0"/>
	<path fill="none" stroke="#CFC295" stroke-width="3" stroke-linejoin="round" transform="matrix(1.42857 0 0 1.42857 55 47.8571)" d="M12.325 0Q12.325 0.409348 12.3102 0.818203Q12.2953 1.22706 12.2657 1.63444Q12.236 2.04181 12.1916 2.44673Q12.1472 2.85165 12.0882 3.25313Q12.0292 3.65461 11.9556 4.05169Q11.8821 4.44877 11.7943 4.8405Q11.7065 5.23222 11.6045 5.61764Q11.5026 6.00306 11.3868 6.38125Q11.271 6.75943 11.1417 7.12948Q11.0123 7.49953 10.8697 7.86054Q10.7271 8.22155 10.5715 8.57266Q10.416 8.92377 10.2479 9.26413Q10.0798 9.60449 9.89953 9.93328Q9.7193 10.2621 9.52735 10.5785Q9.33541 10.8949 9.13222 11.1982Q8.92903 11.5016 8.71509 11.791Q8.50115 12.0805 8.27696 12.3554Q8.05278 12.6303 7.8189 12.8899Q7.58501 13.1496 7.34199 13.3935Q7.09897 13.6373 6.8474 13.8648Q6.59583 14.0922 6.33632 14.3026Q6.0768 14.5131 5.80996 14.706Q5.54313 14.899 5.26962 15.074Q4.9961 15.249 4.71657 15.4057Q4.43704 15.5623 4.15217 15.7002Q3.86729 15.8382 3.57776 15.957Q3.28822 16.0758 2.99473 16.1753Q2.70124 16.2747 2.40449 16.3546Q2.10774 16.4345 1.80845 16.4945Q1.50917 16.5546 1.20806 16.5947Q0.906956 16.6348 0.604759 16.6549Q0.302562 16.675 0 16.675Q-0.302562 16.675 -0.604759 16.6549Q-0.906956 16.6348 -1.20806 16.5947Q-1.50917 16.5546 -1.80845 16.4945Q-2.10774 16.4345 -2.40449 16.3546Q-2.70124 16.2747 -2.99473 16.1753Q-3.28822 16.0758 -3.57776 15.957Q-3.86729 15.8382 -4.15217 15.7002Q-4.43704 15.5623 -4.71657 15.4057Q-4.9961 15.249 -5.26962 15.074Q-5.54313 14.899 -5.80996 14.706Q-6.0768 14.5131 -6.33632 14.3026Q-6.59583 14.0922 -6.8474 13.8648Q-7.09897 13.6373 -7.34199 13.3935Q-7.58501 13.1496 -7.8189 12.8899Q-8.05278 12.6303 -8.27696 12.3554Q-8.50115 12.0805 -8.71509 11.791Q-8.92903 11.5016 -9.13222 11.1982Q-9.33541 10.8949 -9.52735 10.5785Q-9.7193 10.2621 -9.89953 9.93328Q-10.0798 9.60449 -10.2479 9.26413Q-10.416 8.92377 -10.5715 8.57266Q-10.7271 8.22155 -10.8697 7.86054Q-11.0123 7.49953 -11.1417 7.12948Q-11.271 6.75943 -11.3868 6.38125Q-11.5026 6.00306 -11.6045 5.61764Q-11.7065 5.23222 -11.7943 4.8405Q-11.8821 4.44877 -11.9556 4.05169Q-12.0292 3.65461 -12.0882 3.25313Q-12.1472 2.85165 -12.1916 2.44673Q-12.236 2.04181 -12.2657 1.63444Q-12.2953 1.22706 -12.3102 0.818203Q-12.325 0.409348 -12.325 0Q-12.325 -0.409348 -12.3102 -0.818203Q-12.2953 -1.22706 -12.2657 -1.63444Q-12.236 -2.04181 -12.1916 -2.44673Q-12.1472 -2.85165 -12.0882 -3.25313Q-12.0292 -3.65461 -11.9556 -4.05169Q-11.8821 -4.44877 -11.7943 -4.8405Q-11.7065 -5.23222 -11.6045 -5.61764Q-11.5026 -6.00306 -11.3868 -6.38125Q-11.271 -6.75943 -11.1417 -7.12948Q-11.0123 -7.49953 -10.8697 -7.86054Q-10.7271 -8.22155 -10.5715 -8.57266Q-10.416 -8.92377 -10.2479 -9.26413Q-10.0798 -9.60449 -9.89953 -9.93328Q-9.7193 -10.2621 -9.52735 -10.5785Q-9.33541 -10.8949 -9.13222 -11.1982Q-8.92903 -11.5016 -8.71509 -11.791Q-8.50115 -12.0805 -8.27696 -12.3554Q-8.05278 -12.6303 -7.8189 -12.8899Q-7.58501 -13.1496 -7.34199 -13.3935Q-7.09897 -13.6373 -6.8474 -13.8648Q-6.59583 -14.0922 -6.33632 -14.3026Q-6.0768 -14.5131 -5.80996 -14.706Q-5.54313 -14.899 -5.26962 -15.074Q-4.9961 -15.249 -4.71657 -15.4057Q-4.43704 -15.5623 -4.15217 -15.7002Q-3.86729 -15.8382 -3.57776 -15.957Q-3.28822 -16.0758 -2.99473 -16.1753Q-2.70124 -16.2747 -2.40449 -16.3546Q-2.10774 -16.4345 -1.80845 -16.4945Q-1.50917 -16.5546 -1.20806 -16.5947Q-0.906956 -16.6348 -0.604759 -16.6549Q-0.302562 -16.675 0 -16.675Q0.302562 -16.675 0.604759 -16.6549Q0.906956 -16.6348 1.20806 -16.5947Q1.50917 -16.5546 1.80845 -16.4945Q2.10774 -16.4345 2.40449 -16.3546Q2.70124 -16.2747 2.99473 -16.1753Q3.28822 -16.0758 3.57776 -15.957Q3.86729 -15.8382 4.15217 -15.7002Q4.43704 -15.5623 4.71657 -15.4057Q4.9961 -15.249 5.26962 -15.074Q5.54313 -14.899 5.80996 -14.706Q6.0768 -14.5131 6.33632 -14.3026Q6.59583 -14.0922 6.8474 -13.8648Q7.09897 -13.6373 7.34199 -13.3935Q7.58501 -13.1496 7.8189 -12.8899Q8.05278 -12.6303 8.27696 -12.3554Q8.50115 -12.0805 8.71509 -11.791Q8.92903 -11.5016 9.13222 -11.1982Q9.33541 -10.8949 9.52735 -10.5785Q9.7193 -10.2621 9.89953 -9.93328Q10.0798 -9.60449 10.2479 -9.26413Q10.416 -8.92377 10.5715 -8.57266Q10.7271 -8.22155 10.8697 -7.86054Q11.0123 -7.49953 11.1417 -7.12948Q11.271 -6.75943 11.3868 -6.38125Q11.5026 -6.00306 11.6045 -5.61764Q11.7065 -5.23222 11.7943 -4.8405Q11.8821 -4.44877 11.9556 -4.05169Q12.0292 -3.65461 12.0882 -3.25313Q12.1472 -2.85165 12.1916 -2.44673Q12.236 -2.04181 12.2657 -1.63444Q12.2953 -1.22706 12.3102 -0.818203Q12.325 -0.409348 12.325 0"/>
	<path fill="none" stroke="black" stroke-width="2.3999999" stroke-linejoin="round" transform="translate(55 79.2857)" d="M-16.3384 7.43L-16.3384 -6.4323L-6.97807 -6.4323L-6.97807 -3.81023L-13.2183 -3.81023L-13.2183 -1.09051L-7.6812 -1.09051L-7.6812 1.46809L-13.2183 1.46809L-13.2183 4.80793L-6.51909 4.80793L-6.51909 7.43L-16.3384 7.43ZM-1.87956 1.82941Q-1.87956 4.32941 0.141922 4.32941Q0.600906 4.32941 1.0013 4.21223Q1.40169 4.09016 1.68001 3.92902L1.68001 -0.831719Q1.46028 -0.870781 1.15755 -0.900078Q0.859695 -0.929375 0.459305 -0.929375Q-0.722336 -0.929375 -1.30339 -0.148125Q-1.87956 0.628242 -1.87956 1.82941ZM4.65852 6.11164Q4.65852 8.68977 3.34993 9.93977Q2.04134 11.1898 -0.697922 11.1898Q-1.65984 11.1898 -2.62175 11.0189Q-3.57878 10.848 -4.39909 10.5696L-3.88152 8.06965Q-3.17839 8.34797 -2.41179 8.5091Q-1.6403 8.67023 -0.658859 8.67023Q0.620438 8.67023 1.14778 8.10871Q1.68001 7.55207 1.68001 6.66828L1.68001 6.2923Q1.20149 6.51203 0.688797 6.62434Q0.180984 6.73176 -0.419601 6.73176Q-2.60222 6.73176 -3.76433 5.4427Q-4.92155 4.14875 -4.92155 1.82941Q-4.92155 0.672187 -4.56023 -0.279961Q-4.1989 -1.23211 -3.51042 -1.91082Q-2.82195 -2.58953 -1.82097 -2.96063Q-0.819992 -3.33172 0.439774 -3.33172Q0.981766 -3.33172 1.54817 -3.27801Q2.11946 -3.22918 2.6761 -3.14617Q3.23763 -3.06805 3.74544 -2.95574Q4.25813 -2.84832 4.65852 -2.73113L4.65852 6.11164ZM10.0004 1.82941Q10.0004 4.32941 12.0219 4.32941Q12.4809 4.32941 12.8813 4.21223Q13.2817 4.09016 13.56 3.92902L13.56 -0.831719Q13.3403 -0.870781 13.0375 -0.900078Q12.7397 -0.929375 12.3393 -0.929375Q11.1577 -0.929375 10.5766 -0.148125Q10.0004 0.628242 10.0004 1.82941ZM16.5385 6.11164Q16.5385 8.68977 15.2299 9.93977Q13.9213 11.1898 11.1821 11.1898Q10.2202 11.1898 9.25824 11.0189Q8.30121 10.848 7.4809 10.5696L7.99847 8.06965Q8.7016 8.34797 9.4682 8.5091Q10.2397 8.67023 11.2211 8.67023Q12.5004 8.67023 13.0278 8.10871Q13.56 7.55207 13.56 6.66828L13.56 6.2923Q13.0815 6.51203 12.5688 6.62434Q12.061 6.73176 11.4604 6.73176Q9.27777 6.73176 8.11566 5.4427Q6.95844 4.14875 6.95844 1.82941Q6.95844 0.672187 7.31976 -0.279961Q7.68109 -1.23211 8.36957 -1.91082Q9.05804 -2.58953 10.059 -2.96063Q11.06 -3.33172 12.3198 -3.33172Q12.8618 -3.33172 13.4282 -3.27801Q13.9995 -3.22918 14.5561 -3.14617Q15.1176 -3.06805 15.6254 -2.95574Q16.1381 -2.84832 16.5385 -2.73113L16.5385 6.11164Z"/>
	<path fill="white" transform="translate(55 79.2857)" d="M-16.3384 7.43L-16.3384 -6.4323L-6.97807 -6.4323L-6.97807 -3.81023L-13.2183 -3.81023L-13.2183 -1.09051L-7.6812 -1.09051L-7.6812 1.46809L-13.2183 1.46809L-13.2183 4.80793L-6.51909 4.80793L-6.51909 7.43L-16.3384 7.43ZM-1.87956 1.82941Q-1.87956 4.32941 0.141922 4.32941Q0.600906 4.32941 1.0013 4.21223Q1.40169 4.09016 1.68001 3.92902L1.68001 -0.831719Q1.46028 -0.870781 1.15755 -0.900078Q0.859695 -0.929375 0.459305 -0.929375Q-0.722336 -0.929375 -1.30339 -0.148125Q-1.87956 0.628242 -1.87956 1.82941ZM4.65852 6.11164Q4.65852 8.68977 3.34993 9.93977Q2.04134 11.1898 -0.697922 11.1898Q-1.65984 11.1898 -2.62175 11.0189Q-3.57878 10.848 -4.39909 10.5696L-3.88152 8.06965Q-3.17839 8.34797 -2.41179 8.5091Q-1.6403 8.67023 -0.658859 8.67023Q0.620438 8.67023 1.14778 8.10871Q1.68001 7.55207 1.68001 6.66828L1.68001 6.2923Q1.20149 6.51203 0.688797 6.62434Q0.180984 6.73176 -0.419601 6.73176Q-2.60222 6.73176 -3.76433 5.4427Q-4.92155 4.14875 -4.92155 1.82941Q-4.92155 0.672187 -4.56023 -0.279961Q-4.1989 -1.23211 -3.51042 -1.91082Q-2.82195 -2.58953 -1.82097 -2.96063Q-0.819992 -3.33172 0.439774 -3.33172Q0.981766 -3.33172 1.54817 -3.27801Q2.11946 -3.22918 2.6761 -3.14617Q3.23763 -3.06805 3.74544 -2.95574Q4.25813 -2.84832 4.65852 -2.73113L4.65852 6.11164ZM10.0004 1.82941Q10.0004 4.32941 12.0219 4.32941Q12.4809 4.32941 12.8813 4.21223Q13.2817 4.09016 13.56 3.92902L13.56 -0.831719Q13.3403 -0.870781 13.0375 -0.900078Q12.7397 -0.929375 12.3393 -0.929375Q11.1577 -0.929375 10.5766 -0.148125Q10.0004 0.628242 10.0004 1.82941ZM16.5385 6.11164Q16.5385 8.68977 15.2299 9.93977Q13.9213 11.1898 11.1821 11.1898Q10.2202 11.1898 9.25824 11.0189Q8.30121 10.848 7.4809 10.5696L7.99847 8.06965Q8.7016 8.34797 9.4682 8.5091Q10.2397 8.67023 11.2211 8.67023Q12.5004 8.67023 13.0278 8.10871Q13.56 7.55207 13.56 6.66828L13.56 6.2923Q13.0815 6.51203 12.5688 6.62434Q12.061 6.73176 11.4604 6.73176Q9.27777 6.73176 8.11566 5.4427Q6.95844 4.14875 6.95844 1.82941Q6.95844 0.672187 7.31976 -0.279961Q7.68109 -1.23211 8.36957 -1.91082Q9.05804 -2.58953 10.059 -2.96063Q11.06 -3.33172 12.3198 -3.33172Q12.8618 -3.33172 13.4282 -3.27801Q13.9995 -3.22918 14.5561 -3.14617Q15.1176 -3.06805 15.6254 -2.95574Q16.1381 -2.84832 16.5385 -2.73113L16.5385 6.11164Z"/>
</svg>
