<?xml version="1.0" encoding="utf-8" ?>
<svg xmlns="http://www.w3.org/2000/svg" xmlns:xlink="http://www.w3.org/1999/xlink" width="110" height="110">
	<path fill="#FFF0B8" transform="matrix(1.42857 0 0 1.42857 55 47.8571)" d="M12.75 0Q12.75 0.423464 12.7346 0.846417Q12.7193 1.26937 12.6886 1.6908Q12.6579 2.11222 12.612 2.5311Q12.5661 2.94998 12.505 3.36531Q12.4439 3.78063 12.3679 4.19141Q12.2918 4.60218 12.201 5.00741Q12.1101 5.41264 12.0047 5.81135Q11.8992 6.21006 11.7795 6.60129Q11.6597 6.99252 11.5259 7.37532Q11.392 7.75813 11.2445 8.13159Q11.097 8.50505 10.936 8.86827Q10.7751 9.23149 10.6012 9.58359Q10.4273 9.93568 10.2409 10.2758Q10.0544 10.6159 9.85588 10.9433Q9.65732 11.2706 9.44713 11.5844Q9.23693 11.8982 9.01561 12.1976Q8.79429 12.497 8.56238 12.7814Q8.33046 13.0658 8.08851 13.3344Q7.84657 13.6031 7.59517 13.8553Q7.34377 14.1076 7.08352 14.3429Q6.82327 14.5781 6.55481 14.7958Q6.28635 15.0135 6.01031 15.2131Q5.73427 15.4128 5.45133 15.5938Q5.16838 15.7749 4.87921 15.9369Q4.59004 16.099 4.29535 16.2416Q4.00065 16.3843 3.70113 16.5072Q3.40161 16.6301 3.098 16.733Q2.79438 16.8359 2.4874 16.9185Q2.18042 17.0012 1.87081 17.0633Q1.56121 17.1254 1.24972 17.1669Q0.938231 17.2084 0.625613 17.2292Q0.312995 17.25 0 17.25Q-0.312995 17.25 -0.625613 17.2292Q-0.938231 17.2084 -1.24972 17.1669Q-1.56121 17.1254 -1.87081 17.0633Q-2.18042 17.0012 -2.4874 16.9185Q-2.79438 16.8359 -3.098 16.733Q-3.40161 16.6301 -3.70113 16.5072Q-4.00065 16.3843 -4.29535 16.2416Q-4.59004 16.099 -4.87921 15.9369Q-5.16838 15.7749 -5.45133 15.5938Q-5.73427 15.4128 -6.01031 15.2131Q-6.28635 15.0135 -6.55481 14.7958Q-6.82328 14.5781 -7.08352 14.3429Q-7.34377 14.1076 -7.59517 13.8553Q-7.84657 13.6031 -8.08851 13.3344Q-8.33046 13.0658 -8.56238 12.7814Q-8.79429 12.497 -9.01561 12.1976Q-9.23693 11.8982 -9.44713 11.5844Q-9.65732 11.2706 -9.85588 10.9433Q-10.0544 10.6159 -10.2409 10.2758Q-10.4273 9.93568 -10.6012 9.58359Q-10.7751 9.23149 -10.936 8.86827Q-11.097 8.50505 -11.2445 8.13159Q-11.392 7.75813 -11.5259 7.37532Q-11.6597 6.99252 -11.7795 6.60129Q-11.8992 6.21006 -12.0047 5.81135Q-12.1101 5.41264 -12.201 5.00741Q-12.2918 4.60218 -12.3679 4.19141Q-12.444 3.78063 -12.505 3.36531Q-12.5661 2.94998 -12.612 2.5311Q-12.6579 2.11222 -12.6886 1.6908Q-12.7193 1.26937 -12.7346 0.846417Q-12.75 0.423464 -12.75 0Q-12.75 -0.423464 -12.7346 -0.846417Q-12.7193 -1.26937 -12.6886 -1.6908Q-12.6579 -2.11222 -12.612 -2.5311Q-12.5661 -2.94998 -12.505 -3.36531Q-12.4439 -3.78063 -12.3679 -4.19141Q-12.2918 -4.60218 -12.201 -5.00741Q-12.1101 -5.41264 -12.0047 -5.81135Q-11.8992 -6.21006 -11.7795 -6.60129Q-11.6597 -6.99252 -11.5259 -7.37532Q-11.392 -7.75813 -11.2445 -8.13159Q-11.097 -8.50505 -10.936 -8.86827Q-10.7751 -9.23149 -10.6012 -9.58359Q-10.4273 -9.93568 -10.2409 -10.2758Q-10.0544 -10.6159 -9.85588 -10.9433Q-9.65732 -11.2706 -9.44713 -11.5844Q-9.23693 -11.8982 -9.01561 -12.1976Q-8.79429 -12.497 -8.56238 -12.7814Q-8.33046 -13.0658 -8.08851 -13.3344Q-7.84657 -13.6031 -7.59517 -13.8553Q-7.34377 -14.1076 -7.08352 -14.3429Q-6.82327 -14.5781 -6.55481 -14.7958Q-6.28635 -15.0135 -6.01031 -15.2131Q-5.73427 -15.4128 -5.45133 -15.5938Q-5.16838 -15.7749 -4.87921 -15.9369Q-4.59004 -16.099 -4.29535 -16.2416Q-4.00065 -16.3843 -3.70113 -16.5072Q-3.40161 -16.6301 -3.098 -16.733Q-2.79438 -16.8359 -2.4874 -16.9185Q-2.18042 -17.0012 -1.87081 -17.0633Q-1.56121 -17.1254 -1.24972 -17.1669Q-0.938231 -17.2084 -0.625613 -17.2292Q-0.312995 -17.25 0 -17.25Q0.312995 -17.25 0.625613 -17.2292Q0.938231 -17.2084 1.24972 -17.1669Q1.56121 -17.1254 1.87081 -17.0633Q2.18042 -17.0012 2.4874 -16.9185Q2.79438 -16.8359 3.098 -16.733Q3.40161 -16.6301 3.70113 -16.5072Q4.00065 -16.3843 4.29535 -16.2416Q4.59004 -16.099 4.87921 -15.9369Q5.16838 -15.7749 5.45133 -15.5938Q5.73427 -15.4128 6.01031 -15.2131Q6.28635 -15.0135 6.55481 -14.7958Q6.82328 -14.5781 7.08352 -14.3429Q7.34377 -14.1076 7.59517 -13.8553Q7.84657 -13.6031 8.08851 -13.3344Q8.33046 -13.0658 8.56238 -12.7814Q8.79429 -12.497 9.01561 -12.1976Q9.23693 -11.8982 9.44713 -11.5844Q9.65732 -11.2706 9.85588 -10.9433Q10.0544 -10.6159 10.2409 -10.2758Q10.4273 -9.93568 10.6012 -9.58359Q10.7751 -9.23149 10.936 -8.86827Q11.097 -8.50505 11.2445 -8.13159Q11.392 -7.75813 11.5259 -7.37532Q11.6597 -6.99252 11.7795 -6.60129Q11.8992 -6.21006 12.0047 -5.81135Q12.1101 -5.41264 12.201 -5.00741Q12.2918 -4.60218 12.3679 -4.19141Q12.444 -3.78063 12.505 -3.36531Q12.5661 -2.94998 12.612 -2.5311Q12.6579 -2.11222 12.6886 -1.6908Q12.7193 -1.26937 12.7346 -0.846417Q12.75 -0.423464 12.75 0"/>
	<path fill="none" stroke="#CFC295" stroke-width="3" stroke-linejoin="round" transform="matrix(1.42857 0 0 1.42857 55 47.8571)" d="M12.75 0Q12.75 0.423464 12.7346 0.846417Q12.7193 1.26937 12.6886 1.6908Q12.6579 2.11222 12.612 2.5311Q12.5661 2.94998 12.505 3.36531Q12.4439 3.78063 12.3679 4.19141Q12.2918 4.60218 12.201 5.00741Q12.1101 5.41264 12.0047 5.81135Q11.8992 6.21006 11.7795 6.60129Q11.6597 6.99252 11.5259 7.37532Q11.392 7.75813 11.2445 8.13159Q11.097 8.50505 10.936 8.86827Q10.7751 9.23149 10.6012 9.58359Q10.4273 9.93568 10.2409 10.2758Q10.0544 10.6159 9.85588 10.9433Q9.65732 11.2706 9.44713 11.5844Q9.23693 11.8982 9.01561 12.1976Q8.79429 12.497 8.56238 12.7814Q8.33046 13.0658 8.08851 13.3344Q7.84657 13.6031 7.59517 13.8553Q7.34377 14.1076 7.08352 14.3429Q6.82327 14.5781 6.55481 14.7958Q6.28635 15.0135 6.01031 15.2131Q5.73427 15.4128 5.45133 15.5938Q5.16838 15.7749 4.87921 15.9369Q4.59004 16.099 4.29535 16.2416Q4.00065 16.3843 3.70113 16.5072Q3.40161 16.6301 3.098 16.733Q2.79438 16.8359 2.4874 16.9185Q2.18042 17.0012 1.87081 17.0633Q1.56121 17.1254 1.24972 17.1669Q0.938231 17.2084 0.625613 17.2292Q0.312995 17.25 0 17.25Q-0.312995 17.25 -0.625613 17.2292Q-0.938231 17.2084 -1.24972 17.1669Q-1.56121 17.1254 -1.87081 17.0633Q-2.18042 17.0012 -2.4874 16.9185Q-2.79438 16.8359 -3.098 16.733Q-3.40161 16.6301 -3.70113 16.5072Q-4.00065 16.3843 -4.29535 16.2416Q-4.59004 16.099 -4.87921 15.9369Q-5.16838 15.7749 -5.45133 15.5938Q-5.73427 15.4128 -6.01031 15.2131Q-6.28635 15.0135 -6.55481 14.7958Q-6.82328 14.5781 -7.08352 14.3429Q-7.34377 14.1076 -7.59517 13.8553Q-7.84657 13.6031 -8.08851 13.3344Q-8.33046 13.0658 -8.56238 12.7814Q-8.79429 12.497 -9.01561 12.1976Q-9.23693 11.8982 -9.44713 11.5844Q-9.65732 11.2706 -9.85588 10.9433Q-10.0544 10.6159 -10.2409 10.2758Q-10.4273 9.93568 -10.6012 9.58359Q-10.7751 9.23149 -10.936 8.86827Q-11.097 8.50505 -11.2445 8.13159Q-11.392 7.75813 -11.5259 7.37532Q-11.6597 6.99252 -11.7795 6.60129Q-11.8992 6.21006 -12.0047 5.81135Q-12.1101 5.41264 -12.201 5.00741Q-12.2918 4.60218 -12.3679 4.19141Q-12.444 3.78063 -12.505 3.36531Q-12.5661 2.94998 -12.612 2.5311Q-12.6579 2.11222 -12.6886 1.6908Q-12.7193 1.26937 -12.7346 0.846417Q-12.75 0.423464 -12.75 0Q-12.75 -0.423464 -12.7346 -0.846417Q-12.7193 -1.26937 -12.6886 -1.6908Q-12.6579 -2.11222 -12.612 -2.5311Q-12.5661 -2.94998 -12.505 -3.36531Q-12.4439 -3.78063 -12.3679 -4.19141Q-12.2918 -4.60218 -12.201 -5.00741Q-12.1101 -5.41264 -12.0047 -5.81135Q-11.8992 -6.21006 -11.7795 -6.60129Q-11.6597 -6.99252 -11.5259 -7.37532Q-11.392 -7.75813 -11.2445 -8.13159Q-11.097 -8.50505 -10.936 -8.86827Q-10.7751 -9.23149 -10.6012 -9.58359Q-10.4273 -9.93568 -10.2409 -10.2758Q-10.0544 -10.6159 -9.85588 -10.9433Q-9.65732 -11.2706 -9.44713 -11.5844Q-9.23693 -11.8982 -9.01561 -12.1976Q-8.79429 -12.497 -8.56238 -12.7814Q-8.33046 -13.0658 -8.08851 -13.3344Q-7.84657 -13.6031 -7.59517 -13.8553Q-7.34377 -14.1076 -7.08352 -14.3429Q-6.82327 -14.5781 -6.55481 -14.7958Q-6.28635 -15.0135 -6.01031 -15.2131Q-5.73427 -15.4128 -5.45133 -15.5938Q-5.16838 -15.7749 -4.87921 -15.9369Q-4.59004 -16.099 -4.29535 -16.2416Q-4.00065 -16.3843 -3.70113 -16.5072Q-3.40161 -16.6301 -3.098 -16.733Q-2.79438 -16.8359 -2.4874 -16.9185Q-2.18042 -17.0012 -1.87081 -17.0633Q-1.56121 -17.1254 -1.24972 -17.1669Q-0.938231 -17.2084 -0.625613 -17.2292Q-0.312995 -17.25 0 -17.25Q0.312995 -17.25 0.625613 -17.2292Q0.938231 -17.2084 1.24972 -17.1669Q1.56121 -17.1254 1.87081 -17.0633Q2.18042 -17.0012 2.4874 -16.9185Q2.79438 -16.8359 3.098 -16.733Q3.40161 -16.6301 3.70113 -16.5072Q4.00065 -16.3843 4.29535 -16.2416Q4.59004 -16.099 4.87921 -15.9369Q5.16838 -15.7749 5.45133 -15.5938Q5.73427 -15.4128 6.01031 -15.2131Q6.28635 -15.0135 6.55481 -14.7958Q6.82328 -14.5781 7.08352 -14.3429Q7.34377 -14.1076 7.59517 -13.8553Q7.84657 -13.6031 8.08851 -13.3344Q8.33046 -13.0658 8.56238 -12.7814Q8.79429 -12.497 9.01561 -12.1976Q9.23693 -11.8982 9.44713 -11.5844Q9.65732 -11.2706 9.85588 -10.9433Q10.0544 -10.6159 10.2409 -10.2758Q10.4273 -9.93568 10.6012 -9.58359Q10.7751 -9.23149 10.936 -8.86827Q11.097 -8.50505 11.2445 -8.13159Q11.392 -7.75813 11.5259 -7.37532Q11.6597 -6.99252 11.7795 -6.60129Q11.8992 -6.21006 12.0047 -5.81135Q12.1101 -5.41264 12.201 -5.00741Q12.2918 -4.60218 12.3679 -4.19141Q12.444 -3.78063 12.505 -3.36531Q12.5661 -2.94998 12.612 -2.5311Q12.6579 -2.11222 12.6886 -1.6908Q12.7193 -1.26937 12.7346 -0.846417Q12.75 -0.423464 12.75 0"/>
	<path fill="none" stroke="black" stroke-width="2.3999999" stroke-linejoin="round" transform="translate(55 79.2857)" d="M-16.3384 7.43L-16.3384 -6.4323L-6.97807 -6.4323L-6.97807 -3.81023L-13.2183 -3.81023L-13.2183 -1.09051L-7.6812 -1.09051L-7.6812 1.46809L-13.2183 1.46809L-13.2183 4.80793L-6.51909 4.80793L-6.51909 7.43L-16.3384 7.43ZM-1.87956 1.82941Q-1.87956 4.32941 0.141922 4.32941Q0.600906 4.32941 1.0013 4.21223Q1.40169 4.09016 1.68001 3.92902L1.68001 -0.831719Q1.46028 -0.870781 1.15755 -0.900078Q0.859695 -0.929375 0.459305 -0.929375Q-0.722336 -0.929375 -1.30339 -0.148125Q-1.87956 0.628242 -1.87956 1.82941ZM4.65852 6.11164Q4.65852 8.68977 3.34993 9.93977Q2.04134 11.1898 -0.697922 11.1898Q-1.65984 11.1898 -2.62175 11.0189Q-3.57878 10.848 -4.39909 10.5696L-3.88152 8.06965Q-3.17839 8.34797 -2.41179 8.5091Q-1.6403 8.67023 -0.658859 8.67023Q0.620438 8.67023 1.14778 8.10871Q1.68001 7.55207 1.68001 6.66828L1.68001 6.2923Q1.20149 6.51203 0.688797 6.62434Q0.180984 6.73176 -0.419601 6.73176Q-2.60222 6.73176 -3.76433 5.4427Q-4.92155 4.14875 -4.92155 1.82941Q-4.92155 0.672187 -4.56023 -0.279961Q-4.1989 -1.23211 -3.51042 -1.91082Q-2.82195 -2.58953 -1.82097 -2.96063Q-0.819992 -3.33172 0.439774 -3.33172Q0.981766 -3.33172 1.54817 -3.27801Q2.11946 -3.22918 2.6761 -3.14617Q3.23763 -3.06805 3.74544 -2.95574Q4.25813 -2.84832 4.65852 -2.73113L4.65852 6.11164ZM10.0004 1.82941Q10.0004 4.32941 12.0219 4.32941Q12.4809 4.32941 12.8813 4.21223Q13.2817 4.09016 13.56 3.92902L13.56 -0.831719Q13.3403 -0.870781 13.0375 -0.900078Q12.7397 -0.929375 12.3393 -0.929375Q11.1577 -0.929375 10.5766 -0.148125Q10.0004 0.628242 10.0004 1.82941ZM16.5385 6.11164Q16.5385 8.68977 15.2299 9.93977Q13.9213 11.1898 11.1821 11.1898Q10.2202 11.1898 9.25824 11.0189Q8.30121 10.848 7.4809 10.5696L7.99847 8.06965Q8.7016 8.34797 9.4682 8.5091Q10.2397 8.67023 11.2211 8.67023Q12.5004 8.67023 13.0278 8.10871Q13.56 7.55207 13.56 6.66828L13.56 6.2923Q13.0815 6.51203 12.5688 6.62434Q12.061 6.73176 11.4604 6.73176Q9.27777 6.73176 8.11566 5.4427Q6.95844 4.14875 6.95844 1.82941Q6.95844 0.672187 7.31976 -0.279961Q7.68109 -1.23211 8.36957 -1.91082Q9.05804 -2.58953 10.059 -2.96063Q11.06 -3.33172 12.3198 -3.33172Q12.8618 -3.33172 13.4282 -3.27801Q13.9995 -3.22918 14.5561 -3.14617Q15.1176 -3.06805 15.6254 -2.95574Q16.1381 -2.84832 16.5385 -2.73113L16.5385 6.11164Z"/>
	<path fill="white" transform="translate(55 79.2857)" d="M-16.3384 7.43L-16.3384 -6.4323L-6.97807 -6.4323L-6.97807 -3.81023L-13.2183 -3.81023L-13.2183 -1.09051L-7.6812 -1.09051L-7.6812 1.46809L-13.2183 1.46809L-13.2183 4.80793L-6.51909 4.80793L-6.51909 7.43L-16.3384 7.43ZM-1.87956 1.82941Q-1.87956 4.32941 0.141922 4.32941Q0.600906 4.32941 1.0013 4.21223Q1.40169 4.09016 1.68001 3.92902L1.68001 -0.831719Q1.46028 -0.870781 1.15755 -0.900078Q0.859695 -0.929375 0.459305 -0.929375Q-0.722336 -0.929375 -1.30339 -0.148125Q-1.87956 0.628242 -1.87956 1.82941ZM4.65852 6.11164Q4.65852 8.68977 3.34993 9.93977Q2.04134 11.1898 -0.697922 11.1898Q-1.65984 11.1898 -2.62175 11.0189Q-3.57878 10.848 -4.39909 10.5696L-3.88152 8.06965Q-3.17839 8.34797 -2.41179 8.5091Q-1.6403 8.67023 -0.658859 8.67023Q0.620438 8.67023 1.14778 8.10871Q1.68001 7.55207 1.68001 6.66828L1.68001 6.2923Q1.20149 6.51203 0.688797 6.62434Q0.180984 6.73176 -0.419601 6.73176Q-2.60222 6.73176 -3.76433 5.4427Q-4.92155 4.14875 -4.92155 1.82941Q-4.92155 0.672187 -4.56023 -0.279961Q-4.1989 -1.23211 -3.51042 -1.91082Q-2.82195 -2.58953 -1.82097 -2.96063Q-0.819992 -3.33172 0.439774 -3.33172Q0.981766 -3.33172 1.54817 -3.27801Q2.11946 -3.22918 2.6761 -3.14617Q3.23763 -3.06805 3.74544 -2.95574Q4.25813 -2.84832 4.65852 -2.73113L4.65852 6.11164ZM10.0004 1.82941Q10.0004 4.32941 12.0219 4.32941Q12.4809 4.32941 12.8813 4.21223Q13.2817 4.09016 13.56 3.92902L13.56 -0.831719Q13.3403 -0.870781 13.0375 -0.900078Q12.7397 -0.929375 12.3393 -0.929375Q11.1577 -0.929375 10.5766 -0.148125Q10.0004 0.628242 10.0004 1.82941ZM16.5385 6.11164Q16.5385 8.68977 15.2299 9.93977Q13.9213 11.1898 11.1821 11.1898Q10.2202 11.1898 9.25824 11.0189Q8.30121 10.848 7.4809 10.5696L7.99847 8.06965Q8.7016 8.34797 9.4682 8.5091Q10.2397 8.67023 11.2211 8.67023Q12.5004 8.67023 13.0278 8.10871Q13.56 7.55207 13.56 6.66828L13.56 6.2923Q13.0815 6.51203 12.5688 6.62434Q12.061 6.73176 11.4604 6.73176Q9.27777 6.73176 8.11566 5.4427Q6.95844 4.14875 6.95844 1.82941Q6.95844 0.672187 7.31976 -0.279961Q7.68109 -1.23211 8.36957 -1.91082Q9.05804 -2.58953 10.059 -2.96063Q11.06 -3.33172 12.3198 -3.33172Q12.8618 -3.33172 13.4282 -3.27801Q13.9995 -3.22918 14.5561 -3.14617Q15.1176 -3.06805 15.6254 -2.95574Q16.1381 -2.84832 16.5385 -2.73113L16.5385 6.11164Z"/>
</svg>
