<?xml version="1.0" encoding="utf-8" ?>
<svg xmlns="http://www.w3.org/2000/svg" xmlns:xlink="http://www.w3.org/1999/xlink" width="110" height="110">
	<path fill="#FFF0B8" transform="matrix(1.42857 0 0 1.42857 55 47.8571)" d="M13.175 0Q13.175 0.437579 13.1591 0.874631Q13.1433 1.31168 13.1116 1.74716Q13.0799 2.18263 13.0324 2.61547Q12.9849 3.04831 12.9218 3.47748Q12.8587 3.90666 12.7802 4.33112Q12.7016 4.75559 12.6077 5.17432Q12.5138 5.59306 12.4048 6.00506Q12.2959 6.41706 12.1721 6.82133Q12.0483 7.2256 11.9101 7.62117Q11.7718 8.01674 11.6193 8.40265Q11.4668 8.78856 11.3006 9.16388Q11.1343 9.5392 10.9546 9.90304Q10.7749 10.2669 10.5823 10.6183Q10.3896 10.9698 10.1844 11.3081Q9.97923 11.6463 9.76203 11.9705Q9.54483 12.2948 9.31613 12.6042Q9.08743 12.9136 8.84779 13.2075Q8.60814 13.5013 8.35813 13.7789Q8.10812 14.0565 7.84834 14.3172Q7.58856 14.5778 7.31964 14.8209Q7.05072 15.064 6.7733 15.289Q6.49589 15.514 6.21065 15.7202Q5.92541 15.9265 5.63304 16.1136Q5.34066 16.3007 5.04185 16.4682Q4.74305 16.6356 4.43852 16.783Q4.134 16.9304 3.8245 17.0575Q3.515 17.1845 3.20126 17.2908Q2.88753 17.3971 2.57031 17.4825Q2.2531 17.5679 1.93317 17.6321Q1.61325 17.6963 1.29138 17.7392Q0.969505 17.7821 0.646467 17.8035Q0.323428 17.825 0 17.825Q-0.323428 17.825 -0.646467 17.8035Q-0.969505 17.7821 -1.29138 17.7392Q-1.61325 17.6963 -1.93317 17.6321Q-2.2531 17.5679 -2.57031 17.4825Q-2.88753 17.3971 -3.20126 17.2908Q-3.515 17.1845 -3.8245 17.0575Q-4.134 16.9304 -4.43852 16.783Q-4.74305 16.6356 -5.04185 16.4682Q-5.34066 16.3007 -5.63304 16.1136Q-5.92541 15.9265 -6.21065 15.7202Q-6.49589 15.514 -6.7733 15.289Q-7.05072 15.0641 -7.31964 14.8209Q-7.58856 14.5778 -7.84834 14.3172Q-8.10812 14.0565 -8.35813 13.7789Q-8.60814 13.5013 -8.84779 13.2075Q-9.08743 12.9136 -9.31613 12.6042Q-9.54483 12.2948 -9.76203 11.9705Q-9.97923 11.6463 -10.1844 11.3081Q-10.3896 10.9698 -10.5823 10.6183Q-10.7749 10.2669 -10.9546 9.90304Q-11.1343 9.5392 -11.3006 9.16388Q-11.4668 8.78856 -11.6193 8.40265Q-11.7718 8.01674 -11.9101 7.62117Q-12.0483 7.2256 -12.1721 6.82133Q-12.2959 6.41706 -12.4048 6.00506Q-12.5138 5.59306 -12.6077 5.17432Q-12.7016 4.75559 -12.7802 4.33112Q-12.8587 3.90666 -12.9218 3.47748Q-12.9849 3.04831 -13.0324 2.61547Q-13.0799 2.18263 -13.1116 1.74716Q-13.1433 1.31168 -13.1591 0.874631Q-13.175 0.437579 -13.175 0Q-13.175 -0.437579 -13.1591 -0.874631Q-13.1433 -1.31168 -13.1116 -1.74716Q-13.0799 -2.18263 -13.0324 -2.61547Q-12.9849 -3.04831 -12.9218 -3.47748Q-12.8587 -3.90666 -12.7802 -4.33112Q-12.7016 -4.75559 -12.6077 -5.17432Q-12.5138 -5.59306 -12.4048 -6.00506Q-12.2959 -6.41706 -12.1721 -6.82133Q-12.0483 -7.2256 -11.9101 -7.62117Q-11.7718 -8.01674 -11.6193 -8.40265Q-11.4668 -8.78856 -11.3006 -9.16388Q-11.1343 -9.5392 -10.9546 -9.90304Q-10.7749 -10.2669 -10.5823 -10.6183Q-10.3896 -10.9698 -10.1844 -11.3081Q-9.97923 -11.6463 -9.76203 -11.9705Q-9.54483 -12.2948 -9.31613 -12.6042Q-9.08743 -12.9136 -8.84779 -13.2075Q-8.60814 -13.5013 -8.35813 -13.7789Q-8.10812 -14.0565 -7.84834 -14.3172Q-7.58856 -14.5778 -7.31964 -14.8209Q-7.05072 -15.064 -6.7733 -15.289Q-6.49589 -15.514 -6.21065 -15.7202Q-5.92541 -15.9265 -5.63304 -16.1136Q-5.34066 -16.3007 -5.04185 -16.4682Q-4.74305 -16.6356 -4.43852 -16.783Q-4.134 -16.9304 -3.8245 -17.0575Q-3.515 -17.1845 -3.20126 -17.2908Q-2.88753 -17.3971 -2.57031 -17.4825Q-2.2531 -17.5679 -1.93317 -17.6321Q-1.61325 -17.6963 -1.29138 -17.7392Q-0.969505 -17.7821 -0.646467 -17.8035Q-0.323428 -17.825 0 -17.825Q0.323428 -17.825 0.646467 -17.8035Q0.969505 -17.7821 1.29138 -17.7392Q1.61325 -17.6963 1.93317 -17.6321Q2.2531 -17.5679 2.57031 -17.4825Q2.88753 -17.3971 3.20126 -17.2908Q3.515 -17.1845 3.8245 -17.0575Q4.134 -16.9304 4.43852 -16.783Q4.74305 -16.6356 5.04185 -16.4682Q5.34066 -16.3007 5.63304 -16.1136Q5.92541 -15.9265 6.21065 -15.7202Q6.49589 -15.514 6.7733 -15.289Q7.05072 -15.0641 7.31964 -14.8209Q7.58856 -14.5778 7.84834 -14.3172Q8.10812 -14.0565 8.35813 -13.7789Q8.60814 -13.5013 8.84779 -13.2075Q9.08743 -12.9136 9.31613 -12.6042Q9.54483 -12.2948 9.76203 -11.9705Q9.97923 -11.6463 10.1844 -11.3081Q10.3896 -10.9698 10.5823 -10.6183Q10.7749 -10.2669 10.9546 -9.90304Q11.1343 -9.5392 11.3006 -9.16388Q11.4668 -8.78856 11.6193 -8.40265Q11.7718 -8.01674 11.9101 -7.62117Q12.0483 -7.2256 12.1721 -6.82133Q12.2959 -6.41706 12.4048 -6.00506Q12.5138 -5.59306 12.6077 -5.17432Q12.7016 -4.75559 12.7802 -4.33112Q12.8587 -3.90666 12.9218 -3.47748Q12.9849 -3.04831 13.0324 -2.61547Q13.0799 -2.18263 13.1116 -1.74716Q13.1433 -1.31168 13.1591 -0.874631Q13.175 -0.437579 13.175 0"/>
	<path fill="none" stroke="#CFC295" stroke-width="3" stroke-linejoin="round" transform="matrix(1.42857 0 0 1.42857 55 47.8571)" d="M13.175 0Q13.175 0.437579 13.1591 0.874631Q13.1433 1.31168 13.1116 1.74716Q13.0799 2.18263 13.0324 2.61547Q12.9849 3.04831 12.9218 3.47748Q12.8587 3.90666 12.7802 4.33112Q12.7016 4.75559 12.6077 5.17432Q12.5138 5.59306 12.4048 6.00506Q12.2959 6.41706 12.1721 6.82133Q12.0483 7.2256 11.9101 7.62117Q11.7718 8.01674 11.6193 8.40265Q11.4668 8.78856 11.3006 9.16388Q11.1343 9.5392 10.9546 9.90304Q10.7749 10.2669 10.5823 10.6183Q10.3896 10.9698 10.1844 11.3081Q9.97923 11.6463 9.76203 11.9705Q9.54483 12.2948 9.31613 12.6042Q9.08743 12.9136 8.84779 13.2075Q8.60814 13.5013 8.35813 13.7789Q8.10812 14.0565 7.84834 14.3172Q7.58856 14.5778 7.31964 14.8209Q7.05072 15.064 6.7733 15.289Q6.49589 15.514 6.21065 15.7202Q5.92541 15.9265 5.63304 16.1136Q5.34066 16.3007 5.04185 16.4682Q4.74305 16.6356 4.43852 16.783Q4.134 16.9304 3.8245 17.0575Q3.515 17.1845 3.20126 17.2908Q2.88753 17.3971 2.57031 17.4825Q2.2531 17.5679 1.93317 17.6321Q1.61325 17.6963 1.29138 17.7392Q0.969505 17.7821 0.646467 17.8035Q0.323428 17.825 0 17.825Q-0.323428 17.825 -0.646467 17.8035Q-0.969505 17.7821 -1.29138 17.7392Q-1.61325 17.6963 -1.93317 17.6321Q-2.2531 17.5679 -2.57031 17.4825Q-2.88753 17.3971 -3.20126 17.2908Q-3.515 17.1845 -3.8245 17.0575Q-4.134 16.9304 -4.43852 16.783Q-4.74305 16.6356 -5.04185 16.4682Q-5.34066 16.3007 -5.63304 16.1136Q-5.92541 15.9265 -6.21065 15.7202Q-6.49589 15.514 -6.7733 15.289Q-7.05072 15.0641 -7.31964 14.8209Q-7.58856 14.5778 -7.84834 14.3172Q-8.10812 14.0565 -8.35813 13.7789Q-8.60814 13.5013 -8.84779 13.2075Q-9.08743 12.9136 -9.31613 12.6042Q-9.54483 12.2948 -9.76203 11.9705Q-9.97923 11.6463 -10.1844 11.3081Q-10.3896 10.9698 -10.5823 10.6183Q-10.7749 10.2669 -10.9546 9.90304Q-11.1343 9.5392 -11.3006 9.16388Q-11.4668 8.78856 -11.6193 8.40265Q-11.7718 8.01674 -11.9101 7.62117Q-12.0483 7.2256 -12.1721 6.82133Q-12.2959 6.41706 -12.4048 6.00506Q-12.5138 5.59306 -12.6077 5.17432Q-12.7016 4.75559 -12.7802 4.33112Q-12.8587 3.90666 -12.9218 3.47748Q-12.9849 3.04831 -13.0324 2.61547Q-13.0799 2.18263 -13.1116 1.74716Q-13.1433 1.31168 -13.1591 0.874631Q-13.175 0.437579 -13.175 0Q-13.175 -0.437579 -13.1591 -0.874631Q-13.1433 -1.31168 -13.1116 -1.74716Q-13.0799 -2.18263 -13.0324 -2.61547Q-12.9849 -3.04831 -12.9218 -3.47748Q-12.8587 -3.90666 -12.7802 -4.33112Q-12.7016 -4.75559 -12.6077 -5.17432Q-12.5138 -5.59306 -12.4048 -6.00506Q-12.2959 -6.41706 -12.1721 -6.82133Q-12.0483 -7.2256 -11.9101 -7.62117Q-11.7718 -8.01674 -11.6193 -8.40265Q-11.4668 -8.78856 -11.3006 -9.16388Q-11.1343 -9.5392 -10.9546 -9.90304Q-10.7749 -10.2669 -10.5823 -10.6183Q-10.3896 -10.9698 -10.1844 -11.3081Q-9.97923 -11.6463 -9.76203 -11.9705Q-9.54483 -12.2948 -9.31613 -12.6042Q-9.08743 -12.9136 -8.84779 -13.2075Q-8.60814 -13.5013 -8.35813 -13.7789Q-8.10812 -14.0565 -7.84834 -14.3172Q-7.58856 -14.5778 -7.31964 -14.8209Q-7.05072 -15.064 -6.7733 -15.289Q-6.49589 -15.514 -6.21065 -15.7202Q-5.92541 -15.9265 -5.63304 -16.1136Q-5.34066 -16.3007 -5.04185 -16.4682Q-4.74305 -16.6356 -4.43852 -16.783Q-4.134 -16.9304 -3.8245 -17.0575Q-3.515 -17.1845 -3.20126 -17.2908Q-2.88753 -17.3971 -2.57031 -17.4825Q-2.2531 -17.5679 -1.93317 -17.6321Q-1.61325 -17.6963 -1.29138 -17.7392Q-0.969505 -17.7821 -0.646467 -17.8035Q-0.323428 -17.825 0 -17.825Q0.323428 -17.825 0.646467 -17.8035Q0.969505 -17.7821 1.29138 -17.7392Q1.61325 -17.6963 1.93317 -17.6321Q2.2531 -17.5679 2.57031 -17.4825Q2.88753 -17.3971 3.20126 -17.2908Q3.515 -17.1845 3.8245 -17.0575Q4.134 -16.9304 4.43852 -16.783Q4.74305 -16.6356 5.04185 -16.4682Q5.34066 -16.3007 5.63304 -16.1136Q5.92541 -15.9265 6.21065 -15.7202Q6.49589 -15.514 6.7733 -15.289Q7.05072 -15.0641 7.31964 -14.8209Q7.58856 -14.5778 7.84834 -14.3172Q8.10812 -14.0565 8.35813 -13.7789Q8.60814 -13.5013 8.84779 -13.2075Q9.08743 -12.9136 9.31613 -12.6042Q9.54483 -12.2948 9.76203 -11.9705Q9.97923 -11.6463 10.1844 -11.3081Q10.3896 -10.9698 10.5823 -10.6183Q10.7749 -10.2669 10.9546 -9.90304Q11.1343 -9.5392 11.3006 -9.16388Q11.4668 -8.78856 11.6193 -8.40265Q11.7718 -8.01674 11.9101 -7.62117Q12.0483 -7.2256 12.1721 -6.82133Q12.2959 -6.41706 12.4048 -6.00506Q12.5138 -5.59306 12.6077 -5.17432Q12.7016 -4.75559 12.7802 -4.33112Q12.8587 -3.90666 12.9218 -3.47748Q12.9849 -3.04831 13.0324 -2.61547Q13.0799 -2.18263 13.1116 -1.74716Q13.1433 -1.31168 13.1591 -0.874631Q13.175 -0.437579 13.175 0"/>
	<path fill="none" stroke="black" stroke-width="2.3999999" stroke-linejoin="round" transform="translate(55 79.2857)" d="M-16.3384 7.43L-16.3384 -6.4323L-6.97807 -6.4323L-6.97807 -3.81023L-13.2183 -3.81023L-13.2183 -1.09051L-7.6812 -1.09051L-7.6812 1.46809L-13.2183 1.46809L-13.2183 4.80793L-6.51909 4.80793L-6.51909 7.43L-16.3384 7.43ZM-1.87956 1.82941Q-1.87956 4.32941 0.141922 4.32941Q0.600906 4.32941 1.0013 4.21223Q1.40169 4.09016 1.68001 3.92902L1.68001 -0.831719Q1.46028 -0.870781 1.15755 -0.900078Q0.859695 -0.929375 0.459305 -0.929375Q-0.722336 -0.929375 -1.30339 -0.148125Q-1.87956 0.628242 -1.87956 1.82941ZM4.65852 6.11164Q4.65852 8.68977 3.34993 9.93977Q2.04134 11.1898 -0.697922 11.1898Q-1.65984 11.1898 -2.62175 11.0189Q-3.57878 10.848 -4.39909 10.5696L-3.88152 8.06965Q-3.17839 8.34797 -2.41179 8.5091Q-1.6403 8.67023 -0.658859 8.67023Q0.620438 8.67023 1.14778 8.10871Q1.68001 7.55207 1.68001 6.66828L1.68001 6.2923Q1.20149 6.51203 0.688797 6.62434Q0.180984 6.73176 -0.419601 6.73176Q-2.60222 6.73176 -3.76433 5.4427Q-4.92155 4.14875 -4.92155 1.82941Q-4.92155 0.672187 -4.56023 -0.279961Q-4.1989 -1.23211 -3.51042 -1.91082Q-2.82195 -2.58953 -1.82097 -2.96063Q-0.819992 -3.33172 0.439774 -3.33172Q0.981766 -3.33172 1.54817 -3.27801Q2.11946 -3.22918 2.6761 -3.14617Q3.23763 -3.06805 3.74544 -2.95574Q4.25813 -2.84832 4.65852 -2.73113L4.65852 6.11164ZM10.0004 1.82941Q10.0004 4.32941 12.0219 4.32941Q12.4809 4.32941 12.8813 4.21223Q13.2817 4.09016 13.56 3.92902L13.56 -0.831719Q13.3403 -0.870781 13.0375 -0.900078Q12.7397 -0.929375 12.3393 -0.929375Q11.1577 -0.929375 10.5766 -0.148125Q10.0004 0.628242 10.0004 1.82941ZM16.5385 6.11164Q16.5385 8.68977 15.2299 9.93977Q13.9213 11.1898 11.1821 11.1898Q10.2202 11.1898 9.25824 11.0189Q8.30121 10.848 7.4809 10.5696L7.99847 8.06965Q8.7016 8.34797 9.4682 8.5091Q10.2397 8.67023 11.2211 8.67023Q12.5004 8.67023 13.0278 8.10871Q13.56 7.55207 13.56 6.66828L13.56 6.2923Q13.0815 6.51203 12.5688 6.62434Q12.061 6.73176 11.4604 6.73176Q9.27777 6.73176 8.11566 5.4427Q6.95844 4.14875 6.95844 1.82941Q6.95844 0.672187 7.31976 -0.279961Q7.68109 -1.23211 8.36957 -1.91082Q9.05804 -2.58953 10.059 -2.96063Q11.06 -3.33172 12.3198 -3.33172Q12.8618 -3.33172 13.4282 -3.27801Q13.9995 -3.22918 14.5561 -3.14617Q15.1176 -3.06805 15.6254 -2.95574Q16.1381 -2.84832 16.5385 -2.73113L16.5385 6.11164Z"/>
	<path fill="white" transform="translate(55 79.2857)" d="M-16.3384 7.43L-16.3384 -6.4323L-6.97807 -6.4323L-6.97807 -3.81023L-13.2183 -3.81023L-13.2183 -1.09051L-7.6812 -1.09051L-7.6812 1.46809L-13.2183 1.46809L-13.2183 4.80793L-6.51909 4.80793L-6.51909 7.43L-16.3384 7.43ZM-1.87956 1.82941Q-1.87956 4.32941 0.141922 4.32941Q0.600906 4.32941 1.0013 4.21223Q1.40169 4.09016 1.68001 3.92902L1.68001 -0.831719Q1.46028 -0.870781 1.15755 -0.900078Q0.859695 -0.929375 0.459305 -0.929375Q-0.722336 -0.929375 -1.30339 -0.148125Q-1.87956 0.628242 -1.87956 1.82941ZM4.65852 6.11164Q4.65852 8.68977 3.34993 9.93977Q2.04134 11.1898 -0.697922 11.1898Q-1.65984 11.1898 -2.62175 11.0189Q-3.57878 10.848 -4.39909 10.5696L-3.88152 8.06965Q-3.17839 8.34797 -2.41179 8.5091Q-1.6403 8.67023 -0.658859 8.67023Q0.620438 8.67023 1.14778 8.10871Q1.68001 7.55207 1.68001 6.66828L1.68001 6.2923Q1.20149 6.51203 0.688797 6.62434Q0.180984 6.73176 -0.419601 6.73176Q-2.60222 6.73176 -3.76433 5.4427Q-4.92155 4.14875 -4.92155 1.82941Q-4.92155 0.672187 -4.56023 -0.279961Q-4.1989 -1.23211 -3.51042 -1.91082Q-2.82195 -2.58953 -1.82097 -2.96063Q-0.819992 -3.33172 0.439774 -3.33172Q0.981766 -3.33172 1.54817 -3.27801Q2.11946 -3.22918 2.6761 -3.14617Q3.23763 -3.06805 3.74544 -2.95574Q4.25813 -2.84832 4.65852 -2.73113L4.65852 6.11164ZM10.0004 1.82941Q10.0004 4.32941 12.0219 4.32941Q12.4809 4.32941 12.8813 4.21223Q13.2817 4.09016 13.56 3.92902L13.56 -0.831719Q13.3403 -0.870781 13.0375 -0.900078Q12.7397 -0.929375 12.3393 -0.929375Q11.1577 -0.929375 10.5766 -0.148125Q10.0004 0.628242 10.0004 1.82941ZM16.5385 6.11164Q16.5385 8.68977 15.2299 9.93977Q13.9213 11.1898 11.1821 11.1898Q10.2202 11.1898 9.25824 11.0189Q8.30121 10.848 7.4809 10.5696L7.99847 8.06965Q8.7016 8.34797 9.4682 8.5091Q10.2397 8.67023 11.2211 8.67023Q12.5004 8.67023 13.0278 8.10871Q13.56 7.55207 13.56 6.66828L13.56 6.2923Q13.0815 6.51203 12.5688 6.62434Q12.061 6.73176 11.4604 6.73176Q9.27777 6.73176 8.11566 5.4427Q6.95844 4.14875 6.95844 1.82941Q6.95844 0.672187 7.31976 -0.279961Q7.68109 -1.23211 8.36957 -1.91082Q9.05804 -2.58953 10.059 -2.96063Q11.06 -3.33172 12.3198 -3.33172Q12.8618 -3.33172 13.4282 -3.27801Q13.9995 -3.22918 14.5561 -3.14617Q15.1176 -3.06805 15.6254 -2.95574Q16.1381 -2.84832 16.5385 -2.73113L16.5385 6.11164Z"/>
</svg>
