<?xml version="1.0" encoding="utf-8" ?>
<svg xmlns="http://www.w3.org/2000/svg" xmlns:xlink="http://www.w3.org/1999/xlink" width="110" height="110">
	<path fill="#FFF0B8" transform="matrix(1.42857 0 0 1.42857 55 47.8571)" d="M13.6 0Q13.6 0.451695 13.5836 0.902845Q13.5672 1.354 13.5345 1.80352Q13.5018 2.25303 13.4528 2.69984Q13.4038 3.14665 13.3387 3.58966Q13.2735 4.03268 13.1924 4.47083Q13.1113 4.90899 13.0144 5.34124Q12.9175 5.77348 12.805 6.19877Q12.6925 6.62406 12.5648 7.04137Q12.437 7.45869 12.2943 7.86701Q12.1515 8.27534 11.9941 8.6737Q11.8367 9.07206 11.6651 9.45949Q11.4935 9.84692 11.308 10.2225Q11.1225 10.5981 10.9236 10.9609Q10.7247 11.3237 10.5129 11.6728Q10.3011 12.022 10.0769 12.3567Q9.85273 12.6914 9.61665 13.0108Q9.38058 13.3302 9.1332 13.6335Q8.88583 13.9368 8.62775 14.2234Q8.36967 14.5099 8.10151 14.779Q7.83335 15.0481 7.55575 15.299Q7.27816 15.55 6.9918 15.7822Q6.70543 16.0144 6.411 16.2274Q6.11656 16.4403 5.81475 16.6334Q5.51294 16.8265 5.20449 16.9994Q4.89605 17.1722 4.5817 17.3244Q4.26736 17.4766 3.94787 17.6077Q3.62839 17.7388 3.30453 17.8486Q2.98067 17.9583 2.65323 18.0464Q2.32578 18.1346 1.99553 18.2008Q1.66529 18.2671 1.33303 18.3114Q1.00078 18.3557 0.66732 18.3778Q0.333861 18.4 0 18.4Q-0.333861 18.4 -0.66732 18.3778Q-1.00078 18.3557 -1.33303 18.3114Q-1.66529 18.2671 -1.99553 18.2008Q-2.32578 18.1346 -2.65323 18.0464Q-2.98067 17.9583 -3.30453 17.8486Q-3.62839 17.7388 -3.94787 17.6077Q-4.26736 17.4766 -4.5817 17.3244Q-4.89605 17.1722 -5.20449 16.9994Q-5.51294 16.8265 -5.81475 16.6334Q-6.11656 16.4403 -6.411 16.2274Q-6.70543 16.0144 -6.9918 15.7822Q-7.27816 15.55 -7.55575 15.299Q-7.83335 15.0481 -8.10151 14.779Q-8.36967 14.5099 -8.62775 14.2234Q-8.88583 13.9368 -9.1332 13.6335Q-9.38058 13.3302 -9.61665 13.0108Q-9.85273 12.6914 -10.0769 12.3567Q-10.3011 12.022 -10.5129 11.6728Q-10.7247 11.3237 -10.9236 10.9609Q-11.1225 10.5981 -11.308 10.2225Q-11.4935 9.84692 -11.6651 9.45949Q-11.8367 9.07206 -11.9941 8.6737Q-12.1515 8.27534 -12.2943 7.86701Q-12.437 7.45869 -12.5648 7.04137Q-12.6925 6.62406 -12.805 6.19877Q-12.9175 5.77348 -13.0144 5.34124Q-13.1113 4.90899 -13.1924 4.47084Q-13.2735 4.03268 -13.3387 3.58966Q-13.4038 3.14665 -13.4528 2.69984Q-13.5018 2.25303 -13.5345 1.80352Q-13.5672 1.354 -13.5836 0.902845Q-13.6 0.451695 -13.6 0Q-13.6 -0.451695 -13.5836 -0.902845Q-13.5672 -1.354 -13.5345 -1.80352Q-13.5018 -2.25303 -13.4528 -2.69984Q-13.4038 -3.14665 -13.3387 -3.58966Q-13.2735 -4.03268 -13.1924 -4.47083Q-13.1113 -4.90899 -13.0144 -5.34124Q-12.9175 -5.77348 -12.805 -6.19877Q-12.6925 -6.62406 -12.5648 -7.04137Q-12.437 -7.45869 -12.2943 -7.86701Q-12.1515 -8.27534 -11.9941 -8.6737Q-11.8367 -9.07206 -11.6651 -9.45949Q-11.4935 -9.84692 -11.308 -10.2225Q-11.1225 -10.5981 -10.9236 -10.9609Q-10.7247 -11.3237 -10.5129 -11.6728Q-10.3011 -12.022 -10.0769 -12.3567Q-9.85273 -12.6914 -9.61665 -13.0108Q-9.38058 -13.3302 -9.1332 -13.6335Q-8.88583 -13.9368 -8.62775 -14.2234Q-8.36967 -14.5099 -8.10151 -14.779Q-7.83335 -15.0481 -7.55575 -15.299Q-7.27816 -15.55 -6.9918 -15.7822Q-6.70543 -16.0144 -6.411 -16.2274Q-6.11656 -16.4403 -5.81475 -16.6334Q-5.51294 -16.8265 -5.20449 -16.9994Q-4.89605 -17.1722 -4.5817 -17.3244Q-4.26736 -17.4766 -3.94787 -17.6077Q-3.62839 -17.7388 -3.30453 -17.8486Q-2.98067 -17.9583 -2.65323 -18.0464Q-2.32578 -18.1346 -1.99553 -18.2008Q-1.66529 -18.2671 -1.33303 -18.3114Q-1.00078 -18.3557 -0.66732 -18.3778Q-0.333861 -18.4 0 -18.4Q0.333861 -18.4 0.66732 -18.3778Q1.00078 -18.3557 1.33303 -18.3114Q1.66529 -18.2671 1.99553 -18.2008Q2.32578 -18.1346 2.65323 -18.0464Q2.98067 -17.9583 3.30453 -17.8486Q3.62839 -17.7388 3.94787 -17.6077Q4.26736 -17.4766 4.5817 -17.3244Q4.89605 -17.1722 5.20449 -16.9994Q5.51294 -16.8265 5.81475 -16.6334Q6.11656 -16.4403 6.411 -16.2274Q6.70543 -16.0144 6.9918 -15.7822Q7.27816 -15.55 7.55575 -15.299Q7.83335 -15.0481 8.10151 -14.779Q8.36967 -14.5099 8.62775 -14.2234Q8.88583 -13.9368 9.1332 -13.6335Q9.38058 -13.3302 9.61665 -13.0108Q9.85273 -12.6914 10.0769 -12.3567Q10.3011 -12.022 10.5129 -11.6728Q10.7247 -11.3237 10.9236 -10.9609Q11.1225 -10.5981 11.308 -10.2225Q11.4935 -9.84692 11.6651 -9.45949Q11.8367 -9.07206 11.9941 -8.6737Q12.1515 -8.27534 12.2943 -7.86701Q12.437 -7.45869 12.5648 -7.04137Q12.6925 -6.62406 12.805 -6.19877Q12.9175 -5.77348 13.0144 -5.34124Q13.1113 -4.90899 13.1924 -4.47084Q13.2735 -4.03268 13.3387 -3.58966Q13.4038 -3.14665 13.4528 -2.69984Q13.5018 -2.25303 13.5345 -1.80352Q13.5672 -1.354 13.5836 -0.902845Q13.6 -0.451695 13.6 0"/>
	<path fill="none" stroke="#CFC295" stroke-width="3" stroke-linejoin="round" transform="matrix(1.42857 0 0 1.42857 55 47.8571)" d="M13.6 0Q13.6 0.451695 13.5836 0.902845Q13.5672 1.354 13.5345 1.80352Q13.5018 2.25303 13.4528 2.69984Q13.4038 3.14665 13.3387 3.58966Q13.2735 4.03268 13.1924 4.47083Q13.1113 4.90899 13.0144 5.34124Q12.9175 5.77348 12.805 6.19877Q12.6925 6.62406 12.5648 7.04137Q12.437 7.45869 12.2943 7.86701Q12.1515 8.27534 11.9941 8.6737Q11.8367 9.07206 11.6651 9.45949Q11.4935 9.84692 11.308 10.2225Q11.1225 10.5981 10.9236 10.9609Q10.7247 11.3237 10.5129 11.6728Q10.3011 12.022 10.0769 12.3567Q9.85273 12.6914 9.61665 13.0108Q9.38058 13.3302 9.1332 13.6335Q8.88583 13.9368 8.62775 14.2234Q8.36967 14.5099 8.10151 14.779Q7.83335 15.0481 7.55575 15.299Q7.27816 15.55 6.9918 15.7822Q6.70543 16.0144 6.411 16.2274Q6.11656 16.4403 5.81475 16.6334Q5.51294 16.8265 5.20449 16.9994Q4.89605 17.1722 4.5817 17.3244Q4.26736 17.4766 3.94787 17.6077Q3.62839 17.7388 3.30453 17.8486Q2.98067 17.9583 2.65323 18.0464Q2.32578 18.1346 1.99553 18.2008Q1.66529 18.2671 1.33303 18.3114Q1.00078 18.3557 0.66732 18.3778Q0.333861 18.4 0 18.4Q-0.333861 18.4 -0.66732 18.3778Q-1.00078 18.3557 -1.33303 18.3114Q-1.66529 18.2671 -1.99553 18.2008Q-2.32578 18.1346 -2.65323 18.0464Q-2.98067 17.9583 -3.30453 17.8486Q-3.62839 17.7388 -3.94787 17.6077Q-4.26736 17.4766 -4.5817 17.3244Q-4.89605 17.1722 -5.20449 16.9994Q-5.51294 16.8265 -5.81475 16.6334Q-6.11656 16.4403 -6.411 16.2274Q-6.70543 16.0144 -6.9918 15.7822Q-7.27816 15.55 -7.55575 15.299Q-7.83335 15.0481 -8.10151 14.779Q-8.36967 14.5099 -8.62775 14.2234Q-8.88583 13.9368 -9.1332 13.6335Q-9.38058 13.3302 -9.61665 13.0108Q-9.85273 12.6914 -10.0769 12.3567Q-10.3011 12.022 -10.5129 11.6728Q-10.7247 11.3237 -10.9236 10.9609Q-11.1225 10.5981 -11.308 10.2225Q-11.4935 9.84692 -11.6651 9.45949Q-11.8367 9.07206 -11.9941 8.6737Q-12.1515 8.27534 -12.2943 7.86701Q-12.437 7.45869 -12.5648 7.04137Q-12.6925 6.62406 -12.805 6.19877Q-12.9175 5.77348 -13.0144 5.34124Q-13.1113 4.90899 -13.1924 4.47084Q-13.2735 4.03268 -13.3387 3.58966Q-13.4038 3.14665 -13.4528 2.69984Q-13.5018 2.25303 -13.5345 1.80352Q-13.5672 1.354 -13.5836 0.902845Q-13.6 0.451695 -13.6 0Q-13.6 -0.451695 -13.5836 -0.902845Q-13.5672 -1.354 -13.5345 -1.80352Q-13.5018 -2.25303 -13.4528 -2.69984Q-13.4038 -3.14665 -13.3387 -3.58966Q-13.2735 -4.03268 -13.1924 -4.47083Q-13.1113 -4.90899 -13.0144 -5.34124Q-12.9175 -5.77348 -12.805 -6.19877Q-12.6925 -6.62406 -12.5648 -7.04137Q-12.437 -7.45869 -12.2943 -7.86701Q-12.1515 -8.27534 -11.9941 -8.6737Q-11.8367 -9.07206 -11.6651 -9.45949Q-11.4935 -9.84692 -11.308 -10.2225Q-11.1225 -10.5981 -10.9236 -10.9609Q-10.7247 -11.3237 -10.5129 -11.6728Q-10.3011 -12.022 -10.0769 -12.3567Q-9.85273 -12.6914 -9.61665 -13.0108Q-9.38058 -13.3302 -9.1332 -13.6335Q-8.88583 -13.9368 -8.62775 -14.2234Q-8.36967 -14.5099 -8.10151 -14.779Q-7.83335 -15.0481 -7.55575 -15.299Q-7.27816 -15.55 -6.9918 -15.7822Q-6.70543 -16.0144 -6.411 -16.2274Q-6.11656 -16.4403 -5.81475 -16.6334Q-5.51294 -16.8265 -5.20449 -16.9994Q-4.89605 -17.1722 -4.5817 -17.3244Q-4.26736 -17.4766 -3.94787 -17.6077Q-3.62839 -17.7388 -3.30453 -17.8486Q-2.98067 -17.9583 -2.65323 -18.0464Q-2.32578 -18.1346 -1.99553 -18.2008Q-1.66529 -18.2671 -1.33303 -18.3114Q-1.00078 -18.3557 -0.66732 -18.3778Q-0.333861 -18.4 0 -18.4Q0.333861 -18.4 0.66732 -18.3778Q1.00078 -18.3557 1.33303 -18.3114Q1.66529 -18.2671 1.99553 -18.2008Q2.32578 -18.1346 2.65323 -18.0464Q2.98067 -17.9583 3.30453 -17.8486Q3.62839 -17.7388 3.94787 -17.6077Q4.26736 -17.4766 4.5817 -17.3244Q4.89605 -17.1722 5.20449 -16.9994Q5.51294 -16.8265 5.81475 -16.6334Q6.11656 -16.4403 6.411 -16.2274Q6.70543 -16.0144 6.9918 -15.7822Q7.27816 -15.55 7.55575 -15.299Q7.83335 -15.0481 8.10151 -14.779Q8.36967 -14.5099 8.62775 -14.2234Q8.88583 -13.9368 9.1332 -13.6335Q9.38058 -13.3302 9.61665 -13.0108Q9.85273 -12.6914 10.0769 -12.3567Q10.3011 -12.022 10.5129 -11.6728Q10.7247 -11.3237 10.9236 -10.9609Q11.1225 -10.5981 11.308 -10.2225Q11.4935 -9.84692 11.6651 -9.45949Q11.8367 -9.07206 11.9941 -8.6737Q12.1515 -8.27534 12.2943 -7.86701Q12.437 -7.45869 12.5648 -7.04137Q12.6925 -6.62406 12.805 -6.19877Q12.9175 -5.77348 13.0144 -5.34124Q13.1113 -4.90899 13.1924 -4.47084Q13.2735 -4.03268 13.3387 -3.58966Q13.4038 -3.14665 13.4528 -2.69984Q13.5018 -2.25303 13.5345 -1.80352Q13.5672 -1.354 13.5836 -0.902845Q13.6 -0.451695 13.6 0"/>
	<path fill="none" stroke="black" stroke-width="2.3999999" stroke-linejoin="round" transform="translate(55 79.2857)" d="M-16.3384 7.43L-16.3384 -6.4323L-6.97807 -6.4323L-6.97807 -3.81023L-13.2183 -3.81023L-13.2183 -1.09051L-7.6812 -1.09051L-7.6812 1.46809L-13.2183 1.46809L-13.2183 4.80793L-6.51909 4.80793L-6.51909 7.43L-16.3384 7.43ZM-1.87956 1.82941Q-1.87956 4.32941 0.141922 4.32941Q0.600906 4.32941 1.0013 4.21223Q1.40169 4.09016 1.68001 3.92902L1.68001 -0.831719Q1.46028 -0.870781 1.15755 -0.900078Q0.859695 -0.929375 0.459305 -0.929375Q-0.722336 -0.929375 -1.30339 -0.148125Q-1.87956 0.628242 -1.87956 1.82941ZM4.65852 6.11164Q4.65852 8.68977 3.34993 9.93977Q2.04134 11.1898 -0.697922 11.1898Q-1.65984 11.1898 -2.62175 11.0189Q-3.57878 10.848 -4.39909 10.5696L-3.88152 8.06965Q-3.17839 8.34797 -2.41179 8.5091Q-1.6403 8.67023 -0.658859 8.67023Q0.620438 8.67023 1.14778 8.10871Q1.68001 7.55207 1.68001 6.66828L1.68001 6.2923Q1.20149 6.51203 0.688797 6.62434Q0.180984 6.73176 -0.419601 6.73176Q-2.60222 6.73176 -3.76433 5.4427Q-4.92155 4.14875 -4.92155 1.82941Q-4.92155 0.672187 -4.56023 -0.279961Q-4.1989 -1.23211 -3.51042 -1.91082Q-2.82195 -2.58953 -1.82097 -2.96063Q-0.819992 -3.33172 0.439774 -3.33172Q0.981766 -3.33172 1.54817 -3.27801Q2.11946 -3.22918 2.6761 -3.14617Q3.23763 -3.06805 3.74544 -2.95574Q4.25813 -2.84832 4.65852 -2.73113L4.65852 6.11164ZM10.0004 1.82941Q10.0004 4.32941 12.0219 4.32941Q12.4809 4.32941 12.8813 4.21223Q13.2817 4.09016 13.56 3.92902L13.56 -0.831719Q13.3403 -0.870781 13.0375 -0.900078Q12.7397 -0.929375 12.3393 -0.929375Q11.1577 -0.929375 10.5766 -0.148125Q10.0004 0.628242 10.0004 1.82941ZM16.5385 6.11164Q16.5385 8.68977 15.2299 9.93977Q13.9213 11.1898 11.1821 11.1898Q10.2202 11.1898 9.25824 11.0189Q8.30121 10.848 7.4809 10.5696L7.99847 8.06965Q8.7016 8.34797 9.4682 8.5091Q10.2397 8.67023 11.2211 8.67023Q12.5004 8.67023 13.0278 8.10871Q13.56 7.55207 13.56 6.66828L13.56 6.2923Q13.0815 6.51203 12.5688 6.62434Q12.061 6.73176 11.4604 6.73176Q9.27777 6.73176 8.11566 5.4427Q6.95844 4.14875 6.95844 1.82941Q6.95844 0.672187 7.31976 -0.279961Q7.68109 -1.23211 8.36957 -1.91082Q9.05804 -2.58953 10.059 -2.96063Q11.06 -3.33172 12.3198 -3.33172Q12.8618 -3.33172 13.4282 -3.27801Q13.9995 -3.22918 14.5561 -3.14617Q15.1176 -3.06805 15.6254 -2.95574Q16.1381 -2.84832 16.5385 -2.73113L16.5385 6.11164Z"/>
	<path fill="white" transform="translate(55 79.2857)" d="M-16.3384 7.43L-16.3384 -6.4323L-6.97807 -6.4323L-6.97807 -3.81023L-13.2183 -3.81023L-13.2183 -1.09051L-7.6812 -1.09051L-7.6812 1.46809L-13.2183 1.46809L-13.2183 4.80793L-6.51909 4.80793L-6.51909 7.43L-16.3384 7.43ZM-1.87956 1.82941Q-1.87956 4.32941 0.141922 4.32941Q0.600906 4.32941 1.0013 4.21223Q1.40169 4.09016 1.68001 3.92902L1.68001 -0.831719Q1.46028 -0.870781 1.15755 -0.900078Q0.859695 -0.929375 0.459305 -0.929375Q-0.722336 -0.929375 -1.30339 -0.148125Q-1.87956 0.628242 -1.87956 1.82941ZM4.65852 6.11164Q4.65852 8.68977 3.34993 9.93977Q2.04134 11.1898 -0.697922 11.1898Q-1.65984 11.1898 -2.62175 11.0189Q-3.57878 10.848 -4.39909 10.5696L-3.88152 8.06965Q-3.17839 8.34797 -2.41179 8.5091Q-1.6403 8.67023 -0.658859 8.67023Q0.620438 8.67023 1.14778 8.10871Q1.68001 7.55207 1.68001 6.66828L1.68001 6.2923Q1.20149 6.51203 0.688797 6.62434Q0.180984 6.73176 -0.419601 6.73176Q-2.60222 6.73176 -3.76433 5.4427Q-4.92155 4.14875 -4.92155 1.82941Q-4.92155 0.672187 -4.56023 -0.279961Q-4.1989 -1.23211 -3.51042 -1.91082Q-2.82195 -2.58953 -1.82097 -2.96063Q-0.819992 -3.33172 0.439774 -3.33172Q0.981766 -3.33172 1.54817 -3.27801Q2.11946 -3.22918 2.6761 -3.14617Q3.23763 -3.06805 3.74544 -2.95574Q4.25813 -2.84832 4.65852 -2.73113L4.65852 6.11164ZM10.0004 1.82941Q10.0004 4.32941 12.0219 4.32941Q12.4809 4.32941 12.8813 4.21223Q13.2817 4.09016 13.56 3.92902L13.56 -0.831719Q13.3403 -0.870781 13.0375 -0.900078Q12.7397 -0.929375 12.3393 -0.929375Q11.1577 -0.929375 10.5766 -0.148125Q10.0004 0.628242 10.0004 1.82941ZM16.5385 6.11164Q16.5385 8.68977 15.2299 9.93977Q13.9213 11.1898 11.1821 11.1898Q10.2202 11.1898 9.25824 11.0189Q8.30121 10.848 7.4809 10.5696L7.99847 8.06965Q8.7016 8.34797 9.4682 8.5091Q10.2397 8.67023 11.2211 8.67023Q12.5004 8.67023 13.0278 8.10871Q13.56 7.55207 13.56 6.66828L13.56 6.2923Q13.0815 6.51203 12.5688 6.62434Q12.061 6.73176 11.4604 6.73176Q9.27777 6.73176 8.11566 5.4427Q6.95844 4.14875 6.95844 1.82941Q6.95844 0.672187 7.31976 -0.279961Q7.68109 -1.23211 8.36957 -1.91082Q9.05804 -2.58953 10.059 -2.96063Q11.06 -3.33172 12.3198 -3.33172Q12.8618 -3.33172 13.4282 -3.27801Q13.9995 -3.22918 14.5561 -3.14617Q15.1176 -3.06805 15.6254 -2.95574Q16.1381 -2.84832 16.5385 -2.73113L16.5385 6.11164Z"/>
</svg>
