<?xml version="1.0" encoding="utf-8" ?>
<svg xmlns="http://www.w3.org/2000/svg" xmlns:xlink="http://www.w3.org/1999/xlink" width="110" height="110">
	<path fill="#FFF0B8" transform="matrix(1.42857 0 0 1.42857 55 47.8571)" d="M14.025 0Q14.025 0.46581 14.0081 0.931059Q13.9912 1.39631 13.9575 1.85988Q13.9237 2.32344 13.8732 2.78421Q13.8227 3.24498 13.7555 3.70184Q13.6883 4.1587 13.6047 4.61055Q13.521 5.0624 13.4211 5.50815Q13.3211 5.9539 13.2052 6.39248Q13.0892 6.83107 12.9574 7.26142Q12.8257 7.69177 12.6784 8.11286Q12.5312 8.53395 12.3689 8.94475Q12.2066 9.35556 12.0296 9.7551Q11.8526 10.1546 11.6614 10.5419Q11.4701 10.9293 11.265 11.3034Q11.0599 11.6775 10.8415 12.0376Q10.6231 12.3977 10.3918 12.7428Q10.1606 13.088 9.91717 13.4174Q9.67372 13.7467 9.41861 14.0595Q9.16351 14.3724 8.89737 14.6679Q8.63122 14.9634 8.35468 15.2409Q8.07814 15.5183 7.79187 15.7771Q7.5056 16.0359 7.21029 16.2754Q6.91498 16.5149 6.61134 16.7345Q6.3077 16.954 5.99646 17.1532Q5.68522 17.3524 5.36713 17.5306Q5.04905 17.7089 4.72488 17.8658Q4.40071 18.0227 4.07124 18.1579Q3.74177 18.2932 3.4078 18.4063Q3.07382 18.5195 2.73614 18.6104Q2.39846 18.7013 2.05789 18.7696Q1.71733 18.838 1.37469 18.8836Q1.03205 18.9293 0.688174 18.9521Q0.344294 18.975 0 18.975Q-0.344294 18.975 -0.688174 18.9521Q-1.03205 18.9293 -1.37469 18.8836Q-1.71733 18.838 -2.05789 18.7696Q-2.39846 18.7013 -2.73614 18.6104Q-3.07382 18.5195 -3.4078 18.4063Q-3.74177 18.2932 -4.07124 18.1579Q-4.40071 18.0227 -4.72488 17.8658Q-5.04905 17.7089 -5.36713 17.5306Q-5.68522 17.3524 -5.99646 17.1532Q-6.3077 16.954 -6.61134 16.7345Q-6.91498 16.5149 -7.21029 16.2754Q-7.5056 16.0359 -7.79187 15.7771Q-8.07814 15.5183 -8.35468 15.2409Q-8.63122 14.9634 -8.89737 14.6679Q-9.16351 14.3724 -9.41861 14.0595Q-9.67372 13.7467 -9.91717 13.4174Q-10.1606 13.088 -10.3918 12.7428Q-10.6231 12.3977 -10.8415 12.0376Q-11.0599 11.6775 -11.265 11.3034Q-11.4701 10.9293 -11.6614 10.5419Q-11.8526 10.1546 -12.0296 9.7551Q-12.2066 9.35556 -12.3689 8.94475Q-12.5312 8.53395 -12.6784 8.11286Q-12.8257 7.69177 -12.9574 7.26142Q-13.0892 6.83107 -13.2052 6.39248Q-13.3211 5.9539 -13.4211 5.50815Q-13.521 5.0624 -13.6047 4.61055Q-13.6883 4.1587 -13.7555 3.70184Q-13.8227 3.24498 -13.8732 2.78421Q-13.9237 2.32344 -13.9575 1.85988Q-13.9912 1.39631 -14.0081 0.931059Q-14.025 0.46581 -14.025 0Q-14.025 -0.46581 -14.0081 -0.931059Q-13.9912 -1.39631 -13.9575 -1.85988Q-13.9237 -2.32344 -13.8732 -2.78421Q-13.8227 -3.24498 -13.7555 -3.70184Q-13.6883 -4.1587 -13.6047 -4.61055Q-13.521 -5.0624 -13.4211 -5.50815Q-13.3211 -5.9539 -13.2052 -6.39248Q-13.0892 -6.83107 -12.9574 -7.26142Q-12.8257 -7.69177 -12.6784 -8.11286Q-12.5312 -8.53395 -12.3689 -8.94475Q-12.2066 -9.35556 -12.0296 -9.7551Q-11.8526 -10.1546 -11.6614 -10.5419Q-11.4701 -10.9293 -11.265 -11.3034Q-11.0599 -11.6775 -10.8415 -12.0376Q-10.6231 -12.3977 -10.3918 -12.7428Q-10.1606 -13.088 -9.91717 -13.4174Q-9.67372 -13.7467 -9.41861 -14.0595Q-9.16351 -14.3724 -8.89737 -14.6679Q-8.63122 -14.9634 -8.35468 -15.2409Q-8.07814 -15.5183 -7.79187 -15.7771Q-7.5056 -16.0359 -7.21029 -16.2754Q-6.91498 -16.5149 -6.61134 -16.7345Q-6.3077 -16.954 -5.99646 -17.1532Q-5.68522 -17.3524 -5.36713 -17.5306Q-5.04905 -17.7089 -4.72488 -17.8658Q-4.40071 -18.0227 -4.07124 -18.1579Q-3.74177 -18.2932 -3.4078 -18.4063Q-3.07382 -18.5195 -2.73614 -18.6104Q-2.39846 -18.7013 -2.05789 -18.7696Q-1.71733 -18.838 -1.37469 -18.8836Q-1.03205 -18.9293 -0.688174 -18.9521Q-0.344294 -18.975 0 -18.975Q0.344294 -18.975 0.688174 -18.9521Q1.03205 -18.9293 1.37469 -18.8836Q1.71733 -18.838 2.05789 -18.7696Q2.39846 -18.7013 2.73614 -18.6104Q3.07382 -18.5195 3.4078 -18.4063Q3.74177 -18.2932 4.07124 -18.1579Q4.40071 -18.0227 4.72488 -17.8658Q5.04905 -17.7089 5.36713 -17.5306Q5.68522 -17.3524 5.99646 -17.1532Q6.3077 -16.954 6.61134 -16.7345Q6.91498 -16.5149 7.21029 -16.2754Q7.5056 -16.0359 7.79187 -15.7771Q8.07814 -15.5183 8.35468 -15.2409Q8.63122 -14.9634 8.89737 -14.6679Q9.16351 -14.3724 9.41861 -14.0595Q9.67372 -13.7467 9.91717 -13.4174Q10.1606 -13.088 10.3918 -12.7428Q10.6231 -12.3977 10.8415 -12.0376Q11.0599 -11.6775 11.265 -11.3034Q11.4701 -10.9293 11.6614 -10.5419Q11.8526 -10.1546 12.0296 -9.7551Q12.2066 -9.35556 12.3689 -8.94475Q12.5312 -8.53395 12.6784 -8.11286Q12.8257 -7.69177 12.9574 -7.26142Q13.0892 -6.83107 13.2052 -6.39248Q13.3211 -5.9539 13.4211 -5.50815Q13.521 -5.0624 13.6047 -4.61055Q13.6883 -4.1587 13.7555 -3.70184Q13.8227 -3.24498 13.8732 -2.78421Q13.9237 -2.32344 13.9575 -1.85988Q13.9912 -1.39631 14.0081 -0.931059Q14.025 -0.46581 14.025 0"/>
	<path fill="none" stroke="#CFC295" stroke-width="3" stroke-linejoin="round" transform="matrix(1.42857 0 0 1.42857 55 47.8571)" d="M14.025 0Q14.025 0.46581 14.0081 0.931059Q13.9912 1.39631 13.9575 1.85988Q13.9237 2.32344 13.8732 2.78421Q13.8227 3.24498 13.7555 3.70184Q13.6883 4.1587 13.6047 4.61055Q13.521 5.0624 13.4211 5.50815Q13.3211 5.9539 13.2052 6.39248Q13.0892 6.83107 12.9574 7.26142Q12.8257 7.69177 12.6784 8.11286Q12.5312 8.53395 12.3689 8.94475Q12.2066 9.35556 12.0296 9.7551Q11.8526 10.1546 11.6614 10.5419Q11.4701 10.9293 11.265 11.3034Q11.0599 11.6775 10.8415 12.0376Q10.6231 12.3977 10.3918 12.7428Q10.1606 13.088 9.91717 13.4174Q9.67372 13.7467 9.41861 14.0595Q9.16351 14.3724 8.89737 14.6679Q8.63122 14.9634 8.35468 15.2409Q8.07814 15.5183 7.79187 15.7771Q7.5056 16.0359 7.21029 16.2754Q6.91498 16.5149 6.61134 16.7345Q6.3077 16.954 5.99646 17.1532Q5.68522 17.3524 5.36713 17.5306Q5.04905 17.7089 4.72488 17.8658Q4.40071 18.0227 4.07124 18.1579Q3.74177 18.2932 3.4078 18.4063Q3.07382 18.5195 2.73614 18.6104Q2.39846 18.7013 2.05789 18.7696Q1.71733 18.838 1.37469 18.8836Q1.03205 18.9293 0.688174 18.9521Q0.344294 18.975 0 18.975Q-0.344294 18.975 -0.688174 18.9521Q-1.03205 18.9293 -1.37469 18.8836Q-1.71733 18.838 -2.05789 18.7696Q-2.39846 18.7013 -2.73614 18.6104Q-3.07382 18.5195 -3.4078 18.4063Q-3.74177 18.2932 -4.07124 18.1579Q-4.40071 18.0227 -4.72488 17.8658Q-5.04905 17.7089 -5.36713 17.5306Q-5.68522 17.3524 -5.99646 17.1532Q-6.3077 16.954 -6.61134 16.7345Q-6.91498 16.5149 -7.21029 16.2754Q-7.5056 16.0359 -7.79187 15.7771Q-8.07814 15.5183 -8.35468 15.2409Q-8.63122 14.9634 -8.89737 14.6679Q-9.16351 14.3724 -9.41861 14.0595Q-9.67372 13.7467 -9.91717 13.4174Q-10.1606 13.088 -10.3918 12.7428Q-10.6231 12.3977 -10.8415 12.0376Q-11.0599 11.6775 -11.265 11.3034Q-11.4701 10.9293 -11.6614 10.5419Q-11.8526 10.1546 -12.0296 9.7551Q-12.2066 9.35556 -12.3689 8.94475Q-12.5312 8.53395 -12.6784 8.11286Q-12.8257 7.69177 -12.9574 7.26142Q-13.0892 6.83107 -13.2052 6.39248Q-13.3211 5.9539 -13.4211 5.50815Q-13.521 5.0624 -13.6047 4.61055Q-13.6883 4.1587 -13.7555 3.70184Q-13.8227 3.24498 -13.8732 2.78421Q-13.9237 2.32344 -13.9575 1.85988Q-13.9912 1.39631 -14.0081 0.931059Q-14.025 0.46581 -14.025 0Q-14.025 -0.46581 -14.0081 -0.931059Q-13.9912 -1.39631 -13.9575 -1.85988Q-13.9237 -2.32344 -13.8732 -2.78421Q-13.8227 -3.24498 -13.7555 -3.70184Q-13.6883 -4.1587 -13.6047 -4.61055Q-13.521 -5.0624 -13.4211 -5.50815Q-13.3211 -5.9539 -13.2052 -6.39248Q-13.0892 -6.83107 -12.9574 -7.26142Q-12.8257 -7.69177 -12.6784 -8.11286Q-12.5312 -8.53395 -12.3689 -8.94475Q-12.2066 -9.35556 -12.0296 -9.7551Q-11.8526 -10.1546 -11.6614 -10.5419Q-11.4701 -10.9293 -11.265 -11.3034Q-11.0599 -11.6775 -10.8415 -12.0376Q-10.6231 -12.3977 -10.3918 -12.7428Q-10.1606 -13.088 -9.91717 -13.4174Q-9.67372 -13.7467 -9.41861 -14.0595Q-9.16351 -14.3724 -8.89737 -14.6679Q-8.63122 -14.9634 -8.35468 -15.2409Q-8.07814 -15.5183 -7.79187 -15.7771Q-7.5056 -16.0359 -7.21029 -16.2754Q-6.91498 -16.5149 -6.61134 -16.7345Q-6.3077 -16.954 -5.99646 -17.1532Q-5.68522 -17.3524 -5.36713 -17.5306Q-5.04905 -17.7089 -4.72488 -17.8658Q-4.40071 -18.0227 -4.07124 -18.1579Q-3.74177 -18.2932 -3.4078 -18.4063Q-3.07382 -18.5195 -2.73614 -18.6104Q-2.39846 -18.7013 -2.05789 -18.7696Q-1.71733 -18.838 -1.37469 -18.8836Q-1.03205 -18.9293 -0.688174 -18.9521Q-0.344294 -18.975 0 -18.975Q0.344294 -18.975 0.688174 -18.9521Q1.03205 -18.9293 1.37469 -18.8836Q1.71733 -18.838 2.05789 -18.7696Q2.39846 -18.7013 2.73614 -18.6104Q3.07382 -18.5195 3.4078 -18.4063Q3.74177 -18.2932 4.07124 -18.1579Q4.40071 -18.0227 4.72488 -17.8658Q5.04905 -17.7089 5.36713 -17.5306Q5.68522 -17.3524 5.99646 -17.1532Q6.3077 -16.954 6.61134 -16.7345Q6.91498 -16.5149 7.21029 -16.2754Q7.5056 -16.0359 7.79187 -15.7771Q8.07814 -15.5183 8.35468 -15.2409Q8.63122 -14.9634 8.89737 -14.6679Q9.16351 -14.3724 9.41861 -14.0595Q9.67372 -13.7467 9.91717 -13.4174Q10.1606 -13.088 10.3918 -12.7428Q10.6231 -12.3977 10.8415 -12.0376Q11.0599 -11.6775 11.265 -11.3034Q11.4701 -10.9293 11.6614 -10.5419Q11.8526 -10.1546 12.0296 -9.7551Q12.2066 -9.35556 12.3689 -8.94475Q12.5312 -8.53395 12.6784 -8.11286Q12.8257 -7.69177 12.9574 -7.26142Q13.0892 -6.83107 13.2052 -6.39248Q13.3211 -5.9539 13.4211 -5.50815Q13.521 -5.0624 13.6047 -4.61055Q13.6883 -4.1587 13.7555 -3.70184Q13.8227 -3.24498 13.8732 -2.78421Q13.9237 -2.32344 13.9575 -1.85988Q13.9912 -1.39631 14.0081 -0.931059Q14.025 -0.46581 14.025 0"/>
	<path fill="none" stroke="black" stroke-width="2.3999999" stroke-linejoin="round" transform="translate(55 79.2857)" d="M-16.3384 7.43L-16.3384 -6.4323L-6.97807 -6.4323L-6.97807 -3.81023L-13.2183 -3.81023L-13.2183 -1.09051L-7.6812 -1.09051L-7.6812 1.46809L-13.2183 1.46809L-13.2183 4.80793L-6.51909 4.80793L-6.51909 7.43L-16.3384 7.43ZM-1.87956 1.82941Q-1.87956 4.32941 0.141922 4.32941Q0.600906 4.32941 1.0013 4.21223Q1.40169 4.09016 1.68001 3.92902L1.68001 -0.831719Q1.46028 -0.870781 1.15755 -0.900078Q0.859695 -0.929375 0.459305 -0.929375Q-0.722336 -0.929375 -1.30339 -0.148125Q-1.87956 0.628242 -1.87956 1.82941ZM4.65852 6.11164Q4.65852 8.68977 3.34993 9.93977Q2.04134 11.1898 -0.697922 11.1898Q-1.65984 11.1898 -2.62175 11.0189Q-3.57878 10.848 -4.39909 10.5696L-3.88152 8.06965Q-3.17839 8.34797 -2.41179 8.5091Q-1.6403 8.67023 -0.658859 8.67023Q0.620438 8.67023 1.14778 8.10871Q1.68001 7.55207 1.68001 6.66828L1.68001 6.2923Q1.20149 6.51203 0.688797 6.62434Q0.180984 6.73176 -0.419601 6.73176Q-2.60222 6.73176 -3.76433 5.4427Q-4.92155 4.14875 -4.92155 1.82941Q-4.92155 0.672187 -4.56023 -0.279961Q-4.1989 -1.23211 -3.51042 -1.91082Q-2.82195 -2.58953 -1.82097 -2.96063Q-0.819992 -3.33172 0.439774 -3.33172Q0.981766 -3.33172 1.54817 -3.27801Q2.11946 -3.22918 2.6761 -3.14617Q3.23763 -3.06805 3.74544 -2.95574Q4.25813 -2.84832 4.65852 -2.73113L4.65852 6.11164ZM10.0004 1.82941Q10.0004 4.32941 12.0219 4.32941Q12.4809 4.32941 12.8813 4.21223Q13.2817 4.09016 13.56 3.92902L13.56 -0.831719Q13.3403 -0.870781 13.0375 -0.900078Q12.7397 -0.929375 12.3393 -0.929375Q11.1577 -0.929375 10.5766 -0.148125Q10.0004 0.628242 10.0004 1.82941ZM16.5385 6.11164Q16.5385 8.68977 15.2299 9.93977Q13.9213 11.1898 11.1821 11.1898Q10.2202 11.1898 9.25824 11.0189Q8.30121 10.848 7.4809 10.5696L7.99847 8.06965Q8.7016 8.34797 9.4682 8.5091Q10.2397 8.67023 11.2211 8.67023Q12.5004 8.67023 13.0278 8.10871Q13.56 7.55207 13.56 6.66828L13.56 6.2923Q13.0815 6.51203 12.5688 6.62434Q12.061 6.73176 11.4604 6.73176Q9.27777 6.73176 8.11566 5.4427Q6.95844 4.14875 6.95844 1.82941Q6.95844 0.672187 7.31976 -0.279961Q7.68109 -1.23211 8.36957 -1.91082Q9.05804 -2.58953 10.059 -2.96063Q11.06 -3.33172 12.3198 -3.33172Q12.8618 -3.33172 13.4282 -3.27801Q13.9995 -3.22918 14.5561 -3.14617Q15.1176 -3.06805 15.6254 -2.95574Q16.1381 -2.84832 16.5385 -2.73113L16.5385 6.11164Z"/>
	<path fill="white" transform="translate(55 79.2857)" d="M-16.3384 7.43L-16.3384 -6.4323L-6.97807 -6.4323L-6.97807 -3.81023L-13.2183 -3.81023L-13.2183 -1.09051L-7.6812 -1.09051L-7.6812 1.46809L-13.2183 1.46809L-13.2183 4.80793L-6.51909 4.80793L-6.51909 7.43L-16.3384 7.43ZM-1.87956 1.82941Q-1.87956 4.32941 0.141922 4.32941Q0.600906 4.32941 1.0013 4.21223Q1.40169 4.09016 1.68001 3.92902L1.68001 -0.831719Q1.46028 -0.870781 1.15755 -0.900078Q0.859695 -0.929375 0.459305 -0.929375Q-0.722336 -0.929375 -1.30339 -0.148125Q-1.87956 0.628242 -1.87956 1.82941ZM4.65852 6.11164Q4.65852 8.68977 3.34993 9.93977Q2.04134 11.1898 -0.697922 11.1898Q-1.65984 11.1898 -2.62175 11.0189Q-3.57878 10.848 -4.39909 10.5696L-3.88152 8.06965Q-3.17839 8.34797 -2.41179 8.5091Q-1.6403 8.67023 -0.658859 8.67023Q0.620438 8.67023 1.14778 8.10871Q1.68001 7.55207 1.68001 6.66828L1.68001 6.2923Q1.20149 6.51203 0.688797 6.62434Q0.180984 6.73176 -0.419601 6.73176Q-2.60222 6.73176 -3.76433 5.4427Q-4.92155 4.14875 -4.92155 1.82941Q-4.92155 0.672187 -4.56023 -0.279961Q-4.1989 -1.23211 -3.51042 -1.91082Q-2.82195 -2.58953 -1.82097 -2.96063Q-0.819992 -3.33172 0.439774 -3.33172Q0.981766 -3.33172 1.54817 -3.27801Q2.11946 -3.22918 2.6761 -3.14617Q3.23763 -3.06805 3.74544 -2.95574Q4.25813 -2.84832 4.65852 -2.73113L4.65852 6.11164ZM10.0004 1.82941Q10.0004 4.32941 12.0219 4.32941Q12.4809 4.32941 12.8813 4.21223Q13.2817 4.09016 13.56 3.92902L13.56 -0.831719Q13.3403 -0.870781 13.0375 -0.900078Q12.7397 -0.929375 12.3393 -0.929375Q11.1577 -0.929375 10.5766 -0.148125Q10.0004 0.628242 10.0004 1.82941ZM16.5385 6.11164Q16.5385 8.68977 15.2299 9.93977Q13.9213 11.1898 11.1821 11.1898Q10.2202 11.1898 9.25824 11.0189Q8.30121 10.848 7.4809 10.5696L7.99847 8.06965Q8.7016 8.34797 9.4682 8.5091Q10.2397 8.67023 11.2211 8.67023Q12.5004 8.67023 13.0278 8.10871Q13.56 7.55207 13.56 6.66828L13.56 6.2923Q13.0815 6.51203 12.5688 6.62434Q12.061 6.73176 11.4604 6.73176Q9.27777 6.73176 8.11566 5.4427Q6.95844 4.14875 6.95844 1.82941Q6.95844 0.672187 7.31976 -0.279961Q7.68109 -1.23211 8.36957 -1.91082Q9.05804 -2.58953 10.059 -2.96063Q11.06 -3.33172 12.3198 -3.33172Q12.8618 -3.33172 13.4282 -3.27801Q13.9995 -3.22918 14.5561 -3.14617Q15.1176 -3.06805 15.6254 -2.95574Q16.1381 -2.84832 16.5385 -2.73113L16.5385 6.11164Z"/>
</svg>
