<?xml version="1.0" encoding="utf-8" ?>
<svg xmlns="http://www.w3.org/2000/svg" xmlns:xlink="http://www.w3.org/1999/xlink" width="110" height="110">
	<path fill="#FFF0B8" transform="matrix(1.42857 0 0 1.42857 55 47.8571)" d="M14.45 0Q14.45 0.479926 14.4326 0.959273Q14.4152 1.43862 14.3804 1.91623Q14.3456 2.39385 14.2936 2.86858Q14.2416 3.34331 14.1723 3.81402Q14.1031 4.28472 14.017 4.75026Q13.9308 5.21581 13.8278 5.67507Q13.7248 6.13433 13.6053 6.5862Q13.4858 7.03807 13.3501 7.48146Q13.2143 7.92485 13.0626 8.3587Q12.911 8.79255 12.7438 9.21581Q12.5765 9.63906 12.3942 10.0507Q12.2118 10.4624 12.0147 10.8614Q11.8177 11.2604 11.6063 11.6459Q11.395 12.0314 11.17 12.4024Q10.945 12.7734 10.7067 13.129Q10.4685 13.4846 10.2177 13.8239Q9.96686 14.1633 9.70403 14.4856Q9.44119 14.8079 9.16698 15.1124Q8.89277 15.4168 8.60785 15.7027Q8.32294 15.9886 8.02799 16.2552Q7.73304 16.5219 7.42878 16.7686Q7.12452 17.0153 6.81168 17.2416Q6.49884 17.4678 6.17817 17.673Q5.8575 17.8782 5.52977 18.0618Q5.20205 18.2455 4.86806 18.4072Q4.53407 18.5689 4.19461 18.7082Q3.85516 18.8475 3.51106 18.9641Q3.16697 19.0807 2.81905 19.1744Q2.47114 19.268 2.12025 19.3384Q1.76937 19.4088 1.41635 19.4559Q1.06333 19.5029 0.709028 19.5265Q0.354728 19.55 0 19.55Q-0.354728 19.55 -0.709028 19.5265Q-1.06333 19.5029 -1.41635 19.4559Q-1.76937 19.4088 -2.12025 19.3384Q-2.47114 19.268 -2.81905 19.1744Q-3.16697 19.0807 -3.51106 18.9641Q-3.85516 18.8475 -4.19461 18.7082Q-4.53407 18.5689 -4.86806 18.4072Q-5.20205 18.2455 -5.52977 18.0618Q-5.8575 17.8782 -6.17817 17.673Q-6.49884 17.4678 -6.81168 17.2416Q-7.12452 17.0153 -7.42878 16.7686Q-7.73304 16.5219 -8.02799 16.2552Q-8.32293 15.9886 -8.60785 15.7027Q-8.89277 15.4168 -9.16698 15.1124Q-9.44119 14.8079 -9.70403 14.4856Q-9.96686 14.1633 -10.2177 13.8239Q-10.4685 13.4846 -10.7067 13.129Q-10.945 12.7734 -11.17 12.4024Q-11.395 12.0314 -11.6063 11.6459Q-11.8177 11.2604 -12.0147 10.8614Q-12.2118 10.4624 -12.3942 10.0507Q-12.5765 9.63906 -12.7438 9.21581Q-12.911 8.79255 -13.0626 8.3587Q-13.2143 7.92485 -13.3501 7.48146Q-13.4858 7.03807 -13.6053 6.5862Q-13.7248 6.13433 -13.8278 5.67507Q-13.9308 5.21581 -14.0169 4.75026Q-14.1031 4.28472 -14.1723 3.81402Q-14.2416 3.34331 -14.2936 2.86858Q-14.3456 2.39385 -14.3804 1.91623Q-14.4152 1.43862 -14.4326 0.959273Q-14.45 0.479926 -14.45 0Q-14.45 -0.479926 -14.4326 -0.959273Q-14.4152 -1.43862 -14.3804 -1.91623Q-14.3456 -2.39385 -14.2936 -2.86858Q-14.2416 -3.34331 -14.1723 -3.81402Q-14.1031 -4.28472 -14.017 -4.75026Q-13.9308 -5.21581 -13.8278 -5.67507Q-13.7248 -6.13433 -13.6053 -6.5862Q-13.4858 -7.03807 -13.3501 -7.48146Q-13.2143 -7.92485 -13.0626 -8.3587Q-12.911 -8.79255 -12.7438 -9.21581Q-12.5765 -9.63906 -12.3942 -10.0507Q-12.2118 -10.4624 -12.0147 -10.8614Q-11.8177 -11.2604 -11.6063 -11.6459Q-11.395 -12.0314 -11.17 -12.4024Q-10.945 -12.7734 -10.7067 -13.129Q-10.4685 -13.4846 -10.2177 -13.8239Q-9.96686 -14.1633 -9.70403 -14.4856Q-9.44119 -14.8079 -9.16698 -15.1124Q-8.89277 -15.4168 -8.60785 -15.7027Q-8.32294 -15.9886 -8.02799 -16.2552Q-7.73304 -16.5219 -7.42878 -16.7686Q-7.12452 -17.0153 -6.81168 -17.2416Q-6.49884 -17.4678 -6.17817 -17.673Q-5.8575 -17.8782 -5.52977 -18.0618Q-5.20205 -18.2455 -4.86806 -18.4072Q-4.53407 -18.5689 -4.19461 -18.7082Q-3.85516 -18.8475 -3.51106 -18.9641Q-3.16697 -19.0807 -2.81905 -19.1744Q-2.47114 -19.268 -2.12025 -19.3384Q-1.76937 -19.4088 -1.41635 -19.4559Q-1.06333 -19.5029 -0.709028 -19.5265Q-0.354728 -19.55 0 -19.55Q0.354728 -19.55 0.709028 -19.5265Q1.06333 -19.5029 1.41635 -19.4559Q1.76937 -19.4088 2.12025 -19.3384Q2.47114 -19.268 2.81905 -19.1744Q3.16697 -19.0807 3.51106 -18.9641Q3.85516 -18.8475 4.19461 -18.7082Q4.53407 -18.5689 4.86806 -18.4072Q5.20205 -18.2455 5.52977 -18.0618Q5.8575 -17.8782 6.17817 -17.673Q6.49884 -17.4678 6.81168 -17.2416Q7.12452 -17.0153 7.42878 -16.7686Q7.73304 -16.5219 8.02799 -16.2552Q8.32293 -15.9886 8.60785 -15.7027Q8.89277 -15.4168 9.16698 -15.1124Q9.44119 -14.8079 9.70403 -14.4856Q9.96686 -14.1633 10.2177 -13.8239Q10.4685 -13.4846 10.7067 -13.129Q10.945 -12.7734 11.17 -12.4024Q11.395 -12.0314 11.6063 -11.6459Q11.8177 -11.2604 12.0147 -10.8614Q12.2118 -10.4624 12.3942 -10.0507Q12.5765 -9.63906 12.7438 -9.21581Q12.911 -8.79255 13.0626 -8.3587Q13.2143 -7.92485 13.3501 -7.48146Q13.4858 -7.03807 13.6053 -6.5862Q13.7248 -6.13433 13.8278 -5.67507Q13.9308 -5.21581 14.0169 -4.75026Q14.1031 -4.28472 14.1723 -3.81402Q14.2416 -3.34331 14.2936 -2.86858Q14.3456 -2.39385 14.3804 -1.91623Q14.4152 -1.43862 14.4326 -0.959273Q14.45 -0.479926 14.45 0"/>
	<path fill="none" stroke="#CFC295" stroke-width="3" stroke-linejoin="round" transform="matrix(1.42857 0 0 1.42857 55 47.8571)" d="M14.45 0Q14.45 0.479926 14.4326 0.959273Q14.4152 1.43862 14.3804 1.91623Q14.3456 2.39385 14.2936 2.86858Q14.2416 3.34331 14.1723 3.81402Q14.1031 4.28472 14.017 4.75026Q13.9308 5.21581 13.8278 5.67507Q13.7248 6.13433 13.6053 6.5862Q13.4858 7.03807 13.3501 7.48146Q13.2143 7.92485 13.0626 8.3587Q12.911 8.79255 12.7438 9.21581Q12.5765 9.63906 12.3942 10.0507Q12.2118 10.4624 12.0147 10.8614Q11.8177 11.2604 11.6063 11.6459Q11.395 12.0314 11.17 12.4024Q10.945 12.7734 10.7067 13.129Q10.4685 13.4846 10.2177 13.8239Q9.96686 14.1633 9.70403 14.4856Q9.44119 14.8079 9.16698 15.1124Q8.89277 15.4168 8.60785 15.7027Q8.32294 15.9886 8.02799 16.2552Q7.73304 16.5219 7.42878 16.7686Q7.12452 17.0153 6.81168 17.2416Q6.49884 17.4678 6.17817 17.673Q5.8575 17.8782 5.52977 18.0618Q5.20205 18.2455 4.86806 18.4072Q4.53407 18.5689 4.19461 18.7082Q3.85516 18.8475 3.51106 18.9641Q3.16697 19.0807 2.81905 19.1744Q2.47114 19.268 2.12025 19.3384Q1.76937 19.4088 1.41635 19.4559Q1.06333 19.5029 0.709028 19.5265Q0.354728 19.55 0 19.55Q-0.354728 19.55 -0.709028 19.5265Q-1.06333 19.5029 -1.41635 19.4559Q-1.76937 19.4088 -2.12025 19.3384Q-2.47114 19.268 -2.81905 19.1744Q-3.16697 19.0807 -3.51106 18.9641Q-3.85516 18.8475 -4.19461 18.7082Q-4.53407 18.5689 -4.86806 18.4072Q-5.20205 18.2455 -5.52977 18.0618Q-5.8575 17.8782 -6.17817 17.673Q-6.49884 17.4678 -6.81168 17.2416Q-7.12452 17.0153 -7.42878 16.7686Q-7.73304 16.5219 -8.02799 16.2552Q-8.32293 15.9886 -8.60785 15.7027Q-8.89277 15.4168 -9.16698 15.1124Q-9.44119 14.8079 -9.70403 14.4856Q-9.96686 14.1633 -10.2177 13.8239Q-10.4685 13.4846 -10.7067 13.129Q-10.945 12.7734 -11.17 12.4024Q-11.395 12.0314 -11.6063 11.6459Q-11.8177 11.2604 -12.0147 10.8614Q-12.2118 10.4624 -12.3942 10.0507Q-12.5765 9.63906 -12.7438 9.21581Q-12.911 8.79255 -13.0626 8.3587Q-13.2143 7.92485 -13.3501 7.48146Q-13.4858 7.03807 -13.6053 6.5862Q-13.7248 6.13433 -13.8278 5.67507Q-13.9308 5.21581 -14.0169 4.75026Q-14.1031 4.28472 -14.1723 3.81402Q-14.2416 3.34331 -14.2936 2.86858Q-14.3456 2.39385 -14.3804 1.91623Q-14.4152 1.43862 -14.4326 0.959273Q-14.45 0.479926 -14.45 0Q-14.45 -0.479926 -14.4326 -0.959273Q-14.4152 -1.43862 -14.3804 -1.91623Q-14.3456 -2.39385 -14.2936 -2.86858Q-14.2416 -3.34331 -14.1723 -3.81402Q-14.1031 -4.28472 -14.017 -4.75026Q-13.9308 -5.21581 -13.8278 -5.67507Q-13.7248 -6.13433 -13.6053 -6.5862Q-13.4858 -7.03807 -13.3501 -7.48146Q-13.2143 -7.92485 -13.0626 -8.3587Q-12.911 -8.79255 -12.7438 -9.21581Q-12.5765 -9.63906 -12.3942 -10.0507Q-12.2118 -10.4624 -12.0147 -10.8614Q-11.8177 -11.2604 -11.6063 -11.6459Q-11.395 -12.0314 -11.17 -12.4024Q-10.945 -12.7734 -10.7067 -13.129Q-10.4685 -13.4846 -10.2177 -13.8239Q-9.96686 -14.1633 -9.70403 -14.4856Q-9.44119 -14.8079 -9.16698 -15.1124Q-8.89277 -15.4168 -8.60785 -15.7027Q-8.32294 -15.9886 -8.02799 -16.2552Q-7.73304 -16.5219 -7.42878 -16.7686Q-7.12452 -17.0153 -6.81168 -17.2416Q-6.49884 -17.4678 -6.17817 -17.673Q-5.8575 -17.8782 -5.52977 -18.0618Q-5.20205 -18.2455 -4.86806 -18.4072Q-4.53407 -18.5689 -4.19461 -18.7082Q-3.85516 -18.8475 -3.51106 -18.9641Q-3.16697 -19.0807 -2.81905 -19.1744Q-2.47114 -19.268 -2.12025 -19.3384Q-1.76937 -19.4088 -1.41635 -19.4559Q-1.06333 -19.5029 -0.709028 -19.5265Q-0.354728 -19.55 0 -19.55Q0.354728 -19.55 0.709028 -19.5265Q1.06333 -19.5029 1.41635 -19.4559Q1.76937 -19.4088 2.12025 -19.3384Q2.47114 -19.268 2.81905 -19.1744Q3.16697 -19.0807 3.51106 -18.9641Q3.85516 -18.8475 4.19461 -18.7082Q4.53407 -18.5689 4.86806 -18.4072Q5.20205 -18.2455 5.52977 -18.0618Q5.8575 -17.8782 6.17817 -17.673Q6.49884 -17.4678 6.81168 -17.2416Q7.12452 -17.0153 7.42878 -16.7686Q7.73304 -16.5219 8.02799 -16.2552Q8.32293 -15.9886 8.60785 -15.7027Q8.89277 -15.4168 9.16698 -15.1124Q9.44119 -14.8079 9.70403 -14.4856Q9.96686 -14.1633 10.2177 -13.8239Q10.4685 -13.4846 10.7067 -13.129Q10.945 -12.7734 11.17 -12.4024Q11.395 -12.0314 11.6063 -11.6459Q11.8177 -11.2604 12.0147 -10.8614Q12.2118 -10.4624 12.3942 -10.0507Q12.5765 -9.63906 12.7438 -9.21581Q12.911 -8.79255 13.0626 -8.3587Q13.2143 -7.92485 13.3501 -7.48146Q13.4858 -7.03807 13.6053 -6.5862Q13.7248 -6.13433 13.8278 -5.67507Q13.9308 -5.21581 14.0169 -4.75026Q14.1031 -4.28472 14.1723 -3.81402Q14.2416 -3.34331 14.2936 -2.86858Q14.3456 -2.39385 14.3804 -1.91623Q14.4152 -1.43862 14.4326 -0.959273Q14.45 -0.479926 14.45 0"/>
	<path fill="none" stroke="black" stroke-width="2.3999999" stroke-linejoin="round" transform="translate(55 79.2857)" d="M-16.3384 7.43L-16.3384 -6.4323L-6.97807 -6.4323L-6.97807 -3.81023L-13.2183 -3.81023L-13.2183 -1.09051L-7.6812 -1.09051L-7.6812 1.46809L-13.2183 1.46809L-13.2183 4.80793L-6.51909 4.80793L-6.51909 7.43L-16.3384 7.43ZM-1.87956 1.82941Q-1.87956 4.32941 0.141922 4.32941Q0.600906 4.32941 1.0013 4.21223Q1.40169 4.09016 1.68001 3.92902L1.68001 -0.831719Q1.46028 -0.870781 1.15755 -0.900078Q0.859695 -0.929375 0.459305 -0.929375Q-0.722336 -0.929375 -1.30339 -0.148125Q-1.87956 0.628242 -1.87956 1.82941ZM4.65852 6.11164Q4.65852 8.68977 3.34993 9.93977Q2.04134 11.1898 -0.697922 11.1898Q-1.65984 11.1898 -2.62175 11.0189Q-3.57878 10.848 -4.39909 10.5696L-3.88152 8.06965Q-3.17839 8.34797 -2.41179 8.5091Q-1.6403 8.67023 -0.658859 8.67023Q0.620438 8.67023 1.14778 8.10871Q1.68001 7.55207 1.68001 6.66828L1.68001 6.2923Q1.20149 6.51203 0.688797 6.62434Q0.180984 6.73176 -0.419601 6.73176Q-2.60222 6.73176 -3.76433 5.4427Q-4.92155 4.14875 -4.92155 1.82941Q-4.92155 0.672187 -4.56023 -0.279961Q-4.1989 -1.23211 -3.51042 -1.91082Q-2.82195 -2.58953 -1.82097 -2.96063Q-0.819992 -3.33172 0.439774 -3.33172Q0.981766 -3.33172 1.54817 -3.27801Q2.11946 -3.22918 2.6761 -3.14617Q3.23763 -3.06805 3.74544 -2.95574Q4.25813 -2.84832 4.65852 -2.73113L4.65852 6.11164ZM10.0004 1.82941Q10.0004 4.32941 12.0219 4.32941Q12.4809 4.32941 12.8813 4.21223Q13.2817 4.09016 13.56 3.92902L13.56 -0.831719Q13.3403 -0.870781 13.0375 -0.900078Q12.7397 -0.929375 12.3393 -0.929375Q11.1577 -0.929375 10.5766 -0.148125Q10.0004 0.628242 10.0004 1.82941ZM16.5385 6.11164Q16.5385 8.68977 15.2299 9.93977Q13.9213 11.1898 11.1821 11.1898Q10.2202 11.1898 9.25824 11.0189Q8.30121 10.848 7.4809 10.5696L7.99847 8.06965Q8.7016 8.34797 9.4682 8.5091Q10.2397 8.67023 11.2211 8.67023Q12.5004 8.67023 13.0278 8.10871Q13.56 7.55207 13.56 6.66828L13.56 6.2923Q13.0815 6.51203 12.5688 6.62434Q12.061 6.73176 11.4604 6.73176Q9.27777 6.73176 8.11566 5.4427Q6.95844 4.14875 6.95844 1.82941Q6.95844 0.672187 7.31976 -0.279961Q7.68109 -1.23211 8.36957 -1.91082Q9.05804 -2.58953 10.059 -2.96063Q11.06 -3.33172 12.3198 -3.33172Q12.8618 -3.33172 13.4282 -3.27801Q13.9995 -3.22918 14.5561 -3.14617Q15.1176 -3.06805 15.6254 -2.95574Q16.1381 -2.84832 16.5385 -2.73113L16.5385 6.11164Z"/>
	<path fill="white" transform="translate(55 79.2857)" d="M-16.3384 7.43L-16.3384 -6.4323L-6.97807 -6.4323L-6.97807 -3.81023L-13.2183 -3.81023L-13.2183 -1.09051L-7.6812 -1.09051L-7.6812 1.46809L-13.2183 1.46809L-13.2183 4.80793L-6.51909 4.80793L-6.51909 7.43L-16.3384 7.43ZM-1.87956 1.82941Q-1.87956 4.32941 0.141922 4.32941Q0.600906 4.32941 1.0013 4.21223Q1.40169 4.09016 1.68001 3.92902L1.68001 -0.831719Q1.46028 -0.870781 1.15755 -0.900078Q0.859695 -0.929375 0.459305 -0.929375Q-0.722336 -0.929375 -1.30339 -0.148125Q-1.87956 0.628242 -1.87956 1.82941ZM4.65852 6.11164Q4.65852 8.68977 3.34993 9.93977Q2.04134 11.1898 -0.697922 11.1898Q-1.65984 11.1898 -2.62175 11.0189Q-3.57878 10.848 -4.39909 10.5696L-3.88152 8.06965Q-3.17839 8.34797 -2.41179 8.5091Q-1.6403 8.67023 -0.658859 8.67023Q0.620438 8.67023 1.14778 8.10871Q1.68001 7.55207 1.68001 6.66828L1.68001 6.2923Q1.20149 6.51203 0.688797 6.62434Q0.180984 6.73176 -0.419601 6.73176Q-2.60222 6.73176 -3.76433 5.4427Q-4.92155 4.14875 -4.92155 1.82941Q-4.92155 0.672187 -4.56023 -0.279961Q-4.1989 -1.23211 -3.51042 -1.91082Q-2.82195 -2.58953 -1.82097 -2.96063Q-0.819992 -3.33172 0.439774 -3.33172Q0.981766 -3.33172 1.54817 -3.27801Q2.11946 -3.22918 2.6761 -3.14617Q3.23763 -3.06805 3.74544 -2.95574Q4.25813 -2.84832 4.65852 -2.73113L4.65852 6.11164ZM10.0004 1.82941Q10.0004 4.32941 12.0219 4.32941Q12.4809 4.32941 12.8813 4.21223Q13.2817 4.09016 13.56 3.92902L13.56 -0.831719Q13.3403 -0.870781 13.0375 -0.900078Q12.7397 -0.929375 12.3393 -0.929375Q11.1577 -0.929375 10.5766 -0.148125Q10.0004 0.628242 10.0004 1.82941ZM16.5385 6.11164Q16.5385 8.68977 15.2299 9.93977Q13.9213 11.1898 11.1821 11.1898Q10.2202 11.1898 9.25824 11.0189Q8.30121 10.848 7.4809 10.5696L7.99847 8.06965Q8.7016 8.34797 9.4682 8.5091Q10.2397 8.67023 11.2211 8.67023Q12.5004 8.67023 13.0278 8.10871Q13.56 7.55207 13.56 6.66828L13.56 6.2923Q13.0815 6.51203 12.5688 6.62434Q12.061 6.73176 11.4604 6.73176Q9.27777 6.73176 8.11566 5.4427Q6.95844 4.14875 6.95844 1.82941Q6.95844 0.672187 7.31976 -0.279961Q7.68109 -1.23211 8.36957 -1.91082Q9.05804 -2.58953 10.059 -2.96063Q11.06 -3.33172 12.3198 -3.33172Q12.8618 -3.33172 13.4282 -3.27801Q13.9995 -3.22918 14.5561 -3.14617Q15.1176 -3.06805 15.6254 -2.95574Q16.1381 -2.84832 16.5385 -2.73113L16.5385 6.11164Z"/>
</svg>
