<?xml version="1.0" encoding="utf-8" ?>
<svg xmlns="http://www.w3.org/2000/svg" xmlns:xlink="http://www.w3.org/1999/xlink" width="110" height="110">
	<path fill="#111" transform="matrix(0 -1.42857 1.42857 0 55 97.8571)" d="M25 -5Q40 -10 50 -15Q40 -5 25 -5Z"/>
	<path fill="none" stroke="#111" stroke-width="3" stroke-linecap="round" stroke-linejoin="round" transform="matrix(0 -1.42857 1.42857 0 55 97.8571)" d="M25 -5Q40 -10 50 -15Q40 -5 25 -5Z"/>
	<path fill="#111" transform="matrix(0 -1.42857 1.42857 0 55 97.8571)" d="M25 5Q40 10 50 15Q40 5 25 5Z"/>
	<path fill="none" stroke="#111" stroke-width="3" stroke-linecap="round" stroke-linejoin="round" transform="matrix(0 -1.42857 1.42857 0 55 97.8571)" d="M25 5Q40 10 50 15Q40 5 25 5Z"/>
	<path fill="none" stroke="black" stroke-width="1.8857143" stroke-linejoin="round" transform="translate(55 79.2857)" d="M-27.9858 5.83786Q-28.1584 5.27389 -28.3694 4.6754Q-28.5805 4.07691 -28.7876 3.48225L-33.0308 3.48225Q-33.2341 4.07691 -33.4451 4.6754Q-33.6561 5.27389 -33.8288 5.83786L-36.3762 5.83786Q-35.7624 4.07691 -35.2138 2.58451Q-34.6651 1.09211 -34.1395 -0.227643Q-33.6101 -1.5474 -33.0998 -2.73287Q-32.5896 -3.92219 -32.041 -5.05395L-29.6969 -5.05395Q-29.1636 -3.92219 -28.6457 -2.73287Q-28.1277 -1.5474 -27.6021 -0.227643Q-27.0727 1.09211 -26.5241 2.58451Q-25.9716 4.07691 -25.3616 5.83786L-27.9858 5.83786ZM-30.9246 -2.58325Q-31.0013 -2.34922 -31.1586 -1.93872Q-31.3159 -1.53205 -31.523 -0.994942Q-31.7264 -0.461669 -31.9719 0.182862Q-32.2136 0.823557 -32.463 1.53331L-29.3669 1.53331Q-29.6201 0.823557 -29.858 0.182862Q-30.092 -0.461669 -30.303 -0.994942Q-30.514 -1.53205 -30.6713 -1.93872Q-30.8286 -2.34922 -30.9246 -2.58325ZM-24.1104 -2.14589Q-23.5158 -2.31853 -22.572 -2.46816Q-21.6282 -2.61778 -20.5924 -2.61778Q-19.5373 -2.61778 -18.8391 -2.34155Q-18.1408 -2.06532 -17.7342 -1.56274Q-17.3237 -1.06016 -17.151 -0.369593Q-16.9784 0.320976 -16.9784 1.16884L-16.9784 5.83786L-19.3186 5.83786L-19.3186 1.45274Q-19.3186 0.320976 -19.6179 -0.147076Q-19.9171 -0.618965 -20.7343 -0.618965Q-20.9837 -0.618965 -21.2676 -0.595946Q-21.5515 -0.572927 -21.7702 -0.542235L-21.7702 5.83786L-24.1104 5.83786L-24.1104 -2.14589ZM-14.9418 -4.48615L-12.5977 -4.86213L-12.5977 -2.42595L-9.78555 -2.42595L-9.78555 -0.480852L-12.5977 -0.480852L-12.5977 2.42721Q-12.5977 3.16766 -12.3407 3.60885Q-12.0798 4.04621 -11.2933 4.04621Q-10.9173 4.04621 -10.5183 3.97716Q-10.1155 3.90426 -9.78555 3.77766L-9.45561 5.60383Q-9.88147 5.77647 -10.3994 5.89924Q-10.9173 6.02585 -11.6731 6.02585Q-12.6322 6.02585 -13.2614 5.7688Q-13.8868 5.50792 -14.2666 5.0437Q-14.6426 4.57949 -14.7922 3.91961Q-14.9418 3.25973 -14.9418 2.4579L-14.9418 -4.48615ZM-8.28417 1.76733Q-8.28417 0.666261 -7.94656 -0.158586Q-7.60894 -0.983432 -7.06032 -1.53205Q-6.50787 -2.08067 -5.79428 -2.36457Q-5.07686 -2.64847 -4.32107 -2.64847Q-2.56395 -2.64847 -1.54344 -1.57042Q-0.519099 -0.496197 -0.519099 1.59469Q-0.519099 1.79803 -0.534446 2.04356Q-0.549791 2.28526 -0.568974 2.47325L-5.87868 2.47325Q-5.80195 3.19835 -5.20346 3.6242Q-4.60497 4.04621 -3.59981 4.04621Q-2.95527 4.04621 -2.3376 3.93112Q-1.71609 3.81219 -1.32093 3.63954L-1.00633 5.53861Q-1.19432 5.63452 -1.50892 5.73043Q-1.82351 5.82251 -2.21099 5.89157Q-2.59464 5.96446 -3.03584 6.0105Q-3.4732 6.05654 -3.9144 6.05654Q-5.03082 6.05654 -5.85567 5.7266Q-6.68051 5.39666 -7.22529 4.82502Q-7.76624 4.24955 -8.02712 3.4669Q-8.28417 2.68042 -8.28417 1.76733ZM-2.78263 0.873432Q-2.79798 0.574185 -2.88622 0.290284Q-2.97062 0.00638342 -3.15094 -0.212297Q-3.33125 -0.430977 -3.60748 -0.572927Q-3.88371 -0.714878 -4.29037 -0.714878Q-4.68553 -0.714878 -4.96943 -0.5806Q-5.2495 -0.446323 -5.43749 -0.227643Q-5.62547 -0.00896263 -5.72906 0.282611Q-5.83265 0.574185 -5.87868 0.873432L-2.78263 0.873432ZM1.28166 -2.14589Q1.87632 -2.31853 2.8201 -2.46816Q3.76387 -2.61778 4.79973 -2.61778Q5.85476 -2.61778 6.55301 -2.34155Q7.25125 -2.06532 7.65792 -1.56274Q8.06842 -1.06016 8.24107 -0.369593Q8.41371 0.320976 8.41371 1.16884L8.41371 5.83786L6.07344 5.83786L6.07344 1.45274Q6.07344 0.320976 5.7742 -0.147076Q5.47495 -0.618965 4.65778 -0.618965Q4.40841 -0.618965 4.12451 -0.595946Q3.8406 -0.572927 3.62192 -0.542235L3.62192 5.83786L1.28166 5.83786L1.28166 -2.14589ZM10.5309 -2.14589Q11.1255 -2.31853 12.0693 -2.46816Q13.0131 -2.61778 14.0489 -2.61778Q15.104 -2.61778 15.8022 -2.34155Q16.5004 -2.06532 16.9071 -1.56274Q17.3176 -1.06016 17.4903 -0.369593Q17.6629 0.320976 17.6629 1.16884L17.6629 5.83786L15.3226 5.83786L15.3226 1.45274Q15.3226 0.320976 15.0234 -0.147076Q14.7241 -0.618965 13.907 -0.618965Q13.6576 -0.618965 13.3737 -0.595946Q13.0898 -0.572927 12.8711 -0.542235L12.8711 5.83786L10.5309 5.83786L10.5309 -2.14589ZM22.9375 4.20351Q23.2828 4.20351 23.5974 4.18816Q23.9119 4.17282 24.0999 4.14213L24.0999 2.36583Q23.958 2.33514 23.6741 2.30444Q23.394 2.26992 23.1562 2.26992Q22.8262 2.26992 22.5346 2.31212Q22.2469 2.35048 22.0244 2.46174Q21.8057 2.56916 21.6791 2.75715Q21.5563 2.94514 21.5563 3.22904Q21.5563 3.77766 21.9246 3.9925Q22.2929 4.20351 22.9375 4.20351ZM22.7495 -2.64847Q23.7853 -2.64847 24.4759 -2.41061Q25.1703 -2.17658 25.5847 -1.73539Q26.0028 -1.29803 26.1755 -0.66884Q26.3481 -0.0396543 26.3481 0.731481L26.3481 5.60383Q25.8455 5.71125 24.9478 5.86088Q24.0539 6.0105 22.7802 6.0105Q21.9784 6.0105 21.3262 5.86855Q20.6739 5.7266 20.2021 5.40433Q19.7302 5.08207 19.477 4.56414Q19.2276 4.04621 19.2276 3.29042Q19.2276 2.56916 19.5192 2.06658Q19.8107 1.564 20.298 1.26475Q20.7852 0.965508 21.4144 0.835066Q22.0436 0.700789 22.7188 0.700789Q23.1715 0.700789 23.5245 0.739154Q23.8813 0.777519 24.0999 0.838903L24.0999 0.620223Q24.0999 0.0217295 23.7393 -0.338901Q23.3787 -0.699532 22.4809 -0.699532Q21.8863 -0.699532 21.3031 -0.611292Q20.72 -0.526889 20.298 -0.369593L19.9987 -2.25331Q20.2021 -2.31853 20.509 -2.38759Q20.8159 -2.46048 21.1765 -2.51419Q21.5372 -2.5679 21.9362 -2.60627Q22.339 -2.64847 22.7495 -2.64847ZM28.0688 1.76733Q28.0688 0.666261 28.4064 -0.158586Q28.744 -0.983432 29.2926 -1.53205Q29.8451 -2.08067 30.5586 -2.36457Q31.2761 -2.64847 32.0319 -2.64847Q33.789 -2.64847 34.8095 -1.57042Q35.8338 -0.496197 35.8338 1.59469Q35.8338 1.79803 35.8185 2.04356Q35.8031 2.28526 35.7839 2.47325L30.4742 2.47325Q30.551 3.19835 31.1495 3.6242Q31.748 4.04621 32.7531 4.04621Q33.3976 4.04621 34.0153 3.93112Q34.6368 3.81219 35.032 3.63954L35.3466 5.53861Q35.1586 5.63452 34.844 5.73043Q34.5294 5.82251 34.1419 5.89157Q33.7583 5.96446 33.3171 6.0105Q32.8797 6.05654 32.4385 6.05654Q31.3221 6.05654 30.4973 5.7266Q29.6724 5.39666 29.1276 4.82502Q28.5867 4.24955 28.3258 3.4669Q28.0688 2.68042 28.0688 1.76733ZM33.5703 0.873432Q33.5549 0.574185 33.4667 0.290284Q33.3823 0.00638342 33.202 -0.212297Q33.0217 -0.430977 32.7454 -0.572927Q32.4692 -0.714878 32.0625 -0.714878Q31.6674 -0.714878 31.3835 -0.5806Q31.1034 -0.446323 30.9154 -0.227643Q30.7274 -0.00896263 30.6239 0.282611Q30.5203 0.574185 30.4742 0.873432L33.5703 0.873432Z"/>
	<path fill="white" transform="translate(55 79.2857)" d="M-27.9858 5.83786Q-28.1584 5.27389 -28.3694 4.6754Q-28.5805 4.07691 -28.7876 3.48225L-33.0308 3.48225Q-33.2341 4.07691 -33.4451 4.6754Q-33.6561 5.27389 -33.8288 5.83786L-36.3762 5.83786Q-35.7624 4.07691 -35.2138 2.58451Q-34.6651 1.09211 -34.1395 -0.227643Q-33.6101 -1.5474 -33.0998 -2.73287Q-32.5896 -3.92219 -32.041 -5.05395L-29.6969 -5.05395Q-29.1636 -3.92219 -28.6457 -2.73287Q-28.1277 -1.5474 -27.6021 -0.227643Q-27.0727 1.09211 -26.5241 2.58451Q-25.9716 4.07691 -25.3616 5.83786L-27.9858 5.83786ZM-30.9246 -2.58325Q-31.0013 -2.34922 -31.1586 -1.93872Q-31.3159 -1.53205 -31.523 -0.994942Q-31.7264 -0.461669 -31.9719 0.182862Q-32.2136 0.823557 -32.463 1.53331L-29.3669 1.53331Q-29.6201 0.823557 -29.858 0.182862Q-30.092 -0.461669 -30.303 -0.994942Q-30.514 -1.53205 -30.6713 -1.93872Q-30.8286 -2.34922 -30.9246 -2.58325ZM-24.1104 -2.14589Q-23.5158 -2.31853 -22.572 -2.46816Q-21.6282 -2.61778 -20.5924 -2.61778Q-19.5373 -2.61778 -18.8391 -2.34155Q-18.1408 -2.06532 -17.7342 -1.56274Q-17.3237 -1.06016 -17.151 -0.369593Q-16.9784 0.320976 -16.9784 1.16884L-16.9784 5.83786L-19.3186 5.83786L-19.3186 1.45274Q-19.3186 0.320976 -19.6179 -0.147076Q-19.9171 -0.618965 -20.7343 -0.618965Q-20.9837 -0.618965 -21.2676 -0.595946Q-21.5515 -0.572927 -21.7702 -0.542235L-21.7702 5.83786L-24.1104 5.83786L-24.1104 -2.14589ZM-14.9418 -4.48615L-12.5977 -4.86213L-12.5977 -2.42595L-9.78555 -2.42595L-9.78555 -0.480852L-12.5977 -0.480852L-12.5977 2.42721Q-12.5977 3.16766 -12.3407 3.60885Q-12.0798 4.04621 -11.2933 4.04621Q-10.9173 4.04621 -10.5183 3.97716Q-10.1155 3.90426 -9.78555 3.77766L-9.45561 5.60383Q-9.88147 5.77647 -10.3994 5.89924Q-10.9173 6.02585 -11.6731 6.02585Q-12.6322 6.02585 -13.2614 5.7688Q-13.8868 5.50792 -14.2666 5.0437Q-14.6426 4.57949 -14.7922 3.91961Q-14.9418 3.25973 -14.9418 2.4579L-14.9418 -4.48615ZM-8.28417 1.76733Q-8.28417 0.666261 -7.94656 -0.158586Q-7.60894 -0.983432 -7.06032 -1.53205Q-6.50787 -2.08067 -5.79428 -2.36457Q-5.07686 -2.64847 -4.32107 -2.64847Q-2.56395 -2.64847 -1.54344 -1.57042Q-0.519099 -0.496197 -0.519099 1.59469Q-0.519099 1.79803 -0.534446 2.04356Q-0.549791 2.28526 -0.568974 2.47325L-5.87868 2.47325Q-5.80195 3.19835 -5.20346 3.6242Q-4.60497 4.04621 -3.59981 4.04621Q-2.95527 4.04621 -2.3376 3.93112Q-1.71609 3.81219 -1.32093 3.63954L-1.00633 5.53861Q-1.19432 5.63452 -1.50892 5.73043Q-1.82351 5.82251 -2.21099 5.89157Q-2.59464 5.96446 -3.03584 6.0105Q-3.4732 6.05654 -3.9144 6.05654Q-5.03082 6.05654 -5.85567 5.7266Q-6.68051 5.39666 -7.22529 4.82502Q-7.76624 4.24955 -8.02712 3.4669Q-8.28417 2.68042 -8.28417 1.76733ZM-2.78263 0.873432Q-2.79798 0.574185 -2.88622 0.290284Q-2.97062 0.00638342 -3.15094 -0.212297Q-3.33125 -0.430977 -3.60748 -0.572927Q-3.88371 -0.714878 -4.29037 -0.714878Q-4.68553 -0.714878 -4.96943 -0.5806Q-5.2495 -0.446323 -5.43749 -0.227643Q-5.62547 -0.00896263 -5.72906 0.282611Q-5.83265 0.574185 -5.87868 0.873432L-2.78263 0.873432ZM1.28166 -2.14589Q1.87632 -2.31853 2.8201 -2.46816Q3.76387 -2.61778 4.79973 -2.61778Q5.85476 -2.61778 6.55301 -2.34155Q7.25125 -2.06532 7.65792 -1.56274Q8.06842 -1.06016 8.24107 -0.369593Q8.41371 0.320976 8.41371 1.16884L8.41371 5.83786L6.07344 5.83786L6.07344 1.45274Q6.07344 0.320976 5.7742 -0.147076Q5.47495 -0.618965 4.65778 -0.618965Q4.40841 -0.618965 4.12451 -0.595946Q3.8406 -0.572927 3.62192 -0.542235L3.62192 5.83786L1.28166 5.83786L1.28166 -2.14589ZM10.5309 -2.14589Q11.1255 -2.31853 12.0693 -2.46816Q13.0131 -2.61778 14.0489 -2.61778Q15.104 -2.61778 15.8022 -2.34155Q16.5004 -2.06532 16.9071 -1.56274Q17.3176 -1.06016 17.4903 -0.369593Q17.6629 0.320976 17.6629 1.16884L17.6629 5.83786L15.3226 5.83786L15.3226 1.45274Q15.3226 0.320976 15.0234 -0.147076Q14.7241 -0.618965 13.907 -0.618965Q13.6576 -0.618965 13.3737 -0.595946Q13.0898 -0.572927 12.8711 -0.542235L12.8711 5.83786L10.5309 5.83786L10.5309 -2.14589ZM22.9375 4.20351Q23.2828 4.20351 23.5974 4.18816Q23.9119 4.17282 24.0999 4.14213L24.0999 2.36583Q23.958 2.33514 23.6741 2.30444Q23.394 2.26992 23.1562 2.26992Q22.8262 2.26992 22.5346 2.31212Q22.2469 2.35048 22.0244 2.46174Q21.8057 2.56916 21.6791 2.75715Q21.5563 2.94514 21.5563 3.22904Q21.5563 3.77766 21.9246 3.9925Q22.2929 4.20351 22.9375 4.20351ZM22.7495 -2.64847Q23.7853 -2.64847 24.4759 -2.41061Q25.1703 -2.17658 25.5847 -1.73539Q26.0028 -1.29803 26.1755 -0.66884Q26.3481 -0.0396543 26.3481 0.731481L26.3481 5.60383Q25.8455 5.71125 24.9478 5.86088Q24.0539 6.0105 22.7802 6.0105Q21.9784 6.0105 21.3262 5.86855Q20.6739 5.7266 20.2021 5.40433Q19.7302 5.08207 19.477 4.56414Q19.2276 4.04621 19.2276 3.29042Q19.2276 2.56916 19.5192 2.06658Q19.8107 1.564 20.298 1.26475Q20.7852 0.965508 21.4144 0.835066Q22.0436 0.700789 22.7188 0.700789Q23.1715 0.700789 23.5245 0.739154Q23.8813 0.777519 24.0999 0.838903L24.0999 0.620223Q24.0999 0.0217295 23.7393 -0.338901Q23.3787 -0.699532 22.4809 -0.699532Q21.8863 -0.699532 21.3031 -0.611292Q20.72 -0.526889 20.298 -0.369593L19.9987 -2.25331Q20.2021 -2.31853 20.509 -2.38759Q20.8159 -2.46048 21.1765 -2.51419Q21.5372 -2.5679 21.9362 -2.60627Q22.339 -2.64847 22.7495 -2.64847ZM28.0688 1.76733Q28.0688 0.666261 28.4064 -0.158586Q28.744 -0.983432 29.2926 -1.53205Q29.8451 -2.08067 30.5586 -2.36457Q31.2761 -2.64847 32.0319 -2.64847Q33.789 -2.64847 34.8095 -1.57042Q35.8338 -0.496197 35.8338 1.59469Q35.8338 1.79803 35.8185 2.04356Q35.8031 2.28526 35.7839 2.47325L30.4742 2.47325Q30.551 3.19835 31.1495 3.6242Q31.748 4.04621 32.7531 4.04621Q33.3976 4.04621 34.0153 3.93112Q34.6368 3.81219 35.032 3.63954L35.3466 5.53861Q35.1586 5.63452 34.844 5.73043Q34.5294 5.82251 34.1419 5.89157Q33.7583 5.96446 33.3171 6.0105Q32.8797 6.05654 32.4385 6.05654Q31.3221 6.05654 30.4973 5.7266Q29.6724 5.39666 29.1276 4.82502Q28.5867 4.24955 28.3258 3.4669Q28.0688 2.68042 28.0688 1.76733ZM33.5703 0.873432Q33.5549 0.574185 33.4667 0.290284Q33.3823 0.00638342 33.202 -0.212297Q33.0217 -0.430977 32.7454 -0.572927Q32.4692 -0.714878 32.0625 -0.714878Q31.6674 -0.714878 31.3835 -0.5806Q31.1034 -0.446323 30.9154 -0.227643Q30.7274 -0.00896263 30.6239 0.282611Q30.5203 0.574185 30.4742 0.873432L33.5703 0.873432Z"/>
</svg>
