<?xml version="1.0" encoding="utf-8" ?>
<svg xmlns="http://www.w3.org/2000/svg" xmlns:xlink="http://www.w3.org/1999/xlink" width="110" height="110">
	<path fill="white" transform="matrix(0.77186 1.2021 -1.2021 0.77186 55 47.8571)" d="M11 0Q4.31976 3.13849 3.39919 10.4616Q-1.65 5.07818 -8.89919 6.46564Q-5.33951 -5.72205e-07 -8.89919 -6.46564Q-1.65 -5.07818 3.39919 -10.4616Q4.31976 -3.13849 11 1.9233e-06L11 0Z"/>
	<path fill="#CFCFCF" transform="matrix(0.77186 1.2021 -1.2021 0.77186 55 47.8571)" d="M11.6378 1.35763Q5.70504 4.14496 4.88747 10.6487Q4.87828 10.7218 4.86197 10.7937Q4.84566 10.8655 4.82238 10.9355Q4.7991 11.0054 4.76908 11.0727Q4.73906 11.14 4.70259 11.204Q4.66612 11.268 4.62355 11.3282Q4.58097 11.3883 4.53271 11.444Q4.48445 11.4997 4.43096 11.5504Q4.37747 11.6011 4.31927 11.6463Q4.26107 11.6915 4.19873 11.7308Q4.13638 11.77 4.07048 11.803Q4.00458 11.836 3.93576 11.8624Q3.86695 11.8887 3.79588 11.9082Q3.72482 11.9277 3.65218 11.9401Q3.57955 11.9526 3.50604 11.9578Q3.43254 11.9631 3.35888 11.9611Q3.28521 11.9591 3.2121 11.9499Q2.95188 11.9172 2.7182 11.7981Q2.48452 11.6791 2.3051 11.4878Q-2.17913 6.70668 -8.61721 7.9389Q-8.68959 7.95275 -8.76298 7.95944Q-8.83636 7.96613 -8.91005 7.9656Q-8.98374 7.96506 -9.05702 7.95731Q-9.1303 7.94956 -9.20247 7.93466Q-9.27464 7.91976 -9.345 7.89786Q-9.41536 7.87596 -9.48323 7.84726Q-9.55111 7.81857 -9.61584 7.78336Q-9.68058 7.74816 -9.74155 7.70677Q-9.80253 7.66539 -9.85915 7.61823Q-9.91577 7.57107 -9.9675 7.51859Q-10.0192 7.46611 -10.0656 7.40881Q-10.1119 7.35151 -10.1524 7.28994Q-10.1929 7.22837 -10.2272 7.16313Q-10.2614 7.0979 -10.2891 7.02961Q-10.3168 6.96133 -10.3377 6.89066Q-10.3586 6.81999 -10.3724 6.74761Q-10.4217 6.49002 -10.3807 6.23099Q-10.3397 5.97195 -10.2132 5.7422Q-7.05182 1.90735e-06 -10.2132 -5.7422Q-10.2487 -5.80676 -10.2778 -5.87448Q-10.3068 -5.94221 -10.3291 -6.01246Q-10.3514 -6.0827 -10.3666 -6.15479Q-10.3819 -6.22688 -10.39 -6.30012Q-10.3982 -6.37336 -10.3991 -6.44705Q-10.4 -6.52073 -10.3937 -6.59415Q-10.3874 -6.66757 -10.3739 -6.74002Q-10.3604 -6.81247 -10.3399 -6.88324Q-10.3194 -6.95402 -10.292 -7.02245Q-10.2647 -7.09087 -10.2307 -7.15628Q-10.1968 -7.2217 -10.1566 -7.28347Q-10.1164 -7.34525 -10.0704 -7.40279Q-10.0244 -7.46032 -9.97291 -7.51307Q-9.92145 -7.56582 -9.86507 -7.61327Q-9.80869 -7.66072 -9.74793 -7.70242Q-9.68718 -7.74412 -9.62262 -7.77966Q-9.39287 -7.90614 -9.13384 -7.94717Q-8.8748 -7.9882 -8.61721 -7.9389Q-2.17913 -6.70668 2.30511 -11.4878Q2.35552 -11.5415 2.41096 -11.5901Q2.46639 -11.6386 2.52632 -11.6815Q2.58625 -11.7244 2.65009 -11.7612Q2.71394 -11.798 2.78108 -11.8283Q2.84822 -11.8587 2.91802 -11.8824Q2.98781 -11.906 3.05959 -11.9227Q3.13137 -11.9394 3.20443 -11.9489Q3.2775 -11.9585 3.35115 -11.9609Q3.42481 -11.9632 3.49834 -11.9583Q3.57186 -11.9535 3.64456 -11.9414Q3.71726 -11.9294 3.78843 -11.9102Q3.85959 -11.8911 3.92854 -11.8651Q3.99749 -11.8391 4.06356 -11.8065Q4.12963 -11.7738 4.19218 -11.7349Q4.25473 -11.6959 4.31316 -11.651Q4.37159 -11.6061 4.42534 -11.5557Q4.61663 -11.3763 4.7357 -11.1426Q4.85476 -10.9089 4.88748 -10.6487Q5.70504 -4.14495 11.6378 -1.35763Q11.7045 -1.32629 11.7678 -1.28857Q11.8311 -1.25085 11.8904 -1.20711Q11.9497 -1.16336 12.0045 -1.11402Q12.0592 -1.06467 12.1088 -1.0102Q12.1585 -0.955723 12.2025 -0.896648Q12.2466 -0.837572 12.2846 -0.774464Q12.3226 -0.711355 12.3543 -0.644822Q12.386 -0.578288 12.411 -0.508969Q12.436 -0.439651 12.4541 -0.368215Q12.4722 -0.29678 12.4832 -0.223915Q12.4942 -0.151051 12.498 -0.0774586Q12.5018 -0.00386667 12.4984 0.0697439Q12.495 0.143354 12.4843 0.216275Q12.4737 0.289195 12.456 0.360723Q12.4383 0.432251 12.4136 0.501697Q12.389 0.571143 12.3576 0.637839Q12.2461 0.875212 12.0607 1.06066Q11.8752 1.24611 11.6378 1.35763L11.6378 1.35763ZM10.3622 -1.35763L11 1.9233e-06L10.3622 1.35763Q2.93447 -2.13202 1.9109 -10.2745L3.39919 -10.4616L4.49327 -9.43547Q-1.12087 -3.44968 -9.18116 -4.99238L-8.89919 -6.46564L-7.58517 -7.18907Q-3.6272 0 -7.58517 7.18907L-8.89919 6.46564L-9.18116 4.99238Q-1.12087 3.44968 4.49327 9.43547L3.39919 10.4616L1.9109 10.2745Q2.93447 2.13202 10.3622 -1.35763L10.3622 -1.35763Z"/>
	<path fill="none" stroke="black" stroke-width="2.3999999" stroke-linejoin="round" transform="translate(55 79.2857)" d="M-10.4615 -4.94793Q-10.2223 -4.12762 -9.9342 -3.09734Q-9.64123 -2.07195 -9.31408 -0.968438Q-8.98205 0.130195 -8.64025 1.23371Q-8.29845 2.33234 -7.98107 3.26984Q-7.72228 2.24934 -7.45373 1.05305Q-7.18029 -0.148125 -6.94103 -1.42742Q-6.70177 -2.7116 -6.47228 -3.98113Q-6.23791 -5.25066 -6.03771 -6.4323L-2.80041 -6.4323Q-3.49865 -2.95086 -4.41174 0.633125Q-5.31994 4.21223 -6.37951 7.43L-9.24084 7.43Q-9.93908 5.51105 -10.6031 3.40168Q-11.2623 1.2923 -11.902 -0.831719Q-12.5416 1.2923 -13.1813 3.40168Q-13.8209 5.51105 -14.5192 7.43L-17.3805 7.43Q-18.4401 4.21223 -19.3531 0.633125Q-20.2613 -2.95086 -20.9596 -6.4323L-17.5807 -6.4323Q-17.3805 -5.25066 -17.1412 -3.98113Q-16.902 -2.7116 -16.6432 -1.42742Q-16.3795 -0.148125 -16.111 1.05305Q-15.8424 2.24934 -15.5592 3.26984Q-15.1979 2.2884 -14.861 1.18977Q-14.5192 0.0911326 -14.2018 -1.0075Q-13.8795 -2.11102 -13.611 -3.13152Q-13.3424 -4.15203 -13.1178 -4.94793L-10.4615 -4.94793ZM-1.50156 2.24934Q-1.50156 0.847969 -1.07188 -0.201836Q-0.642189 -1.25164 0.0560532 -1.94988Q0.759178 -2.64813 1.66738 -3.00945Q2.58047 -3.37078 3.54238 -3.37078Q5.77871 -3.37078 7.07754 -1.99871Q8.38125 -0.631524 8.38125 2.02961Q8.38125 2.2884 8.36172 2.6009Q8.34219 2.90852 8.31777 3.14777L1.55996 3.14777Q1.65762 4.07062 2.41933 4.61262Q3.18105 5.14973 4.46035 5.14973Q5.28066 5.14973 6.0668 5.00324Q6.85781 4.85187 7.36074 4.63215L7.76113 7.04914Q7.52187 7.17121 7.12148 7.29328Q6.72109 7.41047 6.22793 7.49836Q5.73965 7.59113 5.17812 7.64973Q4.62148 7.70832 4.05996 7.70832Q2.63906 7.70832 1.58926 7.2884Q0.539452 6.86848 -0.153908 6.14094Q-0.842384 5.40852 -1.17442 4.41242Q-1.50156 3.41145 -1.50156 2.24934ZM5.50039 1.11164Q5.48086 0.730781 5.36855 0.369453Q5.26113 0.00812483 5.03164 -0.270195Q4.80215 -0.548516 4.45058 -0.72918Q4.09902 -0.909844 3.58144 -0.909844Q3.07851 -0.909844 2.71719 -0.738945Q2.36074 -0.568047 2.12148 -0.289727Q1.88223 -0.0114064 1.75039 0.359687Q1.61855 0.730781 1.55996 1.11164L5.50039 1.11164ZM17.4196 2.0882Q17.4196 -0.787774 15.3005 -0.787774Q14.8415 -0.787774 14.3874 -0.665703Q13.9382 -0.548516 13.6599 -0.367852L13.6599 5.05207Q13.8796 5.09113 14.2165 5.12043Q14.5583 5.14973 14.9587 5.14973Q16.1794 5.14973 16.7995 4.30988Q17.4196 3.47004 17.4196 2.0882ZM20.4616 2.17121Q20.4616 3.43098 20.0905 4.45148Q19.7194 5.47199 19.0163 6.19465Q18.3181 6.91242 17.2976 7.30305Q16.2819 7.68879 14.9782 7.68879Q14.4411 7.68879 13.8503 7.63996Q13.2595 7.59113 12.6882 7.50812Q12.1218 7.43 11.5993 7.32258Q11.0817 7.21027 10.6814 7.0882L10.6814 -7.60906L13.6599 -8.08758L13.6599 -2.84832Q14.1579 -3.06805 14.6999 -3.19012Q15.2419 -3.31219 15.862 -3.31219Q16.9802 -3.31219 17.8396 -2.92156Q18.6989 -2.53094 19.28 -1.80828Q19.861 -1.09051 20.1589 -0.0797658Q20.4616 0.930976 20.4616 2.17121Z"/>
	<path fill="white" transform="translate(55 79.2857)" d="M-10.4615 -4.94793Q-10.2223 -4.12762 -9.9342 -3.09734Q-9.64123 -2.07195 -9.31408 -0.968438Q-8.98205 0.130195 -8.64025 1.23371Q-8.29845 2.33234 -7.98107 3.26984Q-7.72228 2.24934 -7.45373 1.05305Q-7.18029 -0.148125 -6.94103 -1.42742Q-6.70177 -2.7116 -6.47228 -3.98113Q-6.23791 -5.25066 -6.03771 -6.4323L-2.80041 -6.4323Q-3.49865 -2.95086 -4.41174 0.633125Q-5.31994 4.21223 -6.37951 7.43L-9.24084 7.43Q-9.93908 5.51105 -10.6031 3.40168Q-11.2623 1.2923 -11.902 -0.831719Q-12.5416 1.2923 -13.1813 3.40168Q-13.8209 5.51105 -14.5192 7.43L-17.3805 7.43Q-18.4401 4.21223 -19.3531 0.633125Q-20.2613 -2.95086 -20.9596 -6.4323L-17.5807 -6.4323Q-17.3805 -5.25066 -17.1412 -3.98113Q-16.902 -2.7116 -16.6432 -1.42742Q-16.3795 -0.148125 -16.111 1.05305Q-15.8424 2.24934 -15.5592 3.26984Q-15.1979 2.2884 -14.861 1.18977Q-14.5192 0.0911326 -14.2018 -1.0075Q-13.8795 -2.11102 -13.611 -3.13152Q-13.3424 -4.15203 -13.1178 -4.94793L-10.4615 -4.94793ZM-1.50156 2.24934Q-1.50156 0.847969 -1.07188 -0.201836Q-0.642189 -1.25164 0.0560532 -1.94988Q0.759178 -2.64813 1.66738 -3.00945Q2.58047 -3.37078 3.54238 -3.37078Q5.77871 -3.37078 7.07754 -1.99871Q8.38125 -0.631524 8.38125 2.02961Q8.38125 2.2884 8.36172 2.6009Q8.34219 2.90852 8.31777 3.14777L1.55996 3.14777Q1.65762 4.07062 2.41933 4.61262Q3.18105 5.14973 4.46035 5.14973Q5.28066 5.14973 6.0668 5.00324Q6.85781 4.85187 7.36074 4.63215L7.76113 7.04914Q7.52187 7.17121 7.12148 7.29328Q6.72109 7.41047 6.22793 7.49836Q5.73965 7.59113 5.17812 7.64973Q4.62148 7.70832 4.05996 7.70832Q2.63906 7.70832 1.58926 7.2884Q0.539452 6.86848 -0.153908 6.14094Q-0.842384 5.40852 -1.17442 4.41242Q-1.50156 3.41145 -1.50156 2.24934ZM5.50039 1.11164Q5.48086 0.730781 5.36855 0.369453Q5.26113 0.00812483 5.03164 -0.270195Q4.80215 -0.548516 4.45058 -0.72918Q4.09902 -0.909844 3.58144 -0.909844Q3.07851 -0.909844 2.71719 -0.738945Q2.36074 -0.568047 2.12148 -0.289727Q1.88223 -0.0114064 1.75039 0.359687Q1.61855 0.730781 1.55996 1.11164L5.50039 1.11164ZM17.4196 2.0882Q17.4196 -0.787774 15.3005 -0.787774Q14.8415 -0.787774 14.3874 -0.665703Q13.9382 -0.548516 13.6599 -0.367852L13.6599 5.05207Q13.8796 5.09113 14.2165 5.12043Q14.5583 5.14973 14.9587 5.14973Q16.1794 5.14973 16.7995 4.30988Q17.4196 3.47004 17.4196 2.0882ZM20.4616 2.17121Q20.4616 3.43098 20.0905 4.45148Q19.7194 5.47199 19.0163 6.19465Q18.3181 6.91242 17.2976 7.30305Q16.2819 7.68879 14.9782 7.68879Q14.4411 7.68879 13.8503 7.63996Q13.2595 7.59113 12.6882 7.50812Q12.1218 7.43 11.5993 7.32258Q11.0817 7.21027 10.6814 7.0882L10.6814 -7.60906L13.6599 -8.08758L13.6599 -2.84832Q14.1579 -3.06805 14.6999 -3.19012Q15.2419 -3.31219 15.862 -3.31219Q16.9802 -3.31219 17.8396 -2.92156Q18.6989 -2.53094 19.28 -1.80828Q19.861 -1.09051 20.1589 -0.0797658Q20.4616 0.930976 20.4616 2.17121Z"/>
</svg>
