<?xml version="1.0" encoding="utf-8" ?>
<svg xmlns="http://www.w3.org/2000/svg" xmlns:xlink="http://www.w3.org/1999/xlink" width="110" height="110">
	<path fill="none" stroke="#2E933C" stroke-width="3" stroke-linecap="round" stroke-linejoin="round" transform="matrix(0.77186 -1.2021 1.2021 0.77186 55 47.8571)" d="M-15 0L-20 0"/>
	<path fill="#39B54A" transform="matrix(0.77186 -1.2021 1.2021 0.77186 55 47.8571)" d="M-15 0C-10 -12 5 -12 15 0C5 12 -10 12 -15 0Z"/>
	<path fill="none" stroke="#2E933C" stroke-width="3" stroke-linecap="round" stroke-linejoin="round" transform="matrix(0.77186 -1.2021 1.2021 0.77186 55 47.8571)" d="M-15 0C-10 -12 5 -12 15 0C5 12 -10 12 -15 0Z"/>
	<path fill="none" stroke="#2E933C" stroke-width="3" stroke-linecap="round" stroke-linejoin="round" transform="matrix(0.77186 -1.2021 1.2021 0.77186 55 47.8571)" d="M-9 0Q0 -1.5 7.5 0"/>
	<path fill="none" stroke="black" stroke-width="2.3999999" stroke-linejoin="round" transform="translate(55 79.2857)" d="M-10.3606 4.74934L-10.3606 7.43L-19.6184 7.43L-19.6184 -6.4323L-16.4983 -6.4323L-16.4983 4.74934L-10.3606 4.74934ZM-9.06155 2.24934Q-9.06155 0.847969 -8.63186 -0.201836Q-8.20217 -1.25164 -7.50393 -1.94988Q-6.8008 -2.64813 -5.8926 -3.00945Q-4.97952 -3.37078 -4.0176 -3.37078Q-1.78127 -3.37078 -0.482445 -1.99871Q0.821266 -0.631524 0.821266 2.02961Q0.821266 2.2884 0.801735 2.6009Q0.782204 2.90852 0.75779 3.14777L-6.00002 3.14777Q-5.90237 4.07062 -5.14065 4.61262Q-4.37893 5.14973 -3.09963 5.14973Q-2.27932 5.14973 -1.49319 5.00324Q-0.702171 4.85187 -0.199242 4.63215L0.201149 7.04914Q-0.0381088 7.17121 -0.438499 7.29328Q-0.83889 7.41047 -1.33205 7.49836Q-1.82034 7.59113 -2.38186 7.64973Q-2.9385 7.70832 -3.50002 7.70832Q-4.92092 7.70832 -5.97073 7.2884Q-7.02053 6.86848 -7.71389 6.14094Q-8.40237 5.40852 -8.7344 4.41242Q-9.06155 3.41145 -9.06155 2.24934ZM-2.05959 1.11164Q-2.07912 0.730781 -2.19143 0.369453Q-2.29885 0.00812483 -2.52834 -0.270195Q-2.75784 -0.548516 -3.1094 -0.72918Q-3.46096 -0.909844 -3.97854 -0.909844Q-4.48147 -0.909844 -4.8428 -0.738945Q-5.19924 -0.568047 -5.4385 -0.289727Q-5.67776 -0.0114064 -5.80959 0.359687Q-5.94143 0.730781 -6.00002 1.11164L-2.05959 1.11164ZM7.13993 5.34992Q7.57938 5.34992 7.97977 5.33039Q8.38017 5.31086 8.61942 5.2718L8.61942 3.01105Q8.43876 2.97199 8.07743 2.93293Q7.72099 2.88898 7.41825 2.88898Q6.99833 2.88898 6.62724 2.9427Q6.26102 2.99152 5.97782 3.13312Q5.6995 3.26984 5.53837 3.5091Q5.38212 3.74836 5.38212 4.10969Q5.38212 4.80793 5.85087 5.08137Q6.31962 5.34992 7.13993 5.34992ZM6.90067 -3.37078Q8.21903 -3.37078 9.09794 -3.06805Q9.98173 -2.7702 10.5091 -2.20867Q11.0413 -1.65203 11.261 -0.85125Q11.4808 -0.0504689 11.4808 0.930976L11.4808 7.13215Q10.8411 7.26887 9.69852 7.4593Q8.56083 7.64973 6.93974 7.64973Q5.91923 7.64973 5.08915 7.46906Q4.25907 7.2884 3.65849 6.87824Q3.0579 6.46809 2.73563 5.80891Q2.41825 5.14973 2.41825 4.18781Q2.41825 3.26984 2.78934 2.6302Q3.16044 1.99055 3.78056 1.60969Q4.40067 1.22883 5.20145 1.06281Q6.00224 0.891914 6.86161 0.891914Q7.43778 0.891914 7.887 0.940742Q8.3411 0.98957 8.61942 1.0677L8.61942 0.789375Q8.61942 0.0276561 8.16044 -0.431328Q7.70145 -0.890313 6.55888 -0.890313Q5.80204 -0.890313 5.05985 -0.778008Q4.31767 -0.670586 3.78056 -0.470391L3.3997 -2.86785Q3.65849 -2.95086 4.04911 -3.03875Q4.43974 -3.13152 4.89872 -3.19988Q5.3577 -3.26824 5.86552 -3.31707Q6.37821 -3.37078 6.90067 -3.37078ZM18.7419 -8.08758Q19.5817 -8.08758 20.28 -7.91668Q20.9782 -7.75066 21.3591 -7.58953L20.778 -5.2116Q20.3776 -5.39227 19.9089 -5.48016Q19.4401 -5.56805 19.0398 -5.56805Q18.4978 -5.56805 18.1267 -5.41668Q17.7605 -5.2702 17.5505 -5.00652Q17.3405 -4.74773 17.2478 -4.38641Q17.1599 -4.02996 17.1599 -3.61004L17.1599 -3.08758L20.8415 -3.08758L20.8415 -0.611992L17.1599 -0.611992L17.1599 7.43L14.1814 7.43L14.1814 -3.6491Q14.1814 -5.69012 15.3288 -6.88641Q16.4812 -8.08758 18.7419 -8.08758Z"/>
	<path fill="white" transform="translate(55 79.2857)" d="M-10.3606 4.74934L-10.3606 7.43L-19.6184 7.43L-19.6184 -6.4323L-16.4983 -6.4323L-16.4983 4.74934L-10.3606 4.74934ZM-9.06155 2.24934Q-9.06155 0.847969 -8.63186 -0.201836Q-8.20217 -1.25164 -7.50393 -1.94988Q-6.8008 -2.64813 -5.8926 -3.00945Q-4.97952 -3.37078 -4.0176 -3.37078Q-1.78127 -3.37078 -0.482445 -1.99871Q0.821266 -0.631524 0.821266 2.02961Q0.821266 2.2884 0.801735 2.6009Q0.782204 2.90852 0.75779 3.14777L-6.00002 3.14777Q-5.90237 4.07062 -5.14065 4.61262Q-4.37893 5.14973 -3.09963 5.14973Q-2.27932 5.14973 -1.49319 5.00324Q-0.702171 4.85187 -0.199242 4.63215L0.201149 7.04914Q-0.0381088 7.17121 -0.438499 7.29328Q-0.83889 7.41047 -1.33205 7.49836Q-1.82034 7.59113 -2.38186 7.64973Q-2.9385 7.70832 -3.50002 7.70832Q-4.92092 7.70832 -5.97073 7.2884Q-7.02053 6.86848 -7.71389 6.14094Q-8.40237 5.40852 -8.7344 4.41242Q-9.06155 3.41145 -9.06155 2.24934ZM-2.05959 1.11164Q-2.07912 0.730781 -2.19143 0.369453Q-2.29885 0.00812483 -2.52834 -0.270195Q-2.75784 -0.548516 -3.1094 -0.72918Q-3.46096 -0.909844 -3.97854 -0.909844Q-4.48147 -0.909844 -4.8428 -0.738945Q-5.19924 -0.568047 -5.4385 -0.289727Q-5.67776 -0.0114064 -5.80959 0.359687Q-5.94143 0.730781 -6.00002 1.11164L-2.05959 1.11164ZM7.13993 5.34992Q7.57938 5.34992 7.97977 5.33039Q8.38017 5.31086 8.61942 5.2718L8.61942 3.01105Q8.43876 2.97199 8.07743 2.93293Q7.72099 2.88898 7.41825 2.88898Q6.99833 2.88898 6.62724 2.9427Q6.26102 2.99152 5.97782 3.13312Q5.6995 3.26984 5.53837 3.5091Q5.38212 3.74836 5.38212 4.10969Q5.38212 4.80793 5.85087 5.08137Q6.31962 5.34992 7.13993 5.34992ZM6.90067 -3.37078Q8.21903 -3.37078 9.09794 -3.06805Q9.98173 -2.7702 10.5091 -2.20867Q11.0413 -1.65203 11.261 -0.85125Q11.4808 -0.0504689 11.4808 0.930976L11.4808 7.13215Q10.8411 7.26887 9.69852 7.4593Q8.56083 7.64973 6.93974 7.64973Q5.91923 7.64973 5.08915 7.46906Q4.25907 7.2884 3.65849 6.87824Q3.0579 6.46809 2.73563 5.80891Q2.41825 5.14973 2.41825 4.18781Q2.41825 3.26984 2.78934 2.6302Q3.16044 1.99055 3.78056 1.60969Q4.40067 1.22883 5.20145 1.06281Q6.00224 0.891914 6.86161 0.891914Q7.43778 0.891914 7.887 0.940742Q8.3411 0.98957 8.61942 1.0677L8.61942 0.789375Q8.61942 0.0276561 8.16044 -0.431328Q7.70145 -0.890313 6.55888 -0.890313Q5.80204 -0.890313 5.05985 -0.778008Q4.31767 -0.670586 3.78056 -0.470391L3.3997 -2.86785Q3.65849 -2.95086 4.04911 -3.03875Q4.43974 -3.13152 4.89872 -3.19988Q5.3577 -3.26824 5.86552 -3.31707Q6.37821 -3.37078 6.90067 -3.37078ZM18.7419 -8.08758Q19.5817 -8.08758 20.28 -7.91668Q20.9782 -7.75066 21.3591 -7.58953L20.778 -5.2116Q20.3776 -5.39227 19.9089 -5.48016Q19.4401 -5.56805 19.0398 -5.56805Q18.4978 -5.56805 18.1267 -5.41668Q17.7605 -5.2702 17.5505 -5.00652Q17.3405 -4.74773 17.2478 -4.38641Q17.1599 -4.02996 17.1599 -3.61004L17.1599 -3.08758L20.8415 -3.08758L20.8415 -0.611992L17.1599 -0.611992L17.1599 7.43L14.1814 7.43L14.1814 -3.6491Q14.1814 -5.69012 15.3288 -6.88641Q16.4812 -8.08758 18.7419 -8.08758Z"/>
</svg>
