<?xml version="1.0" encoding="utf-8" ?>
<svg xmlns="http://www.w3.org/2000/svg" xmlns:xlink="http://www.w3.org/1999/xlink" width="110" height="110">
	<path fill="white" transform="matrix(1.09263 0.920311 -0.920311 1.09263 55 47.8571)" d="M10.4041 0L6.64344 8.7215L-2.66679 11.2555L-10.9404 4.95847L-11.3416 -5.43217L-2.49725 -11.4722L7.79841 -9.58461L10.4041 0Z"/>
	<path fill="#CFCFCF" transform="matrix(1.09263 0.920311 -0.920311 1.09263 55 47.8571)" d="M11.7815 0.593926L8.02085 9.31543Q7.9539 9.47069 7.85407 9.60715Q7.75425 9.74361 7.62654 9.85442Q7.49884 9.96524 7.34968 10.0448Q7.20051 10.1244 7.03737 10.1689L-2.27286 12.7028Q-2.43936 12.7481 -2.61181 12.7545Q-2.78425 12.7608 -2.95363 12.7278Q-3.12301 12.6948 -3.28047 12.6242Q-3.43792 12.5536 -3.57524 12.4491L-11.8489 6.15209Q-11.981 6.05156 -12.0879 5.92459Q-12.1948 5.79763 -12.2713 5.65036Q-12.3479 5.50309 -12.3904 5.34264Q-12.4329 5.1822 -12.4393 5.01634L-12.8405 -5.3743Q-12.8478 -5.56459 -12.8074 -5.75067Q-12.7669 -5.93676 -12.6813 -6.10683Q-12.5956 -6.27691 -12.4702 -6.42019Q-12.3448 -6.56348 -12.1875 -6.67087L-3.34319 -12.7109Q-3.22195 -12.7937 -3.08696 -12.8514Q-2.95198 -12.9091 -2.80836 -12.9396Q-2.66474 -12.97 -2.51795 -12.972Q-2.37115 -12.9741 -2.22675 -12.9476L8.0689 -11.06Q8.17273 -11.041 8.27286 -11.0076Q8.37299 -10.9742 8.46746 -10.9271Q8.56193 -10.8801 8.64888 -10.8202Q8.73582 -10.7604 8.81353 -10.6889Q8.89124 -10.6175 8.95818 -10.5359Q9.02512 -10.4543 9.07997 -10.3641Q9.13482 -10.2739 9.1765 -10.1769Q9.21818 -10.08 9.24587 -9.97811L11.8515 -0.393507Q11.9183 -0.147816 11.9003 0.106155Q11.8823 0.360126 11.7815 0.593926ZM9.02667 -0.593926L10.4041 0L8.95661 0.393507L6.35095 -9.1911L7.79841 -9.58461L7.52791 -8.1092L-2.76774 -9.99676L-2.49725 -11.4722L-1.65131 -10.2335L-10.4956 -4.19346L-11.3416 -5.43217L-9.8427 -5.49003L-9.44155 4.90061L-10.9404 4.95847L-10.032 3.76486L-1.75834 10.0619L-2.66679 11.2555L-3.06071 9.80813L6.24952 7.27415L6.64344 8.7215L5.26604 8.12758L9.02667 -0.593926Z"/>
	<path fill="none" stroke="black" stroke-width="2.3999999" stroke-linejoin="round" transform="translate(55 79.2857)" d="M-13.5691 5.05207Q-12.9099 5.05207 -12.4802 4.94465Q-12.0506 4.83234 -11.7918 4.64191Q-11.5281 4.45148 -11.4304 4.1927Q-11.3279 3.92902 -11.3279 3.61164Q-11.3279 2.92805 -11.9724 2.47883Q-12.6121 2.02961 -14.1697 1.51203Q-14.8484 1.26789 -15.532 0.960273Q-16.2107 0.647773 -16.7527 0.179023Q-17.2898 -0.289727 -17.6316 -0.958672Q-17.9685 -1.62762 -17.9685 -2.58953Q-17.9685 -3.55145 -17.6121 -4.31805Q-17.2508 -5.08953 -16.5916 -5.62664Q-15.9324 -6.16863 -14.99 -6.45672Q-14.0476 -6.74969 -12.8709 -6.74969Q-11.4695 -6.74969 -10.449 -6.44695Q-9.42849 -6.1491 -8.76931 -5.78777L-9.66775 -3.33172Q-10.2488 -3.62957 -10.9617 -3.85906Q-11.6697 -4.08855 -12.6707 -4.08855Q-13.7888 -4.08855 -14.282 -3.77605Q-14.7703 -3.46844 -14.7703 -2.82879Q-14.7703 -2.44793 -14.5896 -2.18914Q-14.409 -1.93035 -14.0818 -1.72039Q-13.7498 -1.51043 -13.3201 -1.33953Q-12.8904 -1.16863 -12.3679 -0.987969Q-11.2888 -0.587578 -10.4929 -0.196953Q-9.69216 0.188789 -9.15993 0.71125Q-8.62771 1.22883 -8.36892 1.93195Q-8.11013 2.6302 -8.11013 3.63117Q-8.11013 5.56965 -9.47243 6.63898Q-10.8299 7.70832 -13.5691 7.70832Q-14.492 7.70832 -15.2342 7.59602Q-15.9715 7.48859 -16.5427 7.33234Q-17.1092 7.17121 -17.5193 6.99055Q-17.9295 6.80988 -18.2078 6.64875L-17.3289 4.16828Q-16.7088 4.51008 -15.8006 4.78352Q-14.8924 5.05207 -13.5691 5.05207ZM-1.89007 5.34992Q-1.45061 5.34992 -1.05022 5.33039Q-0.649834 5.31086 -0.410576 5.2718L-0.410576 3.01105Q-0.59124 2.97199 -0.952568 2.93293Q-1.30901 2.88898 -1.61175 2.88898Q-2.03167 2.88898 -2.40276 2.9427Q-2.76897 2.99152 -3.05218 3.13312Q-3.3305 3.26984 -3.49163 3.5091Q-3.64788 3.74836 -3.64788 4.10969Q-3.64788 4.80793 -3.17913 5.08137Q-2.71038 5.34992 -1.89007 5.34992ZM-2.12933 -3.37078Q-0.810966 -3.37078 0.0679398 -3.06805Q0.951729 -2.7702 1.47907 -2.20867Q2.0113 -1.65203 2.23103 -0.85125Q2.45075 -0.0504689 2.45075 0.930976L2.45075 7.13215Q1.8111 7.26887 0.668526 7.4593Q-0.46917 7.64973 -2.09026 7.64973Q-3.11077 7.64973 -3.94085 7.46906Q-4.77093 7.2884 -5.37151 6.87824Q-5.9721 6.46809 -6.29436 5.80891Q-6.61175 5.14973 -6.61175 4.18781Q-6.61175 3.26984 -6.24065 2.6302Q-5.86956 1.99055 -5.24944 1.60969Q-4.62933 1.22883 -3.82854 1.06281Q-3.02776 0.891914 -2.16839 0.891914Q-1.59222 0.891914 -1.143 0.940742Q-0.688896 0.98957 -0.410576 1.0677L-0.410576 0.789375Q-0.410576 0.0276561 -0.86956 -0.431328Q-1.32854 -0.890313 -2.47112 -0.890313Q-3.22796 -0.890313 -3.97015 -0.778008Q-4.71233 -0.670586 -5.24944 -0.470391L-5.6303 -2.86785Q-5.37151 -2.95086 -4.98089 -3.03875Q-4.59026 -3.13152 -4.13128 -3.19988Q-3.67229 -3.26824 -3.16448 -3.31707Q-2.65179 -3.37078 -2.12933 -3.37078ZM9.35058 7.6302Q8.05175 7.61066 7.2412 7.35187Q6.43066 7.0882 5.95702 6.61945Q5.48827 6.1507 5.31738 5.48176Q5.15136 4.80793 5.15136 3.96809L5.15136 -7.60906L8.12988 -8.08758L8.12988 3.37238Q8.12988 3.76789 8.18847 4.09016Q8.25195 4.41242 8.41796 4.63215Q8.58886 4.85187 8.90624 4.99348Q9.22851 5.1302 9.7705 5.16926L9.35058 7.6302ZM11.3688 -5.70965L14.3522 -6.18816L14.3522 -3.08758L17.9313 -3.08758L17.9313 -0.611992L14.3522 -0.611992L14.3522 3.08918Q14.3522 4.03156 14.6794 4.59309Q15.0114 5.14973 16.0124 5.14973Q16.4909 5.14973 16.9987 5.06184Q17.5114 4.96906 17.9313 4.80793L18.3512 7.13215Q17.8092 7.35187 17.1501 7.50812Q16.4909 7.66926 15.529 7.66926Q14.3083 7.66926 13.5075 7.34211Q12.7116 7.01008 12.2282 6.41926Q11.7497 5.82844 11.5592 4.98859Q11.3688 4.14875 11.3688 3.12824L11.3688 -5.70965Z"/>
	<path fill="white" transform="translate(55 79.2857)" d="M-13.5691 5.05207Q-12.9099 5.05207 -12.4802 4.94465Q-12.0506 4.83234 -11.7918 4.64191Q-11.5281 4.45148 -11.4304 4.1927Q-11.3279 3.92902 -11.3279 3.61164Q-11.3279 2.92805 -11.9724 2.47883Q-12.6121 2.02961 -14.1697 1.51203Q-14.8484 1.26789 -15.532 0.960273Q-16.2107 0.647773 -16.7527 0.179023Q-17.2898 -0.289727 -17.6316 -0.958672Q-17.9685 -1.62762 -17.9685 -2.58953Q-17.9685 -3.55145 -17.6121 -4.31805Q-17.2508 -5.08953 -16.5916 -5.62664Q-15.9324 -6.16863 -14.99 -6.45672Q-14.0476 -6.74969 -12.8709 -6.74969Q-11.4695 -6.74969 -10.449 -6.44695Q-9.42849 -6.1491 -8.76931 -5.78777L-9.66775 -3.33172Q-10.2488 -3.62957 -10.9617 -3.85906Q-11.6697 -4.08855 -12.6707 -4.08855Q-13.7888 -4.08855 -14.282 -3.77605Q-14.7703 -3.46844 -14.7703 -2.82879Q-14.7703 -2.44793 -14.5896 -2.18914Q-14.409 -1.93035 -14.0818 -1.72039Q-13.7498 -1.51043 -13.3201 -1.33953Q-12.8904 -1.16863 -12.3679 -0.987969Q-11.2888 -0.587578 -10.4929 -0.196953Q-9.69216 0.188789 -9.15993 0.71125Q-8.62771 1.22883 -8.36892 1.93195Q-8.11013 2.6302 -8.11013 3.63117Q-8.11013 5.56965 -9.47243 6.63898Q-10.8299 7.70832 -13.5691 7.70832Q-14.492 7.70832 -15.2342 7.59602Q-15.9715 7.48859 -16.5427 7.33234Q-17.1092 7.17121 -17.5193 6.99055Q-17.9295 6.80988 -18.2078 6.64875L-17.3289 4.16828Q-16.7088 4.51008 -15.8006 4.78352Q-14.8924 5.05207 -13.5691 5.05207ZM-1.89007 5.34992Q-1.45061 5.34992 -1.05022 5.33039Q-0.649834 5.31086 -0.410576 5.2718L-0.410576 3.01105Q-0.59124 2.97199 -0.952568 2.93293Q-1.30901 2.88898 -1.61175 2.88898Q-2.03167 2.88898 -2.40276 2.9427Q-2.76897 2.99152 -3.05218 3.13312Q-3.3305 3.26984 -3.49163 3.5091Q-3.64788 3.74836 -3.64788 4.10969Q-3.64788 4.80793 -3.17913 5.08137Q-2.71038 5.34992 -1.89007 5.34992ZM-2.12933 -3.37078Q-0.810966 -3.37078 0.0679398 -3.06805Q0.951729 -2.7702 1.47907 -2.20867Q2.0113 -1.65203 2.23103 -0.85125Q2.45075 -0.0504689 2.45075 0.930976L2.45075 7.13215Q1.8111 7.26887 0.668526 7.4593Q-0.46917 7.64973 -2.09026 7.64973Q-3.11077 7.64973 -3.94085 7.46906Q-4.77093 7.2884 -5.37151 6.87824Q-5.9721 6.46809 -6.29436 5.80891Q-6.61175 5.14973 -6.61175 4.18781Q-6.61175 3.26984 -6.24065 2.6302Q-5.86956 1.99055 -5.24944 1.60969Q-4.62933 1.22883 -3.82854 1.06281Q-3.02776 0.891914 -2.16839 0.891914Q-1.59222 0.891914 -1.143 0.940742Q-0.688896 0.98957 -0.410576 1.0677L-0.410576 0.789375Q-0.410576 0.0276561 -0.86956 -0.431328Q-1.32854 -0.890313 -2.47112 -0.890313Q-3.22796 -0.890313 -3.97015 -0.778008Q-4.71233 -0.670586 -5.24944 -0.470391L-5.6303 -2.86785Q-5.37151 -2.95086 -4.98089 -3.03875Q-4.59026 -3.13152 -4.13128 -3.19988Q-3.67229 -3.26824 -3.16448 -3.31707Q-2.65179 -3.37078 -2.12933 -3.37078ZM9.35058 7.6302Q8.05175 7.61066 7.2412 7.35187Q6.43066 7.0882 5.95702 6.61945Q5.48827 6.1507 5.31738 5.48176Q5.15136 4.80793 5.15136 3.96809L5.15136 -7.60906L8.12988 -8.08758L8.12988 3.37238Q8.12988 3.76789 8.18847 4.09016Q8.25195 4.41242 8.41796 4.63215Q8.58886 4.85187 8.90624 4.99348Q9.22851 5.1302 9.7705 5.16926L9.35058 7.6302ZM11.3688 -5.70965L14.3522 -6.18816L14.3522 -3.08758L17.9313 -3.08758L17.9313 -0.611992L14.3522 -0.611992L14.3522 3.08918Q14.3522 4.03156 14.6794 4.59309Q15.0114 5.14973 16.0124 5.14973Q16.4909 5.14973 16.9987 5.06184Q17.5114 4.96906 17.9313 4.80793L18.3512 7.13215Q17.8092 7.35187 17.1501 7.50812Q16.4909 7.66926 15.529 7.66926Q14.3083 7.66926 13.5075 7.34211Q12.7116 7.01008 12.2282 6.41926Q11.7497 5.82844 11.5592 4.98859Q11.3688 4.14875 11.3688 3.12824L11.3688 -5.70965Z"/>
</svg>
