<?xml version="1.0" encoding="utf-8" ?>
<svg xmlns="http://www.w3.org/2000/svg" xmlns:xlink="http://www.w3.org/1999/xlink" width="110" height="110">
	<path fill="#CFCFCF" transform="matrix(1.09263 0.920311 -0.920311 1.09263 55 47.8571)" d="M-9.75562 -4.68165Q-9.53674e-07 -8.34 9.75562 -4.68165Q9.87054 -4.63855 9.98322 -4.58986Q10.0959 -4.54118 10.206 -4.48702Q10.3162 -4.43287 10.4236 -4.37337Q10.5309 -4.31388 10.6352 -4.24919Q10.7395 -4.18449 10.8406 -4.11476Q10.9416 -4.04503 11.039 -3.97043Q11.1365 -3.89582 11.2302 -3.81653Q11.3239 -3.73723 11.4136 -3.65343Q11.5033 -3.56963 11.5887 -3.48153Q11.6742 -3.39344 11.7552 -3.30125Q11.8363 -3.20906 11.9127 -3.11301Q11.9891 -3.01696 12.0607 -2.91728Q12.1323 -2.81759 12.199 -2.71451Q12.2656 -2.61143 12.3271 -2.50521Q12.3886 -2.39898 12.4448 -2.28987Q12.501 -2.18076 12.5518 -2.06901Q12.6026 -1.95727 12.6479 -1.84317Q12.6931 -1.72908 12.7327 -1.61289Q12.7723 -1.49671 12.8062 -1.37873Q12.84 -1.26074 12.868 -1.14124Q12.896 -1.02174 12.9181 -0.901004Q12.9403 -0.78027 12.9564 -0.658596Q12.9726 -0.536923 12.9828 -0.414602Q12.993 -0.292282 12.9971 -0.169609Q13.0013 -0.0469369 12.9994 0.0757921Q12.9976 0.198521 12.9897 0.321011Q12.9818 0.443501 12.9679 0.565456Q12.954 0.687412 12.9342 0.80854Q12.9143 0.929667 12.8886 1.04968Q12.8628 1.16968 12.8312 1.28828Q12.7996 1.40688 12.7622 1.52379Q12.7247 1.64069 12.6816 1.75562Q12.6385 1.87055 12.5899 1.98322Q12.5412 2.09589 12.487 2.20604Q12.4329 2.3162 12.3734 2.42356Q12.3139 2.53092 12.2492 2.63523Q12.1845 2.73954 12.1148 2.84055Q12.045 2.94156 11.9704 3.03903Q11.8958 3.1365 11.8165 3.23019Q11.7372 3.32388 11.6534 3.41357Q11.5696 3.50325 11.4815 3.58872Q11.3934 3.67419 11.3013 3.75523Q11.2091 3.83627 11.113 3.91269Q11.017 3.98911 10.9173 4.06073Q10.8176 4.13234 10.7145 4.19898Q10.6114 4.26562 10.5052 4.32712Q10.399 4.38861 10.2899 4.44483Q10.1808 4.50104 10.069 4.55183Q9.95727 4.60262 9.84317 4.64787Q9.72908 4.69312 9.61289 4.73271Q9.49671 4.77231 9.37873 4.80615Q9.26074 4.84 9.14124 4.86801Q9.02174 4.89603 8.901 4.91815Q8.78027 4.94027 8.6586 4.95643Q8.53692 4.9726 8.4146 4.98278Q8.29228 4.99296 8.16961 4.99712Q8.04694 5.00129 7.92421 4.99942Q7.80148 4.99756 7.67899 4.98968Q7.5565 4.9818 7.43454 4.96792Q7.31259 4.95404 7.19146 4.93419Q7.07033 4.91434 6.95033 4.88858Q6.83032 4.86281 6.71172 4.83118Q6.59312 4.79956 6.47622 4.76215Q6.35931 4.72474 6.24438 4.68165Q-4.76837e-07 2.34 -6.24438 4.68165Q-6.35931 4.72474 -6.47621 4.76215Q-6.59312 4.79956 -6.71172 4.83118Q-6.83032 4.86281 -6.95033 4.88858Q-7.07033 4.91434 -7.19146 4.93419Q-7.31259 4.95404 -7.43454 4.96792Q-7.5565 4.9818 -7.67899 4.98968Q-7.80148 4.99756 -7.92421 4.99942Q-8.04694 5.00129 -8.16961 4.99712Q-8.29228 4.99296 -8.4146 4.98278Q-8.53692 4.9726 -8.6586 4.95643Q-8.78027 4.94027 -8.901 4.91815Q-9.02174 4.89603 -9.14124 4.86801Q-9.26074 4.84 -9.37873 4.80615Q-9.49671 4.77231 -9.61289 4.73271Q-9.72908 4.69312 -9.84317 4.64787Q-9.95727 4.60262 -10.069 4.55183Q-10.1808 4.50104 -10.2899 4.44483Q-10.399 4.38861 -10.5052 4.32711Q-10.6114 4.26561 -10.7145 4.19898Q-10.8176 4.13234 -10.9173 4.06072Q-11.017 3.98911 -11.113 3.91269Q-11.2091 3.83627 -11.3013 3.75523Q-11.3934 3.67419 -11.4815 3.58872Q-11.5696 3.50325 -11.6534 3.41357Q-11.7372 3.32388 -11.8165 3.23019Q-11.8958 3.1365 -11.9704 3.03903Q-12.045 2.94156 -12.1148 2.84055Q-12.1845 2.73954 -12.2492 2.63523Q-12.3139 2.53092 -12.3734 2.42356Q-12.4329 2.3162 -12.487 2.20604Q-12.5412 2.09589 -12.5899 1.98322Q-12.6385 1.87055 -12.6816 1.75562Q-12.7247 1.64069 -12.7622 1.52378Q-12.7996 1.40688 -12.8312 1.28828Q-12.8628 1.16968 -12.8886 1.04968Q-12.9143 0.929667 -12.9342 0.80854Q-12.954 0.687412 -12.9679 0.565456Q-12.9818 0.443501 -12.9897 0.321011Q-12.9976 0.198521 -12.9994 0.075792Q-13.0013 -0.046937 -12.9971 -0.169609Q-12.993 -0.292282 -12.9828 -0.414602Q-12.9726 -0.536923 -12.9564 -0.658596Q-12.9403 -0.78027 -12.9181 -0.901004Q-12.896 -1.02174 -12.868 -1.14124Q-12.84 -1.26074 -12.8062 -1.37873Q-12.7723 -1.49671 -12.7327 -1.61289Q-12.6931 -1.72908 -12.6479 -1.84317Q-12.6026 -1.95727 -12.5518 -2.06901Q-12.501 -2.18076 -12.4448 -2.28987Q-12.3886 -2.39898 -12.3271 -2.50521Q-12.2656 -2.61143 -12.199 -2.71451Q-12.1323 -2.81759 -12.0607 -2.91728Q-11.9891 -3.01696 -11.9127 -3.11301Q-11.8363 -3.20906 -11.7552 -3.30125Q-11.6742 -3.39344 -11.5887 -3.48153Q-11.5033 -3.56963 -11.4136 -3.65343Q-11.3239 -3.73723 -11.2302 -3.81653Q-11.1365 -3.89582 -11.039 -3.97043Q-10.9416 -4.04503 -10.8406 -4.11476Q-10.7395 -4.18449 -10.6352 -4.24919Q-10.5309 -4.31388 -10.4236 -4.37337Q-10.3162 -4.43287 -10.206 -4.48702Q-10.0959 -4.54118 -9.98322 -4.58986Q-9.87054 -4.63855 -9.75562 -4.68165Z"/>
	<path fill="white" transform="matrix(1.09263 0.920311 -0.920311 1.09263 55 47.8571)" d="M-9.22893 -3.27715Q0 -6.738 9.22893 -3.27715Q9.38993 -3.21678 9.54423 -3.14092Q9.69853 -3.06505 9.84466 -2.97443Q9.99078 -2.88381 10.1273 -2.7793Q10.2639 -2.67479 10.3895 -2.5574Q10.5151 -2.44001 10.6287 -2.31088Q10.7422 -2.18174 10.8425 -2.04209Q10.9428 -1.90245 11.029 -1.75365Q11.1151 -1.60484 11.1863 -1.44831Q11.2574 -1.29178 11.3129 -1.12903Q11.3684 -0.966273 11.4076 -0.798868Q11.4469 -0.631463 11.4695 -0.461017Q11.4922 -0.290572 11.498 -0.118727Q11.5038 0.0531185 11.4928 0.224708Q11.4817 0.396297 11.4539 0.565978Q11.4261 0.735659 11.3818 0.901798Q11.3375 1.06794 11.2772 1.22893Q11.2168 1.38993 11.1409 1.54423Q11.0651 1.69853 10.9744 1.84466Q10.8838 1.99078 10.7793 2.12732Q10.6748 2.26386 10.5574 2.3895Q10.44 2.51513 10.3109 2.62866Q10.1817 2.74219 10.0421 2.84251Q9.90245 2.94283 9.75365 3.02898Q9.60484 3.11513 9.44831 3.18628Q9.29178 3.25743 9.12903 3.3129Q8.96627 3.36836 8.79887 3.40761Q8.63146 3.44686 8.46102 3.4695Q8.29057 3.49215 8.11872 3.49799Q7.94688 3.50382 7.77529 3.49278Q7.6037 3.48174 7.43402 3.45394Q7.26434 3.42613 7.0982 3.38183Q6.93206 3.33753 6.77107 3.27715Q4.76837e-07 0.738002 -6.77107 3.27715Q-6.93206 3.33753 -7.0982 3.38183Q-7.26434 3.42613 -7.43402 3.45394Q-7.6037 3.48174 -7.77529 3.49278Q-7.94688 3.50382 -8.11872 3.49799Q-8.29057 3.49215 -8.46102 3.4695Q-8.63146 3.44686 -8.79887 3.40761Q-8.96627 3.36836 -9.12902 3.3129Q-9.29178 3.25743 -9.44831 3.18628Q-9.60484 3.11513 -9.75365 3.02898Q-9.90245 2.94283 -10.0421 2.84251Q-10.1817 2.74219 -10.3109 2.62866Q-10.44 2.51513 -10.5574 2.3895Q-10.6748 2.26386 -10.7793 2.12732Q-10.8838 1.99078 -10.9744 1.84466Q-11.0651 1.69853 -11.1409 1.54423Q-11.2168 1.38993 -11.2772 1.22893Q-11.3375 1.06794 -11.3818 0.901797Q-11.4261 0.735659 -11.4539 0.565978Q-11.4817 0.396297 -11.4928 0.224708Q-11.5038 0.0531185 -11.498 -0.118727Q-11.4922 -0.290572 -11.4695 -0.461017Q-11.4469 -0.631463 -11.4076 -0.798868Q-11.3684 -0.966274 -11.3129 -1.12903Q-11.2574 -1.29178 -11.1863 -1.44831Q-11.1151 -1.60484 -11.029 -1.75365Q-10.9428 -1.90245 -10.8425 -2.04209Q-10.7422 -2.18174 -10.6287 -2.31088Q-10.5151 -2.44001 -10.3895 -2.5574Q-10.2639 -2.67479 -10.1273 -2.7793Q-9.99078 -2.88381 -9.84466 -2.97443Q-9.69853 -3.06505 -9.54423 -3.14092Q-9.38993 -3.21678 -9.22893 -3.27715Z"/>
	<path fill="none" stroke="black" stroke-width="2.3999999" stroke-linejoin="round" transform="translate(55 79.2857)" d="M-14.7408 -6.58855Q-11.6207 -6.58855 -9.96053 -5.48016Q-8.30037 -4.37176 -8.30037 -2.02801Q-8.30037 -0.568047 -8.96931 0.340156Q-9.63826 1.24836 -10.898 1.77082Q-10.4781 2.2884 -10.0191 2.96223Q-9.56013 3.63117 -9.11092 4.36359Q-8.6617 5.09113 -8.24178 5.88215Q-7.82185 6.66828 -7.46053 7.43L-10.9615 7.43Q-11.3424 6.75129 -11.733 6.05305Q-12.1187 5.34992 -12.5289 4.69074Q-12.939 4.03156 -13.3394 3.44074Q-13.7398 2.84992 -14.1402 2.37141L-15.6783 2.37141L-15.6783 7.43L-18.7984 7.43L-18.7984 -6.23211Q-17.7779 -6.4323 -16.689 -6.51043Q-15.6002 -6.58855 -14.7408 -6.58855ZM-14.5601 -3.9323Q-14.9019 -3.9323 -15.1705 -3.90789Q-15.439 -3.88836 -15.6783 -3.86883L-15.6783 -0.109063L-14.7994 -0.109063Q-13.0416 -0.109063 -12.2799 -0.548516Q-11.5181 -0.987969 -11.5181 -2.05242Q-11.5181 -3.06805 -12.2896 -3.49773Q-13.0611 -3.9323 -14.5601 -3.9323ZM-2.68011 7.43L-5.65863 7.43L-5.65863 -3.08758L-2.68011 -3.08758L-2.68011 7.43ZM-2.40179 -6.12957Q-2.40179 -5.30926 -2.93402 -4.84051Q-3.46136 -4.37176 -4.17914 -4.37176Q-4.90179 -4.37176 -5.43402 -4.84051Q-5.96136 -5.30926 -5.96136 -6.12957Q-5.96136 -6.94988 -5.43402 -7.41863Q-4.90179 -7.89227 -4.17914 -7.89227Q-3.46136 -7.89227 -2.93402 -7.41863Q-2.40179 -6.94988 -2.40179 -6.12957ZM-0.381561 2.17121Q-0.381561 1.02863 -0.0104675 0.0227733Q0.360626 -0.987969 1.05887 -1.73992Q1.76199 -2.49188 2.75809 -2.93133Q3.75906 -3.37078 5.03836 -3.37078Q5.8782 -3.37078 6.57645 -3.21941Q7.27957 -3.06805 7.93875 -2.78973L7.31863 -0.411797Q6.89871 -0.568047 6.39578 -0.690117Q5.89774 -0.812188 5.27762 -0.812188Q3.95926 -0.812188 3.30984 0.00812483Q2.66043 0.828437 2.66043 2.17121Q2.66043 3.59211 3.27078 4.37336Q3.88113 5.14973 5.39969 5.14973Q5.94168 5.14973 6.5618 5.05207Q7.18192 4.94953 7.69949 4.7298L8.11942 7.17121Q7.60184 7.39094 6.82059 7.54719Q6.03934 7.70832 5.10184 7.70832Q3.66141 7.70832 2.62137 7.27863Q1.58133 6.84895 0.907501 6.11164Q0.238556 5.36945 -0.0739441 4.35871Q-0.381561 3.34797 -0.381561 2.17121ZM9.61842 2.24934Q9.61842 0.847969 10.0481 -0.201836Q10.4778 -1.25164 11.176 -1.94988Q11.8792 -2.64813 12.7874 -3.00945Q13.7005 -3.37078 14.6624 -3.37078Q16.8987 -3.37078 18.1975 -1.99871Q19.5012 -0.631524 19.5012 2.02961Q19.5012 2.2884 19.4817 2.6009Q19.4622 2.90852 19.4378 3.14777L12.6799 3.14777Q12.7776 4.07062 13.5393 4.61262Q14.301 5.14973 15.5803 5.14973Q16.4007 5.14973 17.1868 5.00324Q17.9778 4.85187 18.4807 4.63215L18.8811 7.04914Q18.6419 7.17121 18.2415 7.29328Q17.8411 7.41047 17.3479 7.49836Q16.8596 7.59113 16.2981 7.64973Q15.7415 7.70832 15.1799 7.70832Q13.759 7.70832 12.7092 7.2884Q11.6594 6.86848 10.9661 6.14094Q10.2776 5.40852 9.94557 4.41242Q9.61842 3.41145 9.61842 2.24934ZM16.6204 1.11164Q16.6008 0.730781 16.4885 0.369453Q16.3811 0.00812483 16.1516 -0.270195Q15.9221 -0.548516 15.5706 -0.72918Q15.219 -0.909844 14.7014 -0.909844Q14.1985 -0.909844 13.8372 -0.738945Q13.4807 -0.568047 13.2415 -0.289727Q13.0022 -0.0114064 12.8704 0.359687Q12.7385 0.730781 12.6799 1.11164L16.6204 1.11164Z"/>
	<path fill="white" transform="translate(55 79.2857)" d="M-14.7408 -6.58855Q-11.6207 -6.58855 -9.96053 -5.48016Q-8.30037 -4.37176 -8.30037 -2.02801Q-8.30037 -0.568047 -8.96931 0.340156Q-9.63826 1.24836 -10.898 1.77082Q-10.4781 2.2884 -10.0191 2.96223Q-9.56013 3.63117 -9.11092 4.36359Q-8.6617 5.09113 -8.24178 5.88215Q-7.82185 6.66828 -7.46053 7.43L-10.9615 7.43Q-11.3424 6.75129 -11.733 6.05305Q-12.1187 5.34992 -12.5289 4.69074Q-12.939 4.03156 -13.3394 3.44074Q-13.7398 2.84992 -14.1402 2.37141L-15.6783 2.37141L-15.6783 7.43L-18.7984 7.43L-18.7984 -6.23211Q-17.7779 -6.4323 -16.689 -6.51043Q-15.6002 -6.58855 -14.7408 -6.58855ZM-14.5601 -3.9323Q-14.9019 -3.9323 -15.1705 -3.90789Q-15.439 -3.88836 -15.6783 -3.86883L-15.6783 -0.109063L-14.7994 -0.109063Q-13.0416 -0.109063 -12.2799 -0.548516Q-11.5181 -0.987969 -11.5181 -2.05242Q-11.5181 -3.06805 -12.2896 -3.49773Q-13.0611 -3.9323 -14.5601 -3.9323ZM-2.68011 7.43L-5.65863 7.43L-5.65863 -3.08758L-2.68011 -3.08758L-2.68011 7.43ZM-2.40179 -6.12957Q-2.40179 -5.30926 -2.93402 -4.84051Q-3.46136 -4.37176 -4.17914 -4.37176Q-4.90179 -4.37176 -5.43402 -4.84051Q-5.96136 -5.30926 -5.96136 -6.12957Q-5.96136 -6.94988 -5.43402 -7.41863Q-4.90179 -7.89227 -4.17914 -7.89227Q-3.46136 -7.89227 -2.93402 -7.41863Q-2.40179 -6.94988 -2.40179 -6.12957ZM-0.381561 2.17121Q-0.381561 1.02863 -0.0104675 0.0227733Q0.360626 -0.987969 1.05887 -1.73992Q1.76199 -2.49188 2.75809 -2.93133Q3.75906 -3.37078 5.03836 -3.37078Q5.8782 -3.37078 6.57645 -3.21941Q7.27957 -3.06805 7.93875 -2.78973L7.31863 -0.411797Q6.89871 -0.568047 6.39578 -0.690117Q5.89774 -0.812188 5.27762 -0.812188Q3.95926 -0.812188 3.30984 0.00812483Q2.66043 0.828437 2.66043 2.17121Q2.66043 3.59211 3.27078 4.37336Q3.88113 5.14973 5.39969 5.14973Q5.94168 5.14973 6.5618 5.05207Q7.18192 4.94953 7.69949 4.7298L8.11942 7.17121Q7.60184 7.39094 6.82059 7.54719Q6.03934 7.70832 5.10184 7.70832Q3.66141 7.70832 2.62137 7.27863Q1.58133 6.84895 0.907501 6.11164Q0.238556 5.36945 -0.0739441 4.35871Q-0.381561 3.34797 -0.381561 2.17121ZM9.61842 2.24934Q9.61842 0.847969 10.0481 -0.201836Q10.4778 -1.25164 11.176 -1.94988Q11.8792 -2.64813 12.7874 -3.00945Q13.7005 -3.37078 14.6624 -3.37078Q16.8987 -3.37078 18.1975 -1.99871Q19.5012 -0.631524 19.5012 2.02961Q19.5012 2.2884 19.4817 2.6009Q19.4622 2.90852 19.4378 3.14777L12.6799 3.14777Q12.7776 4.07062 13.5393 4.61262Q14.301 5.14973 15.5803 5.14973Q16.4007 5.14973 17.1868 5.00324Q17.9778 4.85187 18.4807 4.63215L18.8811 7.04914Q18.6419 7.17121 18.2415 7.29328Q17.8411 7.41047 17.3479 7.49836Q16.8596 7.59113 16.2981 7.64973Q15.7415 7.70832 15.1799 7.70832Q13.759 7.70832 12.7092 7.2884Q11.6594 6.86848 10.9661 6.14094Q10.2776 5.40852 9.94557 4.41242Q9.61842 3.41145 9.61842 2.24934ZM16.6204 1.11164Q16.6008 0.730781 16.4885 0.369453Q16.3811 0.00812483 16.1516 -0.270195Q15.9221 -0.548516 15.5706 -0.72918Q15.219 -0.909844 14.7014 -0.909844Q14.1985 -0.909844 13.8372 -0.738945Q13.4807 -0.568047 13.2415 -0.289727Q13.0022 -0.0114064 12.8704 0.359687Q12.7385 0.730781 12.6799 1.11164L16.6204 1.11164Z"/>
</svg>
