<?xml version="1.0" encoding="utf-8" ?>
<svg xmlns="http://www.w3.org/2000/svg" xmlns:xlink="http://www.w3.org/1999/xlink" width="110" height="110">
	<path fill="#FFE419" transform="matrix(1.85747 1.56453 -1.56453 1.85747 55 47.8571)" d="M-5 8Q-15 -8 0 -8Q15 -8 5 8Q0 2 -5 8Z"/>
	<path fill="#CFB914" transform="matrix(1.85747 1.56453 -1.56453 1.85747 55 47.8571)" d="M-5.848 8.53Q-11.0915 0.140327 -9.70448 -4.29827Q-8.23519 -9 0 -9Q8.23519 -9 9.70448 -4.29827Q11.0915 0.140323 5.848 8.53Q5.7958 8.61352 5.72831 8.68525Q5.66081 8.75698 5.58063 8.81417Q5.50044 8.87136 5.41063 8.9118Q5.32083 8.95224 5.22486 8.97439Q5.12889 8.99654 5.03044 8.99954Q4.932 9.00253 4.83486 8.98627Q4.73772 8.97 4.64562 8.9351Q4.55352 8.9002 4.47 8.848Q4.33426 8.76316 4.23178 8.64018Q2.03163 6 0 6Q-2.03162 6 -4.23178 8.64018Q-4.29483 8.71585 -4.37143 8.77775Q-4.44804 8.83966 -4.53524 8.88544Q-4.62245 8.93121 -4.71691 8.95909Q-4.81138 8.98697 -4.90946 8.99589Q-5.00755 9.00481 -5.10549 8.99442Q-5.20343 8.98403 -5.29747 8.95473Q-5.3915 8.92543 -5.47801 8.87835Q-5.56452 8.83127 -5.64018 8.76822Q-5.76316 8.66574 -5.848 8.53ZM-4.152 7.47L-5 8L-5.76822 7.35982Q-2.96837 4 0 4Q2.96838 4 5.76822 7.35982L5 8L4.152 7.47Q8.90846 -0.140328 7.79552 -3.70173Q6.76481 -7 0 -7Q-6.76481 -7 -7.79552 -3.70173Q-8.90846 -0.140327 -4.152 7.47Z"/>
	<path fill="none" stroke="black" stroke-width="2.3999999" stroke-linejoin="round" transform="translate(55 79.2857)" d="M-14.7401 7.70832Q-18.119 7.70832 -19.8914 5.82844Q-21.659 3.94855 -21.659 0.491523Q-21.659 -1.23211 -21.1219 -2.57977Q-20.5799 -3.9323 -19.6424 -4.86004Q-18.7 -5.78777 -17.4012 -6.26629Q-16.1024 -6.74969 -14.5789 -6.74969Q-13.7 -6.74969 -12.9822 -6.61785Q-12.2596 -6.4909 -11.7225 -6.32Q-11.1805 -6.1491 -10.8192 -5.96844Q-10.4578 -5.78777 -10.3016 -5.69012L-11.2 -3.17059Q-11.8397 -3.51238 -12.6893 -3.75164Q-13.5389 -3.9909 -14.618 -3.9909Q-15.3406 -3.9909 -16.0291 -3.75164Q-16.7176 -3.51238 -17.2498 -2.98016Q-17.782 -2.44793 -18.1043 -1.60809Q-18.4217 -0.768242 -18.4217 0.428047Q-18.4217 1.38996 -18.2117 2.22004Q-18.0018 3.05012 -17.533 3.6507Q-17.0594 4.25129 -16.3026 4.60285Q-15.5408 4.94953 -14.4617 4.94953Q-13.7781 4.94953 -13.241 4.87141Q-12.699 4.7884 -12.2791 4.68098Q-11.8592 4.56867 -11.5418 4.43195Q-11.2195 4.29035 -10.9608 4.16828L-10.1014 6.66828Q-10.7606 7.06867 -11.9617 7.39094Q-13.158 7.70832 -14.7401 7.70832ZM1.54025 2.15168Q1.54025 3.39191 1.17892 4.42219Q0.817596 5.44758 0.138885 6.18Q-0.539825 6.91242 -1.49197 7.31281Q-2.43924 7.70832 -3.62088 7.70832Q-4.77811 7.70832 -5.73026 7.31281Q-6.6824 6.91242 -7.36111 6.18Q-8.03983 5.44758 -8.42068 4.42219Q-8.80154 3.39191 -8.80154 2.15168Q-8.80154 0.911445 -8.41092 -0.109063Q-8.02029 -1.12957 -7.33182 -1.84734Q-6.63846 -2.57 -5.69119 -2.97039Q-4.73904 -3.37078 -3.62088 -3.37078Q-2.4783 -3.37078 -1.53104 -2.97039Q-0.578888 -2.57 0.099823 -1.84734Q0.778534 -1.12957 1.15939 -0.109063Q1.54025 0.911445 1.54025 2.15168ZM-1.50174 2.15168Q-1.50174 0.769844 -2.0535 -0.021172Q-2.60037 -0.812188 -3.62088 -0.812188Q-4.64139 -0.812188 -5.20291 -0.021172Q-5.75955 0.769844 -5.75955 2.15168Q-5.75955 3.52863 -5.20291 4.33918Q-4.64139 5.14973 -3.62088 5.14973Q-2.60037 5.14973 -2.0535 4.33918Q-1.50174 3.52863 -1.50174 2.15168ZM10.1793 -0.45086Q9.77887 -0.548516 9.23688 -0.655938Q8.69977 -0.768242 8.07965 -0.768242Q7.80133 -0.768242 7.41071 -0.719414Q7.02008 -0.670586 6.81989 -0.611992L6.81989 7.43L3.84137 7.43L3.84137 -2.53094Q4.64215 -2.80926 5.73102 -3.05828Q6.81989 -3.31219 8.15778 -3.31219Q8.40192 -3.31219 8.73883 -3.27801Q9.08063 -3.24871 9.41754 -3.19988Q9.75934 -3.15105 10.0963 -3.07781Q10.438 -3.00945 10.6822 -2.9118L10.1793 -0.45086ZM12.2814 -2.73113Q13.0382 -2.95086 14.2394 -3.14129Q15.4405 -3.33172 16.7589 -3.33172Q18.1017 -3.33172 18.9903 -2.98016Q19.879 -2.62859 20.3966 -1.98895Q20.9191 -1.3493 21.1388 -0.470391Q21.3585 0.408515 21.3585 1.48762L21.3585 7.43L18.38 7.43L18.38 1.84895Q18.38 0.408515 17.9991 -0.187188Q17.6183 -0.787774 16.5782 -0.787774Q16.2608 -0.787774 15.8995 -0.758477Q15.5382 -0.72918 15.2599 -0.690117L15.2599 7.43L12.2814 7.43L12.2814 -2.73113Z"/>
	<path fill="white" transform="translate(55 79.2857)" d="M-14.7401 7.70832Q-18.119 7.70832 -19.8914 5.82844Q-21.659 3.94855 -21.659 0.491523Q-21.659 -1.23211 -21.1219 -2.57977Q-20.5799 -3.9323 -19.6424 -4.86004Q-18.7 -5.78777 -17.4012 -6.26629Q-16.1024 -6.74969 -14.5789 -6.74969Q-13.7 -6.74969 -12.9822 -6.61785Q-12.2596 -6.4909 -11.7225 -6.32Q-11.1805 -6.1491 -10.8192 -5.96844Q-10.4578 -5.78777 -10.3016 -5.69012L-11.2 -3.17059Q-11.8397 -3.51238 -12.6893 -3.75164Q-13.5389 -3.9909 -14.618 -3.9909Q-15.3406 -3.9909 -16.0291 -3.75164Q-16.7176 -3.51238 -17.2498 -2.98016Q-17.782 -2.44793 -18.1043 -1.60809Q-18.4217 -0.768242 -18.4217 0.428047Q-18.4217 1.38996 -18.2117 2.22004Q-18.0018 3.05012 -17.533 3.6507Q-17.0594 4.25129 -16.3026 4.60285Q-15.5408 4.94953 -14.4617 4.94953Q-13.7781 4.94953 -13.241 4.87141Q-12.699 4.7884 -12.2791 4.68098Q-11.8592 4.56867 -11.5418 4.43195Q-11.2195 4.29035 -10.9608 4.16828L-10.1014 6.66828Q-10.7606 7.06867 -11.9617 7.39094Q-13.158 7.70832 -14.7401 7.70832ZM1.54025 2.15168Q1.54025 3.39191 1.17892 4.42219Q0.817596 5.44758 0.138885 6.18Q-0.539825 6.91242 -1.49197 7.31281Q-2.43924 7.70832 -3.62088 7.70832Q-4.77811 7.70832 -5.73026 7.31281Q-6.6824 6.91242 -7.36111 6.18Q-8.03983 5.44758 -8.42068 4.42219Q-8.80154 3.39191 -8.80154 2.15168Q-8.80154 0.911445 -8.41092 -0.109063Q-8.02029 -1.12957 -7.33182 -1.84734Q-6.63846 -2.57 -5.69119 -2.97039Q-4.73904 -3.37078 -3.62088 -3.37078Q-2.4783 -3.37078 -1.53104 -2.97039Q-0.578888 -2.57 0.099823 -1.84734Q0.778534 -1.12957 1.15939 -0.109063Q1.54025 0.911445 1.54025 2.15168ZM-1.50174 2.15168Q-1.50174 0.769844 -2.0535 -0.021172Q-2.60037 -0.812188 -3.62088 -0.812188Q-4.64139 -0.812188 -5.20291 -0.021172Q-5.75955 0.769844 -5.75955 2.15168Q-5.75955 3.52863 -5.20291 4.33918Q-4.64139 5.14973 -3.62088 5.14973Q-2.60037 5.14973 -2.0535 4.33918Q-1.50174 3.52863 -1.50174 2.15168ZM10.1793 -0.45086Q9.77887 -0.548516 9.23688 -0.655938Q8.69977 -0.768242 8.07965 -0.768242Q7.80133 -0.768242 7.41071 -0.719414Q7.02008 -0.670586 6.81989 -0.611992L6.81989 7.43L3.84137 7.43L3.84137 -2.53094Q4.64215 -2.80926 5.73102 -3.05828Q6.81989 -3.31219 8.15778 -3.31219Q8.40192 -3.31219 8.73883 -3.27801Q9.08063 -3.24871 9.41754 -3.19988Q9.75934 -3.15105 10.0963 -3.07781Q10.438 -3.00945 10.6822 -2.9118L10.1793 -0.45086ZM12.2814 -2.73113Q13.0382 -2.95086 14.2394 -3.14129Q15.4405 -3.33172 16.7589 -3.33172Q18.1017 -3.33172 18.9903 -2.98016Q19.879 -2.62859 20.3966 -1.98895Q20.9191 -1.3493 21.1388 -0.470391Q21.3585 0.408515 21.3585 1.48762L21.3585 7.43L18.38 7.43L18.38 1.84895Q18.38 0.408515 17.9991 -0.187188Q17.6183 -0.787774 16.5782 -0.787774Q16.2608 -0.787774 15.8995 -0.758477Q15.5382 -0.72918 15.2599 -0.690117L15.2599 7.43L12.2814 7.43L12.2814 -2.73113Z"/>
</svg>
