<?xml version="1.0" encoding="utf-8" ?>
<svg xmlns="http://www.w3.org/2000/svg" xmlns:xlink="http://www.w3.org/1999/xlink" width="110" height="110">
	<path fill="#E0C85C" transform="matrix(1.09263 0.920311 -0.920311 1.09263 69.2857 47.8571)" d="M7 0L3.5 6.06218L-3.5 6.06218L-7 -6.11959e-07L-3.5 -6.06218L3.5 -6.06218L7 0Z"/>
	<path fill="none" stroke="#B5A24B" stroke-width="3" stroke-linejoin="round" transform="matrix(1.09263 0.920311 -0.920311 1.09263 69.2857 47.8571)" d="M7 0L3.5 6.06218L-3.5 6.06218L-7 -6.11959e-07L-3.5 -6.06218L3.5 -6.06218L7 0Z"/>
	<path fill="#E0C85C" transform="matrix(-0.920311 1.09263 -1.09263 -0.920311 55 62.1429)" d="M7 0L3.5 6.06218L-3.5 6.06218L-7 -6.11959e-07L-3.5 -6.06218L3.5 -6.06218L7 0Z"/>
	<path fill="none" stroke="#B5A24B" stroke-width="3" stroke-linejoin="round" transform="matrix(-0.920311 1.09263 -1.09263 -0.920311 55 62.1429)" d="M7 0L3.5 6.06218L-3.5 6.06218L-7 -6.11959e-07L-3.5 -6.06218L3.5 -6.06218L7 0Z"/>
	<path fill="#E0C85C" transform="matrix(-1.09263 -0.920311 0.920311 -1.09263 40.7143 47.8571)" d="M7 0L3.5 6.06218L-3.5 6.06218L-7 -6.11959e-07L-3.5 -6.06218L3.5 -6.06218L7 0Z"/>
	<path fill="none" stroke="#B5A24B" stroke-width="3" stroke-linejoin="round" transform="matrix(-1.09263 -0.920311 0.920311 -1.09263 40.7143 47.8571)" d="M7 0L3.5 6.06218L-3.5 6.06218L-7 -6.11959e-07L-3.5 -6.06218L3.5 -6.06218L7 0Z"/>
	<path fill="#E0C85C" transform="matrix(0.920311 -1.09263 1.09263 0.920311 55 33.5714)" d="M7 0L3.5 6.06218L-3.5 6.06218L-7 -6.11959e-07L-3.5 -6.06218L3.5 -6.06218L7 0Z"/>
	<path fill="none" stroke="#B5A24B" stroke-width="3" stroke-linejoin="round" transform="matrix(0.920311 -1.09263 1.09263 0.920311 55 33.5714)" d="M7 0L3.5 6.06218L-3.5 6.06218L-7 -6.11959e-07L-3.5 -6.06218L3.5 -6.06218L7 0Z"/>
	<path fill="none" stroke="black" stroke-width="2.3999999" stroke-linejoin="round" transform="translate(55 79.2857)" d="M-17.8991 5.05207Q-17.2399 5.05207 -16.8102 4.94465Q-16.3806 4.83234 -16.1218 4.64191Q-15.8581 4.45148 -15.7604 4.1927Q-15.6579 3.92902 -15.6579 3.61164Q-15.6579 2.92805 -16.3024 2.47883Q-16.9421 2.02961 -18.4997 1.51203Q-19.1784 1.26789 -19.862 0.960273Q-20.5407 0.647773 -21.0827 0.179023Q-21.6198 -0.289727 -21.9616 -0.958672Q-22.2985 -1.62762 -22.2985 -2.58953Q-22.2985 -3.55145 -21.9421 -4.31805Q-21.5807 -5.08953 -20.9216 -5.62664Q-20.2624 -6.16863 -19.32 -6.45672Q-18.3776 -6.74969 -17.2009 -6.74969Q-15.7995 -6.74969 -14.779 -6.44695Q-13.7585 -6.1491 -13.0993 -5.78777L-13.9977 -3.33172Q-14.5788 -3.62957 -15.2917 -3.85906Q-15.9997 -4.08855 -17.0007 -4.08855Q-18.1188 -4.08855 -18.612 -3.77605Q-19.1003 -3.46844 -19.1003 -2.82879Q-19.1003 -2.44793 -18.9196 -2.18914Q-18.739 -1.93035 -18.4118 -1.72039Q-18.0798 -1.51043 -17.6501 -1.33953Q-17.2204 -1.16863 -16.6979 -0.987969Q-15.6188 -0.587578 -14.8229 -0.196953Q-14.0222 0.188789 -13.4899 0.71125Q-12.9577 1.22883 -12.6989 1.93195Q-12.4401 2.6302 -12.4401 3.63117Q-12.4401 5.56965 -13.8024 6.63898Q-15.1599 7.70832 -17.8991 7.70832Q-18.822 7.70832 -19.5641 7.59602Q-20.3015 7.48859 -20.8727 7.33234Q-21.4391 7.17121 -21.8493 6.99055Q-22.2595 6.80988 -22.5378 6.64875L-21.6589 4.16828Q-21.0388 4.51008 -20.1306 4.78352Q-19.2224 5.05207 -17.8991 5.05207ZM-6.22006 5.34992Q-5.78061 5.34992 -5.38022 5.33039Q-4.97983 5.31086 -4.74057 5.2718L-4.74057 3.01105Q-4.92123 2.97199 -5.28256 2.93293Q-5.63901 2.88898 -5.94174 2.88898Q-6.36166 2.88898 -6.73276 2.9427Q-7.09897 2.99152 -7.38217 3.13312Q-7.66049 3.26984 -7.82162 3.5091Q-7.97787 3.74836 -7.97787 4.10969Q-7.97787 4.80793 -7.50912 5.08137Q-7.04037 5.34992 -6.22006 5.34992ZM-6.45932 -3.37078Q-5.14096 -3.37078 -4.26205 -3.06805Q-3.37827 -2.7702 -2.85092 -2.20867Q-2.3187 -1.65203 -2.09897 -0.85125Q-1.87924 -0.0504689 -1.87924 0.930976L-1.87924 7.13215Q-2.51889 7.26887 -3.66147 7.4593Q-4.79916 7.64973 -6.42026 7.64973Q-7.44077 7.64973 -8.27084 7.46906Q-9.10092 7.2884 -9.70151 6.87824Q-10.3021 6.46809 -10.6244 5.80891Q-10.9417 5.14973 -10.9417 4.18781Q-10.9417 3.26984 -10.5706 2.6302Q-10.1996 1.99055 -9.57944 1.60969Q-8.95932 1.22883 -8.15854 1.06281Q-7.35776 0.891914 -6.49838 0.891914Q-5.92221 0.891914 -5.47299 0.940742Q-5.01889 0.98957 -4.74057 1.0677L-4.74057 0.789375Q-4.74057 0.0276561 -5.19955 -0.431328Q-5.65854 -0.890313 -6.80112 -0.890313Q-7.55795 -0.890313 -8.30014 -0.778008Q-9.04233 -0.670586 -9.57944 -0.470391L-9.9603 -2.86785Q-9.70151 -2.95086 -9.31088 -3.03875Q-8.92026 -3.13152 -8.46127 -3.19988Q-8.00229 -3.26824 -7.49448 -3.31707Q-6.98178 -3.37078 -6.45932 -3.37078ZM0.821365 -2.73113Q1.5782 -2.95086 2.77937 -3.14129Q3.98055 -3.33172 5.2989 -3.33172Q6.64168 -3.33172 7.53035 -2.98016Q8.41902 -2.62859 8.9366 -1.98895Q9.45906 -1.3493 9.67879 -0.470391Q9.89851 0.408515 9.89851 1.48762L9.89851 7.43L6.92 7.43L6.92 1.84895Q6.92 0.408515 6.53914 -0.187188Q6.15828 -0.787774 5.11824 -0.787774Q4.80086 -0.787774 4.43953 -0.758477Q4.0782 -0.72918 3.79988 -0.690117L3.79988 7.43L0.821365 7.43L0.821365 -2.73113ZM15.1404 2.0882Q15.1404 3.47004 15.7605 4.30988Q16.3806 5.14973 17.6013 5.14973Q18.0017 5.14973 18.3387 5.12043Q18.6805 5.09113 18.9002 5.05207L18.9002 -0.367852Q18.6219 -0.548516 18.1678 -0.665703Q17.7185 -0.787774 17.2596 -0.787774Q15.1404 -0.787774 15.1404 2.0882ZM21.8787 7.0882Q21.4783 7.21027 20.9558 7.32258Q20.4383 7.43 19.867 7.50812Q19.3006 7.59113 18.7097 7.63996Q18.1189 7.68879 17.5818 7.68879Q16.2781 7.68879 15.2576 7.31281Q14.242 6.93195 13.5388 6.22395Q12.8406 5.51105 12.4695 4.50031Q12.0984 3.48957 12.0984 2.2298Q12.0984 0.950508 12.4158 -0.0797658Q12.7381 -1.11004 13.3387 -1.82781Q13.9392 -2.55047 14.8084 -2.93133Q15.6824 -3.31219 16.8006 -3.31219Q17.4207 -3.31219 17.909 -3.19012Q18.4021 -3.06805 18.9002 -2.84832L18.9002 -7.60906L21.8787 -8.08758L21.8787 7.0882Z"/>
	<path fill="white" transform="translate(55 79.2857)" d="M-17.8991 5.05207Q-17.2399 5.05207 -16.8102 4.94465Q-16.3806 4.83234 -16.1218 4.64191Q-15.8581 4.45148 -15.7604 4.1927Q-15.6579 3.92902 -15.6579 3.61164Q-15.6579 2.92805 -16.3024 2.47883Q-16.9421 2.02961 -18.4997 1.51203Q-19.1784 1.26789 -19.862 0.960273Q-20.5407 0.647773 -21.0827 0.179023Q-21.6198 -0.289727 -21.9616 -0.958672Q-22.2985 -1.62762 -22.2985 -2.58953Q-22.2985 -3.55145 -21.9421 -4.31805Q-21.5807 -5.08953 -20.9216 -5.62664Q-20.2624 -6.16863 -19.32 -6.45672Q-18.3776 -6.74969 -17.2009 -6.74969Q-15.7995 -6.74969 -14.779 -6.44695Q-13.7585 -6.1491 -13.0993 -5.78777L-13.9977 -3.33172Q-14.5788 -3.62957 -15.2917 -3.85906Q-15.9997 -4.08855 -17.0007 -4.08855Q-18.1188 -4.08855 -18.612 -3.77605Q-19.1003 -3.46844 -19.1003 -2.82879Q-19.1003 -2.44793 -18.9196 -2.18914Q-18.739 -1.93035 -18.4118 -1.72039Q-18.0798 -1.51043 -17.6501 -1.33953Q-17.2204 -1.16863 -16.6979 -0.987969Q-15.6188 -0.587578 -14.8229 -0.196953Q-14.0222 0.188789 -13.4899 0.71125Q-12.9577 1.22883 -12.6989 1.93195Q-12.4401 2.6302 -12.4401 3.63117Q-12.4401 5.56965 -13.8024 6.63898Q-15.1599 7.70832 -17.8991 7.70832Q-18.822 7.70832 -19.5641 7.59602Q-20.3015 7.48859 -20.8727 7.33234Q-21.4391 7.17121 -21.8493 6.99055Q-22.2595 6.80988 -22.5378 6.64875L-21.6589 4.16828Q-21.0388 4.51008 -20.1306 4.78352Q-19.2224 5.05207 -17.8991 5.05207ZM-6.22006 5.34992Q-5.78061 5.34992 -5.38022 5.33039Q-4.97983 5.31086 -4.74057 5.2718L-4.74057 3.01105Q-4.92123 2.97199 -5.28256 2.93293Q-5.63901 2.88898 -5.94174 2.88898Q-6.36166 2.88898 -6.73276 2.9427Q-7.09897 2.99152 -7.38217 3.13312Q-7.66049 3.26984 -7.82162 3.5091Q-7.97787 3.74836 -7.97787 4.10969Q-7.97787 4.80793 -7.50912 5.08137Q-7.04037 5.34992 -6.22006 5.34992ZM-6.45932 -3.37078Q-5.14096 -3.37078 -4.26205 -3.06805Q-3.37827 -2.7702 -2.85092 -2.20867Q-2.3187 -1.65203 -2.09897 -0.85125Q-1.87924 -0.0504689 -1.87924 0.930976L-1.87924 7.13215Q-2.51889 7.26887 -3.66147 7.4593Q-4.79916 7.64973 -6.42026 7.64973Q-7.44077 7.64973 -8.27084 7.46906Q-9.10092 7.2884 -9.70151 6.87824Q-10.3021 6.46809 -10.6244 5.80891Q-10.9417 5.14973 -10.9417 4.18781Q-10.9417 3.26984 -10.5706 2.6302Q-10.1996 1.99055 -9.57944 1.60969Q-8.95932 1.22883 -8.15854 1.06281Q-7.35776 0.891914 -6.49838 0.891914Q-5.92221 0.891914 -5.47299 0.940742Q-5.01889 0.98957 -4.74057 1.0677L-4.74057 0.789375Q-4.74057 0.0276561 -5.19955 -0.431328Q-5.65854 -0.890313 -6.80112 -0.890313Q-7.55795 -0.890313 -8.30014 -0.778008Q-9.04233 -0.670586 -9.57944 -0.470391L-9.9603 -2.86785Q-9.70151 -2.95086 -9.31088 -3.03875Q-8.92026 -3.13152 -8.46127 -3.19988Q-8.00229 -3.26824 -7.49448 -3.31707Q-6.98178 -3.37078 -6.45932 -3.37078ZM0.821365 -2.73113Q1.5782 -2.95086 2.77937 -3.14129Q3.98055 -3.33172 5.2989 -3.33172Q6.64168 -3.33172 7.53035 -2.98016Q8.41902 -2.62859 8.9366 -1.98895Q9.45906 -1.3493 9.67879 -0.470391Q9.89851 0.408515 9.89851 1.48762L9.89851 7.43L6.92 7.43L6.92 1.84895Q6.92 0.408515 6.53914 -0.187188Q6.15828 -0.787774 5.11824 -0.787774Q4.80086 -0.787774 4.43953 -0.758477Q4.0782 -0.72918 3.79988 -0.690117L3.79988 7.43L0.821365 7.43L0.821365 -2.73113ZM15.1404 2.0882Q15.1404 3.47004 15.7605 4.30988Q16.3806 5.14973 17.6013 5.14973Q18.0017 5.14973 18.3387 5.12043Q18.6805 5.09113 18.9002 5.05207L18.9002 -0.367852Q18.6219 -0.548516 18.1678 -0.665703Q17.7185 -0.787774 17.2596 -0.787774Q15.1404 -0.787774 15.1404 2.0882ZM21.8787 7.0882Q21.4783 7.21027 20.9558 7.32258Q20.4383 7.43 19.867 7.50812Q19.3006 7.59113 18.7097 7.63996Q18.1189 7.68879 17.5818 7.68879Q16.2781 7.68879 15.2576 7.31281Q14.242 6.93195 13.5388 6.22395Q12.8406 5.51105 12.4695 4.50031Q12.0984 3.48957 12.0984 2.2298Q12.0984 0.950508 12.4158 -0.0797658Q12.7381 -1.11004 13.3387 -1.82781Q13.9392 -2.55047 14.8084 -2.93133Q15.6824 -3.31219 16.8006 -3.31219Q17.4207 -3.31219 17.909 -3.19012Q18.4021 -3.06805 18.9002 -2.84832L18.9002 -7.60906L21.8787 -8.08758L21.8787 7.0882Z"/>
</svg>
