<?xml version="1.0" encoding="utf-8" ?>
<svg xmlns="http://www.w3.org/2000/svg" xmlns:xlink="http://www.w3.org/1999/xlink" width="110" height="110">
	<path fill="#333" transform="matrix(1.09263 0.920311 -0.920311 1.09263 55 47.8571)" d="M10 5Q4 -14 -10 5Q4 0 10 5Z"/>
	<path fill="none" stroke="#292929" stroke-width="3" stroke-linejoin="round" transform="matrix(1.09263 0.920311 -0.920311 1.09263 55 47.8571)" d="M10 5Q4 -14 -10 5Q4 0 10 5Z"/>
	<path fill="none" stroke="black" stroke-width="2.3999999" stroke-linejoin="round" transform="translate(55 79.2857)" d="M-24.5182 -6.58855Q-21.4177 -6.58855 -19.7624 -5.49969Q-18.1022 -4.41082 -18.1022 -1.93035Q-18.1022 0.569648 -19.7819 1.68293Q-21.4616 2.79133 -24.5817 2.79133L-25.5583 2.79133L-25.5583 7.43L-28.6784 7.43L-28.6784 -6.23211Q-27.6579 -6.4323 -26.5202 -6.51043Q-25.3776 -6.58855 -24.5182 -6.58855ZM-24.3181 -3.9323Q-24.6599 -3.9323 -24.9919 -3.90789Q-25.319 -3.88836 -25.5583 -3.86883L-25.5583 0.130195L-24.5817 0.130195Q-22.9606 0.130195 -22.1403 -0.309258Q-21.32 -0.748711 -21.32 -1.94988Q-21.32 -2.53094 -21.53 -2.90691Q-21.7399 -3.28777 -22.1306 -3.51727Q-22.5212 -3.75164 -23.0827 -3.83953Q-23.6393 -3.9323 -24.3181 -3.9323ZM-13.0201 7.43L-15.9986 7.43L-15.9986 -3.08758L-13.0201 -3.08758L-13.0201 7.43ZM-12.7418 -6.12957Q-12.7418 -5.30926 -13.274 -4.84051Q-13.8013 -4.37176 -14.5191 -4.37176Q-15.2418 -4.37176 -15.774 -4.84051Q-16.3013 -5.30926 -16.3013 -6.12957Q-16.3013 -6.94988 -15.774 -7.41863Q-15.2418 -7.89227 -14.5191 -7.89227Q-13.8013 -7.89227 -13.274 -7.41863Q-12.7418 -6.94988 -12.7418 -6.12957ZM-10.2186 -2.73113Q-9.46178 -2.95086 -8.2606 -3.14129Q-7.05943 -3.33172 -5.74107 -3.33172Q-4.3983 -3.33172 -3.50963 -2.98016Q-2.62096 -2.62859 -2.10338 -1.98895Q-1.58092 -1.3493 -1.36119 -0.470391Q-1.14146 0.408515 -1.14146 1.48762L-1.14146 7.43L-4.11998 7.43L-4.11998 1.84895Q-4.11998 0.408515 -4.50084 -0.187188Q-4.8817 -0.787774 -5.92174 -0.787774Q-6.23912 -0.787774 -6.60045 -0.758477Q-6.96178 -0.72918 -7.2401 -0.690117L-7.2401 7.43L-10.2186 7.43L-10.2186 -2.73113ZM1.05844 2.17121Q1.05844 1.02863 1.42953 0.0227733Q1.80063 -0.987969 2.49887 -1.73992Q3.202 -2.49188 4.19809 -2.93133Q5.19907 -3.37078 6.47836 -3.37078Q7.31821 -3.37078 8.01645 -3.21941Q8.71957 -3.06805 9.37875 -2.78973L8.75864 -0.411797Q8.33871 -0.568047 7.83578 -0.690117Q7.33774 -0.812188 6.71762 -0.812188Q5.39926 -0.812188 4.74985 0.00812483Q4.10043 0.828437 4.10043 2.17121Q4.10043 3.59211 4.71078 4.37336Q5.32114 5.14973 6.83969 5.14973Q7.38168 5.14973 8.0018 5.05207Q8.62192 4.94953 9.1395 4.7298L9.55942 7.17121Q9.04184 7.39094 8.26059 7.54719Q7.47934 7.70832 6.54184 7.70832Q5.10141 7.70832 4.06137 7.27863Q3.02133 6.84895 2.3475 6.11164Q1.67856 5.36945 1.36606 4.35871Q1.05844 3.34797 1.05844 2.17121ZM11.0584 2.24934Q11.0584 0.847969 11.4881 -0.201836Q11.9178 -1.25164 12.616 -1.94988Q13.3192 -2.64813 14.2274 -3.00945Q15.1405 -3.37078 16.1024 -3.37078Q18.3387 -3.37078 19.6375 -1.99871Q20.9412 -0.631524 20.9412 2.02961Q20.9412 2.2884 20.9217 2.6009Q20.9022 2.90852 20.8778 3.14777L14.1199 3.14777Q14.2176 4.07062 14.9793 4.61262Q15.741 5.14973 17.0203 5.14973Q17.8407 5.14973 18.6268 5.00324Q19.4178 4.85187 19.9207 4.63215L20.3211 7.04914Q20.0819 7.17121 19.6815 7.29328Q19.2811 7.41047 18.7879 7.49836Q18.2996 7.59113 17.7381 7.64973Q17.1815 7.70832 16.6199 7.70832Q15.1991 7.70832 14.1492 7.2884Q13.0994 6.86848 12.4061 6.14094Q11.7176 5.40852 11.3856 4.41242Q11.0584 3.41145 11.0584 2.24934ZM18.0604 1.11164Q18.0408 0.730781 17.9285 0.369453Q17.8211 0.00812483 17.5916 -0.270195Q17.3621 -0.548516 17.0106 -0.72918Q16.659 -0.909844 16.1414 -0.909844Q15.6385 -0.909844 15.2772 -0.738945Q14.9207 -0.568047 14.6815 -0.289727Q14.4422 -0.0114064 14.3104 0.359687Q14.1785 0.730781 14.1199 1.11164L18.0604 1.11164ZM29.5792 -0.45086Q29.1788 -0.548516 28.6369 -0.655938Q28.0997 -0.768242 27.4796 -0.768242Q27.2013 -0.768242 26.8107 -0.719414Q26.4201 -0.670586 26.2199 -0.611992L26.2199 7.43L23.2413 7.43L23.2413 -2.53094Q24.0421 -2.80926 25.131 -3.05828Q26.2199 -3.31219 27.5578 -3.31219Q27.8019 -3.31219 28.1388 -3.27801Q28.4806 -3.24871 28.8175 -3.19988Q29.1593 -3.15105 29.4962 -3.07781Q29.838 -3.00945 30.0822 -2.9118L29.5792 -0.45086Z"/>
	<path fill="white" transform="translate(55 79.2857)" d="M-24.5182 -6.58855Q-21.4177 -6.58855 -19.7624 -5.49969Q-18.1022 -4.41082 -18.1022 -1.93035Q-18.1022 0.569648 -19.7819 1.68293Q-21.4616 2.79133 -24.5817 2.79133L-25.5583 2.79133L-25.5583 7.43L-28.6784 7.43L-28.6784 -6.23211Q-27.6579 -6.4323 -26.5202 -6.51043Q-25.3776 -6.58855 -24.5182 -6.58855ZM-24.3181 -3.9323Q-24.6599 -3.9323 -24.9919 -3.90789Q-25.319 -3.88836 -25.5583 -3.86883L-25.5583 0.130195L-24.5817 0.130195Q-22.9606 0.130195 -22.1403 -0.309258Q-21.32 -0.748711 -21.32 -1.94988Q-21.32 -2.53094 -21.53 -2.90691Q-21.7399 -3.28777 -22.1306 -3.51727Q-22.5212 -3.75164 -23.0827 -3.83953Q-23.6393 -3.9323 -24.3181 -3.9323ZM-13.0201 7.43L-15.9986 7.43L-15.9986 -3.08758L-13.0201 -3.08758L-13.0201 7.43ZM-12.7418 -6.12957Q-12.7418 -5.30926 -13.274 -4.84051Q-13.8013 -4.37176 -14.5191 -4.37176Q-15.2418 -4.37176 -15.774 -4.84051Q-16.3013 -5.30926 -16.3013 -6.12957Q-16.3013 -6.94988 -15.774 -7.41863Q-15.2418 -7.89227 -14.5191 -7.89227Q-13.8013 -7.89227 -13.274 -7.41863Q-12.7418 -6.94988 -12.7418 -6.12957ZM-10.2186 -2.73113Q-9.46178 -2.95086 -8.2606 -3.14129Q-7.05943 -3.33172 -5.74107 -3.33172Q-4.3983 -3.33172 -3.50963 -2.98016Q-2.62096 -2.62859 -2.10338 -1.98895Q-1.58092 -1.3493 -1.36119 -0.470391Q-1.14146 0.408515 -1.14146 1.48762L-1.14146 7.43L-4.11998 7.43L-4.11998 1.84895Q-4.11998 0.408515 -4.50084 -0.187188Q-4.8817 -0.787774 -5.92174 -0.787774Q-6.23912 -0.787774 -6.60045 -0.758477Q-6.96178 -0.72918 -7.2401 -0.690117L-7.2401 7.43L-10.2186 7.43L-10.2186 -2.73113ZM1.05844 2.17121Q1.05844 1.02863 1.42953 0.0227733Q1.80063 -0.987969 2.49887 -1.73992Q3.202 -2.49188 4.19809 -2.93133Q5.19907 -3.37078 6.47836 -3.37078Q7.31821 -3.37078 8.01645 -3.21941Q8.71957 -3.06805 9.37875 -2.78973L8.75864 -0.411797Q8.33871 -0.568047 7.83578 -0.690117Q7.33774 -0.812188 6.71762 -0.812188Q5.39926 -0.812188 4.74985 0.00812483Q4.10043 0.828437 4.10043 2.17121Q4.10043 3.59211 4.71078 4.37336Q5.32114 5.14973 6.83969 5.14973Q7.38168 5.14973 8.0018 5.05207Q8.62192 4.94953 9.1395 4.7298L9.55942 7.17121Q9.04184 7.39094 8.26059 7.54719Q7.47934 7.70832 6.54184 7.70832Q5.10141 7.70832 4.06137 7.27863Q3.02133 6.84895 2.3475 6.11164Q1.67856 5.36945 1.36606 4.35871Q1.05844 3.34797 1.05844 2.17121ZM11.0584 2.24934Q11.0584 0.847969 11.4881 -0.201836Q11.9178 -1.25164 12.616 -1.94988Q13.3192 -2.64813 14.2274 -3.00945Q15.1405 -3.37078 16.1024 -3.37078Q18.3387 -3.37078 19.6375 -1.99871Q20.9412 -0.631524 20.9412 2.02961Q20.9412 2.2884 20.9217 2.6009Q20.9022 2.90852 20.8778 3.14777L14.1199 3.14777Q14.2176 4.07062 14.9793 4.61262Q15.741 5.14973 17.0203 5.14973Q17.8407 5.14973 18.6268 5.00324Q19.4178 4.85187 19.9207 4.63215L20.3211 7.04914Q20.0819 7.17121 19.6815 7.29328Q19.2811 7.41047 18.7879 7.49836Q18.2996 7.59113 17.7381 7.64973Q17.1815 7.70832 16.6199 7.70832Q15.1991 7.70832 14.1492 7.2884Q13.0994 6.86848 12.4061 6.14094Q11.7176 5.40852 11.3856 4.41242Q11.0584 3.41145 11.0584 2.24934ZM18.0604 1.11164Q18.0408 0.730781 17.9285 0.369453Q17.8211 0.00812483 17.5916 -0.270195Q17.3621 -0.548516 17.0106 -0.72918Q16.659 -0.909844 16.1414 -0.909844Q15.6385 -0.909844 15.2772 -0.738945Q14.9207 -0.568047 14.6815 -0.289727Q14.4422 -0.0114064 14.3104 0.359687Q14.1785 0.730781 14.1199 1.11164L18.0604 1.11164ZM29.5792 -0.45086Q29.1788 -0.548516 28.6369 -0.655938Q28.0997 -0.768242 27.4796 -0.768242Q27.2013 -0.768242 26.8107 -0.719414Q26.4201 -0.670586 26.2199 -0.611992L26.2199 7.43L23.2413 7.43L23.2413 -2.53094Q24.0421 -2.80926 25.131 -3.05828Q26.2199 -3.31219 27.5578 -3.31219Q27.8019 -3.31219 28.1388 -3.27801Q28.4806 -3.24871 28.8175 -3.19988Q29.1593 -3.15105 29.4962 -3.07781Q29.838 -3.00945 30.0822 -2.9118L29.5792 -0.45086Z"/>
</svg>
