<?xml version="1.0" encoding="utf-8" ?>
<svg xmlns="http://www.w3.org/2000/svg" xmlns:xlink="http://www.w3.org/1999/xlink" width="110" height="110">
	<path fill="#74B53F" transform="matrix(0.77186 -1.2021 1.2021 0.77186 55 47.8571)" d="M14 0Q0 -12 -14 0Q0 12 14 0Z"/>
	<path fill="none" stroke="#5E9333" stroke-width="3" stroke-linecap="round" stroke-linejoin="round" transform="matrix(0.77186 -1.2021 1.2021 0.77186 55 47.8571)" d="M14 0Q0 -12 -14 0Q0 12 14 0Z"/>
	<path fill="none" stroke="#5E9333" stroke-width="2" stroke-linecap="round" stroke-linejoin="round" transform="matrix(0.77186 -1.2021 1.2021 0.77186 55 47.8571)" d="M14 0Q0 -12 -14 0Q0 12 14 0ZM14 0Q0 -3 -14 0"/>
	<path fill="none" stroke="black" stroke-width="2.3999999" stroke-linejoin="round" transform="translate(55 79.2857)" d="M-21.3503 -0.72918Q-20.5104 -2.15008 -19.7536 -3.57098Q-18.9919 -4.99188 -18.3522 -6.4323L-14.9098 -6.4323Q-16.0524 -4.19109 -17.2731 -2.09148Q-18.4889 0.00812483 -19.8512 2.13215L-19.8512 7.43L-22.9714 7.43L-22.9714 2.17121Q-24.3288 0.0520701 -25.5593 -2.06707Q-26.7897 -4.19109 -27.9323 -6.4323L-24.3093 -6.4323Q-23.6696 -4.99188 -22.9323 -3.57098Q-22.1901 -2.15008 -21.3503 -0.72918ZM-4.42912 7.06867Q-5.19083 7.2884 -6.39201 7.47883Q-7.58829 7.66926 -8.91154 7.66926Q-10.2494 7.66926 -11.143 7.31281Q-12.0317 6.95148 -12.5541 6.30207Q-13.0717 5.64777 -13.2914 4.74934Q-13.5111 3.8509 -13.5111 2.7718L-13.5111 -3.08758L-10.5277 -3.08758L-10.5277 2.41047Q-10.5277 3.8509 -10.1518 4.49055Q-9.77091 5.1302 -8.73087 5.1302Q-8.40861 5.1302 -8.05216 5.1009Q-7.69083 5.0716 -7.40763 5.02766L-7.40763 -3.08758L-4.42912 -3.08758L-4.42912 7.06867ZM-2.13155 2.17121Q-2.13155 1.02863 -1.76046 0.0227733Q-1.38937 -0.987969 -0.691124 -1.73992Q0.012001 -2.49188 1.00809 -2.93133Q2.00907 -3.37078 3.28837 -3.37078Q4.12821 -3.37078 4.82645 -3.21941Q5.52958 -3.06805 6.18876 -2.78973L5.56864 -0.411797Q5.14872 -0.568047 4.64579 -0.690117Q4.14774 -0.812188 3.52763 -0.812188Q2.20927 -0.812188 1.55985 0.00812483Q0.910439 0.828437 0.910439 2.17121Q0.910439 3.59211 1.52079 4.37336Q2.13114 5.14973 3.6497 5.14973Q4.19169 5.14973 4.81181 5.05207Q5.43192 4.94953 5.9495 4.7298L6.36942 7.17121Q5.85184 7.39094 5.07059 7.54719Q4.28934 7.70832 3.35184 7.70832Q1.91142 7.70832 0.871376 7.27863Q-0.168663 6.84895 -0.842491 6.11164Q-1.51144 5.36945 -1.82394 4.35871Q-2.13155 3.34797 -2.13155 2.17121ZM7.86843 2.17121Q7.86843 1.02863 8.23952 0.0227733Q8.61062 -0.987969 9.30886 -1.73992Q10.012 -2.49188 11.0081 -2.93133Q12.0091 -3.37078 13.2884 -3.37078Q14.1282 -3.37078 14.8264 -3.21941Q15.5296 -3.06805 16.1887 -2.78973L15.5686 -0.411797Q15.1487 -0.568047 14.6458 -0.690117Q14.1477 -0.812188 13.5276 -0.812188Q12.2093 -0.812188 11.5598 0.00812483Q10.9104 0.828437 10.9104 2.17121Q10.9104 3.59211 11.5208 4.37336Q12.1311 5.14973 13.6497 5.14973Q14.1917 5.14973 14.8118 5.05207Q15.4319 4.94953 15.9495 4.7298L16.3694 7.17121Q15.8518 7.39094 15.0706 7.54719Q14.2893 7.70832 13.3518 7.70832Q11.9114 7.70832 10.8714 7.27863Q9.83132 6.84895 9.15749 6.11164Q8.48855 5.36945 8.17605 4.35871Q7.86843 3.34797 7.86843 2.17121ZM22.3899 5.34992Q22.8294 5.34992 23.2297 5.33039Q23.6301 5.31086 23.8694 5.2718L23.8694 3.01105Q23.6887 2.97199 23.3274 2.93293Q22.971 2.88898 22.6682 2.88898Q22.2483 2.88898 21.8772 2.9427Q21.511 2.99152 21.2278 3.13312Q20.9495 3.26984 20.7883 3.5091Q20.6321 3.74836 20.6321 4.10969Q20.6321 4.80793 21.1008 5.08137Q21.5696 5.34992 22.3899 5.34992ZM22.1506 -3.37078Q23.469 -3.37078 24.3479 -3.06805Q25.2317 -2.7702 25.759 -2.20867Q26.2913 -1.65203 26.511 -0.85125Q26.7307 -0.0504689 26.7307 0.930976L26.7307 7.13215Q26.0911 7.26887 24.9485 7.4593Q23.8108 7.64973 22.1897 7.64973Q21.1692 7.64973 20.3391 7.46906Q19.509 7.2884 18.9085 6.87824Q18.3079 6.46809 17.9856 5.80891Q17.6682 5.14973 17.6682 4.18781Q17.6682 3.26984 18.0393 2.6302Q18.4104 1.99055 19.0305 1.60969Q19.6506 1.22883 20.4514 1.06281Q21.2522 0.891914 22.1116 0.891914Q22.6878 0.891914 23.137 0.940742Q23.5911 0.98957 23.8694 1.0677L23.8694 0.789375Q23.8694 0.0276561 23.4104 -0.431328Q22.9514 -0.890313 21.8088 -0.890313Q21.052 -0.890313 20.3098 -0.778008Q19.5676 -0.670586 19.0305 -0.470391L18.6497 -2.86785Q18.9085 -2.95086 19.2991 -3.03875Q19.6897 -3.13152 20.1487 -3.19988Q20.6077 -3.26824 21.1155 -3.31707Q21.6282 -3.37078 22.1506 -3.37078Z"/>
	<path fill="white" transform="translate(55 79.2857)" d="M-21.3503 -0.72918Q-20.5104 -2.15008 -19.7536 -3.57098Q-18.9919 -4.99188 -18.3522 -6.4323L-14.9098 -6.4323Q-16.0524 -4.19109 -17.2731 -2.09148Q-18.4889 0.00812483 -19.8512 2.13215L-19.8512 7.43L-22.9714 7.43L-22.9714 2.17121Q-24.3288 0.0520701 -25.5593 -2.06707Q-26.7897 -4.19109 -27.9323 -6.4323L-24.3093 -6.4323Q-23.6696 -4.99188 -22.9323 -3.57098Q-22.1901 -2.15008 -21.3503 -0.72918ZM-4.42912 7.06867Q-5.19083 7.2884 -6.39201 7.47883Q-7.58829 7.66926 -8.91154 7.66926Q-10.2494 7.66926 -11.143 7.31281Q-12.0317 6.95148 -12.5541 6.30207Q-13.0717 5.64777 -13.2914 4.74934Q-13.5111 3.8509 -13.5111 2.7718L-13.5111 -3.08758L-10.5277 -3.08758L-10.5277 2.41047Q-10.5277 3.8509 -10.1518 4.49055Q-9.77091 5.1302 -8.73087 5.1302Q-8.40861 5.1302 -8.05216 5.1009Q-7.69083 5.0716 -7.40763 5.02766L-7.40763 -3.08758L-4.42912 -3.08758L-4.42912 7.06867ZM-2.13155 2.17121Q-2.13155 1.02863 -1.76046 0.0227733Q-1.38937 -0.987969 -0.691124 -1.73992Q0.012001 -2.49188 1.00809 -2.93133Q2.00907 -3.37078 3.28837 -3.37078Q4.12821 -3.37078 4.82645 -3.21941Q5.52958 -3.06805 6.18876 -2.78973L5.56864 -0.411797Q5.14872 -0.568047 4.64579 -0.690117Q4.14774 -0.812188 3.52763 -0.812188Q2.20927 -0.812188 1.55985 0.00812483Q0.910439 0.828437 0.910439 2.17121Q0.910439 3.59211 1.52079 4.37336Q2.13114 5.14973 3.6497 5.14973Q4.19169 5.14973 4.81181 5.05207Q5.43192 4.94953 5.9495 4.7298L6.36942 7.17121Q5.85184 7.39094 5.07059 7.54719Q4.28934 7.70832 3.35184 7.70832Q1.91142 7.70832 0.871376 7.27863Q-0.168663 6.84895 -0.842491 6.11164Q-1.51144 5.36945 -1.82394 4.35871Q-2.13155 3.34797 -2.13155 2.17121ZM7.86843 2.17121Q7.86843 1.02863 8.23952 0.0227733Q8.61062 -0.987969 9.30886 -1.73992Q10.012 -2.49188 11.0081 -2.93133Q12.0091 -3.37078 13.2884 -3.37078Q14.1282 -3.37078 14.8264 -3.21941Q15.5296 -3.06805 16.1887 -2.78973L15.5686 -0.411797Q15.1487 -0.568047 14.6458 -0.690117Q14.1477 -0.812188 13.5276 -0.812188Q12.2093 -0.812188 11.5598 0.00812483Q10.9104 0.828437 10.9104 2.17121Q10.9104 3.59211 11.5208 4.37336Q12.1311 5.14973 13.6497 5.14973Q14.1917 5.14973 14.8118 5.05207Q15.4319 4.94953 15.9495 4.7298L16.3694 7.17121Q15.8518 7.39094 15.0706 7.54719Q14.2893 7.70832 13.3518 7.70832Q11.9114 7.70832 10.8714 7.27863Q9.83132 6.84895 9.15749 6.11164Q8.48855 5.36945 8.17605 4.35871Q7.86843 3.34797 7.86843 2.17121ZM22.3899 5.34992Q22.8294 5.34992 23.2297 5.33039Q23.6301 5.31086 23.8694 5.2718L23.8694 3.01105Q23.6887 2.97199 23.3274 2.93293Q22.971 2.88898 22.6682 2.88898Q22.2483 2.88898 21.8772 2.9427Q21.511 2.99152 21.2278 3.13312Q20.9495 3.26984 20.7883 3.5091Q20.6321 3.74836 20.6321 4.10969Q20.6321 4.80793 21.1008 5.08137Q21.5696 5.34992 22.3899 5.34992ZM22.1506 -3.37078Q23.469 -3.37078 24.3479 -3.06805Q25.2317 -2.7702 25.759 -2.20867Q26.2913 -1.65203 26.511 -0.85125Q26.7307 -0.0504689 26.7307 0.930976L26.7307 7.13215Q26.0911 7.26887 24.9485 7.4593Q23.8108 7.64973 22.1897 7.64973Q21.1692 7.64973 20.3391 7.46906Q19.509 7.2884 18.9085 6.87824Q18.3079 6.46809 17.9856 5.80891Q17.6682 5.14973 17.6682 4.18781Q17.6682 3.26984 18.0393 2.6302Q18.4104 1.99055 19.0305 1.60969Q19.6506 1.22883 20.4514 1.06281Q21.2522 0.891914 22.1116 0.891914Q22.6878 0.891914 23.137 0.940742Q23.5911 0.98957 23.8694 1.0677L23.8694 0.789375Q23.8694 0.0276561 23.4104 -0.431328Q22.9514 -0.890313 21.8088 -0.890313Q21.052 -0.890313 20.3098 -0.778008Q19.5676 -0.670586 19.0305 -0.470391L18.6497 -2.86785Q18.9085 -2.95086 19.2991 -3.03875Q19.6897 -3.13152 20.1487 -3.19988Q20.6077 -3.26824 21.1155 -3.31707Q21.6282 -3.37078 22.1506 -3.37078Z"/>
</svg>
