<?xml version="1.0" encoding="utf-8" ?>
<svg xmlns="http://www.w3.org/2000/svg" xmlns:xlink="http://www.w3.org/1999/xlink" width="110" height="110">
	<path fill="none" stroke="#363685" stroke-width="28" stroke-linecap="round" stroke-linejoin="round" transform="matrix(0.463116 -0.721261 0.721261 0.463116 43.4221 65.8887)" d="M39.5 18Q0 30 0 0"/>
	<path fill="none" stroke="#4343A4" stroke-width="16.799999" stroke-linecap="round" stroke-linejoin="round" transform="matrix(0.463116 -0.721261 0.721261 0.463116 43.4221 65.8887)" d="M40 18Q0 30 0 0"/>
	<path fill="none" stroke="#853636" stroke-width="28" stroke-linecap="round" stroke-linejoin="round" transform="matrix(0.463116 -0.721261 0.721261 0.463116 43.4221 65.8887)" d="M39.5 -18Q0 -30 0 0"/>
	<path fill="none" stroke="#A44343" stroke-width="16.799999" stroke-linecap="round" stroke-linejoin="round" transform="matrix(0.463116 -0.721261 0.721261 0.463116 43.4221 65.8887)" d="M40 -18Q0 -30 0 0"/>
	<path fill="none" stroke="#363685" stroke-width="28" stroke-linejoin="round" transform="matrix(0.463116 -0.721261 0.721261 0.463116 43.4221 65.8887)" d="M39.5 18Q0 30 0 0"/>
	<path fill="none" stroke="#4343A4" stroke-width="16.799999" stroke-linejoin="round" transform="matrix(0.463116 -0.721261 0.721261 0.463116 43.4221 65.8887)" d="M40 18Q0 30 0 0"/>
	<path fill="none" stroke="#853636" stroke-width="28" stroke-linejoin="round" transform="matrix(0.463116 -0.721261 0.721261 0.463116 43.4221 65.8887)" d="M39.5 -18Q0 -30 0 0"/>
	<path fill="none" stroke="#A44343" stroke-width="16.799999" stroke-linejoin="round" transform="matrix(0.463116 -0.721261 0.721261 0.463116 43.4221 65.8887)" d="M40 -18Q0 -30 0 0"/>
	<path fill="none" stroke="black" stroke-width="2.3999999" stroke-linejoin="round" transform="translate(55 79.2857)" d="M-31.3316 -6.4323Q-30.9703 -5.76824 -30.5016 -4.79656Q-30.0279 -3.82977 -29.5201 -2.69695Q-29.0123 -1.56902 -28.5143 -0.387383Q-28.0113 0.789375 -27.5719 1.82941Q-27.1275 0.789375 -26.6295 -0.387383Q-26.1314 -1.56902 -25.6236 -2.69695Q-25.1109 -3.82977 -24.6422 -4.79656Q-24.1686 -5.76824 -23.8121 -6.4323L-20.9703 -6.4323Q-20.7701 -5.05047 -20.5992 -3.3366Q-20.4283 -1.62762 -20.3014 0.222969Q-20.1695 2.06867 -20.0621 3.92902Q-19.9498 5.78937 -19.8717 7.43L-22.9088 7.43Q-22.9723 5.40852 -23.0699 3.03059Q-23.1676 0.647773 -23.3678 -1.76922Q-23.7291 -0.929375 -24.1686 0.0911326Q-24.608 1.11164 -25.0426 2.13215Q-25.4723 3.14777 -25.8727 4.08039Q-26.2682 5.00812 -26.5514 5.67219L-28.7291 5.67219Q-29.0123 5.00812 -29.4127 4.08039Q-29.8082 3.14777 -30.2379 2.13215Q-30.6676 1.11164 -31.1119 0.0911326Q-31.5514 -0.929375 -31.9078 -1.76922Q-32.108 0.647773 -32.2105 3.03059Q-32.3082 5.40852 -32.3717 7.43L-35.4088 7.43Q-35.3307 5.78937 -35.2232 3.92902Q-35.1109 2.06867 -34.984 0.222969Q-34.8521 -1.62762 -34.6813 -3.3366Q-34.5104 -5.05047 -34.3102 -6.4323L-31.3316 -6.4323ZM-13.2501 5.34992Q-12.8106 5.34992 -12.4102 5.33039Q-12.0098 5.31086 -11.7706 5.2718L-11.7706 3.01105Q-11.9512 2.97199 -12.3126 2.93293Q-12.669 2.88898 -12.9717 2.88898Q-13.3917 2.88898 -13.7627 2.9427Q-14.129 2.99152 -14.4122 3.13312Q-14.6905 3.26984 -14.8516 3.5091Q-15.0079 3.74836 -15.0079 4.10969Q-15.0079 4.80793 -14.5391 5.08137Q-14.0704 5.34992 -13.2501 5.34992ZM-13.4893 -3.37078Q-12.171 -3.37078 -11.292 -3.06805Q-10.4083 -2.7702 -9.88091 -2.20867Q-9.34869 -1.65203 -9.12896 -0.85125Q-8.90923 -0.0504689 -8.90923 0.930976L-8.90923 7.13215Q-9.54888 7.26887 -10.6915 7.4593Q-11.8292 7.64973 -13.4502 7.64973Q-14.4708 7.64973 -15.3008 7.46906Q-16.1309 7.2884 -16.7315 6.87824Q-17.3321 6.46809 -17.6544 5.80891Q-17.9717 5.14973 -17.9717 4.18781Q-17.9717 3.26984 -17.6006 2.6302Q-17.2295 1.99055 -16.6094 1.60969Q-15.9893 1.22883 -15.1885 1.06281Q-14.3877 0.891914 -13.5284 0.891914Q-12.9522 0.891914 -12.503 0.940742Q-12.0489 0.98957 -11.7706 1.0677L-11.7706 0.789375Q-11.7706 0.0276561 -12.2295 -0.431328Q-12.6885 -0.890313 -13.8311 -0.890313Q-14.5879 -0.890313 -15.3301 -0.778008Q-16.0723 -0.670586 -16.6094 -0.470391L-16.9903 -2.86785Q-16.7315 -2.95086 -16.3409 -3.03875Q-15.9502 -3.13152 -15.4913 -3.19988Q-15.0323 -3.26824 -14.5245 -3.31707Q-14.0118 -3.37078 -13.4893 -3.37078ZM-3.66956 1.82941Q-3.66956 4.32941 -1.64808 4.32941Q-1.18909 4.32941 -0.788704 4.21223Q-0.388313 4.09016 -0.109993 3.92902L-0.109993 -0.831719Q-0.32972 -0.870781 -0.632454 -0.900078Q-0.930305 -0.929375 -1.3307 -0.929375Q-2.51234 -0.929375 -3.09339 -0.148125Q-3.66956 0.628242 -3.66956 1.82941ZM2.86852 6.11164Q2.86852 8.68977 1.55993 9.93977Q0.251335 11.1898 -2.48792 11.1898Q-3.44984 11.1898 -4.41175 11.0189Q-5.36878 10.848 -6.18909 10.5696L-5.67152 8.06965Q-4.96839 8.34797 -4.20179 8.5091Q-3.43031 8.67023 -2.44886 8.67023Q-1.16956 8.67023 -0.64222 8.10871Q-0.109993 7.55207 -0.109993 6.66828L-0.109993 6.2923Q-0.588509 6.51203 -1.1012 6.62434Q-1.60902 6.73176 -2.2096 6.73176Q-4.39222 6.73176 -5.55433 5.4427Q-6.71156 4.14875 -6.71156 1.82941Q-6.71156 0.672187 -6.35023 -0.279961Q-5.9889 -1.23211 -5.30042 -1.91082Q-4.61195 -2.58953 -3.61097 -2.96063Q-2.60999 -3.33172 -1.35023 -3.33172Q-0.808235 -3.33172 -0.241829 -3.27801Q0.32946 -3.22918 0.886101 -3.14617Q1.44762 -3.06805 1.95544 -2.95574Q2.46813 -2.84832 2.86852 -2.73113L2.86852 6.11164ZM5.67136 -2.73113Q6.4282 -2.95086 7.62937 -3.14129Q8.83054 -3.33172 10.1489 -3.33172Q11.4917 -3.33172 12.3803 -2.98016Q13.269 -2.62859 13.7866 -1.98895Q14.3091 -1.3493 14.5288 -0.470391Q14.7485 0.408515 14.7485 1.48762L14.7485 7.43L11.77 7.43L11.77 1.84895Q11.77 0.408515 11.3891 -0.187188Q11.0083 -0.787774 9.96824 -0.787774Q9.65086 -0.787774 9.28953 -0.758477Q8.9282 -0.72918 8.64988 -0.690117L8.64988 7.43L5.67136 7.43L5.67136 -2.73113ZM16.9484 2.24934Q16.9484 0.847969 17.3781 -0.201836Q17.8078 -1.25164 18.506 -1.94988Q19.2092 -2.64813 20.1174 -3.00945Q21.0304 -3.37078 21.9924 -3.37078Q24.2287 -3.37078 25.5275 -1.99871Q26.8312 -0.631524 26.8312 2.02961Q26.8312 2.2884 26.8117 2.6009Q26.7922 2.90852 26.7678 3.14777L20.0099 3.14777Q20.1076 4.07062 20.8693 4.61262Q21.631 5.14973 22.9103 5.14973Q23.7306 5.14973 24.5168 5.00324Q25.3078 4.85187 25.8107 4.63215L26.2111 7.04914Q25.9719 7.17121 25.5715 7.29328Q25.1711 7.41047 24.6779 7.49836Q24.1896 7.59113 23.6281 7.64973Q23.0715 7.70832 22.5099 7.70832Q21.089 7.70832 20.0392 7.2884Q18.9894 6.86848 18.2961 6.14094Q17.6076 5.40852 17.2756 4.41242Q16.9484 3.41145 16.9484 2.24934ZM23.9504 1.11164Q23.9308 0.730781 23.8185 0.369453Q23.7111 0.00812483 23.4816 -0.270195Q23.2521 -0.548516 22.9006 -0.72918Q22.549 -0.909844 22.0314 -0.909844Q21.5285 -0.909844 21.1672 -0.738945Q20.8107 -0.568047 20.5715 -0.289727Q20.3322 -0.0114064 20.2004 0.359687Q20.0685 0.730781 20.0099 1.11164L23.9504 1.11164ZM29.0288 -5.70965L32.0122 -6.18816L32.0122 -3.08758L35.5913 -3.08758L35.5913 -0.611992L32.0122 -0.611992L32.0122 3.08918Q32.0122 4.03156 32.3393 4.59309Q32.6714 5.14973 33.6724 5.14973Q34.1509 5.14973 34.6587 5.06184Q35.1714 4.96906 35.5913 4.80793L36.0112 7.13215Q35.4692 7.35187 34.8101 7.50812Q34.1509 7.66926 33.189 7.66926Q31.9683 7.66926 31.1675 7.34211Q30.3716 7.01008 29.8882 6.41926Q29.4097 5.82844 29.2192 4.98859Q29.0288 4.14875 29.0288 3.12824L29.0288 -5.70965Z"/>
	<path fill="white" transform="translate(55 79.2857)" d="M-31.3316 -6.4323Q-30.9703 -5.76824 -30.5016 -4.79656Q-30.0279 -3.82977 -29.5201 -2.69695Q-29.0123 -1.56902 -28.5143 -0.387383Q-28.0113 0.789375 -27.5719 1.82941Q-27.1275 0.789375 -26.6295 -0.387383Q-26.1314 -1.56902 -25.6236 -2.69695Q-25.1109 -3.82977 -24.6422 -4.79656Q-24.1686 -5.76824 -23.8121 -6.4323L-20.9703 -6.4323Q-20.7701 -5.05047 -20.5992 -3.3366Q-20.4283 -1.62762 -20.3014 0.222969Q-20.1695 2.06867 -20.0621 3.92902Q-19.9498 5.78937 -19.8717 7.43L-22.9088 7.43Q-22.9723 5.40852 -23.0699 3.03059Q-23.1676 0.647773 -23.3678 -1.76922Q-23.7291 -0.929375 -24.1686 0.0911326Q-24.608 1.11164 -25.0426 2.13215Q-25.4723 3.14777 -25.8727 4.08039Q-26.2682 5.00812 -26.5514 5.67219L-28.7291 5.67219Q-29.0123 5.00812 -29.4127 4.08039Q-29.8082 3.14777 -30.2379 2.13215Q-30.6676 1.11164 -31.1119 0.0911326Q-31.5514 -0.929375 -31.9078 -1.76922Q-32.108 0.647773 -32.2105 3.03059Q-32.3082 5.40852 -32.3717 7.43L-35.4088 7.43Q-35.3307 5.78937 -35.2232 3.92902Q-35.1109 2.06867 -34.984 0.222969Q-34.8521 -1.62762 -34.6813 -3.3366Q-34.5104 -5.05047 -34.3102 -6.4323L-31.3316 -6.4323ZM-13.2501 5.34992Q-12.8106 5.34992 -12.4102 5.33039Q-12.0098 5.31086 -11.7706 5.2718L-11.7706 3.01105Q-11.9512 2.97199 -12.3126 2.93293Q-12.669 2.88898 -12.9717 2.88898Q-13.3917 2.88898 -13.7627 2.9427Q-14.129 2.99152 -14.4122 3.13312Q-14.6905 3.26984 -14.8516 3.5091Q-15.0079 3.74836 -15.0079 4.10969Q-15.0079 4.80793 -14.5391 5.08137Q-14.0704 5.34992 -13.2501 5.34992ZM-13.4893 -3.37078Q-12.171 -3.37078 -11.292 -3.06805Q-10.4083 -2.7702 -9.88091 -2.20867Q-9.34869 -1.65203 -9.12896 -0.85125Q-8.90923 -0.0504689 -8.90923 0.930976L-8.90923 7.13215Q-9.54888 7.26887 -10.6915 7.4593Q-11.8292 7.64973 -13.4502 7.64973Q-14.4708 7.64973 -15.3008 7.46906Q-16.1309 7.2884 -16.7315 6.87824Q-17.3321 6.46809 -17.6544 5.80891Q-17.9717 5.14973 -17.9717 4.18781Q-17.9717 3.26984 -17.6006 2.6302Q-17.2295 1.99055 -16.6094 1.60969Q-15.9893 1.22883 -15.1885 1.06281Q-14.3877 0.891914 -13.5284 0.891914Q-12.9522 0.891914 -12.503 0.940742Q-12.0489 0.98957 -11.7706 1.0677L-11.7706 0.789375Q-11.7706 0.0276561 -12.2295 -0.431328Q-12.6885 -0.890313 -13.8311 -0.890313Q-14.5879 -0.890313 -15.3301 -0.778008Q-16.0723 -0.670586 -16.6094 -0.470391L-16.9903 -2.86785Q-16.7315 -2.95086 -16.3409 -3.03875Q-15.9502 -3.13152 -15.4913 -3.19988Q-15.0323 -3.26824 -14.5245 -3.31707Q-14.0118 -3.37078 -13.4893 -3.37078ZM-3.66956 1.82941Q-3.66956 4.32941 -1.64808 4.32941Q-1.18909 4.32941 -0.788704 4.21223Q-0.388313 4.09016 -0.109993 3.92902L-0.109993 -0.831719Q-0.32972 -0.870781 -0.632454 -0.900078Q-0.930305 -0.929375 -1.3307 -0.929375Q-2.51234 -0.929375 -3.09339 -0.148125Q-3.66956 0.628242 -3.66956 1.82941ZM2.86852 6.11164Q2.86852 8.68977 1.55993 9.93977Q0.251335 11.1898 -2.48792 11.1898Q-3.44984 11.1898 -4.41175 11.0189Q-5.36878 10.848 -6.18909 10.5696L-5.67152 8.06965Q-4.96839 8.34797 -4.20179 8.5091Q-3.43031 8.67023 -2.44886 8.67023Q-1.16956 8.67023 -0.64222 8.10871Q-0.109993 7.55207 -0.109993 6.66828L-0.109993 6.2923Q-0.588509 6.51203 -1.1012 6.62434Q-1.60902 6.73176 -2.2096 6.73176Q-4.39222 6.73176 -5.55433 5.4427Q-6.71156 4.14875 -6.71156 1.82941Q-6.71156 0.672187 -6.35023 -0.279961Q-5.9889 -1.23211 -5.30042 -1.91082Q-4.61195 -2.58953 -3.61097 -2.96063Q-2.60999 -3.33172 -1.35023 -3.33172Q-0.808235 -3.33172 -0.241829 -3.27801Q0.32946 -3.22918 0.886101 -3.14617Q1.44762 -3.06805 1.95544 -2.95574Q2.46813 -2.84832 2.86852 -2.73113L2.86852 6.11164ZM5.67136 -2.73113Q6.4282 -2.95086 7.62937 -3.14129Q8.83054 -3.33172 10.1489 -3.33172Q11.4917 -3.33172 12.3803 -2.98016Q13.269 -2.62859 13.7866 -1.98895Q14.3091 -1.3493 14.5288 -0.470391Q14.7485 0.408515 14.7485 1.48762L14.7485 7.43L11.77 7.43L11.77 1.84895Q11.77 0.408515 11.3891 -0.187188Q11.0083 -0.787774 9.96824 -0.787774Q9.65086 -0.787774 9.28953 -0.758477Q8.9282 -0.72918 8.64988 -0.690117L8.64988 7.43L5.67136 7.43L5.67136 -2.73113ZM16.9484 2.24934Q16.9484 0.847969 17.3781 -0.201836Q17.8078 -1.25164 18.506 -1.94988Q19.2092 -2.64813 20.1174 -3.00945Q21.0304 -3.37078 21.9924 -3.37078Q24.2287 -3.37078 25.5275 -1.99871Q26.8312 -0.631524 26.8312 2.02961Q26.8312 2.2884 26.8117 2.6009Q26.7922 2.90852 26.7678 3.14777L20.0099 3.14777Q20.1076 4.07062 20.8693 4.61262Q21.631 5.14973 22.9103 5.14973Q23.7306 5.14973 24.5168 5.00324Q25.3078 4.85187 25.8107 4.63215L26.2111 7.04914Q25.9719 7.17121 25.5715 7.29328Q25.1711 7.41047 24.6779 7.49836Q24.1896 7.59113 23.6281 7.64973Q23.0715 7.70832 22.5099 7.70832Q21.089 7.70832 20.0392 7.2884Q18.9894 6.86848 18.2961 6.14094Q17.6076 5.40852 17.2756 4.41242Q16.9484 3.41145 16.9484 2.24934ZM23.9504 1.11164Q23.9308 0.730781 23.8185 0.369453Q23.7111 0.00812483 23.4816 -0.270195Q23.2521 -0.548516 22.9006 -0.72918Q22.549 -0.909844 22.0314 -0.909844Q21.5285 -0.909844 21.1672 -0.738945Q20.8107 -0.568047 20.5715 -0.289727Q20.3322 -0.0114064 20.2004 0.359687Q20.0685 0.730781 20.0099 1.11164L23.9504 1.11164ZM29.0288 -5.70965L32.0122 -6.18816L32.0122 -3.08758L35.5913 -3.08758L35.5913 -0.611992L32.0122 -0.611992L32.0122 3.08918Q32.0122 4.03156 32.3393 4.59309Q32.6714 5.14973 33.6724 5.14973Q34.1509 5.14973 34.6587 5.06184Q35.1714 4.96906 35.5913 4.80793L36.0112 7.13215Q35.4692 7.35187 34.8101 7.50812Q34.1509 7.66926 33.189 7.66926Q31.9683 7.66926 31.1675 7.34211Q30.3716 7.01008 29.8882 6.41926Q29.4097 5.82844 29.2192 4.98859Q29.0288 4.14875 29.0288 3.12824L29.0288 -5.70965Z"/>
</svg>
