<?xml version="1.0" encoding="utf-8" ?>
<svg xmlns="http://www.w3.org/2000/svg" xmlns:xlink="http://www.w3.org/1999/xlink" width="110" height="110">
	<path fill="#CFCFCF" transform="matrix(1.42857 0 0 1.42857 69.2857 47.8571)" d="M8.5 0Q8.5 0.208663 8.48976 0.417075Q8.47952 0.625487 8.45907 0.833146Q8.43862 1.0408 8.408 1.24721Q8.37738 1.45361 8.33667 1.65827Q8.29597 1.86292 8.24527 2.06533Q8.19456 2.26774 8.13399 2.46742Q8.07342 2.6671 8.00312 2.86356Q7.93283 3.06003 7.85298 3.25281Q7.77312 3.44559 7.68391 3.63422Q7.59469 3.82285 7.49633 4.00687Q7.39797 4.1909 7.29069 4.36987Q7.18342 4.54885 7.06749 4.72235Q6.95156 4.89584 6.82726 5.06344Q6.70296 5.23104 6.57059 5.39234Q6.43821 5.55364 6.29808 5.70825Q6.15795 5.86286 6.01041 6.01041Q5.86286 6.15795 5.70825 6.29808Q5.55364 6.43821 5.39234 6.57059Q5.23104 6.70296 5.06344 6.82726Q4.89584 6.95156 4.72235 7.06749Q4.54885 7.18342 4.36987 7.29069Q4.1909 7.39797 4.00687 7.49633Q3.82285 7.59469 3.63422 7.68391Q3.44559 7.77312 3.25281 7.85298Q3.06003 7.93283 2.86356 8.00312Q2.6671 8.07342 2.46742 8.13399Q2.26774 8.19456 2.06533 8.24527Q1.86292 8.29597 1.65827 8.33667Q1.45361 8.37738 1.24721 8.408Q1.0408 8.43862 0.833146 8.45907Q0.625487 8.47952 0.417075 8.48976Q0.208663 8.5 0 8.5Q-0.208663 8.5 -0.417075 8.48976Q-0.625487 8.47952 -0.833146 8.45907Q-1.0408 8.43862 -1.24721 8.408Q-1.45361 8.37738 -1.65827 8.33667Q-1.86292 8.29597 -2.06533 8.24527Q-2.26774 8.19456 -2.46742 8.13399Q-2.6671 8.07342 -2.86356 8.00312Q-3.06003 7.93283 -3.25281 7.85298Q-3.44559 7.77312 -3.63422 7.68391Q-3.82285 7.59469 -4.00687 7.49633Q-4.1909 7.39797 -4.36987 7.29069Q-4.54885 7.18342 -4.72235 7.06749Q-4.89584 6.95156 -5.06344 6.82726Q-5.23104 6.70296 -5.39234 6.57059Q-5.55364 6.43821 -5.70825 6.29808Q-5.86286 6.15795 -6.01041 6.01041Q-6.15795 5.86286 -6.29808 5.70825Q-6.43821 5.55364 -6.57059 5.39234Q-6.70296 5.23104 -6.82726 5.06344Q-6.95156 4.89584 -7.06749 4.72235Q-7.18342 4.54885 -7.29069 4.36987Q-7.39797 4.1909 -7.49633 4.00687Q-7.59469 3.82285 -7.68391 3.63422Q-7.77312 3.44559 -7.85298 3.25281Q-7.93283 3.06003 -8.00312 2.86356Q-8.07342 2.6671 -8.13399 2.46742Q-8.19456 2.26774 -8.24527 2.06533Q-8.29597 1.86292 -8.33667 1.65827Q-8.37738 1.45361 -8.408 1.24721Q-8.43862 1.0408 -8.45907 0.833146Q-8.47952 0.625487 -8.48976 0.417075Q-8.5 0.208663 -8.5 0Q-8.5 -0.208663 -8.48976 -0.417075Q-8.47952 -0.625487 -8.45907 -0.833146Q-8.43862 -1.0408 -8.408 -1.24721Q-8.37738 -1.45361 -8.33667 -1.65827Q-8.29597 -1.86292 -8.24527 -2.06533Q-8.19456 -2.26774 -8.13399 -2.46742Q-8.07342 -2.6671 -8.00312 -2.86356Q-7.93283 -3.06003 -7.85298 -3.25281Q-7.77312 -3.44559 -7.68391 -3.63422Q-7.59469 -3.82285 -7.49633 -4.00687Q-7.39797 -4.1909 -7.29069 -4.36987Q-7.18342 -4.54885 -7.06749 -4.72235Q-6.95156 -4.89584 -6.82726 -5.06344Q-6.70296 -5.23104 -6.57059 -5.39234Q-6.43821 -5.55364 -6.29808 -5.70825Q-6.15795 -5.86286 -6.01041 -6.01041Q-5.86286 -6.15795 -5.70825 -6.29808Q-5.55364 -6.43821 -5.39234 -6.57059Q-5.23104 -6.70296 -5.06344 -6.82726Q-4.89584 -6.95156 -4.72235 -7.06749Q-4.54885 -7.18342 -4.36987 -7.29069Q-4.1909 -7.39797 -4.00687 -7.49633Q-3.82285 -7.59469 -3.63422 -7.68391Q-3.44559 -7.77312 -3.25281 -7.85298Q-3.06003 -7.93283 -2.86356 -8.00312Q-2.6671 -8.07342 -2.46742 -8.13399Q-2.26774 -8.19456 -2.06533 -8.24527Q-1.86292 -8.29597 -1.65827 -8.33667Q-1.45361 -8.37738 -1.24721 -8.408Q-1.0408 -8.43862 -0.833146 -8.45907Q-0.625487 -8.47952 -0.417075 -8.48976Q-0.208663 -8.5 0 -8.5Q0.208663 -8.5 0.417075 -8.48976Q0.625487 -8.47952 0.833146 -8.45907Q1.0408 -8.43862 1.24721 -8.408Q1.45361 -8.37738 1.65827 -8.33667Q1.86292 -8.29597 2.06533 -8.24527Q2.26774 -8.19456 2.46742 -8.13399Q2.6671 -8.07342 2.86356 -8.00312Q3.06003 -7.93283 3.25281 -7.85298Q3.44559 -7.77312 3.63422 -7.68391Q3.82285 -7.59469 4.00687 -7.49633Q4.1909 -7.39797 4.36987 -7.29069Q4.54885 -7.18342 4.72235 -7.06749Q4.89584 -6.95156 5.06344 -6.82726Q5.23104 -6.70296 5.39234 -6.57059Q5.55364 -6.43821 5.70825 -6.29808Q5.86286 -6.15795 6.01041 -6.01041Q6.15795 -5.86286 6.29808 -5.70825Q6.43821 -5.55364 6.57059 -5.39234Q6.70296 -5.23104 6.82726 -5.06344Q6.95156 -4.89584 7.06749 -4.72235Q7.18342 -4.54885 7.29069 -4.36987Q7.39797 -4.1909 7.49633 -4.00687Q7.59469 -3.82285 7.68391 -3.63422Q7.77312 -3.44559 7.85298 -3.25281Q7.93283 -3.06003 8.00312 -2.86356Q8.07342 -2.6671 8.13399 -2.46742Q8.19456 -2.26774 8.24527 -2.06533Q8.29597 -1.86292 8.33667 -1.65827Q8.37738 -1.45361 8.408 -1.24721Q8.43862 -1.0408 8.45907 -0.833146Q8.47952 -0.625487 8.48976 -0.417075Q8.5 -0.208663 8.5 0"/>
	<path fill="white" transform="matrix(1.42857 0 0 1.42857 69.2857 47.8571)" d="M5.5 0Q5.5 0.135017 5.49337 0.269872Q5.48675 0.404727 5.47352 0.539094Q5.46028 0.673461 5.44047 0.807017Q5.42066 0.940574 5.39432 1.073Q5.36798 1.20542 5.33517 1.33639Q5.30237 1.46736 5.26317 1.59657Q5.22398 1.72577 5.17849 1.85289Q5.13301 1.98002 5.08134 2.10476Q5.02967 2.2295 4.97194 2.35155Q4.91421 2.47361 4.85057 2.59268Q4.78692 2.71176 4.71751 2.82756Q4.64809 2.94337 4.57308 3.05564Q4.49807 3.1679 4.41764 3.27635Q4.33721 3.38479 4.25156 3.48916Q4.1659 3.59353 4.07523 3.69357Q3.98456 3.79362 3.88909 3.88909Q3.79362 3.98456 3.69357 4.07523Q3.59353 4.1659 3.48916 4.25156Q3.38479 4.33721 3.27635 4.41764Q3.1679 4.49807 3.05564 4.57308Q2.94337 4.64809 2.82756 4.71751Q2.71176 4.78692 2.59268 4.85057Q2.47361 4.91421 2.35155 4.97194Q2.2295 5.02967 2.10476 5.08134Q1.98002 5.13301 1.85289 5.17849Q1.72577 5.22398 1.59657 5.26317Q1.46736 5.30237 1.33639 5.33517Q1.20542 5.36798 1.073 5.39432Q0.940574 5.42066 0.807017 5.44047Q0.673461 5.46028 0.539094 5.47352Q0.404727 5.48675 0.269872 5.49338Q0.135017 5.5 0 5.5Q-0.135017 5.5 -0.269872 5.49337Q-0.404727 5.48675 -0.539094 5.47352Q-0.673461 5.46028 -0.807017 5.44047Q-0.940574 5.42066 -1.073 5.39432Q-1.20542 5.36798 -1.33639 5.33517Q-1.46736 5.30237 -1.59657 5.26317Q-1.72577 5.22398 -1.85289 5.17849Q-1.98002 5.13301 -2.10476 5.08134Q-2.2295 5.02967 -2.35155 4.97194Q-2.47361 4.91421 -2.59268 4.85057Q-2.71176 4.78692 -2.82756 4.71751Q-2.94337 4.64809 -3.05564 4.57308Q-3.1679 4.49807 -3.27635 4.41764Q-3.38479 4.33721 -3.48916 4.25156Q-3.59353 4.1659 -3.69357 4.07523Q-3.79362 3.98456 -3.88909 3.88909Q-3.98456 3.79362 -4.07523 3.69357Q-4.1659 3.59353 -4.25156 3.48916Q-4.33721 3.38479 -4.41764 3.27635Q-4.49807 3.1679 -4.57308 3.05564Q-4.64809 2.94337 -4.71751 2.82756Q-4.78692 2.71176 -4.85057 2.59268Q-4.91421 2.47361 -4.97194 2.35155Q-5.02967 2.2295 -5.08134 2.10476Q-5.13301 1.98002 -5.17849 1.85289Q-5.22398 1.72577 -5.26317 1.59657Q-5.30237 1.46736 -5.33517 1.33639Q-5.36798 1.20542 -5.39432 1.073Q-5.42066 0.940574 -5.44047 0.807017Q-5.46028 0.673461 -5.47352 0.539094Q-5.48675 0.404727 -5.49338 0.269872Q-5.5 0.135017 -5.5 0Q-5.5 -0.135017 -5.49337 -0.269872Q-5.48675 -0.404727 -5.47352 -0.539094Q-5.46028 -0.673461 -5.44047 -0.807017Q-5.42066 -0.940574 -5.39432 -1.073Q-5.36798 -1.20542 -5.33517 -1.33639Q-5.30237 -1.46736 -5.26317 -1.59657Q-5.22398 -1.72577 -5.17849 -1.85289Q-5.13301 -1.98002 -5.08134 -2.10476Q-5.02967 -2.2295 -4.97194 -2.35155Q-4.91421 -2.47361 -4.85057 -2.59268Q-4.78692 -2.71176 -4.71751 -2.82756Q-4.64809 -2.94337 -4.57308 -3.05564Q-4.49807 -3.1679 -4.41764 -3.27635Q-4.33721 -3.38479 -4.25156 -3.48916Q-4.1659 -3.59353 -4.07523 -3.69357Q-3.98456 -3.79362 -3.88909 -3.88909Q-3.79362 -3.98456 -3.69357 -4.07523Q-3.59353 -4.1659 -3.48916 -4.25156Q-3.38479 -4.33721 -3.27635 -4.41764Q-3.1679 -4.49807 -3.05564 -4.57308Q-2.94337 -4.64809 -2.82756 -4.71751Q-2.71176 -4.78692 -2.59268 -4.85057Q-2.47361 -4.91421 -2.35155 -4.97194Q-2.2295 -5.02967 -2.10476 -5.08134Q-1.98002 -5.13301 -1.85289 -5.17849Q-1.72577 -5.22398 -1.59657 -5.26317Q-1.46736 -5.30237 -1.33639 -5.33517Q-1.20542 -5.36798 -1.073 -5.39432Q-0.940574 -5.42066 -0.807017 -5.44047Q-0.673461 -5.46028 -0.539094 -5.47352Q-0.404727 -5.48675 -0.269872 -5.49338Q-0.135017 -5.5 0 -5.5Q0.135017 -5.5 0.269872 -5.49337Q0.404727 -5.48675 0.539094 -5.47352Q0.673461 -5.46028 0.807017 -5.44047Q0.940574 -5.42066 1.073 -5.39432Q1.20542 -5.36798 1.33639 -5.33517Q1.46736 -5.30237 1.59657 -5.26317Q1.72577 -5.22398 1.85289 -5.17849Q1.98002 -5.13301 2.10476 -5.08134Q2.2295 -5.02967 2.35155 -4.97194Q2.47361 -4.91421 2.59268 -4.85057Q2.71176 -4.78692 2.82756 -4.71751Q2.94337 -4.64809 3.05564 -4.57308Q3.1679 -4.49807 3.27635 -4.41764Q3.38479 -4.33721 3.48916 -4.25156Q3.59353 -4.1659 3.69357 -4.07523Q3.79362 -3.98456 3.88909 -3.88909Q3.98456 -3.79362 4.07523 -3.69357Q4.1659 -3.59353 4.25156 -3.48916Q4.33721 -3.38479 4.41764 -3.27635Q4.49807 -3.1679 4.57308 -3.05564Q4.64809 -2.94337 4.71751 -2.82756Q4.78692 -2.71176 4.85057 -2.59268Q4.91421 -2.47361 4.97194 -2.35155Q5.02967 -2.2295 5.08134 -2.10476Q5.13301 -1.98002 5.17849 -1.85289Q5.22398 -1.72577 5.26317 -1.59657Q5.30237 -1.46736 5.33517 -1.33639Q5.36798 -1.20542 5.39432 -1.073Q5.42066 -0.940574 5.44047 -0.807017Q5.46028 -0.673461 5.47352 -0.539094Q5.48675 -0.404727 5.49338 -0.269872Q5.5 -0.135017 5.5 0"/>
	<path fill="#CFCFCF" transform="matrix(-1.42857 0 0 -1.42857 40.7143 47.8571)" d="M8.5 0Q8.5 0.208663 8.48976 0.417075Q8.47952 0.625487 8.45907 0.833146Q8.43862 1.0408 8.408 1.24721Q8.37738 1.45361 8.33667 1.65827Q8.29597 1.86292 8.24527 2.06533Q8.19456 2.26774 8.13399 2.46742Q8.07342 2.6671 8.00312 2.86356Q7.93283 3.06003 7.85298 3.25281Q7.77312 3.44559 7.68391 3.63422Q7.59469 3.82285 7.49633 4.00687Q7.39797 4.1909 7.29069 4.36987Q7.18342 4.54885 7.06749 4.72235Q6.95156 4.89584 6.82726 5.06344Q6.70296 5.23104 6.57059 5.39234Q6.43821 5.55364 6.29808 5.70825Q6.15795 5.86286 6.01041 6.01041Q5.86286 6.15795 5.70825 6.29808Q5.55364 6.43821 5.39234 6.57059Q5.23104 6.70296 5.06344 6.82726Q4.89584 6.95156 4.72235 7.06749Q4.54885 7.18342 4.36987 7.29069Q4.1909 7.39797 4.00687 7.49633Q3.82285 7.59469 3.63422 7.68391Q3.44559 7.77312 3.25281 7.85298Q3.06003 7.93283 2.86356 8.00312Q2.6671 8.07342 2.46742 8.13399Q2.26774 8.19456 2.06533 8.24527Q1.86292 8.29597 1.65827 8.33667Q1.45361 8.37738 1.24721 8.408Q1.0408 8.43862 0.833146 8.45907Q0.625487 8.47952 0.417075 8.48976Q0.208663 8.5 0 8.5Q-0.208663 8.5 -0.417075 8.48976Q-0.625487 8.47952 -0.833146 8.45907Q-1.0408 8.43862 -1.24721 8.408Q-1.45361 8.37738 -1.65827 8.33667Q-1.86292 8.29597 -2.06533 8.24527Q-2.26774 8.19456 -2.46742 8.13399Q-2.6671 8.07342 -2.86356 8.00312Q-3.06003 7.93283 -3.25281 7.85298Q-3.44559 7.77312 -3.63422 7.68391Q-3.82285 7.59469 -4.00687 7.49633Q-4.1909 7.39797 -4.36987 7.29069Q-4.54885 7.18342 -4.72235 7.06749Q-4.89584 6.95156 -5.06344 6.82726Q-5.23104 6.70296 -5.39234 6.57059Q-5.55364 6.43821 -5.70825 6.29808Q-5.86286 6.15795 -6.01041 6.01041Q-6.15795 5.86286 -6.29808 5.70825Q-6.43821 5.55364 -6.57059 5.39234Q-6.70296 5.23104 -6.82726 5.06344Q-6.95156 4.89584 -7.06749 4.72235Q-7.18342 4.54885 -7.29069 4.36987Q-7.39797 4.1909 -7.49633 4.00687Q-7.59469 3.82285 -7.68391 3.63422Q-7.77312 3.44559 -7.85298 3.25281Q-7.93283 3.06003 -8.00312 2.86356Q-8.07342 2.6671 -8.13399 2.46742Q-8.19456 2.26774 -8.24527 2.06533Q-8.29597 1.86292 -8.33667 1.65827Q-8.37738 1.45361 -8.408 1.24721Q-8.43862 1.0408 -8.45907 0.833146Q-8.47952 0.625487 -8.48976 0.417075Q-8.5 0.208663 -8.5 0Q-8.5 -0.208663 -8.48976 -0.417075Q-8.47952 -0.625487 -8.45907 -0.833146Q-8.43862 -1.0408 -8.408 -1.24721Q-8.37738 -1.45361 -8.33667 -1.65827Q-8.29597 -1.86292 -8.24527 -2.06533Q-8.19456 -2.26774 -8.13399 -2.46742Q-8.07342 -2.6671 -8.00312 -2.86356Q-7.93283 -3.06003 -7.85298 -3.25281Q-7.77312 -3.44559 -7.68391 -3.63422Q-7.59469 -3.82285 -7.49633 -4.00687Q-7.39797 -4.1909 -7.29069 -4.36987Q-7.18342 -4.54885 -7.06749 -4.72235Q-6.95156 -4.89584 -6.82726 -5.06344Q-6.70296 -5.23104 -6.57059 -5.39234Q-6.43821 -5.55364 -6.29808 -5.70825Q-6.15795 -5.86286 -6.01041 -6.01041Q-5.86286 -6.15795 -5.70825 -6.29808Q-5.55364 -6.43821 -5.39234 -6.57059Q-5.23104 -6.70296 -5.06344 -6.82726Q-4.89584 -6.95156 -4.72235 -7.06749Q-4.54885 -7.18342 -4.36987 -7.29069Q-4.1909 -7.39797 -4.00687 -7.49633Q-3.82285 -7.59469 -3.63422 -7.68391Q-3.44559 -7.77312 -3.25281 -7.85298Q-3.06003 -7.93283 -2.86356 -8.00312Q-2.6671 -8.07342 -2.46742 -8.13399Q-2.26774 -8.19456 -2.06533 -8.24527Q-1.86292 -8.29597 -1.65827 -8.33667Q-1.45361 -8.37738 -1.24721 -8.408Q-1.0408 -8.43862 -0.833146 -8.45907Q-0.625487 -8.47952 -0.417075 -8.48976Q-0.208663 -8.5 0 -8.5Q0.208663 -8.5 0.417075 -8.48976Q0.625487 -8.47952 0.833146 -8.45907Q1.0408 -8.43862 1.24721 -8.408Q1.45361 -8.37738 1.65827 -8.33667Q1.86292 -8.29597 2.06533 -8.24527Q2.26774 -8.19456 2.46742 -8.13399Q2.6671 -8.07342 2.86356 -8.00312Q3.06003 -7.93283 3.25281 -7.85298Q3.44559 -7.77312 3.63422 -7.68391Q3.82285 -7.59469 4.00687 -7.49633Q4.1909 -7.39797 4.36987 -7.29069Q4.54885 -7.18342 4.72235 -7.06749Q4.89584 -6.95156 5.06344 -6.82726Q5.23104 -6.70296 5.39234 -6.57059Q5.55364 -6.43821 5.70825 -6.29808Q5.86286 -6.15795 6.01041 -6.01041Q6.15795 -5.86286 6.29808 -5.70825Q6.43821 -5.55364 6.57059 -5.39234Q6.70296 -5.23104 6.82726 -5.06344Q6.95156 -4.89584 7.06749 -4.72235Q7.18342 -4.54885 7.29069 -4.36987Q7.39797 -4.1909 7.49633 -4.00687Q7.59469 -3.82285 7.68391 -3.63422Q7.77312 -3.44559 7.85298 -3.25281Q7.93283 -3.06003 8.00312 -2.86356Q8.07342 -2.6671 8.13399 -2.46742Q8.19456 -2.26774 8.24527 -2.06533Q8.29597 -1.86292 8.33667 -1.65827Q8.37738 -1.45361 8.408 -1.24721Q8.43862 -1.0408 8.45907 -0.833146Q8.47952 -0.625487 8.48976 -0.417075Q8.5 -0.208663 8.5 0"/>
	<path fill="white" transform="matrix(-1.42857 0 0 -1.42857 40.7143 47.8571)" d="M5.5 0Q5.5 0.135017 5.49337 0.269872Q5.48675 0.404727 5.47352 0.539094Q5.46028 0.673461 5.44047 0.807017Q5.42066 0.940574 5.39432 1.073Q5.36798 1.20542 5.33517 1.33639Q5.30237 1.46736 5.26317 1.59657Q5.22398 1.72577 5.17849 1.85289Q5.13301 1.98002 5.08134 2.10476Q5.02967 2.2295 4.97194 2.35155Q4.91421 2.47361 4.85057 2.59268Q4.78692 2.71176 4.71751 2.82756Q4.64809 2.94337 4.57308 3.05564Q4.49807 3.1679 4.41764 3.27635Q4.33721 3.38479 4.25156 3.48916Q4.1659 3.59353 4.07523 3.69357Q3.98456 3.79362 3.88909 3.88909Q3.79362 3.98456 3.69357 4.07523Q3.59353 4.1659 3.48916 4.25156Q3.38479 4.33721 3.27635 4.41764Q3.1679 4.49807 3.05564 4.57308Q2.94337 4.64809 2.82756 4.71751Q2.71176 4.78692 2.59268 4.85057Q2.47361 4.91421 2.35155 4.97194Q2.2295 5.02967 2.10476 5.08134Q1.98002 5.13301 1.85289 5.17849Q1.72577 5.22398 1.59657 5.26317Q1.46736 5.30237 1.33639 5.33517Q1.20542 5.36798 1.073 5.39432Q0.940574 5.42066 0.807017 5.44047Q0.673461 5.46028 0.539094 5.47352Q0.404727 5.48675 0.269872 5.49338Q0.135017 5.5 0 5.5Q-0.135017 5.5 -0.269872 5.49337Q-0.404727 5.48675 -0.539094 5.47352Q-0.673461 5.46028 -0.807017 5.44047Q-0.940574 5.42066 -1.073 5.39432Q-1.20542 5.36798 -1.33639 5.33517Q-1.46736 5.30237 -1.59657 5.26317Q-1.72577 5.22398 -1.85289 5.17849Q-1.98002 5.13301 -2.10476 5.08134Q-2.2295 5.02967 -2.35155 4.97194Q-2.47361 4.91421 -2.59268 4.85057Q-2.71176 4.78692 -2.82756 4.71751Q-2.94337 4.64809 -3.05564 4.57308Q-3.1679 4.49807 -3.27635 4.41764Q-3.38479 4.33721 -3.48916 4.25156Q-3.59353 4.1659 -3.69357 4.07523Q-3.79362 3.98456 -3.88909 3.88909Q-3.98456 3.79362 -4.07523 3.69357Q-4.1659 3.59353 -4.25156 3.48916Q-4.33721 3.38479 -4.41764 3.27635Q-4.49807 3.1679 -4.57308 3.05564Q-4.64809 2.94337 -4.71751 2.82756Q-4.78692 2.71176 -4.85057 2.59268Q-4.91421 2.47361 -4.97194 2.35155Q-5.02967 2.2295 -5.08134 2.10476Q-5.13301 1.98002 -5.17849 1.85289Q-5.22398 1.72577 -5.26317 1.59657Q-5.30237 1.46736 -5.33517 1.33639Q-5.36798 1.20542 -5.39432 1.073Q-5.42066 0.940574 -5.44047 0.807017Q-5.46028 0.673461 -5.47352 0.539094Q-5.48675 0.404727 -5.49338 0.269872Q-5.5 0.135017 -5.5 0Q-5.5 -0.135017 -5.49337 -0.269872Q-5.48675 -0.404727 -5.47352 -0.539094Q-5.46028 -0.673461 -5.44047 -0.807017Q-5.42066 -0.940574 -5.39432 -1.073Q-5.36798 -1.20542 -5.33517 -1.33639Q-5.30237 -1.46736 -5.26317 -1.59657Q-5.22398 -1.72577 -5.17849 -1.85289Q-5.13301 -1.98002 -5.08134 -2.10476Q-5.02967 -2.2295 -4.97194 -2.35155Q-4.91421 -2.47361 -4.85057 -2.59268Q-4.78692 -2.71176 -4.71751 -2.82756Q-4.64809 -2.94337 -4.57308 -3.05564Q-4.49807 -3.1679 -4.41764 -3.27635Q-4.33721 -3.38479 -4.25156 -3.48916Q-4.1659 -3.59353 -4.07523 -3.69357Q-3.98456 -3.79362 -3.88909 -3.88909Q-3.79362 -3.98456 -3.69357 -4.07523Q-3.59353 -4.1659 -3.48916 -4.25156Q-3.38479 -4.33721 -3.27635 -4.41764Q-3.1679 -4.49807 -3.05564 -4.57308Q-2.94337 -4.64809 -2.82756 -4.71751Q-2.71176 -4.78692 -2.59268 -4.85057Q-2.47361 -4.91421 -2.35155 -4.97194Q-2.2295 -5.02967 -2.10476 -5.08134Q-1.98002 -5.13301 -1.85289 -5.17849Q-1.72577 -5.22398 -1.59657 -5.26317Q-1.46736 -5.30237 -1.33639 -5.33517Q-1.20542 -5.36798 -1.073 -5.39432Q-0.940574 -5.42066 -0.807017 -5.44047Q-0.673461 -5.46028 -0.539094 -5.47352Q-0.404727 -5.48675 -0.269872 -5.49338Q-0.135017 -5.5 0 -5.5Q0.135017 -5.5 0.269872 -5.49337Q0.404727 -5.48675 0.539094 -5.47352Q0.673461 -5.46028 0.807017 -5.44047Q0.940574 -5.42066 1.073 -5.39432Q1.20542 -5.36798 1.33639 -5.33517Q1.46736 -5.30237 1.59657 -5.26317Q1.72577 -5.22398 1.85289 -5.17849Q1.98002 -5.13301 2.10476 -5.08134Q2.2295 -5.02967 2.35155 -4.97194Q2.47361 -4.91421 2.59268 -4.85057Q2.71176 -4.78692 2.82756 -4.71751Q2.94337 -4.64809 3.05564 -4.57308Q3.1679 -4.49807 3.27635 -4.41764Q3.38479 -4.33721 3.48916 -4.25156Q3.59353 -4.1659 3.69357 -4.07523Q3.79362 -3.98456 3.88909 -3.88909Q3.98456 -3.79362 4.07523 -3.69357Q4.1659 -3.59353 4.25156 -3.48916Q4.33721 -3.38479 4.41764 -3.27635Q4.49807 -3.1679 4.57308 -3.05564Q4.64809 -2.94337 4.71751 -2.82756Q4.78692 -2.71176 4.85057 -2.59268Q4.91421 -2.47361 4.97194 -2.35155Q5.02967 -2.2295 5.08134 -2.10476Q5.13301 -1.98002 5.17849 -1.85289Q5.22398 -1.72577 5.26317 -1.59657Q5.30237 -1.46736 5.33517 -1.33639Q5.36798 -1.20542 5.39432 -1.073Q5.42066 -0.940574 5.44047 -0.807017Q5.46028 -0.673461 5.47352 -0.539094Q5.48675 -0.404727 5.49338 -0.269872Q5.5 -0.135017 5.5 0"/>
	<path fill="none" stroke="black" stroke-width="2.3999999" stroke-linejoin="round" transform="translate(55 79.2857)" d="M-13.9306 4.74934L-13.9306 7.43L-23.1884 7.43L-23.1884 -6.4323L-20.0683 -6.4323L-20.0683 4.74934L-13.9306 4.74934ZM-9.1501 7.43L-12.1286 7.43L-12.1286 -3.08758L-9.1501 -3.08758L-9.1501 7.43ZM-8.87178 -6.12957Q-8.87178 -5.30926 -9.40401 -4.84051Q-9.93135 -4.37176 -10.6491 -4.37176Q-11.3718 -4.37176 -11.904 -4.84051Q-12.4314 -5.30926 -12.4314 -6.12957Q-12.4314 -6.94988 -11.904 -7.41863Q-11.3718 -7.89227 -10.6491 -7.89227Q-9.93135 -7.89227 -9.40401 -7.41863Q-8.87178 -6.94988 -8.87178 -6.12957ZM-3.80956 1.82941Q-3.80956 4.32941 -1.78807 4.32941Q-1.32909 4.32941 -0.928696 4.21223Q-0.528305 4.09016 -0.249985 3.92902L-0.249985 -0.831719Q-0.469711 -0.870781 -0.772446 -0.900078Q-1.0703 -0.929375 -1.47069 -0.929375Q-2.65233 -0.929375 -3.23338 -0.148125Q-3.80956 0.628242 -3.80956 1.82941ZM2.72853 6.11164Q2.72853 8.68977 1.41994 9.93977Q0.111343 11.1898 -2.62791 11.1898Q-3.58983 11.1898 -4.55174 11.0189Q-5.50877 10.848 -6.32909 10.5696L-5.81151 8.06965Q-5.10838 8.34797 -4.34178 8.5091Q-3.5703 8.67023 -2.58885 8.67023Q-1.30956 8.67023 -0.782211 8.10871Q-0.249985 7.55207 -0.249985 6.66828L-0.249985 6.2923Q-0.7285 6.51203 -1.2412 6.62434Q-1.74901 6.73176 -2.34959 6.73176Q-4.53221 6.73176 -5.69432 5.4427Q-6.85155 4.14875 -6.85155 1.82941Q-6.85155 0.672187 -6.49022 -0.279961Q-6.12889 -1.23211 -5.44041 -1.91082Q-4.75194 -2.58953 -3.75096 -2.96063Q-2.74998 -3.33172 -1.49022 -3.33172Q-0.948227 -3.33172 -0.381821 -3.27801Q0.189468 -3.22918 0.746109 -3.14617Q1.30763 -3.06805 1.81544 -2.95574Q2.32814 -2.84832 2.72853 -2.73113L2.72853 6.11164ZM5.53137 7.43L5.53137 -7.60906L8.50989 -8.08758L8.50989 -3.04852Q8.80774 -3.15105 9.27649 -3.23895Q9.75012 -3.33172 10.1896 -3.33172Q11.4689 -3.33172 12.3185 -2.98016Q13.1681 -2.62859 13.6759 -1.98895Q14.1886 -1.3493 14.3986 -0.470391Q14.6085 0.408515 14.6085 1.48762L14.6085 7.43L11.63 7.43L11.63 1.84895Q11.63 0.408515 11.2589 -0.187188Q10.8878 -0.787774 9.89172 -0.787774Q9.49133 -0.787774 9.13977 -0.719414Q8.78821 -0.651055 8.50989 -0.568047L8.50989 7.43L5.53137 7.43ZM17.2088 -5.70965L20.1922 -6.18816L20.1922 -3.08758L23.7713 -3.08758L23.7713 -0.611992L20.1922 -0.611992L20.1922 3.08918Q20.1922 4.03156 20.5194 4.59309Q20.8514 5.14973 21.8524 5.14973Q22.3309 5.14973 22.8387 5.06184Q23.3514 4.96906 23.7713 4.80793L24.1912 7.13215Q23.6492 7.35187 22.9901 7.50812Q22.3309 7.66926 21.369 7.66926Q20.1483 7.66926 19.3475 7.34211Q18.5516 7.01008 18.0682 6.41926Q17.5897 5.82844 17.3992 4.98859Q17.2088 4.14875 17.2088 3.12824L17.2088 -5.70965Z"/>
	<path fill="white" transform="translate(55 79.2857)" d="M-13.9306 4.74934L-13.9306 7.43L-23.1884 7.43L-23.1884 -6.4323L-20.0683 -6.4323L-20.0683 4.74934L-13.9306 4.74934ZM-9.1501 7.43L-12.1286 7.43L-12.1286 -3.08758L-9.1501 -3.08758L-9.1501 7.43ZM-8.87178 -6.12957Q-8.87178 -5.30926 -9.40401 -4.84051Q-9.93135 -4.37176 -10.6491 -4.37176Q-11.3718 -4.37176 -11.904 -4.84051Q-12.4314 -5.30926 -12.4314 -6.12957Q-12.4314 -6.94988 -11.904 -7.41863Q-11.3718 -7.89227 -10.6491 -7.89227Q-9.93135 -7.89227 -9.40401 -7.41863Q-8.87178 -6.94988 -8.87178 -6.12957ZM-3.80956 1.82941Q-3.80956 4.32941 -1.78807 4.32941Q-1.32909 4.32941 -0.928696 4.21223Q-0.528305 4.09016 -0.249985 3.92902L-0.249985 -0.831719Q-0.469711 -0.870781 -0.772446 -0.900078Q-1.0703 -0.929375 -1.47069 -0.929375Q-2.65233 -0.929375 -3.23338 -0.148125Q-3.80956 0.628242 -3.80956 1.82941ZM2.72853 6.11164Q2.72853 8.68977 1.41994 9.93977Q0.111343 11.1898 -2.62791 11.1898Q-3.58983 11.1898 -4.55174 11.0189Q-5.50877 10.848 -6.32909 10.5696L-5.81151 8.06965Q-5.10838 8.34797 -4.34178 8.5091Q-3.5703 8.67023 -2.58885 8.67023Q-1.30956 8.67023 -0.782211 8.10871Q-0.249985 7.55207 -0.249985 6.66828L-0.249985 6.2923Q-0.7285 6.51203 -1.2412 6.62434Q-1.74901 6.73176 -2.34959 6.73176Q-4.53221 6.73176 -5.69432 5.4427Q-6.85155 4.14875 -6.85155 1.82941Q-6.85155 0.672187 -6.49022 -0.279961Q-6.12889 -1.23211 -5.44041 -1.91082Q-4.75194 -2.58953 -3.75096 -2.96063Q-2.74998 -3.33172 -1.49022 -3.33172Q-0.948227 -3.33172 -0.381821 -3.27801Q0.189468 -3.22918 0.746109 -3.14617Q1.30763 -3.06805 1.81544 -2.95574Q2.32814 -2.84832 2.72853 -2.73113L2.72853 6.11164ZM5.53137 7.43L5.53137 -7.60906L8.50989 -8.08758L8.50989 -3.04852Q8.80774 -3.15105 9.27649 -3.23895Q9.75012 -3.33172 10.1896 -3.33172Q11.4689 -3.33172 12.3185 -2.98016Q13.1681 -2.62859 13.6759 -1.98895Q14.1886 -1.3493 14.3986 -0.470391Q14.6085 0.408515 14.6085 1.48762L14.6085 7.43L11.63 7.43L11.63 1.84895Q11.63 0.408515 11.2589 -0.187188Q10.8878 -0.787774 9.89172 -0.787774Q9.49133 -0.787774 9.13977 -0.719414Q8.78821 -0.651055 8.50989 -0.568047L8.50989 7.43L5.53137 7.43ZM17.2088 -5.70965L20.1922 -6.18816L20.1922 -3.08758L23.7713 -3.08758L23.7713 -0.611992L20.1922 -0.611992L20.1922 3.08918Q20.1922 4.03156 20.5194 4.59309Q20.8514 5.14973 21.8524 5.14973Q22.3309 5.14973 22.8387 5.06184Q23.3514 4.96906 23.7713 4.80793L24.1912 7.13215Q23.6492 7.35187 22.9901 7.50812Q22.3309 7.66926 21.369 7.66926Q20.1483 7.66926 19.3475 7.34211Q18.5516 7.01008 18.0682 6.41926Q17.5897 5.82844 17.3992 4.98859Q17.2088 4.14875 17.2088 3.12824L17.2088 -5.70965Z"/>
</svg>
