<?xml version="1.0" encoding="utf-8" ?>
<svg xmlns="http://www.w3.org/2000/svg" xmlns:xlink="http://www.w3.org/1999/xlink" width="110" height="110">
	<path fill="#FCDD86" transform="matrix(0.710717 0.0713096 -0.0713096 0.710717 52.8678 47.6432)" d="M9.27051 -28.5317Q9.97092 -28.3041 10.6593 -28.0424Q11.3477 -27.7808 12.0225 -27.4856Q12.6972 -27.1905 13.3566 -26.8626Q14.0161 -26.5347 14.6586 -26.1749Q15.3012 -25.815 15.9253 -25.4241Q16.5494 -25.0331 17.1536 -24.612Q17.7578 -24.1909 18.3406 -23.7407Q18.9234 -23.2905 19.4834 -22.8122Q20.0434 -22.3339 20.5793 -21.8287Q21.1152 -21.3235 21.6256 -20.7926Q22.136 -20.2617 22.6198 -19.7065Q23.1036 -19.1512 23.5595 -18.5728Q24.0154 -17.9945 24.4425 -17.3944Q24.8695 -16.7944 25.2665 -16.1742Q25.6636 -15.5539 26.0297 -14.9149Q26.3958 -14.2759 26.7302 -13.6197Q27.0645 -12.9635 27.3663 -12.2917Q27.668 -11.6199 27.9364 -10.9341Q28.2049 -10.2483 28.4393 -9.55017Q28.6737 -8.85202 28.8737 -8.14322Q29.0736 -7.43441 29.2384 -6.71664Q29.4033 -5.99888 29.5328 -5.27389Q29.6623 -4.5489 29.756 -3.81843Q29.8497 -3.08796 29.9075 -2.35377Q29.9653 -1.61959 29.987 -0.883446Q30.0087 -0.147307 29.9942 0.589009Q29.9798 1.32533 29.9292 2.06005Q29.8786 2.79477 29.7921 3.52612Q29.7055 4.25747 29.5831 4.9837Q29.4608 5.70993 29.303 6.42927Q29.1451 7.14862 28.9522 7.85936Q28.7593 8.5701 28.5317 9.27051Q28.2586 10.1111 27.9365 10.9341Q27.6143 11.7571 27.2443 12.5598Q26.8743 13.3624 26.4576 14.1419Q26.041 14.9214 25.5792 15.675Q25.1174 16.4285 24.612 17.1536Q24.1067 17.8787 23.5595 18.5728Q23.0123 19.2669 22.4252 19.9276Q21.8382 20.5882 21.2132 21.2132Q20.5882 21.8382 19.9276 22.4252Q19.2669 23.0123 18.5728 23.5595Q17.8787 24.1067 17.1536 24.612Q16.4285 25.1174 15.675 25.5792Q14.9214 26.041 14.1419 26.4576Q13.3624 26.8743 12.5598 27.2443Q11.7571 27.6143 10.9341 27.9364Q10.1111 28.2586 9.27051 28.5317Q0 20 -15 8Q-20 0 -15 -8Q0 -20 9.27051 -28.5317Z"/>
	<path fill="none" stroke="#CCB36D" stroke-width="5" stroke-linecap="round" stroke-linejoin="round" transform="matrix(0.710717 0.0713096 -0.0713096 0.710717 52.8678 47.6432)" d="M9.27051 -28.5317Q9.97092 -28.3041 10.6593 -28.0424Q11.3477 -27.7808 12.0225 -27.4856Q12.6972 -27.1905 13.3566 -26.8626Q14.0161 -26.5347 14.6586 -26.1749Q15.3012 -25.815 15.9253 -25.4241Q16.5494 -25.0331 17.1536 -24.612Q17.7578 -24.1909 18.3406 -23.7407Q18.9234 -23.2905 19.4834 -22.8122Q20.0434 -22.3339 20.5793 -21.8287Q21.1152 -21.3235 21.6256 -20.7926Q22.136 -20.2617 22.6198 -19.7065Q23.1036 -19.1512 23.5595 -18.5728Q24.0154 -17.9945 24.4425 -17.3944Q24.8695 -16.7944 25.2665 -16.1742Q25.6636 -15.5539 26.0297 -14.9149Q26.3958 -14.2759 26.7302 -13.6197Q27.0645 -12.9635 27.3663 -12.2917Q27.668 -11.6199 27.9364 -10.9341Q28.2049 -10.2483 28.4393 -9.55017Q28.6737 -8.85202 28.8737 -8.14322Q29.0736 -7.43441 29.2384 -6.71664Q29.4033 -5.99888 29.5328 -5.27389Q29.6623 -4.5489 29.756 -3.81843Q29.8497 -3.08796 29.9075 -2.35377Q29.9653 -1.61959 29.987 -0.883446Q30.0087 -0.147307 29.9942 0.589009Q29.9798 1.32533 29.9292 2.06005Q29.8786 2.79477 29.7921 3.52612Q29.7055 4.25747 29.5831 4.9837Q29.4608 5.70993 29.303 6.42927Q29.1451 7.14862 28.9522 7.85936Q28.7593 8.5701 28.5317 9.27051Q28.2586 10.1111 27.9365 10.9341Q27.6143 11.7571 27.2443 12.5598Q26.8743 13.3624 26.4576 14.1419Q26.041 14.9214 25.5792 15.675Q25.1174 16.4285 24.612 17.1536Q24.1067 17.8787 23.5595 18.5728Q23.0123 19.2669 22.4252 19.9276Q21.8382 20.5882 21.2132 21.2132Q20.5882 21.8382 19.9276 22.4252Q19.2669 23.0123 18.5728 23.5595Q17.8787 24.1067 17.1536 24.612Q16.4285 25.1174 15.675 25.5792Q14.9214 26.041 14.1419 26.4576Q13.3624 26.8743 12.5598 27.2443Q11.7571 27.6143 10.9341 27.9364Q10.1111 28.2586 9.27051 28.5317Q0 20 -15 8Q-20 0 -15 -8Q0 -20 9.27051 -28.5317Z"/>
	<path fill="none" stroke="#CCB36D" stroke-width="4" stroke-linecap="round" stroke-linejoin="round" transform="matrix(0.710717 0.0713096 -0.0713096 0.710717 52.8678 47.6432)" d="M12 15Q0 8 -8 5"/>
	<path fill="none" stroke="#CCB36D" stroke-width="4" stroke-linecap="round" stroke-linejoin="round" transform="matrix(0.710717 0.0713096 -0.0713096 0.710717 52.8678 47.6432)" d="M17.4 6Q0 3.2 -6.2 2"/>
	<path fill="none" stroke="#CCB36D" stroke-width="4" stroke-linecap="round" stroke-linejoin="round" transform="matrix(0.710717 0.0713096 -0.0713096 0.710717 52.8678 47.6432)" d="M17.4 -6Q0 -3.2 -6.2 -2"/>
	<path fill="none" stroke="#CCB36D" stroke-width="4" stroke-linecap="round" stroke-linejoin="round" transform="matrix(0.710717 0.0713096 -0.0713096 0.710717 52.8678 47.6432)" d="M12 -15Q0 -8 -8 -5"/>
	<path fill="none" stroke="black" stroke-width="2.3999999" stroke-linejoin="round" transform="translate(55 79.2857)" d="M-18.4891 5.05207Q-17.8299 5.05207 -17.4002 4.94465Q-16.9706 4.83234 -16.7118 4.64191Q-16.4481 4.45148 -16.3504 4.1927Q-16.2479 3.92902 -16.2479 3.61164Q-16.2479 2.92805 -16.8924 2.47883Q-17.5321 2.02961 -19.0897 1.51203Q-19.7684 1.26789 -20.452 0.960273Q-21.1307 0.647773 -21.6727 0.179023Q-22.2098 -0.289727 -22.5516 -0.958672Q-22.8885 -1.62762 -22.8885 -2.58953Q-22.8885 -3.55145 -22.5321 -4.31805Q-22.1708 -5.08953 -21.5116 -5.62664Q-20.8524 -6.16863 -19.91 -6.45672Q-18.9676 -6.74969 -17.7909 -6.74969Q-16.3895 -6.74969 -15.369 -6.44695Q-14.3485 -6.1491 -13.6893 -5.78777L-14.5877 -3.33172Q-15.1688 -3.62957 -15.8817 -3.85906Q-16.5897 -4.08855 -17.5907 -4.08855Q-18.7088 -4.08855 -19.202 -3.77605Q-19.6903 -3.46844 -19.6903 -2.82879Q-19.6903 -2.44793 -19.5096 -2.18914Q-19.329 -1.93035 -19.0018 -1.72039Q-18.6698 -1.51043 -18.2401 -1.33953Q-17.8104 -1.16863 -17.2879 -0.987969Q-16.2088 -0.587578 -15.4129 -0.196953Q-14.6122 0.188789 -14.0799 0.71125Q-13.5477 1.22883 -13.2889 1.93195Q-13.0301 2.6302 -13.0301 3.63117Q-13.0301 5.56965 -14.3924 6.63898Q-15.7499 7.70832 -18.4891 7.70832Q-19.412 7.70832 -20.1542 7.59602Q-20.8915 7.48859 -21.4627 7.33234Q-22.0292 7.17121 -22.4393 6.99055Q-22.8495 6.80988 -23.1278 6.64875L-22.2489 4.16828Q-21.6288 4.51008 -20.7206 4.78352Q-19.8124 5.05207 -18.4891 5.05207ZM-10.8286 7.43L-10.8286 -7.60906L-7.85011 -8.08758L-7.85011 -3.04852Q-7.55225 -3.15105 -7.0835 -3.23895Q-6.60987 -3.33172 -6.17042 -3.33172Q-4.89112 -3.33172 -4.04151 -2.98016Q-3.1919 -2.62859 -2.68409 -1.98895Q-2.17139 -1.3493 -1.96143 -0.470391Q-1.75147 0.408515 -1.75147 1.48762L-1.75147 7.43L-4.72999 7.43L-4.72999 1.84895Q-4.72999 0.408515 -5.10108 -0.187188Q-5.47218 -0.787774 -6.46827 -0.787774Q-6.86866 -0.787774 -7.22022 -0.719414Q-7.57178 -0.651055 -7.85011 -0.568047L-7.85011 7.43L-10.8286 7.43ZM0.448433 2.24934Q0.448433 0.847969 0.87812 -0.201836Q1.30781 -1.25164 2.00605 -1.94988Q2.70918 -2.64813 3.61738 -3.00945Q4.53046 -3.37078 5.49238 -3.37078Q7.72871 -3.37078 9.02753 -1.99871Q10.3312 -0.631524 10.3312 2.02961Q10.3312 2.2884 10.3117 2.6009Q10.2922 2.90852 10.2678 3.14777L3.50996 3.14777Q3.60761 4.07062 4.36933 4.61262Q5.13105 5.14973 6.41035 5.14973Q7.23066 5.14973 8.01679 5.00324Q8.80781 4.85187 9.31074 4.63215L9.71113 7.04914Q9.47187 7.17121 9.07148 7.29328Q8.67109 7.41047 8.17793 7.49836Q7.68964 7.59113 7.12812 7.64973Q6.57148 7.70832 6.00996 7.70832Q4.58906 7.70832 3.53925 7.2884Q2.48945 6.86848 1.79609 6.14094Q1.10761 5.40852 0.775581 4.41242Q0.448433 3.41145 0.448433 2.24934ZM7.45039 1.11164Q7.43085 0.730781 7.31855 0.369453Q7.21113 0.00812483 6.98164 -0.270195Q6.75214 -0.548516 6.40058 -0.72918Q6.04902 -0.909844 5.53144 -0.909844Q5.02851 -0.909844 4.66718 -0.738945Q4.31074 -0.568047 4.07148 -0.289727Q3.83222 -0.0114064 3.70039 0.359687Q3.56855 0.730781 3.50996 1.11164L7.45039 1.11164ZM16.8306 7.6302Q15.5317 7.61066 14.7212 7.35187Q13.9107 7.0882 13.437 6.61945Q12.9683 6.1507 12.7974 5.48176Q12.6314 4.80793 12.6314 3.96809L12.6314 -7.60906L15.6099 -8.08758L15.6099 3.37238Q15.6099 3.76789 15.6685 4.09016Q15.7319 4.41242 15.898 4.63215Q16.0689 4.85187 16.3862 4.99348Q16.7085 5.1302 17.2505 5.16926L16.8306 7.6302ZM23.1506 7.6302Q21.8517 7.61066 21.0412 7.35187Q20.2306 7.0882 19.757 6.61945Q19.2883 6.1507 19.1174 5.48176Q18.9513 4.80793 18.9513 3.96809L18.9513 -7.60906L21.9299 -8.08758L21.9299 3.37238Q21.9299 3.76789 21.9885 4.09016Q22.0519 4.41242 22.2179 4.63215Q22.3888 4.85187 22.7062 4.99348Q23.0285 5.1302 23.5705 5.16926L23.1506 7.6302Z"/>
	<path fill="white" transform="translate(55 79.2857)" d="M-18.4891 5.05207Q-17.8299 5.05207 -17.4002 4.94465Q-16.9706 4.83234 -16.7118 4.64191Q-16.4481 4.45148 -16.3504 4.1927Q-16.2479 3.92902 -16.2479 3.61164Q-16.2479 2.92805 -16.8924 2.47883Q-17.5321 2.02961 -19.0897 1.51203Q-19.7684 1.26789 -20.452 0.960273Q-21.1307 0.647773 -21.6727 0.179023Q-22.2098 -0.289727 -22.5516 -0.958672Q-22.8885 -1.62762 -22.8885 -2.58953Q-22.8885 -3.55145 -22.5321 -4.31805Q-22.1708 -5.08953 -21.5116 -5.62664Q-20.8524 -6.16863 -19.91 -6.45672Q-18.9676 -6.74969 -17.7909 -6.74969Q-16.3895 -6.74969 -15.369 -6.44695Q-14.3485 -6.1491 -13.6893 -5.78777L-14.5877 -3.33172Q-15.1688 -3.62957 -15.8817 -3.85906Q-16.5897 -4.08855 -17.5907 -4.08855Q-18.7088 -4.08855 -19.202 -3.77605Q-19.6903 -3.46844 -19.6903 -2.82879Q-19.6903 -2.44793 -19.5096 -2.18914Q-19.329 -1.93035 -19.0018 -1.72039Q-18.6698 -1.51043 -18.2401 -1.33953Q-17.8104 -1.16863 -17.2879 -0.987969Q-16.2088 -0.587578 -15.4129 -0.196953Q-14.6122 0.188789 -14.0799 0.71125Q-13.5477 1.22883 -13.2889 1.93195Q-13.0301 2.6302 -13.0301 3.63117Q-13.0301 5.56965 -14.3924 6.63898Q-15.7499 7.70832 -18.4891 7.70832Q-19.412 7.70832 -20.1542 7.59602Q-20.8915 7.48859 -21.4627 7.33234Q-22.0292 7.17121 -22.4393 6.99055Q-22.8495 6.80988 -23.1278 6.64875L-22.2489 4.16828Q-21.6288 4.51008 -20.7206 4.78352Q-19.8124 5.05207 -18.4891 5.05207ZM-10.8286 7.43L-10.8286 -7.60906L-7.85011 -8.08758L-7.85011 -3.04852Q-7.55225 -3.15105 -7.0835 -3.23895Q-6.60987 -3.33172 -6.17042 -3.33172Q-4.89112 -3.33172 -4.04151 -2.98016Q-3.1919 -2.62859 -2.68409 -1.98895Q-2.17139 -1.3493 -1.96143 -0.470391Q-1.75147 0.408515 -1.75147 1.48762L-1.75147 7.43L-4.72999 7.43L-4.72999 1.84895Q-4.72999 0.408515 -5.10108 -0.187188Q-5.47218 -0.787774 -6.46827 -0.787774Q-6.86866 -0.787774 -7.22022 -0.719414Q-7.57178 -0.651055 -7.85011 -0.568047L-7.85011 7.43L-10.8286 7.43ZM0.448433 2.24934Q0.448433 0.847969 0.87812 -0.201836Q1.30781 -1.25164 2.00605 -1.94988Q2.70918 -2.64813 3.61738 -3.00945Q4.53046 -3.37078 5.49238 -3.37078Q7.72871 -3.37078 9.02753 -1.99871Q10.3312 -0.631524 10.3312 2.02961Q10.3312 2.2884 10.3117 2.6009Q10.2922 2.90852 10.2678 3.14777L3.50996 3.14777Q3.60761 4.07062 4.36933 4.61262Q5.13105 5.14973 6.41035 5.14973Q7.23066 5.14973 8.01679 5.00324Q8.80781 4.85187 9.31074 4.63215L9.71113 7.04914Q9.47187 7.17121 9.07148 7.29328Q8.67109 7.41047 8.17793 7.49836Q7.68964 7.59113 7.12812 7.64973Q6.57148 7.70832 6.00996 7.70832Q4.58906 7.70832 3.53925 7.2884Q2.48945 6.86848 1.79609 6.14094Q1.10761 5.40852 0.775581 4.41242Q0.448433 3.41145 0.448433 2.24934ZM7.45039 1.11164Q7.43085 0.730781 7.31855 0.369453Q7.21113 0.00812483 6.98164 -0.270195Q6.75214 -0.548516 6.40058 -0.72918Q6.04902 -0.909844 5.53144 -0.909844Q5.02851 -0.909844 4.66718 -0.738945Q4.31074 -0.568047 4.07148 -0.289727Q3.83222 -0.0114064 3.70039 0.359687Q3.56855 0.730781 3.50996 1.11164L7.45039 1.11164ZM16.8306 7.6302Q15.5317 7.61066 14.7212 7.35187Q13.9107 7.0882 13.437 6.61945Q12.9683 6.1507 12.7974 5.48176Q12.6314 4.80793 12.6314 3.96809L12.6314 -7.60906L15.6099 -8.08758L15.6099 3.37238Q15.6099 3.76789 15.6685 4.09016Q15.7319 4.41242 15.898 4.63215Q16.0689 4.85187 16.3862 4.99348Q16.7085 5.1302 17.2505 5.16926L16.8306 7.6302ZM23.1506 7.6302Q21.8517 7.61066 21.0412 7.35187Q20.2306 7.0882 19.757 6.61945Q19.2883 6.1507 19.1174 5.48176Q18.9513 4.80793 18.9513 3.96809L18.9513 -7.60906L21.9299 -8.08758L21.9299 3.37238Q21.9299 3.76789 21.9885 4.09016Q22.0519 4.41242 22.2179 4.63215Q22.3888 4.85187 22.7062 4.99348Q23.0285 5.1302 23.5705 5.16926L23.1506 7.6302Z"/>
</svg>
