<?xml version="1.0" encoding="utf-8" ?>
<svg xmlns="http://www.w3.org/2000/svg" xmlns:xlink="http://www.w3.org/1999/xlink" width="110" height="110">
	<path fill="#CF78A3" transform="matrix(1.42857 0 0 1.42857 69.2857 47.8571)" d="M8.5 0Q8.5 0.208663 8.48976 0.417075Q8.47952 0.625487 8.45907 0.833146Q8.43862 1.0408 8.408 1.24721Q8.37738 1.45361 8.33667 1.65827Q8.29597 1.86292 8.24527 2.06533Q8.19456 2.26774 8.13399 2.46742Q8.07342 2.6671 8.00312 2.86356Q7.93283 3.06003 7.85298 3.25281Q7.77312 3.44559 7.68391 3.63422Q7.59469 3.82285 7.49633 4.00687Q7.39797 4.1909 7.29069 4.36987Q7.18342 4.54885 7.06749 4.72235Q6.95156 4.89584 6.82726 5.06344Q6.70296 5.23104 6.57059 5.39234Q6.43821 5.55364 6.29808 5.70825Q6.15795 5.86286 6.01041 6.01041Q5.86286 6.15795 5.70825 6.29808Q5.55364 6.43821 5.39234 6.57059Q5.23104 6.70296 5.06344 6.82726Q4.89584 6.95156 4.72235 7.06749Q4.54885 7.18342 4.36987 7.29069Q4.1909 7.39797 4.00687 7.49633Q3.82285 7.59469 3.63422 7.68391Q3.44559 7.77312 3.25281 7.85298Q3.06003 7.93283 2.86356 8.00312Q2.6671 8.07342 2.46742 8.13399Q2.26774 8.19456 2.06533 8.24527Q1.86292 8.29597 1.65827 8.33667Q1.45361 8.37738 1.24721 8.408Q1.0408 8.43862 0.833146 8.45907Q0.625487 8.47952 0.417075 8.48976Q0.208663 8.5 0 8.5Q-0.208663 8.5 -0.417075 8.48976Q-0.625487 8.47952 -0.833146 8.45907Q-1.0408 8.43862 -1.24721 8.408Q-1.45361 8.37738 -1.65827 8.33667Q-1.86292 8.29597 -2.06533 8.24527Q-2.26774 8.19456 -2.46742 8.13399Q-2.6671 8.07342 -2.86356 8.00312Q-3.06003 7.93283 -3.25281 7.85298Q-3.44559 7.77312 -3.63422 7.68391Q-3.82285 7.59469 -4.00687 7.49633Q-4.1909 7.39797 -4.36987 7.29069Q-4.54885 7.18342 -4.72235 7.06749Q-4.89584 6.95156 -5.06344 6.82726Q-5.23104 6.70296 -5.39234 6.57059Q-5.55364 6.43821 -5.70825 6.29808Q-5.86286 6.15795 -6.01041 6.01041Q-6.15795 5.86286 -6.29808 5.70825Q-6.43821 5.55364 -6.57059 5.39234Q-6.70296 5.23104 -6.82726 5.06344Q-6.95156 4.89584 -7.06749 4.72235Q-7.18342 4.54885 -7.29069 4.36987Q-7.39797 4.1909 -7.49633 4.00687Q-7.59469 3.82285 -7.68391 3.63422Q-7.77312 3.44559 -7.85298 3.25281Q-7.93283 3.06003 -8.00312 2.86356Q-8.07342 2.6671 -8.13399 2.46742Q-8.19456 2.26774 -8.24527 2.06533Q-8.29597 1.86292 -8.33667 1.65827Q-8.37738 1.45361 -8.408 1.24721Q-8.43862 1.0408 -8.45907 0.833146Q-8.47952 0.625487 -8.48976 0.417075Q-8.5 0.208663 -8.5 0Q-8.5 -0.208663 -8.48976 -0.417075Q-8.47952 -0.625487 -8.45907 -0.833146Q-8.43862 -1.0408 -8.408 -1.24721Q-8.37738 -1.45361 -8.33667 -1.65827Q-8.29597 -1.86292 -8.24527 -2.06533Q-8.19456 -2.26774 -8.13399 -2.46742Q-8.07342 -2.6671 -8.00312 -2.86356Q-7.93283 -3.06003 -7.85298 -3.25281Q-7.77312 -3.44559 -7.68391 -3.63422Q-7.59469 -3.82285 -7.49633 -4.00687Q-7.39797 -4.1909 -7.29069 -4.36987Q-7.18342 -4.54885 -7.06749 -4.72235Q-6.95156 -4.89584 -6.82726 -5.06344Q-6.70296 -5.23104 -6.57059 -5.39234Q-6.43821 -5.55364 -6.29808 -5.70825Q-6.15795 -5.86286 -6.01041 -6.01041Q-5.86286 -6.15795 -5.70825 -6.29808Q-5.55364 -6.43821 -5.39234 -6.57059Q-5.23104 -6.70296 -5.06344 -6.82726Q-4.89584 -6.95156 -4.72235 -7.06749Q-4.54885 -7.18342 -4.36987 -7.29069Q-4.1909 -7.39797 -4.00687 -7.49633Q-3.82285 -7.59469 -3.63422 -7.68391Q-3.44559 -7.77312 -3.25281 -7.85298Q-3.06003 -7.93283 -2.86356 -8.00312Q-2.6671 -8.07342 -2.46742 -8.13399Q-2.26774 -8.19456 -2.06533 -8.24527Q-1.86292 -8.29597 -1.65827 -8.33667Q-1.45361 -8.37738 -1.24721 -8.408Q-1.0408 -8.43862 -0.833146 -8.45907Q-0.625487 -8.47952 -0.417075 -8.48976Q-0.208663 -8.5 0 -8.5Q0.208663 -8.5 0.417075 -8.48976Q0.625487 -8.47952 0.833146 -8.45907Q1.0408 -8.43862 1.24721 -8.408Q1.45361 -8.37738 1.65827 -8.33667Q1.86292 -8.29597 2.06533 -8.24527Q2.26774 -8.19456 2.46742 -8.13399Q2.6671 -8.07342 2.86356 -8.00312Q3.06003 -7.93283 3.25281 -7.85298Q3.44559 -7.77312 3.63422 -7.68391Q3.82285 -7.59469 4.00687 -7.49633Q4.1909 -7.39797 4.36987 -7.29069Q4.54885 -7.18342 4.72235 -7.06749Q4.89584 -6.95156 5.06344 -6.82726Q5.23104 -6.70296 5.39234 -6.57059Q5.55364 -6.43821 5.70825 -6.29808Q5.86286 -6.15795 6.01041 -6.01041Q6.15795 -5.86286 6.29808 -5.70825Q6.43821 -5.55364 6.57059 -5.39234Q6.70296 -5.23104 6.82726 -5.06344Q6.95156 -4.89584 7.06749 -4.72235Q7.18342 -4.54885 7.29069 -4.36987Q7.39797 -4.1909 7.49633 -4.00687Q7.59469 -3.82285 7.68391 -3.63422Q7.77312 -3.44559 7.85298 -3.25281Q7.93283 -3.06003 8.00312 -2.86356Q8.07342 -2.6671 8.13399 -2.46742Q8.19456 -2.26774 8.24527 -2.06533Q8.29597 -1.86292 8.33667 -1.65827Q8.37738 -1.45361 8.408 -1.24721Q8.43862 -1.0408 8.45907 -0.833146Q8.47952 -0.625487 8.48976 -0.417075Q8.5 -0.208663 8.5 0"/>
	<path fill="#FF94C9" transform="matrix(1.42857 0 0 1.42857 69.2857 47.8571)" d="M5.5 0Q5.5 0.135017 5.49337 0.269872Q5.48675 0.404727 5.47352 0.539094Q5.46028 0.673461 5.44047 0.807017Q5.42066 0.940574 5.39432 1.073Q5.36798 1.20542 5.33517 1.33639Q5.30237 1.46736 5.26317 1.59657Q5.22398 1.72577 5.17849 1.85289Q5.13301 1.98002 5.08134 2.10476Q5.02967 2.2295 4.97194 2.35155Q4.91421 2.47361 4.85057 2.59268Q4.78692 2.71176 4.71751 2.82756Q4.64809 2.94337 4.57308 3.05564Q4.49807 3.1679 4.41764 3.27635Q4.33721 3.38479 4.25156 3.48916Q4.1659 3.59353 4.07523 3.69357Q3.98456 3.79362 3.88909 3.88909Q3.79362 3.98456 3.69357 4.07523Q3.59353 4.1659 3.48916 4.25156Q3.38479 4.33721 3.27635 4.41764Q3.1679 4.49807 3.05564 4.57308Q2.94337 4.64809 2.82756 4.71751Q2.71176 4.78692 2.59268 4.85057Q2.47361 4.91421 2.35155 4.97194Q2.2295 5.02967 2.10476 5.08134Q1.98002 5.13301 1.85289 5.17849Q1.72577 5.22398 1.59657 5.26317Q1.46736 5.30237 1.33639 5.33517Q1.20542 5.36798 1.073 5.39432Q0.940574 5.42066 0.807017 5.44047Q0.673461 5.46028 0.539094 5.47352Q0.404727 5.48675 0.269872 5.49338Q0.135017 5.5 0 5.5Q-0.135017 5.5 -0.269872 5.49337Q-0.404727 5.48675 -0.539094 5.47352Q-0.673461 5.46028 -0.807017 5.44047Q-0.940574 5.42066 -1.073 5.39432Q-1.20542 5.36798 -1.33639 5.33517Q-1.46736 5.30237 -1.59657 5.26317Q-1.72577 5.22398 -1.85289 5.17849Q-1.98002 5.13301 -2.10476 5.08134Q-2.2295 5.02967 -2.35155 4.97194Q-2.47361 4.91421 -2.59268 4.85057Q-2.71176 4.78692 -2.82756 4.71751Q-2.94337 4.64809 -3.05564 4.57308Q-3.1679 4.49807 -3.27635 4.41764Q-3.38479 4.33721 -3.48916 4.25156Q-3.59353 4.1659 -3.69357 4.07523Q-3.79362 3.98456 -3.88909 3.88909Q-3.98456 3.79362 -4.07523 3.69357Q-4.1659 3.59353 -4.25156 3.48916Q-4.33721 3.38479 -4.41764 3.27635Q-4.49807 3.1679 -4.57308 3.05564Q-4.64809 2.94337 -4.71751 2.82756Q-4.78692 2.71176 -4.85057 2.59268Q-4.91421 2.47361 -4.97194 2.35155Q-5.02967 2.2295 -5.08134 2.10476Q-5.13301 1.98002 -5.17849 1.85289Q-5.22398 1.72577 -5.26317 1.59657Q-5.30237 1.46736 -5.33517 1.33639Q-5.36798 1.20542 -5.39432 1.073Q-5.42066 0.940574 -5.44047 0.807017Q-5.46028 0.673461 -5.47352 0.539094Q-5.48675 0.404727 -5.49338 0.269872Q-5.5 0.135017 -5.5 0Q-5.5 -0.135017 -5.49337 -0.269872Q-5.48675 -0.404727 -5.47352 -0.539094Q-5.46028 -0.673461 -5.44047 -0.807017Q-5.42066 -0.940574 -5.39432 -1.073Q-5.36798 -1.20542 -5.33517 -1.33639Q-5.30237 -1.46736 -5.26317 -1.59657Q-5.22398 -1.72577 -5.17849 -1.85289Q-5.13301 -1.98002 -5.08134 -2.10476Q-5.02967 -2.2295 -4.97194 -2.35155Q-4.91421 -2.47361 -4.85057 -2.59268Q-4.78692 -2.71176 -4.71751 -2.82756Q-4.64809 -2.94337 -4.57308 -3.05564Q-4.49807 -3.1679 -4.41764 -3.27635Q-4.33721 -3.38479 -4.25156 -3.48916Q-4.1659 -3.59353 -4.07523 -3.69357Q-3.98456 -3.79362 -3.88909 -3.88909Q-3.79362 -3.98456 -3.69357 -4.07523Q-3.59353 -4.1659 -3.48916 -4.25156Q-3.38479 -4.33721 -3.27635 -4.41764Q-3.1679 -4.49807 -3.05564 -4.57308Q-2.94337 -4.64809 -2.82756 -4.71751Q-2.71176 -4.78692 -2.59268 -4.85057Q-2.47361 -4.91421 -2.35155 -4.97194Q-2.2295 -5.02967 -2.10476 -5.08134Q-1.98002 -5.13301 -1.85289 -5.17849Q-1.72577 -5.22398 -1.59657 -5.26317Q-1.46736 -5.30237 -1.33639 -5.33517Q-1.20542 -5.36798 -1.073 -5.39432Q-0.940574 -5.42066 -0.807017 -5.44047Q-0.673461 -5.46028 -0.539094 -5.47352Q-0.404727 -5.48675 -0.269872 -5.49338Q-0.135017 -5.5 0 -5.5Q0.135017 -5.5 0.269872 -5.49337Q0.404727 -5.48675 0.539094 -5.47352Q0.673461 -5.46028 0.807017 -5.44047Q0.940574 -5.42066 1.073 -5.39432Q1.20542 -5.36798 1.33639 -5.33517Q1.46736 -5.30237 1.59657 -5.26317Q1.72577 -5.22398 1.85289 -5.17849Q1.98002 -5.13301 2.10476 -5.08134Q2.2295 -5.02967 2.35155 -4.97194Q2.47361 -4.91421 2.59268 -4.85057Q2.71176 -4.78692 2.82756 -4.71751Q2.94337 -4.64809 3.05564 -4.57308Q3.1679 -4.49807 3.27635 -4.41764Q3.38479 -4.33721 3.48916 -4.25156Q3.59353 -4.1659 3.69357 -4.07523Q3.79362 -3.98456 3.88909 -3.88909Q3.98456 -3.79362 4.07523 -3.69357Q4.1659 -3.59353 4.25156 -3.48916Q4.33721 -3.38479 4.41764 -3.27635Q4.49807 -3.1679 4.57308 -3.05564Q4.64809 -2.94337 4.71751 -2.82756Q4.78692 -2.71176 4.85057 -2.59268Q4.91421 -2.47361 4.97194 -2.35155Q5.02967 -2.2295 5.08134 -2.10476Q5.13301 -1.98002 5.17849 -1.85289Q5.22398 -1.72577 5.26317 -1.59657Q5.30237 -1.46736 5.33517 -1.33639Q5.36798 -1.20542 5.39432 -1.073Q5.42066 -0.940574 5.44047 -0.807017Q5.46028 -0.673461 5.47352 -0.539094Q5.48675 -0.404727 5.49338 -0.269872Q5.5 -0.135017 5.5 0"/>
	<path fill="#CF78A3" transform="matrix(-0.714286 1.23718 -1.23718 -0.714286 47.8571 60.2289)" d="M8.5 0Q8.5 0.208663 8.48976 0.417075Q8.47952 0.625487 8.45907 0.833146Q8.43862 1.0408 8.408 1.24721Q8.37738 1.45361 8.33667 1.65827Q8.29597 1.86292 8.24527 2.06533Q8.19456 2.26774 8.13399 2.46742Q8.07342 2.6671 8.00312 2.86356Q7.93283 3.06003 7.85298 3.25281Q7.77312 3.44559 7.68391 3.63422Q7.59469 3.82285 7.49633 4.00687Q7.39797 4.1909 7.29069 4.36987Q7.18342 4.54885 7.06749 4.72235Q6.95156 4.89584 6.82726 5.06344Q6.70296 5.23104 6.57059 5.39234Q6.43821 5.55364 6.29808 5.70825Q6.15795 5.86286 6.01041 6.01041Q5.86286 6.15795 5.70825 6.29808Q5.55364 6.43821 5.39234 6.57059Q5.23104 6.70296 5.06344 6.82726Q4.89584 6.95156 4.72235 7.06749Q4.54885 7.18342 4.36987 7.29069Q4.1909 7.39797 4.00687 7.49633Q3.82285 7.59469 3.63422 7.68391Q3.44559 7.77312 3.25281 7.85298Q3.06003 7.93283 2.86356 8.00312Q2.6671 8.07342 2.46742 8.13399Q2.26774 8.19456 2.06533 8.24527Q1.86292 8.29597 1.65827 8.33667Q1.45361 8.37738 1.24721 8.408Q1.0408 8.43862 0.833146 8.45907Q0.625487 8.47952 0.417075 8.48976Q0.208663 8.5 0 8.5Q-0.208663 8.5 -0.417075 8.48976Q-0.625487 8.47952 -0.833146 8.45907Q-1.0408 8.43862 -1.24721 8.408Q-1.45361 8.37738 -1.65827 8.33667Q-1.86292 8.29597 -2.06533 8.24527Q-2.26774 8.19456 -2.46742 8.13399Q-2.6671 8.07342 -2.86356 8.00312Q-3.06003 7.93283 -3.25281 7.85298Q-3.44559 7.77312 -3.63422 7.68391Q-3.82285 7.59469 -4.00687 7.49633Q-4.1909 7.39797 -4.36987 7.29069Q-4.54885 7.18342 -4.72235 7.06749Q-4.89584 6.95156 -5.06344 6.82726Q-5.23104 6.70296 -5.39234 6.57059Q-5.55364 6.43821 -5.70825 6.29808Q-5.86286 6.15795 -6.01041 6.01041Q-6.15795 5.86286 -6.29808 5.70825Q-6.43821 5.55364 -6.57059 5.39234Q-6.70296 5.23104 -6.82726 5.06344Q-6.95156 4.89584 -7.06749 4.72235Q-7.18342 4.54885 -7.29069 4.36987Q-7.39797 4.1909 -7.49633 4.00687Q-7.59469 3.82285 -7.68391 3.63422Q-7.77312 3.44559 -7.85298 3.25281Q-7.93283 3.06003 -8.00312 2.86356Q-8.07342 2.6671 -8.13399 2.46742Q-8.19456 2.26774 -8.24527 2.06533Q-8.29597 1.86292 -8.33667 1.65827Q-8.37738 1.45361 -8.408 1.24721Q-8.43862 1.0408 -8.45907 0.833146Q-8.47952 0.625487 -8.48976 0.417075Q-8.5 0.208663 -8.5 0Q-8.5 -0.208663 -8.48976 -0.417075Q-8.47952 -0.625487 -8.45907 -0.833146Q-8.43862 -1.0408 -8.408 -1.24721Q-8.37738 -1.45361 -8.33667 -1.65827Q-8.29597 -1.86292 -8.24527 -2.06533Q-8.19456 -2.26774 -8.13399 -2.46742Q-8.07342 -2.6671 -8.00312 -2.86356Q-7.93283 -3.06003 -7.85298 -3.25281Q-7.77312 -3.44559 -7.68391 -3.63422Q-7.59469 -3.82285 -7.49633 -4.00687Q-7.39797 -4.1909 -7.29069 -4.36987Q-7.18342 -4.54885 -7.06749 -4.72235Q-6.95156 -4.89584 -6.82726 -5.06344Q-6.70296 -5.23104 -6.57059 -5.39234Q-6.43821 -5.55364 -6.29808 -5.70825Q-6.15795 -5.86286 -6.01041 -6.01041Q-5.86286 -6.15795 -5.70825 -6.29808Q-5.55364 -6.43821 -5.39234 -6.57059Q-5.23104 -6.70296 -5.06344 -6.82726Q-4.89584 -6.95156 -4.72235 -7.06749Q-4.54885 -7.18342 -4.36987 -7.29069Q-4.1909 -7.39797 -4.00687 -7.49633Q-3.82285 -7.59469 -3.63422 -7.68391Q-3.44559 -7.77312 -3.25281 -7.85298Q-3.06003 -7.93283 -2.86356 -8.00312Q-2.6671 -8.07342 -2.46742 -8.13399Q-2.26774 -8.19456 -2.06533 -8.24527Q-1.86292 -8.29597 -1.65827 -8.33667Q-1.45361 -8.37738 -1.24721 -8.408Q-1.0408 -8.43862 -0.833146 -8.45907Q-0.625487 -8.47952 -0.417075 -8.48976Q-0.208663 -8.5 0 -8.5Q0.208663 -8.5 0.417075 -8.48976Q0.625487 -8.47952 0.833146 -8.45907Q1.0408 -8.43862 1.24721 -8.408Q1.45361 -8.37738 1.65827 -8.33667Q1.86292 -8.29597 2.06533 -8.24527Q2.26774 -8.19456 2.46742 -8.13399Q2.6671 -8.07342 2.86356 -8.00312Q3.06003 -7.93283 3.25281 -7.85298Q3.44559 -7.77312 3.63422 -7.68391Q3.82285 -7.59469 4.00687 -7.49633Q4.1909 -7.39797 4.36987 -7.29069Q4.54885 -7.18342 4.72235 -7.06749Q4.89584 -6.95156 5.06344 -6.82726Q5.23104 -6.70296 5.39234 -6.57059Q5.55364 -6.43821 5.70825 -6.29808Q5.86286 -6.15795 6.01041 -6.01041Q6.15795 -5.86286 6.29808 -5.70825Q6.43821 -5.55364 6.57059 -5.39234Q6.70296 -5.23104 6.82726 -5.06344Q6.95156 -4.89584 7.06749 -4.72235Q7.18342 -4.54885 7.29069 -4.36987Q7.39797 -4.1909 7.49633 -4.00687Q7.59469 -3.82285 7.68391 -3.63422Q7.77312 -3.44559 7.85298 -3.25281Q7.93283 -3.06003 8.00312 -2.86356Q8.07342 -2.6671 8.13399 -2.46742Q8.19456 -2.26774 8.24527 -2.06533Q8.29597 -1.86292 8.33667 -1.65827Q8.37738 -1.45361 8.408 -1.24721Q8.43862 -1.0408 8.45907 -0.833146Q8.47952 -0.625487 8.48976 -0.417075Q8.5 -0.208663 8.5 0"/>
	<path fill="#FF94C9" transform="matrix(-0.714286 1.23718 -1.23718 -0.714286 47.8571 60.2289)" d="M5.5 0Q5.5 0.135017 5.49337 0.269872Q5.48675 0.404727 5.47352 0.539094Q5.46028 0.673461 5.44047 0.807017Q5.42066 0.940574 5.39432 1.073Q5.36798 1.20542 5.33517 1.33639Q5.30237 1.46736 5.26317 1.59657Q5.22398 1.72577 5.17849 1.85289Q5.13301 1.98002 5.08134 2.10476Q5.02967 2.2295 4.97194 2.35155Q4.91421 2.47361 4.85057 2.59268Q4.78692 2.71176 4.71751 2.82756Q4.64809 2.94337 4.57308 3.05564Q4.49807 3.1679 4.41764 3.27635Q4.33721 3.38479 4.25156 3.48916Q4.1659 3.59353 4.07523 3.69357Q3.98456 3.79362 3.88909 3.88909Q3.79362 3.98456 3.69357 4.07523Q3.59353 4.1659 3.48916 4.25156Q3.38479 4.33721 3.27635 4.41764Q3.1679 4.49807 3.05564 4.57308Q2.94337 4.64809 2.82756 4.71751Q2.71176 4.78692 2.59268 4.85057Q2.47361 4.91421 2.35155 4.97194Q2.2295 5.02967 2.10476 5.08134Q1.98002 5.13301 1.85289 5.17849Q1.72577 5.22398 1.59657 5.26317Q1.46736 5.30237 1.33639 5.33517Q1.20542 5.36798 1.073 5.39432Q0.940574 5.42066 0.807017 5.44047Q0.673461 5.46028 0.539094 5.47352Q0.404727 5.48675 0.269872 5.49338Q0.135017 5.5 0 5.5Q-0.135017 5.5 -0.269872 5.49337Q-0.404727 5.48675 -0.539094 5.47352Q-0.673461 5.46028 -0.807017 5.44047Q-0.940574 5.42066 -1.073 5.39432Q-1.20542 5.36798 -1.33639 5.33517Q-1.46736 5.30237 -1.59657 5.26317Q-1.72577 5.22398 -1.85289 5.17849Q-1.98002 5.13301 -2.10476 5.08134Q-2.2295 5.02967 -2.35155 4.97194Q-2.47361 4.91421 -2.59268 4.85057Q-2.71176 4.78692 -2.82756 4.71751Q-2.94337 4.64809 -3.05564 4.57308Q-3.1679 4.49807 -3.27635 4.41764Q-3.38479 4.33721 -3.48916 4.25156Q-3.59353 4.1659 -3.69357 4.07523Q-3.79362 3.98456 -3.88909 3.88909Q-3.98456 3.79362 -4.07523 3.69357Q-4.1659 3.59353 -4.25156 3.48916Q-4.33721 3.38479 -4.41764 3.27635Q-4.49807 3.1679 -4.57308 3.05564Q-4.64809 2.94337 -4.71751 2.82756Q-4.78692 2.71176 -4.85057 2.59268Q-4.91421 2.47361 -4.97194 2.35155Q-5.02967 2.2295 -5.08134 2.10476Q-5.13301 1.98002 -5.17849 1.85289Q-5.22398 1.72577 -5.26317 1.59657Q-5.30237 1.46736 -5.33517 1.33639Q-5.36798 1.20542 -5.39432 1.073Q-5.42066 0.940574 -5.44047 0.807017Q-5.46028 0.673461 -5.47352 0.539094Q-5.48675 0.404727 -5.49338 0.269872Q-5.5 0.135017 -5.5 0Q-5.5 -0.135017 -5.49337 -0.269872Q-5.48675 -0.404727 -5.47352 -0.539094Q-5.46028 -0.673461 -5.44047 -0.807017Q-5.42066 -0.940574 -5.39432 -1.073Q-5.36798 -1.20542 -5.33517 -1.33639Q-5.30237 -1.46736 -5.26317 -1.59657Q-5.22398 -1.72577 -5.17849 -1.85289Q-5.13301 -1.98002 -5.08134 -2.10476Q-5.02967 -2.2295 -4.97194 -2.35155Q-4.91421 -2.47361 -4.85057 -2.59268Q-4.78692 -2.71176 -4.71751 -2.82756Q-4.64809 -2.94337 -4.57308 -3.05564Q-4.49807 -3.1679 -4.41764 -3.27635Q-4.33721 -3.38479 -4.25156 -3.48916Q-4.1659 -3.59353 -4.07523 -3.69357Q-3.98456 -3.79362 -3.88909 -3.88909Q-3.79362 -3.98456 -3.69357 -4.07523Q-3.59353 -4.1659 -3.48916 -4.25156Q-3.38479 -4.33721 -3.27635 -4.41764Q-3.1679 -4.49807 -3.05564 -4.57308Q-2.94337 -4.64809 -2.82756 -4.71751Q-2.71176 -4.78692 -2.59268 -4.85057Q-2.47361 -4.91421 -2.35155 -4.97194Q-2.2295 -5.02967 -2.10476 -5.08134Q-1.98002 -5.13301 -1.85289 -5.17849Q-1.72577 -5.22398 -1.59657 -5.26317Q-1.46736 -5.30237 -1.33639 -5.33517Q-1.20542 -5.36798 -1.073 -5.39432Q-0.940574 -5.42066 -0.807017 -5.44047Q-0.673461 -5.46028 -0.539094 -5.47352Q-0.404727 -5.48675 -0.269872 -5.49338Q-0.135017 -5.5 0 -5.5Q0.135017 -5.5 0.269872 -5.49337Q0.404727 -5.48675 0.539094 -5.47352Q0.673461 -5.46028 0.807017 -5.44047Q0.940574 -5.42066 1.073 -5.39432Q1.20542 -5.36798 1.33639 -5.33517Q1.46736 -5.30237 1.59657 -5.26317Q1.72577 -5.22398 1.85289 -5.17849Q1.98002 -5.13301 2.10476 -5.08134Q2.2295 -5.02967 2.35155 -4.97194Q2.47361 -4.91421 2.59268 -4.85057Q2.71176 -4.78692 2.82756 -4.71751Q2.94337 -4.64809 3.05564 -4.57308Q3.1679 -4.49807 3.27635 -4.41764Q3.38479 -4.33721 3.48916 -4.25156Q3.59353 -4.1659 3.69357 -4.07523Q3.79362 -3.98456 3.88909 -3.88909Q3.98456 -3.79362 4.07523 -3.69357Q4.1659 -3.59353 4.25156 -3.48916Q4.33721 -3.38479 4.41764 -3.27635Q4.49807 -3.1679 4.57308 -3.05564Q4.64809 -2.94337 4.71751 -2.82756Q4.78692 -2.71176 4.85057 -2.59268Q4.91421 -2.47361 4.97194 -2.35155Q5.02967 -2.2295 5.08134 -2.10476Q5.13301 -1.98002 5.17849 -1.85289Q5.22398 -1.72577 5.26317 -1.59657Q5.30237 -1.46736 5.33517 -1.33639Q5.36798 -1.20542 5.39432 -1.073Q5.42066 -0.940574 5.44047 -0.807017Q5.46028 -0.673461 5.47352 -0.539094Q5.48675 -0.404727 5.49338 -0.269872Q5.5 -0.135017 5.5 0"/>
	<path fill="#CF78A3" transform="matrix(-0.714286 -1.23718 1.23718 -0.714286 47.8571 35.4854)" d="M8.5 0Q8.5 0.208663 8.48976 0.417075Q8.47952 0.625487 8.45907 0.833146Q8.43862 1.0408 8.408 1.24721Q8.37738 1.45361 8.33667 1.65827Q8.29597 1.86292 8.24527 2.06533Q8.19456 2.26774 8.13399 2.46742Q8.07342 2.6671 8.00312 2.86356Q7.93283 3.06003 7.85298 3.25281Q7.77312 3.44559 7.68391 3.63422Q7.59469 3.82285 7.49633 4.00687Q7.39797 4.1909 7.29069 4.36987Q7.18342 4.54885 7.06749 4.72235Q6.95156 4.89584 6.82726 5.06344Q6.70296 5.23104 6.57059 5.39234Q6.43821 5.55364 6.29808 5.70825Q6.15795 5.86286 6.01041 6.01041Q5.86286 6.15795 5.70825 6.29808Q5.55364 6.43821 5.39234 6.57059Q5.23104 6.70296 5.06344 6.82726Q4.89584 6.95156 4.72235 7.06749Q4.54885 7.18342 4.36987 7.29069Q4.1909 7.39797 4.00687 7.49633Q3.82285 7.59469 3.63422 7.68391Q3.44559 7.77312 3.25281 7.85298Q3.06003 7.93283 2.86356 8.00312Q2.6671 8.07342 2.46742 8.13399Q2.26774 8.19456 2.06533 8.24527Q1.86292 8.29597 1.65827 8.33667Q1.45361 8.37738 1.24721 8.408Q1.0408 8.43862 0.833146 8.45907Q0.625487 8.47952 0.417075 8.48976Q0.208663 8.5 0 8.5Q-0.208663 8.5 -0.417075 8.48976Q-0.625487 8.47952 -0.833146 8.45907Q-1.0408 8.43862 -1.24721 8.408Q-1.45361 8.37738 -1.65827 8.33667Q-1.86292 8.29597 -2.06533 8.24527Q-2.26774 8.19456 -2.46742 8.13399Q-2.6671 8.07342 -2.86356 8.00312Q-3.06003 7.93283 -3.25281 7.85298Q-3.44559 7.77312 -3.63422 7.68391Q-3.82285 7.59469 -4.00687 7.49633Q-4.1909 7.39797 -4.36987 7.29069Q-4.54885 7.18342 -4.72235 7.06749Q-4.89584 6.95156 -5.06344 6.82726Q-5.23104 6.70296 -5.39234 6.57059Q-5.55364 6.43821 -5.70825 6.29808Q-5.86286 6.15795 -6.01041 6.01041Q-6.15795 5.86286 -6.29808 5.70825Q-6.43821 5.55364 -6.57059 5.39234Q-6.70296 5.23104 -6.82726 5.06344Q-6.95156 4.89584 -7.06749 4.72235Q-7.18342 4.54885 -7.29069 4.36987Q-7.39797 4.1909 -7.49633 4.00687Q-7.59469 3.82285 -7.68391 3.63422Q-7.77312 3.44559 -7.85298 3.25281Q-7.93283 3.06003 -8.00312 2.86356Q-8.07342 2.6671 -8.13399 2.46742Q-8.19456 2.26774 -8.24527 2.06533Q-8.29597 1.86292 -8.33667 1.65827Q-8.37738 1.45361 -8.408 1.24721Q-8.43862 1.0408 -8.45907 0.833146Q-8.47952 0.625487 -8.48976 0.417075Q-8.5 0.208663 -8.5 0Q-8.5 -0.208663 -8.48976 -0.417075Q-8.47952 -0.625487 -8.45907 -0.833146Q-8.43862 -1.0408 -8.408 -1.24721Q-8.37738 -1.45361 -8.33667 -1.65827Q-8.29597 -1.86292 -8.24527 -2.06533Q-8.19456 -2.26774 -8.13399 -2.46742Q-8.07342 -2.6671 -8.00312 -2.86356Q-7.93283 -3.06003 -7.85298 -3.25281Q-7.77312 -3.44559 -7.68391 -3.63422Q-7.59469 -3.82285 -7.49633 -4.00687Q-7.39797 -4.1909 -7.29069 -4.36987Q-7.18342 -4.54885 -7.06749 -4.72235Q-6.95156 -4.89584 -6.82726 -5.06344Q-6.70296 -5.23104 -6.57059 -5.39234Q-6.43821 -5.55364 -6.29808 -5.70825Q-6.15795 -5.86286 -6.01041 -6.01041Q-5.86286 -6.15795 -5.70825 -6.29808Q-5.55364 -6.43821 -5.39234 -6.57059Q-5.23104 -6.70296 -5.06344 -6.82726Q-4.89584 -6.95156 -4.72235 -7.06749Q-4.54885 -7.18342 -4.36987 -7.29069Q-4.1909 -7.39797 -4.00687 -7.49633Q-3.82285 -7.59469 -3.63422 -7.68391Q-3.44559 -7.77312 -3.25281 -7.85298Q-3.06003 -7.93283 -2.86356 -8.00312Q-2.6671 -8.07342 -2.46742 -8.13399Q-2.26774 -8.19456 -2.06533 -8.24527Q-1.86292 -8.29597 -1.65827 -8.33667Q-1.45361 -8.37738 -1.24721 -8.408Q-1.0408 -8.43862 -0.833146 -8.45907Q-0.625487 -8.47952 -0.417075 -8.48976Q-0.208663 -8.5 0 -8.5Q0.208663 -8.5 0.417075 -8.48976Q0.625487 -8.47952 0.833146 -8.45907Q1.0408 -8.43862 1.24721 -8.408Q1.45361 -8.37738 1.65827 -8.33667Q1.86292 -8.29597 2.06533 -8.24527Q2.26774 -8.19456 2.46742 -8.13399Q2.6671 -8.07342 2.86356 -8.00312Q3.06003 -7.93283 3.25281 -7.85298Q3.44559 -7.77312 3.63422 -7.68391Q3.82285 -7.59469 4.00687 -7.49633Q4.1909 -7.39797 4.36987 -7.29069Q4.54885 -7.18342 4.72235 -7.06749Q4.89584 -6.95156 5.06344 -6.82726Q5.23104 -6.70296 5.39234 -6.57059Q5.55364 -6.43821 5.70825 -6.29808Q5.86286 -6.15795 6.01041 -6.01041Q6.15795 -5.86286 6.29808 -5.70825Q6.43821 -5.55364 6.57059 -5.39234Q6.70296 -5.23104 6.82726 -5.06344Q6.95156 -4.89584 7.06749 -4.72235Q7.18342 -4.54885 7.29069 -4.36987Q7.39797 -4.1909 7.49633 -4.00687Q7.59469 -3.82285 7.68391 -3.63422Q7.77312 -3.44559 7.85298 -3.25281Q7.93283 -3.06003 8.00312 -2.86356Q8.07342 -2.6671 8.13399 -2.46742Q8.19456 -2.26774 8.24527 -2.06533Q8.29597 -1.86292 8.33667 -1.65827Q8.37738 -1.45361 8.408 -1.24721Q8.43862 -1.0408 8.45907 -0.833146Q8.47952 -0.625487 8.48976 -0.417075Q8.5 -0.208663 8.5 0"/>
	<path fill="#FF94C9" transform="matrix(-0.714286 -1.23718 1.23718 -0.714286 47.8571 35.4854)" d="M5.5 0Q5.5 0.135017 5.49337 0.269872Q5.48675 0.404727 5.47352 0.539094Q5.46028 0.673461 5.44047 0.807017Q5.42066 0.940574 5.39432 1.073Q5.36798 1.20542 5.33517 1.33639Q5.30237 1.46736 5.26317 1.59657Q5.22398 1.72577 5.17849 1.85289Q5.13301 1.98002 5.08134 2.10476Q5.02967 2.2295 4.97194 2.35155Q4.91421 2.47361 4.85057 2.59268Q4.78692 2.71176 4.71751 2.82756Q4.64809 2.94337 4.57308 3.05564Q4.49807 3.1679 4.41764 3.27635Q4.33721 3.38479 4.25156 3.48916Q4.1659 3.59353 4.07523 3.69357Q3.98456 3.79362 3.88909 3.88909Q3.79362 3.98456 3.69357 4.07523Q3.59353 4.1659 3.48916 4.25156Q3.38479 4.33721 3.27635 4.41764Q3.1679 4.49807 3.05564 4.57308Q2.94337 4.64809 2.82756 4.71751Q2.71176 4.78692 2.59268 4.85057Q2.47361 4.91421 2.35155 4.97194Q2.2295 5.02967 2.10476 5.08134Q1.98002 5.13301 1.85289 5.17849Q1.72577 5.22398 1.59657 5.26317Q1.46736 5.30237 1.33639 5.33517Q1.20542 5.36798 1.073 5.39432Q0.940574 5.42066 0.807017 5.44047Q0.673461 5.46028 0.539094 5.47352Q0.404727 5.48675 0.269872 5.49338Q0.135017 5.5 0 5.5Q-0.135017 5.5 -0.269872 5.49337Q-0.404727 5.48675 -0.539094 5.47352Q-0.673461 5.46028 -0.807017 5.44047Q-0.940574 5.42066 -1.073 5.39432Q-1.20542 5.36798 -1.33639 5.33517Q-1.46736 5.30237 -1.59657 5.26317Q-1.72577 5.22398 -1.85289 5.17849Q-1.98002 5.13301 -2.10476 5.08134Q-2.2295 5.02967 -2.35155 4.97194Q-2.47361 4.91421 -2.59268 4.85057Q-2.71176 4.78692 -2.82756 4.71751Q-2.94337 4.64809 -3.05564 4.57308Q-3.1679 4.49807 -3.27635 4.41764Q-3.38479 4.33721 -3.48916 4.25156Q-3.59353 4.1659 -3.69357 4.07523Q-3.79362 3.98456 -3.88909 3.88909Q-3.98456 3.79362 -4.07523 3.69357Q-4.1659 3.59353 -4.25156 3.48916Q-4.33721 3.38479 -4.41764 3.27635Q-4.49807 3.1679 -4.57308 3.05564Q-4.64809 2.94337 -4.71751 2.82756Q-4.78692 2.71176 -4.85057 2.59268Q-4.91421 2.47361 -4.97194 2.35155Q-5.02967 2.2295 -5.08134 2.10476Q-5.13301 1.98002 -5.17849 1.85289Q-5.22398 1.72577 -5.26317 1.59657Q-5.30237 1.46736 -5.33517 1.33639Q-5.36798 1.20542 -5.39432 1.073Q-5.42066 0.940574 -5.44047 0.807017Q-5.46028 0.673461 -5.47352 0.539094Q-5.48675 0.404727 -5.49338 0.269872Q-5.5 0.135017 -5.5 0Q-5.5 -0.135017 -5.49337 -0.269872Q-5.48675 -0.404727 -5.47352 -0.539094Q-5.46028 -0.673461 -5.44047 -0.807017Q-5.42066 -0.940574 -5.39432 -1.073Q-5.36798 -1.20542 -5.33517 -1.33639Q-5.30237 -1.46736 -5.26317 -1.59657Q-5.22398 -1.72577 -5.17849 -1.85289Q-5.13301 -1.98002 -5.08134 -2.10476Q-5.02967 -2.2295 -4.97194 -2.35155Q-4.91421 -2.47361 -4.85057 -2.59268Q-4.78692 -2.71176 -4.71751 -2.82756Q-4.64809 -2.94337 -4.57308 -3.05564Q-4.49807 -3.1679 -4.41764 -3.27635Q-4.33721 -3.38479 -4.25156 -3.48916Q-4.1659 -3.59353 -4.07523 -3.69357Q-3.98456 -3.79362 -3.88909 -3.88909Q-3.79362 -3.98456 -3.69357 -4.07523Q-3.59353 -4.1659 -3.48916 -4.25156Q-3.38479 -4.33721 -3.27635 -4.41764Q-3.1679 -4.49807 -3.05564 -4.57308Q-2.94337 -4.64809 -2.82756 -4.71751Q-2.71176 -4.78692 -2.59268 -4.85057Q-2.47361 -4.91421 -2.35155 -4.97194Q-2.2295 -5.02967 -2.10476 -5.08134Q-1.98002 -5.13301 -1.85289 -5.17849Q-1.72577 -5.22398 -1.59657 -5.26317Q-1.46736 -5.30237 -1.33639 -5.33517Q-1.20542 -5.36798 -1.073 -5.39432Q-0.940574 -5.42066 -0.807017 -5.44047Q-0.673461 -5.46028 -0.539094 -5.47352Q-0.404727 -5.48675 -0.269872 -5.49338Q-0.135017 -5.5 0 -5.5Q0.135017 -5.5 0.269872 -5.49337Q0.404727 -5.48675 0.539094 -5.47352Q0.673461 -5.46028 0.807017 -5.44047Q0.940574 -5.42066 1.073 -5.39432Q1.20542 -5.36798 1.33639 -5.33517Q1.46736 -5.30237 1.59657 -5.26317Q1.72577 -5.22398 1.85289 -5.17849Q1.98002 -5.13301 2.10476 -5.08134Q2.2295 -5.02967 2.35155 -4.97194Q2.47361 -4.91421 2.59268 -4.85057Q2.71176 -4.78692 2.82756 -4.71751Q2.94337 -4.64809 3.05564 -4.57308Q3.1679 -4.49807 3.27635 -4.41764Q3.38479 -4.33721 3.48916 -4.25156Q3.59353 -4.1659 3.69357 -4.07523Q3.79362 -3.98456 3.88909 -3.88909Q3.98456 -3.79362 4.07523 -3.69357Q4.1659 -3.59353 4.25156 -3.48916Q4.33721 -3.38479 4.41764 -3.27635Q4.49807 -3.1679 4.57308 -3.05564Q4.64809 -2.94337 4.71751 -2.82756Q4.78692 -2.71176 4.85057 -2.59268Q4.91421 -2.47361 4.97194 -2.35155Q5.02967 -2.2295 5.08134 -2.10476Q5.13301 -1.98002 5.17849 -1.85289Q5.22398 -1.72577 5.26317 -1.59657Q5.30237 -1.46736 5.33517 -1.33639Q5.36798 -1.20542 5.39432 -1.073Q5.42066 -0.940574 5.44047 -0.807017Q5.46028 -0.673461 5.47352 -0.539094Q5.48675 -0.404727 5.49338 -0.269872Q5.5 -0.135017 5.5 0"/>
	<path fill="none" stroke="black" stroke-width="2.3999999" stroke-linejoin="round" transform="translate(55 79.2857)" d="M-25.6483 4.89094Q-25.4286 4.91047 -25.1405 4.92023Q-24.8524 4.93 -24.452 4.93Q-22.1082 4.93 -20.9803 3.75324Q-19.8524 2.5716 -19.8524 0.491523Q-19.8524 -1.69109 -20.9315 -2.80926Q-22.0106 -3.9323 -24.3495 -3.9323Q-24.6717 -3.9323 -25.0135 -3.91766Q-25.3504 -3.90789 -25.6483 -3.86883L-25.6483 4.89094ZM-16.6297 0.491523Q-16.6297 2.2884 -17.1913 3.63117Q-17.7479 4.96906 -18.7782 5.85285Q-19.8084 6.73176 -21.2928 7.17121Q-22.7723 7.61066 -24.6082 7.61066Q-25.4481 7.61066 -26.5711 7.53742Q-27.6893 7.46906 -28.7684 7.24934L-28.7684 -6.25164Q-27.6893 -6.45184 -26.5223 -6.5202Q-25.3504 -6.58855 -24.5106 -6.58855Q-22.7284 -6.58855 -21.2782 -6.18816Q-19.828 -5.78777 -18.7879 -4.9284Q-17.7479 -4.06902 -17.1913 -2.72625Q-16.6297 -1.38836 -16.6297 0.491523ZM-10.2101 5.34992Q-9.7706 5.34992 -9.37021 5.33039Q-8.96982 5.31086 -8.73056 5.2718L-8.73056 3.01105Q-8.91122 2.97199 -9.27255 2.93293Q-9.629 2.88898 -9.93173 2.88898Q-10.3517 2.88898 -10.7227 2.9427Q-11.089 2.99152 -11.3722 3.13312Q-11.6505 3.26984 -11.8116 3.5091Q-11.9679 3.74836 -11.9679 4.10969Q-11.9679 4.80793 -11.4991 5.08137Q-11.0304 5.34992 -10.2101 5.34992ZM-10.4493 -3.37078Q-9.13095 -3.37078 -8.25204 -3.06805Q-7.36826 -2.7702 -6.84091 -2.20867Q-6.30869 -1.65203 -6.08896 -0.85125Q-5.86923 -0.0504689 -5.86923 0.930976L-5.86923 7.13215Q-6.50888 7.26887 -7.65146 7.4593Q-8.78915 7.64973 -10.4102 7.64973Q-11.4308 7.64973 -12.2608 7.46906Q-13.0909 7.2884 -13.6915 6.87824Q-14.2921 6.46809 -14.6143 5.80891Q-14.9317 5.14973 -14.9317 4.18781Q-14.9317 3.26984 -14.5606 2.6302Q-14.1895 1.99055 -13.5694 1.60969Q-12.9493 1.22883 -12.1485 1.06281Q-11.3477 0.891914 -10.4884 0.891914Q-9.9122 0.891914 -9.46298 0.940742Q-9.00888 0.98957 -8.73056 1.0677L-8.73056 0.789375Q-8.73056 0.0276561 -9.18954 -0.431328Q-9.64853 -0.890313 -10.7911 -0.890313Q-11.5479 -0.890313 -12.2901 -0.778008Q-13.0323 -0.670586 -13.5694 -0.470391L-13.9503 -2.86785Q-13.6915 -2.95086 -13.3009 -3.03875Q-12.9102 -3.13152 -12.4513 -3.19988Q-11.9923 -3.26824 -11.4845 -3.31707Q-10.9718 -3.37078 -10.4493 -3.37078ZM-3.16862 7.43L-3.16862 -7.60906L-0.190109 -8.08758L-0.190109 -3.04852Q0.107742 -3.15105 0.576492 -3.23895Q1.05013 -3.33172 1.48958 -3.33172Q2.76888 -3.33172 3.61848 -2.98016Q4.46809 -2.62859 4.97591 -1.98895Q5.4886 -1.3493 5.69856 -0.470391Q5.90852 0.408515 5.90852 1.48762L5.90852 7.43L2.93001 7.43L2.93001 1.84895Q2.93001 0.408515 2.55891 -0.187188Q2.18782 -0.787774 1.19173 -0.787774Q0.791336 -0.787774 0.439774 -0.719414Q0.0882111 -0.651055 -0.190109 -0.568047L-0.190109 7.43L-3.16862 7.43ZM12.8106 7.6302Q11.5117 7.61066 10.7012 7.35187Q9.89066 7.0882 9.41702 6.61945Q8.94827 6.1507 8.77737 5.48176Q8.61136 4.80793 8.61136 3.96809L8.61136 -7.60906L11.5899 -8.08758L11.5899 3.37238Q11.5899 3.76789 11.6485 4.09016Q11.7119 4.41242 11.878 4.63215Q12.0489 4.85187 12.3662 4.99348Q12.6885 5.1302 13.2305 5.16926L12.8106 7.6302ZM17.9099 7.43L14.9314 7.43L14.9314 -3.08758L17.9099 -3.08758L17.9099 7.43ZM18.1882 -6.12957Q18.1882 -5.30926 17.656 -4.84051Q17.1286 -4.37176 16.4108 -4.37176Q15.6882 -4.37176 15.156 -4.84051Q14.6286 -5.30926 14.6286 -6.12957Q14.6286 -6.94988 15.156 -7.41863Q15.6882 -7.89227 16.4108 -7.89227Q17.1286 -7.89227 17.656 -7.41863Q18.1882 -6.94988 18.1882 -6.12957ZM24.7299 5.34992Q25.1694 5.34992 25.5697 5.33039Q25.9701 5.31086 26.2094 5.2718L26.2094 3.01105Q26.0287 2.97199 25.6674 2.93293Q25.311 2.88898 25.0082 2.88898Q24.5883 2.88898 24.2172 2.9427Q23.851 2.99152 23.5678 3.13312Q23.2895 3.26984 23.1283 3.5091Q22.9721 3.74836 22.9721 4.10969Q22.9721 4.80793 23.4408 5.08137Q23.9096 5.34992 24.7299 5.34992ZM24.4906 -3.37078Q25.809 -3.37078 26.6879 -3.06805Q27.5717 -2.7702 28.099 -2.20867Q28.6313 -1.65203 28.851 -0.85125Q29.0707 -0.0504689 29.0707 0.930976L29.0707 7.13215Q28.4311 7.26887 27.2885 7.4593Q26.1508 7.64973 24.5297 7.64973Q23.5092 7.64973 22.6791 7.46906Q21.849 7.2884 21.2485 6.87824Q20.6479 6.46809 20.3256 5.80891Q20.0082 5.14973 20.0082 4.18781Q20.0082 3.26984 20.3793 2.6302Q20.7504 1.99055 21.3705 1.60969Q21.9906 1.22883 22.7914 1.06281Q23.5922 0.891914 24.4516 0.891914Q25.0278 0.891914 25.477 0.940742Q25.9311 0.98957 26.2094 1.0677L26.2094 0.789375Q26.2094 0.0276561 25.7504 -0.431328Q25.2914 -0.890313 24.1488 -0.890313Q23.392 -0.890313 22.6498 -0.778008Q21.9076 -0.670586 21.3705 -0.470391L20.9897 -2.86785Q21.2485 -2.95086 21.6391 -3.03875Q22.0297 -3.13152 22.4887 -3.19988Q22.9477 -3.26824 23.4555 -3.31707Q23.9682 -3.37078 24.4906 -3.37078Z"/>
	<path fill="white" transform="translate(55 79.2857)" d="M-25.6483 4.89094Q-25.4286 4.91047 -25.1405 4.92023Q-24.8524 4.93 -24.452 4.93Q-22.1082 4.93 -20.9803 3.75324Q-19.8524 2.5716 -19.8524 0.491523Q-19.8524 -1.69109 -20.9315 -2.80926Q-22.0106 -3.9323 -24.3495 -3.9323Q-24.6717 -3.9323 -25.0135 -3.91766Q-25.3504 -3.90789 -25.6483 -3.86883L-25.6483 4.89094ZM-16.6297 0.491523Q-16.6297 2.2884 -17.1913 3.63117Q-17.7479 4.96906 -18.7782 5.85285Q-19.8084 6.73176 -21.2928 7.17121Q-22.7723 7.61066 -24.6082 7.61066Q-25.4481 7.61066 -26.5711 7.53742Q-27.6893 7.46906 -28.7684 7.24934L-28.7684 -6.25164Q-27.6893 -6.45184 -26.5223 -6.5202Q-25.3504 -6.58855 -24.5106 -6.58855Q-22.7284 -6.58855 -21.2782 -6.18816Q-19.828 -5.78777 -18.7879 -4.9284Q-17.7479 -4.06902 -17.1913 -2.72625Q-16.6297 -1.38836 -16.6297 0.491523ZM-10.2101 5.34992Q-9.7706 5.34992 -9.37021 5.33039Q-8.96982 5.31086 -8.73056 5.2718L-8.73056 3.01105Q-8.91122 2.97199 -9.27255 2.93293Q-9.629 2.88898 -9.93173 2.88898Q-10.3517 2.88898 -10.7227 2.9427Q-11.089 2.99152 -11.3722 3.13312Q-11.6505 3.26984 -11.8116 3.5091Q-11.9679 3.74836 -11.9679 4.10969Q-11.9679 4.80793 -11.4991 5.08137Q-11.0304 5.34992 -10.2101 5.34992ZM-10.4493 -3.37078Q-9.13095 -3.37078 -8.25204 -3.06805Q-7.36826 -2.7702 -6.84091 -2.20867Q-6.30869 -1.65203 -6.08896 -0.85125Q-5.86923 -0.0504689 -5.86923 0.930976L-5.86923 7.13215Q-6.50888 7.26887 -7.65146 7.4593Q-8.78915 7.64973 -10.4102 7.64973Q-11.4308 7.64973 -12.2608 7.46906Q-13.0909 7.2884 -13.6915 6.87824Q-14.2921 6.46809 -14.6143 5.80891Q-14.9317 5.14973 -14.9317 4.18781Q-14.9317 3.26984 -14.5606 2.6302Q-14.1895 1.99055 -13.5694 1.60969Q-12.9493 1.22883 -12.1485 1.06281Q-11.3477 0.891914 -10.4884 0.891914Q-9.9122 0.891914 -9.46298 0.940742Q-9.00888 0.98957 -8.73056 1.0677L-8.73056 0.789375Q-8.73056 0.0276561 -9.18954 -0.431328Q-9.64853 -0.890313 -10.7911 -0.890313Q-11.5479 -0.890313 -12.2901 -0.778008Q-13.0323 -0.670586 -13.5694 -0.470391L-13.9503 -2.86785Q-13.6915 -2.95086 -13.3009 -3.03875Q-12.9102 -3.13152 -12.4513 -3.19988Q-11.9923 -3.26824 -11.4845 -3.31707Q-10.9718 -3.37078 -10.4493 -3.37078ZM-3.16862 7.43L-3.16862 -7.60906L-0.190109 -8.08758L-0.190109 -3.04852Q0.107742 -3.15105 0.576492 -3.23895Q1.05013 -3.33172 1.48958 -3.33172Q2.76888 -3.33172 3.61848 -2.98016Q4.46809 -2.62859 4.97591 -1.98895Q5.4886 -1.3493 5.69856 -0.470391Q5.90852 0.408515 5.90852 1.48762L5.90852 7.43L2.93001 7.43L2.93001 1.84895Q2.93001 0.408515 2.55891 -0.187188Q2.18782 -0.787774 1.19173 -0.787774Q0.791336 -0.787774 0.439774 -0.719414Q0.0882111 -0.651055 -0.190109 -0.568047L-0.190109 7.43L-3.16862 7.43ZM12.8106 7.6302Q11.5117 7.61066 10.7012 7.35187Q9.89066 7.0882 9.41702 6.61945Q8.94827 6.1507 8.77737 5.48176Q8.61136 4.80793 8.61136 3.96809L8.61136 -7.60906L11.5899 -8.08758L11.5899 3.37238Q11.5899 3.76789 11.6485 4.09016Q11.7119 4.41242 11.878 4.63215Q12.0489 4.85187 12.3662 4.99348Q12.6885 5.1302 13.2305 5.16926L12.8106 7.6302ZM17.9099 7.43L14.9314 7.43L14.9314 -3.08758L17.9099 -3.08758L17.9099 7.43ZM18.1882 -6.12957Q18.1882 -5.30926 17.656 -4.84051Q17.1286 -4.37176 16.4108 -4.37176Q15.6882 -4.37176 15.156 -4.84051Q14.6286 -5.30926 14.6286 -6.12957Q14.6286 -6.94988 15.156 -7.41863Q15.6882 -7.89227 16.4108 -7.89227Q17.1286 -7.89227 17.656 -7.41863Q18.1882 -6.94988 18.1882 -6.12957ZM24.7299 5.34992Q25.1694 5.34992 25.5697 5.33039Q25.9701 5.31086 26.2094 5.2718L26.2094 3.01105Q26.0287 2.97199 25.6674 2.93293Q25.311 2.88898 25.0082 2.88898Q24.5883 2.88898 24.2172 2.9427Q23.851 2.99152 23.5678 3.13312Q23.2895 3.26984 23.1283 3.5091Q22.9721 3.74836 22.9721 4.10969Q22.9721 4.80793 23.4408 5.08137Q23.9096 5.34992 24.7299 5.34992ZM24.4906 -3.37078Q25.809 -3.37078 26.6879 -3.06805Q27.5717 -2.7702 28.099 -2.20867Q28.6313 -1.65203 28.851 -0.85125Q29.0707 -0.0504689 29.0707 0.930976L29.0707 7.13215Q28.4311 7.26887 27.2885 7.4593Q26.1508 7.64973 24.5297 7.64973Q23.5092 7.64973 22.6791 7.46906Q21.849 7.2884 21.2485 6.87824Q20.6479 6.46809 20.3256 5.80891Q20.0082 5.14973 20.0082 4.18781Q20.0082 3.26984 20.3793 2.6302Q20.7504 1.99055 21.3705 1.60969Q21.9906 1.22883 22.7914 1.06281Q23.5922 0.891914 24.4516 0.891914Q25.0278 0.891914 25.477 0.940742Q25.9311 0.98957 26.2094 1.0677L26.2094 0.789375Q26.2094 0.0276561 25.7504 -0.431328Q25.2914 -0.890313 24.1488 -0.890313Q23.392 -0.890313 22.6498 -0.778008Q21.9076 -0.670586 21.3705 -0.470391L20.9897 -2.86785Q21.2485 -2.95086 21.6391 -3.03875Q22.0297 -3.13152 22.4887 -3.19988Q22.9477 -3.26824 23.4555 -3.31707Q23.9682 -3.37078 24.4906 -3.37078Z"/>
</svg>
