<?xml version="1.0" encoding="utf-8" ?>
<svg xmlns="http://www.w3.org/2000/svg" xmlns:xlink="http://www.w3.org/1999/xlink" width="110" height="110">
	<path fill="#FFE869" transform="matrix(0.77186 1.2021 -1.2021 0.77186 55 47.8571)" d="M-10.6066 -10.6066L10.6066 -10.6066L10.6066 10.6066L-10.6066 10.6066L-10.6066 -10.6066Z"/>
	<path fill="none" stroke="#CFBC55" stroke-width="2.25" stroke-linejoin="round" transform="matrix(0.77186 1.2021 -1.2021 0.77186 55 47.8571)" d="M-10.6066 -10.6066L10.6066 -10.6066L10.6066 10.6066L-10.6066 10.6066L-10.6066 -10.6066Z"/>
	<path fill="none" stroke="black" stroke-width="2.3999999" stroke-linejoin="round" transform="translate(55 79.2857)" d="M-27.9591 5.05207Q-27.2999 5.05207 -26.8702 4.94465Q-26.4405 4.83234 -26.1818 4.64191Q-25.9181 4.45148 -25.8204 4.1927Q-25.7179 3.92902 -25.7179 3.61164Q-25.7179 2.92805 -26.3624 2.47883Q-27.0021 2.02961 -28.5597 1.51203Q-29.2384 1.26789 -29.922 0.960273Q-30.6007 0.647773 -31.1427 0.179023Q-31.6798 -0.289727 -32.0216 -0.958672Q-32.3585 -1.62762 -32.3585 -2.58953Q-32.3585 -3.55145 -32.0021 -4.31805Q-31.6407 -5.08953 -30.9816 -5.62664Q-30.3224 -6.16863 -29.38 -6.45672Q-28.4376 -6.74969 -27.2609 -6.74969Q-25.8595 -6.74969 -24.839 -6.44695Q-23.8185 -6.1491 -23.1593 -5.78777L-24.0577 -3.33172Q-24.6388 -3.62957 -25.3517 -3.85906Q-26.0597 -4.08855 -27.0607 -4.08855Q-28.1788 -4.08855 -28.672 -3.77605Q-29.1603 -3.46844 -29.1603 -2.82879Q-29.1603 -2.44793 -28.9796 -2.18914Q-28.7989 -1.93035 -28.4718 -1.72039Q-28.1398 -1.51043 -27.7101 -1.33953Q-27.2804 -1.16863 -26.7579 -0.987969Q-25.6788 -0.587578 -24.8829 -0.196953Q-24.0821 0.188789 -23.5499 0.71125Q-23.0177 1.22883 -22.7589 1.93195Q-22.5001 2.6302 -22.5001 3.63117Q-22.5001 5.56965 -23.8624 6.63898Q-25.2198 7.70832 -27.9591 7.70832Q-28.882 7.70832 -29.6241 7.59602Q-30.3614 7.48859 -30.9327 7.33234Q-31.4991 7.17121 -31.9093 6.99055Q-32.3195 6.80988 -32.5978 6.64875L-31.7189 4.16828Q-31.0987 4.51008 -30.1905 4.78352Q-29.2823 5.05207 -27.9591 5.05207ZM-17.7595 2.24934Q-17.7595 5.11066 -15.6404 5.11066Q-15.1814 5.11066 -14.7322 4.99348Q-14.2781 4.87141 -13.9998 4.69074L-13.9998 -0.690117Q-14.2195 -0.72918 -14.5613 -0.758477Q-14.8982 -0.787774 -15.2986 -0.787774Q-16.5193 -0.787774 -17.1394 0.0423045Q-17.7595 0.872383 -17.7595 2.24934ZM-20.8015 2.17121Q-20.8015 0.950508 -20.4304 -0.0602345Q-20.0593 -1.07098 -19.3611 -1.79852Q-18.658 -2.53094 -17.6424 -2.93133Q-16.6218 -3.33172 -15.3181 -3.33172Q-14.781 -3.33172 -14.1902 -3.27801Q-13.5994 -3.22918 -13.033 -3.14617Q-12.4617 -3.06805 -11.9441 -2.95574Q-11.4217 -2.84832 -11.0213 -2.73113L-11.0213 11.1312L-13.9998 11.1312L-13.9998 7.17121Q-14.4978 7.39094 -15.0398 7.50812Q-15.5818 7.6302 -16.2019 7.6302Q-18.4383 7.6302 -19.6199 6.16047Q-20.8015 4.69074 -20.8015 2.17121ZM0.760872 7.06867Q-0.000846863 7.2884 -1.20202 7.47883Q-2.39831 7.66926 -3.72155 7.66926Q-5.05944 7.66926 -5.953 7.31281Q-6.84167 6.95148 -7.36413 6.30207Q-7.88171 5.64777 -8.10143 4.74934Q-8.32116 3.8509 -8.32116 2.7718L-8.32116 -3.08758L-5.33776 -3.08758L-5.33776 2.41047Q-5.33776 3.8509 -4.96178 4.49055Q-4.58092 5.1302 -3.54089 5.1302Q-3.21862 5.1302 -2.86217 5.1009Q-2.50085 5.0716 -2.21764 5.02766L-2.21764 -3.08758L0.760872 -3.08758L0.760872 7.06867ZM7.57992 5.34992Q8.01937 5.34992 8.41976 5.33039Q8.82015 5.31086 9.05941 5.2718L9.05941 3.01105Q8.87875 2.97199 8.51742 2.93293Q8.16097 2.88898 7.85824 2.88898Q7.43832 2.88898 7.06722 2.9427Q6.70101 2.99152 6.41781 3.13312Q6.13949 3.26984 5.97836 3.5091Q5.82211 3.74836 5.82211 4.10969Q5.82211 4.80793 6.29086 5.08137Q6.75961 5.34992 7.57992 5.34992ZM7.34066 -3.37078Q8.65902 -3.37078 9.53793 -3.06805Q10.4217 -2.7702 10.9491 -2.20867Q11.4813 -1.65203 11.701 -0.85125Q11.9207 -0.0504689 11.9207 0.930976L11.9207 7.13215Q11.2811 7.26887 10.1385 7.4593Q9.00082 7.64973 7.37972 7.64973Q6.35921 7.64973 5.52914 7.46906Q4.69906 7.2884 4.09847 6.87824Q3.49789 6.46809 3.17562 5.80891Q2.85824 5.14973 2.85824 4.18781Q2.85824 3.26984 3.22933 2.6302Q3.60043 1.99055 4.22054 1.60969Q4.84066 1.22883 5.64144 1.06281Q6.44222 0.891914 7.3016 0.891914Q7.87777 0.891914 8.32699 0.940742Q8.78109 0.98957 9.05941 1.0677L9.05941 0.789375Q9.05941 0.0276561 8.60043 -0.431328Q8.14144 -0.890313 6.99886 -0.890313Q6.24203 -0.890313 5.49984 -0.778008Q4.75765 -0.670586 4.22054 -0.470391L3.83968 -2.86785Q4.09847 -2.95086 4.4891 -3.03875Q4.87972 -3.13152 5.33871 -3.19988Q5.79769 -3.26824 6.3055 -3.31707Q6.8182 -3.37078 7.34066 -3.37078ZM20.9592 -0.45086Q20.5588 -0.548516 20.0169 -0.655938Q19.4797 -0.768242 18.8596 -0.768242Q18.5813 -0.768242 18.1907 -0.719414Q17.8001 -0.670586 17.5999 -0.611992L17.5999 7.43L14.6213 7.43L14.6213 -2.53094Q15.4221 -2.80926 16.511 -3.05828Q17.5999 -3.31219 18.9378 -3.31219Q19.1819 -3.31219 19.5188 -3.27801Q19.8606 -3.24871 20.1975 -3.19988Q20.5393 -3.15105 20.8762 -3.07781Q21.218 -3.00945 21.4622 -2.9118L20.9592 -0.45086ZM22.5584 2.24934Q22.5584 0.847969 22.9881 -0.201836Q23.4178 -1.25164 24.116 -1.94988Q24.8191 -2.64813 25.7273 -3.00945Q26.6404 -3.37078 27.6023 -3.37078Q29.8387 -3.37078 31.1375 -1.99871Q32.4412 -0.631524 32.4412 2.02961Q32.4412 2.2884 32.4217 2.6009Q32.4022 2.90852 32.3777 3.14777L25.6199 3.14777Q25.7176 4.07062 26.4793 4.61262Q27.241 5.14973 28.5203 5.14973Q29.3406 5.14973 30.1268 5.00324Q30.9178 4.85187 31.4207 4.63215L31.8211 7.04914Q31.5818 7.17121 31.1814 7.29328Q30.7811 7.41047 30.2879 7.49836Q29.7996 7.59113 29.2381 7.64973Q28.6814 7.70832 28.1199 7.70832Q26.699 7.70832 25.6492 7.2884Q24.5994 6.86848 23.9061 6.14094Q23.2176 5.40852 22.8856 4.41242Q22.5584 3.41145 22.5584 2.24934ZM29.5604 1.11164Q29.5408 0.730781 29.4285 0.369453Q29.3211 0.00812483 29.0916 -0.270195Q28.8621 -0.548516 28.5106 -0.72918Q28.159 -0.909844 27.6414 -0.909844Q27.1385 -0.909844 26.7772 -0.738945Q26.4207 -0.568047 26.1814 -0.289727Q25.9422 -0.0114064 25.8104 0.359687Q25.6785 0.730781 25.6199 1.11164L29.5604 1.11164Z"/>
	<path fill="white" transform="translate(55 79.2857)" d="M-27.9591 5.05207Q-27.2999 5.05207 -26.8702 4.94465Q-26.4405 4.83234 -26.1818 4.64191Q-25.9181 4.45148 -25.8204 4.1927Q-25.7179 3.92902 -25.7179 3.61164Q-25.7179 2.92805 -26.3624 2.47883Q-27.0021 2.02961 -28.5597 1.51203Q-29.2384 1.26789 -29.922 0.960273Q-30.6007 0.647773 -31.1427 0.179023Q-31.6798 -0.289727 -32.0216 -0.958672Q-32.3585 -1.62762 -32.3585 -2.58953Q-32.3585 -3.55145 -32.0021 -4.31805Q-31.6407 -5.08953 -30.9816 -5.62664Q-30.3224 -6.16863 -29.38 -6.45672Q-28.4376 -6.74969 -27.2609 -6.74969Q-25.8595 -6.74969 -24.839 -6.44695Q-23.8185 -6.1491 -23.1593 -5.78777L-24.0577 -3.33172Q-24.6388 -3.62957 -25.3517 -3.85906Q-26.0597 -4.08855 -27.0607 -4.08855Q-28.1788 -4.08855 -28.672 -3.77605Q-29.1603 -3.46844 -29.1603 -2.82879Q-29.1603 -2.44793 -28.9796 -2.18914Q-28.7989 -1.93035 -28.4718 -1.72039Q-28.1398 -1.51043 -27.7101 -1.33953Q-27.2804 -1.16863 -26.7579 -0.987969Q-25.6788 -0.587578 -24.8829 -0.196953Q-24.0821 0.188789 -23.5499 0.71125Q-23.0177 1.22883 -22.7589 1.93195Q-22.5001 2.6302 -22.5001 3.63117Q-22.5001 5.56965 -23.8624 6.63898Q-25.2198 7.70832 -27.9591 7.70832Q-28.882 7.70832 -29.6241 7.59602Q-30.3614 7.48859 -30.9327 7.33234Q-31.4991 7.17121 -31.9093 6.99055Q-32.3195 6.80988 -32.5978 6.64875L-31.7189 4.16828Q-31.0987 4.51008 -30.1905 4.78352Q-29.2823 5.05207 -27.9591 5.05207ZM-17.7595 2.24934Q-17.7595 5.11066 -15.6404 5.11066Q-15.1814 5.11066 -14.7322 4.99348Q-14.2781 4.87141 -13.9998 4.69074L-13.9998 -0.690117Q-14.2195 -0.72918 -14.5613 -0.758477Q-14.8982 -0.787774 -15.2986 -0.787774Q-16.5193 -0.787774 -17.1394 0.0423045Q-17.7595 0.872383 -17.7595 2.24934ZM-20.8015 2.17121Q-20.8015 0.950508 -20.4304 -0.0602345Q-20.0593 -1.07098 -19.3611 -1.79852Q-18.658 -2.53094 -17.6424 -2.93133Q-16.6218 -3.33172 -15.3181 -3.33172Q-14.781 -3.33172 -14.1902 -3.27801Q-13.5994 -3.22918 -13.033 -3.14617Q-12.4617 -3.06805 -11.9441 -2.95574Q-11.4217 -2.84832 -11.0213 -2.73113L-11.0213 11.1312L-13.9998 11.1312L-13.9998 7.17121Q-14.4978 7.39094 -15.0398 7.50812Q-15.5818 7.6302 -16.2019 7.6302Q-18.4383 7.6302 -19.6199 6.16047Q-20.8015 4.69074 -20.8015 2.17121ZM0.760872 7.06867Q-0.000846863 7.2884 -1.20202 7.47883Q-2.39831 7.66926 -3.72155 7.66926Q-5.05944 7.66926 -5.953 7.31281Q-6.84167 6.95148 -7.36413 6.30207Q-7.88171 5.64777 -8.10143 4.74934Q-8.32116 3.8509 -8.32116 2.7718L-8.32116 -3.08758L-5.33776 -3.08758L-5.33776 2.41047Q-5.33776 3.8509 -4.96178 4.49055Q-4.58092 5.1302 -3.54089 5.1302Q-3.21862 5.1302 -2.86217 5.1009Q-2.50085 5.0716 -2.21764 5.02766L-2.21764 -3.08758L0.760872 -3.08758L0.760872 7.06867ZM7.57992 5.34992Q8.01937 5.34992 8.41976 5.33039Q8.82015 5.31086 9.05941 5.2718L9.05941 3.01105Q8.87875 2.97199 8.51742 2.93293Q8.16097 2.88898 7.85824 2.88898Q7.43832 2.88898 7.06722 2.9427Q6.70101 2.99152 6.41781 3.13312Q6.13949 3.26984 5.97836 3.5091Q5.82211 3.74836 5.82211 4.10969Q5.82211 4.80793 6.29086 5.08137Q6.75961 5.34992 7.57992 5.34992ZM7.34066 -3.37078Q8.65902 -3.37078 9.53793 -3.06805Q10.4217 -2.7702 10.9491 -2.20867Q11.4813 -1.65203 11.701 -0.85125Q11.9207 -0.0504689 11.9207 0.930976L11.9207 7.13215Q11.2811 7.26887 10.1385 7.4593Q9.00082 7.64973 7.37972 7.64973Q6.35921 7.64973 5.52914 7.46906Q4.69906 7.2884 4.09847 6.87824Q3.49789 6.46809 3.17562 5.80891Q2.85824 5.14973 2.85824 4.18781Q2.85824 3.26984 3.22933 2.6302Q3.60043 1.99055 4.22054 1.60969Q4.84066 1.22883 5.64144 1.06281Q6.44222 0.891914 7.3016 0.891914Q7.87777 0.891914 8.32699 0.940742Q8.78109 0.98957 9.05941 1.0677L9.05941 0.789375Q9.05941 0.0276561 8.60043 -0.431328Q8.14144 -0.890313 6.99886 -0.890313Q6.24203 -0.890313 5.49984 -0.778008Q4.75765 -0.670586 4.22054 -0.470391L3.83968 -2.86785Q4.09847 -2.95086 4.4891 -3.03875Q4.87972 -3.13152 5.33871 -3.19988Q5.79769 -3.26824 6.3055 -3.31707Q6.8182 -3.37078 7.34066 -3.37078ZM20.9592 -0.45086Q20.5588 -0.548516 20.0169 -0.655938Q19.4797 -0.768242 18.8596 -0.768242Q18.5813 -0.768242 18.1907 -0.719414Q17.8001 -0.670586 17.5999 -0.611992L17.5999 7.43L14.6213 7.43L14.6213 -2.53094Q15.4221 -2.80926 16.511 -3.05828Q17.5999 -3.31219 18.9378 -3.31219Q19.1819 -3.31219 19.5188 -3.27801Q19.8606 -3.24871 20.1975 -3.19988Q20.5393 -3.15105 20.8762 -3.07781Q21.218 -3.00945 21.4622 -2.9118L20.9592 -0.45086ZM22.5584 2.24934Q22.5584 0.847969 22.9881 -0.201836Q23.4178 -1.25164 24.116 -1.94988Q24.8191 -2.64813 25.7273 -3.00945Q26.6404 -3.37078 27.6023 -3.37078Q29.8387 -3.37078 31.1375 -1.99871Q32.4412 -0.631524 32.4412 2.02961Q32.4412 2.2884 32.4217 2.6009Q32.4022 2.90852 32.3777 3.14777L25.6199 3.14777Q25.7176 4.07062 26.4793 4.61262Q27.241 5.14973 28.5203 5.14973Q29.3406 5.14973 30.1268 5.00324Q30.9178 4.85187 31.4207 4.63215L31.8211 7.04914Q31.5818 7.17121 31.1814 7.29328Q30.7811 7.41047 30.2879 7.49836Q29.7996 7.59113 29.2381 7.64973Q28.6814 7.70832 28.1199 7.70832Q26.699 7.70832 25.6492 7.2884Q24.5994 6.86848 23.9061 6.14094Q23.2176 5.40852 22.8856 4.41242Q22.5584 3.41145 22.5584 2.24934ZM29.5604 1.11164Q29.5408 0.730781 29.4285 0.369453Q29.3211 0.00812483 29.0916 -0.270195Q28.8621 -0.548516 28.5106 -0.72918Q28.159 -0.909844 27.6414 -0.909844Q27.1385 -0.909844 26.7772 -0.738945Q26.4207 -0.568047 26.1814 -0.289727Q25.9422 -0.0114064 25.8104 0.359687Q25.6785 0.730781 25.6199 1.11164L29.5604 1.11164Z"/>
</svg>
