<?xml version="1.0" encoding="utf-8" ?>
<svg xmlns="http://www.w3.org/2000/svg" xmlns:xlink="http://www.w3.org/1999/xlink" width="110" height="110">
	<path fill="#EFC99A" transform="matrix(1.42143 0.142619 -0.142619 1.42143 55 47.8571)" d="M12 -4.76837e-07Q12.1152 0.0554564 12.2275 0.116497Q12.3398 0.177537 12.4489 0.244015Q12.5581 0.310492 12.6639 0.382245Q12.7696 0.453999 12.8718 0.530856Q12.9739 0.607714 13.0721 0.68949Q13.1703 0.771265 13.2644 0.857763Q13.3585 0.94426 13.4483 1.03527Q13.538 1.12628 13.6232 1.22159Q13.7084 1.31689 13.7888 1.41626Q13.8692 1.51563 13.9446 1.61882Q14.02 1.72201 14.0903 1.82878Q14.1605 1.93555 14.2255 2.04564Q14.2904 2.15573 14.3499 2.26887Q14.4093 2.38201 14.4631 2.49794Q14.517 2.61386 14.5651 2.73229Q14.6131 2.85071 14.6554 2.97136Q14.6976 3.092 14.7338 3.21457Q14.7701 3.33714 14.8003 3.46133Q14.8304 3.58553 14.8545 3.71106Q14.8786 3.8366 14.8964 3.96316Q14.9143 4.08972 14.9259 4.217Q14.9376 4.34428 14.9429 4.47199Q14.9483 4.59969 14.9474 4.7275Q14.9465 4.85531 14.9394 4.98292Q14.9322 5.11054 14.9188 5.23765Q14.9053 5.36476 14.8857 5.49105Q14.8661 5.61735 14.8403 5.74253Q14.8144 5.86771 14.7825 5.99148Q14.7506 6.11524 14.7126 6.23729Q14.6747 6.35934 14.6308 6.47937Q14.5869 6.59941 14.5371 6.71715Q14.4874 6.83489 14.4319 6.95005Q14.3765 7.06521 14.3154 7.1775Q14.2544 7.2898 14.1879 7.39897Q14.1214 7.50814 14.0497 7.61391Q13.9779 7.71968 13.9011 7.82181Q13.8242 7.92393 13.7424 8.02217Q13.6607 8.1204 13.5742 8.2145Q13.4877 8.3086 13.3967 8.39834Q13.3056 8.48808 13.2103 8.57325Q13.115 8.65842 13.0157 8.73881Q12.9163 8.8192 12.8131 8.89462Q12.7099 8.97004 12.6031 9.0403Q12.4964 9.11056 12.3863 9.1755Q12.2762 9.24044 12.1631 9.2999Q12.0499 9.35936 11.934 9.4132Q11.8181 9.46703 11.6996 9.51512Q11.5812 9.5632 11.4606 9.60542Q11.3399 9.64763 11.2174 9.68387Q11.0948 9.72012 10.9706 9.75031Q10.8464 9.78049 10.7209 9.80455Q10.5953 9.8286 10.4688 9.84647Q10.3422 9.86434 10.2149 9.87597Q10.0876 9.88761 9.95994 9.89299Q9.83224 9.89836 9.70443 9.89746Q9.57661 9.89657 9.449 9.8894Q9.32139 9.88223 9.19428 9.86882Q9.06717 9.8554 8.94087 9.83576Q8.81458 9.81611 8.6894 9.7903Q8.56421 9.76449 8.44045 9.73256Q8.31669 9.70064 8.19464 9.66268Q8.07259 9.62472 7.95255 9.58082Q7.83251 9.53691 7.71477 9.48717Q7.59703 9.43743 7.48188 9.38198Q7.51032 9.50659 7.53261 9.63244Q7.5549 9.7583 7.57099 9.8851Q7.58709 10.0119 7.59693 10.1393Q7.60678 10.2668 7.61037 10.3945Q7.61395 10.5223 7.61126 10.6501Q7.60858 10.7779 7.59962 10.9054Q7.59066 11.0329 7.57546 11.1598Q7.56026 11.2867 7.53885 11.4127Q7.51744 11.5387 7.48988 11.6635Q7.46231 11.7883 7.42865 11.9116Q7.39499 12.0349 7.35533 12.1564Q7.31566 12.2779 7.27008 12.3973Q7.2245 12.5168 7.17311 12.6338Q7.12172 12.7508 7.06466 12.8652Q7.00759 12.9796 6.94498 13.091Q6.88237 13.2024 6.81437 13.3106Q6.74637 13.4189 6.67314 13.5236Q6.59991 13.6284 6.52163 13.7294Q6.44335 13.8304 6.3602 13.9275Q6.27705 14.0246 6.18925 14.1175Q6.10144 14.2104 6.00918 14.2988Q5.91692 14.3873 5.82043 14.4711Q5.72394 14.5549 5.62345 14.6339Q5.52297 14.7129 5.41873 14.7869Q5.31448 14.8608 5.20674 14.9296Q5.099 14.9983 4.98801 15.0617Q4.87702 15.1251 4.76305 15.183Q4.64909 15.2409 4.53242 15.2931Q4.41575 15.3453 4.29666 15.3917Q4.17758 15.4381 4.05635 15.4786Q3.93513 15.5191 3.81207 15.5537Q3.689 15.5882 3.56439 15.6166Q3.43978 15.6451 3.31393 15.6674Q3.18807 15.6896 3.06127 15.7057Q2.93447 15.7218 2.80704 15.7317Q2.6796 15.7415 2.55184 15.7451Q2.42407 15.7487 2.29629 15.746Q2.1685 15.7433 2.041 15.7344Q1.9135 15.7254 1.78659 15.7102Q1.65968 15.695 1.53367 15.6736Q1.40767 15.6522 1.28286 15.6246Q1.15805 15.5971 1.03475 15.5634Q0.911444 15.5297 0.789941 15.4901Q0.668437 15.4504 0.549026 15.4048Q0.429615 15.3592 0.312584 15.3079Q0.195554 15.2565 0.0811855 15.1994Q-0.0331828 15.1423 -0.144613 15.0797Q-0.256043 15.0171 -0.364267 14.9491Q-0.472492 14.8811 -0.577248 14.8079Q-0.682005 14.7347 -0.783043 14.6564Q-0.884081 14.5781 -0.981155 14.4949Q-1.07823 14.4118 -1.17111 14.324Q-1.26399 14.2362 -1.35244 14.1439Q-1.4409 14.0517 -1.52473 13.9552Q-1.60855 13.8587 -1.68754 13.7582Q-1.76653 13.6577 -1.84049 13.5535Q-1.91445 13.4492 -1.98321 13.3415Q-2.05197 13.2337 -2.11536 13.1228Q-2.17875 13.0118 -2.23662 12.8978Q-2.29448 12.7838 -2.34669 12.6672Q-2.39889 12.5505 -2.44531 12.4314Q-2.49173 12.3123 -2.53225 12.1911Q-2.57277 12.0699 -2.60729 11.9468Q-2.64181 11.8237 -2.67025 11.6991Q-2.74994 11.7991 -2.83444 11.895Q-2.91894 11.9909 -3.00804 12.0825Q-3.09714 12.1741 -3.19064 12.2613Q-3.28413 12.3484 -3.38178 12.4309Q-3.47944 12.5134 -3.58102 12.5909Q-3.68261 12.6685 -3.78787 12.741Q-3.89314 12.8135 -4.00184 12.8807Q-4.11054 12.948 -4.2224 13.0098Q-4.33427 13.0716 -4.44904 13.1279Q-4.5638 13.1842 -4.68119 13.2347Q-4.79858 13.2853 -4.91831 13.33Q-5.03803 13.3748 -5.15981 13.4136Q-5.28159 13.4524 -5.40513 13.4852Q-5.52867 13.518 -5.65366 13.5447Q-5.77866 13.5714 -5.90482 13.5919Q-6.03097 13.6124 -6.15798 13.6267Q-6.285 13.641 -6.41256 13.6491Q-6.54012 13.6572 -6.66792 13.659Q-6.79572 13.6608 -6.92346 13.6563Q-7.05119 13.6518 -7.17856 13.6411Q-7.30592 13.6303 -7.4326 13.6133Q-7.55928 13.5963 -7.68498 13.5732Q-7.81068 13.55 -7.93508 13.5207Q-8.05949 13.4914 -8.18231 13.456Q-8.30513 13.4206 -8.42607 13.3792Q-8.547 13.3379 -8.66576 13.2906Q-8.78452 13.2434 -8.90082 13.1903Q-9.01712 13.1373 -9.13067 13.0787Q-9.24423 13.02 -9.35477 12.9558Q-9.46531 12.8917 -9.57257 12.8221Q-9.67983 12.7526 -9.78355 12.6779Q-9.88727 12.6032 -9.9872 12.5236Q-10.0871 12.4439 -10.183 12.3594Q-10.2789 12.2749 -10.3706 12.1858Q-10.4622 12.0967 -10.5494 12.0032Q-10.6365 11.9097 -10.719 11.812Q-10.8014 11.7144 -10.879 11.6128Q-10.9566 11.5112 -11.0291 11.4059Q-11.1016 11.3007 -11.1688 11.192Q-11.2361 11.0833 -11.2979 10.9714Q-11.3597 10.8595 -11.416 10.7448Q-11.4722 10.63 -11.5228 10.5126Q-11.5734 10.3952 -11.6181 10.2755Q-11.6628 10.1558 -11.7017 10.034Q-11.7405 9.91222 -11.7733 9.78868Q-11.8061 9.66514 -11.8328 9.54015Q-11.8594 9.41515 -11.88 9.28899Q-11.9005 9.16284 -11.9148 9.03582Q-11.9291 8.90881 -11.9372 8.78125Q-11.9452 8.65369 -11.947 8.52589Q-11.9488 8.39809 -11.9443 8.27035Q-11.9399 8.14262 -11.9291 8.01525Q-11.9184 7.88789 -11.9014 7.76121Q-11.8844 7.63453 -11.8612 7.50883Q-11.8381 7.38313 -11.8088 7.25872Q-11.7794 7.13432 -11.7441 7.0115Q-11.7087 6.88868 -11.6673 6.76774Q-11.6259 6.64681 -11.5787 6.52805Q-11.5314 6.40929 -11.4784 6.29299Q-11.4254 6.17669 -11.3667 6.06313Q-11.3081 5.94958 -11.2439 5.83904Q-11.1797 5.72849 -11.1102 5.62123Q-11.0407 5.51398 -10.966 5.41026Q-10.8913 5.30654 -10.8116 5.20661Q-10.9394 5.20661 -11.0671 5.20033Q-11.1948 5.19406 -11.322 5.18153Q-11.4492 5.16901 -11.5756 5.15025Q-11.702 5.1315 -11.8274 5.10656Q-11.9527 5.08163 -12.0767 5.05057Q-12.2007 5.01951 -12.323 4.98241Q-12.4453 4.94531 -12.5657 4.90225Q-12.686 4.85919 -12.8041 4.81028Q-12.9222 4.76136 -13.0377 4.70672Q-13.1533 4.65207 -13.266 4.59182Q-13.3787 4.53156 -13.4884 4.46585Q-13.598 4.40014 -13.7043 4.32913Q-13.8105 4.25812 -13.9132 4.18198Q-14.0159 4.10585 -14.1147 4.02476Q-14.2135 3.94368 -14.3082 3.85784Q-14.4029 3.77201 -14.4933 3.68163Q-14.5836 3.59125 -14.6695 3.49654Q-14.7553 3.40184 -14.8364 3.30304Q-14.9175 3.20423 -14.9936 3.10157Q-15.0697 2.99891 -15.1408 2.89264Q-15.2118 2.78636 -15.2775 2.67673Q-15.3432 2.5671 -15.4034 2.45438Q-15.4637 2.34165 -15.5183 2.22611Q-15.573 2.11057 -15.6219 1.99248Q-15.6708 1.8744 -15.7139 1.75405Q-15.7569 1.63371 -15.794 1.5114Q-15.8311 1.38909 -15.8622 1.2651Q-15.8933 1.14112 -15.9182 1.01576Q-15.9431 0.8904 -15.9619 0.763968Q-15.9806 0.637537 -15.9932 0.510337Q-16.0057 0.383137 -16.012 0.255476Q-16.0182 0.127815 -16.0182 4.76837e-07Q-16.0182 -0.127815 -16.012 -0.255476Q-16.0057 -0.383137 -15.9932 -0.510336Q-15.9806 -0.637536 -15.9619 -0.763967Q-15.9431 -0.890399 -15.9182 -1.01576Q-15.8933 -1.14112 -15.8622 -1.2651Q-15.8311 -1.38909 -15.794 -1.5114Q-15.7569 -1.63371 -15.7139 -1.75405Q-15.6708 -1.8744 -15.6219 -1.99248Q-15.573 -2.11057 -15.5183 -2.22611Q-15.4637 -2.34165 -15.4034 -2.45438Q-15.3432 -2.5671 -15.2775 -2.67673Q-15.2118 -2.78636 -15.1408 -2.89263Q-15.0697 -2.99891 -14.9936 -3.10157Q-14.9175 -3.20423 -14.8364 -3.30304Q-14.7553 -3.40184 -14.6695 -3.49654Q-14.5836 -3.59125 -14.4933 -3.68163Q-14.4029 -3.772 -14.3082 -3.85784Q-14.2135 -3.94367 -14.1147 -4.02476Q-14.0159 -4.10584 -13.9132 -4.18198Q-13.8105 -4.25812 -13.7043 -4.32913Q-13.598 -4.40014 -13.4884 -4.46585Q-13.3787 -4.53156 -13.266 -4.59181Q-13.1533 -4.65207 -13.0377 -4.70671Q-12.9222 -4.76136 -12.8041 -4.81028Q-12.686 -4.85919 -12.5657 -4.90225Q-12.4453 -4.94531 -12.323 -4.98241Q-12.2007 -5.01951 -12.0767 -5.05057Q-11.9527 -5.08163 -11.8274 -5.10656Q-11.702 -5.1315 -11.5756 -5.15025Q-11.4492 -5.16901 -11.322 -5.18153Q-11.1948 -5.19406 -11.0671 -5.20033Q-10.9394 -5.2066 -10.8116 -5.2066Q-10.8913 -5.30653 -10.966 -5.41025Q-11.0407 -5.51397 -11.1102 -5.62123Q-11.1797 -5.72849 -11.2439 -5.83903Q-11.3081 -5.94958 -11.3667 -6.06313Q-11.4254 -6.17669 -11.4784 -6.29299Q-11.5314 -6.40929 -11.5787 -6.52805Q-11.6259 -6.64681 -11.6673 -6.76774Q-11.7087 -6.88868 -11.7441 -7.0115Q-11.7794 -7.13432 -11.8088 -7.25872Q-11.8381 -7.38313 -11.8612 -7.50883Q-11.8844 -7.63452 -11.9014 -7.76121Q-11.9184 -7.88789 -11.9291 -8.01525Q-11.9399 -8.14261 -11.9443 -8.27035Q-11.9488 -8.39809 -11.947 -8.52589Q-11.9452 -8.65369 -11.9372 -8.78125Q-11.9291 -8.90881 -11.9148 -9.03582Q-11.9005 -9.16283 -11.88 -9.28899Q-11.8594 -9.41515 -11.8328 -9.54014Q-11.8061 -9.66514 -11.7733 -9.78868Q-11.7405 -9.91221 -11.7017 -10.034Q-11.6628 -10.1558 -11.6181 -10.2755Q-11.5734 -10.3952 -11.5228 -10.5126Q-11.4722 -10.63 -11.416 -10.7448Q-11.3597 -10.8595 -11.2979 -10.9714Q-11.2361 -11.0833 -11.1688 -11.192Q-11.1016 -11.3007 -11.0291 -11.4059Q-10.9566 -11.5112 -10.879 -11.6128Q-10.8014 -11.7144 -10.719 -11.812Q-10.6365 -11.9097 -10.5494 -12.0032Q-10.4622 -12.0967 -10.3706 -12.1858Q-10.2789 -12.2749 -10.183 -12.3594Q-10.0871 -12.4439 -9.9872 -12.5236Q-9.88727 -12.6032 -9.78355 -12.6779Q-9.67983 -12.7526 -9.57257 -12.8221Q-9.46531 -12.8917 -9.35477 -12.9558Q-9.24423 -13.02 -9.13068 -13.0787Q-9.01712 -13.1373 -8.90082 -13.1903Q-8.78452 -13.2434 -8.66576 -13.2906Q-8.547 -13.3379 -8.42607 -13.3792Q-8.30513 -13.4206 -8.18231 -13.456Q-8.05949 -13.4914 -7.93508 -13.5207Q-7.81068 -13.55 -7.68498 -13.5732Q-7.55928 -13.5963 -7.4326 -13.6133Q-7.30592 -13.6303 -7.17856 -13.641Q-7.05119 -13.6518 -6.92346 -13.6563Q-6.79572 -13.6608 -6.66792 -13.659Q-6.54012 -13.6572 -6.41256 -13.6491Q-6.28499 -13.641 -6.15798 -13.6267Q-6.03097 -13.6124 -5.90482 -13.5919Q-5.77866 -13.5714 -5.65366 -13.5447Q-5.52867 -13.518 -5.40513 -13.4852Q-5.28159 -13.4524 -5.15981 -13.4136Q-5.03803 -13.3748 -4.91831 -13.33Q-4.79858 -13.2853 -4.68119 -13.2347Q-4.5638 -13.1842 -4.44904 -13.1279Q-4.33427 -13.0716 -4.22241 -13.0098Q-4.11054 -12.948 -4.00184 -12.8807Q-3.89314 -12.8135 -3.78787 -12.741Q-3.68261 -12.6685 -3.58102 -12.5909Q-3.47944 -12.5134 -3.38178 -12.4309Q-3.28413 -12.3484 -3.19064 -12.2613Q-3.09715 -12.1741 -3.00804 -12.0825Q-2.91894 -11.9909 -2.83444 -11.895Q-2.74994 -11.7991 -2.67025 -11.6991Q-2.64181 -11.8237 -2.60729 -11.9468Q-2.57277 -12.0699 -2.53225 -12.1911Q-2.49173 -12.3123 -2.44531 -12.4314Q-2.39889 -12.5505 -2.34669 -12.6672Q-2.29448 -12.7838 -2.23662 -12.8978Q-2.17875 -13.0118 -2.11536 -13.1227Q-2.05197 -13.2337 -1.98321 -13.3415Q-1.91445 -13.4492 -1.84049 -13.5535Q-1.76653 -13.6577 -1.68754 -13.7582Q-1.60855 -13.8587 -1.52473 -13.9552Q-1.4409 -14.0517 -1.35244 -14.1439Q-1.26399 -14.2362 -1.17111 -14.324Q-1.07823 -14.4118 -0.981156 -14.4949Q-0.884081 -14.5781 -0.783044 -14.6564Q-0.682006 -14.7347 -0.577249 -14.8079Q-0.472492 -14.8811 -0.364268 -14.9491Q-0.256044 -15.0171 -0.144614 -15.0797Q-0.0331836 -15.1423 0.0811846 -15.1994Q0.195553 -15.2565 0.312583 -15.3079Q0.429614 -15.3592 0.549025 -15.4048Q0.668436 -15.4504 0.78994 -15.4901Q0.911443 -15.5297 1.03475 -15.5634Q1.15805 -15.5971 1.28286 -15.6246Q1.40766 -15.6522 1.53367 -15.6736Q1.65968 -15.695 1.78659 -15.7102Q1.9135 -15.7254 2.041 -15.7344Q2.1685 -15.7433 2.29629 -15.746Q2.42407 -15.7487 2.55184 -15.7451Q2.6796 -15.7415 2.80704 -15.7317Q2.93447 -15.7218 3.06127 -15.7057Q3.18807 -15.6896 3.31392 -15.6674Q3.43978 -15.6451 3.56439 -15.6166Q3.689 -15.5882 3.81207 -15.5537Q3.93513 -15.5191 4.05635 -15.4786Q4.17758 -15.4381 4.29666 -15.3917Q4.41575 -15.3453 4.53242 -15.2931Q4.64909 -15.2409 4.76305 -15.183Q4.87702 -15.1251 4.98801 -15.0617Q5.099 -14.9983 5.20674 -14.9296Q5.31448 -14.8608 5.41872 -14.7869Q5.52297 -14.7129 5.62345 -14.6339Q5.72394 -14.5549 5.82043 -14.4711Q5.91692 -14.3873 6.00918 -14.2988Q6.10144 -14.2104 6.18925 -14.1175Q6.27705 -14.0246 6.3602 -13.9275Q6.44334 -13.8305 6.52163 -13.7294Q6.59991 -13.6284 6.67314 -13.5236Q6.74637 -13.4189 6.81437 -13.3106Q6.88237 -13.2024 6.94498 -13.091Q7.00759 -12.9796 7.06466 -12.8652Q7.12172 -12.7508 7.17311 -12.6338Q7.22449 -12.5168 7.27008 -12.3973Q7.31566 -12.2779 7.35533 -12.1564Q7.39499 -12.0349 7.42865 -11.9116Q7.46231 -11.7883 7.48988 -11.6635Q7.51744 -11.5387 7.53885 -11.4127Q7.56026 -11.2867 7.57546 -11.1598Q7.59066 -11.0329 7.59962 -10.9054Q7.60858 -10.7779 7.61126 -10.6501Q7.61395 -10.5223 7.61037 -10.3945Q7.60678 -10.2668 7.59693 -10.1393Q7.58708 -10.0119 7.57099 -9.8851Q7.5549 -9.7583 7.53261 -9.63245Q7.51032 -9.50659 7.48188 -9.38198Q7.59703 -9.43744 7.71477 -9.48717Q7.83251 -9.53691 7.95255 -9.58082Q8.07259 -9.62472 8.19464 -9.66268Q8.31669 -9.70064 8.44045 -9.73256Q8.56421 -9.76449 8.6894 -9.7903Q8.81458 -9.81612 8.94087 -9.83576Q9.06717 -9.8554 9.19428 -9.86882Q9.32139 -9.88224 9.449 -9.8894Q9.57661 -9.89657 9.70443 -9.89747Q9.83224 -9.89836 9.95994 -9.89299Q10.0876 -9.88761 10.2149 -9.87597Q10.3422 -9.86434 10.4688 -9.84647Q10.5953 -9.8286 10.7209 -9.80455Q10.8464 -9.78049 10.9706 -9.75031Q11.0948 -9.72012 11.2174 -9.68388Q11.3399 -9.64763 11.4606 -9.60542Q11.5812 -9.5632 11.6996 -9.51512Q11.8181 -9.46704 11.934 -9.4132Q12.0499 -9.35936 12.1631 -9.2999Q12.2762 -9.24044 12.3863 -9.1755Q12.4964 -9.11056 12.6031 -9.0403Q12.7099 -8.97004 12.8131 -8.89462Q12.9163 -8.8192 13.0157 -8.73881Q13.115 -8.65842 13.2103 -8.57325Q13.3056 -8.48808 13.3967 -8.39834Q13.4877 -8.3086 13.5742 -8.2145Q13.6607 -8.1204 13.7424 -8.02217Q13.8242 -7.92393 13.9011 -7.82181Q13.9779 -7.71968 14.0497 -7.61391Q14.1214 -7.50814 14.1879 -7.39897Q14.2544 -7.2898 14.3154 -7.17751Q14.3765 -7.06521 14.4319 -6.95005Q14.4874 -6.83489 14.5371 -6.71715Q14.5869 -6.59941 14.6308 -6.47937Q14.6747 -6.35934 14.7126 -6.23729Q14.7506 -6.11524 14.7825 -5.99148Q14.8144 -5.86771 14.8403 -5.74253Q14.8661 -5.61735 14.8857 -5.49105Q14.9053 -5.36476 14.9188 -5.23765Q14.9322 -5.11054 14.9394 -4.98293Q14.9465 -4.85531 14.9474 -4.7275Q14.9483 -4.59969 14.9429 -4.47199Q14.9376 -4.34428 14.9259 -4.217Q14.9143 -4.08972 14.8964 -3.96316Q14.8786 -3.8366 14.8545 -3.71106Q14.8304 -3.58553 14.8003 -3.46133Q14.7701 -3.33714 14.7338 -3.21457Q14.6976 -3.092 14.6554 -2.97136Q14.6132 -2.85071 14.5651 -2.73229Q14.517 -2.61386 14.4632 -2.49794Q14.4093 -2.38201 14.3499 -2.26887Q14.2904 -2.15573 14.2255 -2.04564Q14.1605 -1.93555 14.0903 -1.82878Q14.02 -1.72201 13.9446 -1.61882Q13.8692 -1.51563 13.7888 -1.41626Q13.7084 -1.31689 13.6232 -1.22158Q13.538 -1.12628 13.4483 -1.03527Q13.3585 -0.94426 13.2644 -0.857763Q13.1703 -0.771265 13.0721 -0.689489Q12.9739 -0.607714 12.8718 -0.530856Q12.7696 -0.453999 12.6639 -0.382245Q12.5581 -0.310491 12.4489 -0.244014Q12.3398 -0.177537 12.2275 -0.116496Q12.1152 -0.0554559 12 9.53674e-07L12 -4.76837e-07Z"/>
	<path fill="#C2A37D" transform="matrix(1.42143 0.142619 -0.142619 1.42143 55 47.8571)" d="M12.6508 -1.35145Q15.1537 -0.14614 16.0712 2.47594Q16.9887 5.09801 15.7834 7.60088Q14.5781 10.1037 11.956 11.0212Q9.33391 11.9387 6.83105 10.7334L7.48188 9.38198L8.94427 9.0482Q9.56243 11.7565 8.08446 14.1087Q6.60649 16.4609 3.89817 17.079Q1.18986 17.6972 -1.16232 16.2192Q-3.51449 14.7412 -4.13264 12.0329L-2.67025 11.6991L-1.4975 12.6344Q-3.22954 14.8063 -5.99004 15.1173Q-8.75054 15.4283 -10.9224 13.6963Q-13.0943 11.9643 -13.4054 9.20377Q-13.7164 6.44327 -11.9844 4.27137L-10.8116 5.20661L-10.8116 6.70661Q-13.5896 6.70661 -15.5539 4.74229Q-17.5182 2.77797 -17.5182 4.76837e-07Q-17.5182 -2.77797 -15.5539 -4.74229Q-13.5896 -6.7066 -10.8116 -6.7066L-10.8116 -5.2066L-11.9844 -4.27137Q-13.7164 -6.44327 -13.4054 -9.20377Q-13.0943 -11.9643 -10.9224 -13.6963Q-8.75054 -15.4283 -5.99004 -15.1173Q-3.22954 -14.8063 -1.4975 -12.6344L-2.67025 -11.6991L-4.13264 -12.0329Q-3.51449 -14.7412 -1.16232 -16.2192Q1.18985 -17.6972 3.89817 -17.079Q6.60649 -16.4609 8.08446 -14.1087Q9.56242 -11.7565 8.94427 -9.0482L7.48188 -9.38198L6.83105 -10.7334Q9.33391 -11.9387 11.956 -11.0212Q14.5781 -10.1037 15.7834 -7.60088Q16.9887 -5.09801 16.0712 -2.47594Q15.1537 0.146138 12.6508 1.35145L12 9.53674e-07L12.6508 -1.35145L12.6508 -1.35145ZM11.3492 1.35145Q11.1196 1.24087 10.9393 1.06066Q10.7591 0.880448 10.6485 0.650827Q10.6166 0.584434 10.5913 0.515227Q10.566 0.446021 10.5475 0.374666Q10.5291 0.303312 10.5178 0.230496Q10.5065 0.157681 10.5024 0.0841071Q10.4982 0.0105327 10.5013 -0.0630923Q10.5044 -0.136717 10.5147 -0.209684Q10.525 -0.282651 10.5424 -0.354257Q10.5598 -0.425862 10.5842 -0.495417Q10.6085 -0.564972 10.6396 -0.631807Q10.6706 -0.698641 10.708 -0.762112Q10.7455 -0.825582 10.789 -0.885077Q10.8324 -0.944572 10.8815 -0.999518Q10.9306 -1.05447 10.9849 -1.10433Q11.0391 -1.1542 11.098 -1.19851Q11.1569 -1.24283 11.2198 -1.28115Q11.2828 -1.31948 11.3492 -1.35145Q14.6887 -2.95969 13.0805 -6.29922Q12.4143 -7.68251 10.9652 -8.18959Q9.51598 -8.69668 8.1327 -8.03053Q7.90308 -7.91995 7.64982 -7.89141Q7.39657 -7.86288 7.1481 -7.91959Q7.07625 -7.93599 7.00636 -7.95935Q6.93647 -7.98271 6.86921 -8.0128Q6.80195 -8.0429 6.73796 -8.07945Q6.67397 -8.11599 6.61387 -8.15864Q6.55377 -8.20128 6.49814 -8.24961Q6.44251 -8.29794 6.39189 -8.35148Q6.34126 -8.40503 6.29613 -8.46328Q6.251 -8.52154 6.21179 -8.58393Q6.17258 -8.64633 6.13968 -8.71226Q6.10678 -8.7782 6.0805 -8.84705Q6.05422 -8.91589 6.03482 -8.98698Q6.01541 -9.05807 6.00307 -9.13072Q5.99073 -9.20337 5.98556 -9.27688Q5.9804 -9.35039 5.98247 -9.42405Q5.98453 -9.49771 5.99381 -9.57081Q6.00309 -9.64392 6.01948 -9.71576Q6.36113 -11.2126 5.54428 -12.5126Q4.72744 -13.8126 3.23061 -14.1542Q1.73378 -14.4959 0.43378 -13.679Q-0.866218 -12.8622 -1.20786 -11.3654Q-1.26457 -11.1169 -1.40016 -10.9011Q-1.53576 -10.6853 -1.73502 -10.5264Q-1.79263 -10.4804 -1.85447 -10.4404Q-1.91631 -10.4003 -1.98178 -10.3665Q-2.04725 -10.3326 -2.11572 -10.3054Q-2.18419 -10.2782 -2.255 -10.2578Q-2.32581 -10.2374 -2.39828 -10.224Q-2.47075 -10.2106 -2.54418 -10.2044Q-2.61761 -10.1982 -2.69129 -10.1993Q-2.76497 -10.2003 -2.8382 -10.2086Q-2.91143 -10.2168 -2.98349 -10.2322Q-3.05556 -10.2476 -3.12577 -10.27Q-3.19598 -10.2923 -3.26366 -10.3215Q-3.33133 -10.3507 -3.39583 -10.3863Q-3.46033 -10.4219 -3.52102 -10.4637Q-3.58171 -10.5055 -3.63801 -10.5531Q-3.69431 -10.6006 -3.74568 -10.6535Q-3.79705 -10.7063 -3.843 -10.7639Q-6.15403 -13.6618 -9.05197 -11.3508Q-11.9499 -9.03978 -9.63888 -6.14184Q-9.47998 -5.94258 -9.3958 -5.70202Q-9.31163 -5.46146 -9.31163 -5.2066Q-9.31163 -5.13291 -9.31885 -5.05958Q-9.32607 -4.98624 -9.34045 -4.91397Q-9.35483 -4.84169 -9.37622 -4.77118Q-9.39761 -4.70066 -9.42581 -4.63258Q-9.45401 -4.5645 -9.48874 -4.49951Q-9.52348 -4.43452 -9.56442 -4.37325Q-9.60536 -4.31198 -9.65211 -4.25501Q-9.69886 -4.19805 -9.75097 -4.14594Q-9.80307 -4.09384 -9.86004 -4.04709Q-9.917 -4.00034 -9.97827 -3.9594Q-10.0395 -3.91846 -10.1045 -3.88372Q-10.1695 -3.84899 -10.2376 -3.82079Q-10.3057 -3.79259 -10.3762 -3.77119Q-10.4467 -3.7498 -10.519 -3.73543Q-10.5913 -3.72105 -10.6646 -3.71383Q-10.7379 -3.70661 -10.8116 -3.7066Q-14.5182 -3.7066 -14.5182 4.76837e-07Q-14.5182 3.70661 -10.8116 3.70661Q-10.5568 3.70661 -10.3162 3.79078Q-10.0757 3.87496 -9.87639 4.03386Q-9.81878 4.0798 -9.76595 4.13117Q-9.71311 4.18255 -9.66557 4.23885Q-9.61803 4.29515 -9.57623 4.35584Q-9.53444 4.41653 -9.49879 4.48103Q-9.46315 4.54552 -9.43399 4.6132Q-9.40484 4.68088 -9.38246 4.75109Q-9.36009 4.8213 -9.3447 4.89337Q-9.32931 4.96543 -9.32106 5.03866Q-9.31281 5.11189 -9.31177 5.18557Q-9.31074 5.25925 -9.31693 5.33268Q-9.32313 5.40611 -9.33649 5.47858Q-9.34985 5.55105 -9.37025 5.62186Q-9.39065 5.69267 -9.41789 5.76114Q-9.44514 5.82961 -9.47896 5.89508Q-9.51278 5.96055 -9.55286 6.02239Q-9.59293 6.08423 -9.63888 6.14184Q-11.9499 9.03978 -9.05197 11.3508Q-7.8516 12.3081 -6.32593 12.1362Q-4.80026 11.9643 -3.843 10.7639Q-3.6841 10.5646 -3.4683 10.429Q-3.2525 10.2935 -3.00403 10.2367Q-2.93219 10.2203 -2.85909 10.2111Q-2.78598 10.2018 -2.71232 10.1997Q-2.63866 10.1977 -2.56515 10.2028Q-2.49164 10.208 -2.41899 10.2203Q-2.34634 10.2327 -2.27525 10.2521Q-2.20416 10.2715 -2.13532 10.2978Q-2.06647 10.324 -2.00054 10.3569Q-1.9346 10.3898 -1.8722 10.429Q-1.80981 10.4683 -1.75156 10.5134Q-1.6933 10.5585 -1.63976 10.6091Q-1.58621 10.6598 -1.53788 10.7154Q-1.48955 10.771 -1.44691 10.8311Q-1.40427 10.8912 -1.36772 10.9552Q-1.33117 11.0192 -1.30108 11.0865Q-1.27098 11.1537 -1.24762 11.2236Q-1.22426 11.2935 -1.20786 11.3654Q-0.866218 12.8622 0.433781 13.679Q1.73378 14.4959 3.23061 14.1542Q4.72744 13.8126 5.54428 12.5126Q6.36113 11.2126 6.01948 9.71576Q5.96277 9.46729 5.99131 9.21403Q6.01984 8.96077 6.13042 8.73115Q6.1624 8.66476 6.20072 8.60182Q6.23905 8.53888 6.28336 8.48Q6.32767 8.42112 6.37754 8.36687Q6.42741 8.31262 6.48236 8.26351Q6.5373 8.21441 6.5968 8.17093Q6.65629 8.12745 6.71976 8.09001Q6.78323 8.05257 6.85007 8.02153Q6.9169 7.99049 6.98646 7.96615Q7.05601 7.94181 7.12762 7.92441Q7.19922 7.90701 7.27219 7.8967Q7.34516 7.8864 7.41878 7.8833Q7.49241 7.88021 7.56598 7.88434Q7.63956 7.88847 7.71237 7.89979Q7.78519 7.91112 7.85654 7.92952Q7.9279 7.94793 7.9971 7.97324Q8.06631 7.99855 8.1327 8.03052Q9.51598 8.69668 10.9652 8.18959Q12.4143 7.6825 13.0805 6.29922Q13.7466 4.91594 13.2395 3.46677Q12.7325 2.0176 11.3492 1.35145L11.3492 1.35145Z"/>
	<path fill="none" stroke="black" stroke-width="2.3999999" stroke-linejoin="round" transform="translate(55 79.2857)" d="M-30.2191 5.05207Q-29.5599 5.05207 -29.1302 4.94465Q-28.7005 4.83234 -28.4418 4.64191Q-28.1781 4.45148 -28.0804 4.1927Q-27.9779 3.92902 -27.9779 3.61164Q-27.9779 2.92805 -28.6224 2.47883Q-29.2621 2.02961 -30.8197 1.51203Q-31.4984 1.26789 -32.182 0.960273Q-32.8607 0.647773 -33.4027 0.179023Q-33.9398 -0.289727 -34.2816 -0.958672Q-34.6185 -1.62762 -34.6185 -2.58953Q-34.6185 -3.55145 -34.2621 -4.31805Q-33.9007 -5.08953 -33.2416 -5.62664Q-32.5824 -6.16863 -31.64 -6.45672Q-30.6976 -6.74969 -29.5209 -6.74969Q-28.1195 -6.74969 -27.099 -6.44695Q-26.0785 -6.1491 -25.4193 -5.78777L-26.3177 -3.33172Q-26.8988 -3.62957 -27.6117 -3.85906Q-28.3197 -4.08855 -29.3207 -4.08855Q-30.4388 -4.08855 -30.932 -3.77605Q-31.4203 -3.46844 -31.4203 -2.82879Q-31.4203 -2.44793 -31.2396 -2.18914Q-31.0589 -1.93035 -30.7318 -1.72039Q-30.3998 -1.51043 -29.9701 -1.33953Q-29.5404 -1.16863 -29.0179 -0.987969Q-27.9388 -0.587578 -27.1429 -0.196953Q-26.3421 0.188789 -25.8099 0.71125Q-25.2777 1.22883 -25.0189 1.93195Q-24.7601 2.6302 -24.7601 3.63117Q-24.7601 5.56965 -26.1224 6.63898Q-27.4798 7.70832 -30.2191 7.70832Q-31.142 7.70832 -31.8841 7.59602Q-32.6214 7.48859 -33.1927 7.33234Q-33.7591 7.17121 -34.1693 6.99055Q-34.5795 6.80988 -34.8578 6.64875L-33.9789 4.16828Q-33.3587 4.51008 -32.4505 4.78352Q-31.5423 5.05207 -30.2191 5.05207ZM-15.8203 2.24934Q-15.8203 0.872383 -16.4404 0.0423045Q-17.0606 -0.787774 -18.2813 -0.787774Q-18.6817 -0.787774 -19.0235 -0.758477Q-19.3604 -0.72918 -19.5801 -0.690117L-19.5801 4.69074Q-19.3018 4.87141 -18.8526 4.99348Q-18.3985 5.11066 -17.9395 5.11066Q-15.8203 5.11066 -15.8203 2.24934ZM-12.7783 2.17121Q-12.7783 3.39191 -13.0811 4.39289Q-13.3789 5.38898 -13.96 6.11164Q-14.541 6.82941 -15.4004 7.2298Q-16.2598 7.6302 -17.3779 7.6302Q-17.9981 7.6302 -18.5401 7.50812Q-19.082 7.39094 -19.5801 7.17121L-19.5801 11.1312L-22.5586 11.1312L-22.5586 -2.73113Q-22.1582 -2.84832 -21.6406 -2.95574Q-21.1182 -3.06805 -20.5518 -3.14617Q-19.9805 -3.22918 -19.3897 -3.27801Q-18.7988 -3.33172 -18.2617 -3.33172Q-16.958 -3.33172 -15.9424 -2.94109Q-14.9219 -2.55047 -14.2236 -1.83758Q-13.5205 -1.12957 -13.1494 -0.109063Q-12.7783 0.911445 -12.7783 2.17121ZM-0.639755 2.15168Q-0.639755 3.39191 -1.00108 4.42219Q-1.36241 5.44758 -2.04112 6.18Q-2.71983 6.91242 -3.67198 7.31281Q-4.61925 7.70832 -5.80089 7.70832Q-6.95811 7.70832 -7.91026 7.31281Q-8.86241 6.91242 -9.54112 6.18Q-10.2198 5.44758 -10.6007 4.42219Q-10.9816 3.39191 -10.9816 2.15168Q-10.9816 0.911445 -10.5909 -0.109063Q-10.2003 -1.12957 -9.51183 -1.84734Q-8.81847 -2.57 -7.8712 -2.97039Q-6.91905 -3.37078 -5.80089 -3.37078Q-4.65831 -3.37078 -3.71104 -2.97039Q-2.7589 -2.57 -2.08018 -1.84734Q-1.40147 -1.12957 -1.02061 -0.109063Q-0.639755 0.911445 -0.639755 2.15168ZM-3.68175 2.15168Q-3.68175 0.769844 -4.23351 -0.021172Q-4.78038 -0.812188 -5.80089 -0.812188Q-6.8214 -0.812188 -7.38292 -0.021172Q-7.93956 0.769844 -7.93956 2.15168Q-7.93956 3.52863 -7.38292 4.33918Q-6.8214 5.14973 -5.80089 5.14973Q-4.78038 5.14973 -4.23351 4.33918Q-3.68175 3.52863 -3.68175 2.15168ZM1.66136 -2.73113Q2.4182 -2.95086 3.61937 -3.14129Q4.82054 -3.33172 6.1389 -3.33172Q7.48167 -3.33172 8.37035 -2.98016Q9.25902 -2.62859 9.7766 -1.98895Q10.2991 -1.3493 10.5188 -0.470391Q10.7385 0.408515 10.7385 1.48762L10.7385 7.43L7.75999 7.43L7.75999 1.84895Q7.75999 0.408515 7.37914 -0.187188Q6.99828 -0.787774 5.95824 -0.787774Q5.64085 -0.787774 5.27953 -0.758477Q4.9182 -0.72918 4.63988 -0.690117L4.63988 7.43L1.66136 7.43L1.66136 -2.73113ZM15.9804 1.82941Q15.9804 4.32941 18.0019 4.32941Q18.4609 4.32941 18.8613 4.21223Q19.2617 4.09016 19.54 3.92902L19.54 -0.831719Q19.3203 -0.870781 19.0175 -0.900078Q18.7197 -0.929375 18.3193 -0.929375Q17.1376 -0.929375 16.5566 -0.148125Q15.9804 0.628242 15.9804 1.82941ZM22.5185 6.11164Q22.5185 8.68977 21.2099 9.93977Q19.9013 11.1898 17.162 11.1898Q16.2001 11.1898 15.2382 11.0189Q14.2812 10.848 13.4609 10.5696L13.9785 8.06965Q14.6816 8.34797 15.4482 8.5091Q16.2197 8.67023 17.2011 8.67023Q18.4804 8.67023 19.0078 8.10871Q19.54 7.55207 19.54 6.66828L19.54 6.2923Q19.0615 6.51203 18.5488 6.62434Q18.041 6.73176 17.4404 6.73176Q15.2578 6.73176 14.0956 5.4427Q12.9384 4.14875 12.9384 1.82941Q12.9384 0.672187 13.2997 -0.279961Q13.6611 -1.23211 14.3495 -1.91082Q15.038 -2.58953 16.039 -2.96063Q17.04 -3.33172 18.2997 -3.33172Q18.8417 -3.33172 19.4081 -3.27801Q19.9794 -3.22918 20.5361 -3.14617Q21.0976 -3.06805 21.6054 -2.95574Q22.1181 -2.84832 22.5185 -2.73113L22.5185 6.11164ZM24.8184 2.24934Q24.8184 0.847969 25.2481 -0.201836Q25.6778 -1.25164 26.376 -1.94988Q27.0791 -2.64813 27.9874 -3.00945Q28.9004 -3.37078 29.8624 -3.37078Q32.0987 -3.37078 33.3975 -1.99871Q34.7012 -0.631524 34.7012 2.02961Q34.7012 2.2884 34.6817 2.6009Q34.6622 2.90852 34.6377 3.14777L27.8799 3.14777Q27.9776 4.07062 28.7393 4.61262Q29.501 5.14973 30.7803 5.14973Q31.6006 5.14973 32.3868 5.00324Q33.1778 4.85187 33.6807 4.63215L34.0811 7.04914Q33.8418 7.17121 33.4415 7.29328Q33.0411 7.41047 32.5479 7.49836Q32.0596 7.59113 31.4981 7.64973Q30.9415 7.70832 30.3799 7.70832Q28.959 7.70832 27.9092 7.2884Q26.8594 6.86848 26.1661 6.14094Q25.4776 5.40852 25.1456 4.41242Q24.8184 3.41145 24.8184 2.24934ZM31.8204 1.11164Q31.8008 0.730781 31.6885 0.369453Q31.5811 0.00812483 31.3516 -0.270195Q31.1221 -0.548516 30.7706 -0.72918Q30.419 -0.909844 29.9014 -0.909844Q29.3985 -0.909844 29.0372 -0.738945Q28.6807 -0.568047 28.4415 -0.289727Q28.2022 -0.0114064 28.0704 0.359687Q27.9385 0.730781 27.8799 1.11164L31.8204 1.11164Z"/>
	<path fill="white" transform="translate(55 79.2857)" d="M-30.2191 5.05207Q-29.5599 5.05207 -29.1302 4.94465Q-28.7005 4.83234 -28.4418 4.64191Q-28.1781 4.45148 -28.0804 4.1927Q-27.9779 3.92902 -27.9779 3.61164Q-27.9779 2.92805 -28.6224 2.47883Q-29.2621 2.02961 -30.8197 1.51203Q-31.4984 1.26789 -32.182 0.960273Q-32.8607 0.647773 -33.4027 0.179023Q-33.9398 -0.289727 -34.2816 -0.958672Q-34.6185 -1.62762 -34.6185 -2.58953Q-34.6185 -3.55145 -34.2621 -4.31805Q-33.9007 -5.08953 -33.2416 -5.62664Q-32.5824 -6.16863 -31.64 -6.45672Q-30.6976 -6.74969 -29.5209 -6.74969Q-28.1195 -6.74969 -27.099 -6.44695Q-26.0785 -6.1491 -25.4193 -5.78777L-26.3177 -3.33172Q-26.8988 -3.62957 -27.6117 -3.85906Q-28.3197 -4.08855 -29.3207 -4.08855Q-30.4388 -4.08855 -30.932 -3.77605Q-31.4203 -3.46844 -31.4203 -2.82879Q-31.4203 -2.44793 -31.2396 -2.18914Q-31.0589 -1.93035 -30.7318 -1.72039Q-30.3998 -1.51043 -29.9701 -1.33953Q-29.5404 -1.16863 -29.0179 -0.987969Q-27.9388 -0.587578 -27.1429 -0.196953Q-26.3421 0.188789 -25.8099 0.71125Q-25.2777 1.22883 -25.0189 1.93195Q-24.7601 2.6302 -24.7601 3.63117Q-24.7601 5.56965 -26.1224 6.63898Q-27.4798 7.70832 -30.2191 7.70832Q-31.142 7.70832 -31.8841 7.59602Q-32.6214 7.48859 -33.1927 7.33234Q-33.7591 7.17121 -34.1693 6.99055Q-34.5795 6.80988 -34.8578 6.64875L-33.9789 4.16828Q-33.3587 4.51008 -32.4505 4.78352Q-31.5423 5.05207 -30.2191 5.05207ZM-15.8203 2.24934Q-15.8203 0.872383 -16.4404 0.0423045Q-17.0606 -0.787774 -18.2813 -0.787774Q-18.6817 -0.787774 -19.0235 -0.758477Q-19.3604 -0.72918 -19.5801 -0.690117L-19.5801 4.69074Q-19.3018 4.87141 -18.8526 4.99348Q-18.3985 5.11066 -17.9395 5.11066Q-15.8203 5.11066 -15.8203 2.24934ZM-12.7783 2.17121Q-12.7783 3.39191 -13.0811 4.39289Q-13.3789 5.38898 -13.96 6.11164Q-14.541 6.82941 -15.4004 7.2298Q-16.2598 7.6302 -17.3779 7.6302Q-17.9981 7.6302 -18.5401 7.50812Q-19.082 7.39094 -19.5801 7.17121L-19.5801 11.1312L-22.5586 11.1312L-22.5586 -2.73113Q-22.1582 -2.84832 -21.6406 -2.95574Q-21.1182 -3.06805 -20.5518 -3.14617Q-19.9805 -3.22918 -19.3897 -3.27801Q-18.7988 -3.33172 -18.2617 -3.33172Q-16.958 -3.33172 -15.9424 -2.94109Q-14.9219 -2.55047 -14.2236 -1.83758Q-13.5205 -1.12957 -13.1494 -0.109063Q-12.7783 0.911445 -12.7783 2.17121ZM-0.639755 2.15168Q-0.639755 3.39191 -1.00108 4.42219Q-1.36241 5.44758 -2.04112 6.18Q-2.71983 6.91242 -3.67198 7.31281Q-4.61925 7.70832 -5.80089 7.70832Q-6.95811 7.70832 -7.91026 7.31281Q-8.86241 6.91242 -9.54112 6.18Q-10.2198 5.44758 -10.6007 4.42219Q-10.9816 3.39191 -10.9816 2.15168Q-10.9816 0.911445 -10.5909 -0.109063Q-10.2003 -1.12957 -9.51183 -1.84734Q-8.81847 -2.57 -7.8712 -2.97039Q-6.91905 -3.37078 -5.80089 -3.37078Q-4.65831 -3.37078 -3.71104 -2.97039Q-2.7589 -2.57 -2.08018 -1.84734Q-1.40147 -1.12957 -1.02061 -0.109063Q-0.639755 0.911445 -0.639755 2.15168ZM-3.68175 2.15168Q-3.68175 0.769844 -4.23351 -0.021172Q-4.78038 -0.812188 -5.80089 -0.812188Q-6.8214 -0.812188 -7.38292 -0.021172Q-7.93956 0.769844 -7.93956 2.15168Q-7.93956 3.52863 -7.38292 4.33918Q-6.8214 5.14973 -5.80089 5.14973Q-4.78038 5.14973 -4.23351 4.33918Q-3.68175 3.52863 -3.68175 2.15168ZM1.66136 -2.73113Q2.4182 -2.95086 3.61937 -3.14129Q4.82054 -3.33172 6.1389 -3.33172Q7.48167 -3.33172 8.37035 -2.98016Q9.25902 -2.62859 9.7766 -1.98895Q10.2991 -1.3493 10.5188 -0.470391Q10.7385 0.408515 10.7385 1.48762L10.7385 7.43L7.75999 7.43L7.75999 1.84895Q7.75999 0.408515 7.37914 -0.187188Q6.99828 -0.787774 5.95824 -0.787774Q5.64085 -0.787774 5.27953 -0.758477Q4.9182 -0.72918 4.63988 -0.690117L4.63988 7.43L1.66136 7.43L1.66136 -2.73113ZM15.9804 1.82941Q15.9804 4.32941 18.0019 4.32941Q18.4609 4.32941 18.8613 4.21223Q19.2617 4.09016 19.54 3.92902L19.54 -0.831719Q19.3203 -0.870781 19.0175 -0.900078Q18.7197 -0.929375 18.3193 -0.929375Q17.1376 -0.929375 16.5566 -0.148125Q15.9804 0.628242 15.9804 1.82941ZM22.5185 6.11164Q22.5185 8.68977 21.2099 9.93977Q19.9013 11.1898 17.162 11.1898Q16.2001 11.1898 15.2382 11.0189Q14.2812 10.848 13.4609 10.5696L13.9785 8.06965Q14.6816 8.34797 15.4482 8.5091Q16.2197 8.67023 17.2011 8.67023Q18.4804 8.67023 19.0078 8.10871Q19.54 7.55207 19.54 6.66828L19.54 6.2923Q19.0615 6.51203 18.5488 6.62434Q18.041 6.73176 17.4404 6.73176Q15.2578 6.73176 14.0956 5.4427Q12.9384 4.14875 12.9384 1.82941Q12.9384 0.672187 13.2997 -0.279961Q13.6611 -1.23211 14.3495 -1.91082Q15.038 -2.58953 16.039 -2.96063Q17.04 -3.33172 18.2997 -3.33172Q18.8417 -3.33172 19.4081 -3.27801Q19.9794 -3.22918 20.5361 -3.14617Q21.0976 -3.06805 21.6054 -2.95574Q22.1181 -2.84832 22.5185 -2.73113L22.5185 6.11164ZM24.8184 2.24934Q24.8184 0.847969 25.2481 -0.201836Q25.6778 -1.25164 26.376 -1.94988Q27.0791 -2.64813 27.9874 -3.00945Q28.9004 -3.37078 29.8624 -3.37078Q32.0987 -3.37078 33.3975 -1.99871Q34.7012 -0.631524 34.7012 2.02961Q34.7012 2.2884 34.6817 2.6009Q34.6622 2.90852 34.6377 3.14777L27.8799 3.14777Q27.9776 4.07062 28.7393 4.61262Q29.501 5.14973 30.7803 5.14973Q31.6006 5.14973 32.3868 5.00324Q33.1778 4.85187 33.6807 4.63215L34.0811 7.04914Q33.8418 7.17121 33.4415 7.29328Q33.0411 7.41047 32.5479 7.49836Q32.0596 7.59113 31.4981 7.64973Q30.9415 7.70832 30.3799 7.70832Q28.959 7.70832 27.9092 7.2884Q26.8594 6.86848 26.1661 6.14094Q25.4776 5.40852 25.1456 4.41242Q24.8184 3.41145 24.8184 2.24934ZM31.8204 1.11164Q31.8008 0.730781 31.6885 0.369453Q31.5811 0.00812483 31.3516 -0.270195Q31.1221 -0.548516 30.7706 -0.72918Q30.419 -0.909844 29.9014 -0.909844Q29.3985 -0.909844 29.0372 -0.738945Q28.6807 -0.568047 28.4415 -0.289727Q28.2022 -0.0114064 28.0704 0.359687Q27.9385 0.730781 27.8799 1.11164L31.8204 1.11164Z"/>
</svg>
