<?xml version="1.0" encoding="utf-8" ?>
<svg xmlns="http://www.w3.org/2000/svg" xmlns:xlink="http://www.w3.org/1999/xlink" width="110" height="110">
	<path fill="#695118" transform="matrix(1.42857 0 0 1.42857 55 47.8571)" d="M-7 -7L2 -11L9 -7L10 4L0 10L-7 8L-10 0L-7 -7Z"/>
	<path fill="#554213" transform="matrix(1.42857 0 0 1.42857 55 47.8571)" d="M-7.60921 -8.37072L1.39079 -12.3707Q1.55214 -12.4424 1.72573 -12.4747Q1.89932 -12.507 2.07566 -12.4981Q2.252 -12.4892 2.42145 -12.4396Q2.59091 -12.39 2.74421 -12.3024L9.74421 -8.30236Q9.90141 -8.21253 10.0327 -8.08788Q10.164 -7.96322 10.2619 -7.81091Q10.3598 -7.65859 10.4186 -7.48735Q10.4774 -7.31612 10.4938 -7.1358L11.4938 3.8642Q11.5034 3.96903 11.4982 4.07417Q11.493 4.17931 11.4731 4.2827Q11.4533 4.38608 11.4192 4.48568Q11.3851 4.58528 11.3374 4.67914Q11.2898 4.773 11.2295 4.85929Q11.1692 4.94557 11.0974 5.02259Q11.0256 5.0996 10.9438 5.16584Q10.862 5.23208 10.7717 5.28624L0.771744 11.2862Q0.639648 11.3655 0.494201 11.4163Q0.348754 11.467 0.196028 11.4871Q0.0433007 11.5073 -0.11033 11.4959Q-0.263961 11.4846 -0.412082 11.4423L-7.41208 9.44229Q-7.58119 9.39397 -7.73453 9.30785Q-7.88787 9.22172 -8.01714 9.10247Q-8.1464 8.98321 -8.24457 8.83728Q-8.34274 8.69136 -8.40449 8.52668L-11.4045 0.526685Q-11.4549 0.392207 -11.4789 0.250602Q-11.5029 0.108997 -11.4996 -0.0345878Q-11.4963 -0.178173 -11.4658 -0.318521Q-11.4353 -0.458868 -11.3787 -0.590879L-8.37872 -7.59088Q-8.26697 -7.85163 -8.06771 -8.05357Q-7.86845 -8.2555 -7.60921 -8.37072ZM-6.39079 -5.62928L-7 -7L-5.62128 -6.40912L-8.62128 0.590879L-10 0L-8.59551 -0.526685L-5.59551 7.47331L-7 8L-6.58792 6.55771L0.412082 8.55771L0 10L-0.771744 8.71376L9.22826 2.71376L10 4L8.50616 4.1358L7.50616 -6.8642L9 -7L8.25579 -5.69764L1.25579 -9.69764L2 -11L2.60921 -9.62928L-6.39079 -5.62928Z"/>
	<path fill="none" stroke="black" stroke-width="2.3999999" stroke-linejoin="round" transform="translate(55 79.2857)" d="M-12.5591 5.05207Q-11.8999 5.05207 -11.4703 4.94465Q-11.0406 4.83234 -10.7818 4.64191Q-10.5181 4.45148 -10.4204 4.1927Q-10.3179 3.92902 -10.3179 3.61164Q-10.3179 2.92805 -10.9624 2.47883Q-11.6021 2.02961 -13.1597 1.51203Q-13.8384 1.26789 -14.522 0.960273Q-15.2007 0.647773 -15.7427 0.179023Q-16.2798 -0.289727 -16.6216 -0.958672Q-16.9585 -1.62762 -16.9585 -2.58953Q-16.9585 -3.55145 -16.6021 -4.31805Q-16.2408 -5.08953 -15.5816 -5.62664Q-14.9224 -6.16863 -13.98 -6.45672Q-13.0376 -6.74969 -11.8609 -6.74969Q-10.4595 -6.74969 -9.439 -6.44695Q-8.4185 -6.1491 -7.75932 -5.78777L-8.65775 -3.33172Q-9.23881 -3.62957 -9.9517 -3.85906Q-10.6597 -4.08855 -11.6607 -4.08855Q-12.7788 -4.08855 -13.272 -3.77605Q-13.7603 -3.46844 -13.7603 -2.82879Q-13.7603 -2.44793 -13.5796 -2.18914Q-13.399 -1.93035 -13.0718 -1.72039Q-12.7398 -1.51043 -12.3101 -1.33953Q-11.8804 -1.16863 -11.3579 -0.987969Q-10.2788 -0.587578 -9.48295 -0.196953Q-8.68217 0.188789 -8.14994 0.71125Q-7.61771 1.22883 -7.35892 1.93195Q-7.10014 2.6302 -7.10014 3.63117Q-7.10014 5.56965 -8.46244 6.63898Q-9.81986 7.70832 -12.5591 7.70832Q-13.482 7.70832 -14.2242 7.59602Q-14.9615 7.48859 -15.5328 7.33234Q-16.0992 7.17121 -16.5093 6.99055Q-16.9195 6.80988 -17.1978 6.64875L-16.3189 4.16828Q-15.6988 4.51008 -14.7906 4.78352Q-13.8824 5.05207 -12.5591 5.05207ZM4.94024 2.15168Q4.94024 3.39191 4.57891 4.42219Q4.21758 5.44758 3.53887 6.18Q2.86016 6.91242 1.90801 7.31281Q0.960747 7.70832 -0.220894 7.70832Q-1.37812 7.70832 -2.33027 7.31281Q-3.28242 6.91242 -3.96113 6.18Q-4.63984 5.44758 -5.0207 4.42219Q-5.40156 3.39191 -5.40156 2.15168Q-5.40156 0.911445 -5.01093 -0.109063Q-4.62031 -1.12957 -3.93183 -1.84734Q-3.23847 -2.57 -2.29121 -2.97039Q-1.33906 -3.37078 -0.220894 -3.37078Q0.921684 -3.37078 1.86895 -2.97039Q2.8211 -2.57 3.49981 -1.84734Q4.17852 -1.12957 4.55938 -0.109063Q4.94024 0.911445 4.94024 2.15168ZM1.89825 2.15168Q1.89825 0.769844 1.34649 -0.021172Q0.799614 -0.812188 -0.220894 -0.812188Q-1.2414 -0.812188 -1.80293 -0.021172Q-2.35957 0.769844 -2.35957 2.15168Q-2.35957 3.52863 -1.80293 4.33918Q-1.2414 5.14973 -0.220894 5.14973Q0.799614 5.14973 1.34649 4.33918Q1.89825 3.52863 1.89825 2.15168ZM10.2199 7.43L7.24136 7.43L7.24136 -3.08758L10.2199 -3.08758L10.2199 7.43ZM10.4982 -6.12957Q10.4982 -5.30926 9.96597 -4.84051Q9.43862 -4.37176 8.72085 -4.37176Q7.99819 -4.37176 7.46597 -4.84051Q6.93862 -5.30926 6.93862 -6.12957Q6.93862 -6.94988 7.46597 -7.41863Q7.99819 -7.89227 8.72085 -7.89227Q9.43862 -7.89227 9.96597 -7.41863Q10.4982 -6.94988 10.4982 -6.12957ZM17.2206 7.6302Q15.9217 7.61066 15.1112 7.35187Q14.3007 7.0882 13.827 6.61945Q13.3583 6.1507 13.1874 5.48176Q13.0214 4.80793 13.0214 3.96809L13.0214 -7.60906L15.9999 -8.08758L15.9999 3.37238Q15.9999 3.76789 16.0585 4.09016Q16.1219 4.41242 16.288 4.63215Q16.4589 4.85187 16.7762 4.99348Q17.0985 5.1302 17.6405 5.16926L17.2206 7.6302Z"/>
	<path fill="white" transform="translate(55 79.2857)" d="M-12.5591 5.05207Q-11.8999 5.05207 -11.4703 4.94465Q-11.0406 4.83234 -10.7818 4.64191Q-10.5181 4.45148 -10.4204 4.1927Q-10.3179 3.92902 -10.3179 3.61164Q-10.3179 2.92805 -10.9624 2.47883Q-11.6021 2.02961 -13.1597 1.51203Q-13.8384 1.26789 -14.522 0.960273Q-15.2007 0.647773 -15.7427 0.179023Q-16.2798 -0.289727 -16.6216 -0.958672Q-16.9585 -1.62762 -16.9585 -2.58953Q-16.9585 -3.55145 -16.6021 -4.31805Q-16.2408 -5.08953 -15.5816 -5.62664Q-14.9224 -6.16863 -13.98 -6.45672Q-13.0376 -6.74969 -11.8609 -6.74969Q-10.4595 -6.74969 -9.439 -6.44695Q-8.4185 -6.1491 -7.75932 -5.78777L-8.65775 -3.33172Q-9.23881 -3.62957 -9.9517 -3.85906Q-10.6597 -4.08855 -11.6607 -4.08855Q-12.7788 -4.08855 -13.272 -3.77605Q-13.7603 -3.46844 -13.7603 -2.82879Q-13.7603 -2.44793 -13.5796 -2.18914Q-13.399 -1.93035 -13.0718 -1.72039Q-12.7398 -1.51043 -12.3101 -1.33953Q-11.8804 -1.16863 -11.3579 -0.987969Q-10.2788 -0.587578 -9.48295 -0.196953Q-8.68217 0.188789 -8.14994 0.71125Q-7.61771 1.22883 -7.35892 1.93195Q-7.10014 2.6302 -7.10014 3.63117Q-7.10014 5.56965 -8.46244 6.63898Q-9.81986 7.70832 -12.5591 7.70832Q-13.482 7.70832 -14.2242 7.59602Q-14.9615 7.48859 -15.5328 7.33234Q-16.0992 7.17121 -16.5093 6.99055Q-16.9195 6.80988 -17.1978 6.64875L-16.3189 4.16828Q-15.6988 4.51008 -14.7906 4.78352Q-13.8824 5.05207 -12.5591 5.05207ZM4.94024 2.15168Q4.94024 3.39191 4.57891 4.42219Q4.21758 5.44758 3.53887 6.18Q2.86016 6.91242 1.90801 7.31281Q0.960747 7.70832 -0.220894 7.70832Q-1.37812 7.70832 -2.33027 7.31281Q-3.28242 6.91242 -3.96113 6.18Q-4.63984 5.44758 -5.0207 4.42219Q-5.40156 3.39191 -5.40156 2.15168Q-5.40156 0.911445 -5.01093 -0.109063Q-4.62031 -1.12957 -3.93183 -1.84734Q-3.23847 -2.57 -2.29121 -2.97039Q-1.33906 -3.37078 -0.220894 -3.37078Q0.921684 -3.37078 1.86895 -2.97039Q2.8211 -2.57 3.49981 -1.84734Q4.17852 -1.12957 4.55938 -0.109063Q4.94024 0.911445 4.94024 2.15168ZM1.89825 2.15168Q1.89825 0.769844 1.34649 -0.021172Q0.799614 -0.812188 -0.220894 -0.812188Q-1.2414 -0.812188 -1.80293 -0.021172Q-2.35957 0.769844 -2.35957 2.15168Q-2.35957 3.52863 -1.80293 4.33918Q-1.2414 5.14973 -0.220894 5.14973Q0.799614 5.14973 1.34649 4.33918Q1.89825 3.52863 1.89825 2.15168ZM10.2199 7.43L7.24136 7.43L7.24136 -3.08758L10.2199 -3.08758L10.2199 7.43ZM10.4982 -6.12957Q10.4982 -5.30926 9.96597 -4.84051Q9.43862 -4.37176 8.72085 -4.37176Q7.99819 -4.37176 7.46597 -4.84051Q6.93862 -5.30926 6.93862 -6.12957Q6.93862 -6.94988 7.46597 -7.41863Q7.99819 -7.89227 8.72085 -7.89227Q9.43862 -7.89227 9.96597 -7.41863Q10.4982 -6.94988 10.4982 -6.12957ZM17.2206 7.6302Q15.9217 7.61066 15.1112 7.35187Q14.3007 7.0882 13.827 6.61945Q13.3583 6.1507 13.1874 5.48176Q13.0214 4.80793 13.0214 3.96809L13.0214 -7.60906L15.9999 -8.08758L15.9999 3.37238Q15.9999 3.76789 16.0585 4.09016Q16.1219 4.41242 16.288 4.63215Q16.4589 4.85187 16.7762 4.99348Q17.0985 5.1302 17.6405 5.16926L17.2206 7.6302Z"/>
</svg>
