<?xml version="1.0" encoding="utf-8" ?>
<svg xmlns="http://www.w3.org/2000/svg" xmlns:xlink="http://www.w3.org/1999/xlink" width="110" height="110">
	<path fill="#9C1010" transform="matrix(0.77186 1.2021 -1.2021 0.77186 55 47.8571)" d="M13 0L4.94975 4.94975Q4.82824 5.07126 4.70091 5.18666Q4.57359 5.30206 4.44075 5.41107Q4.30792 5.52009 4.16989 5.62245Q4.03187 5.72482 3.88899 5.82029Q3.74611 5.91576 3.59872 6.0041Q3.45133 6.09244 3.29978 6.17345Q3.14823 6.25445 2.99289 6.32792Q2.83754 6.4014 2.67878 6.46716Q2.52002 6.53292 2.35823 6.59081Q2.19643 6.6487 2.03199 6.69858Q1.86755 6.74847 1.70086 6.79022Q1.53417 6.83197 1.36563 6.8655Q1.19709 6.89902 1.02711 6.92424Q0.857133 6.94945 0.68612 6.96629Q0.515107 6.98314 0.343474 6.99157Q0.17184 7 0 7Q-0.17184 7 -0.343474 6.99157Q-0.515107 6.98314 -0.68612 6.96629Q-0.857133 6.94945 -1.02711 6.92424Q-1.19709 6.89902 -1.36563 6.8655Q-1.53417 6.83197 -1.70086 6.79022Q-1.86755 6.74847 -2.03199 6.69858Q-2.19643 6.6487 -2.35823 6.59081Q-2.52002 6.53292 -2.67878 6.46716Q-2.83754 6.4014 -2.99289 6.32792Q-3.14823 6.25445 -3.29978 6.17345Q-3.45133 6.09244 -3.59872 6.0041Q-3.74611 5.91576 -3.88899 5.82029Q-4.03187 5.72482 -4.1699 5.62245Q-4.30792 5.52009 -4.44075 5.41107Q-4.57359 5.30206 -4.70091 5.18666Q-4.82824 5.07126 -4.94975 4.94975L-13 0L-4.94975 -4.94975Q-4.82824 -5.07126 -4.70091 -5.18666Q-4.57359 -5.30206 -4.44075 -5.41107Q-4.30792 -5.52009 -4.1699 -5.62245Q-4.03187 -5.72482 -3.88899 -5.82029Q-3.74611 -5.91576 -3.59872 -6.0041Q-3.45133 -6.09244 -3.29978 -6.17345Q-3.14823 -6.25445 -2.99289 -6.32792Q-2.83754 -6.4014 -2.67878 -6.46716Q-2.52002 -6.53292 -2.35823 -6.59081Q-2.19643 -6.6487 -2.03199 -6.69858Q-1.86755 -6.74846 -1.70086 -6.79022Q-1.53417 -6.83197 -1.36563 -6.8655Q-1.19709 -6.89902 -1.02711 -6.92423Q-0.857134 -6.94945 -0.686121 -6.96629Q-0.515108 -6.98314 -0.343474 -6.99157Q-0.171841 -7 -5.96046e-07 -7Q0.17184 -7 0.343473 -6.99157Q0.515106 -6.98314 0.686119 -6.96629Q0.857132 -6.94945 1.02711 -6.92424Q1.19709 -6.89902 1.36563 -6.8655Q1.53417 -6.83197 1.70086 -6.79022Q1.86755 -6.74846 2.03199 -6.69858Q2.19643 -6.6487 2.35823 -6.59081Q2.52002 -6.53292 2.67878 -6.46716Q2.83754 -6.4014 2.99289 -6.32793Q3.14823 -6.25445 3.29978 -6.17345Q3.45133 -6.09244 3.59872 -6.0041Q3.74611 -5.91576 3.88899 -5.82029Q4.03187 -5.72482 4.16989 -5.62245Q4.30792 -5.52009 4.44075 -5.41107Q4.57359 -5.30206 4.70091 -5.18666Q4.82824 -5.07126 4.94975 -4.94975L13 0Z"/>
	<path fill="#7E0D0D" transform="matrix(0.77186 1.2021 -1.2021 0.77186 55 47.8571)" d="M13.7857 1.27779L5.7354 6.22754L4.94975 4.94975L6.01041 6.01041Q3.52081 8.5 0 8.5Q-3.52081 8.5 -6.01041 6.01041L-4.94975 4.94975L-5.7354 6.22754L-13.7857 1.27779Q-13.8484 1.23919 -13.9071 1.19463Q-13.9658 1.15006 -14.0198 1.09996Q-14.0739 1.04986 -14.1227 0.994704Q-14.1716 0.939547 -14.2148 0.879865Q-14.2581 0.820184 -14.2952 0.756553Q-14.3324 0.692923 -14.3631 0.625955Q-14.3939 0.558988 -14.4179 0.489329Q-14.442 0.41967 -14.4591 0.34799Q-14.4762 0.27631 -14.4862 0.2033Q-14.4961 0.13029 -14.4989 0.0566521Q-14.5017 -0.0169856 -14.4973 -0.0905415Q-14.4928 -0.164097 -14.4812 -0.236863Q-14.4695 -0.309629 -14.4508 -0.380904Q-14.4321 -0.452178 -14.4065 -0.521276Q-14.3809 -0.590373 -14.3486 -0.656628Q-14.3164 -0.722883 -14.2778 -0.785656Q-14.0904 -1.09041 -13.7857 -1.27779L-5.7354 -6.22754L-4.94975 -4.94975L-6.01041 -6.01041Q-3.52082 -8.5 -7.27946e-07 -8.5Q3.52082 -8.5 6.01041 -6.01041L4.94975 -4.94975L5.7354 -6.22754L13.7857 -1.27779Q13.8484 -1.23919 13.9071 -1.19463Q13.9658 -1.15006 14.0198 -1.09996Q14.0739 -1.04986 14.1227 -0.994704Q14.1716 -0.939546 14.2148 -0.879865Q14.2581 -0.820184 14.2952 -0.756553Q14.3324 -0.692922 14.3631 -0.625955Q14.3939 -0.558988 14.4179 -0.489329Q14.442 -0.41967 14.4591 -0.34799Q14.4762 -0.27631 14.4862 -0.2033Q14.4961 -0.13029 14.4989 -0.056652Q14.5017 0.0169857 14.4973 0.0905416Q14.4928 0.164098 14.4812 0.236863Q14.4695 0.309629 14.4508 0.380904Q14.4321 0.452179 14.4065 0.521276Q14.3809 0.590373 14.3486 0.656628Q14.3164 0.722883 14.2778 0.785656Q14.0904 1.09041 13.7857 1.27779ZM12.2143 -1.27779L13 0L12.2143 1.27779L4.16409 -3.67196Q4.01382 -3.76435 3.88909 -3.88909Q2.27818 -5.5 -3.89353e-07 -5.5Q-2.27817 -5.5 -3.88909 -3.88909Q-4.01382 -3.76435 -4.16409 -3.67196L-12.2143 1.27779L-13 0L-12.2143 -1.27779L-4.16409 3.67196Q-4.01382 3.76435 -3.88909 3.88909Q-2.27817 5.5 0 5.5Q2.27818 5.5 3.88909 3.88909Q4.01382 3.76435 4.16409 3.67196L12.2143 -1.27779Z"/>
	<path fill="none" stroke="black" stroke-width="2.3999999" stroke-linejoin="round" transform="translate(55 79.2857)" d="M-21.4984 7.43L-21.4984 -6.4323L-12.2211 -6.4323L-12.2211 -3.81023L-18.3783 -3.81023L-18.3783 -0.909844L-12.8998 -0.909844L-12.8998 1.71223L-18.3783 1.71223L-18.3783 7.43L-21.4984 7.43ZM-6.20006 5.34992Q-5.7606 5.34992 -5.36021 5.33039Q-4.95982 5.31086 -4.72057 5.2718L-4.72057 3.01105Q-4.90123 2.97199 -5.26256 2.93293Q-5.619 2.88898 -5.92174 2.88898Q-6.34166 2.88898 -6.71275 2.9427Q-7.07896 2.99152 -7.36217 3.13312Q-7.64049 3.26984 -7.80162 3.5091Q-7.95787 3.74836 -7.95787 4.10969Q-7.95787 4.80793 -7.48912 5.08137Q-7.02037 5.34992 -6.20006 5.34992ZM-6.43932 -3.37078Q-5.12096 -3.37078 -4.24205 -3.06805Q-3.35826 -2.7702 -2.83092 -2.20867Q-2.29869 -1.65203 -2.07896 -0.85125Q-1.85924 -0.0504689 -1.85924 0.930976L-1.85924 7.13215Q-2.49889 7.26887 -3.64146 7.4593Q-4.77916 7.64973 -6.40025 7.64973Q-7.42076 7.64973 -8.25084 7.46906Q-9.08092 7.2884 -9.6815 6.87824Q-10.2821 6.46809 -10.6044 5.80891Q-10.9217 5.14973 -10.9217 4.18781Q-10.9217 3.26984 -10.5506 2.6302Q-10.1796 1.99055 -9.55943 1.60969Q-8.93932 1.22883 -8.13853 1.06281Q-7.33775 0.891914 -6.47838 0.891914Q-5.90221 0.891914 -5.45299 0.940742Q-4.99889 0.98957 -4.72057 1.0677L-4.72057 0.789375Q-4.72057 0.0276561 -5.17955 -0.431328Q-5.63853 -0.890313 -6.78111 -0.890313Q-7.53795 -0.890313 -8.28014 -0.778008Q-9.02232 -0.670586 -9.55943 -0.470391L-9.94029 -2.86785Q-9.6815 -2.95086 -9.29088 -3.03875Q-8.90025 -3.13152 -8.44127 -3.19988Q-7.98228 -3.26824 -7.47447 -3.31707Q-6.96178 -3.37078 -6.43932 -3.37078ZM0.84137 -2.73113Q1.59821 -2.95086 2.79938 -3.14129Q4.00055 -3.33172 5.31891 -3.33172Q6.66168 -3.33172 7.55035 -2.98016Q8.43903 -2.62859 8.9566 -1.98895Q9.47906 -1.3493 9.69879 -0.470391Q9.91852 0.408515 9.91852 1.48762L9.91852 7.43L6.94 7.43L6.94 1.84895Q6.94 0.408515 6.55914 -0.187188Q6.17828 -0.787774 5.13824 -0.787774Q4.82086 -0.787774 4.45953 -0.758477Q4.09821 -0.72918 3.81989 -0.690117L3.81989 7.43L0.84137 7.43L0.84137 -2.73113ZM15.1604 1.82941Q15.1604 4.32941 17.1819 4.32941Q17.6409 4.32941 18.0413 4.21223Q18.4417 4.09016 18.72 3.92902L18.72 -0.831719Q18.5003 -0.870781 18.1975 -0.900078Q17.8997 -0.929375 17.4993 -0.929375Q16.3176 -0.929375 15.7366 -0.148125Q15.1604 0.628242 15.1604 1.82941ZM21.6985 6.11164Q21.6985 8.68977 20.3899 9.93977Q19.0813 11.1898 16.3421 11.1898Q15.3801 11.1898 14.4182 11.0189Q13.4612 10.848 12.6409 10.5696L13.1585 8.06965Q13.8616 8.34797 14.6282 8.5091Q15.3997 8.67023 16.3811 8.67023Q17.6604 8.67023 18.1878 8.10871Q18.72 7.55207 18.72 6.66828L18.72 6.2923Q18.2415 6.51203 17.7288 6.62434Q17.221 6.73176 16.6204 6.73176Q14.4378 6.73176 13.2757 5.4427Q12.1184 4.14875 12.1184 1.82941Q12.1184 0.672187 12.4798 -0.279961Q12.8411 -1.23211 13.5296 -1.91082Q14.218 -2.58953 15.219 -2.96063Q16.22 -3.33172 17.4798 -3.33172Q18.0217 -3.33172 18.5882 -3.27801Q19.1594 -3.22918 19.7161 -3.14617Q20.2776 -3.06805 20.7854 -2.95574Q21.2981 -2.84832 21.6985 -2.73113L21.6985 6.11164Z"/>
	<path fill="white" transform="translate(55 79.2857)" d="M-21.4984 7.43L-21.4984 -6.4323L-12.2211 -6.4323L-12.2211 -3.81023L-18.3783 -3.81023L-18.3783 -0.909844L-12.8998 -0.909844L-12.8998 1.71223L-18.3783 1.71223L-18.3783 7.43L-21.4984 7.43ZM-6.20006 5.34992Q-5.7606 5.34992 -5.36021 5.33039Q-4.95982 5.31086 -4.72057 5.2718L-4.72057 3.01105Q-4.90123 2.97199 -5.26256 2.93293Q-5.619 2.88898 -5.92174 2.88898Q-6.34166 2.88898 -6.71275 2.9427Q-7.07896 2.99152 -7.36217 3.13312Q-7.64049 3.26984 -7.80162 3.5091Q-7.95787 3.74836 -7.95787 4.10969Q-7.95787 4.80793 -7.48912 5.08137Q-7.02037 5.34992 -6.20006 5.34992ZM-6.43932 -3.37078Q-5.12096 -3.37078 -4.24205 -3.06805Q-3.35826 -2.7702 -2.83092 -2.20867Q-2.29869 -1.65203 -2.07896 -0.85125Q-1.85924 -0.0504689 -1.85924 0.930976L-1.85924 7.13215Q-2.49889 7.26887 -3.64146 7.4593Q-4.77916 7.64973 -6.40025 7.64973Q-7.42076 7.64973 -8.25084 7.46906Q-9.08092 7.2884 -9.6815 6.87824Q-10.2821 6.46809 -10.6044 5.80891Q-10.9217 5.14973 -10.9217 4.18781Q-10.9217 3.26984 -10.5506 2.6302Q-10.1796 1.99055 -9.55943 1.60969Q-8.93932 1.22883 -8.13853 1.06281Q-7.33775 0.891914 -6.47838 0.891914Q-5.90221 0.891914 -5.45299 0.940742Q-4.99889 0.98957 -4.72057 1.0677L-4.72057 0.789375Q-4.72057 0.0276561 -5.17955 -0.431328Q-5.63853 -0.890313 -6.78111 -0.890313Q-7.53795 -0.890313 -8.28014 -0.778008Q-9.02232 -0.670586 -9.55943 -0.470391L-9.94029 -2.86785Q-9.6815 -2.95086 -9.29088 -3.03875Q-8.90025 -3.13152 -8.44127 -3.19988Q-7.98228 -3.26824 -7.47447 -3.31707Q-6.96178 -3.37078 -6.43932 -3.37078ZM0.84137 -2.73113Q1.59821 -2.95086 2.79938 -3.14129Q4.00055 -3.33172 5.31891 -3.33172Q6.66168 -3.33172 7.55035 -2.98016Q8.43903 -2.62859 8.9566 -1.98895Q9.47906 -1.3493 9.69879 -0.470391Q9.91852 0.408515 9.91852 1.48762L9.91852 7.43L6.94 7.43L6.94 1.84895Q6.94 0.408515 6.55914 -0.187188Q6.17828 -0.787774 5.13824 -0.787774Q4.82086 -0.787774 4.45953 -0.758477Q4.09821 -0.72918 3.81989 -0.690117L3.81989 7.43L0.84137 7.43L0.84137 -2.73113ZM15.1604 1.82941Q15.1604 4.32941 17.1819 4.32941Q17.6409 4.32941 18.0413 4.21223Q18.4417 4.09016 18.72 3.92902L18.72 -0.831719Q18.5003 -0.870781 18.1975 -0.900078Q17.8997 -0.929375 17.4993 -0.929375Q16.3176 -0.929375 15.7366 -0.148125Q15.1604 0.628242 15.1604 1.82941ZM21.6985 6.11164Q21.6985 8.68977 20.3899 9.93977Q19.0813 11.1898 16.3421 11.1898Q15.3801 11.1898 14.4182 11.0189Q13.4612 10.848 12.6409 10.5696L13.1585 8.06965Q13.8616 8.34797 14.6282 8.5091Q15.3997 8.67023 16.3811 8.67023Q17.6604 8.67023 18.1878 8.10871Q18.72 7.55207 18.72 6.66828L18.72 6.2923Q18.2415 6.51203 17.7288 6.62434Q17.221 6.73176 16.6204 6.73176Q14.4378 6.73176 13.2757 5.4427Q12.1184 4.14875 12.1184 1.82941Q12.1184 0.672187 12.4798 -0.279961Q12.8411 -1.23211 13.5296 -1.91082Q14.218 -2.58953 15.219 -2.96063Q16.22 -3.33172 17.4798 -3.33172Q18.0217 -3.33172 18.5882 -3.27801Q19.1594 -3.22918 19.7161 -3.14617Q20.2776 -3.06805 20.7854 -2.95574Q21.2981 -2.84832 21.6985 -2.73113L21.6985 6.11164Z"/>
</svg>
