<?xml version="1.0" encoding="utf-8" ?>
<svg xmlns="http://www.w3.org/2000/svg" xmlns:xlink="http://www.w3.org/1999/xlink" width="110" height="110">
	<path fill="#111" transform="matrix(1.42857 0 0 1.42857 55 47.8571)" d="M0 -10Q8 0 0 10Q-8 0 0 -10Z"/>
	<path fill="#111" transform="matrix(1.42857 0 0 1.42857 55 47.8571)" d="M1.1713 -10.937Q9.92094 0 1.1713 10.937Q1.12527 10.9946 1.07382 11.0473Q1.02236 11.1001 0.965989 11.1475Q0.909614 11.195 0.848858 11.2367Q0.788103 11.2784 0.723552 11.314Q0.659002 11.3495 0.591278 11.3785Q0.523555 11.4076 0.45331 11.4299Q0.383065 11.4521 0.310976 11.4674Q0.238887 11.4827 0.165647 11.4908Q0.0924077 11.499 0.0187232 11.4999Q-0.0549613 11.5008 -0.128381 11.4945Q-0.201801 11.4882 -0.274249 11.4747Q-0.346697 11.4612 -0.417476 11.4407Q-0.488255 11.4202 -0.556682 11.3929Q-0.62511 11.3655 -0.690528 11.3316Q-0.755945 11.2977 -0.817723 11.2575Q-0.8795 11.2173 -0.937043 11.1713Q-1.06719 11.0672 -1.1713 10.937Q-9.92094 0 -1.1713 -10.937Q-1.12527 -10.9946 -1.07382 -11.0473Q-1.02236 -11.1001 -0.965989 -11.1475Q-0.909614 -11.195 -0.848858 -11.2367Q-0.788103 -11.2784 -0.723552 -11.314Q-0.659002 -11.3495 -0.591278 -11.3785Q-0.523555 -11.4076 -0.45331 -11.4299Q-0.383065 -11.4521 -0.310976 -11.4674Q-0.238887 -11.4827 -0.165647 -11.4908Q-0.0924077 -11.499 -0.0187232 -11.4999Q0.0549613 -11.5008 0.128381 -11.4945Q0.201801 -11.4882 0.274249 -11.4747Q0.346697 -11.4612 0.417476 -11.4407Q0.488255 -11.4202 0.556682 -11.3929Q0.62511 -11.3655 0.690528 -11.3316Q0.755945 -11.2977 0.817723 -11.2575Q0.8795 -11.2173 0.937043 -11.1713Q1.06719 -11.0672 1.1713 -10.937ZM-1.1713 -9.06296L0 -10L1.1713 -9.06296Q-6.07906 0 1.1713 9.06296L0 10L-1.1713 9.06296Q6.07906 0 -1.1713 -9.06296Z"/>
	<clipPath id="cl_14">
		<path d="M55 33.5714Q66.4286 47.8571 55 62.1429Q43.5714 47.8571 55 33.5714Z"/>
	</clipPath>
	<g clip-path="url(#cl_14)">
		<path fill="#EEE" transform="matrix(1.42857 0 0 1.42857 55 47.8571)" d="M5 0Q5 0.122743 4.99398 0.245338Q4.98796 0.367934 4.97592 0.490086Q4.96389 0.612238 4.94588 0.733652Q4.92787 0.855067 4.90393 0.975452Q4.87998 1.09584 4.85016 1.2149Q4.82033 1.33397 4.7847 1.45142Q4.74907 1.56888 4.70772 1.68445Q4.66637 1.80002 4.6194 1.91342Q4.57243 2.02682 4.51995 2.13778Q4.46747 2.24873 4.40961 2.35698Q4.35175 2.46523 4.28864 2.57051Q4.22554 2.67579 4.15735 2.77785Q4.08916 2.87991 4.01604 2.9785Q3.94292 3.07708 3.86505 3.17197Q3.78719 3.26685 3.70476 3.35779Q3.62233 3.44874 3.53553 3.53553Q3.44874 3.62233 3.35779 3.70476Q3.26685 3.78718 3.17197 3.86505Q3.07708 3.94292 2.9785 4.01604Q2.87991 4.08916 2.77785 4.15735Q2.67579 4.22554 2.57051 4.28864Q2.46523 4.35175 2.35698 4.40961Q2.24873 4.46747 2.13778 4.51995Q2.02682 4.57243 1.91342 4.6194Q1.80002 4.66637 1.68445 4.70772Q1.56888 4.74907 1.45142 4.7847Q1.33397 4.82033 1.2149 4.85016Q1.09584 4.87998 0.975452 4.90393Q0.855067 4.92787 0.733652 4.94588Q0.612238 4.96389 0.490086 4.97592Q0.367934 4.98795 0.245338 4.99398Q0.122743 5 0 5Q-0.122743 5 -0.245338 4.99398Q-0.367934 4.98795 -0.490086 4.97592Q-0.612238 4.96389 -0.733652 4.94588Q-0.855067 4.92787 -0.975452 4.90393Q-1.09584 4.87998 -1.2149 4.85016Q-1.33397 4.82033 -1.45142 4.7847Q-1.56888 4.74907 -1.68445 4.70772Q-1.80002 4.66637 -1.91342 4.6194Q-2.02682 4.57243 -2.13778 4.51995Q-2.24873 4.46747 -2.35698 4.40961Q-2.46523 4.35175 -2.57051 4.28864Q-2.67579 4.22554 -2.77785 4.15735Q-2.87991 4.08916 -2.9785 4.01604Q-3.07708 3.94292 -3.17197 3.86505Q-3.26685 3.78719 -3.35779 3.70476Q-3.44874 3.62233 -3.53553 3.53553Q-3.62233 3.44874 -3.70476 3.35779Q-3.78718 3.26685 -3.86505 3.17197Q-3.94292 3.07708 -4.01604 2.9785Q-4.08916 2.87991 -4.15735 2.77785Q-4.22554 2.67579 -4.28864 2.57051Q-4.35175 2.46523 -4.40961 2.35698Q-4.46747 2.24873 -4.51995 2.13778Q-4.57243 2.02682 -4.6194 1.91342Q-4.66637 1.80002 -4.70772 1.68445Q-4.74907 1.56888 -4.7847 1.45142Q-4.82033 1.33397 -4.85016 1.2149Q-4.87998 1.09584 -4.90393 0.975452Q-4.92787 0.855067 -4.94588 0.733652Q-4.96389 0.612238 -4.97592 0.490086Q-4.98796 0.367934 -4.99398 0.245338Q-5 0.122743 -5 0Q-5 -0.122743 -4.99398 -0.245338Q-4.98796 -0.367934 -4.97592 -0.490086Q-4.96389 -0.612238 -4.94588 -0.733652Q-4.92787 -0.855067 -4.90393 -0.975452Q-4.87998 -1.09584 -4.85016 -1.2149Q-4.82033 -1.33397 -4.7847 -1.45142Q-4.74907 -1.56888 -4.70772 -1.68445Q-4.66637 -1.80002 -4.6194 -1.91342Q-4.57243 -2.02682 -4.51995 -2.13778Q-4.46747 -2.24873 -4.40961 -2.35698Q-4.35175 -2.46523 -4.28864 -2.57051Q-4.22554 -2.67579 -4.15735 -2.77785Q-4.08916 -2.87991 -4.01604 -2.9785Q-3.94292 -3.07708 -3.86505 -3.17197Q-3.78719 -3.26685 -3.70476 -3.35779Q-3.62233 -3.44874 -3.53553 -3.53553Q-3.44874 -3.62233 -3.35779 -3.70476Q-3.26685 -3.78718 -3.17197 -3.86505Q-3.07708 -3.94292 -2.9785 -4.01604Q-2.87991 -4.08916 -2.77785 -4.15735Q-2.67579 -4.22554 -2.57051 -4.28864Q-2.46523 -4.35175 -2.35698 -4.40961Q-2.24873 -4.46747 -2.13778 -4.51995Q-2.02682 -4.57243 -1.91342 -4.6194Q-1.80002 -4.66637 -1.68445 -4.70772Q-1.56888 -4.74907 -1.45142 -4.7847Q-1.33397 -4.82033 -1.2149 -4.85016Q-1.09584 -4.87998 -0.975452 -4.90393Q-0.855067 -4.92787 -0.733652 -4.94588Q-0.612238 -4.96389 -0.490086 -4.97592Q-0.367934 -4.98795 -0.245338 -4.99398Q-0.122743 -5 0 -5Q0.122743 -5 0.245338 -4.99398Q0.367934 -4.98795 0.490086 -4.97592Q0.612238 -4.96389 0.733652 -4.94588Q0.855067 -4.92787 0.975452 -4.90393Q1.09584 -4.87998 1.2149 -4.85016Q1.33397 -4.82033 1.45142 -4.7847Q1.56888 -4.74907 1.68445 -4.70772Q1.80002 -4.66637 1.91342 -4.6194Q2.02682 -4.57243 2.13778 -4.51995Q2.24873 -4.46747 2.35698 -4.40961Q2.46523 -4.35175 2.57051 -4.28864Q2.67579 -4.22554 2.77785 -4.15735Q2.87991 -4.08916 2.9785 -4.01604Q3.07708 -3.94292 3.17197 -3.86505Q3.26685 -3.78719 3.35779 -3.70476Q3.44874 -3.62233 3.53553 -3.53553Q3.62233 -3.44874 3.70476 -3.35779Q3.78718 -3.26685 3.86505 -3.17197Q3.94292 -3.07708 4.01604 -2.9785Q4.08916 -2.87991 4.15735 -2.77785Q4.22554 -2.67579 4.28864 -2.57051Q4.35175 -2.46523 4.40961 -2.35698Q4.46747 -2.24873 4.51995 -2.13778Q4.57243 -2.02682 4.6194 -1.91342Q4.66637 -1.80002 4.70772 -1.68445Q4.74907 -1.56888 4.7847 -1.45142Q4.82033 -1.33397 4.85016 -1.2149Q4.87998 -1.09584 4.90393 -0.975452Q4.92787 -0.855067 4.94588 -0.733652Q4.96389 -0.612238 4.97592 -0.490086Q4.98796 -0.367934 4.99398 -0.245338Q5 -0.122743 5 0"/>
	</g>
	<path fill="none" stroke="black" stroke-width="1.8857143" stroke-linejoin="round" transform="translate(55 79.2857)" d="M-25.9588 -5.05395L-25.9588 -2.96306L-29.2428 -2.96306L-29.2428 5.83786L-31.6943 5.83786L-31.6943 -2.96306L-34.9784 -2.96306L-34.9784 -5.05395L-25.9588 -5.05395ZM-24.5501 5.83786L-24.5501 -5.97855L-22.2098 -6.35453L-22.2098 -2.39526Q-21.9758 -2.47583 -21.6075 -2.54489Q-21.2354 -2.61778 -20.8901 -2.61778Q-19.8849 -2.61778 -19.2174 -2.34155Q-18.5498 -2.06532 -18.1508 -1.56274Q-17.748 -1.06016 -17.583 -0.369593Q-17.4181 0.320976 -17.4181 1.16884L-17.4181 5.83786L-19.7583 5.83786L-19.7583 1.45274Q-19.7583 0.320976 -20.0499 -0.147076Q-20.3415 -0.618965 -21.1241 -0.618965Q-21.4387 -0.618965 -21.7149 -0.565254Q-21.9912 -0.511543 -22.2098 -0.446323L-22.2098 5.83786L-24.5501 5.83786ZM-12.9607 5.83786L-15.3009 5.83786L-15.3009 -2.42595L-12.9607 -2.42595L-12.9607 5.83786ZM-12.742 -4.81609Q-12.742 -4.17156 -13.1602 -3.80326Q-13.5745 -3.43495 -14.1385 -3.43495Q-14.7063 -3.43495 -15.1244 -3.80326Q-15.5388 -4.17156 -15.5388 -4.81609Q-15.5388 -5.46062 -15.1244 -5.82893Q-14.7063 -6.20107 -14.1385 -6.20107Q-13.5745 -6.20107 -13.1602 -5.82893Q-12.742 -5.46062 -12.742 -4.81609ZM-5.78292 -0.354247Q-6.09752 -0.430977 -6.52337 -0.51538Q-6.94538 -0.603619 -7.43262 -0.603619Q-7.6513 -0.603619 -7.95822 -0.565254Q-8.26514 -0.526889 -8.42243 -0.480852L-8.42243 5.83786L-10.7627 5.83786L-10.7627 -1.98859Q-10.1335 -2.20727 -9.27797 -2.40294Q-8.42243 -2.60243 -7.37123 -2.60243Q-7.17941 -2.60243 -6.91469 -2.57558Q-6.64614 -2.55256 -6.38142 -2.51419Q-6.11286 -2.47583 -5.84814 -2.41828Q-5.57959 -2.36457 -5.38776 -2.28784L-5.78292 -0.354247ZM-2.14096 1.64073Q-2.14096 2.72646 -1.65373 3.38634Q-1.16649 4.04621 -0.207369 4.04621Q0.107224 4.04621 0.371942 4.02319Q0.640496 4.00018 0.813139 3.96948L0.813139 -0.289027Q0.594459 -0.430977 0.237664 -0.523053Q-0.115293 -0.618965 -0.475924 -0.618965Q-2.14096 -0.618965 -2.14096 1.64073ZM3.1534 5.5693Q2.83881 5.66521 2.4283 5.75345Q2.02164 5.83786 1.57276 5.89924Q1.12773 5.96446 0.663516 6.00283Q0.199299 6.04119 -0.222715 6.04119Q-1.24706 6.04119 -2.04889 5.74578Q-2.84688 5.44653 -3.39933 4.89024Q-3.94795 4.33011 -4.23953 3.53596Q-4.5311 2.7418 -4.5311 1.75199Q-4.5311 0.746827 -4.28173 -0.0626736Q-4.02852 -0.872174 -3.55663 -1.43614Q-3.08474 -2.00394 -2.40184 -2.30319Q-1.71511 -2.60243 -0.836555 -2.60243Q-0.349319 -2.60243 0.0343304 -2.50652Q0.421816 -2.41061 0.813139 -2.23797L0.813139 -5.97855L3.1534 -6.35453L3.1534 5.5693ZM9.27487 5.83786L9.27487 -5.05395L16.6294 -5.05395L16.6294 -2.99376L11.7264 -2.99376L11.7264 -0.856828L16.077 -0.856828L16.077 1.1535L11.7264 1.1535L11.7264 3.77766L16.9901 3.77766L16.9901 5.83786L9.27487 5.83786ZM25.9729 -2.42595Q25.2632 -0.0396543 24.492 2.05124Q23.7247 4.14213 22.8117 6.10641Q22.4817 6.81233 22.1518 7.30723Q21.8218 7.80214 21.4267 8.12441Q21.0354 8.44667 20.5405 8.5963Q20.0455 8.74592 19.3857 8.74592Q18.837 8.74592 18.3728 8.64233Q17.9086 8.54259 17.6094 8.41598L18.0199 6.54377Q18.3805 6.67038 18.6644 6.71641Q18.9483 6.76629 19.2629 6.76629Q19.8882 6.76629 20.2259 6.42868Q20.5673 6.09107 20.8013 5.49257Q19.9995 3.91961 19.1977 1.963Q18.3958 0.00638342 17.6899 -2.42595L20.1721 -2.42595Q20.3294 -1.81595 20.5405 -1.09853Q20.7553 -0.384939 20.9893 0.347832Q21.2272 1.07677 21.4689 1.76733Q21.7144 2.4579 21.9331 3.02571Q22.1364 2.4579 22.3551 1.76733Q22.5776 1.07677 22.7886 0.347832Q22.9996 -0.384939 23.1953 -1.09853Q23.3948 -1.81595 23.5521 -2.42595L25.9729 -2.42595ZM26.8282 1.76733Q26.8282 0.666261 27.1658 -0.158586Q27.5034 -0.983432 28.052 -1.53205Q28.6045 -2.08067 29.3181 -2.36457Q30.0355 -2.64847 30.7913 -2.64847Q32.5484 -2.64847 33.5689 -1.57042Q34.5933 -0.496197 34.5933 1.59469Q34.5933 1.79803 34.5779 2.04356Q34.5626 2.28526 34.5434 2.47325L29.2337 2.47325Q29.3104 3.19835 29.9089 3.6242Q30.5074 4.04621 31.5126 4.04621Q32.1571 4.04621 32.7748 3.93112Q33.3963 3.81219 33.7914 3.63954L34.106 5.53861Q33.918 5.63452 33.6035 5.73043Q33.2889 5.82251 32.9014 5.89157Q32.5177 5.96446 32.0765 6.0105Q31.6392 6.05654 31.198 6.05654Q30.0815 6.05654 29.2567 5.7266Q28.4319 5.39666 27.8871 4.82502Q27.3461 4.24955 27.0852 3.4669Q26.8282 2.68042 26.8282 1.76733ZM32.3297 0.873432Q32.3144 0.574185 32.2262 0.290284Q32.1417 0.00638342 31.9614 -0.212297Q31.7811 -0.430977 31.5049 -0.572927Q31.2287 -0.714878 30.822 -0.714878Q30.4268 -0.714878 30.1429 -0.5806Q29.8629 -0.446323 29.6749 -0.227643Q29.4869 -0.00896263 29.3833 0.282611Q29.2797 0.574185 29.2337 0.873432L32.3297 0.873432Z"/>
	<path fill="white" transform="translate(55 79.2857)" d="M-25.9588 -5.05395L-25.9588 -2.96306L-29.2428 -2.96306L-29.2428 5.83786L-31.6943 5.83786L-31.6943 -2.96306L-34.9784 -2.96306L-34.9784 -5.05395L-25.9588 -5.05395ZM-24.5501 5.83786L-24.5501 -5.97855L-22.2098 -6.35453L-22.2098 -2.39526Q-21.9758 -2.47583 -21.6075 -2.54489Q-21.2354 -2.61778 -20.8901 -2.61778Q-19.8849 -2.61778 -19.2174 -2.34155Q-18.5498 -2.06532 -18.1508 -1.56274Q-17.748 -1.06016 -17.583 -0.369593Q-17.4181 0.320976 -17.4181 1.16884L-17.4181 5.83786L-19.7583 5.83786L-19.7583 1.45274Q-19.7583 0.320976 -20.0499 -0.147076Q-20.3415 -0.618965 -21.1241 -0.618965Q-21.4387 -0.618965 -21.7149 -0.565254Q-21.9912 -0.511543 -22.2098 -0.446323L-22.2098 5.83786L-24.5501 5.83786ZM-12.9607 5.83786L-15.3009 5.83786L-15.3009 -2.42595L-12.9607 -2.42595L-12.9607 5.83786ZM-12.742 -4.81609Q-12.742 -4.17156 -13.1602 -3.80326Q-13.5745 -3.43495 -14.1385 -3.43495Q-14.7063 -3.43495 -15.1244 -3.80326Q-15.5388 -4.17156 -15.5388 -4.81609Q-15.5388 -5.46062 -15.1244 -5.82893Q-14.7063 -6.20107 -14.1385 -6.20107Q-13.5745 -6.20107 -13.1602 -5.82893Q-12.742 -5.46062 -12.742 -4.81609ZM-5.78292 -0.354247Q-6.09752 -0.430977 -6.52337 -0.51538Q-6.94538 -0.603619 -7.43262 -0.603619Q-7.6513 -0.603619 -7.95822 -0.565254Q-8.26514 -0.526889 -8.42243 -0.480852L-8.42243 5.83786L-10.7627 5.83786L-10.7627 -1.98859Q-10.1335 -2.20727 -9.27797 -2.40294Q-8.42243 -2.60243 -7.37123 -2.60243Q-7.17941 -2.60243 -6.91469 -2.57558Q-6.64614 -2.55256 -6.38142 -2.51419Q-6.11286 -2.47583 -5.84814 -2.41828Q-5.57959 -2.36457 -5.38776 -2.28784L-5.78292 -0.354247ZM-2.14096 1.64073Q-2.14096 2.72646 -1.65373 3.38634Q-1.16649 4.04621 -0.207369 4.04621Q0.107224 4.04621 0.371942 4.02319Q0.640496 4.00018 0.813139 3.96948L0.813139 -0.289027Q0.594459 -0.430977 0.237664 -0.523053Q-0.115293 -0.618965 -0.475924 -0.618965Q-2.14096 -0.618965 -2.14096 1.64073ZM3.1534 5.5693Q2.83881 5.66521 2.4283 5.75345Q2.02164 5.83786 1.57276 5.89924Q1.12773 5.96446 0.663516 6.00283Q0.199299 6.04119 -0.222715 6.04119Q-1.24706 6.04119 -2.04889 5.74578Q-2.84688 5.44653 -3.39933 4.89024Q-3.94795 4.33011 -4.23953 3.53596Q-4.5311 2.7418 -4.5311 1.75199Q-4.5311 0.746827 -4.28173 -0.0626736Q-4.02852 -0.872174 -3.55663 -1.43614Q-3.08474 -2.00394 -2.40184 -2.30319Q-1.71511 -2.60243 -0.836555 -2.60243Q-0.349319 -2.60243 0.0343304 -2.50652Q0.421816 -2.41061 0.813139 -2.23797L0.813139 -5.97855L3.1534 -6.35453L3.1534 5.5693ZM9.27487 5.83786L9.27487 -5.05395L16.6294 -5.05395L16.6294 -2.99376L11.7264 -2.99376L11.7264 -0.856828L16.077 -0.856828L16.077 1.1535L11.7264 1.1535L11.7264 3.77766L16.9901 3.77766L16.9901 5.83786L9.27487 5.83786ZM25.9729 -2.42595Q25.2632 -0.0396543 24.492 2.05124Q23.7247 4.14213 22.8117 6.10641Q22.4817 6.81233 22.1518 7.30723Q21.8218 7.80214 21.4267 8.12441Q21.0354 8.44667 20.5405 8.5963Q20.0455 8.74592 19.3857 8.74592Q18.837 8.74592 18.3728 8.64233Q17.9086 8.54259 17.6094 8.41598L18.0199 6.54377Q18.3805 6.67038 18.6644 6.71641Q18.9483 6.76629 19.2629 6.76629Q19.8882 6.76629 20.2259 6.42868Q20.5673 6.09107 20.8013 5.49257Q19.9995 3.91961 19.1977 1.963Q18.3958 0.00638342 17.6899 -2.42595L20.1721 -2.42595Q20.3294 -1.81595 20.5405 -1.09853Q20.7553 -0.384939 20.9893 0.347832Q21.2272 1.07677 21.4689 1.76733Q21.7144 2.4579 21.9331 3.02571Q22.1364 2.4579 22.3551 1.76733Q22.5776 1.07677 22.7886 0.347832Q22.9996 -0.384939 23.1953 -1.09853Q23.3948 -1.81595 23.5521 -2.42595L25.9729 -2.42595ZM26.8282 1.76733Q26.8282 0.666261 27.1658 -0.158586Q27.5034 -0.983432 28.052 -1.53205Q28.6045 -2.08067 29.3181 -2.36457Q30.0355 -2.64847 30.7913 -2.64847Q32.5484 -2.64847 33.5689 -1.57042Q34.5933 -0.496197 34.5933 1.59469Q34.5933 1.79803 34.5779 2.04356Q34.5626 2.28526 34.5434 2.47325L29.2337 2.47325Q29.3104 3.19835 29.9089 3.6242Q30.5074 4.04621 31.5126 4.04621Q32.1571 4.04621 32.7748 3.93112Q33.3963 3.81219 33.7914 3.63954L34.106 5.53861Q33.918 5.63452 33.6035 5.73043Q33.2889 5.82251 32.9014 5.89157Q32.5177 5.96446 32.0765 6.0105Q31.6392 6.05654 31.198 6.05654Q30.0815 6.05654 29.2567 5.7266Q28.4319 5.39666 27.8871 4.82502Q27.3461 4.24955 27.0852 3.4669Q26.8282 2.68042 26.8282 1.76733ZM32.3297 0.873432Q32.3144 0.574185 32.2262 0.290284Q32.1417 0.00638342 31.9614 -0.212297Q31.7811 -0.430977 31.5049 -0.572927Q31.2287 -0.714878 30.822 -0.714878Q30.4268 -0.714878 30.1429 -0.5806Q29.8629 -0.446323 29.6749 -0.227643Q29.4869 -0.00896263 29.3833 0.282611Q29.2797 0.574185 29.2337 0.873432L32.3297 0.873432Z"/>
</svg>
