<?xml version="1.0" encoding="utf-8" ?>
<svg xmlns="http://www.w3.org/2000/svg" xmlns:xlink="http://www.w3.org/1999/xlink" width="110" height="110">
	<path fill="#39B54A" transform="matrix(0.77186 1.2021 -1.2021 0.77186 55 47.8571)" d="M0 0C25 0 -1.09278e-06 25 0 0ZM0 0C-1.09278e-06 25 -25 -2.18557e-06 0 0ZM0 0C-25 -2.18557e-06 2.98122e-07 -25 0 0ZM0 0C2.98122e-07 -25 25 4.37114e-06 0 0Z"/>
	<path fill="#2E933C" transform="matrix(0.77186 1.2021 -1.2021 0.77186 55 47.8571)" d="M0 -1Q9.00369 -1 11.4044 3.00113Q13.5639 6.60033 10.0821 10.0821Q6.60033 13.5639 3.00113 11.4044Q-0.999995 9.00369 -0.999992 -3.05176e-07Q-0.999993 -0.0984917 -0.980779 -0.195091Q-0.961565 -0.291689 -0.923875 -0.382684Q-0.886184 -0.473678 -0.831466 -0.55557Q-0.776748 -0.637463 -0.707104 -0.707107Q-0.637461 -0.776751 -0.555569 -0.83147Q-0.473677 -0.886188 -0.382683 -0.923879Q-0.291689 -0.961571 -0.19509 -0.980785Q-0.0984914 -1 0 -1ZM0 1L0 0L1.00001 3.05176e-07Q1 7.87131 4.03013 9.68938Q6.2903 11.0455 8.66789 8.66789Q11.0455 6.2903 9.68938 4.03012Q7.87131 1 0 1ZM1 4.37114e-08Q0.999999 9.00369 -3.00113 11.4044Q-6.60032 13.5639 -10.0821 10.0821Q-13.5639 6.60032 -11.4044 3.00112Q-9.00369 -1.00001 -3.27835e-06 -1.00001Q0.0984885 -1.00001 0.195088 -0.980791Q0.291687 -0.961576 0.382681 -0.923884Q0.473676 -0.886192 0.555569 -0.831473Q0.637462 -0.776753 0.707106 -0.707109Q0.77675 -0.637465 0.831469 -0.555571Q0.886188 -0.473678 0.923879 -0.382684Q0.96157 -0.291689 0.980785 -0.19509Q1 -0.0984913 1 4.37114e-08ZM-1 -4.37114e-08L0 0L-3.27835e-06 0.999992Q-7.87131 0.999992 -9.68938 4.03011Q-11.0455 6.29029 -8.66789 8.66789Q-6.2903 11.0455 -4.03012 9.68938Q-1 7.87131 -1 -4.37114e-08ZM-8.74228e-08 1Q-9.00369 0.999999 -11.4044 -3.00113Q-13.5639 -6.60033 -10.0821 -10.0821Q-6.60033 -13.5639 -3.00113 -11.4044Q1 -9.00369 1 1.07269e-06Q1 0.0984924 0.980785 0.195091Q0.96157 0.29169 0.923879 0.382684Q0.886188 0.473678 0.83147 0.555571Q0.776751 0.637463 0.707107 0.707107Q0.637463 0.776751 0.55557 0.83147Q0.473678 0.886189 0.382683 0.92388Q0.291689 0.961571 0.19509 0.980785Q0.0984914 1 -1.19249e-08 1L-8.74228e-08 1ZM8.74228e-08 -1L0 0L-1 1.07269e-06Q-1 -7.87131 -4.03012 -9.68938Q-6.2903 -11.0455 -8.66789 -8.66789Q-11.0455 -6.2903 -9.68938 -4.03012Q-7.87131 -1 8.74228e-08 -1ZM-1 -1.19249e-08Q-1 -9.00369 3.00113 -11.4044Q6.60033 -13.5639 10.0821 -10.0821Q13.5639 -6.60033 11.4044 -3.00113Q9.00369 1 5.8919e-07 1Q-0.0984909 1 -0.19509 0.980785Q-0.291689 0.96157 -0.382683 0.923879Q-0.473677 0.886188 -0.55557 0.831469Q-0.637463 0.776751 -0.707107 0.707107Q-0.776751 0.637463 -0.831469 0.55557Q-0.886188 0.473678 -0.923879 0.382683Q-0.961571 0.291689 -0.980785 0.19509Q-1 0.0984914 -1 -1.19249e-08L-1 -1.19249e-08ZM1 1.19249e-08L0 0L1.19954e-06 -1Q7.87131 -0.999997 9.68938 -4.03012Q11.0455 -6.29029 8.66789 -8.66789Q6.2903 -11.0455 4.03012 -9.68938Q1 -7.87131 1 1.19249e-08Z"/>
	<path fill="none" stroke="black" stroke-width="2.3999999" stroke-linejoin="round" transform="translate(55 79.2857)" d="M-23.35 7.70832Q-26.729 7.70832 -28.5014 5.82844Q-30.269 3.94855 -30.269 0.491523Q-30.269 -1.23211 -29.7319 -2.57977Q-29.1899 -3.9323 -28.2524 -4.86004Q-27.31 -5.78777 -26.0112 -6.26629Q-24.7123 -6.74969 -23.1889 -6.74969Q-22.31 -6.74969 -21.5922 -6.61785Q-20.8696 -6.4909 -20.3325 -6.32Q-19.7905 -6.1491 -19.4291 -5.96844Q-19.0678 -5.78777 -18.9116 -5.69012L-19.81 -3.17059Q-20.4497 -3.51238 -21.2993 -3.75164Q-22.1489 -3.9909 -23.228 -3.9909Q-23.9506 -3.9909 -24.6391 -3.75164Q-25.3276 -3.51238 -25.8598 -2.98016Q-26.392 -2.44793 -26.7143 -1.60809Q-27.0317 -0.768242 -27.0317 0.428047Q-27.0317 1.38996 -26.8217 2.22004Q-26.6118 3.05012 -26.143 3.6507Q-25.6694 4.25129 -24.9125 4.60285Q-24.1508 4.94953 -23.0717 4.94953Q-22.3881 4.94953 -21.851 4.87141Q-21.309 4.7884 -20.8891 4.68098Q-20.4692 4.56867 -20.1518 4.43195Q-19.8295 4.29035 -19.5707 4.16828L-18.7114 6.66828Q-19.3706 7.06867 -20.5717 7.39094Q-21.768 7.70832 -23.35 7.70832ZM-12.7094 7.6302Q-14.0082 7.61066 -14.8188 7.35187Q-15.6293 7.0882 -16.1029 6.61945Q-16.5717 6.1507 -16.7426 5.48176Q-16.9086 4.80793 -16.9086 3.96809L-16.9086 -7.60906L-13.9301 -8.08758L-13.9301 3.37238Q-13.9301 3.76789 -13.8715 4.09016Q-13.808 4.41242 -13.642 4.63215Q-13.4711 4.85187 -13.1537 4.99348Q-12.8315 5.1302 -12.2895 5.16926L-12.7094 7.6302ZM-0.749748 2.15168Q-0.749748 3.39191 -1.11108 4.42219Q-1.4724 5.44758 -2.15112 6.18Q-2.82983 6.91242 -3.78197 7.31281Q-4.72924 7.70832 -5.91088 7.70832Q-7.06811 7.70832 -8.02026 7.31281Q-8.9724 6.91242 -9.65112 6.18Q-10.3298 5.44758 -10.7107 4.42219Q-11.0915 3.39191 -11.0915 2.15168Q-11.0915 0.911445 -10.7009 -0.109063Q-10.3103 -1.12957 -9.62182 -1.84734Q-8.92846 -2.57 -7.98119 -2.97039Q-7.02905 -3.37078 -5.91088 -3.37078Q-4.7683 -3.37078 -3.82104 -2.97039Q-2.86889 -2.57 -2.19018 -1.84734Q-1.51147 -1.12957 -1.13061 -0.109063Q-0.749748 0.911445 -0.749748 2.15168ZM-3.79174 2.15168Q-3.79174 0.769844 -4.3435 -0.021172Q-4.89037 -0.812188 -5.91088 -0.812188Q-6.93139 -0.812188 -7.49291 -0.021172Q-8.04955 0.769844 -8.04955 2.15168Q-8.04955 3.52863 -7.49291 4.33918Q-6.93139 5.14973 -5.91088 5.14973Q-4.89037 5.14973 -4.3435 4.33918Q-3.79174 3.52863 -3.79174 2.15168ZM4.40781 7.43Q3.39219 5.42805 2.3375 2.75227Q1.2877 0.0716014 0.350197 -3.08758L3.50938 -3.08758Q3.70957 -2.31121 3.97813 -1.39813Q4.25156 -0.489922 4.53965 0.442695Q4.82774 1.37043 5.11582 2.24934Q5.40879 3.12824 5.69199 3.8509Q5.95078 3.12824 6.24863 2.24934Q6.55137 1.37043 6.83945 0.442695Q7.13242 -0.489922 7.40098 -1.39813Q7.66953 -2.31121 7.86973 -3.08758L10.9508 -3.08758Q10.0084 0.0716014 8.9586 2.75227Q7.90879 5.42805 6.88828 7.43L4.40781 7.43ZM12.0484 2.24934Q12.0484 0.847969 12.4781 -0.201836Q12.9078 -1.25164 13.606 -1.94988Q14.3092 -2.64813 15.2174 -3.00945Q16.1305 -3.37078 17.0924 -3.37078Q19.3287 -3.37078 20.6275 -1.99871Q21.9312 -0.631524 21.9312 2.02961Q21.9312 2.2884 21.9117 2.6009Q21.8922 2.90852 21.8678 3.14777L15.1099 3.14777Q15.2076 4.07062 15.9693 4.61262Q16.731 5.14973 18.0103 5.14973Q18.8307 5.14973 19.6168 5.00324Q20.4078 4.85187 20.9107 4.63215L21.3111 7.04914Q21.0719 7.17121 20.6715 7.29328Q20.2711 7.41047 19.7779 7.49836Q19.2896 7.59113 18.7281 7.64973Q18.1715 7.70832 17.6099 7.70832Q16.189 7.70832 15.1392 7.2884Q14.0894 6.86848 13.3961 6.14094Q12.7076 5.40852 12.3756 4.41242Q12.0484 3.41145 12.0484 2.24934ZM19.0504 1.11164Q19.0308 0.730781 18.9185 0.369453Q18.8111 0.00812483 18.5816 -0.270195Q18.3521 -0.548516 18.0006 -0.72918Q17.649 -0.909844 17.1314 -0.909844Q16.6285 -0.909844 16.2672 -0.738945Q15.9107 -0.568047 15.6715 -0.289727Q15.4322 -0.0114064 15.3004 0.359687Q15.1685 0.730781 15.1099 1.11164L19.0504 1.11164ZM30.5692 -0.45086Q30.1688 -0.548516 29.6269 -0.655938Q29.0897 -0.768242 28.4696 -0.768242Q28.1913 -0.768242 27.8007 -0.719414Q27.4101 -0.670586 27.2099 -0.611992L27.2099 7.43L24.2313 7.43L24.2313 -2.53094Q25.0321 -2.80926 26.121 -3.05828Q27.2099 -3.31219 28.5478 -3.31219Q28.7919 -3.31219 29.1288 -3.27801Q29.4706 -3.24871 29.8075 -3.19988Q30.1493 -3.15105 30.4862 -3.07781Q30.828 -3.00945 31.0722 -2.9118L30.5692 -0.45086Z"/>
	<path fill="white" transform="translate(55 79.2857)" d="M-23.35 7.70832Q-26.729 7.70832 -28.5014 5.82844Q-30.269 3.94855 -30.269 0.491523Q-30.269 -1.23211 -29.7319 -2.57977Q-29.1899 -3.9323 -28.2524 -4.86004Q-27.31 -5.78777 -26.0112 -6.26629Q-24.7123 -6.74969 -23.1889 -6.74969Q-22.31 -6.74969 -21.5922 -6.61785Q-20.8696 -6.4909 -20.3325 -6.32Q-19.7905 -6.1491 -19.4291 -5.96844Q-19.0678 -5.78777 -18.9116 -5.69012L-19.81 -3.17059Q-20.4497 -3.51238 -21.2993 -3.75164Q-22.1489 -3.9909 -23.228 -3.9909Q-23.9506 -3.9909 -24.6391 -3.75164Q-25.3276 -3.51238 -25.8598 -2.98016Q-26.392 -2.44793 -26.7143 -1.60809Q-27.0317 -0.768242 -27.0317 0.428047Q-27.0317 1.38996 -26.8217 2.22004Q-26.6118 3.05012 -26.143 3.6507Q-25.6694 4.25129 -24.9125 4.60285Q-24.1508 4.94953 -23.0717 4.94953Q-22.3881 4.94953 -21.851 4.87141Q-21.309 4.7884 -20.8891 4.68098Q-20.4692 4.56867 -20.1518 4.43195Q-19.8295 4.29035 -19.5707 4.16828L-18.7114 6.66828Q-19.3706 7.06867 -20.5717 7.39094Q-21.768 7.70832 -23.35 7.70832ZM-12.7094 7.6302Q-14.0082 7.61066 -14.8188 7.35187Q-15.6293 7.0882 -16.1029 6.61945Q-16.5717 6.1507 -16.7426 5.48176Q-16.9086 4.80793 -16.9086 3.96809L-16.9086 -7.60906L-13.9301 -8.08758L-13.9301 3.37238Q-13.9301 3.76789 -13.8715 4.09016Q-13.808 4.41242 -13.642 4.63215Q-13.4711 4.85187 -13.1537 4.99348Q-12.8315 5.1302 -12.2895 5.16926L-12.7094 7.6302ZM-0.749748 2.15168Q-0.749748 3.39191 -1.11108 4.42219Q-1.4724 5.44758 -2.15112 6.18Q-2.82983 6.91242 -3.78197 7.31281Q-4.72924 7.70832 -5.91088 7.70832Q-7.06811 7.70832 -8.02026 7.31281Q-8.9724 6.91242 -9.65112 6.18Q-10.3298 5.44758 -10.7107 4.42219Q-11.0915 3.39191 -11.0915 2.15168Q-11.0915 0.911445 -10.7009 -0.109063Q-10.3103 -1.12957 -9.62182 -1.84734Q-8.92846 -2.57 -7.98119 -2.97039Q-7.02905 -3.37078 -5.91088 -3.37078Q-4.7683 -3.37078 -3.82104 -2.97039Q-2.86889 -2.57 -2.19018 -1.84734Q-1.51147 -1.12957 -1.13061 -0.109063Q-0.749748 0.911445 -0.749748 2.15168ZM-3.79174 2.15168Q-3.79174 0.769844 -4.3435 -0.021172Q-4.89037 -0.812188 -5.91088 -0.812188Q-6.93139 -0.812188 -7.49291 -0.021172Q-8.04955 0.769844 -8.04955 2.15168Q-8.04955 3.52863 -7.49291 4.33918Q-6.93139 5.14973 -5.91088 5.14973Q-4.89037 5.14973 -4.3435 4.33918Q-3.79174 3.52863 -3.79174 2.15168ZM4.40781 7.43Q3.39219 5.42805 2.3375 2.75227Q1.2877 0.0716014 0.350197 -3.08758L3.50938 -3.08758Q3.70957 -2.31121 3.97813 -1.39813Q4.25156 -0.489922 4.53965 0.442695Q4.82774 1.37043 5.11582 2.24934Q5.40879 3.12824 5.69199 3.8509Q5.95078 3.12824 6.24863 2.24934Q6.55137 1.37043 6.83945 0.442695Q7.13242 -0.489922 7.40098 -1.39813Q7.66953 -2.31121 7.86973 -3.08758L10.9508 -3.08758Q10.0084 0.0716014 8.9586 2.75227Q7.90879 5.42805 6.88828 7.43L4.40781 7.43ZM12.0484 2.24934Q12.0484 0.847969 12.4781 -0.201836Q12.9078 -1.25164 13.606 -1.94988Q14.3092 -2.64813 15.2174 -3.00945Q16.1305 -3.37078 17.0924 -3.37078Q19.3287 -3.37078 20.6275 -1.99871Q21.9312 -0.631524 21.9312 2.02961Q21.9312 2.2884 21.9117 2.6009Q21.8922 2.90852 21.8678 3.14777L15.1099 3.14777Q15.2076 4.07062 15.9693 4.61262Q16.731 5.14973 18.0103 5.14973Q18.8307 5.14973 19.6168 5.00324Q20.4078 4.85187 20.9107 4.63215L21.3111 7.04914Q21.0719 7.17121 20.6715 7.29328Q20.2711 7.41047 19.7779 7.49836Q19.2896 7.59113 18.7281 7.64973Q18.1715 7.70832 17.6099 7.70832Q16.189 7.70832 15.1392 7.2884Q14.0894 6.86848 13.3961 6.14094Q12.7076 5.40852 12.3756 4.41242Q12.0484 3.41145 12.0484 2.24934ZM19.0504 1.11164Q19.0308 0.730781 18.9185 0.369453Q18.8111 0.00812483 18.5816 -0.270195Q18.3521 -0.548516 18.0006 -0.72918Q17.649 -0.909844 17.1314 -0.909844Q16.6285 -0.909844 16.2672 -0.738945Q15.9107 -0.568047 15.6715 -0.289727Q15.4322 -0.0114064 15.3004 0.359687Q15.1685 0.730781 15.1099 1.11164L19.0504 1.11164ZM30.5692 -0.45086Q30.1688 -0.548516 29.6269 -0.655938Q29.0897 -0.768242 28.4696 -0.768242Q28.1913 -0.768242 27.8007 -0.719414Q27.4101 -0.670586 27.2099 -0.611992L27.2099 7.43L24.2313 7.43L24.2313 -2.53094Q25.0321 -2.80926 26.121 -3.05828Q27.2099 -3.31219 28.5478 -3.31219Q28.7919 -3.31219 29.1288 -3.27801Q29.4706 -3.24871 29.8075 -3.19988Q30.1493 -3.15105 30.4862 -3.07781Q30.828 -3.00945 31.0722 -2.9118L30.5692 -0.45086Z"/>
</svg>
