<?xml version="1.0" encoding="utf-8" ?>
<svg xmlns="http://www.w3.org/2000/svg" xmlns:xlink="http://www.w3.org/1999/xlink" width="110" height="110">
	<path fill="#EEE" transform="matrix(1.42857 0 0 1.42857 55 47.8571)" d="M4.04049 -2.96501Q4.04049 -2.7685 4.02123 -2.57294Q4.00197 -2.37738 3.96363 -2.18465Q3.92529 -1.99191 3.86825 -1.80387Q3.81121 -1.61582 3.73601 -1.43427Q3.66081 -1.25272 3.56817 -1.07942Q3.47554 -0.906116 3.36637 -0.742726Q3.25719 -0.579336 3.13253 -0.427434Q3.00787 -0.275531 2.86892 -0.13658Q2.72996 0.00237204 2.57806 0.127035Q2.42616 0.251698 2.26277 0.360872Q2.09938 0.470045 1.92607 0.562678Q1.75277 0.655311 1.57122 0.730511Q1.38967 0.805711 1.20163 0.862754Q1.01358 0.919798 0.820849 0.958134Q0.628118 0.996471 0.432557 1.01573Q0.236996 1.03499 0.0404881 1.03499Q-0.156019 1.03499 -0.35158 1.01573Q-0.547142 0.996471 -0.739873 0.958134Q-0.932605 0.919798 -1.12065 0.862754Q-1.3087 0.805711 -1.49025 0.730511Q-1.67179 0.655311 -1.8451 0.562678Q-2.0184 0.470045 -2.18179 0.360872Q-2.34518 0.251698 -2.49709 0.127035Q-2.64899 0.00237201 -2.78794 -0.13658Q-2.92689 -0.275531 -3.05155 -0.427434Q-3.17622 -0.579336 -3.28539 -0.742726Q-3.39456 -0.906116 -3.4872 -1.07942Q-3.57983 -1.25272 -3.65503 -1.43427Q-3.73023 -1.61582 -3.78727 -1.80387Q-3.84432 -1.99191 -3.88265 -2.18465Q-3.92099 -2.37738 -3.94025 -2.57294Q-3.95951 -2.7685 -3.95951 -2.96501Q-3.95951 -3.16151 -3.94025 -3.35708Q-3.92099 -3.55264 -3.88265 -3.74537Q-3.84432 -3.9381 -3.78727 -4.12615Q-3.73023 -4.31419 -3.65503 -4.49574Q-3.57983 -4.67729 -3.4872 -4.85059Q-3.39456 -5.0239 -3.28539 -5.18729Q-3.17622 -5.35068 -3.05155 -5.50258Q-2.92689 -5.65448 -2.78794 -5.79343Q-2.64899 -5.93239 -2.49709 -6.05705Q-2.34518 -6.18171 -2.18179 -6.29088Q-2.0184 -6.40006 -1.8451 -6.49269Q-1.67179 -6.58532 -1.49025 -6.66052Q-1.3087 -6.73572 -1.12065 -6.79277Q-0.932605 -6.84981 -0.739873 -6.88815Q-0.547142 -6.92648 -0.35158 -6.94575Q-0.156019 -6.96501 0.0404881 -6.96501Q0.236996 -6.96501 0.432557 -6.94575Q0.628118 -6.92648 0.820849 -6.88815Q1.01358 -6.84981 1.20163 -6.79277Q1.38967 -6.73572 1.57122 -6.66052Q1.75277 -6.58532 1.92607 -6.49269Q2.09938 -6.40006 2.26277 -6.29088Q2.42616 -6.18171 2.57806 -6.05705Q2.72996 -5.93239 2.86892 -5.79343Q3.00787 -5.65448 3.13253 -5.50258Q3.25719 -5.35068 3.36637 -5.18729Q3.47554 -5.0239 3.56817 -4.85059Q3.66081 -4.67729 3.73601 -4.49574Q3.81121 -4.31419 3.86825 -4.12615Q3.92529 -3.9381 3.96363 -3.74537Q4.00197 -3.55264 4.02123 -3.35708Q4.04049 -3.16151 4.04049 -2.96501"/>
	<path fill="#EEE" transform="matrix(1.42857 0 0 1.42857 55 47.8571)" d="M8.30403 7.94707Q8.30403 8.14358 8.28477 8.33914Q8.26551 8.5347 8.22717 8.72743Q8.18883 8.92016 8.13179 9.10821Q8.07475 9.29626 7.99955 9.47781Q7.92435 9.65936 7.83171 9.83266Q7.73908 10.006 7.62991 10.1694Q7.52073 10.3327 7.39607 10.4846Q7.27141 10.6365 7.13246 10.7755Q6.9935 10.9144 6.8416 11.0391Q6.6897 11.1638 6.52631 11.2729Q6.36292 11.3821 6.18962 11.4748Q6.01631 11.5674 5.83476 11.6426Q5.65321 11.7178 5.46517 11.7748Q5.27712 11.8319 5.08439 11.8702Q4.89166 11.9086 4.6961 11.9278Q4.50054 11.9471 4.30403 11.9471Q4.10752 11.9471 3.91196 11.9278Q3.7164 11.9085 3.52367 11.8702Q3.33094 11.8319 3.14289 11.7748Q2.95484 11.7178 2.77329 11.6426Q2.59175 11.5674 2.41844 11.4748Q2.24514 11.3821 2.08175 11.2729Q1.91836 11.1638 1.76646 11.0391Q1.61455 10.9144 1.4756 10.7755Q1.33665 10.6365 1.21199 10.4846Q1.08732 10.3327 0.97815 10.1694Q0.868976 10.006 0.776343 9.83266Q0.68371 9.65935 0.60851 9.4778Q0.53331 9.29626 0.476267 9.10821Q0.419224 8.92016 0.380887 8.72743Q0.342551 8.5347 0.32329 8.33914Q0.304029 8.14358 0.304029 7.94707Q0.304029 7.75057 0.32329 7.555Q0.342551 7.35944 0.380887 7.16671Q0.419224 6.97398 0.476267 6.78593Q0.53331 6.59789 0.60851 6.41634Q0.68371 6.23479 0.776343 6.06148Q0.868976 5.88818 0.97815 5.72479Q1.08732 5.5614 1.21199 5.4095Q1.33665 5.2576 1.4756 5.11864Q1.61455 4.97969 1.76646 4.85503Q1.91836 4.73037 2.08175 4.62119Q2.24514 4.51202 2.41844 4.41939Q2.59175 4.32675 2.77329 4.25155Q2.95484 4.17635 3.14289 4.11931Q3.33094 4.06227 3.52367 4.02393Q3.7164 3.98559 3.91196 3.96633Q4.10752 3.94707 4.30403 3.94707Q4.50054 3.94707 4.6961 3.96633Q4.89166 3.98559 5.08439 4.02393Q5.27712 4.06227 5.46517 4.11931Q5.65321 4.17635 5.83476 4.25155Q6.01631 4.32675 6.18961 4.41939Q6.36292 4.51202 6.52631 4.62119Q6.6897 4.73037 6.8416 4.85503Q6.9935 4.97969 7.13245 5.11864Q7.27141 5.2576 7.39607 5.4095Q7.52073 5.5614 7.62991 5.72479Q7.73908 5.88818 7.83171 6.06148Q7.92435 6.23479 7.99955 6.41634Q8.07475 6.59789 8.13179 6.78593Q8.18883 6.97398 8.22717 7.16671Q8.26551 7.35944 8.28477 7.555Q8.30403 7.75057 8.30403 7.94707"/>
	<path fill="#EEE" transform="matrix(1.42857 0 0 1.42857 55 47.8571)" d="M4.77385 4.70278Q4.77385 4.89929 4.75459 5.09485Q4.73533 5.29041 4.697 5.48314Q4.65866 5.67587 4.60162 5.86392Q4.54457 6.05197 4.46937 6.23351Q4.39417 6.41506 4.30154 6.58837Q4.20891 6.76167 4.09973 6.92506Q3.99056 7.08845 3.8659 7.24035Q3.74123 7.39226 3.60228 7.53121Q3.46333 7.67016 3.31143 7.79482Q3.15953 7.91949 2.99613 8.02866Q2.83275 8.13783 2.65944 8.23047Q2.48614 8.3231 2.30459 8.3983Q2.12304 8.4735 1.93499 8.53054Q1.74695 8.58759 1.55422 8.62592Q1.36148 8.66426 1.16592 8.68352Q0.970362 8.70278 0.773854 8.70278Q0.577347 8.70278 0.381786 8.68352Q0.186224 8.66426 -0.0065071 8.62592Q-0.199239 8.58759 -0.387284 8.53054Q-0.57533 8.4735 -0.756879 8.3983Q-0.938429 8.3231 -1.11173 8.23047Q-1.28504 8.13783 -1.44843 8.02866Q-1.61182 7.91949 -1.76372 7.79482Q-1.91562 7.67016 -2.05457 7.53121Q-2.19352 7.39226 -2.31819 7.24035Q-2.44285 7.08845 -2.55202 6.92506Q-2.6612 6.76167 -2.75383 6.58837Q-2.84646 6.41506 -2.92166 6.23351Q-2.99686 6.05197 -3.05391 5.86392Q-3.11095 5.67587 -3.14929 5.48314Q-3.18762 5.29041 -3.20688 5.09485Q-3.22615 4.89929 -3.22615 4.70278Q-3.22615 4.50627 -3.20688 4.31071Q-3.18762 4.11515 -3.14929 3.92242Q-3.11095 3.72969 -3.05391 3.54164Q-2.99686 3.3536 -2.92166 3.17205Q-2.84646 2.9905 -2.75383 2.81719Q-2.6612 2.64389 -2.55202 2.4805Q-2.44285 2.31711 -2.31819 2.16521Q-2.19352 2.01331 -2.05457 1.87435Q-1.91562 1.7354 -1.76372 1.61074Q-1.61182 1.48608 -1.44843 1.3769Q-1.28504 1.26773 -1.11173 1.1751Q-0.938429 1.08246 -0.756879 1.00726Q-0.57533 0.932063 -0.387284 0.87502Q-0.199239 0.817977 -0.00650711 0.779641Q0.186224 0.741304 0.381786 0.722043Q0.577347 0.702782 0.773854 0.702782Q0.970362 0.702782 1.16592 0.722043Q1.36148 0.741304 1.55422 0.779641Q1.74695 0.817977 1.93499 0.87502Q2.12304 0.932063 2.30459 1.00726Q2.48614 1.08246 2.65944 1.1751Q2.83275 1.26773 2.99613 1.3769Q3.15952 1.48608 3.31143 1.61074Q3.46333 1.7354 3.60228 1.87435Q3.74123 2.01331 3.8659 2.16521Q3.99056 2.31711 4.09973 2.4805Q4.20891 2.64389 4.30154 2.81719Q4.39417 2.9905 4.46937 3.17205Q4.54457 3.3536 4.60162 3.54164Q4.65866 3.72969 4.697 3.92242Q4.73533 4.11515 4.75459 4.31071Q4.77385 4.50627 4.77385 4.70278"/>
	<path fill="#EEE" transform="matrix(1.42857 0 0 1.42857 55 47.8571)" d="M4.57072 2.73973Q4.57072 2.93623 4.55146 3.13179Q4.5322 3.32735 4.49386 3.52009Q4.45552 3.71282 4.39848 3.90086Q4.34144 4.08891 4.26624 4.27046Q4.19104 4.45201 4.0984 4.62531Q4.00577 4.79862 3.8966 4.96201Q3.78742 5.1254 3.66276 5.2773Q3.5381 5.4292 3.39915 5.56815Q3.2602 5.7071 3.10829 5.83177Q2.95639 5.95643 2.793 6.0656Q2.62961 6.17478 2.45631 6.26741Q2.283 6.36004 2.10145 6.43524Q1.9199 6.51044 1.73186 6.56749Q1.54381 6.62453 1.35108 6.66287Q1.15835 6.7012 0.962788 6.72046Q0.767227 6.73973 0.57072 6.73973Q0.374212 6.73973 0.178651 6.72046Q-0.0169099 6.7012 -0.209641 6.66287Q-0.402373 6.62453 -0.590419 6.56749Q-0.778465 6.51044 -0.960014 6.43524Q-1.14156 6.36004 -1.31487 6.26741Q-1.48817 6.17478 -1.65156 6.0656Q-1.81495 5.95643 -1.96685 5.83177Q-2.11876 5.7071 -2.25771 5.56815Q-2.39666 5.4292 -2.52132 5.2773Q-2.64598 5.1254 -2.75516 4.96201Q-2.86433 4.79862 -2.95696 4.62531Q-3.0496 4.45201 -3.1248 4.27046Q-3.2 4.08891 -3.25704 3.90086Q-3.31408 3.71282 -3.35242 3.52009Q-3.39076 3.32735 -3.41002 3.13179Q-3.42928 2.93623 -3.42928 2.73973Q-3.42928 2.54322 -3.41002 2.34766Q-3.39076 2.1521 -3.35242 1.95936Q-3.31408 1.76663 -3.25704 1.57859Q-3.2 1.39054 -3.1248 1.20899Q-3.0496 1.02744 -2.95696 0.854138Q-2.86433 0.680834 -2.75516 0.517444Q-2.64598 0.354054 -2.52132 0.202152Q-2.39666 0.0502497 -2.25771 -0.088702Q-2.11876 -0.227654 -1.96685 -0.352317Q-1.81495 -0.47698 -1.65156 -0.586153Q-1.48817 -0.695327 -1.31487 -0.78796Q-1.14156 -0.880593 -0.960014 -0.955793Q-0.778465 -1.03099 -0.590419 -1.08804Q-0.402373 -1.14508 -0.209641 -1.18342Q-0.0169099 -1.22175 0.178651 -1.24101Q0.374212 -1.26027 0.57072 -1.26027Q0.767227 -1.26027 0.962788 -1.24101Q1.15835 -1.22175 1.35108 -1.18342Q1.54381 -1.14508 1.73186 -1.08804Q1.9199 -1.03099 2.10145 -0.955793Q2.283 -0.880593 2.45631 -0.78796Q2.62961 -0.695327 2.793 -0.586153Q2.95639 -0.47698 3.10829 -0.352317Q3.2602 -0.227654 3.39915 -0.088702Q3.5381 0.0502497 3.66276 0.202152Q3.78742 0.354054 3.8966 0.517444Q4.00577 0.680834 4.0984 0.854138Q4.19104 1.02744 4.26624 1.20899Q4.34144 1.39054 4.39848 1.57859Q4.45552 1.76663 4.49386 1.95936Q4.5322 2.1521 4.55146 2.34766Q4.57072 2.54322 4.57072 2.73973"/>
	<path fill="#EEE" transform="matrix(1.42857 0 0 1.42857 55 47.8571)" d="M3.1082 0.0033673Q3.1082 0.199875 3.08894 0.395436Q3.06968 0.590997 3.03134 0.783729Q2.993 0.97646 2.93596 1.16451Q2.87892 1.35255 2.80372 1.5341Q2.72852 1.71565 2.63588 1.88895Q2.54325 2.06226 2.43408 2.22565Q2.3249 2.38904 2.20024 2.54094Q2.07558 2.69284 1.93663 2.83179Q1.79767 2.97075 1.64577 3.09541Q1.49387 3.22007 1.33048 3.32925Q1.16709 3.43842 0.993786 3.53105Q0.820482 3.62369 0.638932 3.69888Q0.457383 3.77409 0.269337 3.83113Q0.0812915 3.88817 -0.11144 3.92651Q-0.304172 3.96485 -0.499733 3.98411Q-0.695294 4.00337 -0.891801 4.00337Q-1.08831 4.00337 -1.28387 3.98411Q-1.47943 3.96485 -1.67216 3.92651Q-1.86489 3.88817 -2.05294 3.83113Q-2.24099 3.77409 -2.42253 3.69889Q-2.60408 3.62369 -2.77739 3.53105Q-2.95069 3.43842 -3.11408 3.32925Q-3.27747 3.22007 -3.42937 3.09541Q-3.58128 2.97075 -3.72023 2.83179Q-3.85918 2.69284 -3.98384 2.54094Q-4.10851 2.38904 -4.21768 2.22565Q-4.32685 2.06226 -4.41949 1.88895Q-4.51212 1.71565 -4.58732 1.5341Q-4.66252 1.35255 -4.71956 1.16451Q-4.77661 0.97646 -4.81494 0.783729Q-4.85328 0.590997 -4.87254 0.395436Q-4.8918 0.199875 -4.8918 0.0033673Q-4.8918 -0.19314 -4.87254 -0.388701Q-4.85328 -0.584262 -4.81494 -0.776994Q-4.77661 -0.969725 -4.71956 -1.15777Q-4.66252 -1.34582 -4.58732 -1.52737Q-4.51212 -1.70892 -4.41949 -1.88222Q-4.32685 -2.05552 -4.21768 -2.21891Q-4.10851 -2.3823 -3.98384 -2.53421Q-3.85918 -2.68611 -3.72023 -2.82506Q-3.58128 -2.96401 -3.42937 -3.08867Q-3.27747 -3.21334 -3.11408 -3.32251Q-2.95069 -3.43168 -2.77739 -3.52432Q-2.60408 -3.61695 -2.42253 -3.69215Q-2.24099 -3.76735 -2.05294 -3.82439Q-1.86489 -3.88144 -1.67216 -3.91977Q-1.47943 -3.95811 -1.28387 -3.97737Q-1.08831 -3.99663 -0.891801 -3.99663Q-0.695294 -3.99663 -0.499733 -3.97737Q-0.304172 -3.95811 -0.11144 -3.91977Q0.0812914 -3.88144 0.269337 -3.82439Q0.457383 -3.76735 0.638932 -3.69215Q0.820481 -3.61695 0.993786 -3.52432Q1.16709 -3.43168 1.33048 -3.32251Q1.49387 -3.21334 1.64577 -3.08867Q1.79767 -2.96401 1.93663 -2.82506Q2.07558 -2.68611 2.20024 -2.53421Q2.3249 -2.3823 2.43408 -2.21891Q2.54325 -2.05552 2.63588 -1.88222Q2.72852 -1.70892 2.80372 -1.52737Q2.87892 -1.34582 2.93596 -1.15777Q2.993 -0.969725 3.03134 -0.776994Q3.06968 -0.584262 3.08894 -0.388701Q3.1082 -0.19314 3.1082 0.0033673"/>
	<path fill="#EEE" transform="matrix(1.42857 0 0 1.42857 55 47.8571)" d="M2.10833 1.91202Q2.10833 2.10852 2.08907 2.30408Q2.06981 2.49965 2.03147 2.69238Q1.99313 2.88511 1.93609 3.07315Q1.87905 3.2612 1.80385 3.44275Q1.72865 3.6243 1.63601 3.7976Q1.54338 3.97091 1.43421 4.1343Q1.32503 4.29769 1.20037 4.44959Q1.07571 4.60149 0.936754 4.74044Q0.797803 4.87939 0.6459 5.00406Q0.493998 5.12872 0.330608 5.23789Q0.167218 5.34707 -0.00608571 5.4397Q-0.17939 5.53233 -0.360939 5.60753Q-0.542488 5.68273 -0.730534 5.73978Q-0.91858 5.79682 -1.11131 5.83516Q-1.30404 5.87349 -1.4996 5.89276Q-1.69517 5.91202 -1.89167 5.91202Q-2.08818 5.91202 -2.28374 5.89276Q-2.4793 5.87349 -2.67203 5.83516Q-2.86477 5.79682 -3.05281 5.73978Q-3.24086 5.68273 -3.42241 5.60753Q-3.60396 5.53233 -3.77726 5.4397Q-3.95056 5.34707 -4.11395 5.23789Q-4.27734 5.12872 -4.42925 5.00406Q-4.58115 4.8794 -4.7201 4.74044Q-4.85905 4.60149 -4.98371 4.44959Q-5.10838 4.29769 -5.21755 4.1343Q-5.32672 3.97091 -5.41936 3.7976Q-5.51199 3.6243 -5.58719 3.44275Q-5.66239 3.2612 -5.71943 3.07315Q-5.77648 2.88511 -5.81481 2.69238Q-5.85315 2.49965 -5.87241 2.30408Q-5.89167 2.10852 -5.89167 1.91202Q-5.89167 1.71551 -5.87241 1.51995Q-5.85315 1.32439 -5.81481 1.13165Q-5.77648 0.938923 -5.71943 0.750877Q-5.66239 0.562831 -5.58719 0.381282Q-5.51199 0.199733 -5.41936 0.026429Q-5.32672 -0.146875 -5.21755 -0.310265Q-5.10838 -0.473655 -4.98371 -0.625557Q-4.85905 -0.77746 -4.7201 -0.916411Q-4.58115 -1.05536 -4.42925 -1.18003Q-4.27734 -1.30469 -4.11395 -1.41386Q-3.95056 -1.52304 -3.77726 -1.61567Q-3.60396 -1.7083 -3.42241 -1.7835Q-3.24086 -1.8587 -3.05281 -1.91575Q-2.86477 -1.97279 -2.67203 -2.01113Q-2.4793 -2.04946 -2.28374 -2.06872Q-2.08818 -2.08798 -1.89167 -2.08798Q-1.69517 -2.08798 -1.4996 -2.06872Q-1.30404 -2.04946 -1.11131 -2.01113Q-0.91858 -1.97279 -0.730534 -1.91575Q-0.542488 -1.8587 -0.360939 -1.7835Q-0.17939 -1.7083 -0.00608572 -1.61567Q0.167218 -1.52304 0.330608 -1.41386Q0.493998 -1.30469 0.6459 -1.18003Q0.797803 -1.05536 0.936754 -0.916411Q1.07571 -0.777459 1.20037 -0.625557Q1.32503 -0.473655 1.43421 -0.310265Q1.54338 -0.146875 1.63601 0.026429Q1.72865 0.199733 1.80385 0.381282Q1.87905 0.562831 1.93609 0.750877Q1.99313 0.938923 2.03147 1.13165Q2.06981 1.32439 2.08907 1.51995Q2.10833 1.71551 2.10833 1.91202"/>
	<path fill="#EEE" transform="matrix(1.42857 0 0 1.42857 55 47.8571)" d="M10.8672 -3.64711Q10.8672 -3.4506 10.848 -3.25504Q10.8287 -3.05948 10.7904 -2.86674Q10.752 -2.67401 10.695 -2.48597Q10.6379 -2.29792 10.5627 -2.11637Q10.4875 -1.93482 10.3949 -1.76152Q10.3023 -1.58821 10.1931 -1.42482Q10.0839 -1.26143 9.95926 -1.10953Q9.8346 -0.95763 9.69565 -0.818678Q9.5567 -0.679726 9.40479 -0.555063Q9.25289 -0.4304 9.0895 -0.321227Q8.92611 -0.212053 8.75281 -0.11942Q8.5795 -0.0267872 8.39795 0.0484129Q8.21641 0.123613 8.02836 0.180656Q7.84031 0.237699 7.64758 0.276036Q7.45485 0.314373 7.25929 0.333634Q7.06373 0.352895 6.86722 0.352895Q6.67071 0.352895 6.47515 0.333634Q6.27959 0.314373 6.08686 0.276036Q5.89413 0.237699 5.70608 0.180656Q5.51804 0.123613 5.33649 0.0484129Q5.15494 -0.0267872 4.98163 -0.11942Q4.80833 -0.212053 4.64494 -0.321227Q4.48155 -0.4304 4.32965 -0.555063Q4.17775 -0.679726 4.03879 -0.818678Q3.89984 -0.95763 3.77518 -1.10953Q3.65052 -1.26143 3.54134 -1.42482Q3.43217 -1.58821 3.33954 -1.76152Q3.2469 -1.93482 3.1717 -2.11637Q3.0965 -2.29792 3.03946 -2.48597Q2.98242 -2.67401 2.94408 -2.86674Q2.90574 -3.05948 2.88648 -3.25504Q2.86722 -3.4506 2.86722 -3.64711Q2.86722 -3.84361 2.88648 -4.03917Q2.90574 -4.23473 2.94408 -4.42747Q2.98242 -4.6202 3.03946 -4.80824Q3.0965 -4.99629 3.1717 -5.17784Q3.2469 -5.35939 3.33954 -5.53269Q3.43217 -5.706 3.54134 -5.86939Q3.65052 -6.03278 3.77518 -6.18468Q3.89984 -6.33658 4.03879 -6.47553Q4.17775 -6.61448 4.32965 -6.73915Q4.48155 -6.86381 4.64494 -6.97298Q4.80833 -7.08216 4.98163 -7.17479Q5.15494 -7.26742 5.33649 -7.34262Q5.51804 -7.41782 5.70608 -7.47487Q5.89413 -7.53191 6.08686 -7.57025Q6.27959 -7.60858 6.47515 -7.62784Q6.67071 -7.64711 6.86722 -7.64711Q7.06373 -7.64711 7.25929 -7.62784Q7.45485 -7.60858 7.64758 -7.57025Q7.84031 -7.53191 8.02836 -7.47487Q8.2164 -7.41782 8.39795 -7.34262Q8.5795 -7.26742 8.75281 -7.17479Q8.92611 -7.08216 9.0895 -6.97298Q9.25289 -6.86381 9.40479 -6.73915Q9.5567 -6.61448 9.69565 -6.47553Q9.8346 -6.33658 9.95926 -6.18468Q10.0839 -6.03278 10.1931 -5.86939Q10.3023 -5.706 10.3949 -5.53269Q10.4875 -5.35939 10.5627 -5.17784Q10.6379 -4.99629 10.695 -4.80824Q10.752 -4.6202 10.7904 -4.42747Q10.8287 -4.23473 10.848 -4.03917Q10.8672 -3.84361 10.8672 -3.64711"/>
	<path fill="#EEE" transform="matrix(1.42857 0 0 1.42857 55 47.8571)" d="M8.73978 4.05805Q8.73978 4.25455 8.72052 4.45012Q8.70125 4.64568 8.66292 4.83841Q8.62458 5.03114 8.56754 5.21919Q8.5105 5.40723 8.43529 5.58878Q8.36009 5.77033 8.26746 5.94363Q8.17483 6.11694 8.06565 6.28033Q7.95648 6.44372 7.83182 6.59562Q7.70716 6.74752 7.5682 6.88647Q7.42925 7.02543 7.27735 7.15009Q7.12545 7.27475 6.96206 7.38392Q6.79867 7.4931 6.62536 7.58573Q6.45206 7.67836 6.27051 7.75356Q6.08896 7.82877 5.90092 7.88581Q5.71287 7.94285 5.52014 7.98119Q5.32741 8.01952 5.13185 8.03879Q4.93628 8.05805 4.73978 8.05805Q4.54327 8.05805 4.34771 8.03879Q4.15215 8.01952 3.95941 7.98119Q3.76668 7.94285 3.57864 7.88581Q3.39059 7.82876 3.20904 7.75356Q3.02749 7.67836 2.85419 7.58573Q2.68089 7.4931 2.5175 7.38393Q2.35411 7.27475 2.2022 7.15009Q2.0503 7.02543 1.91135 6.88647Q1.7724 6.74752 1.64773 6.59562Q1.52307 6.44372 1.4139 6.28033Q1.30472 6.11694 1.21209 5.94363Q1.11946 5.77033 1.04426 5.58878Q0.969059 5.40723 0.912015 5.21919Q0.854972 5.03114 0.816636 4.83841Q0.778299 4.64568 0.759038 4.45012Q0.739777 4.25455 0.739777 4.05805Q0.739777 3.86154 0.759038 3.66598Q0.778299 3.47042 0.816636 3.27769Q0.854972 3.08495 0.912015 2.89691Q0.969059 2.70886 1.04426 2.52731Q1.11946 2.34576 1.21209 2.17246Q1.30472 1.99916 1.4139 1.83577Q1.52307 1.67238 1.64773 1.52047Q1.7724 1.36857 1.91135 1.22962Q2.0503 1.09067 2.2022 0.966005Q2.35411 0.841342 2.5175 0.732169Q2.68089 0.622995 2.85419 0.530362Q3.02749 0.437729 3.20904 0.362529Q3.39059 0.287329 3.57864 0.230286Q3.76668 0.173243 3.95941 0.134906Q4.15215 0.0965695 4.34771 0.0773084Q4.54327 0.0580473 4.73978 0.0580473Q4.93628 0.0580473 5.13185 0.0773084Q5.32741 0.0965695 5.52014 0.134906Q5.71287 0.173243 5.90092 0.230286Q6.08896 0.287329 6.27051 0.362529Q6.45206 0.437729 6.62536 0.530362Q6.79867 0.622995 6.96206 0.732169Q7.12545 0.841342 7.27735 0.966005Q7.42925 1.09067 7.5682 1.22962Q7.70716 1.36857 7.83182 1.52047Q7.95648 1.67238 8.06565 1.83577Q8.17483 1.99916 8.26746 2.17246Q8.36009 2.34576 8.43529 2.52731Q8.5105 2.70886 8.56754 2.89691Q8.62458 3.08495 8.66292 3.27769Q8.70126 3.47042 8.72052 3.66598Q8.73978 3.86154 8.73978 4.05805"/>
	<path fill="#EEE" transform="matrix(1.42857 0 0 1.42857 55 47.8571)" d="M1.135 -4.20112Q1.135 -4.00461 1.11574 -3.80905Q1.09648 -3.61349 1.05814 -3.42076Q1.01981 -3.22803 0.962762 -3.03998Q0.905719 -2.85194 0.830519 -2.67039Q0.755319 -2.48884 0.662686 -2.31554Q0.570053 -2.14223 0.460879 -1.97884Q0.351706 -1.81545 0.227043 -1.66355Q0.10238 -1.51165 -0.0365722 -1.3727Q-0.175524 -1.23374 -0.327426 -1.10908Q-0.479328 -0.984418 -0.642718 -0.875244Q-0.806108 -0.76607 -0.979412 -0.673437Q-1.15272 -0.580804 -1.33427 -0.505604Q-1.51581 -0.430404 -1.70386 -0.373361Q-1.89191 -0.316318 -2.08464 -0.277981Q-2.27737 -0.239644 -2.47293 -0.220383Q-2.66849 -0.201122 -2.865 -0.201122Q-3.06151 -0.201122 -3.25707 -0.220383Q-3.45263 -0.239644 -3.64536 -0.277981Q-3.83809 -0.316318 -4.02614 -0.373361Q-4.21418 -0.430404 -4.39573 -0.505604Q-4.57728 -0.580804 -4.75059 -0.673437Q-4.92389 -0.76607 -5.08728 -0.875244Q-5.25067 -0.984417 -5.40257 -1.10908Q-5.55447 -1.23374 -5.69343 -1.3727Q-5.83238 -1.51165 -5.95704 -1.66355Q-6.0817 -1.81545 -6.19088 -1.97884Q-6.30005 -2.14223 -6.39268 -2.31554Q-6.48532 -2.48884 -6.56052 -2.67039Q-6.63572 -2.85194 -6.69276 -3.03998Q-6.7498 -3.22803 -6.78814 -3.42076Q-6.82648 -3.61349 -6.84574 -3.80905Q-6.865 -4.00461 -6.865 -4.20112Q-6.865 -4.39763 -6.84574 -4.59319Q-6.82648 -4.78875 -6.78814 -4.98148Q-6.7498 -5.17421 -6.69276 -5.36226Q-6.63572 -5.55031 -6.56052 -5.73186Q-6.48532 -5.9134 -6.39268 -6.08671Q-6.30005 -6.26001 -6.19088 -6.4234Q-6.0817 -6.58679 -5.95704 -6.7387Q-5.83238 -6.8906 -5.69343 -7.02955Q-5.55447 -7.1685 -5.40257 -7.29316Q-5.25067 -7.41783 -5.08728 -7.527Q-4.92389 -7.63617 -4.75059 -7.72881Q-4.57728 -7.82144 -4.39573 -7.89664Q-4.21418 -7.97184 -4.02614 -8.02888Q-3.83809 -8.08593 -3.64536 -8.12426Q-3.45263 -8.1626 -3.25707 -8.18186Q-3.06151 -8.20112 -2.865 -8.20112Q-2.66849 -8.20112 -2.47293 -8.18186Q-2.27737 -8.1626 -2.08464 -8.12426Q-1.89191 -8.08593 -1.70386 -8.02888Q-1.51581 -7.97184 -1.33427 -7.89664Q-1.15272 -7.82144 -0.979412 -7.72881Q-0.806108 -7.63617 -0.642718 -7.527Q-0.479328 -7.41783 -0.327426 -7.29316Q-0.175524 -7.1685 -0.0365722 -7.02955Q0.10238 -6.8906 0.227043 -6.7387Q0.351706 -6.58679 0.460879 -6.4234Q0.570053 -6.26001 0.662686 -6.08671Q0.755319 -5.9134 0.830519 -5.73186Q0.905719 -5.55031 0.962762 -5.36226Q1.01981 -5.17421 1.05814 -4.98148Q1.09648 -4.78875 1.11574 -4.59319Q1.135 -4.39763 1.135 -4.20112"/>
	<path fill="#EEE" transform="matrix(1.42857 0 0 1.42857 55 47.8571)" d="M10.3789 1.61993Q10.3789 1.81643 10.3596 2.012Q10.3404 2.20756 10.302 2.40029Q10.2637 2.59302 10.2067 2.78107Q10.1496 2.96911 10.0744 3.15066Q9.99921 3.33221 9.90658 3.50551Q9.81395 3.67882 9.70477 3.84221Q9.5956 4.0056 9.47094 4.1575Q9.34627 4.3094 9.20732 4.44835Q9.06837 4.58731 8.91647 4.71197Q8.76456 4.83663 8.60117 4.94581Q8.43779 5.05498 8.26448 5.14761Q8.09118 5.24024 7.90963 5.31544Q7.72808 5.39065 7.54003 5.44769Q7.35199 5.50473 7.15926 5.54307Q6.96652 5.58141 6.77096 5.60067Q6.5754 5.61993 6.37889 5.61993Q6.18239 5.61993 5.98683 5.60067Q5.79127 5.58141 5.59853 5.54307Q5.4058 5.50473 5.21776 5.44769Q5.02971 5.39065 4.84816 5.31544Q4.66661 5.24024 4.49331 5.14761Q4.32 5.05498 4.15661 4.94581Q3.99322 4.83663 3.84132 4.71197Q3.68942 4.58731 3.55047 4.44835Q3.41152 4.3094 3.28685 4.1575Q3.16219 4.0056 3.05302 3.84221Q2.94384 3.67882 2.85121 3.50551Q2.75858 3.33221 2.68338 3.15066Q2.60818 2.96911 2.55113 2.78107Q2.49409 2.59302 2.45575 2.40029Q2.41742 2.20756 2.39816 2.012Q2.3789 1.81643 2.37889 1.61993Q2.3789 1.42342 2.39816 1.22786Q2.41742 1.0323 2.45575 0.839566Q2.49409 0.646834 2.55113 0.458789Q2.60818 0.270743 2.68338 0.0891936Q2.75858 -0.0923555 2.85121 -0.26566Q2.94384 -0.438964 3.05302 -0.602354Q3.16219 -0.765743 3.28685 -0.917646Q3.41152 -1.06955 3.55047 -1.2085Q3.68942 -1.34745 3.84132 -1.47211Q3.99322 -1.59678 4.15661 -1.70595Q4.32 -1.81512 4.49331 -1.90776Q4.66661 -2.00039 4.84816 -2.07559Q5.02971 -2.15079 5.21776 -2.20783Q5.4058 -2.26488 5.59853 -2.30321Q5.79127 -2.34155 5.98683 -2.36081Q6.18239 -2.38007 6.37889 -2.38007Q6.5754 -2.38007 6.77096 -2.36081Q6.96653 -2.34155 7.15926 -2.30321Q7.35199 -2.26488 7.54003 -2.20783Q7.72808 -2.15079 7.90963 -2.07559Q8.09118 -2.00039 8.26448 -1.90776Q8.43779 -1.81512 8.60118 -1.70595Q8.76457 -1.59678 8.91647 -1.47211Q9.06837 -1.34745 9.20732 -1.2085Q9.34627 -1.06955 9.47094 -0.917646Q9.5956 -0.765743 9.70477 -0.602353Q9.81395 -0.438964 9.90658 -0.26566Q9.99921 -0.0923555 10.0744 0.0891936Q10.1496 0.270743 10.2067 0.458789Q10.2637 0.646834 10.302 0.839566Q10.3404 1.0323 10.3596 1.22786Q10.3789 1.42342 10.3789 1.61993"/>
	<path fill="#EEE" transform="matrix(1.42857 0 0 1.42857 55 47.8571)" d="M0.446752 3.27551Q0.446752 3.47202 0.427491 3.66758Q0.408229 3.86314 0.369893 4.05587Q0.331556 4.2486 0.274513 4.43665Q0.21747 4.62469 0.14227 4.80624Q0.0670696 4.98779 -0.0255633 5.16109Q-0.118196 5.3344 -0.22737 5.49779Q-0.336544 5.66118 -0.461207 5.81308Q-0.585869 5.96498 -0.724821 6.10393Q-0.863773 6.24289 -1.01568 6.36755Q-1.16758 6.49221 -1.33097 6.60139Q-1.49436 6.71056 -1.66766 6.80319Q-1.84097 6.89583 -2.02251 6.97103Q-2.20406 7.04623 -2.39211 7.10327Q-2.58016 7.16031 -2.77289 7.19865Q-2.96562 7.23699 -3.16118 7.25625Q-3.35674 7.27551 -3.55325 7.27551Q-3.74976 7.27551 -3.94532 7.25625Q-4.14088 7.23699 -4.33361 7.19865Q-4.52634 7.16031 -4.71439 7.10327Q-4.90243 7.04623 -5.08398 6.97103Q-5.26553 6.89583 -5.43884 6.80319Q-5.61214 6.71056 -5.77553 6.60139Q-5.93892 6.49221 -6.09082 6.36755Q-6.24272 6.24289 -6.38168 6.10393Q-6.52063 5.96498 -6.64529 5.81308Q-6.76995 5.66118 -6.87913 5.49779Q-6.9883 5.3344 -7.08093 5.1611Q-7.17357 4.98779 -7.24877 4.80624Q-7.32397 4.62469 -7.38101 4.43665Q-7.43805 4.2486 -7.47639 4.05587Q-7.51473 3.86314 -7.53399 3.66758Q-7.55325 3.47202 -7.55325 3.27551Q-7.55325 3.079 -7.53399 2.88344Q-7.51473 2.68788 -7.47639 2.49515Q-7.43805 2.30241 -7.38101 2.11437Q-7.32397 1.92632 -7.24877 1.74477Q-7.17357 1.56323 -7.08093 1.38992Q-6.9883 1.21662 -6.87913 1.05323Q-6.76995 0.889837 -6.64529 0.737935Q-6.52063 0.586033 -6.38168 0.447081Q-6.24272 0.308129 -6.09082 0.183466Q-5.93892 0.0588031 -5.77553 -0.0503705Q-5.61214 -0.159544 -5.43884 -0.252177Q-5.26553 -0.34481 -5.08398 -0.42001Q-4.90243 -0.49521 -4.71439 -0.552253Q-4.52634 -0.609297 -4.33361 -0.647633Q-4.14088 -0.68597 -3.94532 -0.705231Q-3.74976 -0.724492 -3.55325 -0.724492Q-3.35674 -0.724492 -3.16118 -0.705231Q-2.96562 -0.68597 -2.77289 -0.647633Q-2.58016 -0.609297 -2.39211 -0.552253Q-2.20406 -0.49521 -2.02251 -0.42001Q-1.84097 -0.34481 -1.66766 -0.252177Q-1.49436 -0.159544 -1.33097 -0.0503705Q-1.16758 0.0588031 -1.01568 0.183466Q-0.863773 0.308129 -0.724821 0.447081Q-0.585869 0.586033 -0.461207 0.737935Q-0.336544 0.889837 -0.22737 1.05323Q-0.118196 1.21662 -0.0255633 1.38992Q0.0670696 1.56323 0.14227 1.74477Q0.21747 1.92632 0.274513 2.11437Q0.331556 2.30241 0.369893 2.49515Q0.408229 2.68788 0.427491 2.88344Q0.446752 3.079 0.446752 3.27551"/>
	<path fill="#EEE" transform="matrix(1.42857 0 0 1.42857 55 47.8571)" d="M5.03532 -0.0991368Q5.03532 0.0973706 5.01606 0.292932Q4.9968 0.488493 4.95846 0.681224Q4.92013 0.873956 4.86308 1.062Q4.80604 1.25005 4.73084 1.4316Q4.65564 1.61315 4.56301 1.78645Q4.47037 1.95975 4.3612 2.12314Q4.25203 2.28653 4.12736 2.43844Q4.0027 2.59034 3.86375 2.72929Q3.7248 2.86824 3.5729 2.99291Q3.42099 3.11757 3.2576 3.22674Q3.09421 3.33592 2.92091 3.42855Q2.74761 3.52118 2.56606 3.59638Q2.38451 3.67158 2.19646 3.72862Q2.00841 3.78567 1.81568 3.824Q1.62295 3.86234 1.42739 3.8816Q1.23183 3.90086 1.03532 3.90086Q0.838815 3.90086 0.643254 3.8816Q0.447692 3.86234 0.254961 3.824Q0.0622294 3.78567 -0.125816 3.72862Q-0.313862 3.67158 -0.495411 3.59638Q-0.676961 3.52118 -0.850265 3.42855Q-1.02357 3.33592 -1.18696 3.22674Q-1.35035 3.11757 -1.50225 2.9929Q-1.65415 2.86824 -1.7931 2.72929Q-1.93206 2.59034 -2.05672 2.43844Q-2.18138 2.28653 -2.29056 2.12314Q-2.39973 1.95975 -2.49236 1.78645Q-2.585 1.61315 -2.6602 1.4316Q-2.7354 1.25005 -2.79244 1.062Q-2.84948 0.873956 -2.88782 0.681224Q-2.92616 0.488493 -2.94542 0.292932Q-2.96468 0.0973706 -2.96468 -0.0991368Q-2.96468 -0.295644 -2.94542 -0.491205Q-2.92616 -0.686767 -2.88782 -0.879498Q-2.84948 -1.07223 -2.79244 -1.26028Q-2.7354 -1.44832 -2.6602 -1.62987Q-2.585 -1.81142 -2.49236 -1.98472Q-2.39973 -2.15803 -2.29056 -2.32142Q-2.18138 -2.48481 -2.05672 -2.63671Q-1.93206 -2.78861 -1.7931 -2.92756Q-1.65415 -3.06652 -1.50225 -3.19118Q-1.35035 -3.31584 -1.18696 -3.42501Q-1.02357 -3.53419 -0.850265 -3.62682Q-0.676961 -3.71945 -0.495412 -3.79465Q-0.313862 -3.86985 -0.125816 -3.9269Q0.0622294 -3.98394 0.254961 -4.02228Q0.447692 -4.06061 0.643254 -4.07988Q0.838815 -4.09914 1.03532 -4.09914Q1.23183 -4.09914 1.42739 -4.07988Q1.62295 -4.06061 1.81568 -4.02228Q2.00841 -3.98394 2.19646 -3.9269Q2.38451 -3.86985 2.56606 -3.79465Q2.74761 -3.71945 2.92091 -3.62682Q3.09421 -3.53419 3.2576 -3.42501Q3.42099 -3.31584 3.5729 -3.19118Q3.7248 -3.06652 3.86375 -2.92756Q4.0027 -2.78861 4.12736 -2.63671Q4.25203 -2.48481 4.3612 -2.32142Q4.47037 -2.15803 4.56301 -1.98472Q4.65564 -1.81142 4.73084 -1.62987Q4.80604 -1.44832 4.86308 -1.26028Q4.92013 -1.07223 4.95846 -0.879498Q4.9968 -0.686767 5.01606 -0.491205Q5.03532 -0.295644 5.03532 -0.0991368"/>
	<path fill="#EEE" transform="matrix(1.42857 0 0 1.42857 55 47.8571)" d="M6.15168 -2.20487Q6.15168 -2.00836 6.13242 -1.8128Q6.11316 -1.61724 6.07482 -1.4245Q6.03648 -1.23177 5.97944 -1.04373Q5.9224 -0.855681 5.8472 -0.674132Q5.772 -0.492583 5.67936 -0.319279Q5.58673 -0.145975 5.47756 0.017415Q5.36838 0.180805 5.24372 0.332707Q5.11906 0.48461 4.9801 0.623561Q4.84115 0.762513 4.68925 0.887176Q4.53735 1.01184 4.37396 1.12101Q4.21057 1.23019 4.03726 1.32282Q3.86396 1.41545 3.68241 1.49065Q3.50086 1.56585 3.31282 1.6229Q3.12477 1.67994 2.93204 1.71828Q2.73931 1.75661 2.54375 1.77587Q2.34819 1.79513 2.15168 1.79513Q1.95517 1.79513 1.75961 1.77587Q1.56405 1.75661 1.37132 1.71828Q1.17859 1.67994 0.990539 1.6229Q0.802494 1.56585 0.620944 1.49065Q0.439395 1.41545 0.266091 1.32282Q0.0927871 1.23019 -0.0706028 1.12101Q-0.233993 1.01184 -0.385895 0.887176Q-0.537797 0.762513 -0.676749 0.623561Q-0.815701 0.48461 -0.940364 0.332707Q-1.06503 0.180805 -1.1742 0.0174151Q-1.28337 -0.145975 -1.37601 -0.319279Q-1.46864 -0.492583 -1.54384 -0.674132Q-1.61904 -0.855681 -1.67608 -1.04373Q-1.73313 -1.23177 -1.77146 -1.4245Q-1.8098 -1.61724 -1.82906 -1.8128Q-1.84832 -2.00836 -1.84832 -2.20487Q-1.84832 -2.40137 -1.82906 -2.59693Q-1.8098 -2.7925 -1.77146 -2.98523Q-1.73313 -3.17796 -1.67608 -3.366Q-1.61904 -3.55405 -1.54384 -3.7356Q-1.46864 -3.91715 -1.37601 -4.09045Q-1.28337 -4.26376 -1.1742 -4.42715Q-1.06503 -4.59054 -0.940364 -4.74244Q-0.815701 -4.89434 -0.676749 -5.03329Q-0.537797 -5.17225 -0.385895 -5.29691Q-0.233993 -5.42157 -0.0706028 -5.53074Q0.0927871 -5.63992 0.266091 -5.73255Q0.439395 -5.82518 0.620944 -5.90038Q0.802494 -5.97558 0.990539 -6.03263Q1.17859 -6.08967 1.37132 -6.12801Q1.56405 -6.16634 1.75961 -6.18561Q1.95517 -6.20487 2.15168 -6.20487Q2.34819 -6.20487 2.54375 -6.18561Q2.73931 -6.16634 2.93204 -6.12801Q3.12477 -6.08967 3.31282 -6.03263Q3.50086 -5.97558 3.68241 -5.90038Q3.86396 -5.82518 4.03726 -5.73255Q4.21057 -5.63992 4.37396 -5.53074Q4.53735 -5.42157 4.68925 -5.29691Q4.84115 -5.17225 4.9801 -5.03329Q5.11906 -4.89434 5.24372 -4.74244Q5.36838 -4.59054 5.47756 -4.42715Q5.58673 -4.26376 5.67936 -4.09045Q5.772 -3.91715 5.8472 -3.7356Q5.9224 -3.55405 5.97944 -3.366Q6.03648 -3.17796 6.07482 -2.98523Q6.11316 -2.7925 6.13242 -2.59693Q6.15168 -2.40137 6.15168 -2.20487"/>
	<path fill="#EEE" transform="matrix(1.42857 0 0 1.42857 55 47.8571)" d="M-0.465236 0.826651Q-0.465236 1.02316 -0.484497 1.21872Q-0.503758 1.41428 -0.542095 1.60701Q-0.580431 1.79974 -0.637474 1.98779Q-0.694517 2.17583 -0.769717 2.35738Q-0.844918 2.53893 -0.937551 2.71224Q-1.03018 2.88554 -1.13936 3.04893Q-1.24853 3.21232 -1.37319 3.36422Q-1.49786 3.51613 -1.63681 3.65508Q-1.77576 3.79403 -1.92766 3.91869Q-2.07956 4.04336 -2.24295 4.15253Q-2.40634 4.2617 -2.57965 4.35434Q-2.75295 4.44697 -2.9345 4.52217Q-3.11605 4.59737 -3.3041 4.65441Q-3.49214 4.71146 -3.68487 4.74979Q-3.87761 4.78813 -4.07317 4.80739Q-4.26873 4.82665 -4.46524 4.82665Q-4.66174 4.82665 -4.8573 4.80739Q-5.05287 4.78813 -5.2456 4.74979Q-5.43833 4.71146 -5.62637 4.65441Q-5.81442 4.59737 -5.99597 4.52217Q-6.17752 4.44697 -6.35082 4.35434Q-6.52413 4.2617 -6.68752 4.15253Q-6.85091 4.04336 -7.00281 3.91869Q-7.15471 3.79403 -7.29366 3.65508Q-7.43261 3.51613 -7.55728 3.36422Q-7.68194 3.21232 -7.79111 3.04893Q-7.90029 2.88554 -7.99292 2.71224Q-8.08555 2.53893 -8.16075 2.35738Q-8.23595 2.17583 -8.293 1.98779Q-8.35004 1.79974 -8.38838 1.60701Q-8.42671 1.41428 -8.44597 1.21872Q-8.46524 1.02316 -8.46524 0.826651Q-8.46524 0.630143 -8.44597 0.434582Q-8.42671 0.239021 -8.38838 0.0462892Q-8.35004 -0.146442 -8.293 -0.334488Q-8.23595 -0.522534 -8.16075 -0.704083Q-8.08555 -0.885632 -7.99292 -1.05894Q-7.90029 -1.23224 -7.79111 -1.39563Q-7.68194 -1.55902 -7.55728 -1.71092Q-7.43261 -1.86282 -7.29366 -2.00178Q-7.15471 -2.14073 -7.00281 -2.26539Q-6.85091 -2.39005 -6.68752 -2.49923Q-6.52413 -2.6084 -6.35082 -2.70103Q-6.17752 -2.79367 -5.99597 -2.86887Q-5.81442 -2.94407 -5.62637 -3.00111Q-5.43833 -3.05815 -5.2456 -3.09649Q-5.05287 -3.13483 -4.8573 -3.15409Q-4.66174 -3.17335 -4.46524 -3.17335Q-4.26873 -3.17335 -4.07317 -3.15409Q-3.87761 -3.13483 -3.68487 -3.09649Q-3.49214 -3.05815 -3.3041 -3.00111Q-3.11605 -2.94407 -2.9345 -2.86887Q-2.75295 -2.79367 -2.57965 -2.70103Q-2.40634 -2.6084 -2.24295 -2.49923Q-2.07956 -2.39005 -1.92766 -2.26539Q-1.77576 -2.14073 -1.63681 -2.00178Q-1.49786 -1.86282 -1.37319 -1.71092Q-1.24853 -1.55902 -1.13936 -1.39563Q-1.03018 -1.23224 -0.937551 -1.05894Q-0.844918 -0.885632 -0.769718 -0.704083Q-0.694517 -0.522534 -0.637474 -0.334488Q-0.580431 -0.146442 -0.542095 0.0462893Q-0.503758 0.239021 -0.484497 0.434582Q-0.465236 0.630143 -0.465236 0.826651"/>
	<path fill="#EEE" transform="matrix(1.42857 0 0 1.42857 55 47.8571)" d="M3.00743 -2.879Q3.00743 -2.68249 2.98817 -2.48693Q2.96891 -2.29137 2.93057 -2.09863Q2.89224 -1.9059 2.8352 -1.71786Q2.77815 -1.52981 2.70295 -1.34826Q2.62775 -1.16671 2.53512 -0.993409Q2.44249 -0.820105 2.33331 -0.656715Q2.22414 -0.493325 2.09948 -0.341423Q1.97481 -0.18952 1.83586 -0.0505687Q1.69691 0.088383 1.54501 0.213046Q1.3931 0.337709 1.22971 0.446883Q1.06632 0.556056 0.893021 0.648689Q0.719717 0.741322 0.538167 0.816522Q0.356618 0.891722 0.168573 0.948766Q-0.0194733 1.00581 -0.212205 1.04415Q-0.404936 1.08248 -0.600498 1.10174Q-0.796059 1.121 -0.992566 1.121Q-1.18907 1.121 -1.38463 1.10174Q-1.5802 1.08248 -1.77293 1.04415Q-1.96566 1.00581 -2.1537 0.948766Q-2.34175 0.891722 -2.5233 0.816522Q-2.70485 0.741322 -2.87815 0.648689Q-3.05146 0.556056 -3.21485 0.446883Q-3.37824 0.337709 -3.53014 0.213046Q-3.68204 0.088383 -3.82099 -0.0505688Q-3.95994 -0.18952 -4.08461 -0.341423Q-4.20927 -0.493325 -4.31844 -0.656715Q-4.42762 -0.820105 -4.52025 -0.993409Q-4.61288 -1.16671 -4.68808 -1.34826Q-4.76328 -1.52981 -4.82033 -1.71786Q-4.87737 -1.9059 -4.91571 -2.09863Q-4.95404 -2.29137 -4.97331 -2.48693Q-4.99257 -2.68249 -4.99257 -2.879Q-4.99257 -3.0755 -4.97331 -3.27106Q-4.95404 -3.46663 -4.91571 -3.65936Q-4.87737 -3.85209 -4.82033 -4.04013Q-4.76328 -4.22818 -4.68808 -4.40973Q-4.61288 -4.59128 -4.52025 -4.76458Q-4.42762 -4.93789 -4.31844 -5.10128Q-4.20927 -5.26467 -4.08461 -5.41657Q-3.95994 -5.56847 -3.82099 -5.70742Q-3.68204 -5.84637 -3.53014 -5.97104Q-3.37824 -6.0957 -3.21485 -6.20487Q-3.05146 -6.31405 -2.87815 -6.40668Q-2.70485 -6.49931 -2.5233 -6.57451Q-2.34175 -6.64971 -2.1537 -6.70676Q-1.96566 -6.7638 -1.77293 -6.80214Q-1.5802 -6.84047 -1.38463 -6.85974Q-1.18907 -6.879 -0.992566 -6.879Q-0.796059 -6.879 -0.600498 -6.85974Q-0.404936 -6.84047 -0.212205 -6.80214Q-0.0194733 -6.7638 0.168573 -6.70676Q0.356618 -6.64971 0.538167 -6.57451Q0.719717 -6.49931 0.893021 -6.40668Q1.06632 -6.31405 1.22971 -6.20487Q1.3931 -6.0957 1.54501 -5.97104Q1.69691 -5.84637 1.83586 -5.70742Q1.97481 -5.56847 2.09948 -5.41657Q2.22414 -5.26467 2.33331 -5.10128Q2.44249 -4.93789 2.53512 -4.76458Q2.62775 -4.59128 2.70295 -4.40973Q2.77815 -4.22818 2.8352 -4.04013Q2.89224 -3.85209 2.93057 -3.65936Q2.96891 -3.46663 2.98817 -3.27106Q3.00743 -3.0755 3.00743 -2.879"/>
	<path fill="none" stroke="black" stroke-width="2.3999999" stroke-linejoin="round" transform="translate(55 79.2857)" d="M-30.6882 -6.58855Q-27.5877 -6.58855 -25.9324 -5.49969Q-24.2722 -4.41082 -24.2722 -1.93035Q-24.2722 0.569648 -25.9519 1.68293Q-27.6316 2.79133 -30.7517 2.79133L-31.7283 2.79133L-31.7283 7.43L-34.8484 7.43L-34.8484 -6.23211Q-33.8279 -6.4323 -32.6902 -6.51043Q-31.5476 -6.58855 -30.6882 -6.58855ZM-30.4881 -3.9323Q-30.8298 -3.9323 -31.1619 -3.90789Q-31.489 -3.88836 -31.7283 -3.86883L-31.7283 0.130195L-30.7517 0.130195Q-29.1306 0.130195 -28.3103 -0.309258Q-27.49 -0.748711 -27.49 -1.94988Q-27.49 -2.53094 -27.7 -2.90691Q-27.9099 -3.28777 -28.3006 -3.51727Q-28.6912 -3.75164 -29.2527 -3.83953Q-29.8093 -3.9323 -30.4881 -3.9323ZM-12.3297 2.15168Q-12.3297 3.39191 -12.6911 4.42219Q-13.0524 5.44758 -13.7311 6.18Q-14.4098 6.91242 -15.362 7.31281Q-16.3092 7.70832 -17.4909 7.70832Q-18.6481 7.70832 -19.6003 7.31281Q-20.5524 6.91242 -21.2311 6.18Q-21.9098 5.44758 -22.2907 4.42219Q-22.6715 3.39191 -22.6715 2.15168Q-22.6715 0.911445 -22.2809 -0.109063Q-21.8903 -1.12957 -21.2018 -1.84734Q-20.5085 -2.57 -19.5612 -2.97039Q-18.609 -3.37078 -17.4909 -3.37078Q-16.3483 -3.37078 -15.401 -2.97039Q-14.4489 -2.57 -13.7702 -1.84734Q-13.0915 -1.12957 -12.7106 -0.109063Q-12.3297 0.911445 -12.3297 2.15168ZM-15.3717 2.15168Q-15.3717 0.769844 -15.9235 -0.021172Q-16.4704 -0.812188 -17.4909 -0.812188Q-18.5114 -0.812188 -19.0729 -0.021172Q-19.6295 0.769844 -19.6295 2.15168Q-19.6295 3.52863 -19.0729 4.33918Q-18.5114 5.14973 -17.4909 5.14973Q-16.4704 5.14973 -15.9235 4.33918Q-15.3717 3.52863 -15.3717 2.15168ZM-3.63214 1.38996Q-4.02765 2.90852 -4.48175 4.41242Q-4.93097 5.91145 -5.42902 7.43L-7.74835 7.43Q-8.10968 6.59016 -8.5296 5.43293Q-8.94952 4.27082 -9.39874 2.90363Q-9.84796 1.53156 -10.3216 0.00324202Q-10.7903 -1.52996 -11.2298 -3.08758L-8.09015 -3.08758Q-7.92902 -2.3698 -7.73859 -1.5202Q-7.54816 -0.670586 -7.3382 0.232734Q-7.12823 1.13117 -6.89874 2.03937Q-6.66925 2.94758 -6.42999 3.7923Q-6.1712 2.90852 -5.92218 1.99055Q-5.66827 1.0677 -5.43878 0.179023Q-5.20929 -0.709649 -4.99933 -1.53973Q-4.78937 -2.3698 -4.62823 -3.08758L-2.47003 -3.08758Q-2.3089 -2.3698 -2.1087 -1.53973Q-1.90851 -0.709649 -1.68878 0.179023Q-1.46906 1.0677 -1.2298 1.99055Q-0.99054 2.90852 -0.73175 3.7923Q-0.48761 2.94758 -0.248352 2.03937Q-0.00909424 1.13117 0.200867 0.232734Q0.410828 -0.670586 0.601257 -1.5202Q0.791687 -2.3698 0.947937 -3.08758L4.04852 -3.08758Q3.60907 -1.52996 3.14032 0.00324202Q2.67157 1.53156 2.21747 2.90363Q1.76825 4.27082 1.33856 5.43293Q0.908875 6.59016 0.547546 7.43L-1.77179 7.43Q-2.26984 5.91145 -2.75323 4.41242Q-3.23175 2.90852 -3.63214 1.38996ZM8.19043 2.0882Q8.19043 3.47004 8.81055 4.30988Q9.43066 5.14973 10.6514 5.14973Q11.0518 5.14973 11.3887 5.12043Q11.7305 5.09113 11.9502 5.05207L11.9502 -0.367852Q11.6719 -0.548516 11.2178 -0.665703Q10.7686 -0.787774 10.3096 -0.787774Q8.19043 -0.787774 8.19043 2.0882ZM14.9287 7.0882Q14.5283 7.21027 14.0059 7.32258Q13.4883 7.43 12.917 7.50812Q12.3506 7.59113 11.7598 7.63996Q11.1689 7.68879 10.6318 7.68879Q9.32812 7.68879 8.30762 7.31281Q7.29199 6.93195 6.58887 6.22395Q5.89062 5.51105 5.51953 4.50031Q5.14844 3.48957 5.14844 2.2298Q5.14844 0.950508 5.46582 -0.0797658Q5.78809 -1.11004 6.38867 -1.82781Q6.98926 -2.55047 7.8584 -2.93133Q8.73242 -3.31219 9.85059 -3.31219Q10.4707 -3.31219 10.959 -3.19012Q11.4521 -3.06805 11.9502 -2.84832L11.9502 -7.60906L14.9287 -8.08758L14.9287 7.0882ZM17.2284 2.24934Q17.2284 0.847969 17.6581 -0.201836Q18.0878 -1.25164 18.786 -1.94988Q19.4892 -2.64813 20.3974 -3.00945Q21.3105 -3.37078 22.2724 -3.37078Q24.5087 -3.37078 25.8075 -1.99871Q27.1112 -0.631524 27.1112 2.02961Q27.1112 2.2884 27.0917 2.6009Q27.0722 2.90852 27.0478 3.14777L20.2899 3.14777Q20.3876 4.07062 21.1493 4.61262Q21.911 5.14973 23.1903 5.14973Q24.0107 5.14973 24.7968 5.00324Q25.5878 4.85187 26.0907 4.63215L26.4911 7.04914Q26.2519 7.17121 25.8515 7.29328Q25.4511 7.41047 24.9579 7.49836Q24.4696 7.59113 23.9081 7.64973Q23.3515 7.70832 22.7899 7.70832Q21.369 7.70832 20.3192 7.2884Q19.2694 6.86848 18.5761 6.14094Q17.8876 5.40852 17.5556 4.41242Q17.2284 3.41145 17.2284 2.24934ZM24.2304 1.11164Q24.2108 0.730781 24.0985 0.369453Q23.9911 0.00812483 23.7616 -0.270195Q23.5321 -0.548516 23.1806 -0.72918Q22.829 -0.909844 22.3114 -0.909844Q21.8085 -0.909844 21.4472 -0.738945Q21.0907 -0.568047 20.8515 -0.289727Q20.6122 -0.0114064 20.4804 0.359687Q20.3485 0.730781 20.2899 1.11164L24.2304 1.11164ZM35.7492 -0.45086Q35.3488 -0.548516 34.8069 -0.655938Q34.2697 -0.768242 33.6496 -0.768242Q33.3713 -0.768242 32.9807 -0.719414Q32.5901 -0.670586 32.3899 -0.611992L32.3899 7.43L29.4113 7.43L29.4113 -2.53094Q30.2121 -2.80926 31.301 -3.05828Q32.3899 -3.31219 33.7278 -3.31219Q33.9719 -3.31219 34.3088 -3.27801Q34.6506 -3.24871 34.9875 -3.19988Q35.3293 -3.15105 35.6662 -3.07781Q36.008 -3.00945 36.2522 -2.9118L35.7492 -0.45086Z"/>
	<path fill="white" transform="translate(55 79.2857)" d="M-30.6882 -6.58855Q-27.5877 -6.58855 -25.9324 -5.49969Q-24.2722 -4.41082 -24.2722 -1.93035Q-24.2722 0.569648 -25.9519 1.68293Q-27.6316 2.79133 -30.7517 2.79133L-31.7283 2.79133L-31.7283 7.43L-34.8484 7.43L-34.8484 -6.23211Q-33.8279 -6.4323 -32.6902 -6.51043Q-31.5476 -6.58855 -30.6882 -6.58855ZM-30.4881 -3.9323Q-30.8298 -3.9323 -31.1619 -3.90789Q-31.489 -3.88836 -31.7283 -3.86883L-31.7283 0.130195L-30.7517 0.130195Q-29.1306 0.130195 -28.3103 -0.309258Q-27.49 -0.748711 -27.49 -1.94988Q-27.49 -2.53094 -27.7 -2.90691Q-27.9099 -3.28777 -28.3006 -3.51727Q-28.6912 -3.75164 -29.2527 -3.83953Q-29.8093 -3.9323 -30.4881 -3.9323ZM-12.3297 2.15168Q-12.3297 3.39191 -12.6911 4.42219Q-13.0524 5.44758 -13.7311 6.18Q-14.4098 6.91242 -15.362 7.31281Q-16.3092 7.70832 -17.4909 7.70832Q-18.6481 7.70832 -19.6003 7.31281Q-20.5524 6.91242 -21.2311 6.18Q-21.9098 5.44758 -22.2907 4.42219Q-22.6715 3.39191 -22.6715 2.15168Q-22.6715 0.911445 -22.2809 -0.109063Q-21.8903 -1.12957 -21.2018 -1.84734Q-20.5085 -2.57 -19.5612 -2.97039Q-18.609 -3.37078 -17.4909 -3.37078Q-16.3483 -3.37078 -15.401 -2.97039Q-14.4489 -2.57 -13.7702 -1.84734Q-13.0915 -1.12957 -12.7106 -0.109063Q-12.3297 0.911445 -12.3297 2.15168ZM-15.3717 2.15168Q-15.3717 0.769844 -15.9235 -0.021172Q-16.4704 -0.812188 -17.4909 -0.812188Q-18.5114 -0.812188 -19.0729 -0.021172Q-19.6295 0.769844 -19.6295 2.15168Q-19.6295 3.52863 -19.0729 4.33918Q-18.5114 5.14973 -17.4909 5.14973Q-16.4704 5.14973 -15.9235 4.33918Q-15.3717 3.52863 -15.3717 2.15168ZM-3.63214 1.38996Q-4.02765 2.90852 -4.48175 4.41242Q-4.93097 5.91145 -5.42902 7.43L-7.74835 7.43Q-8.10968 6.59016 -8.5296 5.43293Q-8.94952 4.27082 -9.39874 2.90363Q-9.84796 1.53156 -10.3216 0.00324202Q-10.7903 -1.52996 -11.2298 -3.08758L-8.09015 -3.08758Q-7.92902 -2.3698 -7.73859 -1.5202Q-7.54816 -0.670586 -7.3382 0.232734Q-7.12823 1.13117 -6.89874 2.03937Q-6.66925 2.94758 -6.42999 3.7923Q-6.1712 2.90852 -5.92218 1.99055Q-5.66827 1.0677 -5.43878 0.179023Q-5.20929 -0.709649 -4.99933 -1.53973Q-4.78937 -2.3698 -4.62823 -3.08758L-2.47003 -3.08758Q-2.3089 -2.3698 -2.1087 -1.53973Q-1.90851 -0.709649 -1.68878 0.179023Q-1.46906 1.0677 -1.2298 1.99055Q-0.99054 2.90852 -0.73175 3.7923Q-0.48761 2.94758 -0.248352 2.03937Q-0.00909424 1.13117 0.200867 0.232734Q0.410828 -0.670586 0.601257 -1.5202Q0.791687 -2.3698 0.947937 -3.08758L4.04852 -3.08758Q3.60907 -1.52996 3.14032 0.00324202Q2.67157 1.53156 2.21747 2.90363Q1.76825 4.27082 1.33856 5.43293Q0.908875 6.59016 0.547546 7.43L-1.77179 7.43Q-2.26984 5.91145 -2.75323 4.41242Q-3.23175 2.90852 -3.63214 1.38996ZM8.19043 2.0882Q8.19043 3.47004 8.81055 4.30988Q9.43066 5.14973 10.6514 5.14973Q11.0518 5.14973 11.3887 5.12043Q11.7305 5.09113 11.9502 5.05207L11.9502 -0.367852Q11.6719 -0.548516 11.2178 -0.665703Q10.7686 -0.787774 10.3096 -0.787774Q8.19043 -0.787774 8.19043 2.0882ZM14.9287 7.0882Q14.5283 7.21027 14.0059 7.32258Q13.4883 7.43 12.917 7.50812Q12.3506 7.59113 11.7598 7.63996Q11.1689 7.68879 10.6318 7.68879Q9.32812 7.68879 8.30762 7.31281Q7.29199 6.93195 6.58887 6.22395Q5.89062 5.51105 5.51953 4.50031Q5.14844 3.48957 5.14844 2.2298Q5.14844 0.950508 5.46582 -0.0797658Q5.78809 -1.11004 6.38867 -1.82781Q6.98926 -2.55047 7.8584 -2.93133Q8.73242 -3.31219 9.85059 -3.31219Q10.4707 -3.31219 10.959 -3.19012Q11.4521 -3.06805 11.9502 -2.84832L11.9502 -7.60906L14.9287 -8.08758L14.9287 7.0882ZM17.2284 2.24934Q17.2284 0.847969 17.6581 -0.201836Q18.0878 -1.25164 18.786 -1.94988Q19.4892 -2.64813 20.3974 -3.00945Q21.3105 -3.37078 22.2724 -3.37078Q24.5087 -3.37078 25.8075 -1.99871Q27.1112 -0.631524 27.1112 2.02961Q27.1112 2.2884 27.0917 2.6009Q27.0722 2.90852 27.0478 3.14777L20.2899 3.14777Q20.3876 4.07062 21.1493 4.61262Q21.911 5.14973 23.1903 5.14973Q24.0107 5.14973 24.7968 5.00324Q25.5878 4.85187 26.0907 4.63215L26.4911 7.04914Q26.2519 7.17121 25.8515 7.29328Q25.4511 7.41047 24.9579 7.49836Q24.4696 7.59113 23.9081 7.64973Q23.3515 7.70832 22.7899 7.70832Q21.369 7.70832 20.3192 7.2884Q19.2694 6.86848 18.5761 6.14094Q17.8876 5.40852 17.5556 4.41242Q17.2284 3.41145 17.2284 2.24934ZM24.2304 1.11164Q24.2108 0.730781 24.0985 0.369453Q23.9911 0.00812483 23.7616 -0.270195Q23.5321 -0.548516 23.1806 -0.72918Q22.829 -0.909844 22.3114 -0.909844Q21.8085 -0.909844 21.4472 -0.738945Q21.0907 -0.568047 20.8515 -0.289727Q20.6122 -0.0114064 20.4804 0.359687Q20.3485 0.730781 20.2899 1.11164L24.2304 1.11164ZM35.7492 -0.45086Q35.3488 -0.548516 34.8069 -0.655938Q34.2697 -0.768242 33.6496 -0.768242Q33.3713 -0.768242 32.9807 -0.719414Q32.5901 -0.670586 32.3899 -0.611992L32.3899 7.43L29.4113 7.43L29.4113 -2.53094Q30.2121 -2.80926 31.301 -3.05828Q32.3899 -3.31219 33.7278 -3.31219Q33.9719 -3.31219 34.3088 -3.27801Q34.6506 -3.24871 34.9875 -3.19988Q35.3293 -3.15105 35.6662 -3.07781Q36.008 -3.00945 36.2522 -2.9118L35.7492 -0.45086Z"/>
</svg>
