<?xml version="1.0" encoding="utf-8" ?>
<svg xmlns="http://www.w3.org/2000/svg" xmlns:xlink="http://www.w3.org/1999/xlink" width="110" height="110">
	<path fill="none" stroke="black" stroke-width="2.3999999" stroke-linejoin="round" transform="translate(55 79.2857)" d="M-3.44108 7.43Q-3.6608 6.71223 -3.92936 5.95051Q-4.19791 5.18879 -4.46159 4.43195L-9.86198 4.43195Q-10.1208 5.18879 -10.3893 5.95051Q-10.6579 6.71223 -10.8776 7.43L-14.1198 7.43Q-13.3385 5.18879 -12.6403 3.28937Q-11.9421 1.38996 -11.2731 -0.289727Q-10.5993 -1.96941 -9.94987 -3.4782Q-9.30045 -4.99188 -8.60221 -6.4323L-5.61881 -6.4323Q-4.9401 -4.99188 -4.28092 -3.4782Q-3.62174 -1.96941 -2.9528 -0.289727Q-2.27897 1.38996 -1.58073 3.28937Q-0.877602 5.18879 -0.101234 7.43L-3.44108 7.43ZM-7.18131 -3.28777Q-7.27897 -2.98992 -7.47916 -2.46746Q-7.67936 -1.94988 -7.94303 -1.26629Q-8.20182 -0.587578 -8.51432 0.232734Q-8.82194 1.04816 -9.13932 1.95148L-5.19889 1.95148Q-5.52116 1.04816 -5.82389 0.232734Q-6.12174 -0.587578 -6.3903 -1.26629Q-6.65885 -1.94988 -6.85905 -2.46746Q-7.05924 -2.98992 -7.18131 -3.28777ZM4.47988 7.43L1.50137 7.43L1.50137 -3.08758L4.47988 -3.08758L4.47988 7.43ZM4.7582 -6.12957Q4.7582 -5.30926 4.22598 -4.84051Q3.69863 -4.37176 2.98086 -4.37176Q2.2582 -4.37176 1.72598 -4.84051Q1.19863 -5.30926 1.19863 -6.12957Q1.19863 -6.94988 1.72598 -7.41863Q2.2582 -7.89227 2.98086 -7.89227Q3.69863 -7.89227 4.22598 -7.41863Q4.7582 -6.94988 4.7582 -6.12957ZM13.6193 -0.45086Q13.2189 -0.548516 12.6769 -0.655938Q12.1398 -0.768242 11.5196 -0.768242Q11.2413 -0.768242 10.8507 -0.719414Q10.4601 -0.670586 10.2599 -0.611992L10.2599 7.43L7.28136 7.43L7.28136 -2.53094Q8.08215 -2.80926 9.17101 -3.05828Q10.2599 -3.31219 11.5978 -3.31219Q11.8419 -3.31219 12.1788 -3.27801Q12.5206 -3.24871 12.8575 -3.19988Q13.1993 -3.15105 13.5362 -3.07781Q13.878 -3.00945 14.1222 -2.9118L13.6193 -0.45086Z"/>
	<path fill="white" transform="translate(55 79.2857)" d="M-3.44108 7.43Q-3.6608 6.71223 -3.92936 5.95051Q-4.19791 5.18879 -4.46159 4.43195L-9.86198 4.43195Q-10.1208 5.18879 -10.3893 5.95051Q-10.6579 6.71223 -10.8776 7.43L-14.1198 7.43Q-13.3385 5.18879 -12.6403 3.28937Q-11.9421 1.38996 -11.2731 -0.289727Q-10.5993 -1.96941 -9.94987 -3.4782Q-9.30045 -4.99188 -8.60221 -6.4323L-5.61881 -6.4323Q-4.9401 -4.99188 -4.28092 -3.4782Q-3.62174 -1.96941 -2.9528 -0.289727Q-2.27897 1.38996 -1.58073 3.28937Q-0.877602 5.18879 -0.101234 7.43L-3.44108 7.43ZM-7.18131 -3.28777Q-7.27897 -2.98992 -7.47916 -2.46746Q-7.67936 -1.94988 -7.94303 -1.26629Q-8.20182 -0.587578 -8.51432 0.232734Q-8.82194 1.04816 -9.13932 1.95148L-5.19889 1.95148Q-5.52116 1.04816 -5.82389 0.232734Q-6.12174 -0.587578 -6.3903 -1.26629Q-6.65885 -1.94988 -6.85905 -2.46746Q-7.05924 -2.98992 -7.18131 -3.28777ZM4.47988 7.43L1.50137 7.43L1.50137 -3.08758L4.47988 -3.08758L4.47988 7.43ZM4.7582 -6.12957Q4.7582 -5.30926 4.22598 -4.84051Q3.69863 -4.37176 2.98086 -4.37176Q2.2582 -4.37176 1.72598 -4.84051Q1.19863 -5.30926 1.19863 -6.12957Q1.19863 -6.94988 1.72598 -7.41863Q2.2582 -7.89227 2.98086 -7.89227Q3.69863 -7.89227 4.22598 -7.41863Q4.7582 -6.94988 4.7582 -6.12957ZM13.6193 -0.45086Q13.2189 -0.548516 12.6769 -0.655938Q12.1398 -0.768242 11.5196 -0.768242Q11.2413 -0.768242 10.8507 -0.719414Q10.4601 -0.670586 10.2599 -0.611992L10.2599 7.43L7.28136 7.43L7.28136 -2.53094Q8.08215 -2.80926 9.17101 -3.05828Q10.2599 -3.31219 11.5978 -3.31219Q11.8419 -3.31219 12.1788 -3.27801Q12.5206 -3.24871 12.8575 -3.19988Q13.1993 -3.15105 13.5362 -3.07781Q13.878 -3.00945 14.1222 -2.9118L13.6193 -0.45086Z"/>
</svg>
