<?xml version="1.0" encoding="utf-8" ?>
<svg xmlns="http://www.w3.org/2000/svg" xmlns:xlink="http://www.w3.org/1999/xlink" width="110" height="110">
	<path fill="#CF78A3" transform="matrix(1.42857 0 0 1.42857 55 47.8571)" d="M11.5 0Q11.5 0.282309 11.4861 0.564278Q11.4723 0.846247 11.4446 1.1272Q11.417 1.40815 11.3755 1.6874Q11.3341 1.96665 11.279 2.24354Q11.224 2.52042 11.1554 2.79427Q11.0868 3.06812 11.0048 3.33827Q10.9229 3.60843 10.8278 3.87423Q10.7326 4.14004 10.6246 4.40086Q10.5166 4.66168 10.3959 4.91688Q10.2752 5.17209 10.1421 5.42106Q10.009 5.67004 9.86388 5.91218Q9.71874 6.15433 9.5619 6.38906Q9.40506 6.62379 9.23689 6.85054Q9.06871 7.07729 8.88962 7.29552Q8.71052 7.51375 8.52094 7.72293Q8.33135 7.9321 8.13173 8.13173Q7.9321 8.33135 7.72293 8.52094Q7.51375 8.71052 7.29552 8.88962Q7.07729 9.06871 6.85054 9.23689Q6.62379 9.40506 6.38906 9.5619Q6.15433 9.71874 5.91218 9.86388Q5.67004 10.009 5.42106 10.1421Q5.17209 10.2752 4.91688 10.3959Q4.66168 10.5166 4.40086 10.6246Q4.14004 10.7326 3.87423 10.8278Q3.60843 10.9229 3.33827 11.0048Q3.06812 11.0868 2.79427 11.1554Q2.52042 11.224 2.24354 11.279Q1.96665 11.3341 1.6874 11.3755Q1.40815 11.417 1.1272 11.4446Q0.846247 11.4723 0.564278 11.4861Q0.282309 11.5 0 11.5Q-0.282309 11.5 -0.564278 11.4861Q-0.846247 11.4723 -1.1272 11.4446Q-1.40815 11.417 -1.6874 11.3755Q-1.96665 11.3341 -2.24354 11.279Q-2.52042 11.224 -2.79427 11.1554Q-3.06812 11.0868 -3.33827 11.0048Q-3.60843 10.9229 -3.87423 10.8278Q-4.14004 10.7326 -4.40086 10.6246Q-4.66168 10.5166 -4.91688 10.3959Q-5.17209 10.2752 -5.42106 10.1421Q-5.67004 10.009 -5.91218 9.86388Q-6.15433 9.71874 -6.38906 9.5619Q-6.62379 9.40506 -6.85054 9.23689Q-7.07729 9.06871 -7.29552 8.88962Q-7.51375 8.71052 -7.72293 8.52094Q-7.9321 8.33135 -8.13173 8.13173Q-8.33135 7.9321 -8.52094 7.72293Q-8.71052 7.51375 -8.88962 7.29552Q-9.06871 7.07729 -9.23689 6.85054Q-9.40506 6.62379 -9.5619 6.38906Q-9.71874 6.15433 -9.86388 5.91218Q-10.009 5.67004 -10.1421 5.42106Q-10.2752 5.17209 -10.3959 4.91688Q-10.5166 4.66168 -10.6246 4.40086Q-10.7326 4.14004 -10.8278 3.87423Q-10.9229 3.60843 -11.0048 3.33827Q-11.0868 3.06812 -11.1554 2.79427Q-11.224 2.52042 -11.279 2.24354Q-11.3341 1.96665 -11.3755 1.6874Q-11.417 1.40815 -11.4446 1.1272Q-11.4723 0.846247 -11.4861 0.564278Q-11.5 0.282309 -11.5 0Q-11.5 -0.282309 -11.4861 -0.564278Q-11.4723 -0.846247 -11.4446 -1.1272Q-11.417 -1.40815 -11.3755 -1.6874Q-11.3341 -1.96665 -11.279 -2.24354Q-11.224 -2.52042 -11.1554 -2.79427Q-11.0868 -3.06812 -11.0048 -3.33827Q-10.9229 -3.60843 -10.8278 -3.87423Q-10.7326 -4.14004 -10.6246 -4.40086Q-10.5166 -4.66168 -10.3959 -4.91688Q-10.2752 -5.17209 -10.1421 -5.42106Q-10.009 -5.67004 -9.86388 -5.91218Q-9.71874 -6.15433 -9.5619 -6.38906Q-9.40506 -6.62379 -9.23689 -6.85054Q-9.06871 -7.07729 -8.88962 -7.29552Q-8.71052 -7.51375 -8.52094 -7.72293Q-8.33135 -7.9321 -8.13173 -8.13173Q-7.9321 -8.33135 -7.72293 -8.52094Q-7.51375 -8.71052 -7.29552 -8.88962Q-7.07729 -9.06871 -6.85054 -9.23689Q-6.62379 -9.40506 -6.38906 -9.5619Q-6.15433 -9.71874 -5.91218 -9.86388Q-5.67004 -10.009 -5.42106 -10.1421Q-5.17209 -10.2752 -4.91688 -10.3959Q-4.66168 -10.5166 -4.40086 -10.6246Q-4.14004 -10.7326 -3.87423 -10.8278Q-3.60843 -10.9229 -3.33827 -11.0048Q-3.06812 -11.0868 -2.79427 -11.1554Q-2.52042 -11.224 -2.24354 -11.279Q-1.96665 -11.3341 -1.6874 -11.3755Q-1.40815 -11.417 -1.1272 -11.4446Q-0.846247 -11.4723 -0.564278 -11.4861Q-0.282309 -11.5 0 -11.5Q0.282309 -11.5 0.564278 -11.4861Q0.846247 -11.4723 1.1272 -11.4446Q1.40815 -11.417 1.6874 -11.3755Q1.96665 -11.3341 2.24354 -11.279Q2.52042 -11.224 2.79427 -11.1554Q3.06812 -11.0868 3.33827 -11.0048Q3.60843 -10.9229 3.87423 -10.8278Q4.14004 -10.7326 4.40086 -10.6246Q4.66168 -10.5166 4.91688 -10.3959Q5.17209 -10.2752 5.42106 -10.1421Q5.67004 -10.009 5.91218 -9.86388Q6.15433 -9.71874 6.38906 -9.5619Q6.62379 -9.40506 6.85054 -9.23689Q7.07729 -9.06871 7.29552 -8.88962Q7.51375 -8.71052 7.72293 -8.52094Q7.9321 -8.33135 8.13173 -8.13173Q8.33135 -7.9321 8.52094 -7.72293Q8.71052 -7.51375 8.88962 -7.29552Q9.06871 -7.07729 9.23689 -6.85054Q9.40506 -6.62379 9.5619 -6.38906Q9.71874 -6.15433 9.86388 -5.91218Q10.009 -5.67004 10.1421 -5.42106Q10.2752 -5.17209 10.3959 -4.91688Q10.5166 -4.66168 10.6246 -4.40086Q10.7326 -4.14004 10.8278 -3.87423Q10.9229 -3.60843 11.0048 -3.33827Q11.0868 -3.06812 11.1554 -2.79427Q11.224 -2.52042 11.279 -2.24354Q11.3341 -1.96665 11.3755 -1.6874Q11.417 -1.40815 11.4446 -1.1272Q11.4723 -0.846247 11.4861 -0.564278Q11.5 -0.282309 11.5 0"/>
	<path fill="#FF94C9" transform="matrix(1.42857 0 0 1.42857 55 47.8571)" d="M8.5 0Q8.5 0.208663 8.48976 0.417075Q8.47952 0.625487 8.45907 0.833146Q8.43862 1.0408 8.408 1.24721Q8.37738 1.45361 8.33667 1.65827Q8.29597 1.86292 8.24527 2.06533Q8.19456 2.26774 8.13399 2.46742Q8.07342 2.6671 8.00312 2.86356Q7.93283 3.06003 7.85298 3.25281Q7.77312 3.44559 7.68391 3.63422Q7.59469 3.82285 7.49633 4.00687Q7.39797 4.1909 7.29069 4.36987Q7.18342 4.54885 7.06749 4.72235Q6.95156 4.89584 6.82726 5.06344Q6.70296 5.23104 6.57059 5.39234Q6.43821 5.55364 6.29808 5.70825Q6.15795 5.86286 6.01041 6.01041Q5.86286 6.15795 5.70825 6.29808Q5.55364 6.43821 5.39234 6.57059Q5.23104 6.70296 5.06344 6.82726Q4.89584 6.95156 4.72235 7.06749Q4.54885 7.18342 4.36987 7.29069Q4.1909 7.39797 4.00687 7.49633Q3.82285 7.59469 3.63422 7.68391Q3.44559 7.77312 3.25281 7.85298Q3.06003 7.93283 2.86356 8.00312Q2.6671 8.07342 2.46742 8.13399Q2.26774 8.19456 2.06533 8.24527Q1.86292 8.29597 1.65827 8.33667Q1.45361 8.37738 1.24721 8.408Q1.0408 8.43862 0.833146 8.45907Q0.625487 8.47952 0.417075 8.48976Q0.208663 8.5 0 8.5Q-0.208663 8.5 -0.417075 8.48976Q-0.625487 8.47952 -0.833146 8.45907Q-1.0408 8.43862 -1.24721 8.408Q-1.45361 8.37738 -1.65827 8.33667Q-1.86292 8.29597 -2.06533 8.24527Q-2.26774 8.19456 -2.46742 8.13399Q-2.6671 8.07342 -2.86356 8.00312Q-3.06003 7.93283 -3.25281 7.85298Q-3.44559 7.77312 -3.63422 7.68391Q-3.82285 7.59469 -4.00687 7.49633Q-4.1909 7.39797 -4.36987 7.29069Q-4.54885 7.18342 -4.72235 7.06749Q-4.89584 6.95156 -5.06344 6.82726Q-5.23104 6.70296 -5.39234 6.57059Q-5.55364 6.43821 -5.70825 6.29808Q-5.86286 6.15795 -6.01041 6.01041Q-6.15795 5.86286 -6.29808 5.70825Q-6.43821 5.55364 -6.57059 5.39234Q-6.70296 5.23104 -6.82726 5.06344Q-6.95156 4.89584 -7.06749 4.72235Q-7.18342 4.54885 -7.29069 4.36987Q-7.39797 4.1909 -7.49633 4.00687Q-7.59469 3.82285 -7.68391 3.63422Q-7.77312 3.44559 -7.85298 3.25281Q-7.93283 3.06003 -8.00312 2.86356Q-8.07342 2.6671 -8.13399 2.46742Q-8.19456 2.26774 -8.24527 2.06533Q-8.29597 1.86292 -8.33667 1.65827Q-8.37738 1.45361 -8.408 1.24721Q-8.43862 1.0408 -8.45907 0.833146Q-8.47952 0.625487 -8.48976 0.417075Q-8.5 0.208663 -8.5 0Q-8.5 -0.208663 -8.48976 -0.417075Q-8.47952 -0.625487 -8.45907 -0.833146Q-8.43862 -1.0408 -8.408 -1.24721Q-8.37738 -1.45361 -8.33667 -1.65827Q-8.29597 -1.86292 -8.24527 -2.06533Q-8.19456 -2.26774 -8.13399 -2.46742Q-8.07342 -2.6671 -8.00312 -2.86356Q-7.93283 -3.06003 -7.85298 -3.25281Q-7.77312 -3.44559 -7.68391 -3.63422Q-7.59469 -3.82285 -7.49633 -4.00687Q-7.39797 -4.1909 -7.29069 -4.36987Q-7.18342 -4.54885 -7.06749 -4.72235Q-6.95156 -4.89584 -6.82726 -5.06344Q-6.70296 -5.23104 -6.57059 -5.39234Q-6.43821 -5.55364 -6.29808 -5.70825Q-6.15795 -5.86286 -6.01041 -6.01041Q-5.86286 -6.15795 -5.70825 -6.29808Q-5.55364 -6.43821 -5.39234 -6.57059Q-5.23104 -6.70296 -5.06344 -6.82726Q-4.89584 -6.95156 -4.72235 -7.06749Q-4.54885 -7.18342 -4.36987 -7.29069Q-4.1909 -7.39797 -4.00687 -7.49633Q-3.82285 -7.59469 -3.63422 -7.68391Q-3.44559 -7.77312 -3.25281 -7.85298Q-3.06003 -7.93283 -2.86356 -8.00312Q-2.6671 -8.07342 -2.46742 -8.13399Q-2.26774 -8.19456 -2.06533 -8.24527Q-1.86292 -8.29597 -1.65827 -8.33667Q-1.45361 -8.37738 -1.24721 -8.408Q-1.0408 -8.43862 -0.833146 -8.45907Q-0.625487 -8.47952 -0.417075 -8.48976Q-0.208663 -8.5 0 -8.5Q0.208663 -8.5 0.417075 -8.48976Q0.625487 -8.47952 0.833146 -8.45907Q1.0408 -8.43862 1.24721 -8.408Q1.45361 -8.37738 1.65827 -8.33667Q1.86292 -8.29597 2.06533 -8.24527Q2.26774 -8.19456 2.46742 -8.13399Q2.6671 -8.07342 2.86356 -8.00312Q3.06003 -7.93283 3.25281 -7.85298Q3.44559 -7.77312 3.63422 -7.68391Q3.82285 -7.59469 4.00687 -7.49633Q4.1909 -7.39797 4.36987 -7.29069Q4.54885 -7.18342 4.72235 -7.06749Q4.89584 -6.95156 5.06344 -6.82726Q5.23104 -6.70296 5.39234 -6.57059Q5.55364 -6.43821 5.70825 -6.29808Q5.86286 -6.15795 6.01041 -6.01041Q6.15795 -5.86286 6.29808 -5.70825Q6.43821 -5.55364 6.57059 -5.39234Q6.70296 -5.23104 6.82726 -5.06344Q6.95156 -4.89584 7.06749 -4.72235Q7.18342 -4.54885 7.29069 -4.36987Q7.39797 -4.1909 7.49633 -4.00687Q7.59469 -3.82285 7.68391 -3.63422Q7.77312 -3.44559 7.85298 -3.25281Q7.93283 -3.06003 8.00312 -2.86356Q8.07342 -2.6671 8.13399 -2.46742Q8.19456 -2.26774 8.24527 -2.06533Q8.29597 -1.86292 8.33667 -1.65827Q8.37738 -1.45361 8.408 -1.24721Q8.43862 -1.0408 8.45907 -0.833146Q8.47952 -0.625487 8.48976 -0.417075Q8.5 -0.208663 8.5 0"/>
	<path fill="none" stroke="black" stroke-width="2.3999999" stroke-linejoin="round" transform="translate(55 79.2857)" d="M-17.7708 -6.58855Q-14.6507 -6.58855 -12.9905 -5.48016Q-11.3304 -4.37176 -11.3304 -2.02801Q-11.3304 -0.568047 -11.9993 0.340156Q-12.6683 1.24836 -13.928 1.77082Q-13.5081 2.2884 -13.0491 2.96223Q-12.5901 3.63117 -12.1409 4.36359Q-11.6917 5.09113 -11.2718 5.88215Q-10.8519 6.66828 -10.4905 7.43L-13.9915 7.43Q-14.3724 6.75129 -14.763 6.05305Q-15.1487 5.34992 -15.5589 4.69074Q-15.969 4.03156 -16.3694 3.44074Q-16.7698 2.84992 -17.1702 2.37141L-18.7083 2.37141L-18.7083 7.43L-21.8284 7.43L-21.8284 -6.23211Q-20.8079 -6.4323 -19.719 -6.51043Q-18.6302 -6.58855 -17.7708 -6.58855ZM-17.5901 -3.9323Q-17.9319 -3.9323 -18.2005 -3.90789Q-18.469 -3.88836 -18.7083 -3.86883L-18.7083 -0.109063L-17.8294 -0.109063Q-16.0716 -0.109063 -15.3099 -0.548516Q-14.5481 -0.987969 -14.5481 -2.05242Q-14.5481 -3.06805 -15.3196 -3.49773Q-16.0911 -3.9323 -17.5901 -3.9323ZM1.15024 2.15168Q1.15024 3.39191 0.78891 4.42219Q0.427582 5.44758 -0.251129 6.18Q-0.92984 6.91242 -1.88199 7.31281Q-2.82925 7.70832 -4.01089 7.70832Q-5.16812 7.70832 -6.12027 7.31281Q-7.07242 6.91242 -7.75113 6.18Q-8.42984 5.44758 -8.8107 4.42219Q-9.19156 3.39191 -9.19156 2.15168Q-9.19156 0.911445 -8.80093 -0.109063Q-8.41031 -1.12957 -7.72183 -1.84734Q-7.02847 -2.57 -6.08121 -2.97039Q-5.12906 -3.37078 -4.01089 -3.37078Q-2.86832 -3.37078 -1.92105 -2.97039Q-0.968903 -2.57 -0.290192 -1.84734Q0.388519 -1.12957 0.769379 -0.109063Q1.15024 0.911445 1.15024 2.15168ZM-1.89175 2.15168Q-1.89175 0.769844 -2.44351 -0.021172Q-2.99039 -0.812188 -4.01089 -0.812188Q-5.0314 -0.812188 -5.59293 -0.021172Q-6.14957 0.769844 -6.14957 2.15168Q-6.14957 3.52863 -5.59293 4.33918Q-5.0314 5.14973 -4.01089 5.14973Q-2.99039 5.14973 -2.44351 4.33918Q-1.89175 3.52863 -1.89175 2.15168ZM6.46893 5.29133Q7.28925 5.29133 7.62616 5.1302Q7.96796 4.96906 7.96796 4.51008Q7.96796 4.14875 7.5285 3.8802Q7.08905 3.61164 6.19061 3.26984Q5.49237 3.01105 4.92108 2.73273Q4.34979 2.44953 3.9494 2.05891Q3.54901 1.66828 3.32928 1.13117Q3.10956 0.58918 3.10956 -0.167656Q3.10956 -1.65203 4.20819 -2.51141Q5.31171 -3.37078 7.23065 -3.37078Q8.18768 -3.37078 9.06659 -3.19988Q9.95038 -3.02898 10.468 -2.82879L9.95038 -0.509453Q9.42792 -0.690117 8.81757 -0.826836Q8.2121 -0.968438 7.45038 -0.968438Q6.04901 -0.968438 6.04901 -0.19207Q6.04901 -0.0114064 6.1076 0.130195Q6.17108 0.271797 6.35175 0.403633Q6.53241 0.530586 6.84003 0.681953Q7.14764 0.828437 7.63104 1.0091Q8.6076 1.37043 9.24725 1.72199Q9.89178 2.06867 10.258 2.47883Q10.6291 2.88898 10.7805 3.39191Q10.9318 3.88996 10.9318 4.54914Q10.9318 6.11164 9.75995 6.91242Q8.58807 7.70832 6.4494 7.70832Q5.04803 7.70832 4.11542 7.46906Q3.18768 7.2298 2.83124 7.06867L3.32928 4.65168Q4.091 4.94953 4.8869 5.12043Q5.68768 5.29133 6.46893 5.29133ZM12.6484 2.24934Q12.6484 0.847969 13.0781 -0.201836Q13.5078 -1.25164 14.206 -1.94988Q14.9092 -2.64813 15.8174 -3.00945Q16.7305 -3.37078 17.6924 -3.37078Q19.9287 -3.37078 21.2275 -1.99871Q22.5312 -0.631524 22.5312 2.02961Q22.5312 2.2884 22.5117 2.6009Q22.4922 2.90852 22.4678 3.14777L15.7099 3.14777Q15.8076 4.07062 16.5693 4.61262Q17.331 5.14973 18.6103 5.14973Q19.4306 5.14973 20.2168 5.00324Q21.0078 4.85187 21.5107 4.63215L21.9111 7.04914Q21.6719 7.17121 21.2715 7.29328Q20.8711 7.41047 20.3779 7.49836Q19.8896 7.59113 19.3281 7.64973Q18.7715 7.70832 18.2099 7.70832Q16.789 7.70832 15.7392 7.2884Q14.6894 6.86848 13.9961 6.14094Q13.3076 5.40852 12.9756 4.41242Q12.6484 3.41145 12.6484 2.24934ZM19.6504 1.11164Q19.6308 0.730781 19.5185 0.369453Q19.4111 0.00812483 19.1816 -0.270195Q18.9521 -0.548516 18.6006 -0.72918Q18.249 -0.909844 17.7314 -0.909844Q17.2285 -0.909844 16.8672 -0.738945Q16.5107 -0.568047 16.2715 -0.289727Q16.0322 -0.0114064 15.9004 0.359687Q15.7685 0.730781 15.7099 1.11164L19.6504 1.11164Z"/>
	<path fill="white" transform="translate(55 79.2857)" d="M-17.7708 -6.58855Q-14.6507 -6.58855 -12.9905 -5.48016Q-11.3304 -4.37176 -11.3304 -2.02801Q-11.3304 -0.568047 -11.9993 0.340156Q-12.6683 1.24836 -13.928 1.77082Q-13.5081 2.2884 -13.0491 2.96223Q-12.5901 3.63117 -12.1409 4.36359Q-11.6917 5.09113 -11.2718 5.88215Q-10.8519 6.66828 -10.4905 7.43L-13.9915 7.43Q-14.3724 6.75129 -14.763 6.05305Q-15.1487 5.34992 -15.5589 4.69074Q-15.969 4.03156 -16.3694 3.44074Q-16.7698 2.84992 -17.1702 2.37141L-18.7083 2.37141L-18.7083 7.43L-21.8284 7.43L-21.8284 -6.23211Q-20.8079 -6.4323 -19.719 -6.51043Q-18.6302 -6.58855 -17.7708 -6.58855ZM-17.5901 -3.9323Q-17.9319 -3.9323 -18.2005 -3.90789Q-18.469 -3.88836 -18.7083 -3.86883L-18.7083 -0.109063L-17.8294 -0.109063Q-16.0716 -0.109063 -15.3099 -0.548516Q-14.5481 -0.987969 -14.5481 -2.05242Q-14.5481 -3.06805 -15.3196 -3.49773Q-16.0911 -3.9323 -17.5901 -3.9323ZM1.15024 2.15168Q1.15024 3.39191 0.78891 4.42219Q0.427582 5.44758 -0.251129 6.18Q-0.92984 6.91242 -1.88199 7.31281Q-2.82925 7.70832 -4.01089 7.70832Q-5.16812 7.70832 -6.12027 7.31281Q-7.07242 6.91242 -7.75113 6.18Q-8.42984 5.44758 -8.8107 4.42219Q-9.19156 3.39191 -9.19156 2.15168Q-9.19156 0.911445 -8.80093 -0.109063Q-8.41031 -1.12957 -7.72183 -1.84734Q-7.02847 -2.57 -6.08121 -2.97039Q-5.12906 -3.37078 -4.01089 -3.37078Q-2.86832 -3.37078 -1.92105 -2.97039Q-0.968903 -2.57 -0.290192 -1.84734Q0.388519 -1.12957 0.769379 -0.109063Q1.15024 0.911445 1.15024 2.15168ZM-1.89175 2.15168Q-1.89175 0.769844 -2.44351 -0.021172Q-2.99039 -0.812188 -4.01089 -0.812188Q-5.0314 -0.812188 -5.59293 -0.021172Q-6.14957 0.769844 -6.14957 2.15168Q-6.14957 3.52863 -5.59293 4.33918Q-5.0314 5.14973 -4.01089 5.14973Q-2.99039 5.14973 -2.44351 4.33918Q-1.89175 3.52863 -1.89175 2.15168ZM6.46893 5.29133Q7.28925 5.29133 7.62616 5.1302Q7.96796 4.96906 7.96796 4.51008Q7.96796 4.14875 7.5285 3.8802Q7.08905 3.61164 6.19061 3.26984Q5.49237 3.01105 4.92108 2.73273Q4.34979 2.44953 3.9494 2.05891Q3.54901 1.66828 3.32928 1.13117Q3.10956 0.58918 3.10956 -0.167656Q3.10956 -1.65203 4.20819 -2.51141Q5.31171 -3.37078 7.23065 -3.37078Q8.18768 -3.37078 9.06659 -3.19988Q9.95038 -3.02898 10.468 -2.82879L9.95038 -0.509453Q9.42792 -0.690117 8.81757 -0.826836Q8.2121 -0.968438 7.45038 -0.968438Q6.04901 -0.968438 6.04901 -0.19207Q6.04901 -0.0114064 6.1076 0.130195Q6.17108 0.271797 6.35175 0.403633Q6.53241 0.530586 6.84003 0.681953Q7.14764 0.828437 7.63104 1.0091Q8.6076 1.37043 9.24725 1.72199Q9.89178 2.06867 10.258 2.47883Q10.6291 2.88898 10.7805 3.39191Q10.9318 3.88996 10.9318 4.54914Q10.9318 6.11164 9.75995 6.91242Q8.58807 7.70832 6.4494 7.70832Q5.04803 7.70832 4.11542 7.46906Q3.18768 7.2298 2.83124 7.06867L3.32928 4.65168Q4.091 4.94953 4.8869 5.12043Q5.68768 5.29133 6.46893 5.29133ZM12.6484 2.24934Q12.6484 0.847969 13.0781 -0.201836Q13.5078 -1.25164 14.206 -1.94988Q14.9092 -2.64813 15.8174 -3.00945Q16.7305 -3.37078 17.6924 -3.37078Q19.9287 -3.37078 21.2275 -1.99871Q22.5312 -0.631524 22.5312 2.02961Q22.5312 2.2884 22.5117 2.6009Q22.4922 2.90852 22.4678 3.14777L15.7099 3.14777Q15.8076 4.07062 16.5693 4.61262Q17.331 5.14973 18.6103 5.14973Q19.4306 5.14973 20.2168 5.00324Q21.0078 4.85187 21.5107 4.63215L21.9111 7.04914Q21.6719 7.17121 21.2715 7.29328Q20.8711 7.41047 20.3779 7.49836Q19.8896 7.59113 19.3281 7.64973Q18.7715 7.70832 18.2099 7.70832Q16.789 7.70832 15.7392 7.2884Q14.6894 6.86848 13.9961 6.14094Q13.3076 5.40852 12.9756 4.41242Q12.6484 3.41145 12.6484 2.24934ZM19.6504 1.11164Q19.6308 0.730781 19.5185 0.369453Q19.4111 0.00812483 19.1816 -0.270195Q18.9521 -0.548516 18.6006 -0.72918Q18.249 -0.909844 17.7314 -0.909844Q17.2285 -0.909844 16.8672 -0.738945Q16.5107 -0.568047 16.2715 -0.289727Q16.0322 -0.0114064 15.9004 0.359687Q15.7685 0.730781 15.7099 1.11164L19.6504 1.11164Z"/>
</svg>
