<?xml version="1.0" encoding="utf-8" ?>
<svg xmlns="http://www.w3.org/2000/svg" xmlns:xlink="http://www.w3.org/1999/xlink" width="110" height="110">
	<path fill="#CFC295" transform="matrix(1.42857 0 0 1.42857 69.2857 47.8571)" d="M14 0Q14 0.343681 13.9831 0.686947Q13.9663 1.03021 13.9326 1.37224Q13.8989 1.71427 13.8485 2.05423Q13.798 2.39419 13.731 2.73126Q13.6639 3.06834 13.5804 3.40172Q13.4969 3.7351 13.3972 4.06398Q13.2974 4.39287 13.1816 4.71646Q13.0658 5.04005 12.9343 5.35757Q12.8028 5.67509 12.6558 5.98577Q12.5089 6.29645 12.3469 6.59955Q12.1849 6.90265 12.0082 7.19744Q11.8315 7.49222 11.6406 7.77798Q11.4496 8.06374 11.2449 8.33979Q11.0402 8.61584 10.8221 8.88151Q10.6041 9.14717 10.3733 9.40182Q10.1425 9.65648 9.89949 9.89949Q9.65648 10.1425 9.40182 10.3733Q9.14717 10.6041 8.88151 10.8221Q8.61584 11.0402 8.33979 11.2449Q8.06374 11.4496 7.77798 11.6406Q7.49222 11.8315 7.19744 12.0082Q6.90265 12.1849 6.59955 12.3469Q6.29645 12.5089 5.98577 12.6558Q5.67509 12.8028 5.35757 12.9343Q5.04005 13.0658 4.71646 13.1816Q4.39287 13.2974 4.06399 13.3972Q3.7351 13.4969 3.40172 13.5804Q3.06834 13.6639 2.73126 13.731Q2.39419 13.798 2.05423 13.8485Q1.71427 13.8989 1.37224 13.9326Q1.03021 13.9663 0.686947 13.9831Q0.343681 14 0 14Q-0.343681 14 -0.686947 13.9831Q-1.03021 13.9663 -1.37224 13.9326Q-1.71427 13.8989 -2.05423 13.8485Q-2.39419 13.798 -2.73126 13.731Q-3.06834 13.6639 -3.40172 13.5804Q-3.7351 13.4969 -4.06398 13.3972Q-4.39287 13.2974 -4.71646 13.1816Q-5.04005 13.0658 -5.35757 12.9343Q-5.67509 12.8028 -5.98577 12.6558Q-6.29645 12.5089 -6.59955 12.3469Q-6.90265 12.1849 -7.19744 12.0082Q-7.49222 11.8315 -7.77798 11.6406Q-8.06374 11.4496 -8.33979 11.2449Q-8.61584 11.0402 -8.88151 10.8221Q-9.14717 10.6041 -9.40182 10.3733Q-9.65648 10.1425 -9.89949 9.89949Q-10.1425 9.65648 -10.3733 9.40182Q-10.6041 9.14717 -10.8221 8.88151Q-11.0402 8.61584 -11.2449 8.33979Q-11.4496 8.06374 -11.6406 7.77798Q-11.8315 7.49222 -12.0082 7.19744Q-12.1849 6.90265 -12.3469 6.59955Q-12.5089 6.29645 -12.6558 5.98577Q-12.8028 5.67509 -12.9343 5.35757Q-13.0658 5.04005 -13.1816 4.71646Q-13.2974 4.39287 -13.3972 4.06399Q-13.4969 3.7351 -13.5804 3.40172Q-13.6639 3.06834 -13.731 2.73126Q-13.798 2.39419 -13.8485 2.05423Q-13.8989 1.71427 -13.9326 1.37224Q-13.9663 1.03021 -13.9831 0.686947Q-14 0.343681 -14 0Q-14 -0.343681 -13.9831 -0.686947Q-13.9663 -1.03021 -13.9326 -1.37224Q-13.8989 -1.71427 -13.8485 -2.05423Q-13.798 -2.39419 -13.731 -2.73126Q-13.6639 -3.06834 -13.5804 -3.40172Q-13.4969 -3.7351 -13.3972 -4.06398Q-13.2974 -4.39287 -13.1816 -4.71646Q-13.0658 -5.04005 -12.9343 -5.35757Q-12.8028 -5.67509 -12.6558 -5.98577Q-12.5089 -6.29645 -12.3469 -6.59955Q-12.1849 -6.90265 -12.0082 -7.19744Q-11.8315 -7.49222 -11.6406 -7.77798Q-11.4496 -8.06374 -11.2449 -8.33979Q-11.0402 -8.61584 -10.8221 -8.88151Q-10.6041 -9.14717 -10.3733 -9.40182Q-10.1425 -9.65648 -9.89949 -9.89949Q-9.65648 -10.1425 -9.40182 -10.3733Q-9.14717 -10.6041 -8.88151 -10.8221Q-8.61584 -11.0402 -8.33979 -11.2449Q-8.06374 -11.4496 -7.77798 -11.6406Q-7.49222 -11.8315 -7.19744 -12.0082Q-6.90265 -12.1849 -6.59955 -12.3469Q-6.29645 -12.5089 -5.98577 -12.6558Q-5.67509 -12.8028 -5.35757 -12.9343Q-5.04005 -13.0658 -4.71646 -13.1816Q-4.39287 -13.2974 -4.06399 -13.3972Q-3.7351 -13.4969 -3.40172 -13.5804Q-3.06834 -13.6639 -2.73126 -13.731Q-2.39419 -13.798 -2.05423 -13.8485Q-1.71427 -13.8989 -1.37224 -13.9326Q-1.03021 -13.9663 -0.686947 -13.9831Q-0.343681 -14 0 -14Q0.343681 -14 0.686947 -13.9831Q1.03021 -13.9663 1.37224 -13.9326Q1.71427 -13.8989 2.05423 -13.8485Q2.39419 -13.798 2.73126 -13.731Q3.06834 -13.6639 3.40172 -13.5804Q3.7351 -13.4969 4.06398 -13.3972Q4.39287 -13.2974 4.71646 -13.1816Q5.04005 -13.0658 5.35757 -12.9343Q5.67509 -12.8028 5.98577 -12.6558Q6.29645 -12.5089 6.59955 -12.3469Q6.90265 -12.1849 7.19744 -12.0082Q7.49222 -11.8315 7.77798 -11.6406Q8.06374 -11.4496 8.33979 -11.2449Q8.61584 -11.0402 8.88151 -10.8221Q9.14717 -10.6041 9.40182 -10.3733Q9.65648 -10.1425 9.89949 -9.89949Q10.1425 -9.65648 10.3733 -9.40182Q10.6041 -9.14717 10.8221 -8.88151Q11.0402 -8.61584 11.2449 -8.33979Q11.4496 -8.06374 11.6406 -7.77798Q11.8315 -7.49222 12.0082 -7.19744Q12.1849 -6.90265 12.3469 -6.59955Q12.5089 -6.29645 12.6558 -5.98577Q12.8028 -5.67509 12.9343 -5.35757Q13.0658 -5.04005 13.1816 -4.71646Q13.2974 -4.39287 13.3972 -4.06399Q13.4969 -3.7351 13.5804 -3.40172Q13.6639 -3.06834 13.731 -2.73126Q13.798 -2.39419 13.8485 -2.05423Q13.8989 -1.71427 13.9326 -1.37224Q13.9663 -1.03021 13.9831 -0.686947Q14 -0.343681 14 0"/>
	<path fill="#FFF0B8" transform="matrix(1.42857 0 0 1.42857 69.2857 47.8571)" d="M11.2 0Q11.2 0.274945 11.1865 0.549558Q11.173 0.824171 11.1461 1.09779Q11.1191 1.37141 11.0788 1.64338Q11.0384 1.91535 10.9848 2.18501Q10.9312 2.45467 10.8643 2.72138Q10.7975 2.98808 10.7177 3.25119Q10.6379 3.51429 10.5453 3.77317Q10.4527 4.03204 10.3475 4.28605Q10.2422 4.54007 10.1247 4.78862Q10.0071 5.03716 9.87752 5.27964Q9.74791 5.52212 9.60656 5.75795Q9.46521 5.99378 9.31246 6.22239Q9.15971 6.45099 8.99592 6.67183Q8.83214 6.89267 8.65772 7.1052Q8.48329 7.31774 8.29865 7.52146Q8.11401 7.72518 7.9196 7.9196Q7.72518 8.11401 7.52146 8.29865Q7.31774 8.48329 7.10521 8.65772Q6.89267 8.83214 6.67183 8.99592Q6.45099 9.15971 6.22239 9.31246Q5.99378 9.46521 5.75795 9.60656Q5.52212 9.74791 5.27964 9.87752Q5.03716 10.0071 4.78862 10.1247Q4.54007 10.2422 4.28605 10.3474Q4.03204 10.4527 3.77317 10.5453Q3.51429 10.6379 3.25119 10.7177Q2.98808 10.7975 2.72138 10.8643Q2.45467 10.9312 2.18501 10.9848Q1.91535 11.0384 1.64338 11.0788Q1.37141 11.1191 1.09779 11.1461Q0.824171 11.173 0.549558 11.1865Q0.274945 11.2 0 11.2Q-0.274945 11.2 -0.549558 11.1865Q-0.824171 11.173 -1.09779 11.1461Q-1.37141 11.1191 -1.64338 11.0788Q-1.91535 11.0384 -2.18501 10.9848Q-2.45467 10.9312 -2.72138 10.8643Q-2.98808 10.7975 -3.25119 10.7177Q-3.51429 10.6379 -3.77317 10.5453Q-4.03204 10.4527 -4.28605 10.3475Q-4.54007 10.2422 -4.78862 10.1247Q-5.03716 10.0071 -5.27964 9.87752Q-5.52212 9.74791 -5.75795 9.60656Q-5.99378 9.46521 -6.22239 9.31246Q-6.45099 9.15971 -6.67183 8.99592Q-6.89267 8.83214 -7.1052 8.65772Q-7.31774 8.48329 -7.52146 8.29865Q-7.72518 8.11401 -7.9196 7.9196Q-8.11401 7.72518 -8.29865 7.52146Q-8.48329 7.31774 -8.65772 7.10521Q-8.83214 6.89267 -8.99592 6.67183Q-9.15971 6.45099 -9.31246 6.22239Q-9.46521 5.99378 -9.60656 5.75795Q-9.74791 5.52212 -9.87752 5.27964Q-10.0071 5.03716 -10.1247 4.78862Q-10.2422 4.54007 -10.3474 4.28605Q-10.4527 4.03204 -10.5453 3.77317Q-10.6379 3.51429 -10.7177 3.25119Q-10.7975 2.98808 -10.8643 2.72138Q-10.9312 2.45467 -10.9848 2.18501Q-11.0384 1.91535 -11.0788 1.64338Q-11.1191 1.37141 -11.1461 1.09779Q-11.173 0.824171 -11.1865 0.549558Q-11.2 0.274945 -11.2 0Q-11.2 -0.274945 -11.1865 -0.549558Q-11.173 -0.824171 -11.1461 -1.09779Q-11.1191 -1.37141 -11.0788 -1.64338Q-11.0384 -1.91535 -10.9848 -2.18501Q-10.9312 -2.45467 -10.8643 -2.72138Q-10.7975 -2.98808 -10.7177 -3.25119Q-10.6379 -3.51429 -10.5453 -3.77317Q-10.4527 -4.03204 -10.3475 -4.28605Q-10.2422 -4.54007 -10.1247 -4.78862Q-10.0071 -5.03716 -9.87752 -5.27964Q-9.74791 -5.52212 -9.60656 -5.75795Q-9.46521 -5.99378 -9.31246 -6.22239Q-9.15971 -6.45099 -8.99592 -6.67183Q-8.83214 -6.89267 -8.65772 -7.1052Q-8.48329 -7.31774 -8.29865 -7.52146Q-8.11401 -7.72518 -7.9196 -7.9196Q-7.72518 -8.11401 -7.52146 -8.29865Q-7.31774 -8.48329 -7.10521 -8.65772Q-6.89267 -8.83214 -6.67183 -8.99592Q-6.45099 -9.15971 -6.22239 -9.31246Q-5.99378 -9.46521 -5.75795 -9.60656Q-5.52212 -9.74791 -5.27964 -9.87752Q-5.03716 -10.0071 -4.78862 -10.1247Q-4.54007 -10.2422 -4.28605 -10.3474Q-4.03204 -10.4527 -3.77317 -10.5453Q-3.51429 -10.6379 -3.25119 -10.7177Q-2.98808 -10.7975 -2.72138 -10.8643Q-2.45467 -10.9312 -2.18501 -10.9848Q-1.91535 -11.0384 -1.64338 -11.0788Q-1.37141 -11.1191 -1.09779 -11.1461Q-0.824171 -11.173 -0.549558 -11.1865Q-0.274945 -11.2 0 -11.2Q0.274945 -11.2 0.549558 -11.1865Q0.824171 -11.173 1.09779 -11.1461Q1.37141 -11.1191 1.64338 -11.0788Q1.91535 -11.0384 2.18501 -10.9848Q2.45467 -10.9312 2.72138 -10.8643Q2.98808 -10.7975 3.25119 -10.7177Q3.51429 -10.6379 3.77317 -10.5453Q4.03204 -10.4527 4.28605 -10.3475Q4.54007 -10.2422 4.78862 -10.1247Q5.03716 -10.0071 5.27964 -9.87752Q5.52212 -9.74791 5.75795 -9.60656Q5.99378 -9.46521 6.22239 -9.31246Q6.45099 -9.15971 6.67183 -8.99592Q6.89267 -8.83214 7.1052 -8.65772Q7.31774 -8.48329 7.52146 -8.29865Q7.72518 -8.11401 7.9196 -7.9196Q8.11401 -7.72518 8.29865 -7.52146Q8.48329 -7.31774 8.65772 -7.10521Q8.83214 -6.89267 8.99592 -6.67183Q9.15971 -6.45099 9.31246 -6.22239Q9.46521 -5.99378 9.60656 -5.75795Q9.74791 -5.52212 9.87752 -5.27964Q10.0071 -5.03716 10.1247 -4.78862Q10.2422 -4.54007 10.3474 -4.28605Q10.4527 -4.03204 10.5453 -3.77317Q10.6379 -3.51429 10.7177 -3.25119Q10.7975 -2.98808 10.8643 -2.72138Q10.9312 -2.45467 10.9848 -2.18501Q11.0384 -1.91535 11.0788 -1.64338Q11.1191 -1.37141 11.1461 -1.09779Q11.173 -0.824171 11.1865 -0.549558Q11.2 -0.274945 11.2 0"/>
	<path fill="#CFC295" transform="matrix(0 1.42857 -1.42857 0 55 62.1429)" d="M14 0Q14 0.343681 13.9831 0.686947Q13.9663 1.03021 13.9326 1.37224Q13.8989 1.71427 13.8485 2.05423Q13.798 2.39419 13.731 2.73126Q13.6639 3.06834 13.5804 3.40172Q13.4969 3.7351 13.3972 4.06398Q13.2974 4.39287 13.1816 4.71646Q13.0658 5.04005 12.9343 5.35757Q12.8028 5.67509 12.6558 5.98577Q12.5089 6.29645 12.3469 6.59955Q12.1849 6.90265 12.0082 7.19744Q11.8315 7.49222 11.6406 7.77798Q11.4496 8.06374 11.2449 8.33979Q11.0402 8.61584 10.8221 8.88151Q10.6041 9.14717 10.3733 9.40182Q10.1425 9.65648 9.89949 9.89949Q9.65648 10.1425 9.40182 10.3733Q9.14717 10.6041 8.88151 10.8221Q8.61584 11.0402 8.33979 11.2449Q8.06374 11.4496 7.77798 11.6406Q7.49222 11.8315 7.19744 12.0082Q6.90265 12.1849 6.59955 12.3469Q6.29645 12.5089 5.98577 12.6558Q5.67509 12.8028 5.35757 12.9343Q5.04005 13.0658 4.71646 13.1816Q4.39287 13.2974 4.06399 13.3972Q3.7351 13.4969 3.40172 13.5804Q3.06834 13.6639 2.73126 13.731Q2.39419 13.798 2.05423 13.8485Q1.71427 13.8989 1.37224 13.9326Q1.03021 13.9663 0.686947 13.9831Q0.343681 14 0 14Q-0.343681 14 -0.686947 13.9831Q-1.03021 13.9663 -1.37224 13.9326Q-1.71427 13.8989 -2.05423 13.8485Q-2.39419 13.798 -2.73126 13.731Q-3.06834 13.6639 -3.40172 13.5804Q-3.7351 13.4969 -4.06398 13.3972Q-4.39287 13.2974 -4.71646 13.1816Q-5.04005 13.0658 -5.35757 12.9343Q-5.67509 12.8028 -5.98577 12.6558Q-6.29645 12.5089 -6.59955 12.3469Q-6.90265 12.1849 -7.19744 12.0082Q-7.49222 11.8315 -7.77798 11.6406Q-8.06374 11.4496 -8.33979 11.2449Q-8.61584 11.0402 -8.88151 10.8221Q-9.14717 10.6041 -9.40182 10.3733Q-9.65648 10.1425 -9.89949 9.89949Q-10.1425 9.65648 -10.3733 9.40182Q-10.6041 9.14717 -10.8221 8.88151Q-11.0402 8.61584 -11.2449 8.33979Q-11.4496 8.06374 -11.6406 7.77798Q-11.8315 7.49222 -12.0082 7.19744Q-12.1849 6.90265 -12.3469 6.59955Q-12.5089 6.29645 -12.6558 5.98577Q-12.8028 5.67509 -12.9343 5.35757Q-13.0658 5.04005 -13.1816 4.71646Q-13.2974 4.39287 -13.3972 4.06399Q-13.4969 3.7351 -13.5804 3.40172Q-13.6639 3.06834 -13.731 2.73126Q-13.798 2.39419 -13.8485 2.05423Q-13.8989 1.71427 -13.9326 1.37224Q-13.9663 1.03021 -13.9831 0.686947Q-14 0.343681 -14 0Q-14 -0.343681 -13.9831 -0.686947Q-13.9663 -1.03021 -13.9326 -1.37224Q-13.8989 -1.71427 -13.8485 -2.05423Q-13.798 -2.39419 -13.731 -2.73126Q-13.6639 -3.06834 -13.5804 -3.40172Q-13.4969 -3.7351 -13.3972 -4.06398Q-13.2974 -4.39287 -13.1816 -4.71646Q-13.0658 -5.04005 -12.9343 -5.35757Q-12.8028 -5.67509 -12.6558 -5.98577Q-12.5089 -6.29645 -12.3469 -6.59955Q-12.1849 -6.90265 -12.0082 -7.19744Q-11.8315 -7.49222 -11.6406 -7.77798Q-11.4496 -8.06374 -11.2449 -8.33979Q-11.0402 -8.61584 -10.8221 -8.88151Q-10.6041 -9.14717 -10.3733 -9.40182Q-10.1425 -9.65648 -9.89949 -9.89949Q-9.65648 -10.1425 -9.40182 -10.3733Q-9.14717 -10.6041 -8.88151 -10.8221Q-8.61584 -11.0402 -8.33979 -11.2449Q-8.06374 -11.4496 -7.77798 -11.6406Q-7.49222 -11.8315 -7.19744 -12.0082Q-6.90265 -12.1849 -6.59955 -12.3469Q-6.29645 -12.5089 -5.98577 -12.6558Q-5.67509 -12.8028 -5.35757 -12.9343Q-5.04005 -13.0658 -4.71646 -13.1816Q-4.39287 -13.2974 -4.06399 -13.3972Q-3.7351 -13.4969 -3.40172 -13.5804Q-3.06834 -13.6639 -2.73126 -13.731Q-2.39419 -13.798 -2.05423 -13.8485Q-1.71427 -13.8989 -1.37224 -13.9326Q-1.03021 -13.9663 -0.686947 -13.9831Q-0.343681 -14 0 -14Q0.343681 -14 0.686947 -13.9831Q1.03021 -13.9663 1.37224 -13.9326Q1.71427 -13.8989 2.05423 -13.8485Q2.39419 -13.798 2.73126 -13.731Q3.06834 -13.6639 3.40172 -13.5804Q3.7351 -13.4969 4.06398 -13.3972Q4.39287 -13.2974 4.71646 -13.1816Q5.04005 -13.0658 5.35757 -12.9343Q5.67509 -12.8028 5.98577 -12.6558Q6.29645 -12.5089 6.59955 -12.3469Q6.90265 -12.1849 7.19744 -12.0082Q7.49222 -11.8315 7.77798 -11.6406Q8.06374 -11.4496 8.33979 -11.2449Q8.61584 -11.0402 8.88151 -10.8221Q9.14717 -10.6041 9.40182 -10.3733Q9.65648 -10.1425 9.89949 -9.89949Q10.1425 -9.65648 10.3733 -9.40182Q10.6041 -9.14717 10.8221 -8.88151Q11.0402 -8.61584 11.2449 -8.33979Q11.4496 -8.06374 11.6406 -7.77798Q11.8315 -7.49222 12.0082 -7.19744Q12.1849 -6.90265 12.3469 -6.59955Q12.5089 -6.29645 12.6558 -5.98577Q12.8028 -5.67509 12.9343 -5.35757Q13.0658 -5.04005 13.1816 -4.71646Q13.2974 -4.39287 13.3972 -4.06399Q13.4969 -3.7351 13.5804 -3.40172Q13.6639 -3.06834 13.731 -2.73126Q13.798 -2.39419 13.8485 -2.05423Q13.8989 -1.71427 13.9326 -1.37224Q13.9663 -1.03021 13.9831 -0.686947Q14 -0.343681 14 0"/>
	<path fill="#FFF0B8" transform="matrix(0 1.42857 -1.42857 0 55 62.1429)" d="M11.2 0Q11.2 0.274945 11.1865 0.549558Q11.173 0.824171 11.1461 1.09779Q11.1191 1.37141 11.0788 1.64338Q11.0384 1.91535 10.9848 2.18501Q10.9312 2.45467 10.8643 2.72138Q10.7975 2.98808 10.7177 3.25119Q10.6379 3.51429 10.5453 3.77317Q10.4527 4.03204 10.3475 4.28605Q10.2422 4.54007 10.1247 4.78862Q10.0071 5.03716 9.87752 5.27964Q9.74791 5.52212 9.60656 5.75795Q9.46521 5.99378 9.31246 6.22239Q9.15971 6.45099 8.99592 6.67183Q8.83214 6.89267 8.65772 7.1052Q8.48329 7.31774 8.29865 7.52146Q8.11401 7.72518 7.9196 7.9196Q7.72518 8.11401 7.52146 8.29865Q7.31774 8.48329 7.10521 8.65772Q6.89267 8.83214 6.67183 8.99592Q6.45099 9.15971 6.22239 9.31246Q5.99378 9.46521 5.75795 9.60656Q5.52212 9.74791 5.27964 9.87752Q5.03716 10.0071 4.78862 10.1247Q4.54007 10.2422 4.28605 10.3474Q4.03204 10.4527 3.77317 10.5453Q3.51429 10.6379 3.25119 10.7177Q2.98808 10.7975 2.72138 10.8643Q2.45467 10.9312 2.18501 10.9848Q1.91535 11.0384 1.64338 11.0788Q1.37141 11.1191 1.09779 11.1461Q0.824171 11.173 0.549558 11.1865Q0.274945 11.2 0 11.2Q-0.274945 11.2 -0.549558 11.1865Q-0.824171 11.173 -1.09779 11.1461Q-1.37141 11.1191 -1.64338 11.0788Q-1.91535 11.0384 -2.18501 10.9848Q-2.45467 10.9312 -2.72138 10.8643Q-2.98808 10.7975 -3.25119 10.7177Q-3.51429 10.6379 -3.77317 10.5453Q-4.03204 10.4527 -4.28605 10.3475Q-4.54007 10.2422 -4.78862 10.1247Q-5.03716 10.0071 -5.27964 9.87752Q-5.52212 9.74791 -5.75795 9.60656Q-5.99378 9.46521 -6.22239 9.31246Q-6.45099 9.15971 -6.67183 8.99592Q-6.89267 8.83214 -7.1052 8.65772Q-7.31774 8.48329 -7.52146 8.29865Q-7.72518 8.11401 -7.9196 7.9196Q-8.11401 7.72518 -8.29865 7.52146Q-8.48329 7.31774 -8.65772 7.10521Q-8.83214 6.89267 -8.99592 6.67183Q-9.15971 6.45099 -9.31246 6.22239Q-9.46521 5.99378 -9.60656 5.75795Q-9.74791 5.52212 -9.87752 5.27964Q-10.0071 5.03716 -10.1247 4.78862Q-10.2422 4.54007 -10.3474 4.28605Q-10.4527 4.03204 -10.5453 3.77317Q-10.6379 3.51429 -10.7177 3.25119Q-10.7975 2.98808 -10.8643 2.72138Q-10.9312 2.45467 -10.9848 2.18501Q-11.0384 1.91535 -11.0788 1.64338Q-11.1191 1.37141 -11.1461 1.09779Q-11.173 0.824171 -11.1865 0.549558Q-11.2 0.274945 -11.2 0Q-11.2 -0.274945 -11.1865 -0.549558Q-11.173 -0.824171 -11.1461 -1.09779Q-11.1191 -1.37141 -11.0788 -1.64338Q-11.0384 -1.91535 -10.9848 -2.18501Q-10.9312 -2.45467 -10.8643 -2.72138Q-10.7975 -2.98808 -10.7177 -3.25119Q-10.6379 -3.51429 -10.5453 -3.77317Q-10.4527 -4.03204 -10.3475 -4.28605Q-10.2422 -4.54007 -10.1247 -4.78862Q-10.0071 -5.03716 -9.87752 -5.27964Q-9.74791 -5.52212 -9.60656 -5.75795Q-9.46521 -5.99378 -9.31246 -6.22239Q-9.15971 -6.45099 -8.99592 -6.67183Q-8.83214 -6.89267 -8.65772 -7.1052Q-8.48329 -7.31774 -8.29865 -7.52146Q-8.11401 -7.72518 -7.9196 -7.9196Q-7.72518 -8.11401 -7.52146 -8.29865Q-7.31774 -8.48329 -7.10521 -8.65772Q-6.89267 -8.83214 -6.67183 -8.99592Q-6.45099 -9.15971 -6.22239 -9.31246Q-5.99378 -9.46521 -5.75795 -9.60656Q-5.52212 -9.74791 -5.27964 -9.87752Q-5.03716 -10.0071 -4.78862 -10.1247Q-4.54007 -10.2422 -4.28605 -10.3474Q-4.03204 -10.4527 -3.77317 -10.5453Q-3.51429 -10.6379 -3.25119 -10.7177Q-2.98808 -10.7975 -2.72138 -10.8643Q-2.45467 -10.9312 -2.18501 -10.9848Q-1.91535 -11.0384 -1.64338 -11.0788Q-1.37141 -11.1191 -1.09779 -11.1461Q-0.824171 -11.173 -0.549558 -11.1865Q-0.274945 -11.2 0 -11.2Q0.274945 -11.2 0.549558 -11.1865Q0.824171 -11.173 1.09779 -11.1461Q1.37141 -11.1191 1.64338 -11.0788Q1.91535 -11.0384 2.18501 -10.9848Q2.45467 -10.9312 2.72138 -10.8643Q2.98808 -10.7975 3.25119 -10.7177Q3.51429 -10.6379 3.77317 -10.5453Q4.03204 -10.4527 4.28605 -10.3475Q4.54007 -10.2422 4.78862 -10.1247Q5.03716 -10.0071 5.27964 -9.87752Q5.52212 -9.74791 5.75795 -9.60656Q5.99378 -9.46521 6.22239 -9.31246Q6.45099 -9.15971 6.67183 -8.99592Q6.89267 -8.83214 7.1052 -8.65772Q7.31774 -8.48329 7.52146 -8.29865Q7.72518 -8.11401 7.9196 -7.9196Q8.11401 -7.72518 8.29865 -7.52146Q8.48329 -7.31774 8.65772 -7.10521Q8.83214 -6.89267 8.99592 -6.67183Q9.15971 -6.45099 9.31246 -6.22239Q9.46521 -5.99378 9.60656 -5.75795Q9.74791 -5.52212 9.87752 -5.27964Q10.0071 -5.03716 10.1247 -4.78862Q10.2422 -4.54007 10.3474 -4.28605Q10.4527 -4.03204 10.5453 -3.77317Q10.6379 -3.51429 10.7177 -3.25119Q10.7975 -2.98808 10.8643 -2.72138Q10.9312 -2.45467 10.9848 -2.18501Q11.0384 -1.91535 11.0788 -1.64338Q11.1191 -1.37141 11.1461 -1.09779Q11.173 -0.824171 11.1865 -0.549558Q11.2 -0.274945 11.2 0"/>
	<path fill="#CFC295" transform="matrix(-1.42857 0 0 -1.42857 40.7143 47.8571)" d="M14 0Q14 0.343681 13.9831 0.686947Q13.9663 1.03021 13.9326 1.37224Q13.8989 1.71427 13.8485 2.05423Q13.798 2.39419 13.731 2.73126Q13.6639 3.06834 13.5804 3.40172Q13.4969 3.7351 13.3972 4.06398Q13.2974 4.39287 13.1816 4.71646Q13.0658 5.04005 12.9343 5.35757Q12.8028 5.67509 12.6558 5.98577Q12.5089 6.29645 12.3469 6.59955Q12.1849 6.90265 12.0082 7.19744Q11.8315 7.49222 11.6406 7.77798Q11.4496 8.06374 11.2449 8.33979Q11.0402 8.61584 10.8221 8.88151Q10.6041 9.14717 10.3733 9.40182Q10.1425 9.65648 9.89949 9.89949Q9.65648 10.1425 9.40182 10.3733Q9.14717 10.6041 8.88151 10.8221Q8.61584 11.0402 8.33979 11.2449Q8.06374 11.4496 7.77798 11.6406Q7.49222 11.8315 7.19744 12.0082Q6.90265 12.1849 6.59955 12.3469Q6.29645 12.5089 5.98577 12.6558Q5.67509 12.8028 5.35757 12.9343Q5.04005 13.0658 4.71646 13.1816Q4.39287 13.2974 4.06399 13.3972Q3.7351 13.4969 3.40172 13.5804Q3.06834 13.6639 2.73126 13.731Q2.39419 13.798 2.05423 13.8485Q1.71427 13.8989 1.37224 13.9326Q1.03021 13.9663 0.686947 13.9831Q0.343681 14 0 14Q-0.343681 14 -0.686947 13.9831Q-1.03021 13.9663 -1.37224 13.9326Q-1.71427 13.8989 -2.05423 13.8485Q-2.39419 13.798 -2.73126 13.731Q-3.06834 13.6639 -3.40172 13.5804Q-3.7351 13.4969 -4.06398 13.3972Q-4.39287 13.2974 -4.71646 13.1816Q-5.04005 13.0658 -5.35757 12.9343Q-5.67509 12.8028 -5.98577 12.6558Q-6.29645 12.5089 -6.59955 12.3469Q-6.90265 12.1849 -7.19744 12.0082Q-7.49222 11.8315 -7.77798 11.6406Q-8.06374 11.4496 -8.33979 11.2449Q-8.61584 11.0402 -8.88151 10.8221Q-9.14717 10.6041 -9.40182 10.3733Q-9.65648 10.1425 -9.89949 9.89949Q-10.1425 9.65648 -10.3733 9.40182Q-10.6041 9.14717 -10.8221 8.88151Q-11.0402 8.61584 -11.2449 8.33979Q-11.4496 8.06374 -11.6406 7.77798Q-11.8315 7.49222 -12.0082 7.19744Q-12.1849 6.90265 -12.3469 6.59955Q-12.5089 6.29645 -12.6558 5.98577Q-12.8028 5.67509 -12.9343 5.35757Q-13.0658 5.04005 -13.1816 4.71646Q-13.2974 4.39287 -13.3972 4.06399Q-13.4969 3.7351 -13.5804 3.40172Q-13.6639 3.06834 -13.731 2.73126Q-13.798 2.39419 -13.8485 2.05423Q-13.8989 1.71427 -13.9326 1.37224Q-13.9663 1.03021 -13.9831 0.686947Q-14 0.343681 -14 0Q-14 -0.343681 -13.9831 -0.686947Q-13.9663 -1.03021 -13.9326 -1.37224Q-13.8989 -1.71427 -13.8485 -2.05423Q-13.798 -2.39419 -13.731 -2.73126Q-13.6639 -3.06834 -13.5804 -3.40172Q-13.4969 -3.7351 -13.3972 -4.06398Q-13.2974 -4.39287 -13.1816 -4.71646Q-13.0658 -5.04005 -12.9343 -5.35757Q-12.8028 -5.67509 -12.6558 -5.98577Q-12.5089 -6.29645 -12.3469 -6.59955Q-12.1849 -6.90265 -12.0082 -7.19744Q-11.8315 -7.49222 -11.6406 -7.77798Q-11.4496 -8.06374 -11.2449 -8.33979Q-11.0402 -8.61584 -10.8221 -8.88151Q-10.6041 -9.14717 -10.3733 -9.40182Q-10.1425 -9.65648 -9.89949 -9.89949Q-9.65648 -10.1425 -9.40182 -10.3733Q-9.14717 -10.6041 -8.88151 -10.8221Q-8.61584 -11.0402 -8.33979 -11.2449Q-8.06374 -11.4496 -7.77798 -11.6406Q-7.49222 -11.8315 -7.19744 -12.0082Q-6.90265 -12.1849 -6.59955 -12.3469Q-6.29645 -12.5089 -5.98577 -12.6558Q-5.67509 -12.8028 -5.35757 -12.9343Q-5.04005 -13.0658 -4.71646 -13.1816Q-4.39287 -13.2974 -4.06399 -13.3972Q-3.7351 -13.4969 -3.40172 -13.5804Q-3.06834 -13.6639 -2.73126 -13.731Q-2.39419 -13.798 -2.05423 -13.8485Q-1.71427 -13.8989 -1.37224 -13.9326Q-1.03021 -13.9663 -0.686947 -13.9831Q-0.343681 -14 0 -14Q0.343681 -14 0.686947 -13.9831Q1.03021 -13.9663 1.37224 -13.9326Q1.71427 -13.8989 2.05423 -13.8485Q2.39419 -13.798 2.73126 -13.731Q3.06834 -13.6639 3.40172 -13.5804Q3.7351 -13.4969 4.06398 -13.3972Q4.39287 -13.2974 4.71646 -13.1816Q5.04005 -13.0658 5.35757 -12.9343Q5.67509 -12.8028 5.98577 -12.6558Q6.29645 -12.5089 6.59955 -12.3469Q6.90265 -12.1849 7.19744 -12.0082Q7.49222 -11.8315 7.77798 -11.6406Q8.06374 -11.4496 8.33979 -11.2449Q8.61584 -11.0402 8.88151 -10.8221Q9.14717 -10.6041 9.40182 -10.3733Q9.65648 -10.1425 9.89949 -9.89949Q10.1425 -9.65648 10.3733 -9.40182Q10.6041 -9.14717 10.8221 -8.88151Q11.0402 -8.61584 11.2449 -8.33979Q11.4496 -8.06374 11.6406 -7.77798Q11.8315 -7.49222 12.0082 -7.19744Q12.1849 -6.90265 12.3469 -6.59955Q12.5089 -6.29645 12.6558 -5.98577Q12.8028 -5.67509 12.9343 -5.35757Q13.0658 -5.04005 13.1816 -4.71646Q13.2974 -4.39287 13.3972 -4.06399Q13.4969 -3.7351 13.5804 -3.40172Q13.6639 -3.06834 13.731 -2.73126Q13.798 -2.39419 13.8485 -2.05423Q13.8989 -1.71427 13.9326 -1.37224Q13.9663 -1.03021 13.9831 -0.686947Q14 -0.343681 14 0"/>
	<path fill="#FFF0B8" transform="matrix(-1.42857 0 0 -1.42857 40.7143 47.8571)" d="M11.2 0Q11.2 0.274945 11.1865 0.549558Q11.173 0.824171 11.1461 1.09779Q11.1191 1.37141 11.0788 1.64338Q11.0384 1.91535 10.9848 2.18501Q10.9312 2.45467 10.8643 2.72138Q10.7975 2.98808 10.7177 3.25119Q10.6379 3.51429 10.5453 3.77317Q10.4527 4.03204 10.3475 4.28605Q10.2422 4.54007 10.1247 4.78862Q10.0071 5.03716 9.87752 5.27964Q9.74791 5.52212 9.60656 5.75795Q9.46521 5.99378 9.31246 6.22239Q9.15971 6.45099 8.99592 6.67183Q8.83214 6.89267 8.65772 7.1052Q8.48329 7.31774 8.29865 7.52146Q8.11401 7.72518 7.9196 7.9196Q7.72518 8.11401 7.52146 8.29865Q7.31774 8.48329 7.10521 8.65772Q6.89267 8.83214 6.67183 8.99592Q6.45099 9.15971 6.22239 9.31246Q5.99378 9.46521 5.75795 9.60656Q5.52212 9.74791 5.27964 9.87752Q5.03716 10.0071 4.78862 10.1247Q4.54007 10.2422 4.28605 10.3474Q4.03204 10.4527 3.77317 10.5453Q3.51429 10.6379 3.25119 10.7177Q2.98808 10.7975 2.72138 10.8643Q2.45467 10.9312 2.18501 10.9848Q1.91535 11.0384 1.64338 11.0788Q1.37141 11.1191 1.09779 11.1461Q0.824171 11.173 0.549558 11.1865Q0.274945 11.2 0 11.2Q-0.274945 11.2 -0.549558 11.1865Q-0.824171 11.173 -1.09779 11.1461Q-1.37141 11.1191 -1.64338 11.0788Q-1.91535 11.0384 -2.18501 10.9848Q-2.45467 10.9312 -2.72138 10.8643Q-2.98808 10.7975 -3.25119 10.7177Q-3.51429 10.6379 -3.77317 10.5453Q-4.03204 10.4527 -4.28605 10.3475Q-4.54007 10.2422 -4.78862 10.1247Q-5.03716 10.0071 -5.27964 9.87752Q-5.52212 9.74791 -5.75795 9.60656Q-5.99378 9.46521 -6.22239 9.31246Q-6.45099 9.15971 -6.67183 8.99592Q-6.89267 8.83214 -7.1052 8.65772Q-7.31774 8.48329 -7.52146 8.29865Q-7.72518 8.11401 -7.9196 7.9196Q-8.11401 7.72518 -8.29865 7.52146Q-8.48329 7.31774 -8.65772 7.10521Q-8.83214 6.89267 -8.99592 6.67183Q-9.15971 6.45099 -9.31246 6.22239Q-9.46521 5.99378 -9.60656 5.75795Q-9.74791 5.52212 -9.87752 5.27964Q-10.0071 5.03716 -10.1247 4.78862Q-10.2422 4.54007 -10.3474 4.28605Q-10.4527 4.03204 -10.5453 3.77317Q-10.6379 3.51429 -10.7177 3.25119Q-10.7975 2.98808 -10.8643 2.72138Q-10.9312 2.45467 -10.9848 2.18501Q-11.0384 1.91535 -11.0788 1.64338Q-11.1191 1.37141 -11.1461 1.09779Q-11.173 0.824171 -11.1865 0.549558Q-11.2 0.274945 -11.2 0Q-11.2 -0.274945 -11.1865 -0.549558Q-11.173 -0.824171 -11.1461 -1.09779Q-11.1191 -1.37141 -11.0788 -1.64338Q-11.0384 -1.91535 -10.9848 -2.18501Q-10.9312 -2.45467 -10.8643 -2.72138Q-10.7975 -2.98808 -10.7177 -3.25119Q-10.6379 -3.51429 -10.5453 -3.77317Q-10.4527 -4.03204 -10.3475 -4.28605Q-10.2422 -4.54007 -10.1247 -4.78862Q-10.0071 -5.03716 -9.87752 -5.27964Q-9.74791 -5.52212 -9.60656 -5.75795Q-9.46521 -5.99378 -9.31246 -6.22239Q-9.15971 -6.45099 -8.99592 -6.67183Q-8.83214 -6.89267 -8.65772 -7.1052Q-8.48329 -7.31774 -8.29865 -7.52146Q-8.11401 -7.72518 -7.9196 -7.9196Q-7.72518 -8.11401 -7.52146 -8.29865Q-7.31774 -8.48329 -7.10521 -8.65772Q-6.89267 -8.83214 -6.67183 -8.99592Q-6.45099 -9.15971 -6.22239 -9.31246Q-5.99378 -9.46521 -5.75795 -9.60656Q-5.52212 -9.74791 -5.27964 -9.87752Q-5.03716 -10.0071 -4.78862 -10.1247Q-4.54007 -10.2422 -4.28605 -10.3474Q-4.03204 -10.4527 -3.77317 -10.5453Q-3.51429 -10.6379 -3.25119 -10.7177Q-2.98808 -10.7975 -2.72138 -10.8643Q-2.45467 -10.9312 -2.18501 -10.9848Q-1.91535 -11.0384 -1.64338 -11.0788Q-1.37141 -11.1191 -1.09779 -11.1461Q-0.824171 -11.173 -0.549558 -11.1865Q-0.274945 -11.2 0 -11.2Q0.274945 -11.2 0.549558 -11.1865Q0.824171 -11.173 1.09779 -11.1461Q1.37141 -11.1191 1.64338 -11.0788Q1.91535 -11.0384 2.18501 -10.9848Q2.45467 -10.9312 2.72138 -10.8643Q2.98808 -10.7975 3.25119 -10.7177Q3.51429 -10.6379 3.77317 -10.5453Q4.03204 -10.4527 4.28605 -10.3475Q4.54007 -10.2422 4.78862 -10.1247Q5.03716 -10.0071 5.27964 -9.87752Q5.52212 -9.74791 5.75795 -9.60656Q5.99378 -9.46521 6.22239 -9.31246Q6.45099 -9.15971 6.67183 -8.99592Q6.89267 -8.83214 7.1052 -8.65772Q7.31774 -8.48329 7.52146 -8.29865Q7.72518 -8.11401 7.9196 -7.9196Q8.11401 -7.72518 8.29865 -7.52146Q8.48329 -7.31774 8.65772 -7.10521Q8.83214 -6.89267 8.99592 -6.67183Q9.15971 -6.45099 9.31246 -6.22239Q9.46521 -5.99378 9.60656 -5.75795Q9.74791 -5.52212 9.87752 -5.27964Q10.0071 -5.03716 10.1247 -4.78862Q10.2422 -4.54007 10.3474 -4.28605Q10.4527 -4.03204 10.5453 -3.77317Q10.6379 -3.51429 10.7177 -3.25119Q10.7975 -2.98808 10.8643 -2.72138Q10.9312 -2.45467 10.9848 -2.18501Q11.0384 -1.91535 11.0788 -1.64338Q11.1191 -1.37141 11.1461 -1.09779Q11.173 -0.824171 11.1865 -0.549558Q11.2 -0.274945 11.2 0"/>
	<path fill="#CFC295" transform="matrix(0 -1.42857 1.42857 0 55 33.5714)" d="M14 0Q14 0.343681 13.9831 0.686947Q13.9663 1.03021 13.9326 1.37224Q13.8989 1.71427 13.8485 2.05423Q13.798 2.39419 13.731 2.73126Q13.6639 3.06834 13.5804 3.40172Q13.4969 3.7351 13.3972 4.06398Q13.2974 4.39287 13.1816 4.71646Q13.0658 5.04005 12.9343 5.35757Q12.8028 5.67509 12.6558 5.98577Q12.5089 6.29645 12.3469 6.59955Q12.1849 6.90265 12.0082 7.19744Q11.8315 7.49222 11.6406 7.77798Q11.4496 8.06374 11.2449 8.33979Q11.0402 8.61584 10.8221 8.88151Q10.6041 9.14717 10.3733 9.40182Q10.1425 9.65648 9.89949 9.89949Q9.65648 10.1425 9.40182 10.3733Q9.14717 10.6041 8.88151 10.8221Q8.61584 11.0402 8.33979 11.2449Q8.06374 11.4496 7.77798 11.6406Q7.49222 11.8315 7.19744 12.0082Q6.90265 12.1849 6.59955 12.3469Q6.29645 12.5089 5.98577 12.6558Q5.67509 12.8028 5.35757 12.9343Q5.04005 13.0658 4.71646 13.1816Q4.39287 13.2974 4.06399 13.3972Q3.7351 13.4969 3.40172 13.5804Q3.06834 13.6639 2.73126 13.731Q2.39419 13.798 2.05423 13.8485Q1.71427 13.8989 1.37224 13.9326Q1.03021 13.9663 0.686947 13.9831Q0.343681 14 0 14Q-0.343681 14 -0.686947 13.9831Q-1.03021 13.9663 -1.37224 13.9326Q-1.71427 13.8989 -2.05423 13.8485Q-2.39419 13.798 -2.73126 13.731Q-3.06834 13.6639 -3.40172 13.5804Q-3.7351 13.4969 -4.06398 13.3972Q-4.39287 13.2974 -4.71646 13.1816Q-5.04005 13.0658 -5.35757 12.9343Q-5.67509 12.8028 -5.98577 12.6558Q-6.29645 12.5089 -6.59955 12.3469Q-6.90265 12.1849 -7.19744 12.0082Q-7.49222 11.8315 -7.77798 11.6406Q-8.06374 11.4496 -8.33979 11.2449Q-8.61584 11.0402 -8.88151 10.8221Q-9.14717 10.6041 -9.40182 10.3733Q-9.65648 10.1425 -9.89949 9.89949Q-10.1425 9.65648 -10.3733 9.40182Q-10.6041 9.14717 -10.8221 8.88151Q-11.0402 8.61584 -11.2449 8.33979Q-11.4496 8.06374 -11.6406 7.77798Q-11.8315 7.49222 -12.0082 7.19744Q-12.1849 6.90265 -12.3469 6.59955Q-12.5089 6.29645 -12.6558 5.98577Q-12.8028 5.67509 -12.9343 5.35757Q-13.0658 5.04005 -13.1816 4.71646Q-13.2974 4.39287 -13.3972 4.06399Q-13.4969 3.7351 -13.5804 3.40172Q-13.6639 3.06834 -13.731 2.73126Q-13.798 2.39419 -13.8485 2.05423Q-13.8989 1.71427 -13.9326 1.37224Q-13.9663 1.03021 -13.9831 0.686947Q-14 0.343681 -14 0Q-14 -0.343681 -13.9831 -0.686947Q-13.9663 -1.03021 -13.9326 -1.37224Q-13.8989 -1.71427 -13.8485 -2.05423Q-13.798 -2.39419 -13.731 -2.73126Q-13.6639 -3.06834 -13.5804 -3.40172Q-13.4969 -3.7351 -13.3972 -4.06398Q-13.2974 -4.39287 -13.1816 -4.71646Q-13.0658 -5.04005 -12.9343 -5.35757Q-12.8028 -5.67509 -12.6558 -5.98577Q-12.5089 -6.29645 -12.3469 -6.59955Q-12.1849 -6.90265 -12.0082 -7.19744Q-11.8315 -7.49222 -11.6406 -7.77798Q-11.4496 -8.06374 -11.2449 -8.33979Q-11.0402 -8.61584 -10.8221 -8.88151Q-10.6041 -9.14717 -10.3733 -9.40182Q-10.1425 -9.65648 -9.89949 -9.89949Q-9.65648 -10.1425 -9.40182 -10.3733Q-9.14717 -10.6041 -8.88151 -10.8221Q-8.61584 -11.0402 -8.33979 -11.2449Q-8.06374 -11.4496 -7.77798 -11.6406Q-7.49222 -11.8315 -7.19744 -12.0082Q-6.90265 -12.1849 -6.59955 -12.3469Q-6.29645 -12.5089 -5.98577 -12.6558Q-5.67509 -12.8028 -5.35757 -12.9343Q-5.04005 -13.0658 -4.71646 -13.1816Q-4.39287 -13.2974 -4.06399 -13.3972Q-3.7351 -13.4969 -3.40172 -13.5804Q-3.06834 -13.6639 -2.73126 -13.731Q-2.39419 -13.798 -2.05423 -13.8485Q-1.71427 -13.8989 -1.37224 -13.9326Q-1.03021 -13.9663 -0.686947 -13.9831Q-0.343681 -14 0 -14Q0.343681 -14 0.686947 -13.9831Q1.03021 -13.9663 1.37224 -13.9326Q1.71427 -13.8989 2.05423 -13.8485Q2.39419 -13.798 2.73126 -13.731Q3.06834 -13.6639 3.40172 -13.5804Q3.7351 -13.4969 4.06398 -13.3972Q4.39287 -13.2974 4.71646 -13.1816Q5.04005 -13.0658 5.35757 -12.9343Q5.67509 -12.8028 5.98577 -12.6558Q6.29645 -12.5089 6.59955 -12.3469Q6.90265 -12.1849 7.19744 -12.0082Q7.49222 -11.8315 7.77798 -11.6406Q8.06374 -11.4496 8.33979 -11.2449Q8.61584 -11.0402 8.88151 -10.8221Q9.14717 -10.6041 9.40182 -10.3733Q9.65648 -10.1425 9.89949 -9.89949Q10.1425 -9.65648 10.3733 -9.40182Q10.6041 -9.14717 10.8221 -8.88151Q11.0402 -8.61584 11.2449 -8.33979Q11.4496 -8.06374 11.6406 -7.77798Q11.8315 -7.49222 12.0082 -7.19744Q12.1849 -6.90265 12.3469 -6.59955Q12.5089 -6.29645 12.6558 -5.98577Q12.8028 -5.67509 12.9343 -5.35757Q13.0658 -5.04005 13.1816 -4.71646Q13.2974 -4.39287 13.3972 -4.06399Q13.4969 -3.7351 13.5804 -3.40172Q13.6639 -3.06834 13.731 -2.73126Q13.798 -2.39419 13.8485 -2.05423Q13.8989 -1.71427 13.9326 -1.37224Q13.9663 -1.03021 13.9831 -0.686947Q14 -0.343681 14 0"/>
	<path fill="#FFF0B8" transform="matrix(0 -1.42857 1.42857 0 55 33.5714)" d="M11.2 0Q11.2 0.274945 11.1865 0.549558Q11.173 0.824171 11.1461 1.09779Q11.1191 1.37141 11.0788 1.64338Q11.0384 1.91535 10.9848 2.18501Q10.9312 2.45467 10.8643 2.72138Q10.7975 2.98808 10.7177 3.25119Q10.6379 3.51429 10.5453 3.77317Q10.4527 4.03204 10.3475 4.28605Q10.2422 4.54007 10.1247 4.78862Q10.0071 5.03716 9.87752 5.27964Q9.74791 5.52212 9.60656 5.75795Q9.46521 5.99378 9.31246 6.22239Q9.15971 6.45099 8.99592 6.67183Q8.83214 6.89267 8.65772 7.1052Q8.48329 7.31774 8.29865 7.52146Q8.11401 7.72518 7.9196 7.9196Q7.72518 8.11401 7.52146 8.29865Q7.31774 8.48329 7.10521 8.65772Q6.89267 8.83214 6.67183 8.99592Q6.45099 9.15971 6.22239 9.31246Q5.99378 9.46521 5.75795 9.60656Q5.52212 9.74791 5.27964 9.87752Q5.03716 10.0071 4.78862 10.1247Q4.54007 10.2422 4.28605 10.3474Q4.03204 10.4527 3.77317 10.5453Q3.51429 10.6379 3.25119 10.7177Q2.98808 10.7975 2.72138 10.8643Q2.45467 10.9312 2.18501 10.9848Q1.91535 11.0384 1.64338 11.0788Q1.37141 11.1191 1.09779 11.1461Q0.824171 11.173 0.549558 11.1865Q0.274945 11.2 0 11.2Q-0.274945 11.2 -0.549558 11.1865Q-0.824171 11.173 -1.09779 11.1461Q-1.37141 11.1191 -1.64338 11.0788Q-1.91535 11.0384 -2.18501 10.9848Q-2.45467 10.9312 -2.72138 10.8643Q-2.98808 10.7975 -3.25119 10.7177Q-3.51429 10.6379 -3.77317 10.5453Q-4.03204 10.4527 -4.28605 10.3475Q-4.54007 10.2422 -4.78862 10.1247Q-5.03716 10.0071 -5.27964 9.87752Q-5.52212 9.74791 -5.75795 9.60656Q-5.99378 9.46521 -6.22239 9.31246Q-6.45099 9.15971 -6.67183 8.99592Q-6.89267 8.83214 -7.1052 8.65772Q-7.31774 8.48329 -7.52146 8.29865Q-7.72518 8.11401 -7.9196 7.9196Q-8.11401 7.72518 -8.29865 7.52146Q-8.48329 7.31774 -8.65772 7.10521Q-8.83214 6.89267 -8.99592 6.67183Q-9.15971 6.45099 -9.31246 6.22239Q-9.46521 5.99378 -9.60656 5.75795Q-9.74791 5.52212 -9.87752 5.27964Q-10.0071 5.03716 -10.1247 4.78862Q-10.2422 4.54007 -10.3474 4.28605Q-10.4527 4.03204 -10.5453 3.77317Q-10.6379 3.51429 -10.7177 3.25119Q-10.7975 2.98808 -10.8643 2.72138Q-10.9312 2.45467 -10.9848 2.18501Q-11.0384 1.91535 -11.0788 1.64338Q-11.1191 1.37141 -11.1461 1.09779Q-11.173 0.824171 -11.1865 0.549558Q-11.2 0.274945 -11.2 0Q-11.2 -0.274945 -11.1865 -0.549558Q-11.173 -0.824171 -11.1461 -1.09779Q-11.1191 -1.37141 -11.0788 -1.64338Q-11.0384 -1.91535 -10.9848 -2.18501Q-10.9312 -2.45467 -10.8643 -2.72138Q-10.7975 -2.98808 -10.7177 -3.25119Q-10.6379 -3.51429 -10.5453 -3.77317Q-10.4527 -4.03204 -10.3475 -4.28605Q-10.2422 -4.54007 -10.1247 -4.78862Q-10.0071 -5.03716 -9.87752 -5.27964Q-9.74791 -5.52212 -9.60656 -5.75795Q-9.46521 -5.99378 -9.31246 -6.22239Q-9.15971 -6.45099 -8.99592 -6.67183Q-8.83214 -6.89267 -8.65772 -7.1052Q-8.48329 -7.31774 -8.29865 -7.52146Q-8.11401 -7.72518 -7.9196 -7.9196Q-7.72518 -8.11401 -7.52146 -8.29865Q-7.31774 -8.48329 -7.10521 -8.65772Q-6.89267 -8.83214 -6.67183 -8.99592Q-6.45099 -9.15971 -6.22239 -9.31246Q-5.99378 -9.46521 -5.75795 -9.60656Q-5.52212 -9.74791 -5.27964 -9.87752Q-5.03716 -10.0071 -4.78862 -10.1247Q-4.54007 -10.2422 -4.28605 -10.3474Q-4.03204 -10.4527 -3.77317 -10.5453Q-3.51429 -10.6379 -3.25119 -10.7177Q-2.98808 -10.7975 -2.72138 -10.8643Q-2.45467 -10.9312 -2.18501 -10.9848Q-1.91535 -11.0384 -1.64338 -11.0788Q-1.37141 -11.1191 -1.09779 -11.1461Q-0.824171 -11.173 -0.549558 -11.1865Q-0.274945 -11.2 0 -11.2Q0.274945 -11.2 0.549558 -11.1865Q0.824171 -11.173 1.09779 -11.1461Q1.37141 -11.1191 1.64338 -11.0788Q1.91535 -11.0384 2.18501 -10.9848Q2.45467 -10.9312 2.72138 -10.8643Q2.98808 -10.7975 3.25119 -10.7177Q3.51429 -10.6379 3.77317 -10.5453Q4.03204 -10.4527 4.28605 -10.3475Q4.54007 -10.2422 4.78862 -10.1247Q5.03716 -10.0071 5.27964 -9.87752Q5.52212 -9.74791 5.75795 -9.60656Q5.99378 -9.46521 6.22239 -9.31246Q6.45099 -9.15971 6.67183 -8.99592Q6.89267 -8.83214 7.1052 -8.65772Q7.31774 -8.48329 7.52146 -8.29865Q7.72518 -8.11401 7.9196 -7.9196Q8.11401 -7.72518 8.29865 -7.52146Q8.48329 -7.31774 8.65772 -7.10521Q8.83214 -6.89267 8.99592 -6.67183Q9.15971 -6.45099 9.31246 -6.22239Q9.46521 -5.99378 9.60656 -5.75795Q9.74791 -5.52212 9.87752 -5.27964Q10.0071 -5.03716 10.1247 -4.78862Q10.2422 -4.54007 10.3474 -4.28605Q10.4527 -4.03204 10.5453 -3.77317Q10.6379 -3.51429 10.7177 -3.25119Q10.7975 -2.98808 10.8643 -2.72138Q10.9312 -2.45467 10.9848 -2.18501Q11.0384 -1.91535 11.0788 -1.64338Q11.1191 -1.37141 11.1461 -1.09779Q11.173 -0.824171 11.1865 -0.549558Q11.2 -0.274945 11.2 0"/>
	<path fill="none" stroke="black" stroke-width="2.3999999" stroke-linejoin="round" transform="translate(55 79.2857)" d="M-16.3384 7.43L-16.3384 -6.4323L-6.97807 -6.4323L-6.97807 -3.81023L-13.2183 -3.81023L-13.2183 -1.09051L-7.6812 -1.09051L-7.6812 1.46809L-13.2183 1.46809L-13.2183 4.80793L-6.51909 4.80793L-6.51909 7.43L-16.3384 7.43ZM-1.87956 1.82941Q-1.87956 4.32941 0.141922 4.32941Q0.600906 4.32941 1.0013 4.21223Q1.40169 4.09016 1.68001 3.92902L1.68001 -0.831719Q1.46028 -0.870781 1.15755 -0.900078Q0.859695 -0.929375 0.459305 -0.929375Q-0.722336 -0.929375 -1.30339 -0.148125Q-1.87956 0.628242 -1.87956 1.82941ZM4.65852 6.11164Q4.65852 8.68977 3.34993 9.93977Q2.04134 11.1898 -0.697922 11.1898Q-1.65984 11.1898 -2.62175 11.0189Q-3.57878 10.848 -4.39909 10.5696L-3.88152 8.06965Q-3.17839 8.34797 -2.41179 8.5091Q-1.6403 8.67023 -0.658859 8.67023Q0.620438 8.67023 1.14778 8.10871Q1.68001 7.55207 1.68001 6.66828L1.68001 6.2923Q1.20149 6.51203 0.688797 6.62434Q0.180984 6.73176 -0.419601 6.73176Q-2.60222 6.73176 -3.76433 5.4427Q-4.92155 4.14875 -4.92155 1.82941Q-4.92155 0.672187 -4.56023 -0.279961Q-4.1989 -1.23211 -3.51042 -1.91082Q-2.82195 -2.58953 -1.82097 -2.96063Q-0.819992 -3.33172 0.439774 -3.33172Q0.981766 -3.33172 1.54817 -3.27801Q2.11946 -3.22918 2.6761 -3.14617Q3.23763 -3.06805 3.74544 -2.95574Q4.25813 -2.84832 4.65852 -2.73113L4.65852 6.11164ZM10.0004 1.82941Q10.0004 4.32941 12.0219 4.32941Q12.4809 4.32941 12.8813 4.21223Q13.2817 4.09016 13.56 3.92902L13.56 -0.831719Q13.3403 -0.870781 13.0375 -0.900078Q12.7397 -0.929375 12.3393 -0.929375Q11.1577 -0.929375 10.5766 -0.148125Q10.0004 0.628242 10.0004 1.82941ZM16.5385 6.11164Q16.5385 8.68977 15.2299 9.93977Q13.9213 11.1898 11.1821 11.1898Q10.2202 11.1898 9.25824 11.0189Q8.30121 10.848 7.4809 10.5696L7.99847 8.06965Q8.7016 8.34797 9.4682 8.5091Q10.2397 8.67023 11.2211 8.67023Q12.5004 8.67023 13.0278 8.10871Q13.56 7.55207 13.56 6.66828L13.56 6.2923Q13.0815 6.51203 12.5688 6.62434Q12.061 6.73176 11.4604 6.73176Q9.27777 6.73176 8.11566 5.4427Q6.95844 4.14875 6.95844 1.82941Q6.95844 0.672187 7.31976 -0.279961Q7.68109 -1.23211 8.36957 -1.91082Q9.05804 -2.58953 10.059 -2.96063Q11.06 -3.33172 12.3198 -3.33172Q12.8618 -3.33172 13.4282 -3.27801Q13.9995 -3.22918 14.5561 -3.14617Q15.1176 -3.06805 15.6254 -2.95574Q16.1381 -2.84832 16.5385 -2.73113L16.5385 6.11164Z"/>
	<path fill="white" transform="translate(55 79.2857)" d="M-16.3384 7.43L-16.3384 -6.4323L-6.97807 -6.4323L-6.97807 -3.81023L-13.2183 -3.81023L-13.2183 -1.09051L-7.6812 -1.09051L-7.6812 1.46809L-13.2183 1.46809L-13.2183 4.80793L-6.51909 4.80793L-6.51909 7.43L-16.3384 7.43ZM-1.87956 1.82941Q-1.87956 4.32941 0.141922 4.32941Q0.600906 4.32941 1.0013 4.21223Q1.40169 4.09016 1.68001 3.92902L1.68001 -0.831719Q1.46028 -0.870781 1.15755 -0.900078Q0.859695 -0.929375 0.459305 -0.929375Q-0.722336 -0.929375 -1.30339 -0.148125Q-1.87956 0.628242 -1.87956 1.82941ZM4.65852 6.11164Q4.65852 8.68977 3.34993 9.93977Q2.04134 11.1898 -0.697922 11.1898Q-1.65984 11.1898 -2.62175 11.0189Q-3.57878 10.848 -4.39909 10.5696L-3.88152 8.06965Q-3.17839 8.34797 -2.41179 8.5091Q-1.6403 8.67023 -0.658859 8.67023Q0.620438 8.67023 1.14778 8.10871Q1.68001 7.55207 1.68001 6.66828L1.68001 6.2923Q1.20149 6.51203 0.688797 6.62434Q0.180984 6.73176 -0.419601 6.73176Q-2.60222 6.73176 -3.76433 5.4427Q-4.92155 4.14875 -4.92155 1.82941Q-4.92155 0.672187 -4.56023 -0.279961Q-4.1989 -1.23211 -3.51042 -1.91082Q-2.82195 -2.58953 -1.82097 -2.96063Q-0.819992 -3.33172 0.439774 -3.33172Q0.981766 -3.33172 1.54817 -3.27801Q2.11946 -3.22918 2.6761 -3.14617Q3.23763 -3.06805 3.74544 -2.95574Q4.25813 -2.84832 4.65852 -2.73113L4.65852 6.11164ZM10.0004 1.82941Q10.0004 4.32941 12.0219 4.32941Q12.4809 4.32941 12.8813 4.21223Q13.2817 4.09016 13.56 3.92902L13.56 -0.831719Q13.3403 -0.870781 13.0375 -0.900078Q12.7397 -0.929375 12.3393 -0.929375Q11.1577 -0.929375 10.5766 -0.148125Q10.0004 0.628242 10.0004 1.82941ZM16.5385 6.11164Q16.5385 8.68977 15.2299 9.93977Q13.9213 11.1898 11.1821 11.1898Q10.2202 11.1898 9.25824 11.0189Q8.30121 10.848 7.4809 10.5696L7.99847 8.06965Q8.7016 8.34797 9.4682 8.5091Q10.2397 8.67023 11.2211 8.67023Q12.5004 8.67023 13.0278 8.10871Q13.56 7.55207 13.56 6.66828L13.56 6.2923Q13.0815 6.51203 12.5688 6.62434Q12.061 6.73176 11.4604 6.73176Q9.27777 6.73176 8.11566 5.4427Q6.95844 4.14875 6.95844 1.82941Q6.95844 0.672187 7.31976 -0.279961Q7.68109 -1.23211 8.36957 -1.91082Q9.05804 -2.58953 10.059 -2.96063Q11.06 -3.33172 12.3198 -3.33172Q12.8618 -3.33172 13.4282 -3.27801Q13.9995 -3.22918 14.5561 -3.14617Q15.1176 -3.06805 15.6254 -2.95574Q16.1381 -2.84832 16.5385 -2.73113L16.5385 6.11164Z"/>
</svg>
