<?xml version="1.0" encoding="utf-8" ?>
<svg xmlns="http://www.w3.org/2000/svg" xmlns:xlink="http://www.w3.org/1999/xlink" width="110" height="110">
	<path fill="#EEE" transform="matrix(1.13715 0.114095 -0.114095 1.13715 55 47.8571)" d="M3 -19Q15 -25 15 -12Q23 -8 19 0Q23 11 12 11Q14 20 2 17Q-8 25 -12 14Q-23 12 -18 2Q-25 -3 -18 -9Q-19 -20 -9 -18Q-5 -26 3 -19"/>
	<path fill="#C1C1C1" transform="matrix(1.13715 0.114095 -0.114095 1.13715 55 47.8571)" d="M2.32918 -20.3416Q9.05492 -23.7045 12.7558 -21.5457Q16.5 -19.3616 16.5 -12L15 -12L15.6708 -13.3416Q20.2265 -11.0638 21.423 -7.47434Q22.6195 -3.88491 20.3416 0.67082L19 0L20.4097 -0.512615Q22.6622 5.68186 20.5155 9.05531Q18.3234 12.5 12 12.5L12 11L13.4643 10.6746Q14.6988 16.23 11.2717 18.2862Q8.23896 20.1059 1.6362 18.4552L2 17L2.93704 18.1713Q-2.61856 22.6158 -6.81429 21.7167Q-11.126 20.7928 -13.4097 14.5126L-12 14L-12.2683 15.4758Q-18.5062 14.3416 -20.3416 10.6708Q-22.177 7 -19.3416 1.32918L-18 2L-18.8719 3.2206Q-23 0.271926 -23 -3.25Q-23 -6.6899 -18.9762 -10.1389L-18 -9L-19.4938 -8.8642Q-20.0574 -15.0639 -17.3107 -17.8107Q-14.493 -20.6283 -8.70583 -19.4709L-9 -18L-10.3416 -18.6708Q-7.96465 -23.4248 -4.12457 -23.7448Q-0.490836 -24.0476 3.98776 -20.1289Q4.04321 -20.0803 4.09365 -20.0266Q4.14408 -19.9729 4.18901 -19.9145Q4.23393 -19.8561 4.27292 -19.7935Q4.3119 -19.731 4.34457 -19.6649Q4.37723 -19.5989 4.40327 -19.5299Q4.4293 -19.461 4.44845 -19.3898Q4.46761 -19.3187 4.47969 -19.246Q4.49178 -19.1733 4.49668 -19.0998Q4.50158 -19.0262 4.49925 -18.9526Q4.49692 -18.8789 4.48738 -18.8059Q4.47785 -18.7328 4.46119 -18.661Q4.44454 -18.5892 4.42093 -18.5194Q4.39732 -18.4496 4.36699 -18.3825Q4.33665 -18.3153 4.29988 -18.2515Q4.2631 -18.1876 4.22025 -18.1276Q4.17739 -18.0677 4.12887 -18.0122Q4.08034 -17.9568 4.02661 -17.9064Q3.97288 -17.8559 3.91447 -17.811Q3.85606 -17.7661 3.79353 -17.7271Q3.73099 -17.6881 3.66494 -17.6554Q3.59888 -17.6228 3.52994 -17.5967Q3.46101 -17.5707 3.38985 -17.5515Q3.31869 -17.5324 3.246 -17.5203Q3.17331 -17.5082 3.09978 -17.5033Q3.02625 -17.4984 2.9526 -17.5008Q2.87894 -17.5031 2.80587 -17.5126Q2.7328 -17.5222 2.66102 -17.5388Q2.58924 -17.5555 2.51943 -17.5791Q2.44962 -17.6027 2.38247 -17.633Q2.31531 -17.6633 2.25145 -17.7001Q2.18759 -17.7369 2.12765 -17.7798Q2.0677 -17.8226 2.01224 -17.8711Q-1.50917 -20.9524 -3.87543 -20.7552Q-6.03536 -20.5752 -7.65836 -17.3292Q-7.71318 -17.2195 -7.78506 -17.1203Q-7.85695 -17.021 -7.944 -16.9347Q-8.03105 -16.8484 -8.13096 -16.7774Q-8.23086 -16.7064 -8.34097 -16.6525Q-8.45108 -16.5987 -8.56847 -16.5634Q-8.68586 -16.5282 -8.80742 -16.5124Q-8.92898 -16.4967 -9.05148 -16.5009Q-9.17398 -16.5051 -9.29417 -16.5291Q-13.507 -17.3717 -15.1893 -15.6893Q-16.9426 -13.9361 -16.5062 -9.1358Q-16.4899 -8.95704 -16.5163 -8.77948Q-16.5427 -8.60193 -16.6102 -8.43561Q-16.6778 -8.2693 -16.7826 -8.12362Q-16.8875 -7.97794 -17.0238 -7.86111Q-20 -5.3101 -20 -3.25Q-20 -1.27193 -17.1281 0.7794Q-17.02 0.856662 -16.9271 0.951742Q-16.8342 1.04682 -16.7595 1.15676Q-16.6847 1.26669 -16.6305 1.38805Q-16.5763 1.50941 -16.5442 1.63842Q-16.5122 1.76743 -16.5033 1.90006Q-16.4945 2.03269 -16.5091 2.16482Q-16.5237 2.29694 -16.5613 2.42443Q-16.5989 2.55193 -16.6584 2.67082Q-18.8229 7 -17.6584 9.32918Q-16.4938 11.6584 -11.7317 12.5242Q-11.5383 12.5594 -11.3606 12.6431Q-11.1828 12.7269 -11.0326 12.8536Q-10.8824 12.9804 -10.7699 13.1415Q-10.6575 13.3027 -10.5903 13.4874Q-8.874 18.2072 -6.18571 18.7833Q-3.38144 19.3842 1.06296 15.8287Q1.19821 15.7205 1.35457 15.646Q1.51093 15.5714 1.68015 15.5345Q1.84938 15.4976 2.02257 15.5002Q2.19576 15.5028 2.3638 15.5448Q7.76103 16.8941 9.72826 15.7138Q11.3012 14.77 10.5357 11.3254Q10.5 11.1647 10.5 11Q10.5 10.9263 10.5072 10.853Q10.5144 10.7796 10.5288 10.7074Q10.5432 10.6351 10.5646 10.5646Q10.586 10.4941 10.6142 10.426Q10.6424 10.3579 10.6771 10.2929Q10.7119 10.2279 10.7528 10.1666Q10.7937 10.1054 10.8405 10.0484Q10.8872 9.99145 10.9393 9.93934Q10.9914 9.88723 11.0484 9.84048Q11.1054 9.79374 11.1666 9.75279Q11.2279 9.71185 11.2929 9.67712Q11.3579 9.64238 11.426 9.61418Q11.4941 9.58598 11.5646 9.56459Q11.6351 9.5432 11.7074 9.52882Q11.7796 9.51445 11.853 9.50722Q11.9263 9.5 12 9.5Q16.6766 9.5 17.9845 7.44469Q19.3378 5.31813 17.5903 0.512614Q17.5381 0.368963 17.5159 0.217728Q17.4937 0.0664921 17.5025 -0.0861101Q17.5112 -0.238712 17.5506 -0.386408Q17.59 -0.534103 17.6584 -0.67082Q19.3805 -4.1151 18.577 -6.52566Q17.7735 -8.93622 14.3292 -10.6584Q14.2362 -10.7049 14.1505 -10.7637Q14.0648 -10.8226 13.9881 -10.8927Q13.9113 -10.9629 13.845 -11.0429Q13.7787 -11.123 13.724 -11.2114Q13.6694 -11.2998 13.6274 -11.395Q13.5855 -11.4901 13.5571 -11.5901Q13.5287 -11.6901 13.5143 -11.7931Q13.5 -11.896 13.5 -12Q13.5 -17.6384 11.2442 -18.9543Q8.94507 -20.2955 3.67082 -17.6584Q3.60491 -17.6254 3.53609 -17.5991Q3.46726 -17.5727 3.39619 -17.5533Q3.32512 -17.5338 3.25248 -17.5214Q3.17984 -17.509 3.10633 -17.5038Q3.03283 -17.4986 2.95917 -17.5006Q2.8855 -17.5026 2.81239 -17.5118Q2.73928 -17.521 2.66742 -17.5373Q2.59557 -17.5537 2.52566 -17.577Q2.45575 -17.6003 2.38846 -17.6303Q2.32117 -17.6604 2.25715 -17.6969Q2.19313 -17.7334 2.133 -17.7759Q2.07287 -17.8185 2.0172 -17.8668Q1.96153 -17.9151 1.91086 -17.9686Q1.86019 -18.0221 1.81501 -18.0803Q1.76983 -18.1385 1.73057 -18.2009Q1.69131 -18.2633 1.65836 -18.3292Q1.6254 -18.3951 1.59907 -18.4639Q1.57273 -18.5327 1.55327 -18.6038Q1.5338 -18.6749 1.5214 -18.7475Q1.509 -18.8202 1.50377 -18.8937Q1.49855 -18.9672 1.50056 -19.0408Q1.50256 -19.1145 1.51178 -19.1876Q1.521 -19.2607 1.53733 -19.3326Q1.55367 -19.4044 1.57698 -19.4743Q1.60028 -19.5443 1.63032 -19.6115Q1.66036 -19.6788 1.69686 -19.7428Q1.73335 -19.8069 1.77594 -19.867Q1.81854 -19.9271 1.86682 -19.9828Q1.9151 -20.0385 1.96861 -20.0891Q2.02211 -20.1398 2.08033 -20.185Q2.13854 -20.2302 2.20091 -20.2694Q2.26327 -20.3087 2.32918 -20.3416Z"/>
	<path fill="none" stroke="black" stroke-width="2.3999999" stroke-linejoin="round" transform="translate(55 79.2857)" d="M-25.47 7.70832Q-28.8489 7.70832 -30.6214 5.82844Q-32.389 3.94855 -32.389 0.491523Q-32.389 -1.23211 -31.8519 -2.57977Q-31.3099 -3.9323 -30.3724 -4.86004Q-29.43 -5.78777 -28.1312 -6.26629Q-26.8323 -6.74969 -25.3089 -6.74969Q-24.43 -6.74969 -23.7122 -6.61785Q-22.9896 -6.4909 -22.4525 -6.32Q-21.9105 -6.1491 -21.5491 -5.96844Q-21.1878 -5.78777 -21.0316 -5.69012L-21.93 -3.17059Q-22.5696 -3.51238 -23.4193 -3.75164Q-24.2689 -3.9909 -25.348 -3.9909Q-26.0706 -3.9909 -26.7591 -3.75164Q-27.4476 -3.51238 -27.9798 -2.98016Q-28.512 -2.44793 -28.8343 -1.60809Q-29.1517 -0.768242 -29.1517 0.428047Q-29.1517 1.38996 -28.9417 2.22004Q-28.7318 3.05012 -28.263 3.6507Q-27.7894 4.25129 -27.0325 4.60285Q-26.2708 4.94953 -25.1917 4.94953Q-24.5081 4.94953 -23.971 4.87141Q-23.429 4.7884 -23.0091 4.68098Q-22.5892 4.56867 -22.2718 4.43195Q-21.9495 4.29035 -21.6907 4.16828L-20.8314 6.66828Q-21.4905 7.06867 -22.6917 7.39094Q-23.888 7.70832 -25.47 7.70832ZM-9.18974 2.15168Q-9.18974 3.39191 -9.55106 4.42219Q-9.91239 5.44758 -10.5911 6.18Q-11.2698 6.91242 -12.222 7.31281Q-13.1692 7.70832 -14.3509 7.70832Q-15.5081 7.70832 -16.4602 7.31281Q-17.4124 6.91242 -18.0911 6.18Q-18.7698 5.44758 -19.1507 4.42219Q-19.5315 3.39191 -19.5315 2.15168Q-19.5315 0.911445 -19.1409 -0.109063Q-18.7503 -1.12957 -18.0618 -1.84734Q-17.3684 -2.57 -16.4212 -2.97039Q-15.469 -3.37078 -14.3509 -3.37078Q-13.2083 -3.37078 -12.261 -2.97039Q-11.3089 -2.57 -10.6302 -1.84734Q-9.95145 -1.12957 -9.57059 -0.109063Q-9.18974 0.911445 -9.18974 2.15168ZM-12.2317 2.15168Q-12.2317 0.769844 -12.7835 -0.021172Q-13.3304 -0.812188 -14.3509 -0.812188Q-15.3714 -0.812188 -15.9329 -0.021172Q-16.4895 0.769844 -16.4895 2.15168Q-16.4895 3.52863 -15.9329 4.33918Q-15.3714 5.14973 -14.3509 5.14973Q-13.3304 5.14973 -12.7835 4.33918Q-12.2317 3.52863 -12.2317 2.15168ZM-6.99116 -5.70965L-4.00776 -6.18816L-4.00776 -3.08758L-0.428658 -3.08758L-0.428658 -0.611992L-4.00776 -0.611992L-4.00776 3.08918Q-4.00776 4.03156 -3.68061 4.59309Q-3.34858 5.14973 -2.3476 5.14973Q-1.86909 5.14973 -1.36127 5.06184Q-0.848579 4.96906 -0.428658 4.80793L-0.00873566 7.13215Q-0.550728 7.35187 -1.20991 7.50812Q-1.86909 7.66926 -2.831 7.66926Q-4.0517 7.66926 -4.85249 7.34211Q-5.64838 7.01008 -6.13178 6.41926Q-6.6103 5.82844 -6.80073 4.98859Q-6.99116 4.14875 -6.99116 3.12824L-6.99116 -5.70965ZM1.88883 -5.70965L4.87223 -6.18816L4.87223 -3.08758L8.45133 -3.08758L8.45133 -0.611992L4.87223 -0.611992L4.87223 3.08918Q4.87223 4.03156 5.19938 4.59309Q5.53141 5.14973 6.53239 5.14973Q7.0109 5.14973 7.51871 5.06184Q8.03141 4.96906 8.45133 4.80793L8.87125 7.13215Q8.32926 7.35187 7.67008 7.50812Q7.0109 7.66926 6.04899 7.66926Q4.82829 7.66926 4.0275 7.34211Q3.23161 7.01008 2.74821 6.41926Q2.26969 5.82844 2.07926 4.98859Q1.88883 4.14875 1.88883 3.12824L1.88883 -5.70965ZM20.7102 2.15168Q20.7102 3.39191 20.3489 4.42219Q19.9876 5.44758 19.3089 6.18Q18.6301 6.91242 17.678 7.31281Q16.7307 7.70832 15.5491 7.70832Q14.3919 7.70832 13.4397 7.31281Q12.4876 6.91242 11.8089 6.18Q11.1301 5.44758 10.7493 4.42219Q10.3684 3.39191 10.3684 2.15168Q10.3684 0.911445 10.7591 -0.109063Q11.1497 -1.12957 11.8382 -1.84734Q12.5315 -2.57 13.4788 -2.97039Q14.4309 -3.37078 15.5491 -3.37078Q16.6917 -3.37078 17.6389 -2.97039Q18.5911 -2.57 19.2698 -1.84734Q19.9485 -1.12957 20.3294 -0.109063Q20.7102 0.911445 20.7102 2.15168ZM17.6682 2.15168Q17.6682 0.769844 17.1165 -0.021172Q16.5696 -0.812188 15.5491 -0.812188Q14.5286 -0.812188 13.9671 -0.021172Q13.4104 0.769844 13.4104 2.15168Q13.4104 3.52863 13.9671 4.33918Q14.5286 5.14973 15.5491 5.14973Q16.5696 5.14973 17.1165 4.33918Q17.6682 3.52863 17.6682 2.15168ZM23.0113 -2.73113Q23.7682 -2.95086 24.9694 -3.14129Q26.1705 -3.33172 27.4889 -3.33172Q28.8317 -3.33172 29.7203 -2.98016Q30.609 -2.62859 31.1266 -1.98895Q31.649 -1.3493 31.8688 -0.470391Q32.0885 0.408515 32.0885 1.48762L32.0885 7.43L29.11 7.43L29.11 1.84895Q29.11 0.408515 28.7291 -0.187188Q28.3483 -0.787774 27.3082 -0.787774Q26.9908 -0.787774 26.6295 -0.758477Q26.2682 -0.72918 25.9899 -0.690117L25.9899 7.43L23.0113 7.43L23.0113 -2.73113Z"/>
	<path fill="white" transform="translate(55 79.2857)" d="M-25.47 7.70832Q-28.8489 7.70832 -30.6214 5.82844Q-32.389 3.94855 -32.389 0.491523Q-32.389 -1.23211 -31.8519 -2.57977Q-31.3099 -3.9323 -30.3724 -4.86004Q-29.43 -5.78777 -28.1312 -6.26629Q-26.8323 -6.74969 -25.3089 -6.74969Q-24.43 -6.74969 -23.7122 -6.61785Q-22.9896 -6.4909 -22.4525 -6.32Q-21.9105 -6.1491 -21.5491 -5.96844Q-21.1878 -5.78777 -21.0316 -5.69012L-21.93 -3.17059Q-22.5696 -3.51238 -23.4193 -3.75164Q-24.2689 -3.9909 -25.348 -3.9909Q-26.0706 -3.9909 -26.7591 -3.75164Q-27.4476 -3.51238 -27.9798 -2.98016Q-28.512 -2.44793 -28.8343 -1.60809Q-29.1517 -0.768242 -29.1517 0.428047Q-29.1517 1.38996 -28.9417 2.22004Q-28.7318 3.05012 -28.263 3.6507Q-27.7894 4.25129 -27.0325 4.60285Q-26.2708 4.94953 -25.1917 4.94953Q-24.5081 4.94953 -23.971 4.87141Q-23.429 4.7884 -23.0091 4.68098Q-22.5892 4.56867 -22.2718 4.43195Q-21.9495 4.29035 -21.6907 4.16828L-20.8314 6.66828Q-21.4905 7.06867 -22.6917 7.39094Q-23.888 7.70832 -25.47 7.70832ZM-9.18974 2.15168Q-9.18974 3.39191 -9.55106 4.42219Q-9.91239 5.44758 -10.5911 6.18Q-11.2698 6.91242 -12.222 7.31281Q-13.1692 7.70832 -14.3509 7.70832Q-15.5081 7.70832 -16.4602 7.31281Q-17.4124 6.91242 -18.0911 6.18Q-18.7698 5.44758 -19.1507 4.42219Q-19.5315 3.39191 -19.5315 2.15168Q-19.5315 0.911445 -19.1409 -0.109063Q-18.7503 -1.12957 -18.0618 -1.84734Q-17.3684 -2.57 -16.4212 -2.97039Q-15.469 -3.37078 -14.3509 -3.37078Q-13.2083 -3.37078 -12.261 -2.97039Q-11.3089 -2.57 -10.6302 -1.84734Q-9.95145 -1.12957 -9.57059 -0.109063Q-9.18974 0.911445 -9.18974 2.15168ZM-12.2317 2.15168Q-12.2317 0.769844 -12.7835 -0.021172Q-13.3304 -0.812188 -14.3509 -0.812188Q-15.3714 -0.812188 -15.9329 -0.021172Q-16.4895 0.769844 -16.4895 2.15168Q-16.4895 3.52863 -15.9329 4.33918Q-15.3714 5.14973 -14.3509 5.14973Q-13.3304 5.14973 -12.7835 4.33918Q-12.2317 3.52863 -12.2317 2.15168ZM-6.99116 -5.70965L-4.00776 -6.18816L-4.00776 -3.08758L-0.428658 -3.08758L-0.428658 -0.611992L-4.00776 -0.611992L-4.00776 3.08918Q-4.00776 4.03156 -3.68061 4.59309Q-3.34858 5.14973 -2.3476 5.14973Q-1.86909 5.14973 -1.36127 5.06184Q-0.848579 4.96906 -0.428658 4.80793L-0.00873566 7.13215Q-0.550728 7.35187 -1.20991 7.50812Q-1.86909 7.66926 -2.831 7.66926Q-4.0517 7.66926 -4.85249 7.34211Q-5.64838 7.01008 -6.13178 6.41926Q-6.6103 5.82844 -6.80073 4.98859Q-6.99116 4.14875 -6.99116 3.12824L-6.99116 -5.70965ZM1.88883 -5.70965L4.87223 -6.18816L4.87223 -3.08758L8.45133 -3.08758L8.45133 -0.611992L4.87223 -0.611992L4.87223 3.08918Q4.87223 4.03156 5.19938 4.59309Q5.53141 5.14973 6.53239 5.14973Q7.0109 5.14973 7.51871 5.06184Q8.03141 4.96906 8.45133 4.80793L8.87125 7.13215Q8.32926 7.35187 7.67008 7.50812Q7.0109 7.66926 6.04899 7.66926Q4.82829 7.66926 4.0275 7.34211Q3.23161 7.01008 2.74821 6.41926Q2.26969 5.82844 2.07926 4.98859Q1.88883 4.14875 1.88883 3.12824L1.88883 -5.70965ZM20.7102 2.15168Q20.7102 3.39191 20.3489 4.42219Q19.9876 5.44758 19.3089 6.18Q18.6301 6.91242 17.678 7.31281Q16.7307 7.70832 15.5491 7.70832Q14.3919 7.70832 13.4397 7.31281Q12.4876 6.91242 11.8089 6.18Q11.1301 5.44758 10.7493 4.42219Q10.3684 3.39191 10.3684 2.15168Q10.3684 0.911445 10.7591 -0.109063Q11.1497 -1.12957 11.8382 -1.84734Q12.5315 -2.57 13.4788 -2.97039Q14.4309 -3.37078 15.5491 -3.37078Q16.6917 -3.37078 17.6389 -2.97039Q18.5911 -2.57 19.2698 -1.84734Q19.9485 -1.12957 20.3294 -0.109063Q20.7102 0.911445 20.7102 2.15168ZM17.6682 2.15168Q17.6682 0.769844 17.1165 -0.021172Q16.5696 -0.812188 15.5491 -0.812188Q14.5286 -0.812188 13.9671 -0.021172Q13.4104 0.769844 13.4104 2.15168Q13.4104 3.52863 13.9671 4.33918Q14.5286 5.14973 15.5491 5.14973Q16.5696 5.14973 17.1165 4.33918Q17.6682 3.52863 17.6682 2.15168ZM23.0113 -2.73113Q23.7682 -2.95086 24.9694 -3.14129Q26.1705 -3.33172 27.4889 -3.33172Q28.8317 -3.33172 29.7203 -2.98016Q30.609 -2.62859 31.1266 -1.98895Q31.649 -1.3493 31.8688 -0.470391Q32.0885 0.408515 32.0885 1.48762L32.0885 7.43L29.11 7.43L29.11 1.84895Q29.11 0.408515 28.7291 -0.187188Q28.3483 -0.787774 27.3082 -0.787774Q26.9908 -0.787774 26.6295 -0.758477Q26.2682 -0.72918 25.9899 -0.690117L25.9899 7.43L23.0113 7.43L23.0113 -2.73113Z"/>
</svg>
