<?xml version="1.0" encoding="utf-8" ?>
<svg xmlns="http://www.w3.org/2000/svg" xmlns:xlink="http://www.w3.org/1999/xlink" width="110" height="110">
	<path fill="#39B54A" transform="matrix(0.111528 -0.00421307 0.00421307 0.111528 20.2816 17.5479)" d="M228.063 16.72Q226.793 16.7954 225.593 17.22C209.517 22.845 198.043 27.99 189.438 39.03C182.961 47.343 178.454 57.884 173.375 73.437C162.062 61.145 146.643 50.951 129.5 42.625C105.683 31.057 78.417 23.165 53.344 19.845Q53.1577 19.8201 52.9705 19.803Q52.7832 19.7859 52.5955 19.7767Q52.4077 19.7674 52.2197 19.766Q52.0317 19.7646 51.8439 19.771Q51.656 19.7775 51.4685 19.7917Q51.2811 19.806 51.0944 19.8281Q50.9077 19.8502 50.7221 19.8801Q50.5365 19.91 50.3523 19.9476Q50.1681 19.9851 49.9856 20.0304Q49.8032 20.0757 49.6228 20.1285Q49.4424 20.1813 49.2643 20.2417Q49.0863 20.302 48.9109 20.3697Q48.7355 20.4374 48.5631 20.5124Q48.3907 20.5873 48.2216 20.6694Q48.0525 20.7515 47.8869 20.8406Q47.7214 20.9297 47.5597 21.0256Q47.398 21.1216 47.2405 21.2242Q47.083 21.3268 46.9299 21.4358Q46.7768 21.5449 46.6284 21.6603Q46.4799 21.7757 46.3365 21.8972Q46.193 22.0186 46.0547 22.146Q45.9165 22.2734 45.7836 22.4064Q45.6508 22.5394 45.5236 22.6779Q45.3965 22.8163 45.2752 22.96Q45.1539 23.1036 45.0387 23.2522Q44.9236 23.4008 44.8147 23.5541Q44.7059 23.7073 44.6035 23.865Q44.5011 24.0227 44.4054 24.1845Q44.3097 24.3463 44.2209 24.512Q44.132 24.6777 44.0502 24.8469Q43.9683 25.0161 43.8936 25.1886Q43.8189 25.3611 43.7514 25.5366Q43.684 25.7121 43.6239 25.8902Q43.5639 26.0684 43.5113 26.2489Q43.4587 26.4293 43.4137 26.6119Q43.3687 26.7944 43.3314 26.9787Q43.2941 27.1629 43.2645 27.3486Q43.2349 27.5342 43.2131 27.7209Q43.1912 27.9076 43.1772 28.0951Q43.1632 28.2826 43.157 28.4705Q43.1509 28.6584 43.1526 28.8463Q43.1542 29.0343 43.1638 29.2221Q43.1733 29.4098 43.1907 29.597Q43.208 29.7842 43.2332 29.9705Q43.2584 30.1568 43.2913 30.3419Q43.3242 30.527 43.3648 30.7105Q43.4055 30.8941 43.4537 31.0758Q43.502 31.2575 43.5578 31.437Q43.6136 31.6165 43.6768 31.7935Q43.74 31.9706 43.8106 32.1448Q43.8812 32.3191 43.959 32.4902Q44.0368 32.6613 44.1217 32.8291Q44.2066 32.9968 44.2984 33.1609Q44.3902 33.3249 44.4887 33.485Q44.5873 33.6451 44.6925 33.8009Q44.7977 33.9567 44.9092 34.108Q45.0208 34.2593 45.1386 34.4058Q45.2565 34.5523 45.3803 34.6937Q45.5041 34.8352 45.6337 34.9713Q45.7633 35.1075 45.8985 35.2381Q46.0337 35.3688 46.1743 35.4936Q46.3148 35.6185 46.4604 35.7374Q46.606 35.8563 46.7565 35.969Q46.907 36.0817 47.062 36.188C68.747 51.122 87.587 65.456 100.469 79.875C110.433 91.03 116.679 101.885 118.905 113.405C86.015 109.7 56.155 116.875 19.499 136.655Q19.3277 136.746 19.1605 136.844Q18.9933 136.942 18.8304 137.047Q18.6676 137.152 18.5094 137.264Q18.3513 137.376 18.1981 137.495Q18.0449 137.613 17.8969 137.739Q17.749 137.864 17.6066 137.995Q17.4642 138.127 17.3275 138.264Q17.1909 138.402 17.0603 138.545Q16.9298 138.688 16.8055 138.837Q16.6812 138.986 16.5634 139.14Q16.4456 139.294 16.3346 139.452Q16.2235 139.611 16.1195 139.775Q16.0154 139.938 15.9184 140.106Q15.8214 140.274 15.7318 140.446Q15.6421 140.618 15.56 140.793Q15.4778 140.969 15.4033 141.148Q15.3288 141.327 15.262 141.508Q15.1952 141.69 15.1364 141.875Q15.0775 142.06 15.0267 142.247Q14.9758 142.434 14.933 142.623Q14.8903 142.812 14.8557 143.003Q14.8211 143.193 14.7948 143.385Q14.7684 143.577 14.7504 143.77Q14.7323 143.963 14.7226 144.157Q14.7129 144.35 14.7115 144.544Q14.7101 144.738 14.7171 144.932Q14.7241 145.125 14.7394 145.319Q14.7546 145.512 14.7782 145.704Q14.8018 145.897 14.8337 146.088Q14.8656 146.279 14.9056 146.469Q14.9457 146.658 14.9939 146.846Q15.0421 147.034 15.0983 147.219Q15.1545 147.405 15.2187 147.588Q15.2828 147.771 15.3548 147.95Q15.4268 148.13 15.5064 148.307Q15.5861 148.484 15.6733 148.657Q15.7605 148.83 15.855 148.999Q15.9496 149.168 16.0513 149.333Q16.1531 149.498 16.2619 149.659Q16.3706 149.819 16.4862 149.975Q16.6018 150.13 16.7239 150.281Q16.8461 150.431 16.9746 150.576Q17.1031 150.721 17.2378 150.861Q17.3724 151 17.513 151.134Q17.6535 151.267 17.7996 151.395Q17.9458 151.522 18.0973 151.643Q18.2487 151.764 18.4053 151.878Q18.5619 151.992 18.7232 152.1Q18.8845 152.207 19.0503 152.307Q19.2161 152.408 19.3861 152.501Q19.5561 152.594 19.7299 152.68Q19.9037 152.766 20.0811 152.844Q20.2584 152.922 20.439 152.992Q20.6195 153.063 20.8029 153.126Q20.9864 153.188 21.1723 153.243Q21.3582 153.298 21.5464 153.344Q21.7345 153.391 21.9245 153.429Q22.1144 153.468 22.3059 153.498Q22.4973 153.528 22.6899 153.55Q22.8824 153.572 23.0758 153.586Q23.2691 153.6 23.4629 153.605Q23.6566 153.61 23.8504 153.607Q24.0442 153.604 24.2377 153.593Q24.4312 153.582 24.624 153.562C58.976 150.297 94.108 149.754 121.187 154.187C134.727 156.404 146.194 159.91 154.405 164.437C157.573 166.184 160.225 168.007 162.405 169.969C167.77 161.839 174.438 154.331 181.843 147.749C194.933 136.112 210.635 127.111 226.873 123.655C215.547 105.415 212.735 93.425 214.03 82.155C215.618 68.342 224.597 53.262 236.594 29.811Q236.729 29.5478 236.846 29.2763Q236.964 29.0048 237.063 28.7261Q237.163 28.4475 237.244 28.1629Q237.324 27.8784 237.386 27.5891Q237.448 27.2999 237.491 27.0072Q237.534 26.7145 237.558 26.4196Q237.581 26.1247 237.585 25.8289Q237.59 25.5331 237.574 25.2377Q237.559 24.9423 237.524 24.6485Q237.49 24.3547 237.436 24.0638Q237.382 23.7729 237.309 23.4862Q237.236 23.1995 237.145 22.9182Q237.053 22.6369 236.943 22.3622Q236.834 22.0875 236.706 21.8206Q236.578 21.5537 236.434 21.2958Q236.289 21.0379 236.127 20.79Q235.966 20.5422 235.788 20.3054Q235.611 20.0687 235.418 19.8441Q235.226 19.6196 235.019 19.4082Q234.812 19.1967 234.592 18.9993Q234.371 18.8019 234.138 18.6194Q233.906 18.437 233.661 18.2701Q233.417 18.1033 233.162 17.9529Q232.908 17.8025 232.643 17.6692Q232.379 17.5358 232.107 17.4201Q231.835 17.3044 231.556 17.2068Q231.276 17.1092 230.991 17.0301Q230.706 16.9511 230.417 16.8909Q230.127 16.8307 229.834 16.7897Q229.541 16.7487 229.246 16.727Q228.951 16.7053 228.655 16.7031Q228.359 16.7008 228.064 16.718L228.063 16.72Z"/>
	<path fill="#2E933C" transform="matrix(0.111528 -0.00421307 0.00421307 0.111528 20.2816 17.5479)" d="M229.1 34.1893Q230.299 34.1181 231.432 33.7171Q219.233 37.9859 213.333 41.3245Q207.078 44.8643 203.241 49.7882Q196.813 58.0372 190.01 78.8695Q189.877 79.2779 189.724 79.6792Q189.571 80.0806 189.398 80.4739Q189.225 80.8672 189.033 81.2516Q188.841 81.636 188.631 82.0105Q188.42 82.385 188.192 82.7488Q187.963 83.1125 187.717 83.4646Q187.471 83.8167 187.208 84.1562Q186.945 84.4958 186.665 84.8221Q186.386 85.1483 186.091 85.4605Q185.795 85.7726 185.485 86.0699Q185.175 86.3672 184.851 86.6489Q184.526 86.9306 184.189 87.1961Q183.851 87.4616 183.501 87.7101Q183.15 87.9587 182.788 88.1898Q182.426 88.4209 182.053 88.6339Q181.68 88.8469 181.297 89.0414Q180.914 89.2359 180.521 89.4113Q180.129 89.5867 179.729 89.7427Q179.329 89.8987 178.921 90.0348Q178.514 90.171 178.1 90.287Q177.687 90.403 177.268 90.4985Q176.849 90.5941 176.426 90.669Q176.003 90.7439 175.577 90.7979Q175.15 90.852 174.722 90.8851Q174.294 90.9181 173.864 90.9301Q173.435 90.9422 173.005 90.9331Q172.576 90.924 172.147 90.8939Q171.719 90.8638 171.292 90.8126Q170.866 90.7615 170.442 90.6895Q170.019 90.6175 169.599 90.5248Q169.18 90.4321 168.765 90.319Q168.351 90.2058 167.943 90.0724Q166.878 89.7248 165.867 89.2444Q164.855 88.7639 163.913 88.1585Q162.971 87.553 162.114 86.8325Q161.257 86.1119 160.498 85.288Q146.93 70.5451 121.855 58.3666Q88.4624 42.1479 51.0468 37.1936Q53.9516 37.5817 56.4895 36.0758Q59.0274 34.57 60.0862 31.8155Q61.1451 29.0609 60.2692 26.2429Q59.3933 23.4249 56.9596 21.7558Q96.0836 48.6997 113.519 68.2158Q131.993 88.8978 136.087 110.085Q136.169 110.507 136.229 110.932Q136.29 111.357 136.33 111.785Q136.37 112.213 136.388 112.642Q136.407 113.071 136.405 113.501Q136.402 113.93 136.379 114.359Q136.356 114.788 136.311 115.216Q136.267 115.643 136.201 116.067Q136.136 116.492 136.05 116.913Q135.964 117.334 135.857 117.75Q135.75 118.166 135.623 118.577Q135.496 118.987 135.349 119.391Q135.203 119.794 135.036 120.19Q134.869 120.586 134.684 120.974Q134.498 121.361 134.293 121.739Q134.089 122.117 133.866 122.484Q133.643 122.851 133.402 123.207Q133.162 123.563 132.904 123.907Q132.646 124.25 132.372 124.581Q132.097 124.911 131.807 125.228Q131.517 125.545 131.211 125.847Q130.906 126.149 130.586 126.436Q130.266 126.723 129.933 126.993Q129.599 127.264 129.253 127.518Q128.906 127.772 128.548 128.009Q128.189 128.245 127.82 128.464Q127.45 128.683 127.07 128.884Q126.69 129.084 126.301 129.266Q125.911 129.447 125.513 129.609Q125.116 129.772 124.71 129.914Q124.305 130.057 123.893 130.179Q123.481 130.301 123.064 130.404Q122.647 130.506 122.225 130.587Q120.921 130.839 119.593 130.891Q118.266 130.944 116.946 130.795Q95.3991 128.368 74.6236 133.258Q53.38 138.258 27.8095 152.056Q30.3849 150.692 31.5577 147.877Q32.7306 145.061 31.8458 142.143Q30.961 139.224 28.4223 137.533Q25.8835 135.843 22.8493 136.152Q83.8971 130.349 124.014 136.917Q147.799 140.811 162.854 149.112Q169.402 152.723 174.112 156.961L162.405 169.969L147.799 160.33Q156.952 146.46 170.217 134.669Q195.133 112.518 223.23 106.538L226.873 123.655L212.006 132.887Q193.93 103.777 196.644 80.1573Q197.837 69.7837 203.497 56.743Q206.657 49.4624 215.354 32.7726Q219.046 25.6879 221.014 21.8408Q218.772 26.2107 221.464 30.3427Q224.156 34.4747 229.08 34.1885L228.064 16.718L243.758 24.4607L243.757 24.4627Q243.502 24.9795 243.214 25.4783Q242.925 25.9771 242.605 26.4559Q242.284 26.9347 241.933 27.3914Q241.581 27.848 241.201 28.2806Q240.82 28.7131 240.412 29.1197Q240.004 29.5263 239.57 29.9052Q239.135 30.284 238.677 30.6335Q238.219 30.983 237.739 31.3016Q237.259 31.6201 236.759 31.9065Q236.259 32.1928 235.741 32.4456Q235.224 32.6984 234.69 32.9166Q234.157 33.1348 233.611 33.3174Q233.064 33.5001 232.507 33.6464Q231.949 33.7927 231.384 33.902Q230.818 34.0114 230.246 34.0833Q229.675 34.1552 229.1 34.1893ZM227.027 -0.749279L228.063 16.72L212.369 8.97726L212.37 8.97525Q212.625 8.45794 212.914 7.95856Q213.203 7.45918 213.524 6.9799Q213.845 6.50062 214.197 6.04352Q214.548 5.58642 214.93 5.15348Q215.311 4.72054 215.72 4.31365Q216.128 3.90675 216.563 3.52766Q216.998 3.14858 217.457 2.79894Q217.916 2.44931 218.397 2.13065Q218.877 1.81199 219.378 1.52569Q219.879 1.23938 220.397 0.986676Q220.916 0.73397 221.45 0.51596Q221.984 0.29795 222.531 0.115582Q223.079 -0.0667859 223.637 -0.21272Q224.195 -0.358654 224.761 -0.46752Q225.328 -0.576387 225.9 -0.647713Q226.473 -0.719039 227.048 -0.752516Q234.167 -1.16635 240.532 2.04815Q246.897 5.26265 250.79 11.2374Q254.682 17.212 255.051 24.3333Q255.419 31.4546 252.174 37.7812Q250.147 41.7436 246.393 48.9473Q232.369 75.8572 231.416 84.1527Q230.093 95.6659 241.74 114.423Q242.54 115.713 243.107 117.12Q243.674 118.528 243.99 120.012Q244.079 120.432 244.148 120.856Q244.216 121.28 244.264 121.707Q244.312 122.134 244.339 122.563Q244.366 122.992 244.371 123.421Q244.377 123.851 244.362 124.28Q244.346 124.709 244.31 125.138Q244.274 125.566 244.216 125.991Q244.159 126.417 244.081 126.84Q244.003 127.262 243.904 127.68Q243.805 128.098 243.686 128.511Q243.567 128.924 243.427 129.33Q243.288 129.736 243.129 130.135Q242.97 130.534 242.791 130.925Q242.613 131.316 242.415 131.698Q242.218 132.079 242.002 132.451Q241.786 132.822 241.552 133.182Q241.318 133.543 241.067 133.891Q240.816 134.24 240.548 134.575Q240.28 134.911 239.995 135.233Q239.711 135.555 239.411 135.863Q239.112 136.171 238.797 136.464Q238.483 136.756 238.155 137.033Q237.826 137.31 237.484 137.571Q237.143 137.831 236.789 138.075Q236.435 138.318 236.069 138.544Q235.704 138.77 235.328 138.977Q234.952 139.185 234.566 139.373Q234.18 139.562 233.785 139.732Q233.391 139.902 232.988 140.052Q232.586 140.202 232.176 140.332Q231.767 140.462 231.351 140.572Q230.936 140.682 230.516 140.772Q211.471 144.825 193.469 160.829Q183.636 169.57 177.011 179.608Q176.289 180.702 175.413 181.676Q175.125 181.995 174.823 182.3Q174.52 182.605 174.203 182.894Q173.885 183.184 173.554 183.458Q173.223 183.731 172.879 183.989Q172.535 184.246 172.178 184.486Q171.822 184.726 171.454 184.948Q171.087 185.17 170.708 185.374Q170.33 185.578 169.942 185.763Q169.555 185.948 169.158 186.113Q168.762 186.279 168.358 186.425Q167.954 186.571 167.543 186.698Q167.133 186.824 166.716 186.93Q166.3 187.035 165.879 187.121Q165.458 187.206 165.033 187.27Q164.609 187.335 164.181 187.379Q163.754 187.422 163.325 187.445Q162.896 187.467 162.466 187.469Q162.037 187.47 161.607 187.451Q161.178 187.431 160.751 187.391Q160.323 187.35 159.898 187.288Q159.473 187.227 159.051 187.145Q158.629 187.062 158.212 186.959Q157.795 186.856 157.384 186.733Q156.972 186.61 156.567 186.466Q156.162 186.323 155.765 186.16Q155.367 185.997 154.978 185.815Q154.589 185.633 154.21 185.431Q153.83 185.23 153.461 185.011Q153.091 184.791 152.733 184.554Q152.375 184.316 152.029 184.061Q151.684 183.807 151.35 183.535Q151.017 183.264 150.698 182.977Q148.979 181.429 145.956 179.762Q136.186 174.376 118.36 171.457Q82.7062 165.62 26.3987 170.972Q16.9389 171.936 9.02411 166.666Q1.1093 161.396 -1.64917 152.296Q-4.40763 143.196 -0.751136 134.418Q2.90536 125.64 11.1885 121.254Q40.8435 105.252 66.6049 99.1886Q93.287 92.9085 120.864 96.015L118.905 113.405L101.723 116.725Q99.4601 105.015 87.4186 91.5342Q72.7775 75.1462 37.1644 50.6202Q29.577 45.4167 26.8463 36.6311Q24.1157 27.8454 27.4166 19.2578Q30.7176 10.6701 38.6299 5.97545Q46.5422 1.28079 55.6412 2.49642Q98.665 8.19336 137.145 26.8834Q168.189 41.9608 186.252 61.586L173.375 73.437L156.74 68.0045Q165.443 41.3539 175.635 28.2718Q183.765 17.8421 196.095 10.8642Q204.718 5.98372 219.754 0.722929Q223.286 -0.527349 227.027 -0.749279Z"/>
	<path fill="#F09148" transform="matrix(0.111528 -0.00421307 0.00421307 0.111528 20.2816 17.5479)" d="M241.969 140.156C241.442 140.153 240.907 140.172 240.374 140.186C225.449 140.614 207.859 148.704 193.78 161.219C177.692 175.519 166.803 195.036 167 211.219C167.39 243.394 185.688 278.989 214.344 313.343C242.999 347.697 281.644 380.653 320.719 408.063C359.792 435.469 399.379 457.379 429.499 469.999C444.559 476.309 457.356 480.274 465.812 481.499C469.77 482.073 472.609 481.947 473.999 481.687C474.064 480.889 474.152 479.85 474.062 478.467C473.857 475.354 473.248 470.963 472.218 465.717C470.158 455.227 466.446 441.163 461.248 424.905C450.851 392.389 434.498 351.005 413.56 309.968C400 283.388 384.475 256.952 367.467 233.154C335.187 193.482 331.875 190.02 328.528 186.716C293.245 155.836 270.128 143.532 246.591 140.466C245.086 140.269 243.544 140.162 241.966 140.152L241.969 140.156Z"/>
	<path fill="#C2753A" transform="matrix(0.111528 -0.00421307 0.00421307 0.111528 20.2816 17.5479)" d="M241.869 157.656Q241.735 157.655 241.16 157.671Q240.945 157.677 240.833 157.68Q233.267 157.897 223.991 162.106Q214.047 166.618 205.407 174.299Q195.485 183.117 189.669 193.85Q184.408 203.56 184.499 211.006Q184.981 250.822 227.783 302.133Q266.706 348.798 330.769 393.736Q387.145 433.279 436.262 453.859Q456.971 462.536 468.321 464.18Q469.837 464.4 470.967 464.406L470.781 464.485L473.999 481.687L456.557 480.266L456.56 480.226Q456.604 479.684 456.599 479.604Q456.341 475.684 455.046 469.089Q451.932 453.232 444.579 430.234Q426.622 374.073 397.972 317.921Q376.602 276.033 353.229 243.329L367.467 233.154L353.893 244.199Q321.418 204.288 316.234 199.17L328.528 186.716L317.003 199.885Q292.388 178.342 274.635 168.447Q258.995 159.73 244.331 157.819Q243.11 157.66 241.855 157.652L241.966 140.152L255.985 129.678L255.988 129.682Q256.245 130.026 256.485 130.382Q256.725 130.739 256.947 131.106Q257.17 131.474 257.373 131.852Q257.577 132.23 257.762 132.618Q257.947 133.006 258.113 133.402Q258.279 133.798 258.425 134.202Q258.571 134.606 258.697 135.017Q258.824 135.428 258.929 135.844Q259.035 136.26 259.121 136.681Q259.206 137.103 259.27 137.527Q259.335 137.952 259.379 138.379Q259.422 138.807 259.445 139.236Q259.467 139.665 259.469 140.094Q259.47 140.524 259.451 140.953Q259.431 141.382 259.391 141.81Q259.35 142.238 259.289 142.663Q259.227 143.088 259.145 143.51Q259.062 143.931 258.959 144.348Q258.857 144.765 258.733 145.177Q258.61 145.588 258.467 145.993Q258.323 146.398 258.16 146.796Q257.997 147.193 257.815 147.582Q257.633 147.971 257.432 148.351Q257.23 148.731 257.011 149.1Q256.791 149.469 256.554 149.827Q256.316 150.185 256.062 150.531Q255.807 150.877 255.536 151.21Q255.264 151.543 254.977 151.863Q254.69 152.182 254.387 152.487Q254.084 152.792 253.767 153.081Q253.45 153.371 253.118 153.645Q252.787 153.918 252.443 154.175Q251.876 154.599 251.276 154.976Q250.676 155.353 250.047 155.68Q249.419 156.007 248.766 156.282Q248.113 156.557 247.44 156.779Q246.767 157 246.079 157.167Q245.39 157.333 244.69 157.443Q243.99 157.553 243.284 157.607Q242.578 157.66 241.869 157.656ZM242.069 122.656L241.969 140.156L227.95 150.63L227.947 150.626Q227.522 150.058 227.145 149.458Q226.768 148.857 226.441 148.228Q226.114 147.599 225.838 146.945Q225.563 146.292 225.342 145.618Q225.12 144.944 224.954 144.255Q224.788 143.566 224.678 142.865Q224.568 142.165 224.515 141.457Q224.462 140.75 224.466 140.041Q224.469 139.612 224.493 139.183Q224.517 138.754 224.561 138.326Q224.606 137.899 224.672 137.475Q224.738 137.05 224.824 136.629Q224.911 136.208 225.018 135.792Q225.125 135.376 225.252 134.966Q225.379 134.556 225.527 134.152Q225.674 133.749 225.841 133.353Q226.008 132.957 226.194 132.57Q226.38 132.183 226.585 131.805Q226.79 131.427 227.013 131.06Q227.236 130.693 227.477 130.338Q227.718 129.982 227.976 129.638Q228.234 129.295 228.509 128.965Q228.784 128.634 229.074 128.318Q229.365 128.001 229.67 127.7Q229.976 127.398 230.296 127.111Q230.616 126.825 230.95 126.554Q231.284 126.284 231.631 126.03Q231.977 125.776 232.336 125.54Q232.695 125.304 233.064 125.085Q233.434 124.867 233.814 124.666Q234.195 124.466 234.584 124.285Q234.974 124.104 235.372 123.942Q235.77 123.78 236.175 123.638Q236.58 123.496 236.992 123.374Q237.404 123.252 237.821 123.15Q238.239 123.048 238.661 122.967Q239.083 122.886 239.508 122.826Q239.933 122.765 240.361 122.726Q240.789 122.686 241.218 122.668Q241.647 122.65 242.077 122.652Q245.501 122.674 248.852 123.113Q270.172 125.89 291.675 137.875Q312.657 149.57 340.053 173.547Q340.448 173.893 340.822 174.262Q347.364 180.719 381.041 222.109Q381.387 222.533 381.705 222.979Q406.594 257.804 429.148 302.015Q459.092 360.702 477.917 419.576Q485.886 444.501 489.39 462.345Q491.118 471.144 491.525 477.33Q491.697 479.971 491.444 483.07Q491.442 483.094 491.441 483.108Q491.412 483.463 491.369 483.817Q491.325 484.172 491.268 484.524Q491.21 484.876 491.138 485.225Q491.065 485.575 490.979 485.921Q490.893 486.267 490.792 486.609Q490.692 486.952 490.578 487.29Q490.464 487.628 490.336 487.961Q490.208 488.294 490.067 488.621Q489.925 488.949 489.77 489.27Q489.616 489.592 489.448 489.907Q489.281 490.222 489.1 490.53Q488.92 490.838 488.728 491.138Q488.535 491.438 488.33 491.73Q488.125 492.023 487.909 492.306Q487.692 492.59 487.464 492.864Q487.237 493.139 486.998 493.404Q486.759 493.669 486.509 493.924Q486.26 494.179 486 494.424Q485.741 494.668 485.471 494.902Q485.202 495.136 484.923 495.359Q484.644 495.581 484.357 495.793Q484.069 496.004 483.773 496.203Q483.477 496.402 483.173 496.589Q482.87 496.776 482.558 496.951Q482.247 497.125 481.929 497.287Q481.611 497.449 481.287 497.597Q480.962 497.746 480.632 497.881Q480.302 498.016 479.967 498.138Q479.631 498.26 479.291 498.368Q478.951 498.475 478.607 498.569Q478.263 498.663 477.915 498.743Q477.567 498.823 477.217 498.889Q471.352 499.986 463.303 498.818Q447.55 496.536 422.736 486.14Q370.138 464.101 310.669 422.39Q242.804 374.784 200.905 324.553Q150.135 263.687 149.501 211.432Q149.3 194.886 158.897 177.176Q167.64 161.04 182.153 148.139Q194.757 136.936 209.529 130.234Q225.221 123.113 239.915 122.692Q239.997 122.69 240.181 122.685Q241.345 122.652 242.069 122.656Z"/>
	<path fill="none" stroke="black" stroke-width="2.3999999" stroke-linejoin="round" transform="translate(55 79.2857)" d="M-23.04 7.70832Q-26.4189 7.70832 -28.1914 5.82844Q-29.959 3.94855 -29.959 0.491523Q-29.959 -1.23211 -29.4219 -2.57977Q-28.8799 -3.9323 -27.9424 -4.86004Q-27 -5.78777 -25.7012 -6.26629Q-24.4023 -6.74969 -22.8789 -6.74969Q-22 -6.74969 -21.2822 -6.61785Q-20.5596 -6.4909 -20.0225 -6.32Q-19.4805 -6.1491 -19.1191 -5.96844Q-18.7578 -5.78777 -18.6016 -5.69012L-19.5 -3.17059Q-20.1396 -3.51238 -20.9893 -3.75164Q-21.8389 -3.9909 -22.918 -3.9909Q-23.6406 -3.9909 -24.3291 -3.75164Q-25.0176 -3.51238 -25.5498 -2.98016Q-26.082 -2.44793 -26.4043 -1.60809Q-26.7217 -0.768242 -26.7217 0.428047Q-26.7217 1.38996 -26.5117 2.22004Q-26.3018 3.05012 -25.833 3.6507Q-25.3594 4.25129 -24.6025 4.60285Q-23.8408 4.94953 -22.7617 4.94953Q-22.0781 4.94953 -21.541 4.87141Q-20.999 4.7884 -20.5791 4.68098Q-20.1592 4.56867 -19.8418 4.43195Q-19.5195 4.29035 -19.2607 4.16828L-18.4014 6.66828Q-19.0605 7.06867 -20.2617 7.39094Q-21.458 7.70832 -23.04 7.70832ZM-12.58 5.34992Q-12.1406 5.34992 -11.7402 5.33039Q-11.3398 5.31086 -11.1006 5.2718L-11.1006 3.01105Q-11.2812 2.97199 -11.6425 2.93293Q-11.999 2.88898 -12.3017 2.88898Q-12.7216 2.88898 -13.0927 2.9427Q-13.459 2.99152 -13.7422 3.13312Q-14.0205 3.26984 -14.1816 3.5091Q-14.3379 3.74836 -14.3379 4.10969Q-14.3379 4.80793 -13.8691 5.08137Q-13.4004 5.34992 -12.58 5.34992ZM-12.8193 -3.37078Q-11.5009 -3.37078 -10.622 -3.06805Q-9.73825 -2.7702 -9.21091 -2.20867Q-8.67868 -1.65203 -8.45895 -0.85125Q-8.23923 -0.0504689 -8.23923 0.930976L-8.23923 7.13215Q-8.87888 7.26887 -10.0215 7.4593Q-11.1591 7.64973 -12.7802 7.64973Q-13.8008 7.64973 -14.6308 7.46906Q-15.4609 7.2884 -16.0615 6.87824Q-16.6621 6.46809 -16.9843 5.80891Q-17.3017 5.14973 -17.3017 4.18781Q-17.3017 3.26984 -16.9306 2.6302Q-16.5595 1.99055 -15.9394 1.60969Q-15.3193 1.22883 -14.5185 1.06281Q-13.7177 0.891914 -12.8584 0.891914Q-12.2822 0.891914 -11.833 0.940742Q-11.3789 0.98957 -11.1006 1.0677L-11.1006 0.789375Q-11.1006 0.0276561 -11.5595 -0.431328Q-12.0185 -0.890313 -13.1611 -0.890313Q-13.9179 -0.890313 -14.6601 -0.778008Q-15.4023 -0.670586 -15.9394 -0.470391L-16.3203 -2.86785Q-16.0615 -2.95086 -15.6709 -3.03875Q-15.2802 -3.13152 -14.8213 -3.19988Q-14.3623 -3.26824 -13.8545 -3.31707Q-13.3418 -3.37078 -12.8193 -3.37078ZM0.799271 -0.45086Q0.39888 -0.548516 -0.143112 -0.655938Q-0.680222 -0.768242 -1.30034 -0.768242Q-1.57866 -0.768242 -1.96928 -0.719414Q-2.35991 -0.670586 -2.5601 -0.611992L-2.5601 7.43L-5.53862 7.43L-5.53862 -2.53094Q-4.73784 -2.80926 -3.64897 -3.05828Q-2.5601 -3.31219 -1.22221 -3.31219Q-0.978073 -3.31219 -0.641159 -3.27801Q-0.299362 -3.24871 0.0375519 -3.19988Q0.379349 -3.15105 0.716263 -3.07781Q1.05806 -3.00945 1.3022 -2.9118L0.799271 -0.45086ZM9.23926 -0.45086Q8.83887 -0.548516 8.29688 -0.655938Q7.75977 -0.768242 7.13965 -0.768242Q6.86133 -0.768242 6.4707 -0.719414Q6.08008 -0.670586 5.87988 -0.611992L5.87988 7.43L2.90137 7.43L2.90137 -2.53094Q3.70215 -2.80926 4.79102 -3.05828Q5.87988 -3.31219 7.21777 -3.31219Q7.46191 -3.31219 7.79883 -3.27801Q8.14062 -3.24871 8.47754 -3.19988Q8.81934 -3.15105 9.15625 -3.07781Q9.49805 -3.00945 9.74219 -2.9118L9.23926 -0.45086ZM21.1802 2.15168Q21.1802 3.39191 20.8189 4.42219Q20.4576 5.44758 19.7789 6.18Q19.1001 6.91242 18.148 7.31281Q17.2007 7.70832 16.0191 7.70832Q14.8619 7.70832 13.9097 7.31281Q12.9576 6.91242 12.2789 6.18Q11.6001 5.44758 11.2193 4.42219Q10.8384 3.39191 10.8384 2.15168Q10.8384 0.911445 11.229 -0.109063Q11.6197 -1.12957 12.3082 -1.84734Q13.0015 -2.57 13.9488 -2.97039Q14.9009 -3.37078 16.0191 -3.37078Q17.1617 -3.37078 18.1089 -2.97039Q19.0611 -2.57 19.7398 -1.84734Q20.4185 -1.12957 20.7994 -0.109063Q21.1802 0.911445 21.1802 2.15168ZM18.1382 2.15168Q18.1382 0.769844 17.5865 -0.021172Q17.0396 -0.812188 16.0191 -0.812188Q14.9986 -0.812188 14.4371 -0.021172Q13.8804 0.769844 13.8804 2.15168Q13.8804 3.52863 14.4371 4.33918Q14.9986 5.14973 16.0191 5.14973Q17.0396 5.14973 17.5865 4.33918Q18.1382 3.52863 18.1382 2.15168ZM23.3788 -5.70965L26.3622 -6.18816L26.3622 -3.08758L29.9413 -3.08758L29.9413 -0.611992L26.3622 -0.611992L26.3622 3.08918Q26.3622 4.03156 26.6893 4.59309Q27.0214 5.14973 28.0224 5.14973Q28.5009 5.14973 29.0087 5.06184Q29.5214 4.96906 29.9413 4.80793L30.3612 7.13215Q29.8192 7.35187 29.16 7.50812Q28.5009 7.66926 27.539 7.66926Q26.3183 7.66926 25.5175 7.34211Q24.7216 7.01008 24.2382 6.41926Q23.7597 5.82844 23.5692 4.98859Q23.3788 4.14875 23.3788 3.12824L23.3788 -5.70965Z"/>
	<path fill="white" transform="translate(55 79.2857)" d="M-23.04 7.70832Q-26.4189 7.70832 -28.1914 5.82844Q-29.959 3.94855 -29.959 0.491523Q-29.959 -1.23211 -29.4219 -2.57977Q-28.8799 -3.9323 -27.9424 -4.86004Q-27 -5.78777 -25.7012 -6.26629Q-24.4023 -6.74969 -22.8789 -6.74969Q-22 -6.74969 -21.2822 -6.61785Q-20.5596 -6.4909 -20.0225 -6.32Q-19.4805 -6.1491 -19.1191 -5.96844Q-18.7578 -5.78777 -18.6016 -5.69012L-19.5 -3.17059Q-20.1396 -3.51238 -20.9893 -3.75164Q-21.8389 -3.9909 -22.918 -3.9909Q-23.6406 -3.9909 -24.3291 -3.75164Q-25.0176 -3.51238 -25.5498 -2.98016Q-26.082 -2.44793 -26.4043 -1.60809Q-26.7217 -0.768242 -26.7217 0.428047Q-26.7217 1.38996 -26.5117 2.22004Q-26.3018 3.05012 -25.833 3.6507Q-25.3594 4.25129 -24.6025 4.60285Q-23.8408 4.94953 -22.7617 4.94953Q-22.0781 4.94953 -21.541 4.87141Q-20.999 4.7884 -20.5791 4.68098Q-20.1592 4.56867 -19.8418 4.43195Q-19.5195 4.29035 -19.2607 4.16828L-18.4014 6.66828Q-19.0605 7.06867 -20.2617 7.39094Q-21.458 7.70832 -23.04 7.70832ZM-12.58 5.34992Q-12.1406 5.34992 -11.7402 5.33039Q-11.3398 5.31086 -11.1006 5.2718L-11.1006 3.01105Q-11.2812 2.97199 -11.6425 2.93293Q-11.999 2.88898 -12.3017 2.88898Q-12.7216 2.88898 -13.0927 2.9427Q-13.459 2.99152 -13.7422 3.13312Q-14.0205 3.26984 -14.1816 3.5091Q-14.3379 3.74836 -14.3379 4.10969Q-14.3379 4.80793 -13.8691 5.08137Q-13.4004 5.34992 -12.58 5.34992ZM-12.8193 -3.37078Q-11.5009 -3.37078 -10.622 -3.06805Q-9.73825 -2.7702 -9.21091 -2.20867Q-8.67868 -1.65203 -8.45895 -0.85125Q-8.23923 -0.0504689 -8.23923 0.930976L-8.23923 7.13215Q-8.87888 7.26887 -10.0215 7.4593Q-11.1591 7.64973 -12.7802 7.64973Q-13.8008 7.64973 -14.6308 7.46906Q-15.4609 7.2884 -16.0615 6.87824Q-16.6621 6.46809 -16.9843 5.80891Q-17.3017 5.14973 -17.3017 4.18781Q-17.3017 3.26984 -16.9306 2.6302Q-16.5595 1.99055 -15.9394 1.60969Q-15.3193 1.22883 -14.5185 1.06281Q-13.7177 0.891914 -12.8584 0.891914Q-12.2822 0.891914 -11.833 0.940742Q-11.3789 0.98957 -11.1006 1.0677L-11.1006 0.789375Q-11.1006 0.0276561 -11.5595 -0.431328Q-12.0185 -0.890313 -13.1611 -0.890313Q-13.9179 -0.890313 -14.6601 -0.778008Q-15.4023 -0.670586 -15.9394 -0.470391L-16.3203 -2.86785Q-16.0615 -2.95086 -15.6709 -3.03875Q-15.2802 -3.13152 -14.8213 -3.19988Q-14.3623 -3.26824 -13.8545 -3.31707Q-13.3418 -3.37078 -12.8193 -3.37078ZM0.799271 -0.45086Q0.39888 -0.548516 -0.143112 -0.655938Q-0.680222 -0.768242 -1.30034 -0.768242Q-1.57866 -0.768242 -1.96928 -0.719414Q-2.35991 -0.670586 -2.5601 -0.611992L-2.5601 7.43L-5.53862 7.43L-5.53862 -2.53094Q-4.73784 -2.80926 -3.64897 -3.05828Q-2.5601 -3.31219 -1.22221 -3.31219Q-0.978073 -3.31219 -0.641159 -3.27801Q-0.299362 -3.24871 0.0375519 -3.19988Q0.379349 -3.15105 0.716263 -3.07781Q1.05806 -3.00945 1.3022 -2.9118L0.799271 -0.45086ZM9.23926 -0.45086Q8.83887 -0.548516 8.29688 -0.655938Q7.75977 -0.768242 7.13965 -0.768242Q6.86133 -0.768242 6.4707 -0.719414Q6.08008 -0.670586 5.87988 -0.611992L5.87988 7.43L2.90137 7.43L2.90137 -2.53094Q3.70215 -2.80926 4.79102 -3.05828Q5.87988 -3.31219 7.21777 -3.31219Q7.46191 -3.31219 7.79883 -3.27801Q8.14062 -3.24871 8.47754 -3.19988Q8.81934 -3.15105 9.15625 -3.07781Q9.49805 -3.00945 9.74219 -2.9118L9.23926 -0.45086ZM21.1802 2.15168Q21.1802 3.39191 20.8189 4.42219Q20.4576 5.44758 19.7789 6.18Q19.1001 6.91242 18.148 7.31281Q17.2007 7.70832 16.0191 7.70832Q14.8619 7.70832 13.9097 7.31281Q12.9576 6.91242 12.2789 6.18Q11.6001 5.44758 11.2193 4.42219Q10.8384 3.39191 10.8384 2.15168Q10.8384 0.911445 11.229 -0.109063Q11.6197 -1.12957 12.3082 -1.84734Q13.0015 -2.57 13.9488 -2.97039Q14.9009 -3.37078 16.0191 -3.37078Q17.1617 -3.37078 18.1089 -2.97039Q19.0611 -2.57 19.7398 -1.84734Q20.4185 -1.12957 20.7994 -0.109063Q21.1802 0.911445 21.1802 2.15168ZM18.1382 2.15168Q18.1382 0.769844 17.5865 -0.021172Q17.0396 -0.812188 16.0191 -0.812188Q14.9986 -0.812188 14.4371 -0.021172Q13.8804 0.769844 13.8804 2.15168Q13.8804 3.52863 14.4371 4.33918Q14.9986 5.14973 16.0191 5.14973Q17.0396 5.14973 17.5865 4.33918Q18.1382 3.52863 18.1382 2.15168ZM23.3788 -5.70965L26.3622 -6.18816L26.3622 -3.08758L29.9413 -3.08758L29.9413 -0.611992L26.3622 -0.611992L26.3622 3.08918Q26.3622 4.03156 26.6893 4.59309Q27.0214 5.14973 28.0224 5.14973Q28.5009 5.14973 29.0087 5.06184Q29.5214 4.96906 29.9413 4.80793L30.3612 7.13215Q29.8192 7.35187 29.16 7.50812Q28.5009 7.66926 27.539 7.66926Q26.3183 7.66926 25.5175 7.34211Q24.7216 7.01008 24.2382 6.41926Q23.7597 5.82844 23.5692 4.98859Q23.3788 4.14875 23.3788 3.12824L23.3788 -5.70965Z"/>
</svg>
