<?xml version="1.0" encoding="utf-8" ?>
<svg xmlns="http://www.w3.org/2000/svg" xmlns:xlink="http://www.w3.org/1999/xlink" width="110" height="110">
	<path fill="#955728" transform="matrix(0.888014 1.11904 -1.11904 0.888014 55 47.8571)" d="M22 -8L22 -4Q22 -3.86139 21.9809 -3.7241Q21.9618 -3.58681 21.9239 -3.45347Q21.886 -3.32013 21.8301 -3.19329Q21.7742 -3.06645 21.7013 -2.94854Q21.6284 -2.83063 21.54 -2.72389Q21.4515 -2.61716 21.3492 -2.52365Q21.2469 -2.43014 21.1327 -2.35164Q21.0184 -2.27314 20.8944 -2.21115L16.8944 -0.211146L16 -2L16 -4L20 -4Q20.0983 -4 20.196 -3.99037Q20.2938 -3.98074 20.3902 -3.96157Q20.4865 -3.9424 20.5806 -3.91388Q20.6746 -3.88536 20.7654 -3.84776Q20.8561 -3.81016 20.9428 -3.76384Q21.0294 -3.71753 21.1111 -3.66294Q21.1928 -3.60835 21.2688 -3.54602Q21.3447 -3.48369 21.4142 -3.41421Q21.4837 -3.34474 21.546 -3.26879Q21.6084 -3.19284 21.6629 -3.11114Q21.7175 -3.02945 21.7638 -2.94279Q21.8102 -2.85614 21.8478 -2.76537Q21.8854 -2.67459 21.9139 -2.58057Q21.9424 -2.48655 21.9616 -2.39018Q21.9807 -2.29381 21.9904 -2.19603Q22 -2.09825 22 -2L22 8Q22 8.09825 21.9904 8.19603Q21.9807 8.29381 21.9616 8.39018Q21.9424 8.48655 21.9139 8.58057Q21.8854 8.67459 21.8478 8.76537Q21.8102 8.85614 21.7638 8.94279Q21.7175 9.02944 21.6629 9.11114Q21.6083 9.19283 21.546 9.26879Q21.4837 9.34474 21.4142 9.41421Q21.3447 9.48369 21.2688 9.54602Q21.1928 9.60835 21.1111 9.66294Q21.0294 9.71753 20.9428 9.76384Q20.8561 9.81016 20.7654 9.84776Q20.6746 9.88536 20.5806 9.91388Q20.4865 9.9424 20.3902 9.96157Q20.2938 9.98074 20.196 9.99037Q20.0983 10 20 10L3 10Q2.90175 10 2.80397 9.99037Q2.70619 9.98074 2.60982 9.96157Q2.51345 9.9424 2.41943 9.91388Q2.32541 9.88536 2.23463 9.84776Q2.14386 9.81016 2.05721 9.76384Q1.97055 9.71753 1.88886 9.66294Q1.80716 9.60835 1.73121 9.54602Q1.65526 9.48369 1.58579 9.41421Q1.51631 9.34474 1.45398 9.26879Q1.39165 9.19283 1.33706 9.11114Q1.28247 9.02944 1.23616 8.94279Q1.18984 8.85614 1.15224 8.76537Q1.11464 8.67459 1.08612 8.58057Q1.0576 8.48655 1.03843 8.39018Q1.01926 8.29381 1.00963 8.19603Q1 8.09825 1 8L1 2L3 2L4.89737 2.63246L2.89737 8.63246Q2.84789 8.78088 2.77594 8.9198Q2.70399 9.05872 2.61131 9.18476Q2.51864 9.31081 2.40749 9.42091Q2.29634 9.53101 2.16942 9.62248Q2.0425 9.71396 1.9029 9.78459Q1.76331 9.85522 1.61442 9.90328Q1.46554 9.95135 1.31099 9.97567Q1.15645 10 1 10L-20 10Q-20.0983 10 -20.196 9.99037Q-20.2938 9.98074 -20.3902 9.96157Q-20.4865 9.9424 -20.5806 9.91388Q-20.6746 9.88536 -20.7654 9.84776Q-20.8561 9.81016 -20.9428 9.76384Q-21.0294 9.71753 -21.1111 9.66294Q-21.1928 9.60835 -21.2688 9.54602Q-21.3447 9.48369 -21.4142 9.41421Q-21.4837 9.34474 -21.546 9.26879Q-21.6084 9.19283 -21.6629 9.11114Q-21.7175 9.02944 -21.7638 8.94279Q-21.8102 8.85614 -21.8478 8.76537Q-21.8854 8.67459 -21.9139 8.58057Q-21.9424 8.48655 -21.9616 8.39018Q-21.9807 8.29381 -21.9904 8.19603Q-22 8.09825 -22 8L-22 -8Q-22 -8.09825 -21.9904 -8.19603Q-21.9807 -8.29381 -21.9616 -8.39018Q-21.9424 -8.48655 -21.9139 -8.58057Q-21.8854 -8.67459 -21.8478 -8.76537Q-21.8102 -8.85614 -21.7638 -8.94279Q-21.7175 -9.02944 -21.6629 -9.11114Q-21.6083 -9.19283 -21.546 -9.26879Q-21.4837 -9.34474 -21.4142 -9.41421Q-21.3447 -9.48369 -21.2688 -9.54602Q-21.1928 -9.60835 -21.1111 -9.66294Q-21.0294 -9.71753 -20.9428 -9.76384Q-20.8561 -9.81016 -20.7654 -9.84776Q-20.6746 -9.88536 -20.5806 -9.91388Q-20.4865 -9.9424 -20.3902 -9.96157Q-20.2938 -9.98074 -20.196 -9.99037Q-20.0983 -10 -20 -10L-14 -10Q-13.7538 -10 -13.5149 -9.94028L-5.51493 -7.94028L-6 -6L-8 -6L-8 -8Q-8 -8.09825 -7.99037 -8.19603Q-7.98074 -8.29381 -7.96157 -8.39018Q-7.9424 -8.48655 -7.91388 -8.58057Q-7.88536 -8.67459 -7.84776 -8.76537Q-7.81016 -8.85614 -7.76384 -8.94279Q-7.71753 -9.02944 -7.66294 -9.11114Q-7.60835 -9.19283 -7.54602 -9.26879Q-7.48369 -9.34474 -7.41421 -9.41421Q-7.34474 -9.48369 -7.26879 -9.54602Q-7.19284 -9.60835 -7.11114 -9.66294Q-7.02945 -9.71753 -6.94279 -9.76384Q-6.85614 -9.81016 -6.76537 -9.84776Q-6.67459 -9.88536 -6.58057 -9.91388Q-6.48655 -9.9424 -6.39018 -9.96157Q-6.29381 -9.98074 -6.19603 -9.99037Q-6.09825 -10 -6 -10L20 -10Q20.0983 -10 20.196 -9.99037Q20.2938 -9.98074 20.3902 -9.96157Q20.4865 -9.9424 20.5806 -9.91388Q20.6746 -9.88536 20.7654 -9.84776Q20.8561 -9.81016 20.9428 -9.76384Q21.0294 -9.71753 21.1111 -9.66294Q21.1928 -9.60835 21.2688 -9.54602Q21.3447 -9.48369 21.4142 -9.41421Q21.4837 -9.34474 21.546 -9.26879Q21.6084 -9.19283 21.6629 -9.11114Q21.7175 -9.02944 21.7638 -8.94279Q21.8102 -8.85614 21.8478 -8.76537Q21.8854 -8.67459 21.9139 -8.58057Q21.9424 -8.48655 21.9616 -8.39018Q21.9807 -8.29381 21.9904 -8.19603Q22 -8.09825 22 -8ZM18 -8L20 -8L20 -6L-6 -6L-6 -8L-4 -8L-4 -6Q-4 -5.75379 -4.05972 -5.51493Q-4.08355 -5.41961 -4.1166 -5.32708Q-4.14966 -5.23456 -4.19163 -5.14572Q-4.2336 -5.05688 -4.28407 -4.97258Q-4.33455 -4.88828 -4.39304 -4.80934Q-4.45153 -4.73039 -4.51748 -4.65756Q-4.58343 -4.58473 -4.6562 -4.51871Q-4.72897 -4.4527 -4.80787 -4.39413Q-4.88676 -4.33557 -4.97101 -4.28501Q-5.05526 -4.23446 -5.14406 -4.19241Q-5.23286 -4.15036 -5.32536 -4.11722Q-5.41785 -4.08408 -5.51315 -4.06016Q-5.60845 -4.03624 -5.70563 -4.02178Q-5.80282 -4.00732 -5.90095 -4.00245Q-5.99908 -3.99759 -6.09722 -4.00236Q-6.19536 -4.00714 -6.29255 -4.02151Q-6.38975 -4.03589 -6.48507 -4.05972L-14.4851 -6.05972L-14 -8L-14 -6L-20 -6L-20 -8L-18 -8L-18 8L-20 8L-20 6L1 6L1 8L-0.897367 7.36754L1.10263 1.36754Q1.15211 1.21912 1.22406 1.0802Q1.29601 0.94128 1.38869 0.815236Q1.48136 0.689192 1.59251 0.579093Q1.70366 0.468993 1.83058 0.377516Q1.9575 0.286039 2.0971 0.215409Q2.23669 0.14478 2.38558 0.0967175Q2.53446 0.0486547 2.68901 0.0243273Q2.84355 1.29378e-08 3 0Q3.09825 0 3.19603 0.00963055Q3.29382 0.0192611 3.39018 0.0384294Q3.48655 0.0575978 3.58057 0.0861193Q3.67459 0.114641 3.76537 0.152241Q3.85614 0.189841 3.94279 0.236157Q4.02945 0.282474 4.11114 0.337061Q4.19284 0.391648 4.26879 0.453979Q4.34474 0.516311 4.41421 0.585786Q4.48369 0.655262 4.54602 0.731213Q4.60835 0.807165 4.66294 0.88886Q4.71753 0.970554 4.76384 1.05721Q4.81016 1.14386 4.84776 1.23463Q4.88536 1.32541 4.91388 1.41943Q4.9424 1.51345 4.96157 1.60982Q4.98074 1.70619 4.99037 1.80397Q5 1.90175 5 2L5 8L3 8L3 6L20 6L20 8L18 8L18 -2L20 -2L20 0L16 -1.19209e-07Q15.8614 -1.19209e-07 15.7241 -0.0191224Q15.5868 -0.0382446 15.4535 -0.0761234Q15.3201 -0.114002 15.1933 -0.169913Q15.0665 -0.225824 14.9485 -0.298698Q14.8306 -0.371573 14.7239 -0.460016Q14.6172 -0.54846 14.5236 -0.650782Q14.4301 -0.753104 14.3516 -0.867348Q14.2731 -0.981592 14.2111 -1.10557Q14.1672 -1.19345 14.1321 -1.28522Q14.097 -1.37698 14.071 -1.47175Q14.0451 -1.56651 14.0285 -1.66336Q14.012 -1.76022 14.005 -1.85822Q13.9981 -1.95623 14.0007 -2.05445Q14.0034 -2.15266 14.0157 -2.25014Q14.028 -2.34763 14.0498 -2.44344Q14.0716 -2.53924 14.1026 -2.63246Q14.1337 -2.72567 14.1738 -2.81538Q14.2138 -2.9051 14.2625 -2.99046Q14.3111 -3.07582 14.3679 -3.156Q14.4247 -3.23618 14.4891 -3.3104Q14.5535 -3.38463 14.6248 -3.45219Q14.6961 -3.51975 14.7738 -3.57999Q14.8514 -3.64023 14.9345 -3.69257Q15.0177 -3.74491 15.1056 -3.78885L19.1056 -5.78885L20 -4L18 -4L18 -8Z"/>
	<path fill="#B86C32" transform="matrix(0.888014 1.11904 -1.11904 0.888014 55 47.8571)" d="M20 -8L20 -4L16 -2L20 -2L20 8L3 8L3 2L1 8L-20 8L-20 -8L-14 -8L-6 -6L-6 -8L20 -8Z"/>
	<path fill="#955728" transform="matrix(0.888014 1.11904 -1.11904 0.888014 55 47.8571)" d="M-13 1.75Q-13.25 1.75 -13.25 2Q-13.25 2.25 -13 2.25Q-11.75 2.25 -11.75 1Q-11.75 0.482233 -12.1161 0.116116Q-12.4822 -0.25 -13 -0.25Q-13.0619 -0.25 -13.123 -0.260162Q-15.3826 -0.635952 -15.7592 1.62347Q-16.1357 3.8829 -13.8764 4.26025Q-13.8036 4.27242 -13.7345 4.29857Q-13.6654 4.32471 -13.6028 4.36384Q-13.5401 4.40296 -13.4863 4.45356Q-13.4325 4.50416 -13.3895 4.56428Q-13.3466 4.62441 -13.3163 4.69175Q-13.2859 4.75909 -13.2693 4.83106Q-13.2526 4.90303 -13.2504 4.97686Q-13.2481 5.05069 -13.2602 5.12355Q-13.2724 5.19641 -13.2986 5.2655Q-13.3247 5.33458 -13.3638 5.39724Q-13.403 5.4599 -13.4536 5.51372Q-13.5042 5.56754 -13.5643 5.61045Q-13.6244 5.65336 -13.6917 5.68372Q-13.7591 5.71409 -13.8311 5.73072Q-13.903 5.74736 -13.9769 5.74964Q-14.0507 5.75192 -14.1236 5.73975Q-17.8618 5.11538 -17.2388 1.37687Q-16.6157 -2.36163 -12.877 -1.73984L-13 -1L-13 -1.75Q-10.25 -1.75 -10.25 1Q-10.25 3.75 -13 3.75Q-14.75 3.75 -14.75 2Q-14.75 0.25 -13 0.25Q-12.9261 0.25 -12.8537 0.264411Q-12.7812 0.278822 -12.713 0.30709Q-12.6447 0.335359 -12.5833 0.376398Q-12.5219 0.417437 -12.4697 0.46967Q-12.4174 0.521903 -12.3764 0.583322Q-12.3354 0.644742 -12.3071 0.712987Q-12.2788 0.781233 -12.2644 0.853682Q-12.25 0.926131 -12.25 1Q-12.25 1.07387 -12.2644 1.14632Q-12.2788 1.21877 -12.3071 1.28701Q-12.3354 1.35526 -12.3764 1.41668Q-12.4174 1.4781 -12.4697 1.53033Q-12.5219 1.58256 -12.5833 1.6236Q-12.6447 1.66464 -12.713 1.69291Q-12.7812 1.72118 -12.8537 1.73559Q-12.9261 1.75 -13 1.75Z"/>
	<path fill="none" stroke="black" stroke-width="2.3999999" stroke-linejoin="round" transform="translate(55 79.2857)" d="M-21.0482 -6.58855Q-17.9477 -6.58855 -16.2924 -5.49969Q-14.6322 -4.41082 -14.6322 -1.93035Q-14.6322 0.569648 -16.3119 1.68293Q-17.9916 2.79133 -21.1117 2.79133L-22.0883 2.79133L-22.0883 7.43L-25.2084 7.43L-25.2084 -6.23211Q-24.1879 -6.4323 -23.0502 -6.51043Q-21.9076 -6.58855 -21.0482 -6.58855ZM-20.8481 -3.9323Q-21.1898 -3.9323 -21.5219 -3.90789Q-21.849 -3.88836 -22.0883 -3.86883L-22.0883 0.130195L-21.1117 0.130195Q-19.4906 0.130195 -18.6703 -0.309258Q-17.85 -0.748711 -17.85 -1.94988Q-17.85 -2.53094 -18.06 -2.90691Q-18.2699 -3.28777 -18.6606 -3.51727Q-19.0512 -3.75164 -19.6127 -3.83953Q-20.1693 -3.9323 -20.8481 -3.9323ZM-8.32939 7.6302Q-9.62822 7.61066 -10.4388 7.35187Q-11.2493 7.0882 -11.7229 6.61945Q-12.1917 6.1507 -12.3626 5.48176Q-12.5286 4.80793 -12.5286 3.96809L-12.5286 -7.60906L-9.55009 -8.08758L-9.55009 3.37238Q-9.55009 3.76789 -9.4915 4.09016Q-9.42802 4.41242 -9.26201 4.63215Q-9.09111 4.85187 -8.77373 4.99348Q-8.45146 5.1302 -7.90947 5.16926L-8.32939 7.6302ZM-2.19006 5.34992Q-1.75061 5.34992 -1.35022 5.33039Q-0.949829 5.31086 -0.710571 5.2718L-0.710571 3.01105Q-0.891235 2.97199 -1.25256 2.93293Q-1.60901 2.88898 -1.91174 2.88898Q-2.33167 2.88898 -2.70276 2.9427Q-3.06897 2.99152 -3.35217 3.13312Q-3.63049 3.26984 -3.79163 3.5091Q-3.94788 3.74836 -3.94788 4.10969Q-3.94788 4.80793 -3.47913 5.08137Q-3.01038 5.34992 -2.19006 5.34992ZM-2.42932 -3.37078Q-1.11096 -3.37078 -0.232056 -3.06805Q0.651733 -2.7702 1.17908 -2.20867Q1.7113 -1.65203 1.93103 -0.85125Q2.15076 -0.0504689 2.15076 0.930976L2.15076 7.13215Q1.51111 7.26887 0.36853 7.4593Q-0.769165 7.64973 -2.39026 7.64973Q-3.41077 7.64973 -4.24084 7.46906Q-5.07092 7.2884 -5.67151 6.87824Q-6.27209 6.46809 -6.59436 5.80891Q-6.91174 5.14973 -6.91174 4.18781Q-6.91174 3.26984 -6.54065 2.6302Q-6.16956 1.99055 -5.54944 1.60969Q-4.92932 1.22883 -4.12854 1.06281Q-3.32776 0.891914 -2.46838 0.891914Q-1.89221 0.891914 -1.44299 0.940742Q-0.988892 0.98957 -0.710571 1.0677L-0.710571 0.789375Q-0.710571 0.0276561 -1.16956 -0.431328Q-1.62854 -0.890313 -2.77112 -0.890313Q-3.52795 -0.890313 -4.27014 -0.778008Q-5.01233 -0.670586 -5.54944 -0.470391L-5.9303 -2.86785Q-5.67151 -2.95086 -5.28088 -3.03875Q-4.89026 -3.13152 -4.43127 -3.19988Q-3.97229 -3.26824 -3.46448 -3.31707Q-2.95178 -3.37078 -2.42932 -3.37078ZM4.85136 -2.73113Q5.6082 -2.95086 6.80937 -3.14129Q8.01054 -3.33172 9.3289 -3.33172Q10.6717 -3.33172 11.5603 -2.98016Q12.449 -2.62859 12.9666 -1.98895Q13.4891 -1.3493 13.7088 -0.470391Q13.9285 0.408515 13.9285 1.48762L13.9285 7.43L10.95 7.43L10.95 1.84895Q10.95 0.408515 10.5691 -0.187188Q10.1883 -0.787774 9.14824 -0.787774Q8.83086 -0.787774 8.46953 -0.758477Q8.1082 -0.72918 7.82988 -0.690117L7.82988 7.43L4.85136 7.43L4.85136 -2.73113ZM19.6099 0.71125Q20.0493 0.227851 20.5181 -0.289727Q20.9917 -0.812188 21.4312 -1.32Q21.8706 -1.82781 22.2612 -2.2868Q22.6519 -2.75066 22.9302 -3.08758L26.4702 -3.08758Q25.4106 -1.87176 24.3999 -0.758477Q23.3892 0.349922 22.188 1.53156Q22.7886 2.06867 23.4282 2.82062Q24.0679 3.5677 24.6685 4.36848Q25.269 5.16926 25.7671 5.97004Q26.27 6.77082 26.6118 7.43L23.189 7.43Q22.8716 6.91242 22.4614 6.28254Q22.0513 5.64777 21.5874 5.01789Q21.1284 4.38801 20.6157 3.81184Q20.1079 3.23078 19.6099 2.83039L19.6099 7.43L16.6313 7.43L16.6313 -7.60906L19.6099 -8.08758L19.6099 0.71125Z"/>
	<path fill="white" transform="translate(55 79.2857)" d="M-21.0482 -6.58855Q-17.9477 -6.58855 -16.2924 -5.49969Q-14.6322 -4.41082 -14.6322 -1.93035Q-14.6322 0.569648 -16.3119 1.68293Q-17.9916 2.79133 -21.1117 2.79133L-22.0883 2.79133L-22.0883 7.43L-25.2084 7.43L-25.2084 -6.23211Q-24.1879 -6.4323 -23.0502 -6.51043Q-21.9076 -6.58855 -21.0482 -6.58855ZM-20.8481 -3.9323Q-21.1898 -3.9323 -21.5219 -3.90789Q-21.849 -3.88836 -22.0883 -3.86883L-22.0883 0.130195L-21.1117 0.130195Q-19.4906 0.130195 -18.6703 -0.309258Q-17.85 -0.748711 -17.85 -1.94988Q-17.85 -2.53094 -18.06 -2.90691Q-18.2699 -3.28777 -18.6606 -3.51727Q-19.0512 -3.75164 -19.6127 -3.83953Q-20.1693 -3.9323 -20.8481 -3.9323ZM-8.32939 7.6302Q-9.62822 7.61066 -10.4388 7.35187Q-11.2493 7.0882 -11.7229 6.61945Q-12.1917 6.1507 -12.3626 5.48176Q-12.5286 4.80793 -12.5286 3.96809L-12.5286 -7.60906L-9.55009 -8.08758L-9.55009 3.37238Q-9.55009 3.76789 -9.4915 4.09016Q-9.42802 4.41242 -9.26201 4.63215Q-9.09111 4.85187 -8.77373 4.99348Q-8.45146 5.1302 -7.90947 5.16926L-8.32939 7.6302ZM-2.19006 5.34992Q-1.75061 5.34992 -1.35022 5.33039Q-0.949829 5.31086 -0.710571 5.2718L-0.710571 3.01105Q-0.891235 2.97199 -1.25256 2.93293Q-1.60901 2.88898 -1.91174 2.88898Q-2.33167 2.88898 -2.70276 2.9427Q-3.06897 2.99152 -3.35217 3.13312Q-3.63049 3.26984 -3.79163 3.5091Q-3.94788 3.74836 -3.94788 4.10969Q-3.94788 4.80793 -3.47913 5.08137Q-3.01038 5.34992 -2.19006 5.34992ZM-2.42932 -3.37078Q-1.11096 -3.37078 -0.232056 -3.06805Q0.651733 -2.7702 1.17908 -2.20867Q1.7113 -1.65203 1.93103 -0.85125Q2.15076 -0.0504689 2.15076 0.930976L2.15076 7.13215Q1.51111 7.26887 0.36853 7.4593Q-0.769165 7.64973 -2.39026 7.64973Q-3.41077 7.64973 -4.24084 7.46906Q-5.07092 7.2884 -5.67151 6.87824Q-6.27209 6.46809 -6.59436 5.80891Q-6.91174 5.14973 -6.91174 4.18781Q-6.91174 3.26984 -6.54065 2.6302Q-6.16956 1.99055 -5.54944 1.60969Q-4.92932 1.22883 -4.12854 1.06281Q-3.32776 0.891914 -2.46838 0.891914Q-1.89221 0.891914 -1.44299 0.940742Q-0.988892 0.98957 -0.710571 1.0677L-0.710571 0.789375Q-0.710571 0.0276561 -1.16956 -0.431328Q-1.62854 -0.890313 -2.77112 -0.890313Q-3.52795 -0.890313 -4.27014 -0.778008Q-5.01233 -0.670586 -5.54944 -0.470391L-5.9303 -2.86785Q-5.67151 -2.95086 -5.28088 -3.03875Q-4.89026 -3.13152 -4.43127 -3.19988Q-3.97229 -3.26824 -3.46448 -3.31707Q-2.95178 -3.37078 -2.42932 -3.37078ZM4.85136 -2.73113Q5.6082 -2.95086 6.80937 -3.14129Q8.01054 -3.33172 9.3289 -3.33172Q10.6717 -3.33172 11.5603 -2.98016Q12.449 -2.62859 12.9666 -1.98895Q13.4891 -1.3493 13.7088 -0.470391Q13.9285 0.408515 13.9285 1.48762L13.9285 7.43L10.95 7.43L10.95 1.84895Q10.95 0.408515 10.5691 -0.187188Q10.1883 -0.787774 9.14824 -0.787774Q8.83086 -0.787774 8.46953 -0.758477Q8.1082 -0.72918 7.82988 -0.690117L7.82988 7.43L4.85136 7.43L4.85136 -2.73113ZM19.6099 0.71125Q20.0493 0.227851 20.5181 -0.289727Q20.9917 -0.812188 21.4312 -1.32Q21.8706 -1.82781 22.2612 -2.2868Q22.6519 -2.75066 22.9302 -3.08758L26.4702 -3.08758Q25.4106 -1.87176 24.3999 -0.758477Q23.3892 0.349922 22.188 1.53156Q22.7886 2.06867 23.4282 2.82062Q24.0679 3.5677 24.6685 4.36848Q25.269 5.16926 25.7671 5.97004Q26.27 6.77082 26.6118 7.43L23.189 7.43Q22.8716 6.91242 22.4614 6.28254Q22.0513 5.64777 21.5874 5.01789Q21.1284 4.38801 20.6157 3.81184Q20.1079 3.23078 19.6099 2.83039L19.6099 7.43L16.6313 7.43L16.6313 -7.60906L19.6099 -8.08758L19.6099 0.71125Z"/>
</svg>
