<?xml version="1.0" encoding="utf-8" ?>
<svg xmlns="http://www.w3.org/2000/svg" xmlns:xlink="http://www.w3.org/1999/xlink" width="110" height="110">
	<path fill="#333" transform="matrix(1.42857 0 0 1.42857 55 47.8571)" d="M7 0L-3.5 6.06218L-3.5 -6.06218L7 0Z"/>
	<path fill="none" stroke="#292929" stroke-width="3" stroke-linejoin="round" transform="matrix(1.42857 0 0 1.42857 55 47.8571)" d="M7 0L-3.5 6.06218L-3.5 -6.06218L7 0Z"/>
	<path fill="none" stroke="black" stroke-width="2.3999999" stroke-linejoin="round" transform="translate(55 79.2857)" d="M-29.6591 5.05207Q-28.9999 5.05207 -28.5702 4.94465Q-28.1405 4.83234 -27.8818 4.64191Q-27.6181 4.45148 -27.5204 4.1927Q-27.4179 3.92902 -27.4179 3.61164Q-27.4179 2.92805 -28.0624 2.47883Q-28.7021 2.02961 -30.2597 1.51203Q-30.9384 1.26789 -31.622 0.960273Q-32.3007 0.647773 -32.8427 0.179023Q-33.3798 -0.289727 -33.7216 -0.958672Q-34.0585 -1.62762 -34.0585 -2.58953Q-34.0585 -3.55145 -33.7021 -4.31805Q-33.3407 -5.08953 -32.6816 -5.62664Q-32.0224 -6.16863 -31.08 -6.45672Q-30.1376 -6.74969 -28.9609 -6.74969Q-27.5595 -6.74969 -26.539 -6.44695Q-25.5185 -6.1491 -24.8593 -5.78777L-25.7577 -3.33172Q-26.3388 -3.62957 -27.0517 -3.85906Q-27.7597 -4.08855 -28.7607 -4.08855Q-29.8788 -4.08855 -30.372 -3.77605Q-30.8603 -3.46844 -30.8603 -2.82879Q-30.8603 -2.44793 -30.6796 -2.18914Q-30.4989 -1.93035 -30.1718 -1.72039Q-29.8398 -1.51043 -29.4101 -1.33953Q-28.9804 -1.16863 -28.4579 -0.987969Q-27.3788 -0.587578 -26.5829 -0.196953Q-25.7822 0.188789 -25.2499 0.71125Q-24.7177 1.22883 -24.4589 1.93195Q-24.2001 2.6302 -24.2001 3.63117Q-24.2001 5.56965 -25.5624 6.63898Q-26.9198 7.70832 -29.6591 7.70832Q-30.582 7.70832 -31.3241 7.59602Q-32.0614 7.48859 -32.6327 7.33234Q-33.1991 7.17121 -33.6093 6.99055Q-34.0195 6.80988 -34.2978 6.64875L-33.4189 4.16828Q-32.7988 4.51008 -31.8905 4.78352Q-30.9823 5.05207 -29.6591 5.05207ZM-22.1012 -5.70965L-19.1178 -6.18816L-19.1178 -3.08758L-15.5387 -3.08758L-15.5387 -0.611992L-19.1178 -0.611992L-19.1178 3.08918Q-19.1178 4.03156 -18.7906 4.59309Q-18.4586 5.14973 -17.4576 5.14973Q-16.9791 5.14973 -16.4713 5.06184Q-15.9586 4.96906 -15.5387 4.80793L-15.1187 7.13215Q-15.6607 7.35187 -16.3199 7.50812Q-16.9791 7.66926 -17.941 7.66926Q-19.1617 7.66926 -19.9625 7.34211Q-20.7584 7.01008 -21.2418 6.41926Q-21.7203 5.82844 -21.9107 4.98859Q-22.1012 4.14875 -22.1012 3.12824L-22.1012 -5.70965ZM-10.1401 7.43L-13.1186 7.43L-13.1186 -3.08758L-10.1401 -3.08758L-10.1401 7.43ZM-9.86179 -6.12957Q-9.86179 -5.30926 -10.394 -4.84051Q-10.9214 -4.37176 -11.6391 -4.37176Q-12.3618 -4.37176 -12.894 -4.84051Q-13.4214 -5.30926 -13.4214 -6.12957Q-13.4214 -6.94988 -12.894 -7.41863Q-12.3618 -7.89227 -11.6391 -7.89227Q-10.9214 -7.89227 -10.394 -7.41863Q-9.86179 -6.94988 -9.86179 -6.12957ZM-7.33862 -2.73113Q-6.58179 -2.95086 -5.38062 -3.14129Q-4.17944 -3.33172 -2.86108 -3.33172Q-1.51831 -3.33172 -0.629639 -2.98016Q0.259033 -2.62859 0.776611 -1.98895Q1.29907 -1.3493 1.5188 -0.470391Q1.73853 0.408515 1.73853 1.48762L1.73853 7.43L-1.23999 7.43L-1.23999 1.84895Q-1.23999 0.408515 -1.62085 -0.187188Q-2.00171 -0.787774 -3.04175 -0.787774Q-3.35913 -0.787774 -3.72046 -0.758477Q-4.08179 -0.72918 -4.36011 -0.690117L-4.36011 7.43L-7.33862 7.43L-7.33862 -2.73113ZM6.98042 1.82941Q6.98042 4.32941 9.00191 4.32941Q9.46089 4.32941 9.86128 4.21223Q10.2617 4.09016 10.54 3.92902L10.54 -0.831719Q10.3203 -0.870781 10.0175 -0.900078Q9.71968 -0.929375 9.31929 -0.929375Q8.13765 -0.929375 7.55659 -0.148125Q6.98042 0.628242 6.98042 1.82941ZM13.5185 6.11164Q13.5185 8.68977 12.2099 9.93977Q10.9013 11.1898 8.16206 11.1898Q7.20015 11.1898 6.23824 11.0189Q5.2812 10.848 4.46089 10.5696L4.97847 8.06965Q5.68159 8.34797 6.4482 8.5091Q7.21968 8.67023 8.20113 8.67023Q9.48042 8.67023 10.0078 8.10871Q10.54 7.55207 10.54 6.66828L10.54 6.2923Q10.0615 6.51203 9.54878 6.62434Q9.04097 6.73176 8.44038 6.73176Q6.25777 6.73176 5.09566 5.4427Q3.93843 4.14875 3.93843 1.82941Q3.93843 0.672187 4.29976 -0.279961Q4.66109 -1.23211 5.34956 -1.91082Q6.03804 -2.58953 7.03902 -2.96063Q8.03999 -3.33172 9.29976 -3.33172Q9.84175 -3.33172 10.4082 -3.27801Q10.9794 -3.22918 11.5361 -3.14617Q12.0976 -3.06805 12.6054 -2.95574Q13.1181 -2.84832 13.5185 -2.73113L13.5185 6.11164ZM15.8184 2.24934Q15.8184 0.847969 16.2481 -0.201836Q16.6778 -1.25164 17.376 -1.94988Q18.0792 -2.64813 18.9874 -3.00945Q19.9005 -3.37078 20.8624 -3.37078Q23.0987 -3.37078 24.3975 -1.99871Q25.7012 -0.631524 25.7012 2.02961Q25.7012 2.2884 25.6817 2.6009Q25.6622 2.90852 25.6378 3.14777L18.8799 3.14777Q18.9776 4.07062 19.7393 4.61262Q20.501 5.14973 21.7803 5.14973Q22.6006 5.14973 23.3868 5.00324Q24.1778 4.85187 24.6807 4.63215L25.0811 7.04914Q24.8419 7.17121 24.4415 7.29328Q24.0411 7.41047 23.5479 7.49836Q23.0596 7.59113 22.4981 7.64973Q21.9415 7.70832 21.3799 7.70832Q19.959 7.70832 18.9092 7.2884Q17.8594 6.86848 17.1661 6.14094Q16.4776 5.40852 16.1456 4.41242Q15.8184 3.41145 15.8184 2.24934ZM22.8204 1.11164Q22.8008 0.730781 22.6885 0.369453Q22.5811 0.00812483 22.3516 -0.270195Q22.1221 -0.548516 21.7706 -0.72918Q21.419 -0.909844 20.9014 -0.909844Q20.3985 -0.909844 20.0372 -0.738945Q19.6807 -0.568047 19.4415 -0.289727Q19.2022 -0.0114064 19.0704 0.359687Q18.9385 0.730781 18.8799 1.11164L22.8204 1.11164ZM34.3392 -0.45086Q33.9388 -0.548516 33.3969 -0.655938Q32.8597 -0.768242 32.2396 -0.768242Q31.9613 -0.768242 31.5707 -0.719414Q31.1801 -0.670586 30.9799 -0.611992L30.9799 7.43L28.0013 7.43L28.0013 -2.53094Q28.8021 -2.80926 29.891 -3.05828Q30.9799 -3.31219 32.3177 -3.31219Q32.5619 -3.31219 32.8988 -3.27801Q33.2406 -3.24871 33.5775 -3.19988Q33.9193 -3.15105 34.2562 -3.07781Q34.598 -3.00945 34.8422 -2.9118L34.3392 -0.45086Z"/>
	<path fill="white" transform="translate(55 79.2857)" d="M-29.6591 5.05207Q-28.9999 5.05207 -28.5702 4.94465Q-28.1405 4.83234 -27.8818 4.64191Q-27.6181 4.45148 -27.5204 4.1927Q-27.4179 3.92902 -27.4179 3.61164Q-27.4179 2.92805 -28.0624 2.47883Q-28.7021 2.02961 -30.2597 1.51203Q-30.9384 1.26789 -31.622 0.960273Q-32.3007 0.647773 -32.8427 0.179023Q-33.3798 -0.289727 -33.7216 -0.958672Q-34.0585 -1.62762 -34.0585 -2.58953Q-34.0585 -3.55145 -33.7021 -4.31805Q-33.3407 -5.08953 -32.6816 -5.62664Q-32.0224 -6.16863 -31.08 -6.45672Q-30.1376 -6.74969 -28.9609 -6.74969Q-27.5595 -6.74969 -26.539 -6.44695Q-25.5185 -6.1491 -24.8593 -5.78777L-25.7577 -3.33172Q-26.3388 -3.62957 -27.0517 -3.85906Q-27.7597 -4.08855 -28.7607 -4.08855Q-29.8788 -4.08855 -30.372 -3.77605Q-30.8603 -3.46844 -30.8603 -2.82879Q-30.8603 -2.44793 -30.6796 -2.18914Q-30.4989 -1.93035 -30.1718 -1.72039Q-29.8398 -1.51043 -29.4101 -1.33953Q-28.9804 -1.16863 -28.4579 -0.987969Q-27.3788 -0.587578 -26.5829 -0.196953Q-25.7822 0.188789 -25.2499 0.71125Q-24.7177 1.22883 -24.4589 1.93195Q-24.2001 2.6302 -24.2001 3.63117Q-24.2001 5.56965 -25.5624 6.63898Q-26.9198 7.70832 -29.6591 7.70832Q-30.582 7.70832 -31.3241 7.59602Q-32.0614 7.48859 -32.6327 7.33234Q-33.1991 7.17121 -33.6093 6.99055Q-34.0195 6.80988 -34.2978 6.64875L-33.4189 4.16828Q-32.7988 4.51008 -31.8905 4.78352Q-30.9823 5.05207 -29.6591 5.05207ZM-22.1012 -5.70965L-19.1178 -6.18816L-19.1178 -3.08758L-15.5387 -3.08758L-15.5387 -0.611992L-19.1178 -0.611992L-19.1178 3.08918Q-19.1178 4.03156 -18.7906 4.59309Q-18.4586 5.14973 -17.4576 5.14973Q-16.9791 5.14973 -16.4713 5.06184Q-15.9586 4.96906 -15.5387 4.80793L-15.1187 7.13215Q-15.6607 7.35187 -16.3199 7.50812Q-16.9791 7.66926 -17.941 7.66926Q-19.1617 7.66926 -19.9625 7.34211Q-20.7584 7.01008 -21.2418 6.41926Q-21.7203 5.82844 -21.9107 4.98859Q-22.1012 4.14875 -22.1012 3.12824L-22.1012 -5.70965ZM-10.1401 7.43L-13.1186 7.43L-13.1186 -3.08758L-10.1401 -3.08758L-10.1401 7.43ZM-9.86179 -6.12957Q-9.86179 -5.30926 -10.394 -4.84051Q-10.9214 -4.37176 -11.6391 -4.37176Q-12.3618 -4.37176 -12.894 -4.84051Q-13.4214 -5.30926 -13.4214 -6.12957Q-13.4214 -6.94988 -12.894 -7.41863Q-12.3618 -7.89227 -11.6391 -7.89227Q-10.9214 -7.89227 -10.394 -7.41863Q-9.86179 -6.94988 -9.86179 -6.12957ZM-7.33862 -2.73113Q-6.58179 -2.95086 -5.38062 -3.14129Q-4.17944 -3.33172 -2.86108 -3.33172Q-1.51831 -3.33172 -0.629639 -2.98016Q0.259033 -2.62859 0.776611 -1.98895Q1.29907 -1.3493 1.5188 -0.470391Q1.73853 0.408515 1.73853 1.48762L1.73853 7.43L-1.23999 7.43L-1.23999 1.84895Q-1.23999 0.408515 -1.62085 -0.187188Q-2.00171 -0.787774 -3.04175 -0.787774Q-3.35913 -0.787774 -3.72046 -0.758477Q-4.08179 -0.72918 -4.36011 -0.690117L-4.36011 7.43L-7.33862 7.43L-7.33862 -2.73113ZM6.98042 1.82941Q6.98042 4.32941 9.00191 4.32941Q9.46089 4.32941 9.86128 4.21223Q10.2617 4.09016 10.54 3.92902L10.54 -0.831719Q10.3203 -0.870781 10.0175 -0.900078Q9.71968 -0.929375 9.31929 -0.929375Q8.13765 -0.929375 7.55659 -0.148125Q6.98042 0.628242 6.98042 1.82941ZM13.5185 6.11164Q13.5185 8.68977 12.2099 9.93977Q10.9013 11.1898 8.16206 11.1898Q7.20015 11.1898 6.23824 11.0189Q5.2812 10.848 4.46089 10.5696L4.97847 8.06965Q5.68159 8.34797 6.4482 8.5091Q7.21968 8.67023 8.20113 8.67023Q9.48042 8.67023 10.0078 8.10871Q10.54 7.55207 10.54 6.66828L10.54 6.2923Q10.0615 6.51203 9.54878 6.62434Q9.04097 6.73176 8.44038 6.73176Q6.25777 6.73176 5.09566 5.4427Q3.93843 4.14875 3.93843 1.82941Q3.93843 0.672187 4.29976 -0.279961Q4.66109 -1.23211 5.34956 -1.91082Q6.03804 -2.58953 7.03902 -2.96063Q8.03999 -3.33172 9.29976 -3.33172Q9.84175 -3.33172 10.4082 -3.27801Q10.9794 -3.22918 11.5361 -3.14617Q12.0976 -3.06805 12.6054 -2.95574Q13.1181 -2.84832 13.5185 -2.73113L13.5185 6.11164ZM15.8184 2.24934Q15.8184 0.847969 16.2481 -0.201836Q16.6778 -1.25164 17.376 -1.94988Q18.0792 -2.64813 18.9874 -3.00945Q19.9005 -3.37078 20.8624 -3.37078Q23.0987 -3.37078 24.3975 -1.99871Q25.7012 -0.631524 25.7012 2.02961Q25.7012 2.2884 25.6817 2.6009Q25.6622 2.90852 25.6378 3.14777L18.8799 3.14777Q18.9776 4.07062 19.7393 4.61262Q20.501 5.14973 21.7803 5.14973Q22.6006 5.14973 23.3868 5.00324Q24.1778 4.85187 24.6807 4.63215L25.0811 7.04914Q24.8419 7.17121 24.4415 7.29328Q24.0411 7.41047 23.5479 7.49836Q23.0596 7.59113 22.4981 7.64973Q21.9415 7.70832 21.3799 7.70832Q19.959 7.70832 18.9092 7.2884Q17.8594 6.86848 17.1661 6.14094Q16.4776 5.40852 16.1456 4.41242Q15.8184 3.41145 15.8184 2.24934ZM22.8204 1.11164Q22.8008 0.730781 22.6885 0.369453Q22.5811 0.00812483 22.3516 -0.270195Q22.1221 -0.548516 21.7706 -0.72918Q21.419 -0.909844 20.9014 -0.909844Q20.3985 -0.909844 20.0372 -0.738945Q19.6807 -0.568047 19.4415 -0.289727Q19.2022 -0.0114064 19.0704 0.359687Q18.9385 0.730781 18.8799 1.11164L22.8204 1.11164ZM34.3392 -0.45086Q33.9388 -0.548516 33.3969 -0.655938Q32.8597 -0.768242 32.2396 -0.768242Q31.9613 -0.768242 31.5707 -0.719414Q31.1801 -0.670586 30.9799 -0.611992L30.9799 7.43L28.0013 7.43L28.0013 -2.53094Q28.8021 -2.80926 29.891 -3.05828Q30.9799 -3.31219 32.3177 -3.31219Q32.5619 -3.31219 32.8988 -3.27801Q33.2406 -3.24871 33.5775 -3.19988Q33.9193 -3.15105 34.2562 -3.07781Q34.598 -3.00945 34.8422 -2.9118L34.3392 -0.45086Z"/>
</svg>
