<?xml version="1.0" encoding="utf-8" ?>
<svg xmlns="http://www.w3.org/2000/svg" xmlns:xlink="http://www.w3.org/1999/xlink" width="110" height="110">
	<path fill="#EEE" transform="matrix(0.77186 -1.2021 1.2021 0.77186 55 47.8571)" d="M-9 -9Q-3 -11 9 -9Q10 2 9 9Q-2 11 -9 9Q-11 -1 -9 -9"/>
	<path fill="#C1C1C1" transform="matrix(0.77186 -1.2021 1.2021 0.77186 55 47.8571)" d="M-9.47434 -10.423Q-3.1209 -12.5408 9.2466 -10.4796Q9.36848 -10.4593 9.48539 -10.4193Q9.6023 -10.3793 9.71109 -10.3207Q9.81988 -10.2622 9.91762 -10.1866Q10.0154 -10.111 10.0994 -10.0204Q10.1835 -9.92987 10.2516 -9.82677Q10.3197 -9.72368 10.37 -9.61083Q10.4203 -9.49798 10.4515 -9.37842Q10.4827 -9.25886 10.4938 -9.1358Q11.5097 2.0387 10.4849 9.21213Q10.4683 9.32829 10.4339 9.44045Q10.3994 9.55262 10.3479 9.65806Q10.2965 9.7635 10.2292 9.85966Q10.162 9.95581 10.0806 10.0403Q9.99922 10.1249 9.90568 10.1957Q9.81215 10.2666 9.70874 10.322Q9.60532 10.3774 9.49455 10.4161Q9.38377 10.4548 9.26833 10.4758Q-2.07579 12.5384 -9.41208 10.4423Q-9.51095 10.414 -9.60504 10.3726Q-9.69913 10.3311 -9.78668 10.2772Q-9.87423 10.2232 -9.95361 10.1579Q-10.033 10.0925 -10.1027 10.0169Q-10.1724 9.94131 -10.2311 9.85691Q-10.2899 9.77252 -10.3366 9.68089Q-10.3832 9.58927 -10.417 9.49214Q-10.4507 9.395 -10.4709 9.29417Q-12.537 -1.03658 -10.4552 -9.3638Q-10.4373 -9.43529 -10.4125 -9.50469Q-10.3878 -9.57408 -10.3563 -9.64071Q-10.3248 -9.70734 -10.2869 -9.77056Q-10.2491 -9.83379 -10.2052 -9.893Q-10.1613 -9.95221 -10.1119 -10.0068Q-10.0624 -10.0615 -10.0078 -10.111Q-9.95327 -10.1605 -9.8941 -10.2044Q-9.83493 -10.2483 -9.77174 -10.2862Q-9.70855 -10.3242 -9.64195 -10.3557Q-9.57535 -10.3872 -9.50598 -10.4121Q-9.43661 -10.4369 -9.36514 -10.4549Q-9.29366 -10.4728 -9.22077 -10.4837Q-9.14789 -10.4945 -9.07429 -10.4982Q-9.00069 -10.5018 -8.92708 -10.4982Q-8.85348 -10.4946 -8.78058 -10.4839Q-8.70769 -10.4731 -8.6362 -10.4552Q-8.56471 -10.4373 -8.49531 -10.4125Q-8.42592 -10.3878 -8.35929 -10.3563Q-8.29266 -10.3248 -8.22943 -10.2869Q-8.16621 -10.2491 -8.107 -10.2052Q-8.04779 -10.1613 -7.99317 -10.1119Q-7.93855 -10.0624 -7.88903 -10.0078Q-7.83952 -9.95327 -7.7956 -9.8941Q-7.75167 -9.83493 -7.71376 -9.77174Q-7.67585 -9.70855 -7.64431 -9.64195Q-7.61277 -9.57535 -7.58791 -9.50598Q-7.56306 -9.43661 -7.54512 -9.36514Q-7.52718 -9.29366 -7.51634 -9.22077Q-7.50549 -9.14789 -7.50184 -9.07429Q-7.49819 -9.00069 -7.50177 -8.92708Q-7.50536 -8.85348 -7.51613 -8.78058Q-7.52691 -8.70769 -7.54479 -8.6362Q-9.46298 -0.963425 -7.52913 8.70583L-9 9L-8.58792 7.55771Q-1.92422 9.46163 8.73167 7.5242L9 9L7.51508 8.78787Q8.4903 1.96131 7.50616 -8.8642L9 -9L8.7534 -7.52041Q-2.8791 -9.45916 -8.52566 -7.57697Q-8.59557 -7.55367 -8.66742 -7.53733Q-8.73928 -7.521 -8.81239 -7.51178Q-8.8855 -7.50256 -8.95917 -7.50056Q-9.03283 -7.49855 -9.10633 -7.50377Q-9.17984 -7.509 -9.25248 -7.5214Q-9.32512 -7.5338 -9.39619 -7.55327Q-9.46726 -7.57273 -9.53609 -7.59907Q-9.60491 -7.6254 -9.67082 -7.65836Q-9.73673 -7.69131 -9.79909 -7.73057Q-9.86146 -7.76983 -9.91967 -7.81501Q-9.97789 -7.86019 -10.0314 -7.91086Q-10.0849 -7.96153 -10.1332 -8.0172Q-10.1815 -8.07287 -10.2241 -8.133Q-10.2666 -8.19314 -10.3031 -8.25715Q-10.3396 -8.32117 -10.3697 -8.38846Q-10.3997 -8.45575 -10.423 -8.52566Q-10.4463 -8.59557 -10.4627 -8.66742Q-10.479 -8.73928 -10.4882 -8.81239Q-10.4974 -8.8855 -10.4994 -8.95917Q-10.5014 -9.03283 -10.4962 -9.10633Q-10.491 -9.17984 -10.4786 -9.25248Q-10.4662 -9.32512 -10.4467 -9.39619Q-10.4273 -9.46726 -10.4009 -9.53609Q-10.3746 -9.60491 -10.3416 -9.67082Q-10.3087 -9.73673 -10.2694 -9.79909Q-10.2302 -9.86146 -10.185 -9.91967Q-10.1398 -9.97789 -10.0891 -10.0314Q-10.0385 -10.0849 -9.9828 -10.1332Q-9.92713 -10.1815 -9.867 -10.2241Q-9.80687 -10.2666 -9.74285 -10.3031Q-9.67883 -10.3396 -9.61154 -10.3697Q-9.54425 -10.3997 -9.47434 -10.423Z"/>
	<path fill="none" stroke="black" stroke-width="2.3999999" stroke-linejoin="round" transform="translate(55 79.2857)" d="M-29.0408 -6.58855Q-25.9207 -6.58855 -24.2605 -5.48016Q-22.6003 -4.37176 -22.6003 -2.02801Q-22.6003 -0.568047 -23.2693 0.340156Q-23.9382 1.24836 -25.198 1.77082Q-24.7781 2.2884 -24.3191 2.96223Q-23.8601 3.63117 -23.4109 4.36359Q-22.9617 5.09113 -22.5418 5.88215Q-22.1218 6.66828 -21.7605 7.43L-25.2615 7.43Q-25.6423 6.75129 -26.033 6.05305Q-26.4187 5.34992 -26.8289 4.69074Q-27.239 4.03156 -27.6394 3.44074Q-28.0398 2.84992 -28.4402 2.37141L-29.9783 2.37141L-29.9783 7.43L-33.0984 7.43L-33.0984 -6.23211Q-32.0779 -6.4323 -30.989 -6.51043Q-29.9002 -6.58855 -29.0408 -6.58855ZM-28.8601 -3.9323Q-29.2019 -3.9323 -29.4705 -3.90789Q-29.739 -3.88836 -29.9783 -3.86883L-29.9783 -0.109063L-29.0994 -0.109063Q-27.3416 -0.109063 -26.5798 -0.548516Q-25.8181 -0.987969 -25.8181 -2.05242Q-25.8181 -3.06805 -26.5896 -3.49773Q-27.3611 -3.9323 -28.8601 -3.9323ZM-10.9791 7.06867Q-11.7408 7.2884 -12.942 7.47883Q-14.1383 7.66926 -15.4615 7.66926Q-16.7994 7.66926 -17.693 7.31281Q-18.5817 6.95148 -19.1041 6.30207Q-19.6217 5.64777 -19.8414 4.74934Q-20.0611 3.8509 -20.0611 2.7718L-20.0611 -3.08758L-17.0778 -3.08758L-17.0778 2.41047Q-17.0778 3.8509 -16.7018 4.49055Q-16.3209 5.1302 -15.2809 5.1302Q-14.9586 5.1302 -14.6022 5.1009Q-14.2408 5.0716 -13.9576 5.02766L-13.9576 -3.08758L-10.9791 -3.08758L-10.9791 7.06867ZM-1.44035 2.0882Q-1.44035 -0.787774 -3.55949 -0.787774Q-4.01847 -0.787774 -4.47257 -0.665703Q-4.92179 -0.548516 -5.20011 -0.367852L-5.20011 5.05207Q-4.98038 5.09113 -4.64347 5.12043Q-4.30167 5.14973 -3.90128 5.14973Q-2.68058 5.14973 -2.06046 4.30988Q-1.44035 3.47004 -1.44035 2.0882ZM1.60165 2.17121Q1.60165 3.43098 1.23055 4.45148Q0.859459 5.47199 0.156334 6.19465Q-0.541908 6.91242 -1.56242 7.30305Q-2.57804 7.68879 -3.88175 7.68879Q-4.41886 7.68879 -5.00968 7.63996Q-5.6005 7.59113 -6.17179 7.50812Q-6.7382 7.43 -7.26066 7.32258Q-7.77824 7.21027 -8.17863 7.0882L-8.17863 -7.60906L-5.20011 -8.08758L-5.20011 -2.84832Q-4.70206 -3.06805 -4.16007 -3.19012Q-3.61808 -3.31219 -2.99796 -3.31219Q-1.8798 -3.31219 -1.02042 -2.92156Q-0.161049 -2.53094 0.420006 -1.80828Q1.00106 -1.09051 1.29891 -0.0797658Q1.60165 0.930976 1.60165 2.17121ZM10.6396 2.0882Q10.6396 -0.787774 8.5205 -0.787774Q8.06152 -0.787774 7.60741 -0.665703Q7.1582 -0.548516 6.87988 -0.367852L6.87988 5.05207Q7.0996 5.09113 7.43652 5.12043Q7.77831 5.14973 8.1787 5.14973Q9.39941 5.14973 10.0195 4.30988Q10.6396 3.47004 10.6396 2.0882ZM13.6816 2.17121Q13.6816 3.43098 13.3105 4.45148Q12.9394 5.47199 12.2363 6.19465Q11.5381 6.91242 10.5176 7.30305Q9.50195 7.68879 8.19823 7.68879Q7.66113 7.68879 7.0703 7.63996Q6.47948 7.59113 5.9082 7.50812Q5.34179 7.43 4.81933 7.32258Q4.30175 7.21027 3.90136 7.0882L3.90136 -7.60906L6.87988 -8.08758L6.87988 -2.84832Q7.37792 -3.06805 7.91991 -3.19012Q8.46191 -3.31219 9.08202 -3.31219Q10.2002 -3.31219 11.0596 -2.92156Q11.9189 -2.53094 12.5 -1.80828Q13.081 -1.09051 13.3789 -0.0797658Q13.6816 0.930976 13.6816 2.17121ZM15.4784 2.24934Q15.4784 0.847969 15.9081 -0.201836Q16.3378 -1.25164 17.036 -1.94988Q17.7392 -2.64813 18.6474 -3.00945Q19.5604 -3.37078 20.5224 -3.37078Q22.7587 -3.37078 24.0575 -1.99871Q25.3612 -0.631524 25.3612 2.02961Q25.3612 2.2884 25.3417 2.6009Q25.3222 2.90852 25.2978 3.14777L18.5399 3.14777Q18.6376 4.07062 19.3993 4.61262Q20.161 5.14973 21.4403 5.14973Q22.2606 5.14973 23.0468 5.00324Q23.8378 4.85187 24.3407 4.63215L24.7411 7.04914Q24.5019 7.17121 24.1015 7.29328Q23.7011 7.41047 23.2079 7.49836Q22.7196 7.59113 22.1581 7.64973Q21.6015 7.70832 21.0399 7.70832Q19.619 7.70832 18.5692 7.2884Q17.5194 6.86848 16.8261 6.14094Q16.1376 5.40852 15.8056 4.41242Q15.4784 3.41145 15.4784 2.24934ZM22.4804 1.11164Q22.4608 0.730781 22.3485 0.369453Q22.2411 0.00812483 22.0116 -0.270195Q21.7821 -0.548516 21.4306 -0.72918Q21.079 -0.909844 20.5614 -0.909844Q20.0585 -0.909844 19.6972 -0.738945Q19.3407 -0.568047 19.1015 -0.289727Q18.8622 -0.0114064 18.7304 0.359687Q18.5985 0.730781 18.5399 1.11164L22.4804 1.11164ZM33.9992 -0.45086Q33.5988 -0.548516 33.0568 -0.655938Q32.5197 -0.768242 31.8996 -0.768242Q31.6213 -0.768242 31.2307 -0.719414Q30.84 -0.670586 30.6399 -0.611992L30.6399 7.43L27.6613 7.43L27.6613 -2.53094Q28.4621 -2.80926 29.551 -3.05828Q30.6399 -3.31219 31.9777 -3.31219Q32.2219 -3.31219 32.5588 -3.27801Q32.9006 -3.24871 33.2375 -3.19988Q33.5793 -3.15105 33.9162 -3.07781Q34.258 -3.00945 34.5022 -2.9118L33.9992 -0.45086Z"/>
	<path fill="white" transform="translate(55 79.2857)" d="M-29.0408 -6.58855Q-25.9207 -6.58855 -24.2605 -5.48016Q-22.6003 -4.37176 -22.6003 -2.02801Q-22.6003 -0.568047 -23.2693 0.340156Q-23.9382 1.24836 -25.198 1.77082Q-24.7781 2.2884 -24.3191 2.96223Q-23.8601 3.63117 -23.4109 4.36359Q-22.9617 5.09113 -22.5418 5.88215Q-22.1218 6.66828 -21.7605 7.43L-25.2615 7.43Q-25.6423 6.75129 -26.033 6.05305Q-26.4187 5.34992 -26.8289 4.69074Q-27.239 4.03156 -27.6394 3.44074Q-28.0398 2.84992 -28.4402 2.37141L-29.9783 2.37141L-29.9783 7.43L-33.0984 7.43L-33.0984 -6.23211Q-32.0779 -6.4323 -30.989 -6.51043Q-29.9002 -6.58855 -29.0408 -6.58855ZM-28.8601 -3.9323Q-29.2019 -3.9323 -29.4705 -3.90789Q-29.739 -3.88836 -29.9783 -3.86883L-29.9783 -0.109063L-29.0994 -0.109063Q-27.3416 -0.109063 -26.5798 -0.548516Q-25.8181 -0.987969 -25.8181 -2.05242Q-25.8181 -3.06805 -26.5896 -3.49773Q-27.3611 -3.9323 -28.8601 -3.9323ZM-10.9791 7.06867Q-11.7408 7.2884 -12.942 7.47883Q-14.1383 7.66926 -15.4615 7.66926Q-16.7994 7.66926 -17.693 7.31281Q-18.5817 6.95148 -19.1041 6.30207Q-19.6217 5.64777 -19.8414 4.74934Q-20.0611 3.8509 -20.0611 2.7718L-20.0611 -3.08758L-17.0778 -3.08758L-17.0778 2.41047Q-17.0778 3.8509 -16.7018 4.49055Q-16.3209 5.1302 -15.2809 5.1302Q-14.9586 5.1302 -14.6022 5.1009Q-14.2408 5.0716 -13.9576 5.02766L-13.9576 -3.08758L-10.9791 -3.08758L-10.9791 7.06867ZM-1.44035 2.0882Q-1.44035 -0.787774 -3.55949 -0.787774Q-4.01847 -0.787774 -4.47257 -0.665703Q-4.92179 -0.548516 -5.20011 -0.367852L-5.20011 5.05207Q-4.98038 5.09113 -4.64347 5.12043Q-4.30167 5.14973 -3.90128 5.14973Q-2.68058 5.14973 -2.06046 4.30988Q-1.44035 3.47004 -1.44035 2.0882ZM1.60165 2.17121Q1.60165 3.43098 1.23055 4.45148Q0.859459 5.47199 0.156334 6.19465Q-0.541908 6.91242 -1.56242 7.30305Q-2.57804 7.68879 -3.88175 7.68879Q-4.41886 7.68879 -5.00968 7.63996Q-5.6005 7.59113 -6.17179 7.50812Q-6.7382 7.43 -7.26066 7.32258Q-7.77824 7.21027 -8.17863 7.0882L-8.17863 -7.60906L-5.20011 -8.08758L-5.20011 -2.84832Q-4.70206 -3.06805 -4.16007 -3.19012Q-3.61808 -3.31219 -2.99796 -3.31219Q-1.8798 -3.31219 -1.02042 -2.92156Q-0.161049 -2.53094 0.420006 -1.80828Q1.00106 -1.09051 1.29891 -0.0797658Q1.60165 0.930976 1.60165 2.17121ZM10.6396 2.0882Q10.6396 -0.787774 8.5205 -0.787774Q8.06152 -0.787774 7.60741 -0.665703Q7.1582 -0.548516 6.87988 -0.367852L6.87988 5.05207Q7.0996 5.09113 7.43652 5.12043Q7.77831 5.14973 8.1787 5.14973Q9.39941 5.14973 10.0195 4.30988Q10.6396 3.47004 10.6396 2.0882ZM13.6816 2.17121Q13.6816 3.43098 13.3105 4.45148Q12.9394 5.47199 12.2363 6.19465Q11.5381 6.91242 10.5176 7.30305Q9.50195 7.68879 8.19823 7.68879Q7.66113 7.68879 7.0703 7.63996Q6.47948 7.59113 5.9082 7.50812Q5.34179 7.43 4.81933 7.32258Q4.30175 7.21027 3.90136 7.0882L3.90136 -7.60906L6.87988 -8.08758L6.87988 -2.84832Q7.37792 -3.06805 7.91991 -3.19012Q8.46191 -3.31219 9.08202 -3.31219Q10.2002 -3.31219 11.0596 -2.92156Q11.9189 -2.53094 12.5 -1.80828Q13.081 -1.09051 13.3789 -0.0797658Q13.6816 0.930976 13.6816 2.17121ZM15.4784 2.24934Q15.4784 0.847969 15.9081 -0.201836Q16.3378 -1.25164 17.036 -1.94988Q17.7392 -2.64813 18.6474 -3.00945Q19.5604 -3.37078 20.5224 -3.37078Q22.7587 -3.37078 24.0575 -1.99871Q25.3612 -0.631524 25.3612 2.02961Q25.3612 2.2884 25.3417 2.6009Q25.3222 2.90852 25.2978 3.14777L18.5399 3.14777Q18.6376 4.07062 19.3993 4.61262Q20.161 5.14973 21.4403 5.14973Q22.2606 5.14973 23.0468 5.00324Q23.8378 4.85187 24.3407 4.63215L24.7411 7.04914Q24.5019 7.17121 24.1015 7.29328Q23.7011 7.41047 23.2079 7.49836Q22.7196 7.59113 22.1581 7.64973Q21.6015 7.70832 21.0399 7.70832Q19.619 7.70832 18.5692 7.2884Q17.5194 6.86848 16.8261 6.14094Q16.1376 5.40852 15.8056 4.41242Q15.4784 3.41145 15.4784 2.24934ZM22.4804 1.11164Q22.4608 0.730781 22.3485 0.369453Q22.2411 0.00812483 22.0116 -0.270195Q21.7821 -0.548516 21.4306 -0.72918Q21.079 -0.909844 20.5614 -0.909844Q20.0585 -0.909844 19.6972 -0.738945Q19.3407 -0.568047 19.1015 -0.289727Q18.8622 -0.0114064 18.7304 0.359687Q18.5985 0.730781 18.5399 1.11164L22.4804 1.11164ZM33.9992 -0.45086Q33.5988 -0.548516 33.0568 -0.655938Q32.5197 -0.768242 31.8996 -0.768242Q31.6213 -0.768242 31.2307 -0.719414Q30.84 -0.670586 30.6399 -0.611992L30.6399 7.43L27.6613 7.43L27.6613 -2.53094Q28.4621 -2.80926 29.551 -3.05828Q30.6399 -3.31219 31.9777 -3.31219Q32.2219 -3.31219 32.5588 -3.27801Q32.9006 -3.24871 33.2375 -3.19988Q33.5793 -3.15105 33.9162 -3.07781Q34.258 -3.00945 34.5022 -2.9118L33.9992 -0.45086Z"/>
</svg>
