<?xml version="1.0" encoding="utf-8" ?>
<svg xmlns="http://www.w3.org/2000/svg" xmlns:xlink="http://www.w3.org/1999/xlink" width="110" height="110">
	<path fill="#9C1010" transform="matrix(-1.42857 0 0 -1.42857 69.2857 47.8571)" d="M7 0Q1.4 2.42487 -3.5 6.06218Q-2.8 -1.90735e-07 -3.5 -6.06218Q1.4 -2.42487 7 0Z"/>
	<path fill="#7E0D0D" transform="matrix(-1.42857 0 0 -1.42857 69.2857 47.8571)" d="M7.59604 1.37649Q2.15498 3.73254 -2.60594 7.26661Q-2.66511 7.31053 -2.7283 7.34844Q-2.79149 7.38635 -2.85809 7.41789Q-2.9247 7.44942 -2.99407 7.47428Q-3.06344 7.49913 -3.13491 7.51707Q-3.20639 7.535 -3.27928 7.54585Q-3.35216 7.55669 -3.42576 7.56034Q-3.49936 7.56399 -3.57297 7.5604Q-3.64657 7.55682 -3.71947 7.54603Q-3.79237 7.53525 -3.86385 7.51738Q-3.93534 7.4995 -4.00474 7.47471Q-4.07413 7.44991 -4.14076 7.41843Q-4.20739 7.38695 -4.27061 7.3491Q-4.33383 7.31124 -4.39304 7.26737Q-4.45225 7.2235 -4.50687 7.17403Q-4.56149 7.12457 -4.611 7.06999Q-4.66051 7.01541 -4.70443 6.95624Q-4.78889 6.84245 -4.85055 6.71487Q-4.91221 6.58728 -4.94889 6.45041Q-4.98557 6.31353 -4.99596 6.17221Q-5.00635 6.03088 -4.9901 5.89012Q-4.30997 1.90735e-06 -4.9901 -5.89012Q-4.99855 -5.96332 -4.99979 -6.037Q-5.00102 -6.11068 -4.99503 -6.18413Q-4.98904 -6.25757 -4.97588 -6.33008Q-4.96272 -6.40258 -4.94252 -6.47345Q-4.92231 -6.54432 -4.89526 -6.61286Q-4.86821 -6.68141 -4.83456 -6.74697Q-4.80092 -6.81253 -4.76102 -6.87448Q-4.72111 -6.93643 -4.67532 -6.99417Q-4.62954 -7.05191 -4.57831 -7.10489Q-4.52709 -7.15786 -4.47092 -7.20556Q-4.41475 -7.25326 -4.35417 -7.29522Q-4.2936 -7.33718 -4.2292 -7.373Q-4.1648 -7.40883 -4.0972 -7.43817Q-4.02961 -7.46751 -3.95946 -7.49008Q-3.88931 -7.51265 -3.81729 -7.52824Q-3.74527 -7.54382 -3.67206 -7.55228Q-3.53129 -7.56853 -3.38997 -7.55814Q-3.24865 -7.54774 -3.11177 -7.51107Q-2.97489 -7.47439 -2.84731 -7.41273Q-2.71972 -7.35107 -2.60594 -7.26661Q2.15498 -3.73254 7.59604 -1.37649Q7.66366 -1.34721 7.72809 -1.31144Q7.79252 -1.27568 7.85313 -1.23376Q7.91374 -1.19185 7.96995 -1.1442Q8.02616 -1.09655 8.07743 -1.04362Q8.1287 -0.99069 8.17454 -0.932989Q8.22037 -0.875287 8.26033 -0.813371Q8.30029 -0.751455 8.33398 -0.685921Q8.36768 -0.620387 8.39479 -0.551865Q8.4219 -0.483343 8.44217 -0.412494Q8.46243 -0.341645 8.47565 -0.26915Q8.48888 -0.196656 8.49493 -0.123215Q8.50098 -0.0497737 8.49981 0.0239072Q8.49863 0.0975881 8.49024 0.170799Q8.48185 0.24401 8.46633 0.316046Q8.4508 0.388082 8.42829 0.45825Q8.40578 0.528417 8.37649 0.59604Q8.32019 0.726076 8.24052 0.843268Q8.16086 0.96046 8.06066 1.06066Q7.96046 1.16086 7.84327 1.24052Q7.72608 1.32019 7.59604 1.37649L7.59604 1.37649ZM6.40396 -1.37649L7 0L6.40396 1.37649Q0.645015 -1.1172 -4.39406 -4.85775L-3.5 -6.06218L-2.0099 -6.23424Q-1.29003 0 -2.0099 6.23424L-3.5 6.06218L-4.39406 4.85775Q0.645018 1.1172 6.40396 -1.37649Z"/>
	<path fill="#9C1010" transform="matrix(-0.441453 -1.35865 1.35865 -0.441453 59.4145 61.4437)" d="M7 0Q1.4 2.42487 -3.5 6.06218Q-2.8 -1.90735e-07 -3.5 -6.06218Q1.4 -2.42487 7 0Z"/>
	<path fill="#7E0D0D" transform="matrix(-0.441453 -1.35865 1.35865 -0.441453 59.4145 61.4437)" d="M7.59604 1.37649Q2.15498 3.73254 -2.60594 7.26661Q-2.66511 7.31053 -2.7283 7.34844Q-2.79149 7.38635 -2.85809 7.41789Q-2.9247 7.44942 -2.99407 7.47428Q-3.06344 7.49913 -3.13491 7.51707Q-3.20639 7.535 -3.27928 7.54585Q-3.35216 7.55669 -3.42576 7.56034Q-3.49936 7.56399 -3.57297 7.5604Q-3.64657 7.55682 -3.71947 7.54603Q-3.79237 7.53525 -3.86385 7.51738Q-3.93534 7.4995 -4.00474 7.47471Q-4.07413 7.44991 -4.14076 7.41843Q-4.20739 7.38695 -4.27061 7.3491Q-4.33383 7.31124 -4.39304 7.26737Q-4.45225 7.2235 -4.50687 7.17403Q-4.56149 7.12457 -4.611 7.06999Q-4.66051 7.01541 -4.70443 6.95624Q-4.78889 6.84245 -4.85055 6.71487Q-4.91221 6.58728 -4.94889 6.45041Q-4.98557 6.31353 -4.99596 6.17221Q-5.00635 6.03088 -4.9901 5.89012Q-4.30997 1.90735e-06 -4.9901 -5.89012Q-4.99855 -5.96332 -4.99979 -6.037Q-5.00102 -6.11068 -4.99503 -6.18413Q-4.98904 -6.25757 -4.97588 -6.33008Q-4.96272 -6.40258 -4.94252 -6.47345Q-4.92231 -6.54432 -4.89526 -6.61286Q-4.86821 -6.68141 -4.83456 -6.74697Q-4.80092 -6.81253 -4.76102 -6.87448Q-4.72111 -6.93643 -4.67532 -6.99417Q-4.62954 -7.05191 -4.57831 -7.10489Q-4.52709 -7.15786 -4.47092 -7.20556Q-4.41475 -7.25326 -4.35417 -7.29522Q-4.2936 -7.33718 -4.2292 -7.373Q-4.1648 -7.40883 -4.0972 -7.43817Q-4.02961 -7.46751 -3.95946 -7.49008Q-3.88931 -7.51265 -3.81729 -7.52824Q-3.74527 -7.54382 -3.67206 -7.55228Q-3.53129 -7.56853 -3.38997 -7.55814Q-3.24865 -7.54774 -3.11177 -7.51107Q-2.97489 -7.47439 -2.84731 -7.41273Q-2.71972 -7.35107 -2.60594 -7.26661Q2.15498 -3.73254 7.59604 -1.37649Q7.66366 -1.34721 7.72809 -1.31144Q7.79252 -1.27568 7.85313 -1.23376Q7.91374 -1.19185 7.96995 -1.1442Q8.02616 -1.09655 8.07743 -1.04362Q8.1287 -0.99069 8.17454 -0.932989Q8.22037 -0.875287 8.26033 -0.813371Q8.30029 -0.751455 8.33398 -0.685921Q8.36768 -0.620387 8.39479 -0.551865Q8.4219 -0.483343 8.44217 -0.412494Q8.46243 -0.341645 8.47565 -0.26915Q8.48888 -0.196656 8.49493 -0.123215Q8.50098 -0.0497737 8.49981 0.0239072Q8.49863 0.0975881 8.49024 0.170799Q8.48185 0.24401 8.46633 0.316046Q8.4508 0.388082 8.42829 0.45825Q8.40578 0.528417 8.37649 0.59604Q8.32019 0.726076 8.24052 0.843268Q8.16086 0.96046 8.06066 1.06066Q7.96046 1.16086 7.84327 1.24052Q7.72608 1.32019 7.59604 1.37649L7.59604 1.37649ZM6.40396 -1.37649L7 0L6.40396 1.37649Q0.645015 -1.1172 -4.39406 -4.85775L-3.5 -6.06218L-2.0099 -6.23424Q-1.29003 0 -2.0099 6.23424L-3.5 6.06218L-4.39406 4.85775Q0.645018 1.1172 6.40396 -1.37649Z"/>
	<path fill="#9C1010" transform="matrix(1.15574 -0.839693 0.839693 1.15574 43.4426 56.2541)" d="M7 0Q1.4 2.42487 -3.5 6.06218Q-2.8 -1.90735e-07 -3.5 -6.06218Q1.4 -2.42487 7 0Z"/>
	<path fill="#7E0D0D" transform="matrix(1.15574 -0.839693 0.839693 1.15574 43.4426 56.2541)" d="M7.59604 1.37649Q2.15498 3.73254 -2.60594 7.26661Q-2.66511 7.31053 -2.7283 7.34844Q-2.79149 7.38635 -2.85809 7.41789Q-2.9247 7.44942 -2.99407 7.47428Q-3.06344 7.49913 -3.13491 7.51707Q-3.20639 7.535 -3.27928 7.54585Q-3.35216 7.55669 -3.42576 7.56034Q-3.49936 7.56399 -3.57297 7.5604Q-3.64657 7.55682 -3.71947 7.54603Q-3.79237 7.53525 -3.86385 7.51738Q-3.93534 7.4995 -4.00474 7.47471Q-4.07413 7.44991 -4.14076 7.41843Q-4.20739 7.38695 -4.27061 7.3491Q-4.33383 7.31124 -4.39304 7.26737Q-4.45225 7.2235 -4.50687 7.17403Q-4.56149 7.12457 -4.611 7.06999Q-4.66051 7.01541 -4.70443 6.95624Q-4.78889 6.84245 -4.85055 6.71487Q-4.91221 6.58728 -4.94889 6.45041Q-4.98557 6.31353 -4.99596 6.17221Q-5.00635 6.03088 -4.9901 5.89012Q-4.30997 1.90735e-06 -4.9901 -5.89012Q-4.99855 -5.96332 -4.99979 -6.037Q-5.00102 -6.11068 -4.99503 -6.18413Q-4.98904 -6.25757 -4.97588 -6.33008Q-4.96272 -6.40258 -4.94252 -6.47345Q-4.92231 -6.54432 -4.89526 -6.61286Q-4.86821 -6.68141 -4.83456 -6.74697Q-4.80092 -6.81253 -4.76102 -6.87448Q-4.72111 -6.93643 -4.67532 -6.99417Q-4.62954 -7.05191 -4.57831 -7.10489Q-4.52709 -7.15786 -4.47092 -7.20556Q-4.41475 -7.25326 -4.35417 -7.29522Q-4.2936 -7.33718 -4.2292 -7.373Q-4.1648 -7.40883 -4.0972 -7.43817Q-4.02961 -7.46751 -3.95946 -7.49008Q-3.88931 -7.51265 -3.81729 -7.52824Q-3.74527 -7.54382 -3.67206 -7.55228Q-3.53129 -7.56853 -3.38997 -7.55814Q-3.24865 -7.54774 -3.11177 -7.51107Q-2.97489 -7.47439 -2.84731 -7.41273Q-2.71972 -7.35107 -2.60594 -7.26661Q2.15498 -3.73254 7.59604 -1.37649Q7.66366 -1.34721 7.72809 -1.31144Q7.79252 -1.27568 7.85313 -1.23376Q7.91374 -1.19185 7.96995 -1.1442Q8.02616 -1.09655 8.07743 -1.04362Q8.1287 -0.99069 8.17454 -0.932989Q8.22037 -0.875287 8.26033 -0.813371Q8.30029 -0.751455 8.33398 -0.685921Q8.36768 -0.620387 8.39479 -0.551865Q8.4219 -0.483343 8.44217 -0.412494Q8.46243 -0.341645 8.47565 -0.26915Q8.48888 -0.196656 8.49493 -0.123215Q8.50098 -0.0497737 8.49981 0.0239072Q8.49863 0.0975881 8.49024 0.170799Q8.48185 0.24401 8.46633 0.316046Q8.4508 0.388082 8.42829 0.45825Q8.40578 0.528417 8.37649 0.59604Q8.32019 0.726076 8.24052 0.843268Q8.16086 0.96046 8.06066 1.06066Q7.96046 1.16086 7.84327 1.24052Q7.72608 1.32019 7.59604 1.37649L7.59604 1.37649ZM6.40396 -1.37649L7 0L6.40396 1.37649Q0.645015 -1.1172 -4.39406 -4.85775L-3.5 -6.06218L-2.0099 -6.23424Q-1.29003 0 -2.0099 6.23424L-3.5 6.06218L-4.39406 4.85775Q0.645018 1.1172 6.40396 -1.37649Z"/>
	<path fill="#9C1010" transform="matrix(1.15574 0.839693 -0.839693 1.15574 43.4426 39.4602)" d="M7 0Q1.4 2.42487 -3.5 6.06218Q-2.8 -1.90735e-07 -3.5 -6.06218Q1.4 -2.42487 7 0Z"/>
	<path fill="#7E0D0D" transform="matrix(1.15574 0.839693 -0.839693 1.15574 43.4426 39.4602)" d="M7.59604 1.37649Q2.15498 3.73254 -2.60594 7.26661Q-2.66511 7.31053 -2.7283 7.34844Q-2.79149 7.38635 -2.85809 7.41789Q-2.9247 7.44942 -2.99407 7.47428Q-3.06344 7.49913 -3.13491 7.51707Q-3.20639 7.535 -3.27928 7.54585Q-3.35216 7.55669 -3.42576 7.56034Q-3.49936 7.56399 -3.57297 7.5604Q-3.64657 7.55682 -3.71947 7.54603Q-3.79237 7.53525 -3.86385 7.51738Q-3.93534 7.4995 -4.00474 7.47471Q-4.07413 7.44991 -4.14076 7.41843Q-4.20739 7.38695 -4.27061 7.3491Q-4.33383 7.31124 -4.39304 7.26737Q-4.45225 7.2235 -4.50687 7.17403Q-4.56149 7.12457 -4.611 7.06999Q-4.66051 7.01541 -4.70443 6.95624Q-4.78889 6.84245 -4.85055 6.71487Q-4.91221 6.58728 -4.94889 6.45041Q-4.98557 6.31353 -4.99596 6.17221Q-5.00635 6.03088 -4.9901 5.89012Q-4.30997 1.90735e-06 -4.9901 -5.89012Q-4.99855 -5.96332 -4.99979 -6.037Q-5.00102 -6.11068 -4.99503 -6.18413Q-4.98904 -6.25757 -4.97588 -6.33008Q-4.96272 -6.40258 -4.94252 -6.47345Q-4.92231 -6.54432 -4.89526 -6.61286Q-4.86821 -6.68141 -4.83456 -6.74697Q-4.80092 -6.81253 -4.76102 -6.87448Q-4.72111 -6.93643 -4.67532 -6.99417Q-4.62954 -7.05191 -4.57831 -7.10489Q-4.52709 -7.15786 -4.47092 -7.20556Q-4.41475 -7.25326 -4.35417 -7.29522Q-4.2936 -7.33718 -4.2292 -7.373Q-4.1648 -7.40883 -4.0972 -7.43817Q-4.02961 -7.46751 -3.95946 -7.49008Q-3.88931 -7.51265 -3.81729 -7.52824Q-3.74527 -7.54382 -3.67206 -7.55228Q-3.53129 -7.56853 -3.38997 -7.55814Q-3.24865 -7.54774 -3.11177 -7.51107Q-2.97489 -7.47439 -2.84731 -7.41273Q-2.71972 -7.35107 -2.60594 -7.26661Q2.15498 -3.73254 7.59604 -1.37649Q7.66366 -1.34721 7.72809 -1.31144Q7.79252 -1.27568 7.85313 -1.23376Q7.91374 -1.19185 7.96995 -1.1442Q8.02616 -1.09655 8.07743 -1.04362Q8.1287 -0.99069 8.17454 -0.932989Q8.22037 -0.875287 8.26033 -0.813371Q8.30029 -0.751455 8.33398 -0.685921Q8.36768 -0.620387 8.39479 -0.551865Q8.4219 -0.483343 8.44217 -0.412494Q8.46243 -0.341645 8.47565 -0.26915Q8.48888 -0.196656 8.49493 -0.123215Q8.50098 -0.0497737 8.49981 0.0239072Q8.49863 0.0975881 8.49024 0.170799Q8.48185 0.24401 8.46633 0.316046Q8.4508 0.388082 8.42829 0.45825Q8.40578 0.528417 8.37649 0.59604Q8.32019 0.726076 8.24052 0.843268Q8.16086 0.96046 8.06066 1.06066Q7.96046 1.16086 7.84327 1.24052Q7.72608 1.32019 7.59604 1.37649L7.59604 1.37649ZM6.40396 -1.37649L7 0L6.40396 1.37649Q0.645015 -1.1172 -4.39406 -4.85775L-3.5 -6.06218L-2.0099 -6.23424Q-1.29003 0 -2.0099 6.23424L-3.5 6.06218L-4.39406 4.85775Q0.645018 1.1172 6.40396 -1.37649Z"/>
	<path fill="#9C1010" transform="matrix(-0.441453 1.35865 -1.35865 -0.441453 59.4145 34.2706)" d="M7 0Q1.4 2.42487 -3.5 6.06218Q-2.8 -1.90735e-07 -3.5 -6.06218Q1.4 -2.42487 7 0Z"/>
	<path fill="#7E0D0D" transform="matrix(-0.441453 1.35865 -1.35865 -0.441453 59.4145 34.2706)" d="M7.59604 1.37649Q2.15498 3.73254 -2.60594 7.26661Q-2.66511 7.31053 -2.7283 7.34844Q-2.79149 7.38635 -2.85809 7.41789Q-2.9247 7.44942 -2.99407 7.47428Q-3.06344 7.49913 -3.13491 7.51707Q-3.20639 7.535 -3.27928 7.54585Q-3.35216 7.55669 -3.42576 7.56034Q-3.49936 7.56399 -3.57297 7.5604Q-3.64657 7.55682 -3.71947 7.54603Q-3.79237 7.53525 -3.86385 7.51738Q-3.93534 7.4995 -4.00474 7.47471Q-4.07413 7.44991 -4.14076 7.41843Q-4.20739 7.38695 -4.27061 7.3491Q-4.33383 7.31124 -4.39304 7.26737Q-4.45225 7.2235 -4.50687 7.17403Q-4.56149 7.12457 -4.611 7.06999Q-4.66051 7.01541 -4.70443 6.95624Q-4.78889 6.84245 -4.85055 6.71487Q-4.91221 6.58728 -4.94889 6.45041Q-4.98557 6.31353 -4.99596 6.17221Q-5.00635 6.03088 -4.9901 5.89012Q-4.30997 1.90735e-06 -4.9901 -5.89012Q-4.99855 -5.96332 -4.99979 -6.037Q-5.00102 -6.11068 -4.99503 -6.18413Q-4.98904 -6.25757 -4.97588 -6.33008Q-4.96272 -6.40258 -4.94252 -6.47345Q-4.92231 -6.54432 -4.89526 -6.61286Q-4.86821 -6.68141 -4.83456 -6.74697Q-4.80092 -6.81253 -4.76102 -6.87448Q-4.72111 -6.93643 -4.67532 -6.99417Q-4.62954 -7.05191 -4.57831 -7.10489Q-4.52709 -7.15786 -4.47092 -7.20556Q-4.41475 -7.25326 -4.35417 -7.29522Q-4.2936 -7.33718 -4.2292 -7.373Q-4.1648 -7.40883 -4.0972 -7.43817Q-4.02961 -7.46751 -3.95946 -7.49008Q-3.88931 -7.51265 -3.81729 -7.52824Q-3.74527 -7.54382 -3.67206 -7.55228Q-3.53129 -7.56853 -3.38997 -7.55814Q-3.24865 -7.54774 -3.11177 -7.51107Q-2.97489 -7.47439 -2.84731 -7.41273Q-2.71972 -7.35107 -2.60594 -7.26661Q2.15498 -3.73254 7.59604 -1.37649Q7.66366 -1.34721 7.72809 -1.31144Q7.79252 -1.27568 7.85313 -1.23376Q7.91374 -1.19185 7.96995 -1.1442Q8.02616 -1.09655 8.07743 -1.04362Q8.1287 -0.99069 8.17454 -0.932989Q8.22037 -0.875287 8.26033 -0.813371Q8.30029 -0.751455 8.33398 -0.685921Q8.36768 -0.620387 8.39479 -0.551865Q8.4219 -0.483343 8.44217 -0.412494Q8.46243 -0.341645 8.47565 -0.26915Q8.48888 -0.196656 8.49493 -0.123215Q8.50098 -0.0497737 8.49981 0.0239072Q8.49863 0.0975881 8.49024 0.170799Q8.48185 0.24401 8.46633 0.316046Q8.4508 0.388082 8.42829 0.45825Q8.40578 0.528417 8.37649 0.59604Q8.32019 0.726076 8.24052 0.843268Q8.16086 0.96046 8.06066 1.06066Q7.96046 1.16086 7.84327 1.24052Q7.72608 1.32019 7.59604 1.37649L7.59604 1.37649ZM6.40396 -1.37649L7 0L6.40396 1.37649Q0.645015 -1.1172 -4.39406 -4.85775L-3.5 -6.06218L-2.0099 -6.23424Q-1.29003 0 -2.0099 6.23424L-3.5 6.06218L-4.39406 4.85775Q0.645018 1.1172 6.40396 -1.37649Z"/>
	<path fill="none" stroke="black" stroke-width="2.3999999" stroke-linejoin="round" transform="translate(55 79.2857)" d="M-29.6591 5.05207Q-28.9999 5.05207 -28.5702 4.94465Q-28.1405 4.83234 -27.8818 4.64191Q-27.6181 4.45148 -27.5204 4.1927Q-27.4179 3.92902 -27.4179 3.61164Q-27.4179 2.92805 -28.0624 2.47883Q-28.7021 2.02961 -30.2597 1.51203Q-30.9384 1.26789 -31.622 0.960273Q-32.3007 0.647773 -32.8427 0.179023Q-33.3798 -0.289727 -33.7216 -0.958672Q-34.0585 -1.62762 -34.0585 -2.58953Q-34.0585 -3.55145 -33.7021 -4.31805Q-33.3407 -5.08953 -32.6816 -5.62664Q-32.0224 -6.16863 -31.08 -6.45672Q-30.1376 -6.74969 -28.9609 -6.74969Q-27.5595 -6.74969 -26.539 -6.44695Q-25.5185 -6.1491 -24.8593 -5.78777L-25.7577 -3.33172Q-26.3388 -3.62957 -27.0517 -3.85906Q-27.7597 -4.08855 -28.7607 -4.08855Q-29.8788 -4.08855 -30.372 -3.77605Q-30.8603 -3.46844 -30.8603 -2.82879Q-30.8603 -2.44793 -30.6796 -2.18914Q-30.4989 -1.93035 -30.1718 -1.72039Q-29.8398 -1.51043 -29.4101 -1.33953Q-28.9804 -1.16863 -28.4579 -0.987969Q-27.3788 -0.587578 -26.5829 -0.196953Q-25.7822 0.188789 -25.2499 0.71125Q-24.7177 1.22883 -24.4589 1.93195Q-24.2001 2.6302 -24.2001 3.63117Q-24.2001 5.56965 -25.5624 6.63898Q-26.9198 7.70832 -29.6591 7.70832Q-30.582 7.70832 -31.3241 7.59602Q-32.0614 7.48859 -32.6327 7.33234Q-33.1991 7.17121 -33.6093 6.99055Q-34.0195 6.80988 -34.2978 6.64875L-33.4189 4.16828Q-32.7988 4.51008 -31.8905 4.78352Q-30.9823 5.05207 -29.6591 5.05207ZM-22.1012 -5.70965L-19.1178 -6.18816L-19.1178 -3.08758L-15.5387 -3.08758L-15.5387 -0.611992L-19.1178 -0.611992L-19.1178 3.08918Q-19.1178 4.03156 -18.7906 4.59309Q-18.4586 5.14973 -17.4576 5.14973Q-16.9791 5.14973 -16.4713 5.06184Q-15.9586 4.96906 -15.5387 4.80793L-15.1187 7.13215Q-15.6607 7.35187 -16.3199 7.50812Q-16.9791 7.66926 -17.941 7.66926Q-19.1617 7.66926 -19.9625 7.34211Q-20.7584 7.01008 -21.2418 6.41926Q-21.7203 5.82844 -21.9107 4.98859Q-22.1012 4.14875 -22.1012 3.12824L-22.1012 -5.70965ZM-10.1401 7.43L-13.1186 7.43L-13.1186 -3.08758L-10.1401 -3.08758L-10.1401 7.43ZM-9.86179 -6.12957Q-9.86179 -5.30926 -10.394 -4.84051Q-10.9214 -4.37176 -11.6391 -4.37176Q-12.3618 -4.37176 -12.894 -4.84051Q-13.4214 -5.30926 -13.4214 -6.12957Q-13.4214 -6.94988 -12.894 -7.41863Q-12.3618 -7.89227 -11.6391 -7.89227Q-10.9214 -7.89227 -10.394 -7.41863Q-9.86179 -6.94988 -9.86179 -6.12957ZM-7.33862 -2.73113Q-6.58179 -2.95086 -5.38062 -3.14129Q-4.17944 -3.33172 -2.86108 -3.33172Q-1.51831 -3.33172 -0.629639 -2.98016Q0.259033 -2.62859 0.776611 -1.98895Q1.29907 -1.3493 1.5188 -0.470391Q1.73853 0.408515 1.73853 1.48762L1.73853 7.43L-1.23999 7.43L-1.23999 1.84895Q-1.23999 0.408515 -1.62085 -0.187188Q-2.00171 -0.787774 -3.04175 -0.787774Q-3.35913 -0.787774 -3.72046 -0.758477Q-4.08179 -0.72918 -4.36011 -0.690117L-4.36011 7.43L-7.33862 7.43L-7.33862 -2.73113ZM6.98042 1.82941Q6.98042 4.32941 9.00191 4.32941Q9.46089 4.32941 9.86128 4.21223Q10.2617 4.09016 10.54 3.92902L10.54 -0.831719Q10.3203 -0.870781 10.0175 -0.900078Q9.71968 -0.929375 9.31929 -0.929375Q8.13765 -0.929375 7.55659 -0.148125Q6.98042 0.628242 6.98042 1.82941ZM13.5185 6.11164Q13.5185 8.68977 12.2099 9.93977Q10.9013 11.1898 8.16206 11.1898Q7.20015 11.1898 6.23824 11.0189Q5.2812 10.848 4.46089 10.5696L4.97847 8.06965Q5.68159 8.34797 6.4482 8.5091Q7.21968 8.67023 8.20113 8.67023Q9.48042 8.67023 10.0078 8.10871Q10.54 7.55207 10.54 6.66828L10.54 6.2923Q10.0615 6.51203 9.54878 6.62434Q9.04097 6.73176 8.44038 6.73176Q6.25777 6.73176 5.09566 5.4427Q3.93843 4.14875 3.93843 1.82941Q3.93843 0.672187 4.29976 -0.279961Q4.66109 -1.23211 5.34956 -1.91082Q6.03804 -2.58953 7.03902 -2.96063Q8.03999 -3.33172 9.29976 -3.33172Q9.84175 -3.33172 10.4082 -3.27801Q10.9794 -3.22918 11.5361 -3.14617Q12.0976 -3.06805 12.6054 -2.95574Q13.1181 -2.84832 13.5185 -2.73113L13.5185 6.11164ZM15.8184 2.24934Q15.8184 0.847969 16.2481 -0.201836Q16.6778 -1.25164 17.376 -1.94988Q18.0792 -2.64813 18.9874 -3.00945Q19.9005 -3.37078 20.8624 -3.37078Q23.0987 -3.37078 24.3975 -1.99871Q25.7012 -0.631524 25.7012 2.02961Q25.7012 2.2884 25.6817 2.6009Q25.6622 2.90852 25.6378 3.14777L18.8799 3.14777Q18.9776 4.07062 19.7393 4.61262Q20.501 5.14973 21.7803 5.14973Q22.6006 5.14973 23.3868 5.00324Q24.1778 4.85187 24.6807 4.63215L25.0811 7.04914Q24.8419 7.17121 24.4415 7.29328Q24.0411 7.41047 23.5479 7.49836Q23.0596 7.59113 22.4981 7.64973Q21.9415 7.70832 21.3799 7.70832Q19.959 7.70832 18.9092 7.2884Q17.8594 6.86848 17.1661 6.14094Q16.4776 5.40852 16.1456 4.41242Q15.8184 3.41145 15.8184 2.24934ZM22.8204 1.11164Q22.8008 0.730781 22.6885 0.369453Q22.5811 0.00812483 22.3516 -0.270195Q22.1221 -0.548516 21.7706 -0.72918Q21.419 -0.909844 20.9014 -0.909844Q20.3985 -0.909844 20.0372 -0.738945Q19.6807 -0.568047 19.4415 -0.289727Q19.2022 -0.0114064 19.0704 0.359687Q18.9385 0.730781 18.8799 1.11164L22.8204 1.11164ZM34.3392 -0.45086Q33.9388 -0.548516 33.3969 -0.655938Q32.8597 -0.768242 32.2396 -0.768242Q31.9613 -0.768242 31.5707 -0.719414Q31.1801 -0.670586 30.9799 -0.611992L30.9799 7.43L28.0013 7.43L28.0013 -2.53094Q28.8021 -2.80926 29.891 -3.05828Q30.9799 -3.31219 32.3177 -3.31219Q32.5619 -3.31219 32.8988 -3.27801Q33.2406 -3.24871 33.5775 -3.19988Q33.9193 -3.15105 34.2562 -3.07781Q34.598 -3.00945 34.8422 -2.9118L34.3392 -0.45086Z"/>
	<path fill="white" transform="translate(55 79.2857)" d="M-29.6591 5.05207Q-28.9999 5.05207 -28.5702 4.94465Q-28.1405 4.83234 -27.8818 4.64191Q-27.6181 4.45148 -27.5204 4.1927Q-27.4179 3.92902 -27.4179 3.61164Q-27.4179 2.92805 -28.0624 2.47883Q-28.7021 2.02961 -30.2597 1.51203Q-30.9384 1.26789 -31.622 0.960273Q-32.3007 0.647773 -32.8427 0.179023Q-33.3798 -0.289727 -33.7216 -0.958672Q-34.0585 -1.62762 -34.0585 -2.58953Q-34.0585 -3.55145 -33.7021 -4.31805Q-33.3407 -5.08953 -32.6816 -5.62664Q-32.0224 -6.16863 -31.08 -6.45672Q-30.1376 -6.74969 -28.9609 -6.74969Q-27.5595 -6.74969 -26.539 -6.44695Q-25.5185 -6.1491 -24.8593 -5.78777L-25.7577 -3.33172Q-26.3388 -3.62957 -27.0517 -3.85906Q-27.7597 -4.08855 -28.7607 -4.08855Q-29.8788 -4.08855 -30.372 -3.77605Q-30.8603 -3.46844 -30.8603 -2.82879Q-30.8603 -2.44793 -30.6796 -2.18914Q-30.4989 -1.93035 -30.1718 -1.72039Q-29.8398 -1.51043 -29.4101 -1.33953Q-28.9804 -1.16863 -28.4579 -0.987969Q-27.3788 -0.587578 -26.5829 -0.196953Q-25.7822 0.188789 -25.2499 0.71125Q-24.7177 1.22883 -24.4589 1.93195Q-24.2001 2.6302 -24.2001 3.63117Q-24.2001 5.56965 -25.5624 6.63898Q-26.9198 7.70832 -29.6591 7.70832Q-30.582 7.70832 -31.3241 7.59602Q-32.0614 7.48859 -32.6327 7.33234Q-33.1991 7.17121 -33.6093 6.99055Q-34.0195 6.80988 -34.2978 6.64875L-33.4189 4.16828Q-32.7988 4.51008 -31.8905 4.78352Q-30.9823 5.05207 -29.6591 5.05207ZM-22.1012 -5.70965L-19.1178 -6.18816L-19.1178 -3.08758L-15.5387 -3.08758L-15.5387 -0.611992L-19.1178 -0.611992L-19.1178 3.08918Q-19.1178 4.03156 -18.7906 4.59309Q-18.4586 5.14973 -17.4576 5.14973Q-16.9791 5.14973 -16.4713 5.06184Q-15.9586 4.96906 -15.5387 4.80793L-15.1187 7.13215Q-15.6607 7.35187 -16.3199 7.50812Q-16.9791 7.66926 -17.941 7.66926Q-19.1617 7.66926 -19.9625 7.34211Q-20.7584 7.01008 -21.2418 6.41926Q-21.7203 5.82844 -21.9107 4.98859Q-22.1012 4.14875 -22.1012 3.12824L-22.1012 -5.70965ZM-10.1401 7.43L-13.1186 7.43L-13.1186 -3.08758L-10.1401 -3.08758L-10.1401 7.43ZM-9.86179 -6.12957Q-9.86179 -5.30926 -10.394 -4.84051Q-10.9214 -4.37176 -11.6391 -4.37176Q-12.3618 -4.37176 -12.894 -4.84051Q-13.4214 -5.30926 -13.4214 -6.12957Q-13.4214 -6.94988 -12.894 -7.41863Q-12.3618 -7.89227 -11.6391 -7.89227Q-10.9214 -7.89227 -10.394 -7.41863Q-9.86179 -6.94988 -9.86179 -6.12957ZM-7.33862 -2.73113Q-6.58179 -2.95086 -5.38062 -3.14129Q-4.17944 -3.33172 -2.86108 -3.33172Q-1.51831 -3.33172 -0.629639 -2.98016Q0.259033 -2.62859 0.776611 -1.98895Q1.29907 -1.3493 1.5188 -0.470391Q1.73853 0.408515 1.73853 1.48762L1.73853 7.43L-1.23999 7.43L-1.23999 1.84895Q-1.23999 0.408515 -1.62085 -0.187188Q-2.00171 -0.787774 -3.04175 -0.787774Q-3.35913 -0.787774 -3.72046 -0.758477Q-4.08179 -0.72918 -4.36011 -0.690117L-4.36011 7.43L-7.33862 7.43L-7.33862 -2.73113ZM6.98042 1.82941Q6.98042 4.32941 9.00191 4.32941Q9.46089 4.32941 9.86128 4.21223Q10.2617 4.09016 10.54 3.92902L10.54 -0.831719Q10.3203 -0.870781 10.0175 -0.900078Q9.71968 -0.929375 9.31929 -0.929375Q8.13765 -0.929375 7.55659 -0.148125Q6.98042 0.628242 6.98042 1.82941ZM13.5185 6.11164Q13.5185 8.68977 12.2099 9.93977Q10.9013 11.1898 8.16206 11.1898Q7.20015 11.1898 6.23824 11.0189Q5.2812 10.848 4.46089 10.5696L4.97847 8.06965Q5.68159 8.34797 6.4482 8.5091Q7.21968 8.67023 8.20113 8.67023Q9.48042 8.67023 10.0078 8.10871Q10.54 7.55207 10.54 6.66828L10.54 6.2923Q10.0615 6.51203 9.54878 6.62434Q9.04097 6.73176 8.44038 6.73176Q6.25777 6.73176 5.09566 5.4427Q3.93843 4.14875 3.93843 1.82941Q3.93843 0.672187 4.29976 -0.279961Q4.66109 -1.23211 5.34956 -1.91082Q6.03804 -2.58953 7.03902 -2.96063Q8.03999 -3.33172 9.29976 -3.33172Q9.84175 -3.33172 10.4082 -3.27801Q10.9794 -3.22918 11.5361 -3.14617Q12.0976 -3.06805 12.6054 -2.95574Q13.1181 -2.84832 13.5185 -2.73113L13.5185 6.11164ZM15.8184 2.24934Q15.8184 0.847969 16.2481 -0.201836Q16.6778 -1.25164 17.376 -1.94988Q18.0792 -2.64813 18.9874 -3.00945Q19.9005 -3.37078 20.8624 -3.37078Q23.0987 -3.37078 24.3975 -1.99871Q25.7012 -0.631524 25.7012 2.02961Q25.7012 2.2884 25.6817 2.6009Q25.6622 2.90852 25.6378 3.14777L18.8799 3.14777Q18.9776 4.07062 19.7393 4.61262Q20.501 5.14973 21.7803 5.14973Q22.6006 5.14973 23.3868 5.00324Q24.1778 4.85187 24.6807 4.63215L25.0811 7.04914Q24.8419 7.17121 24.4415 7.29328Q24.0411 7.41047 23.5479 7.49836Q23.0596 7.59113 22.4981 7.64973Q21.9415 7.70832 21.3799 7.70832Q19.959 7.70832 18.9092 7.2884Q17.8594 6.86848 17.1661 6.14094Q16.4776 5.40852 16.1456 4.41242Q15.8184 3.41145 15.8184 2.24934ZM22.8204 1.11164Q22.8008 0.730781 22.6885 0.369453Q22.5811 0.00812483 22.3516 -0.270195Q22.1221 -0.548516 21.7706 -0.72918Q21.419 -0.909844 20.9014 -0.909844Q20.3985 -0.909844 20.0372 -0.738945Q19.6807 -0.568047 19.4415 -0.289727Q19.2022 -0.0114064 19.0704 0.359687Q18.9385 0.730781 18.8799 1.11164L22.8204 1.11164ZM34.3392 -0.45086Q33.9388 -0.548516 33.3969 -0.655938Q32.8597 -0.768242 32.2396 -0.768242Q31.9613 -0.768242 31.5707 -0.719414Q31.1801 -0.670586 30.9799 -0.611992L30.9799 7.43L28.0013 7.43L28.0013 -2.53094Q28.8021 -2.80926 29.891 -3.05828Q30.9799 -3.31219 32.3177 -3.31219Q32.5619 -3.31219 32.8988 -3.27801Q33.2406 -3.24871 33.5775 -3.19988Q33.9193 -3.15105 34.2562 -3.07781Q34.598 -3.00945 34.8422 -2.9118L34.3392 -0.45086Z"/>
</svg>
