<?xml version="1.0" encoding="utf-8" ?>
<svg xmlns="http://www.w3.org/2000/svg" xmlns:xlink="http://www.w3.org/1999/xlink" width="110" height="110">
	<path fill="#7E0D0D" transform="matrix(1.42857 0 0 1.42857 55 47.8571)" d="M9 0Q9.11054 0.0296179 9.21764 0.0699276Q9.32474 0.110237 9.42737 0.16085Q9.53 0.211464 9.62718 0.271893Q9.72436 0.332322 9.81514 0.401986Q9.90593 0.471649 9.98945 0.549876Q10.073 0.628102 10.1484 0.714139Q10.2239 0.800176 10.2905 0.893193Q10.3572 0.986211 10.4144 1.08531Q10.4716 1.18442 10.5189 1.28865Q10.5661 1.39289 10.6029 1.50125Q10.6397 1.60961 10.6656 1.72106Q10.6916 1.8325 10.7066 1.94596Q10.7215 2.05941 10.7252 2.17379Q10.729 2.28816 10.7215 2.40235Q10.714 2.51654 10.6954 2.62944Q10.6767 2.74235 10.6471 2.85289Q10.6175 2.96342 10.5772 3.07052Q10.5369 3.17762 10.4863 3.28025Q10.4357 3.38289 10.3752 3.48007Q10.3148 3.57724 10.2451 3.66803Q10.1755 3.75882 10.0972 3.84234Q10.019 3.92586 9.93298 4.00131Q9.84694 4.07677 9.75392 4.14342Q9.6609 4.21008 9.5618 4.26729Q9.4627 4.32451 9.35846 4.37174Q9.25423 4.41897 9.14587 4.45575Q9.0375 4.49254 8.92606 4.51852Q8.81461 4.54451 8.70116 4.55944Q8.5877 4.57438 8.47333 4.57812Q8.35896 4.58187 8.24477 4.57438Q8.13058 4.5669 8.01767 4.54826Q7.90476 4.52962 7.79423 4.5Q7.87515 4.58092 7.94774 4.66938Q8.02034 4.75784 8.08391 4.85298Q8.14749 4.94813 8.20144 5.04906Q8.25538 5.14998 8.29917 5.2557Q8.34296 5.36143 8.37618 5.47093Q8.4094 5.58044 8.43173 5.69268Q8.45405 5.80491 8.46527 5.9188Q8.47648 6.03268 8.47648 6.14711Q8.47648 6.26155 8.46527 6.37543Q8.45405 6.48932 8.43173 6.60155Q8.4094 6.71379 8.37618 6.8233Q8.34296 6.9328 8.29917 7.03853Q8.25538 7.14425 8.20144 7.24517Q8.14749 7.34609 8.08391 7.44124Q8.02034 7.53639 7.94774 7.62485Q7.87515 7.71331 7.79423 7.79423Q7.71331 7.87515 7.62485 7.94774Q7.53639 8.02034 7.44124 8.08392Q7.34609 8.14749 7.24517 8.20144Q7.14425 8.25538 7.03852 8.29917Q6.9328 8.34297 6.82329 8.37618Q6.71379 8.4094 6.60155 8.43173Q6.48932 8.45405 6.37543 8.46527Q6.26155 8.47649 6.14711 8.47649Q6.03268 8.47649 5.9188 8.46527Q5.80491 8.45405 5.69268 8.43173Q5.58044 8.4094 5.47093 8.37618Q5.36143 8.34297 5.2557 8.29917Q5.14998 8.25538 5.04906 8.20144Q4.94813 8.14749 4.85298 8.08392Q4.75784 8.02034 4.66938 7.94774Q4.58092 7.87515 4.5 7.79423Q4.52962 7.90477 4.54826 8.01767Q4.5669 8.13058 4.57438 8.24477Q4.58187 8.35896 4.57812 8.47333Q4.57438 8.5877 4.55944 8.70116Q4.54451 8.81461 4.51852 8.92606Q4.49253 9.03751 4.45575 9.14587Q4.41897 9.25423 4.37174 9.35846Q4.32451 9.4627 4.26729 9.5618Q4.21008 9.6609 4.14342 9.75392Q4.07677 9.84694 4.00131 9.93297Q3.92586 10.019 3.84234 10.0972Q3.75882 10.1755 3.66803 10.2451Q3.57724 10.3148 3.48006 10.3752Q3.38289 10.4357 3.28025 10.4863Q3.17762 10.5369 3.07052 10.5772Q2.96342 10.6175 2.85288 10.6471Q2.74235 10.6767 2.62944 10.6954Q2.51654 10.714 2.40235 10.7215Q2.28816 10.729 2.17378 10.7252Q2.05941 10.7215 1.94596 10.7066Q1.8325 10.6916 1.72105 10.6656Q1.60961 10.6397 1.50125 10.6029Q1.39289 10.5661 1.28865 10.5189Q1.18442 10.4716 1.08531 10.4144Q0.98621 10.3572 0.893192 10.2905Q0.800175 10.2239 0.714138 10.1484Q0.628102 10.073 0.549875 9.98945Q0.471648 9.90593 0.401985 9.81515Q0.332321 9.72436 0.271892 9.62718Q0.211463 9.53 0.16085 9.42737Q0.110237 9.32474 0.069927 9.21764Q0.0296174 9.11054 -4.76837e-07 9Q-0.0296184 9.11054 -0.069928 9.21764Q-0.110238 9.32474 -0.160851 9.42737Q-0.211464 9.53 -0.271893 9.62718Q-0.332323 9.72436 -0.401986 9.81514Q-0.47165 9.90593 -0.549876 9.98945Q-0.628103 10.073 -0.714139 10.1484Q-0.800176 10.2239 -0.893194 10.2905Q-0.986212 10.3572 -1.08532 10.4144Q-1.18442 10.4716 -1.28865 10.5189Q-1.39289 10.5661 -1.50125 10.6029Q-1.60961 10.6397 -1.72106 10.6656Q-1.8325 10.6916 -1.94596 10.7066Q-2.05941 10.7215 -2.17379 10.7252Q-2.28816 10.729 -2.40235 10.7215Q-2.51654 10.714 -2.62945 10.6954Q-2.74235 10.6767 -2.85289 10.6471Q-2.96342 10.6175 -3.07052 10.5772Q-3.17762 10.5369 -3.28026 10.4863Q-3.38289 10.4357 -3.48007 10.3752Q-3.57724 10.3148 -3.66803 10.2451Q-3.75882 10.1755 -3.84234 10.0972Q-3.92586 10.019 -4.00131 9.93298Q-4.07677 9.84694 -4.14342 9.75392Q-4.21008 9.6609 -4.26729 9.5618Q-4.32451 9.4627 -4.37174 9.35846Q-4.41897 9.25423 -4.45575 9.14587Q-4.49254 9.0375 -4.51852 8.92606Q-4.54451 8.81461 -4.55944 8.70116Q-4.57438 8.5877 -4.57812 8.47333Q-4.58187 8.35896 -4.57438 8.24477Q-4.5669 8.13058 -4.54826 8.01767Q-4.52962 7.90476 -4.5 7.79423Q-4.58092 7.87515 -4.66938 7.94774Q-4.75784 8.02034 -4.85298 8.08391Q-4.94813 8.14749 -5.04906 8.20144Q-5.14998 8.25538 -5.2557 8.29917Q-5.36143 8.34297 -5.47093 8.37618Q-5.58044 8.4094 -5.69268 8.43173Q-5.80491 8.45405 -5.9188 8.46527Q-6.03268 8.47649 -6.14711 8.47649Q-6.26155 8.47649 -6.37543 8.46527Q-6.48932 8.45405 -6.60155 8.43173Q-6.71379 8.4094 -6.8233 8.37618Q-6.9328 8.34297 -7.03853 8.29917Q-7.14425 8.25538 -7.24517 8.20144Q-7.34609 8.14749 -7.44124 8.08392Q-7.53639 8.02034 -7.62485 7.94774Q-7.71331 7.87515 -7.79423 7.79423Q-7.87515 7.71331 -7.94774 7.62485Q-8.02034 7.53639 -8.08392 7.44124Q-8.14749 7.34609 -8.20144 7.24517Q-8.25538 7.14425 -8.29917 7.03853Q-8.34297 6.9328 -8.37618 6.8233Q-8.4094 6.71379 -8.43173 6.60155Q-8.45405 6.48932 -8.46527 6.37543Q-8.47649 6.26155 -8.47649 6.14711Q-8.47649 6.03268 -8.46527 5.9188Q-8.45405 5.80491 -8.43173 5.69268Q-8.4094 5.58044 -8.37618 5.47093Q-8.34297 5.36143 -8.29917 5.2557Q-8.25538 5.14998 -8.20144 5.04906Q-8.14749 4.94813 -8.08392 4.85299Q-8.02034 4.75784 -7.94774 4.66938Q-7.87515 4.58092 -7.79423 4.5Q-7.90477 4.52962 -8.01767 4.54826Q-8.13058 4.5669 -8.24477 4.57438Q-8.35896 4.58187 -8.47333 4.57812Q-8.5877 4.57438 -8.70116 4.55944Q-8.81461 4.54451 -8.92606 4.51852Q-9.03751 4.49254 -9.14587 4.45575Q-9.25423 4.41897 -9.35846 4.37174Q-9.4627 4.32451 -9.5618 4.26729Q-9.6609 4.21008 -9.75392 4.14342Q-9.84694 4.07677 -9.93297 4.00131Q-10.019 3.92586 -10.0972 3.84234Q-10.1755 3.75882 -10.2451 3.66803Q-10.3148 3.57724 -10.3752 3.48007Q-10.4357 3.38289 -10.4863 3.28025Q-10.5369 3.17762 -10.5772 3.07052Q-10.6175 2.96342 -10.6471 2.85288Q-10.6767 2.74235 -10.6954 2.62944Q-10.714 2.51654 -10.7215 2.40235Q-10.729 2.28816 -10.7252 2.17378Q-10.7215 2.05941 -10.7066 1.94595Q-10.6916 1.8325 -10.6656 1.72105Q-10.6397 1.60961 -10.6029 1.50125Q-10.5661 1.39289 -10.5189 1.28865Q-10.4716 1.18442 -10.4144 1.08531Q-10.3572 0.98621 -10.2905 0.893192Q-10.2239 0.800174 -10.1484 0.714138Q-10.073 0.628101 -9.98945 0.549874Q-9.90593 0.471648 -9.81514 0.401984Q-9.72436 0.332321 -9.62718 0.271892Q-9.53 0.211462 -9.42737 0.160849Q-9.32474 0.110236 -9.21764 0.0699263Q-9.11054 0.0296167 -9 -1.19209e-06Q-9.11054 -0.0296191 -9.21764 -0.0699287Q-9.32474 -0.110238 -9.42737 -0.160851Q-9.53 -0.211465 -9.62718 -0.271894Q-9.72436 -0.332323 -9.81514 -0.401987Q-9.90593 -0.47165 -9.98945 -0.549877Q-10.073 -0.628103 -10.1484 -0.71414Q-10.2239 -0.800176 -10.2905 -0.893194Q-10.3572 -0.986212 -10.4144 -1.08532Q-10.4716 -1.18442 -10.5189 -1.28865Q-10.5661 -1.39289 -10.6029 -1.50125Q-10.6397 -1.60961 -10.6656 -1.72106Q-10.6916 -1.8325 -10.7066 -1.94596Q-10.7215 -2.05941 -10.7252 -2.17379Q-10.729 -2.28816 -10.7215 -2.40235Q-10.714 -2.51654 -10.6954 -2.62945Q-10.6767 -2.74235 -10.6471 -2.85289Q-10.6175 -2.96342 -10.5772 -3.07052Q-10.5369 -3.17762 -10.4863 -3.28026Q-10.4357 -3.38289 -10.3752 -3.48007Q-10.3148 -3.57724 -10.2451 -3.66803Q-10.1755 -3.75882 -10.0972 -3.84234Q-10.019 -3.92586 -9.93298 -4.00131Q-9.84694 -4.07677 -9.75392 -4.14342Q-9.6609 -4.21008 -9.5618 -4.26729Q-9.4627 -4.32451 -9.35846 -4.37174Q-9.25423 -4.41897 -9.14587 -4.45575Q-9.0375 -4.49254 -8.92606 -4.51852Q-8.81461 -4.54451 -8.70116 -4.55944Q-8.5877 -4.57438 -8.47333 -4.57812Q-8.35896 -4.58187 -8.24477 -4.57438Q-8.13058 -4.5669 -8.01767 -4.54826Q-7.90476 -4.52962 -7.79423 -4.5Q-7.87515 -4.58092 -7.94774 -4.66938Q-8.02034 -4.75784 -8.08391 -4.85298Q-8.14749 -4.94813 -8.20144 -5.04906Q-8.25538 -5.14998 -8.29917 -5.2557Q-8.34296 -5.36143 -8.37618 -5.47093Q-8.4094 -5.58044 -8.43173 -5.69268Q-8.45405 -5.80491 -8.46527 -5.9188Q-8.47648 -6.03268 -8.47648 -6.14711Q-8.47648 -6.26155 -8.46527 -6.37543Q-8.45405 -6.48932 -8.43173 -6.60155Q-8.4094 -6.71379 -8.37618 -6.8233Q-8.34296 -6.9328 -8.29917 -7.03853Q-8.25538 -7.14425 -8.20144 -7.24517Q-8.14749 -7.34609 -8.08391 -7.44124Q-8.02034 -7.53639 -7.94774 -7.62485Q-7.87515 -7.71331 -7.79423 -7.79423Q-7.71331 -7.87515 -7.62485 -7.94774Q-7.53639 -8.02034 -7.44124 -8.08392Q-7.34609 -8.14749 -7.24517 -8.20144Q-7.14425 -8.25538 -7.03852 -8.29917Q-6.9328 -8.34297 -6.82329 -8.37618Q-6.71379 -8.4094 -6.60155 -8.43173Q-6.48932 -8.45405 -6.37543 -8.46527Q-6.26155 -8.47649 -6.14711 -8.47649Q-6.03268 -8.47649 -5.91879 -8.46527Q-5.80491 -8.45405 -5.69268 -8.43173Q-5.58044 -8.4094 -5.47093 -8.37618Q-5.36143 -8.34297 -5.2557 -8.29917Q-5.14998 -8.25538 -5.04906 -8.20144Q-4.94813 -8.14749 -4.85298 -8.08392Q-4.75783 -8.02034 -4.66938 -7.94774Q-4.58092 -7.87515 -4.5 -7.79423Q-4.52962 -7.90477 -4.54826 -8.01767Q-4.5669 -8.13058 -4.57438 -8.24477Q-4.58187 -8.35896 -4.57812 -8.47333Q-4.57438 -8.5877 -4.55944 -8.70116Q-4.54451 -8.81461 -4.51852 -8.92606Q-4.49253 -9.0375 -4.45575 -9.14586Q-4.41897 -9.25423 -4.37174 -9.35846Q-4.32451 -9.4627 -4.26729 -9.5618Q-4.21008 -9.6609 -4.14342 -9.75392Q-4.07677 -9.84694 -4.00131 -9.93297Q-3.92586 -10.019 -3.84234 -10.0972Q-3.75882 -10.1755 -3.66803 -10.2451Q-3.57724 -10.3148 -3.48007 -10.3752Q-3.38289 -10.4356 -3.28025 -10.4863Q-3.17762 -10.5369 -3.07052 -10.5772Q-2.96342 -10.6175 -2.85289 -10.6471Q-2.74235 -10.6767 -2.62944 -10.6954Q-2.51654 -10.714 -2.40235 -10.7215Q-2.28816 -10.729 -2.17378 -10.7252Q-2.05941 -10.7215 -1.94596 -10.7066Q-1.8325 -10.6916 -1.72106 -10.6656Q-1.60961 -10.6397 -1.50125 -10.6029Q-1.39289 -10.5661 -1.28865 -10.5189Q-1.18442 -10.4716 -1.08531 -10.4144Q-0.986211 -10.3572 -0.893193 -10.2905Q-0.800175 -10.2239 -0.714139 -10.1484Q-0.628102 -10.073 -0.549876 -9.98945Q-0.471649 -9.90593 -0.401986 -9.81514Q-0.332322 -9.72436 -0.271893 -9.62718Q-0.211464 -9.53 -0.16085 -9.42737Q-0.110237 -9.32474 -0.0699276 -9.21764Q-0.0296179 -9.11054 0 -9Q0.0296178 -9.11054 0.0699274 -9.21764Q0.110237 -9.32474 0.16085 -9.42737Q0.211463 -9.53 0.271892 -9.62718Q0.332322 -9.72436 0.401985 -9.81514Q0.471648 -9.90593 0.549875 -9.98945Q0.628102 -10.073 0.714138 -10.1484Q0.800175 -10.2239 0.893193 -10.2905Q0.98621 -10.3572 1.08531 -10.4144Q1.18442 -10.4716 1.28865 -10.5189Q1.39289 -10.5661 1.50125 -10.6029Q1.60961 -10.6397 1.72105 -10.6656Q1.8325 -10.6916 1.94596 -10.7066Q2.05941 -10.7215 2.17378 -10.7252Q2.28816 -10.729 2.40235 -10.7215Q2.51654 -10.714 2.62944 -10.6954Q2.74235 -10.6767 2.85288 -10.6471Q2.96342 -10.6175 3.07052 -10.5772Q3.17762 -10.5369 3.28025 -10.4863Q3.38289 -10.4357 3.48006 -10.3752Q3.57724 -10.3148 3.66803 -10.2451Q3.75882 -10.1755 3.84234 -10.0972Q3.92586 -10.019 4.00131 -9.93298Q4.07677 -9.84694 4.14342 -9.75392Q4.21008 -9.6609 4.26729 -9.5618Q4.32451 -9.4627 4.37174 -9.35846Q4.41897 -9.25423 4.45575 -9.14587Q4.49253 -9.03751 4.51852 -8.92606Q4.54451 -8.81461 4.55944 -8.70116Q4.57438 -8.5877 4.57812 -8.47333Q4.58187 -8.35896 4.57438 -8.24477Q4.5669 -8.13058 4.54826 -8.01767Q4.52962 -7.90477 4.5 -7.79423Q4.58092 -7.87515 4.66938 -7.94774Q4.75783 -8.02034 4.85298 -8.08392Q4.94813 -8.14749 5.04906 -8.20144Q5.14998 -8.25538 5.2557 -8.29917Q5.36143 -8.34297 5.47093 -8.37618Q5.58044 -8.4094 5.69268 -8.43173Q5.80491 -8.45405 5.91879 -8.46527Q6.03268 -8.47649 6.14711 -8.47649Q6.26155 -8.47649 6.37543 -8.46527Q6.48932 -8.45405 6.60155 -8.43173Q6.71379 -8.4094 6.82329 -8.37618Q6.9328 -8.34297 7.03852 -8.29917Q7.14425 -8.25538 7.24517 -8.20144Q7.34609 -8.14749 7.44124 -8.08392Q7.53639 -8.02034 7.62485 -7.94774Q7.71331 -7.87515 7.79423 -7.79423Q7.87514 -7.71331 7.94774 -7.62485Q8.02034 -7.53639 8.08391 -7.44124Q8.14749 -7.3461 8.20144 -7.24517Q8.25538 -7.14425 8.29917 -7.03853Q8.34296 -6.9328 8.37618 -6.8233Q8.4094 -6.71379 8.43173 -6.60155Q8.45405 -6.48932 8.46527 -6.37543Q8.47648 -6.26155 8.47648 -6.14711Q8.47648 -6.03268 8.46527 -5.9188Q8.45405 -5.80491 8.43173 -5.69268Q8.4094 -5.58044 8.37618 -5.47093Q8.34296 -5.36143 8.29917 -5.2557Q8.25538 -5.14998 8.20144 -5.04906Q8.14749 -4.94813 8.08391 -4.85299Q8.02034 -4.75784 7.94774 -4.66938Q7.87515 -4.58092 7.79423 -4.5Q7.90476 -4.52962 8.01767 -4.54826Q8.13058 -4.5669 8.24477 -4.57438Q8.35896 -4.58187 8.47333 -4.57812Q8.5877 -4.57438 8.70116 -4.55944Q8.81461 -4.54451 8.92606 -4.51852Q9.0375 -4.49254 9.14586 -4.45575Q9.25423 -4.41897 9.35846 -4.37174Q9.4627 -4.32451 9.5618 -4.2673Q9.6609 -4.21008 9.75392 -4.14342Q9.84694 -4.07677 9.93297 -4.00131Q10.019 -3.92586 10.0972 -3.84234Q10.1755 -3.75882 10.2451 -3.66803Q10.3148 -3.57724 10.3752 -3.48007Q10.4357 -3.38289 10.4863 -3.28025Q10.5369 -3.17762 10.5772 -3.07052Q10.6175 -2.96342 10.6471 -2.85289Q10.6767 -2.74235 10.6954 -2.62944Q10.714 -2.51654 10.7215 -2.40235Q10.729 -2.28816 10.7252 -2.17378Q10.7215 -2.05941 10.7066 -1.94596Q10.6916 -1.8325 10.6656 -1.72105Q10.6397 -1.60961 10.6029 -1.50125Q10.5661 -1.39289 10.5189 -1.28865Q10.4716 -1.18442 10.4144 -1.08531Q10.3572 -0.98621 10.2905 -0.893192Q10.2239 -0.800174 10.1484 -0.714138Q10.073 -0.628101 9.98946 -0.549875Q9.90593 -0.471648 9.81515 -0.401984Q9.72436 -0.332321 9.62718 -0.271892Q9.53 -0.211462 9.42737 -0.160849Q9.32474 -0.110236 9.21764 -0.0699264Q9.11054 -0.0296167 9 1.19209e-06L9 0Z"/>
	<path fill="#9C1010" transform="matrix(1.42857 0 0 1.42857 55 47.8571)" d="M6 0Q6 0.147292 5.99277 0.294406Q5.98555 0.44152 5.97111 0.588103Q5.95667 0.734685 5.93506 0.880383Q5.91345 1.02608 5.88471 1.17054Q5.85598 1.315 5.82019 1.45788Q5.7844 1.60076 5.74164 1.74171Q5.69888 1.88266 5.64926 2.02134Q5.59964 2.16002 5.54328 2.2961Q5.48691 2.43218 5.42394 2.56533Q5.36096 2.69848 5.29153 2.82838Q5.22209 2.95828 5.14637 3.08462Q5.07065 3.21095 4.98882 3.33342Q4.90699 3.45589 4.81924 3.5742Q4.7315 3.6925 4.63806 3.80636Q4.54462 3.92022 4.44571 4.02935Q4.34679 4.13849 4.24264 4.24264Q4.13849 4.34679 4.02935 4.44571Q3.92022 4.54462 3.80636 4.63806Q3.6925 4.7315 3.5742 4.81924Q3.45589 4.90699 3.33342 4.98882Q3.21095 5.07065 3.08462 5.14637Q2.95828 5.22209 2.82838 5.29153Q2.69848 5.36096 2.56533 5.42394Q2.43218 5.48691 2.2961 5.54328Q2.16002 5.59964 2.02134 5.64926Q1.88266 5.69888 1.74171 5.74164Q1.60076 5.7844 1.45788 5.82019Q1.315 5.85598 1.17054 5.88471Q1.02608 5.91345 0.880383 5.93506Q0.734685 5.95667 0.588103 5.97111Q0.44152 5.98555 0.294406 5.99277Q0.147292 6 0 6Q-0.147292 6 -0.294406 5.99277Q-0.44152 5.98555 -0.588103 5.97111Q-0.734685 5.95667 -0.880383 5.93506Q-1.02608 5.91345 -1.17054 5.88471Q-1.315 5.85598 -1.45788 5.82019Q-1.60076 5.7844 -1.74171 5.74164Q-1.88266 5.69888 -2.02134 5.64926Q-2.16002 5.59964 -2.2961 5.54328Q-2.43218 5.48691 -2.56533 5.42394Q-2.69848 5.36096 -2.82838 5.29153Q-2.95828 5.22209 -3.08462 5.14637Q-3.21095 5.07065 -3.33342 4.98882Q-3.45589 4.90699 -3.5742 4.81924Q-3.6925 4.7315 -3.80636 4.63806Q-3.92022 4.54462 -4.02935 4.44571Q-4.13849 4.34679 -4.24264 4.24264Q-4.34679 4.13849 -4.44571 4.02935Q-4.54462 3.92022 -4.63806 3.80636Q-4.7315 3.6925 -4.81924 3.5742Q-4.90699 3.45589 -4.98882 3.33342Q-5.07065 3.21095 -5.14637 3.08462Q-5.22209 2.95828 -5.29153 2.82838Q-5.36096 2.69848 -5.42394 2.56533Q-5.48691 2.43218 -5.54328 2.2961Q-5.59964 2.16002 -5.64926 2.02134Q-5.69888 1.88266 -5.74164 1.74171Q-5.7844 1.60076 -5.82019 1.45788Q-5.85598 1.315 -5.88471 1.17054Q-5.91345 1.02608 -5.93506 0.880383Q-5.95667 0.734685 -5.97111 0.588103Q-5.98555 0.44152 -5.99277 0.294406Q-6 0.147292 -6 0Q-6 -0.147292 -5.99277 -0.294406Q-5.98555 -0.44152 -5.97111 -0.588103Q-5.95667 -0.734685 -5.93506 -0.880383Q-5.91345 -1.02608 -5.88471 -1.17054Q-5.85598 -1.315 -5.82019 -1.45788Q-5.7844 -1.60076 -5.74164 -1.74171Q-5.69888 -1.88266 -5.64926 -2.02134Q-5.59964 -2.16002 -5.54328 -2.2961Q-5.48691 -2.43218 -5.42394 -2.56533Q-5.36096 -2.69848 -5.29153 -2.82838Q-5.22209 -2.95828 -5.14637 -3.08462Q-5.07065 -3.21095 -4.98882 -3.33342Q-4.90699 -3.45589 -4.81924 -3.5742Q-4.7315 -3.6925 -4.63806 -3.80636Q-4.54462 -3.92022 -4.44571 -4.02935Q-4.34679 -4.13849 -4.24264 -4.24264Q-4.13849 -4.34679 -4.02935 -4.44571Q-3.92022 -4.54462 -3.80636 -4.63806Q-3.6925 -4.7315 -3.5742 -4.81924Q-3.45589 -4.90699 -3.33342 -4.98882Q-3.21095 -5.07065 -3.08462 -5.14637Q-2.95828 -5.22209 -2.82838 -5.29153Q-2.69848 -5.36096 -2.56533 -5.42394Q-2.43218 -5.48691 -2.2961 -5.54328Q-2.16002 -5.59964 -2.02134 -5.64926Q-1.88266 -5.69888 -1.74171 -5.74164Q-1.60076 -5.7844 -1.45788 -5.82019Q-1.315 -5.85598 -1.17054 -5.88471Q-1.02608 -5.91345 -0.880383 -5.93506Q-0.734685 -5.95667 -0.588103 -5.97111Q-0.44152 -5.98555 -0.294406 -5.99277Q-0.147292 -6 0 -6Q0.147292 -6 0.294406 -5.99277Q0.44152 -5.98555 0.588103 -5.97111Q0.734685 -5.95667 0.880383 -5.93506Q1.02608 -5.91345 1.17054 -5.88471Q1.315 -5.85598 1.45788 -5.82019Q1.60076 -5.7844 1.74171 -5.74164Q1.88266 -5.69888 2.02134 -5.64926Q2.16002 -5.59964 2.2961 -5.54328Q2.43218 -5.48691 2.56533 -5.42394Q2.69848 -5.36096 2.82838 -5.29153Q2.95828 -5.22209 3.08462 -5.14637Q3.21095 -5.07065 3.33342 -4.98882Q3.45589 -4.90699 3.5742 -4.81924Q3.6925 -4.7315 3.80636 -4.63806Q3.92022 -4.54462 4.02935 -4.44571Q4.13849 -4.34679 4.24264 -4.24264Q4.34679 -4.13849 4.44571 -4.02935Q4.54462 -3.92022 4.63806 -3.80636Q4.7315 -3.6925 4.81924 -3.5742Q4.90699 -3.45589 4.98882 -3.33342Q5.07065 -3.21095 5.14637 -3.08462Q5.22209 -2.95828 5.29153 -2.82838Q5.36096 -2.69848 5.42394 -2.56533Q5.48691 -2.43218 5.54328 -2.2961Q5.59964 -2.16002 5.64926 -2.02134Q5.69888 -1.88266 5.74164 -1.74171Q5.7844 -1.60076 5.82019 -1.45788Q5.85598 -1.315 5.88471 -1.17054Q5.91345 -1.02608 5.93506 -0.880383Q5.95667 -0.734685 5.97111 -0.588103Q5.98555 -0.44152 5.99277 -0.294406Q6 -0.147292 6 0"/>
	<path fill="none" stroke="black" stroke-width="2.3999999" stroke-linejoin="round" transform="translate(55 79.2857)" d="M-10.6093 7.61066Q-11.7519 7.61066 -12.8798 7.53742Q-14.0077 7.46906 -15.2284 7.21027L-15.2284 -6.23211Q-14.2714 -6.40789 -13.1337 -6.49578Q-11.9911 -6.58855 -11.0097 -6.58855Q-9.69131 -6.58855 -8.58291 -6.39813Q-7.46963 -6.2077 -6.66885 -5.74871Q-5.86806 -5.28973 -5.41885 -4.53777Q-4.96963 -3.7907 -4.96963 -2.69207Q-4.96963 -1.03191 -6.57119 -0.0700002Q-5.24795 0.428047 -4.76943 1.2923Q-4.29092 2.15168 -4.29092 3.23078Q-4.29092 5.40852 -5.88271 6.51203Q-7.46963 7.61066 -10.6093 7.61066ZM-12.1913 1.38996L-12.1913 4.96906Q-11.8495 5.00812 -11.4491 5.03254Q-11.0487 5.05207 -10.5702 5.05207Q-9.16885 5.05207 -8.30947 4.65168Q-7.4501 4.25129 -7.4501 3.17219Q-7.4501 2.21027 -8.17275 1.80012Q-8.89053 1.38996 -10.2284 1.38996L-12.1913 1.38996ZM-12.1913 -0.987969L-10.6679 -0.987969Q-9.23232 -0.987969 -8.61221 -1.35906Q-7.99209 -1.73016 -7.99209 -2.55047Q-7.99209 -3.39031 -8.63174 -3.72723Q-9.27139 -4.06902 -10.5116 -4.06902Q-10.912 -4.06902 -11.371 -4.05926Q-11.83 -4.04949 -12.1913 -4.01043L-12.1913 -0.987969ZM6.99087 7.06867Q6.22915 7.2884 5.02798 7.47883Q3.83169 7.66926 2.50845 7.66926Q1.17056 7.66926 0.277 7.31281Q-0.611671 6.95148 -1.13413 6.30207Q-1.65171 5.64777 -1.87144 4.74934Q-2.09116 3.8509 -2.09116 2.7718L-2.09116 -3.08758L0.892235 -3.08758L0.892235 2.41047Q0.892235 3.8509 1.26821 4.49055Q1.64907 5.1302 2.68911 5.1302Q3.01138 5.1302 3.36782 5.1009Q3.72915 5.0716 4.01235 5.02766L4.01235 -3.08758L6.99087 -3.08758L6.99087 7.06867ZM16.1292 -0.45086Q15.7289 -0.548516 15.1869 -0.655938Q14.6498 -0.768242 14.0296 -0.768242Q13.7513 -0.768242 13.3607 -0.719414Q12.9701 -0.670586 12.7699 -0.611992L12.7699 7.43L9.79136 7.43L9.79136 -2.53094Q10.5921 -2.80926 11.681 -3.05828Q12.7699 -3.31219 14.1078 -3.31219Q14.3519 -3.31219 14.6888 -3.27801Q15.0306 -3.24871 15.3675 -3.19988Q15.7093 -3.15105 16.0462 -3.07781Q16.388 -3.00945 16.6322 -2.9118L16.1292 -0.45086Z"/>
	<path fill="white" transform="translate(55 79.2857)" d="M-10.6093 7.61066Q-11.7519 7.61066 -12.8798 7.53742Q-14.0077 7.46906 -15.2284 7.21027L-15.2284 -6.23211Q-14.2714 -6.40789 -13.1337 -6.49578Q-11.9911 -6.58855 -11.0097 -6.58855Q-9.69131 -6.58855 -8.58291 -6.39813Q-7.46963 -6.2077 -6.66885 -5.74871Q-5.86806 -5.28973 -5.41885 -4.53777Q-4.96963 -3.7907 -4.96963 -2.69207Q-4.96963 -1.03191 -6.57119 -0.0700002Q-5.24795 0.428047 -4.76943 1.2923Q-4.29092 2.15168 -4.29092 3.23078Q-4.29092 5.40852 -5.88271 6.51203Q-7.46963 7.61066 -10.6093 7.61066ZM-12.1913 1.38996L-12.1913 4.96906Q-11.8495 5.00812 -11.4491 5.03254Q-11.0487 5.05207 -10.5702 5.05207Q-9.16885 5.05207 -8.30947 4.65168Q-7.4501 4.25129 -7.4501 3.17219Q-7.4501 2.21027 -8.17275 1.80012Q-8.89053 1.38996 -10.2284 1.38996L-12.1913 1.38996ZM-12.1913 -0.987969L-10.6679 -0.987969Q-9.23232 -0.987969 -8.61221 -1.35906Q-7.99209 -1.73016 -7.99209 -2.55047Q-7.99209 -3.39031 -8.63174 -3.72723Q-9.27139 -4.06902 -10.5116 -4.06902Q-10.912 -4.06902 -11.371 -4.05926Q-11.83 -4.04949 -12.1913 -4.01043L-12.1913 -0.987969ZM6.99087 7.06867Q6.22915 7.2884 5.02798 7.47883Q3.83169 7.66926 2.50845 7.66926Q1.17056 7.66926 0.277 7.31281Q-0.611671 6.95148 -1.13413 6.30207Q-1.65171 5.64777 -1.87144 4.74934Q-2.09116 3.8509 -2.09116 2.7718L-2.09116 -3.08758L0.892235 -3.08758L0.892235 2.41047Q0.892235 3.8509 1.26821 4.49055Q1.64907 5.1302 2.68911 5.1302Q3.01138 5.1302 3.36782 5.1009Q3.72915 5.0716 4.01235 5.02766L4.01235 -3.08758L6.99087 -3.08758L6.99087 7.06867ZM16.1292 -0.45086Q15.7289 -0.548516 15.1869 -0.655938Q14.6498 -0.768242 14.0296 -0.768242Q13.7513 -0.768242 13.3607 -0.719414Q12.9701 -0.670586 12.7699 -0.611992L12.7699 7.43L9.79136 7.43L9.79136 -2.53094Q10.5921 -2.80926 11.681 -3.05828Q12.7699 -3.31219 14.1078 -3.31219Q14.3519 -3.31219 14.6888 -3.27801Q15.0306 -3.24871 15.3675 -3.19988Q15.7093 -3.15105 16.0462 -3.07781Q16.388 -3.00945 16.6322 -2.9118L16.1292 -0.45086Z"/>
</svg>
