<?xml version="1.0" encoding="utf-8" ?>
<svg xmlns="http://www.w3.org/2000/svg" xmlns:xlink="http://www.w3.org/1999/xlink" width="110" height="110">
	<path fill="#886D35" transform="matrix(0.0837054 0 0 0.0837054 33.5714 26.4286)" d="M80.6053 81.7553Q78.1563 81.7955 77.4583 82.0558Q79.1696 81.4175 80.8848 79.6825Q82.3407 78.2094 83.0689 76.6052Q83.2184 76.2759 83.2593 76.127Q83.1767 76.4275 83.1031 76.9989Q82.2738 83.437 85.5084 94.4878Q89.9284 109.588 100.402 126.265Q112.142 144.958 129.212 161.83Q141.642 174.117 160.691 182.348Q173.936 188.07 202.505 195.809Q222.208 201.146 231.767 204.451Q233.153 204.93 234.513 205.477Q235.874 206.023 237.206 206.636Q238.539 207.248 239.839 207.926Q241.14 208.603 242.406 209.343Q243.671 210.084 244.899 210.885Q246.127 211.687 247.314 212.547Q248.502 213.408 249.645 214.326Q250.788 215.244 251.886 216.217Q252.983 217.19 254.031 218.216Q255.079 219.241 256.075 220.317Q257.071 221.393 258.014 222.517Q258.956 223.64 259.842 224.808Q260.728 225.977 261.556 227.187Q262.384 228.397 263.151 229.647Q263.919 230.897 264.624 232.182Q265.329 233.468 265.97 234.787Q266.611 236.105 267.187 237.454Q267.763 238.803 268.272 240.178Q268.78 241.553 269.221 242.952Q269.662 244.35 270.034 245.769Q270.405 247.187 270.707 248.622Q271.008 250.057 271.239 251.506Q271.47 252.954 271.629 254.411Q271.789 255.869 271.876 257.333Q271.964 258.797 271.98 260.263Q271.996 261.729 271.939 263.194Q271.883 264.66 271.755 266.12Q271.627 267.581 271.428 269.034Q271.228 270.487 270.958 271.928Q270.687 273.369 270.346 274.795Q270.005 276.221 269.595 277.629Q269.184 279.037 268.705 280.423Q268.103 282.163 267.396 283.863Q266.688 285.563 265.877 287.216Q265.066 288.869 264.154 290.469Q263.243 292.07 262.235 293.61Q261.227 295.151 260.126 296.627Q259.024 298.103 257.834 299.508Q256.644 300.913 255.37 302.243Q254.096 303.572 252.742 304.82Q192.668 360.213 113.986 410.514L81.812 360.186L123.801 317.701L185.396 378.577L143.406 421.062L92.7075 389.475Q145.341 304.996 206.1 239.758Q206.998 238.794 207.938 237.87Q208.878 236.947 209.857 236.066Q210.836 235.184 211.854 234.347Q212.871 233.51 213.924 232.718Q214.978 231.927 216.065 231.182Q217.152 230.438 218.271 229.742Q219.39 229.046 220.538 228.401Q221.686 227.755 222.862 227.161Q224.038 226.566 225.239 226.024Q226.44 225.482 227.664 224.994Q228.887 224.505 230.131 224.071Q231.375 223.637 232.637 223.258Q233.899 222.879 235.176 222.556Q236.454 222.234 237.744 221.967Q239.034 221.701 240.335 221.492Q241.636 221.283 242.945 221.132Q244.254 220.98 245.568 220.887Q246.882 220.793 248.199 220.757Q249.516 220.722 250.834 220.744Q252.151 220.767 253.466 220.848Q254.781 220.928 256.091 221.067Q257.401 221.205 258.704 221.401Q260.007 221.597 261.3 221.851Q262.593 222.104 263.874 222.414Q265.154 222.724 266.42 223.091Q267.685 223.457 268.934 223.879Q270.182 224.301 271.41 224.777Q272.638 225.253 273.845 225.784Q275.051 226.314 276.233 226.896Q277.414 227.479 278.569 228.113Q279.724 228.748 280.85 229.432Q281.975 230.117 283.07 230.85Q336.702 266.798 385.61 335.999Q414.462 376.822 459.67 458.513L407.406 487.436L364.923 445.444L450.423 358.944L492.906 400.936L464.593 453.533Q423.455 431.388 402.129 419.177Q366.826 398.961 340.49 380.955Q270.424 333.048 234.252 279.825Q233.514 278.739 232.824 277.621Q232.134 276.503 231.494 275.356Q230.854 274.209 230.265 273.035Q229.676 271.861 229.139 270.662Q228.602 269.463 228.119 268.242Q227.635 267.02 227.206 265.779Q226.776 264.538 226.402 263.278Q226.027 262.019 225.708 260.745Q225.39 259.471 225.127 258.184Q224.865 256.897 224.659 255.599Q224.453 254.302 224.305 252.997Q224.157 251.691 224.066 250.381Q223.975 249.071 223.942 247.757Q223.909 246.444 223.933 245.131Q223.958 243.818 224.04 242.507Q224.122 241.196 224.262 239.889Q224.402 238.583 224.599 237.285Q224.796 235.986 225.05 234.697Q225.304 233.408 225.615 232.132Q225.925 230.856 226.292 229.594Q226.658 228.333 227.079 227.088Q227.5 225.844 227.976 224.62Q228.452 223.395 228.981 222.193Q229.51 220.991 230.091 219.813Q230.672 218.635 231.305 217.484Q231.938 216.332 232.62 215.21Q233.303 214.088 234.034 212.996Q234.765 211.905 235.544 210.847Q236.322 209.789 237.147 208.766Q237.971 207.744 238.839 206.758Q239.708 205.773 240.619 204.826Q241.53 203.88 242.481 202.974Q306.542 142.022 390.137 88.5779L422.312 138.905L380.322 181.389L318.73 120.514L360.72 78.03L411.418 109.618Q362.399 188.291 308.315 248.508Q307.336 249.599 306.303 250.64Q305.271 251.682 304.189 252.672Q303.107 253.661 301.978 254.597Q300.848 255.532 299.675 256.411Q298.501 257.29 297.285 258.11Q296.07 258.93 294.815 259.69Q293.561 260.449 292.271 261.146Q290.981 261.843 289.658 262.476Q288.335 263.109 286.983 263.676Q285.631 264.244 284.253 264.744Q282.874 265.244 281.473 265.676Q280.072 266.108 278.651 266.471Q277.23 266.834 275.793 267.126Q274.356 267.419 272.907 267.641Q271.457 267.862 269.999 268.013Q268.54 268.163 267.076 268.242Q265.611 268.32 264.145 268.327Q262.679 268.333 261.214 268.268Q259.749 268.203 258.289 268.066Q256.829 267.928 255.378 267.72Q253.926 267.511 252.487 267.232Q251.047 266.952 249.623 266.602Q248.199 266.252 246.794 265.833Q245.389 265.414 244.006 264.926Q242.623 264.438 241.266 263.883Q239.909 263.328 238.58 262.707Q237.252 262.086 235.955 261.401Q234.659 260.715 233.398 259.967Q232.137 259.219 230.914 258.41Q229.691 257.601 228.509 256.733Q227.327 255.864 226.19 254.939Q225.052 254.014 223.961 253.034Q222.565 251.781 221.251 250.442Q219.937 249.104 218.709 247.685Q217.482 246.267 216.345 244.774Q215.209 243.282 214.169 241.721Q213.128 240.159 212.188 238.536Q211.248 236.913 210.411 235.234Q209.575 233.555 208.845 231.827Q208.115 230.099 207.496 228.328Q204.372 219.404 199.148 201.028Q190.989 172.329 185.017 158.983Q176.375 139.669 163.603 127.044Q140.284 103.996 114.77 91.5305Q94.3071 81.5327 80.603 81.7573Q79.1368 81.7813 77.6713 81.7334Q76.2057 81.6855 74.7442 81.5657Q73.2827 81.4459 71.8289 81.2545Q70.3751 81.0632 68.9324 80.8007Q67.4897 80.5382 66.0616 80.2053Q64.6335 79.8724 63.2235 79.4697Q61.8135 79.0671 60.4249 78.5958Q59.0364 78.1245 57.6726 77.5856Q56.3088 77.0468 54.9731 76.4416Q53.6375 75.8365 52.3331 75.1665Q51.0287 74.4966 49.7588 73.7634Q48.4888 73.0302 47.2564 72.2357Q46.024 71.4411 44.832 70.587Q43.6401 69.7329 42.4914 68.8214Q41.3428 67.9098 40.2403 66.943Q39.1378 65.9762 38.0841 64.9564Q37.0303 63.9367 36.0279 62.8664Q35.0255 61.7962 34.0768 60.6781Q33.1281 59.56 32.2354 58.3967Q31.3427 57.2333 30.5081 56.0276Q29.6736 54.8219 28.8992 53.5767Q28.1248 52.3314 27.4125 51.0497Q26.7001 49.768 26.0515 48.4529Q25.4029 47.1377 24.8197 45.7924Q24.2364 44.447 23.7198 43.0746Q23.2032 41.7022 22.7546 40.3062Q22.306 38.9101 21.9265 37.4937Q21.5469 36.0773 21.2373 34.644Q20.9277 33.2107 20.6888 31.7639Q20.4499 30.3171 20.2822 28.8604Q20.1146 27.4036 20.0187 25.9404Q19.9227 24.4772 19.8987 23.011Q19.8693 21.2186 19.9475 19.4276Q20.0256 17.6366 20.2111 15.8535Q20.3965 14.0705 20.6885 12.3017Q20.9805 10.533 21.3781 8.78497Q21.7756 7.03693 22.2773 5.31588Q22.779 3.59483 23.383 1.90696Q23.9869 0.219085 24.6911 -1.42953Q25.3952 -3.07814 26.1969 -4.68156L26.1979 -4.68356L79.625 22.03L80.6053 81.7553ZM78.6447 -37.6953Q80.4372 -37.7247 82.2283 -37.6466Q84.0193 -37.5684 85.8025 -37.383Q87.5856 -37.1976 89.3545 -36.9056Q91.1233 -36.6136 92.8714 -36.2161Q94.6195 -35.8185 96.3407 -35.3168Q98.0618 -34.8151 99.7497 -34.2111Q101.438 -33.6071 103.086 -32.903Q104.735 -32.1989 106.339 -31.3971Q107.65 -30.7413 108.928 -30.022Q110.206 -29.3026 111.447 -28.5215Q112.688 -27.7403 113.889 -26.8992Q115.09 -26.058 116.248 -25.159Q117.407 -24.2599 118.52 -23.3051Q119.633 -22.3503 120.697 -21.342Q121.762 -20.3338 122.776 -19.2745Q123.79 -18.2152 124.751 -17.1074Q125.712 -15.9996 126.617 -14.846Q127.522 -13.6924 128.37 -12.4958Q129.217 -11.2992 130.005 -10.0625Q130.793 -8.82569 131.519 -7.55177Q132.245 -6.27784 132.908 -4.96981Q133.571 -3.66179 134.169 -2.32282Q134.766 -0.983845 135.298 0.382848Q135.829 1.74954 136.293 3.14066Q136.757 4.53178 137.152 5.94398Q137.546 7.35618 137.872 8.78606Q138.197 10.2159 138.451 11.66Q138.706 13.1041 138.889 14.559Q139.073 16.0139 139.184 17.476Q139.296 18.9381 139.336 20.4039Q139.376 21.8697 139.344 23.3357Q139.312 24.8018 139.208 26.2644Q139.104 27.7271 138.928 29.1829Q138.753 30.6388 138.506 32.0842Q138.259 33.5297 137.942 34.9613Q137.624 36.3929 137.237 37.8072Q136.85 39.2214 136.394 40.615Q135.937 42.0086 135.413 43.3782Q134.889 44.7477 134.299 46.0898Q133.708 47.432 133.052 48.7436L133.051 48.7456L79.624 22.032L78.645 -37.6933Q121.003 -38.3876 167.214 -15.8095Q210.331 5.25647 247.587 42.0802Q276.281 70.4427 294.065 110.19Q303.55 131.387 314.061 168.358Q318.309 183.303 320.254 188.86L263.875 208.594L219.435 168.68Q266.532 116.241 310.022 46.4418Q311.78 43.6209 313.84 41.0125Q315.899 38.404 318.236 36.0402Q319.266 34.9972 320.347 34.0061Q321.428 33.015 322.556 32.0782Q323.684 31.1413 324.857 30.2609Q326.029 29.3805 327.244 28.5587Q328.458 27.7369 329.711 26.9757Q330.965 26.2145 332.254 25.5157Q333.543 24.8169 334.865 24.1822Q336.187 23.5475 337.538 22.9784Q338.89 22.4093 340.267 21.9072Q341.645 21.4051 343.046 20.9713Q344.447 20.5374 345.867 20.1728Q347.287 19.8081 348.724 19.5137Q350.16 19.2192 351.609 18.9955Q353.059 18.7719 354.517 18.6196Q355.976 18.4673 357.44 18.3868Q358.904 18.3063 360.37 18.2977Q361.837 18.2891 363.302 18.3525Q364.767 18.4159 366.227 18.551Q367.687 18.6862 369.139 18.8929Q370.59 19.0995 372.03 19.3772Q373.47 19.6548 374.894 20.0028Q376.319 20.3508 377.725 20.7682Q379.13 21.1857 380.514 21.6716Q381.897 22.1575 383.255 22.7107Q384.613 23.2639 385.943 23.8831Q387.272 24.5023 388.569 25.1859Q389.866 25.8696 391.129 26.6161Q392.391 27.3626 393.615 28.1701Q394.839 28.9776 396.022 29.8442Q397.204 30.7108 398.343 31.6344Q399.482 32.558 400.575 33.5364Q401.667 34.5148 402.71 35.5456L464.302 96.4205Q466.667 98.7578 468.757 101.343Q470.848 103.928 472.639 106.73Q473.429 107.965 474.157 109.238Q474.885 110.51 475.55 111.817Q476.215 113.124 476.815 114.462Q477.416 115.8 477.949 117.166Q478.483 118.532 478.949 119.922Q479.415 121.313 479.812 122.724Q480.209 124.136 480.537 125.565Q480.864 126.994 481.121 128.438Q481.378 129.882 481.564 131.336Q481.75 132.791 481.864 134.253Q481.978 135.715 482.02 137.181Q482.063 138.646 482.033 140.112Q482.003 141.578 481.902 143.041Q481.8 144.504 481.627 145.96Q481.454 147.416 481.21 148.862Q480.965 150.308 480.65 151.74Q480.335 153.172 479.95 154.587Q479.565 156.002 479.111 157.396Q478.657 158.791 478.135 160.161Q477.613 161.532 477.025 162.875Q476.437 164.218 475.783 165.53Q475.129 166.843 474.412 168.122Q473.695 169.401 472.916 170.643Q472.137 171.886 471.297 173.088Q470.458 174.291 469.561 175.451Q468.664 176.61 467.711 177.725Q466.758 178.839 465.752 179.906Q464.745 180.972 463.687 181.988Q462.63 183.004 461.524 183.966Q460.417 184.929 459.265 185.836Q458.113 186.743 456.918 187.593Q455.723 188.442 454.487 189.232Q380.57 236.489 324.831 289.524L283.656 246.249L333.06 212.673Q356.52 247.193 407.92 282.336Q442.388 305.904 521.219 348.339Q524.983 350.365 528.42 352.907Q531.857 355.448 534.898 358.453Q535.94 359.484 536.932 360.565Q537.923 361.646 538.859 362.774Q539.796 363.902 540.677 365.074Q541.557 366.247 542.379 367.462Q543.2 368.676 543.961 369.93Q544.723 371.183 545.421 372.472Q546.12 373.761 546.755 375.083Q547.39 376.405 547.958 377.757Q548.528 379.108 549.03 380.486Q549.532 381.863 549.965 383.264Q550.399 384.665 550.764 386.085Q551.128 387.506 551.423 388.942Q551.717 390.379 551.941 391.828Q552.164 393.277 552.317 394.736Q552.469 396.194 552.549 397.658Q552.63 399.122 552.638 400.589Q552.647 402.055 552.583 403.52Q552.52 404.985 552.385 406.445Q552.249 407.905 552.043 409.357Q551.836 410.809 551.558 412.249Q551.281 413.688 550.933 415.113Q550.585 416.537 550.167 417.943Q549.75 419.349 549.264 420.732Q548.778 422.116 548.224 423.474Q547.671 424.832 547.052 426.161Q546.432 427.49 545.749 428.787Q545.065 430.085 544.319 431.347Q543.572 432.609 542.764 433.833Q541.957 435.057 541.09 436.24Q540.224 437.422 539.3 438.561Q538.376 439.7 537.398 440.792Q536.419 441.885 535.389 442.928L449.889 529.428Q446.884 532.468 443.476 535.049Q440.069 537.63 436.329 539.7Q435.046 540.41 433.73 541.056Q432.413 541.702 431.067 542.283Q429.721 542.864 428.347 543.378Q426.974 543.892 425.577 544.338Q424.18 544.784 422.763 545.161Q421.346 545.538 419.912 545.845Q418.478 546.152 417.031 546.389Q415.584 546.625 414.127 546.79Q412.67 546.955 411.206 547.048Q409.743 547.141 408.277 547.163Q406.811 547.184 405.345 547.134Q403.88 547.083 402.418 546.961Q400.957 546.838 399.504 546.644Q398.05 546.45 396.608 546.185Q395.166 545.92 393.738 545.585Q392.311 545.249 390.901 544.844Q389.492 544.439 388.104 543.965Q386.717 543.491 385.354 542.95Q383.991 542.408 382.657 541.801Q381.322 541.193 380.019 540.521Q378.716 539.849 377.447 539.113Q376.178 538.378 374.948 537.581Q373.717 536.784 372.526 535.928Q371.336 535.072 370.189 534.158Q369.042 533.244 367.941 532.276Q366.84 531.307 365.788 530.285Q364.737 529.263 363.736 528.191Q362.736 527.119 361.789 526Q360.842 524.88 359.952 523.715Q359.061 522.55 358.229 521.343Q357.396 520.135 356.624 518.889Q355.852 517.642 355.142 516.359Q313.113 440.412 288.05 404.95Q251.869 353.758 216.554 330.088L249.812 280.469L293.524 321.18Q240.633 377.969 194.104 452.649Q192.347 455.47 190.287 458.079Q188.227 460.687 185.891 463.052Q184.86 464.094 183.779 465.086Q182.699 466.077 181.57 467.014Q180.442 467.95 179.27 468.831Q178.097 469.711 176.883 470.533Q175.668 471.355 174.415 472.116Q173.162 472.877 171.872 473.576Q170.583 474.275 169.261 474.91Q167.94 475.544 166.588 476.113Q165.237 476.682 163.859 477.185Q162.481 477.687 161.08 478.121Q159.68 478.554 158.259 478.919Q156.839 479.284 155.403 479.578Q153.966 479.873 152.517 480.096Q151.068 480.32 149.609 480.472Q148.151 480.625 146.687 480.705Q145.223 480.786 143.756 480.794Q142.29 480.803 140.825 480.74Q139.36 480.676 137.9 480.541Q136.44 480.406 134.988 480.199Q133.536 479.992 132.096 479.715Q130.656 479.437 129.232 479.089Q127.807 478.741 126.402 478.324Q124.996 477.906 123.613 477.421Q122.229 476.935 120.871 476.381Q119.513 475.828 118.184 475.209Q116.854 474.59 115.557 473.906Q114.26 473.223 112.998 472.476Q111.736 471.73 110.512 470.922Q109.288 470.115 108.105 469.248Q106.922 468.381 105.783 467.458Q104.644 466.534 103.552 465.556Q102.459 464.578 101.417 463.547L39.8225 402.671Q37.4574 400.333 35.3664 397.748Q33.2753 395.162 31.4842 392.36Q30.6944 391.125 29.9661 389.852Q29.2378 388.579 28.5729 387.272Q27.908 385.965 27.308 384.627Q26.708 383.289 26.1743 381.924Q25.6407 380.558 25.1747 379.167Q24.7088 377.777 24.3116 376.365Q23.9144 374.954 23.587 373.525Q23.2595 372.095 23.0026 370.652Q22.7457 369.208 22.5599 367.753Q22.3742 366.299 22.26 364.837Q22.1458 363.375 22.1035 361.909Q22.0612 360.443 22.0909 358.977Q22.1206 357.511 22.2221 356.048Q22.3237 354.586 22.4969 353.129Q22.6702 351.673 22.9146 350.228Q23.1591 348.782 23.4742 347.35Q23.7893 345.917 24.1743 344.503Q24.5594 343.088 25.0133 341.693Q25.4673 340.299 25.9891 338.929Q26.511 337.558 27.0994 336.215Q27.6879 334.872 28.3415 333.559Q28.9952 332.247 29.7125 330.968Q30.4297 329.689 31.2089 328.446Q31.988 327.204 32.8272 326.002Q33.6664 324.799 34.5636 323.639Q35.4607 322.479 36.4137 321.365Q37.3667 320.251 38.3733 319.184Q39.3798 318.118 40.4375 317.102Q41.4951 316.086 42.6013 315.124Q43.7075 314.161 44.8596 313.254Q46.0118 312.347 47.207 311.498Q48.4022 310.648 49.6377 309.858Q119.435 265.237 171.758 216.992L212.25 260.906L192.733 317.361Q187.032 315.39 171.269 311.12Q134.423 301.139 113.307 292.016Q73.6357 274.875 45.2284 246.796Q18.3263 220.205 -0.766739 189.803Q-20.066 159.074 -29.1474 128.048Q-39.41 92.9876 -35.3847 61.737Q-30.2951 22.2229 -4.07482 -4.30648Q28.1126 -36.8659 78.6447 -37.6953ZM97.7786 9.37239Q128.177 9.97484 161.539 27.9456Q190.307 43.4421 216.023 68.862Q252.985 105.394 268.312 145.896Q277.614 170.477 276.85 192.953Q275.688 227.18 253.108 250.023Q230.531 272.866 196.315 274.427Q173.849 275.451 149.16 266.437Q108.471 251.581 71.5089 215.045Q34.5511 178.516 19.2111 138.01Q9.90195 113.429 10.655 90.9549Q11.8026 56.7071 34.3916 33.8531Q59.3448 8.60793 97.7829 9.37248L97.7786 9.37239ZM95.4071 128.816Q99.532 128.898 104.428 127.254Q112.837 124.433 119.358 117.835Q129.636 107.436 130.055 94.9558Q130.11 93.3107 129.974 92.6275Q130.198 93.7551 130.934 95.6991Q137.052 111.854 155.493 130.081Q173.922 148.297 190.133 154.216Q192.081 154.927 193.207 155.137Q192.519 155.009 190.873 155.084Q178.409 155.652 168.144 166.039Q157.876 176.426 157.453 188.897Q157.396 190.547 157.533 191.237Q157.311 190.116 156.578 188.179Q150.473 172.046 132.039 153.826Q118.534 140.477 104.883 133.124Q99.824 130.399 95.9522 129.187Q94.8854 128.853 94.2651 128.741Q94.5882 128.799 95.4114 128.816L95.4071 128.816Z"/>
	<path fill="#A88642" transform="matrix(0.0837054 0 0 0.0837054 33.5714 26.4286)" d="M79.625 22.03C62.931 22.304 48.615 27.36 38.405 37.688C5.743 70.735 27.53 145.313 87.22 204.313C127.212 243.843 178.788 249.338 212.25 260.906C174.06 296.12 131.376 328.5 81.812 360.186L143.406 421.062C176.673 367.667 211.458 321.65 249.812 280.469C316.278 325.019 362.862 406.945 407.406 487.436L492.906 400.936C410.7 356.684 328.326 311.976 283.656 246.249C324.87 207.035 370.376 172.109 422.312 138.905L360.72 78.03C330.25 126.933 298.794 169.715 263.875 208.594C252.171 175.156 245.613 124.119 205.595 84.562C164.556 44 116.35 21.43 79.624 22.032L79.625 22.03ZM96.595 69.094C117.535 69.509 147.485 85.104 174.031 111.344C210.965 147.849 227.336 191.126 210.626 208.031C193.916 224.938 150.432 209.068 113.501 172.563C76.57 136.06 60.165 92.75 76.875 75.844C81.575 71.089 88.4 68.931 96.595 69.094Z"/>
	<path fill="none" stroke="black" stroke-width="2.3999999" stroke-linejoin="round" transform="translate(55 79.2857)" d="M-13.9011 7.43Q-14.1208 6.71223 -14.3893 5.95051Q-14.6579 5.18879 -14.9216 4.43195L-20.322 4.43195Q-20.5807 5.18879 -20.8493 5.95051Q-21.1179 6.71223 -21.3376 7.43L-24.5798 7.43Q-23.7985 5.18879 -23.1003 3.28937Q-22.402 1.38996 -21.7331 -0.289727Q-21.0593 -1.96941 -20.4099 -3.4782Q-19.7604 -4.99188 -19.0622 -6.4323L-16.0788 -6.4323Q-15.4001 -4.99188 -14.7409 -3.4782Q-14.0817 -1.96941 -13.4128 -0.289727Q-12.739 1.38996 -12.0407 3.28937Q-11.3376 5.18879 -10.5612 7.43L-13.9011 7.43ZM-17.6413 -3.28777Q-17.739 -2.98992 -17.9391 -2.46746Q-18.1393 -1.94988 -18.403 -1.26629Q-18.6618 -0.587578 -18.9743 0.232734Q-19.2819 1.04816 -19.5993 1.95148L-15.6589 1.95148Q-15.9811 1.04816 -16.2839 0.232734Q-16.5817 -0.587578 -16.8503 -1.26629Q-17.1188 -1.94988 -17.319 -2.46746Q-17.5192 -2.98992 -17.6413 -3.28777ZM-8.95862 -2.73113Q-8.20178 -2.95086 -7.00061 -3.14129Q-5.79944 -3.33172 -4.48108 -3.33172Q-3.13831 -3.33172 -2.24963 -2.98016Q-1.36096 -2.62859 -0.843384 -1.98895Q-0.320923 -1.3493 -0.101196 -0.470391Q0.11853 0.408515 0.11853 1.48762L0.11853 7.43L-2.85999 7.43L-2.85999 1.84895Q-2.85999 0.408515 -3.24084 -0.187188Q-3.6217 -0.787774 -4.66174 -0.787774Q-4.97913 -0.787774 -5.34045 -0.758477Q-5.70178 -0.72918 -5.9801 -0.690117L-5.9801 7.43L-8.95862 7.43L-8.95862 -2.73113ZM5.79988 0.71125Q6.23933 0.227851 6.70808 -0.289727Q7.18172 -0.812188 7.62117 -1.32Q8.06062 -1.82781 8.45125 -2.2868Q8.84187 -2.75066 9.12019 -3.08758L12.6602 -3.08758Q11.6007 -1.87176 10.5899 -0.758477Q9.57918 0.349922 8.37801 1.53156Q8.97859 2.06867 9.61824 2.82062Q10.2579 3.5677 10.8585 4.36848Q11.4591 5.16926 11.9571 5.97004Q12.46 6.77082 12.8018 7.43L9.37898 7.43Q9.0616 6.91242 8.65144 6.28254Q8.24129 5.64777 7.77742 5.01789Q7.31844 4.38801 6.80574 3.81184Q6.29793 3.23078 5.79988 2.83039L5.79988 7.43L2.82137 7.43L2.82137 -7.60906L5.79988 -8.08758L5.79988 0.71125ZM14.4014 7.43L14.4014 -7.60906L17.3799 -8.08758L17.3799 -3.04852Q17.6777 -3.15105 18.1465 -3.23895Q18.6201 -3.33172 19.0596 -3.33172Q20.3389 -3.33172 21.1885 -2.98016Q22.0381 -2.62859 22.5459 -1.98895Q23.0586 -1.3493 23.2685 -0.470391Q23.4785 0.408515 23.4785 1.48762L23.4785 7.43L20.5 7.43L20.5 1.84895Q20.5 0.408515 20.1289 -0.187188Q19.7578 -0.787774 18.7617 -0.787774Q18.3613 -0.787774 18.0098 -0.719414Q17.6582 -0.651055 17.3799 -0.568047L17.3799 7.43L14.4014 7.43Z"/>
	<path fill="white" transform="translate(55 79.2857)" d="M-13.9011 7.43Q-14.1208 6.71223 -14.3893 5.95051Q-14.6579 5.18879 -14.9216 4.43195L-20.322 4.43195Q-20.5807 5.18879 -20.8493 5.95051Q-21.1179 6.71223 -21.3376 7.43L-24.5798 7.43Q-23.7985 5.18879 -23.1003 3.28937Q-22.402 1.38996 -21.7331 -0.289727Q-21.0593 -1.96941 -20.4099 -3.4782Q-19.7604 -4.99188 -19.0622 -6.4323L-16.0788 -6.4323Q-15.4001 -4.99188 -14.7409 -3.4782Q-14.0817 -1.96941 -13.4128 -0.289727Q-12.739 1.38996 -12.0407 3.28937Q-11.3376 5.18879 -10.5612 7.43L-13.9011 7.43ZM-17.6413 -3.28777Q-17.739 -2.98992 -17.9391 -2.46746Q-18.1393 -1.94988 -18.403 -1.26629Q-18.6618 -0.587578 -18.9743 0.232734Q-19.2819 1.04816 -19.5993 1.95148L-15.6589 1.95148Q-15.9811 1.04816 -16.2839 0.232734Q-16.5817 -0.587578 -16.8503 -1.26629Q-17.1188 -1.94988 -17.319 -2.46746Q-17.5192 -2.98992 -17.6413 -3.28777ZM-8.95862 -2.73113Q-8.20178 -2.95086 -7.00061 -3.14129Q-5.79944 -3.33172 -4.48108 -3.33172Q-3.13831 -3.33172 -2.24963 -2.98016Q-1.36096 -2.62859 -0.843384 -1.98895Q-0.320923 -1.3493 -0.101196 -0.470391Q0.11853 0.408515 0.11853 1.48762L0.11853 7.43L-2.85999 7.43L-2.85999 1.84895Q-2.85999 0.408515 -3.24084 -0.187188Q-3.6217 -0.787774 -4.66174 -0.787774Q-4.97913 -0.787774 -5.34045 -0.758477Q-5.70178 -0.72918 -5.9801 -0.690117L-5.9801 7.43L-8.95862 7.43L-8.95862 -2.73113ZM5.79988 0.71125Q6.23933 0.227851 6.70808 -0.289727Q7.18172 -0.812188 7.62117 -1.32Q8.06062 -1.82781 8.45125 -2.2868Q8.84187 -2.75066 9.12019 -3.08758L12.6602 -3.08758Q11.6007 -1.87176 10.5899 -0.758477Q9.57918 0.349922 8.37801 1.53156Q8.97859 2.06867 9.61824 2.82062Q10.2579 3.5677 10.8585 4.36848Q11.4591 5.16926 11.9571 5.97004Q12.46 6.77082 12.8018 7.43L9.37898 7.43Q9.0616 6.91242 8.65144 6.28254Q8.24129 5.64777 7.77742 5.01789Q7.31844 4.38801 6.80574 3.81184Q6.29793 3.23078 5.79988 2.83039L5.79988 7.43L2.82137 7.43L2.82137 -7.60906L5.79988 -8.08758L5.79988 0.71125ZM14.4014 7.43L14.4014 -7.60906L17.3799 -8.08758L17.3799 -3.04852Q17.6777 -3.15105 18.1465 -3.23895Q18.6201 -3.33172 19.0596 -3.33172Q20.3389 -3.33172 21.1885 -2.98016Q22.0381 -2.62859 22.5459 -1.98895Q23.0586 -1.3493 23.2685 -0.470391Q23.4785 0.408515 23.4785 1.48762L23.4785 7.43L20.5 7.43L20.5 1.84895Q20.5 0.408515 20.1289 -0.187188Q19.7578 -0.787774 18.7617 -0.787774Q18.3613 -0.787774 18.0098 -0.719414Q17.6582 -0.651055 17.3799 -0.568047L17.3799 7.43L14.4014 7.43Z"/>
</svg>
