<?xml version="1.0" encoding="utf-8" ?>
<svg xmlns="http://www.w3.org/2000/svg" xmlns:xlink="http://www.w3.org/1999/xlink" width="110" height="110">
	<path fill="white" transform="matrix(0.888014 1.11904 -1.11904 0.888014 55 47.8571)" d="M-10 -10L10 -10L10 10L-10 10L-10 -10Z"/>
	<path fill="#CFCFCF" transform="matrix(0.888014 1.11904 -1.11904 0.888014 55 47.8571)" d="M-11.5 10L-11.5 -10Q-11.5 -10.0737 -11.4928 -10.147Q-11.4856 -10.2204 -11.4712 -10.2926Q-11.4568 -10.3649 -11.4354 -10.4354Q-11.414 -10.5059 -11.3858 -10.574Q-11.3576 -10.6421 -11.3229 -10.7071Q-11.2881 -10.7721 -11.2472 -10.8334Q-11.2063 -10.8946 -11.1595 -10.9516Q-11.1128 -11.0086 -11.0607 -11.0607Q-11.0086 -11.1128 -10.9516 -11.1595Q-10.8946 -11.2063 -10.8334 -11.2472Q-10.7721 -11.2881 -10.7071 -11.3229Q-10.6421 -11.3576 -10.574 -11.3858Q-10.5059 -11.414 -10.4354 -11.4354Q-10.3649 -11.4568 -10.2926 -11.4712Q-10.2204 -11.4856 -10.147 -11.4928Q-10.0737 -11.5 -10 -11.5L10 -11.5Q10.0737 -11.5 10.147 -11.4928Q10.2204 -11.4856 10.2926 -11.4712Q10.3649 -11.4568 10.4354 -11.4354Q10.5059 -11.414 10.574 -11.3858Q10.6421 -11.3576 10.7071 -11.3229Q10.7721 -11.2881 10.8334 -11.2472Q10.8946 -11.2063 10.9516 -11.1595Q11.0086 -11.1128 11.0607 -11.0607Q11.1128 -11.0086 11.1595 -10.9516Q11.2063 -10.8946 11.2472 -10.8334Q11.2881 -10.7721 11.3229 -10.7071Q11.3576 -10.6421 11.3858 -10.574Q11.414 -10.5059 11.4354 -10.4354Q11.4568 -10.3649 11.4712 -10.2926Q11.4856 -10.2204 11.4928 -10.147Q11.5 -10.0737 11.5 -10L11.5 10Q11.5 10.0737 11.4928 10.147Q11.4856 10.2204 11.4712 10.2926Q11.4568 10.3649 11.4354 10.4354Q11.414 10.5059 11.3858 10.574Q11.3576 10.6421 11.3229 10.7071Q11.2881 10.7721 11.2472 10.8334Q11.2063 10.8946 11.1595 10.9516Q11.1128 11.0086 11.0607 11.0607Q11.0086 11.1128 10.9516 11.1595Q10.8946 11.2063 10.8334 11.2472Q10.7721 11.2881 10.7071 11.3229Q10.6421 11.3576 10.574 11.3858Q10.5059 11.414 10.4354 11.4354Q10.3649 11.4568 10.2926 11.4712Q10.2204 11.4856 10.147 11.4928Q10.0737 11.5 10 11.5L-10 11.5Q-10.0737 11.5 -10.147 11.4928Q-10.2204 11.4856 -10.2926 11.4712Q-10.3649 11.4568 -10.4354 11.4354Q-10.5059 11.414 -10.574 11.3858Q-10.6421 11.3576 -10.7071 11.3229Q-10.7721 11.2881 -10.8334 11.2472Q-10.8946 11.2063 -10.9516 11.1595Q-11.0086 11.1128 -11.0607 11.0607Q-11.1128 11.0086 -11.1595 10.9516Q-11.2063 10.8946 -11.2472 10.8334Q-11.2881 10.7721 -11.3229 10.7071Q-11.3576 10.6421 -11.3858 10.574Q-11.414 10.5059 -11.4354 10.4354Q-11.4568 10.3649 -11.4712 10.2926Q-11.4856 10.2204 -11.4928 10.147Q-11.5 10.0737 -11.5 10ZM-8.5 -8.5L-8.5 8.5L8.5 8.5L8.5 -8.5L-8.5 -8.5Z"/>
	<path fill="#777" transform="matrix(0.888014 1.11904 -1.11904 0.888014 55 47.8571)" d="M2.2 0Q2.2 0.108079 2.18941 0.215638Q2.17881 0.323196 2.15773 0.429199Q2.13664 0.535201 2.10527 0.638626Q2.07389 0.742051 2.03253 0.841903Q1.99117 0.941756 1.94023 1.03707Q1.88928 1.13239 1.82923 1.22225Q1.76919 1.31212 1.70062 1.39567Q1.63206 1.47921 1.55563 1.55563Q1.47921 1.63206 1.39567 1.70062Q1.31212 1.76919 1.22225 1.82923Q1.13239 1.88928 1.03707 1.94023Q0.941756 1.99117 0.841903 2.03253Q0.742051 2.07389 0.638626 2.10527Q0.535201 2.13664 0.429199 2.15773Q0.323196 2.17881 0.215638 2.18941Q0.108079 2.2 0 2.2Q-0.108079 2.2 -0.215638 2.18941Q-0.323196 2.17881 -0.429199 2.15773Q-0.535201 2.13664 -0.638626 2.10527Q-0.742051 2.07389 -0.841903 2.03253Q-0.941756 1.99117 -1.03707 1.94023Q-1.13239 1.88928 -1.22225 1.82923Q-1.31212 1.76919 -1.39567 1.70062Q-1.47921 1.63206 -1.55563 1.55563Q-1.63206 1.47921 -1.70062 1.39567Q-1.76919 1.31212 -1.82923 1.22225Q-1.88928 1.13239 -1.94023 1.03707Q-1.99117 0.941756 -2.03253 0.841903Q-2.07389 0.742051 -2.10527 0.638626Q-2.13664 0.535201 -2.15773 0.429199Q-2.17881 0.323196 -2.18941 0.215638Q-2.2 0.108079 -2.2 0Q-2.2 -0.108079 -2.18941 -0.215638Q-2.17881 -0.323196 -2.15773 -0.429199Q-2.13664 -0.535201 -2.10527 -0.638626Q-2.07389 -0.742051 -2.03253 -0.841903Q-1.99117 -0.941756 -1.94023 -1.03707Q-1.88928 -1.13239 -1.82923 -1.22225Q-1.76919 -1.31212 -1.70062 -1.39567Q-1.63206 -1.47921 -1.55563 -1.55563Q-1.47921 -1.63206 -1.39567 -1.70062Q-1.31212 -1.76919 -1.22225 -1.82923Q-1.13239 -1.88928 -1.03707 -1.94023Q-0.941756 -1.99117 -0.841903 -2.03253Q-0.742051 -2.07389 -0.638626 -2.10527Q-0.535201 -2.13664 -0.429199 -2.15773Q-0.323196 -2.17881 -0.215638 -2.18941Q-0.108079 -2.2 0 -2.2Q0.108079 -2.2 0.215638 -2.18941Q0.323196 -2.17881 0.429199 -2.15773Q0.535201 -2.13664 0.638626 -2.10527Q0.742051 -2.07389 0.841903 -2.03253Q0.941756 -1.99117 1.03707 -1.94023Q1.13239 -1.88928 1.22225 -1.82923Q1.31212 -1.76919 1.39567 -1.70062Q1.47921 -1.63206 1.55563 -1.55563Q1.63206 -1.47921 1.70062 -1.39567Q1.76919 -1.31212 1.82923 -1.22225Q1.88928 -1.13239 1.94023 -1.03707Q1.99117 -0.941756 2.03253 -0.841903Q2.07389 -0.742051 2.10527 -0.638626Q2.13664 -0.535201 2.15773 -0.429199Q2.17881 -0.323196 2.18941 -0.215638Q2.2 -0.108079 2.2 0"/>
	<path fill="#777" transform="matrix(0.888014 1.11904 -1.11904 0.888014 55 47.8571)" d="M-1.8 -4Q-1.8 -3.89192 -1.81059 -3.78436Q-1.82119 -3.6768 -1.84227 -3.5708Q-1.86336 -3.4648 -1.89473 -3.36137Q-1.9261 -3.25795 -1.96746 -3.1581Q-2.00882 -3.05824 -2.05977 -2.96293Q-2.11072 -2.86761 -2.17077 -2.77774Q-2.23081 -2.68788 -2.29938 -2.60433Q-2.36794 -2.52079 -2.44436 -2.44436Q-2.52079 -2.36794 -2.60433 -2.29938Q-2.68788 -2.23081 -2.77774 -2.17077Q-2.86761 -2.11072 -2.96293 -2.05977Q-3.05824 -2.00882 -3.1581 -1.96746Q-3.25795 -1.9261 -3.36137 -1.89473Q-3.4648 -1.86336 -3.5708 -1.84227Q-3.6768 -1.82119 -3.78436 -1.81059Q-3.89192 -1.8 -4 -1.8Q-4.10808 -1.8 -4.21564 -1.81059Q-4.3232 -1.82119 -4.4292 -1.84227Q-4.5352 -1.86336 -4.63863 -1.89473Q-4.74205 -1.9261 -4.8419 -1.96746Q-4.94175 -2.00882 -5.03707 -2.05977Q-5.13239 -2.11072 -5.22225 -2.17077Q-5.31212 -2.23081 -5.39566 -2.29938Q-5.47921 -2.36794 -5.55563 -2.44436Q-5.63206 -2.52079 -5.70062 -2.60433Q-5.76919 -2.68788 -5.82923 -2.77774Q-5.88928 -2.86761 -5.94023 -2.96293Q-5.99117 -3.05824 -6.03253 -3.1581Q-6.07389 -3.25795 -6.10527 -3.36137Q-6.13664 -3.4648 -6.15773 -3.5708Q-6.17881 -3.6768 -6.18941 -3.78436Q-6.2 -3.89192 -6.2 -4Q-6.2 -4.10808 -6.18941 -4.21564Q-6.17881 -4.3232 -6.15773 -4.4292Q-6.13664 -4.5352 -6.10527 -4.63863Q-6.07389 -4.74205 -6.03253 -4.8419Q-5.99117 -4.94175 -5.94023 -5.03707Q-5.88928 -5.13239 -5.82923 -5.22225Q-5.76919 -5.31212 -5.70062 -5.39566Q-5.63206 -5.47921 -5.55563 -5.55563Q-5.47921 -5.63206 -5.39566 -5.70062Q-5.31212 -5.76919 -5.22225 -5.82923Q-5.13239 -5.88928 -5.03707 -5.94023Q-4.94175 -5.99117 -4.8419 -6.03253Q-4.74205 -6.07389 -4.63863 -6.10527Q-4.5352 -6.13664 -4.4292 -6.15773Q-4.3232 -6.17881 -4.21564 -6.18941Q-4.10808 -6.2 -4 -6.2Q-3.89192 -6.2 -3.78436 -6.18941Q-3.6768 -6.17881 -3.5708 -6.15773Q-3.4648 -6.13664 -3.36137 -6.10527Q-3.25795 -6.07389 -3.1581 -6.03253Q-3.05824 -5.99117 -2.96293 -5.94023Q-2.86761 -5.88928 -2.77774 -5.82923Q-2.68788 -5.76919 -2.60433 -5.70062Q-2.52079 -5.63206 -2.44436 -5.55563Q-2.36794 -5.47921 -2.29938 -5.39566Q-2.23081 -5.31212 -2.17077 -5.22225Q-2.11072 -5.13239 -2.05977 -5.03707Q-2.00882 -4.94175 -1.96746 -4.8419Q-1.9261 -4.74205 -1.89473 -4.63863Q-1.86336 -4.5352 -1.84227 -4.4292Q-1.82119 -4.3232 -1.81059 -4.21564Q-1.8 -4.10808 -1.8 -4"/>
	<path fill="#777" transform="matrix(0.888014 1.11904 -1.11904 0.888014 55 47.8571)" d="M-1.8 4Q-1.8 4.10808 -1.81059 4.21564Q-1.82119 4.3232 -1.84227 4.4292Q-1.86336 4.5352 -1.89473 4.63863Q-1.9261 4.74205 -1.96746 4.8419Q-2.00882 4.94175 -2.05977 5.03707Q-2.11072 5.13239 -2.17077 5.22225Q-2.23081 5.31212 -2.29938 5.39566Q-2.36794 5.47921 -2.44436 5.55563Q-2.52079 5.63206 -2.60433 5.70062Q-2.68788 5.76919 -2.77774 5.82923Q-2.86761 5.88928 -2.96293 5.94023Q-3.05824 5.99117 -3.1581 6.03253Q-3.25795 6.07389 -3.36137 6.10527Q-3.4648 6.13664 -3.5708 6.15773Q-3.6768 6.17881 -3.78436 6.18941Q-3.89192 6.2 -4 6.2Q-4.10808 6.2 -4.21564 6.18941Q-4.3232 6.17881 -4.4292 6.15773Q-4.5352 6.13664 -4.63863 6.10527Q-4.74205 6.07389 -4.8419 6.03253Q-4.94175 5.99117 -5.03707 5.94023Q-5.13239 5.88928 -5.22225 5.82923Q-5.31212 5.76919 -5.39566 5.70062Q-5.47921 5.63206 -5.55563 5.55563Q-5.63206 5.47921 -5.70062 5.39566Q-5.76919 5.31212 -5.82923 5.22225Q-5.88928 5.13239 -5.94023 5.03707Q-5.99117 4.94175 -6.03253 4.8419Q-6.07389 4.74205 -6.10527 4.63863Q-6.13664 4.5352 -6.15773 4.4292Q-6.17881 4.3232 -6.18941 4.21564Q-6.2 4.10808 -6.2 4Q-6.2 3.89192 -6.18941 3.78436Q-6.17881 3.6768 -6.15773 3.5708Q-6.13664 3.4648 -6.10527 3.36137Q-6.07389 3.25795 -6.03253 3.1581Q-5.99117 3.05824 -5.94023 2.96293Q-5.88928 2.86761 -5.82923 2.77775Q-5.76919 2.68788 -5.70062 2.60433Q-5.63206 2.52079 -5.55563 2.44437Q-5.47921 2.36794 -5.39566 2.29938Q-5.31212 2.23081 -5.22225 2.17077Q-5.13239 2.11072 -5.03707 2.05977Q-4.94175 2.00883 -4.8419 1.96747Q-4.74205 1.92611 -4.63863 1.89473Q-4.5352 1.86336 -4.4292 1.84227Q-4.3232 1.82119 -4.21564 1.81059Q-4.10808 1.8 -4 1.8Q-3.89192 1.8 -3.78436 1.81059Q-3.6768 1.82119 -3.5708 1.84227Q-3.4648 1.86336 -3.36137 1.89473Q-3.25795 1.92611 -3.1581 1.96746Q-3.05824 2.00883 -2.96293 2.05977Q-2.86761 2.11072 -2.77774 2.17077Q-2.68788 2.23081 -2.60433 2.29938Q-2.52079 2.36794 -2.44436 2.44437Q-2.36794 2.52079 -2.29938 2.60433Q-2.23081 2.68788 -2.17077 2.77775Q-2.11072 2.86761 -2.05977 2.96293Q-2.00882 3.05824 -1.96746 3.1581Q-1.9261 3.25795 -1.89473 3.36137Q-1.86336 3.4648 -1.84227 3.5708Q-1.82119 3.6768 -1.81059 3.78436Q-1.8 3.89192 -1.8 4"/>
	<path fill="#777" transform="matrix(0.888014 1.11904 -1.11904 0.888014 55 47.8571)" d="M6.2 4Q6.2 4.10808 6.18941 4.21564Q6.17881 4.3232 6.15773 4.4292Q6.13664 4.5352 6.10527 4.63863Q6.07389 4.74205 6.03253 4.8419Q5.99117 4.94175 5.94023 5.03707Q5.88928 5.13239 5.82923 5.22225Q5.76919 5.31212 5.70062 5.39566Q5.63206 5.47921 5.55563 5.55563Q5.47921 5.63206 5.39566 5.70062Q5.31212 5.76919 5.22225 5.82923Q5.13239 5.88928 5.03707 5.94023Q4.94175 5.99117 4.8419 6.03253Q4.74205 6.07389 4.63863 6.10527Q4.5352 6.13664 4.4292 6.15773Q4.3232 6.17881 4.21564 6.18941Q4.10808 6.2 4 6.2Q3.89192 6.2 3.78436 6.18941Q3.6768 6.17881 3.5708 6.15773Q3.4648 6.13664 3.36137 6.10527Q3.25795 6.07389 3.1581 6.03253Q3.05824 5.99117 2.96293 5.94023Q2.86761 5.88928 2.77775 5.82923Q2.68788 5.76919 2.60433 5.70062Q2.52079 5.63206 2.44437 5.55563Q2.36794 5.47921 2.29938 5.39566Q2.23081 5.31212 2.17077 5.22225Q2.11072 5.13239 2.05977 5.03707Q2.00883 4.94175 1.96746 4.8419Q1.9261 4.74205 1.89473 4.63863Q1.86336 4.5352 1.84227 4.4292Q1.82119 4.3232 1.81059 4.21564Q1.8 4.10808 1.8 4Q1.8 3.89192 1.81059 3.78436Q1.82119 3.6768 1.84227 3.5708Q1.86336 3.4648 1.89473 3.36137Q1.9261 3.25795 1.96746 3.1581Q2.00883 3.05824 2.05977 2.96293Q2.11072 2.86761 2.17077 2.77775Q2.23081 2.68788 2.29938 2.60433Q2.36794 2.52079 2.44437 2.44437Q2.52079 2.36794 2.60433 2.29938Q2.68788 2.23081 2.77775 2.17077Q2.86761 2.11072 2.96293 2.05977Q3.05824 2.00883 3.1581 1.96747Q3.25795 1.92611 3.36137 1.89473Q3.4648 1.86336 3.5708 1.84227Q3.6768 1.82119 3.78436 1.81059Q3.89192 1.8 4 1.8Q4.10808 1.8 4.21564 1.81059Q4.3232 1.82119 4.4292 1.84227Q4.5352 1.86336 4.63863 1.89473Q4.74205 1.92611 4.8419 1.96746Q4.94175 2.00883 5.03707 2.05977Q5.13239 2.11072 5.22225 2.17077Q5.31212 2.23081 5.39566 2.29938Q5.47921 2.36794 5.55563 2.44437Q5.63206 2.52079 5.70062 2.60433Q5.76919 2.68788 5.82923 2.77775Q5.88928 2.86761 5.94023 2.96293Q5.99117 3.05824 6.03253 3.1581Q6.07389 3.25795 6.10527 3.36137Q6.13664 3.4648 6.15773 3.5708Q6.17881 3.6768 6.18941 3.78436Q6.2 3.89192 6.2 4"/>
	<path fill="#777" transform="matrix(0.888014 1.11904 -1.11904 0.888014 55 47.8571)" d="M6.2 -4Q6.2 -3.89192 6.18941 -3.78436Q6.17881 -3.6768 6.15773 -3.5708Q6.13664 -3.4648 6.10527 -3.36137Q6.07389 -3.25795 6.03253 -3.1581Q5.99117 -3.05824 5.94023 -2.96293Q5.88928 -2.86761 5.82923 -2.77774Q5.76919 -2.68788 5.70062 -2.60433Q5.63206 -2.52079 5.55563 -2.44436Q5.47921 -2.36794 5.39566 -2.29938Q5.31212 -2.23081 5.22225 -2.17077Q5.13239 -2.11072 5.03707 -2.05977Q4.94175 -2.00882 4.8419 -1.96746Q4.74205 -1.9261 4.63863 -1.89473Q4.5352 -1.86336 4.4292 -1.84227Q4.3232 -1.82119 4.21564 -1.81059Q4.10808 -1.8 4 -1.8Q3.89192 -1.8 3.78436 -1.81059Q3.6768 -1.82119 3.5708 -1.84227Q3.4648 -1.86336 3.36137 -1.89473Q3.25795 -1.9261 3.1581 -1.96746Q3.05824 -2.00882 2.96293 -2.05977Q2.86761 -2.11072 2.77775 -2.17077Q2.68788 -2.23081 2.60433 -2.29938Q2.52079 -2.36794 2.44437 -2.44436Q2.36794 -2.52079 2.29938 -2.60433Q2.23081 -2.68788 2.17077 -2.77774Q2.11072 -2.86761 2.05977 -2.96293Q2.00883 -3.05824 1.96746 -3.1581Q1.9261 -3.25795 1.89473 -3.36137Q1.86336 -3.4648 1.84227 -3.5708Q1.82119 -3.6768 1.81059 -3.78436Q1.8 -3.89192 1.8 -4Q1.8 -4.10808 1.81059 -4.21564Q1.82119 -4.3232 1.84227 -4.4292Q1.86336 -4.5352 1.89473 -4.63863Q1.9261 -4.74205 1.96746 -4.8419Q2.00883 -4.94175 2.05977 -5.03707Q2.11072 -5.13239 2.17077 -5.22225Q2.23081 -5.31212 2.29938 -5.39566Q2.36794 -5.47921 2.44437 -5.55563Q2.52079 -5.63206 2.60433 -5.70062Q2.68788 -5.76919 2.77775 -5.82923Q2.86761 -5.88928 2.96293 -5.94023Q3.05824 -5.99117 3.1581 -6.03253Q3.25795 -6.07389 3.36137 -6.10527Q3.4648 -6.13664 3.5708 -6.15773Q3.6768 -6.17881 3.78436 -6.18941Q3.89192 -6.2 4 -6.2Q4.10808 -6.2 4.21564 -6.18941Q4.3232 -6.17881 4.4292 -6.15773Q4.5352 -6.13664 4.63863 -6.10527Q4.74205 -6.07389 4.8419 -6.03253Q4.94175 -5.99117 5.03707 -5.94023Q5.13239 -5.88928 5.22225 -5.82923Q5.31212 -5.76919 5.39566 -5.70062Q5.47921 -5.63206 5.55563 -5.55563Q5.63206 -5.47921 5.70062 -5.39566Q5.76919 -5.31212 5.82923 -5.22225Q5.88928 -5.13239 5.94023 -5.03707Q5.99117 -4.94175 6.03253 -4.8419Q6.07389 -4.74205 6.10527 -4.63863Q6.13664 -4.5352 6.15773 -4.4292Q6.17881 -4.3232 6.18941 -4.21564Q6.2 -4.10808 6.2 -4"/>
	<path fill="none" stroke="black" stroke-width="2.3999999" stroke-linejoin="round" transform="translate(55 79.2857)" d="M-16.3783 4.89094Q-16.1586 4.91047 -15.8705 4.92023Q-15.5824 4.93 -15.182 4.93Q-12.8383 4.93 -11.7103 3.75324Q-10.5824 2.5716 -10.5824 0.491523Q-10.5824 -1.69109 -11.6615 -2.80926Q-12.7406 -3.9323 -15.0795 -3.9323Q-15.4017 -3.9323 -15.7435 -3.91766Q-16.0805 -3.90789 -16.3783 -3.86883L-16.3783 4.89094ZM-7.35975 0.491523Q-7.35975 2.2884 -7.92127 3.63117Q-8.47791 4.96906 -9.50819 5.85285Q-10.5385 6.73176 -12.0228 7.17121Q-13.5023 7.61066 -15.3383 7.61066Q-16.1781 7.61066 -17.3012 7.53742Q-18.4193 7.46906 -19.4984 7.24934L-19.4984 -6.25164Q-18.4193 -6.45184 -17.2523 -6.5202Q-16.0805 -6.58855 -15.2406 -6.58855Q-13.4584 -6.58855 -12.0082 -6.18816Q-10.558 -5.78777 -9.51795 -4.9284Q-8.47791 -4.06902 -7.92127 -2.72625Q-7.35975 -1.38836 -7.35975 0.491523ZM-1.98011 7.43L-4.95863 7.43L-4.95863 -3.08758L-1.98011 -3.08758L-1.98011 7.43ZM-1.70179 -6.12957Q-1.70179 -5.30926 -2.23402 -4.84051Q-2.76136 -4.37176 -3.47913 -4.37176Q-4.20179 -4.37176 -4.73402 -4.84051Q-5.26136 -5.30926 -5.26136 -6.12957Q-5.26136 -6.94988 -4.73402 -7.41863Q-4.20179 -7.89227 -3.47913 -7.89227Q-2.76136 -7.89227 -2.23402 -7.41863Q-1.70179 -6.94988 -1.70179 -6.12957ZM0.318443 2.17121Q0.318443 1.02863 0.689537 0.0227733Q1.06063 -0.987969 1.75887 -1.73992Q2.462 -2.49188 3.45809 -2.93133Q4.45907 -3.37078 5.73837 -3.37078Q6.57821 -3.37078 7.27645 -3.21941Q7.97958 -3.06805 8.63876 -2.78973L8.01864 -0.411797Q7.59872 -0.568047 7.09579 -0.690117Q6.59774 -0.812188 5.97762 -0.812188Q4.65926 -0.812188 4.00985 0.00812483Q3.36044 0.828437 3.36044 2.17121Q3.36044 3.59211 3.97079 4.37336Q4.58114 5.14973 6.09969 5.14973Q6.64169 5.14973 7.2618 5.05207Q7.88192 4.94953 8.3995 4.7298L8.81942 7.17121Q8.30184 7.39094 7.52059 7.54719Q6.73934 7.70832 5.80184 7.70832Q4.36141 7.70832 3.32137 7.27863Q2.28133 6.84895 1.60751 6.11164Q0.93856 5.36945 0.62606 4.35871Q0.318443 3.34797 0.318443 2.17121ZM10.3184 2.24934Q10.3184 0.847969 10.7481 -0.201836Q11.1778 -1.25164 11.876 -1.94988Q12.5792 -2.64813 13.4874 -3.00945Q14.4005 -3.37078 15.3624 -3.37078Q17.5987 -3.37078 18.8975 -1.99871Q20.2012 -0.631524 20.2012 2.02961Q20.2012 2.2884 20.1817 2.6009Q20.1622 2.90852 20.1378 3.14777L13.38 3.14777Q13.4776 4.07062 14.2393 4.61262Q15.001 5.14973 16.2803 5.14973Q17.1007 5.14973 17.8868 5.00324Q18.6778 4.85187 19.1807 4.63215L19.5811 7.04914Q19.3419 7.17121 18.9415 7.29328Q18.5411 7.41047 18.0479 7.49836Q17.5596 7.59113 16.9981 7.64973Q16.4415 7.70832 15.88 7.70832Q14.4591 7.70832 13.4092 7.2884Q12.3594 6.86848 11.6661 6.14094Q10.9776 5.40852 10.6456 4.41242Q10.3184 3.41145 10.3184 2.24934ZM17.3204 1.11164Q17.3008 0.730781 17.1885 0.369453Q17.0811 0.00812483 16.8516 -0.270195Q16.6221 -0.548516 16.2706 -0.72918Q15.919 -0.909844 15.4014 -0.909844Q14.8985 -0.909844 14.5372 -0.738945Q14.1807 -0.568047 13.9415 -0.289727Q13.7022 -0.0114064 13.5704 0.359687Q13.4385 0.730781 13.38 1.11164L17.3204 1.11164Z"/>
	<path fill="white" transform="translate(55 79.2857)" d="M-16.3783 4.89094Q-16.1586 4.91047 -15.8705 4.92023Q-15.5824 4.93 -15.182 4.93Q-12.8383 4.93 -11.7103 3.75324Q-10.5824 2.5716 -10.5824 0.491523Q-10.5824 -1.69109 -11.6615 -2.80926Q-12.7406 -3.9323 -15.0795 -3.9323Q-15.4017 -3.9323 -15.7435 -3.91766Q-16.0805 -3.90789 -16.3783 -3.86883L-16.3783 4.89094ZM-7.35975 0.491523Q-7.35975 2.2884 -7.92127 3.63117Q-8.47791 4.96906 -9.50819 5.85285Q-10.5385 6.73176 -12.0228 7.17121Q-13.5023 7.61066 -15.3383 7.61066Q-16.1781 7.61066 -17.3012 7.53742Q-18.4193 7.46906 -19.4984 7.24934L-19.4984 -6.25164Q-18.4193 -6.45184 -17.2523 -6.5202Q-16.0805 -6.58855 -15.2406 -6.58855Q-13.4584 -6.58855 -12.0082 -6.18816Q-10.558 -5.78777 -9.51795 -4.9284Q-8.47791 -4.06902 -7.92127 -2.72625Q-7.35975 -1.38836 -7.35975 0.491523ZM-1.98011 7.43L-4.95863 7.43L-4.95863 -3.08758L-1.98011 -3.08758L-1.98011 7.43ZM-1.70179 -6.12957Q-1.70179 -5.30926 -2.23402 -4.84051Q-2.76136 -4.37176 -3.47913 -4.37176Q-4.20179 -4.37176 -4.73402 -4.84051Q-5.26136 -5.30926 -5.26136 -6.12957Q-5.26136 -6.94988 -4.73402 -7.41863Q-4.20179 -7.89227 -3.47913 -7.89227Q-2.76136 -7.89227 -2.23402 -7.41863Q-1.70179 -6.94988 -1.70179 -6.12957ZM0.318443 2.17121Q0.318443 1.02863 0.689537 0.0227733Q1.06063 -0.987969 1.75887 -1.73992Q2.462 -2.49188 3.45809 -2.93133Q4.45907 -3.37078 5.73837 -3.37078Q6.57821 -3.37078 7.27645 -3.21941Q7.97958 -3.06805 8.63876 -2.78973L8.01864 -0.411797Q7.59872 -0.568047 7.09579 -0.690117Q6.59774 -0.812188 5.97762 -0.812188Q4.65926 -0.812188 4.00985 0.00812483Q3.36044 0.828437 3.36044 2.17121Q3.36044 3.59211 3.97079 4.37336Q4.58114 5.14973 6.09969 5.14973Q6.64169 5.14973 7.2618 5.05207Q7.88192 4.94953 8.3995 4.7298L8.81942 7.17121Q8.30184 7.39094 7.52059 7.54719Q6.73934 7.70832 5.80184 7.70832Q4.36141 7.70832 3.32137 7.27863Q2.28133 6.84895 1.60751 6.11164Q0.93856 5.36945 0.62606 4.35871Q0.318443 3.34797 0.318443 2.17121ZM10.3184 2.24934Q10.3184 0.847969 10.7481 -0.201836Q11.1778 -1.25164 11.876 -1.94988Q12.5792 -2.64813 13.4874 -3.00945Q14.4005 -3.37078 15.3624 -3.37078Q17.5987 -3.37078 18.8975 -1.99871Q20.2012 -0.631524 20.2012 2.02961Q20.2012 2.2884 20.1817 2.6009Q20.1622 2.90852 20.1378 3.14777L13.38 3.14777Q13.4776 4.07062 14.2393 4.61262Q15.001 5.14973 16.2803 5.14973Q17.1007 5.14973 17.8868 5.00324Q18.6778 4.85187 19.1807 4.63215L19.5811 7.04914Q19.3419 7.17121 18.9415 7.29328Q18.5411 7.41047 18.0479 7.49836Q17.5596 7.59113 16.9981 7.64973Q16.4415 7.70832 15.88 7.70832Q14.4591 7.70832 13.4092 7.2884Q12.3594 6.86848 11.6661 6.14094Q10.9776 5.40852 10.6456 4.41242Q10.3184 3.41145 10.3184 2.24934ZM17.3204 1.11164Q17.3008 0.730781 17.1885 0.369453Q17.0811 0.00812483 16.8516 -0.270195Q16.6221 -0.548516 16.2706 -0.72918Q15.919 -0.909844 15.4014 -0.909844Q14.8985 -0.909844 14.5372 -0.738945Q14.1807 -0.568047 13.9415 -0.289727Q13.7022 -0.0114064 13.5704 0.359687Q13.4385 0.730781 13.38 1.11164L17.3204 1.11164Z"/>
</svg>
