<?xml version="1.0" encoding="utf-8" ?>
<svg xmlns="http://www.w3.org/2000/svg" xmlns:xlink="http://www.w3.org/1999/xlink" width="110" height="110">
	<path fill="#FFF824" transform="matrix(0.77186 1.2021 -1.2021 0.77186 55 47.8571)" d="M5.4 0C10.3737 2.10286 6.04884 8.40869 -6.3 10.9119L-2.7 4.67654C-7.00799 7.93248 -10.3066 1.0341 -6.3 -10.9119L-2.7 -4.67654C-3.36573 -10.0353 4.25772 -9.44279 12.6 2.20305e-06L5.4 9.44166e-07L5.4 0Z"/>
	<path fill="#CFC91D" transform="matrix(0.77186 1.2021 -1.2021 0.77186 55 47.8571)" d="M5.98413 -1.38159Q8.64316 -0.257371 8.89787 2.07744Q9.1289 4.19509 7.14398 6.32776Q3.25579 10.5054 -6.002 12.382Q-6.07422 12.3967 -6.14753 12.4042Q-6.22084 12.4116 -6.29453 12.4119Q-6.36822 12.4122 -6.44158 12.4052Q-6.51494 12.3983 -6.58726 12.3842Q-6.65959 12.37 -6.73019 12.3489Q-6.80078 12.3278 -6.86896 12.2998Q-6.93715 12.2719 -7.00226 12.2374Q-7.06738 12.2029 -7.1288 12.1622Q-7.19022 12.1214 -7.24735 12.0749Q-7.30449 12.0284 -7.35678 11.9764Q-7.40908 11.9245 -7.45604 11.8677Q-7.50299 11.8109 -7.54415 11.7498Q-7.58532 11.6887 -7.62029 11.6238Q-7.65527 11.559 -7.68371 11.491Q-7.71216 11.423 -7.73381 11.3526Q-7.75546 11.2821 -7.7701 11.2099Q-7.8246 10.941 -7.78041 10.6703Q-7.73621 10.3995 -7.59904 10.1619L-3.99904 3.92654L-2.7 4.67654L-1.79557 5.8732Q-4.09869 7.61388 -6.24805 6.66707Q-8.1975 5.80832 -9.05199 3.02298Q-10.7258 -2.43309 -7.72215 -11.3889Q-7.69871 -11.4588 -7.66855 -11.526Q-7.63838 -11.5932 -7.60177 -11.6572Q-7.56515 -11.7211 -7.52245 -11.7812Q-7.47975 -11.8412 -7.43136 -11.8968Q-7.38298 -11.9524 -7.32938 -12.003Q-7.27578 -12.0535 -7.21748 -12.0986Q-7.15918 -12.1437 -7.09675 -12.1828Q-7.03431 -12.222 -6.96834 -12.2548Q-6.90237 -12.2876 -6.8335 -12.3138Q-6.76462 -12.34 -6.69351 -12.3594Q-6.6224 -12.3787 -6.54974 -12.391Q-6.47708 -12.4033 -6.40357 -12.4083Q-6.33005 -12.4134 -6.25639 -12.4113Q-6.18273 -12.4091 -6.10964 -12.3998Q-6.03654 -12.3904 -5.96472 -12.374Q-5.89289 -12.3575 -5.82303 -12.3341Q-5.56292 -12.2468 -5.35053 -12.0732Q-5.13813 -11.8995 -5.00096 -11.6619L-1.40096 -5.42654L-2.7 -4.67654L-4.18856 -4.49161Q-4.54447 -7.35651 -2.64982 -8.7445Q-0.931397 -10.0034 1.90802 -9.35075Q7.47003 -8.07228 13.7241 -0.993128Q13.7729 -0.937902 13.8161 -0.87816Q13.8592 -0.818418 13.8963 -0.754735Q13.9334 -0.691053 13.964 -0.624042Q13.9947 -0.557032 14.0186 -0.487339Q14.0426 -0.417647 14.0596 -0.345943Q14.0766 -0.274239 14.0864 -0.201215Q14.0963 -0.128191 14.099 -0.0545491Q14.1017 0.0190925 14.0971 0.0926421Q14.0926 0.166192 14.0808 0.238941Q14.0691 0.311691 14.0503 0.382939Q14.0315 0.454188 14.0058 0.523249Q13.9801 0.59231 13.9477 0.65852Q13.9154 0.724729 13.8767 0.787449Q13.838 0.850168 13.7934 0.908794Q13.7487 0.96742 13.6985 1.02139Q13.6484 1.07535 13.5931 1.12414Q13.3875 1.30579 13.1309 1.40289Q12.8743 1.5 12.6 1.5L5.4 1.5L5.4 9.44166e-07L5.98413 -1.38159L5.98413 -1.38159ZM4.81587 1.38159Q4.71459 1.33877 4.62064 1.28164Q4.52669 1.22451 4.44208 1.15429Q4.35746 1.08407 4.28399 1.00226Q4.21052 0.920447 4.14976 0.828798Q4.08901 0.737148 4.04227 0.637619Q3.99552 0.538089 3.9638 0.432807Q3.93207 0.327525 3.91603 0.218742Q3.9 0.109959 3.9 6.81898e-07Q3.9 -0.0736896 3.90722 -0.147025Q3.91445 -0.22036 3.92882 -0.292635Q3.9432 -0.364909 3.96459 -0.435426Q3.98598 -0.505943 4.01418 -0.574024Q4.04238 -0.642105 4.07712 -0.707094Q4.11185 -0.772083 4.15279 -0.833355Q4.19374 -0.894626 4.24048 -0.951589Q4.28723 -1.00855 4.33934 -1.06066Q4.39145 -1.11277 4.44841 -1.15951Q4.50537 -1.20626 4.56664 -1.2472Q4.62792 -1.28814 4.6929 -1.32288Q4.75789 -1.35762 4.82597 -1.38582Q4.89406 -1.41402 4.96457 -1.43541Q5.03509 -1.4568 5.10736 -1.47118Q5.17964 -1.48555 5.25297 -1.49278Q5.32631 -1.5 5.4 -1.5L12.6 -1.5L12.6 2.20305e-06L11.4759 0.993131Q5.85938 -5.36427 1.23597 -6.42699Q-0.265736 -6.77216 -0.876906 -6.32443Q-1.35012 -5.97776 -1.21144 -4.86146Q-1.19789 -4.75234 -1.20039 -4.64241Q-1.20289 -4.53248 -1.22139 -4.42409Q-1.2399 -4.3157 -1.27401 -4.21117Q-1.30813 -4.10664 -1.35712 -4.0082Q-1.40611 -3.90976 -1.46894 -3.81951Q-1.53176 -3.72927 -1.60708 -3.64915Q-1.68239 -3.56903 -1.76858 -3.50076Q-1.85477 -3.43248 -1.95 -3.3775Q-2.01382 -3.34065 -2.08094 -3.31024Q-2.14806 -3.27983 -2.21784 -3.25614Q-2.28762 -3.23245 -2.35939 -3.21572Q-2.43115 -3.19899 -2.50421 -3.18937Q-2.57727 -3.17975 -2.65092 -3.17734Q-2.72457 -3.17493 -2.7981 -3.17975Q-2.87164 -3.18457 -2.94434 -3.19657Q-3.01705 -3.20858 -3.08823 -3.22765Q-3.15941 -3.24672 -3.22837 -3.27268Q-3.29734 -3.29864 -3.36343 -3.33123Q-3.42952 -3.36382 -3.4921 -3.40273Q-3.55468 -3.44165 -3.61314 -3.48651Q-3.6716 -3.53137 -3.72539 -3.58174Q-3.77917 -3.63211 -3.82776 -3.68752Q-3.87635 -3.74292 -3.91927 -3.80282Q-3.96219 -3.86272 -3.99904 -3.92654L-7.59904 -10.1619L-6.3 -10.9119L-4.87785 -10.4349Q-7.57528 -2.39224 -6.18392 2.14311Q-5.732 3.61622 -5.03866 3.92164Q-4.50183 4.15812 -3.60443 3.47987Q-3.51671 3.41357 -3.42025 3.36077Q-3.3238 3.30797 -3.22068 3.26981Q-3.11756 3.23164 -3.00997 3.20891Q-2.90239 3.18619 -2.79264 3.1794Q-2.68289 3.17261 -2.57333 3.1819Q-2.46376 3.19118 -2.35672 3.21635Q-2.24968 3.24151 -2.14745 3.28201Q-2.04523 3.32252 -1.95 3.3775Q-1.88618 3.41434 -1.82628 3.45727Q-1.76638 3.50019 -1.71098 3.54878Q-1.65558 3.59736 -1.6052 3.65115Q-1.55483 3.70493 -1.50997 3.76339Q-1.46511 3.82186 -1.4262 3.88443Q-1.38728 3.94701 -1.35469 4.0131Q-1.3221 4.07919 -1.29614 4.14816Q-1.27018 4.21713 -1.25111 4.28831Q-1.23204 4.35949 -1.22003 4.43219Q-1.20803 4.5049 -1.20321 4.57843Q-1.19839 4.65196 -1.2008 4.72562Q-1.20321 4.79927 -1.21283 4.87233Q-1.22245 4.94539 -1.23918 5.01715Q-1.25592 5.08892 -1.2796 5.1587Q-1.30329 5.22848 -1.3337 5.2956Q-1.36412 5.36272 -1.40096 5.42654L-5.00096 11.6619L-6.3 10.9119L-6.59801 9.44182Q1.71591 7.75651 4.94795 4.28388Q5.99773 3.15595 5.91557 2.40279Q5.85195 1.81964 4.81587 1.38159L4.81587 1.38159Z"/>
	<path fill="#37CF37" transform="matrix(0.77186 1.2021 -1.2021 0.77186 55 47.8571)" d="M3.5 0Q3.5 0.171944 3.48315 0.34306Q3.46629 0.514176 3.43275 0.682816Q3.3992 0.851456 3.34929 1.016Q3.29938 1.18054 3.23358 1.33939Q3.16778 1.49825 3.08672 1.64989Q3.00567 1.80153 2.91014 1.9445Q2.81462 2.08746 2.70554 2.22038Q2.59646 2.35329 2.47487 2.47487Q2.35329 2.59646 2.22038 2.70554Q2.08746 2.81462 1.9445 2.91014Q1.80153 3.00567 1.64989 3.08672Q1.49825 3.16778 1.33939 3.23358Q1.18054 3.29938 1.016 3.34929Q0.851456 3.3992 0.682816 3.43275Q0.514176 3.46629 0.34306 3.48315Q0.171944 3.5 0 3.5Q-0.171944 3.5 -0.34306 3.48315Q-0.514176 3.46629 -0.682816 3.43275Q-0.851456 3.3992 -1.016 3.34929Q-1.18054 3.29938 -1.33939 3.23358Q-1.49825 3.16778 -1.64989 3.08672Q-1.80153 3.00567 -1.9445 2.91014Q-2.08746 2.81462 -2.22038 2.70554Q-2.35329 2.59646 -2.47487 2.47487Q-2.59646 2.35329 -2.70554 2.22038Q-2.81462 2.08746 -2.91014 1.9445Q-3.00567 1.80153 -3.08672 1.64989Q-3.16778 1.49825 -3.23358 1.33939Q-3.29938 1.18054 -3.34929 1.016Q-3.3992 0.851456 -3.43275 0.682816Q-3.46629 0.514176 -3.48315 0.34306Q-3.5 0.171944 -3.5 0Q-3.5 -0.171944 -3.48315 -0.34306Q-3.46629 -0.514176 -3.43275 -0.682816Q-3.3992 -0.851456 -3.34929 -1.016Q-3.29938 -1.18054 -3.23358 -1.33939Q-3.16778 -1.49825 -3.08672 -1.64989Q-3.00567 -1.80153 -2.91014 -1.9445Q-2.81462 -2.08746 -2.70554 -2.22038Q-2.59646 -2.35329 -2.47487 -2.47487Q-2.35329 -2.59646 -2.22038 -2.70554Q-2.08746 -2.81462 -1.9445 -2.91014Q-1.80153 -3.00567 -1.64989 -3.08672Q-1.49825 -3.16778 -1.33939 -3.23358Q-1.18054 -3.29938 -1.016 -3.34929Q-0.851456 -3.3992 -0.682816 -3.43275Q-0.514176 -3.46629 -0.34306 -3.48315Q-0.171944 -3.5 0 -3.5Q0.171944 -3.5 0.34306 -3.48315Q0.514176 -3.46629 0.682816 -3.43275Q0.851456 -3.3992 1.016 -3.34929Q1.18054 -3.29938 1.33939 -3.23358Q1.49825 -3.16778 1.64989 -3.08672Q1.80153 -3.00567 1.9445 -2.91014Q2.08746 -2.81462 2.22038 -2.70554Q2.35329 -2.59646 2.47487 -2.47487Q2.59646 -2.35329 2.70554 -2.22038Q2.81462 -2.08746 2.91014 -1.9445Q3.00567 -1.80153 3.08672 -1.64989Q3.16778 -1.49825 3.23358 -1.33939Q3.29938 -1.18054 3.34929 -1.016Q3.3992 -0.851456 3.43275 -0.682816Q3.46629 -0.514176 3.48315 -0.34306Q3.5 -0.171944 3.5 0"/>
	<path fill="none" stroke="black" stroke-width="2.0571427" stroke-linejoin="round" transform="translate(55 79.2857)" d="M-26.3353 -5.5134L-26.3353 -3.23243L-29.9179 -3.23243L-29.9179 6.36857L-32.5923 6.36857L-32.5923 -3.23243L-36.1749 -3.23243L-36.1749 -5.5134L-26.3353 -5.5134ZM-21.3481 4.58565Q-20.9714 4.58565 -20.6282 4.56891Q-20.2851 4.55217 -20.08 4.51868L-20.08 2.5809Q-20.2348 2.54742 -20.5445 2.51394Q-20.8501 2.47627 -21.1096 2.47627Q-21.4695 2.47627 -21.7876 2.52231Q-22.1015 2.56416 -22.3442 2.68554Q-22.5828 2.80272 -22.7209 3.0078Q-22.8548 3.21288 -22.8548 3.52259Q-22.8548 4.12108 -22.453 4.35546Q-22.0512 4.58565 -21.3481 4.58565ZM-21.5532 -2.88924Q-20.4232 -2.88924 -19.6698 -2.62975Q-18.9123 -2.37445 -18.4603 -1.89315Q-18.0041 -1.41603 -17.8157 -0.729643Q-17.6274 -0.0432587 -17.6274 0.79798L-17.6274 6.11327Q-18.1757 6.23046 -19.155 6.39368Q-20.1302 6.55691 -21.5197 6.55691Q-22.3944 6.55691 -23.1059 6.40205Q-23.8174 6.2472 -24.3322 5.89564Q-24.847 5.54407 -25.1232 4.97906Q-25.3953 4.41405 -25.3953 3.58955Q-25.3953 2.80272 -25.0772 2.25445Q-24.7591 1.70618 -24.2276 1.37973Q-23.696 1.05328 -23.0097 0.910982Q-22.3233 0.764498 -21.5867 0.764498Q-21.0928 0.764498 -20.7078 0.806351Q-20.3185 0.848203 -20.08 0.915167L-20.08 0.676607Q-20.08 0.0237055 -20.4734 -0.36971Q-20.8668 -0.763125 -21.8462 -0.763125Q-22.4949 -0.763125 -23.131 -0.666864Q-23.7672 -0.574788 -24.2276 -0.403192L-24.554 -2.45816Q-24.3322 -2.52931 -23.9974 -2.60464Q-23.6626 -2.68416 -23.2691 -2.74276Q-22.8757 -2.80135 -22.4405 -2.8432Q-22.001 -2.88924 -21.5532 -2.88924ZM-11.7145 6.54017Q-12.8278 6.52343 -13.5225 6.30161Q-14.2173 6.0756 -14.6233 5.67382Q-15.025 5.27203 -15.1715 4.69865Q-15.3138 4.12108 -15.3138 3.40122L-15.3138 -6.52205L-12.7608 -6.93221L-12.7608 2.89061Q-12.7608 3.22962 -12.7106 3.50585Q-12.6562 3.78208 -12.5139 3.97041Q-12.3674 4.15875 -12.0954 4.28012Q-11.8191 4.39731 -11.3546 4.43079L-11.7145 6.54017ZM-7.34437 6.36857L-9.89738 6.36857L-9.89738 -2.6465L-7.34437 -2.6465L-7.34437 6.36857ZM-7.10581 -5.25392Q-7.10581 -4.55079 -7.56201 -4.14901Q-8.01401 -3.74722 -8.62925 -3.74722Q-9.24867 -3.74722 -9.70486 -4.14901Q-10.1569 -4.55079 -10.1569 -5.25392Q-10.1569 -5.95704 -9.70486 -6.35883Q-9.24867 -6.7648 -8.62925 -6.7648Q-8.01401 -6.7648 -7.56201 -6.35883Q-7.10581 -5.95704 -7.10581 -5.25392ZM-2.35725 4.53542Q-1.65412 4.53542 -1.36534 4.39731Q-1.07237 4.2592 -1.07237 3.86578Q-1.07237 3.55607 -1.44904 3.32588Q-1.82572 3.09569 -2.59581 2.80272Q-3.1943 2.5809 -3.68398 2.34234Q-4.17365 2.0996 -4.51684 1.76478Q-4.86004 1.42996 -5.04837 0.969576Q-5.23671 0.505011 -5.23671 -0.143705Q-5.23671 -1.41603 -4.29502 -2.15263Q-3.34915 -2.88924 -1.70434 -2.88924Q-0.884031 -2.88924 -0.130683 -2.74276Q0.626851 -2.59627 1.07049 -2.42468L0.626851 -0.436674Q0.179027 -0.591529 -0.344131 -0.708716Q-0.863105 -0.830089 -1.51601 -0.830089Q-2.71718 -0.830089 -2.71718 -0.164632Q-2.71718 -0.00977659 -2.66696 0.111596Q-2.61255 0.232969 -2.45769 0.345971Q-2.30284 0.454788 -2.03917 0.584531Q-1.77549 0.710089 -1.36115 0.864944Q-0.524098 1.17465 0.0241718 1.47599Q0.576627 1.77315 0.890522 2.12471Q1.2086 2.47627 1.33835 2.90735Q1.46809 3.33425 1.46809 3.89926Q1.46809 5.23855 0.463625 5.92493Q-0.540839 6.60713 -2.37399 6.60713Q-3.57516 6.60713 -4.37454 6.40205Q-5.16975 6.19698 -5.47527 6.05886L-5.04837 3.98715Q-4.39547 4.24246 -3.71327 4.38894Q-3.02689 4.53542 -2.35725 4.53542ZM8.32063 1.58481Q8.32063 0.350156 8.00255 -0.160446Q7.68866 -0.675234 6.91857 -0.675234Q6.67582 -0.675234 6.41634 -0.650123Q6.16103 -0.625011 5.92247 -0.591529L5.92247 6.36857L3.36946 6.36857L3.36946 -2.34097Q3.69591 -2.42468 4.13118 -2.51675Q4.56645 -2.61301 5.05612 -2.68835Q5.5458 -2.76787 6.06059 -2.80972Q6.57538 -2.85576 7.06924 -2.85576Q8.04859 -2.85576 8.65545 -2.60464Q9.2665 -2.35771 9.65992 -2.01452Q10.2082 -2.40794 10.9197 -2.62975Q11.6312 -2.85576 12.2297 -2.85576Q13.3095 -2.85576 14.0042 -2.55442Q14.699 -2.25308 15.1091 -1.70481Q15.5235 -1.15654 15.6783 -0.403192Q15.8332 0.350156 15.8332 1.2751L15.8332 6.36857L13.276 6.36857L13.276 1.58481Q13.276 0.350156 12.9579 -0.160446Q12.644 -0.675234 11.8697 -0.675234Q11.6647 -0.675234 11.2964 -0.570602Q10.9281 -0.470156 10.6895 -0.315301Q10.8067 0.078114 10.8402 0.517567Q10.8778 0.952835 10.8778 1.4467L10.8778 6.36857L8.32063 6.36857L8.32063 1.58481ZM21.5892 4.58565Q21.9658 4.58565 22.309 4.56891Q22.6522 4.55217 22.8573 4.51868L22.8573 2.5809Q22.7024 2.54742 22.3927 2.51394Q22.0872 2.47627 21.8277 2.47627Q21.4678 2.47627 21.1497 2.52231Q20.8358 2.56416 20.5931 2.68554Q20.3545 2.80272 20.2164 3.0078Q20.0825 3.21288 20.0825 3.52259Q20.0825 4.12108 20.4842 4.35546Q20.886 4.58565 21.5892 4.58565ZM21.3841 -2.88924Q22.5141 -2.88924 23.2675 -2.62975Q24.025 -2.37445 24.477 -1.89315Q24.9332 -1.41603 25.1215 -0.729643Q25.3099 -0.0432587 25.3099 0.79798L25.3099 6.11327Q24.7616 6.23046 23.7822 6.39368Q22.8071 6.55691 21.4176 6.55691Q20.5428 6.55691 19.8313 6.40205Q19.1199 6.2472 18.6051 5.89564Q18.0903 5.54407 17.814 4.97906Q17.542 4.41405 17.542 3.58955Q17.542 2.80272 17.8601 2.25445Q18.1782 1.70618 18.7097 1.37973Q19.2412 1.05328 19.9276 0.910982Q20.614 0.764498 21.3506 0.764498Q21.8445 0.764498 22.2295 0.806351Q22.6187 0.848203 22.8573 0.915167L22.8573 0.676607Q22.8573 0.0237055 22.4639 -0.36971Q22.0705 -0.763125 21.0911 -0.763125Q20.4424 -0.763125 19.8062 -0.666864Q19.1701 -0.574788 18.7097 -0.403192L18.3832 -2.45816Q18.6051 -2.52931 18.9399 -2.60464Q19.2747 -2.68416 19.6681 -2.74276Q20.0615 -2.80135 20.4968 -2.8432Q20.9363 -2.88924 21.3841 -2.88924ZM27.6234 -2.34097Q28.2722 -2.52931 29.3017 -2.69253Q30.3313 -2.85576 31.4613 -2.85576Q32.6123 -2.85576 33.374 -2.55442Q34.1357 -2.25308 34.5794 -1.70481Q35.0272 -1.15654 35.2155 -0.403192Q35.4039 0.350156 35.4039 1.2751L35.4039 6.36857L32.8508 6.36857L32.8508 1.58481Q32.8508 0.350156 32.5244 -0.160446Q32.1979 -0.675234 31.3065 -0.675234Q31.0344 -0.675234 30.7247 -0.650123Q30.415 -0.625011 30.1765 -0.591529L30.1765 6.36857L27.6234 6.36857L27.6234 -2.34097Z"/>
	<path fill="white" transform="translate(55 79.2857)" d="M-26.3353 -5.5134L-26.3353 -3.23243L-29.9179 -3.23243L-29.9179 6.36857L-32.5923 6.36857L-32.5923 -3.23243L-36.1749 -3.23243L-36.1749 -5.5134L-26.3353 -5.5134ZM-21.3481 4.58565Q-20.9714 4.58565 -20.6282 4.56891Q-20.2851 4.55217 -20.08 4.51868L-20.08 2.5809Q-20.2348 2.54742 -20.5445 2.51394Q-20.8501 2.47627 -21.1096 2.47627Q-21.4695 2.47627 -21.7876 2.52231Q-22.1015 2.56416 -22.3442 2.68554Q-22.5828 2.80272 -22.7209 3.0078Q-22.8548 3.21288 -22.8548 3.52259Q-22.8548 4.12108 -22.453 4.35546Q-22.0512 4.58565 -21.3481 4.58565ZM-21.5532 -2.88924Q-20.4232 -2.88924 -19.6698 -2.62975Q-18.9123 -2.37445 -18.4603 -1.89315Q-18.0041 -1.41603 -17.8157 -0.729643Q-17.6274 -0.0432587 -17.6274 0.79798L-17.6274 6.11327Q-18.1757 6.23046 -19.155 6.39368Q-20.1302 6.55691 -21.5197 6.55691Q-22.3944 6.55691 -23.1059 6.40205Q-23.8174 6.2472 -24.3322 5.89564Q-24.847 5.54407 -25.1232 4.97906Q-25.3953 4.41405 -25.3953 3.58955Q-25.3953 2.80272 -25.0772 2.25445Q-24.7591 1.70618 -24.2276 1.37973Q-23.696 1.05328 -23.0097 0.910982Q-22.3233 0.764498 -21.5867 0.764498Q-21.0928 0.764498 -20.7078 0.806351Q-20.3185 0.848203 -20.08 0.915167L-20.08 0.676607Q-20.08 0.0237055 -20.4734 -0.36971Q-20.8668 -0.763125 -21.8462 -0.763125Q-22.4949 -0.763125 -23.131 -0.666864Q-23.7672 -0.574788 -24.2276 -0.403192L-24.554 -2.45816Q-24.3322 -2.52931 -23.9974 -2.60464Q-23.6626 -2.68416 -23.2691 -2.74276Q-22.8757 -2.80135 -22.4405 -2.8432Q-22.001 -2.88924 -21.5532 -2.88924ZM-11.7145 6.54017Q-12.8278 6.52343 -13.5225 6.30161Q-14.2173 6.0756 -14.6233 5.67382Q-15.025 5.27203 -15.1715 4.69865Q-15.3138 4.12108 -15.3138 3.40122L-15.3138 -6.52205L-12.7608 -6.93221L-12.7608 2.89061Q-12.7608 3.22962 -12.7106 3.50585Q-12.6562 3.78208 -12.5139 3.97041Q-12.3674 4.15875 -12.0954 4.28012Q-11.8191 4.39731 -11.3546 4.43079L-11.7145 6.54017ZM-7.34437 6.36857L-9.89738 6.36857L-9.89738 -2.6465L-7.34437 -2.6465L-7.34437 6.36857ZM-7.10581 -5.25392Q-7.10581 -4.55079 -7.56201 -4.14901Q-8.01401 -3.74722 -8.62925 -3.74722Q-9.24867 -3.74722 -9.70486 -4.14901Q-10.1569 -4.55079 -10.1569 -5.25392Q-10.1569 -5.95704 -9.70486 -6.35883Q-9.24867 -6.7648 -8.62925 -6.7648Q-8.01401 -6.7648 -7.56201 -6.35883Q-7.10581 -5.95704 -7.10581 -5.25392ZM-2.35725 4.53542Q-1.65412 4.53542 -1.36534 4.39731Q-1.07237 4.2592 -1.07237 3.86578Q-1.07237 3.55607 -1.44904 3.32588Q-1.82572 3.09569 -2.59581 2.80272Q-3.1943 2.5809 -3.68398 2.34234Q-4.17365 2.0996 -4.51684 1.76478Q-4.86004 1.42996 -5.04837 0.969576Q-5.23671 0.505011 -5.23671 -0.143705Q-5.23671 -1.41603 -4.29502 -2.15263Q-3.34915 -2.88924 -1.70434 -2.88924Q-0.884031 -2.88924 -0.130683 -2.74276Q0.626851 -2.59627 1.07049 -2.42468L0.626851 -0.436674Q0.179027 -0.591529 -0.344131 -0.708716Q-0.863105 -0.830089 -1.51601 -0.830089Q-2.71718 -0.830089 -2.71718 -0.164632Q-2.71718 -0.00977659 -2.66696 0.111596Q-2.61255 0.232969 -2.45769 0.345971Q-2.30284 0.454788 -2.03917 0.584531Q-1.77549 0.710089 -1.36115 0.864944Q-0.524098 1.17465 0.0241718 1.47599Q0.576627 1.77315 0.890522 2.12471Q1.2086 2.47627 1.33835 2.90735Q1.46809 3.33425 1.46809 3.89926Q1.46809 5.23855 0.463625 5.92493Q-0.540839 6.60713 -2.37399 6.60713Q-3.57516 6.60713 -4.37454 6.40205Q-5.16975 6.19698 -5.47527 6.05886L-5.04837 3.98715Q-4.39547 4.24246 -3.71327 4.38894Q-3.02689 4.53542 -2.35725 4.53542ZM8.32063 1.58481Q8.32063 0.350156 8.00255 -0.160446Q7.68866 -0.675234 6.91857 -0.675234Q6.67582 -0.675234 6.41634 -0.650123Q6.16103 -0.625011 5.92247 -0.591529L5.92247 6.36857L3.36946 6.36857L3.36946 -2.34097Q3.69591 -2.42468 4.13118 -2.51675Q4.56645 -2.61301 5.05612 -2.68835Q5.5458 -2.76787 6.06059 -2.80972Q6.57538 -2.85576 7.06924 -2.85576Q8.04859 -2.85576 8.65545 -2.60464Q9.2665 -2.35771 9.65992 -2.01452Q10.2082 -2.40794 10.9197 -2.62975Q11.6312 -2.85576 12.2297 -2.85576Q13.3095 -2.85576 14.0042 -2.55442Q14.699 -2.25308 15.1091 -1.70481Q15.5235 -1.15654 15.6783 -0.403192Q15.8332 0.350156 15.8332 1.2751L15.8332 6.36857L13.276 6.36857L13.276 1.58481Q13.276 0.350156 12.9579 -0.160446Q12.644 -0.675234 11.8697 -0.675234Q11.6647 -0.675234 11.2964 -0.570602Q10.9281 -0.470156 10.6895 -0.315301Q10.8067 0.078114 10.8402 0.517567Q10.8778 0.952835 10.8778 1.4467L10.8778 6.36857L8.32063 6.36857L8.32063 1.58481ZM21.5892 4.58565Q21.9658 4.58565 22.309 4.56891Q22.6522 4.55217 22.8573 4.51868L22.8573 2.5809Q22.7024 2.54742 22.3927 2.51394Q22.0872 2.47627 21.8277 2.47627Q21.4678 2.47627 21.1497 2.52231Q20.8358 2.56416 20.5931 2.68554Q20.3545 2.80272 20.2164 3.0078Q20.0825 3.21288 20.0825 3.52259Q20.0825 4.12108 20.4842 4.35546Q20.886 4.58565 21.5892 4.58565ZM21.3841 -2.88924Q22.5141 -2.88924 23.2675 -2.62975Q24.025 -2.37445 24.477 -1.89315Q24.9332 -1.41603 25.1215 -0.729643Q25.3099 -0.0432587 25.3099 0.79798L25.3099 6.11327Q24.7616 6.23046 23.7822 6.39368Q22.8071 6.55691 21.4176 6.55691Q20.5428 6.55691 19.8313 6.40205Q19.1199 6.2472 18.6051 5.89564Q18.0903 5.54407 17.814 4.97906Q17.542 4.41405 17.542 3.58955Q17.542 2.80272 17.8601 2.25445Q18.1782 1.70618 18.7097 1.37973Q19.2412 1.05328 19.9276 0.910982Q20.614 0.764498 21.3506 0.764498Q21.8445 0.764498 22.2295 0.806351Q22.6187 0.848203 22.8573 0.915167L22.8573 0.676607Q22.8573 0.0237055 22.4639 -0.36971Q22.0705 -0.763125 21.0911 -0.763125Q20.4424 -0.763125 19.8062 -0.666864Q19.1701 -0.574788 18.7097 -0.403192L18.3832 -2.45816Q18.6051 -2.52931 18.9399 -2.60464Q19.2747 -2.68416 19.6681 -2.74276Q20.0615 -2.80135 20.4968 -2.8432Q20.9363 -2.88924 21.3841 -2.88924ZM27.6234 -2.34097Q28.2722 -2.52931 29.3017 -2.69253Q30.3313 -2.85576 31.4613 -2.85576Q32.6123 -2.85576 33.374 -2.55442Q34.1357 -2.25308 34.5794 -1.70481Q35.0272 -1.15654 35.2155 -0.403192Q35.4039 0.350156 35.4039 1.2751L35.4039 6.36857L32.8508 6.36857L32.8508 1.58481Q32.8508 0.350156 32.5244 -0.160446Q32.1979 -0.675234 31.3065 -0.675234Q31.0344 -0.675234 30.7247 -0.650123Q30.415 -0.625011 30.1765 -0.591529L30.1765 6.36857L27.6234 6.36857L27.6234 -2.34097Z"/>
</svg>
