<?xml version="1.0" encoding="utf-8" ?>
<svg xmlns="http://www.w3.org/2000/svg" xmlns:xlink="http://www.w3.org/1999/xlink" width="110" height="110">
	<path fill="#A760B1" transform="matrix(1.42857 0 0 1.42857 55 47.8571)" d="M7.5 0Q7.5 0.184115 7.49097 0.368008Q7.48193 0.5519 7.46389 0.735129Q7.44584 0.918357 7.41882 1.10048Q7.39181 1.2826 7.35589 1.46318Q7.31997 1.64375 7.27523 1.82235Q7.2305 2.00095 7.17705 2.17713Q7.12361 2.35332 7.06158 2.52667Q6.99955 2.70003 6.9291 2.87013Q6.85864 3.04023 6.77992 3.20666Q6.7012 3.3731 6.61441 3.53548Q6.52762 3.69785 6.43296 3.85577Q6.33831 4.01369 6.23602 4.16678Q6.13373 4.31986 6.02406 4.46774Q5.91438 4.61563 5.79758 4.75795Q5.68078 4.90027 5.55713 5.03669Q5.43349 5.17311 5.3033 5.3033Q5.17311 5.43349 5.03669 5.55713Q4.90027 5.68078 4.75795 5.79758Q4.61563 5.91438 4.46774 6.02406Q4.31986 6.13373 4.16678 6.23602Q4.01369 6.33831 3.85577 6.43296Q3.69785 6.52762 3.53548 6.61441Q3.3731 6.7012 3.20666 6.77992Q3.04023 6.85864 2.87013 6.9291Q2.70003 6.99955 2.52667 7.06158Q2.35332 7.12361 2.17713 7.17705Q2.00095 7.2305 1.82235 7.27523Q1.64375 7.31997 1.46318 7.35589Q1.2826 7.39181 1.10048 7.41882Q0.918357 7.44584 0.735129 7.46389Q0.5519 7.48193 0.368008 7.49097Q0.184115 7.5 0 7.5Q-0.184115 7.5 -0.368008 7.49097Q-0.5519 7.48193 -0.735129 7.46389Q-0.918357 7.44584 -1.10048 7.41882Q-1.2826 7.39181 -1.46318 7.35589Q-1.64375 7.31997 -1.82235 7.27523Q-2.00095 7.2305 -2.17713 7.17705Q-2.35332 7.12361 -2.52667 7.06158Q-2.70003 6.99955 -2.87013 6.9291Q-3.04023 6.85864 -3.20666 6.77992Q-3.3731 6.7012 -3.53548 6.61441Q-3.69785 6.52762 -3.85577 6.43296Q-4.01369 6.33831 -4.16678 6.23602Q-4.31986 6.13373 -4.46774 6.02406Q-4.61563 5.91438 -4.75795 5.79758Q-4.90027 5.68078 -5.03669 5.55713Q-5.17311 5.43349 -5.3033 5.3033Q-5.43349 5.17311 -5.55713 5.03669Q-5.68078 4.90027 -5.79758 4.75795Q-5.91438 4.61563 -6.02406 4.46774Q-6.13373 4.31986 -6.23602 4.16678Q-6.33831 4.01369 -6.43296 3.85577Q-6.52762 3.69785 -6.61441 3.53548Q-6.7012 3.3731 -6.77992 3.20666Q-6.85864 3.04023 -6.9291 2.87013Q-6.99955 2.70003 -7.06158 2.52667Q-7.12361 2.35332 -7.17705 2.17713Q-7.2305 2.00095 -7.27523 1.82235Q-7.31997 1.64375 -7.35589 1.46318Q-7.39181 1.2826 -7.41882 1.10048Q-7.44584 0.918357 -7.46389 0.735129Q-7.48193 0.5519 -7.49097 0.368008Q-7.5 0.184115 -7.5 0Q-7.5 -0.184115 -7.49097 -0.368008Q-7.48193 -0.5519 -7.46389 -0.735129Q-7.44584 -0.918357 -7.41882 -1.10048Q-7.39181 -1.2826 -7.35589 -1.46318Q-7.31997 -1.64375 -7.27523 -1.82235Q-7.2305 -2.00095 -7.17705 -2.17713Q-7.12361 -2.35332 -7.06158 -2.52667Q-6.99955 -2.70003 -6.9291 -2.87013Q-6.85864 -3.04023 -6.77992 -3.20666Q-6.7012 -3.3731 -6.61441 -3.53548Q-6.52762 -3.69785 -6.43296 -3.85577Q-6.33831 -4.01369 -6.23602 -4.16678Q-6.13373 -4.31986 -6.02406 -4.46774Q-5.91438 -4.61563 -5.79758 -4.75795Q-5.68078 -4.90027 -5.55713 -5.03669Q-5.43349 -5.17311 -5.3033 -5.3033Q-5.17311 -5.43349 -5.03669 -5.55713Q-4.90027 -5.68078 -4.75795 -5.79758Q-4.61563 -5.91438 -4.46774 -6.02406Q-4.31986 -6.13373 -4.16678 -6.23602Q-4.01369 -6.33831 -3.85577 -6.43296Q-3.69785 -6.52762 -3.53548 -6.61441Q-3.3731 -6.7012 -3.20666 -6.77992Q-3.04023 -6.85864 -2.87013 -6.9291Q-2.70003 -6.99955 -2.52667 -7.06158Q-2.35332 -7.12361 -2.17713 -7.17705Q-2.00095 -7.2305 -1.82235 -7.27523Q-1.64375 -7.31997 -1.46318 -7.35589Q-1.2826 -7.39181 -1.10048 -7.41882Q-0.918357 -7.44584 -0.735129 -7.46389Q-0.5519 -7.48193 -0.368008 -7.49097Q-0.184115 -7.5 0 -7.5Q0.184115 -7.5 0.368008 -7.49097Q0.5519 -7.48193 0.735129 -7.46389Q0.918357 -7.44584 1.10048 -7.41882Q1.2826 -7.39181 1.46318 -7.35589Q1.64375 -7.31997 1.82235 -7.27523Q2.00095 -7.2305 2.17713 -7.17705Q2.35332 -7.12361 2.52667 -7.06158Q2.70003 -6.99955 2.87013 -6.9291Q3.04023 -6.85864 3.20666 -6.77992Q3.3731 -6.7012 3.53548 -6.61441Q3.69785 -6.52762 3.85577 -6.43296Q4.01369 -6.33831 4.16678 -6.23602Q4.31986 -6.13373 4.46774 -6.02406Q4.61563 -5.91438 4.75795 -5.79758Q4.90027 -5.68078 5.03669 -5.55713Q5.17311 -5.43349 5.3033 -5.3033Q5.43349 -5.17311 5.55713 -5.03669Q5.68078 -4.90027 5.79758 -4.75795Q5.91438 -4.61563 6.02406 -4.46774Q6.13373 -4.31986 6.23602 -4.16678Q6.33831 -4.01369 6.43296 -3.85577Q6.52762 -3.69785 6.61441 -3.53548Q6.7012 -3.3731 6.77992 -3.20666Q6.85864 -3.04023 6.9291 -2.87013Q6.99955 -2.70003 7.06158 -2.52667Q7.12361 -2.35332 7.17705 -2.17713Q7.2305 -2.00095 7.27523 -1.82235Q7.31997 -1.64375 7.35589 -1.46318Q7.39181 -1.2826 7.41882 -1.10048Q7.44584 -0.918357 7.46389 -0.735129Q7.48193 -0.5519 7.49097 -0.368008Q7.5 -0.184115 7.5 0"/>
	<path fill="#CE76DB" transform="matrix(1.42857 0 0 1.42857 55 47.8571)" d="M4.5 0Q4.5 0.110469 4.49458 0.220805Q4.48916 0.33114 4.47833 0.441077Q4.4675 0.551014 4.45129 0.660287Q4.43509 0.76956 4.41353 0.877906Q4.39198 0.986253 4.36514 1.09341Q4.3383 1.20057 4.30623 1.30628Q4.27416 1.41199 4.23695 1.516Q4.19973 1.62002 4.15746 1.72208Q4.11518 1.82414 4.06795 1.924Q4.02072 2.02386 3.96865 2.12129Q3.91657 2.21871 3.85978 2.31346Q3.80299 2.40821 3.74161 2.50007Q3.68024 2.59192 3.61443 2.68065Q3.54863 2.76938 3.47855 2.85477Q3.40847 2.94016 3.33428 3.02202Q3.26009 3.10387 3.18198 3.18198Q3.10387 3.26009 3.02202 3.33428Q2.94016 3.40847 2.85477 3.47855Q2.76938 3.54863 2.68065 3.61443Q2.59192 3.68024 2.50007 3.74161Q2.40821 3.80299 2.31346 3.85978Q2.21871 3.91657 2.12129 3.96865Q2.02386 4.02072 1.924 4.06795Q1.82414 4.11518 1.72208 4.15746Q1.62002 4.19973 1.516 4.23695Q1.41199 4.27416 1.30628 4.30623Q1.20057 4.3383 1.09341 4.36514Q0.986253 4.39198 0.877906 4.41353Q0.76956 4.43508 0.660287 4.45129Q0.551014 4.4675 0.441077 4.47833Q0.33114 4.48916 0.220805 4.49458Q0.110469 4.5 0 4.5Q-0.110469 4.5 -0.220805 4.49458Q-0.33114 4.48916 -0.441077 4.47833Q-0.551014 4.4675 -0.660287 4.45129Q-0.76956 4.43509 -0.877906 4.41353Q-0.986253 4.39198 -1.09341 4.36514Q-1.20057 4.3383 -1.30628 4.30623Q-1.41199 4.27416 -1.516 4.23695Q-1.62002 4.19973 -1.72208 4.15746Q-1.82414 4.11518 -1.924 4.06795Q-2.02386 4.02072 -2.12129 3.96865Q-2.21871 3.91657 -2.31346 3.85978Q-2.40821 3.80299 -2.50007 3.74161Q-2.59192 3.68024 -2.68065 3.61443Q-2.76938 3.54863 -2.85477 3.47855Q-2.94016 3.40847 -3.02202 3.33428Q-3.10387 3.26009 -3.18198 3.18198Q-3.26009 3.10387 -3.33428 3.02202Q-3.40847 2.94016 -3.47855 2.85477Q-3.54863 2.76938 -3.61443 2.68065Q-3.68024 2.59192 -3.74161 2.50007Q-3.80299 2.40821 -3.85978 2.31346Q-3.91657 2.21871 -3.96865 2.12129Q-4.02072 2.02386 -4.06795 1.924Q-4.11518 1.82414 -4.15746 1.72208Q-4.19973 1.62002 -4.23695 1.516Q-4.27416 1.41199 -4.30623 1.30628Q-4.3383 1.20057 -4.36514 1.09341Q-4.39198 0.986253 -4.41353 0.877906Q-4.43508 0.76956 -4.45129 0.660287Q-4.4675 0.551014 -4.47833 0.441077Q-4.48916 0.33114 -4.49458 0.220805Q-4.5 0.110469 -4.5 0Q-4.5 -0.110469 -4.49458 -0.220805Q-4.48916 -0.33114 -4.47833 -0.441077Q-4.4675 -0.551014 -4.45129 -0.660287Q-4.43509 -0.76956 -4.41353 -0.877906Q-4.39198 -0.986253 -4.36514 -1.09341Q-4.3383 -1.20057 -4.30623 -1.30628Q-4.27416 -1.41199 -4.23695 -1.516Q-4.19973 -1.62002 -4.15746 -1.72208Q-4.11518 -1.82414 -4.06795 -1.924Q-4.02072 -2.02386 -3.96865 -2.12129Q-3.91657 -2.21871 -3.85978 -2.31346Q-3.80299 -2.40821 -3.74161 -2.50007Q-3.68024 -2.59192 -3.61443 -2.68065Q-3.54863 -2.76938 -3.47855 -2.85477Q-3.40847 -2.94016 -3.33428 -3.02202Q-3.26009 -3.10387 -3.18198 -3.18198Q-3.10387 -3.26009 -3.02202 -3.33428Q-2.94016 -3.40847 -2.85477 -3.47855Q-2.76938 -3.54863 -2.68065 -3.61443Q-2.59192 -3.68024 -2.50007 -3.74161Q-2.40821 -3.80299 -2.31346 -3.85978Q-2.21871 -3.91657 -2.12129 -3.96865Q-2.02386 -4.02072 -1.924 -4.06795Q-1.82414 -4.11518 -1.72208 -4.15746Q-1.62002 -4.19973 -1.516 -4.23695Q-1.41199 -4.27416 -1.30628 -4.30623Q-1.20057 -4.3383 -1.09341 -4.36514Q-0.986253 -4.39198 -0.877906 -4.41353Q-0.76956 -4.43508 -0.660287 -4.45129Q-0.551014 -4.4675 -0.441077 -4.47833Q-0.33114 -4.48916 -0.220805 -4.49458Q-0.110469 -4.5 0 -4.5Q0.110469 -4.5 0.220805 -4.49458Q0.33114 -4.48916 0.441077 -4.47833Q0.551014 -4.4675 0.660287 -4.45129Q0.76956 -4.43509 0.877906 -4.41353Q0.986253 -4.39198 1.09341 -4.36514Q1.20057 -4.3383 1.30628 -4.30623Q1.41199 -4.27416 1.516 -4.23695Q1.62002 -4.19973 1.72208 -4.15746Q1.82414 -4.11518 1.924 -4.06795Q2.02386 -4.02072 2.12129 -3.96865Q2.21871 -3.91657 2.31346 -3.85978Q2.40821 -3.80299 2.50007 -3.74161Q2.59192 -3.68024 2.68065 -3.61443Q2.76938 -3.54863 2.85477 -3.47855Q2.94016 -3.40847 3.02202 -3.33428Q3.10387 -3.26009 3.18198 -3.18198Q3.26009 -3.10387 3.33428 -3.02202Q3.40847 -2.94016 3.47855 -2.85477Q3.54863 -2.76938 3.61443 -2.68065Q3.68024 -2.59192 3.74161 -2.50007Q3.80299 -2.40821 3.85978 -2.31346Q3.91657 -2.21871 3.96865 -2.12129Q4.02072 -2.02386 4.06795 -1.924Q4.11518 -1.82414 4.15746 -1.72208Q4.19973 -1.62002 4.23695 -1.516Q4.27416 -1.41199 4.30623 -1.30628Q4.3383 -1.20057 4.36514 -1.09341Q4.39198 -0.986253 4.41353 -0.877906Q4.43508 -0.76956 4.45129 -0.660287Q4.4675 -0.551014 4.47833 -0.441077Q4.48916 -0.33114 4.49458 -0.220805Q4.5 -0.110469 4.5 0"/>
	<path fill="none" stroke="black" stroke-width="2.3999999" stroke-linejoin="round" transform="translate(55 79.2857)" d="M-13.5184 -6.4323L-10.3983 -6.4323L-10.3983 7.43L-13.5184 7.43L-13.5184 -6.4323ZM-1.06074 -0.45086Q-1.46113 -0.548516 -2.00312 -0.655938Q-2.54023 -0.768242 -3.16035 -0.768242Q-3.43867 -0.768242 -3.82929 -0.719414Q-4.21992 -0.670586 -4.42011 -0.611992L-4.42011 7.43L-7.39863 7.43L-7.39863 -2.53094Q-6.59785 -2.80926 -5.50898 -3.05828Q-4.42011 -3.31219 -3.08222 -3.31219Q-2.83808 -3.31219 -2.50117 -3.27801Q-2.15937 -3.24871 -1.82246 -3.19988Q-1.48066 -3.15105 -1.14375 -3.07781Q-0.801949 -3.00945 -0.557808 -2.9118L-1.06074 -0.45086ZM4.01987 7.43L1.04136 7.43L1.04136 -3.08758L4.01987 -3.08758L4.01987 7.43ZM4.29819 -6.12957Q4.29819 -5.30926 3.76597 -4.84051Q3.23862 -4.37176 2.52085 -4.37176Q1.79819 -4.37176 1.26597 -4.84051Q0.738625 -5.30926 0.738625 -6.12957Q0.738625 -6.94988 1.26597 -7.41863Q1.79819 -7.89227 2.52085 -7.89227Q3.23862 -7.89227 3.76597 -7.41863Q4.29819 -6.94988 4.29819 -6.12957ZM9.83894 5.29133Q10.6592 5.29133 10.9962 5.1302Q11.338 4.96906 11.338 4.51008Q11.338 4.14875 10.8985 3.8802Q10.4591 3.61164 9.56062 3.26984Q8.86237 3.01105 8.29108 2.73273Q7.7198 2.44953 7.3194 2.05891Q6.91901 1.66828 6.69929 1.13117Q6.47956 0.58918 6.47956 -0.167656Q6.47956 -1.65203 7.57819 -2.51141Q8.68171 -3.37078 10.6007 -3.37078Q11.5577 -3.37078 12.4366 -3.19988Q13.3204 -3.02898 13.838 -2.82879L13.3204 -0.509453Q12.7979 -0.690117 12.1876 -0.826836Q11.5821 -0.968438 10.8204 -0.968438Q9.41901 -0.968438 9.41901 -0.19207Q9.41901 -0.0114064 9.47761 0.130195Q9.54108 0.271797 9.72175 0.403633Q9.90241 0.530586 10.21 0.681953Q10.5176 0.828437 11.001 1.0091Q11.9776 1.37043 12.6173 1.72199Q13.2618 2.06867 13.628 2.47883Q13.9991 2.88898 14.1505 3.39191Q14.3018 3.88996 14.3018 4.54914Q14.3018 6.11164 13.13 6.91242Q11.9581 7.70832 9.8194 7.70832Q8.41804 7.70832 7.48542 7.46906Q6.55769 7.2298 6.20124 7.06867L6.69929 4.65168Q7.46101 4.94953 8.2569 5.12043Q9.05769 5.29133 9.83894 5.29133Z"/>
	<path fill="white" transform="translate(55 79.2857)" d="M-13.5184 -6.4323L-10.3983 -6.4323L-10.3983 7.43L-13.5184 7.43L-13.5184 -6.4323ZM-1.06074 -0.45086Q-1.46113 -0.548516 -2.00312 -0.655938Q-2.54023 -0.768242 -3.16035 -0.768242Q-3.43867 -0.768242 -3.82929 -0.719414Q-4.21992 -0.670586 -4.42011 -0.611992L-4.42011 7.43L-7.39863 7.43L-7.39863 -2.53094Q-6.59785 -2.80926 -5.50898 -3.05828Q-4.42011 -3.31219 -3.08222 -3.31219Q-2.83808 -3.31219 -2.50117 -3.27801Q-2.15937 -3.24871 -1.82246 -3.19988Q-1.48066 -3.15105 -1.14375 -3.07781Q-0.801949 -3.00945 -0.557808 -2.9118L-1.06074 -0.45086ZM4.01987 7.43L1.04136 7.43L1.04136 -3.08758L4.01987 -3.08758L4.01987 7.43ZM4.29819 -6.12957Q4.29819 -5.30926 3.76597 -4.84051Q3.23862 -4.37176 2.52085 -4.37176Q1.79819 -4.37176 1.26597 -4.84051Q0.738625 -5.30926 0.738625 -6.12957Q0.738625 -6.94988 1.26597 -7.41863Q1.79819 -7.89227 2.52085 -7.89227Q3.23862 -7.89227 3.76597 -7.41863Q4.29819 -6.94988 4.29819 -6.12957ZM9.83894 5.29133Q10.6592 5.29133 10.9962 5.1302Q11.338 4.96906 11.338 4.51008Q11.338 4.14875 10.8985 3.8802Q10.4591 3.61164 9.56062 3.26984Q8.86237 3.01105 8.29108 2.73273Q7.7198 2.44953 7.3194 2.05891Q6.91901 1.66828 6.69929 1.13117Q6.47956 0.58918 6.47956 -0.167656Q6.47956 -1.65203 7.57819 -2.51141Q8.68171 -3.37078 10.6007 -3.37078Q11.5577 -3.37078 12.4366 -3.19988Q13.3204 -3.02898 13.838 -2.82879L13.3204 -0.509453Q12.7979 -0.690117 12.1876 -0.826836Q11.5821 -0.968438 10.8204 -0.968438Q9.41901 -0.968438 9.41901 -0.19207Q9.41901 -0.0114064 9.47761 0.130195Q9.54108 0.271797 9.72175 0.403633Q9.90241 0.530586 10.21 0.681953Q10.5176 0.828437 11.001 1.0091Q11.9776 1.37043 12.6173 1.72199Q13.2618 2.06867 13.628 2.47883Q13.9991 2.88898 14.1505 3.39191Q14.3018 3.88996 14.3018 4.54914Q14.3018 6.11164 13.13 6.91242Q11.9581 7.70832 9.8194 7.70832Q8.41804 7.70832 7.48542 7.46906Q6.55769 7.2298 6.20124 7.06867L6.69929 4.65168Q7.46101 4.94953 8.2569 5.12043Q9.05769 5.29133 9.83894 5.29133Z"/>
</svg>
