<?xml version="1.0" encoding="utf-8" ?>
<svg xmlns="http://www.w3.org/2000/svg" xmlns:xlink="http://www.w3.org/1999/xlink" width="110" height="110">
	<path fill="#BDC3C7" transform="matrix(0.77186 -1.2021 1.2021 0.77186 55 47.8571)" d="M14 0Q14 0.343681 13.9831 0.686947Q13.9663 1.03021 13.9326 1.37224Q13.8989 1.71427 13.8485 2.05423Q13.798 2.39419 13.731 2.73126Q13.6639 3.06834 13.5804 3.40172Q13.4969 3.7351 13.3972 4.06398Q13.2974 4.39287 13.1816 4.71646Q13.0658 5.04005 12.9343 5.35757Q12.8028 5.67509 12.6558 5.98577Q12.5089 6.29645 12.3469 6.59955Q12.1849 6.90265 12.0082 7.19744Q11.8315 7.49222 11.6406 7.77798Q11.4496 8.06374 11.2449 8.33979Q11.0402 8.61584 10.8221 8.88151Q10.6041 9.14717 10.3733 9.40182Q10.1425 9.65648 9.89949 9.89949Q9.65648 10.1425 9.40182 10.3733Q9.14717 10.6041 8.88151 10.8221Q8.61584 11.0402 8.33979 11.2449Q8.06374 11.4496 7.77798 11.6406Q7.49222 11.8315 7.19744 12.0082Q6.90265 12.1849 6.59955 12.3469Q6.29645 12.5089 5.98577 12.6558Q5.67509 12.8028 5.35757 12.9343Q5.04005 13.0658 4.71646 13.1816Q4.39287 13.2974 4.06399 13.3972Q3.7351 13.4969 3.40172 13.5804Q3.06834 13.6639 2.73126 13.731Q2.39419 13.798 2.05423 13.8485Q1.71427 13.8989 1.37224 13.9326Q1.03021 13.9663 0.686947 13.9831Q0.343681 14 0 14Q-0.343681 14 -0.686947 13.9831Q-1.03021 13.9663 -1.37224 13.9326Q-1.71427 13.8989 -2.05423 13.8485Q-2.39419 13.798 -2.73126 13.731Q-3.06834 13.6639 -3.40172 13.5804Q-3.7351 13.4969 -4.06398 13.3972Q-4.39287 13.2974 -4.71646 13.1816Q-5.04005 13.0658 -5.35757 12.9343Q-5.67509 12.8028 -5.98577 12.6558Q-6.29645 12.5089 -6.59955 12.3469Q-6.90265 12.1849 -7.19744 12.0082Q-7.49222 11.8315 -7.77798 11.6406Q-8.06374 11.4496 -8.33979 11.2449Q-8.61584 11.0402 -8.88151 10.8221Q-9.14717 10.6041 -9.40182 10.3733Q-9.65648 10.1425 -9.89949 9.89949Q-10.1425 9.65648 -10.3733 9.40182Q-10.6041 9.14717 -10.8221 8.88151Q-11.0402 8.61584 -11.2449 8.33979Q-11.4496 8.06374 -11.6406 7.77798Q-11.8315 7.49222 -12.0082 7.19744Q-12.1849 6.90265 -12.3469 6.59955Q-12.5089 6.29645 -12.6558 5.98577Q-12.8028 5.67509 -12.9343 5.35757Q-13.0658 5.04005 -13.1816 4.71646Q-13.2974 4.39287 -13.3972 4.06399Q-13.4969 3.7351 -13.5804 3.40172Q-13.6639 3.06834 -13.731 2.73126Q-13.798 2.39419 -13.8485 2.05423Q-13.8989 1.71427 -13.9326 1.37224Q-13.9663 1.03021 -13.9831 0.686947Q-14 0.343681 -14 0Q-14 -0.343681 -13.9831 -0.686947Q-13.9663 -1.03021 -13.9326 -1.37224Q-13.8989 -1.71427 -13.8485 -2.05423Q-13.798 -2.39419 -13.731 -2.73126Q-13.6639 -3.06834 -13.5804 -3.40172Q-13.4969 -3.7351 -13.3972 -4.06398Q-13.2974 -4.39287 -13.1816 -4.71646Q-13.0658 -5.04005 -12.9343 -5.35757Q-12.8028 -5.67509 -12.6558 -5.98577Q-12.5089 -6.29645 -12.3469 -6.59955Q-12.1849 -6.90265 -12.0082 -7.19744Q-11.8315 -7.49222 -11.6406 -7.77798Q-11.4496 -8.06374 -11.2449 -8.33979Q-11.0402 -8.61584 -10.8221 -8.88151Q-10.6041 -9.14717 -10.3733 -9.40182Q-10.1425 -9.65648 -9.89949 -9.89949Q-9.65648 -10.1425 -9.40182 -10.3733Q-9.14717 -10.6041 -8.88151 -10.8221Q-8.61584 -11.0402 -8.33979 -11.2449Q-8.06374 -11.4496 -7.77798 -11.6406Q-7.49222 -11.8315 -7.19744 -12.0082Q-6.90265 -12.1849 -6.59955 -12.3469Q-6.29645 -12.5089 -5.98577 -12.6558Q-5.67509 -12.8028 -5.35757 -12.9343Q-5.04005 -13.0658 -4.71646 -13.1816Q-4.39287 -13.2974 -4.06399 -13.3972Q-3.7351 -13.4969 -3.40172 -13.5804Q-3.06834 -13.6639 -2.73126 -13.731Q-2.39419 -13.798 -2.05423 -13.8485Q-1.71427 -13.8989 -1.37224 -13.9326Q-1.03021 -13.9663 -0.686947 -13.9831Q-0.343681 -14 0 -14Q0.343681 -14 0.686947 -13.9831Q1.03021 -13.9663 1.37224 -13.9326Q1.71427 -13.8989 2.05423 -13.8485Q2.39419 -13.798 2.73126 -13.731Q3.06834 -13.6639 3.40172 -13.5804Q3.7351 -13.4969 4.06398 -13.3972Q4.39287 -13.2974 4.71646 -13.1816Q5.04005 -13.0658 5.35757 -12.9343Q5.67509 -12.8028 5.98577 -12.6558Q6.29645 -12.5089 6.59955 -12.3469Q6.90265 -12.1849 7.19744 -12.0082Q7.49222 -11.8315 7.77798 -11.6406Q8.06374 -11.4496 8.33979 -11.2449Q8.61584 -11.0402 8.88151 -10.8221Q9.14717 -10.6041 9.40182 -10.3733Q9.65648 -10.1425 9.89949 -9.89949Q10.1425 -9.65648 10.3733 -9.40182Q10.6041 -9.14717 10.8221 -8.88151Q11.0402 -8.61584 11.2449 -8.33979Q11.4496 -8.06374 11.6406 -7.77798Q11.8315 -7.49222 12.0082 -7.19744Q12.1849 -6.90265 12.3469 -6.59955Q12.5089 -6.29645 12.6558 -5.98577Q12.8028 -5.67509 12.9343 -5.35757Q13.0658 -5.04005 13.1816 -4.71646Q13.2974 -4.39287 13.3972 -4.06399Q13.4969 -3.7351 13.5804 -3.40172Q13.6639 -3.06834 13.731 -2.73126Q13.798 -2.39419 13.8485 -2.05423Q13.8989 -1.71427 13.9326 -1.37224Q13.9663 -1.03021 13.9831 -0.686947Q14 -0.343681 14 0"/>
	<path fill="#3498DB" transform="matrix(0.77186 -1.2021 1.2021 0.77186 55 47.8571)" d="M11 0Q11 0.270035 10.9867 0.539744Q10.9735 0.809454 10.947 1.07819Q10.9206 1.34692 10.8809 1.61403Q10.8413 1.88115 10.7886 2.14599Q10.736 2.41084 10.6703 2.67278Q10.6047 2.93472 10.5263 3.19313Q10.448 3.45154 10.357 3.70579Q10.266 3.96004 10.1627 4.20952Q10.0593 4.459 9.94388 4.70311Q9.82843 4.94721 9.70113 5.18536Q9.57384 5.42351 9.43501 5.65513Q9.29619 5.88675 9.14616 6.11127Q8.99614 6.3358 8.83528 6.55269Q8.67442 6.76959 8.50311 6.97833Q8.33181 7.18707 8.15046 7.38715Q7.96912 7.58723 7.77817 7.77817Q7.58723 7.96912 7.38715 8.15046Q7.18707 8.33181 6.97833 8.50311Q6.76959 8.67442 6.55269 8.83528Q6.3358 8.99614 6.11127 9.14616Q5.88675 9.29619 5.65513 9.43501Q5.42351 9.57384 5.18536 9.70113Q4.94721 9.82843 4.70311 9.94388Q4.459 10.0593 4.20952 10.1627Q3.96004 10.266 3.70579 10.357Q3.45154 10.448 3.19313 10.5263Q2.93472 10.6047 2.67278 10.6703Q2.41084 10.736 2.14599 10.7886Q1.88115 10.8413 1.61403 10.8809Q1.34692 10.9206 1.07819 10.947Q0.809454 10.9735 0.539744 10.9868Q0.270035 11 0 11Q-0.270035 11 -0.539744 10.9867Q-0.809454 10.9735 -1.07819 10.947Q-1.34692 10.9206 -1.61403 10.8809Q-1.88115 10.8413 -2.14599 10.7886Q-2.41084 10.736 -2.67278 10.6703Q-2.93472 10.6047 -3.19313 10.5263Q-3.45154 10.448 -3.70579 10.357Q-3.96004 10.266 -4.20952 10.1627Q-4.459 10.0593 -4.70311 9.94388Q-4.94721 9.82843 -5.18536 9.70113Q-5.42351 9.57384 -5.65513 9.43501Q-5.88675 9.29619 -6.11127 9.14616Q-6.3358 8.99614 -6.55269 8.83528Q-6.76959 8.67442 -6.97833 8.50311Q-7.18707 8.33181 -7.38715 8.15046Q-7.58723 7.96912 -7.77817 7.77817Q-7.96912 7.58723 -8.15046 7.38715Q-8.33181 7.18707 -8.50311 6.97833Q-8.67442 6.76959 -8.83528 6.55269Q-8.99614 6.3358 -9.14616 6.11127Q-9.29619 5.88675 -9.43501 5.65513Q-9.57384 5.42351 -9.70113 5.18536Q-9.82843 4.94721 -9.94388 4.70311Q-10.0593 4.459 -10.1627 4.20952Q-10.266 3.96004 -10.357 3.70579Q-10.448 3.45154 -10.5263 3.19313Q-10.6047 2.93472 -10.6703 2.67278Q-10.736 2.41084 -10.7886 2.14599Q-10.8413 1.88115 -10.8809 1.61403Q-10.9206 1.34692 -10.947 1.07819Q-10.9735 0.809454 -10.9868 0.539744Q-11 0.270035 -11 0Q-11 -0.270035 -10.9867 -0.539744Q-10.9735 -0.809454 -10.947 -1.07819Q-10.9206 -1.34692 -10.8809 -1.61403Q-10.8413 -1.88115 -10.7886 -2.14599Q-10.736 -2.41084 -10.6703 -2.67278Q-10.6047 -2.93472 -10.5263 -3.19313Q-10.448 -3.45154 -10.357 -3.70579Q-10.266 -3.96004 -10.1627 -4.20952Q-10.0593 -4.459 -9.94388 -4.70311Q-9.82843 -4.94721 -9.70113 -5.18536Q-9.57384 -5.42351 -9.43501 -5.65513Q-9.29619 -5.88675 -9.14616 -6.11127Q-8.99614 -6.3358 -8.83528 -6.55269Q-8.67442 -6.76959 -8.50311 -6.97833Q-8.33181 -7.18707 -8.15046 -7.38715Q-7.96912 -7.58723 -7.77817 -7.77817Q-7.58723 -7.96912 -7.38715 -8.15046Q-7.18707 -8.33181 -6.97833 -8.50311Q-6.76959 -8.67442 -6.55269 -8.83528Q-6.3358 -8.99614 -6.11127 -9.14616Q-5.88675 -9.29619 -5.65513 -9.43501Q-5.42351 -9.57384 -5.18536 -9.70113Q-4.94721 -9.82843 -4.70311 -9.94388Q-4.459 -10.0593 -4.20952 -10.1627Q-3.96004 -10.266 -3.70579 -10.357Q-3.45154 -10.448 -3.19313 -10.5263Q-2.93472 -10.6047 -2.67278 -10.6703Q-2.41084 -10.736 -2.14599 -10.7886Q-1.88115 -10.8413 -1.61403 -10.8809Q-1.34692 -10.9206 -1.07819 -10.947Q-0.809454 -10.9735 -0.539744 -10.9868Q-0.270035 -11 0 -11Q0.270035 -11 0.539744 -10.9867Q0.809454 -10.9735 1.07819 -10.947Q1.34692 -10.9206 1.61403 -10.8809Q1.88115 -10.8413 2.14599 -10.7886Q2.41084 -10.736 2.67278 -10.6703Q2.93472 -10.6047 3.19313 -10.5263Q3.45154 -10.448 3.70579 -10.357Q3.96004 -10.266 4.20952 -10.1627Q4.459 -10.0593 4.70311 -9.94388Q4.94721 -9.82843 5.18536 -9.70113Q5.42351 -9.57384 5.65513 -9.43501Q5.88675 -9.29619 6.11127 -9.14616Q6.3358 -8.99614 6.55269 -8.83528Q6.76959 -8.67442 6.97833 -8.50311Q7.18707 -8.33181 7.38715 -8.15046Q7.58723 -7.96912 7.77817 -7.77817Q7.96912 -7.58723 8.15046 -7.38715Q8.33181 -7.18707 8.50311 -6.97833Q8.67442 -6.76959 8.83528 -6.55269Q8.99614 -6.3358 9.14616 -6.11127Q9.29619 -5.88675 9.43501 -5.65513Q9.57384 -5.42351 9.70113 -5.18536Q9.82843 -4.94721 9.94388 -4.70311Q10.0593 -4.459 10.1627 -4.20952Q10.266 -3.96004 10.357 -3.70579Q10.448 -3.45154 10.5263 -3.19313Q10.6047 -2.93472 10.6703 -2.67278Q10.736 -2.41084 10.7886 -2.14599Q10.8413 -1.88115 10.8809 -1.61403Q10.9206 -1.34692 10.947 -1.07819Q10.9735 -0.809454 10.9868 -0.539744Q11 -0.270035 11 0"/>
	<path fill="#E74C3C" transform="matrix(0.77186 -1.2021 1.2021 0.77186 55 47.8571)" d="M11 0L0 -4L0 4L11 0Z"/>
	<path fill="#ECF0F1" transform="matrix(0.77186 -1.2021 1.2021 0.77186 55 47.8571)" d="M-11 0L0 -4L0 4L-11 0Z"/>
	<path fill="#BDC3C7" transform="matrix(0.77186 -1.2021 1.2021 0.77186 55 47.8571)" d="M2.8 0Q2.8 0.137555 2.78652 0.274448Q2.77303 0.411341 2.7462 0.546253Q2.71936 0.681165 2.67943 0.812797Q2.6395 0.944429 2.58686 1.07151Q2.53422 1.1986 2.46938 1.31991Q2.40454 1.44122 2.32811 1.5556Q2.25169 1.66997 2.16443 1.7763Q2.07717 1.88263 1.9799 1.9799Q1.88263 2.07717 1.7763 2.16443Q1.66997 2.25169 1.5556 2.32811Q1.44122 2.40454 1.31991 2.46938Q1.1986 2.53422 1.07151 2.58686Q0.944429 2.6395 0.812797 2.67943Q0.681165 2.71936 0.546253 2.7462Q0.411341 2.77303 0.274448 2.78652Q0.137555 2.8 0 2.8Q-0.137555 2.8 -0.274448 2.78652Q-0.411341 2.77303 -0.546253 2.7462Q-0.681165 2.71936 -0.812797 2.67943Q-0.944429 2.6395 -1.07151 2.58686Q-1.1986 2.53422 -1.31991 2.46938Q-1.44122 2.40454 -1.5556 2.32811Q-1.66997 2.25169 -1.7763 2.16443Q-1.88263 2.07717 -1.9799 1.9799Q-2.07717 1.88263 -2.16443 1.7763Q-2.25169 1.66997 -2.32811 1.5556Q-2.40454 1.44122 -2.46938 1.31991Q-2.53422 1.1986 -2.58686 1.07151Q-2.6395 0.944429 -2.67943 0.812797Q-2.71936 0.681165 -2.7462 0.546253Q-2.77303 0.411341 -2.78652 0.274448Q-2.8 0.137555 -2.8 0Q-2.8 -0.137555 -2.78652 -0.274448Q-2.77303 -0.411341 -2.7462 -0.546253Q-2.71936 -0.681165 -2.67943 -0.812797Q-2.6395 -0.944429 -2.58686 -1.07151Q-2.53422 -1.1986 -2.46938 -1.31991Q-2.40454 -1.44122 -2.32811 -1.5556Q-2.25169 -1.66997 -2.16443 -1.7763Q-2.07717 -1.88263 -1.9799 -1.9799Q-1.88263 -2.07717 -1.7763 -2.16443Q-1.66997 -2.25169 -1.5556 -2.32811Q-1.44122 -2.40454 -1.31991 -2.46938Q-1.1986 -2.53422 -1.07151 -2.58686Q-0.944429 -2.6395 -0.812797 -2.67943Q-0.681165 -2.71936 -0.546253 -2.7462Q-0.411341 -2.77303 -0.274448 -2.78652Q-0.137555 -2.8 0 -2.8Q0.137555 -2.8 0.274448 -2.78652Q0.411341 -2.77303 0.546253 -2.7462Q0.681165 -2.71936 0.812797 -2.67943Q0.944429 -2.6395 1.07151 -2.58686Q1.1986 -2.53422 1.31991 -2.46938Q1.44122 -2.40454 1.5556 -2.32811Q1.66997 -2.25169 1.7763 -2.16443Q1.88263 -2.07717 1.9799 -1.9799Q2.07717 -1.88263 2.16443 -1.7763Q2.25169 -1.66997 2.32811 -1.5556Q2.40454 -1.44122 2.46938 -1.31991Q2.53422 -1.1986 2.58686 -1.07151Q2.6395 -0.944429 2.67943 -0.812797Q2.71936 -0.681165 2.7462 -0.546253Q2.77303 -0.411341 2.78652 -0.274448Q2.8 -0.137555 2.8 0"/>
	<path fill="none" stroke="black" stroke-width="2.0571427" stroke-linejoin="round" transform="translate(55 79.2857)" d="M-29.5839 6.60713Q-32.4801 6.60713 -33.9994 4.9958Q-35.5144 3.38448 -35.5144 0.421306Q-35.5144 -1.05609 -35.054 -2.21123Q-34.5895 -3.37055 -33.7859 -4.16575Q-32.9782 -4.96095 -31.8649 -5.3711Q-30.7516 -5.78545 -29.4458 -5.78545Q-28.6924 -5.78545 -28.0772 -5.67244Q-27.4578 -5.56363 -26.9974 -5.41714Q-26.5328 -5.27066 -26.2231 -5.1158Q-25.9134 -4.96095 -25.7795 -4.87724L-26.5496 -2.71764Q-27.0979 -3.01061 -27.8261 -3.21569Q-28.5543 -3.42077 -29.4793 -3.42077Q-30.0987 -3.42077 -30.6888 -3.21569Q-31.2789 -3.01061 -31.7351 -2.55442Q-32.1913 -2.09823 -32.4676 -1.37836Q-32.7396 -0.658493 -32.7396 0.366898Q-32.7396 1.1914 -32.5596 1.90289Q-32.3797 2.61439 -31.9779 3.12917Q-31.5719 3.64396 -30.9232 3.9453Q-30.2703 4.24246 -29.3453 4.24246Q-28.7594 4.24246 -28.299 4.17549Q-27.8345 4.10434 -27.4745 4.01227Q-27.1146 3.916 -26.8426 3.79882Q-26.5663 3.67744 -26.3445 3.57281L-25.6079 5.71567Q-26.1729 6.05886 -27.2025 6.33509Q-28.2279 6.60713 -29.5839 6.60713ZM-15.6308 1.8443Q-15.6308 2.90735 -15.9405 3.79045Q-16.2502 4.66935 -16.832 5.29714Q-17.4137 5.92493 -18.2298 6.26813Q-19.0418 6.60713 -20.0546 6.60713Q-21.0465 6.60713 -21.8627 6.26813Q-22.6788 5.92493 -23.2605 5.29714Q-23.8423 4.66935 -24.1687 3.79045Q-24.4952 2.90735 -24.4952 1.8443Q-24.4952 0.781239 -24.1604 -0.093482Q-23.8255 -0.968203 -23.2354 -1.58344Q-22.6411 -2.20286 -21.8292 -2.54605Q-21.013 -2.88924 -20.0546 -2.88924Q-19.0753 -2.88924 -18.2633 -2.54605Q-17.4472 -2.20286 -16.8654 -1.58344Q-16.2837 -0.968203 -15.9572 -0.093482Q-15.6308 0.781239 -15.6308 1.8443ZM-18.2382 1.8443Q-18.2382 0.659866 -18.7111 -0.0181475Q-19.1799 -0.696161 -20.0546 -0.696161Q-20.9293 -0.696161 -21.4106 -0.0181475Q-21.8878 0.659866 -21.8878 1.8443Q-21.8878 3.02454 -21.4106 3.7193Q-20.9293 4.41405 -20.0546 4.41405Q-19.1799 4.41405 -18.7111 3.7193Q-18.2382 3.02454 -18.2382 1.8443ZM-8.70857 1.58481Q-8.70857 0.350156 -9.02665 -0.160446Q-9.34055 -0.675234 -10.1106 -0.675234Q-10.3534 -0.675234 -10.6129 -0.650123Q-10.8682 -0.625011 -11.1067 -0.591529L-11.1067 6.36857L-13.6597 6.36857L-13.6597 -2.34097Q-13.3333 -2.42468 -12.898 -2.51675Q-12.4628 -2.61301 -11.9731 -2.68835Q-11.4834 -2.76787 -10.9686 -2.80972Q-10.4538 -2.85576 -9.95997 -2.85576Q-8.98062 -2.85576 -8.37375 -2.60464Q-7.7627 -2.35771 -7.36929 -2.01452Q-6.82102 -2.40794 -6.10952 -2.62975Q-5.39803 -2.85576 -4.79953 -2.85576Q-3.71973 -2.85576 -3.02498 -2.55442Q-2.33022 -2.25308 -1.92007 -1.70481Q-1.50573 -1.15654 -1.35087 -0.403192Q-1.19602 0.350156 -1.19602 1.2751L-1.19602 6.36857L-3.75322 6.36857L-3.75322 1.58481Q-3.75322 0.350156 -4.0713 -0.160446Q-4.38519 -0.675234 -5.15947 -0.675234Q-5.36454 -0.675234 -5.73285 -0.570602Q-6.10115 -0.470156 -6.33971 -0.315301Q-6.22252 0.078114 -6.18904 0.517567Q-6.15137 0.952835 -6.15137 1.4467L-6.15137 6.36857L-8.70857 6.36857L-8.70857 1.58481ZM6.89115 1.928Q6.89115 0.747757 6.35962 0.0362611Q5.82809 -0.675234 4.78177 -0.675234Q4.43858 -0.675234 4.14561 -0.650123Q3.85683 -0.625011 3.66849 -0.591529L3.66849 4.02064Q3.90705 4.17549 4.2921 4.28012Q4.68133 4.38057 5.07474 4.38057Q6.89115 4.38057 6.89115 1.928ZM9.49857 1.86104Q9.49857 2.90735 9.23908 3.76533Q8.98378 4.61913 8.48573 5.23855Q7.98769 5.85378 7.25108 6.19698Q6.51447 6.54017 5.55605 6.54017Q5.02452 6.54017 4.55995 6.43554Q4.09539 6.33509 3.66849 6.14675L3.66849 9.541L1.11548 9.541L1.11548 -2.34097Q1.45867 -2.44142 1.90231 -2.53349Q2.35013 -2.62975 2.83562 -2.69672Q3.3253 -2.76787 3.83172 -2.80972Q4.33813 -2.85576 4.79851 -2.85576Q5.91598 -2.85576 6.78652 -2.52094Q7.66124 -2.18612 8.25973 -1.57507Q8.86241 -0.968203 9.18049 -0.093482Q9.49857 0.781239 9.49857 1.86104ZM14.9129 4.58565Q15.2896 4.58565 15.6328 4.56891Q15.9759 4.55217 16.181 4.51868L16.181 2.5809Q16.0262 2.54742 15.7165 2.51394Q15.4109 2.47627 15.1514 2.47627Q14.7915 2.47627 14.4734 2.52231Q14.1595 2.56416 13.9168 2.68554Q13.6782 2.80272 13.5401 3.0078Q13.4062 3.21288 13.4062 3.52259Q13.4062 4.12108 13.808 4.35546Q14.2098 4.58565 14.9129 4.58565ZM14.7078 -2.88924Q15.8378 -2.88924 16.5912 -2.62975Q17.3487 -2.37445 17.8007 -1.89315Q18.2569 -1.41603 18.4453 -0.729643Q18.6336 -0.0432587 18.6336 0.79798L18.6336 6.11327Q18.0853 6.23046 17.106 6.39368Q16.1308 6.55691 14.7413 6.55691Q13.8666 6.55691 13.1551 6.40205Q12.4436 6.2472 11.9288 5.89564Q11.414 5.54407 11.1378 4.97906Q10.8657 4.41405 10.8657 3.58955Q10.8657 2.80272 11.1838 2.25445Q11.5019 1.70618 12.0334 1.37973Q12.565 1.05328 13.2513 0.910982Q13.9377 0.764498 14.6743 0.764498Q15.1682 0.764498 15.5532 0.806351Q15.9425 0.848203 16.181 0.915167L16.181 0.676607Q16.181 0.0237055 15.7876 -0.36971Q15.3942 -0.763125 14.4148 -0.763125Q13.7661 -0.763125 13.13 -0.666864Q12.4938 -0.574788 12.0334 -0.403192L11.707 -2.45816Q11.9288 -2.52931 12.2636 -2.60464Q12.5984 -2.68416 12.9919 -2.74276Q13.3853 -2.80135 13.8205 -2.8432Q14.26 -2.88924 14.7078 -2.88924ZM23.5337 4.53542Q24.2368 4.53542 24.5256 4.39731Q24.8185 4.2592 24.8185 3.86578Q24.8185 3.55607 24.4419 3.32588Q24.0652 3.09569 23.2951 2.80272Q22.6966 2.5809 22.2069 2.34234Q21.7173 2.0996 21.3741 1.76478Q21.0309 1.42996 20.8425 0.969576Q20.6542 0.505011 20.6542 -0.143705Q20.6542 -1.41603 21.5959 -2.15263Q22.5418 -2.88924 24.1866 -2.88924Q25.0069 -2.88924 25.7602 -2.74276Q26.5178 -2.59627 26.9614 -2.42468L26.5178 -0.436674Q26.0699 -0.591529 25.5468 -0.708716Q25.0278 -0.830089 24.3749 -0.830089Q23.1737 -0.830089 23.1737 -0.164632Q23.1737 -0.00977659 23.224 0.111596Q23.2784 0.232969 23.4332 0.345971Q23.5881 0.454788 23.8517 0.584531Q24.1154 0.710089 24.5298 0.864944Q25.3668 1.17465 25.9151 1.47599Q26.4675 1.77315 26.7814 2.12471Q27.0995 2.47627 27.2293 2.90735Q27.359 3.33425 27.359 3.89926Q27.359 5.23855 26.3545 5.92493Q25.3501 6.60713 23.5169 6.60713Q22.3158 6.60713 21.5164 6.40205Q20.7212 6.19698 20.4156 6.05886L20.8425 3.98715Q21.4954 4.24246 22.1776 4.38894Q22.864 4.53542 23.5337 4.53542ZM31.8469 4.53542Q32.55 4.53542 32.8388 4.39731Q33.1317 4.2592 33.1317 3.86578Q33.1317 3.55607 32.7551 3.32588Q32.3784 3.09569 31.6083 2.80272Q31.0098 2.5809 30.5201 2.34234Q30.0305 2.0996 29.6873 1.76478Q29.3441 1.42996 29.1557 0.969576Q28.9674 0.505011 28.9674 -0.143705Q28.9674 -1.41603 29.9091 -2.15263Q30.855 -2.88924 32.4998 -2.88924Q33.3201 -2.88924 34.0734 -2.74276Q34.831 -2.59627 35.2746 -2.42468L34.831 -0.436674Q34.3831 -0.591529 33.86 -0.708716Q33.341 -0.830089 32.6881 -0.830089Q31.4869 -0.830089 31.4869 -0.164632Q31.4869 -0.00977659 31.5372 0.111596Q31.5916 0.232969 31.7464 0.345971Q31.9013 0.454788 32.165 0.584531Q32.4286 0.710089 32.843 0.864944Q33.68 1.17465 34.2283 1.47599Q34.7807 1.77315 35.0946 2.12471Q35.4127 2.47627 35.5425 2.90735Q35.6722 3.33425 35.6722 3.89926Q35.6722 5.23855 34.6677 5.92493Q33.6633 6.60713 31.8301 6.60713Q30.629 6.60713 29.8296 6.40205Q29.0344 6.19698 28.7288 6.05886L29.1557 3.98715Q29.8086 4.24246 30.4908 4.38894Q31.1772 4.53542 31.8469 4.53542Z"/>
	<path fill="white" transform="translate(55 79.2857)" d="M-29.5839 6.60713Q-32.4801 6.60713 -33.9994 4.9958Q-35.5144 3.38448 -35.5144 0.421306Q-35.5144 -1.05609 -35.054 -2.21123Q-34.5895 -3.37055 -33.7859 -4.16575Q-32.9782 -4.96095 -31.8649 -5.3711Q-30.7516 -5.78545 -29.4458 -5.78545Q-28.6924 -5.78545 -28.0772 -5.67244Q-27.4578 -5.56363 -26.9974 -5.41714Q-26.5328 -5.27066 -26.2231 -5.1158Q-25.9134 -4.96095 -25.7795 -4.87724L-26.5496 -2.71764Q-27.0979 -3.01061 -27.8261 -3.21569Q-28.5543 -3.42077 -29.4793 -3.42077Q-30.0987 -3.42077 -30.6888 -3.21569Q-31.2789 -3.01061 -31.7351 -2.55442Q-32.1913 -2.09823 -32.4676 -1.37836Q-32.7396 -0.658493 -32.7396 0.366898Q-32.7396 1.1914 -32.5596 1.90289Q-32.3797 2.61439 -31.9779 3.12917Q-31.5719 3.64396 -30.9232 3.9453Q-30.2703 4.24246 -29.3453 4.24246Q-28.7594 4.24246 -28.299 4.17549Q-27.8345 4.10434 -27.4745 4.01227Q-27.1146 3.916 -26.8426 3.79882Q-26.5663 3.67744 -26.3445 3.57281L-25.6079 5.71567Q-26.1729 6.05886 -27.2025 6.33509Q-28.2279 6.60713 -29.5839 6.60713ZM-15.6308 1.8443Q-15.6308 2.90735 -15.9405 3.79045Q-16.2502 4.66935 -16.832 5.29714Q-17.4137 5.92493 -18.2298 6.26813Q-19.0418 6.60713 -20.0546 6.60713Q-21.0465 6.60713 -21.8627 6.26813Q-22.6788 5.92493 -23.2605 5.29714Q-23.8423 4.66935 -24.1687 3.79045Q-24.4952 2.90735 -24.4952 1.8443Q-24.4952 0.781239 -24.1604 -0.093482Q-23.8255 -0.968203 -23.2354 -1.58344Q-22.6411 -2.20286 -21.8292 -2.54605Q-21.013 -2.88924 -20.0546 -2.88924Q-19.0753 -2.88924 -18.2633 -2.54605Q-17.4472 -2.20286 -16.8654 -1.58344Q-16.2837 -0.968203 -15.9572 -0.093482Q-15.6308 0.781239 -15.6308 1.8443ZM-18.2382 1.8443Q-18.2382 0.659866 -18.7111 -0.0181475Q-19.1799 -0.696161 -20.0546 -0.696161Q-20.9293 -0.696161 -21.4106 -0.0181475Q-21.8878 0.659866 -21.8878 1.8443Q-21.8878 3.02454 -21.4106 3.7193Q-20.9293 4.41405 -20.0546 4.41405Q-19.1799 4.41405 -18.7111 3.7193Q-18.2382 3.02454 -18.2382 1.8443ZM-8.70857 1.58481Q-8.70857 0.350156 -9.02665 -0.160446Q-9.34055 -0.675234 -10.1106 -0.675234Q-10.3534 -0.675234 -10.6129 -0.650123Q-10.8682 -0.625011 -11.1067 -0.591529L-11.1067 6.36857L-13.6597 6.36857L-13.6597 -2.34097Q-13.3333 -2.42468 -12.898 -2.51675Q-12.4628 -2.61301 -11.9731 -2.68835Q-11.4834 -2.76787 -10.9686 -2.80972Q-10.4538 -2.85576 -9.95997 -2.85576Q-8.98062 -2.85576 -8.37375 -2.60464Q-7.7627 -2.35771 -7.36929 -2.01452Q-6.82102 -2.40794 -6.10952 -2.62975Q-5.39803 -2.85576 -4.79953 -2.85576Q-3.71973 -2.85576 -3.02498 -2.55442Q-2.33022 -2.25308 -1.92007 -1.70481Q-1.50573 -1.15654 -1.35087 -0.403192Q-1.19602 0.350156 -1.19602 1.2751L-1.19602 6.36857L-3.75322 6.36857L-3.75322 1.58481Q-3.75322 0.350156 -4.0713 -0.160446Q-4.38519 -0.675234 -5.15947 -0.675234Q-5.36454 -0.675234 -5.73285 -0.570602Q-6.10115 -0.470156 -6.33971 -0.315301Q-6.22252 0.078114 -6.18904 0.517567Q-6.15137 0.952835 -6.15137 1.4467L-6.15137 6.36857L-8.70857 6.36857L-8.70857 1.58481ZM6.89115 1.928Q6.89115 0.747757 6.35962 0.0362611Q5.82809 -0.675234 4.78177 -0.675234Q4.43858 -0.675234 4.14561 -0.650123Q3.85683 -0.625011 3.66849 -0.591529L3.66849 4.02064Q3.90705 4.17549 4.2921 4.28012Q4.68133 4.38057 5.07474 4.38057Q6.89115 4.38057 6.89115 1.928ZM9.49857 1.86104Q9.49857 2.90735 9.23908 3.76533Q8.98378 4.61913 8.48573 5.23855Q7.98769 5.85378 7.25108 6.19698Q6.51447 6.54017 5.55605 6.54017Q5.02452 6.54017 4.55995 6.43554Q4.09539 6.33509 3.66849 6.14675L3.66849 9.541L1.11548 9.541L1.11548 -2.34097Q1.45867 -2.44142 1.90231 -2.53349Q2.35013 -2.62975 2.83562 -2.69672Q3.3253 -2.76787 3.83172 -2.80972Q4.33813 -2.85576 4.79851 -2.85576Q5.91598 -2.85576 6.78652 -2.52094Q7.66124 -2.18612 8.25973 -1.57507Q8.86241 -0.968203 9.18049 -0.093482Q9.49857 0.781239 9.49857 1.86104ZM14.9129 4.58565Q15.2896 4.58565 15.6328 4.56891Q15.9759 4.55217 16.181 4.51868L16.181 2.5809Q16.0262 2.54742 15.7165 2.51394Q15.4109 2.47627 15.1514 2.47627Q14.7915 2.47627 14.4734 2.52231Q14.1595 2.56416 13.9168 2.68554Q13.6782 2.80272 13.5401 3.0078Q13.4062 3.21288 13.4062 3.52259Q13.4062 4.12108 13.808 4.35546Q14.2098 4.58565 14.9129 4.58565ZM14.7078 -2.88924Q15.8378 -2.88924 16.5912 -2.62975Q17.3487 -2.37445 17.8007 -1.89315Q18.2569 -1.41603 18.4453 -0.729643Q18.6336 -0.0432587 18.6336 0.79798L18.6336 6.11327Q18.0853 6.23046 17.106 6.39368Q16.1308 6.55691 14.7413 6.55691Q13.8666 6.55691 13.1551 6.40205Q12.4436 6.2472 11.9288 5.89564Q11.414 5.54407 11.1378 4.97906Q10.8657 4.41405 10.8657 3.58955Q10.8657 2.80272 11.1838 2.25445Q11.5019 1.70618 12.0334 1.37973Q12.565 1.05328 13.2513 0.910982Q13.9377 0.764498 14.6743 0.764498Q15.1682 0.764498 15.5532 0.806351Q15.9425 0.848203 16.181 0.915167L16.181 0.676607Q16.181 0.0237055 15.7876 -0.36971Q15.3942 -0.763125 14.4148 -0.763125Q13.7661 -0.763125 13.13 -0.666864Q12.4938 -0.574788 12.0334 -0.403192L11.707 -2.45816Q11.9288 -2.52931 12.2636 -2.60464Q12.5984 -2.68416 12.9919 -2.74276Q13.3853 -2.80135 13.8205 -2.8432Q14.26 -2.88924 14.7078 -2.88924ZM23.5337 4.53542Q24.2368 4.53542 24.5256 4.39731Q24.8185 4.2592 24.8185 3.86578Q24.8185 3.55607 24.4419 3.32588Q24.0652 3.09569 23.2951 2.80272Q22.6966 2.5809 22.2069 2.34234Q21.7173 2.0996 21.3741 1.76478Q21.0309 1.42996 20.8425 0.969576Q20.6542 0.505011 20.6542 -0.143705Q20.6542 -1.41603 21.5959 -2.15263Q22.5418 -2.88924 24.1866 -2.88924Q25.0069 -2.88924 25.7602 -2.74276Q26.5178 -2.59627 26.9614 -2.42468L26.5178 -0.436674Q26.0699 -0.591529 25.5468 -0.708716Q25.0278 -0.830089 24.3749 -0.830089Q23.1737 -0.830089 23.1737 -0.164632Q23.1737 -0.00977659 23.224 0.111596Q23.2784 0.232969 23.4332 0.345971Q23.5881 0.454788 23.8517 0.584531Q24.1154 0.710089 24.5298 0.864944Q25.3668 1.17465 25.9151 1.47599Q26.4675 1.77315 26.7814 2.12471Q27.0995 2.47627 27.2293 2.90735Q27.359 3.33425 27.359 3.89926Q27.359 5.23855 26.3545 5.92493Q25.3501 6.60713 23.5169 6.60713Q22.3158 6.60713 21.5164 6.40205Q20.7212 6.19698 20.4156 6.05886L20.8425 3.98715Q21.4954 4.24246 22.1776 4.38894Q22.864 4.53542 23.5337 4.53542ZM31.8469 4.53542Q32.55 4.53542 32.8388 4.39731Q33.1317 4.2592 33.1317 3.86578Q33.1317 3.55607 32.7551 3.32588Q32.3784 3.09569 31.6083 2.80272Q31.0098 2.5809 30.5201 2.34234Q30.0305 2.0996 29.6873 1.76478Q29.3441 1.42996 29.1557 0.969576Q28.9674 0.505011 28.9674 -0.143705Q28.9674 -1.41603 29.9091 -2.15263Q30.855 -2.88924 32.4998 -2.88924Q33.3201 -2.88924 34.0734 -2.74276Q34.831 -2.59627 35.2746 -2.42468L34.831 -0.436674Q34.3831 -0.591529 33.86 -0.708716Q33.341 -0.830089 32.6881 -0.830089Q31.4869 -0.830089 31.4869 -0.164632Q31.4869 -0.00977659 31.5372 0.111596Q31.5916 0.232969 31.7464 0.345971Q31.9013 0.454788 32.165 0.584531Q32.4286 0.710089 32.843 0.864944Q33.68 1.17465 34.2283 1.47599Q34.7807 1.77315 35.0946 2.12471Q35.4127 2.47627 35.5425 2.90735Q35.6722 3.33425 35.6722 3.89926Q35.6722 5.23855 34.6677 5.92493Q33.6633 6.60713 31.8301 6.60713Q30.629 6.60713 29.8296 6.40205Q29.0344 6.19698 28.7288 6.05886L29.1557 3.98715Q29.8086 4.24246 30.4908 4.38894Q31.1772 4.53542 31.8469 4.53542Z"/>
</svg>
