<?xml version="1.0" encoding="utf-8" ?>
<svg xmlns="http://www.w3.org/2000/svg" xmlns:xlink="http://www.w3.org/1999/xlink" width="110" height="110">
	<path fill="#111" transform="matrix(1.42857 0 0 1.42857 55 47.8571)" d="M15 0Q15 0.368229 14.9819 0.736015Q14.9639 1.1038 14.9278 1.47026Q14.8917 1.83671 14.8376 2.20096Q14.7836 2.5652 14.7118 2.92635Q14.6399 3.28751 14.5505 3.6447Q14.461 4.0019 14.3541 4.35427Q14.2472 4.70664 14.1232 5.05335Q13.9991 5.40005 13.8582 5.74025Q13.7173 6.08045 13.5598 6.41333Q13.4024 6.7462 13.2288 7.07095Q13.0552 7.3957 12.8659 7.71154Q12.6766 8.02738 12.472 8.33355Q12.2675 8.63972 12.0481 8.93549Q11.8288 9.23125 11.5952 9.5159Q11.3616 9.80054 11.1143 10.0734Q10.867 10.3462 10.6066 10.6066Q10.3462 10.867 10.0734 11.1143Q9.80054 11.3616 9.5159 11.5952Q9.23125 11.8288 8.93549 12.0481Q8.63972 12.2675 8.33355 12.472Q8.02738 12.6766 7.71154 12.8659Q7.3957 13.0552 7.07095 13.2288Q6.7462 13.4024 6.41333 13.5598Q6.08045 13.7173 5.74025 13.8582Q5.40005 13.9991 5.05335 14.1232Q4.70664 14.2472 4.35427 14.3541Q4.0019 14.461 3.6447 14.5505Q3.28751 14.6399 2.92635 14.7118Q2.5652 14.7836 2.20096 14.8376Q1.83671 14.8917 1.47026 14.9278Q1.1038 14.9639 0.736015 14.9819Q0.368229 15 0 15Q-0.368229 15 -0.736015 14.9819Q-1.1038 14.9639 -1.47026 14.9278Q-1.83671 14.8917 -2.20096 14.8376Q-2.5652 14.7836 -2.92635 14.7118Q-3.28751 14.6399 -3.6447 14.5505Q-4.0019 14.461 -4.35427 14.3541Q-4.70664 14.2472 -5.05335 14.1232Q-5.40005 13.9991 -5.74025 13.8582Q-6.08045 13.7173 -6.41333 13.5598Q-6.7462 13.4024 -7.07095 13.2288Q-7.3957 13.0552 -7.71154 12.8659Q-8.02738 12.6766 -8.33355 12.472Q-8.63972 12.2675 -8.93549 12.0481Q-9.23125 11.8288 -9.5159 11.5952Q-9.80054 11.3616 -10.0734 11.1143Q-10.3462 10.867 -10.6066 10.6066Q-10.867 10.3462 -11.1143 10.0734Q-11.3616 9.80054 -11.5952 9.5159Q-11.8288 9.23125 -12.0481 8.93549Q-12.2675 8.63972 -12.472 8.33355Q-12.6766 8.02738 -12.8659 7.71154Q-13.0552 7.3957 -13.2288 7.07095Q-13.4024 6.7462 -13.5598 6.41333Q-13.7173 6.08045 -13.8582 5.74025Q-13.9991 5.40005 -14.1232 5.05335Q-14.2472 4.70664 -14.3541 4.35427Q-14.461 4.0019 -14.5505 3.6447Q-14.6399 3.28751 -14.7118 2.92635Q-14.7836 2.5652 -14.8376 2.20096Q-14.8917 1.83671 -14.9278 1.47026Q-14.9639 1.1038 -14.9819 0.736015Q-15 0.368229 -15 0Q-15 -0.368229 -14.9819 -0.736015Q-14.9639 -1.1038 -14.9278 -1.47026Q-14.8917 -1.83671 -14.8376 -2.20096Q-14.7836 -2.5652 -14.7118 -2.92635Q-14.6399 -3.28751 -14.5505 -3.6447Q-14.461 -4.0019 -14.3541 -4.35427Q-14.2472 -4.70664 -14.1232 -5.05335Q-13.9991 -5.40005 -13.8582 -5.74025Q-13.7173 -6.08045 -13.5598 -6.41333Q-13.4024 -6.7462 -13.2288 -7.07095Q-13.0552 -7.3957 -12.8659 -7.71154Q-12.6766 -8.02738 -12.472 -8.33355Q-12.2675 -8.63972 -12.0481 -8.93549Q-11.8288 -9.23125 -11.5952 -9.5159Q-11.3616 -9.80054 -11.1143 -10.0734Q-10.867 -10.3462 -10.6066 -10.6066Q-10.3462 -10.867 -10.0734 -11.1143Q-9.80054 -11.3616 -9.5159 -11.5952Q-9.23125 -11.8288 -8.93549 -12.0481Q-8.63972 -12.2675 -8.33355 -12.472Q-8.02738 -12.6766 -7.71154 -12.8659Q-7.3957 -13.0552 -7.07095 -13.2288Q-6.7462 -13.4024 -6.41333 -13.5598Q-6.08045 -13.7173 -5.74025 -13.8582Q-5.40005 -13.9991 -5.05335 -14.1232Q-4.70664 -14.2472 -4.35427 -14.3541Q-4.0019 -14.461 -3.6447 -14.5505Q-3.28751 -14.6399 -2.92635 -14.7118Q-2.5652 -14.7836 -2.20096 -14.8376Q-1.83671 -14.8917 -1.47026 -14.9278Q-1.1038 -14.9639 -0.736015 -14.9819Q-0.368229 -15 0 -15Q0.368229 -15 0.736015 -14.9819Q1.1038 -14.9639 1.47026 -14.9278Q1.83671 -14.8917 2.20096 -14.8376Q2.5652 -14.7836 2.92635 -14.7118Q3.28751 -14.6399 3.6447 -14.5505Q4.0019 -14.461 4.35427 -14.3541Q4.70664 -14.2472 5.05335 -14.1232Q5.40005 -13.9991 5.74025 -13.8582Q6.08045 -13.7173 6.41333 -13.5598Q6.7462 -13.4024 7.07095 -13.2288Q7.3957 -13.0552 7.71154 -12.8659Q8.02738 -12.6766 8.33355 -12.472Q8.63972 -12.2675 8.93549 -12.0481Q9.23125 -11.8288 9.5159 -11.5952Q9.80054 -11.3616 10.0734 -11.1143Q10.3462 -10.867 10.6066 -10.6066Q10.867 -10.3462 11.1143 -10.0734Q11.3616 -9.80054 11.5952 -9.5159Q11.8288 -9.23125 12.0481 -8.93549Q12.2675 -8.63972 12.472 -8.33355Q12.6766 -8.02738 12.8659 -7.71154Q13.0552 -7.3957 13.2288 -7.07095Q13.4024 -6.7462 13.5598 -6.41333Q13.7173 -6.08045 13.8582 -5.74025Q13.9991 -5.40005 14.1232 -5.05335Q14.2472 -4.70664 14.3541 -4.35427Q14.461 -4.0019 14.5505 -3.6447Q14.6399 -3.28751 14.7118 -2.92635Q14.7836 -2.5652 14.8376 -2.20096Q14.8917 -1.83671 14.9278 -1.47026Q14.9639 -1.1038 14.9819 -0.736015Q15 -0.368229 15 0ZM15 0L12 0Q12 -0.294583 11.9855 -0.588812Q11.9711 -0.883041 11.9422 -1.17621Q11.9133 -1.46937 11.8701 -1.76077Q11.8269 -2.05216 11.7694 -2.34108Q11.712 -2.63001 11.6404 -2.91576Q11.5688 -3.20152 11.4833 -3.48342Q11.3978 -3.76531 11.2985 -4.04268Q11.1993 -4.32004 11.0866 -4.5922Q10.9738 -4.86436 10.8479 -5.13066Q10.7219 -5.39696 10.5831 -5.65676Q10.4442 -5.91656 10.2927 -6.16923Q10.1413 -6.4219 9.97763 -6.66684Q9.81397 -6.91178 9.63849 -7.14839Q9.46301 -7.385 9.27612 -7.61272Q9.08924 -7.84044 8.89141 -8.05871Q8.69358 -8.27698 8.48528 -8.48528Q8.27698 -8.69358 8.05871 -8.89141Q7.84044 -9.08924 7.61272 -9.27612Q7.385 -9.46301 7.14839 -9.63849Q6.91178 -9.81397 6.66684 -9.97763Q6.4219 -10.1413 6.16923 -10.2927Q5.91656 -10.4442 5.65676 -10.5831Q5.39696 -10.7219 5.13066 -10.8479Q4.86436 -10.9738 4.5922 -11.0866Q4.32004 -11.1993 4.04268 -11.2985Q3.76531 -11.3978 3.48342 -11.4833Q3.20152 -11.5688 2.91576 -11.6404Q2.63001 -11.712 2.34108 -11.7694Q2.05216 -11.8269 1.76077 -11.8701Q1.46937 -11.9133 1.17621 -11.9422Q0.883041 -11.9711 0.588812 -11.9855Q0.294583 -12 0 -12Q-0.294583 -12 -0.588812 -11.9855Q-0.883041 -11.9711 -1.17621 -11.9422Q-1.46937 -11.9133 -1.76077 -11.8701Q-2.05216 -11.8269 -2.34108 -11.7694Q-2.63001 -11.712 -2.91576 -11.6404Q-3.20152 -11.5688 -3.48342 -11.4833Q-3.76531 -11.3978 -4.04268 -11.2985Q-4.32004 -11.1993 -4.5922 -11.0866Q-4.86436 -10.9738 -5.13066 -10.8479Q-5.39696 -10.7219 -5.65676 -10.5831Q-5.91656 -10.4442 -6.16923 -10.2927Q-6.4219 -10.1413 -6.66684 -9.97763Q-6.91178 -9.81397 -7.14839 -9.63849Q-7.385 -9.46301 -7.61272 -9.27612Q-7.84044 -9.08924 -8.05871 -8.89141Q-8.27698 -8.69358 -8.48528 -8.48528Q-8.69358 -8.27698 -8.89141 -8.05871Q-9.08924 -7.84044 -9.27612 -7.61272Q-9.46301 -7.385 -9.63849 -7.14839Q-9.81397 -6.91178 -9.97763 -6.66684Q-10.1413 -6.4219 -10.2927 -6.16923Q-10.4442 -5.91656 -10.5831 -5.65676Q-10.7219 -5.39696 -10.8479 -5.13066Q-10.9738 -4.86436 -11.0866 -4.5922Q-11.1993 -4.32004 -11.2985 -4.04268Q-11.3978 -3.76531 -11.4833 -3.48342Q-11.5688 -3.20152 -11.6404 -2.91576Q-11.712 -2.63001 -11.7694 -2.34108Q-11.8269 -2.05216 -11.8701 -1.76077Q-11.9133 -1.46937 -11.9422 -1.17621Q-11.9711 -0.883041 -11.9855 -0.588812Q-12 -0.294583 -12 0Q-12 0.294583 -11.9855 0.588812Q-11.9711 0.883041 -11.9422 1.17621Q-11.9133 1.46937 -11.8701 1.76077Q-11.8269 2.05216 -11.7694 2.34108Q-11.712 2.63001 -11.6404 2.91576Q-11.5688 3.20152 -11.4833 3.48342Q-11.3978 3.76531 -11.2985 4.04268Q-11.1993 4.32004 -11.0866 4.5922Q-10.9738 4.86436 -10.8479 5.13066Q-10.7219 5.39696 -10.5831 5.65676Q-10.4442 5.91656 -10.2927 6.16923Q-10.1413 6.4219 -9.97763 6.66684Q-9.81397 6.91178 -9.63849 7.14839Q-9.46301 7.385 -9.27612 7.61272Q-9.08924 7.84044 -8.89141 8.05871Q-8.69358 8.27698 -8.48528 8.48528Q-8.27698 8.69358 -8.05871 8.89141Q-7.84044 9.08924 -7.61272 9.27612Q-7.385 9.46301 -7.14839 9.63849Q-6.91178 9.81397 -6.66684 9.97763Q-6.4219 10.1413 -6.16923 10.2927Q-5.91656 10.4442 -5.65676 10.5831Q-5.39696 10.7219 -5.13066 10.8479Q-4.86436 10.9738 -4.5922 11.0866Q-4.32004 11.1993 -4.04268 11.2985Q-3.76531 11.3978 -3.48342 11.4833Q-3.20152 11.5688 -2.91576 11.6404Q-2.63001 11.712 -2.34108 11.7694Q-2.05216 11.8269 -1.76077 11.8701Q-1.46937 11.9133 -1.17621 11.9422Q-0.883041 11.9711 -0.588812 11.9855Q-0.294583 12 0 12Q0.294583 12 0.588812 11.9855Q0.883041 11.9711 1.17621 11.9422Q1.46937 11.9133 1.76077 11.8701Q2.05216 11.8269 2.34108 11.7694Q2.63001 11.712 2.91576 11.6404Q3.20152 11.5688 3.48342 11.4833Q3.76531 11.3978 4.04268 11.2985Q4.32004 11.1993 4.5922 11.0866Q4.86436 10.9738 5.13066 10.8479Q5.39696 10.7219 5.65676 10.5831Q5.91656 10.4442 6.16923 10.2927Q6.4219 10.1413 6.66684 9.97763Q6.91178 9.81397 7.14839 9.63849Q7.385 9.46301 7.61272 9.27612Q7.84044 9.08924 8.05871 8.89141Q8.27698 8.69358 8.48528 8.48528Q8.69358 8.27698 8.89141 8.05871Q9.08924 7.84044 9.27612 7.61272Q9.46301 7.385 9.63849 7.14839Q9.81397 6.91178 9.97763 6.66684Q10.1413 6.4219 10.2927 6.16923Q10.4442 5.91656 10.5831 5.65676Q10.7219 5.39696 10.8479 5.13066Q10.9738 4.86436 11.0866 4.5922Q11.1993 4.32004 11.2985 4.04268Q11.3978 3.76531 11.4833 3.48342Q11.5688 3.20152 11.6404 2.91576Q11.712 2.63001 11.7694 2.34108Q11.8269 2.05216 11.8701 1.76077Q11.9133 1.46937 11.9422 1.17621Q11.9711 0.883041 11.9855 0.588812Q12 0.294583 12 0L15 0Z"/>
	<path fill="none" stroke="black" stroke-width="2.3999999" stroke-linejoin="round" transform="translate(55 79.2857)" d="M-15.3883 4.89094Q-15.1686 4.91047 -14.8805 4.92023Q-14.5924 4.93 -14.192 4.93Q-11.8483 4.93 -10.7203 3.75324Q-9.59241 2.5716 -9.59241 0.491523Q-9.59241 -1.69109 -10.6715 -2.80926Q-11.7506 -3.9323 -14.0895 -3.9323Q-14.4117 -3.9323 -14.7535 -3.91766Q-15.0905 -3.90789 -15.3883 -3.86883L-15.3883 4.89094ZM-6.36975 0.491523Q-6.36975 2.2884 -6.93127 3.63117Q-7.48792 4.96906 -8.51819 5.85285Q-9.54846 6.73176 -11.0328 7.17121Q-12.5123 7.61066 -14.3483 7.61066Q-15.1881 7.61066 -16.3112 7.53742Q-17.4293 7.46906 -18.5084 7.24934L-18.5084 -6.25164Q-17.4293 -6.45184 -16.2623 -6.5202Q-15.0905 -6.58855 -14.2506 -6.58855Q-12.4684 -6.58855 -11.0182 -6.18816Q-9.56799 -5.78777 -8.52795 -4.9284Q-7.48792 -4.06902 -6.93127 -2.72625Q-6.36975 -1.38836 -6.36975 0.491523ZM-0.990112 7.43L-3.96863 7.43L-3.96863 -3.08758L-0.990112 -3.08758L-0.990112 7.43ZM-0.711792 -6.12957Q-0.711792 -5.30926 -1.24402 -4.84051Q-1.77136 -4.37176 -2.48914 -4.37176Q-3.21179 -4.37176 -3.74402 -4.84051Q-4.27136 -5.30926 -4.27136 -6.12957Q-4.27136 -6.94988 -3.74402 -7.41863Q-3.21179 -7.89227 -2.48914 -7.89227Q-1.77136 -7.89227 -1.24402 -7.41863Q-0.711792 -6.94988 -0.711792 -6.12957ZM4.82895 5.29133Q5.64926 5.29133 5.98618 5.1302Q6.32797 4.96906 6.32797 4.51008Q6.32797 4.14875 5.88852 3.8802Q5.44907 3.61164 4.55063 3.26984Q3.85239 3.01105 3.2811 2.73273Q2.70981 2.44953 2.30942 2.05891Q1.90903 1.66828 1.6893 1.13117Q1.46957 0.58918 1.46957 -0.167656Q1.46957 -1.65203 2.56821 -2.51141Q3.67172 -3.37078 5.59067 -3.37078Q6.5477 -3.37078 7.42661 -3.19988Q8.31039 -3.02898 8.82797 -2.82879L8.31039 -0.509453Q7.78793 -0.690117 7.17758 -0.826836Q6.57211 -0.968438 5.81039 -0.968438Q4.40903 -0.968438 4.40903 -0.19207Q4.40903 -0.0114064 4.46762 0.130195Q4.5311 0.271797 4.71176 0.403633Q4.89243 0.530586 5.20004 0.681953Q5.50766 0.828437 5.99106 1.0091Q6.96762 1.37043 7.60727 1.72199Q8.2518 2.06867 8.61801 2.47883Q8.98911 2.88898 9.14047 3.39191Q9.29184 3.88996 9.29184 4.54914Q9.29184 6.11164 8.11996 6.91242Q6.94809 7.70832 4.80942 7.70832Q3.40805 7.70832 2.47543 7.46906Q1.5477 7.2298 1.19125 7.06867L1.6893 4.65168Q2.45102 4.94953 3.24692 5.12043Q4.0477 5.29133 4.82895 5.29133ZM11.0084 2.17121Q11.0084 1.02863 11.3795 0.0227733Q11.7506 -0.987969 12.4489 -1.73992Q13.152 -2.49188 14.1481 -2.93133Q15.1491 -3.37078 16.4284 -3.37078Q17.2682 -3.37078 17.9664 -3.21941Q18.6696 -3.06805 19.3288 -2.78973L18.7086 -0.411797Q18.2887 -0.568047 17.7858 -0.690117Q17.2877 -0.812188 16.6676 -0.812188Q15.3493 -0.812188 14.6998 0.00812483Q14.0504 0.828437 14.0504 2.17121Q14.0504 3.59211 14.6608 4.37336Q15.2711 5.14973 16.7897 5.14973Q17.3317 5.14973 17.9518 5.05207Q18.5719 4.94953 19.0895 4.7298L19.5094 7.17121Q18.9918 7.39094 18.2106 7.54719Q17.4293 7.70832 16.4918 7.70832Q15.0514 7.70832 14.0114 7.27863Q12.9713 6.84895 12.2975 6.11164Q11.6286 5.36945 11.3161 4.35871Q11.0084 3.34797 11.0084 2.17121Z"/>
	<path fill="white" transform="translate(55 79.2857)" d="M-15.3883 4.89094Q-15.1686 4.91047 -14.8805 4.92023Q-14.5924 4.93 -14.192 4.93Q-11.8483 4.93 -10.7203 3.75324Q-9.59241 2.5716 -9.59241 0.491523Q-9.59241 -1.69109 -10.6715 -2.80926Q-11.7506 -3.9323 -14.0895 -3.9323Q-14.4117 -3.9323 -14.7535 -3.91766Q-15.0905 -3.90789 -15.3883 -3.86883L-15.3883 4.89094ZM-6.36975 0.491523Q-6.36975 2.2884 -6.93127 3.63117Q-7.48792 4.96906 -8.51819 5.85285Q-9.54846 6.73176 -11.0328 7.17121Q-12.5123 7.61066 -14.3483 7.61066Q-15.1881 7.61066 -16.3112 7.53742Q-17.4293 7.46906 -18.5084 7.24934L-18.5084 -6.25164Q-17.4293 -6.45184 -16.2623 -6.5202Q-15.0905 -6.58855 -14.2506 -6.58855Q-12.4684 -6.58855 -11.0182 -6.18816Q-9.56799 -5.78777 -8.52795 -4.9284Q-7.48792 -4.06902 -6.93127 -2.72625Q-6.36975 -1.38836 -6.36975 0.491523ZM-0.990112 7.43L-3.96863 7.43L-3.96863 -3.08758L-0.990112 -3.08758L-0.990112 7.43ZM-0.711792 -6.12957Q-0.711792 -5.30926 -1.24402 -4.84051Q-1.77136 -4.37176 -2.48914 -4.37176Q-3.21179 -4.37176 -3.74402 -4.84051Q-4.27136 -5.30926 -4.27136 -6.12957Q-4.27136 -6.94988 -3.74402 -7.41863Q-3.21179 -7.89227 -2.48914 -7.89227Q-1.77136 -7.89227 -1.24402 -7.41863Q-0.711792 -6.94988 -0.711792 -6.12957ZM4.82895 5.29133Q5.64926 5.29133 5.98618 5.1302Q6.32797 4.96906 6.32797 4.51008Q6.32797 4.14875 5.88852 3.8802Q5.44907 3.61164 4.55063 3.26984Q3.85239 3.01105 3.2811 2.73273Q2.70981 2.44953 2.30942 2.05891Q1.90903 1.66828 1.6893 1.13117Q1.46957 0.58918 1.46957 -0.167656Q1.46957 -1.65203 2.56821 -2.51141Q3.67172 -3.37078 5.59067 -3.37078Q6.5477 -3.37078 7.42661 -3.19988Q8.31039 -3.02898 8.82797 -2.82879L8.31039 -0.509453Q7.78793 -0.690117 7.17758 -0.826836Q6.57211 -0.968438 5.81039 -0.968438Q4.40903 -0.968438 4.40903 -0.19207Q4.40903 -0.0114064 4.46762 0.130195Q4.5311 0.271797 4.71176 0.403633Q4.89243 0.530586 5.20004 0.681953Q5.50766 0.828437 5.99106 1.0091Q6.96762 1.37043 7.60727 1.72199Q8.2518 2.06867 8.61801 2.47883Q8.98911 2.88898 9.14047 3.39191Q9.29184 3.88996 9.29184 4.54914Q9.29184 6.11164 8.11996 6.91242Q6.94809 7.70832 4.80942 7.70832Q3.40805 7.70832 2.47543 7.46906Q1.5477 7.2298 1.19125 7.06867L1.6893 4.65168Q2.45102 4.94953 3.24692 5.12043Q4.0477 5.29133 4.82895 5.29133ZM11.0084 2.17121Q11.0084 1.02863 11.3795 0.0227733Q11.7506 -0.987969 12.4489 -1.73992Q13.152 -2.49188 14.1481 -2.93133Q15.1491 -3.37078 16.4284 -3.37078Q17.2682 -3.37078 17.9664 -3.21941Q18.6696 -3.06805 19.3288 -2.78973L18.7086 -0.411797Q18.2887 -0.568047 17.7858 -0.690117Q17.2877 -0.812188 16.6676 -0.812188Q15.3493 -0.812188 14.6998 0.00812483Q14.0504 0.828437 14.0504 2.17121Q14.0504 3.59211 14.6608 4.37336Q15.2711 5.14973 16.7897 5.14973Q17.3317 5.14973 17.9518 5.05207Q18.5719 4.94953 19.0895 4.7298L19.5094 7.17121Q18.9918 7.39094 18.2106 7.54719Q17.4293 7.70832 16.4918 7.70832Q15.0514 7.70832 14.0114 7.27863Q12.9713 6.84895 12.2975 6.11164Q11.6286 5.36945 11.3161 4.35871Q11.0084 3.34797 11.0084 2.17121Z"/>
</svg>
