<?xml version="1.0" encoding="utf-8" ?>
<svg xmlns="http://www.w3.org/2000/svg" xmlns:xlink="http://www.w3.org/1999/xlink" width="110" height="110">
	<path fill="#F5BF39" transform="matrix(1.42143 0.142619 -0.142619 1.42143 55 47.8571)" d="M14.5 0Q14.5 0.355955 14.4825 0.711481Q14.4651 1.06701 14.4302 1.42125Q14.3953 1.77549 14.3431 2.12759Q14.2908 2.47969 14.2214 2.82881Q14.1519 3.17792 14.0655 3.52321Q13.979 3.8685 13.8756 4.20913Q13.7723 4.54976 13.6524 4.8849Q13.5325 5.22005 13.3963 5.54891Q13.26 5.87777 13.1078 6.19955Q12.9557 6.52133 12.7879 6.83525Q12.6201 7.14918 12.4371 7.45449Q12.2541 7.7598 12.0563 8.05577Q11.8586 8.35173 11.6465 8.63764Q11.4345 8.92354 11.2087 9.1987Q10.9828 9.47386 10.7438 9.7376Q10.5047 10.0013 10.253 10.253Q10.0013 10.5047 9.7376 10.7438Q9.47386 10.9828 9.1987 11.2087Q8.92354 11.4345 8.63764 11.6465Q8.35173 11.8586 8.05577 12.0563Q7.7598 12.2541 7.45449 12.4371Q7.14918 12.6201 6.83525 12.7879Q6.52133 12.9557 6.19955 13.1078Q5.87777 13.26 5.54891 13.3963Q5.22005 13.5325 4.8849 13.6524Q4.54976 13.7723 4.20913 13.8756Q3.8685 13.979 3.52321 14.0655Q3.17792 14.1519 2.82881 14.2214Q2.47969 14.2908 2.12759 14.3431Q1.77549 14.3953 1.42125 14.4302Q1.06701 14.4651 0.711481 14.4825Q0.355955 14.5 0 14.5Q-0.355955 14.5 -0.711481 14.4825Q-1.06701 14.4651 -1.42125 14.4302Q-1.77549 14.3953 -2.12759 14.3431Q-2.47969 14.2908 -2.82881 14.2214Q-3.17792 14.1519 -3.52321 14.0655Q-3.8685 13.979 -4.20913 13.8756Q-4.54976 13.7723 -4.8849 13.6524Q-5.22005 13.5325 -5.54891 13.3963Q-5.87777 13.26 -6.19955 13.1078Q-6.52133 12.9557 -6.83525 12.7879Q-7.14918 12.6201 -7.45449 12.4371Q-7.7598 12.2541 -8.05577 12.0563Q-8.35173 11.8586 -8.63764 11.6465Q-8.92354 11.4345 -9.1987 11.2087Q-9.47386 10.9828 -9.7376 10.7438Q-10.0013 10.5047 -10.253 10.253Q-10.5047 10.0013 -10.7438 9.7376Q-10.9828 9.47386 -11.2087 9.1987Q-11.4345 8.92354 -11.6465 8.63764Q-11.8586 8.35173 -12.0563 8.05577Q-12.2541 7.7598 -12.4371 7.45449Q-12.6201 7.14918 -12.7879 6.83525Q-12.9557 6.52133 -13.1078 6.19955Q-13.26 5.87777 -13.3963 5.54891Q-13.5325 5.22005 -13.6524 4.8849Q-13.7723 4.54976 -13.8756 4.20913Q-13.979 3.8685 -14.0655 3.52321Q-14.1519 3.17792 -14.2214 2.82881Q-14.2908 2.47969 -14.3431 2.12759Q-14.3953 1.77549 -14.4302 1.42125Q-14.4651 1.06701 -14.4825 0.711481Q-14.5 0.355955 -14.5 0Q-14.5 -0.355955 -14.4825 -0.711481Q-14.4651 -1.06701 -14.4302 -1.42125Q-14.3953 -1.77549 -14.3431 -2.12759Q-14.2908 -2.47969 -14.2214 -2.82881Q-14.1519 -3.17792 -14.0655 -3.52321Q-13.979 -3.8685 -13.8756 -4.20913Q-13.7723 -4.54976 -13.6524 -4.8849Q-13.5325 -5.22005 -13.3963 -5.54891Q-13.26 -5.87777 -13.1078 -6.19955Q-12.9557 -6.52133 -12.7879 -6.83525Q-12.6201 -7.14918 -12.4371 -7.45449Q-12.2541 -7.7598 -12.0563 -8.05577Q-11.8586 -8.35173 -11.6465 -8.63764Q-11.4345 -8.92354 -11.2087 -9.1987Q-10.9828 -9.47386 -10.7438 -9.7376Q-10.5047 -10.0013 -10.253 -10.253Q-10.0013 -10.5047 -9.7376 -10.7438Q-9.47386 -10.9828 -9.1987 -11.2087Q-8.92354 -11.4345 -8.63764 -11.6465Q-8.35173 -11.8586 -8.05577 -12.0563Q-7.7598 -12.2541 -7.45449 -12.4371Q-7.14918 -12.6201 -6.83525 -12.7879Q-6.52133 -12.9557 -6.19955 -13.1078Q-5.87777 -13.26 -5.54891 -13.3963Q-5.22005 -13.5325 -4.8849 -13.6524Q-4.54976 -13.7723 -4.20913 -13.8756Q-3.8685 -13.979 -3.52321 -14.0655Q-3.17792 -14.1519 -2.82881 -14.2214Q-2.47969 -14.2908 -2.12759 -14.3431Q-1.77549 -14.3953 -1.42125 -14.4302Q-1.06701 -14.4651 -0.711481 -14.4825Q-0.355955 -14.5 0 -14.5Q0.355955 -14.5 0.711481 -14.4825Q1.06701 -14.4651 1.42125 -14.4302Q1.77549 -14.3953 2.12759 -14.3431Q2.47969 -14.2908 2.82881 -14.2214Q3.17792 -14.1519 3.52321 -14.0655Q3.8685 -13.979 4.20913 -13.8756Q4.54976 -13.7723 4.8849 -13.6524Q5.22005 -13.5325 5.54891 -13.3963Q5.87777 -13.26 6.19955 -13.1078Q6.52133 -12.9557 6.83525 -12.7879Q7.14918 -12.6201 7.45449 -12.4371Q7.7598 -12.2541 8.05577 -12.0563Q8.35173 -11.8586 8.63764 -11.6465Q8.92354 -11.4345 9.1987 -11.2087Q9.47386 -10.9828 9.7376 -10.7438Q10.0013 -10.5047 10.253 -10.253Q10.5047 -10.0013 10.7438 -9.7376Q10.9828 -9.47386 11.2087 -9.1987Q11.4345 -8.92354 11.6465 -8.63764Q11.8586 -8.35173 12.0563 -8.05577Q12.2541 -7.7598 12.4371 -7.45449Q12.6201 -7.14918 12.7879 -6.83525Q12.9557 -6.52133 13.1078 -6.19955Q13.26 -5.87777 13.3963 -5.54891Q13.5325 -5.22005 13.6524 -4.8849Q13.7723 -4.54976 13.8756 -4.20913Q13.979 -3.8685 14.0655 -3.52321Q14.1519 -3.17792 14.2214 -2.82881Q14.2908 -2.47969 14.3431 -2.12759Q14.3953 -1.77549 14.4302 -1.42125Q14.4651 -1.06701 14.4825 -0.711481Q14.5 -0.355955 14.5 0"/>
	<path fill="#C69B2E" transform="matrix(1.42143 0.142619 -0.142619 1.42143 55 47.8571)" d="M11.5 0Q11.5 0.282309 11.4861 0.564278Q11.4723 0.846247 11.4446 1.1272Q11.417 1.40815 11.3755 1.6874Q11.3341 1.96665 11.279 2.24354Q11.224 2.52042 11.1554 2.79427Q11.0868 3.06812 11.0048 3.33827Q10.9229 3.60843 10.8278 3.87423Q10.7326 4.14004 10.6246 4.40086Q10.5166 4.66168 10.3959 4.91688Q10.2752 5.17209 10.1421 5.42106Q10.009 5.67004 9.86388 5.91218Q9.71874 6.15433 9.5619 6.38906Q9.40506 6.62379 9.23689 6.85054Q9.06871 7.07729 8.88962 7.29552Q8.71052 7.51375 8.52094 7.72293Q8.33135 7.9321 8.13173 8.13173Q7.9321 8.33135 7.72293 8.52094Q7.51375 8.71052 7.29552 8.88962Q7.07729 9.06871 6.85054 9.23689Q6.62379 9.40506 6.38906 9.5619Q6.15433 9.71874 5.91218 9.86388Q5.67004 10.009 5.42106 10.1421Q5.17209 10.2752 4.91688 10.3959Q4.66168 10.5166 4.40086 10.6246Q4.14004 10.7326 3.87423 10.8278Q3.60843 10.9229 3.33827 11.0048Q3.06812 11.0868 2.79427 11.1554Q2.52042 11.224 2.24354 11.279Q1.96665 11.3341 1.6874 11.3755Q1.40815 11.417 1.1272 11.4446Q0.846247 11.4723 0.564278 11.4861Q0.282309 11.5 0 11.5Q-0.282309 11.5 -0.564278 11.4861Q-0.846247 11.4723 -1.1272 11.4446Q-1.40815 11.417 -1.6874 11.3755Q-1.96665 11.3341 -2.24354 11.279Q-2.52042 11.224 -2.79427 11.1554Q-3.06812 11.0868 -3.33827 11.0048Q-3.60843 10.9229 -3.87423 10.8278Q-4.14004 10.7326 -4.40086 10.6246Q-4.66168 10.5166 -4.91688 10.3959Q-5.17209 10.2752 -5.42106 10.1421Q-5.67004 10.009 -5.91218 9.86388Q-6.15433 9.71874 -6.38906 9.5619Q-6.62379 9.40506 -6.85054 9.23689Q-7.07729 9.06871 -7.29552 8.88962Q-7.51375 8.71052 -7.72293 8.52094Q-7.9321 8.33135 -8.13173 8.13173Q-8.33135 7.9321 -8.52094 7.72293Q-8.71052 7.51375 -8.88962 7.29552Q-9.06871 7.07729 -9.23689 6.85054Q-9.40506 6.62379 -9.5619 6.38906Q-9.71874 6.15433 -9.86388 5.91218Q-10.009 5.67004 -10.1421 5.42106Q-10.2752 5.17209 -10.3959 4.91688Q-10.5166 4.66168 -10.6246 4.40086Q-10.7326 4.14004 -10.8278 3.87423Q-10.9229 3.60843 -11.0048 3.33827Q-11.0868 3.06812 -11.1554 2.79427Q-11.224 2.52042 -11.279 2.24354Q-11.3341 1.96665 -11.3755 1.6874Q-11.417 1.40815 -11.4446 1.1272Q-11.4723 0.846247 -11.4861 0.564278Q-11.5 0.282309 -11.5 0Q-11.5 -0.282309 -11.4861 -0.564278Q-11.4723 -0.846247 -11.4446 -1.1272Q-11.417 -1.40815 -11.3755 -1.6874Q-11.3341 -1.96665 -11.279 -2.24354Q-11.224 -2.52042 -11.1554 -2.79427Q-11.0868 -3.06812 -11.0048 -3.33827Q-10.9229 -3.60843 -10.8278 -3.87423Q-10.7326 -4.14004 -10.6246 -4.40086Q-10.5166 -4.66168 -10.3959 -4.91688Q-10.2752 -5.17209 -10.1421 -5.42106Q-10.009 -5.67004 -9.86388 -5.91218Q-9.71874 -6.15433 -9.5619 -6.38906Q-9.40506 -6.62379 -9.23689 -6.85054Q-9.06871 -7.07729 -8.88962 -7.29552Q-8.71052 -7.51375 -8.52094 -7.72293Q-8.33135 -7.9321 -8.13173 -8.13173Q-7.9321 -8.33135 -7.72293 -8.52094Q-7.51375 -8.71052 -7.29552 -8.88962Q-7.07729 -9.06871 -6.85054 -9.23689Q-6.62379 -9.40506 -6.38906 -9.5619Q-6.15433 -9.71874 -5.91218 -9.86388Q-5.67004 -10.009 -5.42106 -10.1421Q-5.17209 -10.2752 -4.91688 -10.3959Q-4.66168 -10.5166 -4.40086 -10.6246Q-4.14004 -10.7326 -3.87423 -10.8278Q-3.60843 -10.9229 -3.33827 -11.0048Q-3.06812 -11.0868 -2.79427 -11.1554Q-2.52042 -11.224 -2.24354 -11.279Q-1.96665 -11.3341 -1.6874 -11.3755Q-1.40815 -11.417 -1.1272 -11.4446Q-0.846247 -11.4723 -0.564278 -11.4861Q-0.282309 -11.5 0 -11.5Q0.282309 -11.5 0.564278 -11.4861Q0.846247 -11.4723 1.1272 -11.4446Q1.40815 -11.417 1.6874 -11.3755Q1.96665 -11.3341 2.24354 -11.279Q2.52042 -11.224 2.79427 -11.1554Q3.06812 -11.0868 3.33827 -11.0048Q3.60843 -10.9229 3.87423 -10.8278Q4.14004 -10.7326 4.40086 -10.6246Q4.66168 -10.5166 4.91688 -10.3959Q5.17209 -10.2752 5.42106 -10.1421Q5.67004 -10.009 5.91218 -9.86388Q6.15433 -9.71874 6.38906 -9.5619Q6.62379 -9.40506 6.85054 -9.23689Q7.07729 -9.06871 7.29552 -8.88962Q7.51375 -8.71052 7.72293 -8.52094Q7.9321 -8.33135 8.13173 -8.13173Q8.33135 -7.9321 8.52094 -7.72293Q8.71052 -7.51375 8.88962 -7.29552Q9.06871 -7.07729 9.23689 -6.85054Q9.40506 -6.62379 9.5619 -6.38906Q9.71874 -6.15433 9.86388 -5.91218Q10.009 -5.67004 10.1421 -5.42106Q10.2752 -5.17209 10.3959 -4.91688Q10.5166 -4.66168 10.6246 -4.40086Q10.7326 -4.14004 10.8278 -3.87423Q10.9229 -3.60843 11.0048 -3.33827Q11.0868 -3.06812 11.1554 -2.79427Q11.224 -2.52042 11.279 -2.24354Q11.3341 -1.96665 11.3755 -1.6874Q11.417 -1.40815 11.4446 -1.1272Q11.4723 -0.846247 11.4861 -0.564278Q11.5 -0.282309 11.5 0"/>
	<path fill="#FFE783" transform="matrix(0.0471961 0.0047354 -0.0047354 0.0471961 44.1301 34.5627)" d="M224 22L224 85.46C192.1 92.71 165.3 106.4 143.7 126.6C110 158.1 93.17 201.3 93.17 256.2C93.17 310.5 109.7 353.5 142.8 385.2C164.7 406.1 191.8 420.2 224 427.3L224 492L288 492L288 432.6C309.5 432 330.3 429.4 350.7 424.7C374.2 419.4 407 411.5 428.9 400.8L412.9 237L302 237L266 295.8L335.6 295.8L343.6 362C327.4 368.2 307.3 369.1 289 369.1C255.5 369.1 229.6 359.3 211.3 339.6C193 320 183.9 292.2 183.9 256.2C183.9 219.8 193.3 191.9 212.2 172.4C231.2 152.8 258.2 143 293.1 143C312 143 330.8 145.7 349.5 151C368.4 156.3 383.3 164.4 402.3 175.2L394.3 102.7C375.9 94.35 368.3 90.04 347.4 85.76C328.5 81.82 308.7 79.7 288 79.38L288 22L224 22Z"/>
	<path fill="none" stroke="black" stroke-width="2.3999999" stroke-linejoin="round" transform="translate(55 79.2857)" d="M-13.4101 7.70832Q-16.789 7.70832 -18.5614 5.82844Q-20.329 3.94855 -20.329 0.491523Q-20.329 -1.23211 -19.7919 -2.57977Q-19.2499 -3.9323 -18.3124 -4.86004Q-17.37 -5.78777 -16.0712 -6.26629Q-14.7724 -6.74969 -13.2489 -6.74969Q-12.37 -6.74969 -11.6522 -6.61785Q-10.9296 -6.4909 -10.3925 -6.32Q-9.85049 -6.1491 -9.48916 -5.96844Q-9.12783 -5.78777 -8.97158 -5.69012L-9.87002 -3.17059Q-10.5097 -3.51238 -11.3593 -3.75164Q-12.2089 -3.9909 -13.288 -3.9909Q-14.0106 -3.9909 -14.6991 -3.75164Q-15.3876 -3.51238 -15.9198 -2.98016Q-16.452 -2.44793 -16.7743 -1.60809Q-17.0917 -0.768242 -17.0917 0.428047Q-17.0917 1.38996 -16.8817 2.22004Q-16.6718 3.05012 -16.203 3.6507Q-15.7294 4.25129 -14.9726 4.60285Q-14.2108 4.94953 -13.1317 4.94953Q-12.4481 4.94953 -11.911 4.87141Q-11.369 4.7884 -10.9491 4.68098Q-10.5292 4.56867 -10.2118 4.43195Q-9.88955 4.29035 -9.63076 4.16828L-8.77139 6.66828Q-9.43056 7.06867 -10.6317 7.39094Q-11.828 7.70832 -13.4101 7.70832ZM2.87025 2.15168Q2.87025 3.39191 2.50892 4.42219Q2.14759 5.44758 1.46888 6.18Q0.790169 6.91242 -0.16198 7.31281Q-1.10925 7.70832 -2.29089 7.70832Q-3.44811 7.70832 -4.40026 7.31281Q-5.35241 6.91242 -6.03112 6.18Q-6.70983 5.44758 -7.09069 4.42219Q-7.47155 3.39191 -7.47155 2.15168Q-7.47155 0.911445 -7.08092 -0.109063Q-6.6903 -1.12957 -6.00182 -1.84734Q-5.30846 -2.57 -4.3612 -2.97039Q-3.40905 -3.37078 -2.29089 -3.37078Q-1.14831 -3.37078 -0.201042 -2.97039Q0.751106 -2.57 1.42982 -1.84734Q2.10853 -1.12957 2.48939 -0.109063Q2.87025 0.911445 2.87025 2.15168ZM-0.171745 2.15168Q-0.171745 0.769844 -0.723503 -0.021172Q-1.27038 -0.812188 -2.29089 -0.812188Q-3.31139 -0.812188 -3.87292 -0.021172Q-4.42956 0.769844 -4.42956 2.15168Q-4.42956 3.52863 -3.87292 4.33918Q-3.31139 5.14973 -2.29089 5.14973Q-1.27038 5.14973 -0.723503 4.33918Q-0.171745 3.52863 -0.171745 2.15168ZM8.14988 7.43L5.17136 7.43L5.17136 -3.08758L8.14988 -3.08758L8.14988 7.43ZM8.4282 -6.12957Q8.4282 -5.30926 7.89597 -4.84051Q7.36863 -4.37176 6.65086 -4.37176Q5.9282 -4.37176 5.39597 -4.84051Q4.86863 -5.30926 4.86863 -6.12957Q4.86863 -6.94988 5.39597 -7.41863Q5.9282 -7.89227 6.65086 -7.89227Q7.36863 -7.89227 7.89597 -7.41863Q8.4282 -6.94988 8.4282 -6.12957ZM10.9514 -2.73113Q11.7082 -2.95086 12.9094 -3.14129Q14.1105 -3.33172 15.4289 -3.33172Q16.7717 -3.33172 17.6603 -2.98016Q18.549 -2.62859 19.0666 -1.98895Q19.5891 -1.3493 19.8088 -0.470391Q20.0285 0.408515 20.0285 1.48762L20.0285 7.43L17.05 7.43L17.05 1.84895Q17.05 0.408515 16.6691 -0.187188Q16.2883 -0.787774 15.2482 -0.787774Q14.9309 -0.787774 14.5695 -0.758477Q14.2082 -0.72918 13.9299 -0.690117L13.9299 7.43L10.9514 7.43L10.9514 -2.73113Z"/>
	<path fill="white" transform="translate(55 79.2857)" d="M-13.4101 7.70832Q-16.789 7.70832 -18.5614 5.82844Q-20.329 3.94855 -20.329 0.491523Q-20.329 -1.23211 -19.7919 -2.57977Q-19.2499 -3.9323 -18.3124 -4.86004Q-17.37 -5.78777 -16.0712 -6.26629Q-14.7724 -6.74969 -13.2489 -6.74969Q-12.37 -6.74969 -11.6522 -6.61785Q-10.9296 -6.4909 -10.3925 -6.32Q-9.85049 -6.1491 -9.48916 -5.96844Q-9.12783 -5.78777 -8.97158 -5.69012L-9.87002 -3.17059Q-10.5097 -3.51238 -11.3593 -3.75164Q-12.2089 -3.9909 -13.288 -3.9909Q-14.0106 -3.9909 -14.6991 -3.75164Q-15.3876 -3.51238 -15.9198 -2.98016Q-16.452 -2.44793 -16.7743 -1.60809Q-17.0917 -0.768242 -17.0917 0.428047Q-17.0917 1.38996 -16.8817 2.22004Q-16.6718 3.05012 -16.203 3.6507Q-15.7294 4.25129 -14.9726 4.60285Q-14.2108 4.94953 -13.1317 4.94953Q-12.4481 4.94953 -11.911 4.87141Q-11.369 4.7884 -10.9491 4.68098Q-10.5292 4.56867 -10.2118 4.43195Q-9.88955 4.29035 -9.63076 4.16828L-8.77139 6.66828Q-9.43056 7.06867 -10.6317 7.39094Q-11.828 7.70832 -13.4101 7.70832ZM2.87025 2.15168Q2.87025 3.39191 2.50892 4.42219Q2.14759 5.44758 1.46888 6.18Q0.790169 6.91242 -0.16198 7.31281Q-1.10925 7.70832 -2.29089 7.70832Q-3.44811 7.70832 -4.40026 7.31281Q-5.35241 6.91242 -6.03112 6.18Q-6.70983 5.44758 -7.09069 4.42219Q-7.47155 3.39191 -7.47155 2.15168Q-7.47155 0.911445 -7.08092 -0.109063Q-6.6903 -1.12957 -6.00182 -1.84734Q-5.30846 -2.57 -4.3612 -2.97039Q-3.40905 -3.37078 -2.29089 -3.37078Q-1.14831 -3.37078 -0.201042 -2.97039Q0.751106 -2.57 1.42982 -1.84734Q2.10853 -1.12957 2.48939 -0.109063Q2.87025 0.911445 2.87025 2.15168ZM-0.171745 2.15168Q-0.171745 0.769844 -0.723503 -0.021172Q-1.27038 -0.812188 -2.29089 -0.812188Q-3.31139 -0.812188 -3.87292 -0.021172Q-4.42956 0.769844 -4.42956 2.15168Q-4.42956 3.52863 -3.87292 4.33918Q-3.31139 5.14973 -2.29089 5.14973Q-1.27038 5.14973 -0.723503 4.33918Q-0.171745 3.52863 -0.171745 2.15168ZM8.14988 7.43L5.17136 7.43L5.17136 -3.08758L8.14988 -3.08758L8.14988 7.43ZM8.4282 -6.12957Q8.4282 -5.30926 7.89597 -4.84051Q7.36863 -4.37176 6.65086 -4.37176Q5.9282 -4.37176 5.39597 -4.84051Q4.86863 -5.30926 4.86863 -6.12957Q4.86863 -6.94988 5.39597 -7.41863Q5.9282 -7.89227 6.65086 -7.89227Q7.36863 -7.89227 7.89597 -7.41863Q8.4282 -6.94988 8.4282 -6.12957ZM10.9514 -2.73113Q11.7082 -2.95086 12.9094 -3.14129Q14.1105 -3.33172 15.4289 -3.33172Q16.7717 -3.33172 17.6603 -2.98016Q18.549 -2.62859 19.0666 -1.98895Q19.5891 -1.3493 19.8088 -0.470391Q20.0285 0.408515 20.0285 1.48762L20.0285 7.43L17.05 7.43L17.05 1.84895Q17.05 0.408515 16.6691 -0.187188Q16.2883 -0.787774 15.2482 -0.787774Q14.9309 -0.787774 14.5695 -0.758477Q14.2082 -0.72918 13.9299 -0.690117L13.9299 7.43L10.9514 7.43L10.9514 -2.73113Z"/>
</svg>
