<?xml version="1.0" encoding="utf-8" ?>
<svg xmlns="http://www.w3.org/2000/svg" xmlns:xlink="http://www.w3.org/1999/xlink" width="110" height="110">
	<path fill="white" transform="matrix(1.42143 0.142619 -0.142619 1.42143 55 47.8571)" d="M-10 -14L10 -14L10 14L-10 14L-10 -14Z"/>
	<path fill="#CFCFCF" transform="matrix(1.42143 0.142619 -0.142619 1.42143 55 47.8571)" d="M-11.5 14L-11.5 -14Q-11.5 -14.0737 -11.4928 -14.147Q-11.4856 -14.2204 -11.4712 -14.2926Q-11.4568 -14.3649 -11.4354 -14.4354Q-11.414 -14.5059 -11.3858 -14.574Q-11.3576 -14.6421 -11.3229 -14.7071Q-11.2881 -14.7721 -11.2472 -14.8334Q-11.2063 -14.8946 -11.1595 -14.9516Q-11.1128 -15.0086 -11.0607 -15.0607Q-11.0086 -15.1128 -10.9516 -15.1595Q-10.8946 -15.2063 -10.8334 -15.2472Q-10.7721 -15.2881 -10.7071 -15.3229Q-10.6421 -15.3576 -10.574 -15.3858Q-10.5059 -15.414 -10.4354 -15.4354Q-10.3649 -15.4568 -10.2926 -15.4712Q-10.2204 -15.4856 -10.147 -15.4928Q-10.0737 -15.5 -10 -15.5L10 -15.5Q10.0737 -15.5 10.147 -15.4928Q10.2204 -15.4856 10.2926 -15.4712Q10.3649 -15.4568 10.4354 -15.4354Q10.5059 -15.414 10.574 -15.3858Q10.6421 -15.3576 10.7071 -15.3229Q10.7721 -15.2881 10.8334 -15.2472Q10.8946 -15.2063 10.9516 -15.1595Q11.0086 -15.1128 11.0607 -15.0607Q11.1128 -15.0086 11.1595 -14.9516Q11.2063 -14.8946 11.2472 -14.8334Q11.2881 -14.7721 11.3229 -14.7071Q11.3576 -14.6421 11.3858 -14.574Q11.414 -14.5059 11.4354 -14.4354Q11.4568 -14.3649 11.4712 -14.2926Q11.4856 -14.2204 11.4928 -14.147Q11.5 -14.0737 11.5 -14L11.5 14Q11.5 14.0737 11.4928 14.147Q11.4856 14.2204 11.4712 14.2926Q11.4568 14.3649 11.4354 14.4354Q11.414 14.5059 11.3858 14.574Q11.3576 14.6421 11.3229 14.7071Q11.2881 14.7721 11.2472 14.8334Q11.2063 14.8946 11.1595 14.9516Q11.1128 15.0086 11.0607 15.0607Q11.0086 15.1128 10.9516 15.1595Q10.8946 15.2063 10.8334 15.2472Q10.7721 15.2881 10.7071 15.3229Q10.6421 15.3576 10.574 15.3858Q10.5059 15.414 10.4354 15.4354Q10.3649 15.4568 10.2926 15.4712Q10.2204 15.4856 10.147 15.4928Q10.0737 15.5 10 15.5L-10 15.5Q-10.0737 15.5 -10.147 15.4928Q-10.2204 15.4856 -10.2926 15.4712Q-10.3649 15.4568 -10.4354 15.4354Q-10.5059 15.414 -10.574 15.3858Q-10.6421 15.3576 -10.7071 15.3229Q-10.7721 15.2881 -10.8334 15.2472Q-10.8946 15.2063 -10.9516 15.1595Q-11.0086 15.1128 -11.0607 15.0607Q-11.1128 15.0086 -11.1595 14.9516Q-11.2063 14.8946 -11.2472 14.8334Q-11.2881 14.7721 -11.3229 14.7071Q-11.3576 14.6421 -11.3858 14.574Q-11.414 14.5059 -11.4354 14.4354Q-11.4568 14.3649 -11.4712 14.2926Q-11.4856 14.2204 -11.4928 14.147Q-11.5 14.0737 -11.5 14ZM-8.5 -12.5L-8.5 12.5L8.5 12.5L8.5 -12.5L-8.5 -12.5Z"/>
	<path transform="matrix(0.0360911 0.00362119 -0.00362119 0.0360911 46.6877 37.6908)" d="M417.969 114.76C428.659 128.949 437.077 145.794 443.216 162.82C448.917 178.636 452.512 194.637 453.219 209.35C452.974 237.872 447.346 244.261 431.383 264.751L421.328 247.531C405.053 227.872 375.16 174.931 350.254 182.023C340.473 191.188 336.76 202.078 334.784 213.226C339.131 226.426 341.5 240.871 341.5 256C341.5 278.94 336.078 300.31 326.506 318.124C360.471 324.93 413.397 347.122 413.466 376.958C413.061 382.633 410.713 388.478 406.923 392.589C390.808 411.38 351.486 398.776 339.122 407.697C340.316 418.117 345.29 428.874 345.655 437.957C345.859 444.497 343.003 453.827 335.893 458.951C327.388 465.082 316.441 465.778 308.113 463.519C291.91 460.339 280 441.474 256 437.5C235.684 442.737 222.382 458.305 203.887 463.519C195.559 465.778 184.612 465.082 176.107 458.952C168.997 453.826 166.141 444.497 166.345 437.958C166.258 427.245 172.506 417.267 172.879 407.697C149.268 396.015 122.155 410.652 105.077 392.589C101.287 388.479 98.938 382.633 98.5345 376.959C107.754 335.947 151.596 324.933 185.494 318.124C175.923 300.31 170.5 278.94 170.5 256C170.5 238.766 173.57 222.423 179.146 207.798C175.61 195.913 173.984 183.816 164.989 174.136C151.852 172.749 143.87 184.482 138.226 193.081C120.701 222.331 110.149 238.99 88.906 262.369C64 227.269 59.935 188.434 69.1705 155.887C78.268 125.39 97.9255 97.69 126.06 84.001C157.883 69.352 185.867 68.956 214.387 84.3055C222.132 64.726 229.987 45.8305 241.439 29.992C255.877 10.027 277.139 -8.45451 307 -7.95051C365.2 -6.96651 417.99 68.7835 417.969 114.76L417.969 114.76ZM202.966 221.5C199.501 231.947 197.502 243.63 197.502 256C197.502 279.775 204.84 301.048 215.892 315.783C226.942 330.52 240.982 338.5 256 338.5C271.018 338.5 285.058 330.52 296.11 315.783C307.162 301.048 314.5 279.775 314.5 256C314.5 243.63 312.499 231.947 309.035 221.5L202.966 221.5ZM220 292L292 292C292 292 280 313 256 313C232 313 220 292 220 292Z"/>
	<path transform="matrix(0.0710717 0.00713096 -0.00713096 0.0710717 47.8976 32.7871)" d="M11.2257 -15.4508L-2.18557e-06 -50L-11.2257 -15.4508L-47.5528 -15.4508L-18.1636 5.9017L-29.3893 40.4509L6.7743e-07 19.0983L29.3893 40.4509L18.1636 5.9017L47.5528 -15.4509L11.2257 -15.4508Z" fill-rule="evenodd"/>
	<path transform="matrix(-0.0710717 -0.00713096 0.00713096 -0.0710717 62.1024 62.9272)" d="M11.2257 -15.4508L-2.18557e-06 -50L-11.2257 -15.4508L-47.5528 -15.4508L-18.1636 5.9017L-29.3893 40.4509L6.7743e-07 19.0983L29.3893 40.4509L18.1636 5.9017L47.5528 -15.4509L11.2257 -15.4508Z" fill-rule="evenodd"/>
	<path fill="none" stroke="black" stroke-width="2.3999999" stroke-linejoin="round" transform="translate(55 79.2857)" d="M-14.3501 7.70832Q-17.729 7.70832 -19.5014 5.82844Q-21.269 3.94855 -21.269 0.491523Q-21.269 -1.23211 -20.7319 -2.57977Q-20.1899 -3.9323 -19.2524 -4.86004Q-18.31 -5.78777 -17.0112 -6.26629Q-15.7124 -6.74969 -14.1889 -6.74969Q-13.31 -6.74969 -12.5922 -6.61785Q-11.8696 -6.4909 -11.3325 -6.32Q-10.7905 -6.1491 -10.4292 -5.96844Q-10.0678 -5.78777 -9.91158 -5.69012L-10.81 -3.17059Q-11.4497 -3.51238 -12.2993 -3.75164Q-13.1489 -3.9909 -14.228 -3.9909Q-14.9506 -3.9909 -15.6391 -3.75164Q-16.3276 -3.51238 -16.8598 -2.98016Q-17.392 -2.44793 -17.7143 -1.60809Q-18.0317 -0.768242 -18.0317 0.428047Q-18.0317 1.38996 -17.8217 2.22004Q-17.6118 3.05012 -17.143 3.6507Q-16.6694 4.25129 -15.9126 4.60285Q-15.1508 4.94953 -14.0717 4.94953Q-13.3881 4.94953 -12.851 4.87141Q-12.309 4.7884 -11.8891 4.68098Q-11.4692 4.56867 -11.1518 4.43195Q-10.8295 4.29035 -10.5708 4.16828L-9.71138 6.66828Q-10.3706 7.06867 -11.5717 7.39094Q-12.768 7.70832 -14.3501 7.70832ZM-3.89006 5.34992Q-3.45061 5.34992 -3.05022 5.33039Q-2.64983 5.31086 -2.41057 5.2718L-2.41057 3.01105Q-2.59123 2.97199 -2.95256 2.93293Q-3.30901 2.88898 -3.61174 2.88898Q-4.03166 2.88898 -4.40276 2.9427Q-4.76897 2.99152 -5.05217 3.13312Q-5.33049 3.26984 -5.49162 3.5091Q-5.64787 3.74836 -5.64787 4.10969Q-5.64787 4.80793 -5.17912 5.08137Q-4.71037 5.34992 -3.89006 5.34992ZM-4.12932 -3.37078Q-2.81096 -3.37078 -1.93205 -3.06805Q-1.04826 -2.7702 -0.52092 -2.20867Q0.0113068 -1.65203 0.231033 -0.85125Q0.45076 -0.0504689 0.45076 0.930976L0.45076 7.13215Q-0.188889 7.26887 -1.33147 7.4593Q-2.46916 7.64973 -4.09026 7.64973Q-5.11076 7.64973 -5.94084 7.46906Q-6.77092 7.2884 -7.37151 6.87824Q-7.97209 6.46809 -8.29436 5.80891Q-8.61174 5.14973 -8.61174 4.18781Q-8.61174 3.26984 -8.24065 2.6302Q-7.86955 1.99055 -7.24944 1.60969Q-6.62932 1.22883 -5.82854 1.06281Q-5.02776 0.891914 -4.16838 0.891914Q-3.59221 0.891914 -3.14299 0.940742Q-2.68889 0.98957 -2.41057 1.0677L-2.41057 0.789375Q-2.41057 0.0276561 -2.86955 -0.431328Q-3.32854 -0.890313 -4.47112 -0.890313Q-5.22795 -0.890313 -5.97014 -0.778008Q-6.71233 -0.670586 -7.24944 -0.470391L-7.63029 -2.86785Q-7.37151 -2.95086 -6.98088 -3.03875Q-6.59026 -3.13152 -6.13127 -3.19988Q-5.67229 -3.26824 -5.16447 -3.31707Q-4.65178 -3.37078 -4.12932 -3.37078ZM9.48926 -0.45086Q9.08887 -0.548516 8.54688 -0.655938Q8.00977 -0.768242 7.38965 -0.768242Q7.11133 -0.768242 6.7207 -0.719414Q6.33008 -0.670586 6.12988 -0.611992L6.12988 7.43L3.15137 7.43L3.15137 -2.53094Q3.95215 -2.80926 5.04102 -3.05828Q6.12988 -3.31219 7.46777 -3.31219Q7.71191 -3.31219 8.04883 -3.27801Q8.39062 -3.24871 8.72754 -3.19988Q9.06934 -3.15105 9.40625 -3.07781Q9.74805 -3.00945 9.99219 -2.9118L9.48926 -0.45086ZM14.1304 2.0882Q14.1304 3.47004 14.7505 4.30988Q15.3707 5.14973 16.5914 5.14973Q16.9917 5.14973 17.3287 5.12043Q17.6705 5.09113 17.8902 5.05207L17.8902 -0.367852Q17.6119 -0.548516 17.1578 -0.665703Q16.7085 -0.787774 16.2496 -0.787774Q14.1304 -0.787774 14.1304 2.0882ZM20.8687 7.0882Q20.4683 7.21027 19.9458 7.32258Q19.4283 7.43 18.857 7.50812Q18.2906 7.59113 17.6998 7.63996Q17.1089 7.68879 16.5718 7.68879Q15.2681 7.68879 14.2476 7.31281Q13.232 6.93195 12.5289 6.22395Q11.8306 5.51105 11.4595 4.50031Q11.0884 3.48957 11.0884 2.2298Q11.0884 0.950508 11.4058 -0.0797658Q11.7281 -1.11004 12.3287 -1.82781Q12.9292 -2.55047 13.7984 -2.93133Q14.6724 -3.31219 15.7906 -3.31219Q16.4107 -3.31219 16.899 -3.19012Q17.3921 -3.06805 17.8902 -2.84832L17.8902 -7.60906L20.8687 -8.08758L20.8687 7.0882Z"/>
	<path fill="white" transform="translate(55 79.2857)" d="M-14.3501 7.70832Q-17.729 7.70832 -19.5014 5.82844Q-21.269 3.94855 -21.269 0.491523Q-21.269 -1.23211 -20.7319 -2.57977Q-20.1899 -3.9323 -19.2524 -4.86004Q-18.31 -5.78777 -17.0112 -6.26629Q-15.7124 -6.74969 -14.1889 -6.74969Q-13.31 -6.74969 -12.5922 -6.61785Q-11.8696 -6.4909 -11.3325 -6.32Q-10.7905 -6.1491 -10.4292 -5.96844Q-10.0678 -5.78777 -9.91158 -5.69012L-10.81 -3.17059Q-11.4497 -3.51238 -12.2993 -3.75164Q-13.1489 -3.9909 -14.228 -3.9909Q-14.9506 -3.9909 -15.6391 -3.75164Q-16.3276 -3.51238 -16.8598 -2.98016Q-17.392 -2.44793 -17.7143 -1.60809Q-18.0317 -0.768242 -18.0317 0.428047Q-18.0317 1.38996 -17.8217 2.22004Q-17.6118 3.05012 -17.143 3.6507Q-16.6694 4.25129 -15.9126 4.60285Q-15.1508 4.94953 -14.0717 4.94953Q-13.3881 4.94953 -12.851 4.87141Q-12.309 4.7884 -11.8891 4.68098Q-11.4692 4.56867 -11.1518 4.43195Q-10.8295 4.29035 -10.5708 4.16828L-9.71138 6.66828Q-10.3706 7.06867 -11.5717 7.39094Q-12.768 7.70832 -14.3501 7.70832ZM-3.89006 5.34992Q-3.45061 5.34992 -3.05022 5.33039Q-2.64983 5.31086 -2.41057 5.2718L-2.41057 3.01105Q-2.59123 2.97199 -2.95256 2.93293Q-3.30901 2.88898 -3.61174 2.88898Q-4.03166 2.88898 -4.40276 2.9427Q-4.76897 2.99152 -5.05217 3.13312Q-5.33049 3.26984 -5.49162 3.5091Q-5.64787 3.74836 -5.64787 4.10969Q-5.64787 4.80793 -5.17912 5.08137Q-4.71037 5.34992 -3.89006 5.34992ZM-4.12932 -3.37078Q-2.81096 -3.37078 -1.93205 -3.06805Q-1.04826 -2.7702 -0.52092 -2.20867Q0.0113068 -1.65203 0.231033 -0.85125Q0.45076 -0.0504689 0.45076 0.930976L0.45076 7.13215Q-0.188889 7.26887 -1.33147 7.4593Q-2.46916 7.64973 -4.09026 7.64973Q-5.11076 7.64973 -5.94084 7.46906Q-6.77092 7.2884 -7.37151 6.87824Q-7.97209 6.46809 -8.29436 5.80891Q-8.61174 5.14973 -8.61174 4.18781Q-8.61174 3.26984 -8.24065 2.6302Q-7.86955 1.99055 -7.24944 1.60969Q-6.62932 1.22883 -5.82854 1.06281Q-5.02776 0.891914 -4.16838 0.891914Q-3.59221 0.891914 -3.14299 0.940742Q-2.68889 0.98957 -2.41057 1.0677L-2.41057 0.789375Q-2.41057 0.0276561 -2.86955 -0.431328Q-3.32854 -0.890313 -4.47112 -0.890313Q-5.22795 -0.890313 -5.97014 -0.778008Q-6.71233 -0.670586 -7.24944 -0.470391L-7.63029 -2.86785Q-7.37151 -2.95086 -6.98088 -3.03875Q-6.59026 -3.13152 -6.13127 -3.19988Q-5.67229 -3.26824 -5.16447 -3.31707Q-4.65178 -3.37078 -4.12932 -3.37078ZM9.48926 -0.45086Q9.08887 -0.548516 8.54688 -0.655938Q8.00977 -0.768242 7.38965 -0.768242Q7.11133 -0.768242 6.7207 -0.719414Q6.33008 -0.670586 6.12988 -0.611992L6.12988 7.43L3.15137 7.43L3.15137 -2.53094Q3.95215 -2.80926 5.04102 -3.05828Q6.12988 -3.31219 7.46777 -3.31219Q7.71191 -3.31219 8.04883 -3.27801Q8.39062 -3.24871 8.72754 -3.19988Q9.06934 -3.15105 9.40625 -3.07781Q9.74805 -3.00945 9.99219 -2.9118L9.48926 -0.45086ZM14.1304 2.0882Q14.1304 3.47004 14.7505 4.30988Q15.3707 5.14973 16.5914 5.14973Q16.9917 5.14973 17.3287 5.12043Q17.6705 5.09113 17.8902 5.05207L17.8902 -0.367852Q17.6119 -0.548516 17.1578 -0.665703Q16.7085 -0.787774 16.2496 -0.787774Q14.1304 -0.787774 14.1304 2.0882ZM20.8687 7.0882Q20.4683 7.21027 19.9458 7.32258Q19.4283 7.43 18.857 7.50812Q18.2906 7.59113 17.6998 7.63996Q17.1089 7.68879 16.5718 7.68879Q15.2681 7.68879 14.2476 7.31281Q13.232 6.93195 12.5289 6.22395Q11.8306 5.51105 11.4595 4.50031Q11.0884 3.48957 11.0884 2.2298Q11.0884 0.950508 11.4058 -0.0797658Q11.7281 -1.11004 12.3287 -1.82781Q12.9292 -2.55047 13.7984 -2.93133Q14.6724 -3.31219 15.7906 -3.31219Q16.4107 -3.31219 16.899 -3.19012Q17.3921 -3.06805 17.8902 -2.84832L17.8902 -7.60906L20.8687 -8.08758L20.8687 7.0882Z"/>
</svg>
