<?xml version="1.0" encoding="utf-8" ?>
<svg xmlns="http://www.w3.org/2000/svg" xmlns:xlink="http://www.w3.org/1999/xlink" width="110" height="110">
	<path fill="#6D6D6D" transform="matrix(0.746253 0.0748751 -0.0748751 0.746253 55 47.8571)" d="M28.5714 0Q28.5714 0.701389 28.537 1.40193Q28.5026 2.10248 28.4338 2.80049Q28.3651 3.4985 28.2622 4.1923Q28.1593 4.8861 28.0224 5.57401Q27.8856 6.26192 27.7152 6.94229Q27.5448 7.62266 27.3412 8.29385Q27.1375 8.96504 26.9013 9.62542Q26.665 10.2858 26.3966 10.9338Q26.1281 11.5818 25.8283 12.2159Q25.5284 12.8499 25.1977 13.4685Q24.8671 14.087 24.5065 14.6886Q24.1459 15.2902 23.7563 15.8734Q23.3666 16.4566 22.9488 17.02Q22.531 17.5833 22.086 18.1255Q21.6411 18.6677 21.17 19.1874Q20.699 19.7071 20.203 20.203Q19.7071 20.699 19.1874 21.17Q18.6677 21.6411 18.1255 22.086Q17.5833 22.531 17.02 22.9488Q16.4566 23.3666 15.8734 23.7563Q15.2902 24.1459 14.6886 24.5065Q14.087 24.8671 13.4685 25.1978Q12.8499 25.5284 12.2159 25.8283Q11.5818 26.1281 10.9338 26.3966Q10.2858 26.665 9.62542 26.9013Q8.96504 27.1376 8.29385 27.3412Q7.62266 27.5448 6.94229 27.7152Q6.26192 27.8856 5.57401 28.0224Q4.8861 28.1593 4.1923 28.2622Q3.4985 28.3651 2.80049 28.4338Q2.10248 28.5026 1.40193 28.537Q0.701389 28.5714 0 28.5714Q-0.701389 28.5714 -1.40193 28.537Q-2.10248 28.5026 -2.80049 28.4338Q-3.4985 28.3651 -4.1923 28.2622Q-4.8861 28.1593 -5.57401 28.0224Q-6.26192 27.8856 -6.94229 27.7152Q-7.62266 27.5448 -8.29385 27.3412Q-8.96504 27.1375 -9.62542 26.9013Q-10.2858 26.665 -10.9338 26.3966Q-11.5818 26.1281 -12.2159 25.8283Q-12.8499 25.5284 -13.4685 25.1977Q-14.087 24.8671 -14.6886 24.5065Q-15.2902 24.1459 -15.8734 23.7563Q-16.4566 23.3666 -17.02 22.9488Q-17.5833 22.531 -18.1255 22.086Q-18.6677 21.6411 -19.1874 21.17Q-19.7071 20.699 -20.203 20.203Q-20.699 19.7071 -21.17 19.1874Q-21.6411 18.6677 -22.086 18.1255Q-22.531 17.5833 -22.9488 17.02Q-23.3666 16.4566 -23.7563 15.8734Q-24.1459 15.2902 -24.5065 14.6886Q-24.8671 14.087 -25.1978 13.4685Q-25.5284 12.8499 -25.8283 12.2159Q-26.1281 11.5818 -26.3966 10.9338Q-26.665 10.2858 -26.9013 9.62542Q-27.1376 8.96504 -27.3412 8.29385Q-27.5448 7.62266 -27.7152 6.94229Q-27.8856 6.26192 -28.0224 5.57401Q-28.1593 4.8861 -28.2622 4.1923Q-28.3651 3.4985 -28.4338 2.80049Q-28.5026 2.10248 -28.537 1.40193Q-28.5714 0.701389 -28.5714 0Q-28.5714 -0.701389 -28.537 -1.40193Q-28.5026 -2.10248 -28.4338 -2.80049Q-28.3651 -3.4985 -28.2622 -4.1923Q-28.1593 -4.8861 -28.0224 -5.57401Q-27.8856 -6.26192 -27.7152 -6.94229Q-27.5448 -7.62266 -27.3412 -8.29385Q-27.1375 -8.96504 -26.9013 -9.62542Q-26.665 -10.2858 -26.3966 -10.9338Q-26.1281 -11.5818 -25.8283 -12.2159Q-25.5284 -12.8499 -25.1977 -13.4685Q-24.8671 -14.087 -24.5065 -14.6886Q-24.1459 -15.2902 -23.7563 -15.8734Q-23.3666 -16.4566 -22.9488 -17.02Q-22.531 -17.5833 -22.086 -18.1255Q-21.6411 -18.6677 -21.17 -19.1874Q-20.699 -19.7071 -20.203 -20.203Q-19.7071 -20.699 -19.1874 -21.17Q-18.6677 -21.6411 -18.1255 -22.086Q-17.5833 -22.531 -17.02 -22.9488Q-16.4566 -23.3666 -15.8734 -23.7563Q-15.2902 -24.1459 -14.6886 -24.5065Q-14.087 -24.8671 -13.4685 -25.1978Q-12.8499 -25.5284 -12.2159 -25.8283Q-11.5818 -26.1281 -10.9338 -26.3966Q-10.2858 -26.665 -9.62542 -26.9013Q-8.96504 -27.1376 -8.29385 -27.3412Q-7.62266 -27.5448 -6.94229 -27.7152Q-6.26192 -27.8856 -5.57401 -28.0224Q-4.8861 -28.1593 -4.1923 -28.2622Q-3.4985 -28.3651 -2.80049 -28.4338Q-2.10248 -28.5026 -1.40193 -28.537Q-0.701389 -28.5714 0 -28.5714Q0.701389 -28.5714 1.40193 -28.537Q2.10248 -28.5026 2.80049 -28.4338Q3.4985 -28.3651 4.1923 -28.2622Q4.8861 -28.1593 5.57401 -28.0224Q6.26192 -27.8856 6.94229 -27.7152Q7.62266 -27.5448 8.29385 -27.3412Q8.96504 -27.1375 9.62542 -26.9013Q10.2858 -26.665 10.9338 -26.3966Q11.5818 -26.1281 12.2159 -25.8283Q12.8499 -25.5284 13.4685 -25.1977Q14.087 -24.8671 14.6886 -24.5065Q15.2902 -24.1459 15.8734 -23.7563Q16.4566 -23.3666 17.02 -22.9488Q17.5833 -22.531 18.1255 -22.086Q18.6677 -21.6411 19.1874 -21.17Q19.7071 -20.699 20.203 -20.203Q20.699 -19.7071 21.17 -19.1874Q21.6411 -18.6677 22.086 -18.1255Q22.531 -17.5833 22.9488 -17.02Q23.3666 -16.4566 23.7563 -15.8734Q24.1459 -15.2902 24.5065 -14.6886Q24.8671 -14.087 25.1978 -13.4685Q25.5284 -12.8499 25.8283 -12.2159Q26.1281 -11.5818 26.3966 -10.9338Q26.665 -10.2858 26.9013 -9.62542Q27.1376 -8.96504 27.3412 -8.29385Q27.5448 -7.62266 27.7152 -6.94229Q27.8856 -6.26192 28.0224 -5.57401Q28.1593 -4.8861 28.2622 -4.1923Q28.3651 -3.4985 28.4338 -2.80049Q28.5026 -2.10248 28.537 -1.40193Q28.5714 -0.701389 28.5714 0"/>
	<path fill="#878787" transform="matrix(0.746253 0.0748751 -0.0748751 0.746253 55 47.8571)" d="M23.5714 0Q23.5714 0.578646 23.543 1.1566Q23.5146 1.73454 23.4579 2.3104Q23.4012 2.88626 23.3163 3.45865Q23.2314 4.03103 23.1185 4.59856Q23.0056 5.16608 22.865 5.72739Q22.7244 6.28869 22.5564 6.84242Q22.3885 7.39615 22.1935 7.94097Q21.9986 8.4858 21.7772 9.02039Q21.5557 9.55499 21.3083 10.0781Q21.0609 10.6012 20.7881 11.1115Q20.5154 11.6218 20.2179 12.1181Q19.9204 12.6145 19.5989 13.0956Q19.2774 13.5767 18.9327 14.0415Q18.5881 14.5063 18.221 14.9536Q17.8539 15.4009 17.4653 15.8296Q17.0767 16.2584 16.6675 16.6675Q16.2584 17.0767 15.8296 17.4653Q15.4009 17.8539 14.9536 18.221Q14.5063 18.5881 14.0415 18.9328Q13.5767 19.2774 13.0956 19.5989Q12.6145 19.9204 12.1181 20.2179Q11.6218 20.5154 11.1115 20.7881Q10.6012 21.0609 10.0781 21.3083Q9.55499 21.5557 9.02039 21.7772Q8.4858 21.9986 7.94097 22.1935Q7.39615 22.3885 6.84242 22.5564Q6.28869 22.7244 5.72739 22.865Q5.16608 23.0056 4.59856 23.1185Q4.03103 23.2314 3.45865 23.3163Q2.88626 23.4012 2.3104 23.4579Q1.73454 23.5146 1.1566 23.543Q0.578646 23.5714 0 23.5714Q-0.578646 23.5714 -1.1566 23.543Q-1.73454 23.5146 -2.3104 23.4579Q-2.88626 23.4012 -3.45865 23.3163Q-4.03103 23.2314 -4.59856 23.1185Q-5.16608 23.0056 -5.72739 22.865Q-6.28869 22.7244 -6.84242 22.5564Q-7.39615 22.3885 -7.94097 22.1935Q-8.4858 21.9986 -9.02039 21.7772Q-9.55499 21.5557 -10.0781 21.3083Q-10.6012 21.0609 -11.1115 20.7881Q-11.6218 20.5154 -12.1181 20.2179Q-12.6145 19.9204 -13.0956 19.5989Q-13.5767 19.2774 -14.0415 18.9327Q-14.5063 18.5881 -14.9536 18.221Q-15.4009 17.8539 -15.8296 17.4653Q-16.2584 17.0767 -16.6675 16.6675Q-17.0767 16.2584 -17.4653 15.8296Q-17.8539 15.4009 -18.221 14.9536Q-18.5881 14.5063 -18.9328 14.0415Q-19.2774 13.5767 -19.5989 13.0956Q-19.9204 12.6145 -20.2179 12.1181Q-20.5154 11.6218 -20.7881 11.1115Q-21.0609 10.6012 -21.3083 10.0781Q-21.5557 9.55499 -21.7772 9.02039Q-21.9986 8.4858 -22.1935 7.94097Q-22.3885 7.39615 -22.5564 6.84242Q-22.7244 6.28869 -22.865 5.72739Q-23.0056 5.16608 -23.1185 4.59856Q-23.2314 4.03103 -23.3163 3.45865Q-23.4012 2.88626 -23.4579 2.3104Q-23.5146 1.73454 -23.543 1.1566Q-23.5714 0.578646 -23.5714 0Q-23.5714 -0.578646 -23.543 -1.1566Q-23.5146 -1.73454 -23.4579 -2.3104Q-23.4012 -2.88626 -23.3163 -3.45865Q-23.2314 -4.03103 -23.1185 -4.59856Q-23.0056 -5.16608 -22.865 -5.72739Q-22.7244 -6.28869 -22.5564 -6.84242Q-22.3885 -7.39615 -22.1935 -7.94097Q-21.9986 -8.4858 -21.7772 -9.02039Q-21.5557 -9.55499 -21.3083 -10.0781Q-21.0609 -10.6012 -20.7881 -11.1115Q-20.5154 -11.6218 -20.2179 -12.1181Q-19.9204 -12.6145 -19.5989 -13.0956Q-19.2774 -13.5767 -18.9327 -14.0415Q-18.5881 -14.5063 -18.221 -14.9536Q-17.8539 -15.4009 -17.4653 -15.8296Q-17.0767 -16.2584 -16.6675 -16.6675Q-16.2584 -17.0767 -15.8296 -17.4653Q-15.4009 -17.8539 -14.9536 -18.221Q-14.5063 -18.5881 -14.0415 -18.9328Q-13.5767 -19.2774 -13.0956 -19.5989Q-12.6145 -19.9204 -12.1181 -20.2179Q-11.6218 -20.5154 -11.1115 -20.7881Q-10.6012 -21.0609 -10.0781 -21.3083Q-9.55499 -21.5557 -9.02039 -21.7772Q-8.4858 -21.9986 -7.94097 -22.1935Q-7.39615 -22.3885 -6.84242 -22.5564Q-6.28869 -22.7244 -5.72739 -22.865Q-5.16608 -23.0056 -4.59856 -23.1185Q-4.03103 -23.2314 -3.45865 -23.3163Q-2.88626 -23.4012 -2.3104 -23.4579Q-1.73454 -23.5146 -1.1566 -23.543Q-0.578646 -23.5714 0 -23.5714Q0.578646 -23.5714 1.1566 -23.543Q1.73454 -23.5146 2.3104 -23.4579Q2.88626 -23.4012 3.45865 -23.3163Q4.03103 -23.2314 4.59856 -23.1185Q5.16608 -23.0056 5.72739 -22.865Q6.28869 -22.7244 6.84242 -22.5564Q7.39615 -22.3885 7.94097 -22.1935Q8.4858 -21.9986 9.02039 -21.7772Q9.55499 -21.5557 10.0781 -21.3083Q10.6012 -21.0609 11.1115 -20.7881Q11.6218 -20.5154 12.1181 -20.2179Q12.6145 -19.9204 13.0956 -19.5989Q13.5767 -19.2774 14.0415 -18.9327Q14.5063 -18.5881 14.9536 -18.221Q15.4009 -17.8539 15.8296 -17.4653Q16.2584 -17.0767 16.6675 -16.6675Q17.0767 -16.2584 17.4653 -15.8296Q17.8539 -15.4009 18.221 -14.9536Q18.5881 -14.5063 18.9328 -14.0415Q19.2774 -13.5767 19.5989 -13.0956Q19.9204 -12.6145 20.2179 -12.1181Q20.5154 -11.6218 20.7881 -11.1115Q21.0609 -10.6012 21.3083 -10.0781Q21.5557 -9.55499 21.7772 -9.02039Q21.9986 -8.4858 22.1935 -7.94097Q22.3885 -7.39615 22.5564 -6.84242Q22.7244 -6.28869 22.865 -5.72739Q23.0056 -5.16608 23.1185 -4.59856Q23.2314 -4.03103 23.3163 -3.45865Q23.4012 -2.88626 23.4579 -2.3104Q23.5146 -1.73454 23.543 -1.1566Q23.5714 -0.578646 23.5714 0"/>
	<path fill="#7C7C7C" transform="matrix(0.746253 0.0748751 -0.0748751 0.746253 55 47.8571)" d="M-9.29282 -21.6623Q-9.31437 -21.4214 -9.35451 -21.1828Q-9.39464 -20.9443 -9.4531 -20.7096Q-9.51157 -20.4748 -9.58803 -20.2453Q-9.66448 -20.0158 -9.75846 -19.7929Q-9.85244 -19.57 -9.96338 -19.3551Q-10.0743 -19.1401 -10.2016 -18.9344Q-10.3288 -18.7287 -10.4716 -18.5334Q-10.6144 -18.3381 -10.7718 -18.1545Q-10.9293 -17.9708 -11.1005 -17.7999Q-11.2717 -17.629 -11.4556 -17.4719Q-11.6395 -17.3147 -11.835 -17.1723Q-12.0305 -17.0298 -12.2364 -16.903Q-12.4424 -16.7761 -12.6575 -16.6655Q-12.8727 -16.5549 -13.0957 -16.4613Q-13.3188 -16.3677 -13.5484 -16.2916Q-13.778 -16.2156 -14.0129 -16.1575Q-13.7194 -15.1167 -13.7194 -14.0354Q-13.7194 -13.1646 -13.911 -12.3151Q-14.1026 -11.4656 -14.4764 -10.6791Q-14.14 -10.9717 -13.7789 -11.2331Q-13.4177 -11.4944 -13.0346 -11.7225Q-12.6516 -11.9505 -12.2496 -12.1434Q-11.8477 -12.3363 -11.4302 -12.4925Q-11.0126 -12.6486 -10.5828 -12.7669Q-10.153 -12.8851 -9.71427 -12.9645Q-9.27558 -13.0439 -8.83156 -13.0837Q-8.38754 -13.1236 -7.94173 -13.1236Q-7.69731 -13.1236 -7.45318 -13.1116Q-7.20905 -13.0996 -6.9658 -13.0756Q-6.72256 -13.0517 -6.48078 -13.0158Q-6.239 -12.9799 -5.99928 -12.9322Q-5.75955 -12.8846 -5.52245 -12.8252Q-5.28536 -12.7658 -5.05146 -12.6948Q-4.81756 -12.6239 -4.58742 -12.5415Q-4.35729 -12.4592 -4.13147 -12.3657Q-3.90565 -12.2721 -3.6847 -12.1676Q-3.46374 -12.0631 -3.24818 -11.9479Q-3.03262 -11.8327 -2.82297 -11.707Q-2.61332 -11.5814 -2.41009 -11.4456Q-2.20686 -11.3098 -2.01054 -11.1642Q-1.81422 -11.0186 -1.62528 -10.8635Q-1.43634 -10.7084 -1.25523 -10.5443Q-1.07413 -10.3802 -0.901294 -10.2073Q-0.728461 -10.0345 -0.564317 -9.85338Q-0.400172 -9.67227 -0.245112 -9.48333Q-0.090052 -9.29439 0.0555504 -9.09807Q0.201153 -8.90175 0.336947 -8.69852Q0.472741 -8.49529 0.598399 -8.28564Q0.724058 -8.07599 0.839278 -7.86043Q0.954498 -7.64487 1.059 -7.42391Q1.16351 -7.20296 1.25704 -6.97714Q1.35058 -6.75132 1.43292 -6.52119Q1.51527 -6.29105 1.58622 -6.05715Q1.65717 -5.82326 1.71656 -5.58616Q1.77595 -5.34906 1.82363 -5.10934Q1.87132 -4.86961 1.90718 -4.62783Q1.94305 -4.38605 1.96701 -4.14281Q1.99096 -3.89956 2.00296 -3.65544Q2.01495 -3.41131 2.01495 -3.16688Q2.01495 -2.92246 2.00296 -2.67833Q1.99096 -2.43421 1.96701 -2.19096Q1.94305 -1.94771 1.90718 -1.70594Q1.87132 -1.46416 1.82363 -1.22443Q1.77595 -0.984707 1.71656 -0.747609Q1.65717 -0.510511 1.58622 -0.276613Q1.51527 -0.0427152 1.43292 0.18742Q1.35058 0.417554 1.25704 0.643371Q1.16351 0.869189 1.059 1.09014Q0.954498 1.3111 0.839278 1.52666Q0.724058 1.74222 0.598399 1.95187Q0.472741 2.16152 0.336947 2.36475Q0.201153 2.56798 0.0555504 2.7643Q-0.0900521 2.96062 -0.245112 3.14957Q-0.400172 3.33851 -0.564317 3.51961Q-0.728461 3.70072 -0.901294 3.87355Q-1.07413 4.04638 -1.25523 4.21053Q-1.43634 4.37467 -1.62528 4.52973Q-1.81422 4.68479 -2.01054 4.83039Q-2.20686 4.976 -2.41009 5.11179Q-2.61332 5.24759 -2.82297 5.37324Q-3.03262 5.4989 -3.24818 5.61412Q-3.46374 5.72934 -3.6847 5.83385Q-3.90566 5.93835 -4.13147 6.03189Q-4.35729 6.12542 -4.58742 6.20777Q-4.81756 6.29011 -5.05146 6.36106Q-5.28536 6.43201 -5.52245 6.4914Q-5.75955 6.55079 -5.99928 6.59848Q-6.239 6.64616 -6.48078 6.68203Q-6.72256 6.71789 -6.9658 6.74185Q-7.20905 6.76581 -7.45318 6.7778Q-7.69731 6.78979 -7.94173 6.78979Q-8.18615 6.78979 -8.43028 6.7778Q-8.67441 6.76581 -8.91765 6.74185Q-9.1609 6.71789 -9.40268 6.68203Q-9.64445 6.64616 -9.88418 6.59848Q-10.1239 6.55079 -10.361 6.4914Q-10.5981 6.43201 -10.832 6.36106Q-11.0659 6.29011 -11.296 6.20777Q-11.5262 6.12542 -11.752 6.03189Q-11.9778 5.93835 -12.1988 5.83385Q-12.4197 5.72934 -12.6353 5.61412Q-12.8508 5.4989 -13.0605 5.37324Q-13.2701 5.24758 -13.4734 5.11179Q-13.6766 4.976 -13.8729 4.83039Q-14.0692 4.68479 -14.2582 4.52973Q-14.4471 4.37467 -14.6282 4.21053Q-14.8093 4.04638 -14.9822 3.87355Q-15.155 3.70072 -15.3191 3.51961Q-15.4833 3.33851 -15.6383 3.14957Q-15.7934 2.96062 -15.939 2.7643Q-16.0846 2.56798 -16.2204 2.36475Q-16.3562 2.16152 -16.4819 1.95187Q-16.6075 1.74222 -16.7227 1.52666Q-16.838 1.3111 -16.9425 1.09014Q-17.047 0.869189 -17.1405 0.643371Q-17.234 0.417554 -17.3164 0.187419Q-17.3987 -0.0427153 -17.4697 -0.276613Q-17.5406 -0.510511 -17.6 -0.747609Q-17.6594 -0.984707 -17.7071 -1.22443Q-17.7548 -1.46416 -17.7906 -1.70594Q-17.8265 -1.94771 -17.8505 -2.19096Q-17.8744 -2.43421 -17.8864 -2.67833Q-17.8984 -2.92246 -17.8984 -3.16688Q-17.8984 -3.7823 -17.8226 -4.39304Q-17.7468 -5.00377 -17.5964 -5.60053Q-17.446 -6.19728 -17.2232 -6.77097Q-17.0004 -7.34466 -16.7087 -7.88654Q-17.2216 -7.48374 -17.7941 -7.17147Q-18.3667 -6.8592 -18.983 -6.6461Q-19.5994 -6.43299 -20.2425 -6.32495Q-20.8857 -6.21691 -21.5378 -6.21691Q-22.1285 -6.21691 -22.7124 -6.30563Q-22.536 -6.94085 -22.3244 -7.56522Q-22.1128 -8.18959 -21.8667 -8.80116Q-21.6205 -9.41273 -21.3406 -10.0096Q-21.0606 -10.6064 -20.7478 -11.1867Q-20.4349 -11.767 -20.0901 -12.3289Q-19.7453 -12.8908 -19.3696 -13.4325Q-18.9939 -13.9742 -18.5885 -14.4941Q-18.1832 -15.014 -17.7494 -15.5104Q-17.3156 -16.0068 -16.8547 -16.4782Q-16.3938 -16.9496 -15.9073 -17.3945Q-15.4209 -17.8394 -14.9103 -18.2564Q-14.3997 -18.6734 -13.8666 -19.0612Q-13.3335 -19.4491 -12.7795 -19.8065Q-12.2256 -20.1639 -11.6525 -20.4898Q-11.0794 -20.8157 -10.4891 -21.1091Q-9.89867 -21.4024 -9.29282 -21.6623ZM22.6404 -6.55918Q22.2995 -6.31553 21.9899 -6.03319Q21.6803 -5.75086 21.4064 -5.43383Q21.1324 -5.1168 20.8979 -4.76953Q20.6634 -4.42227 20.4718 -4.04967Q20.2801 -3.67706 20.1339 -3.28437Q19.9878 -2.89168 19.8891 -2.48444Q19.7905 -2.07719 19.7409 -1.66113Q19.6912 -1.24508 19.6912 -0.826064Q19.6912 -0.603127 19.7053 -0.380636Q19.7194 -0.158145 19.7475 0.0630102Q19.7757 0.284166 19.8177 0.503101Q19.8598 0.722036 19.9156 0.937876Q19.9714 1.15372 20.0407 1.3656Q20.11 1.57748 20.1926 1.78455Q20.2752 1.99163 20.3707 2.19307Q20.4662 2.39451 20.5743 2.58951Q20.6823 2.78451 20.8025 2.97229Q20.9227 3.16007 21.0545 3.33988Q21.1863 3.51969 21.3291 3.69081Q21.472 3.86194 21.6255 4.02368Q21.7789 4.18543 21.9422 4.33715Q22.1056 4.48888 22.2782 4.62998Q22.4508 4.77108 22.632 4.90098Q22.8131 5.03089 23.0022 5.14908Q23.5714 2.60601 23.5714 0Q23.5714 -1.66449 23.3375 -3.31246Q23.1036 -4.96043 22.6404 -6.55918ZM19.7952 12.7969Q19.1558 12.486 18.4853 12.2493Q17.8148 12.0126 17.1219 11.8531Q16.429 11.6936 15.7225 11.6133Q15.0161 11.533 14.305 11.533Q13.7588 11.533 13.2146 11.5805Q12.6704 11.6279 12.1323 11.7224Q11.5943 11.8169 11.0665 11.9578Q10.5387 12.0987 10.0252 12.2849Q9.51163 12.4711 9.01618 12.7012Q8.52074 12.9313 8.04715 13.2036Q7.57356 13.4758 7.1254 13.7882Q6.67725 14.1005 6.25792 14.4506Q5.59672 14.6854 4.96628 14.9933Q4.86056 14.7647 4.73888 14.5443Q4.6172 14.3238 4.48016 14.1126Q4.34312 13.9013 4.19143 13.7003Q4.03973 13.4994 3.87414 13.3097Q3.70855 13.1199 3.5299 12.9425Q3.35125 12.765 3.16045 12.6007Q2.96965 12.4364 2.76765 12.286Q2.56566 12.1357 2.35349 12.0001Q2.14133 11.8644 1.92007 11.7442Q1.6988 11.624 1.46956 11.5198Q1.24032 11.4156 1.00425 11.328Q0.768189 11.2404 0.526495 11.1697Q0.284801 11.0991 0.0386986 11.0458Q-0.207404 10.9925 -0.456671 10.9568Q-0.705938 10.9211 -0.95711 10.9032Q-1.20828 10.8853 -1.46009 10.8853Q-1.6904 10.8853 -1.92022 10.9003Q-2.15004 10.9152 -2.3784 10.9451Q-2.60677 10.975 -2.83271 11.0196Q-3.05865 11.0643 -3.28121 11.1235Q-3.50377 11.1827 -3.72201 11.2563Q-3.94025 11.3299 -4.15324 11.4175Q-4.36624 11.5051 -4.5731 11.6063Q-4.77995 11.7076 -4.97979 11.8221Q-5.17963 11.9366 -5.3716 12.0638Q-5.56358 12.191 -5.74688 12.3305Q-5.93018 12.4699 -6.10404 12.621Q-6.27789 12.772 -6.44156 12.934Q-6.60523 13.0961 -6.75802 13.2684Q-6.91082 13.4407 -7.05209 13.6226Q-7.19336 13.8045 -7.32251 13.9952Q-7.45167 14.1859 -7.56816 14.3845Q-8.12392 14.391 -8.67662 14.4497Q-9.22931 14.5085 -9.77402 14.6189Q-10.3187 14.7294 -10.8506 14.8906Q-11.3826 15.0518 -11.8969 15.2624Q-12.4113 15.4729 -12.9036 15.7309Q-13.3959 15.9889 -13.8618 16.2921Q-14.3276 16.5953 -14.7628 16.9409Q-15.1981 17.2866 -15.5989 17.6716Q-14.7996 18.3772 -13.9399 19.0077Q-13.0802 19.6381 -12.1671 20.1885Q-11.254 20.7388 -10.2949 21.2044Q-9.33586 21.67 -8.33867 22.0472Q-7.34149 22.4244 -6.31433 22.7099Q-5.28717 22.9955 -4.23842 23.1872Q-3.18967 23.3789 -2.1279 23.4752Q-1.06613 23.5714 0 23.5714Q0.734569 23.5714 1.46771 23.5257Q2.20086 23.4799 2.92973 23.3887Q3.6586 23.2973 4.38038 23.1608Q5.10215 23.0243 5.81402 22.8431Q6.5259 22.662 7.22511 22.4368Q7.92432 22.2116 8.60815 21.9434Q9.29198 21.6751 9.95779 21.3648Q10.6236 21.0545 11.2688 20.7033Q11.914 20.3521 12.536 19.9615Q13.1581 19.5708 13.7546 19.1422Q14.3512 18.7135 14.9199 18.2486Q15.4886 17.7836 16.0272 17.2841Q16.5658 16.7847 17.0723 16.2526Q17.5788 15.7206 18.0512 15.1581Q18.5236 14.5955 18.96 14.0047Q19.3964 13.4138 19.7952 12.7969Z" fill-rule="evenodd"/>
	<path fill="#999" transform="matrix(0.746253 0.0748751 -0.0748751 0.746253 55 47.8571)" d="M23.5156 1.62193Q23.5714 0.811929 23.5714 0Q23.5714 -1.54179 23.3706 -3.07045Q23.0384 -2.57193 22.8648 -1.99854Q22.6912 -1.42515 22.6912 -0.826064Q22.6912 -0.496709 22.7445 -0.171688Q22.7977 0.153333 22.9028 0.465466Q23.008 0.7776 23.1621 1.06863Q23.3163 1.35966 23.5156 1.62193ZM17.964 15.2613Q17.094 14.9007 16.1704 14.7168Q15.2468 14.533 14.305 14.533Q13.8554 14.533 13.4077 14.5752Q12.9601 14.6175 12.5184 14.7015Q12.0767 14.7856 11.6448 14.9108Q11.2129 15.0359 10.7947 15.2011Q10.3765 15.3663 9.97567 15.57Q9.57482 15.7737 9.19487 16.0141Q8.81492 16.2546 8.45922 16.5296Q8.10353 16.8047 7.77523 17.1119Q7.49151 17.1946 7.21357 17.295Q6.93562 17.3953 6.66454 17.513Q6.39346 17.6307 6.13033 17.7652Q5.8672 17.8997 5.61306 18.0505Q5.35892 18.2013 5.11478 18.3678Q4.87064 18.5343 4.63746 18.7158Q4.40429 18.8974 4.183 19.0933Q3.96172 19.2891 3.75321 19.4985Q3.5447 19.7079 3.34978 19.9301Q3.15487 20.1522 2.97433 20.3861Q2.79378 20.6201 2.62833 20.8649Q2.46287 21.1098 2.31316 21.3646Q2.16345 21.6194 2.03008 21.8831Q1.8967 22.1468 1.7802 22.4184Q1.66369 22.6899 1.56451 22.9683Q1.46534 23.2467 1.38388 23.5308Q1.97803 23.4958 2.56966 23.4309Q3.16128 23.3661 3.74888 23.2714Q4.33648 23.1767 4.91855 23.0525Q5.50063 22.9284 6.07569 22.7749Q6.65075 22.6215 7.21734 22.4393Q7.78393 22.2571 8.3406 22.0465Q8.89727 21.8359 9.4426 21.5974Q9.98793 21.359 10.5205 21.0934Q11.0531 20.8277 11.5717 20.5356Q12.0902 20.2434 12.5933 19.9254Q13.0964 19.6074 13.5828 19.2645Q14.0692 18.9215 14.5377 18.5544Q15.0062 18.1873 15.4556 17.7971Q15.905 17.4068 16.3341 16.9944Q16.7632 16.582 17.1709 16.1484Q17.5787 15.7148 17.964 15.2613ZM0.95907 23.5519Q0.657797 22.5878 0.1457 21.7172Q0.28249 21.6587 0.414651 21.5903Q0.546813 21.5219 0.673645 21.4441Q0.800476 21.3663 0.921305 21.2795Q1.04213 21.1927 1.15632 21.0973Q1.2705 21.0018 1.37743 20.8984Q1.48436 20.7949 1.58347 20.6839Q1.68258 20.5729 1.77335 20.455Q1.86412 20.3371 1.94605 20.2129Q2.02799 20.0887 2.10066 19.9589Q2.17334 19.8291 2.23636 19.6943Q2.29939 19.5595 2.35243 19.4205Q2.40547 19.2814 2.44824 19.1389Q2.49101 18.9964 2.52329 18.8512Q2.55558 18.7059 2.57719 18.5587Q2.59881 18.4115 2.60965 18.2631Q2.62048 18.1147 2.62048 17.9659Q2.62048 17.7654 2.60083 17.5659Q2.58118 17.3664 2.54208 17.1698Q2.50297 16.9732 2.44477 16.7814Q2.38658 16.5895 2.30987 16.4043Q2.23315 16.2191 2.13865 16.0423Q2.04415 15.8655 1.93278 15.6988Q1.82141 15.5322 1.69424 15.3772Q1.56706 15.2222 1.42531 15.0805Q1.28356 14.9387 1.1286 14.8116Q0.973636 14.6844 0.806954 14.573Q0.640273 14.4616 0.463478 14.3671Q0.286683 14.2726 0.101477 14.1959Q-0.0837288 14.1192 -0.275562 14.061Q-0.467396 14.0028 -0.66401 13.9637Q-0.860624 13.9246 -1.06012 13.905Q-1.25962 13.8853 -1.46009 13.8853Q-1.64886 13.8853 -1.83683 13.9027Q-2.0248 13.9202 -2.21036 13.9549Q-2.39592 13.9896 -2.57747 14.0413Q-2.75903 14.093 -2.93505 14.1612Q-3.11106 14.2294 -3.28002 14.3136Q-3.44898 14.3978 -3.60944 14.4973Q-3.76991 14.5967 -3.92051 14.7105Q-4.07111 14.8243 -4.21055 14.9516Q-4.35 15.0788 -4.4771 15.2184Q-4.60421 15.358 -4.71788 15.5087Q-4.83156 15.6594 -4.93083 15.82Q-5.03011 15.9805 -5.11413 16.1496Q-5.19816 16.3186 -5.26622 16.4947Q-5.33428 16.6708 -5.3858 16.8524Q-5.43731 17.034 -5.47183 17.2196Q-5.50636 17.4052 -5.5236 17.5931Q-6.46571 17.3837 -7.4308 17.3837Q-7.82368 17.3837 -8.215 17.4188Q-8.60631 17.4538 -8.99294 17.5237Q-9.37956 17.5935 -9.75841 17.6975Q-10.1373 17.8016 -10.5053 17.939Q-10.8734 18.0764 -11.2277 18.2461Q-11.5821 18.4158 -11.9198 18.6165Q-12.2576 18.8171 -12.5762 19.0471Q-12.8947 19.2771 -13.1914 19.5345Q-12.466 20.0244 -11.7061 20.4592Q-10.9463 20.8939 -10.1563 21.2711Q-9.36632 21.6483 -8.55054 21.9659Q-7.73475 22.2835 -6.89766 22.5396Q-6.06056 22.7958 -5.20677 22.9892Q-4.35298 23.1825 -3.4872 23.312Q-2.62142 23.4416 -1.74842 23.5065Q-0.875414 23.5714 0 23.5714Q0.479733 23.5714 0.95907 23.5519ZM-21.6936 -9.21943Q-20.8817 -11.13 -19.7483 -12.8692Q-18.6149 -14.6084 -17.195 -16.1228Q-16.9602 -15.6343 -16.8398 -15.1059Q-16.7194 -14.5774 -16.7194 -14.0354Q-16.7194 -13.9171 -16.7252 -13.799Q-16.731 -13.6808 -16.7426 -13.5631Q-16.7542 -13.4454 -16.7715 -13.3284Q-16.7889 -13.2114 -16.8119 -13.0954Q-16.835 -12.9793 -16.8638 -12.8646Q-16.8925 -12.7499 -16.9268 -12.6367Q-16.9612 -12.5235 -17.001 -12.4121Q-17.0409 -12.3007 -17.0861 -12.1914Q-17.1314 -12.0822 -17.182 -11.9752Q-17.2326 -11.8683 -17.2883 -11.764Q-17.3441 -11.6597 -17.4049 -11.5582Q-17.4657 -11.4567 -17.5314 -11.3584Q-17.5971 -11.26 -17.6676 -11.165Q-17.7381 -11.07 -17.8131 -10.9786Q-17.8881 -10.8871 -17.9676 -10.7995Q-18.047 -10.7118 -18.1307 -10.6282Q-18.2143 -10.5446 -18.3019 -10.4651Q-18.3896 -10.3857 -18.481 -10.3106Q-18.5725 -10.2356 -18.6675 -10.1651Q-18.7625 -10.0947 -18.8608 -10.029Q-18.9592 -9.96325 -19.0606 -9.90244Q-19.1621 -9.84163 -19.2664 -9.78587Q-19.3707 -9.7301 -19.4777 -9.67953Q-19.5846 -9.62896 -19.6939 -9.58369Q-19.8032 -9.53842 -19.9145 -9.49857Q-20.0259 -9.45872 -20.1391 -9.42439Q-20.2523 -9.39005 -20.367 -9.36131Q-20.4818 -9.33257 -20.5978 -9.30949Q-20.7138 -9.28641 -20.8308 -9.26906Q-20.9478 -9.2517 -21.0655 -9.24011Q-21.1833 -9.22851 -21.3014 -9.22271Q-21.4196 -9.21691 -21.5378 -9.21691Q-21.6158 -9.21691 -21.6936 -9.21943ZM-0.98505 -3.16688Q-0.98505 -2.99611 -0.99343 -2.82554Q-1.00181 -2.65497 -1.01855 -2.48501Q-1.03529 -2.31506 -1.06035 -2.14613Q-1.0854 -1.9772 -1.11872 -1.8097Q-1.15204 -1.64221 -1.19353 -1.47655Q-1.23503 -1.31089 -1.2846 -1.14747Q-1.33418 -0.984044 -1.39171 -0.82325Q-1.44924 -0.662456 -1.5146 -0.504679Q-1.57995 -0.346902 -1.65297 -0.192521Q-1.72598 -0.038141 -1.80649 0.112471Q-1.88699 0.263082 -1.97479 0.409563Q-2.06258 0.556043 -2.15746 0.698039Q-2.25234 0.840034 -2.35407 0.977204Q-2.4558 1.11437 -2.56414 1.24639Q-2.67248 1.3784 -2.78717 1.50493Q-2.90186 1.63147 -3.02261 1.75223Q-3.14337 1.87299 -3.26991 1.98767Q-3.39645 2.10236 -3.52846 2.2107Q-3.66047 2.31904 -3.79764 2.42077Q-3.93481 2.5225 -4.07681 2.61738Q-4.2188 2.71226 -4.36528 2.80006Q-4.51176 2.88785 -4.66237 2.96836Q-4.81298 3.04886 -4.96737 3.12188Q-5.12175 3.19489 -5.27952 3.26025Q-5.4373 3.3256 -5.59809 3.38313Q-5.75889 3.44067 -5.92231 3.49024Q-6.08573 3.53982 -6.25139 3.58131Q-6.41705 3.62281 -6.58455 3.65612Q-6.75204 3.68944 -6.92097 3.7145Q-7.0899 3.73956 -7.25986 3.7563Q-7.42981 3.77303 -7.60038 3.78141Q-7.77095 3.78979 -7.94173 3.78979Q-8.11251 3.78979 -8.28308 3.78141Q-8.45365 3.77303 -8.6236 3.7563Q-8.79356 3.73956 -8.96248 3.7145Q-9.13141 3.68944 -9.29891 3.65612Q-9.4664 3.62281 -9.63206 3.58131Q-9.79772 3.53982 -9.96114 3.49024Q-10.1246 3.44067 -10.2854 3.38313Q-10.4462 3.3256 -10.6039 3.26025Q-10.7617 3.19489 -10.9161 3.12188Q-11.0705 3.04886 -11.2211 2.96836Q-11.3717 2.88785 -11.5182 2.80006Q-11.6647 2.71226 -11.8067 2.61738Q-11.9486 2.5225 -12.0858 2.42077Q-12.223 2.31904 -12.355 2.2107Q-12.487 2.10236 -12.6135 1.98767Q-12.7401 1.87299 -12.8608 1.75223Q-12.9816 1.63147 -13.0963 1.50493Q-13.211 1.3784 -13.3193 1.24639Q-13.4277 1.11437 -13.5294 0.977204Q-13.6311 0.840034 -13.726 0.698039Q-13.8209 0.556043 -13.9087 0.409563Q-13.9965 0.263082 -14.077 0.112471Q-14.1575 -0.038141 -14.2305 -0.192521Q-14.3035 -0.346902 -14.3689 -0.504679Q-14.4342 -0.662456 -14.4917 -0.82325Q-14.5493 -0.984044 -14.5989 -1.14747Q-14.6484 -1.31089 -14.6899 -1.47655Q-14.7314 -1.64221 -14.7647 -1.8097Q-14.7981 -1.9772 -14.8231 -2.14613Q-14.8482 -2.31506 -14.8649 -2.48501Q-14.8816 -2.65497 -14.89 -2.82554Q-14.8984 -2.99611 -14.8984 -3.16688Q-14.8984 -3.33766 -14.89 -3.50823Q-14.8816 -3.6788 -14.8649 -3.84876Q-14.8482 -4.01871 -14.8231 -4.18764Q-14.7981 -4.35657 -14.7647 -4.52407Q-14.7314 -4.69156 -14.6899 -4.85722Q-14.6484 -5.02288 -14.5989 -5.1863Q-14.5493 -5.34972 -14.4917 -5.51052Q-14.4342 -5.67131 -14.3689 -5.82909Q-14.3035 -5.98687 -14.2305 -6.14125Q-14.1575 -6.29563 -14.077 -6.44624Q-13.9965 -6.59685 -13.9087 -6.74333Q-13.8209 -6.88981 -13.726 -7.03181Q-13.6311 -7.1738 -13.5294 -7.31097Q-13.4277 -7.44814 -13.3193 -7.58015Q-13.211 -7.71217 -13.0963 -7.8387Q-12.9816 -7.96524 -12.8608 -8.086Q-12.7401 -8.20676 -12.6135 -8.32144Q-12.487 -8.43613 -12.355 -8.54447Q-12.223 -8.65281 -12.0858 -8.75454Q-11.9486 -8.85627 -11.8067 -8.95115Q-11.6647 -9.04603 -11.5182 -9.13383Q-11.3717 -9.22162 -11.2211 -9.30213Q-11.0705 -9.38263 -10.9161 -9.45565Q-10.7617 -9.52866 -10.6039 -9.59402Q-10.4462 -9.65937 -10.2854 -9.7169Q-10.1246 -9.77444 -9.96115 -9.82401Q-9.79772 -9.87358 -9.63206 -9.91508Q-9.4664 -9.95658 -9.29891 -9.98989Q-9.13141 -10.0232 -8.96248 -10.0483Q-8.79356 -10.0733 -8.6236 -10.0901Q-8.45365 -10.1068 -8.28308 -10.1152Q-8.11251 -10.1236 -7.94173 -10.1236Q-7.77095 -10.1236 -7.60038 -10.1152Q-7.42981 -10.1068 -7.25986 -10.0901Q-7.0899 -10.0733 -6.92097 -10.0483Q-6.75204 -10.0232 -6.58455 -9.98989Q-6.41705 -9.95658 -6.25139 -9.91508Q-6.08573 -9.87358 -5.92231 -9.82401Q-5.75889 -9.77444 -5.59809 -9.7169Q-5.4373 -9.65937 -5.27952 -9.59402Q-5.12175 -9.52866 -4.96736 -9.45565Q-4.81298 -9.38263 -4.66237 -9.30213Q-4.51176 -9.22162 -4.36528 -9.13383Q-4.2188 -9.04603 -4.0768 -8.95115Q-3.93481 -8.85627 -3.79764 -8.75454Q-3.66047 -8.65281 -3.52846 -8.54447Q-3.39645 -8.43613 -3.26991 -8.32144Q-3.14337 -8.20676 -3.02261 -8.086Q-2.90186 -7.96524 -2.78717 -7.8387Q-2.67248 -7.71217 -2.56414 -7.58015Q-2.4558 -7.44814 -2.35407 -7.31097Q-2.25234 -7.1738 -2.15746 -7.03181Q-2.06258 -6.88981 -1.97479 -6.74333Q-1.88699 -6.59685 -1.80649 -6.44624Q-1.72598 -6.29563 -1.65297 -6.14125Q-1.57995 -5.98687 -1.5146 -5.82909Q-1.44924 -5.67131 -1.39171 -5.51052Q-1.33418 -5.34973 -1.2846 -5.1863Q-1.23503 -5.02288 -1.19353 -4.85722Q-1.15204 -4.69156 -1.11872 -4.52407Q-1.0854 -4.35657 -1.06035 -4.18764Q-1.03529 -4.01871 -1.01855 -3.84876Q-1.00181 -3.6788 -0.99343 -3.50823Q-0.98505 -3.33766 -0.98505 -3.16688Z" fill-rule="evenodd"/>
	<path fill="none" stroke="black" stroke-width="2.3999999" stroke-linejoin="round" transform="translate(55 79.2857)" d="M-21.7216 -6.4323Q-21.3603 -5.76824 -20.8916 -4.79656Q-20.4179 -3.82977 -19.9101 -2.69695Q-19.4023 -1.56902 -18.9043 -0.387383Q-18.4013 0.789375 -17.9619 1.82941Q-17.5175 0.789375 -17.0195 -0.387383Q-16.5215 -1.56902 -16.0136 -2.69695Q-15.5009 -3.82977 -15.0322 -4.79656Q-14.5586 -5.76824 -14.2021 -6.4323L-11.3603 -6.4323Q-11.1601 -5.05047 -10.9892 -3.3366Q-10.8183 -1.62762 -10.6914 0.222969Q-10.5595 2.06867 -10.4521 3.92902Q-10.3398 5.78937 -10.2617 7.43L-13.2988 7.43Q-13.3623 5.40852 -13.4599 3.03059Q-13.5576 0.647773 -13.7578 -1.76922Q-14.1191 -0.929375 -14.5586 0.0911326Q-14.998 1.11164 -15.4326 2.13215Q-15.8623 3.14777 -16.2627 4.08039Q-16.6582 5.00812 -16.9414 5.67219L-19.1191 5.67219Q-19.4023 5.00812 -19.8027 4.08039Q-20.1982 3.14777 -20.6279 2.13215Q-21.0576 1.11164 -21.5019 0.0911326Q-21.9414 -0.929375 -22.2978 -1.76922Q-22.498 0.647773 -22.6006 3.03059Q-22.6982 5.40852 -22.7617 7.43L-25.7988 7.43Q-25.7207 5.78937 -25.6133 3.92902Q-25.5009 2.06867 -25.374 0.222969Q-25.2422 -1.62762 -25.0713 -3.3366Q-24.9004 -5.05047 -24.7002 -6.4323L-21.7216 -6.4323ZM2.18025 2.15168Q2.18025 3.39191 1.81892 4.42219Q1.4576 5.44758 0.778885 6.18Q0.100174 6.91242 -0.851974 7.31281Q-1.79924 7.70832 -2.98088 7.70832Q-4.13811 7.70832 -5.09026 7.31281Q-6.0424 6.91242 -6.72112 6.18Q-7.39983 5.44758 -7.78069 4.42219Q-8.16154 3.39191 -8.16154 2.15168Q-8.16154 0.911445 -7.77092 -0.109063Q-7.38029 -1.12957 -6.69182 -1.84734Q-5.99846 -2.57 -5.05119 -2.97039Q-4.09904 -3.37078 -2.98088 -3.37078Q-1.8383 -3.37078 -0.891037 -2.97039Q0.0611115 -2.57 0.739822 -1.84734Q1.41853 -1.12957 1.79939 -0.109063Q2.18025 0.911445 2.18025 2.15168ZM-0.86174 2.15168Q-0.86174 0.769844 -1.4135 -0.021172Q-1.96037 -0.812188 -2.98088 -0.812188Q-4.00139 -0.812188 -4.56291 -0.021172Q-5.11955 0.769844 -5.11955 2.15168Q-5.11955 3.52863 -4.56291 4.33918Q-4.00139 5.14973 -2.98088 5.14973Q-1.96037 5.14973 -1.4135 4.33918Q-0.86174 3.52863 -0.86174 2.15168ZM14.3202 2.15168Q14.3202 3.39191 13.9589 4.42219Q13.5976 5.44758 12.9189 6.18Q12.2402 6.91242 11.288 7.31281Q10.3407 7.70832 9.1591 7.70832Q8.00188 7.70832 7.04973 7.31281Q6.09758 6.91242 5.41887 6.18Q4.74016 5.44758 4.3593 4.42219Q3.97844 3.39191 3.97844 2.15168Q3.97844 0.911445 4.36906 -0.109063Q4.75969 -1.12957 5.44817 -1.84734Q6.14153 -2.57 7.08879 -2.97039Q8.04094 -3.37078 9.1591 -3.37078Q10.3017 -3.37078 11.2489 -2.97039Q12.2011 -2.57 12.8798 -1.84734Q13.5585 -1.12957 13.9394 -0.109063Q14.3202 0.911445 14.3202 2.15168ZM11.2782 2.15168Q11.2782 0.769844 10.7265 -0.021172Q10.1796 -0.812188 9.1591 -0.812188Q8.1386 -0.812188 7.57707 -0.021172Q7.02043 0.769844 7.02043 2.15168Q7.02043 3.52863 7.57707 4.33918Q8.1386 5.14973 9.1591 5.14973Q10.1796 5.14973 10.7265 4.33918Q11.2782 3.52863 11.2782 2.15168ZM16.6214 -2.73113Q17.3782 -2.95086 18.5794 -3.14129Q19.7805 -3.33172 21.0989 -3.33172Q22.4417 -3.33172 23.3303 -2.98016Q24.219 -2.62859 24.7366 -1.98895Q25.259 -1.3493 25.4788 -0.470391Q25.6985 0.408515 25.6985 1.48762L25.6985 7.43L22.72 7.43L22.72 1.84895Q22.72 0.408515 22.3391 -0.187188Q21.9583 -0.787774 20.9182 -0.787774Q20.6008 -0.787774 20.2395 -0.758477Q19.8782 -0.72918 19.5999 -0.690117L19.5999 7.43L16.6214 7.43L16.6214 -2.73113Z"/>
	<path fill="white" transform="translate(55 79.2857)" d="M-21.7216 -6.4323Q-21.3603 -5.76824 -20.8916 -4.79656Q-20.4179 -3.82977 -19.9101 -2.69695Q-19.4023 -1.56902 -18.9043 -0.387383Q-18.4013 0.789375 -17.9619 1.82941Q-17.5175 0.789375 -17.0195 -0.387383Q-16.5215 -1.56902 -16.0136 -2.69695Q-15.5009 -3.82977 -15.0322 -4.79656Q-14.5586 -5.76824 -14.2021 -6.4323L-11.3603 -6.4323Q-11.1601 -5.05047 -10.9892 -3.3366Q-10.8183 -1.62762 -10.6914 0.222969Q-10.5595 2.06867 -10.4521 3.92902Q-10.3398 5.78937 -10.2617 7.43L-13.2988 7.43Q-13.3623 5.40852 -13.4599 3.03059Q-13.5576 0.647773 -13.7578 -1.76922Q-14.1191 -0.929375 -14.5586 0.0911326Q-14.998 1.11164 -15.4326 2.13215Q-15.8623 3.14777 -16.2627 4.08039Q-16.6582 5.00812 -16.9414 5.67219L-19.1191 5.67219Q-19.4023 5.00812 -19.8027 4.08039Q-20.1982 3.14777 -20.6279 2.13215Q-21.0576 1.11164 -21.5019 0.0911326Q-21.9414 -0.929375 -22.2978 -1.76922Q-22.498 0.647773 -22.6006 3.03059Q-22.6982 5.40852 -22.7617 7.43L-25.7988 7.43Q-25.7207 5.78937 -25.6133 3.92902Q-25.5009 2.06867 -25.374 0.222969Q-25.2422 -1.62762 -25.0713 -3.3366Q-24.9004 -5.05047 -24.7002 -6.4323L-21.7216 -6.4323ZM2.18025 2.15168Q2.18025 3.39191 1.81892 4.42219Q1.4576 5.44758 0.778885 6.18Q0.100174 6.91242 -0.851974 7.31281Q-1.79924 7.70832 -2.98088 7.70832Q-4.13811 7.70832 -5.09026 7.31281Q-6.0424 6.91242 -6.72112 6.18Q-7.39983 5.44758 -7.78069 4.42219Q-8.16154 3.39191 -8.16154 2.15168Q-8.16154 0.911445 -7.77092 -0.109063Q-7.38029 -1.12957 -6.69182 -1.84734Q-5.99846 -2.57 -5.05119 -2.97039Q-4.09904 -3.37078 -2.98088 -3.37078Q-1.8383 -3.37078 -0.891037 -2.97039Q0.0611115 -2.57 0.739822 -1.84734Q1.41853 -1.12957 1.79939 -0.109063Q2.18025 0.911445 2.18025 2.15168ZM-0.86174 2.15168Q-0.86174 0.769844 -1.4135 -0.021172Q-1.96037 -0.812188 -2.98088 -0.812188Q-4.00139 -0.812188 -4.56291 -0.021172Q-5.11955 0.769844 -5.11955 2.15168Q-5.11955 3.52863 -4.56291 4.33918Q-4.00139 5.14973 -2.98088 5.14973Q-1.96037 5.14973 -1.4135 4.33918Q-0.86174 3.52863 -0.86174 2.15168ZM14.3202 2.15168Q14.3202 3.39191 13.9589 4.42219Q13.5976 5.44758 12.9189 6.18Q12.2402 6.91242 11.288 7.31281Q10.3407 7.70832 9.1591 7.70832Q8.00188 7.70832 7.04973 7.31281Q6.09758 6.91242 5.41887 6.18Q4.74016 5.44758 4.3593 4.42219Q3.97844 3.39191 3.97844 2.15168Q3.97844 0.911445 4.36906 -0.109063Q4.75969 -1.12957 5.44817 -1.84734Q6.14153 -2.57 7.08879 -2.97039Q8.04094 -3.37078 9.1591 -3.37078Q10.3017 -3.37078 11.2489 -2.97039Q12.2011 -2.57 12.8798 -1.84734Q13.5585 -1.12957 13.9394 -0.109063Q14.3202 0.911445 14.3202 2.15168ZM11.2782 2.15168Q11.2782 0.769844 10.7265 -0.021172Q10.1796 -0.812188 9.1591 -0.812188Q8.1386 -0.812188 7.57707 -0.021172Q7.02043 0.769844 7.02043 2.15168Q7.02043 3.52863 7.57707 4.33918Q8.1386 5.14973 9.1591 5.14973Q10.1796 5.14973 10.7265 4.33918Q11.2782 3.52863 11.2782 2.15168ZM16.6214 -2.73113Q17.3782 -2.95086 18.5794 -3.14129Q19.7805 -3.33172 21.0989 -3.33172Q22.4417 -3.33172 23.3303 -2.98016Q24.219 -2.62859 24.7366 -1.98895Q25.259 -1.3493 25.4788 -0.470391Q25.6985 0.408515 25.6985 1.48762L25.6985 7.43L22.72 7.43L22.72 1.84895Q22.72 0.408515 22.3391 -0.187188Q21.9583 -0.787774 20.9182 -0.787774Q20.6008 -0.787774 20.2395 -0.758477Q19.8782 -0.72918 19.5999 -0.690117L19.5999 7.43L16.6214 7.43L16.6214 -2.73113Z"/>
</svg>
