<?xml version="1.0" encoding="utf-8" ?>
<svg xmlns="http://www.w3.org/2000/svg" xmlns:xlink="http://www.w3.org/1999/xlink" width="110" height="110">
	<path fill="#6D6D6D" transform="matrix(0.373127 0.0374375 -0.0374375 0.373127 55 47.8571)" d="M57.1429 0Q57.1429 1.40278 57.074 2.80387Q57.0052 4.20496 56.8677 5.60098Q56.7302 6.997 56.5244 8.3846Q56.3185 9.77219 56.0449 11.148Q55.7712 12.5238 55.4304 13.8846Q55.0895 15.2453 54.6823 16.5877Q54.2751 17.9301 53.8025 19.2508Q53.3299 20.5716 52.7931 21.8676Q52.2563 23.1636 51.6565 24.4317Q51.0568 25.6998 50.3955 26.937Q49.7342 28.1741 49.0131 29.3773Q48.2919 30.5805 47.5125 31.7469Q46.7332 32.9132 45.8976 34.04Q45.0619 35.1667 44.172 36.251Q43.2821 37.3354 42.3401 38.3748Q41.398 39.4142 40.4061 40.4061Q39.4142 41.398 38.3748 42.3401Q37.3354 43.2821 36.251 44.172Q35.1667 45.0619 34.04 45.8976Q32.9132 46.7332 31.7469 47.5125Q30.5805 48.2919 29.3773 49.0131Q28.1741 49.7342 26.937 50.3955Q25.6998 51.0568 24.4317 51.6565Q23.1636 52.2563 21.8676 52.7931Q20.5716 53.3299 19.2508 53.8025Q17.9301 54.2751 16.5877 54.6823Q15.2453 55.0895 13.8846 55.4304Q12.5238 55.7712 11.148 56.0449Q9.77219 56.3185 8.3846 56.5244Q6.997 56.7302 5.60098 56.8677Q4.20496 57.0052 2.80387 57.074Q1.40278 57.1429 0 57.1429Q-1.40278 57.1429 -2.80387 57.074Q-4.20496 57.0052 -5.60098 56.8677Q-6.997 56.7302 -8.3846 56.5244Q-9.77219 56.3185 -11.148 56.0449Q-12.5238 55.7712 -13.8846 55.4304Q-15.2453 55.0895 -16.5877 54.6823Q-17.9301 54.2751 -19.2508 53.8025Q-20.5716 53.3299 -21.8676 52.7931Q-23.1636 52.2563 -24.4317 51.6565Q-25.6998 51.0568 -26.937 50.3955Q-28.1741 49.7342 -29.3773 49.0131Q-30.5805 48.2919 -31.7469 47.5125Q-32.9132 46.7332 -34.04 45.8976Q-35.1667 45.0619 -36.251 44.172Q-37.3354 43.2821 -38.3748 42.3401Q-39.4142 41.398 -40.4061 40.4061Q-41.398 39.4142 -42.3401 38.3748Q-43.2821 37.3354 -44.172 36.251Q-45.0619 35.1667 -45.8976 34.04Q-46.7332 32.9132 -47.5125 31.7469Q-48.2919 30.5805 -49.0131 29.3773Q-49.7342 28.1741 -50.3955 26.937Q-51.0568 25.6998 -51.6565 24.4317Q-52.2563 23.1636 -52.7931 21.8676Q-53.3299 20.5716 -53.8025 19.2508Q-54.2751 17.9301 -54.6823 16.5877Q-55.0895 15.2453 -55.4304 13.8846Q-55.7712 12.5238 -56.0449 11.148Q-56.3185 9.77219 -56.5244 8.3846Q-56.7302 6.997 -56.8677 5.60098Q-57.0052 4.20496 -57.074 2.80387Q-57.1429 1.40278 -57.1429 0Q-57.1429 -1.40278 -57.074 -2.80387Q-57.0052 -4.20496 -56.8677 -5.60098Q-56.7302 -6.997 -56.5244 -8.3846Q-56.3185 -9.77219 -56.0449 -11.148Q-55.7712 -12.5238 -55.4304 -13.8846Q-55.0895 -15.2453 -54.6823 -16.5877Q-54.2751 -17.9301 -53.8025 -19.2508Q-53.3299 -20.5716 -52.7931 -21.8676Q-52.2563 -23.1636 -51.6565 -24.4317Q-51.0568 -25.6998 -50.3955 -26.937Q-49.7342 -28.1741 -49.0131 -29.3773Q-48.2919 -30.5805 -47.5125 -31.7469Q-46.7332 -32.9132 -45.8976 -34.04Q-45.0619 -35.1667 -44.172 -36.251Q-43.2821 -37.3354 -42.3401 -38.3748Q-41.398 -39.4142 -40.4061 -40.4061Q-39.4142 -41.398 -38.3748 -42.3401Q-37.3354 -43.2821 -36.251 -44.172Q-35.1667 -45.0619 -34.04 -45.8976Q-32.9132 -46.7332 -31.7469 -47.5125Q-30.5805 -48.2919 -29.3773 -49.0131Q-28.1741 -49.7342 -26.937 -50.3955Q-25.6998 -51.0568 -24.4317 -51.6565Q-23.1636 -52.2563 -21.8676 -52.7931Q-20.5716 -53.3299 -19.2508 -53.8025Q-17.9301 -54.2751 -16.5877 -54.6823Q-15.2453 -55.0895 -13.8846 -55.4304Q-12.5238 -55.7712 -11.148 -56.0449Q-9.77219 -56.3185 -8.3846 -56.5244Q-6.997 -56.7302 -5.60098 -56.8677Q-4.20496 -57.0052 -2.80387 -57.074Q-1.40278 -57.1429 0 -57.1429Q1.40278 -57.1429 2.80387 -57.074Q4.20496 -57.0052 5.60098 -56.8677Q6.997 -56.7302 8.3846 -56.5244Q9.77219 -56.3185 11.148 -56.0449Q12.5238 -55.7712 13.8846 -55.4304Q15.2453 -55.0895 16.5877 -54.6823Q17.9301 -54.2751 19.2508 -53.8025Q20.5716 -53.3299 21.8676 -52.7931Q23.1636 -52.2563 24.4317 -51.6565Q25.6998 -51.0568 26.937 -50.3955Q28.1741 -49.7342 29.3773 -49.0131Q30.5805 -48.2919 31.7469 -47.5125Q32.9132 -46.7332 34.04 -45.8976Q35.1667 -45.0619 36.251 -44.172Q37.3354 -43.2821 38.3748 -42.3401Q39.4142 -41.398 40.4061 -40.4061Q41.398 -39.4142 42.3401 -38.3748Q43.2821 -37.3354 44.172 -36.251Q45.0619 -35.1667 45.8976 -34.04Q46.7332 -32.9132 47.5125 -31.7469Q48.2919 -30.5805 49.0131 -29.3773Q49.7342 -28.1741 50.3955 -26.937Q51.0568 -25.6998 51.6565 -24.4317Q52.2563 -23.1636 52.7931 -21.8676Q53.3299 -20.5716 53.8025 -19.2508Q54.2751 -17.9301 54.6823 -16.5877Q55.0895 -15.2453 55.4304 -13.8846Q55.7712 -12.5238 56.0449 -11.148Q56.3185 -9.77219 56.5244 -8.3846Q56.7302 -6.997 56.8677 -5.60098Q57.0052 -4.20496 57.074 -2.80387Q57.1429 -1.40278 57.1429 0"/>
	<path fill="#878787" transform="matrix(0.373127 0.0374375 -0.0374375 0.373127 55 47.8571)" d="M52.1429 0Q52.1429 1.28004 52.08 2.55853Q52.0172 3.83702 51.8918 5.11089Q51.7663 6.38477 51.5785 7.65095Q51.3907 8.91713 51.1409 10.1726Q50.8912 11.428 50.5802 12.6697Q50.2692 13.9114 49.8976 15.1363Q49.526 16.3612 49.0948 17.5664Q48.6636 18.7716 48.1737 19.9542Q47.6839 21.1368 47.1366 22.2939Q46.5893 23.4511 45.9859 24.58Q45.3825 25.7089 44.7244 26.8068Q44.0664 27.9047 43.3552 28.969Q42.6441 30.0333 41.8815 31.0615Q41.119 32.0896 40.307 33.0791Q39.4949 34.0686 38.6353 35.017Q37.7757 35.9654 36.8706 36.8706Q35.9654 37.7757 35.017 38.6353Q34.0686 39.4949 33.0791 40.307Q32.0896 41.119 31.0615 41.8815Q30.0333 42.6441 28.969 43.3552Q27.9047 44.0664 26.8068 44.7244Q25.7089 45.3825 24.58 45.9859Q23.4511 46.5893 22.2939 47.1366Q21.1368 47.6839 19.9542 48.1737Q18.7716 48.6636 17.5664 49.0948Q16.3612 49.526 15.1363 49.8976Q13.9114 50.2692 12.6697 50.5802Q11.428 50.8912 10.1726 51.1409Q8.91713 51.3907 7.65095 51.5785Q6.38477 51.7663 5.11089 51.8918Q3.83702 52.0172 2.55853 52.08Q1.28004 52.1429 0 52.1429Q-1.28004 52.1429 -2.55853 52.08Q-3.83702 52.0172 -5.11089 51.8918Q-6.38477 51.7663 -7.65095 51.5785Q-8.91713 51.3907 -10.1726 51.1409Q-11.428 50.8912 -12.6697 50.5802Q-13.9114 50.2692 -15.1363 49.8976Q-16.3612 49.526 -17.5664 49.0948Q-18.7716 48.6636 -19.9542 48.1737Q-21.1368 47.6839 -22.2939 47.1366Q-23.4511 46.5893 -24.58 45.9859Q-25.7089 45.3825 -26.8068 44.7244Q-27.9047 44.0664 -28.969 43.3552Q-30.0333 42.6441 -31.0615 41.8815Q-32.0896 41.119 -33.0791 40.307Q-34.0686 39.4949 -35.017 38.6353Q-35.9654 37.7757 -36.8706 36.8706Q-37.7757 35.9654 -38.6353 35.017Q-39.4949 34.0686 -40.307 33.0791Q-41.119 32.0896 -41.8815 31.0615Q-42.6441 30.0333 -43.3552 28.969Q-44.0664 27.9047 -44.7244 26.8068Q-45.3825 25.7089 -45.9859 24.58Q-46.5893 23.4511 -47.1366 22.2939Q-47.6839 21.1368 -48.1737 19.9542Q-48.6636 18.7716 -49.0948 17.5664Q-49.526 16.3612 -49.8976 15.1363Q-50.2692 13.9114 -50.5802 12.6697Q-50.8912 11.428 -51.1409 10.1726Q-51.3907 8.91713 -51.5785 7.65095Q-51.7663 6.38477 -51.8918 5.11089Q-52.0172 3.83702 -52.08 2.55853Q-52.1429 1.28004 -52.1429 0Q-52.1429 -1.28004 -52.08 -2.55853Q-52.0172 -3.83702 -51.8918 -5.11089Q-51.7663 -6.38477 -51.5785 -7.65095Q-51.3907 -8.91713 -51.1409 -10.1726Q-50.8912 -11.428 -50.5802 -12.6697Q-50.2692 -13.9114 -49.8976 -15.1363Q-49.526 -16.3612 -49.0948 -17.5664Q-48.6636 -18.7716 -48.1737 -19.9542Q-47.6839 -21.1368 -47.1366 -22.2939Q-46.5893 -23.4511 -45.9859 -24.58Q-45.3825 -25.7089 -44.7244 -26.8068Q-44.0664 -27.9047 -43.3552 -28.969Q-42.6441 -30.0333 -41.8815 -31.0615Q-41.119 -32.0896 -40.307 -33.0791Q-39.4949 -34.0686 -38.6353 -35.017Q-37.7757 -35.9654 -36.8706 -36.8706Q-35.9654 -37.7757 -35.017 -38.6353Q-34.0686 -39.4949 -33.0791 -40.307Q-32.0896 -41.119 -31.0615 -41.8815Q-30.0333 -42.6441 -28.969 -43.3552Q-27.9047 -44.0664 -26.8068 -44.7244Q-25.7089 -45.3825 -24.58 -45.9859Q-23.4511 -46.5893 -22.2939 -47.1366Q-21.1368 -47.6839 -19.9542 -48.1737Q-18.7716 -48.6636 -17.5664 -49.0948Q-16.3612 -49.526 -15.1363 -49.8976Q-13.9114 -50.2692 -12.6697 -50.5802Q-11.428 -50.8912 -10.1726 -51.1409Q-8.91713 -51.3907 -7.65095 -51.5785Q-6.38477 -51.7663 -5.11089 -51.8918Q-3.83702 -52.0172 -2.55853 -52.08Q-1.28004 -52.1429 0 -52.1429Q1.28004 -52.1429 2.55853 -52.08Q3.83702 -52.0172 5.11089 -51.8918Q6.38477 -51.7663 7.65095 -51.5785Q8.91713 -51.3907 10.1726 -51.1409Q11.428 -50.8912 12.6697 -50.5802Q13.9114 -50.2692 15.1363 -49.8976Q16.3612 -49.526 17.5664 -49.0948Q18.7716 -48.6636 19.9542 -48.1737Q21.1368 -47.6839 22.2939 -47.1366Q23.4511 -46.5893 24.58 -45.9859Q25.7089 -45.3825 26.8068 -44.7244Q27.9047 -44.0664 28.969 -43.3552Q30.0333 -42.6441 31.0615 -41.8815Q32.0896 -41.119 33.0791 -40.307Q34.0686 -39.4949 35.017 -38.6353Q35.9654 -37.7757 36.8706 -36.8706Q37.7757 -35.9654 38.6353 -35.017Q39.4949 -34.0686 40.307 -33.0791Q41.119 -32.0896 41.8815 -31.0615Q42.6441 -30.0333 43.3552 -28.969Q44.0664 -27.9047 44.7244 -26.8068Q45.3825 -25.7089 45.9859 -24.58Q46.5893 -23.4511 47.1366 -22.2939Q47.6839 -21.1368 48.1737 -19.9542Q48.6636 -18.7716 49.0948 -17.5664Q49.526 -16.3612 49.8976 -15.1363Q50.2692 -13.9114 50.5802 -12.6697Q50.8912 -11.428 51.1409 -10.1726Q51.3907 -8.91713 51.5785 -7.65095Q51.7663 -6.38477 51.8918 -5.11089Q52.0172 -3.83702 52.08 -2.55853Q52.1429 -1.28004 52.1429 0"/>
	<path fill="#7C7C7C" transform="matrix(0.373127 0.0374375 -0.0374375 0.373127 55 47.8571)" d="M-21.536 -44.4374Q-21.536 -44.2044 -21.5474 -43.9718Q-21.5588 -43.7392 -21.5817 -43.5074Q-21.6045 -43.2756 -21.6387 -43.0452Q-21.6728 -42.8149 -21.7183 -42.5864Q-21.7637 -42.358 -21.8203 -42.1321Q-21.8769 -41.9061 -21.9445 -41.6833Q-22.0121 -41.4604 -22.0906 -41.2411Q-22.169 -41.0218 -22.2582 -40.8066Q-22.3473 -40.5914 -22.4469 -40.3809Q-22.5464 -40.1704 -22.6562 -39.965Q-22.766 -39.7596 -22.8858 -39.5598Q-23.0055 -39.36 -23.1349 -39.1664Q-23.2643 -38.9727 -23.403 -38.7856Q-23.5418 -38.5986 -23.6895 -38.4185Q-23.8373 -38.2385 -23.9937 -38.0659Q-24.1501 -37.8933 -24.3148 -37.7287Q-24.4795 -37.564 -24.6521 -37.4076Q-24.8246 -37.2511 -25.0047 -37.1034Q-25.1847 -36.9556 -25.3718 -36.8169Q-25.5588 -36.6782 -25.7525 -36.5488Q-25.9462 -36.4194 -26.1459 -36.2996Q-26.3457 -36.1799 -26.5511 -36.0701Q-26.7565 -35.9603 -26.9671 -35.8607Q-27.1776 -35.7611 -27.3928 -35.672Q-27.6079 -35.5829 -27.8272 -35.5044Q-28.0465 -35.426 -28.2694 -35.3584Q-28.4923 -35.2907 -28.7182 -35.2341Q-28.9441 -35.1776 -29.1726 -35.1321Q-29.401 -35.0867 -29.6314 -35.0525Q-29.8618 -35.0183 -30.0936 -34.9955Q-30.3253 -34.9727 -30.558 -34.9612Q-30.7906 -34.9498 -31.0235 -34.9498Q-31.7954 -34.9498 -32.5571 -35.0746Q-32.0419 -34.3008 -31.6455 -33.46Q-31.249 -32.6192 -30.9799 -31.7294Q-30.7108 -30.8396 -30.5747 -29.92Q-30.4387 -29.0004 -30.4387 -28.0708Q-30.4387 -27.7606 -30.4539 -27.4507Q-30.4692 -27.1409 -30.4996 -26.8321Q-30.53 -26.5234 -30.5755 -26.2166Q-30.621 -25.9097 -30.6815 -25.6054Q-30.742 -25.3012 -30.8174 -25.0002Q-30.8928 -24.6993 -30.9829 -24.4025Q-31.0729 -24.1056 -31.1774 -23.8135Q-31.2819 -23.5214 -31.4006 -23.2348Q-31.5194 -22.9482 -31.652 -22.6678Q-31.7846 -22.3873 -31.9309 -22.1138Q-32.0771 -21.8402 -32.2366 -21.5741Q-32.3961 -21.308 -32.5684 -21.0501Q-32.7408 -20.7921 -32.9256 -20.5429Q-33.1104 -20.2938 -33.3072 -20.054Q-33.504 -19.8142 -33.7123 -19.5843Q-33.9206 -19.3545 -34.14 -19.1351Q-34.3594 -18.9157 -34.5892 -18.7074Q-34.8191 -18.4991 -35.0589 -18.3023Q-35.2987 -18.1055 -35.5478 -17.9207Q-35.797 -17.7359 -36.055 -17.5635Q-36.3129 -17.3912 -36.579 -17.2317Q-36.8451 -17.0722 -37.1187 -16.926Q-37.3922 -16.7797 -37.6727 -16.6471Q-37.9531 -16.5145 -38.2397 -16.3957Q-38.5263 -16.277 -38.8184 -16.1725Q-39.1105 -16.068 -39.4074 -15.978Q-39.7042 -15.8879 -40.0051 -15.8125Q-40.3061 -15.7371 -40.6103 -15.6766Q-40.9146 -15.6161 -41.2215 -15.5706Q-41.5283 -15.5251 -41.837 -15.4947Q-42.1458 -15.4643 -42.4556 -15.449Q-42.7655 -15.4338 -43.0757 -15.4338Q-43.8865 -15.4338 -44.6908 -15.5374Q-45.495 -15.6411 -46.2793 -15.8466Q-47.0637 -16.0522 -47.8154 -16.3563Q-48.5671 -16.6605 -49.2737 -17.0582Q-48.8458 -18.2941 -48.3565 -19.5071Q-47.8672 -20.7201 -47.3177 -21.907Q-46.7682 -23.0939 -46.1599 -24.2517Q-45.5515 -25.4096 -44.8859 -26.5355Q-44.2203 -27.6614 -43.4991 -28.7525Q-42.7779 -29.8436 -42.0029 -30.8972Q-41.2278 -31.9508 -40.401 -32.9642Q-39.5741 -33.9776 -38.6975 -34.9483Q-37.8209 -35.919 -36.8967 -36.8445Q-35.9725 -37.77 -35.003 -38.648Q-34.0336 -39.526 -33.0214 -40.3543Q-32.0091 -41.1826 -30.9566 -41.9591Q-29.9042 -42.7356 -28.8141 -43.4583Q-27.724 -44.1811 -26.599 -44.8483Q-25.474 -45.5155 -24.317 -46.1255Q-23.16 -46.7354 -21.9739 -47.2866Q-21.536 -45.8956 -21.536 -44.4374ZM50.6517 -12.3806Q50.4315 -12.3226 50.2139 -12.2557Q49.9963 -12.1887 49.7816 -12.1129Q49.5669 -12.037 49.3555 -11.9524Q49.1441 -11.8679 48.9364 -11.7747Q48.7286 -11.6815 48.5249 -11.5799Q48.3211 -11.4782 48.1217 -11.3683Q47.9223 -11.2584 47.7275 -11.1404Q47.5328 -11.0224 47.3431 -10.8966Q47.1533 -10.7707 46.9689 -10.6371Q46.7845 -10.5036 46.6058 -10.3625Q46.427 -10.2215 46.2542 -10.0733Q46.0813 -9.92507 45.9147 -9.76987Q45.7481 -9.61467 45.588 -9.45277Q45.4279 -9.29086 45.2746 -9.12253Q45.1213 -8.95419 44.975 -8.77971Q44.8287 -8.60522 44.6897 -8.42488Q44.5507 -8.24454 44.4192 -8.05865Q44.2877 -7.87276 44.164 -7.68163Q44.0402 -7.4905 43.9244 -7.29445Q43.8086 -7.09841 43.701 -6.89777Q43.5933 -6.69714 43.494 -6.49226Q43.3946 -6.28738 43.3038 -6.0786Q43.2129 -5.86981 43.1307 -5.65748Q43.0485 -5.44514 42.9751 -5.22961Q42.9017 -5.01408 42.8372 -4.79572Q42.7726 -4.57736 42.7171 -4.35653Q42.6616 -4.13571 42.6152 -3.91279Q42.5688 -3.68988 42.5316 -3.46525Q42.4944 -3.24061 42.4665 -3.01465Q42.4385 -2.78868 42.4198 -2.56175Q42.4012 -2.33482 42.3918 -2.10732Q42.3825 -1.87982 42.3825 -1.65213Q42.3825 -1.41372 42.3927 -1.17554Q42.403 -0.937352 42.4234 -0.699827Q42.4439 -0.462302 42.4745 -0.225875Q42.5052 0.0105522 42.546 0.245444Q42.5867 0.480336 42.6376 0.713259Q42.6884 0.946183 42.7492 1.17671Q42.81 1.40723 42.8806 1.63493Q42.9513 1.86263 43.0316 2.08709Q43.112 2.31154 43.2019 2.53234Q43.2918 2.75314 43.3911 2.96987Q43.4904 3.1866 43.599 3.39886Q43.7075 3.61112 43.8251 3.81853Q43.9426 4.02593 44.069 4.2281Q44.1954 4.43026 44.3303 4.62681Q44.4652 4.82335 44.6085 5.01392Q44.7517 5.20449 44.903 5.38873Q45.0543 5.57297 45.2134 5.75054Q45.3725 5.92811 45.5391 6.09869Q45.7056 6.26926 45.8793 6.43252Q46.0531 6.59578 46.2337 6.75142Q46.4143 6.90707 46.6014 7.05481Q46.7885 7.20256 46.9817 7.34213Q47.175 7.4817 47.3741 7.61284Q47.5732 7.74397 47.7778 7.86644Q47.9823 7.9889 48.1919 8.10247Q48.4016 8.21603 48.6159 8.32049Q48.8302 8.42494 49.0488 8.52009Q49.2674 8.61524 49.4898 8.70091Q49.7123 8.78659 49.9383 8.86263Q50.1642 8.93866 50.3932 9.00492Q50.6222 9.07118 50.8539 9.12754Q51.0855 9.1839 51.3194 9.23026Q52.1429 4.65186 52.1429 0Q52.1429 -3.12874 51.7687 -6.23503Q51.3946 -9.34132 50.6517 -12.3806ZM42.15 30.6962Q41.4295 30.1382 40.6656 29.6414Q39.9017 29.1446 39.0995 28.7123Q38.2973 28.28 37.4622 27.9152Q36.6272 27.5504 35.7649 27.2556Q34.9027 26.9607 34.0191 26.7378Q33.1355 26.5149 32.2366 26.3654Q31.3377 26.216 30.4295 26.141Q29.5213 26.066 28.6101 26.066Q27.6143 26.066 26.6226 26.1555Q25.6308 26.245 24.6511 26.4233Q23.6715 26.6016 22.7118 26.8672Q21.7521 27.1328 20.8202 27.4836Q19.8882 27.8344 18.9916 28.2675Q18.095 28.7007 17.2409 29.2127Q16.3868 29.7246 15.5822 30.3113Q14.7776 30.898 14.029 31.5546Q12.4552 32.0698 10.9775 32.8173Q9.49979 33.5647 8.15224 34.5273Q8.12053 34.2773 8.07757 34.029Q8.03462 33.7807 7.9805 33.5346Q7.92638 33.2885 7.86121 33.0451Q7.79604 32.8017 7.71996 32.5615Q7.64387 32.3213 7.55702 32.0848Q7.47017 31.8482 7.37273 31.6159Q7.2753 31.3835 7.16747 31.1557Q7.05965 30.928 6.94166 30.7054Q6.82367 30.4827 6.69575 30.2656Q6.56783 30.0485 6.43024 29.8374Q6.29266 29.6263 6.14568 29.4217Q5.99871 29.217 5.84265 29.0192Q5.68659 28.8213 5.52177 28.6308Q5.35694 28.4402 5.18368 28.2572Q5.01042 28.0743 4.82907 27.8993Q4.64773 27.7244 4.45868 27.5578Q4.26963 27.3912 4.07325 27.2333Q3.87688 27.0754 3.67358 26.9266Q3.47027 26.7777 3.26046 26.6382Q3.05065 26.4986 2.83475 26.3687Q2.61886 26.2388 2.39732 26.1187Q2.17578 25.9987 1.94905 25.8888Q1.72231 25.7788 1.49085 25.6793Q1.25939 25.5797 1.02367 25.4906Q0.787953 25.4016 0.548455 25.3233Q0.308958 25.245 0.0661702 25.1776Q-0.176617 25.1101 -0.4222 25.0537Q-0.667783 24.9974 -0.915661 24.9521Q-1.16354 24.9068 -1.41321 24.8728Q-1.66287 24.8388 -1.91382 24.8161Q-2.16477 24.7934 -2.41649 24.782Q-2.66821 24.7706 -2.92018 24.7706Q-3.33688 24.7706 -3.75243 24.8017Q-4.16797 24.8328 -4.58004 24.8947Q-4.99211 24.9567 -5.39841 25.0492Q-5.80472 25.1418 -6.20299 25.2643Q-6.60126 25.3869 -6.98928 25.5388Q-7.37731 25.6907 -7.75292 25.8712Q-8.12854 26.0516 -8.48965 26.2595Q-8.85077 26.4675 -9.19537 26.7018Q-9.53998 26.936 -9.86615 27.1954Q-10.1923 27.4547 -10.4983 27.7376Q-10.8042 28.0206 -11.0882 28.3255Q-11.3721 28.6305 -11.6326 28.9557Q-11.8931 29.281 -12.1285 29.6248Q-12.364 29.9686 -12.5732 30.329Q-12.7824 30.6894 -12.9641 31.0644Q-13.1458 31.4394 -13.2991 31.8269Q-14.0792 31.7675 -14.8616 31.7675Q-15.5 31.7675 -16.1372 31.8071Q-16.7744 31.8466 -17.4079 31.9256Q-18.0414 32.0046 -18.6688 32.1227Q-19.2962 32.2408 -19.9151 32.3976Q-20.5339 32.5543 -21.1419 32.7492Q-21.7498 32.944 -22.3446 33.1761Q-22.9393 33.4082 -23.5185 33.6768Q-24.0976 33.9453 -24.6591 34.2493Q-25.2205 34.5532 -25.762 34.8913Q-26.3035 35.2295 -26.823 35.6005Q-27.3425 35.9716 -27.838 36.3741Q-28.3336 36.7767 -28.8032 37.2091Q-29.2728 37.6416 -29.7147 38.1024Q-30.1566 38.5631 -30.569 39.0504Q-30.9815 39.5377 -31.363 40.0496Q-31.7445 40.5614 -32.0936 41.096Q-31.242 41.761 -30.3636 42.3902Q-29.4851 43.0194 -28.5814 43.6117Q-27.6777 44.204 -26.7502 44.7583Q-25.8227 45.3126 -24.8731 45.828Q-23.9234 46.3434 -22.9532 46.8191Q-21.983 47.2947 -20.994 47.7298Q-20.0049 48.1648 -18.9987 48.5585Q-17.9925 48.9522 -16.9708 49.3039Q-15.9491 49.6555 -14.9137 49.9646Q-13.8784 50.2736 -12.8311 50.5395Q-11.7838 50.8054 -10.7264 51.0277Q-9.669 51.2499 -8.6033 51.4282Q-7.53761 51.6065 -6.46544 51.7405Q-5.39327 51.8744 -4.31647 51.9639Q-3.23967 52.0533 -2.16009 52.0981Q-1.08051 52.1429 0 52.1429Q0.767007 52.1429 1.53368 52.1203Q2.30036 52.0977 3.06604 52.0526Q3.83172 52.0075 4.59574 51.9399Q5.35976 51.8723 6.12146 51.7823Q6.88317 51.6922 7.64189 51.5798Q8.40062 51.4674 9.15571 51.3327Q9.9108 51.1981 10.6616 51.0412Q11.4124 50.8844 12.1583 50.7056Q12.9041 50.5267 13.6444 50.326Q14.3847 50.1253 15.1188 49.9029Q15.8528 49.6805 16.58 49.4366Q17.3072 49.1927 18.0269 48.9276Q18.7466 48.6624 19.4582 48.3762Q20.1698 48.09 20.8727 47.7829Q21.5756 47.4759 22.2691 47.1483Q22.9627 46.8207 23.6463 46.4729Q24.3299 46.1251 25.0029 45.7573Q25.676 45.3895 26.338 45.0021Q27 44.6147 27.6502 44.2079Q28.3005 43.8012 28.9386 43.3755Q29.5766 42.9499 30.2019 42.5056Q30.8271 42.0613 31.439 41.5989Q32.0509 41.1364 32.649 40.6562Q33.247 40.1759 33.8307 39.6783Q34.4143 39.1806 34.9831 38.666Q35.5518 38.1514 36.1052 37.6203Q36.6586 37.0892 37.1961 36.5421Q37.7337 35.995 38.2549 35.4322Q38.7761 34.8695 39.2805 34.2917Q39.7849 33.7139 40.2721 33.1215Q40.7593 32.5291 41.2289 31.9227Q41.6985 31.3162 42.15 30.6962ZM1.0299 -6.33377Q1.0299 -5.91857 1.00953 -5.50387Q0.989154 -5.08917 0.948457 -4.67597Q0.907761 -4.26277 0.846838 -3.85206Q0.785916 -3.44136 0.704914 -3.03414Q0.623913 -2.62691 0.523028 -2.22416Q0.422142 -1.8214 0.301616 -1.42408Q0.18109 -1.02676 0.0412136 -0.635831Q-0.0986629 -0.244902 -0.257553 0.138692Q-0.416443 0.522287 -0.593964 0.897623Q-0.771484 1.27296 -0.967208 1.63913Q-1.16293 2.00531 -1.37639 2.36143Q-1.58984 2.71756 -1.82051 3.06279Q-2.05119 3.40801 -2.29852 3.74151Q-2.54586 4.075 -2.80926 4.39595Q-3.07266 4.7169 -3.35149 5.02455Q-3.63032 5.33219 -3.92391 5.62578Q-4.2175 5.91937 -4.52514 6.1982Q-4.83278 6.47703 -5.15374 6.74043Q-5.47469 7.00383 -5.80818 7.25117Q-6.14167 7.4985 -6.4869 7.72917Q-6.83213 7.95984 -7.18825 8.1733Q-7.54438 8.38675 -7.91056 8.58248Q-8.27673 8.7782 -8.65207 8.95572Q-9.0274 9.13324 -9.41099 9.29213Q-9.79459 9.45102 -10.1855 9.5909Q-10.5764 9.73078 -10.9738 9.8513Q-11.3711 9.97183 -11.7738 10.0727Q-12.1766 10.1736 -12.5838 10.2546Q-12.991 10.3356 -13.4018 10.3965Q-13.8125 10.4574 -14.2257 10.4981Q-14.6389 10.5388 -15.0536 10.5592Q-15.4683 10.5796 -15.8835 10.5796Q-16.2987 10.5796 -16.7134 10.5592Q-17.1281 10.5388 -17.5413 10.4981Q-17.9545 10.4574 -18.3652 10.3965Q-18.7759 10.3356 -19.1831 10.2546Q-19.5903 10.1736 -19.9931 10.0727Q-20.3958 9.97183 -20.7931 9.8513Q-21.1905 9.73078 -21.5814 9.5909Q-21.9723 9.45102 -22.3559 9.29213Q-22.7395 9.13324 -23.1148 8.95572Q-23.4902 8.7782 -23.8564 8.58248Q-24.2225 8.38675 -24.5787 8.1733Q-24.9348 7.95984 -25.28 7.72917Q-25.6252 7.4985 -25.9587 7.25117Q-26.2922 7.00383 -26.6132 6.74043Q-26.9341 6.47703 -27.2418 6.1982Q-27.5494 5.91937 -27.843 5.62578Q-28.1366 5.33219 -28.4154 5.02455Q-28.6943 4.7169 -28.9577 4.39595Q-29.2211 4.075 -29.4684 3.74151Q-29.7157 3.40801 -29.9464 3.06279Q-30.1771 2.71756 -30.3905 2.36143Q-30.604 2.00531 -30.7997 1.63913Q-30.9954 1.27296 -31.173 0.897623Q-31.3505 0.522287 -31.5094 0.138692Q-31.6683 -0.244902 -31.8081 -0.635831Q-31.948 -1.02676 -32.0685 -1.42408Q-32.1891 -1.8214 -32.2899 -2.22416Q-32.3908 -2.62691 -32.4718 -3.03414Q-32.5528 -3.44136 -32.6138 -3.85206Q-32.6747 -4.26277 -32.7154 -4.67597Q-32.7561 -5.08917 -32.7764 -5.50387Q-32.7968 -5.91857 -32.7968 -6.33377Q-32.7968 -6.74897 -32.7764 -7.16367Q-32.7561 -7.57837 -32.7154 -7.99157Q-32.6747 -8.40477 -32.6138 -8.81547Q-32.5528 -9.22618 -32.4718 -9.6334Q-32.3908 -10.0406 -32.2899 -10.4434Q-32.1891 -10.8461 -32.0685 -11.2435Q-31.948 -11.6408 -31.8081 -12.0317Q-31.6683 -12.4226 -31.5094 -12.8062Q-31.3505 -13.1898 -31.1729 -13.5652Q-30.9954 -13.9405 -30.7997 -14.3067Q-30.604 -14.6728 -30.3905 -15.029Q-30.1771 -15.3851 -29.9464 -15.7303Q-29.7157 -16.0756 -29.4684 -16.409Q-29.2211 -16.7425 -28.9577 -17.0635Q-28.6943 -17.3844 -28.4154 -17.6921Q-28.1366 -17.9997 -27.843 -18.2933Q-27.5494 -18.5869 -27.2418 -18.8657Q-26.9341 -19.1446 -26.6132 -19.408Q-26.2922 -19.6714 -25.9587 -19.9187Q-25.6252 -20.166 -25.28 -20.3967Q-24.9348 -20.6274 -24.5787 -20.8408Q-24.2225 -21.0543 -23.8564 -21.25Q-23.4902 -21.4457 -23.1148 -21.6233Q-22.7395 -21.8008 -22.3559 -21.9597Q-21.9723 -22.1186 -21.5814 -22.2584Q-21.1905 -22.3983 -20.7931 -22.5188Q-20.3958 -22.6394 -19.9931 -22.7403Q-19.5903 -22.8411 -19.1831 -22.9221Q-18.7759 -23.0031 -18.3652 -23.0641Q-17.9545 -23.125 -17.5413 -23.1657Q-17.1281 -23.2064 -16.7134 -23.2268Q-16.2987 -23.2471 -15.8835 -23.2471Q-15.4683 -23.2471 -15.0536 -23.2268Q-14.6389 -23.2064 -14.2257 -23.1657Q-13.8125 -23.125 -13.4018 -23.0641Q-12.991 -23.0031 -12.5838 -22.9221Q-12.1766 -22.8411 -11.7738 -22.7403Q-11.3711 -22.6394 -10.9738 -22.5188Q-10.5764 -22.3983 -10.1855 -22.2584Q-9.79459 -22.1186 -9.411 -21.9597Q-9.0274 -21.8008 -8.65207 -21.6233Q-8.27673 -21.4457 -7.91056 -21.25Q-7.54438 -21.0543 -7.18825 -20.8408Q-6.83213 -20.6274 -6.4869 -20.3967Q-6.14167 -20.166 -5.80818 -19.9187Q-5.47469 -19.6714 -5.15374 -19.408Q-4.83278 -19.1446 -4.52514 -18.8657Q-4.2175 -18.5869 -3.92391 -18.2933Q-3.63032 -17.9997 -3.35149 -17.6921Q-3.07266 -17.3844 -2.80926 -17.0635Q-2.54586 -16.7425 -2.29852 -16.409Q-2.05119 -16.0756 -1.82051 -15.7303Q-1.58984 -15.3851 -1.37639 -15.029Q-1.16293 -14.6728 -0.967208 -14.3067Q-0.771484 -13.9405 -0.593964 -13.5652Q-0.416443 -13.1898 -0.257553 -12.8062Q-0.0986629 -12.4226 0.0412136 -12.0317Q0.18109 -11.6408 0.301616 -11.2435Q0.422142 -10.8461 0.523028 -10.4434Q0.623913 -10.0406 0.704914 -9.6334Q0.785916 -9.22618 0.846838 -8.81547Q0.907761 -8.40477 0.948457 -7.99157Q0.989154 -7.57837 1.00953 -7.16367Q1.0299 -6.74897 1.0299 -6.33377Z" fill-rule="evenodd"/>
	<path fill="#999" transform="matrix(0.373127 0.0374375 -0.0374375 0.373127 55 47.8571)" d="M51.7658 6.25915Q52.1429 3.14093 52.1429 0Q52.1429 -4.76071 51.2807 -9.44271Q50.965 -9.35372 50.6575 -9.23948Q50.3501 -9.12524 50.0529 -8.9865Q49.7556 -8.84775 49.4706 -8.68542Q49.1856 -8.52308 48.9147 -8.33821Q48.6437 -8.15334 48.3886 -7.94715Q48.1335 -7.74097 47.8959 -7.51482Q47.6583 -7.28866 47.4398 -7.04403Q47.2214 -6.7994 47.0234 -6.53789Q46.8254 -6.27637 46.6492 -5.9997Q46.473 -5.72302 46.3198 -5.433Q46.1666 -5.14298 46.0373 -4.84151Q45.9081 -4.54004 45.8037 -4.2291Q45.6992 -3.91816 45.6203 -3.59979Q45.5414 -3.28142 45.4885 -2.95771Q45.4356 -2.634 45.409 -2.30707Q45.3825 -1.98013 45.3825 -1.65213Q45.3825 -1.48038 45.3898 -1.30878Q45.397 -1.13718 45.4116 -0.966048Q45.4262 -0.794914 45.448 -0.624552Q45.4698 -0.45419 45.4988 -0.284907Q45.5278 -0.115623 45.564 0.0522777Q45.6001 0.220178 45.6434 0.386394Q45.6866 0.552609 45.7369 0.71684Q45.7872 0.881071 45.8444 1.04302Q45.9016 1.20497 45.9656 1.36435Q46.0296 1.52373 46.1003 1.68025Q46.171 1.83677 46.2483 1.99015Q46.3256 2.14353 46.4093 2.29349Q46.493 2.44346 46.583 2.58974Q46.673 2.73601 46.7692 2.87834Q46.8653 3.02067 46.9674 3.15879Q47.0695 3.29691 47.1773 3.43058Q47.2852 3.56424 47.3986 3.69321Q47.512 3.82219 47.6308 3.94623Q47.7496 4.07027 47.8735 4.18917Q47.9975 4.30806 48.1264 4.42159Q48.2553 4.53511 48.3888 4.64307Q48.5224 4.75103 48.6605 4.85323Q48.7985 4.95542 48.9407 5.05167Q49.083 5.14792 49.2292 5.23805Q49.3754 5.32817 49.5253 5.41202Q49.6752 5.49586 49.8285 5.57327Q49.9818 5.65068 50.1383 5.72152Q50.2948 5.79236 50.4541 5.85649Q50.6134 5.92063 50.7753 5.97795Q50.9372 6.03527 51.1014 6.08567Q51.2656 6.13607 51.4318 6.17946Q51.598 6.22285 51.7658 6.25915ZM40.3149 33.0694Q39.6921 32.587 39.0318 32.1574Q38.3714 31.7279 37.6779 31.3541Q36.9845 30.9803 36.2626 30.6649Q35.5407 30.3495 34.7953 30.0946Q34.05 29.8396 33.2861 29.6469Q32.5223 29.4541 31.7452 29.3249Q30.9681 29.1957 30.183 29.1309Q29.3979 29.066 28.6101 29.066Q27.7108 29.066 26.8155 29.1505Q25.9202 29.2349 25.0368 29.403Q24.1533 29.5712 23.2896 29.8215Q22.4259 30.0719 21.5895 30.4022Q20.753 30.7325 19.9513 31.1399Q19.1496 31.5473 18.3897 32.0282Q17.6298 32.5091 16.9184 33.0592Q16.2071 33.6094 15.5505 34.2238Q14.9293 34.4048 14.3221 34.6282Q13.7148 34.8516 13.1244 35.1163Q12.534 35.381 11.9633 35.6857Q11.3925 35.9905 10.8441 36.3338Q10.2958 36.6772 9.77233 37.0575Q9.2489 37.4378 8.75292 37.8533Q8.25694 38.2688 7.79077 38.7175Q7.3246 39.1662 6.89046 39.6459Q6.45632 40.1257 6.05627 40.6342Q5.65622 41.1427 5.29216 41.6776Q4.9281 42.2124 4.60176 42.7711Q4.27542 43.3298 3.98836 43.9096Q3.70129 44.4895 3.45487 45.0877Q3.20844 45.686 3.00383 46.2998Q2.79922 46.9136 2.63738 47.5401Q2.47555 48.1665 2.35727 48.8026Q2.06535 47.3846 1.54538 46.0335Q1.02541 44.6823 0.2914 43.4344Q0.564979 43.3173 0.829302 43.1806Q1.09363 43.0439 1.34729 42.8883Q1.60095 42.7327 1.84261 42.559Q2.08427 42.3853 2.31263 42.1945Q2.541 42.0037 2.75486 41.7968Q2.96872 41.5898 3.16695 41.3679Q3.36517 41.1459 3.5467 40.9101Q3.72823 40.6743 3.89211 40.4259Q4.05598 40.1775 4.20133 39.9178Q4.34667 39.6581 4.47272 39.3885Q4.59877 39.119 4.70485 38.8409Q4.81093 38.5629 4.89648 38.2778Q4.98203 37.9928 5.04659 37.7023Q5.11115 37.4118 5.15438 37.1174Q5.19762 36.823 5.21929 36.5261Q5.24096 36.2294 5.24096 35.9318Q5.24096 35.7314 5.23113 35.5313Q5.2213 35.3312 5.20167 35.1318Q5.18203 34.9325 5.15263 34.7343Q5.12324 34.5361 5.08415 34.3396Q5.04506 34.1431 4.99639 33.9488Q4.94771 33.7544 4.88955 33.5627Q4.83139 33.371 4.7639 33.1824Q4.6964 32.9937 4.61973 32.8086Q4.54307 32.6235 4.45741 32.4424Q4.37175 32.2613 4.27731 32.0846Q4.18287 31.9079 4.07987 31.7361Q3.97687 31.5643 3.86556 31.3977Q3.75426 31.2311 3.63491 31.0702Q3.51557 30.9093 3.38847 30.7544Q3.26137 30.5995 3.12683 30.4511Q2.99229 30.3026 2.85062 30.161Q2.70896 30.0193 2.56051 29.8848Q2.41206 29.7502 2.2572 29.6231Q2.10233 29.496 1.94141 29.3767Q1.78049 29.2573 1.61391 29.146Q1.44733 29.0347 1.27549 28.9317Q1.10365 28.8287 0.926957 28.7343Q0.750268 28.6398 0.569159 28.5542Q0.388049 28.4685 0.202955 28.3918Q0.0178602 28.3152 -0.170773 28.2477Q-0.359407 28.1802 -0.551125 28.122Q-0.742843 28.0639 -0.937184 28.0152Q-1.13152 27.9665 -1.32802 27.9274Q-1.52452 27.8884 -1.72269 27.859Q-1.92087 27.8296 -2.12025 27.8099Q-2.31963 27.7903 -2.51973 27.7805Q-2.71984 27.7706 -2.92018 27.7706Q-3.10885 27.7706 -3.29733 27.7793Q-3.4858 27.7881 -3.67367 27.8055Q-3.86153 27.8229 -4.0484 27.849Q-4.23526 27.8751 -4.42072 27.9098Q-4.60617 27.9444 -4.78983 27.9877Q-4.97349 28.0309 -5.15495 28.0826Q-5.33641 28.1342 -5.51529 28.1942Q-5.69417 28.2542 -5.87009 28.3224Q-6.04601 28.3906 -6.21859 28.4669Q-6.39116 28.5431 -6.56003 28.6273Q-6.7289 28.7114 -6.8937 28.8033Q-7.0585 28.8951 -7.21888 28.9945Q-7.37926 29.0939 -7.53488 29.2006Q-7.69049 29.3073 -7.84101 29.421Q-7.99153 29.5348 -8.13663 29.6554Q-8.28173 29.776 -8.42111 29.9032Q-8.56048 30.0303 -8.69382 30.1638Q-8.82717 30.2973 -8.95421 30.4368Q-9.08124 30.5763 -9.2017 30.7215Q-9.32215 30.8667 -9.43577 31.0174Q-9.54938 31.168 -9.65591 31.3237Q-9.76244 31.4794 -9.86167 31.6399Q-9.96089 31.8004 -10.0526 31.9653Q-10.1443 32.1302 -10.2283 32.2991Q-10.3123 32.4681 -10.3883 32.6407Q-10.4644 32.8134 -10.5324 32.9894Q-10.6005 33.1653 -10.6603 33.3443Q-10.7201 33.5232 -10.7716 33.7047Q-10.8231 33.8862 -10.8661 34.0699Q-10.9092 34.2536 -10.9437 34.4391Q-10.9782 34.6246 -11.0041 34.8115Q-11.03 34.9984 -11.0472 35.1863Q-12.9314 34.7675 -14.8616 34.7675Q-15.4122 34.7675 -15.9617 34.8019Q-16.5112 34.8364 -17.0575 34.9052Q-17.6038 34.9739 -18.1447 35.0768Q-18.6856 35.1796 -19.219 35.3161Q-19.7524 35.4525 -20.2762 35.6221Q-20.8 35.7917 -21.3122 35.9937Q-21.8244 36.1957 -22.3229 36.4294Q-22.8215 36.6631 -23.3044 36.9275Q-23.7873 37.1919 -24.2528 37.4861Q-24.7182 37.7802 -25.1644 38.1029Q-25.6105 38.4255 -26.0356 38.7755Q-26.4606 39.1254 -26.8629 39.5013Q-27.2653 39.8772 -27.6433 40.2775Q-28.0213 40.6778 -28.3735 41.101Q-28.7258 41.5242 -29.0508 41.9686Q-29.3759 42.4129 -29.6725 42.8768Q-28.0495 44 -26.3462 44.9973Q-24.6429 45.9946 -22.8691 46.8603Q-21.0952 47.7259 -19.2611 48.455Q-17.4269 49.1841 -15.5428 49.7725Q-13.6588 50.3608 -11.7356 50.8051Q-9.81249 51.2493 -7.86127 51.5469Q-5.91005 51.8444 -3.94191 51.9936Q-1.97378 52.1429 0 52.1429Q0.720116 52.1429 1.43996 52.123Q2.1598 52.1031 2.87882 52.0633Q3.59783 52.0236 4.31548 51.964Q5.03312 51.9044 5.74885 51.825Q6.46457 51.7456 7.17783 51.6465Q7.89109 51.5473 8.60135 51.4285Q9.3116 51.3097 10.0183 51.1714Q10.725 51.033 11.4276 50.8752Q12.1302 50.7174 12.8282 50.5402Q13.5262 50.3631 14.219 50.1667Q14.9118 49.9703 15.599 49.7549Q16.2861 49.5395 16.967 49.3051Q17.648 49.0708 18.3221 48.8178Q18.9963 48.5647 19.6633 48.2932Q20.3302 48.0216 20.9894 47.7318Q21.6486 47.4419 22.2996 47.1339Q22.9505 46.8259 23.5927 46.5001Q24.2349 46.1743 24.8678 45.8309Q25.5008 45.4874 26.124 45.1266Q26.7472 44.7659 27.3602 44.388Q27.9733 44.0101 28.5756 43.6155Q29.178 43.2209 29.7692 42.8097Q30.3604 42.3986 30.94 41.9713Q31.5197 41.544 32.0873 41.1009Q32.6549 40.6577 33.2101 40.1991Q33.7653 39.7404 34.3075 39.2666Q34.8498 38.7928 35.3788 38.3042Q35.9078 37.8156 36.4231 37.3126Q36.9384 36.8096 37.4397 36.2925Q37.9409 35.7755 38.4276 35.2448Q38.9144 34.7141 39.3863 34.1701Q39.8582 33.6262 40.3149 33.0694ZM-34.59 -39.0181Q-32.3276 -41.0237 -29.8486 -42.7544Q-27.3695 -44.4851 -24.7071 -45.9177Q-24.536 -45.1874 -24.536 -44.4374Q-24.536 -44.2781 -24.5438 -44.119Q-24.5516 -43.96 -24.5672 -43.8015Q-24.5828 -43.643 -24.6062 -43.4854Q-24.6295 -43.3279 -24.6606 -43.1717Q-24.6917 -43.0155 -24.7304 -42.861Q-24.7691 -42.7065 -24.8153 -42.5541Q-24.8615 -42.4017 -24.9152 -42.2518Q-24.9688 -42.1018 -25.0298 -41.9547Q-25.0907 -41.8075 -25.1588 -41.6636Q-25.2269 -41.5196 -25.302 -41.3792Q-25.3771 -41.2387 -25.459 -41.1021Q-25.5408 -40.9655 -25.6293 -40.8331Q-25.7178 -40.7006 -25.8127 -40.5727Q-25.9075 -40.4448 -26.0086 -40.3217Q-26.1096 -40.1986 -26.2165 -40.0806Q-26.3235 -39.9626 -26.4361 -39.85Q-26.5487 -39.7374 -26.6667 -39.6304Q-26.7847 -39.5235 -26.9078 -39.4224Q-27.031 -39.3214 -27.1589 -39.2265Q-27.2868 -39.1316 -27.4192 -39.0432Q-27.5516 -38.9547 -27.6882 -38.8728Q-27.8248 -38.7909 -27.9653 -38.7159Q-28.1057 -38.6408 -28.2497 -38.5727Q-28.3937 -38.5046 -28.5408 -38.4436Q-28.688 -38.3827 -28.8379 -38.3291Q-28.9879 -38.2754 -29.1403 -38.2292Q-29.2927 -38.1829 -29.4471 -38.1442Q-29.6016 -38.1055 -29.7578 -38.0745Q-29.914 -38.0434 -30.0716 -38.02Q-30.2291 -37.9967 -30.3876 -37.9811Q-30.5461 -37.9655 -30.7052 -37.9576Q-30.8642 -37.9498 -31.0235 -37.9498Q-31.4963 -37.9498 -31.9642 -38.0184Q-32.432 -38.0869 -32.885 -38.2226Q-33.338 -38.3583 -33.7665 -38.5582Q-34.195 -38.7582 -34.59 -39.0181ZM-48.1939 -19.9053Q-47.2684 -22.1462 -46.1389 -24.2916Q-45.0094 -26.437 -43.6856 -28.4683Q-42.3619 -30.4996 -40.8554 -32.3993Q-39.3489 -34.299 -37.6726 -36.0507Q-37.4293 -35.8859 -37.1964 -35.7066Q-36.9635 -35.5273 -36.742 -35.3341Q-36.5205 -35.1409 -36.3112 -34.9346Q-36.1018 -34.7283 -35.9055 -34.5097Q-35.7091 -34.291 -35.5264 -34.0608Q-35.3437 -33.8305 -35.1754 -33.5896Q-35.0071 -33.3487 -34.8538 -33.0979Q-34.7005 -32.8472 -34.5627 -32.5875Q-34.425 -32.3279 -34.3033 -32.0604Q-34.1816 -31.7928 -34.0765 -31.5184Q-33.9714 -31.2439 -33.8831 -30.9636Q-33.7949 -30.6832 -33.7239 -30.398Q-33.653 -30.1128 -33.5995 -29.8238Q-33.546 -29.5348 -33.5103 -29.2431Q-33.4745 -28.9514 -33.4566 -28.658Q-33.4387 -28.3647 -33.4387 -28.0708Q-33.4387 -27.8342 -33.4503 -27.5979Q-33.4619 -27.3616 -33.4851 -27.1262Q-33.5083 -26.8908 -33.543 -26.6567Q-33.5777 -26.4227 -33.6239 -26.1907Q-33.67 -25.9587 -33.7275 -25.7292Q-33.785 -25.4997 -33.8537 -25.2733Q-33.9223 -25.0469 -34.002 -24.8242Q-34.0817 -24.6014 -34.1723 -24.3829Q-34.2628 -24.1643 -34.364 -23.9504Q-34.4651 -23.7366 -34.5766 -23.5279Q-34.6882 -23.3193 -34.8098 -23.1164Q-34.9314 -22.9135 -35.0628 -22.7168Q-35.1943 -22.5201 -35.3352 -22.33Q-35.4761 -22.14 -35.6262 -21.9572Q-35.7763 -21.7743 -35.9352 -21.599Q-36.094 -21.4237 -36.2613 -21.2564Q-36.4286 -21.0891 -36.6039 -20.9303Q-36.7792 -20.7714 -36.9621 -20.6213Q-37.1449 -20.4712 -37.3349 -20.3303Q-37.525 -20.1894 -37.7217 -20.0579Q-37.9184 -19.9265 -38.1213 -19.8049Q-38.3242 -19.6833 -38.5328 -19.5717Q-38.7415 -19.4602 -38.9553 -19.3591Q-39.1692 -19.2579 -39.3878 -19.1674Q-39.6063 -19.0768 -39.8291 -18.9971Q-40.0518 -18.9174 -40.2782 -18.8488Q-40.5046 -18.7801 -40.7341 -18.7226Q-40.9636 -18.6651 -41.1956 -18.619Q-41.4276 -18.5728 -41.6616 -18.5381Q-41.8957 -18.5034 -42.1311 -18.4802Q-42.3665 -18.457 -42.6028 -18.4454Q-42.8391 -18.4338 -43.0757 -18.4338Q-43.7513 -18.4338 -44.4202 -18.5281Q-45.0892 -18.6223 -45.7385 -18.809Q-46.3878 -18.9957 -47.0046 -19.2711Q-47.6215 -19.5465 -48.1939 -19.9053ZM-1.9701 -6.33377Q-1.9701 -5.99222 -1.98686 -5.65107Q-2.00362 -5.30993 -2.0371 -4.97002Q-2.07057 -4.63011 -2.12069 -4.29226Q-2.17081 -3.9544 -2.23744 -3.61941Q-2.30408 -3.28442 -2.38707 -2.9531Q-2.47006 -2.62178 -2.5692 -2.29494Q-2.66835 -1.96809 -2.78342 -1.6465Q-2.89848 -1.32491 -3.02919 -1.00936Q-3.1599 -0.693804 -3.30593 -0.385043Q-3.45196 -0.0762821 -3.61297 0.224941Q-3.77398 0.526165 -3.94957 0.819125Q-4.12517 1.11209 -4.31492 1.39608Q-4.50468 1.68007 -4.70814 1.95441Q-4.91161 2.22875 -5.12829 2.49277Q-5.34497 2.7568 -5.57434 3.00987Q-5.80371 3.26294 -6.04523 3.50446Q-6.28674 3.74597 -6.53982 3.97535Q-6.79289 4.20472 -7.05692 4.4214Q-7.32094 4.63808 -7.59528 4.84154Q-7.86962 5.04501 -8.15361 5.23476Q-8.4376 5.42452 -8.73056 5.60011Q-9.02352 5.77571 -9.32475 5.93672Q-9.62597 6.09772 -9.93473 6.24376Q-10.2435 6.38979 -10.559 6.5205Q-10.8746 6.6512 -11.1962 6.76627Q-11.5178 6.88134 -11.8446 6.98048Q-12.1715 7.07963 -12.5028 7.16262Q-12.8341 7.24561 -13.1691 7.31225Q-13.5041 7.37888 -13.8419 7.429Q-14.1798 7.47911 -14.5197 7.51259Q-14.8596 7.54607 -15.2008 7.56283Q-15.5419 7.57959 -15.8835 7.57959Q-16.225 7.57959 -16.5662 7.56283Q-16.9073 7.54607 -17.2472 7.51259Q-17.5871 7.47911 -17.925 7.429Q-18.2628 7.37888 -18.5978 7.31225Q-18.9328 7.24561 -19.2641 7.16262Q-19.5954 7.07963 -19.9223 6.98048Q-20.2491 6.88133 -20.5707 6.76627Q-20.8923 6.6512 -21.2079 6.5205Q-21.5234 6.38979 -21.8322 6.24376Q-22.1409 6.09772 -22.4422 5.93672Q-22.7434 5.77571 -23.0364 5.60011Q-23.3293 5.42452 -23.6133 5.23476Q-23.8973 5.04501 -24.1716 4.84154Q-24.446 4.63808 -24.71 4.4214Q-24.974 4.20472 -25.2271 3.97535Q-25.4802 3.74597 -25.7217 3.50446Q-25.9632 3.26294 -26.1926 3.00987Q-26.4219 2.7568 -26.6386 2.49277Q-26.8553 2.22875 -27.0588 1.95441Q-27.2622 1.68007 -27.452 1.39608Q-27.6417 1.11209 -27.8173 0.819125Q-27.9929 0.526165 -28.1539 0.224941Q-28.3149 -0.0762821 -28.461 -0.385043Q-28.607 -0.693804 -28.7377 -1.00936Q-28.8684 -1.32491 -28.9835 -1.6465Q-29.0986 -1.96809 -29.1977 -2.29494Q-29.2969 -2.62178 -29.3798 -2.9531Q-29.4628 -3.28442 -29.5295 -3.61941Q-29.5961 -3.9544 -29.6462 -4.29226Q-29.6963 -4.63011 -29.7298 -4.97002Q-29.7633 -5.30993 -29.7801 -5.65107Q-29.7968 -5.99222 -29.7968 -6.33377Q-29.7968 -6.67532 -29.7801 -7.01647Q-29.7633 -7.35761 -29.7298 -7.69752Q-29.6963 -8.03743 -29.6462 -8.37528Q-29.5961 -8.71314 -29.5295 -9.04813Q-29.4628 -9.38312 -29.3798 -9.71444Q-29.2969 -10.0458 -29.1977 -10.3726Q-29.0986 -10.6994 -28.9835 -11.021Q-28.8684 -11.3426 -28.7377 -11.6582Q-28.607 -11.9737 -28.461 -12.2825Q-28.3149 -12.5913 -28.1539 -12.8925Q-27.9929 -13.1937 -27.8173 -13.4867Q-27.6417 -13.7796 -27.452 -14.0636Q-27.2622 -14.3476 -27.0588 -14.6219Q-26.8553 -14.8963 -26.6386 -15.1603Q-26.4219 -15.4243 -26.1926 -15.6774Q-25.9632 -15.9305 -25.7217 -16.172Q-25.4802 -16.4135 -25.2271 -16.6429Q-24.974 -16.8723 -24.71 -17.0889Q-24.446 -17.3056 -24.1716 -17.5091Q-23.8973 -17.7125 -23.6133 -17.9023Q-23.3293 -18.0921 -23.0364 -18.2677Q-22.7434 -18.4432 -22.4422 -18.6043Q-22.1409 -18.7653 -21.8322 -18.9113Q-21.5234 -19.0573 -21.2079 -19.188Q-20.8923 -19.3187 -20.5707 -19.4338Q-20.2491 -19.5489 -19.9223 -19.648Q-19.5954 -19.7472 -19.2641 -19.8302Q-18.9328 -19.9132 -18.5978 -19.9798Q-18.2628 -20.0464 -17.925 -20.0965Q-17.5871 -20.1467 -17.2472 -20.1801Q-16.9073 -20.2136 -16.5662 -20.2304Q-16.225 -20.2471 -15.8835 -20.2471Q-15.5419 -20.2471 -15.2008 -20.2304Q-14.8596 -20.2136 -14.5197 -20.1801Q-14.1798 -20.1467 -13.8419 -20.0965Q-13.5041 -20.0464 -13.1691 -19.9798Q-12.8341 -19.9132 -12.5028 -19.8302Q-12.1715 -19.7472 -11.8446 -19.648Q-11.5178 -19.5489 -11.1962 -19.4338Q-10.8746 -19.3187 -10.559 -19.188Q-10.2435 -19.0573 -9.93473 -18.9113Q-9.62597 -18.7653 -9.32475 -18.6043Q-9.02352 -18.4432 -8.73056 -18.2677Q-8.4376 -18.0921 -8.15361 -17.9023Q-7.86962 -17.7125 -7.59528 -17.5091Q-7.32094 -17.3056 -7.05692 -17.0889Q-6.79289 -16.8723 -6.53982 -16.6429Q-6.28674 -16.4135 -6.04523 -16.172Q-5.80371 -15.9305 -5.57434 -15.6774Q-5.34497 -15.4243 -5.12829 -15.1603Q-4.91161 -14.8963 -4.70814 -14.6219Q-4.50468 -14.3476 -4.31492 -14.0636Q-4.12517 -13.7796 -3.94957 -13.4867Q-3.77398 -13.1937 -3.61297 -12.8925Q-3.45196 -12.5913 -3.30593 -12.2825Q-3.1599 -11.9737 -3.02919 -11.6582Q-2.89848 -11.3426 -2.78342 -11.021Q-2.66835 -10.6995 -2.5692 -10.3726Q-2.47006 -10.0458 -2.38707 -9.71444Q-2.30408 -9.38312 -2.23744 -9.04813Q-2.17081 -8.71314 -2.12069 -8.37528Q-2.07057 -8.03743 -2.0371 -7.69752Q-2.00362 -7.35761 -1.98686 -7.01647Q-1.9701 -6.67532 -1.9701 -6.33377Z" fill-rule="evenodd"/>
	<path fill="none" stroke="black" stroke-width="2.3999999" stroke-linejoin="round" transform="translate(55 79.2857)" d="M-21.7216 -6.4323Q-21.3603 -5.76824 -20.8916 -4.79656Q-20.4179 -3.82977 -19.9101 -2.69695Q-19.4023 -1.56902 -18.9043 -0.387383Q-18.4013 0.789375 -17.9619 1.82941Q-17.5175 0.789375 -17.0195 -0.387383Q-16.5215 -1.56902 -16.0136 -2.69695Q-15.5009 -3.82977 -15.0322 -4.79656Q-14.5586 -5.76824 -14.2021 -6.4323L-11.3603 -6.4323Q-11.1601 -5.05047 -10.9892 -3.3366Q-10.8183 -1.62762 -10.6914 0.222969Q-10.5595 2.06867 -10.4521 3.92902Q-10.3398 5.78937 -10.2617 7.43L-13.2988 7.43Q-13.3623 5.40852 -13.4599 3.03059Q-13.5576 0.647773 -13.7578 -1.76922Q-14.1191 -0.929375 -14.5586 0.0911326Q-14.998 1.11164 -15.4326 2.13215Q-15.8623 3.14777 -16.2627 4.08039Q-16.6582 5.00812 -16.9414 5.67219L-19.1191 5.67219Q-19.4023 5.00812 -19.8027 4.08039Q-20.1982 3.14777 -20.6279 2.13215Q-21.0576 1.11164 -21.5019 0.0911326Q-21.9414 -0.929375 -22.2978 -1.76922Q-22.498 0.647773 -22.6006 3.03059Q-22.6982 5.40852 -22.7617 7.43L-25.7988 7.43Q-25.7207 5.78937 -25.6133 3.92902Q-25.5009 2.06867 -25.374 0.222969Q-25.2422 -1.62762 -25.0713 -3.3366Q-24.9004 -5.05047 -24.7002 -6.4323L-21.7216 -6.4323ZM2.18025 2.15168Q2.18025 3.39191 1.81892 4.42219Q1.4576 5.44758 0.778885 6.18Q0.100174 6.91242 -0.851974 7.31281Q-1.79924 7.70832 -2.98088 7.70832Q-4.13811 7.70832 -5.09026 7.31281Q-6.0424 6.91242 -6.72112 6.18Q-7.39983 5.44758 -7.78069 4.42219Q-8.16154 3.39191 -8.16154 2.15168Q-8.16154 0.911445 -7.77092 -0.109063Q-7.38029 -1.12957 -6.69182 -1.84734Q-5.99846 -2.57 -5.05119 -2.97039Q-4.09904 -3.37078 -2.98088 -3.37078Q-1.8383 -3.37078 -0.891037 -2.97039Q0.0611115 -2.57 0.739822 -1.84734Q1.41853 -1.12957 1.79939 -0.109063Q2.18025 0.911445 2.18025 2.15168ZM-0.86174 2.15168Q-0.86174 0.769844 -1.4135 -0.021172Q-1.96037 -0.812188 -2.98088 -0.812188Q-4.00139 -0.812188 -4.56291 -0.021172Q-5.11955 0.769844 -5.11955 2.15168Q-5.11955 3.52863 -4.56291 4.33918Q-4.00139 5.14973 -2.98088 5.14973Q-1.96037 5.14973 -1.4135 4.33918Q-0.86174 3.52863 -0.86174 2.15168ZM14.3202 2.15168Q14.3202 3.39191 13.9589 4.42219Q13.5976 5.44758 12.9189 6.18Q12.2402 6.91242 11.288 7.31281Q10.3407 7.70832 9.1591 7.70832Q8.00188 7.70832 7.04973 7.31281Q6.09758 6.91242 5.41887 6.18Q4.74016 5.44758 4.3593 4.42219Q3.97844 3.39191 3.97844 2.15168Q3.97844 0.911445 4.36906 -0.109063Q4.75969 -1.12957 5.44817 -1.84734Q6.14153 -2.57 7.08879 -2.97039Q8.04094 -3.37078 9.1591 -3.37078Q10.3017 -3.37078 11.2489 -2.97039Q12.2011 -2.57 12.8798 -1.84734Q13.5585 -1.12957 13.9394 -0.109063Q14.3202 0.911445 14.3202 2.15168ZM11.2782 2.15168Q11.2782 0.769844 10.7265 -0.021172Q10.1796 -0.812188 9.1591 -0.812188Q8.1386 -0.812188 7.57707 -0.021172Q7.02043 0.769844 7.02043 2.15168Q7.02043 3.52863 7.57707 4.33918Q8.1386 5.14973 9.1591 5.14973Q10.1796 5.14973 10.7265 4.33918Q11.2782 3.52863 11.2782 2.15168ZM16.6214 -2.73113Q17.3782 -2.95086 18.5794 -3.14129Q19.7805 -3.33172 21.0989 -3.33172Q22.4417 -3.33172 23.3303 -2.98016Q24.219 -2.62859 24.7366 -1.98895Q25.259 -1.3493 25.4788 -0.470391Q25.6985 0.408515 25.6985 1.48762L25.6985 7.43L22.72 7.43L22.72 1.84895Q22.72 0.408515 22.3391 -0.187188Q21.9583 -0.787774 20.9182 -0.787774Q20.6008 -0.787774 20.2395 -0.758477Q19.8782 -0.72918 19.5999 -0.690117L19.5999 7.43L16.6214 7.43L16.6214 -2.73113Z"/>
	<path fill="white" transform="translate(55 79.2857)" d="M-21.7216 -6.4323Q-21.3603 -5.76824 -20.8916 -4.79656Q-20.4179 -3.82977 -19.9101 -2.69695Q-19.4023 -1.56902 -18.9043 -0.387383Q-18.4013 0.789375 -17.9619 1.82941Q-17.5175 0.789375 -17.0195 -0.387383Q-16.5215 -1.56902 -16.0136 -2.69695Q-15.5009 -3.82977 -15.0322 -4.79656Q-14.5586 -5.76824 -14.2021 -6.4323L-11.3603 -6.4323Q-11.1601 -5.05047 -10.9892 -3.3366Q-10.8183 -1.62762 -10.6914 0.222969Q-10.5595 2.06867 -10.4521 3.92902Q-10.3398 5.78937 -10.2617 7.43L-13.2988 7.43Q-13.3623 5.40852 -13.4599 3.03059Q-13.5576 0.647773 -13.7578 -1.76922Q-14.1191 -0.929375 -14.5586 0.0911326Q-14.998 1.11164 -15.4326 2.13215Q-15.8623 3.14777 -16.2627 4.08039Q-16.6582 5.00812 -16.9414 5.67219L-19.1191 5.67219Q-19.4023 5.00812 -19.8027 4.08039Q-20.1982 3.14777 -20.6279 2.13215Q-21.0576 1.11164 -21.5019 0.0911326Q-21.9414 -0.929375 -22.2978 -1.76922Q-22.498 0.647773 -22.6006 3.03059Q-22.6982 5.40852 -22.7617 7.43L-25.7988 7.43Q-25.7207 5.78937 -25.6133 3.92902Q-25.5009 2.06867 -25.374 0.222969Q-25.2422 -1.62762 -25.0713 -3.3366Q-24.9004 -5.05047 -24.7002 -6.4323L-21.7216 -6.4323ZM2.18025 2.15168Q2.18025 3.39191 1.81892 4.42219Q1.4576 5.44758 0.778885 6.18Q0.100174 6.91242 -0.851974 7.31281Q-1.79924 7.70832 -2.98088 7.70832Q-4.13811 7.70832 -5.09026 7.31281Q-6.0424 6.91242 -6.72112 6.18Q-7.39983 5.44758 -7.78069 4.42219Q-8.16154 3.39191 -8.16154 2.15168Q-8.16154 0.911445 -7.77092 -0.109063Q-7.38029 -1.12957 -6.69182 -1.84734Q-5.99846 -2.57 -5.05119 -2.97039Q-4.09904 -3.37078 -2.98088 -3.37078Q-1.8383 -3.37078 -0.891037 -2.97039Q0.0611115 -2.57 0.739822 -1.84734Q1.41853 -1.12957 1.79939 -0.109063Q2.18025 0.911445 2.18025 2.15168ZM-0.86174 2.15168Q-0.86174 0.769844 -1.4135 -0.021172Q-1.96037 -0.812188 -2.98088 -0.812188Q-4.00139 -0.812188 -4.56291 -0.021172Q-5.11955 0.769844 -5.11955 2.15168Q-5.11955 3.52863 -4.56291 4.33918Q-4.00139 5.14973 -2.98088 5.14973Q-1.96037 5.14973 -1.4135 4.33918Q-0.86174 3.52863 -0.86174 2.15168ZM14.3202 2.15168Q14.3202 3.39191 13.9589 4.42219Q13.5976 5.44758 12.9189 6.18Q12.2402 6.91242 11.288 7.31281Q10.3407 7.70832 9.1591 7.70832Q8.00188 7.70832 7.04973 7.31281Q6.09758 6.91242 5.41887 6.18Q4.74016 5.44758 4.3593 4.42219Q3.97844 3.39191 3.97844 2.15168Q3.97844 0.911445 4.36906 -0.109063Q4.75969 -1.12957 5.44817 -1.84734Q6.14153 -2.57 7.08879 -2.97039Q8.04094 -3.37078 9.1591 -3.37078Q10.3017 -3.37078 11.2489 -2.97039Q12.2011 -2.57 12.8798 -1.84734Q13.5585 -1.12957 13.9394 -0.109063Q14.3202 0.911445 14.3202 2.15168ZM11.2782 2.15168Q11.2782 0.769844 10.7265 -0.021172Q10.1796 -0.812188 9.1591 -0.812188Q8.1386 -0.812188 7.57707 -0.021172Q7.02043 0.769844 7.02043 2.15168Q7.02043 3.52863 7.57707 4.33918Q8.1386 5.14973 9.1591 5.14973Q10.1796 5.14973 10.7265 4.33918Q11.2782 3.52863 11.2782 2.15168ZM16.6214 -2.73113Q17.3782 -2.95086 18.5794 -3.14129Q19.7805 -3.33172 21.0989 -3.33172Q22.4417 -3.33172 23.3303 -2.98016Q24.219 -2.62859 24.7366 -1.98895Q25.259 -1.3493 25.4788 -0.470391Q25.6985 0.408515 25.6985 1.48762L25.6985 7.43L22.72 7.43L22.72 1.84895Q22.72 0.408515 22.3391 -0.187188Q21.9583 -0.787774 20.9182 -0.787774Q20.6008 -0.787774 20.2395 -0.758477Q19.8782 -0.72918 19.5999 -0.690117L19.5999 7.43L16.6214 7.43L16.6214 -2.73113Z"/>
</svg>
