<?xml version="1.0" encoding="utf-8" ?>
<svg xmlns="http://www.w3.org/2000/svg" xmlns:xlink="http://www.w3.org/1999/xlink" width="110" height="110">
	<path fill="#6D6D6D" transform="matrix(0.248751 0.0249584 -0.0249584 0.248751 55 47.8571)" d="M85.7143 0Q85.7143 2.10417 85.611 4.2058Q85.5078 6.30743 85.3015 8.40147Q85.0953 10.4955 84.7865 12.5769Q84.4778 14.6583 84.0673 16.722Q83.6568 18.7858 83.1455 20.8269Q82.6343 22.868 82.0235 24.8815Q81.4126 26.8951 80.7038 28.8763Q79.9949 30.8574 79.1897 32.8014Q78.3844 34.7454 77.4848 36.6476Q76.5851 38.5497 75.5932 40.4054Q74.6013 42.2611 73.5196 44.0659Q72.4378 45.8707 71.2688 47.6203Q70.0998 49.3699 68.8463 51.0599Q67.5929 52.75 66.258 54.3766Q64.9232 56.0031 63.5101 57.5622Q62.097 59.1213 60.6091 60.6091Q59.1213 62.097 57.5622 63.5101Q56.0031 64.9232 54.3766 66.258Q52.75 67.5929 51.0599 68.8464Q49.3699 70.0998 47.6203 71.2688Q45.8708 72.4378 44.0659 73.5196Q42.2611 74.6013 40.4054 75.5932Q38.5497 76.5851 36.6476 77.4848Q34.7454 78.3844 32.8014 79.1897Q30.8574 79.9949 28.8763 80.7038Q26.8951 81.4126 24.8815 82.0235Q22.868 82.6343 20.8269 83.1455Q18.7858 83.6568 16.722 84.0673Q14.6583 84.4778 12.5769 84.7866Q10.4955 85.0953 8.40147 85.3015Q6.30743 85.5078 4.2058 85.611Q2.10417 85.7143 0 85.7143Q-2.10417 85.7143 -4.2058 85.611Q-6.30743 85.5078 -8.40147 85.3015Q-10.4955 85.0953 -12.5769 84.7865Q-14.6583 84.4778 -16.722 84.0673Q-18.7858 83.6568 -20.8269 83.1455Q-22.868 82.6343 -24.8815 82.0235Q-26.8951 81.4126 -28.8763 80.7038Q-30.8574 79.9949 -32.8014 79.1897Q-34.7454 78.3844 -36.6476 77.4848Q-38.5497 76.5851 -40.4054 75.5932Q-42.2611 74.6013 -44.0659 73.5196Q-45.8707 72.4378 -47.6203 71.2688Q-49.3699 70.0998 -51.0599 68.8463Q-52.75 67.5929 -54.3766 66.258Q-56.0031 64.9232 -57.5622 63.5101Q-59.1213 62.097 -60.6091 60.6091Q-62.097 59.1213 -63.5101 57.5622Q-64.9232 56.0031 -66.258 54.3766Q-67.5929 52.75 -68.8464 51.0599Q-70.0998 49.3699 -71.2688 47.6203Q-72.4378 45.8708 -73.5196 44.0659Q-74.6013 42.2611 -75.5932 40.4054Q-76.5851 38.5497 -77.4848 36.6476Q-78.3844 34.7454 -79.1897 32.8014Q-79.9949 30.8574 -80.7038 28.8763Q-81.4126 26.8951 -82.0235 24.8815Q-82.6343 22.868 -83.1455 20.8269Q-83.6568 18.7858 -84.0673 16.722Q-84.4778 14.6583 -84.7866 12.5769Q-85.0953 10.4955 -85.3015 8.40147Q-85.5078 6.30743 -85.611 4.2058Q-85.7143 2.10417 -85.7143 0Q-85.7143 -2.10417 -85.611 -4.2058Q-85.5078 -6.30743 -85.3015 -8.40147Q-85.0953 -10.4955 -84.7865 -12.5769Q-84.4778 -14.6583 -84.0673 -16.722Q-83.6568 -18.7858 -83.1455 -20.8269Q-82.6343 -22.868 -82.0235 -24.8815Q-81.4126 -26.8951 -80.7038 -28.8763Q-79.9949 -30.8574 -79.1897 -32.8014Q-78.3844 -34.7454 -77.4848 -36.6476Q-76.5851 -38.5497 -75.5932 -40.4054Q-74.6013 -42.2611 -73.5196 -44.0659Q-72.4378 -45.8707 -71.2688 -47.6203Q-70.0998 -49.3699 -68.8463 -51.0599Q-67.5929 -52.75 -66.258 -54.3766Q-64.9232 -56.0031 -63.5101 -57.5622Q-62.097 -59.1213 -60.6091 -60.6091Q-59.1213 -62.097 -57.5622 -63.5101Q-56.0031 -64.9232 -54.3766 -66.258Q-52.75 -67.5929 -51.0599 -68.8464Q-49.3699 -70.0998 -47.6203 -71.2688Q-45.8708 -72.4378 -44.0659 -73.5196Q-42.2611 -74.6013 -40.4054 -75.5932Q-38.5497 -76.5851 -36.6476 -77.4848Q-34.7454 -78.3844 -32.8014 -79.1897Q-30.8574 -79.9949 -28.8763 -80.7038Q-26.8951 -81.4126 -24.8815 -82.0235Q-22.868 -82.6343 -20.8269 -83.1455Q-18.7858 -83.6568 -16.722 -84.0673Q-14.6583 -84.4778 -12.5769 -84.7866Q-10.4955 -85.0953 -8.40147 -85.3015Q-6.30743 -85.5078 -4.2058 -85.611Q-2.10417 -85.7143 0 -85.7143Q2.10417 -85.7143 4.2058 -85.611Q6.30743 -85.5078 8.40147 -85.3015Q10.4955 -85.0953 12.5769 -84.7865Q14.6583 -84.4778 16.722 -84.0673Q18.7858 -83.6568 20.8269 -83.1455Q22.868 -82.6343 24.8815 -82.0235Q26.8951 -81.4126 28.8763 -80.7038Q30.8574 -79.9949 32.8014 -79.1897Q34.7454 -78.3844 36.6476 -77.4848Q38.5497 -76.5851 40.4054 -75.5932Q42.2611 -74.6013 44.0659 -73.5196Q45.8707 -72.4378 47.6203 -71.2688Q49.3699 -70.0998 51.0599 -68.8463Q52.75 -67.5929 54.3766 -66.258Q56.0031 -64.9232 57.5622 -63.5101Q59.1213 -62.097 60.6091 -60.6091Q62.097 -59.1213 63.5101 -57.5622Q64.9232 -56.0031 66.258 -54.3766Q67.5929 -52.75 68.8464 -51.0599Q70.0998 -49.3699 71.2688 -47.6203Q72.4378 -45.8708 73.5196 -44.0659Q74.6013 -42.2611 75.5932 -40.4054Q76.5851 -38.5497 77.4848 -36.6476Q78.3844 -34.7454 79.1897 -32.8014Q79.9949 -30.8574 80.7038 -28.8763Q81.4126 -26.8951 82.0235 -24.8815Q82.6343 -22.868 83.1455 -20.8269Q83.6568 -18.7858 84.0673 -16.722Q84.4778 -14.6583 84.7866 -12.5769Q85.0953 -10.4955 85.3015 -8.40147Q85.5078 -6.30743 85.611 -4.2058Q85.7143 -2.10417 85.7143 0"/>
	<path fill="#878787" transform="matrix(0.248751 0.0249584 -0.0249584 0.248751 55 47.8571)" d="M80.7143 0Q80.7143 1.98142 80.6171 3.96046Q80.5198 5.9395 80.3256 7.91138Q80.1314 9.88327 79.8407 11.8432Q79.5499 13.8032 79.1634 15.7466Q78.7768 17.6899 78.2954 19.612Q77.8139 21.534 77.2388 23.4301Q76.6636 25.3262 75.9961 27.1918Q75.3285 29.0574 74.5703 30.888Q73.812 32.7186 72.9648 34.5098Q72.1177 36.301 71.1836 38.0484Q70.2496 39.7959 69.2309 41.4954Q68.2123 43.195 67.1115 44.8424Q66.0107 46.4899 64.8303 48.0814Q63.65 49.6729 62.393 51.2046Q61.136 52.7363 59.8053 54.2044Q58.4747 55.6725 57.0736 57.0736Q55.6725 58.4747 54.2044 59.8053Q52.7363 61.136 51.2046 62.393Q49.6729 63.65 48.0814 64.8303Q46.4899 66.0107 44.8424 67.1115Q43.195 68.2123 41.4954 69.2309Q39.7959 70.2496 38.0484 71.1836Q36.301 72.1177 34.5098 72.9648Q32.7186 73.812 30.888 74.5703Q29.0574 75.3285 27.1918 75.9961Q25.3262 76.6636 23.4301 77.2388Q21.534 77.8139 19.612 78.2954Q17.6899 78.7768 15.7466 79.1634Q13.8032 79.5499 11.8432 79.8407Q9.88327 80.1314 7.91138 80.3256Q5.9395 80.5198 3.96046 80.6171Q1.98142 80.7143 0 80.7143Q-1.98142 80.7143 -3.96046 80.6171Q-5.9395 80.5198 -7.91138 80.3256Q-9.88327 80.1314 -11.8432 79.8407Q-13.8032 79.5499 -15.7466 79.1634Q-17.6899 78.7768 -19.612 78.2954Q-21.534 77.8139 -23.4301 77.2388Q-25.3262 76.6636 -27.1918 75.9961Q-29.0574 75.3285 -30.888 74.5703Q-32.7186 73.812 -34.5098 72.9648Q-36.301 72.1177 -38.0484 71.1836Q-39.7959 70.2496 -41.4954 69.2309Q-43.195 68.2123 -44.8424 67.1115Q-46.4899 66.0107 -48.0814 64.8303Q-49.6729 63.65 -51.2046 62.393Q-52.7363 61.136 -54.2044 59.8053Q-55.6725 58.4747 -57.0736 57.0736Q-58.4747 55.6725 -59.8053 54.2044Q-61.136 52.7363 -62.393 51.2046Q-63.65 49.6729 -64.8303 48.0814Q-66.0107 46.4899 -67.1115 44.8424Q-68.2123 43.195 -69.2309 41.4954Q-70.2496 39.7959 -71.1836 38.0484Q-72.1177 36.301 -72.9648 34.5098Q-73.812 32.7186 -74.5703 30.888Q-75.3285 29.0574 -75.9961 27.1918Q-76.6636 25.3262 -77.2388 23.4301Q-77.8139 21.534 -78.2954 19.612Q-78.7768 17.6899 -79.1634 15.7466Q-79.5499 13.8032 -79.8407 11.8432Q-80.1314 9.88327 -80.3256 7.91138Q-80.5198 5.9395 -80.6171 3.96046Q-80.7143 1.98142 -80.7143 0Q-80.7143 -1.98142 -80.6171 -3.96046Q-80.5198 -5.9395 -80.3256 -7.91138Q-80.1314 -9.88327 -79.8407 -11.8432Q-79.5499 -13.8032 -79.1634 -15.7466Q-78.7768 -17.6899 -78.2954 -19.612Q-77.8139 -21.534 -77.2388 -23.4301Q-76.6636 -25.3262 -75.9961 -27.1918Q-75.3285 -29.0574 -74.5703 -30.888Q-73.812 -32.7186 -72.9648 -34.5098Q-72.1177 -36.301 -71.1836 -38.0484Q-70.2496 -39.7959 -69.2309 -41.4954Q-68.2123 -43.195 -67.1115 -44.8424Q-66.0107 -46.4899 -64.8303 -48.0814Q-63.65 -49.6729 -62.393 -51.2046Q-61.136 -52.7363 -59.8053 -54.2044Q-58.4747 -55.6725 -57.0736 -57.0736Q-55.6725 -58.4747 -54.2044 -59.8053Q-52.7363 -61.136 -51.2046 -62.393Q-49.6729 -63.65 -48.0814 -64.8303Q-46.4899 -66.0107 -44.8424 -67.1115Q-43.195 -68.2123 -41.4954 -69.2309Q-39.7959 -70.2496 -38.0484 -71.1836Q-36.301 -72.1177 -34.5098 -72.9648Q-32.7186 -73.812 -30.888 -74.5703Q-29.0574 -75.3285 -27.1918 -75.9961Q-25.3262 -76.6636 -23.4301 -77.2388Q-21.534 -77.8139 -19.612 -78.2954Q-17.6899 -78.7768 -15.7466 -79.1634Q-13.8032 -79.5499 -11.8432 -79.8407Q-9.88327 -80.1314 -7.91138 -80.3256Q-5.9395 -80.5198 -3.96046 -80.6171Q-1.98142 -80.7143 0 -80.7143Q1.98142 -80.7143 3.96046 -80.6171Q5.9395 -80.5198 7.91138 -80.3256Q9.88327 -80.1314 11.8432 -79.8407Q13.8032 -79.5499 15.7466 -79.1634Q17.6899 -78.7768 19.612 -78.2954Q21.534 -77.8139 23.4301 -77.2388Q25.3262 -76.6636 27.1918 -75.9961Q29.0574 -75.3285 30.888 -74.5703Q32.7186 -73.812 34.5098 -72.9648Q36.301 -72.1177 38.0484 -71.1836Q39.7959 -70.2496 41.4954 -69.2309Q43.195 -68.2123 44.8424 -67.1115Q46.4899 -66.0107 48.0814 -64.8303Q49.6729 -63.65 51.2046 -62.393Q52.7363 -61.136 54.2044 -59.8053Q55.6725 -58.4747 57.0736 -57.0736Q58.4747 -55.6725 59.8053 -54.2044Q61.136 -52.7363 62.393 -51.2046Q63.65 -49.6729 64.8303 -48.0814Q66.0107 -46.4899 67.1115 -44.8424Q68.2123 -43.195 69.2309 -41.4954Q70.2496 -39.7959 71.1836 -38.0484Q72.1177 -36.301 72.9648 -34.5098Q73.812 -32.7186 74.5703 -30.888Q75.3285 -29.0574 75.9961 -27.1918Q76.6636 -25.3262 77.2388 -23.4301Q77.8139 -21.534 78.2954 -19.612Q78.7768 -17.6899 79.1634 -15.7466Q79.5499 -13.8032 79.8407 -11.8432Q80.1314 -9.88327 80.3256 -7.91138Q80.5198 -5.9395 80.6171 -3.96046Q80.7143 -1.98142 80.7143 0"/>
	<path fill="#7C7C7C" transform="matrix(0.248751 0.0249584 -0.0249584 0.248751 55 47.8571)" d="M79.7161 12.6548Q80.7143 6.36677 80.7143 0Q80.7143 -4.42765 80.23 -8.82874Q79.7457 -13.2298 78.7829 -17.5515Q78.4352 -17.5185 78.0893 -17.4695Q77.7435 -17.4204 77.4004 -17.3555Q77.0572 -17.2906 76.7173 -17.2099Q76.3775 -17.1292 76.0418 -17.0329Q75.706 -16.9367 75.3751 -16.825Q75.0441 -16.7134 74.7187 -16.5866Q74.3932 -16.4598 74.074 -16.3182Q73.7547 -16.1765 73.4423 -16.0203Q73.1299 -15.864 72.8251 -15.6936Q72.5202 -15.5231 72.2236 -15.3388Q71.9269 -15.1544 71.6391 -14.9566Q71.3512 -14.7588 71.0728 -14.5479Q70.7944 -14.337 70.526 -14.1135Q70.2576 -13.89 69.9998 -13.6543Q69.742 -13.4187 69.4953 -13.1714Q69.2486 -12.9241 69.0136 -12.6658Q68.7786 -12.4074 68.5558 -12.1384Q68.3329 -11.8695 68.1227 -11.5905Q67.9125 -11.3116 67.7154 -11.0232Q67.5183 -10.7349 67.3347 -10.4378Q67.1511 -10.1407 66.9814 -9.83541Q66.8116 -9.53014 66.6562 -9.21737Q66.5007 -8.9046 66.3599 -8.58499Q66.219 -8.26539 66.093 -7.93963Q65.967 -7.61387 65.8562 -7.28264Q65.7454 -6.95142 65.6499 -6.61544Q65.5545 -6.27946 65.4747 -5.93943Q65.3948 -5.5994 65.3307 -5.25606Q65.2666 -4.91271 65.2185 -4.56678Q65.1703 -4.22085 65.1381 -3.87306Q65.1059 -3.52527 65.0898 -3.17637Q65.0737 -2.82746 65.0737 -2.47819Q65.0737 -2.1143 65.0912 -1.75082Q65.1087 -1.38735 65.1436 -1.02513Q65.1785 -0.662916 65.2308 -0.302796Q65.2831 0.0573235 65.3526 0.414516Q65.4221 0.771708 65.5087 1.12515Q65.5953 1.47859 65.6988 1.82746Q65.8023 2.17633 65.9224 2.51983Q66.0425 2.86333 66.179 3.20066Q66.3155 3.53799 66.468 3.86837Q66.6206 4.19876 66.7888 4.52144Q66.957 4.84411 67.1405 5.15833Q67.3241 5.47256 67.5225 5.7776Q67.7209 6.08264 67.9337 6.3778Q68.1466 6.67296 68.3734 6.95755Q68.6001 7.24215 68.8403 7.51552Q69.0805 7.78889 69.3335 8.05041Q69.5866 8.31192 69.8519 8.56098Q70.1172 8.81004 70.3942 9.04607Q70.6711 9.28209 70.9591 9.50454Q71.2471 9.72699 71.5454 9.93535Q71.8438 10.1437 72.1518 10.3375Q72.4598 10.5313 72.7768 10.71Q73.0937 10.8888 73.4189 11.0521Q73.7441 11.2155 74.0767 11.363Q74.4094 11.5105 74.7487 11.6419Q75.0881 11.7733 75.4333 11.8882Q75.7786 12.0031 76.129 12.1013Q76.4794 12.1995 76.8341 12.2807Q77.1888 12.362 77.547 12.4261Q77.9052 12.4902 78.2661 12.5371Q78.627 12.5839 78.9897 12.6134Q79.3524 12.6428 79.7161 12.6548ZM64.2455 48.8601Q63.7049 48.3674 63.142 47.9002Q62.5792 47.433 61.9954 46.9923Q61.4116 46.5516 60.808 46.1383Q60.2045 45.725 59.5825 45.34Q58.9606 44.955 58.3215 44.5992Q57.6824 44.2433 57.0276 43.9173Q56.3727 43.5914 55.7035 43.296Q55.0344 43.0006 54.3522 42.7364Q53.6701 42.4723 52.9766 42.2399Q52.283 42.0075 51.5794 41.8073Q50.8758 41.6072 50.1638 41.4398Q49.4517 41.2723 48.7327 41.138Q48.0136 41.0036 47.2892 40.9026Q46.5647 40.8015 45.8364 40.7341Q45.108 40.6666 44.3773 40.6328Q43.6466 40.599 42.9151 40.599Q42.1928 40.599 41.4713 40.632Q40.7497 40.6649 40.0304 40.7307Q39.3111 40.7965 38.5956 40.895Q37.88 40.9935 37.1697 41.1246Q36.4594 41.2556 35.7558 41.4189Q35.0522 41.5822 34.3568 41.7774Q33.6614 41.9726 32.9755 42.1993Q32.2897 42.426 31.615 42.6837Q30.9402 42.9415 30.2779 43.2297Q29.6156 43.5179 28.9672 43.8361Q28.3187 44.1542 27.6854 44.5015Q27.0521 44.8489 26.4353 45.2248Q25.8185 45.6007 25.2195 46.0042Q24.6205 46.4079 24.0405 46.8383Q23.4605 47.2688 22.9007 47.7253Q22.341 48.1818 21.8026 48.6633Q20.2936 49.1409 18.8408 49.769Q17.388 50.3971 16.0064 51.1693Q14.6248 51.9415 13.3287 52.8499Q12.0325 53.7582 10.8351 54.7933Q10.8614 54.3459 10.8614 53.8976Q10.8614 53.5235 10.8431 53.1498Q10.8247 52.7761 10.7881 52.4037Q10.7514 52.0313 10.6965 51.6612Q10.6416 51.2911 10.5686 50.9241Q10.4956 50.5572 10.4047 50.1942Q10.3138 49.8313 10.2051 49.4732Q10.0965 49.1152 9.97048 48.7629Q9.84443 48.4106 9.70124 48.0649Q9.55805 47.7192 9.39808 47.381Q9.2381 47.0427 9.06173 46.7128Q8.88535 46.3828 8.69299 46.0618Q8.50063 45.7409 8.29276 45.4298Q8.08488 45.1187 7.86199 44.8182Q7.6391 44.5176 7.40174 44.2284Q7.16437 43.9392 6.9131 43.6619Q6.66183 43.3847 6.39725 43.1201Q6.13268 42.8556 5.85544 42.6043Q5.57821 42.353 5.28897 42.1156Q4.99974 41.8783 4.69921 41.6554Q4.39868 41.4325 4.08757 41.2246Q3.77647 41.0167 3.45554 40.8244Q3.13461 40.632 2.80463 40.4557Q2.47464 40.2793 2.1364 40.1193Q1.79816 39.9593 1.45248 39.8161Q1.1068 39.6729 0.75451 39.5469Q0.402219 39.4208 0.0441672 39.3122Q-0.313885 39.2036 -0.676835 39.1127Q-1.03978 39.0218 -1.40676 38.9488Q-1.77373 38.8758 -2.14385 38.8209Q-2.51396 38.766 -2.88632 38.7293Q-3.25868 38.6926 -3.63239 38.6743Q-4.00611 38.6559 -4.38027 38.6559Q-4.68216 38.6559 -4.98381 38.6679Q-5.28545 38.6798 -5.58639 38.7037Q-5.88733 38.7276 -6.18709 38.7634Q-6.48685 38.7992 -6.78495 38.8468Q-7.08306 38.8944 -7.37905 38.9538Q-7.67503 39.0132 -7.96843 39.0843Q-8.26183 39.1554 -8.55219 39.238Q-8.84255 39.3206 -9.12941 39.4147Q-9.41626 39.5088 -9.69917 39.6141Q-9.98208 39.7195 -10.2606 39.8359Q-10.5391 39.9524 -10.8128 40.0798Q-11.0865 40.2072 -11.3549 40.3454Q-11.6233 40.4835 -11.8861 40.6322Q-12.1488 40.7808 -12.4055 40.9398Q-12.6621 41.0987 -12.9123 41.2677Q-13.1624 41.4367 -13.4057 41.6155Q-13.649 41.7942 -13.885 41.9825Q-14.121 42.1707 -14.3493 42.3682Q-14.5777 42.5657 -14.798 42.772Q-15.0184 42.9783 -15.2304 43.1932Q-15.4424 43.4081 -15.6458 43.6313Q-15.8491 43.8544 -16.0435 44.0854Q-16.2378 44.3164 -16.4229 44.5549Q-16.6079 44.7935 -16.7834 45.0391Q-16.9588 45.2848 -17.1244 45.5372Q-17.29 45.7896 -17.4455 46.0484Q-17.6009 46.3072 -17.746 46.5719Q-17.8911 46.8366 -18.0256 47.1069Q-18.1601 47.3772 -18.2838 47.6526Q-18.4075 47.9279 -18.5202 48.208Q-18.6329 48.4881 -18.7344 48.7724Q-18.8359 49.0567 -18.9261 49.3448Q-20.6037 49.1512 -22.2924 49.1512Q-22.7889 49.1512 -23.2852 49.168Q-23.7814 49.1848 -24.2768 49.2183Q-24.7722 49.2519 -25.2661 49.3022Q-25.7601 49.3524 -26.2521 49.4194Q-26.7441 49.4863 -27.2335 49.5699Q-27.723 49.6534 -28.2093 49.7534Q-28.6956 49.8534 -29.1783 49.9698Q-29.661 50.0863 -30.1395 50.2189Q-30.6179 50.3516 -31.0916 50.5003Q-31.5653 50.6491 -32.0338 50.8138Q-32.5022 50.9785 -32.9648 51.1589Q-33.4273 51.3393 -33.8835 51.5353Q-34.3398 51.7312 -34.7891 51.9425Q-35.2384 52.1537 -35.6804 52.3801Q-36.1223 52.6064 -36.5563 52.8475Q-36.9903 53.0887 -37.416 53.3444Q-37.8416 53.6 -38.2584 53.8699Q-38.6751 54.1399 -39.0825 54.4237Q-39.4899 54.7076 -39.8874 55.005Q-40.285 55.3025 -40.6723 55.6132Q-41.0595 55.9239 -41.4361 56.2476Q-41.8126 56.5712 -42.178 56.9074Q-42.5434 57.2435 -42.8972 57.5919Q-43.2511 57.9402 -43.5929 58.3003Q-43.9348 58.6604 -44.2642 59.0319Q-44.5937 59.4033 -44.9105 59.7857Q-45.2272 60.1681 -45.5308 60.5609Q-45.8345 60.9538 -46.1246 61.3567Q-46.4148 61.7596 -46.6912 62.1721Q-46.9676 62.5845 -47.2299 63.0061Q-47.4922 63.4277 -47.7401 63.8579Q-47.988 64.2881 -48.2212 64.7265Q-46.9259 65.6915 -45.593 66.6039Q-44.2602 67.5163 -42.8919 68.3746Q-41.5236 69.2329 -40.122 70.0359Q-38.7205 70.8388 -37.2879 71.585Q-35.8554 72.3312 -34.3941 73.0195Q-32.9329 73.7078 -31.4452 74.337Q-29.9576 74.9663 -28.446 75.5356Q-26.9344 76.1048 -25.4012 76.6131Q-23.8681 77.1215 -22.3158 77.5681Q-20.7635 78.0146 -19.1946 78.3988Q-17.6257 78.7829 -16.0427 79.1039Q-14.4597 79.425 -12.8651 79.6824Q-11.2705 79.9399 -9.66689 80.1333Q-8.06327 80.3268 -6.45321 80.4559Q-4.84313 80.585 -3.22919 80.6497Q-1.61524 80.7143 0 80.7143Q1.1611 80.7143 2.32172 80.6809Q3.48234 80.6475 4.64151 80.5807Q5.80069 80.514 6.95747 80.4139Q8.11425 80.3138 9.26767 80.1805Q10.4211 80.0471 11.5702 79.8807Q12.7193 79.7143 13.8631 79.5148Q15.007 79.3154 16.1446 79.0832Q17.2823 78.8509 18.4127 78.586Q19.5432 78.3212 20.6656 78.0239Q21.788 77.7266 22.9014 77.3972Q24.0148 77.0677 25.1182 76.7064Q26.2217 76.3451 27.3143 75.9521Q28.4069 75.5592 29.4877 75.135Q30.5685 74.7108 31.6367 74.2557Q32.7049 73.8006 33.7596 73.315Q34.8142 72.8293 35.8545 72.3136Q36.8948 71.7978 37.9197 71.2523Q38.9447 70.7068 39.9536 70.1321Q40.9625 69.5573 41.9544 68.9538Q42.9463 68.3503 43.9205 67.7185Q44.8946 67.0867 45.8502 66.4271Q46.8058 65.7675 47.742 65.0807Q48.6782 64.394 49.5942 63.6805Q50.5103 62.9671 51.4055 62.2276Q52.3006 61.4881 53.1741 60.7232Q54.0477 59.9583 54.8988 59.1685Q55.75 58.3788 56.5781 57.5649Q57.4062 56.751 58.2105 55.9136Q59.0148 55.0763 59.7947 54.2161Q60.5747 53.3559 61.3295 52.4737Q62.0844 51.5915 62.8135 50.6879Q63.5427 49.7843 64.2455 48.8601ZM-55.9934 -58.1338Q-53.708 -60.335 -51.2569 -62.3501Q-48.8057 -64.3651 -46.204 -66.1815Q-43.6022 -67.9979 -40.8659 -69.6045Q-38.1295 -71.211 -35.2755 -72.5978Q-34.9144 -71.9135 -34.6389 -71.1906Q-34.3633 -70.4676 -34.1773 -69.7166Q-33.9913 -68.9657 -33.8976 -68.1977Q-33.8039 -67.4297 -33.8039 -66.656Q-33.8039 -66.3435 -33.8193 -66.0313Q-33.8346 -65.7192 -33.8653 -65.4081Q-33.8959 -65.0971 -33.9417 -64.788Q-33.9876 -64.4788 -34.0486 -64.1723Q-34.1096 -63.8657 -34.1855 -63.5626Q-34.2614 -63.2594 -34.3522 -62.9603Q-34.4429 -62.6613 -34.5482 -62.367Q-34.6535 -62.0727 -34.7731 -61.784Q-34.8927 -61.4952 -35.0263 -61.2127Q-35.1599 -60.9302 -35.3072 -60.6545Q-35.4546 -60.3789 -35.6152 -60.1108Q-35.7759 -59.8428 -35.9496 -59.5829Q-36.1232 -59.323 -36.3094 -59.072Q-36.4955 -58.821 -36.6938 -58.5794Q-36.8921 -58.3378 -37.102 -58.1062Q-37.3119 -57.8746 -37.5329 -57.6536Q-37.7539 -57.4326 -37.9854 -57.2228Q-38.217 -57.0129 -38.4586 -56.8146Q-38.7002 -56.6163 -38.9512 -56.4302Q-39.2022 -56.244 -39.4621 -56.0703Q-39.722 -55.8967 -39.99 -55.736Q-40.2581 -55.5754 -40.5338 -55.428Q-40.8094 -55.2807 -41.0919 -55.1471Q-41.3744 -55.0134 -41.6632 -54.8938Q-41.9519 -54.7742 -42.2462 -54.669Q-42.5405 -54.5637 -42.8395 -54.4729Q-43.1386 -54.3822 -43.4418 -54.3063Q-43.745 -54.2303 -44.0515 -54.1694Q-44.358 -54.1084 -44.6672 -54.0625Q-44.9763 -54.0167 -45.2874 -53.986Q-45.5984 -53.9554 -45.9105 -53.9401Q-46.2227 -53.9247 -46.5352 -53.9247Q-47.2022 -53.9247 -47.8655 -53.9944Q-48.5287 -54.0641 -49.1811 -54.2027Q-49.8335 -54.3413 -50.4678 -54.5473Q-51.1021 -54.7533 -51.7115 -55.0245Q-52.3208 -55.2957 -52.8984 -55.629Q-53.4761 -55.9623 -54.0158 -56.3542Q-54.5554 -56.7461 -55.0512 -57.1922Q-55.547 -57.6383 -55.9934 -58.1338ZM-75.5229 -28.4797Q-74.7504 -30.5282 -73.868 -32.5317Q-72.9857 -34.5352 -71.996 -36.488Q-71.0063 -38.4407 -69.9123 -40.3369Q-68.8182 -42.2332 -67.623 -44.0673Q-66.4277 -45.9015 -65.1348 -47.6681Q-63.8419 -49.4348 -62.4552 -51.1287Q-61.0684 -52.8227 -59.5918 -54.439Q-58.1153 -56.0554 -56.5533 -57.5892Q-56.0253 -57.3144 -55.5173 -57.0042Q-55.0092 -56.694 -54.5235 -56.3499Q-54.0378 -56.0058 -53.5766 -55.6295Q-53.1154 -55.2531 -52.681 -54.8462Q-52.2465 -54.4393 -51.8408 -54.0037Q-51.4351 -53.5681 -51.06 -53.1059Q-50.6849 -52.6437 -50.3421 -52.1571Q-49.9994 -51.6704 -49.6906 -51.1615Q-49.3818 -50.6526 -49.1084 -50.1239Q-48.835 -49.5951 -48.5982 -49.049Q-48.3615 -48.5028 -48.1624 -47.9418Q-47.9634 -47.3808 -47.8031 -46.8076Q-47.6428 -46.2343 -47.5219 -45.6515Q-47.401 -45.0686 -47.3201 -44.4789Q-47.2392 -43.8892 -47.1986 -43.2953Q-47.1581 -42.7014 -47.1581 -42.1062Q-47.1581 -41.6777 -47.1791 -41.2497Q-47.2001 -40.8217 -47.2421 -40.3952Q-47.2841 -39.9688 -47.347 -39.5449Q-47.4099 -39.1211 -47.4935 -38.7008Q-47.5771 -38.2805 -47.6812 -37.8648Q-47.7853 -37.4492 -47.9097 -37.0391Q-48.0341 -36.6291 -48.1784 -36.2256Q-48.3228 -35.8221 -48.4868 -35.4263Q-48.6508 -35.0304 -48.834 -34.643Q-49.0172 -34.2556 -49.2192 -33.8777Q-49.4212 -33.4998 -49.6415 -33.1323Q-49.8618 -32.7647 -50.0998 -32.4084Q-50.3379 -32.0521 -50.5932 -31.708Q-50.8484 -31.3638 -51.1203 -31.0325Q-51.3921 -30.7013 -51.6799 -30.3838Q-51.9676 -30.0663 -52.2706 -29.7633Q-52.5736 -29.4603 -52.8912 -29.1725Q-53.2087 -28.8848 -53.5399 -28.6129Q-53.8711 -28.3411 -54.2153 -28.0858Q-54.5595 -27.8306 -54.9158 -27.5925Q-55.2721 -27.3544 -55.6396 -27.1341Q-56.0072 -26.9138 -56.3851 -26.7118Q-56.763 -26.5098 -57.1504 -26.3266Q-57.5377 -26.1434 -57.9336 -25.9794Q-58.3295 -25.8155 -58.733 -25.6711Q-59.1364 -25.5267 -59.5465 -25.4023Q-59.9565 -25.278 -60.3722 -25.1738Q-60.7879 -25.0697 -61.2081 -24.9861Q-61.6284 -24.9025 -62.0523 -24.8396Q-62.4762 -24.7768 -62.9026 -24.7348Q-63.329 -24.6928 -63.757 -24.6717Q-64.185 -24.6507 -64.6135 -24.6507Q-65.3505 -24.6507 -66.0848 -24.7128Q-66.8192 -24.775 -67.5456 -24.8987Q-68.2721 -25.0225 -68.9856 -25.2071Q-69.6991 -25.3917 -70.3944 -25.6358Q-71.0898 -25.8798 -71.7621 -26.1816Q-72.4344 -26.4835 -73.0789 -26.8409Q-73.7234 -27.1983 -74.3355 -27.6087Q-74.9476 -28.0192 -75.5229 -28.4797ZM0.0448532 -9.50065Q0.0448532 -8.91468 0.0161007 -8.3294Q-0.0126518 -7.74413 -0.0700875 -7.16098Q-0.127523 -6.57782 -0.213504 -5.99819Q-0.299484 -5.41856 -0.413803 -4.84384Q-0.528121 -4.26912 -0.670502 -3.70071Q-0.812882 -3.13229 -0.982983 -2.57155Q-1.15308 -2.0108 -1.35049 -1.45908Q-1.5479 -0.907356 -1.77214 -0.365984Q-1.99639 0.175387 -2.24693 0.705104Q-2.49746 1.23482 -2.77369 1.75161Q-3.04992 2.26839 -3.35117 2.771Q-3.65242 3.27361 -3.97797 3.76083Q-4.30352 4.24805 -4.65259 4.71871Q-5.00166 5.18937 -5.3734 5.64234Q-5.74513 6.09531 -6.13865 6.52948Q-6.53217 6.96367 -6.94652 7.37801Q-7.36087 7.79236 -7.79505 8.18588Q-8.22923 8.5794 -8.68219 8.95114Q-9.13516 9.32287 -9.60582 9.67194Q-10.0765 10.021 -10.5637 10.3466Q-11.0509 10.6721 -11.5535 10.9734Q-12.0561 11.2746 -12.5729 11.5508Q-13.0897 11.8271 -13.6194 12.0776Q-14.1491 12.3281 -14.6905 12.5524Q-15.2319 12.7766 -15.7836 12.974Q-16.3353 13.1714 -16.8961 13.3415Q-17.4568 13.5116 -18.0252 13.654Q-18.5937 13.7964 -19.1684 13.9107Q-19.7431 14.025 -20.3227 14.111Q-20.9024 14.197 -21.4855 14.2544Q-22.0687 14.3119 -22.6539 14.3406Q-23.2392 14.3694 -23.8252 14.3694Q-24.4112 14.3694 -24.9964 14.3406Q-25.5817 14.3119 -26.1649 14.2544Q-26.748 14.197 -27.3276 14.111Q-27.9073 14.025 -28.482 13.9107Q-29.0567 13.7964 -29.6251 13.654Q-30.1935 13.5116 -30.7543 13.3415Q-31.315 13.1714 -31.8668 12.974Q-32.4185 12.7766 -32.9598 12.5524Q-33.5012 12.3281 -34.0309 12.0776Q-34.5607 11.8271 -35.0774 11.5508Q-35.5942 11.2746 -36.0968 10.9734Q-36.5994 10.6721 -37.0867 10.3466Q-37.5739 10.021 -38.0445 9.67194Q-38.5152 9.32287 -38.9682 8.95114Q-39.4211 8.5794 -39.8553 8.18588Q-40.2895 7.79236 -40.7038 7.37801Q-41.1182 6.96366 -41.5117 6.52948Q-41.9052 6.0953 -42.277 5.64234Q-42.6487 5.18937 -42.9978 4.71871Q-43.3468 4.24805 -43.6724 3.76083Q-43.9979 3.27361 -44.2992 2.771Q-44.6004 2.26839 -44.8767 1.75161Q-45.1529 1.23482 -45.4034 0.705103Q-45.654 0.175387 -45.8782 -0.365985Q-46.1025 -0.907356 -46.2999 -1.45908Q-46.4973 -2.0108 -46.6674 -2.57155Q-46.8375 -3.13229 -46.9799 -3.70071Q-47.1222 -4.26912 -47.2366 -4.84384Q-47.3509 -5.41856 -47.4369 -5.99819Q-47.5228 -6.57782 -47.5803 -7.16098Q-47.6377 -7.74413 -47.6665 -8.3294Q-47.6952 -8.91468 -47.6952 -9.50065Q-47.6952 -10.0866 -47.6665 -10.6719Q-47.6377 -11.2572 -47.5803 -11.8403Q-47.5228 -12.4235 -47.4369 -13.0031Q-47.3509 -13.5827 -47.2366 -14.1575Q-47.1222 -14.7322 -46.9799 -15.3006Q-46.8375 -15.869 -46.6674 -16.4298Q-46.4973 -16.9905 -46.2999 -17.5422Q-46.1025 -18.0939 -45.8782 -18.6353Q-45.654 -19.1767 -45.4034 -19.7064Q-45.1529 -20.2361 -44.8767 -20.7529Q-44.6004 -21.2697 -44.2992 -21.7723Q-43.9979 -22.2749 -43.6724 -22.7621Q-43.3468 -23.2494 -42.9978 -23.72Q-42.6487 -24.1907 -42.277 -24.6436Q-41.9052 -25.0966 -41.5117 -25.5308Q-41.1182 -25.965 -40.7038 -26.3793Q-40.2895 -26.7937 -39.8553 -27.1872Q-39.4211 -27.5807 -38.9682 -27.9524Q-38.5152 -28.3242 -38.0445 -28.6732Q-37.5739 -29.0223 -37.0867 -29.3479Q-36.5994 -29.6734 -36.0968 -29.9747Q-35.5942 -30.2759 -35.0774 -30.5521Q-34.5607 -30.8284 -34.0309 -31.0789Q-33.5012 -31.3294 -32.9598 -31.5537Q-32.4185 -31.7779 -31.8668 -31.9753Q-31.315 -32.1728 -30.7543 -32.3429Q-30.1935 -32.513 -29.6251 -32.6553Q-29.0567 -32.7977 -28.482 -32.912Q-27.9073 -33.0264 -27.3276 -33.1123Q-26.748 -33.1983 -26.1649 -33.2558Q-25.5817 -33.3132 -24.9964 -33.3419Q-24.4112 -33.3707 -23.8252 -33.3707Q-23.2392 -33.3707 -22.6539 -33.3419Q-22.0687 -33.3132 -21.4855 -33.2558Q-20.9024 -33.1983 -20.3227 -33.1123Q-19.7431 -33.0264 -19.1684 -32.912Q-18.5937 -32.7977 -18.0252 -32.6553Q-17.4568 -32.513 -16.8961 -32.3429Q-16.3353 -32.1728 -15.7836 -31.9753Q-15.2319 -31.7779 -14.6905 -31.5537Q-14.1491 -31.3294 -13.6194 -31.0789Q-13.0897 -30.8284 -12.5729 -30.5521Q-12.0561 -30.2759 -11.5535 -29.9747Q-11.0509 -29.6734 -10.5637 -29.3479Q-10.0765 -29.0223 -9.60582 -28.6732Q-9.13516 -28.3242 -8.68219 -27.9524Q-8.22923 -27.5807 -7.79505 -27.1872Q-7.36087 -26.7937 -6.94652 -26.3793Q-6.53217 -25.965 -6.13865 -25.5308Q-5.74513 -25.0966 -5.3734 -24.6436Q-5.00166 -24.1907 -4.65259 -23.72Q-4.30352 -23.2494 -3.97797 -22.7621Q-3.65242 -22.2749 -3.35117 -21.7723Q-3.04992 -21.2697 -2.77369 -20.7529Q-2.49746 -20.2361 -2.24693 -19.7064Q-1.99639 -19.1767 -1.77214 -18.6353Q-1.5479 -18.0939 -1.35049 -17.5422Q-1.15308 -16.9905 -0.982982 -16.4298Q-0.812882 -15.869 -0.670502 -15.3006Q-0.528121 -14.7322 -0.413803 -14.1575Q-0.299484 -13.5827 -0.213504 -13.0031Q-0.127523 -12.4235 -0.0700875 -11.8403Q-0.0126518 -11.2572 0.0161007 -10.6719Q0.0448532 -10.0866 0.0448532 -9.50065Z" fill-rule="evenodd"/>
	<path fill="#999" transform="matrix(0.248751 0.0249584 -0.0249584 0.248751 55 47.8571)" d="M80.1338 9.66274Q80.7143 4.84881 80.7143 0Q80.7143 -7.35608 79.3845 -14.591Q79.1001 -14.5715 78.817 -14.5386Q78.5338 -14.5058 78.2525 -14.4597Q77.9712 -14.4137 77.6923 -14.3544Q77.4135 -14.2952 77.1378 -14.223Q76.862 -14.1507 76.59 -14.0656Q76.3179 -13.9805 76.0501 -13.8827Q75.7824 -13.7849 75.5195 -13.6747Q75.2566 -13.5645 74.9992 -13.442Q74.7418 -13.3195 74.4904 -13.1851Q74.239 -13.0507 73.9942 -12.9047Q73.7494 -12.7586 73.5118 -12.6013Q73.2741 -12.4439 73.0441 -12.2755Q72.814 -12.1071 72.5922 -11.9282Q72.3703 -11.7492 72.1571 -11.56Q71.9438 -11.3708 71.7397 -11.1719Q71.5356 -10.9729 71.3411 -10.7645Q71.1465 -10.5562 70.9619 -10.3389Q70.7774 -10.1217 70.6032 -9.89602Q70.4291 -9.67035 70.2657 -9.43675Q70.1023 -9.20316 69.9501 -8.96216Q69.7979 -8.72116 69.6571 -8.47328Q69.5163 -8.22539 69.3874 -7.97118Q69.2584 -7.71696 69.1415 -7.45698Q69.0246 -7.19699 68.9201 -6.93181Q68.8155 -6.66662 68.7235 -6.39682Q68.6315 -6.12702 68.5522 -5.85319Q68.473 -5.57937 68.4067 -5.30213Q68.3404 -5.02489 68.2872 -4.74485Q68.234 -4.4648 68.194 -4.18257Q68.1539 -3.90034 68.1272 -3.61653Q68.1005 -3.33273 68.0871 -3.04799Q68.0737 -2.76325 68.0737 -2.47819Q68.0737 -2.18141 68.0882 -1.88498Q68.1027 -1.58856 68.1317 -1.29319Q68.1607 -0.997826 68.204 -0.70423Q68.2474 -0.410634 68.305 -0.119506Q68.3627 0.171621 68.4345 0.459583Q68.5063 0.747546 68.5921 1.03166Q68.6779 1.31577 68.7775 1.59534Q68.8771 1.87492 68.9902 2.1493Q69.1033 2.42368 69.2297 2.69221Q69.3561 2.96073 69.4954 3.22276Q69.6348 3.48479 69.7868 3.7397Q69.9388 3.99461 70.103 4.24179Q70.2673 4.48896 70.4434 4.72782Q70.6196 4.96667 70.8072 5.19664Q70.9948 5.4266 71.1934 5.64713Q71.392 5.86765 71.6012 6.07821Q71.8103 6.28876 72.0295 6.48885Q72.2487 6.68893 72.4774 6.87807Q72.7061 7.06721 72.9438 7.24495Q73.1815 7.42268 73.4275 7.58859Q73.6736 7.75451 73.9275 7.9082Q74.1814 8.06189 74.4425 8.20299Q74.7036 8.34409 74.9713 8.47227Q75.2389 8.60045 75.5125 8.71539Q75.7862 8.83034 76.0651 8.93178Q76.344 9.03322 76.6275 9.12091Q76.911 9.2086 77.1985 9.28234Q77.486 9.35607 77.7767 9.41567Q78.0675 9.47527 78.3608 9.52059Q78.6541 9.56592 78.9492 9.59686Q79.2444 9.6278 79.5407 9.64428Q79.837 9.66076 80.1338 9.66274ZM62.3802 51.2201Q61.8892 50.766 61.3776 50.3354Q60.866 49.9047 60.3348 49.4983Q59.8036 49.0919 59.2541 48.7108Q58.7046 48.3296 58.1379 47.9745Q57.5712 47.6194 56.9885 47.2911Q56.4059 46.9628 55.8085 46.662Q55.2112 46.3612 54.6005 46.0886Q53.9898 45.816 53.3671 45.5722Q52.7443 45.3284 52.1109 45.1139Q51.4774 44.8994 50.8347 44.7146Q50.1919 44.5299 49.5412 44.3753Q48.8906 44.2207 48.2334 44.0967Q47.5762 43.9726 46.914 43.8793Q46.2517 43.786 45.5859 43.7237Q44.92 43.6614 44.2519 43.6302Q43.5839 43.599 42.9151 43.599Q42.241 43.599 41.5677 43.6307Q40.8943 43.6624 40.2232 43.7257Q39.5521 43.789 38.8847 43.8838Q38.2173 43.9785 37.5551 44.1046Q36.8929 44.2306 36.2374 44.3876Q35.5818 44.5446 34.9344 44.7323Q34.287 44.9199 33.6491 45.1378Q33.0112 45.3557 32.3842 45.6033Q31.7572 45.8509 31.1426 46.1277Q30.528 46.4045 29.927 46.7099Q29.3261 47.0153 28.7402 47.3486Q28.1542 47.6819 27.5846 48.0424Q27.015 48.4028 26.463 48.7897Q25.9109 49.1765 25.3777 49.5889Q24.8444 50.0012 24.3312 50.4382Q23.8179 50.8752 23.3257 51.3358Q22.86 51.4715 22.3992 51.6232Q21.9384 51.7749 21.4831 51.9423Q21.0278 52.1098 20.5786 52.2929Q20.1293 52.476 19.6867 52.6745Q19.244 52.8729 18.8084 53.0865Q18.3729 53.3001 17.9449 53.5286Q17.517 53.7571 17.0972 54.0002Q16.6774 54.2433 16.2662 54.5008Q15.8551 54.7582 15.453 55.0297Q15.0509 55.3011 14.6585 55.5863Q14.266 55.8715 13.8836 56.17Q13.5013 56.4685 13.1294 56.78Q12.7575 57.0915 12.3966 57.4157Q12.0357 57.7399 11.6862 58.0763Q11.3366 58.4127 10.9989 58.7609Q10.6612 59.1092 10.3357 59.4689Q10.0102 59.8286 9.69727 60.1993Q9.38435 60.57 9.0844 60.9513Q8.78445 61.3325 8.49783 61.7239Q8.2112 62.1153 7.93824 62.5163Q7.66527 62.9174 7.40629 63.3276Q7.14732 63.7378 6.90264 64.1567Q6.65796 64.5756 6.42786 65.0026Q6.19777 65.4297 5.98254 65.8645Q5.7673 66.2992 5.56719 66.7411Q5.36707 67.1831 5.1823 67.6316Q4.99754 68.0802 4.82835 68.5348Q4.65916 68.9895 4.50574 69.4497Q4.35233 69.9099 4.21487 70.3752Q4.07741 70.8404 3.95608 71.3101Q3.83474 71.7798 3.72966 72.2534Q3.62459 72.727 3.53591 73.2039Q3.09802 71.0769 2.31806 69.0502Q1.53811 67.0235 0.437101 65.1516Q0.84747 64.976 1.24395 64.7709Q1.64044 64.5658 2.02093 64.3324Q2.40143 64.099 2.76391 63.8385Q3.1264 63.578 3.46895 63.2918Q3.8115 63.0055 4.13229 62.6951Q4.45308 62.3847 4.75042 62.0518Q5.04775 61.7189 5.32005 61.3651Q5.59235 61.0114 5.83816 60.6388Q6.08397 60.2662 6.30199 59.8767Q6.52001 59.4872 6.70908 59.0828Q6.89816 58.6784 7.05728 58.2614Q7.2164 57.8443 7.34472 57.4168Q7.47304 56.9892 7.56988 56.5535Q7.66673 56.1177 7.73158 55.6761Q7.79643 55.2344 7.82894 54.7892Q7.86145 54.344 7.86145 53.8976Q7.86145 53.5971 7.8467 53.297Q7.83196 52.9968 7.8025 52.6977Q7.77305 52.3987 7.72895 52.1014Q7.68486 51.8041 7.62623 51.5094Q7.5676 51.2147 7.49458 50.9231Q7.42156 50.6316 7.33432 50.3441Q7.24709 50.0565 7.14585 49.7735Q7.04461 49.4906 6.9296 49.2129Q6.8146 48.9353 6.68611 48.6636Q6.55762 48.392 6.41596 48.1269Q6.2743 47.8619 6.1198 47.6041Q5.96531 47.3464 5.79835 47.0965Q5.63139 46.8466 5.45237 46.6053Q5.27335 46.3639 5.08271 46.1316Q4.89206 45.8993 4.69025 45.6766Q4.48843 45.4539 4.27593 45.2414Q4.06343 45.0289 3.84077 44.8271Q3.6181 44.6253 3.38579 44.4347Q3.15349 44.244 2.91211 44.065Q2.67074 43.886 2.42086 43.719Q2.17099 43.5521 1.91323 43.3976Q1.65547 43.2431 1.39044 43.1014Q1.1254 42.9597 0.853739 42.8313Q0.582075 42.7028 0.304433 42.5878Q0.026791 42.4728 -0.256159 42.3715Q-0.53911 42.2703 -0.826687 42.1831Q-1.11426 42.0958 -1.40578 42.0228Q-1.69729 41.9498 -1.99203 41.8912Q-2.28677 41.8325 -2.58404 41.7884Q-2.8813 41.7443 -3.18037 41.7149Q-3.47944 41.6854 -3.7796 41.6707Q-4.07975 41.6559 -4.38027 41.6559Q-4.66328 41.6559 -4.94599 41.669Q-5.2287 41.6821 -5.5105 41.7082Q-5.7923 41.7343 -6.0726 41.7735Q-6.35289 41.8126 -6.63107 41.8646Q-6.90926 41.9167 -7.18474 41.9815Q-7.46023 42.0463 -7.73242 42.1238Q-8.00462 42.2013 -8.27294 42.2913Q-8.54126 42.3813 -8.80514 42.4836Q-9.06901 42.5859 -9.32788 42.7003Q-9.58674 42.8147 -9.84005 42.9409Q-10.0934 43.0671 -10.3406 43.2049Q-10.5878 43.3427 -10.8283 43.4918Q-11.0689 43.6408 -11.3023 43.8009Q-11.5357 43.9609 -11.7615 44.1315Q-11.9873 44.3022 -12.2049 44.4831Q-12.4226 44.664 -12.6317 44.8547Q-12.8407 45.0455 -13.0407 45.2457Q-13.2408 45.4459 -13.4313 45.6552Q-13.6219 45.8644 -13.8025 46.0822Q-13.9832 46.3001 -14.1536 46.526Q-14.3241 46.752 -14.4839 46.9855Q-14.6437 47.2191 -14.7925 47.4599Q-14.9413 47.7006 -15.0789 47.9479Q-15.2164 48.1952 -15.3424 48.4487Q-15.4684 48.7021 -15.5825 48.9611Q-15.6966 49.2201 -15.7987 49.484Q-15.9007 49.748 -15.9904 50.0164Q-16.0802 50.2848 -16.1574 50.5571Q-16.2346 50.8294 -16.2992 51.1049Q-16.3637 51.3805 -16.4155 51.6587Q-16.4673 51.9369 -16.5061 52.2173Q-16.545 52.4976 -16.5708 52.7794Q-19.3971 52.1512 -22.2924 52.1512Q-22.7445 52.1512 -23.1963 52.1667Q-23.6481 52.1822 -24.0991 52.2132Q-24.5501 52.2442 -24.9997 52.2906Q-25.4494 52.337 -25.8972 52.3988Q-26.345 52.4606 -26.7905 52.5377Q-27.2359 52.6148 -27.6785 52.7071Q-28.121 52.7995 -28.5601 52.9069Q-28.9992 53.0144 -29.4344 53.1368Q-29.8695 53.2592 -30.3002 53.3965Q-30.731 53.5338 -31.1567 53.6858Q-31.5825 53.8377 -32.0028 54.0042Q-32.4231 54.1706 -32.8374 54.3514Q-33.2518 54.5322 -33.6597 54.7271Q-34.0676 54.9219 -34.4685 55.1307Q-34.8695 55.3394 -35.2631 55.5618Q-35.6567 55.7841 -36.0425 56.0198Q-36.4282 56.2555 -36.8056 56.5043Q-37.1831 56.7531 -37.5518 57.0147Q-37.9204 57.2763 -38.28 57.5504Q-38.6395 57.8245 -38.9894 58.1107Q-39.3392 58.3969 -39.6791 58.695Q-40.019 58.9931 -40.3485 59.3026Q-40.6779 59.6121 -40.9966 59.9328Q-41.3153 60.2534 -41.6227 60.5848Q-41.9302 60.9162 -42.2262 61.2579Q-42.5221 61.5997 -42.8062 61.9513Q-43.0902 62.303 -43.3621 62.6642Q-43.6339 63.0254 -43.8932 63.3957Q-44.1525 63.766 -44.399 64.145Q-44.6454 64.5239 -44.8787 64.9111Q-45.112 65.2983 -45.332 65.6933Q-45.5519 66.0883 -45.7581 66.4905Q-44.5055 67.3525 -43.2214 68.1668Q-41.9372 68.981 -40.6233 69.7463Q-39.3094 70.5115 -37.9676 71.2268Q-36.6258 71.942 -35.2581 72.6062Q-33.8903 73.2704 -32.4985 73.8827Q-31.1066 74.4949 -29.6927 75.0542Q-28.2788 75.6136 -26.8449 76.1193Q-25.4109 76.625 -23.9589 77.0764Q-22.5069 77.5277 -21.039 77.924Q-19.571 78.3204 -18.0892 78.6611Q-16.6073 79.0019 -15.1137 79.2866Q-13.6201 79.5714 -12.1168 79.7996Q-10.6135 80.0279 -9.10265 80.1994Q-7.59183 80.3708 -6.07562 80.4853Q-4.55941 80.5997 -3.03997 80.657Q-1.52052 80.7143 0 80.7143Q1.11408 80.7143 2.22774 80.6835Q3.3414 80.6528 4.45379 80.5913Q5.56618 80.5298 6.67644 80.4377Q7.78671 80.3455 8.89401 80.2228Q10.0013 80.1 11.1048 79.9467Q12.2083 79.7934 13.3071 79.6098Q14.406 79.4261 15.4993 79.2122Q16.5927 78.9982 17.6797 78.7542Q18.7667 78.5102 19.8466 78.2362Q20.9265 77.9623 21.9984 77.6586Q23.0703 77.355 24.1334 77.0219Q25.1965 76.6888 26.2501 76.3265Q27.3036 75.9641 28.3467 75.5729Q29.3898 75.1816 30.4217 74.7617Q31.4537 74.3418 32.4736 73.8936Q33.4935 73.4453 34.5007 72.9691Q35.5079 72.4929 36.5016 71.9891Q37.4952 71.4853 38.4746 70.9542Q39.4539 70.4232 40.4183 69.8653Q41.3826 69.3074 42.3312 68.7231Q43.2798 68.1388 44.2118 67.5286Q45.1439 66.9183 46.0588 66.2826Q46.9737 65.6468 47.8707 64.9861Q48.7677 64.3253 49.6461 63.6401Q50.5245 62.9548 51.3837 62.2456Q52.2428 61.5363 53.0821 60.8037Q53.9214 60.071 54.7401 59.3154Q55.5588 58.5598 56.3564 57.782Q57.1539 57.0041 57.9297 56.2045Q58.7055 55.4049 59.4589 54.5842Q60.2123 53.7635 60.9428 52.9223Q61.6733 52.0811 62.3802 51.2201ZM-53.7941 -60.1747Q-50.1794 -63.4061 -46.204 -66.1815Q-42.2285 -68.9569 -37.9494 -71.2365Q-37.6684 -70.7099 -37.4539 -70.1529Q-37.2394 -69.5959 -37.0946 -69.0168Q-36.9498 -68.4377 -36.8769 -67.8453Q-36.8039 -67.2529 -36.8039 -66.656Q-36.8039 -66.4171 -36.8157 -66.1785Q-36.8274 -65.9399 -36.8508 -65.7022Q-36.8742 -65.4645 -36.9093 -65.2281Q-36.9443 -64.9919 -36.9909 -64.7575Q-37.0375 -64.5232 -37.0956 -64.2915Q-37.1536 -64.0598 -37.223 -63.8312Q-37.2923 -63.6026 -37.3728 -63.3776Q-37.4533 -63.1527 -37.5447 -62.932Q-37.6361 -62.7113 -37.7383 -62.4954Q-37.8404 -62.2794 -37.953 -62.0687Q-38.0656 -61.858 -38.1884 -61.6531Q-38.3112 -61.4482 -38.444 -61.2496Q-38.5767 -61.051 -38.719 -60.8591Q-38.8613 -60.6672 -39.0128 -60.4826Q-39.1644 -60.2979 -39.3248 -60.1209Q-39.4853 -59.9439 -39.6542 -59.775Q-39.8231 -59.606 -40.0001 -59.4456Q-40.1771 -59.2852 -40.3618 -59.1336Q-40.5464 -58.9821 -40.7383 -58.8398Q-40.9302 -58.6975 -41.1288 -58.5648Q-41.3274 -58.432 -41.5323 -58.3092Q-41.7373 -58.1864 -41.9479 -58.0738Q-42.1586 -57.9612 -42.3746 -57.859Q-42.5905 -57.7569 -42.8112 -57.6655Q-43.0319 -57.5741 -43.2569 -57.4936Q-43.4818 -57.4131 -43.7104 -57.3438Q-43.939 -57.2744 -44.1707 -57.2164Q-44.4025 -57.1583 -44.6368 -57.1117Q-44.8711 -57.0651 -45.1074 -57.0301Q-45.3437 -56.995 -45.5814 -56.9716Q-45.8191 -56.9482 -46.0577 -56.9365Q-46.2963 -56.9247 -46.5352 -56.9247Q-47.0478 -56.9247 -47.5575 -56.9786Q-48.0672 -57.0324 -48.5684 -57.1395Q-49.0696 -57.2466 -49.5568 -57.4057Q-50.044 -57.5649 -50.5118 -57.7743Q-50.9796 -57.9838 -51.4228 -58.2412Q-51.866 -58.4986 -52.2797 -58.8012Q-52.6934 -59.1037 -53.0731 -59.4481Q-53.4527 -59.7924 -53.7941 -60.1747ZM-74.3479 -31.4196Q-72.9511 -34.7248 -71.2665 -37.8929Q-69.582 -41.0611 -67.623 -44.0673Q-65.664 -47.0735 -63.4459 -49.894Q-61.2278 -52.7145 -58.7683 -55.3271Q-58.291 -55.1161 -57.8303 -54.8713Q-57.3696 -54.6264 -56.9277 -54.349Q-56.4858 -54.0716 -56.065 -53.7631Q-55.6443 -53.4545 -55.2469 -53.1164Q-54.8495 -52.7784 -54.4775 -52.4125Q-54.1055 -52.0466 -53.7608 -51.6549Q-53.4162 -51.2632 -53.1006 -50.8477Q-52.7851 -50.4321 -52.5004 -49.9949Q-52.2156 -49.5577 -51.9632 -49.1011Q-51.7107 -48.6445 -51.4918 -48.1709Q-51.2729 -47.6972 -51.0887 -47.2091Q-50.9045 -46.7209 -50.756 -46.2207Q-50.6075 -45.7206 -50.4954 -45.211Q-50.3834 -44.7014 -50.3083 -44.1851Q-50.2333 -43.6687 -50.1957 -43.1483Q-50.1581 -42.6279 -50.1581 -42.1062Q-50.1581 -41.7513 -50.1755 -41.3969Q-50.1929 -41.0424 -50.2277 -40.6893Q-50.2625 -40.3361 -50.3145 -39.9851Q-50.3666 -39.6341 -50.4358 -39.2861Q-50.5051 -38.938 -50.5913 -38.5938Q-50.6775 -38.2496 -50.7805 -37.91Q-50.8835 -37.5704 -51.0031 -37.2363Q-51.1226 -36.9022 -51.2584 -36.5743Q-51.3942 -36.2465 -51.5459 -35.9257Q-51.6977 -35.6049 -51.865 -35.2919Q-52.0322 -34.979 -52.2147 -34.6746Q-52.3971 -34.3702 -52.5942 -34.0752Q-52.7914 -33.7801 -53.0028 -33.4951Q-53.2142 -33.21 -53.4393 -32.9357Q-53.6644 -32.6614 -53.9027 -32.3985Q-54.141 -32.1355 -54.392 -31.8846Q-54.6429 -31.6337 -54.9058 -31.3954Q-55.1688 -31.1571 -55.4431 -30.932Q-55.7174 -30.7068 -56.0024 -30.4954Q-56.2874 -30.2841 -56.5825 -30.0869Q-56.8776 -29.8898 -57.1819 -29.7073Q-57.4863 -29.5249 -57.7993 -29.3576Q-58.1122 -29.1903 -58.433 -29.0386Q-58.7538 -28.8869 -59.0817 -28.7511Q-59.4095 -28.6153 -59.7436 -28.4957Q-60.0777 -28.3762 -60.4173 -28.2732Q-60.7569 -28.1702 -61.1011 -28.0839Q-61.4454 -27.9977 -61.7934 -27.9285Q-62.1414 -27.8592 -62.4925 -27.8072Q-62.8435 -27.7551 -63.1966 -27.7203Q-63.5498 -27.6855 -63.9042 -27.6681Q-64.2587 -27.6507 -64.6135 -27.6507Q-65.2815 -27.6507 -65.9466 -27.7123Q-66.6117 -27.7739 -67.2683 -27.8966Q-67.9249 -28.0193 -68.5674 -28.202Q-69.2099 -28.3847 -69.8328 -28.6258Q-70.4557 -28.867 -71.0537 -29.1646Q-71.6517 -29.4622 -72.2197 -29.8136Q-72.7877 -30.1651 -73.3209 -30.5674Q-73.854 -30.9698 -74.3479 -31.4196ZM-2.95515 -9.50065Q-2.95515 -8.98832 -2.98029 -8.47661Q-3.00542 -7.96489 -3.05564 -7.45503Q-3.10586 -6.94517 -3.18103 -6.43838Q-3.25621 -5.9316 -3.35616 -5.42911Q-3.45611 -4.92662 -3.5806 -4.42965Q-3.70508 -3.93267 -3.8538 -3.4424Q-4.00252 -2.95213 -4.17512 -2.46975Q-4.34772 -1.98737 -4.54378 -1.51403Q-4.73984 -1.0407 -4.95889 -0.577562Q-5.17794 -0.11442 -5.41945 0.337415Q-5.66096 0.78925 -5.92436 1.22869Q-6.18775 1.66813 -6.47238 2.09412Q-6.75702 2.52011 -7.06221 2.93161Q-7.36741 3.34312 -7.69243 3.73916Q-8.01745 4.1352 -8.36151 4.51481Q-8.70557 4.89442 -9.06784 5.25669Q-9.43011 5.61896 -9.80972 5.96302Q-10.1893 6.30709 -10.5854 6.6321Q-10.9814 6.95712 -11.3929 7.26232Q-11.8044 7.56751 -12.2304 7.85215Q-12.6564 8.13678 -13.0958 8.40018Q-13.5353 8.66356 -13.9871 8.90508Q-14.439 9.14659 -14.9021 9.36564Q-15.3652 9.58469 -15.8386 9.78075Q-16.3119 9.97681 -16.7943 10.1494Q-17.2767 10.322 -17.7669 10.4707Q-18.2572 10.6194 -18.7542 10.7439Q-19.2512 10.8684 -19.7536 10.9684Q-20.2561 11.0683 -20.7629 11.1435Q-21.2697 11.2187 -21.7796 11.2689Q-22.2894 11.3191 -22.8011 11.3442Q-23.3129 11.3694 -23.8252 11.3694Q-24.3375 11.3694 -24.8492 11.3442Q-25.3609 11.3191 -25.8708 11.2689Q-26.3807 11.2187 -26.8875 11.1435Q-27.3942 11.0683 -27.8967 10.9684Q-28.3992 10.8684 -28.8962 10.7439Q-29.3932 10.6194 -29.8834 10.4707Q-30.3737 10.322 -30.8561 10.1494Q-31.3385 9.97681 -31.8118 9.78075Q-32.2851 9.58469 -32.7483 9.36564Q-33.2114 9.14659 -33.6633 8.90508Q-34.1151 8.66357 -34.5545 8.40018Q-34.994 8.13678 -35.42 7.85215Q-35.8459 7.56751 -36.2575 7.26232Q-36.669 6.95712 -37.065 6.6321Q-37.461 6.30709 -37.8406 5.96302Q-38.2203 5.61896 -38.5825 5.25669Q-38.9448 4.89442 -39.2889 4.51481Q-39.6329 4.1352 -39.9579 3.73916Q-40.283 3.34312 -40.5882 2.93161Q-40.8933 2.52011 -41.178 2.09412Q-41.4626 1.66813 -41.726 1.22869Q-41.9894 0.78925 -42.2309 0.337415Q-42.4724 -0.11442 -42.6915 -0.577562Q-42.9105 -1.0407 -43.1066 -1.51403Q-43.3026 -1.98737 -43.4752 -2.46975Q-43.6478 -2.95213 -43.7966 -3.4424Q-43.9453 -3.93267 -44.0698 -4.42965Q-44.1943 -4.92662 -44.2942 -5.42911Q-44.3942 -5.9316 -44.4693 -6.43838Q-44.5445 -6.94517 -44.5947 -7.45503Q-44.6449 -7.96489 -44.6701 -8.47661Q-44.6952 -8.98832 -44.6952 -9.50065Q-44.6952 -10.013 -44.6701 -10.5247Q-44.6449 -11.0364 -44.5947 -11.5463Q-44.5445 -12.0561 -44.4693 -12.5629Q-44.3942 -13.0697 -44.2942 -13.5722Q-44.1943 -14.0747 -44.0698 -14.5717Q-43.9453 -15.0686 -43.7966 -15.5589Q-43.6478 -16.0492 -43.4752 -16.5316Q-43.3026 -17.0139 -43.1066 -17.4873Q-42.9105 -17.9606 -42.6915 -18.4237Q-42.4724 -18.8869 -42.2309 -19.3387Q-41.9894 -19.7906 -41.726 -20.23Q-41.4626 -20.6694 -41.178 -21.0954Q-40.8933 -21.5214 -40.5882 -21.9329Q-40.283 -22.3444 -39.9579 -22.7405Q-39.6329 -23.1365 -39.2889 -23.5161Q-38.9448 -23.8957 -38.5825 -24.258Q-38.2203 -24.6203 -37.8406 -24.9643Q-37.461 -25.3084 -37.065 -25.6334Q-36.669 -25.9584 -36.2574 -26.2636Q-35.8459 -26.5688 -35.4199 -26.8535Q-34.994 -27.1381 -34.5545 -27.4015Q-34.1151 -27.6649 -33.6632 -27.9064Q-33.2114 -28.1479 -32.7483 -28.3669Q-32.2851 -28.586 -31.8118 -28.7821Q-31.3385 -28.9781 -30.8561 -29.1507Q-30.3737 -29.3233 -29.8834 -29.472Q-29.3932 -29.6208 -28.8962 -29.7452Q-28.3992 -29.8697 -27.8967 -29.9697Q-27.3942 -30.0696 -26.8875 -30.1448Q-26.3807 -30.22 -25.8708 -30.2702Q-25.3609 -30.3204 -24.8492 -30.3456Q-24.3375 -30.3707 -23.8252 -30.3707Q-23.3129 -30.3707 -22.8011 -30.3456Q-22.2894 -30.3204 -21.7796 -30.2702Q-21.2697 -30.22 -20.7629 -30.1448Q-20.2561 -30.0696 -19.7536 -29.9697Q-19.2512 -29.8697 -18.7542 -29.7452Q-18.2572 -29.6208 -17.7669 -29.472Q-17.2767 -29.3233 -16.7943 -29.1507Q-16.3119 -28.9781 -15.8386 -28.7821Q-15.3652 -28.586 -14.9021 -28.3669Q-14.4389 -28.1479 -13.9871 -27.9064Q-13.5353 -27.6649 -13.0958 -27.4015Q-12.6564 -27.1381 -12.2304 -26.8535Q-11.8044 -26.5688 -11.3929 -26.2636Q-10.9814 -25.9584 -10.5854 -25.6334Q-10.1893 -25.3084 -9.80972 -24.9643Q-9.43011 -24.6203 -9.06784 -24.258Q-8.70557 -23.8957 -8.36151 -23.5161Q-8.01745 -23.1365 -7.69243 -22.7405Q-7.36741 -22.3444 -7.06221 -21.9329Q-6.75702 -21.5214 -6.47238 -21.0954Q-6.18775 -20.6694 -5.92436 -20.23Q-5.66096 -19.7906 -5.41945 -19.3387Q-5.17794 -18.8869 -4.95889 -18.4237Q-4.73984 -17.9606 -4.54378 -17.4873Q-4.34772 -17.0139 -4.17512 -16.5316Q-4.00252 -16.0492 -3.8538 -15.5589Q-3.70508 -15.0686 -3.5806 -14.5717Q-3.45611 -14.0747 -3.35616 -13.5722Q-3.25621 -13.0697 -3.18103 -12.5629Q-3.10586 -12.0561 -3.05564 -11.5463Q-3.00542 -11.0364 -2.98029 -10.5247Q-2.95515 -10.013 -2.95515 -9.50065Z" fill-rule="evenodd"/>
	<path fill="none" stroke="black" stroke-width="2.3999999" stroke-linejoin="round" transform="translate(55 79.2857)" d="M-21.7216 -6.4323Q-21.3603 -5.76824 -20.8916 -4.79656Q-20.4179 -3.82977 -19.9101 -2.69695Q-19.4023 -1.56902 -18.9043 -0.387383Q-18.4013 0.789375 -17.9619 1.82941Q-17.5175 0.789375 -17.0195 -0.387383Q-16.5215 -1.56902 -16.0136 -2.69695Q-15.5009 -3.82977 -15.0322 -4.79656Q-14.5586 -5.76824 -14.2021 -6.4323L-11.3603 -6.4323Q-11.1601 -5.05047 -10.9892 -3.3366Q-10.8183 -1.62762 -10.6914 0.222969Q-10.5595 2.06867 -10.4521 3.92902Q-10.3398 5.78937 -10.2617 7.43L-13.2988 7.43Q-13.3623 5.40852 -13.4599 3.03059Q-13.5576 0.647773 -13.7578 -1.76922Q-14.1191 -0.929375 -14.5586 0.0911326Q-14.998 1.11164 -15.4326 2.13215Q-15.8623 3.14777 -16.2627 4.08039Q-16.6582 5.00812 -16.9414 5.67219L-19.1191 5.67219Q-19.4023 5.00812 -19.8027 4.08039Q-20.1982 3.14777 -20.6279 2.13215Q-21.0576 1.11164 -21.5019 0.0911326Q-21.9414 -0.929375 -22.2978 -1.76922Q-22.498 0.647773 -22.6006 3.03059Q-22.6982 5.40852 -22.7617 7.43L-25.7988 7.43Q-25.7207 5.78937 -25.6133 3.92902Q-25.5009 2.06867 -25.374 0.222969Q-25.2422 -1.62762 -25.0713 -3.3366Q-24.9004 -5.05047 -24.7002 -6.4323L-21.7216 -6.4323ZM2.18025 2.15168Q2.18025 3.39191 1.81892 4.42219Q1.4576 5.44758 0.778885 6.18Q0.100174 6.91242 -0.851974 7.31281Q-1.79924 7.70832 -2.98088 7.70832Q-4.13811 7.70832 -5.09026 7.31281Q-6.0424 6.91242 -6.72112 6.18Q-7.39983 5.44758 -7.78069 4.42219Q-8.16154 3.39191 -8.16154 2.15168Q-8.16154 0.911445 -7.77092 -0.109063Q-7.38029 -1.12957 -6.69182 -1.84734Q-5.99846 -2.57 -5.05119 -2.97039Q-4.09904 -3.37078 -2.98088 -3.37078Q-1.8383 -3.37078 -0.891037 -2.97039Q0.0611115 -2.57 0.739822 -1.84734Q1.41853 -1.12957 1.79939 -0.109063Q2.18025 0.911445 2.18025 2.15168ZM-0.86174 2.15168Q-0.86174 0.769844 -1.4135 -0.021172Q-1.96037 -0.812188 -2.98088 -0.812188Q-4.00139 -0.812188 -4.56291 -0.021172Q-5.11955 0.769844 -5.11955 2.15168Q-5.11955 3.52863 -4.56291 4.33918Q-4.00139 5.14973 -2.98088 5.14973Q-1.96037 5.14973 -1.4135 4.33918Q-0.86174 3.52863 -0.86174 2.15168ZM14.3202 2.15168Q14.3202 3.39191 13.9589 4.42219Q13.5976 5.44758 12.9189 6.18Q12.2402 6.91242 11.288 7.31281Q10.3407 7.70832 9.1591 7.70832Q8.00188 7.70832 7.04973 7.31281Q6.09758 6.91242 5.41887 6.18Q4.74016 5.44758 4.3593 4.42219Q3.97844 3.39191 3.97844 2.15168Q3.97844 0.911445 4.36906 -0.109063Q4.75969 -1.12957 5.44817 -1.84734Q6.14153 -2.57 7.08879 -2.97039Q8.04094 -3.37078 9.1591 -3.37078Q10.3017 -3.37078 11.2489 -2.97039Q12.2011 -2.57 12.8798 -1.84734Q13.5585 -1.12957 13.9394 -0.109063Q14.3202 0.911445 14.3202 2.15168ZM11.2782 2.15168Q11.2782 0.769844 10.7265 -0.021172Q10.1796 -0.812188 9.1591 -0.812188Q8.1386 -0.812188 7.57707 -0.021172Q7.02043 0.769844 7.02043 2.15168Q7.02043 3.52863 7.57707 4.33918Q8.1386 5.14973 9.1591 5.14973Q10.1796 5.14973 10.7265 4.33918Q11.2782 3.52863 11.2782 2.15168ZM16.6214 -2.73113Q17.3782 -2.95086 18.5794 -3.14129Q19.7805 -3.33172 21.0989 -3.33172Q22.4417 -3.33172 23.3303 -2.98016Q24.219 -2.62859 24.7366 -1.98895Q25.259 -1.3493 25.4788 -0.470391Q25.6985 0.408515 25.6985 1.48762L25.6985 7.43L22.72 7.43L22.72 1.84895Q22.72 0.408515 22.3391 -0.187188Q21.9583 -0.787774 20.9182 -0.787774Q20.6008 -0.787774 20.2395 -0.758477Q19.8782 -0.72918 19.5999 -0.690117L19.5999 7.43L16.6214 7.43L16.6214 -2.73113Z"/>
	<path fill="white" transform="translate(55 79.2857)" d="M-21.7216 -6.4323Q-21.3603 -5.76824 -20.8916 -4.79656Q-20.4179 -3.82977 -19.9101 -2.69695Q-19.4023 -1.56902 -18.9043 -0.387383Q-18.4013 0.789375 -17.9619 1.82941Q-17.5175 0.789375 -17.0195 -0.387383Q-16.5215 -1.56902 -16.0136 -2.69695Q-15.5009 -3.82977 -15.0322 -4.79656Q-14.5586 -5.76824 -14.2021 -6.4323L-11.3603 -6.4323Q-11.1601 -5.05047 -10.9892 -3.3366Q-10.8183 -1.62762 -10.6914 0.222969Q-10.5595 2.06867 -10.4521 3.92902Q-10.3398 5.78937 -10.2617 7.43L-13.2988 7.43Q-13.3623 5.40852 -13.4599 3.03059Q-13.5576 0.647773 -13.7578 -1.76922Q-14.1191 -0.929375 -14.5586 0.0911326Q-14.998 1.11164 -15.4326 2.13215Q-15.8623 3.14777 -16.2627 4.08039Q-16.6582 5.00812 -16.9414 5.67219L-19.1191 5.67219Q-19.4023 5.00812 -19.8027 4.08039Q-20.1982 3.14777 -20.6279 2.13215Q-21.0576 1.11164 -21.5019 0.0911326Q-21.9414 -0.929375 -22.2978 -1.76922Q-22.498 0.647773 -22.6006 3.03059Q-22.6982 5.40852 -22.7617 7.43L-25.7988 7.43Q-25.7207 5.78937 -25.6133 3.92902Q-25.5009 2.06867 -25.374 0.222969Q-25.2422 -1.62762 -25.0713 -3.3366Q-24.9004 -5.05047 -24.7002 -6.4323L-21.7216 -6.4323ZM2.18025 2.15168Q2.18025 3.39191 1.81892 4.42219Q1.4576 5.44758 0.778885 6.18Q0.100174 6.91242 -0.851974 7.31281Q-1.79924 7.70832 -2.98088 7.70832Q-4.13811 7.70832 -5.09026 7.31281Q-6.0424 6.91242 -6.72112 6.18Q-7.39983 5.44758 -7.78069 4.42219Q-8.16154 3.39191 -8.16154 2.15168Q-8.16154 0.911445 -7.77092 -0.109063Q-7.38029 -1.12957 -6.69182 -1.84734Q-5.99846 -2.57 -5.05119 -2.97039Q-4.09904 -3.37078 -2.98088 -3.37078Q-1.8383 -3.37078 -0.891037 -2.97039Q0.0611115 -2.57 0.739822 -1.84734Q1.41853 -1.12957 1.79939 -0.109063Q2.18025 0.911445 2.18025 2.15168ZM-0.86174 2.15168Q-0.86174 0.769844 -1.4135 -0.021172Q-1.96037 -0.812188 -2.98088 -0.812188Q-4.00139 -0.812188 -4.56291 -0.021172Q-5.11955 0.769844 -5.11955 2.15168Q-5.11955 3.52863 -4.56291 4.33918Q-4.00139 5.14973 -2.98088 5.14973Q-1.96037 5.14973 -1.4135 4.33918Q-0.86174 3.52863 -0.86174 2.15168ZM14.3202 2.15168Q14.3202 3.39191 13.9589 4.42219Q13.5976 5.44758 12.9189 6.18Q12.2402 6.91242 11.288 7.31281Q10.3407 7.70832 9.1591 7.70832Q8.00188 7.70832 7.04973 7.31281Q6.09758 6.91242 5.41887 6.18Q4.74016 5.44758 4.3593 4.42219Q3.97844 3.39191 3.97844 2.15168Q3.97844 0.911445 4.36906 -0.109063Q4.75969 -1.12957 5.44817 -1.84734Q6.14153 -2.57 7.08879 -2.97039Q8.04094 -3.37078 9.1591 -3.37078Q10.3017 -3.37078 11.2489 -2.97039Q12.2011 -2.57 12.8798 -1.84734Q13.5585 -1.12957 13.9394 -0.109063Q14.3202 0.911445 14.3202 2.15168ZM11.2782 2.15168Q11.2782 0.769844 10.7265 -0.021172Q10.1796 -0.812188 9.1591 -0.812188Q8.1386 -0.812188 7.57707 -0.021172Q7.02043 0.769844 7.02043 2.15168Q7.02043 3.52863 7.57707 4.33918Q8.1386 5.14973 9.1591 5.14973Q10.1796 5.14973 10.7265 4.33918Q11.2782 3.52863 11.2782 2.15168ZM16.6214 -2.73113Q17.3782 -2.95086 18.5794 -3.14129Q19.7805 -3.33172 21.0989 -3.33172Q22.4417 -3.33172 23.3303 -2.98016Q24.219 -2.62859 24.7366 -1.98895Q25.259 -1.3493 25.4788 -0.470391Q25.6985 0.408515 25.6985 1.48762L25.6985 7.43L22.72 7.43L22.72 1.84895Q22.72 0.408515 22.3391 -0.187188Q21.9583 -0.787774 20.9182 -0.787774Q20.6008 -0.787774 20.2395 -0.758477Q19.8782 -0.72918 19.5999 -0.690117L19.5999 7.43L16.6214 7.43L16.6214 -2.73113Z"/>
</svg>
