<?xml version="1.0" encoding="utf-8" ?>
<svg xmlns="http://www.w3.org/2000/svg" xmlns:xlink="http://www.w3.org/1999/xlink" width="110" height="110">
	<path fill="#6D6D6D" transform="matrix(0.186563 0.0187188 -0.0187188 0.186563 55 47.8571)" d="M114.286 0Q114.286 2.80556 114.148 5.60773Q114.01 8.40991 113.735 11.202Q113.46 13.994 113.049 16.7692Q112.637 19.5444 112.09 22.296Q111.542 25.0477 110.861 27.7692Q110.179 30.4906 109.365 33.1754Q108.55 35.8601 107.605 38.5017Q106.66 41.1432 105.586 43.7352Q104.513 46.3272 103.313 48.8634Q102.114 51.3996 100.791 53.8739Q99.4685 56.3482 98.0261 58.7546Q96.5838 61.161 95.0251 63.4937Q93.4664 65.8265 91.7951 68.0799Q90.1239 70.3334 88.344 72.5021Q86.5642 74.6708 84.6801 76.7496Q82.796 78.8284 80.8122 80.8122Q78.8284 82.796 76.7496 84.6801Q74.6708 86.5642 72.5021 88.344Q70.3334 90.1239 68.0799 91.7951Q65.8265 93.4664 63.4937 95.0251Q61.161 96.5838 58.7546 98.0261Q56.3482 99.4685 53.8739 100.791Q51.3996 102.114 48.8634 103.313Q46.3272 104.513 43.7352 105.586Q41.1432 106.66 38.5017 107.605Q35.8601 108.55 33.1754 109.365Q30.4906 110.179 27.7692 110.861Q25.0477 111.542 22.296 112.09Q19.5444 112.637 16.7692 113.049Q13.994 113.46 11.202 113.735Q8.40991 114.01 5.60773 114.148Q2.80556 114.286 0 114.286Q-2.80556 114.286 -5.60773 114.148Q-8.40991 114.01 -11.202 113.735Q-13.994 113.46 -16.7692 113.049Q-19.5444 112.637 -22.296 112.09Q-25.0477 111.542 -27.7692 110.861Q-30.4906 110.179 -33.1754 109.365Q-35.8601 108.55 -38.5017 107.605Q-41.1432 106.66 -43.7352 105.586Q-46.3272 104.513 -48.8634 103.313Q-51.3996 102.114 -53.8739 100.791Q-56.3482 99.4685 -58.7546 98.0261Q-61.161 96.5838 -63.4937 95.0251Q-65.8265 93.4664 -68.0799 91.7951Q-70.3334 90.1239 -72.5021 88.344Q-74.6708 86.5642 -76.7496 84.6801Q-78.8284 82.796 -80.8122 80.8122Q-82.796 78.8284 -84.6801 76.7496Q-86.5642 74.6708 -88.344 72.5021Q-90.1239 70.3334 -91.7951 68.0799Q-93.4664 65.8265 -95.0251 63.4937Q-96.5838 61.161 -98.0261 58.7546Q-99.4685 56.3482 -100.791 53.8739Q-102.114 51.3996 -103.313 48.8634Q-104.513 46.3272 -105.586 43.7352Q-106.66 41.1432 -107.605 38.5017Q-108.55 35.8601 -109.365 33.1754Q-110.179 30.4906 -110.861 27.7692Q-111.542 25.0477 -112.09 22.296Q-112.637 19.5444 -113.049 16.7692Q-113.46 13.994 -113.735 11.202Q-114.01 8.40991 -114.148 5.60773Q-114.286 2.80556 -114.286 0Q-114.286 -2.80556 -114.148 -5.60773Q-114.01 -8.40991 -113.735 -11.202Q-113.46 -13.994 -113.049 -16.7692Q-112.637 -19.5444 -112.09 -22.296Q-111.542 -25.0477 -110.861 -27.7692Q-110.179 -30.4906 -109.365 -33.1754Q-108.55 -35.8601 -107.605 -38.5017Q-106.66 -41.1432 -105.586 -43.7352Q-104.513 -46.3272 -103.313 -48.8634Q-102.114 -51.3996 -100.791 -53.8739Q-99.4685 -56.3482 -98.0261 -58.7546Q-96.5838 -61.161 -95.0251 -63.4937Q-93.4664 -65.8265 -91.7951 -68.0799Q-90.1239 -70.3334 -88.344 -72.5021Q-86.5642 -74.6708 -84.6801 -76.7496Q-82.796 -78.8284 -80.8122 -80.8122Q-78.8284 -82.796 -76.7496 -84.6801Q-74.6708 -86.5642 -72.5021 -88.344Q-70.3334 -90.1239 -68.0799 -91.7951Q-65.8265 -93.4664 -63.4937 -95.0251Q-61.161 -96.5838 -58.7546 -98.0261Q-56.3482 -99.4685 -53.8739 -100.791Q-51.3996 -102.114 -48.8634 -103.313Q-46.3272 -104.513 -43.7352 -105.586Q-41.1432 -106.66 -38.5017 -107.605Q-35.8601 -108.55 -33.1754 -109.365Q-30.4906 -110.179 -27.7692 -110.861Q-25.0477 -111.542 -22.296 -112.09Q-19.5444 -112.637 -16.7692 -113.049Q-13.994 -113.46 -11.202 -113.735Q-8.40991 -114.01 -5.60773 -114.148Q-2.80556 -114.286 0 -114.286Q2.80556 -114.286 5.60773 -114.148Q8.40991 -114.01 11.202 -113.735Q13.994 -113.46 16.7692 -113.049Q19.5444 -112.637 22.296 -112.09Q25.0477 -111.542 27.7692 -110.861Q30.4906 -110.179 33.1754 -109.365Q35.8601 -108.55 38.5017 -107.605Q41.1432 -106.66 43.7352 -105.586Q46.3272 -104.513 48.8634 -103.313Q51.3996 -102.114 53.8739 -100.791Q56.3482 -99.4685 58.7546 -98.0261Q61.161 -96.5838 63.4937 -95.0251Q65.8265 -93.4664 68.0799 -91.7951Q70.3334 -90.1239 72.5021 -88.344Q74.6708 -86.5642 76.7496 -84.6801Q78.8284 -82.796 80.8122 -80.8122Q82.796 -78.8284 84.6801 -76.7496Q86.5642 -74.6708 88.344 -72.5021Q90.1239 -70.3334 91.7951 -68.0799Q93.4664 -65.8265 95.0251 -63.4937Q96.5838 -61.161 98.0261 -58.7546Q99.4685 -56.3482 100.791 -53.8739Q102.114 -51.3996 103.313 -48.8634Q104.513 -46.3272 105.586 -43.7352Q106.66 -41.1432 107.605 -38.5017Q108.55 -35.8601 109.365 -33.1754Q110.179 -30.4906 110.861 -27.7692Q111.542 -25.0477 112.09 -22.296Q112.637 -19.5444 113.049 -16.7692Q113.46 -13.994 113.735 -11.202Q114.01 -8.40991 114.148 -5.60773Q114.286 -2.80556 114.286 0"/>
	<path fill="#878787" transform="matrix(0.186563 0.0187188 -0.0187188 0.186563 55 47.8571)" d="M109.286 0Q109.286 2.68281 109.154 5.3624Q109.022 8.04198 108.759 10.7119Q108.497 13.3818 108.103 16.0355Q107.709 18.6893 107.186 21.3206Q106.662 23.9518 106.011 26.5543Q105.359 29.1567 104.58 31.724Q103.801 34.2913 102.897 36.8172Q101.993 39.3432 100.967 41.8218Q99.9402 44.3004 98.7931 46.7257Q97.6461 49.1509 96.3814 51.5169Q95.1167 53.8829 93.7375 56.1841Q92.3582 58.4852 90.8677 60.7159Q89.3772 62.9466 87.7791 65.1014Q86.181 67.2563 84.479 69.3301Q82.777 71.404 80.9754 73.3918Q79.1737 75.3796 77.2767 77.2767Q75.3796 79.1737 73.3918 80.9754Q71.404 82.777 69.3301 84.479Q67.2563 86.181 65.1014 87.7791Q62.9466 89.3772 60.7159 90.8677Q58.4852 92.3582 56.1841 93.7375Q53.8829 95.1167 51.5169 96.3814Q49.1509 97.6461 46.7257 98.7931Q44.3004 99.9402 41.8218 100.967Q39.3432 101.993 36.8172 102.897Q34.2913 103.801 31.724 104.58Q29.1567 105.359 26.5543 106.011Q23.9518 106.662 21.3206 107.186Q18.6893 107.709 16.0355 108.103Q13.3818 108.497 10.7119 108.759Q8.04198 109.022 5.3624 109.154Q2.68281 109.286 0 109.286Q-2.68281 109.286 -5.3624 109.154Q-8.04198 109.022 -10.7119 108.759Q-13.3818 108.497 -16.0355 108.103Q-18.6893 107.709 -21.3206 107.186Q-23.9518 106.662 -26.5543 106.011Q-29.1567 105.359 -31.724 104.58Q-34.2913 103.801 -36.8172 102.897Q-39.3432 101.993 -41.8218 100.967Q-44.3004 99.9402 -46.7257 98.7931Q-49.1509 97.6461 -51.5169 96.3814Q-53.8829 95.1167 -56.1841 93.7375Q-58.4852 92.3582 -60.7159 90.8677Q-62.9466 89.3772 -65.1014 87.7791Q-67.2563 86.181 -69.3301 84.479Q-71.404 82.777 -73.3918 80.9754Q-75.3796 79.1737 -77.2767 77.2767Q-79.1737 75.3796 -80.9754 73.3918Q-82.777 71.404 -84.479 69.3301Q-86.181 67.2563 -87.7791 65.1014Q-89.3772 62.9466 -90.8677 60.7159Q-92.3582 58.4852 -93.7375 56.1841Q-95.1167 53.8829 -96.3814 51.5169Q-97.6461 49.1509 -98.7931 46.7257Q-99.9402 44.3004 -100.967 41.8218Q-101.993 39.3432 -102.897 36.8172Q-103.801 34.2913 -104.58 31.724Q-105.359 29.1567 -106.011 26.5543Q-106.662 23.9518 -107.186 21.3206Q-107.709 18.6893 -108.103 16.0355Q-108.497 13.3818 -108.759 10.7119Q-109.022 8.04198 -109.154 5.3624Q-109.286 2.68281 -109.286 0Q-109.286 -2.68281 -109.154 -5.3624Q-109.022 -8.04198 -108.759 -10.7119Q-108.497 -13.3818 -108.103 -16.0355Q-107.709 -18.6893 -107.186 -21.3206Q-106.662 -23.9518 -106.011 -26.5543Q-105.359 -29.1567 -104.58 -31.724Q-103.801 -34.2913 -102.897 -36.8172Q-101.993 -39.3432 -100.967 -41.8218Q-99.9402 -44.3004 -98.7931 -46.7257Q-97.6461 -49.1509 -96.3814 -51.5169Q-95.1167 -53.8829 -93.7375 -56.1841Q-92.3582 -58.4852 -90.8677 -60.7159Q-89.3772 -62.9466 -87.7791 -65.1014Q-86.181 -67.2563 -84.479 -69.3301Q-82.777 -71.404 -80.9754 -73.3918Q-79.1737 -75.3796 -77.2767 -77.2767Q-75.3796 -79.1737 -73.3918 -80.9754Q-71.404 -82.777 -69.3301 -84.479Q-67.2563 -86.181 -65.1014 -87.7791Q-62.9466 -89.3772 -60.7159 -90.8677Q-58.4852 -92.3582 -56.1841 -93.7375Q-53.8829 -95.1167 -51.5169 -96.3814Q-49.1509 -97.6461 -46.7257 -98.7931Q-44.3004 -99.9402 -41.8218 -100.967Q-39.3432 -101.993 -36.8172 -102.897Q-34.2913 -103.801 -31.724 -104.58Q-29.1567 -105.359 -26.5543 -106.011Q-23.9518 -106.662 -21.3206 -107.186Q-18.6893 -107.709 -16.0355 -108.103Q-13.3818 -108.497 -10.7119 -108.759Q-8.04198 -109.022 -5.3624 -109.154Q-2.68281 -109.286 0 -109.286Q2.68281 -109.286 5.3624 -109.154Q8.04198 -109.022 10.7119 -108.759Q13.3818 -108.497 16.0355 -108.103Q18.6893 -107.709 21.3206 -107.186Q23.9518 -106.662 26.5543 -106.011Q29.1567 -105.359 31.724 -104.58Q34.2913 -103.801 36.8172 -102.897Q39.3432 -101.993 41.8218 -100.967Q44.3004 -99.9402 46.7257 -98.7931Q49.1509 -97.6461 51.5169 -96.3814Q53.8829 -95.1167 56.1841 -93.7375Q58.4852 -92.3582 60.7159 -90.8677Q62.9466 -89.3772 65.1014 -87.7791Q67.2563 -86.181 69.3301 -84.479Q71.404 -82.777 73.3918 -80.9754Q75.3796 -79.1737 77.2767 -77.2767Q79.1737 -75.3796 80.9754 -73.3918Q82.777 -71.404 84.479 -69.3301Q86.181 -67.2563 87.7791 -65.1014Q89.3772 -62.9466 90.8677 -60.7159Q92.3582 -58.4852 93.7375 -56.1841Q95.1167 -53.8829 96.3814 -51.5169Q97.6461 -49.1509 98.7931 -46.7257Q99.9402 -44.3004 100.967 -41.8218Q101.993 -39.3432 102.897 -36.8172Q103.801 -34.2913 104.58 -31.724Q105.359 -29.1567 106.011 -26.5543Q106.662 -23.9518 107.186 -21.3206Q107.709 -18.6893 108.103 -16.0355Q108.497 -13.3818 108.759 -10.7119Q109.022 -8.04198 109.154 -5.3624Q109.286 -2.68281 109.286 0"/>
	<path fill="#7C7C7C" transform="matrix(0.186563 0.0187188 -0.0187188 0.186563 55 47.8571)" d="M108.131 15.8479Q109.286 7.96604 109.286 0Q109.286 -5.66868 108.699 -11.3069Q108.113 -16.9452 106.946 -22.4925Q106.475 -22.4924 106.005 -22.4691Q105.534 -22.4458 105.066 -22.3995Q104.597 -22.3531 104.131 -22.2839Q103.665 -22.2146 103.204 -22.1226Q102.742 -22.0306 102.285 -21.916Q101.828 -21.8014 101.378 -21.6646Q100.927 -21.5278 100.484 -21.369Q100.04 -21.2102 99.6052 -21.0298Q99.1702 -20.8495 98.7445 -20.648Q98.3188 -20.4466 97.9036 -20.2245Q97.4883 -20.0024 97.0844 -19.7602Q96.6806 -19.518 96.289 -19.2562Q95.8975 -18.9945 95.5193 -18.7139Q95.1412 -18.4333 94.7772 -18.1344Q94.4132 -17.8356 94.0643 -17.5193Q93.7155 -17.2029 93.3825 -16.8699Q93.0496 -16.5368 92.7334 -16.1878Q92.4172 -15.8388 92.1185 -15.4747Q91.8198 -15.1107 91.5393 -14.7324Q91.2588 -14.3541 90.9973 -13.9624Q90.7357 -13.5708 90.4936 -13.1669Q90.2516 -12.7629 90.0296 -12.3476Q89.8077 -11.9322 89.6064 -11.5065Q89.4051 -11.0807 89.2249 -10.6456Q89.0447 -10.2105 88.8861 -9.76711Q88.7275 -9.32369 88.5908 -8.87303Q88.4541 -8.42236 88.3397 -7.96554Q88.2253 -7.50871 88.1335 -7.04682Q88.0416 -6.58493 87.9725 -6.11909Q87.9034 -5.65325 87.8573 -5.18459Q87.8111 -4.71592 87.788 -4.24555Q87.7649 -3.77519 87.7649 -3.30425Q87.7649 -2.83321 87.788 -2.36273Q87.8112 -1.89225 87.8573 -1.42347Q87.9035 -0.954697 87.9726 -0.48875Q88.0417 -0.0228024 88.1336 0.439192Q88.2255 0.901187 88.34 1.35812Q88.4544 1.81505 88.5912 2.26581Q88.7279 2.71657 88.8866 3.16008Q89.0453 3.60359 89.2255 4.03878Q89.4058 4.47397 89.6072 4.89979Q89.8086 5.32561 90.0307 5.74104Q90.2527 6.15646 90.4949 6.56049Q90.737 6.96452 90.9987 7.35618Q91.2604 7.74784 91.541 8.12619Q91.8216 8.50453 92.1205 8.86866Q92.4193 9.23278 92.7356 9.5818Q93.052 9.93082 93.385 10.2639Q93.7181 10.597 94.0671 10.9133Q94.4162 11.2297 94.7803 11.5285Q95.1444 11.8273 95.5228 12.1079Q95.9011 12.3885 96.2928 12.6502Q96.6844 12.9119 97.0885 13.1541Q97.4925 13.3962 97.9079 13.6183Q98.3233 13.8403 98.7492 14.0417Q99.175 14.2431 99.6102 14.4234Q100.045 14.6037 100.489 14.7624Q100.932 14.921 101.383 15.0578Q101.834 15.1945 102.291 15.309Q102.748 15.4234 103.21 15.5153Q103.672 15.6072 104.138 15.6763Q104.604 15.7455 105.072 15.7916Q105.541 15.8378 106.012 15.8609Q106.482 15.884 106.953 15.884Q107.542 15.884 108.131 15.8479ZM86.2621 67.0985Q85.5473 66.389 84.7986 65.7151Q84.05 65.0413 83.2693 64.4049Q82.4886 63.7684 81.6778 63.1709Q80.867 62.5733 80.0279 62.0161Q79.1889 61.4588 78.3237 60.9432Q77.4584 60.4276 76.569 59.9548Q75.6796 59.4821 74.7682 59.0534Q73.8568 58.6246 72.9255 58.2409Q71.9942 57.8572 71.0453 57.5194Q70.0964 57.1816 69.1322 56.8906Q68.1679 56.5995 67.1906 56.3559Q66.2133 56.1123 65.2252 55.9167Q64.2371 55.7211 63.2407 55.574Q62.2443 55.4269 61.2419 55.3287Q60.2394 55.2304 59.2334 55.1812Q58.2274 55.1321 57.2202 55.1321Q56.2732 55.1321 55.3272 55.1755Q54.3812 55.219 53.4382 55.3059Q52.4952 55.3928 51.5572 55.5229Q50.6192 55.6529 49.6882 55.826Q48.7571 55.999 47.835 56.2146Q46.9129 56.4301 46.0017 56.6878Q45.0904 56.9455 44.192 57.2448Q43.2935 57.5441 42.4098 57.8843Q41.526 58.2245 40.6588 58.6049Q39.7916 58.9854 38.9428 59.4052Q38.094 59.8251 37.2653 60.2835Q36.4367 60.7418 35.63 61.2378Q34.8232 61.7337 34.0401 62.2662Q33.257 62.7987 32.4992 63.3666Q31.7414 63.9344 31.0104 64.5365Q30.2795 65.1386 29.5769 65.7736Q28.419 66.1333 27.2846 66.5616Q26.1502 66.9899 25.0434 67.4853Q23.9367 67.9808 22.8615 68.5415Q21.7864 69.1022 20.7467 69.7262Q19.707 70.3502 18.7065 71.0353Q17.706 71.7204 16.7483 72.4641Q15.7905 73.2077 14.879 74.0074Q13.9674 74.807 13.1053 75.6597Q13.4819 73.7803 13.4819 71.8635Q13.4819 71.3892 13.4587 70.9154Q13.4354 70.4417 13.3889 69.9696Q13.3424 69.4976 13.2728 69.0284Q13.2032 68.5592 13.1107 68.0939Q13.0181 67.6287 12.9029 67.1686Q12.7876 66.7085 12.6499 66.2546Q12.5122 65.8006 12.3524 65.354Q12.1926 64.9074 12.0111 64.4692Q11.8296 64.031 11.6268 63.6022Q11.424 63.1734 11.2004 62.7551Q10.9768 62.3367 10.7329 61.9299Q10.4891 61.523 10.2255 61.1286Q9.96201 60.7342 9.67945 60.3533Q9.39689 59.9723 9.09597 59.6056Q8.79506 59.2389 8.47651 58.8875Q8.15797 58.536 7.82256 58.2006Q7.48716 57.8652 7.1357 57.5467Q6.78424 57.2281 6.41757 56.9272Q6.0509 56.6263 5.66991 56.3437Q5.28892 56.0612 4.89453 55.7976Q4.50013 55.5341 4.09328 55.2902Q3.68643 55.0464 3.2681 54.8228Q2.84978 54.5992 2.42098 54.3964Q1.99219 54.1936 1.55396 54.0121Q1.11573 53.8305 0.669123 53.6707Q0.222515 53.5109 -0.231396 53.3733Q-0.685307 53.2356 -1.14543 53.1203Q-1.60555 53.0051 -2.07077 52.9125Q-2.53599 52.82 -3.00519 52.7504Q-3.47439 52.6808 -3.94644 52.6343Q-4.4185 52.5878 -4.89226 52.5645Q-5.36602 52.5412 -5.84036 52.5412Q-6.2361 52.5412 -6.63151 52.5574Q-7.02691 52.5737 -7.42133 52.606Q-7.81574 52.6384 -8.20849 52.6869Q-8.60125 52.7354 -8.99169 52.8Q-9.38213 52.8645 -9.7696 52.945Q-10.1571 53.0254 -10.5409 53.1217Q-10.9248 53.218 -11.3044 53.3299Q-11.6839 53.4418 -12.0586 53.5692Q-12.4333 53.6965 -12.8025 53.8391Q-13.1716 53.9817 -13.5346 54.1393Q-13.8976 54.2969 -14.2539 54.4692Q-14.6102 54.6415 -14.9591 54.8283Q-15.308 55.015 -15.6489 55.2159Q-15.9899 55.4168 -16.3223 55.6315Q-16.6548 55.8462 -16.9781 56.0743Q-17.3015 56.3024 -17.6153 56.5435Q-17.9291 56.7847 -18.2327 57.0385Q-18.5363 57.2923 -18.8293 57.5584Q-19.1223 57.8244 -19.4041 58.1022Q-19.686 58.38 -19.9562 58.6691Q-20.2264 58.9582 -20.4846 59.2581Q-20.7428 59.558 -20.9885 59.8683Q-21.2341 60.1785 -21.4669 60.4986Q-21.6997 60.8186 -21.9191 61.1479Q-22.1386 61.4772 -22.3444 61.8153Q-22.5502 62.1533 -22.742 62.4995Q-22.9338 62.8456 -23.1112 63.1993Q-23.2887 63.5531 -23.4515 63.9137Q-23.6143 64.2744 -23.7622 64.6415Q-23.9101 65.0086 -24.0429 65.3814Q-24.1757 65.7542 -24.293 66.1321Q-24.4104 66.51 -24.5122 66.8924Q-27.1055 66.535 -29.7232 66.535Q-30.3971 66.535 -31.0705 66.5588Q-31.7439 66.5826 -32.4161 66.6301Q-33.0883 66.6777 -33.7583 66.7489Q-34.4284 66.8202 -35.0955 66.915Q-35.7627 67.0099 -36.426 67.1283Q-37.0894 67.2466 -37.7482 67.3883Q-38.407 67.53 -39.0603 67.6949Q-39.7137 67.8598 -40.3608 68.0476Q-41.0079 68.2355 -41.648 68.4461Q-42.2881 68.6566 -42.9204 68.8897Q-43.5527 69.1227 -44.1763 69.3779Q-44.8 69.6332 -45.4142 69.9102Q-46.0285 70.1873 -46.6325 70.4859Q-47.2366 70.7845 -47.8298 71.1042Q-48.4229 71.424 -49.0044 71.7644Q-49.5859 72.1049 -50.1551 72.4657Q-50.7242 72.8265 -51.2802 73.2072Q-51.8362 73.5878 -52.3785 73.9879Q-52.9207 74.3879 -53.4485 74.8069Q-53.9763 75.2258 -54.4889 75.6632Q-55.0016 76.1005 -55.4985 76.5556Q-55.9954 77.0108 -56.4759 77.4832Q-56.9564 77.9556 -57.4199 78.4447Q-57.8835 78.9338 -58.3294 79.4389Q-58.7754 79.944 -59.2033 80.4646Q-59.6312 80.9852 -60.0404 81.5206Q-60.4496 82.0559 -60.8397 82.6054Q-61.2298 83.1548 -61.6002 83.7177Q-61.9706 84.2807 -62.3209 84.8563Q-62.6713 85.4319 -63.001 86.0195Q-63.3308 86.6072 -63.6396 87.2061Q-63.9485 87.805 -64.2359 88.4144Q-62.4997 89.6758 -60.7153 90.8681Q-58.9309 92.0604 -57.1011 93.1817Q-55.2713 94.303 -53.3988 95.3516Q-51.5264 96.4002 -49.6142 97.3745Q-47.702 98.3488 -45.7531 99.2473Q-43.8041 100.146 -41.8214 100.967Q-39.8387 101.788 -37.8253 102.531Q-35.8118 103.274 -33.7708 103.937Q-31.7298 104.6 -29.6643 105.183Q-27.5988 105.765 -25.512 106.266Q-23.4252 106.767 -21.3204 107.186Q-19.2155 107.605 -17.0959 107.94Q-14.9762 108.276 -12.845 108.528Q-10.7138 108.78 -8.57437 108.949Q-6.43491 109.117 -4.29049 109.201Q-2.14607 109.286 0 109.286Q1.55352 109.286 3.10641 109.242Q4.6593 109.197 6.21031 109.109Q7.76131 109.021 9.30919 108.889Q10.8571 108.756 12.4005 108.58Q13.944 108.404 15.4819 108.184Q17.0197 107.963 18.5507 107.7Q20.0817 107.436 21.6045 107.129Q23.1274 106.822 24.6409 106.472Q26.1544 106.121 27.6574 105.728Q29.1603 105.335 30.6515 104.899Q32.1426 104.464 33.6208 103.986Q35.099 103.508 36.563 102.988Q38.027 102.468 39.4756 101.907Q40.9242 101.346 42.3563 100.744Q43.7884 100.142 45.2028 99.4991Q46.6172 98.8565 48.0128 98.174Q49.4083 97.4915 50.784 96.7696Q52.1596 96.0477 53.5141 95.287Q54.8686 94.5263 56.201 93.7274Q57.5333 92.9285 58.8424 92.092Q60.1515 91.2556 61.4363 90.3822Q62.7211 89.5089 63.9806 88.5994Q65.24 87.6899 66.4731 86.745Q67.7062 85.8 68.912 84.8204Q70.1177 83.8408 71.2951 82.8274Q72.4725 81.8139 73.6207 80.7674Q74.7688 79.7208 75.8867 78.6421Q77.0046 77.5633 78.0914 76.4533Q79.1782 75.3432 80.233 74.2027Q81.2878 73.0621 82.3098 71.8921Q83.3317 70.722 84.32 69.5234Q85.3083 68.3248 86.2621 67.0985ZM-74.9843 -79.503Q-72.0676 -82.2539 -68.9572 -84.7837Q-65.8468 -87.3135 -62.5593 -89.6086Q-59.2719 -91.9037 -55.8251 -93.9517Q-52.3784 -95.9997 -48.7908 -97.7897Q-48.4608 -97.2989 -48.168 -96.7852Q-47.8751 -96.2714 -47.6211 -95.7373Q-47.367 -95.2033 -47.1531 -94.6519Q-46.9393 -94.1006 -46.7668 -93.5349Q-46.5942 -92.9692 -46.464 -92.3924Q-46.3338 -91.8155 -46.2466 -91.2306Q-46.1594 -90.6456 -46.1157 -90.0559Q-46.0719 -89.4661 -46.0719 -88.8747Q-46.0719 -88.4825 -46.0912 -88.0908Q-46.1104 -87.6992 -46.1488 -87.3089Q-46.1873 -86.9186 -46.2448 -86.5307Q-46.3024 -86.1427 -46.3789 -85.7581Q-46.4554 -85.3735 -46.5507 -84.9931Q-46.646 -84.6127 -46.7598 -84.2374Q-46.8736 -83.8621 -47.0058 -83.4929Q-47.1379 -83.1236 -47.2879 -82.7613Q-47.438 -82.399 -47.6057 -82.0445Q-47.7734 -81.69 -47.9582 -81.3441Q-48.1431 -80.9982 -48.3447 -80.6619Q-48.5463 -80.3255 -48.7642 -79.9994Q-48.9821 -79.6734 -49.2157 -79.3584Q-49.4493 -79.0434 -49.6981 -78.7402Q-49.9469 -78.4371 -50.2102 -78.1465Q-50.4736 -77.8559 -50.7509 -77.5786Q-51.0282 -77.3013 -51.3188 -77.038Q-51.6094 -76.7746 -51.9125 -76.5258Q-52.2157 -76.277 -52.5306 -76.0434Q-52.8456 -75.8098 -53.1717 -75.5919Q-53.4978 -75.374 -53.8342 -75.1724Q-54.1705 -74.9708 -54.5164 -74.786Q-54.8622 -74.6011 -55.2168 -74.4334Q-55.5713 -74.2657 -55.9336 -74.1157Q-56.2959 -73.9656 -56.6651 -73.8335Q-57.0344 -73.7014 -57.4097 -73.5875Q-57.7849 -73.4737 -58.1654 -73.3784Q-58.5458 -73.2831 -58.9304 -73.2066Q-59.315 -73.1301 -59.7029 -73.0725Q-60.0909 -73.015 -60.4812 -72.9766Q-60.8714 -72.9381 -61.2631 -72.9189Q-61.6548 -72.8996 -62.047 -72.8996Q-62.5183 -72.8996 -62.9888 -72.9274Q-63.4594 -72.9552 -63.9274 -73.0107Q-64.3955 -73.0662 -64.8595 -73.1492Q-65.3235 -73.2321 -65.7818 -73.3423Q-66.24 -73.4525 -66.691 -73.5896Q-67.142 -73.7266 -67.5841 -73.89Q-68.0263 -74.0533 -68.458 -74.2425Q-68.8897 -74.4316 -69.3095 -74.6459Q-69.7293 -74.8602 -70.1358 -75.0989Q-70.5422 -75.3375 -70.9339 -75.5997Q-71.3256 -75.8619 -71.7011 -76.1468Q-72.0767 -76.4316 -72.4348 -76.7381Q-72.7928 -77.0446 -73.1322 -77.3717Q-73.4716 -77.6988 -73.7912 -78.0453Q-74.1107 -78.3918 -74.4092 -78.7565Q-74.7078 -79.1213 -74.9843 -79.503ZM-101.647 -40.1409Q-100.636 -42.7009 -99.4973 -45.2067Q-98.3588 -47.7125 -97.0956 -50.1578Q-95.8324 -52.6032 -94.4477 -54.9818Q-93.063 -57.3604 -91.5603 -59.6664Q-90.0576 -61.9723 -88.4408 -64.1996Q-86.8239 -66.427 -85.097 -68.5701Q-83.3701 -70.7133 -81.5375 -72.7668Q-79.7049 -74.8203 -77.7712 -76.7789Q-77.389 -76.6237 -77.0129 -76.4545Q-76.6367 -76.2853 -76.267 -76.1022Q-75.8974 -75.9192 -75.5348 -75.7226Q-75.1721 -75.526 -74.8171 -75.3161Q-74.462 -75.1062 -74.1149 -74.8833Q-73.7678 -74.6604 -73.4292 -74.4248Q-73.0907 -74.1892 -72.761 -73.9412Q-72.4314 -73.6932 -72.1112 -73.4332Q-71.791 -73.1732 -71.4806 -72.9015Q-71.1702 -72.6298 -70.8701 -72.3468Q-70.57 -72.0639 -70.2806 -71.77Q-69.9912 -71.476 -69.7128 -71.1716Q-69.4345 -70.8672 -69.1676 -70.5527Q-68.9007 -70.2382 -68.6457 -69.914Q-68.3906 -69.5898 -68.1478 -69.2564Q-67.9049 -68.923 -67.6745 -68.5808Q-67.4442 -68.2386 -67.2266 -67.8882Q-67.0091 -67.5377 -66.8047 -67.1794Q-66.6003 -66.8211 -66.4093 -66.4555Q-66.2183 -66.0899 -66.0409 -65.7175Q-65.8636 -65.3451 -65.7002 -64.9664Q-65.5368 -64.5876 -65.3875 -64.2031Q-65.2382 -63.8186 -65.1032 -63.4288Q-64.9683 -63.039 -64.8478 -62.6445Q-64.7274 -62.25 -64.6217 -61.8513Q-64.5159 -61.4526 -64.425 -61.0502Q-64.3341 -60.6479 -64.2582 -60.2424Q-64.1823 -59.837 -64.1214 -59.429Q-64.0605 -59.0211 -64.0148 -58.6111Q-63.969 -58.2012 -63.9385 -57.7898Q-63.908 -57.3785 -63.8927 -56.9663Q-63.8774 -56.5541 -63.8774 -56.1416Q-63.8774 -55.5948 -63.9043 -55.0486Q-63.9311 -54.5025 -63.9847 -53.9583Q-64.0383 -53.4142 -64.1185 -52.8733Q-64.1987 -52.3324 -64.3054 -51.7961Q-64.4121 -51.2598 -64.5449 -50.7294Q-64.6778 -50.199 -64.8365 -49.6758Q-64.9953 -49.1525 -65.1795 -48.6377Q-65.3637 -48.1229 -65.5729 -47.6177Q-65.7822 -47.1125 -66.016 -46.6182Q-66.2497 -46.1239 -66.5075 -45.6417Q-66.7653 -45.1595 -67.0464 -44.6905Q-67.3275 -44.2215 -67.6313 -43.7668Q-67.935 -43.3122 -68.2608 -42.873Q-68.5865 -42.4338 -68.9334 -42.0111Q-69.2803 -41.5884 -69.6475 -41.1833Q-70.0147 -40.7782 -70.4013 -40.3915Q-70.7879 -40.0049 -71.1931 -39.6377Q-71.5982 -39.2705 -72.0209 -38.9236Q-72.4436 -38.5767 -72.8828 -38.251Q-73.322 -37.9252 -73.7766 -37.6215Q-74.2313 -37.3177 -74.7003 -37.0366Q-75.1693 -36.7555 -75.6515 -36.4977Q-76.1337 -36.2399 -76.628 -36.0062Q-77.1223 -35.7724 -77.6275 -35.5631Q-78.1327 -35.3539 -78.6475 -35.1697Q-79.1623 -34.9855 -79.6856 -34.8267Q-80.2088 -34.668 -80.7392 -34.5351Q-81.2696 -34.4023 -81.8059 -34.2956Q-82.3422 -34.1889 -82.8831 -34.1087Q-83.424 -34.0285 -83.9681 -33.9749Q-84.5123 -33.9213 -85.0584 -33.8945Q-85.6046 -33.8676 -86.1514 -33.8676Q-86.687 -33.8676 -87.222 -33.8934Q-87.757 -33.9191 -88.2901 -33.9705Q-88.8233 -34.022 -89.3534 -34.099Q-89.8834 -34.176 -90.4092 -34.2784Q-90.9349 -34.3807 -91.4551 -34.5083Q-91.9753 -34.6358 -92.4888 -34.7882Q-93.0023 -34.9406 -93.5079 -35.1175Q-94.0135 -35.2944 -94.5099 -35.4954Q-95.0064 -35.6964 -95.4927 -35.9211Q-95.9789 -36.1457 -96.4538 -36.3934Q-96.9287 -36.6412 -97.3911 -36.9115Q-97.8535 -37.1818 -98.3024 -37.4739Q-98.7513 -37.7662 -99.1857 -38.0796Q-99.62 -38.393 -100.039 -38.727Q-100.458 -39.0609 -100.86 -39.4146Q-101.262 -39.7683 -101.647 -40.1409ZM-0.940201 -12.6675Q-0.940201 -11.9108 -0.977333 -11.1549Q-1.01447 -10.3991 -1.08864 -9.64599Q-1.16281 -8.89288 -1.27385 -8.14432Q-1.38489 -7.39576 -1.53253 -6.65355Q-1.68016 -5.91133 -1.86404 -5.17726Q-2.04791 -4.44318 -2.26759 -3.71902Q-2.48726 -2.99485 -2.74221 -2.28233Q-2.99715 -1.56982 -3.28674 -0.870667Q-3.57634 -0.171518 -3.8999 0.512579Q-4.22345 1.19668 -4.58018 1.86407Q-4.93691 2.53147 -5.32596 3.18056Q-5.71501 3.82965 -6.13544 4.45887Q-6.55587 5.08808 -7.00667 5.69591Q-7.45746 6.30374 -7.93754 6.88872Q-8.41762 7.4737 -8.92583 8.03442Q-9.43403 8.59513 -9.96914 9.13024Q-10.5042 9.66535 -11.065 10.1735Q-11.6257 10.6818 -12.2107 11.1618Q-12.7956 11.6419 -13.4035 12.0927Q-14.0113 12.5435 -14.6405 12.9639Q-15.2697 13.3844 -15.9188 13.7734Q-16.5679 14.1625 -17.2353 14.5192Q-17.9027 14.8759 -18.5868 15.1995Q-19.2709 15.523 -19.97 15.8126Q-20.6692 16.1022 -21.3817 16.3572Q-22.0942 16.6121 -22.8184 16.8318Q-23.5426 17.0515 -24.2766 17.2353Q-25.0107 17.4192 -25.7529 17.5668Q-26.4951 17.7145 -27.2437 17.8255Q-27.9923 17.9366 -28.7454 18.0107Q-29.4985 18.0849 -30.2543 18.122Q-31.0102 18.1592 -31.7669 18.1592Q-32.5237 18.1592 -33.2795 18.122Q-34.0354 18.0849 -34.7885 18.0107Q-35.5416 17.9366 -36.2901 17.8255Q-37.0387 17.7145 -37.7809 17.5668Q-38.5231 17.4192 -39.2572 17.2353Q-39.9913 17.0515 -40.7154 16.8318Q-41.4396 16.6121 -42.1521 16.3572Q-42.8646 16.1022 -43.5638 15.8126Q-44.2629 15.523 -44.947 15.1995Q-45.6311 14.8759 -46.2985 14.5192Q-46.9659 14.1625 -47.615 13.7734Q-48.2641 13.3844 -48.8933 12.9639Q-49.5225 12.5435 -50.1304 12.0927Q-50.7382 11.6419 -51.3232 11.1618Q-51.9082 10.6818 -52.4689 10.1735Q-53.0296 9.66535 -53.5647 9.13024Q-54.0998 8.59513 -54.608 8.03442Q-55.1162 7.4737 -55.5963 6.88872Q-56.0764 6.30374 -56.5272 5.69591Q-56.978 5.08808 -57.3984 4.45887Q-57.8188 3.82965 -58.2079 3.18056Q-58.5969 2.53147 -58.9537 1.86407Q-59.3104 1.19668 -59.6339 0.512579Q-59.9575 -0.171518 -60.2471 -0.870667Q-60.5367 -1.56982 -60.7916 -2.28233Q-61.0466 -2.99485 -61.2662 -3.71902Q-61.4859 -4.44318 -61.6698 -5.17726Q-61.8537 -5.91133 -62.0013 -6.65355Q-62.1489 -7.39576 -62.26 -8.14432Q-62.371 -8.89288 -62.4452 -9.64599Q-62.5194 -10.3991 -62.5565 -11.1549Q-62.5936 -11.9108 -62.5936 -12.6675Q-62.5936 -13.4243 -62.5565 -14.1801Q-62.5194 -14.936 -62.4452 -15.6891Q-62.371 -16.4422 -62.26 -17.1908Q-62.1489 -17.9393 -62.0013 -18.6815Q-61.8537 -19.4237 -61.6698 -20.1578Q-61.4859 -20.8919 -61.2662 -21.6161Q-61.0466 -22.3402 -60.7916 -23.0527Q-60.5367 -23.7653 -60.2471 -24.4644Q-59.9575 -25.1636 -59.6339 -25.8477Q-59.3104 -26.5318 -58.9537 -27.1992Q-58.5969 -27.8665 -58.2079 -28.5156Q-57.8188 -29.1647 -57.3984 -29.7939Q-56.978 -30.4232 -56.5272 -31.031Q-56.0764 -31.6388 -55.5963 -32.2238Q-55.1162 -32.8088 -54.608 -33.3695Q-54.0998 -33.9302 -53.5647 -34.4653Q-53.0296 -35.0004 -52.4689 -35.5086Q-51.9082 -36.0168 -51.3232 -36.4969Q-50.7382 -36.977 -50.1304 -37.4278Q-49.5225 -37.8786 -48.8933 -38.299Q-48.2641 -38.7194 -47.615 -39.1085Q-46.9659 -39.4975 -46.2985 -39.8543Q-45.6311 -40.211 -44.947 -40.5346Q-44.2629 -40.8581 -43.5638 -41.1477Q-42.8646 -41.4373 -42.1521 -41.6922Q-41.4396 -41.9472 -40.7154 -42.1669Q-39.9913 -42.3865 -39.2572 -42.5704Q-38.5231 -42.7543 -37.7809 -42.9019Q-37.0387 -43.0496 -36.2901 -43.1606Q-35.5416 -43.2716 -34.7885 -43.3458Q-34.0354 -43.42 -33.2795 -43.4571Q-32.5237 -43.4943 -31.7669 -43.4943Q-31.0102 -43.4943 -30.2543 -43.4571Q-29.4985 -43.42 -28.7454 -43.3458Q-27.9923 -43.2716 -27.2437 -43.1606Q-26.4951 -43.0496 -25.7529 -42.9019Q-25.0107 -42.7543 -24.2766 -42.5704Q-23.5426 -42.3865 -22.8184 -42.1669Q-22.0942 -41.9472 -21.3817 -41.6922Q-20.6692 -41.4373 -19.97 -41.1477Q-19.2709 -40.8581 -18.5868 -40.5346Q-17.9027 -40.211 -17.2353 -39.8543Q-16.5679 -39.4975 -15.9188 -39.1085Q-15.2697 -38.7194 -14.6405 -38.299Q-14.0113 -37.8786 -13.4035 -37.4278Q-12.7956 -36.977 -12.2107 -36.4969Q-11.6257 -36.0168 -11.065 -35.5086Q-10.5042 -35.0004 -9.96914 -34.4653Q-9.43403 -33.9302 -8.92583 -33.3695Q-8.41762 -32.8088 -7.93754 -32.2238Q-7.45746 -31.6388 -7.00667 -31.031Q-6.55587 -30.4232 -6.13544 -29.7939Q-5.71501 -29.1647 -5.32596 -28.5156Q-4.93691 -27.8666 -4.58018 -27.1992Q-4.22345 -26.5318 -3.8999 -25.8477Q-3.57634 -25.1636 -3.28674 -24.4644Q-2.99715 -23.7653 -2.74221 -23.0527Q-2.48726 -22.3402 -2.26759 -21.6161Q-2.04791 -20.8919 -1.86404 -20.1578Q-1.68016 -19.4237 -1.53253 -18.6815Q-1.38489 -17.9393 -1.27385 -17.1908Q-1.16281 -16.4422 -1.08864 -15.6891Q-1.01447 -14.936 -0.977333 -14.1801Q-0.940201 -13.4243 -0.940201 -12.6675Z" fill-rule="evenodd"/>
	<path fill="#999" transform="matrix(0.186563 0.0187188 -0.0187188 0.186563 55 47.8571)" d="M108.533 12.8068Q109.286 6.42553 109.286 0Q109.286 -9.81968 107.535 -19.4821Q107.244 -19.4925 106.953 -19.4925Q106.556 -19.4925 106.159 -19.473Q105.762 -19.4535 105.366 -19.4146Q104.971 -19.3756 104.578 -19.3173Q104.185 -19.259 103.795 -19.1815Q103.405 -19.1039 103.02 -19.0074Q102.634 -18.9108 102.254 -18.7955Q101.874 -18.6801 101.5 -18.5462Q101.125 -18.4123 100.758 -18.2603Q100.391 -18.1082 100.032 -17.9383Q99.6726 -17.7684 99.3221 -17.581Q98.9716 -17.3937 98.6308 -17.1894Q98.2899 -16.9851 97.9595 -16.7643Q97.6291 -16.5435 97.3099 -16.3068Q96.9907 -16.0701 96.6835 -15.818Q96.3763 -15.5659 96.0818 -15.299Q95.7874 -15.0321 95.5064 -14.7511Q95.2254 -14.4701 94.9585 -14.1756Q94.6916 -13.8812 94.4395 -13.574Q94.1874 -13.2668 93.9507 -12.9476Q93.7139 -12.6284 93.4931 -12.298Q93.2724 -11.9676 93.0681 -11.6267Q92.8638 -11.2858 92.6764 -10.9354Q92.4891 -10.5849 92.3192 -10.2256Q92.1493 -9.86639 91.9972 -9.49924Q91.8451 -9.13209 91.7112 -8.75792Q91.5774 -8.38375 91.462 -8.00346Q91.3466 -7.62317 91.2501 -7.23768Q91.1535 -6.85219 91.076 -6.46243Q90.9985 -6.07267 90.9402 -5.67957Q90.8818 -5.28647 90.8429 -4.89098Q90.8039 -4.4955 90.7844 -4.09858Q90.7649 -3.70165 90.7649 -3.30425Q90.7649 -2.90685 90.7844 -2.50993Q90.8039 -2.11301 90.8429 -1.71753Q90.8818 -1.32204 90.9402 -0.928941Q90.9985 -0.535842 91.076 -0.146079Q91.1535 0.243685 91.2501 0.629176Q91.3466 1.01467 91.462 1.39495Q91.5774 1.77524 91.7112 2.14941Q91.8451 2.52358 91.9972 2.89073Q92.1493 3.25788 92.3192 3.61713Q92.4891 3.97637 92.6764 4.32685Q92.8638 4.67732 93.0681 5.01818Q93.2724 5.35904 93.4931 5.68947Q93.7139 6.01989 93.9507 6.33909Q94.1874 6.65828 94.4395 6.96548Q94.6916 7.27267 94.9585 7.56713Q95.2254 7.86158 95.5064 8.14258Q95.7874 8.42359 96.0818 8.69047Q96.3763 8.95734 96.6835 9.20945Q96.9907 9.46156 97.3099 9.69829Q97.6291 9.93502 97.9595 10.1558Q98.2899 10.3766 98.6308 10.5809Q98.9716 10.7852 99.3221 10.9725Q99.6726 11.1599 100.032 11.3298Q100.391 11.4997 100.758 11.6518Q101.125 11.8038 101.5 11.9377Q101.874 12.0716 102.254 12.187Q102.634 12.3023 103.02 12.3989Q103.405 12.4954 103.795 12.573Q104.185 12.6505 104.578 12.7088Q104.971 12.7671 105.366 12.8061Q105.762 12.845 106.159 12.8645Q106.556 12.884 106.953 12.884Q107.745 12.884 108.533 12.8068ZM84.3761 69.4553Q83.7117 68.7847 83.0151 68.1477Q82.3184 67.5107 81.5912 66.9088Q80.864 66.3069 80.1079 65.7417Q79.3518 65.1765 78.5688 64.6492Q77.7857 64.122 76.9776 63.6341Q76.1695 63.1462 75.3383 62.6987Q74.5071 62.2513 73.6548 61.8454Q72.8025 61.4396 71.9312 61.0763Q71.0599 60.713 70.1718 60.3931Q69.2836 60.0733 68.3808 59.7976Q67.4779 59.522 66.5625 59.2913Q65.6472 59.0606 64.7215 58.8753Q63.7959 58.6901 62.8623 58.5507Q61.9286 58.4114 60.9892 58.3183Q60.0498 58.2253 59.107 58.1787Q58.1641 58.1321 57.2202 58.1321Q56.3214 58.1321 55.4236 58.1743Q54.5258 58.2165 53.631 58.3009Q52.7362 58.3853 51.8463 58.5117Q50.9565 58.638 50.0735 58.8061Q49.1906 58.9741 48.3165 59.1835Q47.4425 59.3928 46.5792 59.643Q45.716 59.8932 44.8654 60.1837Q44.0149 60.4742 43.1789 60.8044Q42.343 61.1345 41.5235 61.5036Q40.7039 61.8727 39.9027 62.2799Q39.1014 62.6871 38.3202 63.1315Q37.539 63.5758 36.7795 64.0565Q36.02 64.5371 35.284 65.0529Q34.5479 65.5687 33.8369 66.1185Q33.1259 66.6683 32.4415 67.2509Q31.7572 67.8335 31.1009 68.4477Q30.4799 68.6286 29.8656 68.8309Q29.2512 69.0331 28.6441 69.2565Q28.0371 69.4798 27.4381 69.7239Q26.8391 69.968 26.2489 70.2326Q25.6587 70.4972 25.0779 70.782Q24.4972 71.0668 23.9266 71.3715Q23.356 71.6761 22.7963 72.0003Q22.2365 72.3244 21.6883 72.6677Q21.1401 73.0109 20.604 73.3729Q20.0679 73.7348 19.5447 74.115Q19.0214 74.4952 18.5115 74.8933Q18.0017 75.2913 17.5058 75.7067Q17.01 76.122 16.5288 76.5542Q16.0476 76.9865 15.5815 77.435Q15.1155 77.8836 14.6652 78.3479Q14.2149 78.8122 13.7809 79.2918Q13.3469 79.7714 12.9297 80.2657Q12.5125 80.76 12.1125 81.2683Q11.7126 81.7767 11.3304 82.2985Q10.9483 82.8204 10.5843 83.3551Q10.2204 83.8898 9.87506 84.4368Q9.52976 84.9837 9.20352 85.5422Q8.87728 86.1007 8.57049 86.6702Q8.26369 87.2396 7.97672 87.8193Q7.68974 88.399 7.42291 88.9882Q7.15609 89.5774 6.90974 90.1755Q6.66339 90.7735 6.4378 91.3797Q6.21221 91.9859 6.00766 92.5996Q5.80311 93.2132 5.61983 93.8335Q5.43655 94.4538 5.27477 95.0801Q5.11298 95.7064 4.97289 96.3378Q4.83279 96.9693 4.71455 97.6052Q4.13069 94.7692 3.09075 92.0669Q2.05081 89.3646 0.582802 86.8689Q0.85629 86.7518 1.12533 86.6248Q1.39437 86.4979 1.65861 86.3612Q1.92284 86.2245 2.18192 86.0783Q2.441 85.9321 2.69458 85.7765Q2.94816 85.621 3.1959 85.4563Q3.44364 85.2916 3.68522 85.118Q3.9268 84.9444 4.16189 84.7621Q4.39698 84.5798 4.62527 84.389Q4.85356 84.1983 5.07474 83.9993Q5.29593 83.8004 5.50972 83.5935Q5.72351 83.3867 5.92963 83.1721Q6.13574 82.9576 6.33389 82.7357Q6.53205 82.5138 6.72199 82.2849Q6.91193 82.0559 7.0934 81.8202Q7.27487 81.5845 7.44763 81.3423Q7.62039 81.1001 7.78421 80.8518Q7.94803 80.6034 8.10269 80.3493Q8.25736 80.0952 8.40265 79.8356Q8.54795 79.576 8.6837 79.3113Q8.81944 79.0466 8.94545 78.7771Q9.07145 78.5076 9.18756 78.2337Q9.30366 77.9598 9.4097 77.6818Q9.51575 77.4039 9.6116 77.1223Q9.70744 76.8406 9.79296 76.5557Q9.87848 76.2708 9.95356 75.9829Q10.0286 75.695 10.0932 75.4046Q10.1577 75.1142 10.2116 74.8217Q10.2656 74.5291 10.3088 74.2348Q10.352 73.9404 10.3845 73.6447Q10.4169 73.349 10.4386 73.0523Q10.4602 72.7556 10.4711 72.4583Q10.4819 72.161 10.4819 71.8635Q10.4819 71.4628 10.4623 71.0626Q10.4426 70.6624 10.4033 70.2637Q10.3641 69.8649 10.3053 69.4686Q10.2465 69.0722 10.1683 68.6792Q10.0901 68.2862 9.99277 67.8975Q9.89541 67.5089 9.7791 67.1254Q9.66278 66.742 9.52779 66.3647Q9.39281 65.9874 9.23947 65.6173Q9.08613 65.2471 8.91481 64.8848Q8.7435 64.5226 8.55461 64.1693Q8.36573 63.8159 8.15973 63.4722Q7.95374 63.1285 7.73113 62.7953Q7.50852 62.4622 7.26983 62.1404Q7.03114 61.8185 6.77694 61.5088Q6.52275 61.199 6.25366 60.9021Q5.98457 60.6053 5.70124 60.3219Q5.41791 60.0386 5.12102 59.7695Q4.82413 59.5004 4.51439 59.2462Q4.20465 58.992 3.88282 58.7533Q3.56098 58.5147 3.22782 58.292Q2.89466 58.0694 2.55097 57.8634Q2.20729 57.6574 1.85391 57.4686Q1.50054 57.2797 1.13832 57.1084Q0.776098 56.937 0.405909 56.7837Q0.0357204 56.6304 -0.341547 56.4954Q-0.718814 56.3604 -1.10225 56.2441Q-1.48569 56.1278 -1.87437 56.0304Q-2.26305 55.933 -2.65604 55.8549Q-3.04903 55.7767 -3.44538 55.7179Q-3.84174 55.6591 -4.2405 55.6198Q-4.63926 55.5806 -5.03946 55.5609Q-5.43967 55.5412 -5.84036 55.5412Q-6.21771 55.5412 -6.59465 55.5587Q-6.9716 55.5761 -7.34733 55.611Q-7.72307 55.6458 -8.09679 55.698Q-8.47052 55.7501 -8.84143 55.8195Q-9.21235 55.8889 -9.57966 55.9753Q-9.94697 56.0618 -10.3099 56.1651Q-10.6728 56.2684 -11.0306 56.3884Q-11.3883 56.5084 -11.7402 56.6448Q-12.092 56.7812 -12.4372 56.9337Q-12.7823 57.0862 -13.1201 57.2545Q-13.4578 57.4228 -13.7874 57.6065Q-14.117 57.7903 -14.4378 57.989Q-14.7585 58.1878 -15.0698 58.4012Q-15.381 58.6145 -15.682 58.8421Q-15.9831 59.0696 -16.2733 59.3108Q-16.5635 59.552 -16.8422 59.8063Q-17.121 60.0607 -17.3876 60.3276Q-17.6543 60.5946 -17.9084 60.8736Q-18.1625 61.1526 -18.4034 61.443Q-18.6443 61.7334 -18.8715 62.0347Q-19.0988 62.336 -19.3118 62.6474Q-19.5249 62.9588 -19.7233 63.2798Q-19.9218 63.6008 -20.1052 63.9305Q-20.2886 64.2603 -20.4565 64.5982Q-20.6245 64.9361 -20.7767 65.2814Q-20.9288 65.6267 -21.0649 65.9787Q-21.2009 66.3307 -21.3206 66.6886Q-21.4402 67.0464 -21.5432 67.4095Q-21.6461 67.7725 -21.7322 68.1399Q-21.8183 68.5073 -21.8873 68.8783Q-21.9564 69.2493 -22.0081 69.623Q-22.0599 69.9968 -22.0944 70.3726Q-25.8628 69.535 -29.7232 69.535Q-30.3523 69.535 -30.981 69.5575Q-31.6097 69.58 -32.2372 69.625Q-32.8647 69.67 -33.4902 69.7374Q-34.1157 69.8047 -34.7383 69.8945Q-35.361 69.9842 -35.9801 70.0962Q-36.5991 70.2081 -37.2138 70.3421Q-37.8285 70.4762 -38.4379 70.6321Q-39.0474 70.788 -39.6509 70.9657Q-40.2544 71.1433 -40.8512 71.3424Q-41.448 71.5415 -42.0372 71.7618Q-42.6265 71.9822 -43.2075 72.2234Q-43.7885 72.4647 -44.3605 72.7266Q-44.9325 72.9885 -45.4947 73.2707Q-46.057 73.5529 -46.6088 73.855Q-47.1606 74.1572 -47.7012 74.4788Q-48.2419 74.8005 -48.7707 75.1413Q-49.2995 75.4821 -49.8157 75.8416Q-50.332 76.2011 -50.8351 76.5789Q-51.3381 76.9566 -51.8274 77.3521Q-52.3166 77.7476 -52.7914 78.1604Q-53.2662 78.5731 -53.7259 79.0026Q-54.1856 79.4321 -54.6296 79.8777Q-55.0736 80.3233 -55.5015 80.7846Q-55.9293 81.2458 -56.3403 81.7221Q-56.7514 82.1983 -57.1451 82.689Q-57.5389 83.1796 -57.9148 83.684Q-58.2907 84.1885 -58.6484 84.706Q-59.0061 85.2236 -59.345 85.7536Q-59.6839 86.2836 -60.0036 86.8254Q-60.3233 87.3672 -60.6235 87.9201Q-60.9236 88.4729 -61.2038 89.0362Q-61.484 89.5995 -61.7438 90.1724Q-60.0518 91.331 -58.3174 92.4254Q-56.5831 93.5197 -54.8089 94.5482Q-53.0347 95.5766 -51.2232 96.5378Q-49.4117 97.499 -47.5654 98.3916Q-45.7191 99.2841 -43.8406 100.107Q-41.9621 100.929 -40.0541 101.681Q-38.146 102.433 -36.2112 103.112Q-34.2763 103.792 -32.3173 104.398Q-30.3582 105.005 -28.3779 105.537Q-26.3975 106.07 -24.3985 106.527Q-22.3995 106.985 -20.3848 107.368Q-18.3701 107.75 -16.3424 108.057Q-14.3147 108.364 -12.277 108.594Q-10.2392 108.824 -8.19426 108.978Q-6.1493 109.132 -4.10002 109.209Q-2.05073 109.286 0 109.286Q1.50634 109.286 3.01211 109.244Q4.51788 109.203 6.02194 109.12Q7.52599 109.037 9.02719 108.912Q10.5284 108.788 12.0256 108.622Q13.5228 108.456 15.0148 108.249Q16.5069 108.042 17.9927 107.794Q19.4785 107.546 20.9568 107.258Q22.4352 106.969 23.9051 106.639Q25.375 106.31 26.8352 105.94Q28.2954 105.57 29.7449 105.16Q31.1944 104.75 32.632 104.3Q34.0696 103.85 35.4943 103.361Q36.919 102.872 38.3296 102.344Q39.7403 101.815 41.1358 101.248Q42.5314 100.681 43.9108 100.076Q45.2902 99.4708 46.6524 98.8277Q48.0146 98.1847 49.3585 97.5044Q50.7025 96.824 52.0272 96.1069Q53.3519 95.3898 54.6563 94.6364Q55.9607 93.8831 57.2439 93.0941Q58.5271 92.305 59.788 91.4809Q61.0489 90.6569 62.2867 89.7983Q63.5244 88.9398 64.738 88.0475Q65.9516 87.1552 67.1401 86.2297Q68.3287 85.3043 69.4913 84.3465Q70.6539 83.3886 71.7896 82.3991Q72.9254 81.4096 74.0334 80.3892Q75.1415 79.3687 76.221 78.3181Q77.3005 77.2675 78.3506 76.1876Q79.4007 75.1076 80.4207 73.9992Q81.4407 72.8907 82.4297 71.7545Q83.4187 70.6183 84.3761 69.4553ZM-72.7553 -81.5477Q-67.8974 -85.8819 -62.5593 -89.6086Q-57.2213 -93.3353 -51.4785 -96.4019Q-50.895 -95.5827 -50.4447 -94.6834Q-49.9945 -93.784 -49.6882 -92.826Q-49.3819 -91.868 -49.2269 -90.8742Q-49.0719 -89.8805 -49.0719 -88.8747Q-49.0719 -88.5562 -49.0875 -88.238Q-49.1032 -87.9199 -49.1344 -87.6029Q-49.1656 -87.2859 -49.2124 -86.9709Q-49.2591 -86.6558 -49.3212 -86.3434Q-49.3834 -86.031 -49.4608 -85.722Q-49.5382 -85.413 -49.6306 -85.1082Q-49.7231 -84.8034 -49.8304 -84.5035Q-49.9377 -84.2036 -50.0596 -83.9094Q-50.1815 -83.6151 -50.3177 -83.3271Q-50.4538 -83.0392 -50.604 -82.7583Q-50.7541 -82.4774 -50.9179 -82.2042Q-51.0816 -81.931 -51.2586 -81.6661Q-51.4356 -81.4013 -51.6253 -81.1455Q-51.8151 -80.8896 -52.0171 -80.6434Q-52.2192 -80.3972 -52.4331 -80.1612Q-52.647 -79.9252 -52.8722 -79.6999Q-53.0975 -79.4747 -53.3335 -79.2608Q-53.5695 -79.0469 -53.8157 -78.8448Q-54.0619 -78.6428 -54.3177 -78.453Q-54.5736 -78.2633 -54.8384 -78.0863Q-55.1033 -77.9094 -55.3765 -77.7456Q-55.6497 -77.5819 -55.9306 -77.4317Q-56.2115 -77.2816 -56.4994 -77.1454Q-56.7874 -77.0092 -57.0816 -76.8873Q-57.3759 -76.7654 -57.6758 -76.6581Q-57.9757 -76.5508 -58.2805 -76.4583Q-58.5853 -76.3659 -58.8943 -76.2885Q-59.2033 -76.2111 -59.5157 -76.149Q-59.8281 -76.0868 -60.1431 -76.0401Q-60.4582 -75.9933 -60.7752 -75.9621Q-61.0922 -75.9309 -61.4103 -75.9153Q-61.7285 -75.8996 -62.047 -75.8996Q-62.4407 -75.8996 -62.8337 -75.9235Q-63.2267 -75.9474 -63.6175 -75.9951Q-64.0084 -76.0427 -64.3956 -76.114Q-64.7828 -76.1852 -65.165 -76.2799Q-65.5472 -76.3745 -65.9229 -76.4921Q-66.2987 -76.6097 -66.6666 -76.7499Q-67.0345 -76.8901 -67.3933 -77.0523Q-67.752 -77.2145 -68.1003 -77.3982Q-68.4485 -77.5819 -68.785 -77.7864Q-69.1215 -77.9908 -69.4449 -78.2153Q-69.7684 -78.4398 -70.0776 -78.6835Q-70.3869 -78.9272 -70.6808 -79.1892Q-70.9747 -79.4511 -71.2522 -79.7305Q-71.5296 -80.0098 -71.7897 -80.3054Q-72.0497 -80.6011 -72.2913 -80.9119Q-72.533 -81.2228 -72.7553 -81.5477ZM-100.401 -43.1631Q-98.5488 -47.471 -96.3346 -51.6044Q-94.1204 -55.7378 -91.5603 -59.6664Q-89.0002 -63.5949 -86.113 -67.2897Q-83.2258 -70.9846 -80.0328 -74.4185Q-79.6764 -74.2992 -79.325 -74.1661Q-78.9735 -74.033 -78.6275 -73.8863Q-78.2815 -73.7396 -77.9415 -73.5795Q-77.6015 -73.4195 -77.268 -73.2462Q-76.9344 -73.073 -76.6079 -72.8869Q-76.2814 -72.7009 -75.9624 -72.5022Q-75.6434 -72.3035 -75.3324 -72.0926Q-75.0213 -71.8816 -74.7188 -71.6587Q-74.4162 -71.4358 -74.1226 -71.2012Q-73.8289 -70.9667 -73.5447 -70.7209Q-73.2604 -70.4751 -72.9859 -70.2183Q-72.7114 -69.9616 -72.4472 -69.6944Q-72.1829 -69.4272 -71.9293 -69.1499Q-71.6756 -68.8726 -71.433 -68.5856Q-71.1903 -68.2986 -70.9591 -68.0024Q-70.7278 -67.7062 -70.5083 -67.4011Q-70.2887 -67.0961 -70.0812 -66.7828Q-69.8737 -66.4694 -69.6786 -66.1482Q-69.4835 -65.827 -69.3011 -65.4985Q-69.1186 -65.1699 -68.9491 -64.8345Q-68.7796 -64.4991 -68.6233 -64.1573Q-68.467 -63.8155 -68.3242 -63.4679Q-68.1813 -63.1203 -68.0521 -62.7674Q-67.9229 -62.4145 -67.8076 -62.0568Q-67.6922 -61.6991 -67.5909 -61.3372Q-67.4896 -60.9753 -67.4025 -60.6098Q-67.3154 -60.2442 -67.2426 -59.8755Q-67.1698 -59.5068 -67.1114 -59.1355Q-67.053 -58.7643 -67.0091 -58.391Q-66.9653 -58.0178 -66.936 -57.6431Q-66.9067 -57.2684 -66.8921 -56.8929Q-66.8774 -56.5174 -66.8774 -56.1416Q-66.8774 -55.6684 -66.9006 -55.1958Q-66.9239 -54.7233 -66.9702 -54.2524Q-67.0166 -53.7815 -67.086 -53.3135Q-67.1555 -52.8455 -67.2478 -52.3814Q-67.3401 -51.9173 -67.455 -51.4584Q-67.57 -50.9994 -67.7074 -50.5466Q-67.8447 -50.0939 -68.0041 -49.6484Q-68.1635 -49.2029 -68.3446 -48.7657Q-68.5256 -48.3286 -68.7279 -47.9009Q-68.9302 -47.4732 -69.1533 -47.0559Q-69.3763 -46.6386 -69.6196 -46.2328Q-69.8628 -45.8269 -70.1257 -45.4335Q-70.3885 -45.0401 -70.6704 -44.6601Q-70.9522 -44.2801 -71.2524 -43.9143Q-71.5526 -43.5486 -71.8703 -43.198Q-72.1881 -42.8474 -72.5226 -42.5128Q-72.8572 -42.1783 -73.2078 -41.8605Q-73.5584 -41.5428 -73.9241 -41.2426Q-74.2899 -40.9424 -74.6699 -40.6606Q-75.0499 -40.3787 -75.4433 -40.1159Q-75.8367 -39.853 -76.2426 -39.6097Q-76.6484 -39.3665 -77.0657 -39.1435Q-77.483 -38.9204 -77.9107 -38.7181Q-78.3384 -38.5158 -78.7755 -38.3348Q-79.2127 -38.1537 -79.6582 -37.9943Q-80.1037 -37.8349 -80.5564 -37.6976Q-81.0092 -37.5602 -81.4682 -37.4452Q-81.9271 -37.3303 -82.3912 -37.238Q-82.8553 -37.1457 -83.3233 -37.0762Q-83.7913 -37.0068 -84.2622 -36.9604Q-84.7331 -36.9141 -85.2056 -36.8908Q-85.6782 -36.8676 -86.1514 -36.8676Q-86.6526 -36.8676 -87.1532 -36.8937Q-87.6538 -36.9197 -88.1524 -36.9718Q-88.6509 -37.0238 -89.1461 -37.1017Q-89.6413 -37.1796 -90.1317 -37.2831Q-90.6222 -37.3866 -91.1066 -37.5155Q-91.591 -37.6444 -92.068 -37.7982Q-92.5451 -37.9521 -93.0135 -38.1306Q-93.4819 -38.309 -93.9404 -38.5116Q-94.3989 -38.7142 -94.8463 -38.9403Q-95.2937 -39.1665 -95.7286 -39.4155Q-96.1637 -39.6646 -96.5851 -39.936Q-97.0066 -40.2073 -97.4134 -40.5002Q-97.8201 -40.7931 -98.2112 -41.1067Q-98.6022 -41.4204 -98.9764 -41.7539Q-99.3505 -42.0875 -99.7069 -42.44Q-100.063 -42.7925 -100.401 -43.1631ZM-3.9402 -12.6675Q-3.9402 -11.9844 -3.97372 -11.3021Q-4.00724 -10.6199 -4.07419 -9.94004Q-4.14115 -9.26023 -4.24138 -8.58451Q-4.34162 -7.9088 -4.47488 -7.23882Q-4.60815 -6.56884 -4.77413 -5.9062Q-4.94011 -5.24356 -5.13841 -4.58987Q-5.33671 -3.93618 -5.56684 -3.293Q-5.79697 -2.64983 -6.05838 -2.01872Q-6.3198 -1.38761 -6.61186 -0.770086Q-6.90393 -0.152564 -7.22594 0.449883Q-7.54796 1.05233 -7.89915 1.63825Q-8.25033 2.22417 -8.62985 2.79215Q-9.00936 3.36014 -9.41629 3.90881Q-9.82322 4.45749 -10.2566 4.98554Q-10.6899 5.51359 -11.1487 6.01974Q-11.6074 6.52589 -12.0905 7.00892Q-12.5735 7.49195 -13.0796 7.9507Q-13.5858 8.40944 -14.1138 8.8428Q-14.6419 9.27616 -15.1906 9.68309Q-15.7392 10.09 -16.3072 10.4695Q-16.8752 10.849 -17.4611 11.2002Q-18.047 11.5514 -18.6495 11.8734Q-19.2519 12.1954 -19.8695 12.4875Q-20.487 12.7796 -21.1181 13.041Q-21.7492 13.3024 -22.3924 13.5325Q-23.0356 13.7627 -23.6892 13.961Q-24.3429 14.1593 -25.0056 14.3252Q-25.6682 14.4912 -26.3382 14.6245Q-27.0082 14.7578 -27.6839 14.858Q-28.3596 14.9582 -29.0394 15.0252Q-29.7192 15.0921 -30.4015 15.1257Q-31.0838 15.1592 -31.7669 15.1592Q-32.45 15.1592 -33.1323 15.1257Q-33.8146 15.0921 -34.4944 15.0252Q-35.1742 14.9582 -35.8499 14.858Q-36.5257 14.7578 -37.1956 14.6245Q-37.8656 14.4912 -38.5282 14.3252Q-39.1909 14.1593 -39.8446 13.961Q-40.4983 13.7627 -41.1414 13.5325Q-41.7846 13.3024 -42.4157 13.041Q-43.0468 12.7796 -43.6644 12.4875Q-44.2819 12.1954 -44.8843 11.8734Q-45.4868 11.5514 -46.0727 11.2002Q-46.6586 10.849 -47.2266 10.4695Q-47.7946 10.09 -48.3433 9.68309Q-48.8919 9.27616 -49.42 8.8428Q-49.948 8.40944 -50.4542 7.9507Q-50.9603 7.49195 -51.4434 7.00892Q-51.9264 6.52589 -52.3851 6.01974Q-52.8439 5.51359 -53.2773 4.98554Q-53.7106 4.45749 -54.1175 3.90881Q-54.5245 3.36014 -54.904 2.79215Q-55.2835 2.22417 -55.6347 1.63825Q-55.9859 1.05233 -56.3079 0.449883Q-56.6299 -0.152564 -56.922 -0.770086Q-57.214 -1.38761 -57.4754 -2.01872Q-57.7369 -2.64983 -57.967 -3.293Q-58.1971 -3.93618 -58.3954 -4.58987Q-58.5937 -5.24356 -58.7597 -5.9062Q-58.9257 -6.56883 -59.0589 -7.23882Q-59.1922 -7.9088 -59.2924 -8.58451Q-59.3927 -9.26023 -59.4596 -9.94004Q-59.5266 -10.6199 -59.5601 -11.3021Q-59.5936 -11.9844 -59.5936 -12.6675Q-59.5936 -13.3506 -59.5601 -14.0329Q-59.5266 -14.7152 -59.4596 -15.395Q-59.3927 -16.0749 -59.2924 -16.7506Q-59.1922 -17.4263 -59.0589 -18.0963Q-58.9257 -18.7662 -58.7597 -19.4289Q-58.5937 -20.0915 -58.3954 -20.7452Q-58.1971 -21.3989 -57.967 -22.0421Q-57.7369 -22.6853 -57.4754 -23.3164Q-57.214 -23.9475 -56.922 -24.565Q-56.6299 -25.1825 -56.3079 -25.785Q-55.9859 -26.3874 -55.6347 -26.9733Q-55.2835 -27.5592 -54.904 -28.1272Q-54.5245 -28.6952 -54.1175 -29.2439Q-53.7106 -29.7926 -53.2773 -30.3206Q-52.8439 -30.8487 -52.3851 -31.3548Q-51.9264 -31.861 -51.4434 -32.344Q-50.9603 -32.827 -50.4542 -33.2858Q-49.948 -33.7445 -49.42 -34.1779Q-48.8919 -34.6112 -48.3433 -35.0182Q-47.7946 -35.4251 -47.2266 -35.8046Q-46.6586 -36.1841 -46.0727 -36.5353Q-45.4868 -36.8865 -44.8843 -37.2085Q-44.2819 -37.5305 -43.6644 -37.8226Q-43.0468 -38.1147 -42.4157 -38.3761Q-41.7846 -38.6375 -41.1414 -38.8676Q-40.4983 -39.0977 -39.8446 -39.296Q-39.1909 -39.4943 -38.5283 -39.6603Q-37.8656 -39.8263 -37.1956 -39.9596Q-36.5257 -40.0928 -35.8499 -40.1931Q-35.1742 -40.2933 -34.4944 -40.3603Q-33.8146 -40.4272 -33.1323 -40.4607Q-32.45 -40.4943 -31.7669 -40.4943Q-31.0838 -40.4943 -30.4015 -40.4607Q-29.7192 -40.4272 -29.0394 -40.3603Q-28.3596 -40.2933 -27.6839 -40.1931Q-27.0082 -40.0928 -26.3382 -39.9596Q-25.6682 -39.8263 -25.0056 -39.6603Q-24.3429 -39.4943 -23.6892 -39.296Q-23.0355 -39.0977 -22.3924 -38.8676Q-21.7492 -38.6375 -21.1181 -38.3761Q-20.487 -38.1147 -19.8695 -37.8226Q-19.2519 -37.5305 -18.6495 -37.2085Q-18.047 -36.8865 -17.4611 -36.5353Q-16.8752 -36.1841 -16.3072 -35.8046Q-15.7392 -35.4251 -15.1906 -35.0182Q-14.6419 -34.6112 -14.1138 -34.1779Q-13.5858 -33.7445 -13.0796 -33.2858Q-12.5735 -32.827 -12.0905 -32.344Q-11.6074 -31.861 -11.1487 -31.3548Q-10.6899 -30.8487 -10.2566 -30.3206Q-9.82322 -29.7926 -9.41629 -29.2439Q-9.00936 -28.6952 -8.62985 -28.1272Q-8.25033 -27.5592 -7.89915 -26.9733Q-7.54796 -26.3874 -7.22594 -25.785Q-6.90393 -25.1825 -6.61186 -24.565Q-6.3198 -23.9475 -6.05838 -23.3164Q-5.79697 -22.6853 -5.56684 -22.0421Q-5.33671 -21.3989 -5.13841 -20.7452Q-4.94011 -20.0915 -4.77413 -19.4289Q-4.60815 -18.7662 -4.47488 -18.0963Q-4.34162 -17.4263 -4.24138 -16.7506Q-4.14115 -16.0749 -4.07419 -15.395Q-4.00724 -14.7152 -3.97372 -14.0329Q-3.9402 -13.3506 -3.9402 -12.6675Z" fill-rule="evenodd"/>
	<path fill="none" stroke="black" stroke-width="2.3999999" stroke-linejoin="round" transform="translate(55 79.2857)" d="M-21.7216 -6.4323Q-21.3603 -5.76824 -20.8916 -4.79656Q-20.4179 -3.82977 -19.9101 -2.69695Q-19.4023 -1.56902 -18.9043 -0.387383Q-18.4013 0.789375 -17.9619 1.82941Q-17.5175 0.789375 -17.0195 -0.387383Q-16.5215 -1.56902 -16.0136 -2.69695Q-15.5009 -3.82977 -15.0322 -4.79656Q-14.5586 -5.76824 -14.2021 -6.4323L-11.3603 -6.4323Q-11.1601 -5.05047 -10.9892 -3.3366Q-10.8183 -1.62762 -10.6914 0.222969Q-10.5595 2.06867 -10.4521 3.92902Q-10.3398 5.78937 -10.2617 7.43L-13.2988 7.43Q-13.3623 5.40852 -13.4599 3.03059Q-13.5576 0.647773 -13.7578 -1.76922Q-14.1191 -0.929375 -14.5586 0.0911326Q-14.998 1.11164 -15.4326 2.13215Q-15.8623 3.14777 -16.2627 4.08039Q-16.6582 5.00812 -16.9414 5.67219L-19.1191 5.67219Q-19.4023 5.00812 -19.8027 4.08039Q-20.1982 3.14777 -20.6279 2.13215Q-21.0576 1.11164 -21.5019 0.0911326Q-21.9414 -0.929375 -22.2978 -1.76922Q-22.498 0.647773 -22.6006 3.03059Q-22.6982 5.40852 -22.7617 7.43L-25.7988 7.43Q-25.7207 5.78937 -25.6133 3.92902Q-25.5009 2.06867 -25.374 0.222969Q-25.2422 -1.62762 -25.0713 -3.3366Q-24.9004 -5.05047 -24.7002 -6.4323L-21.7216 -6.4323ZM2.18025 2.15168Q2.18025 3.39191 1.81892 4.42219Q1.4576 5.44758 0.778885 6.18Q0.100174 6.91242 -0.851974 7.31281Q-1.79924 7.70832 -2.98088 7.70832Q-4.13811 7.70832 -5.09026 7.31281Q-6.0424 6.91242 -6.72112 6.18Q-7.39983 5.44758 -7.78069 4.42219Q-8.16154 3.39191 -8.16154 2.15168Q-8.16154 0.911445 -7.77092 -0.109063Q-7.38029 -1.12957 -6.69182 -1.84734Q-5.99846 -2.57 -5.05119 -2.97039Q-4.09904 -3.37078 -2.98088 -3.37078Q-1.8383 -3.37078 -0.891037 -2.97039Q0.0611115 -2.57 0.739822 -1.84734Q1.41853 -1.12957 1.79939 -0.109063Q2.18025 0.911445 2.18025 2.15168ZM-0.86174 2.15168Q-0.86174 0.769844 -1.4135 -0.021172Q-1.96037 -0.812188 -2.98088 -0.812188Q-4.00139 -0.812188 -4.56291 -0.021172Q-5.11955 0.769844 -5.11955 2.15168Q-5.11955 3.52863 -4.56291 4.33918Q-4.00139 5.14973 -2.98088 5.14973Q-1.96037 5.14973 -1.4135 4.33918Q-0.86174 3.52863 -0.86174 2.15168ZM14.3202 2.15168Q14.3202 3.39191 13.9589 4.42219Q13.5976 5.44758 12.9189 6.18Q12.2402 6.91242 11.288 7.31281Q10.3407 7.70832 9.1591 7.70832Q8.00188 7.70832 7.04973 7.31281Q6.09758 6.91242 5.41887 6.18Q4.74016 5.44758 4.3593 4.42219Q3.97844 3.39191 3.97844 2.15168Q3.97844 0.911445 4.36906 -0.109063Q4.75969 -1.12957 5.44817 -1.84734Q6.14153 -2.57 7.08879 -2.97039Q8.04094 -3.37078 9.1591 -3.37078Q10.3017 -3.37078 11.2489 -2.97039Q12.2011 -2.57 12.8798 -1.84734Q13.5585 -1.12957 13.9394 -0.109063Q14.3202 0.911445 14.3202 2.15168ZM11.2782 2.15168Q11.2782 0.769844 10.7265 -0.021172Q10.1796 -0.812188 9.1591 -0.812188Q8.1386 -0.812188 7.57707 -0.021172Q7.02043 0.769844 7.02043 2.15168Q7.02043 3.52863 7.57707 4.33918Q8.1386 5.14973 9.1591 5.14973Q10.1796 5.14973 10.7265 4.33918Q11.2782 3.52863 11.2782 2.15168ZM16.6214 -2.73113Q17.3782 -2.95086 18.5794 -3.14129Q19.7805 -3.33172 21.0989 -3.33172Q22.4417 -3.33172 23.3303 -2.98016Q24.219 -2.62859 24.7366 -1.98895Q25.259 -1.3493 25.4788 -0.470391Q25.6985 0.408515 25.6985 1.48762L25.6985 7.43L22.72 7.43L22.72 1.84895Q22.72 0.408515 22.3391 -0.187188Q21.9583 -0.787774 20.9182 -0.787774Q20.6008 -0.787774 20.2395 -0.758477Q19.8782 -0.72918 19.5999 -0.690117L19.5999 7.43L16.6214 7.43L16.6214 -2.73113Z"/>
	<path fill="white" transform="translate(55 79.2857)" d="M-21.7216 -6.4323Q-21.3603 -5.76824 -20.8916 -4.79656Q-20.4179 -3.82977 -19.9101 -2.69695Q-19.4023 -1.56902 -18.9043 -0.387383Q-18.4013 0.789375 -17.9619 1.82941Q-17.5175 0.789375 -17.0195 -0.387383Q-16.5215 -1.56902 -16.0136 -2.69695Q-15.5009 -3.82977 -15.0322 -4.79656Q-14.5586 -5.76824 -14.2021 -6.4323L-11.3603 -6.4323Q-11.1601 -5.05047 -10.9892 -3.3366Q-10.8183 -1.62762 -10.6914 0.222969Q-10.5595 2.06867 -10.4521 3.92902Q-10.3398 5.78937 -10.2617 7.43L-13.2988 7.43Q-13.3623 5.40852 -13.4599 3.03059Q-13.5576 0.647773 -13.7578 -1.76922Q-14.1191 -0.929375 -14.5586 0.0911326Q-14.998 1.11164 -15.4326 2.13215Q-15.8623 3.14777 -16.2627 4.08039Q-16.6582 5.00812 -16.9414 5.67219L-19.1191 5.67219Q-19.4023 5.00812 -19.8027 4.08039Q-20.1982 3.14777 -20.6279 2.13215Q-21.0576 1.11164 -21.5019 0.0911326Q-21.9414 -0.929375 -22.2978 -1.76922Q-22.498 0.647773 -22.6006 3.03059Q-22.6982 5.40852 -22.7617 7.43L-25.7988 7.43Q-25.7207 5.78937 -25.6133 3.92902Q-25.5009 2.06867 -25.374 0.222969Q-25.2422 -1.62762 -25.0713 -3.3366Q-24.9004 -5.05047 -24.7002 -6.4323L-21.7216 -6.4323ZM2.18025 2.15168Q2.18025 3.39191 1.81892 4.42219Q1.4576 5.44758 0.778885 6.18Q0.100174 6.91242 -0.851974 7.31281Q-1.79924 7.70832 -2.98088 7.70832Q-4.13811 7.70832 -5.09026 7.31281Q-6.0424 6.91242 -6.72112 6.18Q-7.39983 5.44758 -7.78069 4.42219Q-8.16154 3.39191 -8.16154 2.15168Q-8.16154 0.911445 -7.77092 -0.109063Q-7.38029 -1.12957 -6.69182 -1.84734Q-5.99846 -2.57 -5.05119 -2.97039Q-4.09904 -3.37078 -2.98088 -3.37078Q-1.8383 -3.37078 -0.891037 -2.97039Q0.0611115 -2.57 0.739822 -1.84734Q1.41853 -1.12957 1.79939 -0.109063Q2.18025 0.911445 2.18025 2.15168ZM-0.86174 2.15168Q-0.86174 0.769844 -1.4135 -0.021172Q-1.96037 -0.812188 -2.98088 -0.812188Q-4.00139 -0.812188 -4.56291 -0.021172Q-5.11955 0.769844 -5.11955 2.15168Q-5.11955 3.52863 -4.56291 4.33918Q-4.00139 5.14973 -2.98088 5.14973Q-1.96037 5.14973 -1.4135 4.33918Q-0.86174 3.52863 -0.86174 2.15168ZM14.3202 2.15168Q14.3202 3.39191 13.9589 4.42219Q13.5976 5.44758 12.9189 6.18Q12.2402 6.91242 11.288 7.31281Q10.3407 7.70832 9.1591 7.70832Q8.00188 7.70832 7.04973 7.31281Q6.09758 6.91242 5.41887 6.18Q4.74016 5.44758 4.3593 4.42219Q3.97844 3.39191 3.97844 2.15168Q3.97844 0.911445 4.36906 -0.109063Q4.75969 -1.12957 5.44817 -1.84734Q6.14153 -2.57 7.08879 -2.97039Q8.04094 -3.37078 9.1591 -3.37078Q10.3017 -3.37078 11.2489 -2.97039Q12.2011 -2.57 12.8798 -1.84734Q13.5585 -1.12957 13.9394 -0.109063Q14.3202 0.911445 14.3202 2.15168ZM11.2782 2.15168Q11.2782 0.769844 10.7265 -0.021172Q10.1796 -0.812188 9.1591 -0.812188Q8.1386 -0.812188 7.57707 -0.021172Q7.02043 0.769844 7.02043 2.15168Q7.02043 3.52863 7.57707 4.33918Q8.1386 5.14973 9.1591 5.14973Q10.1796 5.14973 10.7265 4.33918Q11.2782 3.52863 11.2782 2.15168ZM16.6214 -2.73113Q17.3782 -2.95086 18.5794 -3.14129Q19.7805 -3.33172 21.0989 -3.33172Q22.4417 -3.33172 23.3303 -2.98016Q24.219 -2.62859 24.7366 -1.98895Q25.259 -1.3493 25.4788 -0.470391Q25.6985 0.408515 25.6985 1.48762L25.6985 7.43L22.72 7.43L22.72 1.84895Q22.72 0.408515 22.3391 -0.187188Q21.9583 -0.787774 20.9182 -0.787774Q20.6008 -0.787774 20.2395 -0.758477Q19.8782 -0.72918 19.5999 -0.690117L19.5999 7.43L16.6214 7.43L16.6214 -2.73113Z"/>
</svg>
