<?xml version="1.0" encoding="utf-8" ?>
<svg xmlns="http://www.w3.org/2000/svg" xmlns:xlink="http://www.w3.org/1999/xlink" width="110" height="110">
	<path fill="#6D6D6D" transform="matrix(0.149251 0.014975 -0.014975 0.149251 55 47.8571)" d="M142.857 0Q142.857 3.50695 142.685 7.00967Q142.513 10.5124 142.169 14.0024Q141.826 17.4925 141.311 20.9615Q140.796 24.4305 140.112 27.87Q139.428 31.3096 138.576 34.7115Q137.724 38.1133 136.706 41.4692Q135.688 44.8252 134.506 48.1271Q133.325 51.4291 131.983 54.6691Q130.641 57.909 129.141 61.0793Q127.642 64.2495 125.989 67.3424Q124.336 70.4352 122.533 73.4432Q120.73 76.4512 118.781 79.3672Q116.833 82.2831 114.744 85.0999Q112.655 87.9167 110.43 90.6276Q108.205 93.3385 105.85 95.937Q103.495 98.5355 101.015 101.015Q98.5355 103.495 95.937 105.85Q93.3385 108.205 90.6276 110.43Q87.9167 112.655 85.0999 114.744Q82.2831 116.833 79.3672 118.781Q76.4512 120.73 73.4432 122.533Q70.4352 124.336 67.3424 125.989Q64.2495 127.642 61.0793 129.141Q57.909 130.641 54.6691 131.983Q51.4291 133.325 48.1271 134.506Q44.8252 135.688 41.4692 136.706Q38.1133 137.724 34.7115 138.576Q31.3096 139.428 27.87 140.112Q24.4305 140.796 20.9615 141.311Q17.4925 141.826 14.0024 142.169Q10.5124 142.513 7.00967 142.685Q3.50695 142.857 0 142.857Q-3.50695 142.857 -7.00967 142.685Q-10.5124 142.513 -14.0024 142.169Q-17.4925 141.826 -20.9615 141.311Q-24.4305 140.796 -27.87 140.112Q-31.3096 139.428 -34.7115 138.576Q-38.1133 137.724 -41.4692 136.706Q-44.8252 135.688 -48.1271 134.506Q-51.4291 133.325 -54.6691 131.983Q-57.909 130.641 -61.0793 129.141Q-64.2495 127.642 -67.3424 125.989Q-70.4352 124.336 -73.4432 122.533Q-76.4512 120.73 -79.3672 118.781Q-82.2831 116.833 -85.0999 114.744Q-87.9167 112.655 -90.6276 110.43Q-93.3385 108.205 -95.937 105.85Q-98.5355 103.495 -101.015 101.015Q-103.495 98.5355 -105.85 95.937Q-108.205 93.3385 -110.43 90.6276Q-112.655 87.9167 -114.744 85.0999Q-116.833 82.2831 -118.781 79.3672Q-120.73 76.4512 -122.533 73.4432Q-124.336 70.4352 -125.989 67.3424Q-127.642 64.2495 -129.141 61.0793Q-130.641 57.909 -131.983 54.6691Q-133.325 51.4291 -134.506 48.1271Q-135.688 44.8252 -136.706 41.4692Q-137.724 38.1133 -138.576 34.7115Q-139.428 31.3096 -140.112 27.87Q-140.796 24.4305 -141.311 20.9615Q-141.826 17.4925 -142.169 14.0024Q-142.513 10.5124 -142.685 7.00967Q-142.857 3.50695 -142.857 0Q-142.857 -3.50695 -142.685 -7.00967Q-142.513 -10.5124 -142.169 -14.0024Q-141.826 -17.4925 -141.311 -20.9615Q-140.796 -24.4305 -140.112 -27.87Q-139.428 -31.3096 -138.576 -34.7115Q-137.724 -38.1133 -136.706 -41.4692Q-135.688 -44.8252 -134.506 -48.1271Q-133.325 -51.4291 -131.983 -54.6691Q-130.641 -57.909 -129.141 -61.0793Q-127.642 -64.2495 -125.989 -67.3424Q-124.336 -70.4352 -122.533 -73.4432Q-120.73 -76.4512 -118.781 -79.3672Q-116.833 -82.2831 -114.744 -85.0999Q-112.655 -87.9167 -110.43 -90.6276Q-108.205 -93.3385 -105.85 -95.937Q-103.495 -98.5355 -101.015 -101.015Q-98.5355 -103.495 -95.937 -105.85Q-93.3385 -108.205 -90.6276 -110.43Q-87.9167 -112.655 -85.0999 -114.744Q-82.2831 -116.833 -79.3672 -118.781Q-76.4512 -120.73 -73.4432 -122.533Q-70.4352 -124.336 -67.3424 -125.989Q-64.2495 -127.642 -61.0793 -129.141Q-57.909 -130.641 -54.6691 -131.983Q-51.4291 -133.325 -48.1271 -134.506Q-44.8252 -135.688 -41.4692 -136.706Q-38.1133 -137.724 -34.7115 -138.576Q-31.3096 -139.428 -27.87 -140.112Q-24.4305 -140.796 -20.9615 -141.311Q-17.4925 -141.826 -14.0024 -142.169Q-10.5124 -142.513 -7.00967 -142.685Q-3.50695 -142.857 0 -142.857Q3.50695 -142.857 7.00967 -142.685Q10.5124 -142.513 14.0024 -142.169Q17.4925 -141.826 20.9615 -141.311Q24.4305 -140.796 27.87 -140.112Q31.3096 -139.428 34.7115 -138.576Q38.1133 -137.724 41.4692 -136.706Q44.8252 -135.688 48.1271 -134.506Q51.4291 -133.325 54.6691 -131.983Q57.909 -130.641 61.0793 -129.141Q64.2495 -127.642 67.3424 -125.989Q70.4352 -124.336 73.4432 -122.533Q76.4512 -120.73 79.3672 -118.781Q82.2831 -116.833 85.0999 -114.744Q87.9167 -112.655 90.6276 -110.43Q93.3385 -108.205 95.937 -105.85Q98.5355 -103.495 101.015 -101.015Q103.495 -98.5355 105.85 -95.937Q108.205 -93.3385 110.43 -90.6276Q112.655 -87.9167 114.744 -85.0999Q116.833 -82.2831 118.781 -79.3672Q120.73 -76.4512 122.533 -73.4432Q124.336 -70.4352 125.989 -67.3424Q127.642 -64.2495 129.141 -61.0793Q130.641 -57.909 131.983 -54.6691Q133.325 -51.4291 134.506 -48.1271Q135.688 -44.8252 136.706 -41.4692Q137.724 -38.1133 138.576 -34.7115Q139.428 -31.3096 140.112 -27.87Q140.796 -24.4305 141.311 -20.9615Q141.826 -17.4925 142.169 -14.0024Q142.513 -10.5124 142.685 -7.00967Q142.857 -3.50695 142.857 0"/>
	<path fill="#878787" transform="matrix(0.149251 0.014975 -0.014975 0.149251 55 47.8571)" d="M137.857 0Q137.857 3.3842 137.691 6.76433Q137.525 10.1445 137.193 13.5124Q136.862 16.8803 136.365 20.2278Q135.868 23.5754 135.208 26.8946Q134.548 30.2138 133.726 33.4966Q132.903 36.7793 131.921 40.0178Q130.939 43.2563 129.799 46.4427Q128.658 49.629 127.363 52.7556Q126.068 55.8822 124.621 58.9415Q123.174 62.0008 121.579 64.9854Q119.984 67.97 118.244 70.8727Q116.504 73.7755 114.624 76.5893Q112.744 79.4032 110.728 82.1214Q108.712 84.8396 106.565 87.4556Q104.418 90.0717 102.145 92.5792Q99.8727 95.0867 97.4797 97.4797Q95.0867 99.8727 92.5792 102.145Q90.0717 104.418 87.4556 106.565Q84.8396 108.712 82.1214 110.728Q79.4032 112.744 76.5893 114.624Q73.7755 116.504 70.8727 118.244Q67.97 119.984 64.9854 121.579Q62.0008 123.174 58.9415 124.621Q55.8822 126.068 52.7556 127.363Q49.629 128.658 46.4427 129.799Q43.2563 130.939 40.0178 131.921Q36.7793 132.903 33.4966 133.726Q30.2138 134.548 26.8946 135.208Q23.5754 135.868 20.2278 136.365Q16.8803 136.862 13.5124 137.193Q10.1445 137.525 6.76433 137.691Q3.3842 137.857 0 137.857Q-3.3842 137.857 -6.76433 137.691Q-10.1445 137.525 -13.5124 137.193Q-16.8803 136.862 -20.2278 136.365Q-23.5754 135.868 -26.8946 135.208Q-30.2138 134.548 -33.4966 133.726Q-36.7793 132.903 -40.0178 131.921Q-43.2563 130.939 -46.4427 129.799Q-49.629 128.658 -52.7556 127.363Q-55.8822 126.068 -58.9415 124.621Q-62.0008 123.174 -64.9854 121.579Q-67.97 119.984 -70.8727 118.244Q-73.7755 116.504 -76.5893 114.624Q-79.4032 112.744 -82.1214 110.728Q-84.8396 108.712 -87.4556 106.565Q-90.0717 104.418 -92.5792 102.145Q-95.0867 99.8727 -97.4797 97.4797Q-99.8727 95.0867 -102.145 92.5792Q-104.418 90.0717 -106.565 87.4556Q-108.712 84.8396 -110.728 82.1214Q-112.744 79.4032 -114.624 76.5893Q-116.504 73.7755 -118.244 70.8727Q-119.984 67.97 -121.579 64.9854Q-123.174 62.0008 -124.621 58.9415Q-126.068 55.8822 -127.363 52.7556Q-128.658 49.629 -129.799 46.4427Q-130.939 43.2563 -131.921 40.0178Q-132.903 36.7793 -133.726 33.4966Q-134.548 30.2138 -135.208 26.8946Q-135.868 23.5754 -136.365 20.2278Q-136.862 16.8803 -137.193 13.5124Q-137.525 10.1445 -137.691 6.76433Q-137.857 3.3842 -137.857 0Q-137.857 -3.3842 -137.691 -6.76433Q-137.525 -10.1445 -137.193 -13.5124Q-136.862 -16.8803 -136.365 -20.2278Q-135.868 -23.5754 -135.208 -26.8946Q-134.548 -30.2138 -133.726 -33.4966Q-132.903 -36.7793 -131.921 -40.0178Q-130.939 -43.2563 -129.799 -46.4427Q-128.658 -49.629 -127.363 -52.7556Q-126.068 -55.8822 -124.621 -58.9415Q-123.174 -62.0008 -121.579 -64.9854Q-119.984 -67.97 -118.244 -70.8727Q-116.504 -73.7755 -114.624 -76.5893Q-112.744 -79.4032 -110.728 -82.1214Q-108.712 -84.8396 -106.565 -87.4556Q-104.418 -90.0717 -102.145 -92.5792Q-99.8727 -95.0867 -97.4797 -97.4797Q-95.0867 -99.8727 -92.5792 -102.145Q-90.0717 -104.418 -87.4556 -106.565Q-84.8396 -108.712 -82.1214 -110.728Q-79.4032 -112.744 -76.5893 -114.624Q-73.7755 -116.504 -70.8727 -118.244Q-67.97 -119.984 -64.9854 -121.579Q-62.0008 -123.174 -58.9415 -124.621Q-55.8822 -126.068 -52.7556 -127.363Q-49.629 -128.658 -46.4427 -129.799Q-43.2563 -130.939 -40.0178 -131.921Q-36.7793 -132.903 -33.4966 -133.726Q-30.2138 -134.548 -26.8946 -135.208Q-23.5754 -135.868 -20.2278 -136.365Q-16.8803 -136.862 -13.5124 -137.193Q-10.1445 -137.525 -6.76433 -137.691Q-3.3842 -137.857 0 -137.857Q3.3842 -137.857 6.76433 -137.691Q10.1445 -137.525 13.5124 -137.193Q16.8803 -136.862 20.2278 -136.365Q23.5754 -135.868 26.8946 -135.208Q30.2138 -134.548 33.4966 -133.726Q36.7793 -132.903 40.0178 -131.921Q43.2563 -130.939 46.4427 -129.799Q49.629 -128.658 52.7556 -127.363Q55.8822 -126.068 58.9415 -124.621Q62.0008 -123.174 64.9854 -121.579Q67.97 -119.984 70.8727 -118.244Q73.7755 -116.504 76.5893 -114.624Q79.4032 -112.744 82.1214 -110.728Q84.8396 -108.712 87.4556 -106.565Q90.0717 -104.418 92.5792 -102.145Q95.0867 -99.8727 97.4797 -97.4797Q99.8727 -95.0867 102.145 -92.5792Q104.418 -90.0717 106.565 -87.4556Q108.712 -84.8396 110.728 -82.1214Q112.744 -79.4032 114.624 -76.5893Q116.504 -73.7755 118.244 -70.8727Q119.984 -67.97 121.579 -64.9854Q123.174 -62.0008 124.621 -58.9415Q126.068 -55.8822 127.363 -52.7556Q128.658 -49.629 129.799 -46.4427Q130.939 -43.2563 131.921 -40.0178Q132.903 -36.7793 133.726 -33.4966Q134.548 -30.2138 135.208 -26.8946Q135.868 -23.5754 136.365 -20.2278Q136.862 -16.8803 137.193 -13.5124Q137.525 -10.1445 137.691 -6.76433Q137.857 -3.3842 137.857 0"/>
	<path fill="#7C7C7C" transform="matrix(0.149251 0.014975 -0.014975 0.149251 55 47.8571)" d="M136.551 18.9283Q137.857 9.5092 137.857 0Q137.857 -6.88162 137.172 -13.729Q136.486 -20.5764 135.123 -27.3216Q134.408 -27.3657 133.692 -27.3657Q133.121 -27.3657 132.551 -27.3377Q131.982 -27.3097 131.414 -27.2538Q130.846 -27.1979 130.282 -27.1142Q129.718 -27.0305 129.159 -26.9192Q128.599 -26.8079 128.046 -26.6693Q127.493 -26.5307 126.947 -26.3652Q126.401 -26.1996 125.864 -26.0074Q125.327 -25.8153 124.8 -25.597Q124.273 -25.3787 123.757 -25.1348Q123.242 -24.8909 122.738 -24.6221Q122.235 -24.3532 121.746 -24.0599Q121.257 -23.7667 120.783 -23.4498Q120.308 -23.1329 119.85 -22.7931Q119.392 -22.4533 118.951 -22.0915Q118.51 -21.7296 118.088 -21.3466Q117.665 -20.9635 117.262 -20.5602Q116.858 -20.1569 116.475 -19.7342Q116.092 -19.3116 115.73 -18.8707Q115.369 -18.4297 115.029 -17.9716Q114.689 -17.5135 114.372 -17.0392Q114.055 -16.5649 113.762 -16.0757Q113.469 -15.5864 113.2 -15.0834Q112.931 -14.5803 112.687 -14.0647Q112.443 -13.5491 112.225 -13.0221Q112.007 -12.4951 111.814 -11.9581Q111.622 -11.421 111.457 -10.8752Q111.291 -10.3293 111.153 -9.77605Q111.014 -9.22275 110.903 -8.66331Q110.791 -8.10387 110.708 -7.53965Q110.624 -6.97543 110.568 -6.40778Q110.512 -5.84013 110.484 -5.27042Q110.456 -4.70072 110.456 -4.13032Q110.456 -3.55992 110.484 -2.99022Q110.512 -2.42051 110.568 -1.85286Q110.624 -1.28521 110.708 -0.720986Q110.791 -0.156764 110.903 0.402671Q111.014 0.962107 111.153 1.51541Q111.291 2.06871 111.457 2.61455Q111.622 3.16038 111.814 3.69743Q112.007 4.23448 112.225 4.76146Q112.443 5.28844 112.687 5.80407Q112.931 6.3197 113.2 6.82275Q113.469 7.32579 113.762 7.81503Q114.055 8.30428 114.372 8.77855Q114.689 9.25281 115.029 9.71096Q115.369 10.1691 115.73 10.61Q116.092 11.0509 116.475 11.4736Q116.858 11.8962 117.262 12.2996Q117.665 12.7029 118.088 13.0859Q118.51 13.469 118.951 13.8308Q119.392 14.1927 119.85 14.5325Q120.308 14.8723 120.783 15.1892Q121.257 15.5061 121.746 15.7993Q122.235 16.0925 122.738 16.3614Q123.242 16.6303 123.757 16.8742Q124.273 17.1181 124.8 17.3363Q125.327 17.5546 125.864 17.7468Q126.401 17.9389 126.947 18.1045Q127.493 18.2701 128.046 18.4087Q128.599 18.5473 129.159 18.6586Q129.718 18.7698 130.282 18.8535Q130.846 18.9372 131.414 18.9931Q131.982 19.049 132.551 19.077Q133.121 19.105 133.692 19.105Q135.127 19.105 136.551 18.9283ZM108.244 85.3686Q107.358 84.4409 106.426 83.5592Q105.494 82.6775 104.519 81.844Q103.544 81.0105 102.528 80.2272Q101.512 79.444 100.457 78.7131Q99.403 77.9822 98.3131 77.3054Q97.2232 76.6286 96.1006 76.0078Q94.9779 75.3869 93.8253 74.8236Q92.6728 74.2602 91.4932 73.7557Q90.3136 73.2513 89.1101 72.807Q87.9066 72.3627 86.6822 71.9798Q85.4577 71.5969 84.2155 71.2763Q82.9733 70.9557 81.7165 70.6982Q80.4597 70.4408 79.1915 70.2471Q77.9233 70.0534 76.647 69.924Q75.3706 69.7946 74.0894 69.7299Q72.8081 69.6651 71.5252 69.6651Q70.3535 69.6651 69.1831 69.7191Q68.0127 69.7731 66.846 69.8811Q65.6793 69.9891 64.5189 70.1507Q63.3584 70.3124 62.2066 70.5274Q61.0549 70.7424 59.9142 71.0103Q58.7736 71.2782 57.6465 71.5984Q56.5195 71.9186 55.4084 72.2905Q54.2973 72.6624 53.2046 73.0851Q52.1118 73.5078 51.0397 73.9804Q49.9676 74.4531 48.9184 74.9747Q47.8693 75.4963 46.8453 76.0658Q45.8213 76.6352 44.8247 77.2513Q43.828 77.8673 42.8609 78.5287Q41.8937 79.19 40.9581 79.8953Q40.0225 80.6006 39.1204 81.3483Q38.2183 82.0959 37.3516 82.8844Q35.741 83.3789 34.1675 83.9809Q32.5939 84.5829 31.0645 85.2897Q29.5352 85.9965 28.0569 86.8048Q26.5787 87.6132 25.1584 88.5194Q23.7381 89.4256 22.3822 90.4256Q21.0263 91.4256 19.7409 92.5147Q18.4555 93.6039 17.2465 94.7773Q16.0375 95.9507 14.9105 97.203Q15.5026 95.4194 15.8025 93.5641Q16.1024 91.7088 16.1024 89.8294Q16.1024 89.2549 16.0742 88.6811Q16.046 88.1073 15.9897 87.5355Q15.9334 86.9638 15.8491 86.3955Q15.7648 85.8272 15.6527 85.2637Q15.5407 84.7003 15.4011 84.143Q15.2615 83.5857 15.0947 83.0359Q14.9279 82.4862 14.7344 81.9452Q14.5408 81.4043 14.321 80.8735Q14.1011 80.3428 13.8555 79.8234Q13.6099 79.3041 13.339 78.7974Q13.0682 78.2907 12.7729 77.7979Q12.4775 77.3052 12.1583 76.8275Q11.8391 76.3498 11.4969 75.8884Q11.1547 75.4269 10.7902 74.9828Q10.4257 74.5387 10.0399 74.113Q9.65411 73.6873 9.24787 73.2811Q8.84164 72.8749 8.41595 72.489Q7.99027 72.1032 7.54617 71.7388Q7.10207 71.3743 6.64062 71.0321Q6.17917 70.6898 5.70148 70.3707Q5.2238 70.0515 4.73103 69.7561Q4.23826 69.4608 3.73158 69.1899Q3.22491 68.9191 2.70556 68.6735Q2.18622 68.4278 1.65544 68.208Q1.12466 67.9881 0.583738 67.7946Q0.0428135 67.601 -0.506956 67.4343Q-1.05673 67.2675 -1.61402 67.1279Q-2.17131 66.9883 -2.73478 66.8762Q-3.29825 66.7642 -3.86654 66.6799Q-4.43483 66.5956 -5.00657 66.5393Q-5.57831 66.4829 -6.15213 66.4548Q-6.72594 66.4266 -7.30045 66.4266Q-7.79018 66.4266 -8.27949 66.4471Q-8.76879 66.4675 -9.25681 66.5085Q-9.74483 66.5494 -10.2307 66.6107Q-10.7166 66.6721 -11.1995 66.7536Q-11.6824 66.8353 -12.1614 66.937Q-12.6405 67.0387 -13.1148 67.1604Q-13.5892 67.282 -14.0581 67.4234Q-14.527 67.5649 -14.9895 67.7258Q-15.4521 67.8867 -15.9075 68.0668Q-16.3629 68.2469 -16.8104 68.4459Q-17.2578 68.6449 -17.6966 68.8625Q-18.1354 69.08 -18.5646 69.3157Q-18.9939 69.5514 -19.4129 69.8049Q-19.832 70.0584 -20.24 70.3291Q-20.6481 70.5999 -21.0445 70.8875Q-21.4409 71.1751 -21.8249 71.4791Q-22.2089 71.783 -22.5798 72.1028Q-22.9508 72.4225 -23.308 72.7575Q-23.6653 73.0925 -24.0082 73.4421Q-24.3511 73.7917 -24.6791 74.1554Q-25.0071 74.5191 -25.3196 74.8961Q-25.6321 75.2732 -25.9286 75.663Q-26.225 76.0528 -26.5049 76.4547Q-26.7848 76.8566 -27.0476 77.2698Q-27.3104 77.6831 -27.5557 78.1069Q-27.8011 78.5308 -28.0284 78.9645Q-28.2558 79.3983 -28.4648 79.8412Q-28.6738 80.2841 -28.8641 80.7353Q-29.0544 81.1866 -29.2257 81.6454Q-29.3969 82.1042 -29.5488 82.5698Q-29.7008 83.0354 -29.8331 83.5069Q-29.9654 83.9784 -30.0778 84.455Q-33.5956 83.9187 -37.154 83.9187Q-38.0052 83.9187 -38.8558 83.9496Q-39.7064 83.9804 -40.5554 84.0421Q-41.4043 84.1037 -42.2505 84.1961Q-43.0966 84.2885 -43.9389 84.4116Q-44.7811 84.5346 -45.6184 84.688Q-46.4556 84.8415 -47.2867 85.0252Q-48.1178 85.2089 -48.9418 85.4226Q-49.7657 85.6363 -50.5813 85.8797Q-51.3969 86.1231 -52.2032 86.396Q-53.0095 86.6688 -53.8053 86.9707Q-54.6012 87.2726 -55.3856 87.6031Q-56.1699 87.9336 -56.9418 88.2924Q-57.7137 88.6511 -58.4721 89.0376Q-59.2305 89.4241 -59.9743 89.8378Q-60.7182 90.2515 -61.4466 90.6919Q-62.175 91.1324 -62.8869 91.5989Q-63.5989 92.0654 -64.2934 92.5574Q-64.988 93.0495 -65.6643 93.5663Q-66.3405 94.0832 -66.9976 94.6243Q-67.6547 95.1653 -68.2918 95.7298Q-68.9288 96.2943 -69.545 96.8816Q-70.1612 97.4688 -70.7557 98.078Q-71.3501 98.6872 -71.9222 99.3175Q-72.4942 99.9478 -73.043 100.598Q-73.5917 101.249 -74.1166 101.919Q-74.6414 102.589 -75.1416 103.278Q-75.6418 103.967 -76.1167 104.673Q-76.5917 105.38 -77.0406 106.103Q-77.4896 106.826 -77.9121 107.565Q-78.3346 108.304 -78.7301 109.057Q-79.1255 109.811 -79.4933 110.579Q-79.8612 111.346 -80.201 112.127Q-78.0251 113.683 -75.7904 115.154Q-73.5558 116.625 -71.2658 118.008Q-68.9758 119.39 -66.6339 120.684Q-64.2919 121.977 -61.9016 123.178Q-59.5112 124.379 -57.0761 125.487Q-54.6409 126.594 -52.1647 127.607Q-49.6884 128.619 -47.1747 129.534Q-44.661 130.45 -42.1137 131.267Q-39.5664 132.084 -36.9893 132.802Q-34.4122 133.52 -31.8091 134.137Q-29.2061 134.754 -26.5811 135.27Q-23.9561 135.786 -21.3131 136.2Q-18.6701 136.613 -16.013 136.924Q-13.3559 137.235 -10.6887 137.442Q-8.02157 137.65 -5.34839 137.753Q-2.6752 137.857 0 137.857Q1.94522 137.857 3.88966 137.802Q5.8341 137.747 7.77622 137.638Q9.71834 137.528 11.6566 137.363Q13.5948 137.199 15.5277 136.98Q17.4605 136.761 19.3864 136.487Q21.3123 136.214 23.2297 135.886Q25.1471 135.558 27.0545 135.176Q28.9619 134.795 30.8577 134.359Q32.7536 133.924 34.6364 133.435Q36.5192 132.946 38.3875 132.405Q40.2558 131.863 42.108 131.269Q43.9603 130.675 45.795 130.028Q47.6298 129.382 49.4456 128.685Q51.2614 127.987 53.0567 127.238Q54.8521 126.49 56.6257 125.691Q58.3992 124.892 60.1495 124.043Q61.8998 123.194 63.6254 122.296Q65.3511 121.399 67.0507 120.452Q68.7503 119.506 70.4226 118.513Q72.0948 117.519 73.7384 116.478Q75.382 115.438 76.9955 114.352Q78.609 113.265 80.1913 112.134Q81.7735 111.002 83.3232 109.826Q84.8729 108.651 86.3888 107.432Q87.9047 106.213 89.3856 104.951Q90.8665 103.69 92.3113 102.388Q93.756 101.085 95.1634 99.7423Q96.5708 98.3995 97.9397 97.0175Q99.3087 95.6356 100.638 94.2155Q101.968 92.7955 103.256 91.3385Q104.545 89.8815 105.792 88.3887Q107.04 86.896 108.244 85.3686ZM-93.8822 -100.949Q-90.356 -104.228 -86.6096 -107.254Q-82.8631 -110.279 -78.9147 -113.036Q-74.9663 -115.792 -70.8352 -118.267Q-66.7041 -120.741 -62.4104 -122.921Q-61.92 -122.293 -61.4834 -121.626Q-61.0467 -120.96 -60.6667 -120.26Q-60.2867 -119.56 -59.966 -118.83Q-59.6453 -118.101 -59.386 -117.348Q-59.1267 -116.594 -58.9307 -115.822Q-58.7347 -115.05 -58.6032 -114.264Q-58.4718 -113.478 -58.4059 -112.684Q-58.3399 -111.89 -58.3399 -111.093Q-58.3399 -110.622 -58.3631 -110.15Q-58.3862 -109.679 -58.4324 -109.21Q-58.4787 -108.74 -58.5479 -108.273Q-58.6171 -107.807 -58.7092 -107.344Q-58.8012 -106.881 -58.9159 -106.424Q-59.0305 -105.966 -59.1675 -105.514Q-59.3044 -105.063 -59.4634 -104.619Q-59.6223 -104.175 -59.8028 -103.739Q-59.9834 -103.303 -60.1851 -102.876Q-60.3868 -102.45 -60.6092 -102.034Q-60.8316 -101.618 -61.0742 -101.213Q-61.3167 -100.808 -61.5789 -100.416Q-61.841 -100.024 -62.122 -99.6447Q-62.4031 -99.2658 -62.7024 -98.9011Q-63.0017 -98.5364 -63.3185 -98.1868Q-63.6354 -97.8372 -63.969 -97.5036Q-64.3026 -97.17 -64.6521 -96.8532Q-65.0017 -96.5363 -65.3664 -96.237Q-65.7311 -95.9377 -66.1101 -95.6567Q-66.489 -95.3756 -66.8813 -95.1135Q-67.2736 -94.8514 -67.6783 -94.6088Q-68.0829 -94.3663 -68.499 -94.1439Q-68.9151 -93.9215 -69.3416 -93.7198Q-69.7681 -93.518 -70.204 -93.3375Q-70.6399 -93.1569 -71.0841 -92.998Q-71.5283 -92.8391 -71.9798 -92.7021Q-72.4313 -92.5651 -72.8889 -92.4505Q-73.3466 -92.3359 -73.8093 -92.2438Q-74.2721 -92.1518 -74.7387 -92.0826Q-75.2054 -92.0133 -75.675 -91.9671Q-76.1445 -91.9208 -76.6157 -91.8977Q-77.0869 -91.8745 -77.5587 -91.8745Q-78.1684 -91.8745 -78.7768 -91.9132Q-79.3852 -91.9518 -79.99 -92.0289Q-80.5947 -92.1061 -81.1934 -92.2214Q-81.792 -92.3367 -82.3822 -92.4897Q-82.9723 -92.6427 -83.5516 -92.8328Q-84.1308 -93.0229 -84.6969 -93.2493Q-85.2629 -93.4758 -85.8135 -93.7376Q-86.364 -93.9995 -86.8969 -94.2957Q-87.4297 -94.5919 -87.9427 -94.9213Q-88.4557 -95.2507 -88.9468 -95.6119Q-89.4379 -95.9732 -89.9051 -96.3648Q-90.3723 -96.7565 -90.8138 -97.177Q-91.2552 -97.5974 -91.6692 -98.045Q-92.0831 -98.4926 -92.4678 -98.9656Q-92.8525 -99.4385 -93.2065 -99.9349Q-93.5604 -100.431 -93.8822 -100.949ZM-127.706 -51.92Q-126.464 -54.9759 -125.077 -57.9689Q-123.69 -60.9619 -122.161 -63.885Q-120.632 -66.8082 -118.965 -69.655Q-117.299 -72.5017 -115.498 -75.2654Q-113.697 -78.0292 -111.765 -80.7036Q-109.834 -83.378 -107.777 -85.9571Q-105.721 -88.5361 -103.543 -91.0137Q-101.365 -93.4914 -99.071 -95.8621Q-98.5704 -95.6941 -98.0768 -95.5068Q-97.5832 -95.3195 -97.0972 -95.1131Q-96.6113 -94.9067 -96.1337 -94.6815Q-95.6562 -94.4563 -95.1878 -94.2126Q-94.7194 -93.969 -94.2608 -93.7073Q-93.8023 -93.4456 -93.3542 -93.1663Q-92.9062 -92.8869 -92.4694 -92.5903Q-92.0326 -92.2937 -91.6077 -91.9803Q-91.1828 -91.6669 -90.7705 -91.3372Q-90.3581 -91.0075 -89.9589 -90.662Q-89.5597 -90.3165 -89.1743 -89.9556Q-88.7888 -89.5948 -88.4177 -89.2193Q-88.0466 -88.8437 -87.6904 -88.454Q-87.3343 -88.0642 -86.9935 -87.6609Q-86.6528 -87.2576 -86.328 -86.8413Q-86.0033 -86.425 -85.695 -85.9964Q-85.3867 -85.5678 -85.0954 -85.1275Q-84.804 -84.6872 -84.53 -84.2359Q-84.2561 -83.7845 -83.9999 -83.3229Q-83.7437 -82.8612 -83.5057 -82.3899Q-83.2677 -81.9187 -83.0482 -81.4385Q-82.8288 -80.9583 -82.6282 -80.4699Q-82.4276 -79.9815 -82.2462 -79.4857Q-82.0648 -78.9898 -81.9028 -78.4873Q-81.7409 -77.9848 -81.5986 -77.4763Q-81.4564 -76.9679 -81.334 -76.4543Q-81.2117 -75.9407 -81.1095 -75.4227Q-81.0072 -74.9047 -80.9253 -74.3831Q-80.8433 -73.8616 -80.7817 -73.3372Q-80.7201 -72.8128 -80.679 -72.2865Q-80.6379 -71.7601 -80.6173 -71.2325Q-80.5968 -70.7049 -80.5968 -70.177Q-80.5968 -69.5119 -80.6294 -68.8476Q-80.662 -68.1833 -80.7272 -67.5214Q-80.7924 -66.8596 -80.89 -66.2017Q-80.9876 -65.5438 -81.1173 -64.8915Q-81.2471 -64.2392 -81.4087 -63.594Q-81.5703 -62.9489 -81.7634 -62.3124Q-81.9564 -61.676 -82.1805 -61.0498Q-82.4045 -60.4236 -82.6591 -59.8091Q-82.9136 -59.1947 -83.1979 -58.5934Q-83.4823 -57.9922 -83.7958 -57.4057Q-84.1093 -56.8191 -84.4512 -56.2487Q-84.7932 -55.6782 -85.1627 -55.1252Q-85.5322 -54.5722 -85.9284 -54.038Q-86.3245 -53.5038 -86.7465 -52.9897Q-87.1684 -52.4756 -87.615 -51.9828Q-88.0617 -51.49 -88.532 -51.0197Q-89.0022 -50.5494 -89.495 -50.1028Q-89.9878 -49.6561 -90.5019 -49.2342Q-91.0161 -48.8123 -91.5503 -48.4161Q-92.0844 -48.0199 -92.6374 -47.6504Q-93.1904 -47.2809 -93.7609 -46.939Q-94.3314 -46.5971 -94.9179 -46.2836Q-95.5045 -45.97 -96.1057 -45.6857Q-96.7069 -45.4013 -97.3214 -45.1468Q-97.9358 -44.8923 -98.562 -44.6682Q-99.1882 -44.4442 -99.8247 -44.2511Q-100.461 -44.0581 -101.106 -43.8965Q-101.751 -43.7349 -102.404 -43.6051Q-103.056 -43.4753 -103.714 -43.3778Q-104.372 -43.2802 -105.034 -43.215Q-105.696 -43.1498 -106.36 -43.1172Q-107.024 -43.0845 -107.689 -43.0845Q-108.393 -43.0845 -109.096 -43.1211Q-109.799 -43.1577 -110.5 -43.2307Q-111.2 -43.3037 -111.895 -43.413Q-112.591 -43.5223 -113.28 -43.6676Q-113.968 -43.8128 -114.649 -43.9937Q-115.329 -44.1745 -115.999 -44.3905Q-116.669 -44.6064 -117.327 -44.8569Q-117.985 -45.1073 -118.629 -45.3916Q-119.273 -45.6759 -119.902 -45.9933Q-120.53 -46.3106 -121.141 -46.6602Q-121.753 -47.0098 -122.345 -47.3906Q-122.937 -47.7714 -123.508 -48.1825Q-124.08 -48.5936 -124.629 -49.0338Q-125.179 -49.474 -125.704 -49.9421Q-126.23 -50.4102 -126.731 -50.9051Q-127.232 -51.3999 -127.706 -51.92ZM-1.92525 -15.8344Q-1.92525 -14.9069 -1.97076 -13.9805Q-2.01627 -13.0541 -2.10718 -12.131Q-2.1981 -11.2079 -2.3342 -10.2904Q-2.47029 -9.37296 -2.65124 -8.46325Q-2.8322 -7.55354 -3.05757 -6.65381Q-3.28294 -5.75407 -3.55219 -4.86648Q-3.82143 -3.97889 -4.13391 -3.10558Q-4.44639 -2.23227 -4.80134 -1.37534Q-5.15629 -0.518417 -5.55286 0.320061Q-5.94943 1.15854 -6.38666 1.97655Q-6.8239 2.79456 -7.30074 3.59012Q-7.77759 4.38569 -8.2929 5.15691Q-8.8082 5.92812 -9.36073 6.67312Q-9.91326 7.41812 -10.5017 8.13511Q-11.0901 8.8521 -11.713 9.53936Q-12.3359 10.2266 -12.9917 10.8825Q-13.6476 11.5383 -14.3349 12.1612Q-15.0221 12.7841 -15.7391 13.3725Q-16.4561 13.961 -17.2011 14.5135Q-17.9461 15.066 -18.7173 15.5813Q-19.4885 16.0966 -20.2841 16.5735Q-21.0797 17.0503 -21.8977 17.4876Q-22.7157 17.9248 -23.5542 18.3214Q-24.3926 18.7179 -25.2496 19.0729Q-26.1065 19.4278 -26.9798 19.7403Q-27.8531 20.0528 -28.7407 20.322Q-29.6283 20.5913 -30.528 20.8167Q-31.4278 21.042 -32.3375 21.223Q-33.2472 21.4039 -34.1647 21.54Q-35.0822 21.6761 -36.0052 21.767Q-36.9283 21.858 -37.8547 21.9035Q-38.7811 21.949 -39.7086 21.949Q-40.6362 21.949 -41.5626 21.9035Q-42.489 21.858 -43.4121 21.767Q-44.3351 21.6761 -45.2526 21.54Q-46.1701 21.4039 -47.0798 21.223Q-47.9895 21.042 -48.8893 20.8167Q-49.789 20.5913 -50.6766 20.322Q-51.5642 20.0528 -52.4375 19.7403Q-53.3108 19.4278 -54.1677 19.0729Q-55.0246 18.7179 -55.8631 18.3214Q-56.7016 17.9248 -57.5196 17.4876Q-58.3376 17.0503 -59.1332 16.5735Q-59.9288 16.0966 -60.7 15.5813Q-61.4712 15.066 -62.2162 14.5135Q-62.9612 13.961 -63.6782 13.3725Q-64.3952 12.7841 -65.0824 12.1612Q-65.7697 11.5383 -66.4255 10.8825Q-67.0814 10.2266 -67.7043 9.53936Q-68.3272 8.8521 -68.9156 8.13511Q-69.504 7.41812 -70.0565 6.67312Q-70.6091 5.92812 -71.1244 5.15691Q-71.6397 4.38569 -72.1165 3.59012Q-72.5934 2.79456 -73.0306 1.97655Q-73.4678 1.15854 -73.8644 0.320061Q-74.261 -0.518417 -74.6159 -1.37534Q-74.9709 -2.23227 -75.2834 -3.10558Q-75.5958 -3.97889 -75.8651 -4.86648Q-76.1343 -5.75407 -76.3597 -6.65381Q-76.5851 -7.55354 -76.766 -8.46325Q-76.947 -9.37296 -77.0831 -10.2904Q-77.2192 -11.2079 -77.3101 -12.131Q-77.401 -13.0541 -77.4465 -13.9805Q-77.492 -14.9069 -77.492 -15.8344Q-77.492 -16.762 -77.4465 -17.6884Q-77.401 -18.6148 -77.3101 -19.5378Q-77.2192 -20.4609 -77.0831 -21.3784Q-76.947 -22.2959 -76.766 -23.2056Q-76.5851 -24.1153 -76.3597 -25.015Q-76.1343 -25.9148 -75.8651 -26.8024Q-75.5958 -27.69 -75.2834 -28.5633Q-74.9709 -29.4366 -74.6159 -30.2935Q-74.261 -31.1504 -73.8644 -31.9889Q-73.4678 -32.8274 -73.0306 -33.6454Q-72.5934 -34.4634 -72.1165 -35.259Q-71.6397 -36.0545 -71.1244 -36.8257Q-70.6091 -37.597 -70.0565 -38.342Q-69.504 -39.087 -68.9156 -39.804Q-68.3272 -40.5209 -67.7043 -41.2082Q-67.0814 -41.8955 -66.4255 -42.5513Q-65.7697 -43.2072 -65.0824 -43.8301Q-64.3952 -44.453 -63.6782 -45.0414Q-62.9612 -45.6298 -62.2162 -46.1823Q-61.4712 -46.7349 -60.7 -47.2502Q-59.9288 -47.7655 -59.1332 -48.2423Q-58.3376 -48.7192 -57.5196 -49.1564Q-56.7016 -49.5936 -55.8631 -49.9902Q-55.0246 -50.3868 -54.1677 -50.7417Q-53.3108 -51.0967 -52.4375 -51.4091Q-51.5642 -51.7216 -50.6766 -51.9909Q-49.789 -52.2601 -48.8893 -52.4855Q-47.9895 -52.7109 -47.0798 -52.8918Q-46.1701 -53.0728 -45.2526 -53.2089Q-44.3351 -53.345 -43.4121 -53.4359Q-42.489 -53.5268 -41.5626 -53.5723Q-40.6362 -53.6178 -39.7086 -53.6178Q-38.7811 -53.6178 -37.8547 -53.5723Q-36.9283 -53.5268 -36.0052 -53.4359Q-35.0822 -53.345 -34.1647 -53.2089Q-33.2472 -53.0728 -32.3375 -52.8918Q-31.4278 -52.7109 -30.528 -52.4855Q-29.6283 -52.2601 -28.7407 -51.9909Q-27.8531 -51.7216 -26.9798 -51.4091Q-26.1065 -51.0967 -25.2496 -50.7417Q-24.3926 -50.3868 -23.5542 -49.9902Q-22.7157 -49.5936 -21.8977 -49.1564Q-21.0797 -48.7192 -20.2841 -48.2423Q-19.4885 -47.7655 -18.7173 -47.2502Q-17.9461 -46.7349 -17.2011 -46.1823Q-16.4561 -45.6298 -15.7391 -45.0414Q-15.0221 -44.453 -14.3349 -43.8301Q-13.6476 -43.2072 -12.9917 -42.5513Q-12.3359 -41.8955 -11.713 -41.2082Q-11.0901 -40.5209 -10.5017 -39.804Q-9.91326 -39.087 -9.36073 -38.342Q-8.8082 -37.597 -8.2929 -36.8258Q-7.77759 -36.0545 -7.30074 -35.259Q-6.8239 -34.4634 -6.38666 -33.6454Q-5.94943 -32.8274 -5.55286 -31.9889Q-5.15629 -31.1504 -4.80134 -30.2935Q-4.44639 -29.4366 -4.13391 -28.5633Q-3.82143 -27.69 -3.55219 -26.8024Q-3.28294 -25.9148 -3.05757 -25.015Q-2.8322 -24.1153 -2.65124 -23.2056Q-2.47029 -22.2959 -2.3342 -21.3784Q-2.1981 -20.4609 -2.10718 -19.5378Q-2.01627 -18.6148 -1.97076 -17.6884Q-1.92525 -16.762 -1.92525 -15.8344ZM7.54431 107.922Q6.56861 109.836 5.76108 111.827Q5.31667 110.825 4.82603 109.845Q6.25378 108.98 7.54431 107.922Z" fill-rule="evenodd"/>
	<path fill="#999" transform="matrix(0.149251 0.014975 -0.014975 0.149251 55 47.8571)" d="M136.944 15.8419Q137.857 7.9473 137.857 0Q137.857 -6.10207 137.318 -12.1803Q136.779 -18.2585 135.705 -24.2653Q134.701 -24.3657 133.692 -24.3657Q133.195 -24.3657 132.699 -24.3413Q132.202 -24.3169 131.708 -24.2682Q131.214 -24.2195 130.722 -24.1466Q130.231 -24.0738 129.744 -23.9768Q129.257 -23.8799 128.775 -23.7592Q128.293 -23.6385 127.818 -23.4943Q127.342 -23.3501 126.874 -23.1828Q126.407 -23.0154 125.948 -22.8253Q125.489 -22.6352 125.04 -22.4229Q124.591 -22.2105 124.153 -21.9763Q123.715 -21.7421 123.288 -21.4868Q122.862 -21.2314 122.449 -20.9554Q122.036 -20.6794 121.637 -20.3835Q121.238 -20.0876 120.854 -19.7725Q120.47 -19.4573 120.102 -19.1237Q119.734 -18.7901 119.383 -18.4389Q119.032 -18.0876 118.698 -17.7195Q118.365 -17.3515 118.049 -16.9675Q117.734 -16.5835 117.438 -16.1845Q117.142 -15.7855 116.866 -15.3725Q116.59 -14.9594 116.335 -14.5334Q116.08 -14.1073 115.846 -13.6692Q115.611 -13.2311 115.399 -12.782Q115.187 -12.333 114.997 -11.8741Q114.806 -11.4151 114.639 -10.9474Q114.472 -10.4797 114.328 -10.0043Q114.183 -9.52897 114.063 -9.04711Q113.942 -8.56524 113.845 -8.07804Q113.748 -7.59083 113.675 -7.09946Q113.602 -6.60809 113.554 -6.11373Q113.505 -5.61937 113.481 -5.12322Q113.456 -4.62707 113.456 -4.13032Q113.456 -3.63357 113.481 -3.13742Q113.505 -2.64127 113.554 -2.14691Q113.602 -1.65255 113.675 -1.16118Q113.748 -0.669804 113.845 -0.182599Q113.942 0.304605 114.063 0.786468Q114.183 1.26833 114.328 1.74369Q114.472 2.21905 114.639 2.68676Q114.806 3.15447 114.997 3.61341Q115.187 4.07235 115.399 4.5214Q115.611 4.97046 115.846 5.40856Q116.08 5.84665 116.335 6.27273Q116.59 6.6988 116.866 7.11184Q117.142 7.52487 117.438 7.92386Q117.734 8.32285 118.049 8.70685Q118.365 9.09084 118.698 9.45891Q119.032 9.82697 119.383 10.1782Q119.734 10.5295 120.102 10.8631Q120.47 11.1967 120.854 11.5118Q121.238 11.8269 121.637 12.1229Q122.036 12.4188 122.449 12.6948Q122.862 12.9707 123.288 13.2261Q123.715 13.4815 124.153 13.7157Q124.591 13.9498 125.04 14.1622Q125.489 14.3746 125.948 14.5647Q126.407 14.7548 126.874 14.9221Q127.342 15.0895 127.818 15.2337Q128.293 15.3779 128.775 15.4986Q129.257 15.6193 129.744 15.7162Q130.231 15.8131 130.722 15.886Q131.214 15.9589 131.708 16.0076Q132.202 16.0563 132.699 16.0807Q133.195 16.105 133.692 16.105Q135.328 16.105 136.944 15.8419ZM106.344 87.7246Q105.509 86.8361 104.629 85.9913Q103.75 85.1465 102.829 84.3476Q101.908 83.5488 100.947 82.798Q99.9863 82.0471 98.9885 81.3463Q97.9907 80.6455 96.9585 79.9964Q95.9262 79.3474 94.8622 78.7518Q93.7982 78.1563 92.7052 77.6158Q91.6122 77.0753 90.4931 76.5913Q89.3739 76.1072 88.2315 75.6809Q87.0892 75.2545 85.9265 74.887Q84.7639 74.5195 83.5841 74.2118Q82.4042 73.9041 81.2102 73.6569Q80.0162 73.4098 78.8111 73.2238Q77.606 73.0379 76.393 72.9137Q75.18 72.7895 73.9623 72.7273Q72.7445 72.6651 71.5252 72.6651Q70.4017 72.6651 69.2795 72.7179Q68.1572 72.7707 67.0387 72.8762Q65.9202 72.9817 64.8079 73.1396Q63.6956 73.2976 62.5919 73.5076Q61.4882 73.7177 60.3956 73.9793Q59.3031 74.241 58.224 74.5538Q57.1449 74.8665 56.0818 75.2297Q55.0186 75.5928 53.9736 76.0055Q52.9287 76.4182 51.9043 76.8795Q50.8799 77.3409 49.8784 77.8498Q48.8768 78.3588 47.9002 78.9143Q46.9237 79.4698 45.9744 80.0706Q45.025 80.6714 44.1049 81.3161Q43.1849 81.9608 42.2961 82.6481Q41.4074 83.3354 40.5519 84.0637Q39.6964 84.7919 38.8762 85.5596Q38.0999 85.7858 37.3319 86.0386Q36.5639 86.2914 35.8051 86.5706Q35.0463 86.8497 34.2976 87.1549Q33.5489 87.46 32.8111 87.7908Q32.0733 88.1215 31.3474 88.4775Q30.6215 88.8335 29.9082 89.2144Q29.195 89.5952 28.4953 90.0004Q27.7957 90.4055 27.1104 90.8346Q26.4251 91.2637 25.755 91.7161Q25.0849 92.1685 24.4308 92.6438Q23.7767 93.1191 23.1394 93.6166Q22.5021 94.1142 21.8823 94.6334Q21.2625 95.1526 20.661 95.6928Q20.0595 96.2331 19.4769 96.7938Q18.8944 97.3545 18.3315 97.9349Q17.7687 98.5153 17.2262 99.1148Q16.6836 99.7143 16.1621 100.332Q15.6406 100.95 15.1407 101.585Q14.6408 102.221 14.163 102.873Q13.6853 103.526 13.2304 104.194Q12.7754 104.862 12.3438 105.546Q11.9122 106.23 11.5044 106.928Q11.0966 107.626 10.7131 108.338Q10.3296 109.05 9.97089 109.774Q9.61217 110.499 9.27864 111.235Q8.94511 111.972 8.63717 112.719Q8.32923 113.467 8.04725 114.225Q7.76526 114.982 7.50957 115.749Q7.25388 116.517 7.02478 117.292Q6.79569 118.067 6.59346 118.85Q6.39123 119.633 6.21611 120.422Q6.04099 121.212 5.89318 122.007Q5.52889 120.237 5.0206 118.503Q4.5123 116.77 3.86344 115.084Q3.21458 113.398 2.42952 111.77Q1.64446 110.143 0.728504 108.586Q1.07036 108.44 1.40666 108.281Q1.74296 108.122 2.07326 107.952Q2.40355 107.781 2.7274 107.598Q3.05125 107.415 3.36823 107.221Q3.6852 107.026 3.99488 106.82Q4.30456 106.615 4.60653 106.397Q4.9085 106.18 5.20236 105.953Q5.49622 105.725 5.78158 105.486Q6.06695 105.248 6.34343 104.999Q6.61991 104.75 6.88715 104.492Q7.15439 104.233 7.41203 103.965Q7.66967 103.697 7.91737 103.42Q8.16506 103.142 8.40249 102.856Q8.63992 102.57 8.86675 102.275Q9.09359 101.981 9.30954 101.678Q9.52549 101.375 9.73026 101.065Q9.93504 100.754 10.1284 100.437Q10.3217 100.119 10.5033 99.7945Q10.6849 99.47 10.8546 99.1391Q11.0243 98.8082 11.1818 98.4713Q11.3393 98.1345 11.4844 97.7921Q11.6296 97.4497 11.7621 97.1023Q11.8947 96.7549 12.0145 96.4028Q12.1343 96.0508 12.2412 95.6946Q12.3481 95.3385 12.442 94.9786Q12.5358 94.6188 12.6165 94.2558Q12.6972 93.8928 12.7645 93.5271Q12.8319 93.1614 12.886 92.7935Q12.94 92.4256 12.9806 92.0559Q13.0211 91.6863 13.0482 91.3154Q13.0753 90.9445 13.0889 90.5729Q13.1024 90.2013 13.1024 89.8294Q13.1024 89.3286 13.0778 88.8283Q13.0533 88.328 13.0042 87.8296Q12.9551 87.3311 12.8816 86.8357Q12.8081 86.3403 12.7104 85.849Q12.6127 85.3578 12.491 84.8719Q12.3693 84.3861 12.2239 83.9068Q12.0785 83.4275 11.9097 82.9559Q11.741 82.4843 11.5493 82.0216Q11.3577 81.5588 11.1435 81.1061Q10.9294 80.6533 10.6933 80.2116Q10.4572 79.7699 10.1997 79.3403Q9.94218 78.9106 9.66391 78.4942Q9.38565 78.0777 9.08729 77.6754Q8.78892 77.2732 8.47118 76.886Q8.15343 76.4988 7.81708 76.1277Q7.48072 75.7566 7.12655 75.4024Q6.77239 75.0483 6.40128 74.7119Q6.03016 74.3755 5.64299 74.0578Q5.25582 73.7401 4.85352 73.4417Q4.45123 73.1433 4.03477 72.8651Q3.61832 72.5868 3.18872 72.3293Q2.75912 72.0718 2.31739 71.8357Q1.87567 71.5996 1.4229 71.3854Q0.970125 71.1713 0.507389 70.9796Q0.0446525 70.7879 -0.426931 70.6192Q-0.898515 70.4505 -1.37781 70.3051Q-1.85711 70.1597 -2.34296 70.038Q-2.82881 69.9163 -3.32005 69.8186Q-3.81129 69.7209 -4.30673 69.6474Q-4.80217 69.5739 -5.30062 69.5248Q-5.79907 69.4757 -6.29933 69.4511Q-6.79959 69.4266 -7.30045 69.4266Q-7.77213 69.4266 -8.24331 69.4483Q-8.7145 69.4702 -9.18417 69.5137Q-9.65384 69.5573 -10.121 69.6225Q-10.5881 69.6877 -11.0518 69.7744Q-11.5154 69.8611 -11.9746 69.9692Q-12.4337 70.0772 -12.8874 70.2064Q-13.341 70.3356 -13.7882 70.4855Q-14.2354 70.6355 -14.6752 70.806Q-15.115 70.9765 -15.5465 71.1672Q-15.9779 71.3578 -16.4001 71.5682Q-16.8223 71.7785 -17.2343 72.0082Q-17.6463 72.2378 -18.0472 72.4863Q-18.4481 72.7347 -18.8372 73.0014Q-19.2262 73.2682 -19.6025 73.5526Q-19.9788 73.837 -20.3416 74.1385Q-20.7043 74.44 -21.0528 74.7579Q-21.4012 75.0758 -21.7346 75.4095Q-22.0679 75.7432 -22.3855 76.092Q-22.7031 76.4407 -23.0042 76.8037Q-23.3054 77.1668 -23.5894 77.5434Q-23.8734 77.92 -24.1398 78.3092Q-24.4061 78.6986 -24.6542 79.0998Q-24.9022 79.5009 -25.1315 79.9132Q-25.3607 80.3254 -25.5707 80.7478Q-25.7806 81.1702 -25.9708 81.6018Q-26.161 82.0334 -26.3311 82.4734Q-26.5012 82.9133 -26.6507 83.3607Q-26.8003 83.808 -26.929 84.2618Q-27.0577 84.7156 -27.1653 85.1749Q-27.2729 85.6341 -27.3592 86.0978Q-27.4454 86.5616 -27.5102 87.0288Q-27.5749 87.496 -27.618 87.9657Q-32.3285 86.9187 -37.154 86.9187Q-37.9603 86.9187 -38.766 86.9483Q-39.5717 86.9778 -40.3759 87.037Q-41.18 87.0961 -41.9813 87.1846Q-42.7827 87.2732 -43.5803 87.3911Q-44.3779 87.509 -45.1707 87.656Q-45.9634 87.8031 -46.7502 87.9791Q-47.5371 88.1552 -48.3169 88.36Q-49.0967 88.5648 -49.8685 88.798Q-50.6403 89.0312 -51.403 89.2926Q-52.1657 89.554 -52.9184 89.8432Q-53.671 90.1324 -54.4125 90.4491Q-55.154 90.7657 -55.8834 91.1093Q-56.6128 91.4529 -57.3291 91.823Q-58.0454 92.1931 -58.7476 92.5892Q-59.4499 92.9854 -60.1371 93.407Q-60.8243 93.8286 -61.4957 94.2752Q-62.167 94.7217 -62.8215 95.1926Q-63.4759 95.6635 -64.1127 96.158Q-64.7495 96.6526 -65.3677 97.1702Q-65.9859 97.6878 -66.5847 98.2277Q-67.1835 98.7676 -67.7621 99.3291Q-68.3407 99.8906 -68.8983 100.473Q-69.4559 101.055 -69.9918 101.658Q-70.5277 102.26 -71.0411 102.882Q-71.5545 103.503 -72.0448 104.144Q-72.5351 104.784 -73.0016 105.441Q-73.468 106.099 -73.9101 106.773Q-74.3521 107.447 -74.7691 108.138Q-75.1861 108.828 -75.5775 109.532Q-75.9689 110.237 -76.3343 110.956Q-76.6995 111.675 -77.0382 112.407Q-77.3769 113.138 -77.6886 113.882Q-75.5578 115.335 -73.3741 116.708Q-71.1904 118.081 -68.9569 119.371Q-66.7234 120.662 -64.4432 121.867Q-62.1629 123.073 -59.8392 124.193Q-57.5155 125.312 -55.1515 126.344Q-52.7875 127.376 -50.3866 128.319Q-47.9857 129.262 -45.5512 130.114Q-43.1166 130.966 -40.652 131.727Q-38.1873 132.488 -35.6958 133.156Q-33.2044 133.823 -30.6898 134.398Q-28.1751 134.972 -25.6407 135.452Q-23.1063 135.931 -20.5558 136.316Q-18.0052 136.701 -15.4421 136.99Q-12.8789 137.278 -10.3067 137.471Q-7.73456 137.664 -5.15698 137.761Q-2.57939 137.857 0 137.857Q1.89791 137.857 3.7951 137.805Q5.69229 137.753 7.58733 137.648Q9.48236 137.544 11.3738 137.387Q13.2652 137.231 15.1516 137.022Q17.0381 136.813 18.918 136.553Q20.798 136.292 22.67 135.98Q24.5421 135.668 26.4049 135.305Q28.2677 134.941 30.1197 134.527Q31.9718 134.112 33.8117 133.646Q35.6516 133.181 37.4781 132.665Q39.3045 132.149 41.116 131.583Q42.9276 131.017 44.7228 130.401Q46.5181 129.785 48.2957 129.121Q50.0733 128.456 51.832 127.742Q53.5907 127.028 55.329 126.267Q57.0673 125.505 58.7841 124.696Q60.5008 123.886 62.1946 123.03Q63.8883 122.174 65.5579 121.271Q67.2275 120.369 68.8716 119.421Q70.5157 118.473 72.133 117.479Q73.7504 116.486 75.3398 115.449Q76.9292 114.412 78.4895 113.331Q80.0497 112.251 81.5797 111.128Q83.1096 110.005 84.608 108.84Q86.1064 107.675 87.5722 106.469Q89.038 105.264 90.47 104.018Q91.9021 102.773 93.2993 101.488Q94.6965 100.204 96.0578 98.8812Q97.4191 97.5587 98.7435 96.1993Q100.068 94.8399 101.354 93.4445Q102.641 92.0492 103.888 90.6189Q105.136 89.1887 106.344 87.7246ZM-91.6185 -103.008Q-85.5614 -108.395 -78.9147 -113.036Q-72.268 -117.676 -65.1233 -121.505Q-64.6694 -120.963 -64.2644 -120.384Q-63.8594 -119.804 -63.5063 -119.192Q-63.1533 -118.579 -62.8549 -117.938Q-62.5565 -117.297 -62.3151 -116.632Q-62.0736 -115.968 -61.8909 -115.285Q-61.7081 -114.602 -61.5856 -113.905Q-61.463 -113.209 -61.4014 -112.505Q-61.3399 -111.8 -61.3399 -111.093Q-61.3399 -110.695 -61.3594 -110.298Q-61.379 -109.9 -61.418 -109.504Q-61.457 -109.107 -61.5154 -108.714Q-61.5739 -108.32 -61.6515 -107.929Q-61.7292 -107.539 -61.826 -107.153Q-61.9227 -106.766 -62.0383 -106.385Q-62.1539 -106.004 -62.288 -105.629Q-62.4221 -105.255 -62.5745 -104.887Q-62.7269 -104.519 -62.8971 -104.159Q-63.0673 -103.799 -63.255 -103.448Q-63.4427 -103.097 -63.6474 -102.755Q-63.8521 -102.414 -64.0733 -102.083Q-64.2945 -101.752 -64.5316 -101.432Q-64.7688 -101.112 -65.0214 -100.804Q-65.274 -100.496 -65.5414 -100.201Q-65.8087 -99.9065 -66.0903 -99.6249Q-66.3718 -99.3434 -66.6668 -99.076Q-66.9618 -98.8086 -67.2696 -98.5561Q-67.5774 -98.3035 -67.8972 -98.0663Q-68.217 -97.8291 -68.548 -97.6079Q-68.8791 -97.3867 -69.2206 -97.182Q-69.5621 -96.9773 -69.9132 -96.7897Q-70.2644 -96.602 -70.6243 -96.4317Q-70.9842 -96.2615 -71.3521 -96.1091Q-71.7199 -95.9568 -72.0948 -95.8226Q-72.4696 -95.6885 -72.8506 -95.5729Q-73.2317 -95.4574 -73.6179 -95.3606Q-74.0041 -95.2639 -74.3946 -95.1862Q-74.7851 -95.1085 -75.1789 -95.0501Q-75.5728 -94.9917 -75.969 -94.9527Q-76.3652 -94.9136 -76.7629 -94.8941Q-77.1606 -94.8746 -77.5587 -94.8746Q-78.0906 -94.8746 -78.6212 -94.9094Q-79.1519 -94.9442 -79.6792 -95.0138Q-80.2064 -95.0833 -80.728 -95.1872Q-81.2495 -95.2911 -81.7632 -95.429Q-82.2768 -95.5669 -82.7803 -95.7381Q-83.2838 -95.9093 -83.775 -96.1131Q-84.2662 -96.317 -84.743 -96.5525Q-85.2198 -96.7881 -85.6801 -97.0544Q-86.1405 -97.3207 -86.5824 -97.6166Q-87.0243 -97.9125 -87.4459 -98.2367Q-87.8674 -98.5609 -88.2669 -98.912Q-88.6663 -99.2631 -89.0419 -99.6397Q-89.4174 -100.016 -89.7675 -100.417Q-90.1176 -100.817 -90.4407 -101.239Q-90.7639 -101.662 -91.0586 -102.104Q-91.3534 -102.547 -91.6185 -103.008ZM-126.407 -55.0081Q-124.108 -60.2916 -121.376 -65.3648Q-118.644 -70.4379 -115.498 -75.2654Q-112.352 -80.0929 -108.814 -84.6411Q-105.276 -89.1892 -101.371 -93.4262Q-100.897 -93.2973 -100.428 -93.1492Q-99.9597 -93.0011 -99.4975 -92.834Q-99.0352 -92.6669 -98.5802 -92.481Q-98.1252 -92.2952 -97.6782 -92.091Q-97.2311 -91.8867 -96.7927 -91.6644Q-96.3544 -91.4421 -95.9254 -91.2022Q-95.4965 -90.9622 -95.0777 -90.7049Q-94.659 -90.4476 -94.251 -90.1735Q-93.8431 -89.8993 -93.4467 -89.6088Q-93.0502 -89.3182 -92.666 -89.0117Q-92.2818 -88.7052 -91.9103 -88.3833Q-91.5389 -88.0614 -91.1809 -87.7247Q-90.8229 -87.3879 -90.479 -87.0368Q-90.135 -86.6857 -89.8057 -86.3209Q-89.4763 -85.956 -89.1622 -85.578Q-88.848 -85.2001 -88.5495 -84.8096Q-88.2509 -84.4192 -87.9686 -84.0169Q-87.6862 -83.6145 -87.4205 -83.2011Q-87.1548 -82.7876 -86.9062 -82.3636Q-86.6576 -81.9396 -86.4265 -81.5058Q-86.1954 -81.0721 -85.9822 -80.6292Q-85.7689 -80.1864 -85.5739 -79.7352Q-85.379 -79.2841 -85.2025 -78.8253Q-85.0261 -78.3666 -84.8685 -77.901Q-84.7109 -77.4355 -84.5725 -76.9639Q-84.434 -76.4923 -84.3149 -76.0154Q-84.1958 -75.5386 -84.0962 -75.0573Q-83.9967 -74.576 -83.9168 -74.091Q-83.837 -73.606 -83.777 -73.1182Q-83.717 -72.6304 -83.6769 -72.1405Q-83.6369 -71.6506 -83.6168 -71.1595Q-83.5968 -70.6685 -83.5968 -70.177Q-83.5968 -69.5855 -83.6258 -68.9948Q-83.6548 -68.4041 -83.7128 -67.8155Q-83.7708 -67.2269 -83.8575 -66.6419Q-83.9443 -66.0568 -84.0597 -65.4767Q-84.1751 -64.8967 -84.3188 -64.323Q-84.4625 -63.7493 -84.6342 -63.1833Q-84.8059 -62.6173 -85.0051 -62.0605Q-85.2044 -61.5036 -85.4307 -60.9572Q-85.657 -60.4108 -85.9099 -59.8761Q-86.1628 -59.3415 -86.4416 -58.8199Q-86.7204 -58.2983 -87.0244 -57.791Q-87.3285 -57.2837 -87.6571 -56.7919Q-87.9857 -56.3002 -88.338 -55.8251Q-88.6903 -55.3501 -89.0655 -54.8929Q-89.4407 -54.4357 -89.8379 -53.9975Q-90.2351 -53.5592 -90.6533 -53.141Q-91.0715 -52.7228 -91.5097 -52.3256Q-91.9479 -51.9285 -92.4051 -51.5533Q-92.8623 -51.1781 -93.3374 -50.8257Q-93.8124 -50.4734 -94.3042 -50.1448Q-94.7959 -49.8162 -95.3032 -49.5122Q-95.8105 -49.2081 -96.3321 -48.9293Q-96.8537 -48.6505 -97.3884 -48.3977Q-97.923 -48.1448 -98.4694 -47.9185Q-99.0158 -47.6921 -99.5727 -47.4929Q-100.13 -47.2936 -100.696 -47.1219Q-101.262 -46.9503 -101.835 -46.8065Q-102.409 -46.6628 -102.989 -46.5475Q-103.569 -46.4321 -104.154 -46.3453Q-104.739 -46.2585 -105.328 -46.2005Q-105.916 -46.1426 -106.507 -46.1135Q-107.098 -46.0845 -107.689 -46.0845Q-108.359 -46.0845 -109.028 -46.1218Q-109.697 -46.159 -110.363 -46.2334Q-111.029 -46.3077 -111.69 -46.419Q-112.351 -46.5303 -113.004 -46.6781Q-113.658 -46.8259 -114.302 -47.0098Q-114.946 -47.1937 -115.579 -47.4132Q-116.213 -47.6326 -116.832 -47.8869Q-117.452 -48.1412 -118.057 -48.4296Q-118.662 -48.7179 -119.25 -49.0394Q-119.838 -49.3609 -120.407 -49.7146Q-120.976 -50.0683 -121.525 -50.4531Q-122.073 -50.8379 -122.599 -51.2526Q-123.126 -51.6673 -123.628 -52.1106Q-124.131 -52.5538 -124.608 -53.0244Q-125.085 -53.4949 -125.535 -53.9912Q-125.985 -54.4876 -126.407 -55.0081ZM-4.92525 -15.8344Q-4.92525 -14.9805 -4.96714 -14.1277Q-5.00904 -13.2748 -5.09274 -12.4251Q-5.17643 -11.5753 -5.30172 -10.7306Q-5.42702 -9.886 -5.5936 -9.04852Q-5.76018 -8.21104 -5.96766 -7.38275Q-6.17514 -6.55445 -6.42301 -5.73734Q-6.67088 -4.92022 -6.95854 -4.11625Q-7.24621 -3.31228 -7.57298 -2.52339Q-7.89974 -1.73451 -8.26482 -0.962604Q-8.62991 -0.190702 -9.03243 0.562357Q-9.43494 1.31542 -9.87393 2.04782Q-10.3129 2.78022 -10.7873 3.4902Q-11.2617 4.20018 -11.7704 4.88602Q-12.279 5.57187 -12.8207 6.23193Q-13.3624 6.89199 -13.9358 7.52468Q-14.5093 8.15736 -15.1131 8.76115Q-15.7169 9.36494 -16.3495 9.93837Q-16.9822 10.5118 -17.6423 11.0535Q-18.3024 11.5952 -18.9882 12.1039Q-19.674 12.6125 -20.384 13.0869Q-21.094 13.5613 -21.8264 14.0003Q-22.5588 14.4393 -23.3119 14.8418Q-24.0649 15.2443 -24.8368 15.6094Q-25.6087 15.9745 -26.3976 16.3012Q-27.1865 16.628 -27.9905 16.9157Q-28.7944 17.2033 -29.6116 17.4512Q-30.4287 17.6991 -31.257 17.9066Q-32.0853 18.114 -32.9227 18.2806Q-33.7602 18.4472 -34.6049 18.5725Q-35.4495 18.6978 -36.2993 18.7815Q-37.149 18.8652 -38.0019 18.9071Q-38.8548 18.949 -39.7086 18.949Q-40.5625 18.949 -41.4154 18.9071Q-42.2682 18.8652 -43.118 18.7815Q-43.9678 18.6978 -44.8124 18.5725Q-45.6571 18.4472 -46.4945 18.2806Q-47.332 18.114 -48.1603 17.9066Q-48.9886 17.6991 -49.8057 17.4512Q-50.6228 17.2033 -51.4268 16.9157Q-52.2308 16.628 -53.0197 16.3012Q-53.8086 15.9745 -54.5805 15.6094Q-55.3524 15.2443 -56.1054 14.8418Q-56.8585 14.4393 -57.5909 14.0003Q-58.3233 13.5613 -59.0333 13.0869Q-59.7432 12.6125 -60.4291 12.1039Q-61.1149 11.5952 -61.775 11.0535Q-62.4351 10.5118 -63.0677 9.93837Q-63.7004 9.36494 -64.3042 8.76115Q-64.908 8.15736 -65.4814 7.52468Q-66.0549 6.89199 -66.5966 6.23193Q-67.1383 5.57187 -67.6469 4.88602Q-68.1556 4.20018 -68.63 3.4902Q-69.1044 2.78022 -69.5434 2.04782Q-69.9823 1.31542 -70.3849 0.562357Q-70.7874 -0.190702 -71.1525 -0.962604Q-71.5175 -1.73451 -71.8443 -2.52339Q-72.1711 -3.31228 -72.4587 -4.11625Q-72.7464 -4.92022 -72.9943 -5.73734Q-73.2421 -6.55445 -73.4496 -7.38275Q-73.6571 -8.21104 -73.8237 -9.04852Q-73.9903 -9.886 -74.1156 -10.7306Q-74.2409 -11.5753 -74.3246 -12.4251Q-74.4082 -13.2748 -74.4501 -14.1277Q-74.492 -14.9805 -74.492 -15.8344Q-74.492 -16.6883 -74.4501 -17.5412Q-74.4082 -18.394 -74.3246 -19.2438Q-74.2409 -20.0936 -74.1156 -20.9382Q-73.9903 -21.7828 -73.8237 -22.6203Q-73.6571 -23.4578 -73.4496 -24.2861Q-73.2421 -25.1144 -72.9943 -25.9315Q-72.7464 -26.7486 -72.4587 -27.5526Q-72.1711 -28.3566 -71.8443 -29.1455Q-71.5175 -29.9343 -71.1525 -30.7062Q-70.7874 -31.4781 -70.3849 -32.2312Q-69.9823 -32.9843 -69.5434 -33.7167Q-69.1044 -34.4491 -68.63 -35.159Q-68.1556 -35.869 -67.6469 -36.5549Q-67.1383 -37.2407 -66.5966 -37.9008Q-66.0549 -38.5608 -65.4814 -39.1935Q-64.908 -39.8262 -64.3042 -40.43Q-63.7004 -41.0338 -63.0677 -41.6072Q-62.4351 -42.1807 -61.775 -42.7224Q-61.1149 -43.264 -60.4291 -43.7727Q-59.7432 -44.2814 -59.0333 -44.7558Q-58.3233 -45.2301 -57.5909 -45.6691Q-56.8585 -46.1081 -56.1054 -46.5106Q-55.3524 -46.9132 -54.5805 -47.2782Q-53.8086 -47.6433 -53.0197 -47.9701Q-52.2308 -48.2969 -51.4268 -48.5845Q-50.6228 -48.8722 -49.8057 -49.1201Q-48.9886 -49.3679 -48.1603 -49.5754Q-47.332 -49.7829 -46.4945 -49.9495Q-45.6571 -50.116 -44.8124 -50.2413Q-43.9678 -50.3666 -43.118 -50.4503Q-42.2682 -50.534 -41.4154 -50.5759Q-40.5625 -50.6178 -39.7086 -50.6178Q-38.8548 -50.6178 -38.0019 -50.5759Q-37.149 -50.534 -36.2993 -50.4503Q-35.4495 -50.3666 -34.6049 -50.2413Q-33.7602 -50.116 -32.9227 -49.9495Q-32.0853 -49.7829 -31.257 -49.5754Q-30.4287 -49.3679 -29.6116 -49.1201Q-28.7944 -48.8722 -27.9905 -48.5845Q-27.1865 -48.2969 -26.3976 -47.9701Q-25.6087 -47.6433 -24.8368 -47.2782Q-24.0649 -46.9132 -23.3119 -46.5106Q-22.5588 -46.1081 -21.8264 -45.6691Q-21.094 -45.2301 -20.384 -44.7558Q-19.674 -44.2814 -18.9882 -43.7727Q-18.3023 -43.264 -17.6423 -42.7224Q-16.9822 -42.1807 -16.3495 -41.6072Q-15.7169 -41.0338 -15.1131 -40.43Q-14.5093 -39.8262 -13.9358 -39.1935Q-13.3624 -38.5608 -12.8207 -37.9008Q-12.279 -37.2407 -11.7704 -36.5549Q-11.2617 -35.869 -10.7873 -35.159Q-10.3129 -34.4491 -9.87393 -33.7167Q-9.43494 -32.9843 -9.03243 -32.2312Q-8.62991 -31.4781 -8.26482 -30.7062Q-7.89974 -29.9343 -7.57297 -29.1454Q-7.24621 -28.3566 -6.95854 -27.5526Q-6.67088 -26.7486 -6.42301 -25.9315Q-6.17514 -25.1144 -5.96766 -24.2861Q-5.76018 -23.4578 -5.5936 -22.6203Q-5.42702 -21.7828 -5.30172 -20.9382Q-5.17643 -20.0936 -5.09274 -19.2438Q-5.00904 -18.394 -4.96714 -17.5412Q-4.92525 -16.6883 -4.92525 -15.8344Z" fill-rule="evenodd"/>
	<path fill="none" stroke="black" stroke-width="2.3999999" stroke-linejoin="round" transform="translate(55 79.2857)" d="M-21.7216 -6.4323Q-21.3603 -5.76824 -20.8916 -4.79656Q-20.4179 -3.82977 -19.9101 -2.69695Q-19.4023 -1.56902 -18.9043 -0.387383Q-18.4013 0.789375 -17.9619 1.82941Q-17.5175 0.789375 -17.0195 -0.387383Q-16.5215 -1.56902 -16.0136 -2.69695Q-15.5009 -3.82977 -15.0322 -4.79656Q-14.5586 -5.76824 -14.2021 -6.4323L-11.3603 -6.4323Q-11.1601 -5.05047 -10.9892 -3.3366Q-10.8183 -1.62762 -10.6914 0.222969Q-10.5595 2.06867 -10.4521 3.92902Q-10.3398 5.78937 -10.2617 7.43L-13.2988 7.43Q-13.3623 5.40852 -13.4599 3.03059Q-13.5576 0.647773 -13.7578 -1.76922Q-14.1191 -0.929375 -14.5586 0.0911326Q-14.998 1.11164 -15.4326 2.13215Q-15.8623 3.14777 -16.2627 4.08039Q-16.6582 5.00812 -16.9414 5.67219L-19.1191 5.67219Q-19.4023 5.00812 -19.8027 4.08039Q-20.1982 3.14777 -20.6279 2.13215Q-21.0576 1.11164 -21.5019 0.0911326Q-21.9414 -0.929375 -22.2978 -1.76922Q-22.498 0.647773 -22.6006 3.03059Q-22.6982 5.40852 -22.7617 7.43L-25.7988 7.43Q-25.7207 5.78937 -25.6133 3.92902Q-25.5009 2.06867 -25.374 0.222969Q-25.2422 -1.62762 -25.0713 -3.3366Q-24.9004 -5.05047 -24.7002 -6.4323L-21.7216 -6.4323ZM2.18025 2.15168Q2.18025 3.39191 1.81892 4.42219Q1.4576 5.44758 0.778885 6.18Q0.100174 6.91242 -0.851974 7.31281Q-1.79924 7.70832 -2.98088 7.70832Q-4.13811 7.70832 -5.09026 7.31281Q-6.0424 6.91242 -6.72112 6.18Q-7.39983 5.44758 -7.78069 4.42219Q-8.16154 3.39191 -8.16154 2.15168Q-8.16154 0.911445 -7.77092 -0.109063Q-7.38029 -1.12957 -6.69182 -1.84734Q-5.99846 -2.57 -5.05119 -2.97039Q-4.09904 -3.37078 -2.98088 -3.37078Q-1.8383 -3.37078 -0.891037 -2.97039Q0.0611115 -2.57 0.739822 -1.84734Q1.41853 -1.12957 1.79939 -0.109063Q2.18025 0.911445 2.18025 2.15168ZM-0.86174 2.15168Q-0.86174 0.769844 -1.4135 -0.021172Q-1.96037 -0.812188 -2.98088 -0.812188Q-4.00139 -0.812188 -4.56291 -0.021172Q-5.11955 0.769844 -5.11955 2.15168Q-5.11955 3.52863 -4.56291 4.33918Q-4.00139 5.14973 -2.98088 5.14973Q-1.96037 5.14973 -1.4135 4.33918Q-0.86174 3.52863 -0.86174 2.15168ZM14.3202 2.15168Q14.3202 3.39191 13.9589 4.42219Q13.5976 5.44758 12.9189 6.18Q12.2402 6.91242 11.288 7.31281Q10.3407 7.70832 9.1591 7.70832Q8.00188 7.70832 7.04973 7.31281Q6.09758 6.91242 5.41887 6.18Q4.74016 5.44758 4.3593 4.42219Q3.97844 3.39191 3.97844 2.15168Q3.97844 0.911445 4.36906 -0.109063Q4.75969 -1.12957 5.44817 -1.84734Q6.14153 -2.57 7.08879 -2.97039Q8.04094 -3.37078 9.1591 -3.37078Q10.3017 -3.37078 11.2489 -2.97039Q12.2011 -2.57 12.8798 -1.84734Q13.5585 -1.12957 13.9394 -0.109063Q14.3202 0.911445 14.3202 2.15168ZM11.2782 2.15168Q11.2782 0.769844 10.7265 -0.021172Q10.1796 -0.812188 9.1591 -0.812188Q8.1386 -0.812188 7.57707 -0.021172Q7.02043 0.769844 7.02043 2.15168Q7.02043 3.52863 7.57707 4.33918Q8.1386 5.14973 9.1591 5.14973Q10.1796 5.14973 10.7265 4.33918Q11.2782 3.52863 11.2782 2.15168ZM16.6214 -2.73113Q17.3782 -2.95086 18.5794 -3.14129Q19.7805 -3.33172 21.0989 -3.33172Q22.4417 -3.33172 23.3303 -2.98016Q24.219 -2.62859 24.7366 -1.98895Q25.259 -1.3493 25.4788 -0.470391Q25.6985 0.408515 25.6985 1.48762L25.6985 7.43L22.72 7.43L22.72 1.84895Q22.72 0.408515 22.3391 -0.187188Q21.9583 -0.787774 20.9182 -0.787774Q20.6008 -0.787774 20.2395 -0.758477Q19.8782 -0.72918 19.5999 -0.690117L19.5999 7.43L16.6214 7.43L16.6214 -2.73113Z"/>
	<path fill="white" transform="translate(55 79.2857)" d="M-21.7216 -6.4323Q-21.3603 -5.76824 -20.8916 -4.79656Q-20.4179 -3.82977 -19.9101 -2.69695Q-19.4023 -1.56902 -18.9043 -0.387383Q-18.4013 0.789375 -17.9619 1.82941Q-17.5175 0.789375 -17.0195 -0.387383Q-16.5215 -1.56902 -16.0136 -2.69695Q-15.5009 -3.82977 -15.0322 -4.79656Q-14.5586 -5.76824 -14.2021 -6.4323L-11.3603 -6.4323Q-11.1601 -5.05047 -10.9892 -3.3366Q-10.8183 -1.62762 -10.6914 0.222969Q-10.5595 2.06867 -10.4521 3.92902Q-10.3398 5.78937 -10.2617 7.43L-13.2988 7.43Q-13.3623 5.40852 -13.4599 3.03059Q-13.5576 0.647773 -13.7578 -1.76922Q-14.1191 -0.929375 -14.5586 0.0911326Q-14.998 1.11164 -15.4326 2.13215Q-15.8623 3.14777 -16.2627 4.08039Q-16.6582 5.00812 -16.9414 5.67219L-19.1191 5.67219Q-19.4023 5.00812 -19.8027 4.08039Q-20.1982 3.14777 -20.6279 2.13215Q-21.0576 1.11164 -21.5019 0.0911326Q-21.9414 -0.929375 -22.2978 -1.76922Q-22.498 0.647773 -22.6006 3.03059Q-22.6982 5.40852 -22.7617 7.43L-25.7988 7.43Q-25.7207 5.78937 -25.6133 3.92902Q-25.5009 2.06867 -25.374 0.222969Q-25.2422 -1.62762 -25.0713 -3.3366Q-24.9004 -5.05047 -24.7002 -6.4323L-21.7216 -6.4323ZM2.18025 2.15168Q2.18025 3.39191 1.81892 4.42219Q1.4576 5.44758 0.778885 6.18Q0.100174 6.91242 -0.851974 7.31281Q-1.79924 7.70832 -2.98088 7.70832Q-4.13811 7.70832 -5.09026 7.31281Q-6.0424 6.91242 -6.72112 6.18Q-7.39983 5.44758 -7.78069 4.42219Q-8.16154 3.39191 -8.16154 2.15168Q-8.16154 0.911445 -7.77092 -0.109063Q-7.38029 -1.12957 -6.69182 -1.84734Q-5.99846 -2.57 -5.05119 -2.97039Q-4.09904 -3.37078 -2.98088 -3.37078Q-1.8383 -3.37078 -0.891037 -2.97039Q0.0611115 -2.57 0.739822 -1.84734Q1.41853 -1.12957 1.79939 -0.109063Q2.18025 0.911445 2.18025 2.15168ZM-0.86174 2.15168Q-0.86174 0.769844 -1.4135 -0.021172Q-1.96037 -0.812188 -2.98088 -0.812188Q-4.00139 -0.812188 -4.56291 -0.021172Q-5.11955 0.769844 -5.11955 2.15168Q-5.11955 3.52863 -4.56291 4.33918Q-4.00139 5.14973 -2.98088 5.14973Q-1.96037 5.14973 -1.4135 4.33918Q-0.86174 3.52863 -0.86174 2.15168ZM14.3202 2.15168Q14.3202 3.39191 13.9589 4.42219Q13.5976 5.44758 12.9189 6.18Q12.2402 6.91242 11.288 7.31281Q10.3407 7.70832 9.1591 7.70832Q8.00188 7.70832 7.04973 7.31281Q6.09758 6.91242 5.41887 6.18Q4.74016 5.44758 4.3593 4.42219Q3.97844 3.39191 3.97844 2.15168Q3.97844 0.911445 4.36906 -0.109063Q4.75969 -1.12957 5.44817 -1.84734Q6.14153 -2.57 7.08879 -2.97039Q8.04094 -3.37078 9.1591 -3.37078Q10.3017 -3.37078 11.2489 -2.97039Q12.2011 -2.57 12.8798 -1.84734Q13.5585 -1.12957 13.9394 -0.109063Q14.3202 0.911445 14.3202 2.15168ZM11.2782 2.15168Q11.2782 0.769844 10.7265 -0.021172Q10.1796 -0.812188 9.1591 -0.812188Q8.1386 -0.812188 7.57707 -0.021172Q7.02043 0.769844 7.02043 2.15168Q7.02043 3.52863 7.57707 4.33918Q8.1386 5.14973 9.1591 5.14973Q10.1796 5.14973 10.7265 4.33918Q11.2782 3.52863 11.2782 2.15168ZM16.6214 -2.73113Q17.3782 -2.95086 18.5794 -3.14129Q19.7805 -3.33172 21.0989 -3.33172Q22.4417 -3.33172 23.3303 -2.98016Q24.219 -2.62859 24.7366 -1.98895Q25.259 -1.3493 25.4788 -0.470391Q25.6985 0.408515 25.6985 1.48762L25.6985 7.43L22.72 7.43L22.72 1.84895Q22.72 0.408515 22.3391 -0.187188Q21.9583 -0.787774 20.9182 -0.787774Q20.6008 -0.787774 20.2395 -0.758477Q19.8782 -0.72918 19.5999 -0.690117L19.5999 7.43L16.6214 7.43L16.6214 -2.73113Z"/>
</svg>
