<?xml version="1.0" encoding="utf-8" ?>
<svg xmlns="http://www.w3.org/2000/svg" xmlns:xlink="http://www.w3.org/1999/xlink" width="110" height="110">
	<path fill="#6D6D6D" transform="matrix(0.124376 0.0124792 -0.0124792 0.124376 55 47.8571)" d="M171.429 0Q171.429 4.20833 171.222 8.4116Q171.016 12.6149 170.603 16.8029Q170.191 20.991 169.573 25.1538Q168.956 29.3166 168.135 33.444Q167.314 37.5715 166.291 41.6537Q165.269 45.736 164.047 49.7631Q162.825 53.7902 161.408 57.7525Q159.99 61.7149 158.379 65.6029Q156.769 69.4909 154.97 73.2952Q153.17 77.0994 151.186 80.8109Q149.203 84.5223 147.039 88.1319Q144.876 91.7415 142.538 95.2406Q140.2 98.7397 137.693 102.12Q135.186 105.5 132.516 108.753Q129.846 112.006 127.02 115.124Q124.194 118.243 121.218 121.218Q118.243 124.194 115.124 127.02Q112.006 129.846 108.753 132.516Q105.5 135.186 102.12 137.693Q98.7397 140.2 95.2406 142.538Q91.7415 144.876 88.1319 147.039Q84.5223 149.203 80.8109 151.186Q77.0994 153.17 73.2952 154.97Q69.4909 156.769 65.6029 158.379Q61.7149 159.99 57.7525 161.408Q53.7902 162.825 49.7631 164.047Q45.736 165.269 41.6537 166.291Q37.5715 167.314 33.444 168.135Q29.3166 168.956 25.1538 169.573Q20.991 170.191 16.8029 170.603Q12.6149 171.016 8.4116 171.222Q4.20833 171.429 0 171.429Q-4.20833 171.429 -8.4116 171.222Q-12.6149 171.016 -16.8029 170.603Q-20.991 170.191 -25.1538 169.573Q-29.3166 168.956 -33.444 168.135Q-37.5715 167.314 -41.6537 166.291Q-45.736 165.269 -49.7631 164.047Q-53.7902 162.825 -57.7525 161.408Q-61.7149 159.99 -65.6029 158.379Q-69.4909 156.769 -73.2952 154.97Q-77.0994 153.17 -80.8109 151.186Q-84.5223 149.203 -88.1319 147.039Q-91.7415 144.876 -95.2406 142.538Q-98.7397 140.2 -102.12 137.693Q-105.5 135.186 -108.753 132.516Q-112.006 129.846 -115.124 127.02Q-118.243 124.194 -121.218 121.218Q-124.194 118.243 -127.02 115.124Q-129.846 112.006 -132.516 108.753Q-135.186 105.5 -137.693 102.12Q-140.2 98.7397 -142.538 95.2406Q-144.876 91.7415 -147.039 88.1319Q-149.203 84.5223 -151.186 80.8109Q-153.17 77.0994 -154.97 73.2952Q-156.769 69.4909 -158.379 65.6029Q-159.99 61.7149 -161.408 57.7525Q-162.825 53.7902 -164.047 49.7631Q-165.269 45.736 -166.291 41.6537Q-167.314 37.5715 -168.135 33.444Q-168.956 29.3166 -169.573 25.1538Q-170.191 20.991 -170.603 16.8029Q-171.016 12.6149 -171.222 8.4116Q-171.429 4.20833 -171.429 0Q-171.429 -4.20833 -171.222 -8.4116Q-171.016 -12.6149 -170.603 -16.8029Q-170.191 -20.991 -169.573 -25.1538Q-168.956 -29.3166 -168.135 -33.444Q-167.314 -37.5715 -166.291 -41.6537Q-165.269 -45.736 -164.047 -49.7631Q-162.825 -53.7902 -161.408 -57.7525Q-159.99 -61.7149 -158.379 -65.6029Q-156.769 -69.4909 -154.97 -73.2952Q-153.17 -77.0994 -151.186 -80.8109Q-149.203 -84.5223 -147.039 -88.1319Q-144.876 -91.7415 -142.538 -95.2406Q-140.2 -98.7397 -137.693 -102.12Q-135.186 -105.5 -132.516 -108.753Q-129.846 -112.006 -127.02 -115.124Q-124.194 -118.243 -121.218 -121.218Q-118.243 -124.194 -115.124 -127.02Q-112.006 -129.846 -108.753 -132.516Q-105.5 -135.186 -102.12 -137.693Q-98.7397 -140.2 -95.2406 -142.538Q-91.7415 -144.876 -88.1319 -147.039Q-84.5223 -149.203 -80.8109 -151.186Q-77.0994 -153.17 -73.2952 -154.97Q-69.4909 -156.769 -65.6029 -158.379Q-61.7149 -159.99 -57.7525 -161.408Q-53.7902 -162.825 -49.7631 -164.047Q-45.736 -165.269 -41.6537 -166.291Q-37.5715 -167.314 -33.444 -168.135Q-29.3166 -168.956 -25.1538 -169.573Q-20.991 -170.191 -16.8029 -170.603Q-12.6149 -171.016 -8.4116 -171.222Q-4.20833 -171.429 0 -171.429Q4.20833 -171.429 8.4116 -171.222Q12.6149 -171.016 16.8029 -170.603Q20.991 -170.191 25.1538 -169.573Q29.3166 -168.956 33.444 -168.135Q37.5715 -167.314 41.6537 -166.291Q45.736 -165.269 49.7631 -164.047Q53.7902 -162.825 57.7525 -161.408Q61.7149 -159.99 65.6029 -158.379Q69.4909 -156.769 73.2952 -154.97Q77.0994 -153.17 80.8109 -151.186Q84.5223 -149.203 88.1319 -147.039Q91.7415 -144.876 95.2406 -142.538Q98.7397 -140.2 102.12 -137.693Q105.5 -135.186 108.753 -132.516Q112.006 -129.846 115.124 -127.02Q118.243 -124.194 121.218 -121.218Q124.194 -118.243 127.02 -115.124Q129.846 -112.006 132.516 -108.753Q135.186 -105.5 137.693 -102.12Q140.2 -98.7397 142.538 -95.2406Q144.876 -91.7415 147.039 -88.1319Q149.203 -84.5223 151.186 -80.8109Q153.17 -77.0994 154.97 -73.2952Q156.769 -69.4909 158.379 -65.6029Q159.99 -61.7149 161.408 -57.7525Q162.825 -53.7902 164.047 -49.7631Q165.269 -45.736 166.291 -41.6537Q167.314 -37.5715 168.135 -33.444Q168.956 -29.3166 169.573 -25.1538Q170.191 -20.991 170.603 -16.8029Q171.016 -12.6149 171.222 -8.4116Q171.429 -4.20833 171.429 0"/>
	<path fill="#878787" transform="matrix(0.124376 0.0124792 -0.0124792 0.124376 55 47.8571)" d="M166.429 0Q166.429 4.08559 166.228 8.16626Q166.028 12.2469 165.627 16.3129Q165.227 20.3788 164.627 24.4201Q164.028 28.4615 163.231 32.4686Q162.434 36.4757 161.441 40.4388Q160.448 44.402 159.262 48.3117Q158.076 52.2213 156.7 56.0681Q155.323 59.9149 153.76 63.6894Q152.196 67.464 150.45 71.1574Q148.703 74.8507 146.777 78.4539Q144.851 82.0571 142.751 85.5614Q140.65 89.0657 138.38 92.4627Q136.11 95.8598 133.677 99.1414Q131.243 102.423 128.651 105.581Q126.059 108.739 123.315 111.767Q120.572 114.794 117.683 117.683Q114.794 120.572 111.767 123.315Q108.739 126.059 105.581 128.651Q102.423 131.243 99.1414 133.677Q95.8598 136.11 92.4628 138.38Q89.0657 140.65 85.5614 142.751Q82.0571 144.851 78.4539 146.777Q74.8507 148.703 71.1574 150.45Q67.464 152.196 63.6894 153.76Q59.9149 155.323 56.0681 156.7Q52.2213 158.076 48.3117 159.262Q44.402 160.448 40.4388 161.441Q36.4757 162.434 32.4686 163.231Q28.4615 164.028 24.4201 164.627Q20.3788 165.227 16.3129 165.627Q12.2469 166.028 8.16626 166.228Q4.08559 166.429 0 166.429Q-4.08559 166.429 -8.16626 166.228Q-12.2469 166.028 -16.3129 165.627Q-20.3788 165.227 -24.4201 164.627Q-28.4615 164.028 -32.4686 163.231Q-36.4757 162.434 -40.4388 161.441Q-44.402 160.448 -48.3117 159.262Q-52.2213 158.076 -56.0681 156.7Q-59.9149 155.323 -63.6894 153.76Q-67.464 152.196 -71.1574 150.45Q-74.8507 148.703 -78.4539 146.777Q-82.0571 144.851 -85.5614 142.751Q-89.0657 140.65 -92.4627 138.38Q-95.8598 136.11 -99.1414 133.677Q-102.423 131.243 -105.581 128.651Q-108.739 126.059 -111.767 123.315Q-114.794 120.572 -117.683 117.683Q-120.572 114.794 -123.315 111.767Q-126.059 108.739 -128.651 105.581Q-131.243 102.423 -133.677 99.1414Q-136.11 95.8598 -138.38 92.4628Q-140.65 89.0657 -142.751 85.5614Q-144.851 82.0571 -146.777 78.4539Q-148.703 74.8507 -150.45 71.1574Q-152.196 67.464 -153.76 63.6894Q-155.323 59.9149 -156.7 56.0681Q-158.076 52.2213 -159.262 48.3117Q-160.448 44.402 -161.441 40.4388Q-162.434 36.4757 -163.231 32.4686Q-164.028 28.4615 -164.627 24.4201Q-165.227 20.3788 -165.627 16.3129Q-166.028 12.2469 -166.228 8.16626Q-166.429 4.08559 -166.429 0Q-166.429 -4.08559 -166.228 -8.16626Q-166.028 -12.2469 -165.627 -16.3129Q-165.227 -20.3788 -164.627 -24.4201Q-164.028 -28.4615 -163.231 -32.4686Q-162.434 -36.4757 -161.441 -40.4388Q-160.448 -44.402 -159.262 -48.3117Q-158.076 -52.2213 -156.7 -56.0681Q-155.323 -59.9149 -153.76 -63.6894Q-152.196 -67.464 -150.45 -71.1574Q-148.703 -74.8507 -146.777 -78.4539Q-144.851 -82.0571 -142.751 -85.5614Q-140.65 -89.0657 -138.38 -92.4627Q-136.11 -95.8598 -133.677 -99.1414Q-131.243 -102.423 -128.651 -105.581Q-126.059 -108.739 -123.315 -111.767Q-120.572 -114.794 -117.683 -117.683Q-114.794 -120.572 -111.767 -123.315Q-108.739 -126.059 -105.581 -128.651Q-102.423 -131.243 -99.1414 -133.677Q-95.8598 -136.11 -92.4628 -138.38Q-89.0657 -140.65 -85.5614 -142.751Q-82.0571 -144.851 -78.4539 -146.777Q-74.8507 -148.703 -71.1574 -150.45Q-67.464 -152.196 -63.6894 -153.76Q-59.9149 -155.323 -56.0681 -156.7Q-52.2213 -158.076 -48.3117 -159.262Q-44.402 -160.448 -40.4388 -161.441Q-36.4757 -162.434 -32.4686 -163.231Q-28.4615 -164.028 -24.4201 -164.627Q-20.3788 -165.227 -16.3129 -165.627Q-12.2469 -166.028 -8.16626 -166.228Q-4.08559 -166.429 0 -166.429Q4.08559 -166.429 8.16626 -166.228Q12.2469 -166.028 16.3129 -165.627Q20.3788 -165.227 24.4201 -164.627Q28.4615 -164.028 32.4686 -163.231Q36.4757 -162.434 40.4388 -161.441Q44.402 -160.448 48.3117 -159.262Q52.2213 -158.076 56.0681 -156.7Q59.9149 -155.323 63.6894 -153.76Q67.464 -152.196 71.1574 -150.45Q74.8507 -148.703 78.4539 -146.777Q82.0571 -144.851 85.5614 -142.751Q89.0657 -140.65 92.4627 -138.38Q95.8598 -136.11 99.1414 -133.677Q102.423 -131.243 105.581 -128.651Q108.739 -126.059 111.767 -123.315Q114.794 -120.572 117.683 -117.683Q120.572 -114.794 123.315 -111.767Q126.059 -108.739 128.651 -105.581Q131.243 -102.423 133.677 -99.1414Q136.11 -95.8598 138.38 -92.4628Q140.65 -89.0657 142.751 -85.5614Q144.851 -82.0571 146.777 -78.4539Q148.703 -74.8507 150.45 -71.1574Q152.196 -67.464 153.76 -63.6894Q155.323 -59.9149 156.7 -56.0681Q158.076 -52.2213 159.262 -48.3117Q160.448 -44.402 161.441 -40.4388Q162.434 -36.4757 163.231 -32.4686Q164.028 -28.4615 164.627 -24.4201Q165.227 -20.3788 165.627 -16.3129Q166.028 -12.2469 166.228 -8.16626Q166.429 -4.08559 166.429 0"/>
	<path fill="#7C7C7C" transform="matrix(0.124376 0.0124792 -0.0124792 0.124376 55 47.8571)" d="M164.975 21.9447Q166.429 11.0205 166.429 0Q166.429 -8.07857 165.646 -16.1192Q164.864 -24.1597 163.306 -32.0868Q161.872 -32.2388 160.43 -32.2388Q159.76 -32.2388 159.091 -32.2059Q158.422 -32.1731 157.756 -32.1074Q157.089 -32.0418 156.427 -31.9435Q155.764 -31.8452 155.107 -31.7146Q154.45 -31.5839 153.801 -31.4212Q153.151 -31.2584 152.51 -31.064Q151.869 -30.8696 151.239 -30.644Q150.608 -30.4183 149.989 -30.162Q149.371 -29.9057 148.765 -29.6194Q148.16 -29.333 147.569 -29.0173Q146.978 -28.7016 146.404 -28.3573Q145.829 -28.013 145.273 -27.6409Q144.716 -27.2688 144.178 -26.8698Q143.64 -26.4709 143.122 -26.046Q142.604 -25.6211 142.108 -25.1713Q141.612 -24.7215 141.138 -24.248Q140.665 -23.7744 140.215 -23.2781Q139.765 -22.7819 139.34 -22.2642Q138.915 -21.7464 138.516 -21.2085Q138.117 -20.6706 137.745 -20.1137Q137.373 -19.5568 137.029 -18.9823Q136.685 -18.4079 136.369 -17.8172Q136.053 -17.2266 135.767 -16.6211Q135.48 -16.0157 135.224 -15.3969Q134.968 -14.7781 134.742 -14.1475Q134.517 -13.517 134.322 -12.876Q134.128 -12.2351 133.965 -11.5855Q133.802 -10.9358 133.672 -10.2789Q133.541 -9.62204 133.443 -8.95954Q133.344 -8.29705 133.279 -7.63053Q133.213 -6.96401 133.18 -6.29507Q133.147 -5.62613 133.147 -4.95638Q133.147 -4.28664 133.18 -3.6177Q133.213 -2.94876 133.279 -2.28224Q133.344 -1.61572 133.443 -0.953221Q133.541 -0.290724 133.672 0.366152Q133.802 1.02303 133.965 1.6727Q134.128 2.32238 134.322 2.96328Q134.517 3.60419 134.742 4.23479Q134.968 4.86538 135.224 5.48414Q135.48 6.10291 135.767 6.70835Q136.053 7.3138 136.369 7.90446Q136.685 8.49512 137.029 9.06958Q137.373 9.64404 137.745 10.2009Q138.117 10.7578 138.516 11.2957Q138.915 11.8337 139.34 12.3514Q139.765 12.8691 140.215 13.3654Q140.665 13.8616 141.138 14.3352Q141.612 14.8088 142.108 15.2586Q142.604 15.7083 143.122 16.1332Q143.64 16.5581 144.178 16.9571Q144.716 17.356 145.273 17.7281Q145.829 18.1002 146.404 18.4445Q146.978 18.7888 147.569 19.1046Q148.16 19.4203 148.765 19.7066Q149.371 19.993 149.989 20.2493Q150.608 20.5056 151.239 20.7312Q151.869 20.9568 152.51 21.1513Q153.151 21.3457 153.801 21.5084Q154.45 21.6711 155.107 21.8018Q155.764 21.9325 156.427 22.0307Q157.089 22.129 157.756 22.1947Q158.422 22.2603 159.091 22.2932Q159.76 22.326 160.43 22.326Q162.719 22.326 164.975 21.9447ZM130.208 103.655Q129.152 102.509 128.038 101.418Q126.925 100.328 125.756 99.2969Q124.587 98.2656 123.367 97.296Q122.147 96.3264 120.878 95.4211Q119.61 94.5157 118.296 93.6771Q116.982 92.8385 115.627 92.0688Q114.272 91.2992 112.879 90.6005Q111.485 89.9018 110.058 89.276Q108.631 88.6502 107.173 88.0989Q105.715 87.5476 104.231 87.0723Q102.746 86.597 101.24 86.1989Q99.7328 85.8009 98.2074 85.4812Q96.682 85.1615 95.1421 84.921Q93.6022 84.6804 92.052 84.5197Q90.5017 84.359 88.9453 84.2786Q87.3888 84.1981 85.8302 84.1981Q84.4339 84.1981 83.039 84.2627Q81.6442 84.3273 80.2538 84.4563Q78.8634 84.5854 77.4805 84.7786Q76.0976 84.9719 74.7251 85.2289Q73.3526 85.4859 71.9934 85.8061Q70.6343 86.1263 69.2914 86.509Q67.9485 86.8918 66.6248 87.3363Q65.3011 87.7807 63.9993 88.2859Q62.6976 88.7912 61.4206 89.3561Q60.1436 89.921 58.8941 90.5443Q57.6446 91.1677 56.4253 91.8482Q55.206 92.5287 54.0195 93.2649Q52.8329 94.0011 51.6817 94.7914Q50.5305 95.5816 49.4171 96.4243Q48.3037 97.267 47.2305 98.1603Q46.1572 99.0536 45.1265 99.9956Q44.0519 100.323 42.9904 100.691Q41.929 101.058 40.8823 101.466Q39.8355 101.874 38.805 102.321Q37.7744 102.768 36.7616 103.254Q35.7487 103.739 34.755 104.263Q33.7613 104.787 32.7881 105.348Q31.815 105.909 30.8638 106.507Q29.9126 107.104 28.9847 107.738Q28.0568 108.371 27.1536 109.039Q26.2504 109.707 25.3731 110.408Q24.4959 111.11 23.6458 111.844Q22.7958 112.579 21.9742 113.345Q21.1526 114.111 20.3606 114.907Q19.5686 115.704 18.8074 116.53Q18.0461 117.356 17.3168 118.211Q16.5874 119.065 15.8909 119.946Q16.5872 118.534 17.1176 117.051Q17.648 115.568 18.0055 114.034Q18.363 112.5 18.543 110.935Q18.7229 109.37 18.7229 107.795Q18.7229 107.121 18.6898 106.447Q18.6567 105.773 18.5906 105.101Q18.5244 104.43 18.4254 103.763Q18.3264 103.095 18.1948 102.434Q18.0632 101.772 17.8993 101.117Q17.7353 100.463 17.5395 99.8173Q17.3436 99.1716 17.1163 98.5364Q16.889 97.9012 16.6308 97.2778Q16.3727 96.6545 16.0842 96.0446Q15.7957 95.4347 15.4777 94.8397Q15.1596 94.2447 14.8128 93.666Q14.4659 93.0873 14.0911 92.5263Q13.7163 91.9653 13.3144 91.4234Q12.9125 90.8815 12.4844 90.36Q12.0564 89.8384 11.6033 89.3385Q11.1503 88.8386 10.6732 88.3616Q10.1961 87.8845 9.69621 87.4314Q9.1963 86.9783 8.67477 86.5503Q8.15323 86.1223 7.61132 85.7204Q7.06942 85.3185 6.50844 84.9436Q5.94746 84.5688 5.36877 84.222Q4.79008 83.8751 4.19506 83.5571Q3.60005 83.239 2.99014 82.9506Q2.38024 82.6621 1.75692 82.4039Q1.13359 82.1457 0.498351 81.9184Q-0.136891 81.6911 -0.78252 81.4953Q-1.42815 81.2994 -2.08261 81.1355Q-2.73707 80.9716 -3.39879 80.8399Q-4.0605 80.7083 -4.72788 80.6093Q-5.39526 80.5103 -6.06669 80.4442Q-6.73812 80.3781 -7.41199 80.345Q-8.08586 80.3119 -8.76054 80.3119Q-9.34435 80.3119 -9.92764 80.3367Q-10.5109 80.3615 -11.0926 80.411Q-11.6744 80.4605 -12.2534 80.5347Q-12.8325 80.6089 -13.4079 80.7076Q-13.9833 80.8064 -14.554 80.9294Q-15.1247 81.0525 -15.6897 81.1997Q-16.2546 81.3469 -16.8128 81.5179Q-17.371 81.689 -17.9215 81.8836Q-18.4719 82.0782 -19.0135 82.296Q-19.5552 82.5138 -20.0871 82.7544Q-20.6191 82.995 -21.1403 83.258Q-21.6615 83.521 -22.1711 83.8058Q-22.6807 84.0907 -23.1778 84.3969Q-23.6748 84.7032 -24.1584 85.0303Q-24.642 85.3574 -25.1112 85.7047Q-25.5805 86.052 -26.0346 86.419Q-26.4887 86.7859 -26.9268 87.1718Q-27.3648 87.5577 -27.7862 87.9619Q-28.2075 88.366 -28.6112 88.7877Q-29.015 89.2094 -29.4005 89.6478Q-29.786 90.0863 -30.1525 90.5407Q-30.5191 90.9951 -30.866 91.4647Q-31.2129 91.9342 -31.5395 92.4181Q-31.8662 92.902 -32.172 93.3993Q-32.4778 93.8966 -32.7622 94.4065Q-33.0466 94.9163 -33.3091 95.4378Q-33.5716 95.9593 -33.8117 96.4914Q-34.0518 97.0236 -34.2692 97.5654Q-34.4865 98.1073 -34.6806 98.6579Q-34.8747 99.2085 -35.0452 99.7669Q-35.2157 100.325 -35.3624 100.89Q-35.5091 101.455 -35.6317 102.026Q-40.079 101.302 -44.5848 101.302Q-45.6134 101.302 -46.6412 101.34Q-47.669 101.378 -48.6948 101.454Q-49.7205 101.53 -50.7427 101.644Q-51.765 101.757 -52.7823 101.909Q-53.7996 102.06 -54.8107 102.248Q-55.8218 102.437 -56.8252 102.663Q-57.8286 102.889 -58.8231 103.152Q-59.8175 103.414 -60.8015 103.714Q-61.7855 104.013 -62.7579 104.348Q-63.7302 104.684 -64.6895 105.054Q-65.6488 105.425 -66.5938 105.832Q-67.5387 106.238 -68.468 106.678Q-69.3974 107.119 -70.3098 107.594Q-71.2223 108.068 -72.1166 108.576Q-73.0109 109.085 -73.8858 109.625Q-74.7608 110.166 -75.6152 110.738Q-76.4696 111.311 -77.3023 111.915Q-78.135 112.518 -78.9449 113.152Q-79.7548 113.786 -80.5407 114.45Q-81.3266 115.113 -82.0875 115.805Q-82.8485 116.497 -83.5833 117.217Q-84.3182 117.937 -85.026 118.683Q-85.7338 119.429 -86.4137 120.201Q-87.0935 120.973 -87.7443 121.769Q-88.3952 122.566 -89.0163 123.385Q-89.6373 124.205 -90.2277 125.048Q-90.8181 125.89 -91.377 126.753Q-91.9359 127.617 -92.4625 128.5Q-92.9892 129.383 -93.4829 130.286Q-93.9767 131.188 -94.4368 132.108Q-94.8969 133.028 -95.3227 133.964Q-95.7486 134.9 -96.1396 135.852Q-93.5247 137.702 -90.8405 139.451Q-88.1564 141.199 -85.4069 142.843Q-82.6575 144.487 -79.8468 146.024Q-77.0361 147.561 -74.1684 148.988Q-71.3006 150.416 -68.3801 151.732Q-65.4595 153.048 -62.4905 154.251Q-59.5215 155.454 -56.5083 156.542Q-53.4952 157.629 -50.4425 158.6Q-47.3897 159.571 -44.3019 160.424Q-41.214 161.277 -38.0956 162.01Q-34.9773 162.743 -31.833 163.356Q-28.6887 163.969 -25.5232 164.46Q-22.3576 164.951 -19.1755 165.32Q-15.9934 165.689 -12.7995 165.936Q-9.60554 166.182 -6.40449 166.305Q-3.20343 166.429 0 166.429Q2.33654 166.429 4.67215 166.363Q7.00777 166.297 9.34062 166.166Q11.6735 166.035 14.0017 165.839Q16.33 165.642 18.6518 165.38Q20.9736 165.118 23.2872 164.791Q25.6007 164.464 27.9042 164.073Q30.2076 163.681 32.4992 163.225Q34.7907 162.768 37.0686 162.248Q39.3464 161.728 41.6088 161.143Q43.8711 160.559 46.1162 159.912Q48.3612 159.264 50.5872 158.554Q52.8132 157.844 55.0183 157.071Q57.2235 156.299 59.4061 155.465Q61.5887 154.631 63.7471 153.736Q65.9054 152.841 68.0378 151.886Q70.1702 150.931 72.2749 149.916Q74.3796 148.901 76.455 147.828Q78.5304 146.755 80.5748 145.623Q82.6193 144.492 84.6312 143.304Q86.643 142.116 88.6208 140.872Q90.5985 139.627 92.5405 138.328Q94.4826 137.029 96.3874 135.676Q98.2922 134.323 100.158 132.916Q102.024 131.51 103.85 130.052Q105.676 128.594 107.46 127.086Q109.244 125.577 110.985 124.019Q112.727 122.461 114.423 120.854Q116.12 119.248 117.771 117.594Q119.422 115.941 121.026 114.242Q122.63 112.543 124.185 110.799Q125.741 109.056 127.247 107.269Q128.753 105.483 130.208 103.655ZM-112.726 -122.439Q-108.603 -126.235 -104.234 -129.745Q-99.8653 -133.255 -95.2701 -136.463Q-90.6749 -139.671 -85.8744 -142.562Q-81.0738 -145.454 -76.0896 -148.016Q-75.4333 -147.258 -74.8471 -146.445Q-74.2609 -145.632 -73.7495 -144.769Q-73.2381 -143.907 -72.8056 -143.002Q-72.3731 -142.098 -72.0229 -141.158Q-71.6727 -140.219 -71.4075 -139.252Q-71.1424 -138.285 -70.9645 -137.299Q-70.7865 -136.312 -70.6972 -135.313Q-70.6079 -134.315 -70.6079 -133.312Q-70.6079 -132.761 -70.6349 -132.21Q-70.662 -131.659 -70.7161 -131.11Q-70.7701 -130.562 -70.851 -130.016Q-70.9319 -129.471 -71.0395 -128.93Q-71.1471 -128.389 -71.2811 -127.854Q-71.4151 -127.319 -71.5751 -126.792Q-71.7352 -126.264 -71.921 -125.745Q-72.1067 -125.225 -72.3177 -124.716Q-72.5288 -124.207 -72.7645 -123.708Q-73.0003 -123.21 -73.2602 -122.723Q-73.5202 -122.237 -73.8037 -121.764Q-74.0872 -121.291 -74.3935 -120.832Q-74.6999 -120.374 -75.0284 -119.931Q-75.3568 -119.488 -75.7067 -119.062Q-76.0565 -118.636 -76.4268 -118.227Q-76.7971 -117.819 -77.187 -117.429Q-77.5769 -117.039 -77.9855 -116.668Q-78.3941 -116.298 -78.8204 -115.948Q-79.2466 -115.598 -79.6895 -115.27Q-80.1324 -114.941 -80.5909 -114.635Q-81.0494 -114.329 -81.5224 -114.045Q-81.9954 -113.762 -82.4817 -113.502Q-82.968 -113.242 -83.4665 -113.006Q-83.965 -112.77 -84.4744 -112.559Q-84.9839 -112.348 -85.5031 -112.163Q-86.0223 -111.977 -86.5499 -111.817Q-87.0776 -111.657 -87.6125 -111.523Q-88.1474 -111.389 -88.6882 -111.281Q-89.2291 -111.174 -89.7745 -111.093Q-90.32 -111.012 -90.8688 -110.958Q-91.4175 -110.904 -91.9683 -110.877Q-92.5191 -110.849 -93.0705 -110.849Q-93.4445 -110.849 -93.8183 -110.862Q-94.1921 -110.874 -94.5653 -110.899Q-94.9384 -110.924 -95.3106 -110.961Q-95.6827 -110.999 -96.0534 -111.048Q-96.4241 -111.098 -96.793 -111.16Q-97.1618 -111.222 -97.5284 -111.296Q-97.8949 -111.37 -98.2588 -111.457Q-98.6227 -111.543 -98.9835 -111.642Q-99.3443 -111.74 -99.7017 -111.851Q-100.059 -111.961 -100.412 -112.083Q-100.766 -112.205 -101.115 -112.339Q-101.464 -112.473 -101.809 -112.619Q-102.153 -112.764 -102.493 -112.921Q-102.832 -113.078 -103.167 -113.246Q-103.501 -113.414 -103.829 -113.593Q-104.157 -113.773 -104.479 -113.963Q-104.802 -114.153 -105.117 -114.353Q-105.433 -114.554 -105.742 -114.765Q-106.051 -114.976 -106.352 -115.197Q-106.654 -115.418 -106.948 -115.649Q-107.242 -115.88 -107.528 -116.121Q-107.815 -116.362 -108.093 -116.612Q-108.371 -116.862 -108.64 -117.121Q-108.91 -117.38 -109.171 -117.648Q-109.431 -117.916 -109.683 -118.193Q-109.935 -118.47 -110.177 -118.754Q-110.42 -119.039 -110.652 -119.332Q-110.885 -119.625 -111.108 -119.925Q-111.331 -120.225 -111.544 -120.533Q-111.757 -120.841 -111.959 -121.155Q-112.161 -121.47 -112.353 -121.791Q-112.545 -122.112 -112.726 -122.439ZM-153.728 -63.7669Q-152.258 -67.3098 -150.627 -70.7812Q-148.996 -74.2526 -147.206 -77.6452Q-145.417 -81.0378 -143.473 -84.3444Q-141.529 -87.651 -139.435 -90.8645Q-137.341 -94.078 -135.101 -97.1916Q-132.861 -100.305 -130.48 -103.312Q-128.099 -106.319 -125.582 -109.214Q-123.065 -112.108 -120.417 -114.883Q-119.799 -114.705 -119.187 -114.503Q-118.576 -114.3 -117.974 -114.073Q-117.371 -113.846 -116.778 -113.595Q-116.186 -113.344 -115.603 -113.069Q-115.021 -112.794 -114.451 -112.496Q-113.88 -112.198 -113.322 -111.877Q-112.764 -111.556 -112.219 -111.213Q-111.674 -110.87 -111.144 -110.505Q-110.613 -110.14 -110.098 -109.754Q-109.582 -109.368 -109.083 -108.962Q-108.584 -108.555 -108.101 -108.129Q-107.619 -107.703 -107.154 -107.257Q-106.689 -106.812 -106.242 -106.348Q-105.796 -105.885 -105.368 -105.403Q-104.94 -104.922 -104.533 -104.424Q-104.125 -103.925 -103.738 -103.411Q-103.35 -102.897 -102.984 -102.367Q-102.618 -101.838 -102.273 -101.294Q-101.928 -100.75 -101.606 -100.193Q-101.283 -99.6356 -100.984 -99.0658Q-100.684 -98.4959 -100.408 -97.9144Q-100.131 -97.333 -99.8784 -96.7408Q-99.6256 -96.1487 -99.3969 -95.5469Q-99.1683 -94.945 -98.964 -94.3344Q-98.7598 -93.7238 -98.5804 -93.1055Q-98.401 -92.4872 -98.2466 -91.8621Q-98.0923 -91.237 -97.9633 -90.6063Q-97.8343 -89.9755 -97.7308 -89.34Q-97.6273 -88.7045 -97.5496 -88.0654Q-97.4719 -87.4263 -97.42 -86.7845Q-97.3681 -86.1428 -97.3421 -85.4995Q-97.3161 -84.8562 -97.3161 -84.2123Q-97.3161 -83.429 -97.3546 -82.6466Q-97.393 -81.8641 -97.4698 -81.0845Q-97.5466 -80.3049 -97.6615 -79.53Q-97.7765 -78.7551 -97.9293 -77.9868Q-98.0821 -77.2185 -98.2725 -76.4586Q-98.4628 -75.6987 -98.6902 -74.9491Q-98.9176 -74.1995 -99.1815 -73.4619Q-99.4454 -72.7243 -99.7452 -72.0006Q-100.045 -71.2768 -100.38 -70.5687Q-100.715 -69.8605 -101.084 -69.1696Q-101.453 -68.4788 -101.856 -67.8069Q-102.259 -67.1349 -102.694 -66.4836Q-103.129 -65.8322 -103.596 -65.203Q-104.063 -64.5738 -104.56 -63.9683Q-105.057 -63.3627 -105.583 -62.7823Q-106.109 -62.2018 -106.663 -61.6479Q-107.217 -61.094 -107.797 -60.5679Q-108.377 -60.0418 -108.983 -59.5449Q-109.589 -59.0479 -110.218 -58.5813Q-110.847 -58.1146 -111.498 -57.6794Q-112.15 -57.2442 -112.822 -56.8414Q-113.493 -56.4387 -114.184 -56.0694Q-114.875 -55.7002 -115.583 -55.3652Q-116.292 -55.0303 -117.015 -54.7305Q-117.739 -54.4307 -118.477 -54.1668Q-119.214 -53.9029 -119.964 -53.6755Q-120.713 -53.4481 -121.473 -53.2578Q-122.233 -53.0674 -123.002 -52.9146Q-123.77 -52.7618 -124.545 -52.6468Q-125.32 -52.5319 -126.099 -52.4551Q-126.879 -52.3783 -127.661 -52.3399Q-128.444 -52.3014 -129.227 -52.3014Q-130.1 -52.3014 -130.972 -52.3492Q-131.844 -52.3969 -132.712 -52.4923Q-133.58 -52.5876 -134.441 -52.7303Q-135.303 -52.873 -136.155 -53.0625Q-137.007 -53.2521 -137.848 -53.488Q-138.689 -53.7239 -139.515 -54.0054Q-140.342 -54.2869 -141.152 -54.6132Q-141.962 -54.9395 -142.752 -55.3096Q-143.543 -55.6797 -144.313 -56.0925Q-145.082 -56.5052 -145.828 -56.9595Q-146.574 -57.4137 -147.293 -57.9081Q-148.013 -58.4024 -148.705 -58.9353Q-149.396 -59.4683 -150.058 -60.0383Q-150.719 -60.6083 -151.349 -61.2136Q-151.978 -61.8189 -152.573 -62.4577Q-153.168 -63.0965 -153.728 -63.7669ZM-2.91029 -19.0013Q-2.91029 -17.903 -2.96419 -16.806Q-3.01808 -15.709 -3.12573 -14.616Q-3.23338 -13.523 -3.39454 -12.4366Q-3.55569 -11.3502 -3.76996 -10.2729Q-3.98423 -9.19574 -4.2511 -8.13035Q-4.51796 -7.06496 -4.83679 -6.01395Q-5.15561 -4.96293 -5.52562 -3.92883Q-5.89562 -2.89472 -6.31593 -1.88002Q-6.73623 -0.865316 -7.20582 0.127542Q-7.67541 1.1204 -8.19314 2.08902Q-8.71088 3.05764 -9.27553 3.99969Q-9.84017 4.94174 -10.4504 5.85495Q-11.0605 6.76816 -11.7148 7.65033Q-12.3691 8.53249 -13.0658 9.3815Q-13.7626 10.2305 -14.5002 11.0443Q-15.2377 11.8581 -16.0144 12.6347Q-16.791 13.4113 -17.6048 14.1489Q-18.4186 14.8865 -19.2676 15.5832Q-20.1166 16.28 -20.9987 16.9343Q-21.8809 17.5885 -22.7941 18.1987Q-23.7073 18.8089 -24.6494 19.3735Q-25.5914 19.9382 -26.56 20.4559Q-27.5287 20.9737 -28.5215 21.4432Q-29.5144 21.9128 -30.5291 22.3331Q-31.5438 22.7534 -32.5779 23.1234Q-33.612 23.4935 -34.663 23.8123Q-35.714 24.1311 -36.7794 24.398Q-37.8448 24.6648 -38.922 24.8791Q-39.9992 25.0934 -41.0856 25.2545Q-42.1721 25.4157 -43.2651 25.5233Q-44.3581 25.631 -45.4551 25.6849Q-46.5521 25.7388 -47.6504 25.7388Q-48.7487 25.7388 -49.8457 25.6849Q-50.9426 25.631 -52.0357 25.5233Q-53.1287 25.4157 -54.2151 25.2545Q-55.3015 25.0934 -56.3787 24.8791Q-57.4559 24.6648 -58.5213 24.398Q-59.5867 24.1311 -60.6377 23.8123Q-61.6887 23.4935 -62.7228 23.1234Q-63.757 22.7534 -64.7717 22.3331Q-65.7864 21.9128 -66.7792 21.4432Q-67.7721 20.9737 -68.7407 20.4559Q-69.7093 19.9382 -70.6514 19.3735Q-71.5934 18.8089 -72.5066 18.1987Q-73.4198 17.5885 -74.302 16.9343Q-75.1842 16.28 -76.0332 15.5832Q-76.8822 14.8865 -77.696 14.1489Q-78.5098 13.4113 -79.2864 12.6347Q-80.063 11.8581 -80.8006 11.0443Q-81.5381 10.2305 -82.2349 9.3815Q-82.9317 8.53249 -83.5859 7.65033Q-84.2402 6.76816 -84.8504 5.85495Q-85.4606 4.94174 -86.0252 3.99969Q-86.5898 3.05764 -87.1076 2.08902Q-87.6253 1.1204 -88.0949 0.127542Q-88.5645 -0.865316 -88.9848 -1.88002Q-89.4051 -2.89472 -89.7751 -3.92883Q-90.1451 -4.96293 -90.4639 -6.01395Q-90.7828 -7.06496 -91.0496 -8.13035Q-91.3165 -9.19574 -91.5308 -10.2729Q-91.745 -11.3502 -91.9062 -12.4366Q-92.0674 -13.523 -92.175 -14.616Q-92.2827 -15.709 -92.3365 -16.806Q-92.3904 -17.903 -92.3904 -19.0013Q-92.3904 -20.0996 -92.3365 -21.1966Q-92.2827 -22.2936 -92.175 -23.3866Q-92.0674 -24.4796 -91.9062 -25.566Q-91.745 -26.6525 -91.5308 -27.7297Q-91.3165 -28.8069 -91.0496 -29.8723Q-90.7828 -30.9376 -90.4639 -31.9887Q-90.1451 -33.0397 -89.7751 -34.0738Q-89.4051 -35.1079 -88.9848 -36.1226Q-88.5645 -37.1373 -88.0949 -38.1301Q-87.6253 -39.123 -87.1076 -40.0916Q-86.5898 -41.0602 -86.0252 -42.0023Q-85.4606 -42.9443 -84.8504 -43.8576Q-84.2402 -44.7708 -83.5859 -45.6529Q-82.9317 -46.5351 -82.2349 -47.3841Q-81.5381 -48.2331 -80.8006 -49.0469Q-80.063 -49.8607 -79.2864 -50.6373Q-78.5098 -51.4139 -77.696 -52.1515Q-76.8822 -52.8891 -76.0332 -53.5858Q-75.1842 -54.2826 -74.302 -54.9369Q-73.4198 -55.5911 -72.5066 -56.2013Q-71.5934 -56.8115 -70.6514 -57.3761Q-69.7093 -57.9408 -68.7407 -58.4585Q-67.7721 -58.9763 -66.7792 -59.4459Q-65.7863 -59.9154 -64.7716 -60.3357Q-63.7569 -60.756 -62.7228 -61.1261Q-61.6887 -61.4961 -60.6377 -61.8149Q-59.5867 -62.1337 -58.5213 -62.4006Q-57.4559 -62.6674 -56.3787 -62.8817Q-55.3015 -63.096 -54.2151 -63.2571Q-53.1287 -63.4183 -52.0357 -63.5259Q-50.9426 -63.6336 -49.8457 -63.6875Q-48.7487 -63.7414 -47.6504 -63.7414Q-46.5521 -63.7414 -45.4551 -63.6875Q-44.3581 -63.6336 -43.2651 -63.5259Q-42.1721 -63.4183 -41.0856 -63.2571Q-39.9992 -63.096 -38.922 -62.8817Q-37.8448 -62.6674 -36.7794 -62.4006Q-35.714 -62.1337 -34.663 -61.8149Q-33.612 -61.4961 -32.5779 -61.1261Q-31.5438 -60.756 -30.5291 -60.3357Q-29.5144 -59.9154 -28.5215 -59.4459Q-27.5287 -58.9763 -26.56 -58.4585Q-25.5914 -57.9408 -24.6494 -57.3761Q-23.7073 -56.8115 -22.7941 -56.2013Q-21.8809 -55.5911 -20.9987 -54.9369Q-20.1166 -54.2826 -19.2676 -53.5859Q-18.4186 -52.8891 -17.6048 -52.1515Q-16.791 -51.4139 -16.0144 -50.6373Q-15.2377 -49.8607 -14.5002 -49.0469Q-13.7626 -48.2331 -13.0658 -47.3841Q-12.3691 -46.5351 -11.7148 -45.6529Q-11.0605 -44.7708 -10.4504 -43.8576Q-9.84017 -42.9443 -9.27553 -42.0023Q-8.71088 -41.0602 -8.19314 -40.0916Q-7.67541 -39.123 -7.20582 -38.1301Q-6.73623 -37.1373 -6.31593 -36.1226Q-5.89562 -35.1079 -5.52562 -34.0738Q-5.15561 -33.0397 -4.83679 -31.9887Q-4.51796 -30.9376 -4.2511 -29.8723Q-3.98423 -28.8069 -3.76996 -27.7297Q-3.55569 -26.6525 -3.39454 -25.566Q-3.23338 -24.4796 -3.12573 -23.3866Q-3.01808 -22.2936 -2.96418 -21.1966Q-2.91029 -20.0996 -2.91029 -19.0013ZM11.4189 126.453Q8.7704 130.918 6.93824 135.775Q6.0569 133.64 5.00192 131.585Q6.78994 130.55 8.40326 129.26Q10.0166 127.97 11.4189 126.453Z" fill-rule="evenodd"/>
	<path fill="#999" transform="matrix(0.124376 0.0124792 -0.0124792 0.124376 55 47.8571)" d="M165.361 18.8201Q166.429 9.4403 166.429 0Q166.429 -7.28979 165.791 -14.5517Q165.154 -21.8135 163.884 -28.9919Q162.166 -29.2388 160.43 -29.2388Q159.834 -29.2388 159.238 -29.2095Q158.643 -29.1803 158.05 -29.1219Q157.457 -29.0634 156.867 -28.976Q156.277 -28.8885 155.693 -28.7722Q155.108 -28.6559 154.53 -28.5111Q153.951 -28.3662 153.381 -28.1932Q152.811 -28.0202 152.249 -27.8193Q151.688 -27.6185 151.137 -27.3904Q150.587 -27.1623 150.048 -26.9074Q149.509 -26.6526 148.983 -26.3716Q148.458 -26.0906 147.946 -25.7841Q147.435 -25.4776 146.939 -25.1465Q146.444 -24.8153 145.965 -24.4602Q145.486 -24.1051 145.025 -23.7269Q144.564 -23.3488 144.123 -22.9485Q143.681 -22.5481 143.26 -22.1266Q142.838 -21.7051 142.438 -21.2635Q142.037 -20.8218 141.659 -20.361Q141.281 -19.9002 140.926 -19.4214Q140.571 -18.9426 140.24 -18.447Q139.909 -17.9513 139.602 -17.44Q139.296 -16.9287 139.015 -16.403Q138.734 -15.8773 138.479 -15.3384Q138.224 -14.7996 137.996 -14.2489Q137.768 -13.6981 137.567 -13.1369Q137.366 -12.5756 137.193 -12.0052Q137.02 -11.4348 136.875 -10.8565Q136.73 -10.2783 136.614 -9.69365Q136.498 -9.109 136.41 -8.51935Q136.323 -7.92971 136.264 -7.33648Q136.206 -6.74325 136.177 -6.14786Q136.147 -5.55248 136.147 -4.95638Q136.147 -4.36028 136.177 -3.7649Q136.206 -3.16952 136.264 -2.57629Q136.323 -1.98306 136.41 -1.39341Q136.498 -0.803765 136.614 -0.219119Q136.73 0.365527 136.875 0.943762Q137.02 1.522 137.193 2.09243Q137.366 2.66286 137.567 3.22411Q137.768 3.78537 137.996 4.33609Q138.224 4.88682 138.479 5.42569Q138.734 5.96455 139.015 6.49027Q139.296 7.01598 139.602 7.52727Q139.909 8.03856 140.24 8.5342Q140.571 9.02984 140.926 9.50863Q141.281 9.98742 141.659 10.4482Q142.037 10.909 142.438 11.3507Q142.838 11.7924 143.26 12.2139Q143.681 12.6354 144.123 13.0357Q144.564 13.436 145.025 13.8142Q145.486 14.1923 145.965 14.5474Q146.444 14.9025 146.939 15.2337Q147.435 15.5649 147.946 15.8713Q148.458 16.1778 148.983 16.4588Q149.509 16.7398 150.048 16.9947Q150.587 17.2495 151.137 17.4776Q151.688 17.7058 152.249 17.9066Q152.811 18.1074 153.381 18.2804Q153.951 18.4535 154.53 18.5983Q155.108 18.7432 155.693 18.8594Q156.277 18.9757 156.867 19.0632Q157.457 19.1507 158.05 19.2091Q158.643 19.2675 159.238 19.2968Q159.834 19.326 160.43 19.326Q162.921 19.326 165.361 18.8201ZM128.297 106.011Q127.293 104.904 126.232 103.851Q125.172 102.797 124.057 101.801Q122.943 100.804 121.779 99.8671Q120.614 98.9299 119.403 98.0547Q118.191 97.1795 116.935 96.3686Q115.68 95.5577 114.383 94.8133Q113.087 94.0689 111.754 93.3931Q110.421 92.7173 109.054 92.1119Q107.687 91.5064 106.291 90.973Q104.895 90.4396 103.472 89.9797Q102.05 89.5198 100.606 89.1346Q99.1615 88.7494 97.6992 88.44Q96.2368 88.1306 94.7603 87.8978Q93.2837 87.665 91.7971 87.5094Q90.3104 87.3539 88.8177 87.276Q87.325 87.1981 85.8302 87.1981Q84.4821 87.1981 83.1354 87.2615Q81.7887 87.3248 80.4465 87.4514Q79.1043 87.578 77.7695 87.7675Q76.4347 87.9571 75.1103 88.2091Q73.7859 88.4612 72.4748 88.7752Q71.1637 89.0892 69.8688 89.4645Q68.5739 89.8398 67.2981 90.2756Q66.0223 90.7113 64.7684 91.2066Q63.5145 91.7018 62.2852 92.2554Q61.0559 92.809 59.854 93.4198Q58.6522 94.0306 57.4803 94.6972Q56.3085 95.3638 55.1692 96.0847Q54.03 96.8056 52.9259 97.5793Q51.8219 98.353 50.7554 99.1777Q49.6889 100.002 48.6623 100.876Q47.6357 101.75 46.6514 102.672Q45.7199 102.943 44.7983 103.246Q43.8767 103.55 42.9662 103.885Q42.0556 104.22 41.1571 104.586Q40.2586 104.952 39.3733 105.349Q38.488 105.746 37.6169 106.173Q36.7457 106.6 35.8899 107.057Q35.034 107.514 34.1944 108Q33.3548 108.487 32.5324 109.002Q31.7101 109.516 30.906 110.059Q30.1019 110.602 29.317 111.173Q28.5321 111.743 27.7673 112.34Q27.0025 112.937 26.2588 113.56Q25.515 114.183 24.7932 114.831Q24.0714 115.48 23.3723 116.153Q22.6733 116.825 21.9978 117.522Q21.3224 118.218 20.6714 118.938Q20.0204 119.657 19.3945 120.399Q18.7687 121.14 18.1688 121.903Q17.5689 122.665 16.9957 123.448Q16.4224 124.231 15.8765 125.033Q15.3305 125.835 14.8126 126.655Q14.2946 127.476 13.8053 128.313Q13.3159 129.151 12.8557 130.005Q12.3955 130.859 11.9651 131.729Q11.5346 132.598 11.1344 133.482Q10.7341 134.366 10.3646 135.263Q9.99508 136.16 9.6567 137.07Q9.31832 137.979 9.01149 138.899Q8.70466 139.82 8.42974 140.75Q8.15483 141.681 7.91215 142.62Q7.66947 143.56 7.45933 144.507Q7.24918 145.454 7.07182 146.408Q6.63467 144.284 6.02472 142.204Q5.41477 140.124 4.63613 138.1Q3.85749 136.077 2.91542 134.125Q1.97335 132.172 0.874202 130.303Q1.28443 130.128 1.688 129.937Q2.09156 129.747 2.48791 129.542Q2.88426 129.337 3.27288 129.117Q3.6615 128.898 4.04187 128.665Q4.42224 128.431 4.79385 128.184Q5.16547 127.937 5.52783 127.677Q5.89019 127.417 6.24283 127.143Q6.59546 126.87 6.9379 126.584Q7.28033 126.297 7.61211 125.999Q7.9439 125.701 8.26458 125.39Q8.58527 125.08 8.89444 124.758Q9.2036 124.436 9.50084 124.104Q9.79808 123.771 10.083 123.427Q10.3679 123.084 10.6401 122.73Q10.9123 122.377 11.1714 122.013Q11.4306 121.65 11.6763 121.278Q11.922 120.905 12.154 120.524Q12.386 120.143 12.604 119.753Q12.8219 119.364 13.0255 118.967Q13.2292 118.57 13.4182 118.166Q13.6072 117.761 13.7813 117.351Q13.9555 116.94 14.1146 116.523Q14.2736 116.106 14.4174 115.683Q14.5612 115.261 14.6894 114.834Q14.8177 114.406 14.9303 113.974Q15.043 113.543 15.1398 113.107Q15.2366 112.671 15.3175 112.233Q15.3983 111.794 15.4632 111.352Q15.528 110.911 15.5767 110.467Q15.6254 110.024 15.6579 109.578Q15.6904 109.133 15.7066 108.687Q15.7229 108.242 15.7229 107.795Q15.7229 107.194 15.6934 106.594Q15.6639 105.994 15.605 105.395Q15.5461 104.797 15.4579 104.203Q15.3697 103.608 15.2525 103.019Q15.1352 102.429 14.9892 101.846Q14.8431 101.263 14.6686 100.688Q14.4942 100.113 14.2917 99.5471Q14.0892 98.9812 13.8592 98.4259Q13.6292 97.8706 13.3722 97.3273Q13.1152 96.7839 12.8319 96.2539Q12.5486 95.7238 12.2396 95.2083Q11.9306 94.6927 11.5967 94.193Q11.2628 93.6933 10.9047 93.2105Q10.5467 92.7278 10.1654 92.2632Q9.78412 91.7986 9.38049 91.3532Q8.97686 90.9079 8.55186 90.4829Q8.12687 90.0579 7.68153 89.6543Q7.23619 89.2506 6.77159 88.8693Q6.30698 88.488 5.82423 88.13Q5.34147 87.772 4.84173 87.438Q4.34199 87.1041 3.82646 86.7951Q3.31094 86.4861 2.78087 86.2028Q2.25081 85.9195 1.70748 85.6625Q1.16415 85.4055 0.608865 85.1755Q0.0535819 84.9455 -0.512319 84.7431Q-1.07822 84.5406 -1.65337 84.3661Q-2.22853 84.1916 -2.81155 84.0456Q-3.39457 83.8996 -3.98406 83.7823Q-4.57354 83.665 -5.16807 83.5769Q-5.7626 83.4887 -6.36074 83.4298Q-6.95888 83.3708 -7.55919 83.3413Q-8.15951 83.3119 -8.76054 83.3119Q-9.32656 83.3119 -9.89198 83.338Q-10.4574 83.3642 -11.021 83.4164Q-11.5846 83.4687 -12.1452 83.5469Q-12.7058 83.6252 -13.2621 83.7293Q-13.8185 83.8333 -14.3695 83.963Q-14.9205 84.0927 -15.4648 84.2477Q-16.0092 84.4026 -16.5459 84.5826Q-17.0825 84.7626 -17.6103 84.9672Q-18.138 85.1718 -18.6558 85.4006Q-19.1735 85.6293 -19.6801 85.8818Q-20.1867 86.1342 -20.6811 86.4098Q-21.1755 86.6854 -21.6566 86.9835Q-22.1378 87.2817 -22.6046 87.6017Q-23.0715 87.9218 -23.523 88.2631Q-23.9746 88.6044 -24.4099 88.9661Q-24.8452 89.3279 -25.2633 89.7095Q-25.6814 90.091 -26.0815 90.4914Q-26.4815 90.8918 -26.8626 91.3103Q-27.2437 91.7288 -27.6051 92.1645Q-27.9664 92.6002 -28.3073 93.0521Q-28.6481 93.5039 -28.9677 93.9711Q-29.2873 94.4383 -29.585 94.9197Q-29.8827 95.4011 -30.1578 95.8958Q-30.4328 96.3905 -30.6848 96.8973Q-30.9367 97.4042 -31.165 97.9222Q-31.3932 98.4401 -31.5973 98.9681Q-31.8014 99.496 -31.9809 100.033Q-32.1603 100.57 -32.3148 101.114Q-32.4692 101.659 -32.5983 102.21Q-32.7275 102.761 -32.831 103.317Q-32.9345 103.874 -33.0122 104.435Q-33.0899 104.995 -33.1416 105.559Q-38.7943 104.302 -44.5848 104.302Q-45.5683 104.302 -46.5512 104.339Q-47.534 104.376 -48.5148 104.449Q-49.4955 104.522 -50.4729 104.632Q-51.4502 104.742 -52.4228 104.888Q-53.3954 105.034 -54.3619 105.217Q-55.3283 105.399 -56.2873 105.617Q-57.2463 105.835 -58.1965 106.089Q-59.1467 106.343 -60.0868 106.632Q-61.0268 106.921 -61.9555 107.245Q-62.8841 107.569 -63.8 107.927Q-64.7159 108.286 -65.6178 108.678Q-66.5197 109.07 -67.4064 109.496Q-68.293 109.921 -69.1632 110.38Q-70.0334 110.838 -70.8859 111.329Q-71.7384 111.819 -72.572 112.341Q-73.4056 112.863 -74.2191 113.415Q-75.0327 113.968 -75.8251 114.551Q-76.6175 115.133 -77.3876 115.745Q-78.1578 116.357 -78.9045 116.997Q-79.6513 117.637 -80.3737 118.304Q-81.0961 118.971 -81.7931 119.665Q-82.4902 120.359 -83.1608 121.079Q-83.8315 121.798 -84.4749 122.542Q-85.1182 123.286 -85.7334 124.053Q-86.3486 124.82 -86.9348 125.61Q-87.5209 126.4 -88.0772 127.211Q-88.6335 128.022 -89.1592 128.853Q-89.6849 129.685 -90.1792 130.535Q-90.6735 131.385 -91.1358 132.253Q-91.5981 133.121 -92.0277 134.006Q-92.4573 134.891 -92.8536 135.791Q-93.2499 136.691 -93.6124 137.605Q-91.0432 139.353 -88.4106 141.004Q-85.7781 142.654 -83.0857 144.206Q-80.3934 145.757 -77.645 147.206Q-74.8966 148.656 -72.096 150.002Q-69.2954 151.348 -66.4465 152.589Q-63.5977 153.829 -60.7045 154.963Q-57.8113 156.096 -54.8778 157.121Q-51.9443 158.145 -48.9746 159.06Q-46.0049 159.974 -43.0032 160.777Q-40.0014 161.58 -36.9718 162.27Q-33.9422 162.96 -30.8889 163.537Q-27.8356 164.114 -24.763 164.576Q-21.6903 165.038 -18.6025 165.386Q-15.5147 165.733 -12.4161 165.965Q-9.31747 166.197 -6.21237 166.313Q-3.10727 166.429 0 166.429Q2.28913 166.429 4.57739 166.366Q6.86565 166.303 9.15132 166.177Q11.437 166.051 13.7183 165.862Q15.9997 165.674 18.2749 165.422Q20.5502 165.171 22.8177 164.857Q25.0853 164.543 27.3433 164.167Q29.6013 163.791 31.8481 163.353Q34.095 162.915 36.3289 162.415Q38.5628 161.915 40.7821 161.355Q43.0015 160.794 45.2046 160.172Q47.4076 159.55 49.5928 158.868Q51.7779 158.186 53.9435 157.444Q56.109 156.702 58.2533 155.901Q60.3976 155.099 62.5191 154.24Q64.6406 153.38 66.7376 152.462Q68.8346 151.544 70.9056 150.568Q72.9766 149.593 75.02 148.561Q77.0634 147.529 79.0776 146.442Q81.0918 145.354 83.0753 144.211Q85.0589 143.069 87.0103 141.872Q88.9616 140.675 90.8793 139.425Q92.7971 138.175 94.6797 136.873Q96.5623 135.571 98.4084 134.217Q100.254 132.864 102.063 131.46Q103.871 130.056 105.64 128.603Q107.408 127.15 109.137 125.649Q110.865 124.148 112.551 122.6Q114.237 121.052 115.881 119.458Q117.524 117.864 119.122 116.225Q120.721 114.587 122.274 112.905Q123.827 111.223 125.333 109.5Q126.839 107.776 128.297 106.011ZM-110.431 -124.513Q-103.197 -130.928 -95.2701 -136.463Q-87.3428 -141.997 -78.8279 -146.576Q-78.2058 -145.908 -77.649 -145.185Q-77.0921 -144.462 -76.6054 -143.69Q-76.1187 -142.917 -75.7064 -142.103Q-75.2941 -141.289 -74.9599 -140.439Q-74.6256 -139.59 -74.3723 -138.713Q-74.119 -137.836 -73.9489 -136.939Q-73.7787 -136.042 -73.6933 -135.134Q-73.6079 -134.225 -73.6079 -133.312Q-73.6079 -132.834 -73.6313 -132.357Q-73.6548 -131.88 -73.7016 -131.404Q-73.7484 -130.929 -73.8185 -130.456Q-73.8886 -129.984 -73.9819 -129.515Q-74.0751 -129.046 -74.1912 -128.583Q-74.3073 -128.12 -74.4459 -127.662Q-74.5846 -127.205 -74.7456 -126.755Q-74.9065 -126.305 -75.0894 -125.864Q-75.2722 -125.423 -75.4765 -124.991Q-75.6808 -124.559 -75.906 -124.137Q-76.1312 -123.716 -76.3769 -123.306Q-76.6225 -122.896 -76.8879 -122.499Q-77.1534 -122.102 -77.438 -121.718Q-77.7226 -121.334 -78.0257 -120.965Q-78.3288 -120.596 -78.6497 -120.242Q-78.9705 -119.888 -79.3083 -119.55Q-79.6462 -119.212 -80.0002 -118.891Q-80.3542 -118.57 -80.7235 -118.267Q-81.0929 -117.964 -81.4766 -117.68Q-81.8604 -117.395 -82.2576 -117.13Q-82.6549 -116.864 -83.0647 -116.618Q-83.4745 -116.373 -83.8959 -116.148Q-84.3172 -115.922 -84.7491 -115.718Q-85.1811 -115.514 -85.6225 -115.331Q-86.0639 -115.148 -86.5137 -114.987Q-86.9636 -114.826 -87.4208 -114.688Q-87.878 -114.549 -88.3415 -114.433Q-88.8049 -114.317 -89.2735 -114.223Q-89.7421 -114.13 -90.2147 -114.06Q-90.6873 -113.99 -91.1628 -113.943Q-91.6383 -113.896 -92.1155 -113.873Q-92.5927 -113.849 -93.0705 -113.849Q-93.7408 -113.849 -94.4095 -113.896Q-95.0783 -113.942 -95.7422 -114.034Q-96.4062 -114.126 -97.0623 -114.263Q-97.7184 -114.401 -98.3634 -114.583Q-99.0085 -114.765 -99.6395 -114.992Q-100.27 -115.218 -100.884 -115.487Q-101.498 -115.756 -102.092 -116.067Q-102.686 -116.377 -103.257 -116.728Q-103.829 -117.079 -104.374 -117.469Q-104.92 -117.858 -105.437 -118.284Q-105.955 -118.71 -106.442 -119.17Q-106.929 -119.631 -107.383 -120.124Q-107.838 -120.617 -108.257 -121.14Q-108.676 -121.663 -109.058 -122.213Q-109.441 -122.764 -109.784 -123.34Q-110.128 -123.915 -110.431 -124.513ZM-152.387 -66.9077Q-149.645 -73.1522 -146.402 -79.1514Q-143.158 -85.1507 -139.435 -90.8645Q-135.712 -96.5782 -131.533 -101.968Q-127.355 -107.358 -122.749 -112.388Q-122.157 -112.252 -121.571 -112.091Q-120.985 -111.93 -120.407 -111.745Q-119.828 -111.56 -119.258 -111.35Q-118.687 -111.14 -118.126 -110.907Q-117.565 -110.674 -117.015 -110.417Q-116.464 -110.161 -115.924 -109.881Q-115.385 -109.601 -114.858 -109.299Q-114.331 -108.998 -113.816 -108.674Q-113.302 -108.35 -112.802 -108.005Q-112.302 -107.659 -111.817 -107.294Q-111.332 -106.928 -110.863 -106.542Q-110.394 -106.156 -109.941 -105.75Q-109.488 -105.345 -109.053 -104.921Q-108.618 -104.497 -108.201 -104.055Q-107.784 -103.613 -107.386 -103.154Q-106.988 -102.695 -106.609 -102.22Q-106.231 -101.745 -105.873 -101.254Q-105.515 -100.763 -105.177 -100.258Q-104.84 -99.7523 -104.525 -99.2332Q-104.209 -98.7141 -103.915 -98.1821Q-103.622 -97.6501 -103.351 -97.1063Q-103.08 -96.5625 -102.832 -96.0078Q-102.584 -95.4531 -102.36 -94.8884Q-102.135 -94.3238 -101.935 -93.7502Q-101.734 -93.1767 -101.558 -92.5952Q-101.382 -92.0137 -101.23 -91.4253Q-101.079 -90.8369 -100.952 -90.2427Q-100.825 -89.6485 -100.724 -89.0495Q-100.622 -88.4505 -100.546 -87.8477Q-100.469 -87.2449 -100.418 -86.6395Q-100.367 -86.034 -100.342 -85.427Q-100.316 -84.8199 -100.316 -84.2123Q-100.316 -83.5026 -100.351 -82.7938Q-100.386 -82.0849 -100.455 -81.3786Q-100.525 -80.6723 -100.629 -79.9702Q-100.733 -79.2682 -100.872 -78.5721Q-101.01 -77.876 -101.183 -77.1876Q-101.355 -76.4991 -101.561 -75.82Q-101.767 -75.1408 -102.006 -74.4726Q-102.245 -73.8043 -102.517 -73.1486Q-102.788 -72.4929 -103.092 -71.8513Q-103.395 -71.2098 -103.73 -70.5838Q-104.064 -69.9579 -104.429 -69.3492Q-104.794 -68.7404 -105.188 -68.1503Q-105.583 -67.5602 -106.006 -66.9901Q-106.428 -66.4201 -106.879 -65.8715Q-107.329 -65.3228 -107.805 -64.797Q-108.282 -64.2711 -108.784 -63.7692Q-109.286 -63.2674 -109.812 -62.7908Q-110.338 -62.3142 -110.886 -61.8639Q-111.435 -61.4137 -112.005 -60.9909Q-112.575 -60.5681 -113.165 -60.1738Q-113.755 -59.7795 -114.364 -59.4146Q-114.973 -59.0498 -115.599 -58.7152Q-116.224 -58.3806 -116.866 -58.0772Q-117.508 -57.7738 -118.163 -57.5021Q-118.819 -57.2305 -119.487 -56.9915Q-120.155 -56.7524 -120.835 -56.5463Q-121.514 -56.3403 -122.202 -56.1679Q-122.891 -55.9954 -123.587 -55.857Q-124.283 -55.7185 -124.985 -55.6144Q-125.687 -55.5102 -126.393 -55.4407Q-127.1 -55.3711 -127.808 -55.3363Q-128.517 -55.3014 -129.227 -55.3014Q-130.067 -55.3014 -130.905 -55.3502Q-131.743 -55.3989 -132.577 -55.4962Q-133.411 -55.5935 -134.238 -55.739Q-135.065 -55.8846 -135.882 -56.0778Q-136.699 -56.2711 -137.504 -56.5115Q-138.308 -56.7519 -139.097 -57.0385Q-139.887 -57.3252 -140.658 -57.6572Q-141.429 -57.9892 -142.18 -58.3653Q-142.93 -58.7415 -143.658 -59.1606Q-144.386 -59.5798 -145.088 -60.0404Q-145.79 -60.501 -146.464 -61.0016Q-147.138 -61.5022 -147.782 -62.0411Q-148.426 -62.58 -149.037 -63.1553Q-149.649 -63.7307 -150.226 -64.3405Q-150.803 -64.9504 -151.344 -65.5927Q-151.885 -66.235 -152.387 -66.9077ZM-5.91029 -19.0013Q-5.91029 -17.9766 -5.96057 -16.9532Q-6.01085 -15.9298 -6.11128 -14.9101Q-6.21172 -13.8903 -6.36207 -12.8768Q-6.51242 -11.8632 -6.71232 -10.8582Q-6.91222 -9.85325 -7.16119 -8.85929Q-7.41016 -7.86534 -7.70761 -6.8848Q-8.00505 -5.90426 -8.35025 -4.9395Q-8.69545 -3.97473 -9.08757 -3.02807Q-9.47969 -2.08141 -9.91779 -1.15512Q-10.3559 -0.228841 -10.8389 0.67483Q-11.3219 1.5785 -11.8487 2.45738Q-12.3755 3.33626 -12.9448 4.18824Q-13.514 5.04021 -14.1244 5.86323Q-14.7348 6.68624 -15.3849 7.47832Q-16.0349 8.27039 -16.723 9.02962Q-17.4111 9.78884 -18.1357 10.5134Q-18.8602 11.2379 -19.6194 11.926Q-20.3787 12.6142 -21.1707 13.2642Q-21.9628 13.9142 -22.7858 14.5246Q-23.6088 15.135 -24.4608 15.7043Q-25.3128 16.2736 -26.1917 16.8004Q-27.0706 17.3271 -27.9742 17.8102Q-28.8779 18.2932 -29.8042 18.7313Q-30.7305 19.1694 -31.6771 19.5615Q-32.6238 19.9536 -33.5886 20.2988Q-34.5533 20.644 -35.5339 20.9415Q-36.5144 21.2389 -37.5084 21.4879Q-38.5023 21.7368 -39.5073 21.9367Q-40.5123 22.1366 -41.5258 22.287Q-42.5394 22.4373 -43.5591 22.5378Q-44.5789 22.6382 -45.6023 22.6885Q-46.6257 22.7388 -47.6504 22.7388Q-48.675 22.7388 -49.6985 22.6885Q-50.7219 22.6382 -51.7416 22.5378Q-52.7613 22.4373 -53.7749 22.287Q-54.7885 22.1366 -55.7934 21.9367Q-56.7984 21.7368 -57.7924 21.4879Q-58.7863 21.2389 -59.7669 20.9415Q-60.7474 20.644 -61.7122 20.2988Q-62.6769 19.9536 -63.6236 19.5615Q-64.5703 19.1694 -65.4966 18.7313Q-66.4228 18.2932 -67.3265 17.8102Q-68.2302 17.3271 -69.1091 16.8004Q-69.9879 16.2736 -70.8399 15.7043Q-71.6919 15.135 -72.5149 14.5246Q-73.3379 13.9142 -74.13 13.2642Q-74.9221 12.6142 -75.6813 11.926Q-76.4405 11.2379 -77.1651 10.5134Q-77.8896 9.78884 -78.5777 9.02961Q-79.2658 8.27039 -79.9159 7.47832Q-80.5659 6.68624 -81.1763 5.86323Q-81.7867 5.04021 -82.356 4.18824Q-82.9252 3.33626 -83.452 2.45738Q-83.9788 1.5785 -84.4618 0.67483Q-84.9448 -0.228841 -85.3829 -1.15512Q-85.821 -2.08141 -86.2132 -3.02807Q-86.6053 -3.97473 -86.9505 -4.9395Q-87.2957 -5.90426 -87.5931 -6.8848Q-87.8906 -7.86534 -88.1395 -8.85929Q-88.3885 -9.85325 -88.5884 -10.8582Q-88.7883 -11.8632 -88.9387 -12.8768Q-89.089 -13.8903 -89.1895 -14.9101Q-89.2899 -15.9298 -89.3402 -16.9532Q-89.3904 -17.9766 -89.3904 -19.0013Q-89.3904 -20.026 -89.3402 -21.0494Q-89.2899 -22.0728 -89.1895 -23.0925Q-89.089 -24.1123 -88.9387 -25.1258Q-88.7883 -26.1394 -88.5884 -27.1444Q-88.3885 -28.1494 -88.1395 -29.1433Q-87.8906 -30.1373 -87.5931 -31.1178Q-87.2957 -32.0983 -86.9505 -33.0631Q-86.6053 -34.0279 -86.2132 -34.9745Q-85.821 -35.9212 -85.3829 -36.8475Q-84.9448 -37.7738 -84.4618 -38.6774Q-83.9788 -39.5811 -83.452 -40.46Q-82.9252 -41.3389 -82.356 -42.1908Q-81.7867 -43.0428 -81.1763 -43.8658Q-80.5659 -44.6889 -79.9159 -45.4809Q-79.2658 -46.273 -78.5777 -47.0322Q-77.8896 -47.7914 -77.165 -48.516Q-76.4405 -49.2405 -75.6813 -49.9287Q-74.9221 -50.6168 -74.13 -51.2668Q-73.3379 -51.9169 -72.5149 -52.5272Q-71.6919 -53.1376 -70.8399 -53.7069Q-69.9879 -54.2762 -69.109 -54.803Q-68.2302 -55.3297 -67.3265 -55.8128Q-66.4228 -56.2958 -65.4965 -56.7339Q-64.5703 -57.172 -63.6236 -57.5641Q-62.6769 -57.9562 -61.7122 -58.3014Q-60.7474 -58.6466 -59.7669 -58.9441Q-58.7863 -59.2415 -57.7924 -59.4905Q-56.7984 -59.7395 -55.7934 -59.9394Q-54.7885 -60.1393 -53.7749 -60.2896Q-52.7613 -60.44 -51.7416 -60.5404Q-50.7219 -60.6408 -49.6985 -60.6911Q-48.675 -60.7414 -47.6504 -60.7414Q-46.6257 -60.7414 -45.6023 -60.6911Q-44.5789 -60.6408 -43.5591 -60.5404Q-42.5394 -60.44 -41.5258 -60.2896Q-40.5123 -60.1393 -39.5073 -59.9394Q-38.5023 -59.7395 -37.5084 -59.4905Q-36.5144 -59.2415 -35.5339 -58.9441Q-34.5533 -58.6466 -33.5886 -58.3014Q-32.6238 -57.9562 -31.6771 -57.5641Q-30.7305 -57.172 -29.8042 -56.7339Q-28.8779 -56.2958 -27.9742 -55.8128Q-27.0706 -55.3297 -26.1917 -54.803Q-25.3128 -54.2762 -24.4608 -53.7069Q-23.6088 -53.1376 -22.7858 -52.5272Q-21.9628 -51.9169 -21.1707 -51.2668Q-20.3787 -50.6168 -19.6194 -49.9287Q-18.8602 -49.2405 -18.1357 -48.516Q-17.4111 -47.7914 -16.723 -47.0322Q-16.0349 -46.273 -15.3849 -45.4809Q-14.7348 -44.6889 -14.1244 -43.8658Q-13.514 -43.0428 -12.9448 -42.1908Q-12.3755 -41.3389 -11.8487 -40.46Q-11.3219 -39.5811 -10.8389 -38.6774Q-10.3559 -37.7738 -9.91779 -36.8475Q-9.47969 -35.9212 -9.08757 -34.9745Q-8.69545 -34.0279 -8.35025 -33.0631Q-8.00505 -32.0983 -7.70761 -31.1178Q-7.41016 -30.1373 -7.16119 -29.1433Q-6.91222 -28.1494 -6.71232 -27.1444Q-6.51242 -26.1394 -6.36207 -25.1258Q-6.21172 -24.1123 -6.11128 -23.0925Q-6.01085 -22.0728 -5.96057 -21.0494Q-5.91029 -20.026 -5.91029 -19.0013Z" fill-rule="evenodd"/>
	<path fill="none" stroke="black" stroke-width="2.3999999" stroke-linejoin="round" transform="translate(55 79.2857)" d="M-21.7216 -6.4323Q-21.3603 -5.76824 -20.8916 -4.79656Q-20.4179 -3.82977 -19.9101 -2.69695Q-19.4023 -1.56902 -18.9043 -0.387383Q-18.4013 0.789375 -17.9619 1.82941Q-17.5175 0.789375 -17.0195 -0.387383Q-16.5215 -1.56902 -16.0136 -2.69695Q-15.5009 -3.82977 -15.0322 -4.79656Q-14.5586 -5.76824 -14.2021 -6.4323L-11.3603 -6.4323Q-11.1601 -5.05047 -10.9892 -3.3366Q-10.8183 -1.62762 -10.6914 0.222969Q-10.5595 2.06867 -10.4521 3.92902Q-10.3398 5.78937 -10.2617 7.43L-13.2988 7.43Q-13.3623 5.40852 -13.4599 3.03059Q-13.5576 0.647773 -13.7578 -1.76922Q-14.1191 -0.929375 -14.5586 0.0911326Q-14.998 1.11164 -15.4326 2.13215Q-15.8623 3.14777 -16.2627 4.08039Q-16.6582 5.00812 -16.9414 5.67219L-19.1191 5.67219Q-19.4023 5.00812 -19.8027 4.08039Q-20.1982 3.14777 -20.6279 2.13215Q-21.0576 1.11164 -21.5019 0.0911326Q-21.9414 -0.929375 -22.2978 -1.76922Q-22.498 0.647773 -22.6006 3.03059Q-22.6982 5.40852 -22.7617 7.43L-25.7988 7.43Q-25.7207 5.78937 -25.6133 3.92902Q-25.5009 2.06867 -25.374 0.222969Q-25.2422 -1.62762 -25.0713 -3.3366Q-24.9004 -5.05047 -24.7002 -6.4323L-21.7216 -6.4323ZM2.18025 2.15168Q2.18025 3.39191 1.81892 4.42219Q1.4576 5.44758 0.778885 6.18Q0.100174 6.91242 -0.851974 7.31281Q-1.79924 7.70832 -2.98088 7.70832Q-4.13811 7.70832 -5.09026 7.31281Q-6.0424 6.91242 -6.72112 6.18Q-7.39983 5.44758 -7.78069 4.42219Q-8.16154 3.39191 -8.16154 2.15168Q-8.16154 0.911445 -7.77092 -0.109063Q-7.38029 -1.12957 -6.69182 -1.84734Q-5.99846 -2.57 -5.05119 -2.97039Q-4.09904 -3.37078 -2.98088 -3.37078Q-1.8383 -3.37078 -0.891037 -2.97039Q0.0611115 -2.57 0.739822 -1.84734Q1.41853 -1.12957 1.79939 -0.109063Q2.18025 0.911445 2.18025 2.15168ZM-0.86174 2.15168Q-0.86174 0.769844 -1.4135 -0.021172Q-1.96037 -0.812188 -2.98088 -0.812188Q-4.00139 -0.812188 -4.56291 -0.021172Q-5.11955 0.769844 -5.11955 2.15168Q-5.11955 3.52863 -4.56291 4.33918Q-4.00139 5.14973 -2.98088 5.14973Q-1.96037 5.14973 -1.4135 4.33918Q-0.86174 3.52863 -0.86174 2.15168ZM14.3202 2.15168Q14.3202 3.39191 13.9589 4.42219Q13.5976 5.44758 12.9189 6.18Q12.2402 6.91242 11.288 7.31281Q10.3407 7.70832 9.1591 7.70832Q8.00188 7.70832 7.04973 7.31281Q6.09758 6.91242 5.41887 6.18Q4.74016 5.44758 4.3593 4.42219Q3.97844 3.39191 3.97844 2.15168Q3.97844 0.911445 4.36906 -0.109063Q4.75969 -1.12957 5.44817 -1.84734Q6.14153 -2.57 7.08879 -2.97039Q8.04094 -3.37078 9.1591 -3.37078Q10.3017 -3.37078 11.2489 -2.97039Q12.2011 -2.57 12.8798 -1.84734Q13.5585 -1.12957 13.9394 -0.109063Q14.3202 0.911445 14.3202 2.15168ZM11.2782 2.15168Q11.2782 0.769844 10.7265 -0.021172Q10.1796 -0.812188 9.1591 -0.812188Q8.1386 -0.812188 7.57707 -0.021172Q7.02043 0.769844 7.02043 2.15168Q7.02043 3.52863 7.57707 4.33918Q8.1386 5.14973 9.1591 5.14973Q10.1796 5.14973 10.7265 4.33918Q11.2782 3.52863 11.2782 2.15168ZM16.6214 -2.73113Q17.3782 -2.95086 18.5794 -3.14129Q19.7805 -3.33172 21.0989 -3.33172Q22.4417 -3.33172 23.3303 -2.98016Q24.219 -2.62859 24.7366 -1.98895Q25.259 -1.3493 25.4788 -0.470391Q25.6985 0.408515 25.6985 1.48762L25.6985 7.43L22.72 7.43L22.72 1.84895Q22.72 0.408515 22.3391 -0.187188Q21.9583 -0.787774 20.9182 -0.787774Q20.6008 -0.787774 20.2395 -0.758477Q19.8782 -0.72918 19.5999 -0.690117L19.5999 7.43L16.6214 7.43L16.6214 -2.73113Z"/>
	<path fill="white" transform="translate(55 79.2857)" d="M-21.7216 -6.4323Q-21.3603 -5.76824 -20.8916 -4.79656Q-20.4179 -3.82977 -19.9101 -2.69695Q-19.4023 -1.56902 -18.9043 -0.387383Q-18.4013 0.789375 -17.9619 1.82941Q-17.5175 0.789375 -17.0195 -0.387383Q-16.5215 -1.56902 -16.0136 -2.69695Q-15.5009 -3.82977 -15.0322 -4.79656Q-14.5586 -5.76824 -14.2021 -6.4323L-11.3603 -6.4323Q-11.1601 -5.05047 -10.9892 -3.3366Q-10.8183 -1.62762 -10.6914 0.222969Q-10.5595 2.06867 -10.4521 3.92902Q-10.3398 5.78937 -10.2617 7.43L-13.2988 7.43Q-13.3623 5.40852 -13.4599 3.03059Q-13.5576 0.647773 -13.7578 -1.76922Q-14.1191 -0.929375 -14.5586 0.0911326Q-14.998 1.11164 -15.4326 2.13215Q-15.8623 3.14777 -16.2627 4.08039Q-16.6582 5.00812 -16.9414 5.67219L-19.1191 5.67219Q-19.4023 5.00812 -19.8027 4.08039Q-20.1982 3.14777 -20.6279 2.13215Q-21.0576 1.11164 -21.5019 0.0911326Q-21.9414 -0.929375 -22.2978 -1.76922Q-22.498 0.647773 -22.6006 3.03059Q-22.6982 5.40852 -22.7617 7.43L-25.7988 7.43Q-25.7207 5.78937 -25.6133 3.92902Q-25.5009 2.06867 -25.374 0.222969Q-25.2422 -1.62762 -25.0713 -3.3366Q-24.9004 -5.05047 -24.7002 -6.4323L-21.7216 -6.4323ZM2.18025 2.15168Q2.18025 3.39191 1.81892 4.42219Q1.4576 5.44758 0.778885 6.18Q0.100174 6.91242 -0.851974 7.31281Q-1.79924 7.70832 -2.98088 7.70832Q-4.13811 7.70832 -5.09026 7.31281Q-6.0424 6.91242 -6.72112 6.18Q-7.39983 5.44758 -7.78069 4.42219Q-8.16154 3.39191 -8.16154 2.15168Q-8.16154 0.911445 -7.77092 -0.109063Q-7.38029 -1.12957 -6.69182 -1.84734Q-5.99846 -2.57 -5.05119 -2.97039Q-4.09904 -3.37078 -2.98088 -3.37078Q-1.8383 -3.37078 -0.891037 -2.97039Q0.0611115 -2.57 0.739822 -1.84734Q1.41853 -1.12957 1.79939 -0.109063Q2.18025 0.911445 2.18025 2.15168ZM-0.86174 2.15168Q-0.86174 0.769844 -1.4135 -0.021172Q-1.96037 -0.812188 -2.98088 -0.812188Q-4.00139 -0.812188 -4.56291 -0.021172Q-5.11955 0.769844 -5.11955 2.15168Q-5.11955 3.52863 -4.56291 4.33918Q-4.00139 5.14973 -2.98088 5.14973Q-1.96037 5.14973 -1.4135 4.33918Q-0.86174 3.52863 -0.86174 2.15168ZM14.3202 2.15168Q14.3202 3.39191 13.9589 4.42219Q13.5976 5.44758 12.9189 6.18Q12.2402 6.91242 11.288 7.31281Q10.3407 7.70832 9.1591 7.70832Q8.00188 7.70832 7.04973 7.31281Q6.09758 6.91242 5.41887 6.18Q4.74016 5.44758 4.3593 4.42219Q3.97844 3.39191 3.97844 2.15168Q3.97844 0.911445 4.36906 -0.109063Q4.75969 -1.12957 5.44817 -1.84734Q6.14153 -2.57 7.08879 -2.97039Q8.04094 -3.37078 9.1591 -3.37078Q10.3017 -3.37078 11.2489 -2.97039Q12.2011 -2.57 12.8798 -1.84734Q13.5585 -1.12957 13.9394 -0.109063Q14.3202 0.911445 14.3202 2.15168ZM11.2782 2.15168Q11.2782 0.769844 10.7265 -0.021172Q10.1796 -0.812188 9.1591 -0.812188Q8.1386 -0.812188 7.57707 -0.021172Q7.02043 0.769844 7.02043 2.15168Q7.02043 3.52863 7.57707 4.33918Q8.1386 5.14973 9.1591 5.14973Q10.1796 5.14973 10.7265 4.33918Q11.2782 3.52863 11.2782 2.15168ZM16.6214 -2.73113Q17.3782 -2.95086 18.5794 -3.14129Q19.7805 -3.33172 21.0989 -3.33172Q22.4417 -3.33172 23.3303 -2.98016Q24.219 -2.62859 24.7366 -1.98895Q25.259 -1.3493 25.4788 -0.470391Q25.6985 0.408515 25.6985 1.48762L25.6985 7.43L22.72 7.43L22.72 1.84895Q22.72 0.408515 22.3391 -0.187188Q21.9583 -0.787774 20.9182 -0.787774Q20.6008 -0.787774 20.2395 -0.758477Q19.8782 -0.72918 19.5999 -0.690117L19.5999 7.43L16.6214 7.43L16.6214 -2.73113Z"/>
</svg>
