<?xml version="1.0" encoding="utf-8" ?>
<svg xmlns="http://www.w3.org/2000/svg" xmlns:xlink="http://www.w3.org/1999/xlink" width="110" height="110">
	<path fill="#6D6D6D" transform="matrix(0.106608 0.0106964 -0.0106964 0.106608 55 47.8571)" d="M200 0Q200 4.90972 199.759 9.81353Q199.518 14.7173 199.037 19.6034Q198.556 24.4895 197.835 29.3461Q197.115 34.2027 196.157 39.0181Q195.199 43.8334 194.006 48.596Q192.813 53.3586 191.388 58.0569Q189.963 62.7552 188.309 67.378Q186.655 72.0007 184.776 76.5367Q182.897 81.0727 180.798 85.511Q178.699 89.9493 176.384 94.2793Q174.07 98.6093 171.546 102.821Q169.022 107.032 166.294 111.114Q163.566 115.196 160.641 119.14Q157.717 123.083 154.602 126.879Q151.487 130.674 148.19 134.312Q144.893 137.95 141.421 141.421Q137.95 144.893 134.312 148.19Q130.674 151.487 126.879 154.602Q123.083 157.717 119.14 160.641Q115.196 163.566 111.114 166.294Q107.032 169.022 102.821 171.546Q98.6093 174.07 94.2793 176.384Q89.9493 178.699 85.511 180.798Q81.0727 182.897 76.5367 184.776Q72.0007 186.655 67.378 188.309Q62.7552 189.963 58.0569 191.388Q53.3586 192.813 48.596 194.006Q43.8334 195.199 39.0181 196.157Q34.2027 197.115 29.3461 197.835Q24.4895 198.556 19.6034 199.037Q14.7173 199.518 9.81353 199.759Q4.90972 200 0 200Q-4.90972 200 -9.81353 199.759Q-14.7173 199.518 -19.6034 199.037Q-24.4895 198.556 -29.3461 197.835Q-34.2027 197.115 -39.0181 196.157Q-43.8334 195.199 -48.596 194.006Q-53.3586 192.813 -58.0569 191.388Q-62.7552 189.963 -67.378 188.309Q-72.0007 186.655 -76.5367 184.776Q-81.0727 182.897 -85.511 180.798Q-89.9493 178.699 -94.2793 176.384Q-98.6093 174.07 -102.821 171.546Q-107.032 169.022 -111.114 166.294Q-115.196 163.566 -119.14 160.641Q-123.083 157.717 -126.879 154.602Q-130.674 151.487 -134.312 148.19Q-137.95 144.893 -141.421 141.421Q-144.893 137.95 -148.19 134.312Q-151.487 130.674 -154.602 126.879Q-157.717 123.083 -160.641 119.14Q-163.566 115.196 -166.294 111.114Q-169.022 107.032 -171.546 102.821Q-174.07 98.6093 -176.384 94.2793Q-178.699 89.9493 -180.798 85.511Q-182.897 81.0727 -184.776 76.5367Q-186.655 72.0007 -188.309 67.378Q-189.963 62.7552 -191.388 58.0569Q-192.813 53.3586 -194.006 48.596Q-195.199 43.8334 -196.157 39.0181Q-197.115 34.2027 -197.835 29.3461Q-198.556 24.4895 -199.037 19.6034Q-199.518 14.7173 -199.759 9.81353Q-200 4.90972 -200 0Q-200 -4.90972 -199.759 -9.81353Q-199.518 -14.7173 -199.037 -19.6034Q-198.556 -24.4895 -197.835 -29.3461Q-197.115 -34.2027 -196.157 -39.0181Q-195.199 -43.8334 -194.006 -48.596Q-192.813 -53.3586 -191.388 -58.0569Q-189.963 -62.7552 -188.309 -67.378Q-186.655 -72.0007 -184.776 -76.5367Q-182.897 -81.0727 -180.798 -85.511Q-178.699 -89.9493 -176.384 -94.2793Q-174.07 -98.6093 -171.546 -102.821Q-169.022 -107.032 -166.294 -111.114Q-163.566 -115.196 -160.641 -119.14Q-157.717 -123.083 -154.602 -126.879Q-151.487 -130.674 -148.19 -134.312Q-144.893 -137.95 -141.421 -141.421Q-137.95 -144.893 -134.312 -148.19Q-130.674 -151.487 -126.879 -154.602Q-123.083 -157.717 -119.14 -160.641Q-115.196 -163.566 -111.114 -166.294Q-107.032 -169.022 -102.821 -171.546Q-98.6093 -174.07 -94.2793 -176.384Q-89.9493 -178.699 -85.511 -180.798Q-81.0727 -182.897 -76.5367 -184.776Q-72.0007 -186.655 -67.378 -188.309Q-62.7552 -189.963 -58.0569 -191.388Q-53.3586 -192.813 -48.596 -194.006Q-43.8334 -195.199 -39.0181 -196.157Q-34.2027 -197.115 -29.3461 -197.835Q-24.4895 -198.556 -19.6034 -199.037Q-14.7173 -199.518 -9.81353 -199.759Q-4.90972 -200 0 -200Q4.90972 -200 9.81353 -199.759Q14.7173 -199.518 19.6034 -199.037Q24.4895 -198.556 29.3461 -197.835Q34.2027 -197.115 39.0181 -196.157Q43.8334 -195.199 48.596 -194.006Q53.3586 -192.813 58.0569 -191.388Q62.7552 -189.963 67.378 -188.309Q72.0007 -186.655 76.5367 -184.776Q81.0727 -182.897 85.511 -180.798Q89.9493 -178.699 94.2793 -176.384Q98.6093 -174.07 102.821 -171.546Q107.032 -169.022 111.114 -166.294Q115.196 -163.566 119.14 -160.641Q123.083 -157.717 126.879 -154.602Q130.674 -151.487 134.312 -148.19Q137.95 -144.893 141.421 -141.421Q144.893 -137.95 148.19 -134.312Q151.487 -130.674 154.602 -126.879Q157.717 -123.083 160.641 -119.14Q163.566 -115.196 166.294 -111.114Q169.022 -107.032 171.546 -102.821Q174.07 -98.6093 176.384 -94.2793Q178.699 -89.9493 180.798 -85.511Q182.897 -81.0727 184.776 -76.5367Q186.655 -72.0007 188.309 -67.378Q189.963 -62.7552 191.388 -58.0569Q192.813 -53.3586 194.006 -48.596Q195.199 -43.8334 196.157 -39.0181Q197.115 -34.2027 197.835 -29.3461Q198.556 -24.4895 199.037 -19.6034Q199.518 -14.7173 199.759 -9.81353Q200 -4.90972 200 0"/>
	<path fill="#878787" transform="matrix(0.106608 0.0106964 -0.0106964 0.106608 55 47.8571)" d="M195 0Q195 4.78698 194.765 9.5682Q194.53 14.3494 194.061 19.1133Q193.592 23.8773 192.889 28.6124Q192.187 33.3476 191.253 38.0426Q190.319 42.7376 189.156 47.3811Q187.993 52.0247 186.603 56.6055Q185.214 61.1864 183.601 65.6935Q181.988 70.2007 180.156 74.6233Q178.325 79.0459 176.278 83.3732Q174.231 87.7006 171.975 91.9224Q169.718 96.1441 167.257 100.25Q164.796 104.356 162.137 108.336Q159.477 112.316 156.625 116.161Q153.774 120.006 150.737 123.707Q147.7 127.407 144.485 130.954Q141.271 134.501 137.886 137.886Q134.501 141.271 130.954 144.485Q127.407 147.7 123.707 150.737Q120.006 153.774 116.161 156.625Q112.316 159.477 108.336 162.137Q104.356 164.796 100.25 167.257Q96.1441 169.718 91.9224 171.975Q87.7006 174.231 83.3732 176.278Q79.0459 178.325 74.6233 180.156Q70.2007 181.988 65.6935 183.601Q61.1864 185.214 56.6055 186.603Q52.0247 187.993 47.3811 189.156Q42.7376 190.319 38.0426 191.253Q33.3476 192.187 28.6124 192.889Q23.8773 193.592 19.1133 194.061Q14.3494 194.53 9.5682 194.765Q4.78698 195 0 195Q-4.78698 195 -9.5682 194.765Q-14.3494 194.53 -19.1133 194.061Q-23.8773 193.592 -28.6124 192.889Q-33.3476 192.187 -38.0426 191.253Q-42.7376 190.319 -47.3811 189.156Q-52.0247 187.993 -56.6055 186.603Q-61.1864 185.214 -65.6935 183.601Q-70.2007 181.988 -74.6233 180.156Q-79.0459 178.325 -83.3732 176.278Q-87.7006 174.231 -91.9224 171.975Q-96.1441 169.718 -100.25 167.257Q-104.356 164.796 -108.336 162.137Q-112.316 159.477 -116.161 156.625Q-120.006 153.774 -123.707 150.737Q-127.407 147.7 -130.954 144.485Q-134.501 141.271 -137.886 137.886Q-141.271 134.501 -144.485 130.954Q-147.7 127.407 -150.737 123.707Q-153.774 120.006 -156.625 116.161Q-159.477 112.316 -162.137 108.336Q-164.796 104.356 -167.257 100.25Q-169.718 96.1441 -171.975 91.9224Q-174.231 87.7006 -176.278 83.3732Q-178.325 79.0459 -180.156 74.6233Q-181.988 70.2007 -183.601 65.6935Q-185.214 61.1864 -186.603 56.6055Q-187.993 52.0247 -189.156 47.3811Q-190.319 42.7376 -191.253 38.0426Q-192.187 33.3476 -192.889 28.6124Q-193.592 23.8773 -194.061 19.1133Q-194.53 14.3494 -194.765 9.5682Q-195 4.78698 -195 0Q-195 -4.78698 -194.765 -9.5682Q-194.53 -14.3494 -194.061 -19.1133Q-193.592 -23.8773 -192.889 -28.6124Q-192.187 -33.3476 -191.253 -38.0426Q-190.319 -42.7376 -189.156 -47.3811Q-187.993 -52.0247 -186.603 -56.6055Q-185.214 -61.1864 -183.601 -65.6935Q-181.988 -70.2007 -180.156 -74.6233Q-178.325 -79.0459 -176.278 -83.3732Q-174.231 -87.7006 -171.975 -91.9224Q-169.718 -96.1441 -167.257 -100.25Q-164.796 -104.356 -162.137 -108.336Q-159.477 -112.316 -156.625 -116.161Q-153.774 -120.006 -150.737 -123.707Q-147.7 -127.407 -144.485 -130.954Q-141.271 -134.501 -137.886 -137.886Q-134.501 -141.271 -130.954 -144.485Q-127.407 -147.7 -123.707 -150.737Q-120.006 -153.774 -116.161 -156.625Q-112.316 -159.477 -108.336 -162.137Q-104.356 -164.796 -100.25 -167.257Q-96.1441 -169.718 -91.9224 -171.975Q-87.7006 -174.231 -83.3732 -176.278Q-79.0459 -178.325 -74.6233 -180.156Q-70.2007 -181.988 -65.6935 -183.601Q-61.1864 -185.214 -56.6055 -186.603Q-52.0247 -187.993 -47.3811 -189.156Q-42.7376 -190.319 -38.0426 -191.253Q-33.3476 -192.187 -28.6124 -192.889Q-23.8773 -193.592 -19.1133 -194.061Q-14.3494 -194.53 -9.5682 -194.765Q-4.78698 -195 0 -195Q4.78698 -195 9.5682 -194.765Q14.3494 -194.53 19.1133 -194.061Q23.8773 -193.592 28.6124 -192.889Q33.3476 -192.187 38.0426 -191.253Q42.7376 -190.319 47.3811 -189.156Q52.0247 -187.993 56.6055 -186.603Q61.1864 -185.214 65.6935 -183.601Q70.2007 -181.988 74.6233 -180.156Q79.0459 -178.325 83.3732 -176.278Q87.7006 -174.231 91.9224 -171.975Q96.1441 -169.718 100.25 -167.257Q104.356 -164.796 108.336 -162.137Q112.316 -159.477 116.161 -156.625Q120.006 -153.774 123.707 -150.737Q127.407 -147.7 130.954 -144.485Q134.501 -141.271 137.886 -137.886Q141.271 -134.501 144.485 -130.954Q147.7 -127.407 150.737 -123.707Q153.774 -120.006 156.625 -116.161Q159.477 -112.316 162.137 -108.336Q164.796 -104.356 167.257 -100.25Q169.718 -96.1441 171.975 -91.9224Q174.231 -87.7006 176.278 -83.3732Q178.325 -79.0459 180.156 -74.6233Q181.988 -70.2007 183.601 -65.6935Q185.214 -61.1864 186.603 -56.6055Q187.993 -52.0247 189.156 -47.3811Q190.319 -42.7376 191.253 -38.0426Q192.187 -33.3476 192.889 -28.6124Q193.592 -23.8773 194.061 -19.1133Q194.53 -14.3494 194.765 -9.5682Q195 -4.78698 195 0"/>
	<path fill="#7C7C7C" transform="matrix(0.106608 0.0106964 -0.0106964 0.106608 55 47.8571)" d="M193.401 24.9208Q195 12.5117 195 0Q195 -9.26549 194.121 -18.4892Q193.243 -27.713 191.494 -36.8119Q189.341 -37.1119 187.168 -37.1119Q186.399 -37.1119 185.631 -37.0742Q184.863 -37.0365 184.097 -36.9611Q183.332 -36.8857 182.571 -36.7728Q181.81 -36.66 181.056 -36.5099Q180.302 -36.3599 179.556 -36.173Q178.81 -35.9861 178.074 -35.7629Q177.338 -35.5396 176.614 -35.2805Q175.889 -35.0214 175.179 -34.7271Q174.468 -34.4328 173.773 -34.104Q173.078 -33.7751 172.4 -33.4126Q171.721 -33.05 171.062 -32.6546Q170.402 -32.2592 169.762 -31.832Q169.123 -31.4047 168.505 -30.9465Q167.887 -30.4884 167.293 -30.0005Q166.698 -29.5126 166.129 -28.9961Q165.559 -28.4796 165.015 -27.9357Q164.471 -27.3919 163.955 -26.822Q163.438 -26.2522 162.95 -25.6577Q162.462 -25.0631 162.004 -24.4454Q161.546 -23.8277 161.119 -23.1882Q160.691 -22.5487 160.296 -21.889Q159.901 -21.2293 159.538 -20.5511Q159.175 -19.8728 158.847 -19.1775Q158.518 -18.4823 158.223 -17.7717Q157.929 -17.0612 157.67 -16.337Q157.411 -15.6129 157.188 -14.8769Q156.964 -14.1409 156.778 -13.3949Q156.591 -12.6488 156.441 -11.8945Q156.291 -11.1402 156.178 -10.3794Q156.065 -9.61867 155.99 -8.85327Q155.914 -8.08788 155.876 -7.31971Q155.839 -6.55154 155.839 -5.78245Q155.839 -5.01335 155.876 -4.24518Q155.914 -3.47701 155.99 -2.71162Q156.065 -1.94623 156.178 -1.18546Q156.291 -0.424686 156.441 0.329631Q156.591 1.08395 156.778 1.83Q156.964 2.57604 157.188 3.31202Q157.411 4.048 157.67 4.77214Q157.929 5.49627 158.223 6.20683Q158.518 6.91738 158.847 7.61263Q159.175 8.30789 159.538 8.98617Q159.901 9.66445 160.296 10.3241Q160.691 10.9838 161.119 11.6233Q161.546 12.2628 162.004 12.8805Q162.462 13.4982 162.95 14.0928Q163.438 14.6873 163.955 15.2571Q164.471 15.827 165.015 16.3708Q165.559 16.9147 166.129 17.4312Q166.698 17.9477 167.293 18.4356Q167.887 18.9235 168.505 19.3816Q169.123 19.8398 169.762 20.2671Q170.402 20.6944 171.062 21.0897Q171.721 21.4851 172.4 21.8477Q173.078 22.2102 173.773 22.5391Q174.468 22.8679 175.179 23.1622Q175.889 23.4565 176.614 23.7156Q177.338 23.9747 178.074 24.198Q178.81 24.4213 179.556 24.6081Q180.302 24.795 181.056 24.945Q181.81 25.0951 182.571 25.2079Q183.332 25.3208 184.097 25.3962Q184.863 25.4716 185.631 25.5093Q186.399 25.547 187.168 25.547Q190.316 25.547 193.401 24.9208ZM152.161 121.951Q151.549 121.268 150.919 120.602Q150.289 119.936 149.641 119.287Q148.994 118.637 148.33 118.005Q147.666 117.373 146.985 116.758Q146.305 116.143 145.609 115.547Q144.912 114.95 144.201 114.372Q143.489 113.794 142.762 113.235Q142.036 112.675 141.294 112.135Q140.553 111.596 139.798 111.075Q139.043 110.555 138.275 110.054Q137.507 109.554 136.725 109.074Q135.944 108.594 135.151 108.135Q134.357 107.675 133.552 107.237Q132.746 106.799 131.93 106.381Q131.113 105.964 130.286 105.569Q129.459 105.173 128.621 104.8Q127.784 104.426 126.937 104.074Q126.09 103.723 125.235 103.393Q124.379 103.064 123.515 102.757Q122.651 102.451 121.779 102.167Q120.907 101.883 120.028 101.622Q119.149 101.361 118.263 101.123Q117.378 100.885 116.486 100.671Q115.595 100.456 114.698 100.265Q113.801 100.074 112.9 99.9065Q111.998 99.7391 111.092 99.5953Q110.187 99.4516 109.278 99.3317Q108.369 99.2117 107.457 99.1157Q106.545 99.0196 105.631 98.9475Q104.717 98.8754 103.801 98.8273Q102.885 98.7792 101.969 98.7552Q101.052 98.7311 100.135 98.7311Q98.5142 98.7311 96.8949 98.8063Q95.2756 98.8814 93.6616 99.0316Q92.0475 99.1817 90.4421 99.4065Q88.8367 99.6313 87.2435 99.9303Q85.6503 100.229 84.0726 100.602Q82.4949 100.974 80.9362 101.42Q79.3776 101.865 77.8412 102.382Q76.3048 102.899 74.7941 103.487Q73.2833 104.075 71.8015 104.732Q70.3196 105.389 68.8698 106.114Q67.42 106.839 66.0053 107.631Q64.5907 108.422 63.2143 109.279Q61.8379 110.135 60.5026 111.054Q59.1674 111.973 57.8762 112.953Q56.585 113.934 55.3407 114.973Q54.0963 116.011 52.9015 117.107Q51.9415 117.398 50.9904 117.716Q50.0394 118.035 49.098 118.381Q48.1567 118.727 47.2258 119.101Q46.295 119.474 45.3755 119.875Q44.4559 120.275 43.5485 120.703Q42.6411 121.13 41.7465 121.583Q40.8519 122.037 39.971 122.517Q39.0901 122.996 38.2235 123.501Q37.357 124.006 36.5056 124.536Q35.6542 125.067 34.8186 125.621Q33.983 126.176 33.164 126.755Q32.345 127.334 31.5433 127.937Q30.7416 128.54 29.9578 129.165Q29.174 129.791 28.4088 130.44Q27.6437 131.088 26.8978 131.759Q26.1519 132.429 25.4259 133.121Q24.6999 133.813 23.9944 134.526Q23.289 135.239 22.6047 135.973Q21.9203 136.706 21.2577 137.459Q20.5951 138.212 19.9548 138.984Q19.3144 139.756 18.6969 140.546Q18.0794 141.336 17.4853 142.145Q16.8911 142.953 16.3208 143.778Q15.7505 144.603 15.2046 145.444Q14.6587 146.286 14.1375 147.143Q13.6164 147.999 13.1205 148.871Q12.6247 149.743 12.1545 150.629Q11.6843 151.515 11.2402 152.414Q10.7961 153.314 10.3785 154.226Q9.96082 155.138 9.57 156.061Q9.17918 156.985 8.81552 157.92Q8.45185 158.854 8.11565 159.799Q6.82204 156.478 5.1704 153.318Q5.62748 153.063 6.07585 152.793Q6.52421 152.523 6.96336 152.238Q7.40251 151.952 7.83197 151.653Q8.26143 151.354 8.68072 151.04Q9.10001 150.727 9.50867 150.399Q9.91733 150.072 10.3149 149.732Q10.7125 149.391 11.0986 149.037Q11.4846 148.684 11.8588 148.317Q12.2329 147.951 12.5947 147.573Q12.9565 147.194 13.3055 146.804Q13.6545 146.414 13.9904 146.012Q14.3263 145.611 14.6487 145.198Q14.9711 144.786 15.2797 144.363Q15.5882 143.94 15.8825 143.507Q16.1769 143.074 16.4567 142.631Q16.7365 142.189 17.0015 141.737Q17.2665 141.286 17.5164 140.826Q17.7662 140.366 18.0007 139.898Q18.2352 139.43 18.454 138.954Q18.6728 138.478 18.8758 137.996Q19.0787 137.513 19.2655 137.024Q19.4523 136.535 19.6228 136.04Q19.7933 135.545 19.9473 135.045Q20.1013 134.544 20.2386 134.039Q20.3759 133.534 20.4963 133.024Q20.6168 132.515 20.7203 132.002Q20.8238 131.488 20.9103 130.972Q20.9967 130.456 21.066 129.937Q21.1352 129.418 21.1872 128.897Q21.2392 128.376 21.2739 127.854Q21.3087 127.331 21.326 126.808Q21.3434 126.285 21.3434 125.761Q21.3434 124.986 21.3054 124.212Q21.2673 123.438 21.1914 122.667Q21.1154 121.896 21.0017 121.13Q20.8881 120.363 20.7369 119.603Q20.5857 118.843 20.3974 118.092Q20.2092 117.34 19.9842 116.599Q19.7593 115.857 19.4983 115.128Q19.2372 114.398 18.9407 113.682Q18.6442 112.966 18.3129 112.266Q17.9816 111.565 17.6163 110.882Q17.2511 110.199 16.8527 109.534Q16.4544 108.869 16.0239 108.225Q15.5934 107.581 15.1318 106.959Q14.6702 106.336 14.1787 105.737Q13.6871 105.138 13.1668 104.564Q12.6464 103.99 12.0985 103.442Q11.5506 102.894 10.9765 102.374Q10.4023 101.853 9.80337 101.362Q9.2044 100.87 8.58203 100.409Q7.95966 99.9471 7.31539 99.5167Q6.67113 99.0862 6.00651 98.6878Q5.3419 98.2895 4.65854 97.9242Q3.97518 97.5589 3.27472 97.2277Q2.57427 96.8964 1.85839 96.5998Q1.14252 96.3033 0.412966 96.0423Q-0.316593 95.7812 -1.05808 95.5563Q-1.79957 95.3314 -2.5512 95.1431Q-3.30283 94.9548 -4.0628 94.8037Q-4.82276 94.6525 -5.58923 94.5388Q-6.35569 94.4251 -7.12681 94.3492Q-7.89794 94.2732 -8.67186 94.2352Q-9.44578 94.1972 -10.2206 94.1972Q-10.8986 94.1972 -11.5759 94.2263Q-12.2532 94.2554 -12.9287 94.3136Q-13.6042 94.3717 -14.2765 94.4588Q-14.9488 94.546 -15.6168 94.6619Q-16.2848 94.7778 -16.9472 94.9222Q-17.6095 95.0667 -18.2651 95.2395Q-18.9207 95.4123 -19.5682 95.6131Q-20.2158 95.8138 -20.8541 96.0422Q-21.4924 96.2706 -22.1203 96.5262Q-22.7483 96.7818 -23.3646 97.0641Q-23.981 97.3464 -24.5847 97.655Q-25.1884 97.9635 -25.7783 98.2976Q-26.3682 98.6318 -26.9431 98.991Q-27.5181 99.3502 -28.0772 99.7337Q-28.6362 100.117 -29.1783 100.524Q-29.7203 100.932 -30.2444 101.362Q-30.7685 101.792 -31.2736 102.244Q-31.7787 102.696 -32.2639 103.17Q-32.7492 103.643 -33.2136 104.137Q-33.6781 104.631 -34.1209 105.144Q-34.5638 105.657 -34.9841 106.189Q-35.4045 106.721 -35.8017 107.271Q-36.1988 107.82 -36.572 108.386Q-36.9452 108.952 -37.2938 109.534Q-37.6423 110.115 -37.9656 110.711Q-38.2888 111.307 -38.5862 111.916Q-38.8836 112.526 -39.1545 113.147Q-39.4254 113.768 -39.6694 114.401Q-39.9134 115.033 -40.1301 115.676Q-40.3467 116.318 -40.5355 116.969Q-40.7243 117.621 -40.885 118.279Q-41.0458 118.938 -41.178 119.603Q-46.5581 118.686 -52.0156 118.686Q-53.2215 118.686 -54.4266 118.731Q-55.6316 118.776 -56.8342 118.866Q-58.0367 118.956 -59.235 119.091Q-60.4333 119.226 -61.6258 119.406Q-62.8182 119.585 -64.0031 119.809Q-65.188 120.033 -66.3637 120.302Q-67.5394 120.57 -68.7043 120.882Q-69.8692 121.193 -71.0216 121.549Q-72.174 121.904 -73.3123 122.302Q-74.4506 122.7 -75.5733 123.14Q-76.696 123.58 -77.8014 124.062Q-78.9068 124.544 -79.9935 125.067Q-81.0801 125.59 -82.1465 126.153Q-83.2129 126.716 -84.2575 127.318Q-85.302 127.921 -86.3234 128.562Q-87.3447 129.203 -88.3414 129.882Q-89.3381 130.561 -90.3087 131.276Q-91.2793 131.992 -92.2225 132.743Q-93.1657 133.495 -94.0802 134.281Q-94.9947 135.067 -95.8791 135.886Q-96.7636 136.706 -97.6168 137.558Q-98.4701 138.41 -99.2908 139.294Q-100.112 140.177 -100.899 141.091Q-101.686 142.004 -102.439 142.947Q-103.191 143.889 -103.908 144.859Q-104.625 145.828 -105.305 146.824Q-105.985 147.82 -106.627 148.84Q-107.27 149.861 -107.873 150.905Q-108.477 151.949 -109.042 153.014Q-109.606 154.08 -110.13 155.166Q-110.654 156.252 -111.138 157.357Q-111.621 158.462 -112.063 159.584Q-109.009 161.728 -105.876 163.754Q-102.743 165.78 -99.534 167.684Q-96.3256 169.589 -93.0466 171.369Q-89.7676 173.149 -86.423 174.803Q-83.0783 176.457 -79.6728 177.981Q-76.2673 179.505 -72.806 180.899Q-69.3447 182.292 -65.8326 183.551Q-62.3206 184.811 -58.7629 185.935Q-55.2052 187.06 -51.6071 188.047Q-48.009 189.035 -44.3758 189.884Q-40.7426 190.733 -37.0795 191.442Q-33.4165 192.152 -29.729 192.72Q-26.0415 193.289 -22.3349 193.717Q-18.6283 194.144 -14.9081 194.429Q-11.1879 194.715 -7.45952 194.857Q-3.73113 195 0 195Q2.72764 195 5.4542 194.924Q8.18077 194.847 10.9041 194.695Q13.6275 194.542 16.3455 194.314Q19.0636 194.085 21.7742 193.781Q24.4847 193.476 27.1857 193.096Q29.8867 192.715 32.576 192.26Q35.2653 191.804 37.9408 191.273Q40.6164 190.743 43.276 190.137Q45.9356 189.532 48.5772 188.852Q51.2189 188.173 53.8405 187.42Q56.4621 186.667 59.0616 185.841Q61.6611 185.014 64.2365 184.116Q66.8119 183.217 69.3611 182.247Q71.9104 181.277 74.4315 180.236Q76.9526 179.195 79.4436 178.083Q81.9346 176.972 84.3936 175.792Q86.8525 174.611 89.2775 173.362Q91.7025 172.114 94.0916 170.797Q96.4807 169.481 98.832 168.099Q101.183 166.716 103.495 165.269Q105.807 163.821 108.077 162.309Q110.348 160.798 112.575 159.223Q114.802 157.648 116.984 156.012Q119.167 154.375 121.302 152.679Q123.438 150.982 125.525 149.226Q127.613 147.47 129.65 145.657Q131.687 143.843 133.673 141.973Q135.659 140.104 137.592 138.179Q139.525 136.254 141.403 134.276Q143.281 132.298 145.104 130.269Q146.926 128.239 148.69 126.159Q150.455 124.079 152.161 121.951ZM-131.535 -143.956Q-126.824 -148.261 -121.841 -152.249Q-116.858 -156.237 -111.625 -159.89Q-106.393 -163.543 -100.932 -166.846Q-95.4714 -170.15 -89.8066 -173.089Q-89.3939 -172.648 -89.0025 -172.188Q-88.611 -171.727 -88.2416 -171.249Q-87.8722 -170.771 -87.5257 -170.276Q-87.1791 -169.782 -86.8562 -169.271Q-86.5333 -168.76 -86.2347 -168.235Q-85.9361 -167.71 -85.6626 -167.171Q-85.389 -166.633 -85.141 -166.082Q-84.8931 -165.531 -84.6712 -164.969Q-84.4494 -164.407 -84.2543 -163.835Q-84.0591 -163.264 -83.891 -162.683Q-83.7229 -162.103 -83.5823 -161.516Q-83.4416 -160.928 -83.3287 -160.335Q-83.2158 -159.741 -83.1309 -159.143Q-83.046 -158.545 -82.9893 -157.943Q-82.9326 -157.342 -82.9043 -156.738Q-82.8759 -156.135 -82.8759 -155.531Q-82.8759 -154.9 -82.9068 -154.269Q-82.9378 -153.639 -82.9997 -153.011Q-83.0615 -152.383 -83.1541 -151.759Q-83.2467 -151.135 -83.3698 -150.516Q-83.4929 -149.897 -83.6462 -149.285Q-83.7996 -148.672 -83.9828 -148.069Q-84.166 -147.465 -84.3785 -146.871Q-84.5911 -146.276 -84.8326 -145.693Q-85.0741 -145.11 -85.3439 -144.54Q-85.6138 -143.969 -85.9112 -143.413Q-86.2087 -142.856 -86.5331 -142.315Q-86.8576 -141.774 -87.2082 -141.249Q-87.5588 -140.724 -87.9347 -140.217Q-88.3106 -139.711 -88.711 -139.223Q-89.1113 -138.735 -89.5351 -138.267Q-89.9589 -137.8 -90.4051 -137.354Q-90.8513 -136.907 -91.3189 -136.484Q-91.7865 -136.06 -92.2743 -135.659Q-92.7621 -135.259 -93.269 -134.883Q-93.7758 -134.507 -94.3005 -134.157Q-94.8252 -133.806 -95.3665 -133.482Q-95.9078 -133.157 -96.4643 -132.86Q-97.0209 -132.562 -97.5913 -132.292Q-98.1618 -132.023 -98.7448 -131.781Q-99.3278 -131.54 -99.922 -131.327Q-100.516 -131.114 -101.12 -130.931Q-101.724 -130.748 -102.336 -130.595Q-102.948 -130.441 -103.567 -130.318Q-104.186 -130.195 -104.81 -130.103Q-105.435 -130.01 -106.063 -129.948Q-106.691 -129.886 -107.321 -129.855Q-107.951 -129.824 -108.582 -129.824Q-109.026 -129.824 -109.469 -129.84Q-109.912 -129.855 -110.354 -129.886Q-110.796 -129.916 -111.237 -129.962Q-111.678 -130.008 -112.118 -130.069Q-112.557 -130.13 -112.994 -130.206Q-113.43 -130.282 -113.864 -130.373Q-114.298 -130.464 -114.729 -130.57Q-115.159 -130.676 -115.586 -130.797Q-116.012 -130.918 -116.435 -131.053Q-116.857 -131.189 -117.274 -131.338Q-117.691 -131.488 -118.103 -131.653Q-118.515 -131.817 -118.921 -131.995Q-119.327 -132.173 -119.726 -132.366Q-120.126 -132.558 -120.519 -132.764Q-120.911 -132.97 -121.297 -133.189Q-121.682 -133.408 -122.06 -133.641Q-122.437 -133.873 -122.807 -134.118Q-123.176 -134.364 -123.536 -134.622Q-123.897 -134.88 -124.249 -135.15Q-124.6 -135.42 -124.942 -135.702Q-125.284 -135.984 -125.616 -136.278Q-125.948 -136.572 -126.27 -136.877Q-126.592 -137.182 -126.903 -137.498Q-127.214 -137.814 -127.514 -138.141Q-127.814 -138.467 -128.102 -138.804Q-128.391 -139.141 -128.667 -139.487Q-128.944 -139.833 -129.209 -140.189Q-129.473 -140.545 -129.725 -140.91Q-129.978 -141.274 -130.217 -141.647Q-130.457 -142.021 -130.683 -142.402Q-130.909 -142.783 -131.123 -143.172Q-131.336 -143.56 -131.535 -143.956ZM-179.725 -75.6566Q-178.031 -79.6809 -176.158 -83.6253Q-174.286 -87.5697 -172.239 -91.4264Q-170.192 -95.2831 -167.974 -99.0442Q-165.756 -102.805 -163.372 -106.464Q-160.988 -110.122 -158.443 -113.669Q-155.898 -117.217 -153.197 -120.647Q-150.495 -124.078 -147.643 -127.384Q-144.791 -130.69 -141.793 -133.865Q-141.056 -133.679 -140.328 -133.463Q-139.599 -133.247 -138.88 -133.001Q-138.161 -132.755 -137.452 -132.48Q-136.744 -132.204 -136.048 -131.9Q-135.352 -131.595 -134.668 -131.262Q-133.985 -130.929 -133.317 -130.568Q-132.648 -130.207 -131.995 -129.819Q-131.341 -129.43 -130.705 -129.015Q-130.068 -128.6 -129.449 -128.159Q-128.83 -127.718 -128.23 -127.252Q-127.63 -126.786 -127.05 -126.295Q-126.47 -125.804 -125.91 -125.29Q-125.35 -124.776 -124.813 -124.239Q-124.275 -123.702 -123.76 -123.143Q-123.245 -122.584 -122.753 -122.005Q-122.262 -121.425 -121.794 -120.826Q-121.327 -120.226 -120.885 -119.608Q-120.443 -118.99 -120.027 -118.354Q-119.611 -117.718 -119.222 -117.065Q-118.833 -116.412 -118.471 -115.744Q-118.109 -115.076 -117.774 -114.393Q-117.44 -113.711 -117.135 -113.015Q-116.829 -112.319 -116.553 -111.611Q-116.276 -110.903 -116.029 -110.185Q-115.782 -109.466 -115.565 -108.738Q-115.348 -108.009 -115.162 -107.273Q-114.975 -106.536 -114.819 -105.792Q-114.663 -105.048 -114.537 -104.299Q-114.412 -103.549 -114.318 -102.795Q-114.224 -102.041 -114.161 -101.284Q-114.098 -100.526 -114.067 -99.767Q-114.035 -99.0077 -114.035 -98.2477Q-114.035 -97.3461 -114.08 -96.4455Q-114.124 -95.5449 -114.212 -94.6476Q-114.301 -93.7503 -114.433 -92.8584Q-114.565 -91.9665 -114.741 -91.0822Q-114.917 -90.1978 -115.136 -89.3232Q-115.355 -88.4486 -115.617 -87.5857Q-115.879 -86.7229 -116.183 -85.874Q-116.486 -85.025 -116.831 -84.192Q-117.176 -83.359 -117.562 -82.5439Q-117.947 -81.7288 -118.372 -80.9336Q-118.797 -80.1384 -119.261 -79.365Q-119.725 -78.5917 -120.225 -77.842Q-120.726 -77.0923 -121.264 -76.368Q-121.801 -75.6438 -122.373 -74.9468Q-122.945 -74.2498 -123.55 -73.5818Q-124.156 -72.9137 -124.793 -72.2761Q-125.431 -71.6385 -126.099 -71.033Q-126.767 -70.4275 -127.464 -69.8555Q-128.161 -69.2835 -128.885 -68.7464Q-129.609 -68.2093 -130.359 -67.7083Q-131.109 -67.2074 -131.882 -66.7439Q-132.656 -66.2803 -133.451 -65.8553Q-134.246 -65.4303 -135.061 -65.0447Q-135.876 -64.6592 -136.709 -64.3142Q-137.542 -63.9691 -138.391 -63.6654Q-139.24 -63.3616 -140.103 -63.0999Q-140.966 -62.8382 -141.84 -62.6191Q-142.715 -62.4 -143.599 -62.2241Q-144.484 -62.0482 -145.376 -61.9159Q-146.267 -61.7836 -147.165 -61.6952Q-148.062 -61.6068 -148.963 -61.5626Q-149.863 -61.5183 -150.765 -61.5183Q-151.808 -61.5183 -152.849 -61.5775Q-153.89 -61.6367 -154.926 -61.7548Q-155.962 -61.873 -156.99 -62.0497Q-158.018 -62.2265 -159.034 -62.4613Q-160.05 -62.696 -161.051 -62.9881Q-162.052 -63.2801 -163.035 -63.6285Q-164.018 -63.9769 -164.98 -64.3805Q-165.941 -64.7841 -166.878 -65.2416Q-167.815 -65.6991 -168.725 -66.209Q-169.635 -66.719 -170.514 -67.2797Q-171.393 -67.8405 -172.239 -68.4502Q-173.085 -69.0599 -173.895 -69.7166Q-174.706 -70.3734 -175.477 -71.075Q-176.249 -71.7767 -176.979 -72.521Q-177.709 -73.2653 -178.397 -74.0498Q-179.084 -74.8343 -179.725 -75.6566ZM-3.89535 -22.1682Q-3.89535 -20.8991 -3.95762 -19.6315Q-4.01989 -18.364 -4.14428 -17.101Q-4.26867 -15.838 -4.45489 -14.5827Q-4.6411 -13.3274 -4.88869 -12.0827Q-5.13627 -10.838 -5.44463 -9.6069Q-5.753 -8.37585 -6.12139 -7.16141Q-6.48979 -5.94698 -6.91733 -4.75208Q-7.34487 -3.55718 -7.83053 -2.3847Q-8.31618 -1.21222 -8.85879 -0.0649793Q-9.40139 1.08226 -9.99963 2.20149Q-10.5979 3.32072 -11.2503 4.40925Q-11.9028 5.49778 -12.6078 6.55299Q-13.3129 7.60819 -14.0689 8.62753Q-14.8249 9.64687 -15.63 10.6279Q-16.4351 11.6089 -17.2873 12.5492Q-18.1396 13.4896 -19.037 14.3869Q-19.9344 15.2843 -20.8747 16.1366Q-21.815 16.9888 -22.796 17.7939Q-23.777 18.599 -24.7964 19.355Q-25.8157 20.111 -26.8709 20.8161Q-27.9261 21.5212 -29.0147 22.1736Q-30.1032 22.826 -31.2224 23.4243Q-32.3417 24.0225 -33.4889 24.5651Q-34.6361 25.1077 -35.8086 25.5934Q-36.9811 26.079 -38.176 26.5066Q-39.3709 26.9341 -40.5853 27.3025Q-41.7998 27.6709 -43.0308 27.9793Q-44.2619 28.2876 -45.5066 28.5352Q-46.7513 28.7828 -48.0066 28.969Q-49.262 29.1552 -50.5249 29.2796Q-51.7879 29.404 -53.0555 29.4663Q-54.323 29.5286 -55.5921 29.5286Q-56.8612 29.5286 -58.1287 29.4663Q-59.3963 29.404 -60.6593 29.2796Q-61.9222 29.1552 -63.1776 28.969Q-64.4329 28.7828 -65.6776 28.5352Q-66.9223 28.2876 -68.1534 27.9793Q-69.3844 27.6709 -70.5989 27.3025Q-71.8133 26.9341 -73.0082 26.5066Q-74.2031 26.079 -75.3756 25.5934Q-76.5481 25.1077 -77.6953 24.5651Q-78.8426 24.0225 -79.9618 23.4243Q-81.081 22.826 -82.1695 22.1736Q-83.2581 21.5212 -84.3133 20.8161Q-85.3685 20.111 -86.3878 19.355Q-87.4072 18.599 -88.3882 17.7939Q-89.3692 16.9888 -90.3095 16.1366Q-91.2498 15.2843 -92.1472 14.3869Q-93.0446 13.4896 -93.8969 12.5492Q-94.7491 11.6089 -95.5542 10.6279Q-96.3593 9.64687 -97.1153 8.62753Q-97.8713 7.60819 -98.5764 6.55299Q-99.2814 5.49778 -99.9339 4.40925Q-100.586 3.32072 -101.185 2.20149Q-101.783 1.08226 -102.325 -0.0649789Q-102.868 -1.21222 -103.354 -2.3847Q-103.839 -3.55718 -104.267 -4.75208Q-104.694 -5.94698 -105.063 -7.16141Q-105.431 -8.37585 -105.74 -9.6069Q-106.048 -10.838 -106.296 -12.0827Q-106.543 -13.3274 -106.729 -14.5827Q-106.916 -15.838 -107.04 -17.101Q-107.164 -18.364 -107.227 -19.6315Q-107.289 -20.8991 -107.289 -22.1682Q-107.289 -23.4373 -107.227 -24.7048Q-107.164 -25.9724 -107.04 -27.2354Q-106.916 -28.4983 -106.729 -29.7537Q-106.543 -31.009 -106.296 -32.2537Q-106.048 -33.4984 -105.74 -34.7295Q-105.431 -35.9605 -105.063 -37.175Q-104.694 -38.3894 -104.267 -39.5843Q-103.839 -40.7792 -103.354 -41.9517Q-102.868 -43.1242 -102.325 -44.2714Q-101.783 -45.4186 -101.185 -46.5379Q-100.586 -47.6571 -99.9339 -48.7456Q-99.2814 -49.8342 -98.5764 -50.8894Q-97.8713 -51.9446 -97.1153 -52.9639Q-96.3593 -53.9832 -95.5542 -54.9643Q-94.7491 -55.9453 -93.8969 -56.8856Q-93.0446 -57.8259 -92.1472 -58.7233Q-91.2498 -59.6207 -90.3095 -60.473Q-89.3692 -61.3252 -88.3882 -62.1303Q-87.4072 -62.9354 -86.3878 -63.6914Q-85.3685 -64.4474 -84.3133 -65.1525Q-83.2581 -65.8575 -82.1695 -66.51Q-81.081 -67.1624 -79.9618 -67.7607Q-78.8426 -68.3589 -77.6953 -68.9015Q-76.5481 -69.4441 -75.3756 -69.9298Q-74.2031 -70.4154 -73.0082 -70.843Q-71.8133 -71.2705 -70.5989 -71.6389Q-69.3844 -72.0073 -68.1534 -72.3157Q-66.9223 -72.624 -65.6776 -72.8716Q-64.4329 -73.1192 -63.1776 -73.3054Q-61.9222 -73.4916 -60.6593 -73.616Q-59.3963 -73.7404 -58.1287 -73.8027Q-56.8612 -73.8649 -55.5921 -73.8649Q-54.323 -73.8649 -53.0555 -73.8027Q-51.7879 -73.7404 -50.5249 -73.616Q-49.262 -73.4916 -48.0066 -73.3054Q-46.7513 -73.1192 -45.5066 -72.8716Q-44.2619 -72.624 -43.0308 -72.3157Q-41.7998 -72.0073 -40.5853 -71.6389Q-39.3709 -71.2705 -38.176 -70.843Q-36.9811 -70.4154 -35.8086 -69.9298Q-34.6361 -69.4441 -33.4889 -68.9015Q-32.3417 -68.3589 -31.2224 -67.7607Q-30.1032 -67.1624 -29.0147 -66.51Q-27.9261 -65.8575 -26.8709 -65.1525Q-25.8157 -64.4474 -24.7964 -63.6914Q-23.777 -62.9354 -22.796 -62.1303Q-21.815 -61.3252 -20.8747 -60.473Q-19.9344 -59.6207 -19.037 -58.7233Q-18.1396 -57.8259 -17.2873 -56.8856Q-16.4351 -55.9453 -15.63 -54.9643Q-14.8249 -53.9832 -14.0689 -52.9639Q-13.3129 -51.9446 -12.6078 -50.8894Q-11.9028 -49.8342 -11.2503 -48.7456Q-10.5979 -47.6571 -9.99963 -46.5379Q-9.40139 -45.4186 -8.85879 -44.2714Q-8.31618 -43.1242 -7.83053 -41.9517Q-7.34487 -40.7792 -6.91733 -39.5843Q-6.48979 -38.3894 -6.12139 -37.175Q-5.753 -35.9605 -5.44463 -34.7295Q-5.13627 -33.4984 -4.88869 -32.2537Q-4.6411 -31.009 -4.45489 -29.7537Q-4.26867 -28.4983 -4.14428 -27.2354Q-4.01989 -25.9724 -3.95762 -24.7048Q-3.89535 -23.4373 -3.89535 -22.1682Z" fill-rule="evenodd"/>
	<path fill="#999" transform="matrix(0.106608 0.0106964 -0.0106964 0.106608 55 47.8571)" d="M193.782 21.7643Q195 10.9162 195 0Q195 -8.46899 194.266 -16.9061Q193.532 -25.3432 192.069 -33.6849Q189.637 -34.1119 187.168 -34.1119Q186.473 -34.1119 185.778 -34.0778Q185.083 -34.0437 184.391 -33.9755Q183.699 -33.9073 183.011 -33.8053Q182.323 -33.7033 181.641 -33.5676Q180.959 -33.4319 180.285 -33.2629Q179.61 -33.094 178.945 -32.8921Q178.279 -32.6902 177.624 -32.4559Q176.969 -32.2216 176.327 -31.9555Q175.684 -31.6893 175.056 -31.392Q174.427 -31.0947 173.814 -30.7668Q173.2 -30.439 172.604 -30.0815Q172.007 -29.7239 171.429 -29.3376Q170.851 -28.9512 170.292 -28.5369Q169.734 -28.1226 169.196 -27.6814Q168.659 -27.2402 168.143 -26.7732Q167.628 -26.3062 167.136 -25.8144Q166.644 -25.3227 166.177 -24.8074Q165.71 -24.2921 165.269 -23.7545Q164.828 -23.2169 164.414 -22.6583Q163.999 -22.0997 163.613 -21.5215Q163.227 -20.9432 162.869 -20.3467Q162.512 -19.7502 162.184 -19.1369Q161.856 -18.5235 161.559 -17.8949Q161.261 -17.2662 160.995 -16.6237Q160.729 -15.9812 160.495 -15.3264Q160.26 -14.6716 160.059 -14.0061Q159.857 -13.3406 159.688 -12.6659Q159.519 -11.9913 159.383 -11.3093Q159.247 -10.6272 159.145 -9.93925Q159.043 -9.25132 158.975 -8.55922Q158.907 -7.86712 158.873 -7.17251Q158.839 -6.4779 158.839 -5.78245Q158.839 -5.087 158.873 -4.39239Q158.907 -3.69777 158.975 -3.00567Q159.043 -2.31357 159.145 -1.62565Q159.247 -0.937727 159.383 -0.25564Q159.519 0.426447 159.688 1.10105Q159.857 1.77566 160.059 2.44117Q160.26 3.10667 160.495 3.76147Q160.729 4.41626 160.995 5.05877Q161.261 5.70129 161.559 6.32997Q161.856 6.95864 162.184 7.57198Q162.512 8.18531 162.869 8.78182Q163.227 9.37832 163.613 9.95657Q163.999 10.5348 164.414 11.0934Q164.828 11.652 165.269 12.1896Q165.71 12.7272 166.177 13.2425Q166.644 13.7578 167.136 14.2495Q167.628 14.7413 168.143 15.2083Q168.659 15.6753 169.196 16.1165Q169.734 16.5577 170.292 16.972Q170.851 17.3863 171.429 17.7727Q172.007 18.159 172.604 18.5166Q173.2 18.8741 173.814 19.2019Q174.427 19.5298 175.056 19.8271Q175.684 20.1244 176.327 20.3906Q176.969 20.6567 177.624 20.891Q178.279 21.1253 178.945 21.3272Q179.61 21.5291 180.285 21.698Q180.959 21.867 181.641 22.0027Q182.323 22.1384 183.011 22.2404Q183.699 22.3425 184.391 22.4106Q185.083 22.4788 185.778 22.5129Q186.473 22.547 187.168 22.547Q190.521 22.547 193.782 21.7643ZM150.242 124.307Q149.656 123.644 149.052 122.997Q148.449 122.35 147.828 121.719Q147.208 121.088 146.571 120.474Q145.934 119.859 145.281 119.262Q144.628 118.665 143.959 118.085Q143.29 117.505 142.607 116.944Q141.923 116.382 141.225 115.838Q140.526 115.295 139.814 114.77Q139.101 114.245 138.375 113.739Q137.649 113.233 136.91 112.746Q136.171 112.26 135.419 111.793Q134.667 111.326 133.903 110.88Q133.139 110.433 132.363 110.007Q131.588 109.58 130.802 109.174Q130.015 108.769 129.218 108.384Q128.421 107.999 127.614 107.636Q126.807 107.272 125.991 106.93Q125.175 106.588 124.35 106.268Q123.525 105.947 122.692 105.649Q121.859 105.351 121.018 105.074Q120.177 104.798 119.33 104.544Q118.482 104.29 117.628 104.059Q116.774 103.827 115.914 103.619Q115.054 103.41 114.188 103.224Q113.323 103.038 112.453 102.875Q111.584 102.712 110.71 102.572Q109.836 102.432 108.959 102.316Q108.081 102.199 107.201 102.105Q106.321 102.012 105.439 101.942Q104.557 101.872 103.673 101.825Q102.79 101.778 101.905 101.755Q101.02 101.731 100.135 101.731Q98.5624 101.731 96.9913 101.805Q95.4201 101.879 93.8542 102.027Q92.2883 102.174 90.731 102.395Q89.1738 102.617 87.6287 102.911Q86.0835 103.205 84.5539 103.571Q83.0243 103.937 81.5136 104.375Q80.0029 104.813 78.5145 105.322Q77.026 105.83 75.5631 106.408Q74.1002 106.985 72.6661 107.631Q71.2319 108.277 69.8297 108.99Q68.4275 109.702 67.0604 110.48Q65.6932 111.258 64.3641 112.099Q63.035 112.94 61.7469 113.843Q60.4589 114.745 59.2146 115.707Q57.9704 116.669 56.7727 117.689Q55.5751 118.709 54.4267 119.783Q53.3399 120.1 52.2647 120.454Q51.1896 120.808 50.1272 121.199Q49.0649 121.59 48.0167 122.017Q46.9684 122.444 45.9356 122.907Q44.9027 123.37 43.8864 123.869Q42.8701 124.367 41.8716 124.9Q40.873 125.433 39.8935 126Q38.9139 126.568 37.9545 127.168Q36.9951 127.769 36.057 128.403Q35.1189 129.036 34.2032 129.701Q33.2874 130.367 32.3952 131.063Q31.5029 131.76 30.6352 132.487Q29.7675 133.214 28.9254 133.97Q28.0833 134.726 27.2677 135.511Q26.4522 136.296 25.6642 137.109Q24.8762 137.921 24.1166 138.761Q23.3571 139.6 22.627 140.465Q21.8968 141.33 21.1969 142.22Q20.4971 143.109 19.8283 144.022Q19.1595 144.936 18.5226 145.871Q17.8856 146.807 17.2814 147.764Q16.6771 148.721 16.1062 149.699Q15.5352 150.676 14.9984 151.673Q14.4615 152.669 13.9593 153.684Q13.457 154.698 12.9901 155.729Q12.5232 156.76 12.092 157.807Q11.6609 158.854 11.2661 159.915Q10.8714 160.975 10.5134 162.049Q10.1554 163.123 9.8347 164.209Q9.51396 165.294 9.23084 166.39Q8.94772 167.486 8.70255 168.591Q8.45738 169.696 8.25045 170.809Q7.74045 168.332 7.02884 165.905Q6.31723 163.478 5.40882 161.117Q4.50041 158.757 3.40133 156.479Q2.30224 154.201 1.01991 152.021Q1.49851 151.816 1.96933 151.594Q2.44015 151.371 2.90256 151.132Q3.36498 150.893 3.81837 150.637Q4.27175 150.381 4.71552 150.109Q5.15928 149.837 5.59283 149.549Q6.02638 149.26 6.44914 148.956Q6.8719 148.653 7.2833 148.334Q7.69471 148.015 8.09422 147.681Q8.49372 147.347 8.8808 146.999Q9.26788 146.651 9.64202 146.289Q10.0162 145.927 10.3768 145.551Q10.7375 145.176 11.0843 144.788Q11.4311 144.399 11.7635 143.999Q12.0959 143.598 12.4135 143.185Q12.731 142.773 13.0334 142.349Q13.3357 141.925 13.6224 141.491Q13.9091 141.056 14.1797 140.611Q14.4504 140.167 14.7046 139.712Q14.9589 139.258 15.1965 138.795Q15.434 138.331 15.6545 137.86Q15.875 137.388 16.0782 136.909Q16.2814 136.43 16.467 135.943Q16.6526 135.457 16.8203 134.964Q16.988 134.471 17.1377 133.972Q17.2873 133.474 17.4187 132.97Q17.5501 132.466 17.6631 131.958Q17.776 131.45 17.8704 130.938Q17.9647 130.426 18.0403 129.911Q18.116 129.396 18.1728 128.878Q18.2296 128.361 18.2675 127.842Q18.3054 127.322 18.3244 126.802Q18.3434 126.282 18.3434 125.761Q18.3434 125.06 18.309 124.36Q18.2746 123.659 18.2058 122.961Q18.1371 122.264 18.0342 121.57Q17.9313 120.876 17.7945 120.189Q17.6577 119.501 17.4874 118.821Q17.317 118.14 17.1134 117.469Q16.9099 116.798 16.6736 116.138Q16.4374 115.478 16.1691 114.83Q15.9007 114.182 15.6009 113.548Q15.3011 112.915 14.9706 112.296Q14.64 111.678 14.2795 111.076Q13.919 110.475 13.5295 109.892Q13.1399 109.309 12.7222 108.746Q12.3045 108.182 11.8596 107.64Q11.4148 107.098 10.9439 106.579Q10.473 106.059 9.97717 105.563Q9.48135 105.068 8.96179 104.597Q8.44223 104.126 7.90019 103.681Q7.35815 103.236 6.79493 102.818Q6.23172 102.401 5.64868 102.011Q5.06565 101.621 4.46421 101.261Q3.86276 100.901 3.24435 100.57Q2.62594 100.239 1.99206 99.9396Q1.35817 99.6398 0.710344 99.3715Q0.0625133 99.1031 -0.597704 98.8669Q-1.25792 98.6307 -1.92893 98.4271Q-2.59995 98.2236 -3.28014 98.0532Q-3.96033 97.8828 -4.64807 97.746Q-5.3358 97.6092 -6.02942 97.5063Q-6.72304 97.4035 -7.42087 97.3347Q-8.1187 97.266 -8.81906 97.2316Q-9.51942 97.1972 -10.2206 97.1972Q-10.881 97.1972 -11.5406 97.2277Q-12.2003 97.2582 -12.8578 97.3192Q-13.5154 97.3801 -14.1694 97.4714Q-14.8234 97.5627 -15.4725 97.6841Q-16.1216 97.8055 -16.7644 97.9568Q-17.4072 98.1081 -18.0423 98.2889Q-18.6774 98.4698 -19.3035 98.6797Q-19.9296 98.8897 -20.5453 99.1284Q-21.161 99.3671 -21.765 99.634Q-22.3691 99.9009 -22.9601 100.195Q-23.5511 100.49 -24.128 100.811Q-24.7048 101.133 -25.2661 101.481Q-25.8274 101.829 -26.3721 102.202Q-26.9167 102.575 -27.4435 102.974Q-27.9703 103.372 -28.4782 103.794Q-28.9861 104.216 -29.4739 104.661Q-29.9617 105.106 -30.4284 105.573Q-30.8951 106.04 -31.3397 106.529Q-31.7843 107.017 -32.2059 107.525Q-32.6275 108.034 -33.0252 108.561Q-33.4228 109.088 -33.7957 109.633Q-34.1685 110.178 -34.5158 110.74Q-34.8631 111.301 -35.184 111.878Q-35.505 112.456 -35.7989 113.047Q-36.0929 113.638 -36.3592 114.243Q-36.6255 114.847 -36.8635 115.463Q-37.1016 116.079 -37.311 116.705Q-37.5204 117.331 -37.7006 117.967Q-37.8808 118.602 -38.0314 119.245Q-38.1821 119.888 -38.3028 120.537Q-38.4236 121.186 -38.5142 121.84Q-38.6049 122.494 -38.6652 123.152Q-41.9527 122.421 -45.3003 122.054Q-48.6479 121.686 -52.0156 121.686Q-53.1764 121.686 -54.3364 121.73Q-55.4964 121.774 -56.6539 121.861Q-57.8113 121.949 -58.9647 122.08Q-60.1181 122.211 -61.2657 122.385Q-62.4133 122.56 -63.5535 122.778Q-64.6937 122.995 -65.8249 123.256Q-66.956 123.516 -68.0766 123.819Q-69.1971 124.122 -70.3055 124.467Q-71.4138 124.812 -72.5083 125.199Q-73.6028 125.586 -74.682 126.013Q-75.7612 126.441 -76.8234 126.909Q-77.8857 127.377 -78.9295 127.885Q-79.9734 128.392 -80.9974 128.939Q-82.0213 129.486 -83.0239 130.071Q-84.0266 130.656 -85.0064 131.278Q-85.9862 131.901 -86.9419 132.56Q-87.8975 133.218 -88.8277 133.913Q-89.7578 134.607 -90.6611 135.336Q-91.5643 136.066 -92.4395 136.828Q-93.3146 137.591 -94.1604 138.386Q-95.0061 139.181 -95.8213 140.007Q-96.6364 140.834 -97.4198 141.69Q-98.2032 142.547 -98.9538 143.432Q-99.7043 144.318 -100.421 145.231Q-101.138 146.144 -101.819 147.084Q-102.501 148.023 -103.147 148.988Q-103.792 149.953 -104.401 150.941Q-105.01 151.929 -105.581 152.94Q-106.152 153.95 -106.685 154.982Q-107.218 156.013 -107.711 157.064Q-108.204 158.114 -108.658 159.183Q-109.111 160.252 -109.524 161.337Q-106.517 163.378 -103.436 165.306Q-100.354 167.234 -97.2035 169.046Q-94.0526 170.858 -90.8363 172.551Q-87.6201 174.244 -84.343 175.816Q-81.0659 177.388 -77.7324 178.837Q-74.399 180.286 -71.0139 181.61Q-67.6288 182.933 -64.1967 184.13Q-60.7647 185.326 -57.2904 186.394Q-53.8161 187.462 -50.3044 188.4Q-46.7928 189.337 -43.2486 190.144Q-39.7044 190.95 -36.1327 191.623Q-32.5609 192.297 -28.9666 192.837Q-25.3722 193.376 -21.7602 193.782Q-18.1482 194.188 -14.5236 194.458Q-10.899 194.729 -7.26686 194.865Q-3.63469 195 0 195Q2.68015 195 5.35928 194.926Q8.03842 194.853 10.7145 194.705Q13.3906 194.558 16.0617 194.337Q18.7327 194.117 21.3967 193.823Q24.0606 193.528 26.7155 193.161Q29.3704 192.794 32.0142 192.354Q34.6579 191.914 37.2886 191.402Q39.9193 190.889 42.5349 190.304Q45.1505 189.72 47.7491 189.064Q50.3476 188.407 52.9272 187.68Q55.5067 186.952 58.0653 186.154Q60.6238 185.356 63.1595 184.488Q65.6952 183.62 68.206 182.683Q70.7169 181.745 73.201 180.739Q75.6852 179.733 78.1407 178.659Q80.5963 177.585 83.0214 176.444Q85.4465 175.303 87.8393 174.096Q90.2321 172.888 92.5909 171.616Q94.9496 170.343 97.2725 169.006Q99.5954 167.669 101.881 166.269Q104.166 164.869 106.412 163.406Q108.658 161.943 110.863 160.42Q113.067 158.896 115.23 157.312Q117.392 155.728 119.51 154.086Q121.627 152.443 123.699 150.743Q125.771 149.043 127.795 147.287Q129.82 145.53 131.795 143.719Q133.77 141.907 135.695 140.042Q137.62 138.177 139.493 136.26Q141.366 134.343 143.185 132.375Q145.004 130.407 146.769 128.389Q148.534 126.372 150.242 124.307ZM-129.212 -146.045Q-125.018 -149.756 -120.618 -153.22Q-116.217 -156.684 -111.625 -159.89Q-107.034 -163.096 -102.265 -166.033Q-97.497 -168.97 -92.568 -171.628Q-92.1715 -171.234 -91.7949 -170.82Q-91.4184 -170.407 -91.0626 -169.975Q-90.7068 -169.544 -90.3728 -169.095Q-90.0387 -168.647 -89.7271 -168.182Q-89.4155 -167.718 -89.1271 -167.239Q-88.8387 -166.76 -88.5743 -166.267Q-88.3099 -165.774 -88.0701 -165.269Q-87.8302 -164.764 -87.6155 -164.247Q-87.4009 -163.731 -87.2119 -163.204Q-87.0229 -162.678 -86.86 -162.143Q-86.6971 -161.608 -86.5608 -161.066Q-86.4245 -160.523 -86.315 -159.975Q-86.2056 -159.426 -86.1233 -158.873Q-86.0409 -158.32 -85.9859 -157.764Q-85.9309 -157.207 -85.9034 -156.649Q-85.8759 -156.09 -85.8759 -155.531Q-85.8759 -154.973 -85.9032 -154.417Q-85.9306 -153.86 -85.9852 -153.305Q-86.0398 -152.75 -86.1216 -152.199Q-86.2034 -151.648 -86.3122 -151.101Q-86.4209 -150.554 -86.5564 -150.014Q-86.6918 -149.473 -86.8536 -148.939Q-87.0154 -148.406 -87.2032 -147.881Q-87.391 -147.356 -87.6043 -146.841Q-87.8176 -146.326 -88.0559 -145.822Q-88.2942 -145.319 -88.557 -144.827Q-88.8198 -144.335 -89.1063 -143.857Q-89.3929 -143.379 -89.7026 -142.916Q-90.0123 -142.452 -90.3443 -142.005Q-90.6763 -141.557 -91.03 -141.126Q-91.3836 -140.695 -91.7579 -140.282Q-92.1322 -139.869 -92.5264 -139.475Q-92.9205 -139.081 -93.3336 -138.706Q-93.7466 -138.332 -94.1775 -137.978Q-94.6083 -137.625 -95.0561 -137.293Q-95.5038 -136.961 -95.9672 -136.651Q-96.4307 -136.341 -96.9088 -136.055Q-97.3869 -135.768 -97.8785 -135.505Q-98.3701 -135.243 -98.874 -135.004Q-99.3779 -134.766 -99.8929 -134.553Q-100.408 -134.339 -100.933 -134.152Q-101.458 -133.964 -101.991 -133.802Q-102.524 -133.64 -103.065 -133.505Q-103.606 -133.369 -104.152 -133.261Q-104.699 -133.152 -105.251 -133.07Q-105.802 -132.988 -106.357 -132.934Q-106.911 -132.879 -107.468 -132.852Q-108.025 -132.824 -108.582 -132.824Q-108.987 -132.824 -109.391 -132.839Q-109.795 -132.853 -110.198 -132.882Q-110.602 -132.911 -111.004 -132.954Q-111.406 -132.997 -111.806 -133.054Q-112.207 -133.112 -112.605 -133.184Q-113.003 -133.255 -113.398 -133.341Q-113.793 -133.427 -114.185 -133.527Q-114.577 -133.626 -114.965 -133.74Q-115.353 -133.854 -115.737 -133.981Q-116.121 -134.109 -116.5 -134.25Q-116.879 -134.391 -117.253 -134.545Q-117.627 -134.7 -117.995 -134.867Q-118.363 -135.035 -118.725 -135.216Q-119.087 -135.396 -119.442 -135.59Q-119.797 -135.783 -120.145 -135.989Q-120.493 -136.195 -120.834 -136.413Q-121.174 -136.631 -121.507 -136.862Q-121.839 -137.092 -122.163 -137.334Q-122.487 -137.576 -122.803 -137.829Q-123.118 -138.082 -123.424 -138.347Q-123.73 -138.611 -124.027 -138.886Q-124.323 -139.161 -124.61 -139.447Q-124.896 -139.732 -125.172 -140.028Q-125.448 -140.323 -125.714 -140.628Q-125.979 -140.933 -126.234 -141.248Q-126.488 -141.562 -126.731 -141.885Q-126.974 -142.209 -127.206 -142.54Q-127.437 -142.872 -127.656 -143.212Q-127.876 -143.552 -128.083 -143.899Q-128.29 -144.246 -128.485 -144.601Q-128.679 -144.955 -128.861 -145.316Q-129.043 -145.678 -129.212 -146.045ZM-178.351 -78.8401Q-176.761 -82.4371 -175.028 -85.967Q-173.294 -89.4969 -171.419 -92.954Q-169.545 -96.4112 -167.532 -99.7899Q-165.519 -103.169 -163.372 -106.464Q-161.225 -109.758 -158.947 -112.964Q-156.669 -116.17 -154.263 -119.281Q-151.857 -122.392 -149.328 -125.403Q-146.799 -128.415 -144.151 -131.322Q-143.441 -131.18 -142.738 -131.008Q-142.035 -130.836 -141.34 -130.633Q-140.644 -130.431 -139.959 -130.199Q-139.273 -129.967 -138.598 -129.706Q-137.923 -129.445 -137.259 -129.155Q-136.596 -128.865 -135.945 -128.547Q-135.295 -128.229 -134.659 -127.883Q-134.023 -127.538 -133.402 -127.165Q-132.782 -126.792 -132.178 -126.394Q-131.573 -125.995 -130.987 -125.57Q-130.401 -125.146 -129.833 -124.696Q-129.265 -124.247 -128.717 -123.774Q-128.17 -123.301 -127.643 -122.804Q-127.115 -122.308 -126.61 -121.79Q-126.105 -121.271 -125.622 -120.732Q-125.14 -120.192 -124.681 -119.632Q-124.222 -119.072 -123.787 -118.493Q-123.353 -117.914 -122.943 -117.317Q-122.534 -116.72 -122.151 -116.106Q-121.768 -115.492 -121.411 -114.862Q-121.054 -114.232 -120.725 -113.587Q-120.396 -112.942 -120.095 -112.284Q-119.793 -111.626 -119.521 -110.955Q-119.248 -110.284 -119.004 -109.603Q-118.761 -108.921 -118.546 -108.23Q-118.332 -107.538 -118.148 -106.838Q-117.963 -106.138 -117.809 -105.431Q-117.655 -104.723 -117.531 -104.01Q-117.408 -103.297 -117.315 -102.579Q-117.222 -101.861 -117.16 -101.139Q-117.098 -100.418 -117.067 -99.6949Q-117.035 -98.9717 -117.035 -98.2477Q-117.035 -97.4197 -117.076 -96.5927Q-117.117 -95.7657 -117.198 -94.9417Q-117.279 -94.1176 -117.401 -93.2986Q-117.522 -92.4795 -117.684 -91.6674Q-117.845 -90.8553 -118.046 -90.0521Q-118.247 -89.249 -118.488 -88.4566Q-118.728 -87.6642 -119.007 -86.8846Q-119.286 -86.105 -119.603 -85.34Q-119.92 -84.5751 -120.274 -83.8265Q-120.628 -83.078 -121.018 -82.3478Q-121.409 -81.6176 -121.834 -80.9073Q-122.26 -80.1971 -122.72 -79.5087Q-123.18 -78.8202 -123.673 -78.1551Q-124.166 -77.4901 -124.692 -76.85Q-125.217 -76.21 -125.773 -75.5964Q-126.329 -74.9829 -126.915 -74.3974Q-127.5 -73.8119 -128.114 -73.2559Q-128.727 -72.6998 -129.367 -72.1745Q-130.007 -71.6493 -130.672 -71.156Q-131.337 -70.6628 -132.026 -70.2027Q-132.714 -69.7427 -133.424 -69.317Q-134.135 -68.8914 -134.865 -68.5011Q-135.595 -68.1107 -136.344 -67.7567Q-137.092 -67.4027 -137.857 -67.0858Q-138.622 -66.769 -139.402 -66.49Q-140.181 -66.2111 -140.974 -65.9707Q-141.766 -65.7303 -142.569 -65.5292Q-143.372 -65.328 -144.185 -65.1664Q-144.997 -65.0049 -145.816 -64.8834Q-146.635 -64.7619 -147.459 -64.6807Q-148.283 -64.5996 -149.11 -64.559Q-149.937 -64.5183 -150.765 -64.5183Q-151.775 -64.5183 -152.783 -64.5787Q-153.791 -64.6391 -154.793 -64.7597Q-155.796 -64.8803 -156.789 -65.0607Q-157.783 -65.241 -158.764 -65.4805Q-159.745 -65.72 -160.71 -66.0177Q-161.674 -66.3154 -162.62 -66.6703Q-163.565 -67.0252 -164.488 -67.436Q-165.41 -67.8469 -166.306 -68.3121Q-167.202 -68.7774 -168.069 -69.2954Q-168.936 -69.8135 -169.77 -70.3825Q-170.604 -70.9514 -171.403 -71.5693Q-172.202 -72.1871 -172.962 -72.8517Q-173.722 -73.5162 -174.441 -74.225Q-175.161 -74.9338 -175.836 -75.6844Q-176.512 -76.435 -177.141 -77.2246Q-177.77 -78.0143 -178.351 -78.8401ZM-6.89535 -22.1682Q-6.89535 -20.9728 -6.95401 -19.7788Q-7.01266 -18.5848 -7.12984 -17.3951Q-7.24701 -16.2054 -7.42242 -15.0229Q-7.59782 -13.8404 -7.83104 -12.6679Q-8.06426 -11.4955 -8.35473 -10.3358Q-8.6452 -9.17623 -8.99221 -8.03227Q-9.33923 -6.88831 -9.74196 -5.76275Q-10.1447 -4.63719 -10.6022 -3.53275Q-11.0596 -2.42831 -11.5708 -1.34765Q-12.0819 -0.266982 -12.6454 0.7873Q-13.2089 1.84158 -13.8235 2.86694Q-14.4381 3.89231 -15.1022 4.88628Q-15.7664 5.88025 -16.4785 6.84043Q-17.1906 7.80062 -17.949 8.7247Q-18.7074 9.64879 -19.5102 10.5345Q-20.313 11.4203 -21.1583 12.2656Q-22.0036 13.1109 -22.8894 13.9137Q-23.7751 14.7165 -24.6992 15.4749Q-25.6233 16.2333 -26.5835 16.9454Q-27.5437 17.6575 -28.5376 18.3217Q-29.5316 18.9858 -30.557 19.6004Q-31.5823 20.215 -32.6366 20.7785Q-33.6909 21.342 -34.7716 21.8532Q-35.8522 22.3643 -36.9567 22.8217Q-38.0611 23.2792 -39.1867 23.6819Q-40.3122 24.0847 -41.4562 24.4317Q-42.6001 24.7787 -43.7598 25.0692Q-44.9194 25.3596 -46.0918 25.5929Q-47.2643 25.8261 -48.4468 26.0015Q-49.6293 26.1769 -50.819 26.2941Q-52.0087 26.4112 -53.2027 26.4699Q-54.3967 26.5286 -55.5921 26.5286Q-56.7875 26.5286 -57.9815 26.4699Q-59.1755 26.4113 -60.3652 26.2941Q-61.5549 26.1769 -62.7374 26.0015Q-63.9199 25.8261 -65.0924 25.5929Q-66.2648 25.3596 -67.4244 25.0692Q-68.5841 24.7787 -69.728 24.4317Q-70.872 24.0847 -71.9975 23.6819Q-73.1231 23.2792 -74.2275 22.8217Q-75.332 22.3643 -76.4126 21.8532Q-77.4933 21.342 -78.5476 20.7785Q-79.6019 20.215 -80.6272 19.6004Q-81.6526 18.9858 -82.6466 18.3217Q-83.6405 17.6575 -84.6007 16.9454Q-85.5609 16.2333 -86.485 15.4749Q-87.4091 14.7165 -88.2948 13.9137Q-89.1806 13.1109 -90.0259 12.2656Q-90.8712 11.4203 -91.674 10.5346Q-92.4768 9.64879 -93.2352 8.7247Q-93.9936 7.80062 -94.7057 6.84043Q-95.4178 5.88025 -96.082 4.88628Q-96.7461 3.89231 -97.3607 2.86694Q-97.9753 1.84158 -98.5388 0.7873Q-99.1023 -0.266982 -99.6134 -1.34765Q-100.125 -2.42831 -100.582 -3.53275Q-101.04 -4.63719 -101.442 -5.76275Q-101.845 -6.88831 -102.192 -8.03227Q-102.539 -9.17623 -102.829 -10.3358Q-103.12 -11.4955 -103.353 -12.6679Q-103.586 -13.8404 -103.762 -15.0229Q-103.937 -16.2054 -104.054 -17.3951Q-104.172 -18.5848 -104.23 -19.7788Q-104.289 -20.9728 -104.289 -22.1682Q-104.289 -23.3636 -104.23 -24.5576Q-104.172 -25.7516 -104.054 -26.9413Q-103.937 -28.131 -103.762 -29.3135Q-103.586 -30.496 -103.353 -31.6685Q-103.12 -32.8409 -102.829 -34.0005Q-102.539 -35.1601 -102.192 -36.3041Q-101.845 -37.4481 -101.442 -38.5736Q-101.039 -39.6992 -100.582 -40.8036Q-100.125 -41.9081 -99.6134 -42.9887Q-99.1023 -44.0694 -98.5388 -45.1237Q-97.9753 -46.178 -97.3607 -47.2033Q-96.7461 -48.2287 -96.082 -49.2227Q-95.4178 -50.2166 -94.7057 -51.1768Q-93.9936 -52.137 -93.2352 -53.0611Q-92.4768 -53.9852 -91.674 -54.8709Q-90.8712 -55.7567 -90.0259 -56.602Q-89.1806 -57.4473 -88.2948 -58.2501Q-87.4091 -59.0529 -86.485 -59.8113Q-85.5609 -60.5697 -84.6007 -61.2818Q-83.6405 -61.9939 -82.6466 -62.6581Q-81.6526 -63.3222 -80.6272 -63.9368Q-79.6019 -64.5514 -78.5476 -65.1149Q-77.4933 -65.6784 -76.4126 -66.1895Q-75.332 -66.7006 -74.2275 -67.1581Q-73.1231 -67.6156 -71.9975 -68.0183Q-70.872 -68.4211 -69.728 -68.7681Q-68.584 -69.1151 -67.4244 -69.4056Q-66.2648 -69.696 -65.0924 -69.9292Q-63.9199 -70.1625 -62.7374 -70.3379Q-61.5549 -70.5133 -60.3652 -70.6305Q-59.1755 -70.7476 -57.9815 -70.8063Q-56.7875 -70.8649 -55.5921 -70.8649Q-54.3967 -70.8649 -53.2027 -70.8063Q-52.0087 -70.7476 -50.819 -70.6305Q-49.6293 -70.5133 -48.4468 -70.3379Q-47.2643 -70.1625 -46.0918 -69.9292Q-44.9194 -69.696 -43.7598 -69.4056Q-42.6001 -69.1151 -41.4562 -68.7681Q-40.3122 -68.4211 -39.1867 -68.0183Q-38.0611 -67.6156 -36.9567 -67.1581Q-35.8522 -66.7006 -34.7716 -66.1895Q-33.6909 -65.6784 -32.6366 -65.1149Q-31.5823 -64.5514 -30.557 -63.9368Q-29.5316 -63.3222 -28.5376 -62.6581Q-27.5437 -61.9939 -26.5835 -61.2818Q-25.6233 -60.5697 -24.6992 -59.8113Q-23.7751 -59.0529 -22.8894 -58.2501Q-22.0036 -57.4473 -21.1583 -56.602Q-20.313 -55.7567 -19.5102 -54.8709Q-18.7074 -53.9852 -17.949 -53.0611Q-17.1906 -52.137 -16.4785 -51.1768Q-15.7664 -50.2166 -15.1022 -49.2227Q-14.4381 -48.2287 -13.8235 -47.2033Q-13.2089 -46.178 -12.6454 -45.1237Q-12.0819 -44.0694 -11.5708 -42.9887Q-11.0596 -41.9081 -10.6022 -40.8036Q-10.1447 -39.6992 -9.74196 -38.5736Q-9.33923 -37.4481 -8.99221 -36.3041Q-8.6452 -35.1601 -8.35473 -34.0005Q-8.06426 -32.8409 -7.83104 -31.6685Q-7.59782 -30.496 -7.42242 -29.3135Q-7.24701 -28.131 -7.12984 -26.9413Q-7.01266 -25.7516 -6.95401 -24.5576Q-6.89535 -23.3636 -6.89535 -22.1682Z" fill-rule="evenodd"/>
	<path fill="none" stroke="black" stroke-width="2.3999999" stroke-linejoin="round" transform="translate(55 79.2857)" d="M-21.7216 -6.4323Q-21.3603 -5.76824 -20.8916 -4.79656Q-20.4179 -3.82977 -19.9101 -2.69695Q-19.4023 -1.56902 -18.9043 -0.387383Q-18.4013 0.789375 -17.9619 1.82941Q-17.5175 0.789375 -17.0195 -0.387383Q-16.5215 -1.56902 -16.0136 -2.69695Q-15.5009 -3.82977 -15.0322 -4.79656Q-14.5586 -5.76824 -14.2021 -6.4323L-11.3603 -6.4323Q-11.1601 -5.05047 -10.9892 -3.3366Q-10.8183 -1.62762 -10.6914 0.222969Q-10.5595 2.06867 -10.4521 3.92902Q-10.3398 5.78937 -10.2617 7.43L-13.2988 7.43Q-13.3623 5.40852 -13.4599 3.03059Q-13.5576 0.647773 -13.7578 -1.76922Q-14.1191 -0.929375 -14.5586 0.0911326Q-14.998 1.11164 -15.4326 2.13215Q-15.8623 3.14777 -16.2627 4.08039Q-16.6582 5.00812 -16.9414 5.67219L-19.1191 5.67219Q-19.4023 5.00812 -19.8027 4.08039Q-20.1982 3.14777 -20.6279 2.13215Q-21.0576 1.11164 -21.5019 0.0911326Q-21.9414 -0.929375 -22.2978 -1.76922Q-22.498 0.647773 -22.6006 3.03059Q-22.6982 5.40852 -22.7617 7.43L-25.7988 7.43Q-25.7207 5.78937 -25.6133 3.92902Q-25.5009 2.06867 -25.374 0.222969Q-25.2422 -1.62762 -25.0713 -3.3366Q-24.9004 -5.05047 -24.7002 -6.4323L-21.7216 -6.4323ZM2.18025 2.15168Q2.18025 3.39191 1.81892 4.42219Q1.4576 5.44758 0.778885 6.18Q0.100174 6.91242 -0.851974 7.31281Q-1.79924 7.70832 -2.98088 7.70832Q-4.13811 7.70832 -5.09026 7.31281Q-6.0424 6.91242 -6.72112 6.18Q-7.39983 5.44758 -7.78069 4.42219Q-8.16154 3.39191 -8.16154 2.15168Q-8.16154 0.911445 -7.77092 -0.109063Q-7.38029 -1.12957 -6.69182 -1.84734Q-5.99846 -2.57 -5.05119 -2.97039Q-4.09904 -3.37078 -2.98088 -3.37078Q-1.8383 -3.37078 -0.891037 -2.97039Q0.0611115 -2.57 0.739822 -1.84734Q1.41853 -1.12957 1.79939 -0.109063Q2.18025 0.911445 2.18025 2.15168ZM-0.86174 2.15168Q-0.86174 0.769844 -1.4135 -0.021172Q-1.96037 -0.812188 -2.98088 -0.812188Q-4.00139 -0.812188 -4.56291 -0.021172Q-5.11955 0.769844 -5.11955 2.15168Q-5.11955 3.52863 -4.56291 4.33918Q-4.00139 5.14973 -2.98088 5.14973Q-1.96037 5.14973 -1.4135 4.33918Q-0.86174 3.52863 -0.86174 2.15168ZM14.3202 2.15168Q14.3202 3.39191 13.9589 4.42219Q13.5976 5.44758 12.9189 6.18Q12.2402 6.91242 11.288 7.31281Q10.3407 7.70832 9.1591 7.70832Q8.00188 7.70832 7.04973 7.31281Q6.09758 6.91242 5.41887 6.18Q4.74016 5.44758 4.3593 4.42219Q3.97844 3.39191 3.97844 2.15168Q3.97844 0.911445 4.36906 -0.109063Q4.75969 -1.12957 5.44817 -1.84734Q6.14153 -2.57 7.08879 -2.97039Q8.04094 -3.37078 9.1591 -3.37078Q10.3017 -3.37078 11.2489 -2.97039Q12.2011 -2.57 12.8798 -1.84734Q13.5585 -1.12957 13.9394 -0.109063Q14.3202 0.911445 14.3202 2.15168ZM11.2782 2.15168Q11.2782 0.769844 10.7265 -0.021172Q10.1796 -0.812188 9.1591 -0.812188Q8.1386 -0.812188 7.57707 -0.021172Q7.02043 0.769844 7.02043 2.15168Q7.02043 3.52863 7.57707 4.33918Q8.1386 5.14973 9.1591 5.14973Q10.1796 5.14973 10.7265 4.33918Q11.2782 3.52863 11.2782 2.15168ZM16.6214 -2.73113Q17.3782 -2.95086 18.5794 -3.14129Q19.7805 -3.33172 21.0989 -3.33172Q22.4417 -3.33172 23.3303 -2.98016Q24.219 -2.62859 24.7366 -1.98895Q25.259 -1.3493 25.4788 -0.470391Q25.6985 0.408515 25.6985 1.48762L25.6985 7.43L22.72 7.43L22.72 1.84895Q22.72 0.408515 22.3391 -0.187188Q21.9583 -0.787774 20.9182 -0.787774Q20.6008 -0.787774 20.2395 -0.758477Q19.8782 -0.72918 19.5999 -0.690117L19.5999 7.43L16.6214 7.43L16.6214 -2.73113Z"/>
	<path fill="white" transform="translate(55 79.2857)" d="M-21.7216 -6.4323Q-21.3603 -5.76824 -20.8916 -4.79656Q-20.4179 -3.82977 -19.9101 -2.69695Q-19.4023 -1.56902 -18.9043 -0.387383Q-18.4013 0.789375 -17.9619 1.82941Q-17.5175 0.789375 -17.0195 -0.387383Q-16.5215 -1.56902 -16.0136 -2.69695Q-15.5009 -3.82977 -15.0322 -4.79656Q-14.5586 -5.76824 -14.2021 -6.4323L-11.3603 -6.4323Q-11.1601 -5.05047 -10.9892 -3.3366Q-10.8183 -1.62762 -10.6914 0.222969Q-10.5595 2.06867 -10.4521 3.92902Q-10.3398 5.78937 -10.2617 7.43L-13.2988 7.43Q-13.3623 5.40852 -13.4599 3.03059Q-13.5576 0.647773 -13.7578 -1.76922Q-14.1191 -0.929375 -14.5586 0.0911326Q-14.998 1.11164 -15.4326 2.13215Q-15.8623 3.14777 -16.2627 4.08039Q-16.6582 5.00812 -16.9414 5.67219L-19.1191 5.67219Q-19.4023 5.00812 -19.8027 4.08039Q-20.1982 3.14777 -20.6279 2.13215Q-21.0576 1.11164 -21.5019 0.0911326Q-21.9414 -0.929375 -22.2978 -1.76922Q-22.498 0.647773 -22.6006 3.03059Q-22.6982 5.40852 -22.7617 7.43L-25.7988 7.43Q-25.7207 5.78937 -25.6133 3.92902Q-25.5009 2.06867 -25.374 0.222969Q-25.2422 -1.62762 -25.0713 -3.3366Q-24.9004 -5.05047 -24.7002 -6.4323L-21.7216 -6.4323ZM2.18025 2.15168Q2.18025 3.39191 1.81892 4.42219Q1.4576 5.44758 0.778885 6.18Q0.100174 6.91242 -0.851974 7.31281Q-1.79924 7.70832 -2.98088 7.70832Q-4.13811 7.70832 -5.09026 7.31281Q-6.0424 6.91242 -6.72112 6.18Q-7.39983 5.44758 -7.78069 4.42219Q-8.16154 3.39191 -8.16154 2.15168Q-8.16154 0.911445 -7.77092 -0.109063Q-7.38029 -1.12957 -6.69182 -1.84734Q-5.99846 -2.57 -5.05119 -2.97039Q-4.09904 -3.37078 -2.98088 -3.37078Q-1.8383 -3.37078 -0.891037 -2.97039Q0.0611115 -2.57 0.739822 -1.84734Q1.41853 -1.12957 1.79939 -0.109063Q2.18025 0.911445 2.18025 2.15168ZM-0.86174 2.15168Q-0.86174 0.769844 -1.4135 -0.021172Q-1.96037 -0.812188 -2.98088 -0.812188Q-4.00139 -0.812188 -4.56291 -0.021172Q-5.11955 0.769844 -5.11955 2.15168Q-5.11955 3.52863 -4.56291 4.33918Q-4.00139 5.14973 -2.98088 5.14973Q-1.96037 5.14973 -1.4135 4.33918Q-0.86174 3.52863 -0.86174 2.15168ZM14.3202 2.15168Q14.3202 3.39191 13.9589 4.42219Q13.5976 5.44758 12.9189 6.18Q12.2402 6.91242 11.288 7.31281Q10.3407 7.70832 9.1591 7.70832Q8.00188 7.70832 7.04973 7.31281Q6.09758 6.91242 5.41887 6.18Q4.74016 5.44758 4.3593 4.42219Q3.97844 3.39191 3.97844 2.15168Q3.97844 0.911445 4.36906 -0.109063Q4.75969 -1.12957 5.44817 -1.84734Q6.14153 -2.57 7.08879 -2.97039Q8.04094 -3.37078 9.1591 -3.37078Q10.3017 -3.37078 11.2489 -2.97039Q12.2011 -2.57 12.8798 -1.84734Q13.5585 -1.12957 13.9394 -0.109063Q14.3202 0.911445 14.3202 2.15168ZM11.2782 2.15168Q11.2782 0.769844 10.7265 -0.021172Q10.1796 -0.812188 9.1591 -0.812188Q8.1386 -0.812188 7.57707 -0.021172Q7.02043 0.769844 7.02043 2.15168Q7.02043 3.52863 7.57707 4.33918Q8.1386 5.14973 9.1591 5.14973Q10.1796 5.14973 10.7265 4.33918Q11.2782 3.52863 11.2782 2.15168ZM16.6214 -2.73113Q17.3782 -2.95086 18.5794 -3.14129Q19.7805 -3.33172 21.0989 -3.33172Q22.4417 -3.33172 23.3303 -2.98016Q24.219 -2.62859 24.7366 -1.98895Q25.259 -1.3493 25.4788 -0.470391Q25.6985 0.408515 25.6985 1.48762L25.6985 7.43L22.72 7.43L22.72 1.84895Q22.72 0.408515 22.3391 -0.187188Q21.9583 -0.787774 20.9182 -0.787774Q20.6008 -0.787774 20.2395 -0.758477Q19.8782 -0.72918 19.5999 -0.690117L19.5999 7.43L16.6214 7.43L16.6214 -2.73113Z"/>
</svg>
