<?xml version="1.0" encoding="utf-8" ?>
<svg xmlns="http://www.w3.org/2000/svg" xmlns:xlink="http://www.w3.org/1999/xlink" width="110" height="110">
	<path fill="#6D6D6D" transform="matrix(0.0932816 0.00935938 -0.00935938 0.0932816 55 47.8571)" d="M228.571 0Q228.571 5.61111 228.296 11.2155Q228.021 16.8198 227.471 22.4039Q226.921 27.988 226.097 33.5384Q225.274 39.0888 224.179 44.5921Q223.085 50.0954 221.721 55.5383Q220.358 60.9813 218.729 66.3508Q217.1 71.7203 215.21 77.0034Q213.32 82.2865 211.172 87.4705Q209.025 92.6545 206.626 97.7269Q204.227 102.799 201.582 107.748Q198.937 112.696 196.052 117.509Q193.168 122.322 190.05 126.987Q186.933 131.653 183.59 136.16Q180.248 140.667 176.688 145.004Q173.128 149.342 169.36 153.499Q165.592 157.657 161.624 161.624Q157.657 165.592 153.499 169.36Q149.342 173.128 145.004 176.688Q140.667 180.248 136.16 183.59Q131.653 186.933 126.987 190.05Q122.322 193.168 117.509 196.052Q112.696 198.937 107.748 201.582Q102.799 204.227 97.7269 206.626Q92.6545 209.025 87.4705 211.172Q82.2865 213.32 77.0034 215.21Q71.7203 217.1 66.3508 218.729Q60.9813 220.358 55.5383 221.721Q50.0954 223.085 44.5921 224.179Q39.0888 225.274 33.5384 226.097Q27.988 226.921 22.4039 227.471Q16.8198 228.021 11.2155 228.296Q5.61111 228.571 0 228.571Q-5.61111 228.571 -11.2155 228.296Q-16.8198 228.021 -22.4039 227.471Q-27.988 226.921 -33.5384 226.097Q-39.0888 225.274 -44.5921 224.179Q-50.0954 223.085 -55.5383 221.721Q-60.9813 220.358 -66.3508 218.729Q-71.7203 217.1 -77.0034 215.21Q-82.2865 213.32 -87.4705 211.172Q-92.6545 209.025 -97.7269 206.626Q-102.799 204.227 -107.748 201.582Q-112.696 198.937 -117.509 196.052Q-122.322 193.168 -126.987 190.05Q-131.653 186.933 -136.16 183.59Q-140.667 180.248 -145.004 176.688Q-149.342 173.128 -153.499 169.36Q-157.657 165.592 -161.624 161.624Q-165.592 157.657 -169.36 153.499Q-173.128 149.342 -176.688 145.004Q-180.248 140.667 -183.59 136.16Q-186.933 131.653 -190.05 126.987Q-193.168 122.322 -196.052 117.509Q-198.937 112.696 -201.582 107.748Q-204.227 102.799 -206.626 97.7269Q-209.025 92.6545 -211.172 87.4705Q-213.32 82.2865 -215.21 77.0034Q-217.1 71.7203 -218.729 66.3508Q-220.358 60.9813 -221.721 55.5383Q-223.085 50.0954 -224.179 44.5921Q-225.274 39.0888 -226.097 33.5384Q-226.921 27.988 -227.471 22.4039Q-228.021 16.8198 -228.296 11.2155Q-228.571 5.61111 -228.571 0Q-228.571 -5.61111 -228.296 -11.2155Q-228.021 -16.8198 -227.471 -22.4039Q-226.921 -27.988 -226.097 -33.5384Q-225.274 -39.0888 -224.179 -44.5921Q-223.085 -50.0954 -221.721 -55.5383Q-220.358 -60.9813 -218.729 -66.3508Q-217.1 -71.7203 -215.21 -77.0034Q-213.32 -82.2865 -211.172 -87.4705Q-209.025 -92.6545 -206.626 -97.7269Q-204.227 -102.799 -201.582 -107.748Q-198.937 -112.696 -196.052 -117.509Q-193.168 -122.322 -190.05 -126.987Q-186.933 -131.653 -183.59 -136.16Q-180.248 -140.667 -176.688 -145.004Q-173.128 -149.342 -169.36 -153.499Q-165.592 -157.657 -161.624 -161.624Q-157.657 -165.592 -153.499 -169.36Q-149.342 -173.128 -145.004 -176.688Q-140.667 -180.248 -136.16 -183.59Q-131.653 -186.933 -126.987 -190.05Q-122.322 -193.168 -117.509 -196.052Q-112.696 -198.937 -107.748 -201.582Q-102.799 -204.227 -97.7269 -206.626Q-92.6545 -209.025 -87.4705 -211.172Q-82.2865 -213.32 -77.0034 -215.21Q-71.7203 -217.1 -66.3508 -218.729Q-60.9813 -220.358 -55.5383 -221.721Q-50.0954 -223.085 -44.5921 -224.179Q-39.0888 -225.274 -33.5384 -226.097Q-27.988 -226.921 -22.4039 -227.471Q-16.8198 -228.021 -11.2155 -228.296Q-5.61111 -228.571 0 -228.571Q5.61111 -228.571 11.2155 -228.296Q16.8198 -228.021 22.4039 -227.471Q27.988 -226.921 33.5384 -226.097Q39.0888 -225.274 44.5921 -224.179Q50.0954 -223.085 55.5383 -221.721Q60.9813 -220.358 66.3508 -218.729Q71.7203 -217.1 77.0034 -215.21Q82.2865 -213.32 87.4705 -211.172Q92.6545 -209.025 97.7269 -206.626Q102.799 -204.227 107.748 -201.582Q112.696 -198.937 117.509 -196.052Q122.322 -193.168 126.987 -190.05Q131.653 -186.933 136.16 -183.59Q140.667 -180.248 145.004 -176.688Q149.342 -173.128 153.499 -169.36Q157.657 -165.592 161.624 -161.624Q165.592 -157.657 169.36 -153.499Q173.128 -149.342 176.688 -145.004Q180.248 -140.667 183.59 -136.16Q186.933 -131.653 190.05 -126.987Q193.168 -122.322 196.052 -117.509Q198.937 -112.696 201.582 -107.748Q204.227 -102.799 206.626 -97.7269Q209.025 -92.6545 211.172 -87.4705Q213.32 -82.2865 215.21 -77.0034Q217.1 -71.7203 218.729 -66.3508Q220.358 -60.9813 221.721 -55.5383Q223.085 -50.0954 224.179 -44.5921Q225.274 -39.0888 226.097 -33.5384Q226.921 -27.988 227.471 -22.4039Q228.021 -16.8198 228.296 -11.2155Q228.571 -5.61111 228.571 0"/>
	<path fill="#878787" transform="matrix(0.0932816 0.00935938 -0.00935938 0.0932816 55 47.8571)" d="M223.571 0Q223.571 5.48837 223.302 10.9701Q223.033 16.4519 222.495 21.9138Q221.957 27.3758 221.152 32.8047Q220.346 38.2337 219.276 43.6166Q218.205 48.9995 216.871 54.3234Q215.538 59.6473 213.945 64.8994Q212.351 70.1514 210.502 75.3189Q208.653 80.4865 206.553 85.5571Q204.453 90.6277 202.106 95.5891Q199.76 100.551 197.172 105.391Q194.585 110.231 191.764 114.939Q188.942 119.646 185.893 124.21Q182.844 128.773 179.574 133.181Q176.305 137.59 172.823 141.832Q169.341 146.075 165.655 150.141Q161.97 154.208 158.089 158.089Q154.208 161.97 150.141 165.655Q146.075 169.341 141.832 172.823Q137.59 176.305 133.181 179.574Q128.773 182.844 124.21 185.893Q119.646 188.942 114.939 191.764Q110.231 194.585 105.391 197.172Q100.551 199.76 95.5891 202.106Q90.6277 204.453 85.5571 206.553Q80.4865 208.653 75.3189 210.502Q70.1514 212.351 64.8994 213.945Q59.6473 215.538 54.3234 216.871Q48.9995 218.205 43.6166 219.276Q38.2337 220.346 32.8047 221.152Q27.3758 221.957 21.9138 222.495Q16.4519 223.033 10.9701 223.302Q5.48837 223.571 0 223.571Q-5.48837 223.571 -10.9701 223.302Q-16.4519 223.033 -21.9138 222.495Q-27.3758 221.957 -32.8047 221.152Q-38.2337 220.346 -43.6166 219.276Q-48.9995 218.205 -54.3234 216.871Q-59.6473 215.538 -64.8994 213.945Q-70.1514 212.351 -75.3189 210.502Q-80.4865 208.653 -85.5571 206.553Q-90.6277 204.453 -95.5891 202.106Q-100.551 199.76 -105.391 197.172Q-110.231 194.585 -114.939 191.764Q-119.646 188.942 -124.21 185.893Q-128.773 182.844 -133.181 179.574Q-137.59 176.305 -141.832 172.823Q-146.075 169.341 -150.141 165.655Q-154.208 161.97 -158.089 158.089Q-161.97 154.208 -165.655 150.141Q-169.341 146.075 -172.823 141.832Q-176.305 137.59 -179.574 133.181Q-182.844 128.773 -185.893 124.21Q-188.942 119.646 -191.764 114.939Q-194.585 110.231 -197.172 105.391Q-199.76 100.551 -202.106 95.5891Q-204.453 90.6277 -206.553 85.5571Q-208.653 80.4865 -210.502 75.3189Q-212.351 70.1514 -213.945 64.8994Q-215.538 59.6473 -216.871 54.3234Q-218.205 48.9995 -219.276 43.6166Q-220.346 38.2337 -221.152 32.8047Q-221.957 27.3758 -222.495 21.9138Q-223.033 16.4519 -223.302 10.9701Q-223.571 5.48837 -223.571 0Q-223.571 -5.48837 -223.302 -10.9701Q-223.033 -16.4519 -222.495 -21.9138Q-221.957 -27.3758 -221.152 -32.8047Q-220.346 -38.2337 -219.276 -43.6166Q-218.205 -48.9995 -216.871 -54.3234Q-215.538 -59.6473 -213.945 -64.8994Q-212.351 -70.1514 -210.502 -75.3189Q-208.653 -80.4865 -206.553 -85.5571Q-204.453 -90.6277 -202.106 -95.5891Q-199.76 -100.551 -197.172 -105.391Q-194.585 -110.231 -191.764 -114.939Q-188.942 -119.646 -185.893 -124.21Q-182.844 -128.773 -179.574 -133.181Q-176.305 -137.59 -172.823 -141.832Q-169.341 -146.075 -165.655 -150.141Q-161.97 -154.208 -158.089 -158.089Q-154.208 -161.97 -150.141 -165.655Q-146.075 -169.341 -141.832 -172.823Q-137.59 -176.305 -133.181 -179.574Q-128.773 -182.844 -124.21 -185.893Q-119.646 -188.942 -114.939 -191.764Q-110.231 -194.585 -105.391 -197.172Q-100.551 -199.76 -95.5891 -202.106Q-90.6277 -204.453 -85.5571 -206.553Q-80.4865 -208.653 -75.3189 -210.502Q-70.1514 -212.351 -64.8994 -213.945Q-59.6473 -215.538 -54.3234 -216.871Q-48.9995 -218.205 -43.6166 -219.276Q-38.2337 -220.346 -32.8047 -221.152Q-27.3758 -221.957 -21.9138 -222.495Q-16.4519 -223.033 -10.9701 -223.302Q-5.48837 -223.571 0 -223.571Q5.48837 -223.571 10.9701 -223.302Q16.4519 -223.033 21.9138 -222.495Q27.3758 -221.957 32.8047 -221.152Q38.2337 -220.346 43.6166 -219.276Q48.9995 -218.205 54.3234 -216.871Q59.6473 -215.538 64.8994 -213.945Q70.1514 -212.351 75.3189 -210.502Q80.4865 -208.653 85.5571 -206.553Q90.6277 -204.453 95.5891 -202.106Q100.551 -199.76 105.391 -197.172Q110.231 -194.585 114.939 -191.764Q119.646 -188.942 124.21 -185.893Q128.773 -182.844 133.181 -179.574Q137.59 -176.305 141.832 -172.823Q146.075 -169.341 150.141 -165.655Q154.208 -161.97 158.089 -158.089Q161.97 -154.208 165.655 -150.141Q169.341 -146.075 172.823 -141.832Q176.305 -137.59 179.574 -133.181Q182.844 -128.773 185.893 -124.21Q188.942 -119.646 191.764 -114.939Q194.585 -110.231 197.172 -105.391Q199.76 -100.551 202.106 -95.5891Q204.453 -90.6277 206.553 -85.5571Q208.653 -80.4865 210.502 -75.3189Q212.351 -70.1514 213.945 -64.8994Q215.538 -59.6473 216.871 -54.3234Q218.205 -48.9995 219.276 -43.6166Q220.346 -38.2337 221.152 -32.8047Q221.957 -27.3758 222.495 -21.9138Q223.033 -16.4519 223.302 -10.9701Q223.571 -5.48837 223.571 0"/>
	<path fill="#7C7C7C" transform="matrix(0.0932816 0.00935938 -0.00935938 0.0932816 55 47.8571)" d="M221.828 27.8698Q223.571 13.9895 223.571 0Q223.571 -10.4457 222.597 -20.8458Q221.624 -31.246 219.684 -41.5101Q216.815 -41.9851 213.906 -41.9851Q213.038 -41.9851 212.171 -41.9424Q211.303 -41.8998 210.439 -41.8147Q209.575 -41.7296 208.716 -41.6022Q207.857 -41.4747 207.005 -41.3053Q206.153 -41.1359 205.311 -40.9249Q204.468 -40.7139 203.637 -40.4618Q202.806 -40.2097 201.988 -39.9171Q201.171 -39.6245 200.368 -39.2922Q199.566 -38.9598 198.781 -38.5885Q197.996 -38.2172 197.23 -37.8078Q196.464 -37.3985 195.719 -36.952Q194.974 -36.5055 194.252 -36.023Q193.53 -35.5406 192.833 -35.0232Q192.135 -34.5059 191.464 -33.955Q190.792 -33.404 190.149 -32.8208Q189.505 -32.2376 188.891 -31.6235Q188.277 -31.0094 187.694 -30.3659Q187.111 -29.7225 186.56 -29.0512Q186.009 -28.3798 185.492 -27.6823Q184.974 -26.9848 184.492 -26.2627Q184.009 -25.5406 183.563 -24.7957Q183.116 -24.0508 182.707 -23.2849Q182.298 -22.519 181.926 -21.7339Q181.555 -20.9489 181.223 -20.1465Q180.89 -19.3442 180.598 -18.5265Q180.305 -17.7088 180.053 -16.8778Q179.801 -16.0467 179.59 -15.2043Q179.379 -14.3619 179.21 -13.5101Q179.04 -12.6584 178.913 -11.7993Q178.785 -10.9403 178.7 -10.076Q178.615 -9.21175 178.572 -8.34435Q178.53 -7.47695 178.53 -6.60851Q178.53 -5.74006 178.572 -4.87266Q178.615 -4.00526 178.7 -3.141Q178.785 -2.27674 178.913 -1.41769Q179.04 -0.558645 179.21 0.293113Q179.379 1.14487 179.59 1.98729Q179.801 2.82971 180.053 3.66076Q180.305 4.49181 180.598 5.30949Q180.89 6.12717 181.223 6.92951Q181.555 7.73185 181.926 8.51691Q182.298 9.30198 182.707 10.0679Q183.116 10.8338 183.563 11.5787Q184.009 12.3236 184.492 13.0456Q184.974 13.7677 185.492 14.4653Q186.009 15.1628 186.56 15.8341Q187.111 16.5055 187.694 17.1489Q188.277 17.7924 188.891 18.4065Q189.505 19.0206 190.149 19.6038Q190.792 20.187 191.464 20.7379Q192.135 21.2889 192.833 21.8062Q193.53 22.3235 194.252 22.806Q194.974 23.2885 195.719 23.735Q196.464 24.1814 197.23 24.5908Q197.996 25.0002 198.781 25.3715Q199.566 25.7428 200.368 26.0752Q201.171 26.4075 201.988 26.7001Q202.806 26.9926 203.637 27.2447Q204.468 27.4968 205.311 27.7078Q206.153 27.9189 207.005 28.0883Q207.857 28.2577 208.716 28.3851Q209.575 28.5126 210.439 28.5977Q211.303 28.6828 212.171 28.7254Q213.038 28.768 213.906 28.768Q217.918 28.768 221.828 27.8698ZM174.107 140.253Q173.411 139.461 172.693 138.688Q171.976 137.914 171.239 137.16Q170.501 136.406 169.744 135.672Q168.987 134.938 168.21 134.224Q167.434 133.51 166.639 132.817Q165.843 132.124 165.03 131.453Q164.217 130.781 163.386 130.131Q162.555 129.482 161.708 128.854Q160.86 128.227 159.996 127.622Q159.132 127.017 158.252 126.435Q157.372 125.854 156.477 125.296Q155.582 124.738 154.672 124.204Q153.763 123.67 152.839 123.16Q151.916 122.65 150.98 122.165Q150.043 121.68 149.094 121.22Q148.145 120.76 147.184 120.325Q146.223 119.89 145.251 119.481Q144.278 119.072 143.296 118.689Q142.313 118.306 141.32 117.949Q140.328 117.593 139.326 117.262Q138.325 116.932 137.315 116.628Q136.304 116.325 135.287 116.048Q134.269 115.771 133.244 115.521Q132.219 115.272 131.188 115.049Q130.157 114.827 129.121 114.632Q128.084 114.437 127.043 114.27Q126.001 114.103 124.956 113.963Q123.911 113.823 122.862 113.712Q121.813 113.6 120.762 113.516Q119.71 113.432 118.657 113.376Q117.604 113.32 116.549 113.292Q115.495 113.264 114.44 113.264Q112.595 113.264 110.751 113.35Q108.907 113.436 107.069 113.607Q105.232 113.778 103.404 114.034Q101.576 114.291 99.7619 114.632Q97.9479 114.973 96.1517 115.398Q94.3556 115.823 92.5811 116.33Q90.8065 116.838 89.0575 117.428Q87.3085 118.018 85.5888 118.688Q83.8691 119.358 82.1823 120.107Q80.4956 120.857 78.8454 121.684Q77.1953 122.511 75.5853 123.413Q73.9754 124.316 72.4091 125.293Q70.8428 126.269 69.3235 127.317Q67.8042 128.365 66.3353 129.483Q64.8663 130.6 63.4509 131.785Q62.0354 132.969 60.6765 134.218Q59.5659 134.553 58.4658 134.921Q57.3656 135.288 56.2769 135.688Q55.1882 136.089 54.1118 136.521Q53.0355 136.953 51.9725 137.417Q50.9095 137.881 49.8607 138.377Q48.812 138.872 47.7784 139.399Q46.7448 139.925 45.7274 140.482Q44.7099 141.039 43.7094 141.626Q42.709 142.213 41.7264 142.829Q40.7439 143.445 39.7801 144.091Q38.8162 144.736 37.872 145.41Q36.9278 146.084 36.0041 146.785Q35.0803 147.486 34.1778 148.215Q33.2753 148.944 32.3949 149.699Q31.5144 150.454 30.6568 151.235Q29.7992 152.016 28.9652 152.822Q28.1312 153.628 27.3215 154.459Q26.5118 155.289 25.7271 156.143Q24.9425 156.998 24.1836 157.875Q23.4247 158.752 22.6922 159.651Q21.9597 160.551 21.2543 161.471Q20.5488 162.392 19.8711 163.333Q19.1933 164.275 18.5438 165.236Q17.8943 166.197 17.2737 167.177Q16.6531 168.156 16.0619 169.154Q15.4706 170.152 14.9093 171.167Q14.348 172.182 13.8171 173.214Q13.2863 174.245 12.7863 175.292Q12.2863 176.338 11.8176 177.399Q11.349 178.46 10.912 179.535Q10.4751 180.609 10.0703 181.696Q9.66555 182.783 9.29325 183.882Q7.60575 179.334 5.3339 175.049Q5.85915 174.763 6.37455 174.46Q6.88994 174.158 7.3949 173.838Q7.89985 173.518 8.39379 173.181Q8.88774 172.845 9.37011 172.492Q9.85249 172.139 10.3228 171.77Q10.793 171.401 11.2507 171.016Q11.7083 170.631 12.1528 170.232Q12.5973 169.832 13.0281 169.418Q13.4589 169.003 13.8756 168.575Q14.2923 168.146 14.6944 167.704Q15.0965 167.262 15.4835 166.806Q15.8705 166.351 16.2421 165.882Q16.6136 165.414 16.9692 164.934Q17.3249 164.453 17.6642 163.961Q18.0035 163.469 18.3261 162.966Q18.6488 162.462 18.9543 161.949Q19.2599 161.435 19.5481 160.911Q19.8363 160.388 20.1067 159.855Q20.3772 159.321 20.6296 158.78Q20.882 158.238 21.1162 157.688Q21.3503 157.138 21.5658 156.58Q21.7814 156.023 21.9781 155.458Q22.1748 154.894 22.3525 154.323Q22.5302 153.752 22.6887 153.176Q22.8471 152.6 22.9862 152.018Q23.1252 151.437 23.2447 150.851Q23.3642 150.265 23.4639 149.676Q23.5637 149.087 23.6436 148.494Q23.7236 147.902 23.7836 147.307Q23.8436 146.712 23.8837 146.116Q23.9238 145.52 23.9438 144.922Q23.9639 144.325 23.9639 143.727Q23.9639 142.852 23.9209 141.978Q23.878 141.104 23.7922 140.233Q23.7065 139.362 23.5781 138.497Q23.4497 137.631 23.279 136.773Q23.1082 135.915 22.8956 135.066Q22.683 134.217 22.429 133.38Q22.175 132.543 21.8802 131.719Q21.5854 130.895 21.2506 130.086Q20.9157 129.278 20.5416 128.487Q20.1675 127.696 19.755 126.924Q19.3425 126.153 18.8927 125.402Q18.4428 124.652 17.9567 123.924Q17.4705 123.196 16.9493 122.494Q16.428 121.791 15.8729 121.114Q15.3178 120.438 14.7302 119.79Q14.1425 119.141 13.5238 118.523Q12.9051 117.904 12.2567 117.316Q11.6084 116.729 10.932 116.173Q10.2556 115.618 9.55273 115.097Q8.8499 114.576 8.12235 114.09Q7.39479 113.604 6.64426 113.154Q5.89372 112.704 5.12202 112.291Q4.35031 111.879 3.5593 111.505Q2.76829 111.131 1.95987 110.796Q1.15145 110.461 0.327576 110.166Q-0.496299 109.871 -1.33365 109.617Q-2.17099 109.363 -3.01979 109.151Q-3.8686 108.938 -4.72681 108.767Q-5.58502 108.597 -6.45058 108.468Q-7.31613 108.34 -8.18694 108.254Q-9.05775 108.168 -9.93172 108.125Q-10.8057 108.082 -11.6807 108.082Q-12.4529 108.082 -13.2243 108.116Q-13.9957 108.149 -14.7649 108.216Q-15.5342 108.283 -16.2998 108.383Q-17.0654 108.483 -17.826 108.616Q-18.5866 108.749 -19.3407 108.915Q-20.0947 109.081 -20.841 109.28Q-21.5872 109.478 -22.3241 109.709Q-23.061 109.939 -23.7872 110.201Q-24.5134 110.464 -25.2276 110.757Q-25.9418 111.051 -26.6427 111.375Q-27.3435 111.699 -28.0296 112.053Q-28.7157 112.407 -29.3859 112.791Q-30.056 113.174 -30.7089 113.586Q-31.3619 113.999 -31.9963 114.439Q-32.6307 114.879 -33.2455 115.346Q-33.8603 115.813 -34.4543 116.306Q-35.0483 116.8 -35.6204 117.318Q-36.1925 117.837 -36.7415 118.38Q-37.2906 118.923 -37.8157 119.489Q-38.3407 120.055 -38.8408 120.643Q-39.3408 121.231 -39.8149 121.841Q-40.289 122.45 -40.7363 123.08Q-41.1835 123.709 -41.6031 124.357Q-42.0227 125.006 -42.4138 125.671Q-42.805 126.337 -43.1669 127.019Q-43.5288 127.701 -43.8609 128.398Q-44.1929 129.095 -44.4945 129.806Q-44.7961 130.517 -45.0665 131.24Q-45.337 131.963 -45.576 132.698Q-45.8149 133.432 -46.0218 134.176Q-46.2287 134.92 -46.4032 135.672Q-46.5777 136.424 -46.7194 137.183Q-53.0343 136.07 -59.4464 136.07Q-60.8297 136.07 -62.212 136.122Q-63.5943 136.174 -64.9736 136.279Q-66.3529 136.383 -67.7273 136.539Q-69.1017 136.695 -70.4693 136.903Q-71.8368 137.111 -73.1956 137.371Q-74.5543 137.63 -75.9023 137.94Q-77.2502 138.251 -78.5855 138.612Q-79.9209 138.973 -81.2416 139.384Q-82.5623 139.795 -83.8666 140.256Q-85.1709 140.717 -86.4569 141.227Q-87.7429 141.736 -89.0087 142.294Q-90.2746 142.852 -91.5185 143.457Q-92.7624 144.062 -93.9826 144.713Q-95.2028 145.365 -96.3975 146.062Q-97.5923 146.759 -98.7599 147.501Q-99.9275 148.242 -101.066 149.028Q-102.205 149.813 -103.313 150.64Q-104.422 151.468 -105.498 152.337Q-106.575 153.206 -107.617 154.115Q-108.66 155.023 -109.668 155.971Q-110.676 156.918 -111.647 157.903Q-112.619 158.888 -113.552 159.909Q-114.486 160.929 -115.38 161.985Q-116.274 163.04 -117.128 164.128Q-117.982 165.216 -118.794 166.336Q-119.607 167.456 -120.376 168.605Q-121.146 169.755 -121.871 170.932Q-122.597 172.11 -123.277 173.314Q-123.958 174.519 -124.593 175.748Q-125.227 176.977 -125.815 178.229Q-126.403 179.481 -126.943 180.754Q-127.484 182.028 -127.975 183.321Q-124.484 185.758 -120.901 188.061Q-117.319 190.364 -113.652 192.529Q-109.985 194.694 -106.238 196.717Q-102.491 198.741 -98.6697 200.62Q-94.8484 202.5 -90.9583 204.232Q-87.0682 205.965 -83.1149 207.548Q-79.1616 209.131 -75.1509 210.562Q-71.1403 211.994 -67.078 213.271Q-63.0157 214.549 -58.9077 215.671Q-54.7997 216.793 -50.6519 217.758Q-46.5042 218.723 -42.3227 219.529Q-38.1412 220.335 -33.9321 220.981Q-29.7229 221.628 -25.4922 222.113Q-21.2615 222.599 -17.0154 222.923Q-12.7693 223.247 -8.51387 223.409Q-4.25848 223.571 0 223.571Q3.11859 223.571 6.23597 223.484Q9.35335 223.397 12.4671 223.224Q15.5808 223.05 18.6885 222.789Q21.7962 222.528 24.8954 222.181Q27.9946 221.834 31.0829 221.4Q34.1712 220.967 37.2462 220.447Q40.3212 219.928 43.3805 219.322Q46.4399 218.717 49.4811 218.027Q52.5224 217.337 55.5432 216.562Q58.564 215.787 61.562 214.929Q64.5601 214.07 67.533 213.128Q70.5059 212.186 73.4514 211.161Q76.3969 210.137 79.3126 209.03Q82.2284 207.924 85.1122 206.737Q87.9959 205.55 90.8455 204.282Q93.695 203.015 96.5081 201.669Q99.3211 200.323 102.096 198.899Q104.87 197.475 107.604 195.974Q110.337 194.473 113.028 192.896Q115.719 191.319 118.364 189.668Q121.01 188.017 123.609 186.293Q126.207 184.569 128.757 182.773Q131.306 180.977 133.805 179.11Q136.303 177.244 138.748 175.309Q141.194 173.373 143.584 171.37Q145.975 169.367 148.308 167.299Q150.642 165.23 152.917 163.097Q155.192 160.964 157.407 158.768Q159.621 156.572 161.774 154.316Q163.926 152.059 166.015 149.744Q168.104 147.428 170.127 145.055Q172.151 142.682 174.107 140.253ZM-150.321 -165.492Q-145.027 -170.301 -139.436 -174.762Q-133.845 -179.223 -127.981 -183.317Q-122.116 -187.411 -116.002 -191.122Q-109.888 -194.833 -103.549 -198.146Q-103.051 -197.644 -102.577 -197.118Q-102.104 -196.592 -101.657 -196.044Q-101.21 -195.496 -100.79 -194.926Q-100.371 -194.357 -99.9791 -193.768Q-99.5877 -193.178 -99.2256 -192.571Q-98.8634 -191.963 -98.5314 -191.338Q-98.1993 -190.714 -97.8982 -190.074Q-97.597 -189.434 -97.3275 -188.78Q-97.058 -188.126 -96.8207 -187.459Q-96.5835 -186.793 -96.379 -186.115Q-96.1746 -185.438 -96.0035 -184.752Q-95.8324 -184.065 -95.695 -183.372Q-95.5576 -182.678 -95.4543 -181.978Q-95.351 -181.278 -95.282 -180.574Q-95.2129 -179.87 -95.1784 -179.163Q-95.1438 -178.457 -95.1438 -177.749Q-95.1438 -177.039 -95.1787 -176.329Q-95.2136 -175.619 -95.2832 -174.912Q-95.3529 -174.205 -95.4572 -173.502Q-95.5615 -172.799 -95.7001 -172.102Q-95.8388 -171.404 -96.0115 -170.715Q-96.1841 -170.026 -96.3904 -169.346Q-96.5967 -168.666 -96.8361 -167.996Q-97.0756 -167.327 -97.3475 -166.671Q-97.6195 -166.014 -97.9234 -165.372Q-98.2272 -164.729 -98.5622 -164.102Q-98.8973 -163.476 -99.2626 -162.866Q-99.628 -162.256 -100.023 -161.666Q-100.418 -161.075 -100.841 -160.504Q-101.264 -159.933 -101.715 -159.384Q-102.166 -158.834 -102.643 -158.308Q-103.121 -157.781 -103.623 -157.279Q-104.126 -156.776 -104.652 -156.299Q-105.179 -155.822 -105.728 -155.371Q-106.278 -154.92 -106.848 -154.496Q-107.419 -154.073 -108.01 -153.678Q-108.601 -153.283 -109.211 -152.918Q-109.82 -152.553 -110.447 -152.218Q-111.074 -151.883 -111.716 -151.579Q-112.359 -151.275 -113.015 -151.003Q-113.672 -150.731 -114.341 -150.492Q-115.01 -150.252 -115.69 -150.046Q-116.37 -149.84 -117.06 -149.667Q-117.749 -149.494 -118.446 -149.356Q-119.143 -149.217 -119.846 -149.113Q-120.549 -149.008 -121.256 -148.939Q-121.964 -148.869 -122.673 -148.834Q-123.383 -148.799 -124.094 -148.799Q-124.607 -148.799 -125.119 -148.817Q-125.632 -148.836 -126.143 -148.872Q-126.655 -148.908 -127.165 -148.963Q-127.675 -149.017 -128.183 -149.089Q-128.69 -149.162 -129.195 -149.252Q-129.7 -149.343 -130.201 -149.451Q-130.702 -149.559 -131.2 -149.685Q-131.697 -149.811 -132.189 -149.954Q-132.682 -150.098 -133.169 -150.258Q-133.656 -150.419 -134.137 -150.597Q-134.617 -150.775 -135.092 -150.97Q-135.566 -151.164 -136.033 -151.376Q-136.501 -151.587 -136.96 -151.815Q-137.419 -152.043 -137.871 -152.287Q-138.322 -152.531 -138.764 -152.791Q-139.206 -153.051 -139.638 -153.327Q-140.071 -153.602 -140.494 -153.892Q-140.916 -154.183 -141.328 -154.488Q-141.74 -154.794 -142.141 -155.113Q-142.542 -155.433 -142.932 -155.767Q-143.321 -156.1 -143.699 -156.448Q-144.076 -156.795 -144.441 -157.155Q-144.806 -157.516 -145.157 -157.889Q-145.509 -158.262 -145.848 -158.647Q-146.186 -159.033 -146.511 -159.43Q-146.835 -159.827 -147.145 -160.235Q-147.456 -160.644 -147.751 -161.063Q-148.047 -161.482 -148.327 -161.911Q-148.608 -162.34 -148.873 -162.779Q-149.138 -163.218 -149.388 -163.666Q-149.637 -164.114 -149.871 -164.571Q-150.104 -165.028 -150.321 -165.492ZM-205.706 -87.5752Q-203.789 -92.0771 -201.677 -96.4908Q-199.566 -100.905 -197.263 -105.222Q-194.96 -109.539 -192.47 -113.751Q-189.981 -117.963 -187.31 -122.063Q-184.638 -126.162 -181.79 -130.14Q-178.942 -134.119 -175.923 -137.969Q-172.903 -141.819 -169.718 -145.533Q-166.533 -149.248 -163.189 -152.819Q-162.334 -152.627 -161.488 -152.399Q-160.642 -152.171 -159.806 -151.907Q-158.97 -151.643 -158.146 -151.345Q-157.322 -151.046 -156.512 -150.713Q-155.701 -150.38 -154.906 -150.013Q-154.11 -149.646 -153.33 -149.246Q-152.551 -148.846 -151.789 -148.413Q-151.027 -147.981 -150.283 -147.516Q-149.54 -147.052 -148.817 -146.557Q-148.095 -146.061 -147.393 -145.536Q-146.692 -145.01 -146.013 -144.456Q-145.335 -143.902 -144.68 -143.319Q-144.026 -142.736 -143.396 -142.127Q-142.767 -141.517 -142.164 -140.881Q-141.56 -140.246 -140.985 -139.585Q-140.409 -138.925 -139.861 -138.24Q-139.314 -137.556 -138.796 -136.849Q-138.278 -136.143 -137.79 -135.415Q-137.302 -134.687 -136.845 -133.939Q-136.388 -133.191 -135.964 -132.425Q-135.539 -131.658 -135.147 -130.875Q-134.754 -130.091 -134.396 -129.291Q-134.037 -128.492 -133.712 -127.678Q-133.388 -126.864 -133.098 -126.037Q-132.807 -125.21 -132.552 -124.372Q-132.298 -123.534 -132.078 -122.685Q-131.859 -121.837 -131.675 -120.98Q-131.492 -120.123 -131.345 -119.259Q-131.198 -118.395 -131.087 -117.526Q-130.976 -116.657 -130.903 -115.784Q-130.829 -114.91 -130.792 -114.035Q-130.755 -113.159 -130.755 -112.283Q-130.755 -111.263 -130.805 -110.244Q-130.855 -109.226 -130.955 -108.211Q-131.055 -107.196 -131.205 -106.187Q-131.354 -105.178 -131.553 -104.178Q-131.752 -103.177 -132 -102.188Q-132.248 -101.198 -132.544 -100.222Q-132.84 -99.2464 -133.184 -98.2861Q-133.527 -97.3257 -133.917 -96.3834Q-134.308 -95.4411 -134.744 -94.5191Q-135.18 -93.5971 -135.661 -92.6976Q-136.142 -91.7981 -136.666 -90.9232Q-137.19 -90.0484 -137.757 -89.2003Q-138.324 -88.3523 -138.931 -87.5331Q-139.539 -86.7139 -140.186 -85.9254Q-140.833 -85.137 -141.518 -84.3813Q-142.203 -83.6255 -142.924 -82.9043Q-143.645 -82.1831 -144.401 -81.4982Q-145.157 -80.8132 -145.945 -80.1662Q-146.733 -79.5191 -147.553 -78.9115Q-148.372 -78.304 -149.22 -77.7373Q-150.068 -77.1707 -150.943 -76.6463Q-151.818 -76.122 -152.717 -75.6412Q-153.617 -75.1604 -154.539 -74.7243Q-155.461 -74.2882 -156.403 -73.8979Q-157.345 -73.5076 -158.306 -73.164Q-159.266 -72.8203 -160.242 -72.5243Q-161.218 -72.2282 -162.207 -71.9804Q-163.197 -71.7326 -164.197 -71.5336Q-165.197 -71.3346 -166.206 -71.1849Q-167.215 -71.0353 -168.23 -70.9353Q-169.245 -70.8353 -170.264 -70.7853Q-171.283 -70.7352 -172.303 -70.7352Q-172.909 -70.7352 -173.515 -70.7529Q-174.121 -70.7706 -174.727 -70.806Q-175.332 -70.8414 -175.936 -70.8944Q-176.54 -70.9474 -177.142 -71.018Q-177.744 -71.0887 -178.344 -71.1768Q-178.944 -71.265 -179.541 -71.3706Q-180.138 -71.4762 -180.732 -71.5993Q-181.326 -71.7223 -181.915 -71.8626Q-182.505 -72.0028 -183.091 -72.1603Q-183.676 -72.3177 -184.257 -72.4922Q-184.838 -72.6666 -185.413 -72.858Q-185.988 -73.0493 -186.558 -73.2573Q-187.128 -73.4654 -187.691 -73.6899Q-188.254 -73.9145 -188.81 -74.1554Q-189.367 -74.3963 -189.916 -74.6534Q-190.465 -74.9104 -191.007 -75.1834Q-191.548 -75.4563 -192.081 -75.7449Q-192.614 -76.0336 -193.139 -76.3377Q-193.664 -76.6417 -194.179 -76.961Q-194.694 -77.2802 -195.2 -77.6144Q-195.706 -77.9485 -196.202 -78.2973Q-196.698 -78.6461 -197.184 -79.0092Q-197.669 -79.3723 -198.144 -79.7494Q-198.619 -80.1266 -199.083 -80.5174Q-199.546 -80.9082 -199.998 -81.3124Q-200.45 -81.7165 -200.89 -82.1337Q-201.33 -82.5509 -201.758 -82.9808Q-202.185 -83.4106 -202.6 -83.8528Q-203.015 -84.2949 -203.417 -84.749Q-203.819 -85.2031 -204.207 -85.6687Q-204.596 -86.1343 -204.97 -86.611Q-205.345 -87.0878 -205.706 -87.5752ZM-4.8804 -25.3351Q-4.8804 -23.8952 -4.95105 -22.4571Q-5.0217 -21.019 -5.16283 -19.586Q-5.30397 -18.1531 -5.51524 -16.7288Q-5.72651 -15.3046 -6.00741 -13.8924Q-6.28831 -12.4802 -6.63817 -11.0835Q-6.98803 -9.68675 -7.406 -8.30889Q-7.82397 -6.93103 -8.30904 -5.57533Q-8.79412 -4.21964 -9.34513 -2.88938Q-9.89614 -1.55913 -10.5118 -0.257506Q-11.1274 1.04411 -11.8061 2.31396Q-12.4849 3.5838 -13.2251 4.81881Q-13.9653 6.05382 -14.7653 7.25102Q-15.5652 8.44822 -16.423 9.60473Q-17.2807 10.7612 -18.1941 11.8743Q-19.1076 12.9873 -20.0745 14.0542Q-21.0415 15.121 -22.0596 16.1392Q-23.0777 17.1573 -24.1446 18.1242Q-25.2115 19.0912 -26.3245 20.0046Q-27.4375 20.9181 -28.594 21.7758Q-29.7505 22.6335 -30.9477 23.4335Q-32.1449 24.2334 -33.3799 24.9736Q-34.615 25.7139 -35.8848 26.3926Q-37.1546 27.0714 -38.4563 27.687Q-39.7579 28.3026 -41.0881 28.8536Q-42.4184 29.4046 -43.7741 29.8897Q-45.1298 30.3748 -46.5076 30.7928Q-47.8855 31.2107 -49.2822 31.5606Q-50.6789 31.9104 -52.0911 32.1913Q-53.5033 32.4722 -54.9276 32.6835Q-56.3519 32.8948 -57.7848 33.0359Q-59.2177 33.177 -60.6558 33.2477Q-62.094 33.3184 -63.5338 33.3184Q-64.9737 33.3184 -66.4118 33.2477Q-67.8499 33.177 -69.2829 33.0359Q-70.7158 32.8948 -72.1401 32.6835Q-73.5643 32.4722 -74.9765 32.1913Q-76.3887 31.9104 -77.7854 31.5606Q-79.1822 31.2107 -80.56 30.7928Q-81.9379 30.3748 -83.2936 29.8897Q-84.6493 29.4046 -85.9795 28.8536Q-87.3098 28.3026 -88.6114 27.687Q-89.913 27.0714 -91.1829 26.3926Q-92.4527 25.7139 -93.6877 24.9736Q-94.9227 24.2334 -96.1199 23.4335Q-97.3171 22.6335 -98.4736 21.7758Q-99.6301 20.9181 -100.743 20.0046Q-101.856 19.0912 -102.923 18.1242Q-103.99 17.1573 -105.008 16.1392Q-106.026 15.121 -106.993 14.0542Q-107.96 12.9873 -108.874 11.8743Q-109.787 10.7612 -110.645 9.60473Q-111.502 8.44822 -112.302 7.25102Q-113.102 6.05382 -113.843 4.81881Q-114.583 3.5838 -115.262 2.31396Q-115.94 1.04411 -116.556 -0.257506Q-117.172 -1.55913 -117.723 -2.88938Q-118.274 -4.21964 -118.759 -5.57533Q-119.244 -6.93103 -119.662 -8.30889Q-120.08 -9.68675 -120.429 -11.0835Q-120.779 -12.4802 -121.06 -13.8924Q-121.341 -15.3046 -121.552 -16.7288Q-121.764 -18.1531 -121.905 -19.586Q-122.046 -21.019 -122.117 -22.4571Q-122.187 -23.8952 -122.187 -25.3351Q-122.187 -26.7749 -122.117 -28.2131Q-122.046 -29.6512 -121.905 -31.0841Q-121.764 -32.517 -121.552 -33.9413Q-121.341 -35.3656 -121.06 -36.7778Q-120.779 -38.19 -120.429 -39.5867Q-120.08 -40.9834 -119.662 -42.3613Q-119.244 -43.7391 -118.759 -45.0948Q-118.274 -46.4505 -117.723 -47.7808Q-117.172 -49.111 -116.556 -50.4127Q-115.94 -51.7143 -115.262 -52.9841Q-114.583 -54.254 -113.843 -55.489Q-113.102 -56.724 -112.302 -57.9212Q-111.502 -59.1184 -110.645 -60.2749Q-109.787 -61.4314 -108.874 -62.5444Q-107.96 -63.6574 -106.993 -64.7243Q-106.026 -65.7912 -105.008 -66.8093Q-103.99 -67.8275 -102.923 -68.7944Q-101.856 -69.7614 -100.743 -70.6748Q-99.6301 -71.5882 -98.4736 -72.4459Q-97.3171 -73.3037 -96.1199 -74.1036Q-94.9227 -74.9036 -93.6877 -75.6438Q-92.4527 -76.384 -91.1829 -77.0628Q-89.913 -77.7415 -88.6114 -78.3571Q-87.3098 -78.9728 -85.9795 -79.5238Q-84.6493 -80.0748 -83.2936 -80.5599Q-81.9379 -81.0449 -80.56 -81.4629Q-79.1822 -81.8809 -77.7854 -82.2307Q-76.3887 -82.5806 -74.9765 -82.8615Q-73.5643 -83.1424 -72.1401 -83.3537Q-70.7158 -83.5649 -69.2829 -83.7061Q-67.8499 -83.8472 -66.4118 -83.9179Q-64.9737 -83.9885 -63.5338 -83.9885Q-62.094 -83.9885 -60.6558 -83.9179Q-59.2177 -83.8472 -57.7848 -83.7061Q-56.3519 -83.5649 -54.9276 -83.3537Q-53.5033 -83.1424 -52.0911 -82.8615Q-50.6789 -82.5806 -49.2822 -82.2307Q-47.8855 -81.8809 -46.5076 -81.4629Q-45.1298 -81.0449 -43.7741 -80.5599Q-42.4184 -80.0748 -41.0881 -79.5238Q-39.7579 -78.9728 -38.4563 -78.3571Q-37.1546 -77.7415 -35.8848 -77.0628Q-34.615 -76.384 -33.3799 -75.6438Q-32.1449 -74.9036 -30.9477 -74.1036Q-29.7505 -73.3037 -28.594 -72.4459Q-27.4375 -71.5882 -26.3245 -70.6748Q-25.2115 -69.7614 -24.1446 -68.7944Q-23.0777 -67.8275 -22.0596 -66.8093Q-21.0415 -65.7912 -20.0745 -64.7243Q-19.1076 -63.6574 -18.1941 -62.5444Q-17.2807 -61.4314 -16.423 -60.2749Q-15.5652 -59.1184 -14.7653 -57.9212Q-13.9653 -56.724 -13.2251 -55.489Q-12.4849 -54.254 -11.8061 -52.9841Q-11.1274 -51.7143 -10.5118 -50.4127Q-9.89614 -49.111 -9.34513 -47.7808Q-8.79412 -46.4505 -8.30904 -45.0948Q-7.82397 -43.7391 -7.406 -42.3613Q-6.98803 -40.9834 -6.63817 -39.5867Q-6.28831 -38.19 -6.00741 -36.7778Q-5.72651 -35.3656 -5.51524 -33.9413Q-5.30397 -32.517 -5.16283 -31.0841Q-5.0217 -29.6512 -4.95105 -28.2131Q-4.8804 -26.7749 -4.8804 -25.3351Z" fill-rule="evenodd"/>
	<path fill="#999" transform="matrix(0.0932816 0.00935938 -0.00935938 0.0932816 55 47.8571)" d="M222.204 24.6866Q223.571 12.3812 223.571 0Q223.571 -9.6427 222.741 -19.2496Q221.911 -28.8565 220.257 -38.3562Q217.113 -38.9851 213.906 -38.9851Q213.112 -38.9851 212.318 -38.9461Q211.524 -38.9071 210.733 -38.8292Q209.942 -38.7513 209.156 -38.6346Q208.37 -38.518 207.59 -38.363Q206.811 -38.2079 206.04 -38.0148Q205.269 -37.8217 204.508 -37.5909Q203.747 -37.3602 202.999 -37.0925Q202.251 -36.8247 201.516 -36.5205Q200.782 -36.2164 200.064 -35.8766Q199.345 -35.5367 198.644 -35.1621Q197.943 -34.7874 197.262 -34.3788Q196.58 -33.9702 195.919 -33.5286Q195.258 -33.0871 194.62 -32.6136Q193.981 -32.1401 193.367 -31.6359Q192.753 -31.1317 192.164 -30.598Q191.575 -30.0642 191.013 -29.5022Q190.451 -28.9402 189.917 -28.3513Q189.383 -27.7624 188.879 -27.148Q188.375 -26.5336 187.901 -25.8952Q187.428 -25.2568 186.986 -24.596Q186.545 -23.9351 186.136 -23.2534Q185.728 -22.5717 185.353 -21.8707Q184.978 -21.1698 184.638 -20.4513Q184.299 -19.7328 183.994 -18.9985Q183.69 -18.2642 183.422 -17.5158Q183.155 -16.7675 182.924 -16.0069Q182.693 -15.2463 182.5 -14.4754Q182.307 -13.7044 182.152 -12.9249Q181.997 -12.1453 181.88 -11.3591Q181.764 -10.5729 181.686 -9.78197Q181.608 -8.99099 181.569 -8.19715Q181.53 -7.40331 181.53 -6.60851Q181.53 -5.81371 181.569 -5.01987Q181.608 -4.22602 181.686 -3.43505Q181.764 -2.64408 181.88 -1.85788Q181.997 -1.07168 182.152 -0.292157Q182.307 0.487371 182.5 1.25835Q182.693 2.02933 182.924 2.78991Q183.155 3.55048 183.422 4.29882Q183.69 5.04716 183.994 5.78146Q184.299 6.51576 184.638 7.23425Q184.978 7.95274 185.353 8.65369Q185.728 9.35464 186.136 10.0364Q186.545 10.7181 186.986 11.3789Q187.428 12.0398 187.901 12.6782Q188.375 13.3166 188.879 13.931Q189.383 14.5453 189.917 15.1343Q190.451 15.7232 191.013 16.2852Q191.575 16.8472 192.164 17.3809Q192.753 17.9147 193.367 18.4189Q193.981 18.9231 194.62 19.3966Q195.258 19.87 195.919 20.3116Q196.58 20.7532 197.262 21.1618Q197.943 21.5704 198.644 21.9451Q199.345 22.3197 200.064 22.6595Q200.782 22.9994 201.516 23.3035Q202.251 23.6077 202.999 23.8754Q203.747 24.1432 204.508 24.3739Q205.269 24.6046 206.04 24.7978Q206.811 24.9909 207.59 25.1459Q208.37 25.301 209.156 25.4176Q209.942 25.5342 210.733 25.6121Q211.524 25.69 212.318 25.729Q213.112 25.768 213.906 25.768Q216.007 25.768 218.09 25.4966Q220.174 25.2251 222.204 24.6866ZM172.182 142.61Q171.512 141.837 170.821 141.083Q170.131 140.329 169.42 139.593Q168.709 138.858 167.979 138.142Q167.249 137.425 166.5 136.729Q165.751 136.032 164.984 135.356Q164.217 134.68 163.432 134.025Q162.647 133.369 161.844 132.735Q161.042 132.101 160.223 131.489Q159.404 130.876 158.569 130.286Q157.734 129.696 156.883 129.128Q156.032 128.56 155.167 128.015Q154.301 127.47 153.422 126.949Q152.542 126.427 151.648 125.93Q150.755 125.432 149.849 124.958Q148.942 124.485 148.024 124.035Q147.105 123.586 146.174 123.162Q145.244 122.737 144.303 122.338Q143.361 121.938 142.409 121.564Q141.457 121.19 140.496 120.841Q139.535 120.493 138.564 120.17Q137.594 119.847 136.615 119.551Q135.636 119.254 134.65 118.984Q133.664 118.713 132.67 118.469Q131.677 118.226 130.678 118.008Q129.678 117.791 128.674 117.601Q127.669 117.41 126.659 117.247Q125.65 117.083 124.636 116.947Q123.623 116.811 122.606 116.701Q121.589 116.592 120.57 116.51Q119.55 116.428 118.529 116.374Q117.508 116.319 116.485 116.291Q115.463 116.264 114.44 116.264Q112.643 116.264 110.847 116.349Q109.052 116.433 107.262 116.602Q105.472 116.771 103.693 117.023Q101.913 117.276 100.147 117.612Q98.3812 117.948 96.633 118.367Q94.8849 118.786 93.1584 119.286Q91.4319 119.786 89.7308 120.367Q88.0297 120.948 86.3578 121.609Q84.6859 122.269 83.0469 123.007Q81.4079 123.745 79.8054 124.56Q78.2029 125.374 76.6404 126.263Q75.0779 127.152 73.559 128.113Q72.04 129.074 70.5679 130.106Q69.0958 131.137 67.6738 132.237Q66.2518 133.337 64.8831 134.502Q63.5143 135.667 62.2019 136.895Q60.9599 137.257 59.7311 137.662Q58.5023 138.066 57.2882 138.513Q56.0741 138.96 54.8762 139.448Q53.6782 139.936 52.4977 140.465Q51.3173 140.994 50.1558 141.564Q48.9943 142.134 47.8532 142.743Q46.712 143.352 45.5925 144.001Q44.4731 144.649 43.3766 145.335Q42.2801 146.022 41.208 146.746Q40.1358 147.47 39.0893 148.23Q38.0428 148.99 37.023 149.787Q36.0033 150.583 35.0117 151.413Q34.02 152.244 33.0576 153.108Q32.0952 153.973 31.1631 154.87Q30.231 155.767 29.3305 156.696Q28.4299 157.624 27.5619 158.584Q26.6938 159.543 25.8594 160.531Q25.0249 161.52 24.2251 162.537Q23.4252 163.553 22.6609 164.597Q21.8965 165.641 21.1686 166.71Q20.4407 167.78 19.7501 168.874Q19.0595 169.967 18.407 171.084Q17.7546 172.201 17.141 173.34Q16.5274 174.479 15.9534 175.639Q15.3795 176.798 14.8458 177.976Q14.3122 179.155 13.8195 180.351Q13.3268 181.547 12.8756 182.759Q12.4244 183.972 12.0153 185.199Q11.6062 186.426 11.2397 187.667Q10.8731 188.908 10.5495 190.16Q10.226 191.413 9.94577 192.676Q9.66558 193.939 9.42909 195.21Q8.84623 192.379 8.03296 189.605Q7.21969 186.832 6.18151 184.134Q5.14332 181.436 3.88723 178.833Q2.63113 176.229 1.16561 173.738Q1.71258 173.504 2.25066 173.25Q2.78874 172.996 3.31721 172.722Q3.84568 172.449 4.36384 172.157Q4.882 171.864 5.38916 171.553Q5.89632 171.242 6.3918 170.913Q6.88729 170.583 7.37044 170.236Q7.85359 169.889 8.32377 169.524Q8.79395 169.16 9.25053 168.778Q9.70711 168.397 10.1495 167.999Q10.5919 167.601 11.0194 167.187Q11.447 166.773 11.8593 166.344Q12.2715 165.915 12.6678 165.471Q13.0641 165.028 13.444 164.57Q13.8239 164.112 14.1868 163.64Q14.5497 163.169 14.8953 162.685Q15.2408 162.2 15.5684 161.704Q15.8961 161.207 16.2054 160.699Q16.5147 160.19 16.8053 159.671Q17.0959 159.152 17.3674 158.623Q17.6389 158.093 17.8909 157.554Q18.1429 157.015 18.3751 156.467Q18.6073 155.92 18.8194 155.364Q19.0315 154.808 19.2232 154.245Q19.4149 153.681 19.5859 153.111Q19.757 152.542 19.9071 151.966Q20.0573 151.39 20.1864 150.809Q20.3154 150.228 20.4233 149.643Q20.5311 149.058 20.6175 148.47Q20.704 147.881 20.7689 147.289Q20.8338 146.698 20.8772 146.105Q20.9205 145.511 20.9422 144.917Q20.9639 144.322 20.9639 143.727Q20.9639 142.926 20.9245 142.125Q20.8852 141.325 20.8067 140.527Q20.7281 139.73 20.6105 138.937Q20.4929 138.144 20.3366 137.358Q20.1803 136.572 19.9855 135.795Q19.7908 135.018 19.5582 134.251Q19.3256 133.484 19.0556 132.729Q18.7856 131.975 18.4789 131.235Q18.1723 130.494 17.8296 129.77Q17.487 129.045 17.1092 128.339Q16.7315 127.632 16.3195 126.944Q15.9075 126.257 15.4623 125.591Q15.017 124.924 14.5397 124.281Q14.0623 123.637 13.5539 123.018Q13.0455 122.398 12.5073 121.804Q11.9691 121.211 11.4025 120.644Q10.8358 120.077 10.242 119.539Q9.64826 119.001 9.02878 118.492Q8.40931 117.984 7.76563 117.507Q7.12196 117.029 6.45564 116.584Q5.78931 116.139 5.10195 115.727Q4.41458 115.315 3.70783 114.937Q3.00107 114.559 2.27664 114.217Q1.5522 113.874 0.811819 113.567Q0.0714408 113.261 -0.683093 112.991Q-1.43763 112.721 -2.2045 112.488Q-2.97137 112.256 -3.74873 112.061Q-4.5261 111.866 -5.31208 111.71Q-6.09806 111.553 -6.89077 111.436Q-7.68347 111.318 -8.48099 111.24Q-9.27851 111.161 -10.0789 111.122Q-10.8793 111.082 -11.6807 111.082Q-12.4354 111.082 -13.1893 111.117Q-13.9432 111.152 -14.6947 111.222Q-15.4461 111.292 -16.1936 111.396Q-16.941 111.5 -17.6829 111.639Q-18.4247 111.778 -19.1593 111.951Q-19.8939 112.124 -20.6198 112.33Q-21.3456 112.537 -22.0612 112.777Q-22.7767 113.017 -23.4804 113.29Q-24.184 113.562 -24.8743 113.867Q-25.5647 114.172 -26.2401 114.509Q-26.9156 114.846 -27.5748 115.213Q-28.234 115.581 -28.8755 115.978Q-29.517 116.376 -30.1395 116.802Q-30.762 117.229 -31.364 117.684Q-31.9661 118.139 -32.5465 118.622Q-33.1269 119.104 -33.6844 119.613Q-34.2419 120.121 -34.7753 120.655Q-35.3087 121.189 -35.8168 121.747Q-36.325 122.305 -36.8068 122.886Q-37.2886 123.467 -37.7431 124.069Q-38.1975 124.672 -38.6236 125.295Q-39.0498 125.918 -39.4467 126.56Q-39.8435 127.202 -40.2103 127.861Q-40.5771 128.521 -40.9131 129.196Q-41.249 129.872 -41.5533 130.563Q-41.8577 131.253 -42.1298 131.957Q-42.4019 132.661 -42.6411 133.377Q-42.8804 134.093 -43.0864 134.819Q-43.2923 135.545 -43.4645 136.28Q-43.6366 137.015 -43.7747 137.757Q-43.9127 138.499 -44.0163 139.246Q-44.1199 139.994 -44.1888 140.745Q-47.946 139.91 -51.7718 139.49Q-55.5976 139.07 -59.4464 139.07Q-60.7845 139.07 -62.1217 139.121Q-63.4588 139.172 -64.7931 139.273Q-66.1273 139.375 -67.4567 139.528Q-68.7861 139.68 -70.1087 139.883Q-71.4314 140.086 -72.7453 140.339Q-74.0593 140.592 -75.3627 140.895Q-76.666 141.198 -77.9569 141.55Q-79.2479 141.902 -80.5244 142.303Q-81.801 142.704 -83.0614 143.154Q-84.3218 143.603 -85.5642 144.1Q-86.8066 144.597 -88.0292 145.141Q-89.2518 145.685 -90.4528 146.275Q-91.6538 146.865 -92.8315 147.5Q-94.0092 148.135 -95.1618 148.815Q-96.3145 149.495 -97.4405 150.218Q-98.5665 150.941 -99.6641 151.706Q-100.762 152.471 -101.83 153.278Q-102.897 154.084 -103.934 154.931Q-104.97 155.777 -105.973 156.663Q-106.977 157.548 -107.945 158.471Q-108.914 159.394 -109.848 160.353Q-110.781 161.312 -111.677 162.306Q-112.573 163.3 -113.43 164.327Q-114.288 165.354 -115.105 166.413Q-115.923 167.472 -116.7 168.562Q-117.477 169.651 -118.212 170.77Q-118.947 171.888 -119.639 173.033Q-120.33 174.179 -120.978 175.35Q-121.626 176.52 -122.229 177.715Q-122.831 178.91 -123.388 180.127Q-123.945 181.343 -124.455 182.58Q-124.965 183.817 -125.428 185.073Q-121.983 187.408 -118.453 189.613Q-114.924 191.818 -111.314 193.89Q-107.705 195.962 -104.021 197.898Q-100.337 199.835 -96.5837 201.633Q-92.8302 203.431 -89.0125 205.088Q-85.1947 206.745 -81.318 208.258Q-77.4412 209.772 -73.5108 211.141Q-69.5804 212.509 -65.6017 213.73Q-61.6231 214.951 -57.6018 216.024Q-53.5804 217.096 -49.522 218.018Q-45.4635 218.94 -41.3736 219.71Q-37.2837 220.48 -33.1679 221.097Q-29.0521 221.715 -24.9162 222.179Q-20.7803 222.642 -16.63 222.952Q-12.4797 223.262 -8.32077 223.417Q-4.16183 223.571 0 223.571Q4.73696 223.571 9.46968 223.371Q9.49502 223.246 9.5199 223.121Q9.54358 223.244 9.56767 223.367Q12.4865 223.242 15.401 223.04Q18.3155 222.839 21.2238 222.562Q24.1321 222.284 27.0321 221.931Q29.9322 221.578 32.822 221.149Q35.7118 220.72 38.5894 220.216Q41.467 219.712 44.3305 219.132Q47.194 218.553 50.0413 217.899Q52.8887 217.245 55.718 216.517Q58.5473 215.789 61.3566 214.987Q64.1659 214.186 66.9533 213.311Q69.7407 212.436 72.5042 211.488Q75.2678 210.541 78.0057 209.522Q80.7436 208.502 83.4539 207.412Q86.1642 206.321 88.8451 205.16Q91.526 203.999 94.1756 202.769Q96.8252 201.538 99.4418 200.239Q102.058 198.939 104.64 197.572Q107.222 196.204 109.767 194.77Q112.312 193.336 114.819 191.835Q117.326 190.335 119.792 188.77Q122.259 187.204 124.684 185.575Q127.109 183.946 129.491 182.254Q131.872 180.562 134.209 178.808Q136.545 177.054 138.835 175.24Q141.125 173.426 143.367 171.552Q145.608 169.679 147.8 167.747Q149.992 165.816 152.133 163.828Q154.274 161.84 156.362 159.797Q158.45 157.754 160.484 155.657Q162.518 153.56 164.497 151.41Q166.475 149.26 168.397 147.06Q170.319 144.859 172.182 142.61ZM-147.974 -167.594Q-143.204 -171.806 -138.201 -175.74Q-133.199 -179.674 -127.981 -183.317Q-122.763 -186.96 -117.346 -190.3Q-111.929 -193.64 -106.331 -196.667Q-105.848 -196.214 -105.389 -195.736Q-104.929 -195.258 -104.495 -194.758Q-104.061 -194.258 -103.653 -193.736Q-103.244 -193.214 -102.863 -192.672Q-102.482 -192.13 -102.13 -191.569Q-101.777 -191.008 -101.453 -190.43Q-101.129 -189.852 -100.835 -189.258Q-100.542 -188.664 -100.278 -188.056Q-100.015 -187.448 -99.7834 -186.827Q-99.5517 -186.207 -99.3519 -185.575Q-99.1521 -184.943 -98.9847 -184.302Q-98.8175 -183.661 -98.6831 -183.012Q-98.5487 -182.363 -98.4476 -181.708Q-98.3465 -181.054 -98.279 -180.395Q-98.2115 -179.735 -98.1777 -179.074Q-98.1439 -178.412 -98.1438 -177.749Q-98.1438 -177.112 -98.1751 -176.476Q-98.2064 -175.84 -98.2688 -175.206Q-98.3312 -174.572 -98.4247 -173.942Q-98.5182 -173.312 -98.6425 -172.687Q-98.7667 -172.062 -98.9215 -171.444Q-99.0763 -170.826 -99.2612 -170.216Q-99.4462 -169.607 -99.6608 -169.007Q-99.8754 -168.407 -100.119 -167.819Q-100.363 -167.23 -100.635 -166.654Q-100.908 -166.078 -101.208 -165.517Q-101.508 -164.955 -101.836 -164.408Q-102.163 -163.862 -102.517 -163.332Q-102.871 -162.803 -103.251 -162.291Q-103.63 -161.779 -104.034 -161.287Q-104.438 -160.794 -104.866 -160.322Q-105.294 -159.85 -105.744 -159.4Q-106.195 -158.949 -106.667 -158.522Q-107.139 -158.094 -107.631 -157.69Q-108.124 -157.286 -108.635 -156.906Q-109.147 -156.527 -109.677 -156.173Q-110.207 -155.819 -110.753 -155.491Q-111.299 -155.164 -111.861 -154.863Q-112.423 -154.563 -112.999 -154.291Q-113.575 -154.018 -114.163 -153.775Q-114.752 -153.531 -115.352 -153.316Q-115.951 -153.102 -116.561 -152.917Q-117.171 -152.732 -117.789 -152.577Q-118.407 -152.422 -119.031 -152.298Q-119.656 -152.174 -120.286 -152.08Q-120.916 -151.987 -121.55 -151.924Q-122.184 -151.862 -122.821 -151.831Q-123.457 -151.799 -124.094 -151.799Q-124.568 -151.799 -125.042 -151.817Q-125.515 -151.834 -125.988 -151.868Q-126.46 -151.903 -126.932 -151.955Q-127.403 -152.007 -127.872 -152.076Q-128.34 -152.145 -128.806 -152.231Q-129.272 -152.317 -129.735 -152.42Q-130.198 -152.523 -130.656 -152.643Q-131.115 -152.763 -131.569 -152.899Q-132.022 -153.036 -132.471 -153.189Q-132.92 -153.342 -133.362 -153.511Q-133.805 -153.68 -134.241 -153.865Q-134.677 -154.051 -135.106 -154.252Q-135.536 -154.453 -135.957 -154.67Q-136.379 -154.886 -136.792 -155.118Q-137.205 -155.35 -137.61 -155.597Q-138.014 -155.844 -138.41 -156.105Q-138.805 -156.367 -139.19 -156.642Q-139.576 -156.918 -139.951 -157.208Q-140.326 -157.497 -140.69 -157.8Q-141.055 -158.103 -141.408 -158.42Q-141.761 -158.736 -142.102 -159.065Q-142.443 -159.394 -142.772 -159.735Q-143.101 -160.076 -143.418 -160.429Q-143.734 -160.782 -144.037 -161.146Q-144.34 -161.51 -144.63 -161.885Q-144.92 -162.26 -145.196 -162.646Q-145.472 -163.031 -145.733 -163.426Q-145.995 -163.821 -146.242 -164.226Q-146.489 -164.63 -146.721 -165.044Q-146.953 -165.457 -147.17 -165.878Q-147.386 -166.3 -147.588 -166.729Q-147.789 -167.158 -147.974 -167.594ZM-204.305 -90.7941Q-202.496 -94.8642 -200.527 -98.859Q-198.558 -102.854 -196.431 -106.767Q-194.304 -110.68 -192.022 -114.506Q-189.741 -118.331 -187.31 -122.063Q-184.878 -125.794 -182.3 -129.426Q-179.721 -133.057 -177 -136.584Q-174.279 -140.11 -171.42 -143.525Q-168.561 -146.94 -165.568 -150.238Q-164.74 -150.091 -163.92 -149.908Q-163.1 -149.726 -162.288 -149.507Q-161.476 -149.289 -160.675 -149.035Q-159.874 -148.782 -159.084 -148.494Q-158.295 -148.206 -157.518 -147.883Q-156.742 -147.561 -155.981 -147.205Q-155.219 -146.849 -154.474 -146.46Q-153.729 -146.072 -153.002 -145.651Q-152.274 -145.23 -151.566 -144.778Q-150.857 -144.326 -150.169 -143.843Q-149.481 -143.361 -148.814 -142.848Q-148.148 -142.336 -147.505 -141.796Q-146.861 -141.255 -146.242 -140.687Q-145.623 -140.119 -145.029 -139.524Q-144.435 -138.929 -143.867 -138.309Q-143.3 -137.689 -142.76 -137.045Q-142.22 -136.401 -141.709 -135.734Q-141.197 -135.067 -140.716 -134.378Q-140.234 -133.69 -139.783 -132.981Q-139.331 -132.272 -138.911 -131.543Q-138.492 -130.815 -138.104 -130.07Q-137.716 -129.324 -137.361 -128.562Q-137.006 -127.8 -136.685 -127.024Q-136.363 -126.247 -136.076 -125.457Q-135.789 -124.668 -135.536 -123.866Q-135.284 -123.064 -135.066 -122.252Q-134.849 -121.441 -134.667 -120.62Q-134.485 -119.799 -134.34 -118.972Q-134.194 -118.144 -134.084 -117.311Q-133.975 -116.477 -133.901 -115.64Q-133.828 -114.803 -133.791 -113.963Q-133.755 -113.124 -133.755 -112.283Q-133.755 -111.337 -133.801 -110.392Q-133.848 -109.447 -133.94 -108.505Q-134.033 -107.563 -134.172 -106.627Q-134.311 -105.691 -134.496 -104.763Q-134.68 -103.835 -134.91 -102.917Q-135.14 -101.999 -135.415 -101.093Q-135.689 -100.188 -136.008 -99.2967Q-136.327 -98.4057 -136.689 -97.5315Q-137.051 -96.6572 -137.456 -95.8018Q-137.86 -94.9463 -138.307 -94.1118Q-138.753 -93.2772 -139.239 -92.4655Q-139.726 -91.6539 -140.251 -90.8671Q-140.777 -90.0802 -141.341 -89.3202Q-141.904 -88.5601 -142.505 -87.8286Q-143.105 -87.0971 -143.741 -86.396Q-144.376 -85.6948 -145.045 -85.0257Q-145.714 -84.3565 -146.416 -83.721Q-147.117 -83.0855 -147.848 -82.4852Q-148.58 -81.8849 -149.34 -81.3212Q-150.1 -80.7575 -150.887 -80.2317Q-151.673 -79.706 -152.485 -79.2195Q-153.297 -78.733 -154.131 -78.2869Q-154.966 -77.8408 -155.821 -77.4362Q-156.677 -77.0316 -157.551 -76.6695Q-158.425 -76.3074 -159.316 -75.9886Q-160.207 -75.6698 -161.113 -75.3951Q-162.018 -75.1204 -162.936 -74.8905Q-163.854 -74.6605 -164.782 -74.4759Q-165.711 -74.2913 -166.647 -74.1525Q-167.583 -74.0136 -168.524 -73.9209Q-169.466 -73.8281 -170.411 -73.7817Q-171.356 -73.7352 -172.303 -73.7352Q-172.893 -73.7352 -173.482 -73.7533Q-174.072 -73.7714 -174.661 -73.8074Q-175.25 -73.8435 -175.837 -73.8976Q-176.425 -73.9517 -177.01 -74.0238Q-177.596 -74.0959 -178.179 -74.1858Q-178.762 -74.2757 -179.342 -74.3835Q-179.922 -74.4912 -180.499 -74.6167Q-181.075 -74.7421 -181.648 -74.8851Q-182.22 -75.0282 -182.788 -75.1887Q-183.356 -75.3491 -183.918 -75.5269Q-184.481 -75.7047 -185.038 -75.8996Q-185.595 -76.0945 -186.145 -76.3064Q-186.696 -76.5183 -187.24 -76.7469Q-187.784 -76.9755 -188.32 -77.2206Q-188.857 -77.4658 -189.386 -77.7273Q-189.915 -77.9887 -190.435 -78.2663Q-190.956 -78.5438 -191.468 -78.8371Q-191.98 -79.1304 -192.482 -79.4393Q-192.985 -79.7481 -193.478 -80.0722Q-193.971 -80.3963 -194.454 -80.7354Q-194.937 -81.0744 -195.409 -81.428Q-195.881 -81.7817 -196.343 -82.1496Q-196.804 -82.5176 -197.253 -82.8995Q-197.703 -83.2813 -198.141 -83.6768Q-198.579 -84.0723 -199.004 -84.4809Q-199.43 -84.8896 -199.843 -85.3111Q-200.256 -85.7327 -200.655 -86.1666Q-201.055 -86.6005 -201.441 -87.0465Q-201.827 -87.4925 -202.2 -87.9501Q-202.572 -88.4077 -202.931 -88.8764Q-203.289 -89.3452 -203.633 -89.8247Q-203.976 -90.3042 -204.305 -90.7941ZM-7.8804 -25.3351Q-7.8804 -23.9689 -7.94744 -22.6043Q-8.01447 -21.2397 -8.14839 -19.8801Q-8.2823 -18.5205 -8.48277 -17.169Q-8.68323 -15.8176 -8.94977 -14.4776Q-9.2163 -13.1377 -9.54826 -11.8124Q-9.88023 -10.4871 -10.2768 -9.17974Q-10.6734 -7.87235 -11.1337 -6.586Q-11.5939 -5.29965 -12.1168 -4.03743Q-12.6396 -2.77522 -13.2237 -1.54017Q-13.8079 -0.305128 -14.4519 0.899766Q-15.0959 2.10466 -15.7983 3.2765Q-16.5007 4.44834 -17.2597 5.58431Q-18.0187 6.72028 -18.8326 7.81763Q-19.6464 8.91498 -20.5131 9.97108Q-21.3799 11.0272 -22.2974 12.0395Q-23.2149 13.0518 -24.1809 14.0178Q-25.147 14.9839 -26.1593 15.9014Q-27.1716 16.8189 -28.2277 17.6856Q-29.2838 18.5523 -30.3811 19.3662Q-31.4785 20.18 -32.6144 20.9391Q-33.7504 21.6981 -34.9222 22.4005Q-36.0941 23.1028 -37.299 23.7469Q-38.5039 24.3909 -39.7389 24.975Q-40.974 25.5592 -42.2362 26.082Q-43.4984 26.6048 -44.7848 27.0651Q-46.0711 27.5253 -47.3785 27.9219Q-48.6859 28.3185 -50.0112 28.6505Q-51.3364 28.9825 -52.6764 29.249Q-54.0163 29.5155 -55.3678 29.716Q-56.7192 29.9165 -58.0788 30.0504Q-59.4385 30.1843 -60.803 30.2513Q-62.1676 30.3184 -63.5338 30.3184Q-64.9 30.3184 -66.2646 30.2513Q-67.6292 30.1843 -68.9888 30.0504Q-70.3484 29.9165 -71.6999 29.716Q-73.0513 29.5155 -74.3913 29.249Q-75.7312 28.9824 -77.0565 28.6505Q-78.3818 28.3185 -79.6892 27.9219Q-80.9965 27.5253 -82.2829 27.0651Q-83.5692 26.6048 -84.8315 26.082Q-86.0937 25.5592 -87.3287 24.975Q-88.5638 24.3909 -89.7687 23.7469Q-90.9736 23.1028 -92.1454 22.4005Q-93.3172 21.6981 -94.4532 20.9391Q-95.5892 20.18 -96.6865 19.3662Q-97.7839 18.5523 -98.84 17.6856Q-99.8961 16.8189 -100.908 15.9014Q-101.921 14.9839 -102.887 14.0178Q-103.853 13.0518 -104.77 12.0395Q-105.688 11.0272 -106.555 9.97108Q-107.421 8.91498 -108.235 7.81763Q-109.049 6.72028 -109.808 5.58431Q-110.567 4.44834 -111.269 3.2765Q-111.972 2.10466 -112.616 0.899766Q-113.26 -0.305128 -113.844 -1.54017Q-114.428 -2.77522 -114.951 -4.03743Q-115.474 -5.29965 -115.934 -6.586Q-116.394 -7.87235 -116.791 -9.17974Q-117.187 -10.4871 -117.519 -11.8124Q-117.851 -13.1377 -118.118 -14.4776Q-118.384 -15.8176 -118.585 -17.169Q-118.785 -18.5205 -118.919 -19.8801Q-119.053 -21.2397 -119.12 -22.6043Q-119.187 -23.9689 -119.187 -25.3351Q-119.187 -26.7013 -119.12 -28.0659Q-119.053 -29.4304 -118.919 -30.7901Q-118.785 -32.1497 -118.585 -33.5011Q-118.384 -34.8526 -118.118 -36.1925Q-117.851 -37.5325 -117.519 -38.8578Q-117.187 -40.183 -116.791 -41.4904Q-116.394 -42.7978 -115.934 -44.0842Q-115.474 -45.3705 -114.951 -46.6327Q-114.428 -47.8949 -113.844 -49.13Q-113.26 -50.365 -112.616 -51.5699Q-111.972 -52.7748 -111.269 -53.9467Q-110.567 -55.1185 -109.808 -56.2545Q-109.049 -57.3904 -108.235 -58.4878Q-107.421 -59.5851 -106.555 -60.6412Q-105.688 -61.6973 -104.77 -62.7096Q-103.853 -63.7219 -102.887 -64.688Q-101.921 -65.654 -100.908 -66.5715Q-99.8961 -67.489 -98.84 -68.3558Q-97.7839 -69.2225 -96.6865 -70.0363Q-95.5892 -70.8502 -94.4532 -71.6092Q-93.3172 -72.3682 -92.1454 -73.0706Q-90.9736 -73.773 -89.7687 -74.417Q-88.5638 -75.0611 -87.3287 -75.6452Q-86.0937 -76.2293 -84.8315 -76.7521Q-83.5692 -77.275 -82.2829 -77.7352Q-80.9966 -78.1955 -79.6892 -78.5921Q-78.3818 -78.9887 -77.0565 -79.3206Q-75.7312 -79.6526 -74.3913 -79.9191Q-73.0513 -80.1857 -71.6999 -80.3861Q-70.3484 -80.5866 -68.9888 -80.7205Q-67.6292 -80.8544 -66.2646 -80.9215Q-64.9 -80.9885 -63.5338 -80.9885Q-62.1676 -80.9885 -60.8031 -80.9215Q-59.4385 -80.8544 -58.0788 -80.7205Q-56.7192 -80.5866 -55.3678 -80.3861Q-54.0163 -80.1857 -52.6764 -79.9191Q-51.3364 -79.6526 -50.0111 -79.3206Q-48.6859 -78.9887 -47.3785 -78.5921Q-46.0711 -78.1955 -44.7847 -77.7352Q-43.4984 -77.275 -42.2362 -76.7521Q-40.974 -76.2293 -39.7389 -75.6452Q-38.5039 -75.0611 -37.299 -74.417Q-36.0941 -73.773 -34.9222 -73.0706Q-33.7504 -72.3682 -32.6144 -71.6092Q-31.4785 -70.8502 -30.3811 -70.0363Q-29.2838 -69.2225 -28.2277 -68.3558Q-27.1716 -67.489 -26.1593 -66.5715Q-25.147 -65.654 -24.1809 -64.688Q-23.2149 -63.7219 -22.2974 -62.7096Q-21.3799 -61.6973 -20.5131 -60.6412Q-19.6464 -59.5851 -18.8326 -58.4878Q-18.0187 -57.3904 -17.2597 -56.2545Q-16.5007 -55.1185 -15.7983 -53.9467Q-15.0959 -52.7748 -14.4519 -51.5699Q-13.8079 -50.365 -13.2237 -49.13Q-12.6396 -47.8949 -12.1168 -46.6327Q-11.5939 -45.3705 -11.1337 -44.0842Q-10.6734 -42.7978 -10.2768 -41.4904Q-9.88023 -40.183 -9.54826 -38.8578Q-9.2163 -37.5325 -8.94977 -36.1925Q-8.68323 -34.8526 -8.48277 -33.5011Q-8.2823 -32.1497 -8.14839 -30.7901Q-8.01447 -29.4304 -7.94744 -28.0659Q-7.8804 -26.7013 -7.8804 -25.3351Z" fill-rule="evenodd"/>
	<path fill="none" stroke="black" stroke-width="2.3999999" stroke-linejoin="round" transform="translate(55 79.2857)" d="M-21.7216 -6.4323Q-21.3603 -5.76824 -20.8916 -4.79656Q-20.4179 -3.82977 -19.9101 -2.69695Q-19.4023 -1.56902 -18.9043 -0.387383Q-18.4013 0.789375 -17.9619 1.82941Q-17.5175 0.789375 -17.0195 -0.387383Q-16.5215 -1.56902 -16.0136 -2.69695Q-15.5009 -3.82977 -15.0322 -4.79656Q-14.5586 -5.76824 -14.2021 -6.4323L-11.3603 -6.4323Q-11.1601 -5.05047 -10.9892 -3.3366Q-10.8183 -1.62762 -10.6914 0.222969Q-10.5595 2.06867 -10.4521 3.92902Q-10.3398 5.78937 -10.2617 7.43L-13.2988 7.43Q-13.3623 5.40852 -13.4599 3.03059Q-13.5576 0.647773 -13.7578 -1.76922Q-14.1191 -0.929375 -14.5586 0.0911326Q-14.998 1.11164 -15.4326 2.13215Q-15.8623 3.14777 -16.2627 4.08039Q-16.6582 5.00812 -16.9414 5.67219L-19.1191 5.67219Q-19.4023 5.00812 -19.8027 4.08039Q-20.1982 3.14777 -20.6279 2.13215Q-21.0576 1.11164 -21.5019 0.0911326Q-21.9414 -0.929375 -22.2978 -1.76922Q-22.498 0.647773 -22.6006 3.03059Q-22.6982 5.40852 -22.7617 7.43L-25.7988 7.43Q-25.7207 5.78937 -25.6133 3.92902Q-25.5009 2.06867 -25.374 0.222969Q-25.2422 -1.62762 -25.0713 -3.3366Q-24.9004 -5.05047 -24.7002 -6.4323L-21.7216 -6.4323ZM2.18025 2.15168Q2.18025 3.39191 1.81892 4.42219Q1.4576 5.44758 0.778885 6.18Q0.100174 6.91242 -0.851974 7.31281Q-1.79924 7.70832 -2.98088 7.70832Q-4.13811 7.70832 -5.09026 7.31281Q-6.0424 6.91242 -6.72112 6.18Q-7.39983 5.44758 -7.78069 4.42219Q-8.16154 3.39191 -8.16154 2.15168Q-8.16154 0.911445 -7.77092 -0.109063Q-7.38029 -1.12957 -6.69182 -1.84734Q-5.99846 -2.57 -5.05119 -2.97039Q-4.09904 -3.37078 -2.98088 -3.37078Q-1.8383 -3.37078 -0.891037 -2.97039Q0.0611115 -2.57 0.739822 -1.84734Q1.41853 -1.12957 1.79939 -0.109063Q2.18025 0.911445 2.18025 2.15168ZM-0.86174 2.15168Q-0.86174 0.769844 -1.4135 -0.021172Q-1.96037 -0.812188 -2.98088 -0.812188Q-4.00139 -0.812188 -4.56291 -0.021172Q-5.11955 0.769844 -5.11955 2.15168Q-5.11955 3.52863 -4.56291 4.33918Q-4.00139 5.14973 -2.98088 5.14973Q-1.96037 5.14973 -1.4135 4.33918Q-0.86174 3.52863 -0.86174 2.15168ZM14.3202 2.15168Q14.3202 3.39191 13.9589 4.42219Q13.5976 5.44758 12.9189 6.18Q12.2402 6.91242 11.288 7.31281Q10.3407 7.70832 9.1591 7.70832Q8.00188 7.70832 7.04973 7.31281Q6.09758 6.91242 5.41887 6.18Q4.74016 5.44758 4.3593 4.42219Q3.97844 3.39191 3.97844 2.15168Q3.97844 0.911445 4.36906 -0.109063Q4.75969 -1.12957 5.44817 -1.84734Q6.14153 -2.57 7.08879 -2.97039Q8.04094 -3.37078 9.1591 -3.37078Q10.3017 -3.37078 11.2489 -2.97039Q12.2011 -2.57 12.8798 -1.84734Q13.5585 -1.12957 13.9394 -0.109063Q14.3202 0.911445 14.3202 2.15168ZM11.2782 2.15168Q11.2782 0.769844 10.7265 -0.021172Q10.1796 -0.812188 9.1591 -0.812188Q8.1386 -0.812188 7.57707 -0.021172Q7.02043 0.769844 7.02043 2.15168Q7.02043 3.52863 7.57707 4.33918Q8.1386 5.14973 9.1591 5.14973Q10.1796 5.14973 10.7265 4.33918Q11.2782 3.52863 11.2782 2.15168ZM16.6214 -2.73113Q17.3782 -2.95086 18.5794 -3.14129Q19.7805 -3.33172 21.0989 -3.33172Q22.4417 -3.33172 23.3303 -2.98016Q24.219 -2.62859 24.7366 -1.98895Q25.259 -1.3493 25.4788 -0.470391Q25.6985 0.408515 25.6985 1.48762L25.6985 7.43L22.72 7.43L22.72 1.84895Q22.72 0.408515 22.3391 -0.187188Q21.9583 -0.787774 20.9182 -0.787774Q20.6008 -0.787774 20.2395 -0.758477Q19.8782 -0.72918 19.5999 -0.690117L19.5999 7.43L16.6214 7.43L16.6214 -2.73113Z"/>
	<path fill="white" transform="translate(55 79.2857)" d="M-21.7216 -6.4323Q-21.3603 -5.76824 -20.8916 -4.79656Q-20.4179 -3.82977 -19.9101 -2.69695Q-19.4023 -1.56902 -18.9043 -0.387383Q-18.4013 0.789375 -17.9619 1.82941Q-17.5175 0.789375 -17.0195 -0.387383Q-16.5215 -1.56902 -16.0136 -2.69695Q-15.5009 -3.82977 -15.0322 -4.79656Q-14.5586 -5.76824 -14.2021 -6.4323L-11.3603 -6.4323Q-11.1601 -5.05047 -10.9892 -3.3366Q-10.8183 -1.62762 -10.6914 0.222969Q-10.5595 2.06867 -10.4521 3.92902Q-10.3398 5.78937 -10.2617 7.43L-13.2988 7.43Q-13.3623 5.40852 -13.4599 3.03059Q-13.5576 0.647773 -13.7578 -1.76922Q-14.1191 -0.929375 -14.5586 0.0911326Q-14.998 1.11164 -15.4326 2.13215Q-15.8623 3.14777 -16.2627 4.08039Q-16.6582 5.00812 -16.9414 5.67219L-19.1191 5.67219Q-19.4023 5.00812 -19.8027 4.08039Q-20.1982 3.14777 -20.6279 2.13215Q-21.0576 1.11164 -21.5019 0.0911326Q-21.9414 -0.929375 -22.2978 -1.76922Q-22.498 0.647773 -22.6006 3.03059Q-22.6982 5.40852 -22.7617 7.43L-25.7988 7.43Q-25.7207 5.78937 -25.6133 3.92902Q-25.5009 2.06867 -25.374 0.222969Q-25.2422 -1.62762 -25.0713 -3.3366Q-24.9004 -5.05047 -24.7002 -6.4323L-21.7216 -6.4323ZM2.18025 2.15168Q2.18025 3.39191 1.81892 4.42219Q1.4576 5.44758 0.778885 6.18Q0.100174 6.91242 -0.851974 7.31281Q-1.79924 7.70832 -2.98088 7.70832Q-4.13811 7.70832 -5.09026 7.31281Q-6.0424 6.91242 -6.72112 6.18Q-7.39983 5.44758 -7.78069 4.42219Q-8.16154 3.39191 -8.16154 2.15168Q-8.16154 0.911445 -7.77092 -0.109063Q-7.38029 -1.12957 -6.69182 -1.84734Q-5.99846 -2.57 -5.05119 -2.97039Q-4.09904 -3.37078 -2.98088 -3.37078Q-1.8383 -3.37078 -0.891037 -2.97039Q0.0611115 -2.57 0.739822 -1.84734Q1.41853 -1.12957 1.79939 -0.109063Q2.18025 0.911445 2.18025 2.15168ZM-0.86174 2.15168Q-0.86174 0.769844 -1.4135 -0.021172Q-1.96037 -0.812188 -2.98088 -0.812188Q-4.00139 -0.812188 -4.56291 -0.021172Q-5.11955 0.769844 -5.11955 2.15168Q-5.11955 3.52863 -4.56291 4.33918Q-4.00139 5.14973 -2.98088 5.14973Q-1.96037 5.14973 -1.4135 4.33918Q-0.86174 3.52863 -0.86174 2.15168ZM14.3202 2.15168Q14.3202 3.39191 13.9589 4.42219Q13.5976 5.44758 12.9189 6.18Q12.2402 6.91242 11.288 7.31281Q10.3407 7.70832 9.1591 7.70832Q8.00188 7.70832 7.04973 7.31281Q6.09758 6.91242 5.41887 6.18Q4.74016 5.44758 4.3593 4.42219Q3.97844 3.39191 3.97844 2.15168Q3.97844 0.911445 4.36906 -0.109063Q4.75969 -1.12957 5.44817 -1.84734Q6.14153 -2.57 7.08879 -2.97039Q8.04094 -3.37078 9.1591 -3.37078Q10.3017 -3.37078 11.2489 -2.97039Q12.2011 -2.57 12.8798 -1.84734Q13.5585 -1.12957 13.9394 -0.109063Q14.3202 0.911445 14.3202 2.15168ZM11.2782 2.15168Q11.2782 0.769844 10.7265 -0.021172Q10.1796 -0.812188 9.1591 -0.812188Q8.1386 -0.812188 7.57707 -0.021172Q7.02043 0.769844 7.02043 2.15168Q7.02043 3.52863 7.57707 4.33918Q8.1386 5.14973 9.1591 5.14973Q10.1796 5.14973 10.7265 4.33918Q11.2782 3.52863 11.2782 2.15168ZM16.6214 -2.73113Q17.3782 -2.95086 18.5794 -3.14129Q19.7805 -3.33172 21.0989 -3.33172Q22.4417 -3.33172 23.3303 -2.98016Q24.219 -2.62859 24.7366 -1.98895Q25.259 -1.3493 25.4788 -0.470391Q25.6985 0.408515 25.6985 1.48762L25.6985 7.43L22.72 7.43L22.72 1.84895Q22.72 0.408515 22.3391 -0.187188Q21.9583 -0.787774 20.9182 -0.787774Q20.6008 -0.787774 20.2395 -0.758477Q19.8782 -0.72918 19.5999 -0.690117L19.5999 7.43L16.6214 7.43L16.6214 -2.73113Z"/>
</svg>
