<?xml version="1.0" encoding="utf-8" ?>
<svg xmlns="http://www.w3.org/2000/svg" xmlns:xlink="http://www.w3.org/1999/xlink" width="110" height="110">
	<path fill="#6D6D6D" transform="matrix(0.082917 0.00831945 -0.00831945 0.082917 55 47.8571)" d="M257.143 0Q257.143 6.3125 256.833 12.6174Q256.523 18.9223 255.905 25.2044Q255.286 31.4865 254.36 37.7307Q253.433 43.9749 252.202 50.1661Q250.97 56.3573 249.437 62.4806Q247.903 68.6039 246.07 74.6446Q244.238 80.6853 242.111 86.6288Q239.985 92.5723 237.569 98.4043Q235.153 104.236 232.454 109.943Q229.755 115.649 226.78 121.216Q223.804 126.783 220.559 132.198Q217.313 137.612 213.806 142.861Q210.299 148.11 206.539 153.18Q202.779 158.25 198.774 163.13Q194.77 168.009 190.53 172.687Q186.291 177.364 181.827 181.827Q177.364 186.291 172.687 190.53Q168.009 194.77 163.13 198.774Q158.25 202.779 153.18 206.539Q148.11 210.299 142.861 213.806Q137.612 217.313 132.198 220.559Q126.783 223.804 121.216 226.78Q115.649 229.755 109.943 232.454Q104.236 235.153 98.4043 237.569Q92.5723 239.985 86.6288 242.111Q80.6853 244.238 74.6446 246.07Q68.6039 247.903 62.4806 249.437Q56.3573 250.97 50.1661 252.202Q43.9749 253.433 37.7307 254.36Q31.4865 255.286 25.2044 255.905Q18.9223 256.523 12.6174 256.833Q6.3125 257.143 0 257.143Q-6.3125 257.143 -12.6174 256.833Q-18.9223 256.523 -25.2044 255.905Q-31.4865 255.286 -37.7307 254.36Q-43.9749 253.433 -50.1661 252.202Q-56.3573 250.97 -62.4806 249.437Q-68.6039 247.903 -74.6446 246.07Q-80.6853 244.238 -86.6288 242.111Q-92.5723 239.985 -98.4043 237.569Q-104.236 235.153 -109.943 232.454Q-115.649 229.755 -121.216 226.78Q-126.783 223.804 -132.198 220.559Q-137.612 217.313 -142.861 213.806Q-148.11 210.299 -153.18 206.539Q-158.25 202.779 -163.13 198.774Q-168.009 194.77 -172.687 190.53Q-177.364 186.291 -181.827 181.827Q-186.291 177.364 -190.53 172.687Q-194.77 168.009 -198.774 163.13Q-202.779 158.25 -206.539 153.18Q-210.299 148.11 -213.806 142.861Q-217.313 137.612 -220.559 132.198Q-223.804 126.783 -226.78 121.216Q-229.755 115.649 -232.454 109.943Q-235.153 104.236 -237.569 98.4043Q-239.985 92.5723 -242.111 86.6288Q-244.238 80.6853 -246.07 74.6446Q-247.903 68.6039 -249.437 62.4806Q-250.97 56.3573 -252.202 50.1661Q-253.433 43.9749 -254.36 37.7307Q-255.286 31.4865 -255.905 25.2044Q-256.523 18.9223 -256.833 12.6174Q-257.143 6.3125 -257.143 0Q-257.143 -6.3125 -256.833 -12.6174Q-256.523 -18.9223 -255.905 -25.2044Q-255.286 -31.4865 -254.36 -37.7307Q-253.433 -43.9749 -252.202 -50.1661Q-250.97 -56.3573 -249.437 -62.4806Q-247.903 -68.6039 -246.07 -74.6446Q-244.238 -80.6853 -242.111 -86.6288Q-239.985 -92.5723 -237.569 -98.4043Q-235.153 -104.236 -232.454 -109.943Q-229.755 -115.649 -226.78 -121.216Q-223.804 -126.783 -220.559 -132.198Q-217.313 -137.612 -213.806 -142.861Q-210.299 -148.11 -206.539 -153.18Q-202.779 -158.25 -198.774 -163.13Q-194.77 -168.009 -190.53 -172.687Q-186.291 -177.364 -181.827 -181.827Q-177.364 -186.291 -172.687 -190.53Q-168.009 -194.77 -163.13 -198.774Q-158.25 -202.779 -153.18 -206.539Q-148.11 -210.299 -142.861 -213.806Q-137.612 -217.313 -132.198 -220.559Q-126.783 -223.804 -121.216 -226.78Q-115.649 -229.755 -109.943 -232.454Q-104.236 -235.153 -98.4043 -237.569Q-92.5723 -239.985 -86.6288 -242.111Q-80.6853 -244.238 -74.6446 -246.07Q-68.6039 -247.903 -62.4806 -249.437Q-56.3573 -250.97 -50.1661 -252.202Q-43.9749 -253.433 -37.7307 -254.36Q-31.4865 -255.286 -25.2044 -255.905Q-18.9223 -256.523 -12.6174 -256.833Q-6.3125 -257.143 0 -257.143Q6.3125 -257.143 12.6174 -256.833Q18.9223 -256.523 25.2044 -255.905Q31.4865 -255.286 37.7307 -254.36Q43.9749 -253.433 50.1661 -252.202Q56.3573 -250.97 62.4806 -249.437Q68.6039 -247.903 74.6446 -246.07Q80.6853 -244.238 86.6288 -242.111Q92.5723 -239.985 98.4043 -237.569Q104.236 -235.153 109.943 -232.454Q115.649 -229.755 121.216 -226.78Q126.783 -223.804 132.198 -220.559Q137.612 -217.313 142.861 -213.806Q148.11 -210.299 153.18 -206.539Q158.25 -202.779 163.13 -198.774Q168.009 -194.77 172.687 -190.53Q177.364 -186.291 181.827 -181.827Q186.291 -177.364 190.53 -172.687Q194.77 -168.009 198.774 -163.13Q202.779 -158.25 206.539 -153.18Q210.299 -148.11 213.806 -142.861Q217.313 -137.612 220.559 -132.198Q223.804 -126.783 226.78 -121.216Q229.755 -115.649 232.454 -109.943Q235.153 -104.236 237.569 -98.4043Q239.985 -92.5723 242.111 -86.6288Q244.238 -80.6853 246.07 -74.6446Q247.903 -68.6039 249.437 -62.4806Q250.97 -56.3573 252.202 -50.1661Q253.433 -43.9749 254.36 -37.7307Q255.286 -31.4865 255.905 -25.2044Q256.523 -18.9223 256.833 -12.6174Q257.143 -6.3125 257.143 0"/>
	<path fill="#878787" transform="matrix(0.082917 0.00831945 -0.00831945 0.082917 55 47.8571)" d="M252.143 0Q252.143 6.18976 251.839 12.3721Q251.535 18.5544 250.929 24.7143Q250.322 30.8743 249.414 36.997Q248.506 43.1198 247.298 49.1906Q246.09 55.2615 244.586 61.2657Q243.082 67.27 241.286 73.1932Q239.489 79.1164 237.404 84.9444Q235.318 90.7723 232.95 96.4909Q230.581 102.209 227.934 107.805Q225.288 113.4 222.37 118.859Q219.452 124.318 216.27 129.627Q213.088 134.936 209.649 140.083Q206.21 145.23 202.523 150.201Q198.836 155.173 194.909 159.958Q190.982 164.742 186.826 169.329Q182.669 173.915 178.292 178.292Q173.915 182.669 169.329 186.826Q164.742 190.982 159.958 194.909Q155.173 198.836 150.201 202.523Q145.23 206.21 140.083 209.649Q134.936 213.088 129.627 216.27Q124.318 219.452 118.859 222.37Q113.4 225.288 107.805 227.934Q102.209 230.581 96.4909 232.95Q90.7723 235.318 84.9444 237.404Q79.1164 239.489 73.1932 241.286Q67.27 243.082 61.2657 244.586Q55.2615 246.09 49.1906 247.298Q43.1198 248.506 36.997 249.414Q30.8743 250.322 24.7143 250.929Q18.5544 251.535 12.3721 251.839Q6.18976 252.143 0 252.143Q-6.18976 252.143 -12.3721 251.839Q-18.5544 251.535 -24.7143 250.929Q-30.8743 250.322 -36.997 249.414Q-43.1198 248.506 -49.1906 247.298Q-55.2615 246.09 -61.2657 244.586Q-67.27 243.082 -73.1932 241.286Q-79.1164 239.489 -84.9444 237.404Q-90.7723 235.318 -96.4909 232.95Q-102.209 230.581 -107.805 227.934Q-113.4 225.288 -118.859 222.37Q-124.318 219.452 -129.627 216.27Q-134.936 213.088 -140.083 209.649Q-145.23 206.21 -150.201 202.523Q-155.173 198.836 -159.958 194.909Q-164.742 190.982 -169.329 186.826Q-173.915 182.669 -178.292 178.292Q-182.669 173.915 -186.826 169.329Q-190.982 164.742 -194.909 159.958Q-198.836 155.173 -202.523 150.201Q-206.21 145.23 -209.649 140.083Q-213.088 134.936 -216.27 129.627Q-219.452 124.318 -222.37 118.859Q-225.288 113.4 -227.934 107.805Q-230.581 102.209 -232.95 96.4909Q-235.318 90.7723 -237.404 84.9444Q-239.489 79.1164 -241.286 73.1932Q-243.082 67.27 -244.586 61.2657Q-246.09 55.2615 -247.298 49.1906Q-248.506 43.1198 -249.414 36.997Q-250.322 30.8743 -250.929 24.7143Q-251.535 18.5544 -251.839 12.3721Q-252.143 6.18976 -252.143 0Q-252.143 -6.18976 -251.839 -12.3721Q-251.535 -18.5544 -250.929 -24.7143Q-250.322 -30.8743 -249.414 -36.997Q-248.506 -43.1198 -247.298 -49.1906Q-246.09 -55.2615 -244.586 -61.2657Q-243.082 -67.27 -241.286 -73.1932Q-239.489 -79.1164 -237.404 -84.9444Q-235.318 -90.7723 -232.95 -96.4909Q-230.581 -102.209 -227.934 -107.805Q-225.288 -113.4 -222.37 -118.859Q-219.452 -124.318 -216.27 -129.627Q-213.088 -134.936 -209.649 -140.083Q-206.21 -145.23 -202.523 -150.201Q-198.836 -155.173 -194.909 -159.958Q-190.982 -164.742 -186.826 -169.329Q-182.669 -173.915 -178.292 -178.292Q-173.915 -182.669 -169.329 -186.826Q-164.742 -190.982 -159.958 -194.909Q-155.173 -198.836 -150.201 -202.523Q-145.23 -206.21 -140.083 -209.649Q-134.936 -213.088 -129.627 -216.27Q-124.318 -219.452 -118.859 -222.37Q-113.4 -225.288 -107.805 -227.934Q-102.209 -230.581 -96.4909 -232.95Q-90.7723 -235.318 -84.9444 -237.404Q-79.1164 -239.489 -73.1932 -241.286Q-67.27 -243.082 -61.2657 -244.586Q-55.2615 -246.09 -49.1906 -247.298Q-43.1198 -248.506 -36.997 -249.414Q-30.8743 -250.322 -24.7143 -250.929Q-18.5544 -251.535 -12.3721 -251.839Q-6.18976 -252.143 0 -252.143Q6.18976 -252.143 12.3721 -251.839Q18.5544 -251.535 24.7143 -250.929Q30.8743 -250.322 36.997 -249.414Q43.1198 -248.506 49.1906 -247.298Q55.2615 -246.09 61.2657 -244.586Q67.27 -243.082 73.1932 -241.286Q79.1164 -239.489 84.9444 -237.404Q90.7723 -235.318 96.4909 -232.95Q102.209 -230.581 107.805 -227.934Q113.4 -225.288 118.859 -222.37Q124.318 -219.452 129.627 -216.27Q134.936 -213.088 140.083 -209.649Q145.23 -206.21 150.201 -202.523Q155.173 -198.836 159.958 -194.909Q164.742 -190.982 169.329 -186.826Q173.915 -182.669 178.292 -178.292Q182.669 -173.915 186.826 -169.329Q190.982 -164.742 194.909 -159.958Q198.836 -155.173 202.523 -150.201Q206.21 -145.23 209.649 -140.083Q213.088 -134.936 216.27 -129.627Q219.452 -124.318 222.37 -118.859Q225.288 -113.4 227.934 -107.805Q230.581 -102.209 232.95 -96.4909Q235.318 -90.7723 237.404 -84.9444Q239.489 -79.1164 241.286 -73.1932Q243.082 -67.27 244.586 -61.2657Q246.09 -55.2615 247.298 -49.1906Q248.506 -43.1198 249.414 -36.997Q250.322 -30.8743 250.929 -24.7143Q251.535 -18.5544 251.839 -12.3721Q252.143 -6.18976 252.143 0"/>
	<path fill="#7C7C7C" transform="matrix(0.082917 0.00831945 -0.00831945 0.082917 55 47.8571)" d="M250.255 30.7999Q252.143 15.4578 252.143 0Q252.143 -11.6211 251.074 -23.193Q250.005 -34.7648 247.876 -46.1893Q244.291 -46.8582 240.645 -46.8582Q239.677 -46.8582 238.71 -46.8107Q237.744 -46.7632 236.781 -46.6684Q235.817 -46.5735 234.86 -46.4315Q233.903 -46.2895 232.954 -46.1007Q232.004 -45.9119 231.066 -45.6767Q230.127 -45.4416 229.201 -45.1606Q228.275 -44.8797 227.363 -44.5536Q226.452 -44.2276 225.558 -43.8572Q224.664 -43.4869 223.789 -43.0731Q222.914 -42.6593 222.061 -42.2031Q221.207 -41.7469 220.377 -41.2493Q219.547 -40.7518 218.742 -40.2141Q217.937 -39.6764 217.16 -39.0999Q216.383 -38.5234 215.635 -37.9094Q214.887 -37.2955 214.169 -36.6455Q213.452 -35.9956 212.768 -35.3113Q212.084 -34.6269 211.434 -33.9099Q210.784 -33.1928 210.17 -32.4446Q209.556 -31.6965 208.979 -30.9192Q208.403 -30.1419 207.865 -29.3372Q207.328 -28.5325 206.83 -27.7024Q206.332 -26.8723 205.876 -26.0187Q205.42 -25.1652 205.006 -24.2903Q204.592 -23.4155 204.222 -22.5213Q203.852 -21.6272 203.526 -20.716Q203.2 -19.8048 202.919 -18.8786Q202.638 -17.9525 202.403 -17.0137Q202.167 -16.0749 201.979 -15.1257Q201.79 -14.1765 201.648 -13.2192Q201.506 -12.2619 201.411 -11.2988Q201.316 -10.3356 201.269 -9.369Q201.221 -8.40237 201.221 -7.43457Q201.221 -6.46678 201.269 -5.50015Q201.316 -4.53352 201.411 -3.57038Q201.506 -2.60725 201.648 -1.64993Q201.79 -0.692607 201.979 0.256592Q202.167 1.20579 202.403 2.14458Q202.638 3.08338 202.919 4.0095Q203.2 4.93562 203.526 5.84684Q203.852 6.75806 204.222 7.65219Q204.592 8.54632 205.006 9.4212Q205.42 10.2961 205.876 11.1496Q206.332 12.0031 206.83 12.8332Q207.328 13.6633 207.865 14.468Q208.403 15.2727 208.979 16.05Q209.556 16.8274 210.17 17.5755Q210.784 18.3236 211.434 19.0407Q212.084 19.7578 212.768 20.4421Q213.452 21.1265 214.169 21.7764Q214.887 22.4263 215.635 23.0403Q216.383 23.6543 217.16 24.2308Q217.937 24.8073 218.742 25.345Q219.547 25.8826 220.377 26.3802Q221.207 26.8777 222.061 27.334Q222.914 27.7902 223.789 28.204Q224.664 28.6177 225.558 28.9881Q226.452 29.3585 227.363 29.6845Q228.275 30.0105 229.201 30.2915Q230.127 30.5724 231.066 30.8076Q232.004 31.0427 232.954 31.2315Q233.903 31.4203 234.86 31.5623Q235.817 31.7043 236.781 31.7992Q237.744 31.8941 238.71 31.9416Q239.677 31.989 240.645 31.989Q243.075 31.989 245.486 31.6906Q247.898 31.3922 250.255 30.7999ZM196.048 158.559Q195.268 157.657 194.464 156.777Q193.66 155.896 192.832 155.038Q192.005 154.179 191.154 153.343Q190.304 152.507 189.432 151.694Q188.559 150.881 187.665 150.091Q186.772 149.302 185.857 148.537Q184.942 147.771 184.008 147.031Q183.073 146.291 182.118 145.575Q181.164 144.86 180.191 144.171Q179.218 143.482 178.227 142.819Q177.235 142.156 176.227 141.52Q175.218 140.884 174.193 140.275Q173.167 139.666 172.126 139.085Q171.085 138.503 170.028 137.95Q168.972 137.397 167.901 136.872Q166.83 136.348 165.745 135.852Q164.661 135.356 163.563 134.89Q162.466 134.423 161.356 133.986Q160.247 133.55 159.126 133.143Q158.005 132.735 156.873 132.359Q155.742 131.982 154.601 131.635Q153.46 131.289 152.31 130.973Q151.16 130.657 150.002 130.373Q148.844 130.088 147.679 129.834Q146.513 129.581 145.342 129.358Q144.17 129.136 142.993 128.945Q141.816 128.754 140.634 128.595Q139.452 128.435 138.267 128.308Q137.081 128.18 135.892 128.085Q134.704 127.989 133.513 127.925Q132.322 127.861 131.13 127.829Q129.938 127.797 128.745 127.797Q126.675 127.797 124.607 127.893Q122.539 127.99 120.477 128.182Q118.416 128.374 116.365 128.662Q114.315 128.95 112.28 129.333Q110.246 129.716 108.231 130.194Q106.216 130.671 104.226 131.241Q102.236 131.811 100.274 132.474Q98.3123 133.136 96.3835 133.889Q94.4548 134.642 92.5632 135.483Q90.6715 136.325 88.8211 137.254Q86.9706 138.182 85.1653 139.196Q83.3601 140.21 81.6039 141.306Q79.8477 142.403 78.1444 143.58Q76.4411 144.757 74.7944 146.012Q73.1477 147.267 71.5611 148.597Q69.9745 149.928 68.4515 151.33Q67.1897 151.709 65.9399 152.126Q64.6901 152.543 63.4534 152.997Q62.2167 153.451 60.9943 153.942Q59.7718 154.434 58.5648 154.962Q57.3577 155.49 56.1671 156.054Q54.9765 156.618 53.8034 157.218Q52.6303 157.817 51.4759 158.452Q50.3214 159.087 49.1866 159.756Q48.0518 160.425 46.9377 161.129Q45.8236 161.832 44.7311 162.568Q43.6387 163.305 42.569 164.074Q41.4993 164.843 40.4532 165.644Q39.4072 166.445 38.3857 167.277Q37.3643 168.109 36.3684 168.972Q35.3725 169.834 34.4031 170.726Q33.4336 171.618 32.4915 172.539Q31.5494 173.46 30.6354 174.409Q29.7215 175.358 28.8366 176.334Q27.9517 177.31 27.0966 178.312Q26.2415 179.315 25.417 180.342Q24.5925 181.37 23.7993 182.422Q23.0062 183.474 22.2451 184.549Q21.484 185.625 20.7557 186.723Q20.0273 187.82 19.3324 188.94Q18.6375 190.059 17.9767 191.199Q17.3158 192.339 16.6896 193.498Q16.0634 194.657 15.4724 195.834Q14.8814 197.012 14.3262 198.207Q13.771 199.401 13.252 200.612Q12.7331 201.823 12.2508 203.049Q11.7686 204.275 11.3235 205.515Q10.8785 206.755 10.471 208.008Q8.40377 202.206 5.49389 196.776Q6.08737 196.461 6.66984 196.126Q7.25232 195.791 7.82312 195.436Q8.39393 195.081 8.95242 194.708Q9.5109 194.334 10.0564 193.942Q10.602 193.549 11.1339 193.139Q11.6658 192.728 12.1836 192.3Q12.7013 191.871 13.2043 191.425Q13.7073 190.98 14.1949 190.517Q14.6825 190.055 15.1541 189.576Q15.6258 189.098 16.081 188.603Q16.5363 188.109 16.9745 187.6Q17.4128 187.09 17.8335 186.566Q18.2543 186.042 18.6571 185.504Q19.0599 184.966 19.4443 184.415Q19.8286 183.864 20.1941 183.3Q20.5597 182.736 20.9059 182.16Q21.2521 181.584 21.5787 180.997Q21.9052 180.41 22.2117 179.812Q22.5182 179.214 22.8043 178.606Q23.0904 177.997 23.3558 177.38Q23.6211 176.763 23.8655 176.137Q24.1098 175.511 24.3328 174.877Q24.5559 174.243 24.7573 173.602Q24.9588 172.961 25.1384 172.313Q25.3181 171.666 25.4757 171.012Q25.6334 170.359 25.7688 169.701Q25.9043 169.043 26.0174 168.38Q26.1306 167.718 26.2212 167.052Q26.3119 166.386 26.3799 165.718Q26.448 165.049 26.4935 164.379Q26.5389 163.708 26.5616 163.037Q26.5843 162.365 26.5843 161.693Q26.5843 160.718 26.5365 159.744Q26.4886 158.77 26.3931 157.799Q26.2975 156.829 26.1544 155.864Q26.0113 154.899 25.821 153.943Q25.6308 152.986 25.3938 152.04Q25.1569 151.095 24.8738 150.161Q24.5907 149.228 24.2622 148.31Q23.9336 147.392 23.5604 146.491Q23.1873 145.59 22.7703 144.708Q22.3534 143.827 21.8937 142.967Q21.4339 142.107 20.9326 141.27Q20.4312 140.434 19.8895 139.623Q19.3477 138.812 18.7667 138.029Q18.1858 137.245 17.5672 136.492Q16.9485 135.738 16.2936 135.015Q15.6387 134.293 14.9491 133.603Q14.2595 132.913 13.537 132.259Q12.8144 131.604 12.0606 130.985Q11.3067 130.366 10.5234 129.785Q9.74015 129.204 8.9293 128.663Q8.11846 128.121 7.282 127.62Q6.44555 127.118 5.5855 126.658Q4.72545 126.199 3.84388 125.782Q2.96232 125.365 2.06135 124.992Q1.16039 124.618 0.242193 124.29Q-0.675998 123.961 -1.6092 123.678Q-2.54241 123.395 -3.48838 123.158Q-4.43436 122.921 -5.39081 122.731Q-6.34727 122.541 -7.31192 122.398Q-8.27656 122.255 -9.24706 122.159Q-10.2176 122.063 -11.1916 122.016Q-12.1656 121.968 -13.1408 121.968Q-14.0072 121.968 -14.8727 122.006Q-15.7382 122.043 -16.6012 122.119Q-17.4643 122.194 -18.3232 122.307Q-19.1822 122.42 -20.0354 122.571Q-20.8886 122.721 -21.7344 122.908Q-22.5802 123.096 -23.4171 123.32Q-24.254 123.544 -25.0802 123.804Q-25.9065 124.065 -26.7207 124.361Q-27.5348 124.657 -28.3353 124.989Q-29.1358 125.32 -29.921 125.686Q-30.7063 126.052 -31.4749 126.452Q-32.2434 126.851 -32.9938 127.284Q-33.7442 127.717 -34.475 128.183Q-35.2058 128.648 -35.9157 129.145Q-36.6255 129.641 -37.313 130.168Q-38.0005 130.696 -38.6644 131.252Q-39.3282 131.809 -39.9672 132.394Q-40.6062 132.979 -41.219 133.591Q-41.8319 134.204 -42.4174 134.842Q-43.003 135.481 -43.5602 136.144Q-44.1174 136.807 -44.6451 137.494Q-45.1728 138.182 -45.6701 138.891Q-46.1674 139.6 -46.6333 140.331Q-47.0992 141.061 -47.5327 141.811Q-47.9663 142.561 -48.3668 143.329Q-48.7673 144.098 -49.1339 144.883Q-49.5005 145.668 -49.8325 146.468Q-50.1646 147.268 -50.4614 148.082Q-50.7582 148.896 -51.0193 149.722Q-51.2804 150.548 -51.5052 151.385Q-51.73 152.221 -51.9181 153.067Q-52.1062 153.913 -52.2573 154.766Q-59.5084 153.454 -66.8772 153.454Q-68.4379 153.454 -69.9974 153.513Q-71.5569 153.572 -73.1131 153.691Q-74.6692 153.809 -76.2197 153.987Q-77.7702 154.164 -79.3129 154.401Q-80.8555 154.637 -82.3881 154.932Q-83.9206 155.227 -85.4408 155.58Q-86.9611 155.932 -88.4668 156.343Q-89.9725 156.753 -91.4616 157.22Q-92.9506 157.688 -94.4209 158.211Q-95.8911 158.735 -97.3404 159.314Q-98.7896 159.893 -100.216 160.526Q-101.642 161.16 -103.043 161.847Q-104.444 162.535 -105.818 163.275Q-107.192 164.015 -108.537 164.807Q-109.882 165.599 -111.196 166.441Q-112.51 167.284 -113.79 168.175Q-115.071 169.067 -116.317 170.007Q-117.563 170.946 -118.773 171.933Q-119.982 172.919 -121.153 173.951Q-122.324 174.982 -123.455 176.058Q-124.586 177.133 -125.676 178.25Q-126.765 179.368 -127.811 180.526Q-128.857 181.684 -129.858 182.881Q-130.86 184.079 -131.815 185.313Q-132.77 186.547 -133.677 187.817Q-134.585 189.086 -135.444 190.39Q-136.302 191.693 -137.111 193.028Q-137.919 194.363 -138.676 195.727Q-139.433 197.092 -140.138 198.484Q-140.843 199.877 -141.494 201.295Q-142.146 202.713 -142.743 204.155Q-143.34 205.597 -143.881 207.061Q-141.917 208.426 -139.926 209.754Q-137.936 211.082 -135.921 212.371Q-133.905 213.661 -131.866 214.912Q-129.827 216.164 -127.764 217.376Q-125.701 218.588 -123.616 219.761Q-121.531 220.934 -119.424 222.068Q-117.316 223.201 -115.188 224.294Q-113.06 225.387 -110.911 226.439Q-108.762 227.492 -106.594 228.503Q-104.426 229.515 -102.239 230.485Q-100.052 231.455 -97.8467 232.383Q-95.6416 233.312 -93.4193 234.198Q-91.197 235.085 -88.9582 235.929Q-86.7195 236.773 -84.4652 237.575Q-82.2108 238.376 -79.9417 239.135Q-77.6725 239.893 -75.3894 240.609Q-73.1062 241.324 -70.8099 241.996Q-68.5136 242.668 -66.205 243.296Q-63.8964 243.924 -61.5762 244.508Q-59.2561 245.093 -56.9253 245.633Q-54.5945 246.173 -52.2538 246.669Q-49.9132 247.165 -47.5635 247.616Q-45.2139 248.067 -42.8561 248.474Q-40.4984 248.881 -38.1333 249.243Q-35.7682 249.604 -33.3967 249.921Q-31.0252 250.238 -28.6482 250.51Q-26.2711 250.782 -23.8892 251.009Q-21.5074 251.235 -19.1217 251.417Q-16.736 251.598 -14.3473 251.734Q-11.9586 251.87 -9.56775 251.961Q-7.17689 252.052 -4.78474 252.097Q-2.39258 252.143 0 252.143Q3.50945 252.143 7.01755 252.045Q10.5256 251.948 14.0297 251.752Q17.5337 251.557 21.0309 251.264Q24.5281 250.972 28.0158 250.582Q31.5036 250.192 34.9791 249.705Q38.4546 249.218 41.9152 248.635Q45.3759 248.051 48.8189 247.372Q52.2619 246.692 55.6847 245.917Q59.1075 245.142 62.5074 244.272Q65.9073 243.402 69.2817 242.438Q72.6561 241.473 76.0023 240.416Q79.3486 239.358 82.664 238.207Q85.9795 237.057 89.2617 235.814Q92.5439 234.572 95.7902 233.239Q99.0366 231.905 102.245 230.482Q105.452 229.059 108.62 227.547Q111.787 226.036 114.911 224.436Q118.034 222.837 121.112 221.151Q124.191 219.465 127.221 217.695Q130.251 215.924 133.23 214.07Q136.21 212.215 139.136 210.279Q142.063 208.342 144.935 206.325Q147.807 204.307 150.621 202.211Q153.436 200.115 156.191 197.941Q158.946 195.767 161.639 193.517Q164.333 191.267 166.962 188.943Q169.592 186.619 172.156 184.223Q174.72 181.827 177.217 179.361Q179.713 176.894 182.14 174.359Q184.567 171.824 186.922 169.222Q189.278 166.62 191.56 163.954Q193.842 161.288 196.048 158.559ZM-169.09 -187.041Q-163.217 -192.351 -157.023 -197.281Q-150.828 -202.212 -144.336 -206.744Q-137.844 -211.276 -131.081 -215.392Q-124.318 -219.508 -117.31 -223.192Q-116.725 -222.63 -116.169 -222.04Q-115.613 -221.449 -115.087 -220.832Q-114.562 -220.214 -114.068 -219.571Q-113.575 -218.928 -113.114 -218.261Q-112.653 -217.594 -112.227 -216.904Q-111.8 -216.215 -111.409 -215.504Q-111.017 -214.794 -110.662 -214.065Q-110.307 -213.336 -109.989 -212.59Q-109.672 -211.845 -109.392 -211.084Q-109.112 -210.323 -108.87 -209.549Q-108.629 -208.774 -108.427 -207.989Q-108.225 -207.204 -108.063 -206.41Q-107.901 -205.615 -107.779 -204.814Q-107.657 -204.012 -107.575 -203.205Q-107.493 -202.398 -107.453 -201.589Q-107.412 -200.779 -107.412 -199.968Q-107.412 -199.178 -107.451 -198.388Q-107.489 -197.599 -107.567 -196.813Q-107.644 -196.026 -107.76 -195.244Q-107.876 -194.462 -108.03 -193.687Q-108.185 -192.912 -108.377 -192.146Q-108.569 -191.379 -108.798 -190.623Q-109.027 -189.866 -109.294 -189.122Q-109.56 -188.378 -109.862 -187.648Q-110.165 -186.918 -110.503 -186.203Q-110.841 -185.489 -111.213 -184.792Q-111.586 -184.095 -111.992 -183.417Q-112.398 -182.739 -112.837 -182.082Q-113.277 -181.425 -113.747 -180.79Q-114.218 -180.155 -114.72 -179.544Q-115.221 -178.934 -115.752 -178.348Q-116.282 -177.762 -116.841 -177.204Q-117.4 -176.645 -117.986 -176.114Q-118.571 -175.583 -119.182 -175.082Q-119.793 -174.58 -120.428 -174.11Q-121.063 -173.639 -121.72 -173.2Q-122.377 -172.761 -123.055 -172.354Q-123.733 -171.948 -124.43 -171.576Q-125.127 -171.203 -125.841 -170.865Q-126.555 -170.527 -127.286 -170.225Q-128.016 -169.922 -128.76 -169.656Q-129.504 -169.39 -130.26 -169.16Q-131.017 -168.931 -131.783 -168.739Q-132.55 -168.547 -133.325 -168.393Q-134.1 -168.239 -134.882 -168.123Q-135.664 -168.007 -136.45 -167.929Q-137.237 -167.852 -138.026 -167.813Q-138.815 -167.774 -139.606 -167.774Q-140.188 -167.774 -140.77 -167.795Q-141.352 -167.816 -141.933 -167.858Q-142.514 -167.901 -143.093 -167.964Q-143.672 -168.027 -144.248 -168.111Q-144.824 -168.195 -145.397 -168.299Q-145.97 -168.404 -146.539 -168.53Q-147.107 -168.655 -147.671 -168.801Q-148.235 -168.947 -148.793 -169.113Q-149.351 -169.279 -149.903 -169.465Q-150.455 -169.652 -151 -169.858Q-151.544 -170.064 -152.081 -170.29Q-152.618 -170.515 -153.146 -170.76Q-153.675 -171.005 -154.194 -171.269Q-154.713 -171.533 -155.222 -171.816Q-155.732 -172.098 -156.23 -172.399Q-156.729 -172.699 -157.217 -173.018Q-157.704 -173.337 -158.18 -173.673Q-158.655 -174.009 -159.119 -174.362Q-159.582 -174.715 -160.032 -175.084Q-160.482 -175.454 -160.919 -175.839Q-161.355 -176.225 -161.777 -176.626Q-162.2 -177.027 -162.607 -177.443Q-163.015 -177.859 -163.407 -178.29Q-163.799 -178.72 -164.175 -179.165Q-164.552 -179.609 -164.912 -180.067Q-165.272 -180.525 -165.615 -180.995Q-165.958 -181.466 -166.284 -181.948Q-166.61 -182.431 -166.918 -182.925Q-167.227 -183.419 -167.517 -183.924Q-167.807 -184.429 -168.079 -184.944Q-168.351 -185.459 -168.604 -185.983Q-168.857 -186.508 -169.09 -187.041ZM-231.674 -99.5144Q-229.536 -104.491 -227.187 -109.372Q-224.837 -114.252 -222.28 -119.027Q-219.723 -123.802 -216.964 -128.463Q-214.204 -133.124 -211.247 -137.662Q-208.29 -142.2 -205.14 -146.606Q-201.991 -151.013 -198.655 -155.281Q-195.32 -159.548 -191.804 -163.669Q-188.288 -167.789 -184.598 -171.754Q-183.625 -171.556 -182.662 -171.317Q-181.698 -171.078 -180.746 -170.797Q-179.794 -170.517 -178.854 -170.196Q-177.915 -169.875 -176.99 -169.514Q-176.065 -169.154 -175.156 -168.754Q-174.248 -168.354 -173.357 -167.915Q-172.466 -167.476 -171.595 -167Q-170.724 -166.524 -169.874 -166.011Q-169.025 -165.497 -168.197 -164.948Q-167.37 -164.399 -166.568 -163.815Q-165.765 -163.232 -164.988 -162.614Q-164.21 -161.996 -163.46 -161.345Q-162.71 -160.695 -161.989 -160.013Q-161.268 -159.331 -160.576 -158.619Q-159.884 -157.907 -159.224 -157.165Q-158.563 -156.424 -157.935 -155.655Q-157.307 -154.887 -156.712 -154.092Q-156.118 -153.297 -155.558 -152.477Q-154.998 -151.657 -154.473 -150.814Q-153.949 -149.971 -153.461 -149.107Q-152.973 -148.242 -152.522 -147.358Q-152.072 -146.473 -151.66 -145.57Q-151.247 -144.667 -150.874 -143.747Q-150.501 -142.827 -150.168 -141.892Q-149.834 -140.957 -149.541 -140.008Q-149.248 -139.059 -148.996 -138.099Q-148.744 -137.139 -148.533 -136.169Q-148.322 -135.199 -148.153 -134.221Q-147.983 -133.242 -147.856 -132.258Q-147.729 -131.273 -147.644 -130.284Q-147.559 -129.295 -147.517 -128.303Q-147.474 -127.311 -147.474 -126.319Q-147.474 -125.18 -147.53 -124.043Q-147.586 -122.907 -147.697 -121.774Q-147.809 -120.641 -147.976 -119.515Q-148.143 -118.389 -148.365 -117.273Q-148.587 -116.157 -148.864 -115.052Q-149.14 -113.948 -149.471 -112.859Q-149.801 -111.77 -150.185 -110.698Q-150.568 -109.626 -151.004 -108.575Q-151.439 -107.523 -151.926 -106.494Q-152.413 -105.465 -152.949 -104.462Q-153.486 -103.458 -154.071 -102.481Q-154.656 -101.505 -155.288 -100.559Q-155.921 -99.6123 -156.599 -98.6981Q-157.277 -97.7839 -157.999 -96.904Q-158.721 -96.0241 -159.485 -95.1808Q-160.25 -94.3374 -161.055 -93.5325Q-161.859 -92.7277 -162.703 -91.9633Q-163.546 -91.1989 -164.426 -90.4768Q-165.306 -89.7547 -166.22 -89.0767Q-167.134 -88.3987 -168.081 -87.7663Q-169.027 -87.1339 -170.003 -86.5488Q-170.98 -85.9636 -171.984 -85.427Q-172.987 -84.8905 -174.016 -84.4038Q-175.045 -83.9172 -176.097 -83.4816Q-177.148 -83.046 -178.22 -82.6625Q-179.292 -82.2791 -180.381 -81.9487Q-181.47 -81.6183 -182.574 -81.3417Q-183.679 -81.0651 -184.795 -80.8431Q-185.911 -80.621 -187.037 -80.454Q-188.163 -80.287 -189.296 -80.1754Q-190.429 -80.0638 -191.565 -80.008Q-192.702 -79.9521 -193.841 -79.9521Q-194.532 -79.9521 -195.223 -79.9728Q-195.914 -79.9934 -196.605 -80.0346Q-197.295 -80.0758 -197.984 -80.1376Q-198.672 -80.1994 -199.359 -80.2817Q-200.046 -80.364 -200.729 -80.4668Q-201.413 -80.5695 -202.094 -80.6926Q-202.774 -80.8157 -203.451 -80.959Q-204.127 -81.1023 -204.799 -81.2657Q-205.471 -81.4292 -206.138 -81.6125Q-206.804 -81.7959 -207.465 -81.9991Q-208.126 -82.2023 -208.781 -82.4251Q-209.435 -82.648 -210.083 -82.8902Q-210.731 -83.1324 -211.371 -83.3939Q-212.011 -83.6553 -212.643 -83.9357Q-213.275 -84.2162 -213.899 -84.5153Q-214.522 -84.8145 -215.136 -85.132Q-215.751 -85.4496 -216.355 -85.7854Q-216.96 -86.1212 -217.554 -86.4749Q-218.148 -86.8285 -218.732 -87.1997Q-219.315 -87.5709 -219.887 -87.9594Q-220.459 -88.3478 -221.019 -88.7532Q-221.58 -89.1585 -222.127 -89.5804Q-222.675 -90.0022 -223.21 -90.4403Q-223.746 -90.8783 -224.267 -91.332Q-224.789 -91.7858 -225.297 -92.2549Q-225.805 -92.7241 -226.299 -93.2082Q-226.793 -93.6922 -227.272 -94.1908Q-227.751 -94.6894 -228.215 -95.2021Q-228.679 -95.7147 -229.128 -96.241Q-229.576 -96.7672 -230.009 -97.3066Q-230.442 -97.846 -230.858 -98.3981Q-231.274 -98.9502 -231.674 -99.5144ZM-5.86545 -28.502Q-5.86545 -26.8913 -5.94448 -25.2826Q-6.02351 -23.6739 -6.18138 -22.071Q-6.33925 -20.4682 -6.57558 -18.875Q-6.81191 -17.2818 -7.12613 -15.7021Q-7.44035 -14.1224 -7.8317 -12.56Q-8.22305 -10.9976 -8.6906 -9.45635Q-9.15814 -7.91507 -9.70075 -6.39858Q-10.2434 -4.88209 -10.8597 -3.39406Q-11.4761 -1.90602 -12.1647 -0.450024Q-12.8534 1.00597 -13.6126 2.42643Q-14.3719 3.84689 -15.1999 5.22838Q-16.0279 6.60987 -16.9227 7.94906Q-17.8176 9.28826 -18.777 10.5819Q-19.7365 11.8756 -20.7583 13.1207Q-21.78 14.3657 -22.8617 15.5591Q-23.9433 16.7525 -25.0822 17.8914Q-26.2211 19.0303 -27.4145 20.1119Q-28.6079 21.1936 -29.8529 22.2153Q-31.098 23.2371 -32.3917 24.1966Q-33.6853 25.156 -35.0245 26.0508Q-36.3637 26.9457 -37.7452 27.7737Q-39.1267 28.6017 -40.5472 29.361Q-41.9676 30.1202 -43.4236 30.8089Q-44.8796 31.4975 -46.3676 32.1139Q-47.8557 32.7302 -49.3722 33.2728Q-50.8887 33.8155 -52.4299 34.283Q-53.9712 34.7505 -55.5336 35.1419Q-57.096 35.5332 -58.6757 35.8475Q-60.2553 36.1617 -61.8485 36.398Q-63.4418 36.6343 -65.0446 36.7922Q-66.6475 36.9501 -68.2562 37.0291Q-69.8649 37.1081 -71.4756 37.1081Q-73.0862 37.1081 -74.6949 37.0291Q-76.3036 36.9501 -77.9065 36.7922Q-79.5094 36.6343 -81.1026 36.398Q-82.6958 36.1617 -84.2754 35.8475Q-85.8551 35.5332 -87.4175 35.1419Q-88.9799 34.7505 -90.5212 34.283Q-92.0624 33.8155 -93.5789 33.2728Q-95.0954 32.7302 -96.5834 32.1139Q-98.0715 31.4975 -99.5275 30.8089Q-100.983 30.1202 -102.404 29.361Q-103.824 28.6017 -105.206 27.7737Q-106.587 26.9457 -107.927 26.0508Q-109.266 25.156 -110.559 24.1966Q-111.853 23.2371 -113.098 22.2153Q-114.343 21.1936 -115.537 20.1119Q-116.73 19.0303 -117.869 17.8914Q-119.008 16.7525 -120.089 15.5591Q-121.171 14.3657 -122.193 13.1207Q-123.215 11.8756 -124.174 10.5819Q-125.134 9.28826 -126.028 7.94906Q-126.923 6.60987 -127.751 5.22838Q-128.579 3.84689 -129.339 2.42643Q-130.098 1.00597 -130.786 -0.450024Q-131.475 -1.90602 -132.091 -3.39406Q-132.708 -4.88209 -133.25 -6.39858Q-133.793 -7.91507 -134.261 -9.45635Q-134.728 -10.9976 -135.119 -12.56Q-135.511 -14.1224 -135.825 -15.7021Q-136.139 -17.2818 -136.376 -18.875Q-136.612 -20.4682 -136.77 -22.071Q-136.928 -23.6739 -137.007 -25.2826Q-137.086 -26.8913 -137.086 -28.502Q-137.086 -30.1126 -137.007 -31.7213Q-136.928 -33.33 -136.77 -34.9329Q-136.612 -36.5358 -136.376 -38.129Q-136.139 -39.7222 -135.825 -41.3019Q-135.511 -42.8815 -135.119 -44.4439Q-134.728 -46.0063 -134.261 -47.5476Q-133.793 -49.0888 -133.25 -50.6053Q-132.708 -52.1218 -132.091 -53.6099Q-131.475 -55.0979 -130.786 -56.5539Q-130.098 -58.0099 -129.339 -59.4303Q-128.579 -60.8508 -127.751 -62.2323Q-126.923 -63.6138 -126.028 -64.953Q-125.134 -66.2922 -124.174 -67.5858Q-123.215 -68.8795 -122.193 -70.1246Q-121.171 -71.3696 -120.089 -72.563Q-119.008 -73.7564 -117.869 -74.8953Q-116.73 -76.0342 -115.537 -77.1158Q-114.343 -78.1975 -113.098 -79.2193Q-111.853 -80.241 -110.559 -81.2005Q-109.266 -82.1599 -107.927 -83.0548Q-106.587 -83.9496 -105.206 -84.7776Q-103.824 -85.6057 -102.404 -86.3649Q-100.983 -87.1241 -99.5275 -87.8128Q-98.0715 -88.5014 -96.5834 -89.1178Q-95.0954 -89.7341 -93.5789 -90.2768Q-92.0624 -90.8194 -90.5212 -91.2869Q-88.9799 -91.7545 -87.4175 -92.1458Q-85.8551 -92.5372 -84.2754 -92.8514Q-82.6958 -93.1656 -81.1026 -93.4019Q-79.5094 -93.6383 -77.9065 -93.7961Q-76.3036 -93.954 -74.6949 -94.033Q-73.0862 -94.1121 -71.4756 -94.1121Q-69.8649 -94.1121 -68.2562 -94.033Q-66.6475 -93.954 -65.0446 -93.7961Q-63.4418 -93.6383 -61.8486 -93.4019Q-60.2553 -93.1656 -58.6757 -92.8514Q-57.096 -92.5372 -55.5336 -92.1458Q-53.9712 -91.7545 -52.4299 -91.2869Q-50.8887 -90.8194 -49.3722 -90.2768Q-47.8557 -89.7341 -46.3676 -89.1178Q-44.8796 -88.5014 -43.4236 -87.8128Q-41.9676 -87.1241 -40.5472 -86.3649Q-39.1267 -85.6057 -37.7452 -84.7776Q-36.3637 -83.9496 -35.0245 -83.0548Q-33.6853 -82.1599 -32.3917 -81.2005Q-31.098 -80.241 -29.8529 -79.2193Q-28.6079 -78.1975 -27.4145 -77.1158Q-26.2211 -76.0342 -25.0822 -74.8953Q-23.9433 -73.7564 -22.8617 -72.563Q-21.78 -71.3696 -20.7583 -70.1246Q-19.7365 -68.8795 -18.777 -67.5859Q-17.8176 -66.2922 -16.9227 -64.953Q-16.0279 -63.6138 -15.1999 -62.2323Q-14.3719 -60.8508 -13.6126 -59.4303Q-12.8534 -58.0099 -12.1647 -56.5539Q-11.4761 -55.0979 -10.8597 -53.6099Q-10.2434 -52.1218 -9.70075 -50.6053Q-9.15814 -49.0888 -8.6906 -47.5476Q-8.22305 -46.0063 -7.8317 -44.4439Q-7.44035 -42.8815 -7.12613 -41.3019Q-6.81191 -39.7222 -6.57558 -38.129Q-6.33925 -36.5358 -6.18138 -34.9329Q-6.02351 -33.33 -5.94448 -31.7213Q-5.86545 -30.1126 -5.86545 -28.502Z" fill-rule="evenodd"/>
	<path fill="#999" transform="matrix(0.082917 0.00831945 -0.00831945 0.082917 55 47.8571)" d="M250.628 27.5941Q252.143 13.8386 252.143 0Q252.143 -10.8126 251.217 -21.5856Q250.292 -32.3586 248.447 -43.0127Q244.592 -43.8582 240.645 -43.8582Q239.751 -43.8582 238.858 -43.8143Q237.964 -43.7704 237.075 -43.6828Q236.185 -43.5952 235.3 -43.464Q234.416 -43.3328 233.539 -43.1583Q232.662 -42.9839 231.795 -42.7666Q230.927 -42.5494 230.072 -42.2898Q229.216 -42.0302 228.374 -41.729Q227.532 -41.4278 226.706 -41.0856Q225.88 -40.7434 225.072 -40.3611Q224.263 -39.9788 223.475 -39.5573Q222.686 -39.1358 221.919 -38.6762Q221.152 -38.2165 220.409 -37.7197Q219.665 -37.2229 218.947 -36.6903Q218.229 -36.1576 217.538 -35.5904Q216.847 -35.0232 216.184 -34.4227Q215.522 -33.8222 214.889 -33.19Q214.257 -32.5577 213.657 -31.8952Q213.056 -31.2327 212.489 -30.5415Q211.922 -29.8503 211.389 -29.1321Q210.856 -28.4139 210.36 -27.6705Q209.863 -26.927 209.403 -26.1601Q208.943 -25.3931 208.522 -24.6045Q208.1 -23.816 207.718 -23.0077Q207.336 -22.1994 206.994 -21.3733Q206.652 -20.5472 206.35 -19.7053Q206.049 -18.8634 205.79 -18.0078Q205.53 -17.1521 205.313 -16.2848Q205.095 -15.4174 204.921 -14.5405Q204.747 -13.6635 204.615 -12.779Q204.484 -11.8946 204.397 -11.0047Q204.309 -10.1149 204.265 -9.2218Q204.221 -8.32872 204.221 -7.43457Q204.221 -6.54042 204.265 -5.64735Q204.309 -4.75428 204.397 -3.86444Q204.484 -2.97459 204.615 -2.09012Q204.747 -1.20565 204.921 -0.328679Q205.095 0.54829 205.313 1.41564Q205.53 2.283 205.79 3.13864Q206.049 3.99429 206.35 4.83617Q206.652 5.67805 206.994 6.50414Q207.336 7.33023 207.718 8.13853Q208.1 8.94683 208.522 9.7354Q208.943 10.524 209.403 11.2909Q209.863 12.0578 210.36 12.8013Q210.856 13.5448 211.389 14.2629Q211.922 14.9811 212.489 15.6723Q213.056 16.3635 213.657 17.026Q214.257 17.6886 214.889 18.3208Q215.522 18.9531 216.184 19.5535Q216.847 20.154 217.538 20.7213Q218.229 21.2885 218.947 21.8211Q219.665 22.3538 220.409 22.8506Q221.152 23.3473 221.919 23.807Q222.686 24.2667 223.475 24.6882Q224.263 25.1097 225.072 25.492Q225.88 25.8743 226.706 26.2165Q227.532 26.5586 228.374 26.8599Q229.216 27.1611 230.072 27.4207Q230.927 27.6802 231.795 27.8975Q232.662 28.1147 233.539 28.2892Q234.416 28.4636 235.3 28.5948Q236.185 28.726 237.075 28.8137Q237.964 28.9013 238.858 28.9452Q239.751 28.989 240.645 28.989Q243.177 28.989 245.685 28.6386Q248.193 28.2882 250.628 27.5941ZM194.119 160.916Q193.365 160.034 192.587 159.173Q191.809 158.311 191.009 157.471Q190.208 156.631 189.385 155.813Q188.562 154.995 187.718 154.199Q186.873 153.403 186.007 152.631Q185.141 151.858 184.255 151.109Q183.369 150.36 182.462 149.635Q181.556 148.911 180.631 148.211Q179.705 147.51 178.761 146.836Q177.817 146.161 176.855 145.512Q175.893 144.863 174.914 144.24Q173.935 143.617 172.94 143.02Q171.944 142.424 170.933 141.855Q169.922 141.286 168.895 140.744Q167.869 140.202 166.829 139.688Q165.788 139.175 164.734 138.689Q163.68 138.203 162.614 137.746Q161.547 137.289 160.468 136.861Q159.39 136.433 158.3 136.035Q157.21 135.636 156.11 135.267Q155.01 134.897 153.9 134.558Q152.791 134.219 151.672 133.909Q150.554 133.6 149.427 133.321Q148.301 133.042 147.167 132.793Q146.034 132.545 144.894 132.327Q143.754 132.109 142.609 131.922Q141.464 131.735 140.314 131.579Q139.164 131.423 138.01 131.298Q136.857 131.173 135.7 131.079Q134.543 130.985 133.385 130.922Q132.226 130.86 131.066 130.828Q129.906 130.797 128.745 130.797Q126.723 130.797 124.703 130.892Q122.683 130.987 120.67 131.177Q118.656 131.367 116.654 131.651Q114.652 131.936 112.665 132.314Q110.679 132.692 108.712 133.163Q106.746 133.634 104.803 134.197Q102.861 134.76 100.947 135.413Q99.0334 136.067 97.1525 136.81Q95.2717 137.553 93.4278 138.383Q91.5839 139.214 89.7811 140.13Q87.9782 141.046 86.2205 142.046Q84.4627 143.046 82.7538 144.127Q81.045 145.208 79.3889 146.369Q77.7328 147.53 76.133 148.767Q74.5333 150.004 72.9934 151.315Q71.4536 152.625 69.9771 154.007Q68.5798 154.414 67.1975 154.869Q65.8151 155.325 64.4492 155.827Q63.0834 156.329 61.7357 156.879Q60.3879 157.428 59.06 158.023Q57.732 158.619 56.4253 159.26Q55.1186 159.9 53.8348 160.586Q52.551 161.271 51.2916 162.001Q50.0322 162.73 48.7987 163.502Q47.5652 164.275 46.359 165.089Q45.1528 165.903 43.9755 166.759Q42.7981 167.614 41.6509 168.51Q40.5038 169.405 39.3881 170.34Q38.2725 171.275 37.1898 172.247Q36.107 173.22 35.0585 174.229Q34.0099 175.238 32.9968 176.283Q31.9836 177.328 31.0071 178.407Q30.0306 179.486 29.0918 180.598Q28.1531 181.71 27.2532 182.854Q26.3534 183.998 25.4935 185.172Q24.6336 186.346 23.8147 187.549Q22.9958 188.752 22.2189 189.983Q21.442 191.213 20.7079 192.47Q19.9739 193.727 19.2836 195.008Q18.5933 196.289 17.9476 197.593Q17.3019 198.898 16.7016 200.223Q16.1012 201.549 15.5469 202.895Q14.9926 204.24 14.4851 205.604Q13.9775 206.968 13.5172 208.349Q13.057 209.73 12.6446 211.125Q12.2322 212.521 11.8682 213.93Q11.5042 215.339 11.189 216.76Q10.8738 218.181 10.6077 219.612Q9.95201 216.427 9.03708 213.306Q8.12215 210.185 6.9542 207.151Q5.78624 204.116 4.37313 201.187Q2.96003 198.258 1.31131 195.455Q1.92666 195.192 2.532 194.906Q3.13734 194.62 3.73187 194.313Q4.3264 194.005 4.90933 193.676Q5.49225 193.347 6.06281 192.997Q6.63336 192.647 7.19078 192.277Q7.7482 191.906 8.29175 191.515Q8.83529 191.125 9.36425 190.715Q9.8932 190.304 10.4068 189.875Q10.9205 189.446 11.4182 188.998Q11.9158 188.551 12.3969 188.085Q12.8779 187.62 13.3417 187.137Q13.8054 186.655 14.2513 186.155Q14.6971 185.656 15.1245 185.141Q15.5518 184.626 15.9602 184.095Q16.3685 183.565 16.7572 183.02Q17.1459 182.475 17.5145 181.916Q17.8831 181.358 18.2311 180.786Q18.5791 180.214 18.906 179.63Q19.2329 179.046 19.5383 178.45Q19.8437 177.855 20.1273 177.248Q20.4108 176.642 20.672 176.026Q20.9332 175.41 21.1718 174.784Q21.4104 174.159 21.6261 173.525Q21.8417 172.891 22.0342 172.25Q22.2266 171.609 22.3955 170.962Q22.5644 170.314 22.7097 169.66Q22.8549 169.007 22.9762 168.349Q23.0975 167.69 23.1947 167.028Q23.292 166.366 23.365 165.701Q23.4381 165.035 23.4868 164.368Q23.5356 163.7 23.56 163.031Q23.5843 162.362 23.5843 161.693Q23.5843 160.791 23.5401 159.891Q23.4959 158.99 23.4075 158.093Q23.3191 157.196 23.1869 156.304Q23.0546 155.412 22.8787 154.528Q22.7028 153.644 22.4837 152.769Q22.2647 151.895 22.003 151.032Q21.7413 150.169 21.4375 149.321Q21.1338 148.472 20.7888 147.639Q20.4438 146.806 20.0583 145.991Q19.6729 145.176 19.2479 144.381Q18.8229 143.586 18.3594 142.812Q17.8959 142.039 17.395 141.29Q16.8942 140.54 16.3571 139.816Q15.8201 139.092 15.2481 138.395Q14.6762 137.698 14.0707 137.03Q13.4653 136.362 12.8278 135.724Q12.1903 135.087 11.5223 134.481Q10.8543 133.876 10.1574 133.304Q9.46047 132.732 8.73634 132.195Q8.01221 131.658 7.26259 131.157Q6.51298 130.656 5.7397 130.193Q4.96641 129.729 4.17131 129.304Q3.37621 128.879 2.56122 128.494Q1.74623 128.108 0.913301 127.763Q0.0803751 127.418 -0.768476 127.115Q-1.61733 126.811 -2.48006 126.549Q-3.34279 126.287 -4.21732 126.068Q-5.09186 125.849 -5.97609 125.673Q-6.86031 125.498 -7.75211 125.365Q-8.6439 125.233 -9.54111 125.145Q-10.4383 125.056 -11.3388 125.012Q-12.2393 124.968 -13.1408 124.968Q-13.9898 124.968 -14.838 125.007Q-15.6861 125.046 -16.5315 125.125Q-17.3769 125.203 -18.2178 125.32Q-19.0587 125.438 -19.8932 125.594Q-20.7278 125.75 -21.5542 125.944Q-22.3807 126.139 -23.1973 126.371Q-24.0138 126.604 -24.8188 126.874Q-25.6238 127.144 -26.4154 127.451Q-27.207 127.758 -27.9836 128.101Q-28.7602 128.444 -29.5201 128.823Q-30.2801 129.201 -31.0217 129.615Q-31.7633 130.028 -32.485 130.475Q-33.2067 130.923 -33.9069 131.403Q-34.6072 131.883 -35.2845 132.395Q-35.9619 132.907 -36.6148 133.449Q-37.2678 133.992 -37.895 134.564Q-38.5221 135.136 -39.1222 135.737Q-39.7223 136.338 -40.2939 136.966Q-40.8656 137.593 -41.4076 138.247Q-41.9497 138.9 -42.4609 139.578Q-42.9722 140.256 -43.4516 140.957Q-43.931 141.657 -44.3775 142.38Q-44.824 143.102 -45.2366 143.844Q-45.6493 144.586 -46.0272 145.346Q-46.4051 146.106 -46.7475 146.883Q-47.0899 147.66 -47.396 148.452Q-47.7021 149.244 -47.9713 150.049Q-48.2405 150.854 -48.4722 151.671Q-48.7038 152.488 -48.8975 153.315Q-49.0912 154.141 -49.2465 154.976Q-49.4018 155.811 -49.5183 156.652Q-49.6349 157.493 -49.7124 158.338Q-53.9392 157.399 -58.2433 156.926Q-62.5473 156.454 -66.8772 156.454Q-68.3927 156.454 -69.907 156.512Q-71.4213 156.57 -72.9323 156.686Q-74.4433 156.802 -75.9488 156.976Q-77.4542 157.149 -78.9519 157.381Q-80.4496 157.612 -81.9373 157.9Q-83.4251 158.189 -84.9007 158.534Q-86.3763 158.879 -87.8375 159.281Q-89.2988 159.682 -90.7437 160.14Q-92.1885 160.597 -93.6148 161.109Q-95.041 161.621 -96.4466 162.188Q-97.8522 162.754 -99.2351 163.374Q-100.618 163.994 -101.976 164.666Q-103.334 165.339 -104.666 166.062Q-105.997 166.786 -107.3 167.561Q-108.602 168.335 -109.874 169.159Q-111.146 169.982 -112.386 170.854Q-113.626 171.726 -114.831 172.644Q-116.036 173.563 -117.205 174.527Q-118.375 175.491 -119.506 176.499Q-120.638 177.508 -121.73 178.558Q-122.822 179.609 -123.873 180.701Q-124.924 181.793 -125.932 182.924Q-126.94 184.055 -127.905 185.224Q-128.869 186.393 -129.788 187.598Q-130.707 188.804 -131.579 190.043Q-132.451 191.282 -133.274 192.554Q-134.098 193.826 -134.873 195.129Q-135.647 196.431 -136.372 197.763Q-137.096 199.094 -137.768 200.452Q-138.441 201.81 -139.061 203.193Q-139.681 204.575 -140.248 205.981Q-140.815 207.386 -141.327 208.813Q-139.386 210.127 -137.42 211.404Q-135.455 212.682 -133.466 213.923Q-131.477 215.163 -129.466 216.367Q-127.454 217.571 -125.42 218.737Q-123.387 219.903 -121.332 221.031Q-119.277 222.159 -117.201 223.248Q-115.126 224.338 -113.03 225.389Q-110.935 226.44 -108.82 227.451Q-106.706 228.463 -104.573 229.435Q-102.439 230.408 -100.289 231.34Q-98.1379 232.272 -95.9701 233.165Q-93.8024 234.057 -91.6184 234.909Q-89.4345 235.76 -87.2351 236.571Q-85.0357 237.382 -82.8215 238.152Q-80.6074 238.922 -78.3794 239.651Q-76.1513 240.38 -73.9101 241.067Q-71.6689 241.754 -69.4153 242.4Q-67.1617 243.045 -64.8965 243.648Q-62.6313 244.252 -60.3553 244.813Q-58.0792 245.374 -55.7931 245.893Q-53.5071 246.411 -51.2118 246.887Q-48.9164 247.363 -46.6126 247.797Q-44.3089 248.23 -41.9974 248.621Q-39.686 249.011 -37.3677 249.358Q-35.0494 249.706 -32.725 250.01Q-30.4007 250.314 -28.0711 250.575Q-25.7415 250.836 -23.4074 251.054Q-21.0733 251.272 -18.7356 251.446Q-16.3979 251.62 -14.0574 251.751Q-11.7169 251.881 -9.3743 251.969Q-7.03174 252.056 -4.68796 252.099Q-2.34418 252.143 0 252.143Q5.26364 252.143 10.5227 251.923Q10.619 251.468 10.7099 251.011Q10.7964 251.46 10.8877 251.908Q14.1763 251.766 17.46 251.538Q20.7438 251.31 24.0204 250.996Q27.2971 250.682 30.5645 250.283Q33.8318 249.884 37.0877 249.4Q40.3435 248.916 43.5856 248.347Q46.8277 247.778 50.0538 247.125Q53.28 246.471 56.488 245.734Q59.6959 244.996 62.8836 244.175Q66.0712 243.355 69.2363 242.451Q72.4014 241.547 75.5419 240.561Q78.6823 239.574 81.7959 238.507Q84.9096 237.439 87.9943 236.29Q91.0789 235.141 94.1326 233.913Q97.1862 232.684 100.207 231.375Q103.227 230.067 106.213 228.681Q109.198 227.294 112.146 225.83Q115.094 224.366 118.003 222.826Q120.912 221.285 123.78 219.669Q126.648 218.053 129.472 216.363Q132.297 214.673 135.076 212.909Q137.856 211.146 140.588 209.311Q143.321 207.475 146.004 205.569Q148.688 203.663 151.321 201.688Q153.954 199.712 156.534 197.669Q159.115 195.625 161.641 193.515Q164.167 191.405 166.638 189.23Q169.108 187.054 171.521 184.815Q173.933 182.576 176.287 180.275Q178.64 177.973 180.933 175.611Q183.225 173.249 185.456 170.828Q187.686 168.407 189.852 165.929Q192.018 163.45 194.119 160.916ZM-166.723 -189.155Q-161.379 -193.865 -155.778 -198.265Q-150.177 -202.666 -144.336 -206.744Q-138.496 -210.822 -132.434 -214.563Q-126.372 -218.304 -120.109 -221.698Q-119.539 -221.186 -118.996 -220.645Q-118.454 -220.104 -117.94 -219.536Q-117.427 -218.967 -116.944 -218.373Q-116.461 -217.778 -116.01 -217.159Q-115.559 -216.54 -115.141 -215.898Q-114.723 -215.256 -114.339 -214.593Q-113.955 -213.93 -113.607 -213.247Q-113.258 -212.565 -112.946 -211.866Q-112.634 -211.166 -112.359 -210.451Q-112.084 -209.736 -111.847 -209.008Q-111.609 -208.279 -111.411 -207.539Q-111.212 -206.8 -111.052 -206.05Q-110.893 -205.301 -110.773 -204.544Q-110.653 -203.788 -110.572 -203.026Q-110.492 -202.264 -110.452 -201.499Q-110.412 -200.734 -110.412 -199.968Q-110.412 -199.251 -110.447 -198.536Q-110.482 -197.82 -110.552 -197.107Q-110.623 -196.393 -110.728 -195.684Q-110.833 -194.976 -110.973 -194.273Q-111.113 -193.57 -111.287 -192.875Q-111.461 -192.179 -111.669 -191.494Q-111.877 -190.808 -112.118 -190.133Q-112.36 -189.458 -112.634 -188.796Q-112.908 -188.134 -113.215 -187.486Q-113.521 -186.838 -113.859 -186.206Q-114.197 -185.574 -114.565 -184.959Q-114.934 -184.345 -115.332 -183.749Q-115.73 -183.153 -116.157 -182.577Q-116.584 -182.002 -117.039 -181.448Q-117.493 -180.894 -117.974 -180.363Q-118.456 -179.832 -118.963 -179.325Q-119.469 -178.818 -120 -178.337Q-120.531 -177.856 -121.085 -177.401Q-121.639 -176.946 -122.215 -176.519Q-122.791 -176.092 -123.386 -175.694Q-123.982 -175.296 -124.597 -174.928Q-125.212 -174.559 -125.844 -174.221Q-126.476 -173.884 -127.124 -173.577Q-127.772 -173.271 -128.434 -172.996Q-129.096 -172.722 -129.771 -172.481Q-130.445 -172.239 -131.131 -172.031Q-131.817 -171.823 -132.512 -171.649Q-133.207 -171.475 -133.91 -171.335Q-134.613 -171.195 -135.322 -171.09Q-136.031 -170.985 -136.744 -170.915Q-137.457 -170.845 -138.173 -170.809Q-138.889 -170.774 -139.606 -170.774Q-140.149 -170.774 -140.692 -170.794Q-141.236 -170.815 -141.777 -170.855Q-142.319 -170.896 -142.86 -170.956Q-143.4 -171.017 -143.937 -171.097Q-144.475 -171.178 -145.009 -171.279Q-145.543 -171.379 -146.073 -171.5Q-146.603 -171.62 -147.128 -171.76Q-147.653 -171.9 -148.173 -172.06Q-148.692 -172.219 -149.206 -172.398Q-149.719 -172.576 -150.225 -172.774Q-150.732 -172.972 -151.23 -173.188Q-151.729 -173.405 -152.219 -173.64Q-152.709 -173.874 -153.19 -174.127Q-153.671 -174.38 -154.142 -174.651Q-154.614 -174.921 -155.075 -175.209Q-155.536 -175.497 -155.986 -175.802Q-156.435 -176.107 -156.874 -176.429Q-157.312 -176.75 -157.738 -177.088Q-158.164 -177.425 -158.577 -177.779Q-158.99 -178.132 -159.39 -178.5Q-159.789 -178.868 -160.175 -179.251Q-160.561 -179.634 -160.932 -180.031Q-161.303 -180.428 -161.659 -180.839Q-162.015 -181.249 -162.356 -181.673Q-162.697 -182.096 -163.021 -182.532Q-163.346 -182.968 -163.654 -183.416Q-163.962 -183.864 -164.253 -184.323Q-164.545 -184.781 -164.819 -185.251Q-165.093 -185.72 -165.349 -186.2Q-165.605 -186.679 -165.844 -187.167Q-166.082 -187.656 -166.302 -188.153Q-166.522 -188.65 -166.723 -189.155ZM-230.252 -102.763Q-228.225 -107.304 -226.021 -111.762Q-223.816 -116.22 -221.438 -120.587Q-219.06 -124.955 -216.511 -129.225Q-213.962 -133.495 -211.247 -137.662Q-208.532 -141.828 -205.655 -145.884Q-202.777 -149.94 -199.742 -153.88Q-196.707 -157.819 -193.519 -161.636Q-190.331 -165.453 -186.995 -169.141Q-186.05 -168.99 -185.113 -168.798Q-184.175 -168.605 -183.247 -168.371Q-182.319 -168.137 -181.402 -167.863Q-180.485 -167.588 -179.581 -167.274Q-178.677 -166.959 -177.788 -166.605Q-176.899 -166.25 -176.026 -165.857Q-175.154 -165.464 -174.299 -165.033Q-173.445 -164.601 -172.61 -164.133Q-171.776 -163.664 -170.963 -163.159Q-170.15 -162.654 -169.359 -162.114Q-168.569 -161.574 -167.804 -160.999Q-167.039 -160.424 -166.299 -159.817Q-165.56 -159.209 -164.848 -158.569Q-164.136 -157.929 -163.454 -157.258Q-162.771 -156.588 -162.118 -155.888Q-161.465 -155.187 -160.844 -154.459Q-160.223 -153.731 -159.635 -152.976Q-159.047 -152.221 -158.492 -151.441Q-157.938 -150.661 -157.418 -149.857Q-156.899 -149.053 -156.415 -148.227Q-155.932 -147.401 -155.485 -146.555Q-155.038 -145.708 -154.63 -144.843Q-154.221 -143.977 -153.85 -143.095Q-153.48 -142.212 -153.149 -141.314Q-152.818 -140.416 -152.527 -139.504Q-152.236 -138.592 -151.986 -137.668Q-151.735 -136.745 -151.526 -135.811Q-151.316 -134.877 -151.148 -133.935Q-150.98 -132.992 -150.854 -132.044Q-150.727 -131.095 -150.643 -130.141Q-150.559 -129.188 -150.516 -128.232Q-150.474 -127.276 -150.474 -126.319Q-150.474 -125.254 -150.526 -124.191Q-150.579 -123.127 -150.683 -122.068Q-150.787 -121.008 -150.944 -119.955Q-151.1 -118.902 -151.307 -117.858Q-151.515 -116.814 -151.774 -115.781Q-152.032 -114.749 -152.342 -113.73Q-152.651 -112.711 -153.009 -111.709Q-153.368 -110.706 -153.775 -109.723Q-154.183 -108.739 -154.638 -107.777Q-155.093 -106.815 -155.595 -105.876Q-156.097 -104.937 -156.644 -104.024Q-157.191 -103.111 -157.783 -102.225Q-158.374 -101.34 -159.008 -100.485Q-159.643 -99.6301 -160.318 -98.8072Q-160.993 -97.9842 -161.708 -97.1954Q-162.423 -96.4066 -163.176 -95.6539Q-163.929 -94.9011 -164.717 -94.1861Q-165.506 -93.4712 -166.329 -92.7959Q-167.152 -92.1205 -168.007 -91.4863Q-168.862 -90.8521 -169.747 -90.2607Q-170.633 -89.6692 -171.546 -89.1219Q-172.459 -88.5746 -173.398 -88.0728Q-174.337 -87.5709 -175.299 -87.1158Q-176.261 -86.6606 -177.245 -86.2532Q-178.228 -85.8458 -179.231 -85.4872Q-180.233 -85.1285 -181.252 -84.8195Q-182.271 -84.5105 -183.303 -84.2518Q-184.336 -83.9931 -185.38 -83.7854Q-186.424 -83.5777 -187.477 -83.4215Q-188.53 -83.2653 -189.59 -83.161Q-190.649 -83.0566 -191.713 -83.0044Q-192.776 -82.9521 -193.841 -82.9521Q-194.516 -82.9521 -195.191 -82.9732Q-195.866 -82.9942 -196.54 -83.0362Q-197.214 -83.0783 -197.886 -83.1413Q-198.559 -83.2043 -199.229 -83.2882Q-199.899 -83.3721 -200.566 -83.4768Q-201.233 -83.5816 -201.897 -83.707Q-202.56 -83.8325 -203.22 -83.9785Q-203.879 -84.1246 -204.534 -84.2911Q-205.188 -84.4577 -205.837 -84.6445Q-206.486 -84.8313 -207.129 -85.0382Q-207.772 -85.2452 -208.408 -85.472Q-209.044 -85.6989 -209.673 -85.9454Q-210.301 -86.192 -210.922 -86.458Q-211.543 -86.724 -212.155 -87.0092Q-212.767 -87.2944 -213.37 -87.5985Q-213.973 -87.9027 -214.566 -88.2254Q-215.16 -88.5482 -215.742 -88.8892Q-216.325 -89.2303 -216.897 -89.5894Q-217.469 -89.9484 -218.03 -90.3251Q-218.59 -90.7018 -219.139 -91.0958Q-219.687 -91.4897 -220.223 -91.9006Q-220.759 -92.3114 -221.282 -92.7388Q-221.805 -93.1661 -222.314 -93.6095Q-222.824 -94.053 -223.319 -94.512Q-223.814 -94.9711 -224.295 -95.4454Q-224.776 -95.9196 -225.242 -96.4086Q-225.708 -96.8976 -226.158 -97.4009Q-226.608 -97.9042 -227.043 -98.4212Q-227.477 -98.9383 -227.895 -99.4686Q-228.313 -99.9989 -228.715 -100.542Q-229.116 -101.085 -229.501 -101.64Q-229.885 -102.196 -230.252 -102.763ZM-8.86546 -28.502Q-8.86546 -26.965 -8.94088 -25.4298Q-9.01629 -23.8947 -9.16694 -22.3651Q-9.3176 -20.8355 -9.54312 -19.3152Q-9.76864 -17.7948 -10.0685 -16.2873Q-10.3683 -14.7799 -10.7418 -13.2889Q-11.1153 -11.798 -11.5614 -10.3272Q-12.0076 -8.8564 -12.5254 -7.40925Q-13.0432 -5.96211 -13.6314 -4.54211Q-14.2195 -3.12212 -14.8767 -1.73269Q-15.5338 -0.343269 -16.2584 1.01224Q-16.9829 2.36774 -17.7731 3.68606Q-18.5633 5.00439 -19.4172 6.28235Q-20.2711 7.56031 -21.1867 8.79483Q-22.1022 10.0294 -23.0773 11.2175Q-24.0524 12.4056 -25.0845 13.5444Q-26.1167 14.6833 -27.2035 15.7701Q-28.2904 16.8569 -29.4292 17.8891Q-30.568 18.9212 -31.7561 19.8963Q-32.9442 20.8714 -34.1788 21.7869Q-35.4133 22.7025 -36.6913 23.5564Q-37.9692 24.4103 -39.2875 25.2005Q-40.6059 25.9907 -41.9614 26.7152Q-43.3169 27.4398 -44.7063 28.0969Q-46.0957 28.7541 -47.5157 29.3422Q-48.9357 29.9304 -50.3829 30.4482Q-51.83 30.966 -53.3008 31.4122Q-54.7716 31.8583 -56.2626 32.2318Q-57.7535 32.6053 -59.2609 32.9051Q-60.7684 33.205 -62.2888 33.4305Q-63.8091 33.656 -65.3387 33.8067Q-66.8683 33.9573 -68.4034 34.0327Q-69.9386 34.1081 -71.4756 34.1081Q-73.0126 34.1081 -74.5477 34.0327Q-76.0828 33.9573 -77.6124 33.8067Q-79.142 33.656 -80.6624 33.4305Q-82.1827 33.205 -83.6902 32.9051Q-85.1976 32.6053 -86.6886 32.2318Q-88.1795 31.8583 -89.6503 31.4122Q-91.1211 30.966 -92.5683 30.4482Q-94.0154 29.9304 -95.4354 29.3422Q-96.8554 28.7541 -98.2448 28.0969Q-99.6343 27.4398 -100.99 26.7152Q-102.345 25.9907 -103.664 25.2005Q-104.982 24.4103 -106.26 23.5564Q-107.538 22.7025 -108.772 21.7869Q-110.007 20.8714 -111.195 19.8963Q-112.383 18.9212 -113.522 17.8891Q-114.661 16.8569 -115.748 15.7701Q-116.834 14.6833 -117.867 13.5444Q-118.899 12.4056 -119.874 11.2175Q-120.849 10.0294 -121.764 8.79483Q-122.68 7.56031 -123.534 6.28235Q-124.388 5.00439 -125.178 3.68606Q-125.968 2.36774 -126.693 1.01224Q-127.417 -0.343269 -128.074 -1.73269Q-128.732 -3.12212 -129.32 -4.54211Q-129.908 -5.96211 -130.426 -7.40925Q-130.944 -8.8564 -131.39 -10.3272Q-131.836 -11.798 -132.209 -13.2889Q-132.583 -14.7799 -132.883 -16.2873Q-133.182 -17.7948 -133.408 -19.3152Q-133.634 -20.8355 -133.784 -22.3651Q-133.935 -23.8947 -134.01 -25.4298Q-134.086 -26.965 -134.086 -28.502Q-134.086 -30.039 -134.01 -31.5741Q-133.935 -33.1092 -133.784 -34.6388Q-133.634 -36.1684 -133.408 -37.6888Q-133.182 -39.2091 -132.883 -40.7166Q-132.583 -42.2241 -132.209 -43.715Q-131.836 -45.2059 -131.39 -46.6767Q-130.944 -48.1475 -130.426 -49.5947Q-129.908 -51.0418 -129.32 -52.4618Q-128.732 -53.8818 -128.074 -55.2712Q-127.417 -56.6607 -126.693 -58.0162Q-125.968 -59.3717 -125.178 -60.69Q-124.388 -62.0083 -123.534 -63.2863Q-122.68 -64.5642 -121.764 -65.7988Q-120.849 -67.0333 -119.874 -68.2214Q-118.899 -69.4095 -117.867 -70.5483Q-116.834 -71.6872 -115.748 -72.774Q-114.661 -73.8608 -113.522 -74.893Q-112.383 -75.9252 -111.195 -76.9002Q-110.007 -77.8753 -108.772 -78.7909Q-107.538 -79.7065 -106.26 -80.5604Q-104.982 -81.4143 -103.664 -82.2044Q-102.345 -82.9946 -100.99 -83.7192Q-99.6343 -84.4437 -98.2448 -85.1008Q-96.8554 -85.758 -95.4354 -86.3462Q-94.0154 -86.9343 -92.5683 -87.4521Q-91.1211 -87.9699 -89.6503 -88.4161Q-88.1795 -88.8623 -86.6886 -89.2357Q-85.1976 -89.6092 -83.6902 -89.909Q-82.1827 -90.2089 -80.6624 -90.4344Q-79.142 -90.6599 -77.6124 -90.8106Q-76.0828 -90.9612 -74.5477 -91.0367Q-73.0126 -91.1121 -71.4756 -91.1121Q-69.9386 -91.1121 -68.4034 -91.0367Q-66.8683 -90.9612 -65.3387 -90.8106Q-63.8091 -90.6599 -62.2888 -90.4344Q-60.7684 -90.2089 -59.2609 -89.909Q-57.7535 -89.6092 -56.2625 -89.2357Q-54.7716 -88.8623 -53.3008 -88.4161Q-51.83 -87.9699 -50.3829 -87.4521Q-48.9357 -86.9343 -47.5157 -86.3462Q-46.0957 -85.758 -44.7063 -85.1008Q-43.3169 -84.4437 -41.9614 -83.7191Q-40.6059 -82.9946 -39.2875 -82.2044Q-37.9692 -81.4143 -36.6913 -80.5604Q-35.4133 -79.7065 -34.1788 -78.7909Q-32.9442 -77.8753 -31.7561 -76.9002Q-30.568 -75.9252 -29.4292 -74.893Q-28.2904 -73.8608 -27.2035 -72.774Q-26.1167 -71.6872 -25.0845 -70.5483Q-24.0524 -69.4095 -23.0773 -68.2214Q-22.1022 -67.0333 -21.1867 -65.7988Q-20.2711 -64.5642 -19.4172 -63.2863Q-18.5633 -62.0083 -17.7731 -60.69Q-16.9829 -59.3717 -16.2584 -58.0162Q-15.5338 -56.6607 -14.8767 -55.2712Q-14.2195 -53.8818 -13.6314 -52.4618Q-13.0432 -51.0418 -12.5254 -49.5947Q-12.0076 -48.1475 -11.5614 -46.6767Q-11.1153 -45.2059 -10.7418 -43.715Q-10.3683 -42.224 -10.0685 -40.7166Q-9.76864 -39.2091 -9.54312 -37.6888Q-9.3176 -36.1684 -9.16694 -34.6388Q-9.01629 -33.1092 -8.94088 -31.5741Q-8.86546 -30.039 -8.86546 -28.502Z" fill-rule="evenodd"/>
	<path fill="none" stroke="black" stroke-width="2.3999999" stroke-linejoin="round" transform="translate(55 79.2857)" d="M-21.7216 -6.4323Q-21.3603 -5.76824 -20.8916 -4.79656Q-20.4179 -3.82977 -19.9101 -2.69695Q-19.4023 -1.56902 -18.9043 -0.387383Q-18.4013 0.789375 -17.9619 1.82941Q-17.5175 0.789375 -17.0195 -0.387383Q-16.5215 -1.56902 -16.0136 -2.69695Q-15.5009 -3.82977 -15.0322 -4.79656Q-14.5586 -5.76824 -14.2021 -6.4323L-11.3603 -6.4323Q-11.1601 -5.05047 -10.9892 -3.3366Q-10.8183 -1.62762 -10.6914 0.222969Q-10.5595 2.06867 -10.4521 3.92902Q-10.3398 5.78937 -10.2617 7.43L-13.2988 7.43Q-13.3623 5.40852 -13.4599 3.03059Q-13.5576 0.647773 -13.7578 -1.76922Q-14.1191 -0.929375 -14.5586 0.0911326Q-14.998 1.11164 -15.4326 2.13215Q-15.8623 3.14777 -16.2627 4.08039Q-16.6582 5.00812 -16.9414 5.67219L-19.1191 5.67219Q-19.4023 5.00812 -19.8027 4.08039Q-20.1982 3.14777 -20.6279 2.13215Q-21.0576 1.11164 -21.5019 0.0911326Q-21.9414 -0.929375 -22.2978 -1.76922Q-22.498 0.647773 -22.6006 3.03059Q-22.6982 5.40852 -22.7617 7.43L-25.7988 7.43Q-25.7207 5.78937 -25.6133 3.92902Q-25.5009 2.06867 -25.374 0.222969Q-25.2422 -1.62762 -25.0713 -3.3366Q-24.9004 -5.05047 -24.7002 -6.4323L-21.7216 -6.4323ZM2.18025 2.15168Q2.18025 3.39191 1.81892 4.42219Q1.4576 5.44758 0.778885 6.18Q0.100174 6.91242 -0.851974 7.31281Q-1.79924 7.70832 -2.98088 7.70832Q-4.13811 7.70832 -5.09026 7.31281Q-6.0424 6.91242 -6.72112 6.18Q-7.39983 5.44758 -7.78069 4.42219Q-8.16154 3.39191 -8.16154 2.15168Q-8.16154 0.911445 -7.77092 -0.109063Q-7.38029 -1.12957 -6.69182 -1.84734Q-5.99846 -2.57 -5.05119 -2.97039Q-4.09904 -3.37078 -2.98088 -3.37078Q-1.8383 -3.37078 -0.891037 -2.97039Q0.0611115 -2.57 0.739822 -1.84734Q1.41853 -1.12957 1.79939 -0.109063Q2.18025 0.911445 2.18025 2.15168ZM-0.86174 2.15168Q-0.86174 0.769844 -1.4135 -0.021172Q-1.96037 -0.812188 -2.98088 -0.812188Q-4.00139 -0.812188 -4.56291 -0.021172Q-5.11955 0.769844 -5.11955 2.15168Q-5.11955 3.52863 -4.56291 4.33918Q-4.00139 5.14973 -2.98088 5.14973Q-1.96037 5.14973 -1.4135 4.33918Q-0.86174 3.52863 -0.86174 2.15168ZM14.3202 2.15168Q14.3202 3.39191 13.9589 4.42219Q13.5976 5.44758 12.9189 6.18Q12.2402 6.91242 11.288 7.31281Q10.3407 7.70832 9.1591 7.70832Q8.00188 7.70832 7.04973 7.31281Q6.09758 6.91242 5.41887 6.18Q4.74016 5.44758 4.3593 4.42219Q3.97844 3.39191 3.97844 2.15168Q3.97844 0.911445 4.36906 -0.109063Q4.75969 -1.12957 5.44817 -1.84734Q6.14153 -2.57 7.08879 -2.97039Q8.04094 -3.37078 9.1591 -3.37078Q10.3017 -3.37078 11.2489 -2.97039Q12.2011 -2.57 12.8798 -1.84734Q13.5585 -1.12957 13.9394 -0.109063Q14.3202 0.911445 14.3202 2.15168ZM11.2782 2.15168Q11.2782 0.769844 10.7265 -0.021172Q10.1796 -0.812188 9.1591 -0.812188Q8.1386 -0.812188 7.57707 -0.021172Q7.02043 0.769844 7.02043 2.15168Q7.02043 3.52863 7.57707 4.33918Q8.1386 5.14973 9.1591 5.14973Q10.1796 5.14973 10.7265 4.33918Q11.2782 3.52863 11.2782 2.15168ZM16.6214 -2.73113Q17.3782 -2.95086 18.5794 -3.14129Q19.7805 -3.33172 21.0989 -3.33172Q22.4417 -3.33172 23.3303 -2.98016Q24.219 -2.62859 24.7366 -1.98895Q25.259 -1.3493 25.4788 -0.470391Q25.6985 0.408515 25.6985 1.48762L25.6985 7.43L22.72 7.43L22.72 1.84895Q22.72 0.408515 22.3391 -0.187188Q21.9583 -0.787774 20.9182 -0.787774Q20.6008 -0.787774 20.2395 -0.758477Q19.8782 -0.72918 19.5999 -0.690117L19.5999 7.43L16.6214 7.43L16.6214 -2.73113Z"/>
	<path fill="white" transform="translate(55 79.2857)" d="M-21.7216 -6.4323Q-21.3603 -5.76824 -20.8916 -4.79656Q-20.4179 -3.82977 -19.9101 -2.69695Q-19.4023 -1.56902 -18.9043 -0.387383Q-18.4013 0.789375 -17.9619 1.82941Q-17.5175 0.789375 -17.0195 -0.387383Q-16.5215 -1.56902 -16.0136 -2.69695Q-15.5009 -3.82977 -15.0322 -4.79656Q-14.5586 -5.76824 -14.2021 -6.4323L-11.3603 -6.4323Q-11.1601 -5.05047 -10.9892 -3.3366Q-10.8183 -1.62762 -10.6914 0.222969Q-10.5595 2.06867 -10.4521 3.92902Q-10.3398 5.78937 -10.2617 7.43L-13.2988 7.43Q-13.3623 5.40852 -13.4599 3.03059Q-13.5576 0.647773 -13.7578 -1.76922Q-14.1191 -0.929375 -14.5586 0.0911326Q-14.998 1.11164 -15.4326 2.13215Q-15.8623 3.14777 -16.2627 4.08039Q-16.6582 5.00812 -16.9414 5.67219L-19.1191 5.67219Q-19.4023 5.00812 -19.8027 4.08039Q-20.1982 3.14777 -20.6279 2.13215Q-21.0576 1.11164 -21.5019 0.0911326Q-21.9414 -0.929375 -22.2978 -1.76922Q-22.498 0.647773 -22.6006 3.03059Q-22.6982 5.40852 -22.7617 7.43L-25.7988 7.43Q-25.7207 5.78937 -25.6133 3.92902Q-25.5009 2.06867 -25.374 0.222969Q-25.2422 -1.62762 -25.0713 -3.3366Q-24.9004 -5.05047 -24.7002 -6.4323L-21.7216 -6.4323ZM2.18025 2.15168Q2.18025 3.39191 1.81892 4.42219Q1.4576 5.44758 0.778885 6.18Q0.100174 6.91242 -0.851974 7.31281Q-1.79924 7.70832 -2.98088 7.70832Q-4.13811 7.70832 -5.09026 7.31281Q-6.0424 6.91242 -6.72112 6.18Q-7.39983 5.44758 -7.78069 4.42219Q-8.16154 3.39191 -8.16154 2.15168Q-8.16154 0.911445 -7.77092 -0.109063Q-7.38029 -1.12957 -6.69182 -1.84734Q-5.99846 -2.57 -5.05119 -2.97039Q-4.09904 -3.37078 -2.98088 -3.37078Q-1.8383 -3.37078 -0.891037 -2.97039Q0.0611115 -2.57 0.739822 -1.84734Q1.41853 -1.12957 1.79939 -0.109063Q2.18025 0.911445 2.18025 2.15168ZM-0.86174 2.15168Q-0.86174 0.769844 -1.4135 -0.021172Q-1.96037 -0.812188 -2.98088 -0.812188Q-4.00139 -0.812188 -4.56291 -0.021172Q-5.11955 0.769844 -5.11955 2.15168Q-5.11955 3.52863 -4.56291 4.33918Q-4.00139 5.14973 -2.98088 5.14973Q-1.96037 5.14973 -1.4135 4.33918Q-0.86174 3.52863 -0.86174 2.15168ZM14.3202 2.15168Q14.3202 3.39191 13.9589 4.42219Q13.5976 5.44758 12.9189 6.18Q12.2402 6.91242 11.288 7.31281Q10.3407 7.70832 9.1591 7.70832Q8.00188 7.70832 7.04973 7.31281Q6.09758 6.91242 5.41887 6.18Q4.74016 5.44758 4.3593 4.42219Q3.97844 3.39191 3.97844 2.15168Q3.97844 0.911445 4.36906 -0.109063Q4.75969 -1.12957 5.44817 -1.84734Q6.14153 -2.57 7.08879 -2.97039Q8.04094 -3.37078 9.1591 -3.37078Q10.3017 -3.37078 11.2489 -2.97039Q12.2011 -2.57 12.8798 -1.84734Q13.5585 -1.12957 13.9394 -0.109063Q14.3202 0.911445 14.3202 2.15168ZM11.2782 2.15168Q11.2782 0.769844 10.7265 -0.021172Q10.1796 -0.812188 9.1591 -0.812188Q8.1386 -0.812188 7.57707 -0.021172Q7.02043 0.769844 7.02043 2.15168Q7.02043 3.52863 7.57707 4.33918Q8.1386 5.14973 9.1591 5.14973Q10.1796 5.14973 10.7265 4.33918Q11.2782 3.52863 11.2782 2.15168ZM16.6214 -2.73113Q17.3782 -2.95086 18.5794 -3.14129Q19.7805 -3.33172 21.0989 -3.33172Q22.4417 -3.33172 23.3303 -2.98016Q24.219 -2.62859 24.7366 -1.98895Q25.259 -1.3493 25.4788 -0.470391Q25.6985 0.408515 25.6985 1.48762L25.6985 7.43L22.72 7.43L22.72 1.84895Q22.72 0.408515 22.3391 -0.187188Q21.9583 -0.787774 20.9182 -0.787774Q20.6008 -0.787774 20.2395 -0.758477Q19.8782 -0.72918 19.5999 -0.690117L19.5999 7.43L16.6214 7.43L16.6214 -2.73113Z"/>
</svg>
