<?xml version="1.0" encoding="utf-8" ?>
<svg xmlns="http://www.w3.org/2000/svg" xmlns:xlink="http://www.w3.org/1999/xlink" width="110" height="110">
	<path fill="white" transform="matrix(0.77186 1.2021 -1.2021 0.77186 55 47.8571)" d="M0 -15Q0.368229 -15 0.736015 -14.9819Q1.1038 -14.9639 1.47026 -14.9278Q1.83671 -14.8917 2.20096 -14.8376Q2.5652 -14.7836 2.92635 -14.7118Q3.28751 -14.6399 3.6447 -14.5505Q4.0019 -14.461 4.35427 -14.3541Q4.70664 -14.2472 5.05335 -14.1232Q5.40005 -13.9991 5.74025 -13.8582Q6.08045 -13.7173 6.41333 -13.5598Q6.7462 -13.4024 7.07095 -13.2288Q7.3957 -13.0552 7.71154 -12.8659Q8.02738 -12.6766 8.33355 -12.472Q8.63972 -12.2675 8.93549 -12.0481Q9.23125 -11.8288 9.5159 -11.5952Q9.80054 -11.3616 10.0734 -11.1143Q10.3462 -10.867 10.6066 -10.6066Q10.867 -10.3462 11.1143 -10.0734Q11.3616 -9.80054 11.5952 -9.5159Q11.8288 -9.23125 12.0481 -8.93549Q12.2675 -8.63972 12.472 -8.33355Q12.6766 -8.02738 12.8659 -7.71154Q13.0552 -7.3957 13.2288 -7.07095Q13.4024 -6.7462 13.5598 -6.41333Q13.7173 -6.08045 13.8582 -5.74025Q13.9991 -5.40005 14.1232 -5.05335Q14.2472 -4.70664 14.3541 -4.35427Q14.461 -4.0019 14.5505 -3.6447Q14.6399 -3.28751 14.7118 -2.92635Q14.7836 -2.5652 14.8376 -2.20096Q14.8917 -1.83671 14.9278 -1.47026Q14.9639 -1.1038 14.9819 -0.736015Q15 -0.368229 15 0Q15 0.368229 14.9819 0.736015Q14.9639 1.1038 14.9278 1.47026Q14.8917 1.83671 14.8376 2.20096Q14.7836 2.5652 14.7118 2.92635Q14.6399 3.28751 14.5505 3.6447Q14.461 4.0019 14.3541 4.35427Q14.2472 4.70664 14.1232 5.05335Q13.9991 5.40005 13.8582 5.74025Q13.7173 6.08045 13.5598 6.41333Q13.4024 6.7462 13.2288 7.07095Q13.0552 7.3957 12.8659 7.71154Q12.6766 8.02738 12.472 8.33355Q12.2675 8.63972 12.0481 8.93549Q11.8288 9.23125 11.5952 9.5159Q11.3616 9.80054 11.1143 10.0734Q10.867 10.3462 10.6066 10.6066Q10.3462 10.867 10.0734 11.1143Q9.80054 11.3616 9.5159 11.5952Q9.23125 11.8288 8.93549 12.0481Q8.63972 12.2675 8.33355 12.472Q8.02738 12.6766 7.71154 12.8659Q7.3957 13.0552 7.07095 13.2288Q6.7462 13.4024 6.41333 13.5598Q6.08045 13.7173 5.74025 13.8582Q5.40005 13.9991 5.05335 14.1232Q4.70664 14.2472 4.35427 14.3541Q4.0019 14.461 3.6447 14.5505Q3.28751 14.6399 2.92635 14.7118Q2.5652 14.7836 2.20096 14.8376Q1.83671 14.8917 1.47026 14.9278Q1.1038 14.9639 0.736015 14.9819Q0.368229 15 0 15Q10 0 0 -15Z"/>
	<path fill="none" stroke="#CFCFCF" stroke-width="3" stroke-linejoin="round" transform="matrix(0.77186 1.2021 -1.2021 0.77186 55 47.8571)" d="M0 -15Q0.368229 -15 0.736015 -14.9819Q1.1038 -14.9639 1.47026 -14.9278Q1.83671 -14.8917 2.20096 -14.8376Q2.5652 -14.7836 2.92635 -14.7118Q3.28751 -14.6399 3.6447 -14.5505Q4.0019 -14.461 4.35427 -14.3541Q4.70664 -14.2472 5.05335 -14.1232Q5.40005 -13.9991 5.74025 -13.8582Q6.08045 -13.7173 6.41333 -13.5598Q6.7462 -13.4024 7.07095 -13.2288Q7.3957 -13.0552 7.71154 -12.8659Q8.02738 -12.6766 8.33355 -12.472Q8.63972 -12.2675 8.93549 -12.0481Q9.23125 -11.8288 9.5159 -11.5952Q9.80054 -11.3616 10.0734 -11.1143Q10.3462 -10.867 10.6066 -10.6066Q10.867 -10.3462 11.1143 -10.0734Q11.3616 -9.80054 11.5952 -9.5159Q11.8288 -9.23125 12.0481 -8.93549Q12.2675 -8.63972 12.472 -8.33355Q12.6766 -8.02738 12.8659 -7.71154Q13.0552 -7.3957 13.2288 -7.07095Q13.4024 -6.7462 13.5598 -6.41333Q13.7173 -6.08045 13.8582 -5.74025Q13.9991 -5.40005 14.1232 -5.05335Q14.2472 -4.70664 14.3541 -4.35427Q14.461 -4.0019 14.5505 -3.6447Q14.6399 -3.28751 14.7118 -2.92635Q14.7836 -2.5652 14.8376 -2.20096Q14.8917 -1.83671 14.9278 -1.47026Q14.9639 -1.1038 14.9819 -0.736015Q15 -0.368229 15 0Q15 0.368229 14.9819 0.736015Q14.9639 1.1038 14.9278 1.47026Q14.8917 1.83671 14.8376 2.20096Q14.7836 2.5652 14.7118 2.92635Q14.6399 3.28751 14.5505 3.6447Q14.461 4.0019 14.3541 4.35427Q14.2472 4.70664 14.1232 5.05335Q13.9991 5.40005 13.8582 5.74025Q13.7173 6.08045 13.5598 6.41333Q13.4024 6.7462 13.2288 7.07095Q13.0552 7.3957 12.8659 7.71154Q12.6766 8.02738 12.472 8.33355Q12.2675 8.63972 12.0481 8.93549Q11.8288 9.23125 11.5952 9.5159Q11.3616 9.80054 11.1143 10.0734Q10.867 10.3462 10.6066 10.6066Q10.3462 10.867 10.0734 11.1143Q9.80054 11.3616 9.5159 11.5952Q9.23125 11.8288 8.93549 12.0481Q8.63972 12.2675 8.33355 12.472Q8.02738 12.6766 7.71154 12.8659Q7.3957 13.0552 7.07095 13.2288Q6.7462 13.4024 6.41333 13.5598Q6.08045 13.7173 5.74025 13.8582Q5.40005 13.9991 5.05335 14.1232Q4.70664 14.2472 4.35427 14.3541Q4.0019 14.461 3.6447 14.5505Q3.28751 14.6399 2.92635 14.7118Q2.5652 14.7836 2.20096 14.8376Q1.83671 14.8917 1.47026 14.9278Q1.1038 14.9639 0.736015 14.9819Q0.368229 15 0 15Q10 0 0 -15Z"/>
	<path fill="none" stroke="black" stroke-width="2.3999999" stroke-linejoin="round" transform="translate(55 79.2857)" d="M-13.3015 -4.94793Q-13.0623 -4.12762 -12.7742 -3.09734Q-12.4812 -2.07195 -12.1541 -0.968438Q-11.822 0.130195 -11.4802 1.23371Q-11.1385 2.33234 -10.8211 3.26984Q-10.5623 2.24934 -10.2937 1.05305Q-10.0203 -0.148125 -9.78103 -1.42742Q-9.54177 -2.7116 -9.31228 -3.98113Q-9.0779 -5.25066 -8.87771 -6.4323L-5.6404 -6.4323Q-6.33865 -2.95086 -7.25173 0.633125Q-8.15993 4.21223 -9.21951 7.43L-12.0808 7.43Q-12.7791 5.51105 -13.4431 3.40168Q-14.1023 1.2923 -14.742 -0.831719Q-15.3816 1.2923 -16.0213 3.40168Q-16.6609 5.51105 -17.3592 7.43L-20.2205 7.43Q-21.2801 4.21223 -22.1931 0.633125Q-23.1013 -2.95086 -23.7996 -6.4323L-20.4207 -6.4323Q-20.2205 -5.25066 -19.9812 -3.98113Q-19.742 -2.7116 -19.4832 -1.42742Q-19.2195 -0.148125 -18.951 1.05305Q-18.6824 2.24934 -18.3992 3.26984Q-18.0379 2.2884 -17.701 1.18977Q-17.3592 0.0911326 -17.0418 -1.0075Q-16.7195 -2.11102 -16.451 -3.13152Q-16.1824 -4.15203 -15.9578 -4.94793L-13.3015 -4.94793ZM-0.860115 7.43L-3.83863 7.43L-3.83863 -3.08758L-0.860115 -3.08758L-0.860115 7.43ZM-0.581795 -6.12957Q-0.581795 -5.30926 -1.11402 -4.84051Q-1.64137 -4.37176 -2.35914 -4.37176Q-3.08179 -4.37176 -3.61402 -4.84051Q-4.14137 -5.30926 -4.14137 -6.12957Q-4.14137 -6.94988 -3.61402 -7.41863Q-3.08179 -7.89227 -2.35914 -7.89227Q-1.64137 -7.89227 -1.11402 -7.41863Q-0.581795 -6.94988 -0.581795 -6.12957ZM1.94137 -2.73113Q2.6982 -2.95086 3.89938 -3.14129Q5.10055 -3.33172 6.41891 -3.33172Q7.76168 -3.33172 8.65035 -2.98016Q9.53902 -2.62859 10.0566 -1.98895Q10.5791 -1.3493 10.7988 -0.470391Q11.0185 0.408515 11.0185 1.48762L11.0185 7.43L8.04 7.43L8.04 1.84895Q8.04 0.408515 7.65914 -0.187188Q7.27828 -0.787774 6.23824 -0.787774Q5.92086 -0.787774 5.55953 -0.758477Q5.1982 -0.72918 4.91988 -0.690117L4.91988 7.43L1.94137 7.43L1.94137 -2.73113ZM16.2604 1.82941Q16.2604 4.32941 18.2819 4.32941Q18.7409 4.32941 19.1413 4.21223Q19.5417 4.09016 19.82 3.92902L19.82 -0.831719Q19.6003 -0.870781 19.2975 -0.900078Q18.9997 -0.929375 18.5993 -0.929375Q17.4176 -0.929375 16.8366 -0.148125Q16.2604 0.628242 16.2604 1.82941ZM22.7985 6.11164Q22.7985 8.68977 21.4899 9.93977Q20.1813 11.1898 17.4421 11.1898Q16.4801 11.1898 15.5182 11.0189Q14.5612 10.848 13.7409 10.5696L14.2585 8.06965Q14.9616 8.34797 15.7282 8.5091Q16.4997 8.67023 17.4811 8.67023Q18.7604 8.67023 19.2878 8.10871Q19.82 7.55207 19.82 6.66828L19.82 6.2923Q19.3415 6.51203 18.8288 6.62434Q18.321 6.73176 17.7204 6.73176Q15.5378 6.73176 14.3756 5.4427Q13.2184 4.14875 13.2184 1.82941Q13.2184 0.672187 13.5798 -0.279961Q13.9411 -1.23211 14.6296 -1.91082Q15.318 -2.58953 16.319 -2.96063Q17.32 -3.33172 18.5798 -3.33172Q19.1217 -3.33172 19.6881 -3.27801Q20.2594 -3.22918 20.8161 -3.14617Q21.3776 -3.06805 21.8854 -2.95574Q22.3981 -2.84832 22.7985 -2.73113L22.7985 6.11164Z"/>
	<path fill="white" transform="translate(55 79.2857)" d="M-13.3015 -4.94793Q-13.0623 -4.12762 -12.7742 -3.09734Q-12.4812 -2.07195 -12.1541 -0.968438Q-11.822 0.130195 -11.4802 1.23371Q-11.1385 2.33234 -10.8211 3.26984Q-10.5623 2.24934 -10.2937 1.05305Q-10.0203 -0.148125 -9.78103 -1.42742Q-9.54177 -2.7116 -9.31228 -3.98113Q-9.0779 -5.25066 -8.87771 -6.4323L-5.6404 -6.4323Q-6.33865 -2.95086 -7.25173 0.633125Q-8.15993 4.21223 -9.21951 7.43L-12.0808 7.43Q-12.7791 5.51105 -13.4431 3.40168Q-14.1023 1.2923 -14.742 -0.831719Q-15.3816 1.2923 -16.0213 3.40168Q-16.6609 5.51105 -17.3592 7.43L-20.2205 7.43Q-21.2801 4.21223 -22.1931 0.633125Q-23.1013 -2.95086 -23.7996 -6.4323L-20.4207 -6.4323Q-20.2205 -5.25066 -19.9812 -3.98113Q-19.742 -2.7116 -19.4832 -1.42742Q-19.2195 -0.148125 -18.951 1.05305Q-18.6824 2.24934 -18.3992 3.26984Q-18.0379 2.2884 -17.701 1.18977Q-17.3592 0.0911326 -17.0418 -1.0075Q-16.7195 -2.11102 -16.451 -3.13152Q-16.1824 -4.15203 -15.9578 -4.94793L-13.3015 -4.94793ZM-0.860115 7.43L-3.83863 7.43L-3.83863 -3.08758L-0.860115 -3.08758L-0.860115 7.43ZM-0.581795 -6.12957Q-0.581795 -5.30926 -1.11402 -4.84051Q-1.64137 -4.37176 -2.35914 -4.37176Q-3.08179 -4.37176 -3.61402 -4.84051Q-4.14137 -5.30926 -4.14137 -6.12957Q-4.14137 -6.94988 -3.61402 -7.41863Q-3.08179 -7.89227 -2.35914 -7.89227Q-1.64137 -7.89227 -1.11402 -7.41863Q-0.581795 -6.94988 -0.581795 -6.12957ZM1.94137 -2.73113Q2.6982 -2.95086 3.89938 -3.14129Q5.10055 -3.33172 6.41891 -3.33172Q7.76168 -3.33172 8.65035 -2.98016Q9.53902 -2.62859 10.0566 -1.98895Q10.5791 -1.3493 10.7988 -0.470391Q11.0185 0.408515 11.0185 1.48762L11.0185 7.43L8.04 7.43L8.04 1.84895Q8.04 0.408515 7.65914 -0.187188Q7.27828 -0.787774 6.23824 -0.787774Q5.92086 -0.787774 5.55953 -0.758477Q5.1982 -0.72918 4.91988 -0.690117L4.91988 7.43L1.94137 7.43L1.94137 -2.73113ZM16.2604 1.82941Q16.2604 4.32941 18.2819 4.32941Q18.7409 4.32941 19.1413 4.21223Q19.5417 4.09016 19.82 3.92902L19.82 -0.831719Q19.6003 -0.870781 19.2975 -0.900078Q18.9997 -0.929375 18.5993 -0.929375Q17.4176 -0.929375 16.8366 -0.148125Q16.2604 0.628242 16.2604 1.82941ZM22.7985 6.11164Q22.7985 8.68977 21.4899 9.93977Q20.1813 11.1898 17.4421 11.1898Q16.4801 11.1898 15.5182 11.0189Q14.5612 10.848 13.7409 10.5696L14.2585 8.06965Q14.9616 8.34797 15.7282 8.5091Q16.4997 8.67023 17.4811 8.67023Q18.7604 8.67023 19.2878 8.10871Q19.82 7.55207 19.82 6.66828L19.82 6.2923Q19.3415 6.51203 18.8288 6.62434Q18.321 6.73176 17.7204 6.73176Q15.5378 6.73176 14.3756 5.4427Q13.2184 4.14875 13.2184 1.82941Q13.2184 0.672187 13.5798 -0.279961Q13.9411 -1.23211 14.6296 -1.91082Q15.318 -2.58953 16.319 -2.96063Q17.32 -3.33172 18.5798 -3.33172Q19.1217 -3.33172 19.6881 -3.27801Q20.2594 -3.22918 20.8161 -3.14617Q21.3776 -3.06805 21.8854 -2.95574Q22.3981 -2.84832 22.7985 -2.73113L22.7985 6.11164Z"/>
</svg>
