<?xml version="1.0" encoding="utf-8" ?>
<svg xmlns="http://www.w3.org/2000/svg" xmlns:xlink="http://www.w3.org/1999/xlink" width="110" height="110">
	<path fill="#3E42B8" transform="matrix(0.167411 0 0 0.167411 12.1429 21.7411)" d="M257.617 20.717C250.534 20.706 243.375 21.165 236.148 22.064C204.948 25.934 177.071 38.41 153.582 61.574C134.992 79.897 122.652 102.357 119.782 129.848C116.373 162.838 126.767 191.008 147.9 214.039C154.692 221.425 157.695 228.621 157.508 239.069C157.211 255.497 158.482 271.951 159.158 289.377C180.185 276.956 200.372 264.993 220.832 252.897C233.008 274.275 244.887 295.167 257.311 316.873C269.459 295.356 281.205 274.573 293.137 253.629C312.89 265.429 332.377 277.089 352.51 289.186C353.024 272.246 354.243 256.387 353.756 240.586C353.403 229.516 355.569 220.91 364.012 214.363C366.689 212.28 368.719 209.007 370.857 206.055C391.425 177.449 398.569 145.707 388.017 110.557C378.247 78.055 357.246 55.862 330.318 40.195C307.252 26.79 282.915 20.755 257.618 20.717L257.617 20.717ZM340.416 125.924C358.358 125.79 366.58 136.994 362.82 156.398C358.467 178.777 339.9 195.121 320.146 194.066C298.766 192.927 281.451 175.311 279.121 152.174C278.935 150.363 279.556 147.576 280.721 146.627C291.379 138.022 326.425 126.034 340.416 125.924ZM175.262 125.954C188.979 126.819 204.756 133.502 220.346 140.864C222.643 141.971 224.754 143.649 227.109 144.328C232.956 145.979 233.197 150.441 232.359 155.638C228.599 177.855 209.355 195.122 189.574 194.039C167.141 192.821 149.982 174.77 148.412 150.688C147.329 134.098 155.178 125.736 175.262 125.953L175.262 125.954ZM255.877 182.51C263.317 200.724 270.297 217.745 277.523 235.44L234.336 235.44C241.48 217.852 248.488 200.803 255.876 182.51L255.877 182.51Z"/>
	<path fill="none" stroke="black" stroke-width="1.7142856" stroke-linejoin="round" transform="translate(55 79.2857)" d="M-31.6242 5.50594Q-34.0377 5.50594 -35.3037 4.16317Q-36.5663 2.8204 -36.5663 0.351088Q-36.5663 -0.880078 -36.1826 -1.84269Q-35.7955 -2.80879 -35.1259 -3.47146Q-34.4527 -4.13412 -33.525 -4.47592Q-32.5973 -4.82121 -31.5091 -4.82121Q-30.8813 -4.82121 -30.3686 -4.72704Q-29.8524 -4.63636 -29.4688 -4.51429Q-29.0816 -4.39222 -28.8235 -4.26317Q-28.5654 -4.13412 -28.4538 -4.06437L-29.0956 -2.2647Q-29.5525 -2.50884 -30.1593 -2.67974Q-30.7662 -2.85064 -31.537 -2.85064Q-32.0532 -2.85064 -32.5449 -2.67974Q-33.0367 -2.50884 -33.4169 -2.12868Q-33.797 -1.74852 -34.0272 -1.14863Q-34.2539 -0.548745 -34.2539 0.305748Q-34.2539 0.992829 -34.104 1.58574Q-33.954 2.17866 -33.6192 2.60765Q-33.2808 3.03663 -32.7402 3.28775Q-32.1962 3.53538 -31.4254 3.53538Q-30.9371 3.53538 -30.5534 3.47958Q-30.1663 3.42028 -29.8664 3.34355Q-29.5664 3.26334 -29.3397 3.16568Q-29.1095 3.06454 -28.9247 2.97734L-28.3108 4.76306Q-28.7817 5.04905 -29.6397 5.27924Q-30.4942 5.50594 -31.6242 5.50594ZM-19.9983 1.53691Q-19.9983 2.4228 -20.2563 3.15871Q-20.5144 3.89113 -20.9992 4.41429Q-21.484 4.93744 -22.1641 5.22344Q-22.8407 5.50594 -23.6848 5.50594Q-24.5114 5.50594 -25.1915 5.22344Q-25.8716 4.93744 -26.3564 4.41429Q-26.8412 3.89113 -27.1132 3.15871Q-27.3853 2.4228 -27.3853 1.53691Q-27.3853 0.651032 -27.1062 -0.0779018Q-26.8272 -0.806836 -26.3354 -1.31953Q-25.8402 -1.83571 -25.1636 -2.12171Q-24.4835 -2.4077 -23.6848 -2.4077Q-22.8687 -2.4077 -22.192 -2.12171Q-21.5119 -1.83571 -21.0271 -1.31953Q-20.5423 -0.806836 -20.2703 -0.0779018Q-19.9983 0.651032 -19.9983 1.53691ZM-22.1711 1.53691Q-22.1711 0.549888 -22.5652 -0.0151229Q-22.9558 -0.580134 -23.6848 -0.580134Q-24.4137 -0.580134 -24.8148 -0.0151229Q-25.2124 0.549888 -25.2124 1.53691Q-25.2124 2.52045 -24.8148 3.09941Q-24.4137 3.67838 -23.6848 3.67838Q-22.9558 3.67838 -22.5652 3.09941Q-22.1711 2.52045 -22.1711 1.53691ZM-13.8302 -0.322042Q-14.1162 -0.391797 -14.5034 -0.468527Q-14.887 -0.548745 -15.3299 -0.548745Q-15.5287 -0.548745 -15.8078 -0.513867Q-16.0868 -0.47899 -16.2298 -0.437137L-16.2298 5.30714L-18.3573 5.30714L-18.3573 -1.80781Q-17.7853 -2.00661 -17.0075 -2.18449Q-16.2298 -2.36585 -15.2741 -2.36585Q-15.0998 -2.36585 -14.8591 -2.34143Q-14.615 -2.32051 -14.3743 -2.28563Q-14.1302 -2.25075 -13.8895 -2.19844Q-13.6454 -2.14961 -13.471 -2.07985L-13.8302 -0.322042ZM-7.80352 -0.322042Q-8.08951 -0.391797 -8.47665 -0.468527Q-8.8603 -0.548745 -9.30324 -0.548745Q-9.50204 -0.548745 -9.78106 -0.513867Q-10.0601 -0.47899 -10.2031 -0.437137L-10.2031 5.30714L-12.3306 5.30714L-12.3306 -1.80781Q-11.7586 -2.00661 -10.9808 -2.18449Q-10.2031 -2.36585 -9.24743 -2.36585Q-9.07305 -2.36585 -8.8324 -2.34143Q-8.58825 -2.32051 -8.3476 -2.28563Q-8.10346 -2.25075 -7.86281 -2.19844Q-7.61867 -2.14961 -7.44428 -2.07985L-7.80352 -0.322042ZM0.110044 5.04905Q-0.434041 5.206 -1.29202 5.34202Q-2.14651 5.47804 -3.09169 5.47804Q-4.04732 5.47804 -4.68558 5.22344Q-5.32034 4.96535 -5.69353 4.50148Q-6.06323 4.03412 -6.22017 3.39238Q-6.37712 2.75064 -6.37712 1.97985L-6.37712 -2.20541L-4.24612 -2.20541L-4.24612 1.72176Q-4.24612 2.75064 -3.97757 3.20753Q-3.70552 3.66443 -2.96264 3.66443Q-2.73245 3.66443 -2.47785 3.6435Q-2.21976 3.62257 -2.01747 3.59118L-2.01747 -2.20541L0.110044 -2.20541L0.110044 5.04905ZM6.92085 1.60667Q6.92085 0.62313 6.47791 0.0302176Q6.03496 -0.562696 5.16303 -0.562696Q4.87704 -0.562696 4.6329 -0.541769Q4.39225 -0.520843 4.2353 -0.492941L4.2353 3.35053Q4.4341 3.47958 4.75497 3.56677Q5.07933 3.65047 5.40717 3.65047Q6.92085 3.65047 6.92085 1.60667ZM9.0937 1.55086Q9.0937 2.4228 8.87746 3.13778Q8.66471 3.84927 8.24967 4.36546Q7.83463 4.87815 7.22079 5.16415Q6.60695 5.45014 5.80826 5.45014Q5.36532 5.45014 4.97818 5.36295Q4.59105 5.27924 4.2353 5.12229L4.2353 7.95084L2.10779 7.95084L2.10779 -1.95081Q2.39378 -2.03451 2.76348 -2.11124Q3.13667 -2.19146 3.54124 -2.24727Q3.94931 -2.30656 4.37132 -2.34143Q4.79333 -2.3798 5.17698 -2.3798Q6.10821 -2.3798 6.83365 -2.10078Q7.56259 -1.82176 8.06133 -1.31256Q8.56356 -0.806836 8.82863 -0.0779018Q9.0937 0.651032 9.0937 1.55086ZM10.6604 -4.07832L12.7914 -4.42012L12.7914 -2.20541L15.3479 -2.20541L15.3479 -0.437137L12.7914 -0.437137L12.7914 2.20656Q12.7914 2.87969 13.0251 3.28078Q13.2623 3.67838 13.9773 3.67838Q14.3191 3.67838 14.6818 3.6156Q15.048 3.54933 15.3479 3.43424L15.6479 5.09439Q15.2607 5.25134 14.7899 5.36295Q14.3191 5.47804 13.632 5.47804Q12.76 5.47804 12.1881 5.24436Q11.6196 5.0072 11.2743 4.58518Q10.9325 4.16317 10.7965 3.56328Q10.6604 2.96339 10.6604 2.23446L10.6604 -4.07832ZM19.2021 5.30714L17.0746 5.30714L17.0746 -2.20541L19.2021 -2.20541L19.2021 5.30714ZM19.4009 -4.37826Q19.4009 -3.79233 19.0207 -3.45751Q18.644 -3.12268 18.1313 -3.12268Q17.6152 -3.12268 17.235 -3.45751Q16.8583 -3.79233 16.8583 -4.37826Q16.8583 -4.9642 17.235 -5.29902Q17.6152 -5.63733 18.1313 -5.63733Q18.644 -5.63733 19.0207 -5.29902Q19.4009 -4.9642 19.4009 -4.37826ZM28.2296 1.53691Q28.2296 2.4228 27.9715 3.15871Q27.7134 3.89113 27.2286 4.41429Q26.7438 4.93744 26.0637 5.22344Q25.3871 5.50594 24.5431 5.50594Q23.7165 5.50594 23.0364 5.22344Q22.3563 4.93744 21.8715 4.41429Q21.3867 3.89113 21.1147 3.15871Q20.8426 2.4228 20.8426 1.53691Q20.8426 0.651032 21.1216 -0.0779018Q21.4006 -0.806836 21.8924 -1.31953Q22.3877 -1.83571 23.0643 -2.12171Q23.7444 -2.4077 24.5431 -2.4077Q25.3592 -2.4077 26.0358 -2.12171Q26.7159 -1.83571 27.2007 -1.31953Q27.6855 -0.806836 27.9576 -0.0779018Q28.2296 0.651032 28.2296 1.53691ZM26.0568 1.53691Q26.0568 0.549888 25.6626 -0.0151229Q25.272 -0.580134 24.5431 -0.580134Q23.8141 -0.580134 23.4131 -0.0151229Q23.0155 0.549888 23.0155 1.53691Q23.0155 2.52045 23.4131 3.09941Q23.8141 3.67838 24.5431 3.67838Q25.272 3.67838 25.6626 3.09941Q26.0568 2.52045 26.0568 1.53691ZM29.8706 -1.95081Q30.4112 -2.10776 31.2692 -2.24378Q32.1271 -2.3798 33.0688 -2.3798Q34.0279 -2.3798 34.6627 -2.12868Q35.2975 -1.87757 35.6672 -1.42068Q36.0404 -0.963784 36.1973 -0.335993Q36.3543 0.291797 36.3543 1.06258L36.3543 5.30714L34.2267 5.30714L34.2267 1.32068Q34.2267 0.291797 33.9547 -0.133706Q33.6827 -0.562696 32.9398 -0.562696Q32.7131 -0.562696 32.455 -0.541769Q32.1969 -0.520843 31.9981 -0.492941L31.9981 5.30714L29.8706 5.30714L29.8706 -1.95081Z"/>
	<path fill="white" transform="translate(55 79.2857)" d="M-31.6242 5.50594Q-34.0377 5.50594 -35.3037 4.16317Q-36.5663 2.8204 -36.5663 0.351088Q-36.5663 -0.880078 -36.1826 -1.84269Q-35.7955 -2.80879 -35.1259 -3.47146Q-34.4527 -4.13412 -33.525 -4.47592Q-32.5973 -4.82121 -31.5091 -4.82121Q-30.8813 -4.82121 -30.3686 -4.72704Q-29.8524 -4.63636 -29.4688 -4.51429Q-29.0816 -4.39222 -28.8235 -4.26317Q-28.5654 -4.13412 -28.4538 -4.06437L-29.0956 -2.2647Q-29.5525 -2.50884 -30.1593 -2.67974Q-30.7662 -2.85064 -31.537 -2.85064Q-32.0532 -2.85064 -32.5449 -2.67974Q-33.0367 -2.50884 -33.4169 -2.12868Q-33.797 -1.74852 -34.0272 -1.14863Q-34.2539 -0.548745 -34.2539 0.305748Q-34.2539 0.992829 -34.104 1.58574Q-33.954 2.17866 -33.6192 2.60765Q-33.2808 3.03663 -32.7402 3.28775Q-32.1962 3.53538 -31.4254 3.53538Q-30.9371 3.53538 -30.5534 3.47958Q-30.1663 3.42028 -29.8664 3.34355Q-29.5664 3.26334 -29.3397 3.16568Q-29.1095 3.06454 -28.9247 2.97734L-28.3108 4.76306Q-28.7817 5.04905 -29.6397 5.27924Q-30.4942 5.50594 -31.6242 5.50594ZM-19.9983 1.53691Q-19.9983 2.4228 -20.2563 3.15871Q-20.5144 3.89113 -20.9992 4.41429Q-21.484 4.93744 -22.1641 5.22344Q-22.8407 5.50594 -23.6848 5.50594Q-24.5114 5.50594 -25.1915 5.22344Q-25.8716 4.93744 -26.3564 4.41429Q-26.8412 3.89113 -27.1132 3.15871Q-27.3853 2.4228 -27.3853 1.53691Q-27.3853 0.651032 -27.1062 -0.0779018Q-26.8272 -0.806836 -26.3354 -1.31953Q-25.8402 -1.83571 -25.1636 -2.12171Q-24.4835 -2.4077 -23.6848 -2.4077Q-22.8687 -2.4077 -22.192 -2.12171Q-21.5119 -1.83571 -21.0271 -1.31953Q-20.5423 -0.806836 -20.2703 -0.0779018Q-19.9983 0.651032 -19.9983 1.53691ZM-22.1711 1.53691Q-22.1711 0.549888 -22.5652 -0.0151229Q-22.9558 -0.580134 -23.6848 -0.580134Q-24.4137 -0.580134 -24.8148 -0.0151229Q-25.2124 0.549888 -25.2124 1.53691Q-25.2124 2.52045 -24.8148 3.09941Q-24.4137 3.67838 -23.6848 3.67838Q-22.9558 3.67838 -22.5652 3.09941Q-22.1711 2.52045 -22.1711 1.53691ZM-13.8302 -0.322042Q-14.1162 -0.391797 -14.5034 -0.468527Q-14.887 -0.548745 -15.3299 -0.548745Q-15.5287 -0.548745 -15.8078 -0.513867Q-16.0868 -0.47899 -16.2298 -0.437137L-16.2298 5.30714L-18.3573 5.30714L-18.3573 -1.80781Q-17.7853 -2.00661 -17.0075 -2.18449Q-16.2298 -2.36585 -15.2741 -2.36585Q-15.0998 -2.36585 -14.8591 -2.34143Q-14.615 -2.32051 -14.3743 -2.28563Q-14.1302 -2.25075 -13.8895 -2.19844Q-13.6454 -2.14961 -13.471 -2.07985L-13.8302 -0.322042ZM-7.80352 -0.322042Q-8.08951 -0.391797 -8.47665 -0.468527Q-8.8603 -0.548745 -9.30324 -0.548745Q-9.50204 -0.548745 -9.78106 -0.513867Q-10.0601 -0.47899 -10.2031 -0.437137L-10.2031 5.30714L-12.3306 5.30714L-12.3306 -1.80781Q-11.7586 -2.00661 -10.9808 -2.18449Q-10.2031 -2.36585 -9.24743 -2.36585Q-9.07305 -2.36585 -8.8324 -2.34143Q-8.58825 -2.32051 -8.3476 -2.28563Q-8.10346 -2.25075 -7.86281 -2.19844Q-7.61867 -2.14961 -7.44428 -2.07985L-7.80352 -0.322042ZM0.110044 5.04905Q-0.434041 5.206 -1.29202 5.34202Q-2.14651 5.47804 -3.09169 5.47804Q-4.04732 5.47804 -4.68558 5.22344Q-5.32034 4.96535 -5.69353 4.50148Q-6.06323 4.03412 -6.22017 3.39238Q-6.37712 2.75064 -6.37712 1.97985L-6.37712 -2.20541L-4.24612 -2.20541L-4.24612 1.72176Q-4.24612 2.75064 -3.97757 3.20753Q-3.70552 3.66443 -2.96264 3.66443Q-2.73245 3.66443 -2.47785 3.6435Q-2.21976 3.62257 -2.01747 3.59118L-2.01747 -2.20541L0.110044 -2.20541L0.110044 5.04905ZM6.92085 1.60667Q6.92085 0.62313 6.47791 0.0302176Q6.03496 -0.562696 5.16303 -0.562696Q4.87704 -0.562696 4.6329 -0.541769Q4.39225 -0.520843 4.2353 -0.492941L4.2353 3.35053Q4.4341 3.47958 4.75497 3.56677Q5.07933 3.65047 5.40717 3.65047Q6.92085 3.65047 6.92085 1.60667ZM9.0937 1.55086Q9.0937 2.4228 8.87746 3.13778Q8.66471 3.84927 8.24967 4.36546Q7.83463 4.87815 7.22079 5.16415Q6.60695 5.45014 5.80826 5.45014Q5.36532 5.45014 4.97818 5.36295Q4.59105 5.27924 4.2353 5.12229L4.2353 7.95084L2.10779 7.95084L2.10779 -1.95081Q2.39378 -2.03451 2.76348 -2.11124Q3.13667 -2.19146 3.54124 -2.24727Q3.94931 -2.30656 4.37132 -2.34143Q4.79333 -2.3798 5.17698 -2.3798Q6.10821 -2.3798 6.83365 -2.10078Q7.56259 -1.82176 8.06133 -1.31256Q8.56356 -0.806836 8.82863 -0.0779018Q9.0937 0.651032 9.0937 1.55086ZM10.6604 -4.07832L12.7914 -4.42012L12.7914 -2.20541L15.3479 -2.20541L15.3479 -0.437137L12.7914 -0.437137L12.7914 2.20656Q12.7914 2.87969 13.0251 3.28078Q13.2623 3.67838 13.9773 3.67838Q14.3191 3.67838 14.6818 3.6156Q15.048 3.54933 15.3479 3.43424L15.6479 5.09439Q15.2607 5.25134 14.7899 5.36295Q14.3191 5.47804 13.632 5.47804Q12.76 5.47804 12.1881 5.24436Q11.6196 5.0072 11.2743 4.58518Q10.9325 4.16317 10.7965 3.56328Q10.6604 2.96339 10.6604 2.23446L10.6604 -4.07832ZM19.2021 5.30714L17.0746 5.30714L17.0746 -2.20541L19.2021 -2.20541L19.2021 5.30714ZM19.4009 -4.37826Q19.4009 -3.79233 19.0207 -3.45751Q18.644 -3.12268 18.1313 -3.12268Q17.6152 -3.12268 17.235 -3.45751Q16.8583 -3.79233 16.8583 -4.37826Q16.8583 -4.9642 17.235 -5.29902Q17.6152 -5.63733 18.1313 -5.63733Q18.644 -5.63733 19.0207 -5.29902Q19.4009 -4.9642 19.4009 -4.37826ZM28.2296 1.53691Q28.2296 2.4228 27.9715 3.15871Q27.7134 3.89113 27.2286 4.41429Q26.7438 4.93744 26.0637 5.22344Q25.3871 5.50594 24.5431 5.50594Q23.7165 5.50594 23.0364 5.22344Q22.3563 4.93744 21.8715 4.41429Q21.3867 3.89113 21.1147 3.15871Q20.8426 2.4228 20.8426 1.53691Q20.8426 0.651032 21.1216 -0.0779018Q21.4006 -0.806836 21.8924 -1.31953Q22.3877 -1.83571 23.0643 -2.12171Q23.7444 -2.4077 24.5431 -2.4077Q25.3592 -2.4077 26.0358 -2.12171Q26.7159 -1.83571 27.2007 -1.31953Q27.6855 -0.806836 27.9576 -0.0779018Q28.2296 0.651032 28.2296 1.53691ZM26.0568 1.53691Q26.0568 0.549888 25.6626 -0.0151229Q25.272 -0.580134 24.5431 -0.580134Q23.8141 -0.580134 23.4131 -0.0151229Q23.0155 0.549888 23.0155 1.53691Q23.0155 2.52045 23.4131 3.09941Q23.8141 3.67838 24.5431 3.67838Q25.272 3.67838 25.6626 3.09941Q26.0568 2.52045 26.0568 1.53691ZM29.8706 -1.95081Q30.4112 -2.10776 31.2692 -2.24378Q32.1271 -2.3798 33.0688 -2.3798Q34.0279 -2.3798 34.6627 -2.12868Q35.2975 -1.87757 35.6672 -1.42068Q36.0404 -0.963784 36.1973 -0.335993Q36.3543 0.291797 36.3543 1.06258L36.3543 5.30714L34.2267 5.30714L34.2267 1.32068Q34.2267 0.291797 33.9547 -0.133706Q33.6827 -0.562696 32.9398 -0.562696Q32.7131 -0.562696 32.455 -0.541769Q32.1969 -0.520843 31.9981 -0.492941L31.9981 5.30714L29.8706 5.30714L29.8706 -1.95081Z"/>
</svg>
