<?xml version="1.0" encoding="utf-8" ?>
<svg xmlns="http://www.w3.org/2000/svg" xmlns:xlink="http://www.w3.org/1999/xlink" width="110" height="110">
	<path fill="#42E3F5" transform="matrix(1.42857 0 0 1.42857 55 47.8571)" d="M15 0Q10.2426 4.24264 10.6066 10.6066Q4.24264 10.2426 -6.55671e-07 15Q-4.24264 10.2426 -10.6066 10.6066Q-10.2426 4.24264 -15 -1.31134e-06Q-10.2426 -4.24264 -10.6066 -10.6066Q-4.24264 -10.2426 1.78873e-07 -15Q4.24264 -10.2426 10.6066 -10.6066Q10.2426 -4.24264 15 2.62268e-06L15 0Z"/>
	<path fill="#35B8C6" transform="matrix(1.42857 0 0 1.42857 55 47.8571)" d="M15.9984 1.11949Q11.7815 4.88008 12.1042 10.521Q12.1084 10.5945 12.1053 10.6682Q12.1023 10.7418 12.0921 10.8148Q12.0819 10.8877 12.0645 10.9594Q12.0472 11.031 12.0229 11.1006Q11.9987 11.1701 11.9677 11.237Q11.9367 11.3039 11.8994 11.3674Q11.862 11.4309 11.8186 11.4904Q11.7751 11.55 11.7261 11.605Q11.677 11.66 11.6228 11.7099Q11.5686 11.7598 11.5098 11.8042Q11.451 11.8486 11.3881 11.887Q11.3252 11.9253 11.2588 11.9574Q11.1925 11.9894 11.1233 12.0148Q11.0541 12.0402 10.9828 12.0587Q10.9114 12.0772 10.8386 12.0885Q10.7658 12.0999 10.6922 12.1042Q10.6066 12.1091 10.521 12.1042Q4.88008 11.7815 1.11949 15.9984Q1.07044 16.0534 1.01624 16.1033Q0.962041 16.1532 0.903207 16.1976Q0.844374 16.242 0.781474 16.2803Q0.718575 16.3187 0.652215 16.3508Q0.585855 16.3828 0.516674 16.4082Q0.447494 16.4336 0.376158 16.4521Q0.304823 16.4705 0.232019 16.4819Q0.159216 16.4933 0.0856457 16.4976Q0.0120757 16.5018 -0.0615525 16.4987Q-0.135181 16.4957 -0.208158 16.4855Q-0.281135 16.4753 -0.352759 16.4579Q-0.424382 16.4406 -0.493962 16.4163Q-0.563542 16.3921 -0.630409 16.3611Q-0.697275 16.3301 -0.760784 16.2928Q-0.824293 16.2554 -0.883833 16.212Q-0.943372 16.1685 -0.998369 16.1195Q-1.06239 16.0624 -1.11949 15.9984Q-4.88008 11.7815 -10.521 12.1042Q-10.5945 12.1084 -10.6682 12.1053Q-10.7418 12.1023 -10.8148 12.0921Q-10.8877 12.0819 -10.9594 12.0645Q-11.031 12.0472 -11.1006 12.0229Q-11.1701 11.9987 -11.237 11.9677Q-11.3039 11.9367 -11.3674 11.8994Q-11.4309 11.862 -11.4904 11.8186Q-11.55 11.7751 -11.605 11.7261Q-11.66 11.677 -11.7099 11.6228Q-11.7598 11.5686 -11.8042 11.5098Q-11.8486 11.451 -11.887 11.3881Q-11.9253 11.3252 -11.9574 11.2588Q-11.9894 11.1925 -12.0148 11.1233Q-12.0402 11.0541 -12.0587 10.9828Q-12.0772 10.9114 -12.0885 10.8386Q-12.0999 10.7658 -12.1042 10.6922Q-12.1091 10.6066 -12.1042 10.521Q-11.7815 4.88008 -15.9984 1.11949Q-16.0534 1.07044 -16.1033 1.01624Q-16.1532 0.962041 -16.1976 0.903207Q-16.242 0.844373 -16.2803 0.781474Q-16.3187 0.718574 -16.3508 0.652214Q-16.3828 0.585855 -16.4082 0.516674Q-16.4336 0.447493 -16.4521 0.376158Q-16.4705 0.304822 -16.4819 0.232019Q-16.4933 0.159215 -16.4976 0.0856451Q-16.5018 0.012075 -16.4987 -0.0615532Q-16.4957 -0.135181 -16.4855 -0.208159Q-16.4753 -0.281136 -16.4579 -0.35276Q-16.4406 -0.424383 -16.4163 -0.493963Q-16.3921 -0.563543 -16.3611 -0.630409Q-16.3301 -0.697276 -16.2928 -0.760785Q-16.2554 -0.824294 -16.212 -0.883833Q-16.1685 -0.943373 -16.1195 -0.99837Q-16.0624 -1.06239 -15.9984 -1.11949Q-11.7815 -4.88007 -12.1042 -10.521Q-12.1084 -10.5945 -12.1053 -10.6682Q-12.1023 -10.7418 -12.0921 -10.8148Q-12.0819 -10.8877 -12.0645 -10.9594Q-12.0472 -11.031 -12.0229 -11.1006Q-11.9987 -11.1701 -11.9677 -11.237Q-11.9367 -11.3039 -11.8994 -11.3674Q-11.862 -11.4309 -11.8186 -11.4904Q-11.7751 -11.55 -11.7261 -11.605Q-11.677 -11.66 -11.6228 -11.7099Q-11.5686 -11.7598 -11.5098 -11.8042Q-11.451 -11.8486 -11.3881 -11.887Q-11.3252 -11.9253 -11.2588 -11.9574Q-11.1925 -11.9894 -11.1233 -12.0148Q-11.0541 -12.0402 -10.9828 -12.0587Q-10.9114 -12.0771 -10.8386 -12.0885Q-10.7658 -12.0999 -10.6922 -12.1042Q-10.6066 -12.1091 -10.521 -12.1042Q-4.88008 -11.7815 -1.11949 -15.9984Q-1.07044 -16.0534 -1.01624 -16.1033Q-0.962042 -16.1532 -0.903208 -16.1976Q-0.844374 -16.242 -0.781475 -16.2803Q-0.718575 -16.3187 -0.652216 -16.3508Q-0.585856 -16.3828 -0.516675 -16.4082Q-0.447494 -16.4336 -0.376159 -16.4521Q-0.304823 -16.4705 -0.23202 -16.4819Q-0.159216 -16.4933 -0.0856463 -16.4976Q-0.0120762 -16.5018 0.061552 -16.4987Q0.13518 -16.4957 0.208157 -16.4855Q0.281135 -16.4753 0.352758 -16.4579Q0.424382 -16.4406 0.493962 -16.4163Q0.563542 -16.3921 0.630408 -16.3611Q0.697275 -16.3301 0.760784 -16.2928Q0.824292 -16.2554 0.883832 -16.212Q0.943372 -16.1685 0.998369 -16.1195Q1.06239 -16.0624 1.11949 -15.9984Q4.88008 -11.7815 10.521 -12.1042Q10.5945 -12.1084 10.6682 -12.1053Q10.7418 -12.1023 10.8148 -12.0921Q10.8877 -12.0819 10.9594 -12.0645Q11.031 -12.0472 11.1006 -12.0229Q11.1701 -11.9987 11.237 -11.9677Q11.3039 -11.9367 11.3674 -11.8994Q11.4309 -11.862 11.4904 -11.8186Q11.55 -11.7751 11.605 -11.7261Q11.66 -11.677 11.7099 -11.6228Q11.7598 -11.5686 11.8042 -11.5098Q11.8486 -11.451 11.887 -11.3881Q11.9253 -11.3252 11.9574 -11.2588Q11.9894 -11.1925 12.0148 -11.1233Q12.0402 -11.0541 12.0587 -10.9828Q12.0771 -10.9114 12.0885 -10.8386Q12.0999 -10.7658 12.1042 -10.6923Q12.1091 -10.6066 12.1042 -10.521Q11.7815 -4.88008 15.9984 -1.11949Q16.0534 -1.07044 16.1033 -1.01624Q16.1532 -0.962039 16.1976 -0.903205Q16.242 -0.844371 16.2803 -0.781472Q16.3187 -0.718572 16.3508 -0.652213Q16.3828 -0.585853 16.4082 -0.516672Q16.4336 -0.447491 16.4521 -0.376156Q16.4705 -0.30482 16.4819 -0.232017Q16.4933 -0.159213 16.4976 -0.0856434Q16.5018 -0.0120734 16.4987 0.0615548Q16.4957 0.135183 16.4855 0.20816Q16.4753 0.281138 16.4579 0.352761Q16.4406 0.424385 16.4163 0.493965Q16.3921 0.563545 16.3611 0.630411Q16.3301 0.697277 16.2928 0.760786Q16.2554 0.824295 16.212 0.883835Q16.1685 0.943374 16.1195 0.998371Q16.0624 1.0624 15.9984 1.11949L15.9984 1.11949ZM14.0016 -1.11949L15 2.62268e-06L14.0016 1.11949Q8.70374 -3.60521 9.10905 -10.6923L10.6066 -10.6066L10.6922 -9.10905Q3.60521 -8.70374 -1.11949 -14.0016L1.78873e-07 -15L1.11949 -14.0016Q-3.60521 -8.70373 -10.6922 -9.10905L-10.6066 -10.6066L-9.10905 -10.6922Q-8.70374 -3.6052 -14.0016 1.11949L-15 -1.31134e-06L-14.0016 -1.11949Q-8.70373 3.60521 -9.10905 10.6922L-10.6066 10.6066L-10.6922 9.10905Q-3.60521 8.70374 1.11949 14.0016L-6.55671e-07 15L-1.11949 14.0016Q3.60521 8.70373 10.6922 9.10905L10.6066 10.6066L9.10905 10.6922Q8.70374 3.60521 14.0016 -1.11949L14.0016 -1.11949Z"/>
	<path fill="#6BE5F2" transform="matrix(1.42857 0 0 1.42857 55 47.8571)" d="M8 0Q8 0.196389 7.99036 0.392541Q7.98073 0.588694 7.96148 0.784137Q7.94223 0.97958 7.91341 1.17384Q7.88459 1.36811 7.84628 1.56072Q7.80797 1.75334 7.76025 1.94384Q7.71253 2.13434 7.65552 2.32228Q7.59851 2.51021 7.53235 2.69512Q7.46619 2.88003 7.39104 3.06147Q7.31588 3.24291 7.23191 3.42044Q7.14795 3.59797 7.05537 3.77117Q6.96279 3.94437 6.86183 4.11282Q6.76086 4.28127 6.65176 4.44456Q6.54265 4.60785 6.42566 4.76559Q6.30867 4.92334 6.18408 5.07515Q6.05949 5.22696 5.92761 5.37247Q5.79572 5.51799 5.65685 5.65685Q5.51799 5.79572 5.37247 5.92761Q5.22696 6.05949 5.07515 6.18408Q4.92334 6.30867 4.76559 6.42566Q4.60785 6.54265 4.44456 6.65176Q4.28127 6.76086 4.11282 6.86183Q3.94437 6.96279 3.77117 7.05537Q3.59797 7.14795 3.42044 7.23191Q3.24291 7.31588 3.06147 7.39104Q2.88003 7.46619 2.69512 7.53235Q2.51021 7.59851 2.32228 7.65552Q2.13434 7.71253 1.94384 7.76025Q1.75334 7.80797 1.56072 7.84628Q1.36811 7.88459 1.17384 7.91341Q0.97958 7.94223 0.784137 7.96148Q0.588694 7.98073 0.392541 7.99036Q0.196389 8 0 8Q-0.196389 8 -0.392541 7.99036Q-0.588694 7.98073 -0.784137 7.96148Q-0.97958 7.94223 -1.17384 7.91341Q-1.36811 7.88459 -1.56072 7.84628Q-1.75334 7.80797 -1.94384 7.76025Q-2.13434 7.71253 -2.32228 7.65552Q-2.51021 7.59851 -2.69512 7.53235Q-2.88003 7.46619 -3.06147 7.39104Q-3.24291 7.31588 -3.42044 7.23191Q-3.59797 7.14795 -3.77117 7.05537Q-3.94437 6.96279 -4.11282 6.86183Q-4.28127 6.76086 -4.44456 6.65176Q-4.60785 6.54265 -4.76559 6.42566Q-4.92334 6.30867 -5.07515 6.18408Q-5.22696 6.05949 -5.37247 5.92761Q-5.51799 5.79572 -5.65685 5.65685Q-5.79572 5.51799 -5.92761 5.37247Q-6.05949 5.22696 -6.18408 5.07515Q-6.30867 4.92334 -6.42566 4.76559Q-6.54265 4.60785 -6.65176 4.44456Q-6.76086 4.28127 -6.86183 4.11282Q-6.96279 3.94437 -7.05537 3.77117Q-7.14795 3.59797 -7.23191 3.42044Q-7.31588 3.24291 -7.39104 3.06147Q-7.46619 2.88003 -7.53235 2.69512Q-7.59851 2.51021 -7.65552 2.32228Q-7.71253 2.13434 -7.76025 1.94384Q-7.80797 1.75334 -7.84628 1.56072Q-7.88459 1.36811 -7.91341 1.17384Q-7.94223 0.97958 -7.96148 0.784137Q-7.98073 0.588694 -7.99036 0.392541Q-8 0.196389 -8 0Q-8 -0.196389 -7.99036 -0.392541Q-7.98073 -0.588694 -7.96148 -0.784137Q-7.94223 -0.97958 -7.91341 -1.17384Q-7.88459 -1.36811 -7.84628 -1.56072Q-7.80797 -1.75334 -7.76025 -1.94384Q-7.71253 -2.13434 -7.65552 -2.32228Q-7.59851 -2.51021 -7.53235 -2.69512Q-7.46619 -2.88003 -7.39104 -3.06147Q-7.31588 -3.24291 -7.23191 -3.42044Q-7.14795 -3.59797 -7.05537 -3.77117Q-6.96279 -3.94437 -6.86183 -4.11282Q-6.76086 -4.28127 -6.65176 -4.44456Q-6.54265 -4.60785 -6.42566 -4.76559Q-6.30867 -4.92334 -6.18408 -5.07515Q-6.05949 -5.22696 -5.92761 -5.37247Q-5.79572 -5.51799 -5.65685 -5.65685Q-5.51799 -5.79572 -5.37247 -5.92761Q-5.22696 -6.05949 -5.07515 -6.18408Q-4.92334 -6.30867 -4.76559 -6.42566Q-4.60785 -6.54265 -4.44456 -6.65176Q-4.28127 -6.76086 -4.11282 -6.86183Q-3.94437 -6.96279 -3.77117 -7.05537Q-3.59797 -7.14795 -3.42044 -7.23191Q-3.24291 -7.31588 -3.06147 -7.39104Q-2.88003 -7.46619 -2.69512 -7.53235Q-2.51021 -7.59851 -2.32228 -7.65552Q-2.13434 -7.71253 -1.94384 -7.76025Q-1.75334 -7.80797 -1.56072 -7.84628Q-1.36811 -7.88459 -1.17384 -7.91341Q-0.97958 -7.94223 -0.784137 -7.96148Q-0.588694 -7.98073 -0.392541 -7.99036Q-0.196389 -8 0 -8Q0.196389 -8 0.392541 -7.99036Q0.588694 -7.98073 0.784137 -7.96148Q0.97958 -7.94223 1.17384 -7.91341Q1.36811 -7.88459 1.56072 -7.84628Q1.75334 -7.80797 1.94384 -7.76025Q2.13434 -7.71253 2.32228 -7.65552Q2.51021 -7.59851 2.69512 -7.53235Q2.88003 -7.46619 3.06147 -7.39104Q3.24291 -7.31588 3.42044 -7.23191Q3.59797 -7.14795 3.77117 -7.05537Q3.94437 -6.96279 4.11282 -6.86183Q4.28127 -6.76086 4.44456 -6.65176Q4.60785 -6.54265 4.76559 -6.42566Q4.92334 -6.30867 5.07515 -6.18408Q5.22696 -6.05949 5.37247 -5.92761Q5.51799 -5.79572 5.65685 -5.65685Q5.79572 -5.51799 5.92761 -5.37247Q6.05949 -5.22696 6.18408 -5.07515Q6.30867 -4.92334 6.42566 -4.76559Q6.54265 -4.60785 6.65176 -4.44456Q6.76086 -4.28127 6.86183 -4.11282Q6.96279 -3.94437 7.05537 -3.77117Q7.14795 -3.59797 7.23191 -3.42044Q7.31588 -3.24291 7.39104 -3.06147Q7.46619 -2.88003 7.53235 -2.69512Q7.59851 -2.51021 7.65552 -2.32228Q7.71253 -2.13434 7.76025 -1.94384Q7.80797 -1.75334 7.84628 -1.56072Q7.88459 -1.36811 7.91341 -1.17384Q7.94223 -0.97958 7.96148 -0.784137Q7.98073 -0.588694 7.99036 -0.392541Q8 -0.196389 8 0"/>
	<path fill="none" stroke="black" stroke-width="2.3999999" stroke-linejoin="round" transform="translate(55 79.2857)" d="M-24.27 7.70832Q-27.6489 7.70832 -29.4214 5.82844Q-31.189 3.94855 -31.189 0.491523Q-31.189 -1.23211 -30.6519 -2.57977Q-30.1099 -3.9323 -29.1724 -4.86004Q-28.23 -5.78777 -26.9312 -6.26629Q-25.6323 -6.74969 -24.1089 -6.74969Q-23.23 -6.74969 -22.5122 -6.61785Q-21.7896 -6.4909 -21.2525 -6.32Q-20.7105 -6.1491 -20.3491 -5.96844Q-19.9878 -5.78777 -19.8316 -5.69012L-20.73 -3.17059Q-21.3697 -3.51238 -22.2193 -3.75164Q-23.0689 -3.9909 -24.148 -3.9909Q-24.8706 -3.9909 -25.5591 -3.75164Q-26.2476 -3.51238 -26.7798 -2.98016Q-27.312 -2.44793 -27.6343 -1.60809Q-27.9517 -0.768242 -27.9517 0.428047Q-27.9517 1.38996 -27.7417 2.22004Q-27.5318 3.05012 -27.063 3.6507Q-26.5894 4.25129 -25.8325 4.60285Q-25.0708 4.94953 -23.9917 4.94953Q-23.3081 4.94953 -22.771 4.87141Q-22.229 4.7884 -21.8091 4.68098Q-21.3892 4.56867 -21.0718 4.43195Q-20.7495 4.29035 -20.4907 4.16828L-19.6314 6.66828Q-20.2906 7.06867 -21.4917 7.39094Q-22.688 7.70832 -24.27 7.70832ZM-13.8101 5.34992Q-13.3706 5.34992 -12.9702 5.33039Q-12.5698 5.31086 -12.3306 5.2718L-12.3306 3.01105Q-12.5112 2.97199 -12.8726 2.93293Q-13.229 2.88898 -13.5317 2.88898Q-13.9517 2.88898 -14.3227 2.9427Q-14.689 2.99152 -14.9722 3.13312Q-15.2505 3.26984 -15.4116 3.5091Q-15.5679 3.74836 -15.5679 4.10969Q-15.5679 4.80793 -15.0991 5.08137Q-14.6304 5.34992 -13.8101 5.34992ZM-14.0493 -3.37078Q-12.7309 -3.37078 -11.852 -3.06805Q-10.9683 -2.7702 -10.4409 -2.20867Q-9.90868 -1.65203 -9.68896 -0.85125Q-9.46923 -0.0504689 -9.46923 0.930976L-9.46923 7.13215Q-10.1089 7.26887 -11.2515 7.4593Q-12.3892 7.64973 -14.0102 7.64973Q-15.0308 7.64973 -15.8608 7.46906Q-16.6909 7.2884 -17.2915 6.87824Q-17.8921 6.46809 -18.2143 5.80891Q-18.5317 5.14973 -18.5317 4.18781Q-18.5317 3.26984 -18.1606 2.6302Q-17.7895 1.99055 -17.1694 1.60969Q-16.5493 1.22883 -15.7485 1.06281Q-14.9477 0.891914 -14.0884 0.891914Q-13.5122 0.891914 -13.063 0.940742Q-12.6089 0.98957 -12.3306 1.0677L-12.3306 0.789375Q-12.3306 0.0276561 -12.7895 -0.431328Q-13.2485 -0.890313 -14.3911 -0.890313Q-15.1479 -0.890313 -15.8901 -0.778008Q-16.6323 -0.670586 -17.1694 -0.470391L-17.5503 -2.86785Q-17.2915 -2.95086 -16.9009 -3.03875Q-16.5102 -3.13152 -16.0513 -3.19988Q-15.5923 -3.26824 -15.0845 -3.31707Q-14.5718 -3.37078 -14.0493 -3.37078ZM-7.27155 2.17121Q-7.27155 1.02863 -6.90046 0.0227733Q-6.52937 -0.987969 -5.83112 -1.73992Q-5.128 -2.49188 -4.1319 -2.93133Q-3.13093 -3.37078 -1.85163 -3.37078Q-1.01179 -3.37078 -0.313545 -3.21941Q0.38958 -3.06805 1.04876 -2.78973L0.428642 -0.411797Q0.0087204 -0.568047 -0.494209 -0.690117Q-0.992256 -0.812188 -1.61237 -0.812188Q-2.93073 -0.812188 -3.58015 0.00812483Q-4.22956 0.828437 -4.22956 2.17121Q-4.22956 3.59211 -3.61921 4.37336Q-3.00886 5.14973 -1.4903 5.14973Q-0.948311 5.14973 -0.328194 5.05207Q0.291924 4.94953 0.809502 4.7298L1.22942 7.17121Q0.711845 7.39094 -0.0694046 7.54719Q-0.850655 7.70832 -1.78815 7.70832Q-3.22858 7.70832 -4.26862 7.27863Q-5.30866 6.84895 -5.98249 6.11164Q-6.65144 5.36945 -6.96394 4.35871Q-7.27155 3.34797 -7.27155 2.17121ZM3.12882 -5.70965L6.11222 -6.18816L6.11222 -3.08758L9.69132 -3.08758L9.69132 -0.611992L6.11222 -0.611992L6.11222 3.08918Q6.11222 4.03156 6.43937 4.59309Q6.7714 5.14973 7.77238 5.14973Q8.25089 5.14973 8.75871 5.06184Q9.2714 4.96906 9.69132 4.80793L10.1112 7.13215Q9.56925 7.35187 8.91007 7.50812Q8.25089 7.66926 7.28898 7.66926Q6.06828 7.66926 5.26749 7.34211Q4.4716 7.01008 3.9882 6.41926Q3.50968 5.82844 3.31925 4.98859Q3.12882 4.14875 3.12882 3.12824L3.12882 -5.70965ZM21.0908 7.06867Q20.3291 7.2884 19.128 7.47883Q17.9317 7.66926 16.6084 7.66926Q15.2705 7.66926 14.377 7.31281Q13.4883 6.95148 12.9658 6.30207Q12.4483 5.64777 12.2285 4.74934Q12.0088 3.8509 12.0088 2.7718L12.0088 -3.08758L14.9922 -3.08758L14.9922 2.41047Q14.9922 3.8509 15.3682 4.49055Q15.749 5.1302 16.7891 5.1302Q17.1114 5.1302 17.4678 5.1009Q17.8291 5.0716 18.1123 5.02766L18.1123 -3.08758L21.0908 -3.08758L21.0908 7.06867ZM26.9089 5.29133Q27.7292 5.29133 28.0661 5.1302Q28.4079 4.96906 28.4079 4.51008Q28.4079 4.14875 27.9685 3.8802Q27.529 3.61164 26.6306 3.26984Q25.9324 3.01105 25.3611 2.73273Q24.7898 2.44953 24.3894 2.05891Q23.989 1.66828 23.7693 1.13117Q23.5495 0.58918 23.5495 -0.167656Q23.5495 -1.65203 24.6482 -2.51141Q25.7517 -3.37078 27.6706 -3.37078Q28.6277 -3.37078 29.5066 -3.19988Q30.3904 -3.02898 30.9079 -2.82879L30.3904 -0.509453Q29.8679 -0.690117 29.2575 -0.826836Q28.6521 -0.968438 27.8904 -0.968438Q26.489 -0.968438 26.489 -0.19207Q26.489 -0.0114064 26.5476 0.130195Q26.6111 0.271797 26.7917 0.403633Q26.9724 0.530586 27.28 0.681953Q27.5876 0.828437 28.071 1.0091Q29.0476 1.37043 29.6872 1.72199Q30.3318 2.06867 30.698 2.47883Q31.0691 2.88898 31.2204 3.39191Q31.3718 3.88996 31.3718 4.54914Q31.3718 6.11164 30.1999 6.91242Q29.0281 7.70832 26.8894 7.70832Q25.488 7.70832 24.5554 7.46906Q23.6277 7.2298 23.2712 7.06867L23.7693 4.65168Q24.531 4.94953 25.3269 5.12043Q26.1277 5.29133 26.9089 5.29133Z"/>
	<path fill="white" transform="translate(55 79.2857)" d="M-24.27 7.70832Q-27.6489 7.70832 -29.4214 5.82844Q-31.189 3.94855 -31.189 0.491523Q-31.189 -1.23211 -30.6519 -2.57977Q-30.1099 -3.9323 -29.1724 -4.86004Q-28.23 -5.78777 -26.9312 -6.26629Q-25.6323 -6.74969 -24.1089 -6.74969Q-23.23 -6.74969 -22.5122 -6.61785Q-21.7896 -6.4909 -21.2525 -6.32Q-20.7105 -6.1491 -20.3491 -5.96844Q-19.9878 -5.78777 -19.8316 -5.69012L-20.73 -3.17059Q-21.3697 -3.51238 -22.2193 -3.75164Q-23.0689 -3.9909 -24.148 -3.9909Q-24.8706 -3.9909 -25.5591 -3.75164Q-26.2476 -3.51238 -26.7798 -2.98016Q-27.312 -2.44793 -27.6343 -1.60809Q-27.9517 -0.768242 -27.9517 0.428047Q-27.9517 1.38996 -27.7417 2.22004Q-27.5318 3.05012 -27.063 3.6507Q-26.5894 4.25129 -25.8325 4.60285Q-25.0708 4.94953 -23.9917 4.94953Q-23.3081 4.94953 -22.771 4.87141Q-22.229 4.7884 -21.8091 4.68098Q-21.3892 4.56867 -21.0718 4.43195Q-20.7495 4.29035 -20.4907 4.16828L-19.6314 6.66828Q-20.2906 7.06867 -21.4917 7.39094Q-22.688 7.70832 -24.27 7.70832ZM-13.8101 5.34992Q-13.3706 5.34992 -12.9702 5.33039Q-12.5698 5.31086 -12.3306 5.2718L-12.3306 3.01105Q-12.5112 2.97199 -12.8726 2.93293Q-13.229 2.88898 -13.5317 2.88898Q-13.9517 2.88898 -14.3227 2.9427Q-14.689 2.99152 -14.9722 3.13312Q-15.2505 3.26984 -15.4116 3.5091Q-15.5679 3.74836 -15.5679 4.10969Q-15.5679 4.80793 -15.0991 5.08137Q-14.6304 5.34992 -13.8101 5.34992ZM-14.0493 -3.37078Q-12.7309 -3.37078 -11.852 -3.06805Q-10.9683 -2.7702 -10.4409 -2.20867Q-9.90868 -1.65203 -9.68896 -0.85125Q-9.46923 -0.0504689 -9.46923 0.930976L-9.46923 7.13215Q-10.1089 7.26887 -11.2515 7.4593Q-12.3892 7.64973 -14.0102 7.64973Q-15.0308 7.64973 -15.8608 7.46906Q-16.6909 7.2884 -17.2915 6.87824Q-17.8921 6.46809 -18.2143 5.80891Q-18.5317 5.14973 -18.5317 4.18781Q-18.5317 3.26984 -18.1606 2.6302Q-17.7895 1.99055 -17.1694 1.60969Q-16.5493 1.22883 -15.7485 1.06281Q-14.9477 0.891914 -14.0884 0.891914Q-13.5122 0.891914 -13.063 0.940742Q-12.6089 0.98957 -12.3306 1.0677L-12.3306 0.789375Q-12.3306 0.0276561 -12.7895 -0.431328Q-13.2485 -0.890313 -14.3911 -0.890313Q-15.1479 -0.890313 -15.8901 -0.778008Q-16.6323 -0.670586 -17.1694 -0.470391L-17.5503 -2.86785Q-17.2915 -2.95086 -16.9009 -3.03875Q-16.5102 -3.13152 -16.0513 -3.19988Q-15.5923 -3.26824 -15.0845 -3.31707Q-14.5718 -3.37078 -14.0493 -3.37078ZM-7.27155 2.17121Q-7.27155 1.02863 -6.90046 0.0227733Q-6.52937 -0.987969 -5.83112 -1.73992Q-5.128 -2.49188 -4.1319 -2.93133Q-3.13093 -3.37078 -1.85163 -3.37078Q-1.01179 -3.37078 -0.313545 -3.21941Q0.38958 -3.06805 1.04876 -2.78973L0.428642 -0.411797Q0.0087204 -0.568047 -0.494209 -0.690117Q-0.992256 -0.812188 -1.61237 -0.812188Q-2.93073 -0.812188 -3.58015 0.00812483Q-4.22956 0.828437 -4.22956 2.17121Q-4.22956 3.59211 -3.61921 4.37336Q-3.00886 5.14973 -1.4903 5.14973Q-0.948311 5.14973 -0.328194 5.05207Q0.291924 4.94953 0.809502 4.7298L1.22942 7.17121Q0.711845 7.39094 -0.0694046 7.54719Q-0.850655 7.70832 -1.78815 7.70832Q-3.22858 7.70832 -4.26862 7.27863Q-5.30866 6.84895 -5.98249 6.11164Q-6.65144 5.36945 -6.96394 4.35871Q-7.27155 3.34797 -7.27155 2.17121ZM3.12882 -5.70965L6.11222 -6.18816L6.11222 -3.08758L9.69132 -3.08758L9.69132 -0.611992L6.11222 -0.611992L6.11222 3.08918Q6.11222 4.03156 6.43937 4.59309Q6.7714 5.14973 7.77238 5.14973Q8.25089 5.14973 8.75871 5.06184Q9.2714 4.96906 9.69132 4.80793L10.1112 7.13215Q9.56925 7.35187 8.91007 7.50812Q8.25089 7.66926 7.28898 7.66926Q6.06828 7.66926 5.26749 7.34211Q4.4716 7.01008 3.9882 6.41926Q3.50968 5.82844 3.31925 4.98859Q3.12882 4.14875 3.12882 3.12824L3.12882 -5.70965ZM21.0908 7.06867Q20.3291 7.2884 19.128 7.47883Q17.9317 7.66926 16.6084 7.66926Q15.2705 7.66926 14.377 7.31281Q13.4883 6.95148 12.9658 6.30207Q12.4483 5.64777 12.2285 4.74934Q12.0088 3.8509 12.0088 2.7718L12.0088 -3.08758L14.9922 -3.08758L14.9922 2.41047Q14.9922 3.8509 15.3682 4.49055Q15.749 5.1302 16.7891 5.1302Q17.1114 5.1302 17.4678 5.1009Q17.8291 5.0716 18.1123 5.02766L18.1123 -3.08758L21.0908 -3.08758L21.0908 7.06867ZM26.9089 5.29133Q27.7292 5.29133 28.0661 5.1302Q28.4079 4.96906 28.4079 4.51008Q28.4079 4.14875 27.9685 3.8802Q27.529 3.61164 26.6306 3.26984Q25.9324 3.01105 25.3611 2.73273Q24.7898 2.44953 24.3894 2.05891Q23.989 1.66828 23.7693 1.13117Q23.5495 0.58918 23.5495 -0.167656Q23.5495 -1.65203 24.6482 -2.51141Q25.7517 -3.37078 27.6706 -3.37078Q28.6277 -3.37078 29.5066 -3.19988Q30.3904 -3.02898 30.9079 -2.82879L30.3904 -0.509453Q29.8679 -0.690117 29.2575 -0.826836Q28.6521 -0.968438 27.8904 -0.968438Q26.489 -0.968438 26.489 -0.19207Q26.489 -0.0114064 26.5476 0.130195Q26.6111 0.271797 26.7917 0.403633Q26.9724 0.530586 27.28 0.681953Q27.5876 0.828437 28.071 1.0091Q29.0476 1.37043 29.6872 1.72199Q30.3318 2.06867 30.698 2.47883Q31.0691 2.88898 31.2204 3.39191Q31.3718 3.88996 31.3718 4.54914Q31.3718 6.11164 30.1999 6.91242Q29.0281 7.70832 26.8894 7.70832Q25.488 7.70832 24.5554 7.46906Q23.6277 7.2298 23.2712 7.06867L23.7693 4.65168Q24.531 4.94953 25.3269 5.12043Q26.1277 5.29133 26.9089 5.29133Z"/>
</svg>
