<?xml version="1.0" encoding="utf-8" ?>
<svg xmlns="http://www.w3.org/2000/svg" xmlns:xlink="http://www.w3.org/1999/xlink" width="110" height="110">
	<path fill="#42E3F5" transform="matrix(2.14286 0 0 2.14286 55 47.8571)" d="M-2.60083e-07 8.4L-4.6519 5.23731L-5.80082 -1.86918L-2.58161 -7.56814L2.58161 -7.56814L5.80082 -1.86918L4.6519 5.23731L-2.60083e-07 8.4Z"/>
	<path fill="#111" transform="matrix(2.14286 0 0 4.28571 55 47.8571)" d="M3 0Q3 0.147381 2.98555 0.294051Q2.97111 0.440722 2.94236 0.585271Q2.9136 0.72982 2.87082 0.870854Q2.82804 1.01189 2.77164 1.14805Q2.71524 1.28421 2.64576 1.41419Q2.57629 1.54417 2.49441 1.66671Q2.41253 1.78925 2.31903 1.90318Q2.22553 2.01711 2.12132 2.12132Q2.01711 2.22553 1.90318 2.31903Q1.78925 2.41253 1.66671 2.49441Q1.54417 2.57629 1.41419 2.64576Q1.28421 2.71524 1.14805 2.77164Q1.01189 2.82804 0.870854 2.87082Q0.72982 2.9136 0.585271 2.94236Q0.440722 2.97111 0.294051 2.98555Q0.147381 3 0 3Q-0.147381 3 -0.294051 2.98555Q-0.440722 2.97111 -0.585271 2.94236Q-0.72982 2.9136 -0.870854 2.87082Q-1.01189 2.82804 -1.14805 2.77164Q-1.28421 2.71524 -1.41419 2.64576Q-1.54417 2.57629 -1.66671 2.49441Q-1.78925 2.41253 -1.90318 2.31903Q-2.01711 2.22553 -2.12132 2.12132Q-2.22553 2.01711 -2.31903 1.90318Q-2.41253 1.78925 -2.49441 1.66671Q-2.57629 1.54417 -2.64576 1.41419Q-2.71524 1.28421 -2.77164 1.14805Q-2.82804 1.01189 -2.87082 0.870854Q-2.9136 0.72982 -2.94236 0.585271Q-2.97111 0.440722 -2.98555 0.294051Q-3 0.147381 -3 0Q-3 -0.147381 -2.98555 -0.294051Q-2.97111 -0.440722 -2.94236 -0.585271Q-2.9136 -0.72982 -2.87082 -0.870854Q-2.82804 -1.01189 -2.77164 -1.14805Q-2.71524 -1.28421 -2.64576 -1.41419Q-2.57629 -1.54417 -2.49441 -1.66671Q-2.41253 -1.78925 -2.31903 -1.90318Q-2.22553 -2.01711 -2.12132 -2.12132Q-2.01711 -2.22553 -1.90318 -2.31903Q-1.78925 -2.41253 -1.66671 -2.49441Q-1.54417 -2.57629 -1.41419 -2.64576Q-1.28421 -2.71524 -1.14805 -2.77164Q-1.01189 -2.82804 -0.870854 -2.87082Q-0.72982 -2.9136 -0.585271 -2.94236Q-0.440722 -2.97111 -0.294051 -2.98555Q-0.147381 -3 0 -3Q0.147381 -3 0.294051 -2.98555Q0.440722 -2.97111 0.585271 -2.94236Q0.72982 -2.9136 0.870854 -2.87082Q1.01189 -2.82804 1.14805 -2.77164Q1.28421 -2.71524 1.41419 -2.64576Q1.54417 -2.57629 1.66671 -2.49441Q1.78925 -2.41253 1.90318 -2.31903Q2.01711 -2.22553 2.12132 -2.12132Q2.22553 -2.01711 2.31903 -1.90318Q2.41253 -1.78925 2.49441 -1.66671Q2.57629 -1.54417 2.64576 -1.41419Q2.71524 -1.28421 2.77164 -1.14805Q2.82804 -1.01189 2.87082 -0.870854Q2.9136 -0.72982 2.94236 -0.585271Q2.97111 -0.440722 2.98555 -0.294051Q3 -0.147381 3 0"/>
	<clipPath id="cl_25">
		<path d="M61.4286 47.8571Q61.4286 48.1728 61.4208 48.488Q61.4131 48.8033 61.3976 49.1174Q61.3821 49.4315 61.359 49.7437Q61.3358 50.0559 61.305 50.3654Q61.2743 50.675 61.2359 50.9812Q61.1976 51.2873 61.1518 51.5894Q61.1059 51.8914 61.0528 52.1886Q60.9996 52.4858 60.9392 52.7774Q60.8788 53.069 60.8113 53.3543Q60.7439 53.6396 60.6695 53.918Q60.5951 54.1963 60.514 54.467Q60.4328 54.7378 60.3452 55.0002Q60.2575 55.2626 60.1635 55.5161Q60.0695 55.7696 59.9693 56.0136Q59.8692 56.2576 59.7632 56.4915Q59.6573 56.7253 59.5457 56.9485Q59.4341 57.1717 59.3172 57.3837Q59.2002 57.5956 59.0782 57.7958Q58.9562 57.9961 58.8295 58.1841Q58.7027 58.3721 58.5715 58.5475Q58.4403 58.7228 58.3049 58.8851Q58.1696 59.0473 58.0304 59.1961Q57.8912 59.3449 57.7486 59.4799Q57.6059 59.6148 57.4601 59.7356Q57.3143 59.8564 57.1657 59.9627Q57.0171 60.069 56.8661 60.1607Q56.7151 60.2523 56.562 60.329Q56.4089 60.4057 56.2542 60.4672Q56.0994 60.5288 55.9433 60.5751Q55.7872 60.6214 55.6301 60.6524Q55.4731 60.6833 55.3154 60.6988Q55.1578 60.7143 55 60.7143Q54.8422 60.7143 54.6846 60.6988Q54.5269 60.6833 54.3699 60.6524Q54.2128 60.6214 54.0567 60.5751Q53.9006 60.5288 53.7458 60.4672Q53.5911 60.4057 53.438 60.329Q53.2849 60.2523 53.1339 60.1607Q52.9829 60.069 52.8343 59.9627Q52.6857 59.8564 52.5399 59.7356Q52.3941 59.6148 52.2514 59.4799Q52.1088 59.3449 51.9696 59.1961Q51.8304 59.0473 51.695 58.8851Q51.5597 58.7228 51.4285 58.5475Q51.2973 58.3721 51.1705 58.1841Q51.0437 57.9961 50.9218 57.7959Q50.7998 57.5956 50.6828 57.3837Q50.5659 57.1717 50.4543 56.9485Q50.3427 56.7253 50.2367 56.4915Q50.1308 56.2576 50.0306 56.0136Q49.9305 55.7696 49.8365 55.5161Q49.7425 55.2626 49.6548 55.0002Q49.5672 54.7378 49.486 54.467Q49.4049 54.1963 49.3305 53.918Q49.2561 53.6396 49.1886 53.3543Q49.1212 53.069 49.0608 52.7774Q49.0004 52.4858 48.9472 52.1886Q48.8941 51.8914 48.8482 51.5894Q48.8024 51.2873 48.7641 50.9812Q48.7257 50.675 48.695 50.3654Q48.6642 50.0559 48.641 49.7437Q48.6179 49.4315 48.6024 49.1174Q48.5869 48.8033 48.5792 48.488Q48.5714 48.1728 48.5714 47.8571Q48.5714 47.5415 48.5792 47.2263Q48.5869 46.911 48.6024 46.5969Q48.6179 46.2828 48.641 45.9706Q48.6642 45.6584 48.695 45.3488Q48.7257 45.0393 48.7641 44.7331Q48.8024 44.4269 48.8482 44.1249Q48.894 43.8229 48.9472 43.5257Q49.0004 43.2285 49.0608 42.9369Q49.1212 42.6453 49.1886 42.36Q49.2561 42.0747 49.3305 41.7963Q49.4049 41.518 49.486 41.2472Q49.5672 40.9765 49.6548 40.7141Q49.7425 40.4517 49.8365 40.1981Q49.9305 39.9446 50.0306 39.7007Q50.1308 39.4567 50.2367 39.2228Q50.3427 38.9889 50.4543 38.7658Q50.5659 38.5426 50.6828 38.3306Q50.7998 38.1187 50.9218 37.9184Q51.0437 37.7182 51.1705 37.5302Q51.2973 37.3422 51.4285 37.1668Q51.5597 36.9915 51.6951 36.8292Q51.8304 36.6669 51.9696 36.5182Q52.1088 36.3694 52.2514 36.2344Q52.3941 36.0995 52.5399 35.9787Q52.6857 35.8579 52.8343 35.7516Q52.9829 35.6452 53.1339 35.5536Q53.2849 35.462 53.438 35.3853Q53.5911 35.3086 53.7458 35.247Q53.9006 35.1855 54.0567 35.1392Q54.2128 35.0928 54.3699 35.0619Q54.5269 35.031 54.6846 35.0155Q54.8422 35 55 35Q55.1578 35 55.3154 35.0155Q55.4731 35.031 55.6301 35.0619Q55.7872 35.0928 55.9433 35.1392Q56.0994 35.1855 56.2542 35.247Q56.4089 35.3086 56.562 35.3853Q56.7151 35.462 56.8661 35.5536Q57.0171 35.6452 57.1657 35.7516Q57.3143 35.8579 57.4601 35.9787Q57.6059 36.0995 57.7486 36.2344Q57.8912 36.3694 58.0304 36.5182Q58.1696 36.6669 58.3049 36.8292Q58.4403 36.9915 58.5715 37.1668Q58.7027 37.3422 58.8295 37.5302Q58.9562 37.7182 59.0782 37.9184Q59.2002 38.1187 59.3172 38.3306Q59.4341 38.5426 59.5457 38.7658Q59.6573 38.9889 59.7633 39.2228Q59.8692 39.4567 59.9694 39.7007Q60.0695 39.9446 60.1635 40.1981Q60.2575 40.4517 60.3452 40.7141Q60.4328 40.9765 60.514 41.2472Q60.5951 41.518 60.6695 41.7963Q60.7439 42.0747 60.8114 42.36Q60.8788 42.6453 60.9392 42.9369Q60.9996 43.2285 61.0528 43.5257Q61.1059 43.8229 61.1518 44.1249Q61.1976 44.4269 61.2359 44.7331Q61.2743 45.0393 61.305 45.3488Q61.3358 45.6584 61.359 45.9706Q61.3821 46.2828 61.3976 46.5969Q61.4131 46.911 61.4208 47.2263Q61.4286 47.5415 61.4286 47.8571"/>
	</clipPath>
	<g clip-path="url(#cl_25)">
		<path fill="#EEE" transform="matrix(2.14286 0 0 2.14286 55 47.8571)" d="M3 0Q3 0.147381 2.98555 0.294051Q2.97111 0.440722 2.94236 0.585271Q2.9136 0.72982 2.87082 0.870854Q2.82804 1.01189 2.77164 1.14805Q2.71524 1.28421 2.64576 1.41419Q2.57629 1.54417 2.49441 1.66671Q2.41253 1.78925 2.31903 1.90318Q2.22553 2.01711 2.12132 2.12132Q2.01711 2.22553 1.90318 2.31903Q1.78925 2.41253 1.66671 2.49441Q1.54417 2.57629 1.41419 2.64576Q1.28421 2.71524 1.14805 2.77164Q1.01189 2.82804 0.870854 2.87082Q0.72982 2.9136 0.585271 2.94236Q0.440722 2.97111 0.294051 2.98555Q0.147381 3 0 3Q-0.147381 3 -0.294051 2.98555Q-0.440722 2.97111 -0.585271 2.94236Q-0.72982 2.9136 -0.870854 2.87082Q-1.01189 2.82804 -1.14805 2.77164Q-1.28421 2.71524 -1.41419 2.64576Q-1.54417 2.57629 -1.66671 2.49441Q-1.78925 2.41253 -1.90318 2.31903Q-2.01711 2.22553 -2.12132 2.12132Q-2.22553 2.01711 -2.31903 1.90318Q-2.41253 1.78925 -2.49441 1.66671Q-2.57629 1.54417 -2.64576 1.41419Q-2.71524 1.28421 -2.77164 1.14805Q-2.82804 1.01189 -2.87082 0.870854Q-2.9136 0.72982 -2.94236 0.585271Q-2.97111 0.440722 -2.98555 0.294051Q-3 0.147381 -3 0Q-3 -0.147381 -2.98555 -0.294051Q-2.97111 -0.440722 -2.94236 -0.585271Q-2.9136 -0.72982 -2.87082 -0.870854Q-2.82804 -1.01189 -2.77164 -1.14805Q-2.71524 -1.28421 -2.64576 -1.41419Q-2.57629 -1.54417 -2.49441 -1.66671Q-2.41253 -1.78925 -2.31903 -1.90318Q-2.22553 -2.01711 -2.12132 -2.12132Q-2.01711 -2.22553 -1.90318 -2.31903Q-1.78925 -2.41253 -1.66671 -2.49441Q-1.54417 -2.57629 -1.41419 -2.64576Q-1.28421 -2.71524 -1.14805 -2.77164Q-1.01189 -2.82804 -0.870854 -2.87082Q-0.72982 -2.9136 -0.585271 -2.94236Q-0.440722 -2.97111 -0.294051 -2.98555Q-0.147381 -3 0 -3Q0.147381 -3 0.294051 -2.98555Q0.440722 -2.97111 0.585271 -2.94236Q0.72982 -2.9136 0.870854 -2.87082Q1.01189 -2.82804 1.14805 -2.77164Q1.28421 -2.71524 1.41419 -2.64576Q1.54417 -2.57629 1.66671 -2.49441Q1.78925 -2.41253 1.90318 -2.31903Q2.01711 -2.22553 2.12132 -2.12132Q2.22553 -2.01711 2.31903 -1.90318Q2.41253 -1.78925 2.49441 -1.66671Q2.57629 -1.54417 2.64576 -1.41419Q2.71524 -1.28421 2.77164 -1.14805Q2.82804 -1.01189 2.87082 -0.870854Q2.9136 -0.72982 2.94236 -0.585271Q2.97111 -0.440722 2.98555 -0.294051Q3 -0.147381 3 0"/>
	</g>
	<path fill="none" stroke="#111" stroke-width="0.5" stroke-linecap="round" stroke-linejoin="round" transform="matrix(2.14286 0 0 4.28571 55 47.8571)" d="M3 0Q3 0.147381 2.98555 0.294051Q2.97111 0.440722 2.94236 0.585271Q2.9136 0.72982 2.87082 0.870854Q2.82804 1.01189 2.77164 1.14805Q2.71524 1.28421 2.64576 1.41419Q2.57629 1.54417 2.49441 1.66671Q2.41253 1.78925 2.31903 1.90318Q2.22553 2.01711 2.12132 2.12132Q2.01711 2.22553 1.90318 2.31903Q1.78925 2.41253 1.66671 2.49441Q1.54417 2.57629 1.41419 2.64576Q1.28421 2.71524 1.14805 2.77164Q1.01189 2.82804 0.870854 2.87082Q0.72982 2.9136 0.585271 2.94236Q0.440722 2.97111 0.294051 2.98555Q0.147381 3 0 3Q-0.147381 3 -0.294051 2.98555Q-0.440722 2.97111 -0.585271 2.94236Q-0.72982 2.9136 -0.870854 2.87082Q-1.01189 2.82804 -1.14805 2.77164Q-1.28421 2.71524 -1.41419 2.64576Q-1.54417 2.57629 -1.66671 2.49441Q-1.78925 2.41253 -1.90318 2.31903Q-2.01711 2.22553 -2.12132 2.12132Q-2.22553 2.01711 -2.31903 1.90318Q-2.41253 1.78925 -2.49441 1.66671Q-2.57629 1.54417 -2.64576 1.41419Q-2.71524 1.28421 -2.77164 1.14805Q-2.82804 1.01189 -2.87082 0.870854Q-2.9136 0.72982 -2.94236 0.585271Q-2.97111 0.440722 -2.98555 0.294051Q-3 0.147381 -3 0Q-3 -0.147381 -2.98555 -0.294051Q-2.97111 -0.440722 -2.94236 -0.585271Q-2.9136 -0.72982 -2.87082 -0.870854Q-2.82804 -1.01189 -2.77164 -1.14805Q-2.71524 -1.28421 -2.64576 -1.41419Q-2.57629 -1.54417 -2.49441 -1.66671Q-2.41253 -1.78925 -2.31903 -1.90318Q-2.22553 -2.01711 -2.12132 -2.12132Q-2.01711 -2.22553 -1.90318 -2.31903Q-1.78925 -2.41253 -1.66671 -2.49441Q-1.54417 -2.57629 -1.41419 -2.64576Q-1.28421 -2.71524 -1.14805 -2.77164Q-1.01189 -2.82804 -0.870854 -2.87082Q-0.72982 -2.9136 -0.585271 -2.94236Q-0.440722 -2.97111 -0.294051 -2.98555Q-0.147381 -3 0 -3Q0.147381 -3 0.294051 -2.98555Q0.440722 -2.97111 0.585271 -2.94236Q0.72982 -2.9136 0.870854 -2.87082Q1.01189 -2.82804 1.14805 -2.77164Q1.28421 -2.71524 1.41419 -2.64576Q1.54417 -2.57629 1.66671 -2.49441Q1.78925 -2.41253 1.90318 -2.31903Q2.01711 -2.22553 2.12132 -2.12132Q2.22553 -2.01711 2.31903 -1.90318Q2.41253 -1.78925 2.49441 -1.66671Q2.57629 -1.54417 2.64576 -1.41419Q2.71524 -1.28421 2.77164 -1.14805Q2.82804 -1.01189 2.87082 -0.870854Q2.9136 -0.72982 2.94236 -0.585271Q2.97111 -0.440722 2.98555 -0.294051Q3 -0.147381 3 0"/>
	<path fill="none" stroke="black" stroke-width="1.8857143" stroke-linejoin="round" transform="translate(55 79.2857)" d="M-33.6189 -5.05395Q-33.335 -4.53219 -32.9667 -3.76873Q-32.5946 -3.0091 -32.1956 -2.11904Q-31.7966 -1.2328 -31.4053 -0.304373Q-31.0101 0.620223 -30.6648 1.4374Q-30.3157 0.620223 -29.9244 -0.304373Q-29.5331 -1.2328 -29.1341 -2.11904Q-28.7313 -3.0091 -28.3629 -3.76873Q-27.9908 -4.53219 -27.7107 -5.05395L-25.4779 -5.05395Q-25.3206 -3.96823 -25.1863 -2.62162Q-25.0521 -1.27884 -24.9523 0.175189Q-24.8487 1.62538 -24.7643 3.08709Q-24.6761 4.54879 -24.6147 5.83786L-27.001 5.83786Q-27.0509 4.24955 -27.1276 2.38117Q-27.2043 0.508965 -27.3616 -1.3901Q-27.6455 -0.730224 -27.9908 0.0716038Q-28.3361 0.873432 -28.6775 1.67526Q-29.0152 2.47325 -29.3297 3.20602Q-29.6405 3.93496 -29.863 4.45672L-31.5741 4.45672Q-31.7966 3.93496 -32.1112 3.20602Q-32.422 2.47325 -32.7596 1.67526Q-33.0972 0.873432 -33.4463 0.0716038Q-33.7916 -0.730224 -34.0717 -1.3901Q-34.2289 0.508965 -34.3095 2.38117Q-34.3862 4.24955 -34.4361 5.83786L-36.8224 5.83786Q-36.761 4.54879 -36.6766 3.08709Q-36.5884 1.62538 -36.4886 0.175189Q-36.3851 -1.27884 -36.2508 -2.62162Q-36.1165 -3.96823 -35.9592 -5.05395L-33.6189 -5.05395ZM-19.4219 4.20351Q-19.0766 4.20351 -18.762 4.18816Q-18.4474 4.17282 -18.2595 4.14213L-18.2595 2.36583Q-18.4014 2.33514 -18.6853 2.30444Q-18.9654 2.26992 -19.2032 2.26992Q-19.5332 2.26992 -19.8247 2.31212Q-20.1125 2.35048 -20.335 2.46174Q-20.5537 2.56916 -20.6803 2.75715Q-20.8031 2.94514 -20.8031 3.22904Q-20.8031 3.77766 -20.4348 3.9925Q-20.0664 4.20351 -19.4219 4.20351ZM-19.6099 -2.64847Q-18.5741 -2.64847 -17.8835 -2.41061Q-17.1891 -2.17658 -16.7747 -1.73539Q-16.3566 -1.29803 -16.1839 -0.66884Q-16.0113 -0.0396543 -16.0113 0.731481L-16.0113 5.60383Q-16.5139 5.71125 -17.4116 5.86088Q-18.3055 6.0105 -19.5792 6.0105Q-20.381 6.0105 -21.0332 5.86855Q-21.6854 5.7266 -22.1573 5.40433Q-22.6292 5.08207 -22.8824 4.56414Q-23.1318 4.04621 -23.1318 3.29042Q-23.1318 2.56916 -22.8402 2.06658Q-22.5487 1.564 -22.0614 1.26475Q-21.5742 0.965508 -20.945 0.835066Q-20.3158 0.700789 -19.6406 0.700789Q-19.1879 0.700789 -18.8349 0.739154Q-18.4781 0.777519 -18.2595 0.838903L-18.2595 0.620223Q-18.2595 0.0217295 -18.6201 -0.338901Q-18.9807 -0.699532 -19.8785 -0.699532Q-20.4731 -0.699532 -21.0563 -0.611292Q-21.6394 -0.526889 -22.0614 -0.369593L-22.3607 -2.25331Q-22.1573 -2.31853 -21.8504 -2.38759Q-21.5435 -2.46048 -21.1829 -2.51419Q-20.8222 -2.5679 -20.4232 -2.60627Q-20.0204 -2.64847 -19.6099 -2.64847ZM-11.9005 1.4374Q-11.9005 3.40168 -10.3122 3.40168Q-9.95157 3.40168 -9.63697 3.30961Q-9.32238 3.21369 -9.1037 3.08709L-9.1037 -0.653494Q-9.27634 -0.684186 -9.51421 -0.707205Q-9.74823 -0.730224 -10.0628 -0.730224Q-10.9913 -0.730224 -11.4478 -0.116385Q-11.9005 0.493618 -11.9005 1.4374ZM-6.76344 4.802Q-6.76344 6.82767 -7.79162 7.80982Q-8.8198 8.79196 -10.9721 8.79196Q-11.7279 8.79196 -12.4837 8.65768Q-13.2356 8.5234 -13.8801 8.30472L-13.4735 6.34044Q-12.921 6.55912 -12.3187 6.68572Q-11.7125 6.81233 -10.9414 6.81233Q-9.93622 6.81233 -9.52188 6.37113Q-9.1037 5.93377 -9.1037 5.23936L-9.1037 4.94395Q-9.47968 5.1166 -9.88251 5.20483Q-10.2815 5.28924 -10.7534 5.28924Q-12.4683 5.28924 -13.3814 4.2764Q-14.2906 3.25973 -14.2906 1.4374Q-14.2906 0.528147 -14.0067 -0.21997Q-13.7228 -0.968086 -13.1819 -1.50136Q-12.641 -2.03463 -11.8545 -2.32621Q-11.068 -2.61778 -10.0782 -2.61778Q-9.65232 -2.61778 -9.20729 -2.57558Q-8.75842 -2.53721 -8.32106 -2.47199Q-7.87986 -2.41061 -7.48086 -2.32237Q-7.07803 -2.23797 -6.76344 -2.14589L-6.76344 4.802ZM-2.22752 5.83786L-4.56779 5.83786L-4.56779 -2.42595L-2.22752 -2.42595L-2.22752 5.83786ZM-2.00884 -4.81609Q-2.00884 -4.17156 -2.42702 -3.80326Q-2.84136 -3.43495 -3.40533 -3.43495Q-3.97313 -3.43495 -4.39131 -3.80326Q-4.80565 -4.17156 -4.80565 -4.81609Q-4.80565 -5.46062 -4.39131 -5.82893Q-3.97313 -6.20107 -3.40533 -6.20107Q-2.84136 -6.20107 -2.42702 -5.82893Q-2.00884 -5.46062 -2.00884 -4.81609ZM-0.424723 1.70595Q-0.424723 0.808211 -0.133149 0.0178928Q0.158424 -0.776262 0.707043 -1.36708Q1.2595 -1.9579 2.04214 -2.30319Q2.82863 -2.64847 3.83379 -2.64847Q4.49366 -2.64847 5.04228 -2.52954Q5.59474 -2.41061 6.11267 -2.19193L5.62543 -0.323555Q5.29549 -0.446323 4.90033 -0.542235Q4.50901 -0.638148 4.02178 -0.638148Q2.98592 -0.638148 2.47567 0.00638342Q1.96541 0.650915 1.96541 1.70595Q1.96541 2.82237 2.44498 3.43621Q2.92454 4.04621 4.11769 4.04621Q4.54354 4.04621 5.03077 3.96948Q5.51801 3.88892 5.92468 3.71627L6.25462 5.63452Q5.84795 5.80716 5.23411 5.92993Q4.62027 6.05654 3.88366 6.05654Q2.7519 6.05654 1.93472 5.71893Q1.11755 5.38131 0.588112 4.802Q0.062512 4.21886 -0.183024 3.4247Q-0.424723 2.63055 -0.424723 1.70595ZM11.7481 5.83786L11.7481 -5.05395L19.1027 -5.05395L19.1027 -2.99376L14.1996 -2.99376L14.1996 -0.856828L18.5502 -0.856828L18.5502 1.1535L14.1996 1.1535L14.1996 3.77766L19.4633 3.77766L19.4633 5.83786L11.7481 5.83786ZM28.4462 -2.42595Q27.7364 -0.0396543 26.9653 2.05124Q26.198 4.14213 25.2849 6.10641Q24.955 6.81233 24.625 7.30723Q24.2951 7.80214 23.8999 8.12441Q23.5086 8.44667 23.0137 8.5963Q22.5188 8.74592 21.8589 8.74592Q21.3103 8.74592 20.8461 8.64233Q20.3819 8.54259 20.0826 8.41598L20.4931 6.54377Q20.8537 6.67038 21.1376 6.71641Q21.4215 6.76629 21.7361 6.76629Q22.3615 6.76629 22.6991 6.42868Q23.0406 6.09107 23.2746 5.49257Q22.4727 3.91961 21.6709 1.963Q20.8691 0.00638342 20.1632 -2.42595L22.6454 -2.42595Q22.8027 -1.81595 23.0137 -1.09853Q23.2285 -0.384939 23.4626 0.347832Q23.7004 1.07677 23.9421 1.76733Q24.1877 2.4579 24.4063 3.02571Q24.6097 2.4579 24.8284 1.76733Q25.0509 1.07677 25.2619 0.347832Q25.4729 -0.384939 25.6685 -1.09853Q25.868 -1.81595 26.0253 -2.42595L28.4462 -2.42595ZM29.3014 1.76733Q29.3014 0.666261 29.6391 -0.158586Q29.9767 -0.983432 30.5253 -1.53205Q31.0777 -2.08067 31.7913 -2.36457Q32.5088 -2.64847 33.2645 -2.64847Q35.0217 -2.64847 36.0422 -1.57042Q37.0665 -0.496197 37.0665 1.59469Q37.0665 1.79803 37.0512 2.04356Q37.0358 2.28526 37.0166 2.47325L31.7069 2.47325Q31.7837 3.19835 32.3821 3.6242Q32.9806 4.04621 33.9858 4.04621Q34.6303 4.04621 35.248 3.93112Q35.8695 3.81219 36.2647 3.63954L36.5793 5.53861Q36.3913 5.63452 36.0767 5.73043Q35.7621 5.82251 35.3746 5.89157Q34.991 5.96446 34.5498 6.0105Q34.1124 6.05654 33.6712 6.05654Q32.5548 6.05654 31.7299 5.7266Q30.9051 5.39666 30.3603 4.82502Q29.8194 4.24955 29.5585 3.4669Q29.3014 2.68042 29.3014 1.76733ZM34.803 0.873432Q34.7876 0.574185 34.6994 0.290284Q34.615 0.00638342 34.4347 -0.212297Q34.2544 -0.430977 33.9781 -0.572927Q33.7019 -0.714878 33.2952 -0.714878Q32.9001 -0.714878 32.6162 -0.5806Q32.3361 -0.446323 32.1481 -0.227643Q31.9601 -0.00896263 31.8565 0.282611Q31.753 0.574185 31.7069 0.873432L34.803 0.873432Z"/>
	<path fill="white" transform="translate(55 79.2857)" d="M-33.6189 -5.05395Q-33.335 -4.53219 -32.9667 -3.76873Q-32.5946 -3.0091 -32.1956 -2.11904Q-31.7966 -1.2328 -31.4053 -0.304373Q-31.0101 0.620223 -30.6648 1.4374Q-30.3157 0.620223 -29.9244 -0.304373Q-29.5331 -1.2328 -29.1341 -2.11904Q-28.7313 -3.0091 -28.3629 -3.76873Q-27.9908 -4.53219 -27.7107 -5.05395L-25.4779 -5.05395Q-25.3206 -3.96823 -25.1863 -2.62162Q-25.0521 -1.27884 -24.9523 0.175189Q-24.8487 1.62538 -24.7643 3.08709Q-24.6761 4.54879 -24.6147 5.83786L-27.001 5.83786Q-27.0509 4.24955 -27.1276 2.38117Q-27.2043 0.508965 -27.3616 -1.3901Q-27.6455 -0.730224 -27.9908 0.0716038Q-28.3361 0.873432 -28.6775 1.67526Q-29.0152 2.47325 -29.3297 3.20602Q-29.6405 3.93496 -29.863 4.45672L-31.5741 4.45672Q-31.7966 3.93496 -32.1112 3.20602Q-32.422 2.47325 -32.7596 1.67526Q-33.0972 0.873432 -33.4463 0.0716038Q-33.7916 -0.730224 -34.0717 -1.3901Q-34.2289 0.508965 -34.3095 2.38117Q-34.3862 4.24955 -34.4361 5.83786L-36.8224 5.83786Q-36.761 4.54879 -36.6766 3.08709Q-36.5884 1.62538 -36.4886 0.175189Q-36.3851 -1.27884 -36.2508 -2.62162Q-36.1165 -3.96823 -35.9592 -5.05395L-33.6189 -5.05395ZM-19.4219 4.20351Q-19.0766 4.20351 -18.762 4.18816Q-18.4474 4.17282 -18.2595 4.14213L-18.2595 2.36583Q-18.4014 2.33514 -18.6853 2.30444Q-18.9654 2.26992 -19.2032 2.26992Q-19.5332 2.26992 -19.8247 2.31212Q-20.1125 2.35048 -20.335 2.46174Q-20.5537 2.56916 -20.6803 2.75715Q-20.8031 2.94514 -20.8031 3.22904Q-20.8031 3.77766 -20.4348 3.9925Q-20.0664 4.20351 -19.4219 4.20351ZM-19.6099 -2.64847Q-18.5741 -2.64847 -17.8835 -2.41061Q-17.1891 -2.17658 -16.7747 -1.73539Q-16.3566 -1.29803 -16.1839 -0.66884Q-16.0113 -0.0396543 -16.0113 0.731481L-16.0113 5.60383Q-16.5139 5.71125 -17.4116 5.86088Q-18.3055 6.0105 -19.5792 6.0105Q-20.381 6.0105 -21.0332 5.86855Q-21.6854 5.7266 -22.1573 5.40433Q-22.6292 5.08207 -22.8824 4.56414Q-23.1318 4.04621 -23.1318 3.29042Q-23.1318 2.56916 -22.8402 2.06658Q-22.5487 1.564 -22.0614 1.26475Q-21.5742 0.965508 -20.945 0.835066Q-20.3158 0.700789 -19.6406 0.700789Q-19.1879 0.700789 -18.8349 0.739154Q-18.4781 0.777519 -18.2595 0.838903L-18.2595 0.620223Q-18.2595 0.0217295 -18.6201 -0.338901Q-18.9807 -0.699532 -19.8785 -0.699532Q-20.4731 -0.699532 -21.0563 -0.611292Q-21.6394 -0.526889 -22.0614 -0.369593L-22.3607 -2.25331Q-22.1573 -2.31853 -21.8504 -2.38759Q-21.5435 -2.46048 -21.1829 -2.51419Q-20.8222 -2.5679 -20.4232 -2.60627Q-20.0204 -2.64847 -19.6099 -2.64847ZM-11.9005 1.4374Q-11.9005 3.40168 -10.3122 3.40168Q-9.95157 3.40168 -9.63697 3.30961Q-9.32238 3.21369 -9.1037 3.08709L-9.1037 -0.653494Q-9.27634 -0.684186 -9.51421 -0.707205Q-9.74823 -0.730224 -10.0628 -0.730224Q-10.9913 -0.730224 -11.4478 -0.116385Q-11.9005 0.493618 -11.9005 1.4374ZM-6.76344 4.802Q-6.76344 6.82767 -7.79162 7.80982Q-8.8198 8.79196 -10.9721 8.79196Q-11.7279 8.79196 -12.4837 8.65768Q-13.2356 8.5234 -13.8801 8.30472L-13.4735 6.34044Q-12.921 6.55912 -12.3187 6.68572Q-11.7125 6.81233 -10.9414 6.81233Q-9.93622 6.81233 -9.52188 6.37113Q-9.1037 5.93377 -9.1037 5.23936L-9.1037 4.94395Q-9.47968 5.1166 -9.88251 5.20483Q-10.2815 5.28924 -10.7534 5.28924Q-12.4683 5.28924 -13.3814 4.2764Q-14.2906 3.25973 -14.2906 1.4374Q-14.2906 0.528147 -14.0067 -0.21997Q-13.7228 -0.968086 -13.1819 -1.50136Q-12.641 -2.03463 -11.8545 -2.32621Q-11.068 -2.61778 -10.0782 -2.61778Q-9.65232 -2.61778 -9.20729 -2.57558Q-8.75842 -2.53721 -8.32106 -2.47199Q-7.87986 -2.41061 -7.48086 -2.32237Q-7.07803 -2.23797 -6.76344 -2.14589L-6.76344 4.802ZM-2.22752 5.83786L-4.56779 5.83786L-4.56779 -2.42595L-2.22752 -2.42595L-2.22752 5.83786ZM-2.00884 -4.81609Q-2.00884 -4.17156 -2.42702 -3.80326Q-2.84136 -3.43495 -3.40533 -3.43495Q-3.97313 -3.43495 -4.39131 -3.80326Q-4.80565 -4.17156 -4.80565 -4.81609Q-4.80565 -5.46062 -4.39131 -5.82893Q-3.97313 -6.20107 -3.40533 -6.20107Q-2.84136 -6.20107 -2.42702 -5.82893Q-2.00884 -5.46062 -2.00884 -4.81609ZM-0.424723 1.70595Q-0.424723 0.808211 -0.133149 0.0178928Q0.158424 -0.776262 0.707043 -1.36708Q1.2595 -1.9579 2.04214 -2.30319Q2.82863 -2.64847 3.83379 -2.64847Q4.49366 -2.64847 5.04228 -2.52954Q5.59474 -2.41061 6.11267 -2.19193L5.62543 -0.323555Q5.29549 -0.446323 4.90033 -0.542235Q4.50901 -0.638148 4.02178 -0.638148Q2.98592 -0.638148 2.47567 0.00638342Q1.96541 0.650915 1.96541 1.70595Q1.96541 2.82237 2.44498 3.43621Q2.92454 4.04621 4.11769 4.04621Q4.54354 4.04621 5.03077 3.96948Q5.51801 3.88892 5.92468 3.71627L6.25462 5.63452Q5.84795 5.80716 5.23411 5.92993Q4.62027 6.05654 3.88366 6.05654Q2.7519 6.05654 1.93472 5.71893Q1.11755 5.38131 0.588112 4.802Q0.062512 4.21886 -0.183024 3.4247Q-0.424723 2.63055 -0.424723 1.70595ZM11.7481 5.83786L11.7481 -5.05395L19.1027 -5.05395L19.1027 -2.99376L14.1996 -2.99376L14.1996 -0.856828L18.5502 -0.856828L18.5502 1.1535L14.1996 1.1535L14.1996 3.77766L19.4633 3.77766L19.4633 5.83786L11.7481 5.83786ZM28.4462 -2.42595Q27.7364 -0.0396543 26.9653 2.05124Q26.198 4.14213 25.2849 6.10641Q24.955 6.81233 24.625 7.30723Q24.2951 7.80214 23.8999 8.12441Q23.5086 8.44667 23.0137 8.5963Q22.5188 8.74592 21.8589 8.74592Q21.3103 8.74592 20.8461 8.64233Q20.3819 8.54259 20.0826 8.41598L20.4931 6.54377Q20.8537 6.67038 21.1376 6.71641Q21.4215 6.76629 21.7361 6.76629Q22.3615 6.76629 22.6991 6.42868Q23.0406 6.09107 23.2746 5.49257Q22.4727 3.91961 21.6709 1.963Q20.8691 0.00638342 20.1632 -2.42595L22.6454 -2.42595Q22.8027 -1.81595 23.0137 -1.09853Q23.2285 -0.384939 23.4626 0.347832Q23.7004 1.07677 23.9421 1.76733Q24.1877 2.4579 24.4063 3.02571Q24.6097 2.4579 24.8284 1.76733Q25.0509 1.07677 25.2619 0.347832Q25.4729 -0.384939 25.6685 -1.09853Q25.868 -1.81595 26.0253 -2.42595L28.4462 -2.42595ZM29.3014 1.76733Q29.3014 0.666261 29.6391 -0.158586Q29.9767 -0.983432 30.5253 -1.53205Q31.0777 -2.08067 31.7913 -2.36457Q32.5088 -2.64847 33.2645 -2.64847Q35.0217 -2.64847 36.0422 -1.57042Q37.0665 -0.496197 37.0665 1.59469Q37.0665 1.79803 37.0512 2.04356Q37.0358 2.28526 37.0166 2.47325L31.7069 2.47325Q31.7837 3.19835 32.3821 3.6242Q32.9806 4.04621 33.9858 4.04621Q34.6303 4.04621 35.248 3.93112Q35.8695 3.81219 36.2647 3.63954L36.5793 5.53861Q36.3913 5.63452 36.0767 5.73043Q35.7621 5.82251 35.3746 5.89157Q34.991 5.96446 34.5498 6.0105Q34.1124 6.05654 33.6712 6.05654Q32.5548 6.05654 31.7299 5.7266Q30.9051 5.39666 30.3603 4.82502Q29.8194 4.24955 29.5585 3.4669Q29.3014 2.68042 29.3014 1.76733ZM34.803 0.873432Q34.7876 0.574185 34.6994 0.290284Q34.615 0.00638342 34.4347 -0.212297Q34.2544 -0.430977 33.9781 -0.572927Q33.7019 -0.714878 33.2952 -0.714878Q32.9001 -0.714878 32.6162 -0.5806Q32.3361 -0.446323 32.1481 -0.227643Q31.9601 -0.00896263 31.8565 0.282611Q31.753 0.574185 31.7069 0.873432L34.803 0.873432Z"/>
</svg>
