<?xml version="1.0" encoding="utf-8" ?>
<svg xmlns="http://www.w3.org/2000/svg" xmlns:xlink="http://www.w3.org/1999/xlink" width="110" height="110">
	<path fill="#42E3F5" transform="matrix(0.77186 1.2021 -1.2021 0.77186 55 47.8571)" d="M11 0L-11 -6L-11 6L11 0Z"/>
	<path fill="none" stroke="#42E3F5" stroke-width="5" stroke-linejoin="round" transform="matrix(0.77186 1.2021 -1.2021 0.77186 55 47.8571)" d="M11 0L-11 -6L-11 6L11 0Z"/>
	<path fill="none" stroke="black" stroke-width="2.3999999" stroke-linejoin="round" transform="translate(55 79.2857)" d="M-28.1717 -6.4323Q-27.8103 -5.76824 -27.3416 -4.79656Q-26.868 -3.82977 -26.3601 -2.69695Q-25.8523 -1.56902 -25.3543 -0.387383Q-24.8513 0.789375 -24.4119 1.82941Q-23.9676 0.789375 -23.4695 -0.387383Q-22.9715 -1.56902 -22.4637 -2.69695Q-21.951 -3.82977 -21.4822 -4.79656Q-21.0086 -5.76824 -20.6521 -6.4323L-17.8103 -6.4323Q-17.6101 -5.05047 -17.4392 -3.3366Q-17.2683 -1.62762 -17.1414 0.222969Q-17.0096 2.06867 -16.9021 3.92902Q-16.7898 5.78937 -16.7117 7.43L-19.7488 7.43Q-19.8123 5.40852 -19.9099 3.03059Q-20.0076 0.647773 -20.2078 -1.76922Q-20.5691 -0.929375 -21.0086 0.0911326Q-21.448 1.11164 -21.8826 2.13215Q-22.3123 3.14777 -22.7127 4.08039Q-23.1082 5.00812 -23.3914 5.67219L-25.5691 5.67219Q-25.8523 5.00812 -26.2527 4.08039Q-26.6482 3.14777 -27.0779 2.13215Q-27.5076 1.11164 -27.9519 0.0911326Q-28.3914 -0.929375 -28.7478 -1.76922Q-28.948 0.647773 -29.0506 3.03059Q-29.1482 5.40852 -29.2117 7.43L-32.2488 7.43Q-32.1707 5.78937 -32.0633 3.92902Q-31.951 2.06867 -31.824 0.222969Q-31.6922 -1.62762 -31.5213 -3.3366Q-31.3504 -5.05047 -31.1502 -6.4323L-28.1717 -6.4323ZM-11.1301 7.43L-14.1086 7.43L-14.1086 -3.08758L-11.1301 -3.08758L-11.1301 7.43ZM-10.8518 -6.12957Q-10.8518 -5.30926 -11.384 -4.84051Q-11.9114 -4.37176 -12.6291 -4.37176Q-13.3518 -4.37176 -13.884 -4.84051Q-14.4114 -5.30926 -14.4114 -6.12957Q-14.4114 -6.94988 -13.884 -7.41863Q-13.3518 -7.89227 -12.6291 -7.89227Q-11.9114 -7.89227 -11.384 -7.41863Q-10.8518 -6.94988 -10.8518 -6.12957ZM-5.31105 5.29133Q-4.49074 5.29133 -4.15382 5.1302Q-3.81203 4.96906 -3.81203 4.51008Q-3.81203 4.14875 -4.25148 3.8802Q-4.69093 3.61164 -5.58937 3.26984Q-6.28761 3.01105 -6.8589 2.73273Q-7.43019 2.44953 -7.83058 2.05891Q-8.23097 1.66828 -8.4507 1.13117Q-8.67043 0.58918 -8.67043 -0.167656Q-8.67043 -1.65203 -7.57179 -2.51141Q-6.46828 -3.37078 -4.54933 -3.37078Q-3.5923 -3.37078 -2.71339 -3.19988Q-1.82961 -3.02898 -1.31203 -2.82879L-1.82961 -0.509453Q-2.35207 -0.690117 -2.96242 -0.826836Q-3.56789 -0.968438 -4.32961 -0.968438Q-5.73097 -0.968438 -5.73097 -0.19207Q-5.73097 -0.0114064 -5.67238 0.130195Q-5.6089 0.271797 -5.42824 0.403633Q-5.24757 0.530586 -4.93996 0.681953Q-4.63234 0.828437 -4.14894 1.0091Q-3.17238 1.37043 -2.53273 1.72199Q-1.8882 2.06867 -1.52199 2.47883Q-1.15089 2.88898 -0.999527 3.39191Q-0.84816 3.88996 -0.84816 4.54914Q-0.84816 6.11164 -2.02003 6.91242Q-3.19191 7.70832 -5.33058 7.70832Q-6.73195 7.70832 -7.66457 7.46906Q-8.5923 7.2298 -8.94875 7.06867L-8.4507 4.65168Q-7.68898 4.94953 -6.89308 5.12043Q-6.0923 5.29133 -5.31105 5.29133ZM4.38895 5.29133Q5.20926 5.29133 5.54617 5.1302Q5.88797 4.96906 5.88797 4.51008Q5.88797 4.14875 5.44852 3.8802Q5.00906 3.61164 4.11063 3.26984Q3.41238 3.01105 2.84109 2.73273Q2.26981 2.44953 1.86942 2.05891Q1.46902 1.66828 1.2493 1.13117Q1.02957 0.58918 1.02957 -0.167656Q1.02957 -1.65203 2.1282 -2.51141Q3.23172 -3.37078 5.15067 -3.37078Q6.1077 -3.37078 6.9866 -3.19988Q7.87039 -3.02898 8.38797 -2.82879L7.87039 -0.509453Q7.34793 -0.690117 6.73758 -0.826836Q6.13211 -0.968438 5.37039 -0.968438Q3.96902 -0.968438 3.96902 -0.19207Q3.96902 -0.0114064 4.02762 0.130195Q4.09109 0.271797 4.27176 0.403633Q4.45242 0.530586 4.76004 0.681953Q5.06766 0.828437 5.55106 1.0091Q6.52762 1.37043 7.16727 1.72199Q7.8118 2.06867 8.17801 2.47883Q8.5491 2.88898 8.70047 3.39191Q8.85184 3.88996 8.85184 4.54914Q8.85184 6.11164 7.67996 6.91242Q6.50809 7.70832 4.36942 7.70832Q2.96805 7.70832 2.03543 7.46906Q1.1077 7.2298 0.751251 7.06867L1.2493 4.65168Q2.01102 4.94953 2.80692 5.12043Q3.6077 5.29133 4.38895 5.29133ZM14.0499 7.43L11.0714 7.43L11.0714 -3.08758L14.0499 -3.08758L14.0499 7.43ZM14.3282 -6.12957Q14.3282 -5.30926 13.796 -4.84051Q13.2686 -4.37176 12.5509 -4.37176Q11.8282 -4.37176 11.296 -4.84051Q10.7686 -5.30926 10.7686 -6.12957Q10.7686 -6.94988 11.296 -7.41863Q11.8282 -7.89227 12.5509 -7.89227Q13.2686 -7.89227 13.796 -7.41863Q14.3282 -6.94988 14.3282 -6.12957ZM21.0506 7.6302Q19.7518 7.61066 18.9412 7.35187Q18.1307 7.0882 17.657 6.61945Q17.1883 6.1507 17.0174 5.48176Q16.8514 4.80793 16.8514 3.96809L16.8514 -7.60906L19.8299 -8.08758L19.8299 3.37238Q19.8299 3.76789 19.8885 4.09016Q19.952 4.41242 20.118 4.63215Q20.2889 4.85187 20.6062 4.99348Q20.9285 5.1302 21.4705 5.16926L21.0506 7.6302ZM22.6684 2.24934Q22.6684 0.847969 23.0981 -0.201836Q23.5278 -1.25164 24.226 -1.94988Q24.9292 -2.64813 25.8374 -3.00945Q26.7505 -3.37078 27.7124 -3.37078Q29.9487 -3.37078 31.2475 -1.99871Q32.5512 -0.631524 32.5512 2.02961Q32.5512 2.2884 32.5317 2.6009Q32.5122 2.90852 32.4878 3.14777L25.7299 3.14777Q25.8276 4.07062 26.5893 4.61262Q27.351 5.14973 28.6303 5.14973Q29.4507 5.14973 30.2368 5.00324Q31.0278 4.85187 31.5307 4.63215L31.9311 7.04914Q31.6919 7.17121 31.2915 7.29328Q30.8911 7.41047 30.3979 7.49836Q29.9096 7.59113 29.3481 7.64973Q28.7915 7.70832 28.2299 7.70832Q26.8091 7.70832 25.7592 7.2884Q24.7094 6.86848 24.0161 6.14094Q23.3276 5.40852 22.9956 4.41242Q22.6684 3.41145 22.6684 2.24934ZM29.6704 1.11164Q29.6508 0.730781 29.5385 0.369453Q29.4311 0.00812483 29.2016 -0.270195Q28.9721 -0.548516 28.6206 -0.72918Q28.269 -0.909844 27.7514 -0.909844Q27.2485 -0.909844 26.8872 -0.738945Q26.5307 -0.568047 26.2915 -0.289727Q26.0522 -0.0114064 25.9204 0.359687Q25.7885 0.730781 25.7299 1.11164L29.6704 1.11164Z"/>
	<path fill="white" transform="translate(55 79.2857)" d="M-28.1717 -6.4323Q-27.8103 -5.76824 -27.3416 -4.79656Q-26.868 -3.82977 -26.3601 -2.69695Q-25.8523 -1.56902 -25.3543 -0.387383Q-24.8513 0.789375 -24.4119 1.82941Q-23.9676 0.789375 -23.4695 -0.387383Q-22.9715 -1.56902 -22.4637 -2.69695Q-21.951 -3.82977 -21.4822 -4.79656Q-21.0086 -5.76824 -20.6521 -6.4323L-17.8103 -6.4323Q-17.6101 -5.05047 -17.4392 -3.3366Q-17.2683 -1.62762 -17.1414 0.222969Q-17.0096 2.06867 -16.9021 3.92902Q-16.7898 5.78937 -16.7117 7.43L-19.7488 7.43Q-19.8123 5.40852 -19.9099 3.03059Q-20.0076 0.647773 -20.2078 -1.76922Q-20.5691 -0.929375 -21.0086 0.0911326Q-21.448 1.11164 -21.8826 2.13215Q-22.3123 3.14777 -22.7127 4.08039Q-23.1082 5.00812 -23.3914 5.67219L-25.5691 5.67219Q-25.8523 5.00812 -26.2527 4.08039Q-26.6482 3.14777 -27.0779 2.13215Q-27.5076 1.11164 -27.9519 0.0911326Q-28.3914 -0.929375 -28.7478 -1.76922Q-28.948 0.647773 -29.0506 3.03059Q-29.1482 5.40852 -29.2117 7.43L-32.2488 7.43Q-32.1707 5.78937 -32.0633 3.92902Q-31.951 2.06867 -31.824 0.222969Q-31.6922 -1.62762 -31.5213 -3.3366Q-31.3504 -5.05047 -31.1502 -6.4323L-28.1717 -6.4323ZM-11.1301 7.43L-14.1086 7.43L-14.1086 -3.08758L-11.1301 -3.08758L-11.1301 7.43ZM-10.8518 -6.12957Q-10.8518 -5.30926 -11.384 -4.84051Q-11.9114 -4.37176 -12.6291 -4.37176Q-13.3518 -4.37176 -13.884 -4.84051Q-14.4114 -5.30926 -14.4114 -6.12957Q-14.4114 -6.94988 -13.884 -7.41863Q-13.3518 -7.89227 -12.6291 -7.89227Q-11.9114 -7.89227 -11.384 -7.41863Q-10.8518 -6.94988 -10.8518 -6.12957ZM-5.31105 5.29133Q-4.49074 5.29133 -4.15382 5.1302Q-3.81203 4.96906 -3.81203 4.51008Q-3.81203 4.14875 -4.25148 3.8802Q-4.69093 3.61164 -5.58937 3.26984Q-6.28761 3.01105 -6.8589 2.73273Q-7.43019 2.44953 -7.83058 2.05891Q-8.23097 1.66828 -8.4507 1.13117Q-8.67043 0.58918 -8.67043 -0.167656Q-8.67043 -1.65203 -7.57179 -2.51141Q-6.46828 -3.37078 -4.54933 -3.37078Q-3.5923 -3.37078 -2.71339 -3.19988Q-1.82961 -3.02898 -1.31203 -2.82879L-1.82961 -0.509453Q-2.35207 -0.690117 -2.96242 -0.826836Q-3.56789 -0.968438 -4.32961 -0.968438Q-5.73097 -0.968438 -5.73097 -0.19207Q-5.73097 -0.0114064 -5.67238 0.130195Q-5.6089 0.271797 -5.42824 0.403633Q-5.24757 0.530586 -4.93996 0.681953Q-4.63234 0.828437 -4.14894 1.0091Q-3.17238 1.37043 -2.53273 1.72199Q-1.8882 2.06867 -1.52199 2.47883Q-1.15089 2.88898 -0.999527 3.39191Q-0.84816 3.88996 -0.84816 4.54914Q-0.84816 6.11164 -2.02003 6.91242Q-3.19191 7.70832 -5.33058 7.70832Q-6.73195 7.70832 -7.66457 7.46906Q-8.5923 7.2298 -8.94875 7.06867L-8.4507 4.65168Q-7.68898 4.94953 -6.89308 5.12043Q-6.0923 5.29133 -5.31105 5.29133ZM4.38895 5.29133Q5.20926 5.29133 5.54617 5.1302Q5.88797 4.96906 5.88797 4.51008Q5.88797 4.14875 5.44852 3.8802Q5.00906 3.61164 4.11063 3.26984Q3.41238 3.01105 2.84109 2.73273Q2.26981 2.44953 1.86942 2.05891Q1.46902 1.66828 1.2493 1.13117Q1.02957 0.58918 1.02957 -0.167656Q1.02957 -1.65203 2.1282 -2.51141Q3.23172 -3.37078 5.15067 -3.37078Q6.1077 -3.37078 6.9866 -3.19988Q7.87039 -3.02898 8.38797 -2.82879L7.87039 -0.509453Q7.34793 -0.690117 6.73758 -0.826836Q6.13211 -0.968438 5.37039 -0.968438Q3.96902 -0.968438 3.96902 -0.19207Q3.96902 -0.0114064 4.02762 0.130195Q4.09109 0.271797 4.27176 0.403633Q4.45242 0.530586 4.76004 0.681953Q5.06766 0.828437 5.55106 1.0091Q6.52762 1.37043 7.16727 1.72199Q7.8118 2.06867 8.17801 2.47883Q8.5491 2.88898 8.70047 3.39191Q8.85184 3.88996 8.85184 4.54914Q8.85184 6.11164 7.67996 6.91242Q6.50809 7.70832 4.36942 7.70832Q2.96805 7.70832 2.03543 7.46906Q1.1077 7.2298 0.751251 7.06867L1.2493 4.65168Q2.01102 4.94953 2.80692 5.12043Q3.6077 5.29133 4.38895 5.29133ZM14.0499 7.43L11.0714 7.43L11.0714 -3.08758L14.0499 -3.08758L14.0499 7.43ZM14.3282 -6.12957Q14.3282 -5.30926 13.796 -4.84051Q13.2686 -4.37176 12.5509 -4.37176Q11.8282 -4.37176 11.296 -4.84051Q10.7686 -5.30926 10.7686 -6.12957Q10.7686 -6.94988 11.296 -7.41863Q11.8282 -7.89227 12.5509 -7.89227Q13.2686 -7.89227 13.796 -7.41863Q14.3282 -6.94988 14.3282 -6.12957ZM21.0506 7.6302Q19.7518 7.61066 18.9412 7.35187Q18.1307 7.0882 17.657 6.61945Q17.1883 6.1507 17.0174 5.48176Q16.8514 4.80793 16.8514 3.96809L16.8514 -7.60906L19.8299 -8.08758L19.8299 3.37238Q19.8299 3.76789 19.8885 4.09016Q19.952 4.41242 20.118 4.63215Q20.2889 4.85187 20.6062 4.99348Q20.9285 5.1302 21.4705 5.16926L21.0506 7.6302ZM22.6684 2.24934Q22.6684 0.847969 23.0981 -0.201836Q23.5278 -1.25164 24.226 -1.94988Q24.9292 -2.64813 25.8374 -3.00945Q26.7505 -3.37078 27.7124 -3.37078Q29.9487 -3.37078 31.2475 -1.99871Q32.5512 -0.631524 32.5512 2.02961Q32.5512 2.2884 32.5317 2.6009Q32.5122 2.90852 32.4878 3.14777L25.7299 3.14777Q25.8276 4.07062 26.5893 4.61262Q27.351 5.14973 28.6303 5.14973Q29.4507 5.14973 30.2368 5.00324Q31.0278 4.85187 31.5307 4.63215L31.9311 7.04914Q31.6919 7.17121 31.2915 7.29328Q30.8911 7.41047 30.3979 7.49836Q29.9096 7.59113 29.3481 7.64973Q28.7915 7.70832 28.2299 7.70832Q26.8091 7.70832 25.7592 7.2884Q24.7094 6.86848 24.0161 6.14094Q23.3276 5.40852 22.9956 4.41242Q22.6684 3.41145 22.6684 2.24934ZM29.6704 1.11164Q29.6508 0.730781 29.5385 0.369453Q29.4311 0.00812483 29.2016 -0.270195Q28.9721 -0.548516 28.6206 -0.72918Q28.269 -0.909844 27.7514 -0.909844Q27.2485 -0.909844 26.8872 -0.738945Q26.5307 -0.568047 26.2915 -0.289727Q26.0522 -0.0114064 25.9204 0.359687Q25.7885 0.730781 25.7299 1.11164L29.6704 1.11164Z"/>
</svg>
