<?xml version="1.0" encoding="utf-8" ?>
<svg xmlns="http://www.w3.org/2000/svg" xmlns:xlink="http://www.w3.org/1999/xlink" width="110" height="110">
	<path fill="#35B8C6" transform="matrix(0.77186 1.2021 -1.2021 0.77186 55 47.8571)" d="M-3.5 10L-3.5 0Q-3.5 -0.456821 -3.38275 -0.898338Q-3.2655 -1.33985 -3.03885 -1.73649L0.961149 -8.73649Q1.04646 -8.88578 1.14599 -9.02598Q1.24552 -9.16619 1.35831 -9.29597Q1.47111 -9.42575 1.59608 -9.54385Q1.72105 -9.66194 1.85699 -9.76722Q1.99294 -9.8725 2.13855 -9.96395Q2.28416 -10.0554 2.43803 -10.1321Q2.5919 -10.2089 2.75255 -10.2701Q2.9132 -10.3314 3.07909 -10.3767Q3.24497 -10.4219 3.4145 -10.4507Q3.58402 -10.4794 3.75554 -10.4915Q3.92706 -10.5035 4.09894 -10.4986Q4.27081 -10.4937 4.44139 -10.4721Q4.61196 -10.4504 4.77958 -10.4121Q4.94721 -10.3738 5.11027 -10.3192Q5.27333 -10.2647 5.43027 -10.1944Q5.5872 -10.1242 5.73649 -10.0389Q5.88578 -9.95354 6.02598 -9.85401Q6.16619 -9.75448 6.29597 -9.64169Q6.42575 -9.52889 6.54385 -9.40392Q6.66194 -9.27895 6.76722 -9.14301Q6.8725 -9.00706 6.96395 -8.86145Q7.0554 -8.71584 7.13213 -8.56197Q7.20887 -8.4081 7.27015 -8.24745Q7.33143 -8.0868 7.37667 -7.92091Q7.42191 -7.75503 7.45068 -7.5855Q7.47944 -7.41598 7.49145 -7.24446Q7.50346 -7.07293 7.4986 -6.90106Q7.49374 -6.72918 7.47206 -6.55861Q7.45037 -6.38804 7.41207 -6.22042Q7.37378 -6.05279 7.31923 -5.88973Q7.26469 -5.72667 7.19442 -5.56973Q7.12416 -5.4128 7.03885 -5.26351L3.03885 1.73649L0 0L3.5 0L3.5 10Q3.5 10.1719 3.48315 10.3431Q3.46629 10.5142 3.43275 10.6828Q3.3992 10.8515 3.34929 11.016Q3.29938 11.1805 3.23358 11.3394Q3.16778 11.4982 3.08672 11.6499Q3.00567 11.8015 2.91014 11.9445Q2.81462 12.0875 2.70554 12.2204Q2.59646 12.3533 2.47487 12.4749Q2.35329 12.5965 2.22038 12.7055Q2.08746 12.8146 1.9445 12.9101Q1.80153 13.0057 1.64989 13.0867Q1.49825 13.1678 1.33939 13.2336Q1.18054 13.2994 1.016 13.3493Q0.851456 13.3992 0.682816 13.4327Q0.514176 13.4663 0.34306 13.4831Q0.171944 13.5 0 13.5Q-0.171944 13.5 -0.34306 13.4831Q-0.514176 13.4663 -0.682816 13.4327Q-0.851456 13.3992 -1.016 13.3493Q-1.18054 13.2994 -1.33939 13.2336Q-1.49825 13.1678 -1.64989 13.0867Q-1.80153 13.0057 -1.9445 12.9101Q-2.08746 12.8146 -2.22038 12.7055Q-2.35329 12.5965 -2.47487 12.4749Q-2.59646 12.3533 -2.70554 12.2204Q-2.81462 12.0875 -2.91014 11.9445Q-3.00567 11.8015 -3.08672 11.6499Q-3.16778 11.4982 -3.23358 11.3394Q-3.29938 11.1805 -3.34929 11.016Q-3.3992 10.8515 -3.43275 10.6828Q-3.46629 10.5142 -3.48315 10.3431Q-3.5 10.1719 -3.5 10ZM-3.00123 1.80073L-9.00123 -8.19926Q-9.08969 -8.34671 -9.16328 -8.50211Q-9.23686 -8.65751 -9.29486 -8.81937Q-9.35286 -8.98124 -9.39472 -9.14801Q-9.43657 -9.31479 -9.46188 -9.48486Q-9.48719 -9.65493 -9.49571 -9.82666Q-9.50422 -9.99839 -9.49586 -10.1701Q-9.4875 -10.3419 -9.46235 -10.512Q-9.4372 -10.6821 -9.3955 -10.8489Q-9.3538 -11.0157 -9.29594 -11.1776Q-9.23809 -11.3395 -9.16465 -11.495Q-9.0912 -11.6505 -9.00287 -11.798Q-8.91454 -11.9455 -8.81218 -12.0837Q-8.70982 -12.2218 -8.5944 -12.3493Q-8.47899 -12.4767 -8.35164 -12.5923Q-8.22429 -12.7078 -8.08624 -12.8103Q-7.94818 -12.9128 -7.80073 -13.0012Q-7.65329 -13.0897 -7.49789 -13.1633Q-7.34249 -13.2369 -7.18062 -13.2949Q-7.01876 -13.3529 -6.85199 -13.3947Q-6.68521 -13.4366 -6.51514 -13.4619Q-6.34507 -13.4872 -6.17334 -13.4957Q-6.00161 -13.5042 -5.82986 -13.4959Q-5.65812 -13.4875 -5.48803 -13.4624Q-5.31793 -13.4372 -5.15112 -13.3955Q-4.98431 -13.3538 -4.8224 -13.2959Q-4.66048 -13.2381 -4.50501 -13.1646Q-4.34954 -13.0912 -4.20202 -13.0029Q-4.05449 -12.9145 -3.91634 -12.8122Q-3.77819 -12.7098 -3.65073 -12.5944Q-3.52328 -12.479 -3.40775 -12.3516Q-3.29222 -12.2243 -3.18973 -12.0862Q-3.08724 -11.9482 -2.99877 -11.8007L3.00123 -1.80073Q3.08969 -1.65329 3.16328 -1.49789Q3.23686 -1.34249 3.29486 -1.18062Q3.35286 -1.01876 3.39472 -0.851986Q3.43657 -0.685214 3.46188 -0.515143Q3.48719 -0.345072 3.4957 -0.173339Q3.50422 -0.0016057 3.49586 0.170135Q3.4875 0.341876 3.46235 0.51197Q3.4372 0.682065 3.3955 0.848875Q3.3538 1.01568 3.29594 1.1776Q3.23809 1.33952 3.16465 1.49499Q3.0912 1.65046 3.00287 1.79798Q2.91454 1.94551 2.81218 2.08366Q2.70982 2.22181 2.59441 2.34927Q2.47899 2.47672 2.35164 2.59225Q2.2243 2.70778 2.08624 2.81027Q1.94818 2.91276 1.80073 3.00123Q1.65329 3.08969 1.49789 3.16328Q1.34249 3.23686 1.18062 3.29486Q1.01876 3.35286 0.851986 3.39472Q0.685214 3.43657 0.515143 3.46188Q0.345072 3.48719 0.173339 3.4957Q0.0016057 3.50422 -0.170135 3.49586Q-0.341876 3.4875 -0.51197 3.46235Q-0.682065 3.4372 -0.848875 3.3955Q-1.01568 3.3538 -1.1776 3.29594Q-1.33952 3.23809 -1.49499 3.16465Q-1.65046 3.0912 -1.79798 3.00287Q-1.94551 2.91454 -2.08366 2.81218Q-2.22181 2.70982 -2.34927 2.59441Q-2.47672 2.47899 -2.59225 2.35164Q-2.70778 2.2243 -2.81027 2.08624Q-2.91276 1.94818 -3.00123 1.80073Z"/>
	<path fill="#42E3F5" transform="matrix(0.77186 1.2021 -1.2021 0.77186 55 47.8571)" d="M-1.5 10L-1.5 0Q-1.5 -0.398347 -1.30236 -0.744208L2.69764 -7.74421Q2.7342 -7.80819 2.77685 -7.86828Q2.81951 -7.92837 2.86785 -7.98399Q2.91619 -8.03961 2.96975 -8.09022Q3.02331 -8.14083 3.08157 -8.18595Q3.13983 -8.23107 3.20223 -8.27026Q3.26464 -8.30945 3.33058 -8.34234Q3.39653 -8.37523 3.46538 -8.40149Q3.53423 -8.42776 3.60532 -8.44715Q3.67642 -8.46654 3.74907 -8.47886Q3.82172 -8.49119 3.89523 -8.49634Q3.96874 -8.50148 4.0424 -8.4994Q4.11606 -8.49732 4.18917 -8.48802Q4.26227 -8.47873 4.33411 -8.46232Q4.40594 -8.4459 4.47583 -8.42253Q4.54571 -8.39915 4.61297 -8.36904Q4.68023 -8.33892 4.74421 -8.30236Q4.80819 -8.2658 4.86828 -8.22315Q4.92837 -8.18049 4.98399 -8.13215Q5.03961 -8.08381 5.09022 -8.03025Q5.14083 -7.97669 5.18595 -7.91843Q5.23107 -7.86017 5.27026 -7.79777Q5.30945 -7.73536 5.34234 -7.66942Q5.37523 -7.60347 5.40149 -7.53462Q5.42776 -7.46577 5.44715 -7.39468Q5.46653 -7.32358 5.47886 -7.25093Q5.49119 -7.17828 5.49634 -7.10477Q5.50148 -7.03126 5.4994 -6.9576Q5.49732 -6.88394 5.48802 -6.81083Q5.47873 -6.73773 5.46232 -6.66589Q5.4459 -6.59405 5.42253 -6.52417Q5.39915 -6.45429 5.36904 -6.38703Q5.33893 -6.31977 5.30236 -6.25579L1.30236 0.744208L0 0L1.5 0L1.5 10Q1.5 10.0737 1.49278 10.147Q1.48555 10.2204 1.47118 10.2926Q1.4568 10.3649 1.43541 10.4354Q1.41402 10.5059 1.38582 10.574Q1.35762 10.6421 1.32288 10.7071Q1.28814 10.7721 1.2472 10.8334Q1.20626 10.8946 1.15952 10.9516Q1.11277 11.0086 1.06066 11.0607Q1.00855 11.1128 0.95159 11.1595Q0.894626 11.2063 0.833355 11.2472Q0.772084 11.2881 0.707095 11.3229Q0.642106 11.3576 0.574025 11.3858Q0.505944 11.414 0.435427 11.4354Q0.36491 11.4568 0.292635 11.4712Q0.220361 11.4856 0.147026 11.4928Q0.0736903 11.5 0 11.5Q-0.0736903 11.5 -0.147026 11.4928Q-0.220361 11.4856 -0.292635 11.4712Q-0.36491 11.4568 -0.435427 11.4354Q-0.505944 11.414 -0.574025 11.3858Q-0.642106 11.3576 -0.707095 11.3229Q-0.772084 11.2881 -0.833355 11.2472Q-0.894626 11.2063 -0.95159 11.1595Q-1.00855 11.1128 -1.06066 11.0607Q-1.11277 11.0086 -1.15952 10.9516Q-1.20626 10.8946 -1.2472 10.8334Q-1.28814 10.7721 -1.32288 10.7071Q-1.35762 10.6421 -1.38582 10.574Q-1.41402 10.5059 -1.43541 10.4354Q-1.4568 10.3649 -1.47118 10.2926Q-1.48555 10.2204 -1.49278 10.147Q-1.5 10.0737 -1.5 10ZM-1.28624 0.771744L-7.28624 -9.22826Q-7.32415 -9.29144 -7.35569 -9.35805Q-7.38723 -9.42465 -7.41208 -9.49402Q-7.43694 -9.56339 -7.45488 -9.63486Q-7.47282 -9.70634 -7.48366 -9.77922Q-7.49451 -9.85211 -7.49816 -9.92571Q-7.50181 -9.99931 -7.49823 -10.0729Q-7.49464 -10.1465 -7.48387 -10.2194Q-7.47309 -10.2923 -7.45521 -10.3638Q-7.43734 -10.4353 -7.41255 -10.5047Q-7.38775 -10.5741 -7.35628 -10.6407Q-7.3248 -10.7073 -7.28695 -10.7706Q-7.24909 -10.8338 -7.20522 -10.893Q-7.16135 -10.9522 -7.11189 -11.0068Q-7.06243 -11.0615 -7.00785 -11.111Q-6.95327 -11.1605 -6.8941 -11.2044Q-6.83493 -11.2483 -6.77174 -11.2862Q-6.70856 -11.3242 -6.64195 -11.3557Q-6.57535 -11.3872 -6.50598 -11.4121Q-6.43661 -11.4369 -6.36514 -11.4549Q-6.29366 -11.4728 -6.22078 -11.4837Q-6.14789 -11.4945 -6.07429 -11.4982Q-6.00069 -11.5018 -5.92708 -11.4982Q-5.85348 -11.4946 -5.78058 -11.4839Q-5.70769 -11.4731 -5.6362 -11.4552Q-5.56471 -11.4373 -5.49531 -11.4125Q-5.42592 -11.3878 -5.35929 -11.3563Q-5.29266 -11.3248 -5.22943 -11.2869Q-5.16621 -11.2491 -5.107 -11.2052Q-5.04779 -11.1614 -4.99317 -11.1119Q-4.93855 -11.0624 -4.88903 -11.0078Q-4.83952 -10.9533 -4.7956 -10.8941Q-4.75167 -10.8349 -4.71376 -10.7717L1.28624 -0.771744Q1.32415 -0.708555 1.35569 -0.641954Q1.38723 -0.575353 1.41208 -0.505982Q1.43694 -0.436611 1.45488 -0.365137Q1.47282 -0.293663 1.48366 -0.220776Q1.49451 -0.147888 1.49816 -0.074288Q1.50181 -0.000688195 1.49823 0.072915Q1.49464 0.146518 1.48387 0.219416Q1.47309 0.292313 1.45521 0.363803Q1.43734 0.435294 1.41255 0.504688Q1.38775 0.574082 1.35628 0.640711Q1.3248 0.707341 1.28695 0.770564Q1.24909 0.833788 1.20522 0.892997Q1.16135 0.952205 1.11189 1.00683Q1.06243 1.06145 1.00785 1.11096Q0.953269 1.16048 0.894101 1.2044Q0.834933 1.24833 0.771744 1.28624Q0.708555 1.32415 0.641954 1.35569Q0.575353 1.38723 0.505982 1.41208Q0.436611 1.43694 0.365137 1.45488Q0.293663 1.47282 0.220776 1.48366Q0.147888 1.49451 0.074288 1.49816Q0.000688195 1.50181 -0.072915 1.49823Q-0.146518 1.49464 -0.219416 1.48387Q-0.292313 1.47309 -0.363803 1.45521Q-0.435294 1.43734 -0.504688 1.41255Q-0.574082 1.38775 -0.640711 1.35628Q-0.707341 1.3248 -0.770564 1.28695Q-0.833788 1.24909 -0.892997 1.20522Q-0.952205 1.16135 -1.00683 1.11189Q-1.06145 1.06243 -1.11096 1.00785Q-1.16048 0.953269 -1.2044 0.894101Q-1.24833 0.834933 -1.28624 0.771744Z"/>
	<path fill="none" stroke="black" stroke-width="2.3999999" stroke-linejoin="round" transform="translate(55 79.2857)" d="M-18.5591 5.05207Q-17.8999 5.05207 -17.4702 4.94465Q-17.0406 4.83234 -16.7818 4.64191Q-16.5181 4.45148 -16.4204 4.1927Q-16.3179 3.92902 -16.3179 3.61164Q-16.3179 2.92805 -16.9624 2.47883Q-17.6021 2.02961 -19.1597 1.51203Q-19.8384 1.26789 -20.522 0.960273Q-21.2007 0.647773 -21.7427 0.179023Q-22.2798 -0.289727 -22.6216 -0.958672Q-22.9585 -1.62762 -22.9585 -2.58953Q-22.9585 -3.55145 -22.6021 -4.31805Q-22.2408 -5.08953 -21.5816 -5.62664Q-20.9224 -6.16863 -19.98 -6.45672Q-19.0376 -6.74969 -17.8609 -6.74969Q-16.4595 -6.74969 -15.439 -6.44695Q-14.4185 -6.1491 -13.7593 -5.78777L-14.6577 -3.33172Q-15.2388 -3.62957 -15.9517 -3.85906Q-16.6597 -4.08855 -17.6607 -4.08855Q-18.7788 -4.08855 -19.272 -3.77605Q-19.7603 -3.46844 -19.7603 -2.82879Q-19.7603 -2.44793 -19.5796 -2.18914Q-19.399 -1.93035 -19.0718 -1.72039Q-18.7398 -1.51043 -18.3101 -1.33953Q-17.8804 -1.16863 -17.3579 -0.987969Q-16.2788 -0.587578 -15.4829 -0.196953Q-14.6822 0.188789 -14.1499 0.71125Q-13.6177 1.22883 -13.3589 1.93195Q-13.1001 2.6302 -13.1001 3.63117Q-13.1001 5.56965 -14.4624 6.63898Q-15.8199 7.70832 -18.5591 7.70832Q-19.482 7.70832 -20.2242 7.59602Q-20.9615 7.48859 -21.5327 7.33234Q-22.0992 7.17121 -22.5093 6.99055Q-22.9195 6.80988 -23.1978 6.64875L-22.3189 4.16828Q-21.6988 4.51008 -20.7906 4.78352Q-19.8824 5.05207 -18.5591 5.05207ZM-11.0012 -5.70965L-8.01776 -6.18816L-8.01776 -3.08758L-4.43866 -3.08758L-4.43866 -0.611992L-8.01776 -0.611992L-8.01776 3.08918Q-8.01776 4.03156 -7.69061 4.59309Q-7.35858 5.14973 -6.3576 5.14973Q-5.87909 5.14973 -5.37128 5.06184Q-4.85858 4.96906 -4.43866 4.80793L-4.01874 7.13215Q-4.56073 7.35187 -5.21991 7.50812Q-5.87909 7.66926 -6.841 7.66926Q-8.06171 7.66926 -8.86249 7.34211Q-9.65839 7.01008 -10.1418 6.41926Q-10.6203 5.82844 -10.8107 4.98859Q-11.0012 4.14875 -11.0012 3.12824L-11.0012 -5.70965ZM0.959885 7.43L-2.01863 7.43L-2.01863 -3.08758L0.959885 -3.08758L0.959885 7.43ZM1.2382 -6.12957Q1.2382 -5.30926 0.705978 -4.84051Q0.178635 -4.37176 -0.539139 -4.37176Q-1.2618 -4.37176 -1.79402 -4.84051Q-2.32137 -5.30926 -2.32137 -6.12957Q-2.32137 -6.94988 -1.79402 -7.41863Q-1.2618 -7.89227 -0.539139 -7.89227Q0.178635 -7.89227 0.705978 -7.41863Q1.2382 -6.94988 1.2382 -6.12957ZM3.25844 2.17121Q3.25844 1.02863 3.62953 0.0227733Q4.00063 -0.987969 4.69887 -1.73992Q5.40199 -2.49188 6.39809 -2.93133Q7.39906 -3.37078 8.67836 -3.37078Q9.5182 -3.37078 10.2164 -3.21941Q10.9196 -3.06805 11.5788 -2.78973L10.9586 -0.411797Q10.5387 -0.568047 10.0358 -0.690117Q9.53773 -0.812188 8.91762 -0.812188Q7.59926 -0.812188 6.94984 0.00812483Q6.30043 0.828437 6.30043 2.17121Q6.30043 3.59211 6.91078 4.37336Q7.52113 5.14973 9.03969 5.14973Q9.58168 5.14973 10.2018 5.05207Q10.8219 4.94953 11.3395 4.7298L11.7594 7.17121Q11.2418 7.39094 10.4606 7.54719Q9.67934 7.70832 8.74184 7.70832Q7.30141 7.70832 6.26137 7.27863Q5.22133 6.84895 4.5475 6.11164Q3.87856 5.36945 3.56606 4.35871Q3.25844 3.34797 3.25844 2.17121ZM16.7399 0.71125Q17.1793 0.227851 17.6481 -0.289727Q18.1217 -0.812188 18.5612 -1.32Q19.0006 -1.82781 19.3912 -2.2868Q19.7819 -2.75066 20.0602 -3.08758L23.6002 -3.08758Q22.5406 -1.87176 21.5299 -0.758477Q20.5192 0.349922 19.318 1.53156Q19.9186 2.06867 20.5582 2.82062Q21.1979 3.5677 21.7985 4.36848Q22.399 5.16926 22.8971 5.97004Q23.4 6.77082 23.7418 7.43L20.319 7.43Q20.0016 6.91242 19.5914 6.28254Q19.1813 5.64777 18.7174 5.01789Q18.2584 4.38801 17.7457 3.81184Q17.2379 3.23078 16.7399 2.83039L16.7399 7.43L13.7614 7.43L13.7614 -7.60906L16.7399 -8.08758L16.7399 0.71125Z"/>
	<path fill="white" transform="translate(55 79.2857)" d="M-18.5591 5.05207Q-17.8999 5.05207 -17.4702 4.94465Q-17.0406 4.83234 -16.7818 4.64191Q-16.5181 4.45148 -16.4204 4.1927Q-16.3179 3.92902 -16.3179 3.61164Q-16.3179 2.92805 -16.9624 2.47883Q-17.6021 2.02961 -19.1597 1.51203Q-19.8384 1.26789 -20.522 0.960273Q-21.2007 0.647773 -21.7427 0.179023Q-22.2798 -0.289727 -22.6216 -0.958672Q-22.9585 -1.62762 -22.9585 -2.58953Q-22.9585 -3.55145 -22.6021 -4.31805Q-22.2408 -5.08953 -21.5816 -5.62664Q-20.9224 -6.16863 -19.98 -6.45672Q-19.0376 -6.74969 -17.8609 -6.74969Q-16.4595 -6.74969 -15.439 -6.44695Q-14.4185 -6.1491 -13.7593 -5.78777L-14.6577 -3.33172Q-15.2388 -3.62957 -15.9517 -3.85906Q-16.6597 -4.08855 -17.6607 -4.08855Q-18.7788 -4.08855 -19.272 -3.77605Q-19.7603 -3.46844 -19.7603 -2.82879Q-19.7603 -2.44793 -19.5796 -2.18914Q-19.399 -1.93035 -19.0718 -1.72039Q-18.7398 -1.51043 -18.3101 -1.33953Q-17.8804 -1.16863 -17.3579 -0.987969Q-16.2788 -0.587578 -15.4829 -0.196953Q-14.6822 0.188789 -14.1499 0.71125Q-13.6177 1.22883 -13.3589 1.93195Q-13.1001 2.6302 -13.1001 3.63117Q-13.1001 5.56965 -14.4624 6.63898Q-15.8199 7.70832 -18.5591 7.70832Q-19.482 7.70832 -20.2242 7.59602Q-20.9615 7.48859 -21.5327 7.33234Q-22.0992 7.17121 -22.5093 6.99055Q-22.9195 6.80988 -23.1978 6.64875L-22.3189 4.16828Q-21.6988 4.51008 -20.7906 4.78352Q-19.8824 5.05207 -18.5591 5.05207ZM-11.0012 -5.70965L-8.01776 -6.18816L-8.01776 -3.08758L-4.43866 -3.08758L-4.43866 -0.611992L-8.01776 -0.611992L-8.01776 3.08918Q-8.01776 4.03156 -7.69061 4.59309Q-7.35858 5.14973 -6.3576 5.14973Q-5.87909 5.14973 -5.37128 5.06184Q-4.85858 4.96906 -4.43866 4.80793L-4.01874 7.13215Q-4.56073 7.35187 -5.21991 7.50812Q-5.87909 7.66926 -6.841 7.66926Q-8.06171 7.66926 -8.86249 7.34211Q-9.65839 7.01008 -10.1418 6.41926Q-10.6203 5.82844 -10.8107 4.98859Q-11.0012 4.14875 -11.0012 3.12824L-11.0012 -5.70965ZM0.959885 7.43L-2.01863 7.43L-2.01863 -3.08758L0.959885 -3.08758L0.959885 7.43ZM1.2382 -6.12957Q1.2382 -5.30926 0.705978 -4.84051Q0.178635 -4.37176 -0.539139 -4.37176Q-1.2618 -4.37176 -1.79402 -4.84051Q-2.32137 -5.30926 -2.32137 -6.12957Q-2.32137 -6.94988 -1.79402 -7.41863Q-1.2618 -7.89227 -0.539139 -7.89227Q0.178635 -7.89227 0.705978 -7.41863Q1.2382 -6.94988 1.2382 -6.12957ZM3.25844 2.17121Q3.25844 1.02863 3.62953 0.0227733Q4.00063 -0.987969 4.69887 -1.73992Q5.40199 -2.49188 6.39809 -2.93133Q7.39906 -3.37078 8.67836 -3.37078Q9.5182 -3.37078 10.2164 -3.21941Q10.9196 -3.06805 11.5788 -2.78973L10.9586 -0.411797Q10.5387 -0.568047 10.0358 -0.690117Q9.53773 -0.812188 8.91762 -0.812188Q7.59926 -0.812188 6.94984 0.00812483Q6.30043 0.828437 6.30043 2.17121Q6.30043 3.59211 6.91078 4.37336Q7.52113 5.14973 9.03969 5.14973Q9.58168 5.14973 10.2018 5.05207Q10.8219 4.94953 11.3395 4.7298L11.7594 7.17121Q11.2418 7.39094 10.4606 7.54719Q9.67934 7.70832 8.74184 7.70832Q7.30141 7.70832 6.26137 7.27863Q5.22133 6.84895 4.5475 6.11164Q3.87856 5.36945 3.56606 4.35871Q3.25844 3.34797 3.25844 2.17121ZM16.7399 0.71125Q17.1793 0.227851 17.6481 -0.289727Q18.1217 -0.812188 18.5612 -1.32Q19.0006 -1.82781 19.3912 -2.2868Q19.7819 -2.75066 20.0602 -3.08758L23.6002 -3.08758Q22.5406 -1.87176 21.5299 -0.758477Q20.5192 0.349922 19.318 1.53156Q19.9186 2.06867 20.5582 2.82062Q21.1979 3.5677 21.7985 4.36848Q22.399 5.16926 22.8971 5.97004Q23.4 6.77082 23.7418 7.43L20.319 7.43Q20.0016 6.91242 19.5914 6.28254Q19.1813 5.64777 18.7174 5.01789Q18.2584 4.38801 17.7457 3.81184Q17.2379 3.23078 16.7399 2.83039L16.7399 7.43L13.7614 7.43L13.7614 -7.60906L16.7399 -8.08758L16.7399 0.71125Z"/>
</svg>
