<?xml version="1.0" encoding="utf-8" ?>
<svg xmlns="http://www.w3.org/2000/svg" xmlns:xlink="http://www.w3.org/1999/xlink" width="110" height="110">
	<path fill="#8B75B1" transform="matrix(0.77186 1.2021 -1.2021 0.77186 55 47.8571)" d="M-5.37377 15.2748Q-7.58064 4.24043 -6.44981 -4.80623Q-6.43001 -4.96456 -6.40248 -5.12173Q-6.37494 -5.2789 -6.33972 -5.43454Q-6.30451 -5.59017 -6.2617 -5.74388Q-6.21889 -5.8976 -6.16859 -6.04903Q-6.11829 -6.20046 -6.06062 -6.34924Q-6.00295 -6.49802 -5.93804 -6.64379Q-5.87314 -6.78956 -5.80117 -6.93197Q-5.72919 -7.07438 -5.65031 -7.21309Q-5.57144 -7.3518 -5.48585 -7.48647Q-5.40026 -7.62114 -5.30817 -7.75144Q-5.21608 -7.88175 -5.1177 -8.00739Q-5.01932 -8.13302 -4.9149 -8.25367Q-4.81048 -8.37433 -4.70026 -8.48971Q-4.59005 -8.6051 -4.4743 -8.71493Q-4.35856 -8.82477 -4.23756 -8.9288Q-4.11657 -9.03283 -3.99061 -9.13079Q-3.86466 -9.22875 -3.73405 -9.32042Q-3.60344 -9.41208 -3.46849 -9.49723Q-3.33354 -9.58238 -3.19458 -9.6608Q-3.05561 -9.73922 -2.91297 -9.81073Q-2.77032 -9.88224 -2.62434 -9.94667Q-2.47836 -10.0111 -2.32939 -10.0683Q-2.18042 -10.1255 -2.02883 -10.1753Q-1.87723 -10.2251 -1.72338 -10.2674Q-1.56952 -10.3097 -1.41378 -10.3444Q-1.25803 -10.3791 -1.10077 -10.4061Q-0.943509 -10.4331 -0.785111 -10.4524Q-0.626713 -10.4717 -0.46756 -10.4832Q-0.308408 -10.4946 -0.148883 -10.4983Q0.0106407 -10.502 0.170152 -10.4978Q0.329663 -10.4936 0.488778 -10.4816Q0.647892 -10.4696 0.806226 -10.4498Q0.96456 -10.43 1.12173 -10.4025Q1.2789 -10.3749 1.43454 -10.3397Q1.59017 -10.3045 1.74388 -10.2617Q1.8976 -10.2189 2.04903 -10.1686Q2.20046 -10.1183 2.34924 -10.0606Q2.49802 -10.0029 2.64379 -9.93805Q2.78956 -9.87314 2.93197 -9.80117Q3.07438 -9.72919 3.21309 -9.65031Q3.3518 -9.57144 3.48647 -9.48585Q3.62114 -9.40026 3.75144 -9.30817Q3.88175 -9.21608 4.00739 -9.1177Q4.13302 -9.01932 4.25367 -8.9149Q4.37433 -8.81048 4.48971 -8.70026Q4.6051 -8.59005 4.71493 -8.4743Q4.82477 -8.35856 4.9288 -8.23756Q5.03282 -8.11657 5.13079 -7.99061Q5.22875 -7.86466 5.32042 -7.73405Q5.41208 -7.60344 5.49723 -7.46849Q5.58238 -7.33354 5.6608 -7.19458Q5.73922 -7.05561 5.81073 -6.91297Q5.88224 -6.77032 5.94667 -6.62434Q6.01109 -6.47836 6.06827 -6.32939Q6.12546 -6.18042 6.17526 -6.02883Q6.22507 -5.87723 6.26737 -5.72338Q6.30968 -5.56952 6.34439 -5.41378Q6.37909 -5.25803 6.40611 -5.10077Q6.43314 -4.94351 6.45241 -4.78511Q6.47168 -4.62671 6.48316 -4.46756Q6.49464 -4.30841 6.49829 -4.14888Q6.50195 -3.98936 6.49777 -3.82985Q6.4936 -3.67034 6.4816 -3.51122Q6.4696 -3.35211 6.44981 -3.19377Q5.58064 3.75957 7.37377 12.7252Q7.40507 12.8817 7.42865 13.0395Q7.45222 13.1973 7.46803 13.3561Q7.48384 13.5149 7.49183 13.6743Q7.49983 13.8336 7.5 13.9932Q7.50016 14.1528 7.4925 14.3121Q7.48484 14.4715 7.46936 14.6303Q7.45389 14.7892 7.43064 14.947Q7.40739 15.1049 7.37643 15.2614Q7.34546 15.4179 7.30685 15.5728Q7.26824 15.7276 7.22208 15.8803Q7.17592 16.0331 7.12232 16.1834Q7.06872 16.3337 7.00781 16.4812Q6.94691 16.6286 6.87883 16.773Q6.81076 16.9173 6.73569 17.0581Q6.66062 17.1989 6.57873 17.3358Q6.49684 17.4728 6.40833 17.6056Q6.31982 17.7383 6.2249 17.8666Q6.12998 17.9948 6.02888 18.1183Q5.92778 18.2417 5.82074 18.3601Q5.71371 18.4784 5.601 18.5914Q5.48829 18.7043 5.37017 18.8116Q5.25205 18.9189 5.12881 19.0203Q5.00557 19.1216 4.8775 19.2168Q4.74944 19.312 4.61686 19.4008Q4.48428 19.4896 4.3475 19.5717Q4.21072 19.6539 4.07007 19.7293Q3.92943 19.8046 3.78525 19.873Q3.64108 19.9414 3.49372 20.0026Q3.34637 20.0638 3.19618 20.1177Q3.046 20.1717 2.89336 20.2181Q2.74071 20.2646 2.58597 20.3035Q2.43122 20.3425 2.27476 20.3738Q2.11829 20.4051 1.96047 20.4286Q1.80266 20.4522 1.64388 20.468Q1.4851 20.4838 1.32573 20.4918Q1.16637 20.4998 1.0068 20.5Q0.847233 20.5002 0.687851 20.4925Q0.528469 20.4848 0.369655 20.4694Q0.210841 20.4539 0.0529781 20.4306Q-0.104885 20.4074 -0.261418 20.3764Q-0.41795 20.3455 -0.572775 20.3069Q-0.727599 20.2682 -0.880343 20.2221Q-1.03309 20.1759 -1.18338 20.1223Q-1.33368 20.0687 -1.48116 20.0078Q-1.62864 19.9469 -1.77296 19.8788Q-1.91728 19.8108 -2.05808 19.7357Q-2.19888 19.6606 -2.33583 19.5787Q-2.47278 19.4968 -2.60555 19.4083Q-2.73832 19.3198 -2.86658 19.2249Q-2.99485 19.13 -3.1183 19.0289Q-3.24175 18.9278 -3.36009 18.8207Q-3.47844 18.7137 -3.59138 18.601Q-3.70433 18.4883 -3.81161 18.3702Q-3.9189 18.252 -4.02025 18.1288Q-4.12161 18.0056 -4.2168 17.8775Q-4.31198 17.7494 -4.40077 17.6169Q-4.48956 17.4843 -4.57174 17.3475Q-4.65391 17.2107 -4.72928 17.0701Q-4.80465 16.9294 -4.87302 16.7853Q-4.94139 16.6411 -5.00261 16.4937Q-5.06383 16.3464 -5.11774 16.1962Q-5.17166 16.046 -5.21814 15.8934Q-5.26461 15.7407 -5.30355 15.586Q-5.34248 15.4312 -5.37377 15.2748ZM-2.60485 -15.1628Q-1.80422 -10.7593 0.63903 -10.2248Q3.28529 -9.64598 6.59167 -14.6056Q6.68018 -14.7383 6.7751 -14.8666Q6.87002 -14.9948 6.97112 -15.1183Q7.07222 -15.2417 7.17925 -15.3601Q7.28629 -15.4784 7.399 -15.5914Q7.51171 -15.7043 7.62983 -15.8116Q7.74795 -15.9189 7.87119 -16.0203Q7.99443 -16.1216 8.12249 -16.2168Q8.25056 -16.312 8.38314 -16.4008Q8.51572 -16.4896 8.6525 -16.5717Q8.78928 -16.6539 8.92992 -16.7293Q9.07057 -16.8046 9.21475 -16.873Q9.35892 -16.9414 9.50628 -17.0026Q9.65363 -17.0638 9.80381 -17.1177Q9.954 -17.1717 10.1066 -17.2181Q10.2593 -17.2646 10.414 -17.3035Q10.5688 -17.3425 10.7252 -17.3738Q10.8817 -17.4051 11.0395 -17.4286Q11.1973 -17.4522 11.3561 -17.468Q11.5149 -17.4838 11.6743 -17.4918Q11.8336 -17.4998 11.9932 -17.5Q12.1528 -17.5002 12.3121 -17.4925Q12.4715 -17.4848 12.6303 -17.4694Q12.7892 -17.4539 12.947 -17.4306Q13.1049 -17.4074 13.2614 -17.3764Q13.4179 -17.3455 13.5728 -17.3069Q13.7276 -17.2682 13.8803 -17.2221Q14.0331 -17.1759 14.1834 -17.1223Q14.3337 -17.0687 14.4812 -17.0078Q14.6286 -16.9469 14.773 -16.8788Q14.9173 -16.8108 15.0581 -16.7357Q15.1989 -16.6606 15.3358 -16.5787Q15.4728 -16.4968 15.6056 -16.4083Q15.7383 -16.3198 15.8666 -16.2249Q15.9948 -16.13 16.1183 -16.0289Q16.2418 -15.9278 16.3601 -15.8207Q16.4784 -15.7137 16.5914 -15.601Q16.7043 -15.4883 16.8116 -15.3702Q16.9189 -15.2521 17.0203 -15.1288Q17.1216 -15.0056 17.2168 -14.8775Q17.312 -14.7494 17.4008 -14.6169Q17.4896 -14.4843 17.5717 -14.3475Q17.6539 -14.2107 17.7293 -14.0701Q17.8046 -13.9294 17.873 -13.7853Q17.9414 -13.6411 18.0026 -13.4937Q18.0638 -13.3464 18.1177 -13.1962Q18.1717 -13.046 18.2181 -12.8934Q18.2646 -12.7407 18.3035 -12.586Q18.3425 -12.4312 18.3738 -12.2748Q18.4051 -12.1183 18.4286 -11.9605Q18.4522 -11.8027 18.468 -11.6439Q18.4838 -11.4851 18.4918 -11.3257Q18.4998 -11.1664 18.5 -11.0068Q18.5002 -10.8472 18.4925 -10.6878Q18.4848 -10.5285 18.4694 -10.3697Q18.4539 -10.2108 18.4306 -10.053Q18.4074 -9.89511 18.3764 -9.73858Q18.3455 -9.58205 18.3069 -9.42723Q18.2682 -9.2724 18.2221 -9.11966Q18.1759 -8.96691 18.1223 -8.81662Q18.0687 -8.66632 18.0078 -8.51884Q17.9469 -8.37136 17.8788 -8.22704Q17.8108 -8.08272 17.7357 -7.94192Q17.6606 -7.80112 17.5787 -7.66417Q17.4968 -7.52722 17.4083 -7.39445Q9.17835 4.95053 -2.13903 2.47485Q-7.36928 1.33073 -11.0045 -3.05524Q-14.3506 -7.09243 -15.3952 -12.8372Q-15.4237 -12.9942 -15.4445 -13.1524Q-15.4653 -13.3106 -15.4783 -13.4697Q-15.4913 -13.6287 -15.4965 -13.7882Q-15.5017 -13.9477 -15.4991 -14.1072Q-15.4965 -14.2668 -15.486 -14.426Q-15.4756 -14.5852 -15.4573 -14.7437Q-15.4391 -14.9022 -15.413 -15.0597Q-15.387 -15.2171 -15.3533 -15.3731Q-15.3196 -15.529 -15.2783 -15.6832Q-15.237 -15.8373 -15.1881 -15.9892Q-15.1393 -16.1411 -15.0831 -16.2904Q-15.0269 -16.4398 -14.9634 -16.5862Q-14.8999 -16.7326 -14.8293 -16.8757Q-14.7587 -17.0188 -14.6812 -17.1582Q-14.6036 -17.2977 -14.5194 -17.4332Q-14.4351 -17.5687 -14.3442 -17.6999Q-14.2534 -17.8311 -14.1563 -17.9576Q-14.0591 -18.0842 -13.9559 -18.2059Q-13.8526 -18.3275 -13.7435 -18.444Q-13.6344 -18.5604 -13.5198 -18.6714Q-13.4051 -18.7823 -13.2851 -18.8875Q-13.1651 -18.9927 -13.0401 -19.0919Q-12.9151 -19.1911 -12.7854 -19.284Q-12.6557 -19.3769 -12.5216 -19.4634Q-12.3874 -19.5498 -12.2492 -19.6296Q-12.111 -19.7094 -11.9691 -19.7822Q-11.8272 -19.8551 -11.6818 -19.921Q-11.5365 -19.9868 -11.388 -20.0454Q-11.2396 -20.1041 -11.0885 -20.1553Q-10.9374 -20.2066 -10.784 -20.2504Q-10.6306 -20.2942 -10.4751 -20.3304Q-10.3197 -20.3666 -10.1628 -20.3952Q-10.0058 -20.4237 -9.84756 -20.4445Q-9.68935 -20.4653 -9.53032 -20.4783Q-9.37129 -20.4913 -9.21181 -20.4965Q-9.05232 -20.5017 -8.89278 -20.4991Q-8.73323 -20.4965 -8.57401 -20.486Q-8.41479 -20.4756 -8.25627 -20.4573Q-8.09775 -20.4391 -7.94032 -20.413Q-7.78289 -20.387 -7.62692 -20.3533Q-7.47096 -20.3196 -7.31684 -20.2783Q-7.16271 -20.237 -7.0108 -20.1881Q-6.85889 -20.1393 -6.70956 -20.0831Q-6.56023 -20.0269 -6.41384 -19.9634Q-6.26744 -19.8999 -6.12434 -19.8293Q-5.98124 -19.7587 -5.84178 -19.6812Q-5.70231 -19.6036 -5.56682 -19.5194Q-5.43133 -19.4351 -5.30013 -19.3442Q-5.16894 -19.2534 -5.04236 -19.1563Q-4.91578 -19.0591 -4.79412 -18.9559Q-4.67246 -18.8526 -4.55602 -18.7435Q-4.43957 -18.6344 -4.32861 -18.5198Q-4.21766 -18.4051 -4.11247 -18.2851Q-4.00728 -18.1651 -3.9081 -18.0401Q-3.80892 -17.9151 -3.71599 -17.7854Q-3.62306 -17.6557 -3.53661 -17.5216Q-3.45016 -17.3874 -3.3704 -17.2492Q-3.29064 -17.111 -3.21775 -16.9691Q-3.14486 -16.8272 -3.07903 -16.6818Q-3.01319 -16.5365 -2.95457 -16.388Q-2.89595 -16.2396 -2.84467 -16.0885Q-2.7934 -15.9374 -2.74961 -15.784Q-2.70582 -15.6306 -2.6696 -15.4752Q-2.63339 -15.3197 -2.60485 -15.1628Z"/>
	<path fill="#AB91DA" transform="matrix(0.77186 1.2021 -1.2021 0.77186 55 47.8571)" d="M-2.43203 14.6864Q-4.54342 4.12946 -3.47297 -4.43412Q-3.45165 -4.60474 -3.4137 -4.77244Q-3.37575 -4.94015 -3.32155 -5.10332Q-3.26734 -5.2665 -3.19741 -5.42358Q-3.12747 -5.58066 -3.04248 -5.73012Q-2.95748 -5.87959 -2.85824 -6.02001Q-2.75901 -6.16043 -2.64649 -6.29044Q-2.53396 -6.42045 -2.40924 -6.53881Q-2.28452 -6.65717 -2.14879 -6.76273Q-2.01307 -6.8683 -1.86765 -6.96005Q-1.72223 -7.0518 -1.56852 -7.12886Q-1.41481 -7.20591 -1.25429 -7.26753Q-1.09376 -7.32915 -0.927973 -7.37474Q-0.762183 -7.42033 -0.592722 -7.44945Q-0.423262 -7.47856 -0.251763 -7.49093Q-0.0802647 -7.5033 0.0916203 -7.4988Q0.263505 -7.4943 0.434122 -7.47297Q0.604738 -7.45165 0.772442 -7.4137Q0.940146 -7.37575 1.10332 -7.32155Q1.2665 -7.26734 1.42358 -7.19741Q1.58066 -7.12747 1.73012 -7.04248Q1.87959 -6.95748 2.02001 -6.85824Q2.16043 -6.75901 2.29044 -6.64649Q2.42045 -6.53396 2.53881 -6.40924Q2.65717 -6.28452 2.76273 -6.14879Q2.8683 -6.01307 2.96005 -5.86765Q3.0518 -5.72223 3.12886 -5.56852Q3.20591 -5.41481 3.26753 -5.25429Q3.32915 -5.09376 3.37474 -4.92797Q3.42033 -4.76218 3.44945 -4.59272Q3.47856 -4.42326 3.49093 -4.25176Q3.5033 -4.08026 3.4988 -3.90838Q3.4943 -3.73649 3.47297 -3.56588Q2.54342 3.87053 4.43203 13.3136Q4.46575 13.4822 4.48279 13.6533Q4.49982 13.8244 4.5 13.9963Q4.50018 14.1683 4.4835 14.3394Q4.46683 14.5105 4.43346 14.6792Q4.40009 14.8479 4.35035 15.0125Q4.30061 15.1771 4.23498 15.336Q4.16934 15.4949 4.08845 15.6467Q4.00755 15.7984 3.91218 15.9414Q3.8168 16.0845 3.70786 16.2175Q3.59892 16.3506 3.47746 16.4723Q3.35601 16.594 3.22321 16.7032Q3.0904 16.8124 2.94754 16.9081Q2.80467 17.0038 2.65312 17.085Q2.50156 17.1662 2.34277 17.2322Q2.18399 17.2981 2.0195 17.3482Q1.85501 17.3983 1.68641 17.432Q1.5178 17.4658 1.3467 17.4828Q1.17561 17.4998 1.00366 17.5Q0.831717 17.5002 0.660584 17.4835Q0.48945 17.4668 0.320775 17.4335Q0.1521 17.4001 -0.0124924 17.3504Q-0.177085 17.3006 -0.336009 17.235Q-0.494933 17.1693 -0.646659 17.0884Q-0.798385 17.0076 -0.941451 16.9122Q-1.08452 16.8168 -1.21755 16.7079Q-1.35057 16.5989 -1.47228 16.4775Q-1.59399 16.356 -1.70321 16.2232Q-1.81243 16.0904 -1.90811 15.9475Q-2.00378 15.8047 -2.085 15.6531Q-2.16621 15.5016 -2.23218 15.3428Q-2.29814 15.184 -2.34823 15.0195Q-2.39831 14.855 -2.43203 14.6864ZM-5.55646 -14.6261Q-4.39822 -8.25581 -0.00206095 -7.29415Q4.64523 -6.27756 9.08782 -12.9415Q9.1832 -13.0845 9.29214 -13.2175Q9.40108 -13.3506 9.52254 -13.4723Q9.64399 -13.594 9.77679 -13.7032Q9.90959 -13.8124 10.0525 -13.9081Q10.1953 -14.0038 10.3469 -14.085Q10.4984 -14.1662 10.6572 -14.2322Q10.816 -14.2981 10.9805 -14.3482Q11.145 -14.3983 11.3136 -14.432Q11.4822 -14.4658 11.6533 -14.4828Q11.8244 -14.4998 11.9963 -14.5Q12.1683 -14.5002 12.3394 -14.4835Q12.5105 -14.4668 12.6792 -14.4335Q12.8479 -14.4001 13.0125 -14.3504Q13.1771 -14.3006 13.336 -14.235Q13.4949 -14.1693 13.6467 -14.0884Q13.7984 -14.0076 13.9415 -13.9122Q14.0845 -13.8168 14.2175 -13.7079Q14.3506 -13.5989 14.4723 -13.4775Q14.594 -13.356 14.7032 -13.2232Q14.8124 -13.0904 14.9081 -12.9475Q15.0038 -12.8047 15.085 -12.6531Q15.1662 -12.5016 15.2322 -12.3428Q15.2981 -12.184 15.3482 -12.0195Q15.3983 -11.855 15.432 -11.6864Q15.4658 -11.5178 15.4828 -11.3467Q15.4998 -11.1756 15.5 -11.0037Q15.5002 -10.8317 15.4835 -10.6606Q15.4668 -10.4894 15.4335 -10.3208Q15.4001 -10.1521 15.3504 -9.98751Q15.3006 -9.82291 15.235 -9.66399Q15.1693 -9.50507 15.0884 -9.35334Q15.0076 -9.20162 14.9122 -9.05855Q7.81841 1.5821 -1.49794 -0.45585Q-10.4509 -2.41431 -12.4435 -13.3739Q-12.4743 -13.5431 -12.4883 -13.7144Q-12.5024 -13.8858 -12.4995 -14.0577Q-12.4967 -14.2297 -12.477 -14.4005Q-12.4573 -14.5713 -12.421 -14.7393Q-12.3847 -14.9074 -12.3321 -15.0711Q-12.2795 -15.2348 -12.211 -15.3925Q-12.1426 -15.5503 -12.0591 -15.7006Q-11.9755 -15.8509 -11.8777 -15.9922Q-11.7798 -16.1336 -11.6685 -16.2647Q-11.5573 -16.3958 -11.4337 -16.5154Q-11.3101 -16.6349 -11.1754 -16.7418Q-11.0407 -16.8487 -10.8962 -16.9418Q-10.7517 -17.035 -10.5987 -17.1135Q-10.4458 -17.1921 -10.2859 -17.2552Q-10.126 -17.3184 -9.96061 -17.3656Q-9.79527 -17.4128 -9.6261 -17.4435Q-9.45693 -17.4743 -9.28556 -17.4883Q-9.11419 -17.5024 -8.94227 -17.4995Q-8.77035 -17.4967 -8.59953 -17.477Q-8.42872 -17.4573 -8.26065 -17.421Q-8.09259 -17.3847 -7.92889 -17.3321Q-7.7652 -17.2795 -7.60745 -17.211Q-7.4497 -17.1426 -7.29942 -17.0591Q-7.14914 -16.9755 -7.00776 -16.8777Q-6.86639 -16.7798 -6.7353 -16.6685Q-6.6042 -16.5573 -6.48464 -16.4337Q-6.36508 -16.3101 -6.25821 -16.1754Q-6.15133 -16.0407 -6.05818 -15.8962Q-5.96502 -15.7517 -5.88648 -15.5987Q-5.80794 -15.4458 -5.74477 -15.2859Q-5.6816 -15.126 -5.63441 -14.9606Q-5.58721 -14.7953 -5.55646 -14.6261Z"/>
	<path fill="none" stroke="black" stroke-width="2.3999999" stroke-linejoin="round" transform="translate(55 79.2857)" d="M-17.54 7.70832Q-20.919 7.70832 -22.6914 5.82844Q-24.459 3.94855 -24.459 0.491523Q-24.459 -1.23211 -23.9219 -2.57977Q-23.3799 -3.9323 -22.4424 -4.86004Q-21.5 -5.78777 -20.2012 -6.26629Q-18.9024 -6.74969 -17.3789 -6.74969Q-16.5 -6.74969 -15.7822 -6.61785Q-15.0596 -6.4909 -14.5225 -6.32Q-13.9805 -6.1491 -13.6191 -5.96844Q-13.2578 -5.78777 -13.1016 -5.69012L-14 -3.17059Q-14.6397 -3.51238 -15.4893 -3.75164Q-16.3389 -3.9909 -17.418 -3.9909Q-18.1406 -3.9909 -18.8291 -3.75164Q-19.5176 -3.51238 -20.0498 -2.98016Q-20.582 -2.44793 -20.9043 -1.60809Q-21.2217 -0.768242 -21.2217 0.428047Q-21.2217 1.38996 -21.0117 2.22004Q-20.8018 3.05012 -20.333 3.6507Q-19.8594 4.25129 -19.1025 4.60285Q-18.3408 4.94953 -17.2617 4.94953Q-16.5781 4.94953 -16.041 4.87141Q-15.499 4.7884 -15.0791 4.68098Q-14.6592 4.56867 -14.3418 4.43195Q-14.0195 4.29035 -13.7607 4.16828L-12.9014 6.66828Q-13.5606 7.06867 -14.7617 7.39094Q-15.958 7.70832 -17.54 7.70832ZM-1.25974 2.15168Q-1.25974 3.39191 -1.62107 4.42219Q-1.9824 5.44758 -2.66111 6.18Q-3.33982 6.91242 -4.29197 7.31281Q-5.23923 7.70832 -6.42088 7.70832Q-7.5781 7.70832 -8.53025 7.31281Q-9.4824 6.91242 -10.1611 6.18Q-10.8398 5.44758 -11.2207 4.42219Q-11.6015 3.39191 -11.6015 2.15168Q-11.6015 0.911445 -11.2109 -0.109063Q-10.8203 -1.12957 -10.1318 -1.84734Q-9.43845 -2.57 -8.49119 -2.97039Q-7.53904 -3.37078 -6.42088 -3.37078Q-5.2783 -3.37078 -4.33103 -2.97039Q-3.37888 -2.57 -2.70017 -1.84734Q-2.02146 -1.12957 -1.6406 -0.109063Q-1.25974 0.911445 -1.25974 2.15168ZM-4.30173 2.15168Q-4.30173 0.769844 -4.85349 -0.021172Q-5.40037 -0.812188 -6.42088 -0.812188Q-7.44138 -0.812188 -8.00291 -0.021172Q-8.55955 0.769844 -8.55955 2.15168Q-8.55955 3.52863 -8.00291 4.33918Q-7.44138 5.14973 -6.42088 5.14973Q-5.40037 5.14973 -4.85349 4.33918Q-4.30173 3.52863 -4.30173 2.15168ZM7.37926 -0.45086Q6.97887 -0.548516 6.43688 -0.655938Q5.89977 -0.768242 5.27966 -0.768242Q5.00134 -0.768242 4.61071 -0.719414Q4.22009 -0.670586 4.01989 -0.611992L4.01989 7.43L1.04137 7.43L1.04137 -2.53094Q1.84216 -2.80926 2.93102 -3.05828Q4.01989 -3.31219 5.35778 -3.31219Q5.60192 -3.31219 5.93884 -3.27801Q6.28063 -3.24871 6.61755 -3.19988Q6.95934 -3.15105 7.29626 -3.07781Q7.63805 -3.00945 7.88219 -2.9118L7.37926 -0.45086ZM13.4999 5.34992Q13.9394 5.34992 14.3398 5.33039Q14.7402 5.31086 14.9794 5.2718L14.9794 3.01105Q14.7987 2.97199 14.4374 2.93293Q14.081 2.88898 13.7782 2.88898Q13.3583 2.88898 12.9872 2.9427Q12.621 2.99152 12.3378 3.13312Q12.0595 3.26984 11.8984 3.5091Q11.7421 3.74836 11.7421 4.10969Q11.7421 4.80793 12.2109 5.08137Q12.6796 5.34992 13.4999 5.34992ZM13.2607 -3.37078Q14.579 -3.37078 15.4579 -3.06805Q16.3417 -2.7702 16.8691 -2.20867Q17.4013 -1.65203 17.621 -0.85125Q17.8407 -0.0504689 17.8407 0.930976L17.8407 7.13215Q17.2011 7.26887 16.0585 7.4593Q14.9208 7.64973 13.2997 7.64973Q12.2792 7.64973 11.4491 7.46906Q10.6191 7.2884 10.0185 6.87824Q9.41788 6.46809 9.09562 5.80891Q8.77824 5.14973 8.77824 4.18781Q8.77824 3.26984 9.14933 2.6302Q9.52042 1.99055 10.1405 1.60969Q10.7607 1.22883 11.5614 1.06281Q12.3622 0.891914 13.2216 0.891914Q13.7978 0.891914 14.247 0.940742Q14.7011 0.98957 14.9794 1.0677L14.9794 0.789375Q14.9794 0.0276561 14.5204 -0.431328Q14.0614 -0.890313 12.9189 -0.890313Q12.162 -0.890313 11.4198 -0.778008Q10.6777 -0.670586 10.1405 -0.470391L9.75968 -2.86785Q10.0185 -2.95086 10.4091 -3.03875Q10.7997 -3.13152 11.2587 -3.19988Q11.7177 -3.26824 12.2255 -3.31707Q12.7382 -3.37078 13.2607 -3.37078ZM24.7406 7.6302Q23.4417 7.61066 22.6312 7.35187Q21.8206 7.0882 21.347 6.61945Q20.8783 6.1507 20.7074 5.48176Q20.5413 4.80793 20.5413 3.96809L20.5413 -7.60906L23.5199 -8.08758L23.5199 3.37238Q23.5199 3.76789 23.5785 4.09016Q23.6419 4.41242 23.8079 4.63215Q23.9788 4.85187 24.2962 4.99348Q24.6185 5.1302 25.1605 5.16926L24.7406 7.6302Z"/>
	<path fill="white" transform="translate(55 79.2857)" d="M-17.54 7.70832Q-20.919 7.70832 -22.6914 5.82844Q-24.459 3.94855 -24.459 0.491523Q-24.459 -1.23211 -23.9219 -2.57977Q-23.3799 -3.9323 -22.4424 -4.86004Q-21.5 -5.78777 -20.2012 -6.26629Q-18.9024 -6.74969 -17.3789 -6.74969Q-16.5 -6.74969 -15.7822 -6.61785Q-15.0596 -6.4909 -14.5225 -6.32Q-13.9805 -6.1491 -13.6191 -5.96844Q-13.2578 -5.78777 -13.1016 -5.69012L-14 -3.17059Q-14.6397 -3.51238 -15.4893 -3.75164Q-16.3389 -3.9909 -17.418 -3.9909Q-18.1406 -3.9909 -18.8291 -3.75164Q-19.5176 -3.51238 -20.0498 -2.98016Q-20.582 -2.44793 -20.9043 -1.60809Q-21.2217 -0.768242 -21.2217 0.428047Q-21.2217 1.38996 -21.0117 2.22004Q-20.8018 3.05012 -20.333 3.6507Q-19.8594 4.25129 -19.1025 4.60285Q-18.3408 4.94953 -17.2617 4.94953Q-16.5781 4.94953 -16.041 4.87141Q-15.499 4.7884 -15.0791 4.68098Q-14.6592 4.56867 -14.3418 4.43195Q-14.0195 4.29035 -13.7607 4.16828L-12.9014 6.66828Q-13.5606 7.06867 -14.7617 7.39094Q-15.958 7.70832 -17.54 7.70832ZM-1.25974 2.15168Q-1.25974 3.39191 -1.62107 4.42219Q-1.9824 5.44758 -2.66111 6.18Q-3.33982 6.91242 -4.29197 7.31281Q-5.23923 7.70832 -6.42088 7.70832Q-7.5781 7.70832 -8.53025 7.31281Q-9.4824 6.91242 -10.1611 6.18Q-10.8398 5.44758 -11.2207 4.42219Q-11.6015 3.39191 -11.6015 2.15168Q-11.6015 0.911445 -11.2109 -0.109063Q-10.8203 -1.12957 -10.1318 -1.84734Q-9.43845 -2.57 -8.49119 -2.97039Q-7.53904 -3.37078 -6.42088 -3.37078Q-5.2783 -3.37078 -4.33103 -2.97039Q-3.37888 -2.57 -2.70017 -1.84734Q-2.02146 -1.12957 -1.6406 -0.109063Q-1.25974 0.911445 -1.25974 2.15168ZM-4.30173 2.15168Q-4.30173 0.769844 -4.85349 -0.021172Q-5.40037 -0.812188 -6.42088 -0.812188Q-7.44138 -0.812188 -8.00291 -0.021172Q-8.55955 0.769844 -8.55955 2.15168Q-8.55955 3.52863 -8.00291 4.33918Q-7.44138 5.14973 -6.42088 5.14973Q-5.40037 5.14973 -4.85349 4.33918Q-4.30173 3.52863 -4.30173 2.15168ZM7.37926 -0.45086Q6.97887 -0.548516 6.43688 -0.655938Q5.89977 -0.768242 5.27966 -0.768242Q5.00134 -0.768242 4.61071 -0.719414Q4.22009 -0.670586 4.01989 -0.611992L4.01989 7.43L1.04137 7.43L1.04137 -2.53094Q1.84216 -2.80926 2.93102 -3.05828Q4.01989 -3.31219 5.35778 -3.31219Q5.60192 -3.31219 5.93884 -3.27801Q6.28063 -3.24871 6.61755 -3.19988Q6.95934 -3.15105 7.29626 -3.07781Q7.63805 -3.00945 7.88219 -2.9118L7.37926 -0.45086ZM13.4999 5.34992Q13.9394 5.34992 14.3398 5.33039Q14.7402 5.31086 14.9794 5.2718L14.9794 3.01105Q14.7987 2.97199 14.4374 2.93293Q14.081 2.88898 13.7782 2.88898Q13.3583 2.88898 12.9872 2.9427Q12.621 2.99152 12.3378 3.13312Q12.0595 3.26984 11.8984 3.5091Q11.7421 3.74836 11.7421 4.10969Q11.7421 4.80793 12.2109 5.08137Q12.6796 5.34992 13.4999 5.34992ZM13.2607 -3.37078Q14.579 -3.37078 15.4579 -3.06805Q16.3417 -2.7702 16.8691 -2.20867Q17.4013 -1.65203 17.621 -0.85125Q17.8407 -0.0504689 17.8407 0.930976L17.8407 7.13215Q17.2011 7.26887 16.0585 7.4593Q14.9208 7.64973 13.2997 7.64973Q12.2792 7.64973 11.4491 7.46906Q10.6191 7.2884 10.0185 6.87824Q9.41788 6.46809 9.09562 5.80891Q8.77824 5.14973 8.77824 4.18781Q8.77824 3.26984 9.14933 2.6302Q9.52042 1.99055 10.1405 1.60969Q10.7607 1.22883 11.5614 1.06281Q12.3622 0.891914 13.2216 0.891914Q13.7978 0.891914 14.247 0.940742Q14.7011 0.98957 14.9794 1.0677L14.9794 0.789375Q14.9794 0.0276561 14.5204 -0.431328Q14.0614 -0.890313 12.9189 -0.890313Q12.162 -0.890313 11.4198 -0.778008Q10.6777 -0.670586 10.1405 -0.470391L9.75968 -2.86785Q10.0185 -2.95086 10.4091 -3.03875Q10.7997 -3.13152 11.2587 -3.19988Q11.7177 -3.26824 12.2255 -3.31707Q12.7382 -3.37078 13.2607 -3.37078ZM24.7406 7.6302Q23.4417 7.61066 22.6312 7.35187Q21.8206 7.0882 21.347 6.61945Q20.8783 6.1507 20.7074 5.48176Q20.5413 4.80793 20.5413 3.96809L20.5413 -7.60906L23.5199 -8.08758L23.5199 3.37238Q23.5199 3.76789 23.5785 4.09016Q23.6419 4.41242 23.8079 4.63215Q23.9788 4.85187 24.2962 4.99348Q24.6185 5.1302 25.1605 5.16926L24.7406 7.6302Z"/>
</svg>
