<?xml version="1.0" encoding="utf-8" ?>
<svg xmlns="http://www.w3.org/2000/svg" xmlns:xlink="http://www.w3.org/1999/xlink" width="110" height="110">
	<path fill="#1213BD" transform="matrix(0.643217 1.00175 -1.00175 0.643217 61.4536 18.2477)" d="M36 18.302C36 23.283 33.54 27.5 30.345 30.764C27.15 34.028 23.022 35.916 18.146 35.916C13.27 35.916 8.382 34.804 5.187 31.54C1.992 28.276 0 23.283 0 18.302C0 13.321 2.574 8.922 5.769 5.658C8.964 2.394 13.271 0 18.146 0C23.021 0 27.54 2.178 30.735 5.442C33.931 8.706 36 13.322 36 18.302Z"/>
	<path fill="white" transform="matrix(0.643217 1.00175 -1.00175 0.643217 61.4536 18.2477)" d="M29.994 18C29.994 21.314 28.902 24.559 26.73 26.73C24.558 28.901 21.313 29.528 18 29.528C14.687 29.528 11.911 28.432 9.739 26.261C7.567 24.09 6.312 21.314 6.312 18C6.312 14.686 7.212 11.555 9.383 9.383C11.554 7.211 14.686 5.608 18 5.608C21.314 5.608 24.203 7.454 26.375 9.625C28.547 11.796 29.994 14.686 29.994 18Z"/>
	<path fill="#88C9F9" transform="matrix(0.643217 1.00175 -1.00175 0.643217 61.4536 18.2477)" d="M25.871 18C25.871 22.418 22.418 26.112 18 26.112C13.582 26.112 10.261 22.418 10.261 18C10.261 13.582 13.582 10.215 18 10.215C22.418 10.215 25.871 13.582 25.871 18Z"/>
	<path fill="#292F33" transform="matrix(0.643217 1.00175 -1.00175 0.643217 61.4536 18.2477)" d="M23.075 17.825C23.075 20.49 20.84 22.733 18.175 22.733C15.51 22.733 13.443 20.49 13.443 17.825C13.443 15.16 15.51 12.99 18.175 12.99C20.84 12.99 23.075 15.16 23.075 17.825Z"/>
	<path fill="none" stroke="black" stroke-width="2.3999999" stroke-linejoin="round" transform="translate(55 79.2857)" d="M-16.9415 7.43Q-18.2794 5.05207 -19.8419 2.73273Q-21.3995 0.408515 -23.1622 -1.65203L-23.1622 7.43L-26.2384 7.43L-26.2384 -6.4323L-23.6993 -6.4323Q-23.0402 -5.76824 -22.2394 -4.80633Q-21.4386 -3.8493 -20.6085 -2.76043Q-19.7784 -1.67156 -18.9581 -0.499688Q-18.1378 0.672187 -17.42 1.75129L-17.42 -6.4323L-14.3195 -6.4323L-14.3195 7.43L-16.9415 7.43ZM-7.30006 5.34992Q-6.8606 5.34992 -6.46021 5.33039Q-6.05982 5.31086 -5.82056 5.2718L-5.82056 3.01105Q-6.00123 2.97199 -6.36256 2.93293Q-6.719 2.88898 -7.02174 2.88898Q-7.44166 2.88898 -7.81275 2.9427Q-8.17896 2.99152 -8.46217 3.13312Q-8.74049 3.26984 -8.90162 3.5091Q-9.05787 3.74836 -9.05787 4.10969Q-9.05787 4.80793 -8.58912 5.08137Q-8.12037 5.34992 -7.30006 5.34992ZM-7.53931 -3.37078Q-6.22095 -3.37078 -5.34205 -3.06805Q-4.45826 -2.7702 -3.93092 -2.20867Q-3.39869 -1.65203 -3.17896 -0.85125Q-2.95924 -0.0504689 -2.95924 0.930976L-2.95924 7.13215Q-3.59888 7.26887 -4.74146 7.4593Q-5.87916 7.64973 -7.50025 7.64973Q-8.52076 7.64973 -9.35084 7.46906Q-10.1809 7.2884 -10.7815 6.87824Q-11.3821 6.46809 -11.7044 5.80891Q-12.0217 5.14973 -12.0217 4.18781Q-12.0217 3.26984 -11.6506 2.6302Q-11.2795 1.99055 -10.6594 1.60969Q-10.0393 1.22883 -9.23853 1.06281Q-8.43775 0.891914 -7.57838 0.891914Q-7.0022 0.891914 -6.55299 0.940742Q-6.09888 0.98957 -5.82056 1.0677L-5.82056 0.789375Q-5.82056 0.0276561 -6.27955 -0.431328Q-6.73853 -0.890313 -7.88111 -0.890313Q-8.63795 -0.890313 -9.38013 -0.778008Q-10.1223 -0.670586 -10.6594 -0.470391L-11.0403 -2.86785Q-10.7815 -2.95086 -10.3909 -3.03875Q-10.0003 -3.13152 -9.54127 -3.19988Q-9.08228 -3.26824 -8.57447 -3.31707Q-8.06178 -3.37078 -7.53931 -3.37078ZM7.64176 -1.09051Q7.28043 -0.690117 6.67008 -0.00652361Q6.05973 0.672187 5.35661 1.4925Q4.65836 2.30793 3.95036 3.21125Q3.24235 4.10969 2.66129 4.94953L7.73942 4.94953L7.73942 7.43L-0.961754 7.43L-0.961754 5.67219Q-0.541832 4.94953 0.0489883 4.11945Q0.639809 3.28937 1.28922 2.44953Q1.93864 1.60969 2.57829 0.818672Q3.21793 0.0276561 3.75993 -0.611992L-0.717613 -0.611992L-0.717613 -3.08758L7.64176 -3.08758L7.64176 -1.09051ZM13.7599 5.34992Q14.1994 5.34992 14.5998 5.33039Q15.0001 5.31086 15.2394 5.2718L15.2394 3.01105Q15.0587 2.97199 14.6974 2.93293Q14.341 2.88898 14.0382 2.88898Q13.6183 2.88898 13.2472 2.9427Q12.881 2.99152 12.5978 3.13312Q12.3195 3.26984 12.1583 3.5091Q12.0021 3.74836 12.0021 4.10969Q12.0021 4.80793 12.4708 5.08137Q12.9396 5.34992 13.7599 5.34992ZM13.5207 -3.37078Q14.839 -3.37078 15.7179 -3.06805Q16.6017 -2.7702 17.1291 -2.20867Q17.6613 -1.65203 17.881 -0.85125Q18.1007 -0.0504689 18.1007 0.930976L18.1007 7.13215Q17.4611 7.26887 16.3185 7.4593Q15.1808 7.64973 13.5597 7.64973Q12.5392 7.64973 11.7091 7.46906Q10.8791 7.2884 10.2785 6.87824Q9.67788 6.46809 9.35561 5.80891Q9.03823 5.14973 9.03823 4.18781Q9.03823 3.26984 9.40932 2.6302Q9.78042 1.99055 10.4005 1.60969Q11.0207 1.22883 11.8214 1.06281Q12.6222 0.891914 13.4816 0.891914Q14.0578 0.891914 14.507 0.940742Q14.9611 0.98957 15.2394 1.0677L15.2394 0.789375Q15.2394 0.0276561 14.7804 -0.431328Q14.3214 -0.890313 13.1789 -0.890313Q12.422 -0.890313 11.6798 -0.778008Q10.9376 -0.670586 10.4005 -0.470391L10.0197 -2.86785Q10.2785 -2.95086 10.6691 -3.03875Q11.0597 -3.13152 11.5187 -3.19988Q11.9777 -3.26824 12.4855 -3.31707Q12.9982 -3.37078 13.5207 -3.37078ZM27.1392 -0.45086Q26.7388 -0.548516 26.1968 -0.655938Q25.6597 -0.768242 25.0396 -0.768242Q24.7613 -0.768242 24.3707 -0.719414Q23.98 -0.670586 23.7799 -0.611992L23.7799 7.43L20.8013 7.43L20.8013 -2.53094Q21.6021 -2.80926 22.691 -3.05828Q23.7799 -3.31219 25.1177 -3.31219Q25.3619 -3.31219 25.6988 -3.27801Q26.0406 -3.24871 26.3775 -3.19988Q26.7193 -3.15105 27.0562 -3.07781Q27.398 -3.00945 27.6422 -2.9118L27.1392 -0.45086Z"/>
	<path fill="white" transform="translate(55 79.2857)" d="M-16.9415 7.43Q-18.2794 5.05207 -19.8419 2.73273Q-21.3995 0.408515 -23.1622 -1.65203L-23.1622 7.43L-26.2384 7.43L-26.2384 -6.4323L-23.6993 -6.4323Q-23.0402 -5.76824 -22.2394 -4.80633Q-21.4386 -3.8493 -20.6085 -2.76043Q-19.7784 -1.67156 -18.9581 -0.499688Q-18.1378 0.672187 -17.42 1.75129L-17.42 -6.4323L-14.3195 -6.4323L-14.3195 7.43L-16.9415 7.43ZM-7.30006 5.34992Q-6.8606 5.34992 -6.46021 5.33039Q-6.05982 5.31086 -5.82056 5.2718L-5.82056 3.01105Q-6.00123 2.97199 -6.36256 2.93293Q-6.719 2.88898 -7.02174 2.88898Q-7.44166 2.88898 -7.81275 2.9427Q-8.17896 2.99152 -8.46217 3.13312Q-8.74049 3.26984 -8.90162 3.5091Q-9.05787 3.74836 -9.05787 4.10969Q-9.05787 4.80793 -8.58912 5.08137Q-8.12037 5.34992 -7.30006 5.34992ZM-7.53931 -3.37078Q-6.22095 -3.37078 -5.34205 -3.06805Q-4.45826 -2.7702 -3.93092 -2.20867Q-3.39869 -1.65203 -3.17896 -0.85125Q-2.95924 -0.0504689 -2.95924 0.930976L-2.95924 7.13215Q-3.59888 7.26887 -4.74146 7.4593Q-5.87916 7.64973 -7.50025 7.64973Q-8.52076 7.64973 -9.35084 7.46906Q-10.1809 7.2884 -10.7815 6.87824Q-11.3821 6.46809 -11.7044 5.80891Q-12.0217 5.14973 -12.0217 4.18781Q-12.0217 3.26984 -11.6506 2.6302Q-11.2795 1.99055 -10.6594 1.60969Q-10.0393 1.22883 -9.23853 1.06281Q-8.43775 0.891914 -7.57838 0.891914Q-7.0022 0.891914 -6.55299 0.940742Q-6.09888 0.98957 -5.82056 1.0677L-5.82056 0.789375Q-5.82056 0.0276561 -6.27955 -0.431328Q-6.73853 -0.890313 -7.88111 -0.890313Q-8.63795 -0.890313 -9.38013 -0.778008Q-10.1223 -0.670586 -10.6594 -0.470391L-11.0403 -2.86785Q-10.7815 -2.95086 -10.3909 -3.03875Q-10.0003 -3.13152 -9.54127 -3.19988Q-9.08228 -3.26824 -8.57447 -3.31707Q-8.06178 -3.37078 -7.53931 -3.37078ZM7.64176 -1.09051Q7.28043 -0.690117 6.67008 -0.00652361Q6.05973 0.672187 5.35661 1.4925Q4.65836 2.30793 3.95036 3.21125Q3.24235 4.10969 2.66129 4.94953L7.73942 4.94953L7.73942 7.43L-0.961754 7.43L-0.961754 5.67219Q-0.541832 4.94953 0.0489883 4.11945Q0.639809 3.28937 1.28922 2.44953Q1.93864 1.60969 2.57829 0.818672Q3.21793 0.0276561 3.75993 -0.611992L-0.717613 -0.611992L-0.717613 -3.08758L7.64176 -3.08758L7.64176 -1.09051ZM13.7599 5.34992Q14.1994 5.34992 14.5998 5.33039Q15.0001 5.31086 15.2394 5.2718L15.2394 3.01105Q15.0587 2.97199 14.6974 2.93293Q14.341 2.88898 14.0382 2.88898Q13.6183 2.88898 13.2472 2.9427Q12.881 2.99152 12.5978 3.13312Q12.3195 3.26984 12.1583 3.5091Q12.0021 3.74836 12.0021 4.10969Q12.0021 4.80793 12.4708 5.08137Q12.9396 5.34992 13.7599 5.34992ZM13.5207 -3.37078Q14.839 -3.37078 15.7179 -3.06805Q16.6017 -2.7702 17.1291 -2.20867Q17.6613 -1.65203 17.881 -0.85125Q18.1007 -0.0504689 18.1007 0.930976L18.1007 7.13215Q17.4611 7.26887 16.3185 7.4593Q15.1808 7.64973 13.5597 7.64973Q12.5392 7.64973 11.7091 7.46906Q10.8791 7.2884 10.2785 6.87824Q9.67788 6.46809 9.35561 5.80891Q9.03823 5.14973 9.03823 4.18781Q9.03823 3.26984 9.40932 2.6302Q9.78042 1.99055 10.4005 1.60969Q11.0207 1.22883 11.8214 1.06281Q12.6222 0.891914 13.4816 0.891914Q14.0578 0.891914 14.507 0.940742Q14.9611 0.98957 15.2394 1.0677L15.2394 0.789375Q15.2394 0.0276561 14.7804 -0.431328Q14.3214 -0.890313 13.1789 -0.890313Q12.422 -0.890313 11.6798 -0.778008Q10.9376 -0.670586 10.4005 -0.470391L10.0197 -2.86785Q10.2785 -2.95086 10.6691 -3.03875Q11.0597 -3.13152 11.5187 -3.19988Q11.9777 -3.26824 12.4855 -3.31707Q12.9982 -3.37078 13.5207 -3.37078ZM27.1392 -0.45086Q26.7388 -0.548516 26.1968 -0.655938Q25.6597 -0.768242 25.0396 -0.768242Q24.7613 -0.768242 24.3707 -0.719414Q23.98 -0.670586 23.7799 -0.611992L23.7799 7.43L20.8013 7.43L20.8013 -2.53094Q21.6021 -2.80926 22.691 -3.05828Q23.7799 -3.31219 25.1177 -3.31219Q25.3619 -3.31219 25.6988 -3.27801Q26.0406 -3.24871 26.3775 -3.19988Q26.7193 -3.15105 27.0562 -3.07781Q27.398 -3.00945 27.6422 -2.9118L27.1392 -0.45086Z"/>
</svg>
