<?xml version="1.0" encoding="utf-8" ?>
<svg xmlns="http://www.w3.org/2000/svg" xmlns:xlink="http://www.w3.org/1999/xlink" width="110" height="110">
	<path fill="#3E42B8" transform="matrix(1.42857 0 0 1.42857 55 47.8571)" d="M-1.06288 -8.42125Q-2.49843 -8.42125 -3.77773 -8.05992Q-5.05702 -7.69859 -6.61952 -6.89781L-8.29921 -11.4193Q-6.73671 -12.4154 -4.61757 -12.9525Q-2.49843 -13.4994 -0.457413 -13.4994Q2.10118 -13.4994 3.76134 -12.8158Q5.42149 -12.142 6.37852 -11.097Q7.33556 -10.0619 7.71642 -8.82164Q8.09727 -7.58141 8.09727 -6.45836Q8.09727 -5.33531 7.75548 -4.39781Q7.42345 -3.46031 6.8961 -2.65953Q6.37852 -1.85875 5.69493 -1.13609Q5.0211 -0.423203 4.37657 0.221328Q3.89806 0.699843 3.38048 1.24672Q2.8629 1.78383 2.44298 2.37953Q2.02306 2.97523 1.73985 3.6393Q1.45665 4.30336 1.45665 4.97719Q1.45665 5.1432 1.45665 5.46547Q1.45665 5.77797 1.49571 6.02211L-3.77773 6.02211Q-3.85585 5.62172 -3.88515 5.12367Q-3.90468 4.61586 -3.90468 4.2643Q-3.90468 3.14125 -3.62148 2.24281Q-3.33827 1.34437 -2.87929 0.563125Q-2.4203 -0.218125 -1.8246 -0.891953Q-1.21913 -1.57555 -0.584366 -2.22008Q0.343369 -3.13805 1.09532 -4.03648Q1.85704 -4.94469 1.85704 -6.09703Q1.85704 -7.06383 1.11485 -7.73766Q0.382431 -8.42125 -1.06288 -8.42125ZM2.65782 11.6959Q2.65782 13.4635 1.51524 14.4205Q0.382431 15.3776 -1.06288 15.3776Q-2.49843 15.3776 -3.64101 14.4205Q-4.78358 13.4635 -4.78358 11.6959Q-4.78358 9.93812 -3.64101 8.98109Q-2.49843 8.02406 -1.06288 8.02406Q0.382431 8.02406 1.51524 8.98109Q2.65782 9.93812 2.65782 11.6959Z"/>
	<path fill="none" stroke="black" stroke-width="2.3999999" stroke-linejoin="round" transform="translate(55 79.2857)" d="M-23.0917 -6.4323Q-22.7303 -5.76824 -22.2616 -4.79656Q-21.7879 -3.82977 -21.2801 -2.69695Q-20.7723 -1.56902 -20.2743 -0.387383Q-19.7713 0.789375 -19.3319 1.82941Q-18.8876 0.789375 -18.3895 -0.387383Q-17.8915 -1.56902 -17.3837 -2.69695Q-16.871 -3.82977 -16.4022 -4.79656Q-15.9286 -5.76824 -15.5721 -6.4323L-12.7303 -6.4323Q-12.5301 -5.05047 -12.3592 -3.3366Q-12.1883 -1.62762 -12.0614 0.222969Q-11.9296 2.06867 -11.8221 3.92902Q-11.7098 5.78937 -11.6317 7.43L-14.6688 7.43Q-14.7323 5.40852 -14.8299 3.03059Q-14.9276 0.647773 -15.1278 -1.76922Q-15.4891 -0.929375 -15.9286 0.0911326Q-16.368 1.11164 -16.8026 2.13215Q-17.2323 3.14777 -17.6327 4.08039Q-18.0282 5.00812 -18.3114 5.67219L-20.4891 5.67219Q-20.7723 5.00812 -21.1727 4.08039Q-21.5682 3.14777 -21.9979 2.13215Q-22.4276 1.11164 -22.8719 0.0911326Q-23.3114 -0.929375 -23.6678 -1.76922Q-23.868 0.647773 -23.9706 3.03059Q-24.0682 5.40852 -24.1317 7.43L-27.1688 7.43Q-27.0907 5.78937 -26.9833 3.92902Q-26.871 2.06867 -26.744 0.222969Q-26.6122 -1.62762 -26.4413 -3.3366Q-26.2704 -5.05047 -26.0702 -6.4323L-23.0917 -6.4323ZM-6.05011 7.43L-9.02863 7.43L-9.02863 -3.08758L-6.05011 -3.08758L-6.05011 7.43ZM-5.77179 -6.12957Q-5.77179 -5.30926 -6.30402 -4.84051Q-6.83136 -4.37176 -7.54913 -4.37176Q-8.27179 -4.37176 -8.80402 -4.84051Q-9.33136 -5.30926 -9.33136 -6.12957Q-9.33136 -6.94988 -8.80402 -7.41863Q-8.27179 -7.89227 -7.54913 -7.89227Q-6.83136 -7.89227 -6.30402 -7.41863Q-5.77179 -6.94988 -5.77179 -6.12957ZM2.52774 1.84895Q2.52774 0.408515 2.15665 -0.187188Q1.79044 -0.787774 0.891998 -0.787774Q0.608795 -0.787774 0.306061 -0.758477Q0.00820923 -0.72918 -0.270111 -0.690117L-0.270111 7.43L-3.24863 7.43L-3.24863 -2.73113Q-2.86777 -2.82879 -2.35995 -2.93621Q-1.85214 -3.04852 -1.28085 -3.13641Q-0.709564 -3.22918 -0.108978 -3.27801Q0.491608 -3.33172 1.06778 -3.33172Q2.21036 -3.33172 2.91837 -3.03875Q3.63126 -2.75066 4.09024 -2.35027Q4.72989 -2.80926 5.55997 -3.06805Q6.39005 -3.33172 7.08829 -3.33172Q8.34805 -3.33172 9.1586 -2.98016Q9.96915 -2.62859 10.4477 -1.98895Q10.9311 -1.3493 11.1117 -0.470391Q11.2924 0.408515 11.2924 1.48762L11.2924 7.43L8.30899 7.43L8.30899 1.84895Q8.30899 0.408515 7.9379 -0.187188Q7.57169 -0.787774 6.66837 -0.787774Q6.42911 -0.787774 5.99942 -0.665703Q5.56973 -0.548516 5.29141 -0.367852Q5.42813 0.0911326 5.46719 0.603828Q5.51114 1.11164 5.51114 1.68781L5.51114 7.43L2.52774 7.43L2.52774 1.84895ZM16.9699 7.43L13.9914 7.43L13.9914 -3.08758L16.9699 -3.08758L16.9699 7.43ZM17.2482 -6.12957Q17.2482 -5.30926 16.716 -4.84051Q16.1886 -4.37176 15.4709 -4.37176Q14.7482 -4.37176 14.216 -4.84051Q13.6886 -5.30926 13.6886 -6.12957Q13.6886 -6.94988 14.216 -7.41863Q14.7482 -7.89227 15.4709 -7.89227Q16.1886 -7.89227 16.716 -7.41863Q17.2482 -6.94988 17.2482 -6.12957ZM19.2684 2.17121Q19.2684 1.02863 19.6395 0.0227733Q20.0106 -0.987969 20.7089 -1.73992Q21.412 -2.49188 22.4081 -2.93133Q23.4091 -3.37078 24.6884 -3.37078Q25.5282 -3.37078 26.2264 -3.21941Q26.9296 -3.06805 27.5887 -2.78973L26.9686 -0.411797Q26.5487 -0.568047 26.0458 -0.690117Q25.5477 -0.812188 24.9276 -0.812188Q23.6093 -0.812188 22.9598 0.00812483Q22.3104 0.828437 22.3104 2.17121Q22.3104 3.59211 22.9208 4.37336Q23.5311 5.14973 25.0497 5.14973Q25.5917 5.14973 26.2118 5.05207Q26.8319 4.94953 27.3495 4.7298L27.7694 7.17121Q27.2518 7.39094 26.4706 7.54719Q25.6893 7.70832 24.7518 7.70832Q23.3114 7.70832 22.2714 7.27863Q21.2313 6.84895 20.5575 6.11164Q19.8885 5.36945 19.576 4.35871Q19.2684 3.34797 19.2684 2.17121Z"/>
	<path fill="white" transform="translate(55 79.2857)" d="M-23.0917 -6.4323Q-22.7303 -5.76824 -22.2616 -4.79656Q-21.7879 -3.82977 -21.2801 -2.69695Q-20.7723 -1.56902 -20.2743 -0.387383Q-19.7713 0.789375 -19.3319 1.82941Q-18.8876 0.789375 -18.3895 -0.387383Q-17.8915 -1.56902 -17.3837 -2.69695Q-16.871 -3.82977 -16.4022 -4.79656Q-15.9286 -5.76824 -15.5721 -6.4323L-12.7303 -6.4323Q-12.5301 -5.05047 -12.3592 -3.3366Q-12.1883 -1.62762 -12.0614 0.222969Q-11.9296 2.06867 -11.8221 3.92902Q-11.7098 5.78937 -11.6317 7.43L-14.6688 7.43Q-14.7323 5.40852 -14.8299 3.03059Q-14.9276 0.647773 -15.1278 -1.76922Q-15.4891 -0.929375 -15.9286 0.0911326Q-16.368 1.11164 -16.8026 2.13215Q-17.2323 3.14777 -17.6327 4.08039Q-18.0282 5.00812 -18.3114 5.67219L-20.4891 5.67219Q-20.7723 5.00812 -21.1727 4.08039Q-21.5682 3.14777 -21.9979 2.13215Q-22.4276 1.11164 -22.8719 0.0911326Q-23.3114 -0.929375 -23.6678 -1.76922Q-23.868 0.647773 -23.9706 3.03059Q-24.0682 5.40852 -24.1317 7.43L-27.1688 7.43Q-27.0907 5.78937 -26.9833 3.92902Q-26.871 2.06867 -26.744 0.222969Q-26.6122 -1.62762 -26.4413 -3.3366Q-26.2704 -5.05047 -26.0702 -6.4323L-23.0917 -6.4323ZM-6.05011 7.43L-9.02863 7.43L-9.02863 -3.08758L-6.05011 -3.08758L-6.05011 7.43ZM-5.77179 -6.12957Q-5.77179 -5.30926 -6.30402 -4.84051Q-6.83136 -4.37176 -7.54913 -4.37176Q-8.27179 -4.37176 -8.80402 -4.84051Q-9.33136 -5.30926 -9.33136 -6.12957Q-9.33136 -6.94988 -8.80402 -7.41863Q-8.27179 -7.89227 -7.54913 -7.89227Q-6.83136 -7.89227 -6.30402 -7.41863Q-5.77179 -6.94988 -5.77179 -6.12957ZM2.52774 1.84895Q2.52774 0.408515 2.15665 -0.187188Q1.79044 -0.787774 0.891998 -0.787774Q0.608795 -0.787774 0.306061 -0.758477Q0.00820923 -0.72918 -0.270111 -0.690117L-0.270111 7.43L-3.24863 7.43L-3.24863 -2.73113Q-2.86777 -2.82879 -2.35995 -2.93621Q-1.85214 -3.04852 -1.28085 -3.13641Q-0.709564 -3.22918 -0.108978 -3.27801Q0.491608 -3.33172 1.06778 -3.33172Q2.21036 -3.33172 2.91837 -3.03875Q3.63126 -2.75066 4.09024 -2.35027Q4.72989 -2.80926 5.55997 -3.06805Q6.39005 -3.33172 7.08829 -3.33172Q8.34805 -3.33172 9.1586 -2.98016Q9.96915 -2.62859 10.4477 -1.98895Q10.9311 -1.3493 11.1117 -0.470391Q11.2924 0.408515 11.2924 1.48762L11.2924 7.43L8.30899 7.43L8.30899 1.84895Q8.30899 0.408515 7.9379 -0.187188Q7.57169 -0.787774 6.66837 -0.787774Q6.42911 -0.787774 5.99942 -0.665703Q5.56973 -0.548516 5.29141 -0.367852Q5.42813 0.0911326 5.46719 0.603828Q5.51114 1.11164 5.51114 1.68781L5.51114 7.43L2.52774 7.43L2.52774 1.84895ZM16.9699 7.43L13.9914 7.43L13.9914 -3.08758L16.9699 -3.08758L16.9699 7.43ZM17.2482 -6.12957Q17.2482 -5.30926 16.716 -4.84051Q16.1886 -4.37176 15.4709 -4.37176Q14.7482 -4.37176 14.216 -4.84051Q13.6886 -5.30926 13.6886 -6.12957Q13.6886 -6.94988 14.216 -7.41863Q14.7482 -7.89227 15.4709 -7.89227Q16.1886 -7.89227 16.716 -7.41863Q17.2482 -6.94988 17.2482 -6.12957ZM19.2684 2.17121Q19.2684 1.02863 19.6395 0.0227733Q20.0106 -0.987969 20.7089 -1.73992Q21.412 -2.49188 22.4081 -2.93133Q23.4091 -3.37078 24.6884 -3.37078Q25.5282 -3.37078 26.2264 -3.21941Q26.9296 -3.06805 27.5887 -2.78973L26.9686 -0.411797Q26.5487 -0.568047 26.0458 -0.690117Q25.5477 -0.812188 24.9276 -0.812188Q23.6093 -0.812188 22.9598 0.00812483Q22.3104 0.828437 22.3104 2.17121Q22.3104 3.59211 22.9208 4.37336Q23.5311 5.14973 25.0497 5.14973Q25.5917 5.14973 26.2118 5.05207Q26.8319 4.94953 27.3495 4.7298L27.7694 7.17121Q27.2518 7.39094 26.4706 7.54719Q25.6893 7.70832 24.7518 7.70832Q23.3114 7.70832 22.2714 7.27863Q21.2313 6.84895 20.5575 6.11164Q19.8885 5.36945 19.576 4.35871Q19.2684 3.34797 19.2684 2.17121Z"/>
</svg>
