<?xml version="1.0" encoding="utf-8" ?>
<svg xmlns="http://www.w3.org/2000/svg" xmlns:xlink="http://www.w3.org/1999/xlink" width="110" height="110">
	<path fill="#7D5B1F" transform="matrix(1.42857 0 0 1.42857 55 63.5714)" d="M-5 -19L5 -19L4 19L-4 19L-5 -19Z"/>
	<path fill="#654A19" transform="matrix(1.42857 0 0 1.42857 55 63.5714)" d="M-5 -20.5L5 -20.5Q5.07369 -20.5 5.14703 -20.4928Q5.22036 -20.4856 5.29263 -20.4712Q5.36491 -20.4568 5.43543 -20.4354Q5.50594 -20.414 5.57402 -20.3858Q5.64211 -20.3576 5.70709 -20.3229Q5.77208 -20.2881 5.83335 -20.2472Q5.89463 -20.2063 5.95159 -20.1595Q6.00855 -20.1128 6.06066 -20.0607Q6.11277 -20.0086 6.15952 -19.9516Q6.20626 -19.8946 6.2472 -19.8334Q6.28814 -19.7721 6.32288 -19.7071Q6.35762 -19.6421 6.38582 -19.574Q6.41402 -19.5059 6.43541 -19.4354Q6.4568 -19.3649 6.47118 -19.2926Q6.48555 -19.2204 6.49278 -19.147Q6.5 -19.0737 6.5 -19Q6.5 -18.9803 6.49948 -18.9605L5.49948 19.0395Q5.49757 19.1119 5.4887 19.1838Q5.47982 19.2557 5.46405 19.3264Q5.44829 19.3971 5.42578 19.466Q5.40327 19.5349 5.37422 19.6013Q5.34518 19.6676 5.30988 19.7309Q5.27457 19.7942 5.23333 19.8538Q5.1921 19.9133 5.14531 19.9686Q5.09852 20.024 5.04662 20.0745Q4.99471 20.1251 4.93818 20.1704Q4.88165 20.2157 4.82101 20.2554Q4.76037 20.295 4.6962 20.3287Q4.63202 20.3623 4.5649 20.3896Q4.49778 20.4169 4.42834 20.4375Q4.3589 20.4582 4.2878 20.4721Q4.21669 20.486 4.14457 20.493Q4.07245 20.5 4 20.5L-4 20.5Q-4.07245 20.5 -4.14457 20.493Q-4.21669 20.486 -4.2878 20.4721Q-4.3589 20.4582 -4.42834 20.4375Q-4.49778 20.4169 -4.5649 20.3896Q-4.63202 20.3623 -4.6962 20.3287Q-4.76037 20.295 -4.82101 20.2554Q-4.88165 20.2157 -4.93818 20.1704Q-4.99471 20.1251 -5.04662 20.0745Q-5.09852 20.024 -5.14531 19.9686Q-5.1921 19.9133 -5.23333 19.8537Q-5.27457 19.7942 -5.30988 19.7309Q-5.34518 19.6676 -5.37422 19.6013Q-5.40327 19.5349 -5.42578 19.466Q-5.44829 19.3971 -5.46405 19.3264Q-5.47982 19.2557 -5.4887 19.1838Q-5.49757 19.1119 -5.49948 19.0395L-6.49948 -18.9605Q-6.50142 -19.0342 -6.49613 -19.1077Q-6.49084 -19.1812 -6.47837 -19.2538Q-6.4659 -19.3265 -6.44637 -19.3975Q-6.42684 -19.4686 -6.40044 -19.5374Q-6.37404 -19.6062 -6.34103 -19.6721Q-6.30801 -19.7379 -6.26869 -19.8003Q-6.22938 -19.8626 -6.18415 -19.9208Q-6.13891 -19.9789 -6.0882 -20.0324Q-6.03748 -20.0858 -5.98176 -20.1341Q-5.92605 -20.1823 -5.86588 -20.2248Q-5.8057 -20.2674 -5.74165 -20.3038Q-5.6776 -20.3403 -5.61028 -20.3702Q-5.54297 -20.4002 -5.47304 -20.4235Q-5.40311 -20.4467 -5.33124 -20.463Q-5.25937 -20.4792 -5.18625 -20.4884Q-5.11313 -20.4975 -5.03946 -20.4995Q-5.01973 -20.5 -5 -20.5ZM-5 -17.5L-5 -19L-3.50052 -19.0395L-2.50052 18.9605L-4 19L-4 17.5L4 17.5L4 19L2.50052 18.9605L3.50052 -19.0395L5 -19L5 -17.5L-5 -17.5Z"/>
	<path fill="#888" transform="matrix(1.42857 0 0 1.42857 55 63.5714)" d="M-19 -10Q-21 -21 -20 -29Q0 -30 20 -29Q21 -21 19 -10L-19 -10Z"/>
	<path fill="#6E6E6E" transform="matrix(1.42857 0 0 1.42857 55 63.5714)" d="M-20.4758 -9.73167Q-22.5169 -20.9579 -21.4884 -29.1861Q-21.4721 -29.3163 -21.4335 -29.4417Q-21.3948 -29.5672 -21.335 -29.684Q-21.2751 -29.8008 -21.1959 -29.9054Q-21.1167 -30.0101 -21.0205 -30.0994Q-20.9243 -30.1887 -20.814 -30.2599Q-20.7038 -30.3311 -20.5829 -30.3821Q-20.4619 -30.4331 -20.334 -30.4624Q-20.206 -30.4916 -20.0749 -30.4981Q0 -31.5019 20.0749 -30.4981Q20.206 -30.4916 20.334 -30.4624Q20.4619 -30.4331 20.5829 -30.3821Q20.7038 -30.3311 20.814 -30.2599Q20.9243 -30.1887 21.0205 -30.0994Q21.1167 -30.0101 21.1959 -29.9054Q21.2751 -29.8008 21.335 -29.684Q21.3948 -29.5672 21.4335 -29.4417Q21.4721 -29.3163 21.4884 -29.1861Q22.5169 -20.9579 20.4758 -9.73167Q20.4524 -9.60305 20.4071 -9.48041Q20.3619 -9.35778 20.296 -9.24482Q20.2302 -9.13187 20.1459 -9.032Q20.0615 -8.93214 19.9611 -8.84837Q19.8608 -8.76461 19.7474 -8.69947Q19.6341 -8.63433 19.5112 -8.58978Q19.3883 -8.54523 19.2595 -8.52262Q19.1307 -8.5 19 -8.5L-19 -8.5Q-19.1307 -8.5 -19.2595 -8.52262Q-19.3883 -8.54523 -19.5112 -8.58978Q-19.6341 -8.63433 -19.7474 -8.69947Q-19.8608 -8.76461 -19.9611 -8.84837Q-20.0615 -8.93214 -20.1459 -9.032Q-20.2302 -9.13187 -20.296 -9.24482Q-20.3619 -9.35778 -20.4071 -9.48041Q-20.4524 -9.60305 -20.4758 -9.73167ZM-17.5242 -10.2683L-19 -10L-19 -11.5L19 -11.5L19 -10L17.5242 -10.2683Q19.4831 -21.0421 18.5116 -28.8139L20 -29L19.9251 -27.5019Q0 -28.4981 -19.9251 -27.5019L-20 -29L-18.5116 -28.8139Q-19.4831 -21.0421 -17.5242 -10.2683Z"/>
	<path fill="#6E6E6E" transform="matrix(1.42857 0 0 1.42857 55 35)" d="M10 0Q10 0.245486 9.98796 0.490677Q9.97591 0.735867 9.95185 0.980171Q9.92779 1.22448 9.89176 1.4673Q9.85574 1.71013 9.80785 1.9509Q9.75996 2.19167 9.70031 2.4298Q9.64067 2.66793 9.5694 2.90285Q9.49814 3.13776 9.41544 3.3689Q9.33274 3.60003 9.2388 3.82683Q9.14485 4.05363 9.03989 4.27555Q8.93493 4.49747 8.81921 4.71397Q8.70349 4.93047 8.57729 5.14103Q8.45108 5.35159 8.3147 5.5557Q8.17831 5.75982 8.03208 5.95699Q7.88584 6.15417 7.73011 6.34393Q7.57437 6.5337 7.40951 6.71559Q7.24465 6.89748 7.07107 7.07107Q6.89748 7.24465 6.71559 7.40951Q6.5337 7.57437 6.34393 7.7301Q6.15417 7.88584 5.95699 8.03207Q5.75982 8.17831 5.5557 8.3147Q5.35159 8.45108 5.14103 8.57729Q4.93047 8.70349 4.71397 8.81921Q4.49747 8.93493 4.27555 9.03989Q4.05363 9.14485 3.82683 9.23879Q3.60003 9.33274 3.3689 9.41544Q3.13776 9.49814 2.90285 9.5694Q2.66793 9.64067 2.4298 9.70031Q2.19167 9.75996 1.9509 9.80785Q1.71013 9.85574 1.4673 9.89176Q1.22448 9.92778 0.980171 9.95185Q0.735867 9.97591 0.490677 9.98796Q0.245486 10 0 10Q-0.245486 10 -0.490677 9.98795Q-0.735867 9.97591 -0.980171 9.95185Q-1.22448 9.92779 -1.4673 9.89176Q-1.71013 9.85574 -1.9509 9.80785Q-2.19167 9.75996 -2.4298 9.70031Q-2.66793 9.64067 -2.90285 9.5694Q-3.13776 9.49814 -3.3689 9.41544Q-3.60003 9.33274 -3.82683 9.2388Q-4.05363 9.14485 -4.27555 9.03989Q-4.49747 8.93493 -4.71397 8.81921Q-4.93047 8.70349 -5.14103 8.57729Q-5.35159 8.45108 -5.5557 8.3147Q-5.75982 8.17831 -5.95699 8.03208Q-6.15417 7.88584 -6.34393 7.73011Q-6.5337 7.57437 -6.71559 7.40951Q-6.89748 7.24465 -7.07107 7.07107Q-7.24465 6.89748 -7.40951 6.71559Q-7.57437 6.5337 -7.7301 6.34393Q-7.88584 6.15417 -8.03207 5.95699Q-8.17831 5.75982 -8.3147 5.5557Q-8.45108 5.35159 -8.57729 5.14103Q-8.70349 4.93047 -8.81921 4.71397Q-8.93493 4.49747 -9.03989 4.27555Q-9.14485 4.05363 -9.23879 3.82683Q-9.33274 3.60003 -9.41544 3.3689Q-9.49814 3.13776 -9.5694 2.90285Q-9.64067 2.66793 -9.70031 2.4298Q-9.75996 2.19167 -9.80785 1.9509Q-9.85574 1.71013 -9.89176 1.4673Q-9.92778 1.22448 -9.95185 0.980171Q-9.97591 0.735867 -9.98796 0.490677Q-10 0.245486 -10 0Q-10 -0.245486 -9.98796 -0.490677Q-9.97591 -0.735867 -9.95185 -0.980171Q-9.92779 -1.22448 -9.89176 -1.4673Q-9.85574 -1.71013 -9.80785 -1.9509Q-9.75996 -2.19167 -9.70031 -2.4298Q-9.64067 -2.66793 -9.5694 -2.90285Q-9.49814 -3.13776 -9.41544 -3.3689Q-9.33274 -3.60003 -9.2388 -3.82683Q-9.14485 -4.05363 -9.03989 -4.27555Q-8.93493 -4.49747 -8.81921 -4.71397Q-8.70349 -4.93047 -8.57729 -5.14103Q-8.45108 -5.35159 -8.3147 -5.5557Q-8.17831 -5.75982 -8.03208 -5.95699Q-7.88584 -6.15417 -7.73011 -6.34393Q-7.57437 -6.5337 -7.40951 -6.71559Q-7.24465 -6.89748 -7.07107 -7.07107Q-6.89748 -7.24465 -6.71559 -7.40951Q-6.5337 -7.57437 -6.34393 -7.7301Q-6.15417 -7.88584 -5.95699 -8.03207Q-5.75982 -8.17831 -5.5557 -8.3147Q-5.35159 -8.45108 -5.14103 -8.57729Q-4.93047 -8.70349 -4.71397 -8.81921Q-4.49747 -8.93493 -4.27555 -9.03989Q-4.05363 -9.14485 -3.82683 -9.23879Q-3.60003 -9.33274 -3.3689 -9.41544Q-3.13776 -9.49814 -2.90285 -9.5694Q-2.66793 -9.64067 -2.4298 -9.70031Q-2.19167 -9.75996 -1.9509 -9.80785Q-1.71013 -9.85574 -1.4673 -9.89176Q-1.22448 -9.92778 -0.980171 -9.95185Q-0.735867 -9.97591 -0.490677 -9.98796Q-0.245486 -10 0 -10Q0.245486 -10 0.490677 -9.98795Q0.735867 -9.97591 0.980171 -9.95185Q1.22448 -9.92779 1.4673 -9.89176Q1.71013 -9.85574 1.9509 -9.80785Q2.19167 -9.75996 2.4298 -9.70031Q2.66793 -9.64067 2.90285 -9.5694Q3.13776 -9.49814 3.3689 -9.41544Q3.60003 -9.33274 3.82683 -9.2388Q4.05363 -9.14485 4.27555 -9.03989Q4.49747 -8.93493 4.71397 -8.81921Q4.93047 -8.70349 5.14103 -8.57729Q5.35159 -8.45108 5.5557 -8.3147Q5.75982 -8.17831 5.95699 -8.03208Q6.15417 -7.88584 6.34393 -7.73011Q6.5337 -7.57437 6.71559 -7.40951Q6.89748 -7.24465 7.07107 -7.07107Q7.24465 -6.89748 7.40951 -6.71559Q7.57437 -6.5337 7.7301 -6.34393Q7.88584 -6.15417 8.03207 -5.95699Q8.17831 -5.75982 8.3147 -5.5557Q8.45108 -5.35159 8.57729 -5.14103Q8.70349 -4.93047 8.81921 -4.71397Q8.93493 -4.49747 9.03989 -4.27555Q9.14485 -4.05363 9.23879 -3.82683Q9.33274 -3.60003 9.41544 -3.3689Q9.49814 -3.13776 9.5694 -2.90285Q9.64067 -2.66793 9.70031 -2.4298Q9.75996 -2.19167 9.80785 -1.9509Q9.85574 -1.71013 9.89176 -1.4673Q9.92778 -1.22448 9.95185 -0.980171Q9.97591 -0.735867 9.98796 -0.490677Q10 -0.245486 10 0"/>
	<path fill="#29F2E5" transform="translate(55 35)" d="M5 0L9.51057 3.09017L4.04508 2.93893L5.87785 8.09017L1.54508 4.75528L-4.37114e-07 10L-1.54509 4.75528L-5.87785 8.09017L-4.04509 2.93893L-9.51056 3.09017L-5 -4.37114e-07L-9.51057 -3.09017L-4.04508 -2.93893L-5.87785 -8.09017L-1.54509 -4.75528L1.19249e-07 -10L1.54509 -4.75528L5.87785 -8.09017L4.04508 -2.93893L9.51057 -3.09017L5 0Z"/>
	<path fill="#21C4B9" transform="translate(55 35)" d="M5.28259 -0.412483L11.1933 3.63693L4.03125 3.43874L4.04508 2.93893L4.51616 2.77132L6.91785 9.5216L1.24012 5.15151L1.54508 4.75528L2.02471 4.89658L-5.47056e-07 11.7693L-2.02471 4.89658L-1.54509 4.75528L-1.24012 5.15151L-6.91785 9.5216L-4.51616 2.77132L-4.04509 2.93893L-4.03125 3.43873L-11.1933 3.63693L-5.28259 -0.412484L-5 -4.37114e-07L-5.28259 0.412483L-11.1933 -3.63693L-4.03125 -3.43874L-4.04508 -2.93893L-4.51616 -2.77132L-6.91784 -9.5216L-1.24012 -5.15151L-1.54509 -4.75528L-2.02471 -4.89658L1.19249e-07 -11.7693L2.02471 -4.89658L1.54509 -4.75528L1.24012 -5.15151L6.91784 -9.5216L4.51616 -2.77132L4.04508 -2.93893L4.03125 -3.43874L11.1933 -3.63693L5.28259 0.412483L5 0L5.28259 -0.412483ZM4.11533 -3.19592e-08L9.22797 -3.50265L9.51057 -3.09017L9.5244 -2.59036L3.32937 -2.41893L5.40678 -8.25777L5.87785 -8.09017L6.18282 -7.69395L1.27171 -3.91391L-0.47962 -9.8587L1.19249e-07 -10L0.47962 -9.8587L-1.27171 -3.91391L-6.18282 -7.69395L-5.87785 -8.09017L-5.40678 -8.25777L-3.32937 -2.41893L-9.5244 -2.59036L-9.51057 -3.09017L-9.22797 -3.50265L-4.11533 -5.9691e-07L-9.22797 3.50265L-9.51056 3.09017L-9.5244 2.59036L-3.32937 2.41893L-5.40678 8.25777L-5.87785 8.09017L-6.18282 7.69395L-1.27171 3.91391L0.47962 9.8587L-4.37114e-07 10L-0.479621 9.8587L1.27171 3.91391L6.18282 7.69395L5.87785 8.09017L5.40678 8.25777L3.32937 2.41893L9.5244 2.59036L9.51057 3.09017L9.22797 3.50265L4.71741 0.412483L4.11533 -3.19592e-08Z"/>
	<path fill="none" stroke="black" stroke-width="2.3999999" stroke-linejoin="round" transform="translate(55 79.2857)" d="M-28.8116 -6.4323Q-28.4503 -5.76824 -27.9816 -4.79656Q-27.5079 -3.82977 -27.0001 -2.69695Q-26.4923 -1.56902 -25.9943 -0.387383Q-25.4913 0.789375 -25.0519 1.82941Q-24.6075 0.789375 -24.1095 -0.387383Q-23.6115 -1.56902 -23.1036 -2.69695Q-22.5909 -3.82977 -22.1222 -4.79656Q-21.6486 -5.76824 -21.2921 -6.4323L-18.4503 -6.4323Q-18.2501 -5.05047 -18.0792 -3.3366Q-17.9083 -1.62762 -17.7814 0.222969Q-17.6495 2.06867 -17.5421 3.92902Q-17.4298 5.78937 -17.3517 7.43L-20.3888 7.43Q-20.4523 5.40852 -20.5499 3.03059Q-20.6476 0.647773 -20.8478 -1.76922Q-21.2091 -0.929375 -21.6486 0.0911326Q-22.088 1.11164 -22.5226 2.13215Q-22.9523 3.14777 -23.3527 4.08039Q-23.7482 5.00812 -24.0314 5.67219L-26.2091 5.67219Q-26.4923 5.00812 -26.8927 4.08039Q-27.2882 3.14777 -27.7179 2.13215Q-28.1476 1.11164 -28.5919 0.0911326Q-29.0314 -0.929375 -29.3878 -1.76922Q-29.588 0.647773 -29.6906 3.03059Q-29.7882 5.40852 -29.8517 7.43L-32.8888 7.43Q-32.8107 5.78937 -32.7032 3.92902Q-32.5909 2.06867 -32.464 0.222969Q-32.3322 -1.62762 -32.1613 -3.3366Q-31.9904 -5.05047 -31.7902 -6.4323L-28.8116 -6.4323ZM-15.7301 11.1312Q-16.0084 11.1312 -16.5601 11.0677Q-17.1119 11.0091 -17.5904 10.848L-17.19 8.43098Q-16.8922 8.52863 -16.6383 8.5677Q-16.3892 8.61164 -16.0084 8.61164Q-15.3101 8.61164 -15.0318 8.19172Q-14.7486 7.7718 -14.7486 6.97102L-14.7486 -3.08758L-11.7701 -3.08758L-11.7701 7.04914Q-11.7701 9.12922 -12.7906 10.1302Q-13.8111 11.1312 -15.7301 11.1312ZM-11.4918 -6.12957Q-11.4918 -5.30926 -12.024 -4.84051Q-12.5513 -4.37176 -13.2691 -4.37176Q-13.9918 -4.37176 -14.524 -4.84051Q-15.0513 -5.30926 -15.0513 -6.12957Q-15.0513 -6.94988 -14.524 -7.41863Q-13.9918 -7.89227 -13.2691 -7.89227Q-12.5513 -7.89227 -12.024 -7.41863Q-11.4918 -6.94988 -11.4918 -6.12957ZM0.870255 2.15168Q0.870255 3.39191 0.508926 4.42219Q0.147598 5.44758 -0.531113 6.18Q-1.20982 6.91242 -2.16197 7.31281Q-3.10924 7.70832 -4.29088 7.70832Q-5.4481 7.70832 -6.40025 7.31281Q-7.3524 6.91242 -8.03111 6.18Q-8.70982 5.44758 -9.09068 4.42219Q-9.47154 3.39191 -9.47154 2.15168Q-9.47154 0.911445 -9.08092 -0.109063Q-8.69029 -1.12957 -8.00182 -1.84734Q-7.30846 -2.57 -6.36119 -2.97039Q-5.40904 -3.37078 -4.29088 -3.37078Q-3.1483 -3.37078 -2.20103 -2.97039Q-1.24889 -2.57 -0.570175 -1.84734Q0.108536 -1.12957 0.489395 -0.109063Q0.870255 0.911445 0.870255 2.15168ZM-2.17174 2.15168Q-2.17174 0.769844 -2.7235 -0.021172Q-3.27037 -0.812188 -4.29088 -0.812188Q-5.31139 -0.812188 -5.87291 -0.021172Q-6.42955 0.769844 -6.42955 2.15168Q-6.42955 3.52863 -5.87291 4.33918Q-5.31139 5.14973 -4.29088 5.14973Q-3.27037 5.14973 -2.7235 4.33918Q-2.17174 3.52863 -2.17174 2.15168ZM-6.53209 -4.61102Q-7.15221 -4.61102 -7.61119 -5.02117Q-8.07018 -5.43133 -8.07018 -6.12957Q-8.07018 -6.82781 -7.61119 -7.23797Q-7.15221 -7.64813 -6.53209 -7.64813Q-5.91197 -7.64813 -5.45299 -7.23797Q-4.994 -6.82781 -4.994 -6.12957Q-4.994 -5.43133 -5.45299 -5.02117Q-5.91197 -4.61102 -6.53209 -4.61102ZM-2.07408 -4.61102Q-2.6942 -4.61102 -3.15318 -5.02117Q-3.61217 -5.43133 -3.61217 -6.12957Q-3.61217 -6.82781 -3.15318 -7.23797Q-2.6942 -7.64813 -2.07408 -7.64813Q-1.45396 -7.64813 -0.99498 -7.23797Q-0.531113 -6.82781 -0.531113 -6.12957Q-0.531113 -5.43133 -0.99498 -5.02117Q-1.45396 -4.61102 -2.07408 -4.61102ZM7.37059 7.6302Q6.07176 7.61066 5.26122 7.35187Q4.45067 7.0882 3.97704 6.61945Q3.50829 6.1507 3.33739 5.48176Q3.17137 4.80793 3.17137 3.96809L3.17137 -7.60906L6.14989 -8.08758L6.14989 3.37238Q6.14989 3.76789 6.20848 4.09016Q6.27196 4.41242 6.43797 4.63215Q6.60887 4.85187 6.92625 4.99348Q7.24852 5.1302 7.79051 5.16926L7.37059 7.6302ZM9.49136 -2.73113Q10.2482 -2.95086 11.4494 -3.14129Q12.6505 -3.33172 13.9689 -3.33172Q15.3117 -3.33172 16.2003 -2.98016Q17.089 -2.62859 17.6066 -1.98895Q18.1291 -1.3493 18.3488 -0.470391Q18.5685 0.408515 18.5685 1.48762L18.5685 7.43L15.59 7.43L15.59 1.84895Q15.59 0.408515 15.2091 -0.187188Q14.8283 -0.787774 13.7882 -0.787774Q13.4709 -0.787774 13.1095 -0.758477Q12.7482 -0.72918 12.4699 -0.690117L12.4699 7.43L9.49136 7.43L9.49136 -2.73113ZM24.2499 7.43L21.2713 7.43L21.2713 -3.08758L24.2499 -3.08758L24.2499 7.43ZM24.5282 -6.12957Q24.5282 -5.30926 23.996 -4.84051Q23.4686 -4.37176 22.7508 -4.37176Q22.0282 -4.37176 21.496 -4.84051Q20.9686 -5.30926 20.9686 -6.12957Q20.9686 -6.94988 21.496 -7.41863Q22.0282 -7.89227 22.7508 -7.89227Q23.4686 -7.89227 23.996 -7.41863Q24.5282 -6.94988 24.5282 -6.12957ZM33.3892 -0.45086Q32.9888 -0.548516 32.4469 -0.655938Q31.9097 -0.768242 31.2896 -0.768242Q31.0113 -0.768242 30.6207 -0.719414Q30.2301 -0.670586 30.0299 -0.611992L30.0299 7.43L27.0513 7.43L27.0513 -2.53094Q27.8521 -2.80926 28.941 -3.05828Q30.0299 -3.31219 31.3678 -3.31219Q31.6119 -3.31219 31.9488 -3.27801Q32.2906 -3.24871 32.6275 -3.19988Q32.9693 -3.15105 33.3062 -3.07781Q33.648 -3.00945 33.8922 -2.9118L33.3892 -0.45086Z"/>
	<path fill="white" transform="translate(55 79.2857)" d="M-28.8116 -6.4323Q-28.4503 -5.76824 -27.9816 -4.79656Q-27.5079 -3.82977 -27.0001 -2.69695Q-26.4923 -1.56902 -25.9943 -0.387383Q-25.4913 0.789375 -25.0519 1.82941Q-24.6075 0.789375 -24.1095 -0.387383Q-23.6115 -1.56902 -23.1036 -2.69695Q-22.5909 -3.82977 -22.1222 -4.79656Q-21.6486 -5.76824 -21.2921 -6.4323L-18.4503 -6.4323Q-18.2501 -5.05047 -18.0792 -3.3366Q-17.9083 -1.62762 -17.7814 0.222969Q-17.6495 2.06867 -17.5421 3.92902Q-17.4298 5.78937 -17.3517 7.43L-20.3888 7.43Q-20.4523 5.40852 -20.5499 3.03059Q-20.6476 0.647773 -20.8478 -1.76922Q-21.2091 -0.929375 -21.6486 0.0911326Q-22.088 1.11164 -22.5226 2.13215Q-22.9523 3.14777 -23.3527 4.08039Q-23.7482 5.00812 -24.0314 5.67219L-26.2091 5.67219Q-26.4923 5.00812 -26.8927 4.08039Q-27.2882 3.14777 -27.7179 2.13215Q-28.1476 1.11164 -28.5919 0.0911326Q-29.0314 -0.929375 -29.3878 -1.76922Q-29.588 0.647773 -29.6906 3.03059Q-29.7882 5.40852 -29.8517 7.43L-32.8888 7.43Q-32.8107 5.78937 -32.7032 3.92902Q-32.5909 2.06867 -32.464 0.222969Q-32.3322 -1.62762 -32.1613 -3.3366Q-31.9904 -5.05047 -31.7902 -6.4323L-28.8116 -6.4323ZM-15.7301 11.1312Q-16.0084 11.1312 -16.5601 11.0677Q-17.1119 11.0091 -17.5904 10.848L-17.19 8.43098Q-16.8922 8.52863 -16.6383 8.5677Q-16.3892 8.61164 -16.0084 8.61164Q-15.3101 8.61164 -15.0318 8.19172Q-14.7486 7.7718 -14.7486 6.97102L-14.7486 -3.08758L-11.7701 -3.08758L-11.7701 7.04914Q-11.7701 9.12922 -12.7906 10.1302Q-13.8111 11.1312 -15.7301 11.1312ZM-11.4918 -6.12957Q-11.4918 -5.30926 -12.024 -4.84051Q-12.5513 -4.37176 -13.2691 -4.37176Q-13.9918 -4.37176 -14.524 -4.84051Q-15.0513 -5.30926 -15.0513 -6.12957Q-15.0513 -6.94988 -14.524 -7.41863Q-13.9918 -7.89227 -13.2691 -7.89227Q-12.5513 -7.89227 -12.024 -7.41863Q-11.4918 -6.94988 -11.4918 -6.12957ZM0.870255 2.15168Q0.870255 3.39191 0.508926 4.42219Q0.147598 5.44758 -0.531113 6.18Q-1.20982 6.91242 -2.16197 7.31281Q-3.10924 7.70832 -4.29088 7.70832Q-5.4481 7.70832 -6.40025 7.31281Q-7.3524 6.91242 -8.03111 6.18Q-8.70982 5.44758 -9.09068 4.42219Q-9.47154 3.39191 -9.47154 2.15168Q-9.47154 0.911445 -9.08092 -0.109063Q-8.69029 -1.12957 -8.00182 -1.84734Q-7.30846 -2.57 -6.36119 -2.97039Q-5.40904 -3.37078 -4.29088 -3.37078Q-3.1483 -3.37078 -2.20103 -2.97039Q-1.24889 -2.57 -0.570175 -1.84734Q0.108536 -1.12957 0.489395 -0.109063Q0.870255 0.911445 0.870255 2.15168ZM-2.17174 2.15168Q-2.17174 0.769844 -2.7235 -0.021172Q-3.27037 -0.812188 -4.29088 -0.812188Q-5.31139 -0.812188 -5.87291 -0.021172Q-6.42955 0.769844 -6.42955 2.15168Q-6.42955 3.52863 -5.87291 4.33918Q-5.31139 5.14973 -4.29088 5.14973Q-3.27037 5.14973 -2.7235 4.33918Q-2.17174 3.52863 -2.17174 2.15168ZM-6.53209 -4.61102Q-7.15221 -4.61102 -7.61119 -5.02117Q-8.07018 -5.43133 -8.07018 -6.12957Q-8.07018 -6.82781 -7.61119 -7.23797Q-7.15221 -7.64813 -6.53209 -7.64813Q-5.91197 -7.64813 -5.45299 -7.23797Q-4.994 -6.82781 -4.994 -6.12957Q-4.994 -5.43133 -5.45299 -5.02117Q-5.91197 -4.61102 -6.53209 -4.61102ZM-2.07408 -4.61102Q-2.6942 -4.61102 -3.15318 -5.02117Q-3.61217 -5.43133 -3.61217 -6.12957Q-3.61217 -6.82781 -3.15318 -7.23797Q-2.6942 -7.64813 -2.07408 -7.64813Q-1.45396 -7.64813 -0.99498 -7.23797Q-0.531113 -6.82781 -0.531113 -6.12957Q-0.531113 -5.43133 -0.99498 -5.02117Q-1.45396 -4.61102 -2.07408 -4.61102ZM7.37059 7.6302Q6.07176 7.61066 5.26122 7.35187Q4.45067 7.0882 3.97704 6.61945Q3.50829 6.1507 3.33739 5.48176Q3.17137 4.80793 3.17137 3.96809L3.17137 -7.60906L6.14989 -8.08758L6.14989 3.37238Q6.14989 3.76789 6.20848 4.09016Q6.27196 4.41242 6.43797 4.63215Q6.60887 4.85187 6.92625 4.99348Q7.24852 5.1302 7.79051 5.16926L7.37059 7.6302ZM9.49136 -2.73113Q10.2482 -2.95086 11.4494 -3.14129Q12.6505 -3.33172 13.9689 -3.33172Q15.3117 -3.33172 16.2003 -2.98016Q17.089 -2.62859 17.6066 -1.98895Q18.1291 -1.3493 18.3488 -0.470391Q18.5685 0.408515 18.5685 1.48762L18.5685 7.43L15.59 7.43L15.59 1.84895Q15.59 0.408515 15.2091 -0.187188Q14.8283 -0.787774 13.7882 -0.787774Q13.4709 -0.787774 13.1095 -0.758477Q12.7482 -0.72918 12.4699 -0.690117L12.4699 7.43L9.49136 7.43L9.49136 -2.73113ZM24.2499 7.43L21.2713 7.43L21.2713 -3.08758L24.2499 -3.08758L24.2499 7.43ZM24.5282 -6.12957Q24.5282 -5.30926 23.996 -4.84051Q23.4686 -4.37176 22.7508 -4.37176Q22.0282 -4.37176 21.496 -4.84051Q20.9686 -5.30926 20.9686 -6.12957Q20.9686 -6.94988 21.496 -7.41863Q22.0282 -7.89227 22.7508 -7.89227Q23.4686 -7.89227 23.996 -7.41863Q24.5282 -6.94988 24.5282 -6.12957ZM33.3892 -0.45086Q32.9888 -0.548516 32.4469 -0.655938Q31.9097 -0.768242 31.2896 -0.768242Q31.0113 -0.768242 30.6207 -0.719414Q30.2301 -0.670586 30.0299 -0.611992L30.0299 7.43L27.0513 7.43L27.0513 -2.53094Q27.8521 -2.80926 28.941 -3.05828Q30.0299 -3.31219 31.3678 -3.31219Q31.6119 -3.31219 31.9488 -3.27801Q32.2906 -3.24871 32.6275 -3.19988Q32.9693 -3.15105 33.3062 -3.07781Q33.648 -3.00945 33.8922 -2.9118L33.3892 -0.45086Z"/>
</svg>
