<svg xmlns="http://www.w3.org/2000/svg" width="110" height="110"><path fill="none" stroke="#bebe2a" stroke-linecap="round" stroke-linejoin="round" stroke-width="4.28571" d="m43.422 65.889-3.86 6.01"/><path fill="#ebeb34" d="M43.422 65.889c-10.566-15.273 1.012-33.305 23.156-36.063 6.707 21.283-4.871 39.314-23.156 36.063"/><path fill="none" stroke="#bebe2a" stroke-linecap="round" stroke-linejoin="round" stroke-width="4.28571" d="M43.422 65.889c-10.566-15.273 1.012-33.305 23.156-36.063 6.707 21.283-4.871 39.314-23.156 36.063"/><path fill="none" stroke="#bebe2a" stroke-linecap="round" stroke-linejoin="round" stroke-width="4.28571" d="M48.053 58.676q5.144-11.977 12.736-19.835"/><path fill="none" stroke="#000" stroke-linejoin="round" stroke-width="2.4" d="M44.64 84.035v2.68h-9.258V72.854h3.12v11.182zm1.298-2.5q0-1.401.43-2.451t1.128-1.748q.703-.698 1.611-1.06.913-.361 1.875-.361 2.237 0 3.536 1.372 1.303 1.367 1.303 4.028 0 .26-.02.572-.019.307-.043.546H49q.098.923.86 1.465.761.537 2.04.537.82 0 1.607-.146.79-.151 1.294-.371l.4 2.417q-.24.122-.64.244-.4.117-.893.205-.488.093-1.05.151-.556.059-1.118.059-1.42 0-2.47-.42t-1.744-1.147q-.688-.733-1.02-1.729-.328-1-.328-2.163Zm7.002-1.138q-.02-.38-.131-.742-.108-.361-.337-.64-.23-.278-.581-.458-.352-.181-.87-.181-.502 0-.864.17-.356.172-.595.45-.24.278-.372.65-.131.37-.19.751zm9.2 4.239q.44 0 .84-.02t.64-.058v-2.261q-.181-.04-.543-.078-.356-.044-.659-.044-.42 0-.79.053-.367.05-.65.19-.279.138-.44.377-.156.24-.156.6 0 .699.469.972.469.269 1.289.269Zm-.24-8.721q1.319 0 2.198.303.884.297 1.411.859.532.557.752 1.357.22.801.22 1.783v6.2q-.64.138-1.782.328-1.138.19-2.76.19-1.02 0-1.85-.18t-1.43-.591-.923-1.07q-.318-.659-.318-1.62 0-.918.371-1.558t.992-1.02 1.42-.547q.801-.171 1.66-.171.577 0 1.026.048.454.05.732.127v-.278q0-.762-.459-1.22-.459-.46-1.601-.46-.757 0-1.5.113-.741.107-1.278.307l-.381-2.397q.258-.083.65-.171.39-.093.849-.161.459-.069.967-.117.512-.054 1.035-.054Zm11.842-4.717q.84 0 1.538.171.698.166 1.08.327l-.582 2.378q-.4-.18-.87-.268-.468-.088-.868-.088-.542 0-.913.151-.366.147-.576.41-.21.259-.303.62-.088.357-.088.777v.522h3.682v2.476H72.16v8.042H69.18v-11.08q0-2.04 1.148-3.237 1.152-1.2 3.413-1.2Z"/><path fill="#fff" d="M44.64 84.035v2.68h-9.258V72.854h3.12v11.182zm1.298-2.5q0-1.401.43-2.451t1.128-1.748q.703-.698 1.611-1.06.913-.361 1.875-.361 2.237 0 3.536 1.372 1.303 1.367 1.303 4.028 0 .26-.02.572-.019.307-.043.546H49q.098.923.86 1.465.761.537 2.04.537.82 0 1.607-.146.79-.151 1.294-.371l.4 2.417q-.24.122-.64.244-.4.117-.893.205-.488.093-1.05.151-.556.059-1.118.059-1.42 0-2.47-.42t-1.744-1.147q-.688-.733-1.02-1.729-.328-1-.328-2.163m7.002-1.138q-.02-.38-.131-.742-.108-.361-.337-.64-.23-.278-.581-.458-.352-.181-.87-.181-.502 0-.864.17-.356.172-.595.45-.24.278-.372.65-.131.37-.19.751zm9.2 4.239q.44 0 .84-.02t.64-.058v-2.261q-.181-.04-.543-.078-.356-.044-.659-.044-.42 0-.79.053-.367.05-.65.19-.279.138-.44.377-.156.24-.156.6 0 .699.469.972.469.269 1.289.269m-.24-8.721q1.319 0 2.198.303.884.297 1.411.859.532.557.752 1.357.22.801.22 1.783v6.2q-.64.138-1.782.328-1.138.19-2.76.19-1.02 0-1.85-.18t-1.43-.591-.923-1.07q-.318-.659-.318-1.62 0-.918.371-1.558t.992-1.02 1.42-.547q.801-.171 1.66-.171.577 0 1.026.048.454.05.732.127v-.278q0-.762-.459-1.22-.459-.46-1.601-.46-.757 0-1.5.113-.741.107-1.278.307l-.381-2.397q.258-.083.65-.171.39-.093.849-.161.459-.069.967-.117.512-.054 1.035-.054m11.842-4.717q.84 0 1.538.171.698.166 1.08.327l-.582 2.378q-.4-.18-.87-.268-.468-.088-.868-.088-.542 0-.913.151-.366.147-.576.41-.21.259-.303.62-.088.357-.088.777v.522h3.682v2.476H72.16v8.042H69.18v-11.08q0-2.04 1.148-3.237 1.152-1.2 3.413-1.2"/></svg>